<svg width="14" height="14" viewBox="0 0 14 14" fill="none" xmlns="http://www.w3.org/2000/svg">
<path d="M6.99923 0.582031C8.61005 0.582031 9.9159 1.88787 9.9159 3.4987V5.83203C9.9159 7.44285 8.61005 8.7487 6.99923 8.7487C5.38837 8.7487 4.08254 7.44285 4.08254 5.83203V3.4987C4.08254 1.88787 5.38837 0.582031 6.99923 0.582031ZM1.78125 6.41537H2.95723C3.24028 8.39421 4.9421 9.91537 6.99923 9.91537C9.0563 9.91537 10.7581 8.39421 11.0412 6.41537H12.2171C11.9482 8.8488 10.016 10.781 7.58256 11.05V13.4154H6.4159V11.05C3.98243 10.781 2.05025 8.8488 1.78125 6.41537Z" fill="white"/>
</svg>
