<svg width="14" height="14" viewBox="0 0 14 14" fill="none" xmlns="http://www.w3.org/2000/svg">
<g clip-path="url(#clip0_4301_5285)">
<path d="M9.58079 10.4067C8.97879 10.7473 8.30282 10.9724 7.58305 11.052V13.4173H6.41638V11.052C3.98291 10.7829 2.05073 8.85075 1.78173 6.41732H2.95771C3.24075 8.39616 4.94258 9.91732 6.99971 9.91732C7.61227 9.91732 8.19333 9.78245 8.71483 9.54072L7.81055 8.63643C7.55312 8.71081 7.28105 8.75065 6.99971 8.75065C5.38885 8.75065 4.08302 7.4448 4.08302 5.83398V4.90894L0.8125 1.63842L1.63746 0.813468L13.1869 12.3629L12.3619 13.1878L9.58079 10.4067ZM11.3015 8.84422L10.4601 8.00276C10.7567 7.53055 10.9593 6.9933 11.0417 6.41732H12.2176C12.1186 7.31367 11.7938 8.14194 11.3015 8.84422ZM9.60464 7.1473L4.48295 2.02563C4.98959 1.16305 5.92702 0.583984 6.99971 0.583984C8.61053 0.583984 9.91638 1.88982 9.91638 3.50065V5.83398C9.91638 6.30643 9.80403 6.75262 9.60464 7.1473Z" fill="white"/>
</g>
<defs>
<clipPath id="clip0_4301_5285">
<rect width="14" height="14" fill="white"/>
</clipPath>
</defs>
</svg>
