<svg width="28" height="28" viewBox="0 0 28 28" fill="none" xmlns="http://www.w3.org/2000/svg">
<path d="M20.6191 16.6309C20.4136 16.8364 20.1128 16.9143 19.8334 16.8344L17.895 16.2799C17.6412 16.2073 17.4395 16.0142 17.3561 15.7637L16.6894 13.7639C16.6894 13.7639 15.5031 12.9639 13.8861 12.9639C12.2692 12.9639 11.0895 13.7639 11.0895 13.7639L10.4229 15.7634C10.3394 16.014 10.1375 16.2072 9.88353 16.2797L7.93862 16.8348C7.65931 16.9144 7.35876 16.8365 7.15339 16.6312L5.71839 15.1962C4.98761 14.4654 5.13859 13.2588 6.06467 12.8C7.96662 11.8577 11.0878 10.5639 13.8861 10.5639C16.6845 10.5639 19.8056 11.8577 21.7076 12.8C22.6336 13.2588 22.7846 14.4654 22.0538 15.1962L20.6191 16.6309Z" fill="white"/>
</svg>
