<?xml version='1.0' encoding='utf-8'?><!-- Generator: DarwingMaster 2.0.2, SVG Export Plug-In . SVG Version: 6.00 Build 0)--><svg version="1.1" x="0" y="0" viewBox="0 0 18 18" xmlns="http://www.w3.org/2000/svg" xmlns:xlink="http://www.w3.org/1999/xlink">
  <style type="text/css">.st2{stroke:#0977ea;stroke-opacity:1;stroke-width:1.6;stroke-linecap:butt;stroke-linejoin:round;fill:none;}
.st3{stroke:#0977ea;stroke-opacity:1;stroke-width:1.6;stroke-linecap:round;stroke-linejoin:round;fill:none;}
.st4{stroke:#0977ea;stroke-opacity:1;stroke-width:1.6;stroke-linecap:round;stroke-linejoin:round;fill:none;}</style>
  <defs/>
  <path class="st2" id="路径1" d="M 11.625 4.125 C 11.625 2.67525 10.4497 1.5 9 1.5 C 7.55025 1.5 6.375 2.67525 6.375 4.125 C 6.375 4.125 6.375 9 6.375 9 C 6.375 10.4497 7.55025 11.625 9 11.625 C 10.4497 11.625 11.625 10.4497 11.625 9 C 11.625 9 11.625 4.125 11.625 4.125  Z "/>
  <path class="st3" id="路径2" d="M 3.375 8.625 C 3.375 11.7316 5.89339 14.25 9 14.25 C 12.1066 14.25 14.625 11.7316 14.625 8.625 "/>
  <path class="st4" id="路径3" d="M 9 14.25 C 9 14.25 9 16.5 9 16.5 "/>
</svg>