<svg width="20" height="20" viewBox="0 0 20 20" fill="none" xmlns="http://www.w3.org/2000/svg">
<path d="M5.80805 3C6.11914 3 6.40575 3.1687 6.55675 3.44068L7.60418 5.32745C7.74131 5.57449 7.74778 5.8733 7.62139 6.12603L6.61233 8.1442C6.61233 8.1442 6.90475 9.6476 8.12857 10.8714C9.35239 12.0952 10.8508 12.3826 10.8508 12.3826L12.8686 11.3737C13.1215 11.2472 13.4205 11.2538 13.6677 11.3912L15.5598 12.4432C15.8315 12.5943 16 12.8807 16 13.1916V15.3638C16 16.47 14.9725 17.269 13.9243 16.9153C11.7716 16.1889 8.43008 14.8059 6.31211 12.6879C4.1941 10.5699 2.8111 7.22834 2.08473 5.07565C1.73107 4.0275 2.53003 3 3.63622 3H5.80805Z" fill="white"/>
<path d="M16 3L11.5 7.5" stroke="white" stroke-width="2" stroke-linecap="round"/>
<path d="M15 8H11V4" stroke="white" stroke-width="2" stroke-linecap="round" stroke-linejoin="round"/>
</svg>
