<svg width="20" height="20" viewBox="0 0 20 20" fill="none" xmlns="http://www.w3.org/2000/svg">
<path d="M7.19832 3.47461C7.48896 3.47461 7.75672 3.63222 7.8978 3.88631L8.87636 5.64904C9.00448 5.87984 9.01052 6.159 8.89244 6.39512L7.94972 8.2806C7.94972 8.2806 8.22292 9.68516 9.36628 10.8285C10.5096 11.9719 11.9095 12.2404 11.9095 12.2404L13.7947 11.2978C14.031 11.1796 14.3103 11.1858 14.5412 11.3141L16.3089 12.2969C16.5628 12.4381 16.7202 12.7057 16.7202 12.9961V15.0255C16.7202 16.059 15.7602 16.8054 14.781 16.475C12.7698 15.7964 9.64796 14.5043 7.66924 12.5256C5.69048 10.5468 4.3984 7.42496 3.71978 5.4138C3.38938 4.43456 4.13581 3.47461 5.16928 3.47461H7.19832Z" fill="white"/>
</svg>
