<svg version="1.1" x="0" y="0" width="100%" height="100%" viewBox="0 0 419430.4 69324.8" xmlns="http://www.w3.org/2000/svg">
  <path d="M 182314.6 17245.15 L 182314.6 12684.05 L 185100.05 12684.05 L 185100.05 17245.15 L 182314.6 17245.15 Z M 185814.05 11239.05 L 184925.8 12179.15 L 182384.3 12179.15 L 180504.95 11396.3 L 180504.95 19351.45 L 180782.9 19351.45 Q 181370.25 19331.05 181830.1 19121.1 Q 182289.1 18911.15 182314.6 18759.85 L 182314.6 17750.05 L 185100.05 17750.05 L 185100.05 19037.8 L 185413.7 19037.8 Q 185931.35 19015.7 186423.5 18814.25 Q 186914.8 18611.95 186963.25 18498.9 L 186963.25 12945 Q 187458.8 12819.2 187641.55 12614.35 L 185814.05 11239.05 Z M 178606.9 21196.8 L 178606.9 9341.85 L 188564.65 9341.85 L 188564.65 21196.8 L 178606.9 21196.8 Z M 189365.35 7740.45 L 188390.4 8836.95 L 178781.15 8836.95 L 176605.15 7949.55 L 176605.15 23424.65 L 176935.8 23424.65 Q 177611.55 23402.55 178097.75 23148.4 Q 178583.95 22894.25 178606.9 22676.65 L 178606.9 21701.7 L 188564.65 21701.7 L 188564.65 23303.1 L 188895.3 23303.1 Q 189491.15 23279.3 190024.95 23046.4 Q 190557.9 22813.5 190618.25 22658.8 L 190618.25 9672.5 Q 191145.25 9528.85 191332.25 9307 L 189365.35 7740.45 Z M 200941.5 10055.85 Q 201333.35 10060.1 201411.55 9777.05 Q 200956.8 9342.7 200447.65 8904.1 Q 200363.5 8831 200285.3 8763.85 Q 199810.15 8359.25 199775.3 8332.05 L 198852.2 9567.95 L 196607.35 9567.95 Q 196649 9499.1 196690.65 9428.55 Q 196976.25 8969.55 197233.8 8471.45 Q 197804.15 8497.8 197929.95 8157.8 L 195423.3 7235.55 Q 194979.6 8944.05 194274.1 10467.25 Q 193569.45 11989.6 192759.4 13032.55 L 192968.5 13188.95 Q 194801.1 12066.1 196241 10107.7 Q 196510.45 10587.95 196678.75 11189.75 Q 196847.05 11790.7 196815.6 12388.25 Q 197431 12917.8 197964.8 12694.25 Q 198341.35 12542.1 198497.75 12155.35 Q 198654.15 11769.45 198441.65 11286.65 Q 198164.55 10607.5 196850.45 10055.85 L 200941.5 10055.85 Z M 198208.75 21788.4 L 198208.75 18620.45 L 204022.75 18620.45 L 204022.75 21788.4 L 198208.75 21788.4 Z M 203848.5 18133.4 L 198313.3 18133.4 L 196084.6 17263 L 196084.6 23616.75 L 196380.4 23616.75 Q 197077.4 23593.8 197627.35 23366 Q 198177.3 23138.2 198208.75 22972.45 L 198208.75 22293.3 L 204022.75 22293.3 L 204022.75 23547.05 L 204388.25 23547.05 Q 204920.35 23528.35 205479.65 23351.55 Q 205516.2 23340.5 205551.05 23328.6 Q 206093.35 23148.4 206146.9 23042.15 L 206146.9 18934.1 Q 206642.45 18798.95 206773.35 18585.6 L 204788.6 17105.75 L 203848.5 18133.4 Z M 201725.2 15974.4 L 197808.4 15974.4 L 197947.8 16461.45 L 203970.9 16461.45 Q 204357.65 16466.55 204457.95 16183.5 Q 203953.9 15737.25 203412.45 15302.9 Q 203322.35 15230.65 203239.9 15164.35 Q 202735.85 14764 202700.15 14738.5 L 201725.2 15974.4 Z M 201307 11396.3 Q 202251.35 10869.3 203065.65 10055.85 L 203413.3 10055.85 Q 203831.5 10551.4 204155.35 11206.75 Q 204479.2 11862.1 204544.65 12527.65 Q 205244.2 12996.85 205761.85 12699.35 Q 206119.7 12499.6 206240.4 12088.2 Q 206360.25 11676.8 206120.55 11201.65 Q 205797.55 10516.55 204475.8 10055.85 L 208723.25 10055.85 Q 209110 10060.1 209210.3 9777.05 Q 208690.1 9325.7 208128.25 8880.3 Q 208017.75 8791.05 207916.6 8711.15 Q 207400.65 8305.7 207364.95 8280.2 L 206355.15 9567.95 L 203517.85 9567.95 Q 203936.05 9076.65 204301.55 8506.3 Q 204876.15 8524.15 204979.85 8175.65 L 202403.5 7253.4 Q 202148.5 8417.9 201742.2 9474.45 Q 201336.75 10531.85 200871.8 11291.75 L 199792.3 11047.8 Q 199335 12310.05 198098.25 13770.35 Q 197171.75 14867.7 195988.55 15891.95 Q 194413.5 17256.2 192725.4 18167.4 L 192812.1 18376.5 Q 195100.3 17611.5 197190.45 16307.6 Q 197941.85 15839.25 198627.8 15327.55 Q 200536.9 13902.1 201655.5 12353.4 Q 202545.45 14187.7 204192.75 15476.3 Q 205840.05 16764.9 207904.7 17593.65 Q 208011.8 17009.7 208402.8 16481 Q 208793.8 15953.15 209436.4 15748.3 L 209436.4 15504.35 Q 207626.75 15139.7 205795 14497.95 Q 205273.95 14308.4 204778.4 14088.25 Q 203036.75 13341.95 201933.45 12144.3 Q 202344.85 12108.6 202534.4 12015.95 Q 202723.95 11924.15 202769 11743.95 L 201307 11396.3 Z M 214537.25 16270.2 L 214293.3 16270.2 L 214293.3 13363.2 L 216121.65 13363.2 Q 216477.8 13367.45 216573.85 13084.4 Q 216129.3 12634.75 215635.45 12185.1 Q 215558.95 12115.4 215487.55 12049.95 Q 215024.3 11632.6 214989.45 11605.4 L 214102.05 12858.3 L 211299.6 12858.3 Q 212330.65 11626.65 213127.1 10264.95 L 216434.45 10264.95 Q 216791.45 10269.2 216887.5 9986.15 Q 216398.75 9547.55 215889.6 9148.05 Q 215851.35 9117.45 215813.95 9088.55 Q 215322.65 8705.2 215286.1 8680.55 L 214397.85 9760.05 L 213405.9 9760.05 Q 213771.4 9072.4 214032.35 8436.6 Q 214658.8 8366.9 214711.5 8036.25 L 212065.45 7235.55 Q 211883.55 8341.4 211453.45 9839.95 Q 211207.8 10692.5 210909.45 11539.1 Q 210389.25 13029.15 209801.9 14094.2 L 209994 14216.6 Q 210624.7 13659 211229.9 12945 L 211351.45 13363.2 L 212413.1 13363.2 L 212413.1 16270.2 L 210254.95 16270.2 L 210394.35 16758.1 L 212413.1 16758.1 L 212413.1 20482.8 Q 212427.55 20723.35 212265.2 20920.55 Q 212103.7 21117.75 211595.4 21527.45 L 213457.75 23268.25 Q 213697.45 23007.3 213806.25 22485.4 Q 214777.8 21345.55 215492.65 20397.8 Q 216206.65 19450.9 216591.7 18899.25 L 216487.15 18725 Q 215350.7 19447.5 214293.3 20065.45 L 214293.3 16758.1 L 216504.15 16758.1 Q 216861.15 16762.35 216957.2 16479.3 Q 216524.55 16040.7 216040.05 15593.6 Q 215965.25 15524.75 215896.4 15461 Q 215441.65 15045.35 215407.65 15017.3 L 214537.25 16270.2 Z M 219306.6 21910.8 L 219306.6 19212.05 L 223206.4 19212.05 L 223206.4 21910.8 L 219306.6 21910.8 Z M 223206.4 16253.2 L 223206.4 18725 L 219306.6 18725 L 219306.6 16253.2 L 223206.4 16253.2 Z M 223032.15 15748.3 L 219394.15 15748.3 L 217374.55 14929.75 L 217374.55 23581.9 L 217670.35 23581.9 Q 218298.5 23560.65 218788.95 23340.5 Q 219279.4 23119.5 219306.6 22954.6 L 219306.6 22397.85 L 223206.4 22397.85 L 223206.4 23442.5 L 223520.05 23442.5 Q 224054.7 23423.8 224579.15 23241.9 Q 225104.45 23060.85 225156.3 22937.6 L 225156.3 16566 Q 225665.45 16435.95 225834.6 16200.5 L 223937.4 14755.5 L 223032.15 15748.3 Z M 220264.55 10769 L 221952.65 10769 L 221952.65 13659 L 220264.55 13659 L 220264.55 10769 Z M 224320.75 13659 L 223832.85 13659 L 223832.85 10769 L 225904.3 10769 Q 226261.3 10774.1 226357.35 10491.05 Q 225957 10048.2 225479.3 9584.95 Q 225387.5 9494 225301.65 9411.55 Q 224858.8 8987.4 224825.65 8959.35 L 223955.25 10264.95 L 223832.85 10264.95 L 223832.85 8071.1 Q 224139.7 8018.4 224263.8 7903.65 Q 224387.9 7788.9 224407.45 7618.9 L 221952.65 7409.8 L 221952.65 10264.95 L 220264.55 10264.95 L 220264.55 8054.1 Q 220571.4 8001.4 220695.5 7885.8 Q 220819.6 7771.05 220839.15 7601.05 L 218419.2 7391.95 L 218419.2 10264.95 L 216730.25 10264.95 L 216869.65 10769 L 218419.2 10769 L 218419.2 13659 L 216278.05 13659 L 216417.45 14163.9 L 226287.65 14163.9 Q 226671 14168.15 226739.85 13885.1 Q 226330.15 13432.05 225851.6 12953.5 Q 225754.7 12855.75 225666.3 12768.2 Q 225223.45 12331.3 225191.15 12301.55 L 224320.75 13659 Z M 228637.9 7514.35 Q 229170 8159.5 229682.55 9004.4 Q 230194.25 9849.3 230413.55 10665.3 Q 231164.1 11117.5 231672.4 10774.95 Q 232112.7 10480.85 232119.5 9868.85 Q 232126.3 9256 231470.1 8602.35 Q 230729.75 7850.1 228812.15 7426.8 L 228637.9 7514.35 Z M 233912.15 19055.65 Q 233501.6 19228.2 233100.4 19397.35 Q 232402.55 19693.15 231754 19960.9 L 231754 12771.6 Q 232075.3 12716.35 232243.6 12625.4 Q 232411.05 12534.45 232485 12440.95 L 230796.05 11047.8 L 229890.8 11953.05 L 227558.4 11953.05 L 227714.8 12440.95 L 229873.8 12440.95 L 229873.8 19891.2 Q 229890.8 20150.45 229714.85 20343.4 Q 229538.9 20537.2 228968.55 20848.3 L 230360.85 23007.3 Q 230674.5 22824.55 230883.6 22328.15 Q 231951.2 21360.85 232761.25 20544 Q 233571.3 19727.15 233999.7 19229.9 L 233912.15 19055.65 Z M 235948.75 12301.55 L 235948.75 9028.2 L 240265.9 9028.2 L 240265.9 12301.55 L 235948.75 12301.55 Z M 243660.8 18271.95 Q 244073.9 18276.2 244147.85 17994 Q 243619.15 17530.75 243016.5 17049.65 Q 242827.8 16898.35 242662.9 16768.3 Q 242129.95 16348.4 242094.25 16322.9 L 240962.9 17784.9 L 238838.75 17784.9 Q 239078.45 16566 239134.55 15190.7 L 242773.4 15190.7 Q 243186.5 15195.8 243260.45 14912.75 Q 242763.2 14460.55 242199.65 13992.2 Q 242152.9 13952.25 242106.15 13914 Q 241557.9 13460.1 241398.1 13346.2 Q 241772.95 13249.3 242026.25 13132.85 Q 242280.4 13016.4 242303.35 12945 L 242303.35 9376.7 Q 242855.85 9237.3 243016.5 8994.2 L 241032.6 7496.5 L 240092.5 8541.15 L 236053.3 8541.15 L 233947 7705.6 L 233947 13919.95 L 234225.8 13919.95 Q 234882 13898.7 235400.5 13678.55 Q 235919.85 13458.4 235948.75 13293.5 L 235948.75 12806.45 L 240265.9 12806.45 L 240265.9 13467.75 L 240614.4 13467.75 Q 240962.9 13455 241363.25 13363.2 L 240335.6 14685.8 L 233390.25 14685.8 L 233529.65 15190.7 L 236923.7 15190.7 Q 236927.95 16566 236749.45 17784.9 L 232606.55 17784.9 L 232745.95 18271.95 L 236662.75 18271.95 Q 236389.9 19733.95 235350.35 21016.6 Q 234310.8 22298.4 232014.95 23407.65 L 232189.2 23651.6 Q 235142.1 22751.45 236600.7 21535.1 Q 236828.5 21350.65 237028.25 21159.4 Q 238306.65 19897.15 238699.35 18341.65 Q 238979 19564.8 239728.7 20914.6 Q 239890.2 21190 240076.35 21457.75 Q 240950.15 22771.85 242529.45 23616.75 Q 242605.95 22718.3 243005.45 22287.35 Q 243405.8 21855.55 244147.85 21701.7 L 244165.7 21475.6 Q 242044.1 20900.15 240784.4 20056.95 Q 239523.85 19213.75 239047.85 18271.95 L 243660.8 18271.95 Z " fill-rule="nonzero" style="fill:#d10000;;fill-opacity:1;"/>
  <path d="M 167624.9 39096.6 L 171323.7 32645.4 L 170907.9 32387.1 L 167051.6 39096.6 L 170907.9 45805.4 L 171323.7 45547.8 L 167624.9 39096.6 Z M 169674.5 39096.6 L 173359.3 32645.4 L 172943.5 32387.1 L 169101.2 39096.6 L 172943.5 45805.4 L 173359.3 45547.8 L 169674.5 39096.6 Z M 184211.4 33734.6 L 184211.4 34909.9 L 177961.1 34909.9 L 177961.1 33734.6 L 184211.4 33734.6 Z M 177961.1 36559.1 L 177961.1 35325.7 L 184211.4 35325.7 L 184211.4 36559.1 L 177961.1 36559.1 Z M 177961.1 36974.9 L 184211.4 36974.9 L 184211.4 37519.5 L 184397.6 37519.5 Q 184701.4 37508.3 185012.2 37401.2 Q 185323.7 37293.4 185358 37218.5 L 185358 33949.5 Q 185806 33838.9 185974.7 33663.2 L 184669.9 32674.1 L 184067.9 33318.8 L 178047.2 33318.8 L 176828.5 32802.9 L 176828.5 37663 L 176986 37663 Q 177357.7 37651.1 177651 37526.5 Q 177944.3 37401.9 177961.1 37304.6 L 177961.1 36974.9 Z M 177200.9 41920.4 L 179652.3 41920.4 L 179652.3 43124.4 Q 178330 43318.3 177200.9 43468.8 L 177200.9 41920.4 Z M 179652.3 38479.9 L 179652.3 39770 L 177200.9 39770 L 177200.9 38479.9 L 179652.3 38479.9 Z M 177200.9 40200.5 L 179652.3 40200.5 L 179652.3 41504.6 L 177200.9 41504.6 L 177200.9 40200.5 Z M 182089.7 42780.7 L 180742.2 42981.6 L 180742.2 38479.9 L 187250.8 38479.9 Q 187570 38483.4 187651.9 38250.3 Q 187263.4 37889.8 186838.5 37537.7 Q 186776.9 37485.9 186718.8 37438.3 Q 186319.8 37110.7 186290.4 37089 L 185544.9 38064.1 L 174434.5 38064.1 L 174563.3 38479.9 L 176125.7 38479.9 L 176125.7 43612.3 Q 176001.1 43627 175882.1 43641.7 Q 174971.4 43755.8 174434.5 43798.5 L 174950.4 45132 Q 175201 45081.6 175322.8 44816.3 Q 177641.2 44237.4 179369.5 43785.9 Q 179513 43748.8 179652.3 43712.4 L 179652.3 45719.3 L 179839.2 45719.3 Q 180251.5 45706.7 180489.5 45588.4 Q 180727.5 45470.8 180742.2 45404.3 L 180742.2 43411.4 Q 180869.6 43375 180992.8 43339.3 Q 181589.2 43167.1 182118.4 43024.3 L 182089.7 42780.7 Z M 185143.1 40099.7 Q 184756 41450.7 183981.8 42608.5 Q 182870.9 41644.6 182319.3 40099.7 L 185143.1 40099.7 Z M 185773.8 39024.5 L 185100.4 39669.9 L 181071.9 39669.9 L 181200.7 40099.7 L 182032.3 40099.7 Q 182480.3 42053.4 183465.9 43296.6 Q 182419.4 44558 180813.6 45389.6 L 180943.1 45590.5 Q 182767.3 44927.6 183967.8 43855.9 Q 185057 44941.6 186748.9 45576.5 Q 187007.2 44719.7 187738 44572.7 L 187766.7 44415.2 Q 185992.9 44009.9 184669.9 43153.1 Q 185799 41842 186347.8 40229.2 Q 186590.7 40211 186718.8 40171.8 Q 186846.2 40131.9 186906.4 40028.3 L 185773.8 39024.5 Z M 193902.9 44056.8 L 193902.9 40128.4 L 199178.1 40128.4 L 199178.1 44056.8 L 193902.9 44056.8 Z M 199135.4 39712.6 L 194060.4 39712.6 L 192799 39196.7 L 192799 45719.3 L 192985.2 45719.3 Q 193409.4 45708.1 193653.7 45594 Q 193898 45480.6 193902.9 45404.3 L 193902.9 44486.6 L 199178.1 44486.6 L 199178.1 45590.5 L 199364.3 45590.5 Q 199792.7 45577.2 200061.5 45459.6 Q 200331 45342 200339.4 45274.8 L 200339.4 40214.5 Q 200755.2 40139.6 200870 39956.2 L 199694 39067.9 L 199135.4 39712.6 Z M 199766.1 36831.4 L 191709.1 36831.4 L 191709.1 34666.3 Q 193786.7 34545.2 195839.1 34282 Q 196010.6 34259.6 196180 34237.2 Q 198210 33965.6 199751.4 33648.5 Q 200325.4 33878.1 200554.3 33677.2 L 199292.9 32458.5 Q 198186.2 32881.3 196518.8 33316.7 Q 196048.4 33439.9 195554.2 33558.9 Q 193803.5 33979.6 192038.8 34279.2 L 190547.8 33806 L 190547.8 37863.2 Q 190580 39674.1 190301.4 41489.2 Q 190251.7 41774.1 190189.4 42056.2 Q 189826.8 43852.4 188713.1 45404.3 L 188899.3 45576.5 Q 190316.1 44395.6 190915.3 42900.4 Q 191342.3 41870 191509.6 40804.6 Q 191737.1 39258.3 191709.1 37877.9 L 191709.1 37247.2 L 201629.5 37247.2 Q 201941.7 37250.7 202016.6 37017.6 Q 201604.3 36662.7 201154.9 36309.2 Q 201074.4 36245.5 201000.2 36187.4 Q 200584.4 35863.3 200554.3 35842.3 L 199766.1 36831.4 Z M 204841.1 43282.6 L 204841.1 39497.7 L 207622.2 39497.7 L 207622.2 43282.6 L 204841.1 43282.6 Z M 207622.2 35512.6 L 207622.2 39081.9 L 204841.1 39081.9 L 204841.1 35512.6 L 207622.2 35512.6 Z M 208066.7 34422.7 L 207478.7 35096.8 L 205801.5 35096.8 Q 206097.6 34645.3 206402.1 34148.3 Q 206705.9 33652 206948.1 33232.7 Q 207403.8 33225.7 207493.4 32917.7 L 205758.8 32515.9 Q 205658 33107.4 205527.1 33817.2 Q 205396.9 34527 205285.6 35096.8 L 204912.5 35096.8 L 203765.9 34566.2 L 203765.9 45246.8 L 203966.8 45246.8 Q 204322.4 45233.5 204575.8 45094.2 Q 204829.2 44954.9 204841.1 44845 L 204841.1 43698.4 L 207622.2 43698.4 L 207622.2 44802.3 L 207779.7 44802.3 Q 208090.5 44788.3 208385.2 44653.2 Q 208680.6 44518.8 208711.4 44429.2 L 208711.4 35727.5 Q 209159.4 35609.2 209328.1 35426.5 L 208066.7 34422.7 Z M 215077.2 34351.3 L 214403.1 35082.1 L 211507.2 35082.1 Q 211919.5 34229.5 212266.7 33290.1 Q 212714.7 33268.4 212797.3 32989.1 L 211106.1 32515.9 Q 210758.9 34187.5 210170.2 35732.4 Q 209581.5 37278 208912.3 38379.8 L 209113.2 38508.6 Q 210352.9 37315.1 211292.3 35497.9 L 214546.6 35497.9 Q 214489.2 39193.2 214303 41415 Q 214116.1 43637.5 213715 44042.1 Q 213624 44158.3 213509.2 44201.7 Q 213393.7 44245.1 213184.4 44243 Q 212885.5 44239.5 212284.9 44191.2 Q 211684.3 44142.2 211148.8 44085.5 L 211134.8 44329.1 Q 211617.1 44415.9 212009.1 44540.5 Q 212400.4 44665.1 212582.4 44816.3 Q 212898.1 45095.6 212869.4 45676.6 Q 214023 45694.8 214661.4 44959.8 Q 215167.5 44343.1 215397.8 42040.8 Q 215627.4 39738.5 215693.2 35670.1 Q 216162.9 35612.7 216309.9 35426.5 L 215077.2 34351.3 Z M 210159.7 38121.5 Q 210697.3 38714.4 211159.3 39524.3 Q 211622 40334.9 211750.8 41088.8 Q 212275.1 41464.7 212609 41156 Q 212856.8 40927.8 212833 40458.1 Q 212809.9 39989.1 212376.6 39420 Q 211822.9 38667.5 210303.2 38021.4 L 210159.7 38121.5 Z M 219004.9 41863 L 219004.9 38393.8 L 220682.1 38393.8 L 220682.1 41863 L 219004.9 41863 Z M 220682.1 34537.5 L 220682.1 37978 L 219004.9 37978 L 219004.9 34537.5 L 220682.1 34537.5 Z M 221126.6 33476.3 L 220538.6 34121.7 L 219162.4 34121.7 L 217929.7 33619.8 L 217929.7 43984.7 L 218101.9 43984.7 Q 218525.4 43972.1 218762.7 43843.3 Q 219000.7 43714.5 219004.9 43626.3 L 219004.9 42278.8 L 220682.1 42278.8 L 220682.1 43325.3 L 220854.3 43325.3 Q 221164.4 43311.3 221452.8 43176.9 Q 221741.2 43041.8 221772 42952.9 L 221772 34723.7 Q 222198.3 34623.6 222345.3 34437.4 L 221126.6 33476.3 Z M 223879 39827.4 L 223879 36888.8 L 225757.1 36888.8 Q 225764.1 38454.7 225556.2 39827.4 L 223879 39827.4 Z M 226875.7 34566.2 Q 226709.1 35019.8 226476 35537.1 Q 226242.2 36055.1 226000.7 36487 L 224065.2 36487 L 223506.6 36243.4 Q 224169.5 35490.9 224725.3 34566.2 L 226875.7 34566.2 Z M 228853.9 36888.8 L 228853.9 39827.4 L 226660.1 39827.4 Q 226879.2 38454.7 226904.4 36888.8 L 228853.9 36888.8 Z M 230445 42350.9 L 230287.5 42350.9 Q 230214 42673.6 230147.5 42976.7 Q 230053 43407.9 229976 43733.4 Q 229899 44058.2 229843 44199.6 Q 229771.6 44371.8 229613.4 44371.8 L 228853.9 44371.8 L 228022.3 44371.8 Q 227772.4 44375.3 227699.6 44327 Q 227626.8 44279.4 227635.2 44142.9 L 227635.2 40515.5 L 227635.2 40257.2 L 228853.9 40257.2 L 228853.9 40974 L 229026.1 40974 Q 229318 40962.1 229619 40839.6 Q 229919.3 40717.8 229943.1 40630.3 L 229943.1 37075 Q 230387.6 36974.9 230531.1 36788 L 229283.7 35842.3 L 228710.4 36487 L 226402.5 36487 Q 226783.3 36177.6 227157.1 35802.4 Q 227530.9 35427.2 227856.4 35078.6 Q 228037.7 34885.4 228194.5 34723.7 Q 228205.7 34723 228216.9 34721.6 Q 228613.8 34706.9 228767.8 34566.2 L 227549.1 33476.3 L 226875.7 34150.4 L 224954.2 34150.4 Q 225173.3 33745.1 225370 33318.8 Q 225832.7 33340.5 225929.3 33061.2 L 224294.8 32487.2 Q 223861.5 33981.7 223189.5 35295.6 Q 222516.8 36609.5 221772 37490.8 L 221943.5 37648.3 Q 222413.2 37318.6 222861.2 36902.8 L 222861.2 41117.5 L 223033.4 41117.5 Q 223415.6 41102.8 223644.5 40962.1 Q 223873.4 40820.7 223879 40730.4 L 223879 40257.2 L 225470.8 40257.2 Q 225197.8 41692.9 224208.7 42922.8 Q 224046.3 43117.4 223860.1 43306.4 Q 222717.7 44503.4 220352.4 45490.4 L 220509.9 45748 Q 223148.9 44865.3 224490.1 43706.1 Q 224889.8 43368.7 225203.4 43008.2 Q 226249.2 41769.2 226560 40257.2 L 226588.7 40257.2 L 226588.7 44443.9 Q 226568.4 44994.1 226798 45210.4 Q 227028.3 45427.4 227750 45418.3 L 228796.5 45418.3 Q 230007.5 45418.3 230447.1 45246.8 Q 230886 45074.6 230860.8 44730.2 Q 230867.1 44570.6 230792.9 44456.5 Q 230718 44341.7 230488.4 44257 L 230445 42350.9 Z M 236595.2 35196.9 Q 236021.9 36096.4 235104.2 36845.4 Q 235319.1 36563.3 235072 36189.5 Q 234824.9 35816.4 233856.8 35641.4 Q 234123.5 35430 234351.7 35216.5 Q 234362.2 35206.7 234373.4 35196.9 L 236595.2 35196.9 Z M 231835.9 38867 Q 233874.3 38400.8 235369.5 37496.4 Q 236864.7 36591.3 237741.8 35297 Q 238215 35297 238344.5 35125.5 L 237312 34207.8 L 236666.6 34781.1 L 236079.3 34781.1 L 236079.3 33892.1 L 238358.5 33892.1 Q 238656 33895.6 238716.9 33663.2 Q 238376 33353.1 238016.2 33073.1 Q 237656.4 32793.1 237627.7 32774.2 L 237068.4 33476.3 L 236079.3 33476.3 L 236079.3 32960.4 Q 236480.4 32874.3 236495.1 32616.7 L 235046.8 32473.2 L 235046.8 34623.6 L 233828.1 34150.4 Q 233514.5 34791.6 232997.2 35435.6 Q 232479.2 36078.9 231907.3 36515.7 L 232050.8 36701.9 Q 232860.7 36336.5 233584.5 35842.3 Q 233839.3 36041.1 234039.5 36323.9 Q 234240.4 36606.7 234301.3 36902.8 Q 234645.7 37128.9 234903.3 36988.9 Q 233559.3 38028.4 231721.1 38637.4 L 231835.9 38867 Z M 236796.1 43124.4 Q 237928.7 43436.6 239288.1 43959.5 Q 240282.8 44342.4 241208.2 44764.5 Q 242474.5 45340.6 243261.3 45848.8 Q 243891.3 45868.4 243832.5 45421.8 Q 243795.4 45224.4 243558.8 44971.7 Q 243069.5 44407.5 241411.9 43798.5 Q 242009 43622.8 242539.6 43414.9 Q 243069.5 43207 243462.2 43010.3 Q 243693.9 43074 243815 43046 Q 243936.8 43018 244006.8 42909.5 L 242745.4 42049.2 Q 242419.2 42385.2 241888.6 42815 Q 241358 43244.1 240795.9 43612.3 Q 239304.9 43153.1 236867.5 42866.8 L 236796.1 43124.4 Z M 237440.8 38135.5 Q 237718 38330.1 237933.6 38661.2 Q 238149.2 38991.6 238201 39325.5 Q 238644.8 39573.3 238920.6 39320.6 Q 239085.8 39173.6 239101.9 38941.9 Q 239118.7 38710.9 238924.1 38483.4 Q 238626.6 38103.3 237584.3 38021.4 L 237440.8 38135.5 Z M 240580.3 39483.7 L 236136.7 39483.7 L 235419.9 39168 Q 236415.3 38624.8 237232.9 38019.3 Q 238051.2 37413.8 238616.8 36816.7 Q 239501.6 38013.7 241096.9 38953.1 L 240580.3 39483.7 Z M 235978.5 42121.3 L 235978.5 41203.6 L 240695.1 41203.6 L 240695.1 42121.3 L 235978.5 42121.3 Z M 240695.1 40773.8 L 235978.5 40773.8 L 235978.5 39898.8 L 240695.1 39898.8 L 240695.1 40773.8 Z M 243418.8 32702.8 L 242745.4 33347.5 L 239175.4 33347.5 L 239304.9 33763.3 L 242745.4 33763.3 Q 242429.7 34576.7 241899.8 35283 Q 240914.2 34845.5 239433.7 34537.5 L 239304.9 34709.7 Q 240279.3 35178.7 241340.5 35928.4 Q 240616.7 36666.2 239591.2 37189.8 Q 239179.6 36935 238874.4 36659.2 Q 239415.5 36608.8 239462.4 36386.9 L 237656.4 35985.1 Q 237205.6 36831.4 236111.5 37789 Q 235286.9 38512.1 234269.8 39171.5 Q 232924.4 40045.1 231563.6 40587.6 L 231635 40802.5 Q 233312.2 40297.1 234903.3 39469 L 234903.3 44056.8 Q 234916.6 44219.2 234776.6 44362.7 Q 234635.9 44506.9 234186.5 44744.9 L 234918 45906.2 Q 235065 45837.6 235190.3 45619.2 Q 235905.7 45307.7 236557.4 45008.1 Q 237208.4 44709.2 237744.6 44458.6 Q 238277.3 44209.4 238645.5 44042.1 L 238602.1 43841.2 Q 237629.8 44049.1 236740.8 44229.7 Q 236338.3 44311.6 235978.5 44386.5 L 235978.5 42537.1 L 240695.1 42537.1 L 240695.1 42938.2 L 240882 42938.2 Q 241183 42925.6 241481.9 42796.8 Q 241780.8 42668 241813.7 42579.8 L 241813.7 39999.6 Q 242153.9 39924 242258.2 39784.7 L 241426.6 39154 Q 242727.2 39877.8 244179 40343.3 Q 244237.8 40032.5 244482.1 39770 Q 244725.7 39507.5 245096.7 39411.6 L 245110.7 39196.7 Q 243692.5 38914.6 242322.6 38453.3 Q 240952.7 37991.3 239878.2 37376 Q 241032.5 36949.7 241928.5 36329.5 Q 242472.4 36750.9 242922.5 37180.7 Q 243373.3 37610.5 243648.4 38021.4 Q 244246.2 38190.1 244372.2 37743.5 Q 244441.5 37477.5 244242 37078.5 Q 243934.7 36418.4 242702 35684.1 Q 243558.8 34860.2 244006.8 33863.4 Q 244447.8 33856.4 244566.1 33677.2 L 243418.8 32702.8 Z M 248522.5 45805.4 L 252378.8 39096.6 L 248522.5 32387.1 L 248106.7 32645.4 L 251805.5 39096.6 L 248106.7 45547.8 L 248522.5 45805.4 Z M 246486.9 45805.4 L 250329.2 39096.6 L 246486.9 32387.1 L 246071.1 32645.4 L 249755.9 39096.6 L 246071.1 45547.8 L 246486.9 45805.4 Z " fill-rule="nonzero" style="fill:#333333;;fill-opacity:1;"/>
  <path d="M 54308.6 54247.4 Q 54819.2 54978.2 55313 55903.4 Q 55350.8 55975.4 55386.8 56047.4 Q 55868 56977.4 56041.4 57823.4 Q 56535.8 58195.4 56828.6 57883.4 Q 57049.4 57646.4 57000.2 57130.4 Q 56950.4 56614.4 56499.2 55940.6 Q 55929.8 55068.2 54456.2 54161.6 L 54308.6 54247.4 Z M 56680.4 59887.4 Q 55664.6 60474.8 54716 61013.6 Q 53766.8 61552.4 53018.6 61964 L 53018.6 54689.6 Q 53448.8 54619.4 53473.4 54345.8 L 52011.2 54186.2 L 52011.2 62001.2 Q 52020.8 62202.8 51924.8 62319.2 Q 51828.8 62435.6 51507.2 62591 L 52170.8 63844.4 Q 52385.6 63767.6 52527.2 63414.2 Q 53804.6 62457.8 54837.8 61628.6 Q 55870.4 60798.8 56564.6 60223.4 Q 56676.8 60131 56778.8 60047.6 L 56680.4 59887.4 Z M 59211.8 53976.8 Q 59210 56206.4 58989.8 57936.8 Q 58811.6 59271.8 58317.8 60374.6 Q 57824 61477.4 56854.4 62402.6 Q 55605.8 63600.8 53240 64606.4 L 53362.4 64839.8 Q 55583.6 64133 56929.4 63242 Q 58274.6 62351.6 58965.8 61239.2 Q 59613.2 61959.8 60145.4 62855 Q 60677.6 63750.8 60846.2 64581.8 Q 61352 64920.8 61639.4 64589.6 Q 61865.6 64328 61798.4 63790.4 Q 61731.2 63252.8 61236.8 62582 Q 60631.4 61742.6 59138 60944.6 Q 59814.2 59667.8 60027.2 58068.8 Q 60240.8 56469.8 60281 54493.4 Q 60717.2 54419.6 60747.8 54124.4 L 59211.8 53976.8 Z M 63783.2 53731.4 Q 64196.6 54039.2 64596.8 54500.6 Q 64997 54962.6 65171.6 55427 Q 65633.6 55644.8 65878.4 55372.4 Q 66054.8 55178 66006.8 54860 Q 65959.4 54542.6 65600 54226.4 Q 65123.6 53789 63893.6 53621 L 63783.2 53731.4 Z M 62701.4 56434.4 Q 63105.8 56720.6 63491 57143 Q 63876.8 57564.8 64041.2 58007.6 Q 64488.2 58226 64728.2 57962.6 Q 64898.6 57777.2 64854.8 57474.8 Q 64811.6 57171.8 64467.2 56875.4 Q 64008.8 56460.8 62812.4 56324 L 62701.4 56434.4 Z M 66252.8 55943 Q 65360 57887 64896.8 58893.2 Q 64531.4 59686.4 64341.8 60092 Q 64152.2 60497.6 64063.4 60676.4 Q 63954.2 60894.8 63869 61042.4 Q 63781.4 61228.4 63712.4 61268.6 Q 63643.4 61308.8 63537.2 61301 L 62984 61301 L 62984 61559 Q 63356 61577 63598.4 61743.2 Q 63803 61889.6 63849.2 62547.8 Q 63894.8 63206 63758.6 64163.6 Q 63847.4 64775 64212.8 64778 Q 64566.2 64773.8 64772 64538.6 Q 64977.8 64303.4 64999.4 63893.6 Q 65010.8 63447.2 64941.8 63107.6 Q 64873.4 62768 64787 62494.4 Q 64663.4 62126.6 64643 61792.4 Q 64643 61307 64827.2 60711.2 Q 64920.8 60410.6 65198.6 59616.8 Q 65475.8 58823 65812.4 57873.8 Q 65995.4 57356 66166.4 56871.2 Q 66336.8 56385.8 66474.2 55992.2 L 66252.8 55943 Z M 70590.2 63315.8 L 70590.2 59887.4 L 72654.8 59887.4 L 72654.8 63315.8 L 70590.2 63315.8 Z M 67678.4 59887.4 L 69644 59887.4 L 69644 63315.8 L 67678.4 63315.8 L 67678.4 59887.4 Z M 69644 56397.8 L 69644 59531 L 67678.4 59531 L 67678.4 56397.8 L 69644 56397.8 Z M 72654.8 56397.8 L 72654.8 59531 L 70590.2 59531 L 70590.2 56397.8 L 72654.8 56397.8 Z M 73072.4 55464.2 L 72593.6 56041.4 L 70590.2 56041.4 L 70590.2 53940.2 Q 70808 53902.4 70901 53816 Q 70993.4 53729.6 71008.4 53608.4 L 69644 53460.8 L 69644 56041.4 L 67813.4 56041.4 L 66768.8 55611.2 L 66768.8 64667.6 L 66928.4 64667.6 Q 67281.8 64656.8 67478.6 64554.2 Q 67675.4 64451 67678.4 64385 L 67678.4 63672.2 L 72654.8 63672.2 L 72654.8 64544.6 L 72802.4 64544.6 Q 73133.6 64533.8 73356.8 64431.2 Q 73580 64328 73589 64262 L 73589 56496.2 Q 73979 56416.4 74092.4 56262.8 L 73072.4 55464.2 Z M 84599 63623 L 76771.4 63623 L 76771.4 57048.8 Q 77207.6 56978.6 77238.2 56705 L 75812.6 56545.4 L 75812.6 63512.6 Q 75530 63657.2 75358.4 63819.8 L 76488.8 64470.8 L 76869.8 63979.4 L 84599 63979.4 L 84599 64753.4 L 84783.2 64753.4 Q 85056.8 64743.8 85293.2 64635.2 Q 85529.6 64526.6 85545.2 64434.2 L 85545.2 57000.2 Q 85770.8 56963 85867.4 56880.2 Q 85964 56797.4 85987.4 56668.4 L 84599 56520.8 L 84599 63623 Z M 81108.8 61632.8 L 81108.8 59101.4 L 82546.4 59101.4 L 82546.4 61632.8 L 81108.8 61632.8 Z M 78811.4 59101.4 L 80261 59101.4 L 80261 61632.8 L 78811.4 61632.8 L 78811.4 59101.4 Z M 80261 56471.6 L 80261 58745 L 78811.4 58745 L 78811.4 56471.6 L 80261 56471.6 Z M 82546.4 56471.6 L 82546.4 58745 L 81108.8 58745 L 81108.8 56471.6 L 82546.4 56471.6 Z M 82682 62517.2 Q 82920.2 62507.6 83156.6 62408 Q 83392.4 62309 83419.4 62234.6 L 83419.4 56619.2 Q 83799.8 56532.8 83922.8 56373.2 L 82902.8 55574.6 L 82424 56103.2 L 78884.6 56103.2 L 77938.4 55673 L 77938.4 62701.4 L 78086 62701.4 Q 78373.4 62691.2 78587 62586.2 Q 78800.6 62481.8 78811.4 62406.8 L 78811.4 61988.6 L 82546.4 61988.6 L 82546.4 62517.2 L 82682 62517.2 Z M 84476 54493.4 L 75014 54493.4 L 75125 54861.8 L 86122.4 54861.8 Q 86390 54864.8 86454.2 54665 Q 86100.8 54347 85707.2 54044.6 Q 85634 53988.2 85566.8 53936.6 Q 85202.6 53661.8 85176.2 53645.6 L 84476 54493.4 Z M 89366.6 53411.6 Q 89655.2 53681.6 89898.2 54084.8 Q 90140.6 54488 90189.8 54886.4 Q 90589.4 55137.8 90852.8 54911 Q 91023.8 54765.8 91037.6 54510.2 Q 91051.4 54254 90831.8 53975.6 Q 90518 53551.4 89489.6 53313.8 L 89366.6 53411.6 Z M 93040.4 55415 Q 93302 55418 93360.2 55218.2 Q 93057.8 54924.8 92721.8 54656 Q 92700.8 54639.2 92681 54623 Q 92354 54362.6 92328.2 54345.8 L 91762.4 55058.6 L 87560 55058.6 L 87658.4 55415 L 93040.4 55415 Z M 88494.2 55611.2 Q 88736.6 55955 88961 56411.6 Q 89185.4 56868.2 89243.6 57294.8 Q 89611.4 57567.2 89864.6 57344.6 Q 90008.6 57218 90028.4 56982.8 Q 90048.2 56748.2 89882 56460.2 Q 89622.2 55971.8 88629.2 55537.4 L 88494.2 55611.2 Z M 88826 57946.4 L 92930 57946.4 Q 93200.6 57949.4 93249.8 57749.6 Q 92957.6 57473.6 92649.2 57221 Q 92340.8 56968.4 92315.6 56951 L 91787 57590 L 91062.2 57590 Q 91342.4 57279.8 91627.4 56885 Q 91912.4 56489.6 92156 56078.6 Q 92524.4 56078.6 92598.2 55857.2 L 91394 55451.6 Q 91253.6 56034.8 91080.8 56603.6 Q 90908 57173 90730.4 57590 L 88985.6 57590 L 87978.2 57171.8 L 87978.2 59408.6 Q 88001 60699.8 87858.2 62085.8 Q 87715.4 63471.2 87130.4 64716.8 L 87290 64851.8 Q 88137.8 63879.2 88455.8 62701.4 Q 88623.8 62115.8 88703.6 61532 Q 88846.4 60359 88826 59408.6 L 88826 57946.4 Z M 89084 62357.6 Q 90040.4 62033 90879.2 61508 Q 91718.6 60983 92352.8 60281 Q 92712.2 60354.8 92795 60170 L 91664.6 59592.8 Q 91161.8 60413.6 90467.6 61055 Q 89774 61696.4 88949 62148.8 L 89084 62357.6 Z M 91099.4 58081.4 Q 90741.8 58722.2 90223.4 59268.8 Q 89705 59814.8 89108.6 60207.2 L 89268.2 60428 Q 89978 60139.4 90630.8 59712.8 Q 91283 59285.6 91762.4 58757 Q 91952.6 58785.8 92045.6 58761.8 Q 92138 58737.8 92180.6 58646.6 L 91099.4 58081.4 Z M 92033 61288.4 Q 91303.4 62414.6 90334.4 63180.8 Q 89364.8 63947 88174.4 64446.2 L 88272.8 64655.6 Q 89618.6 64302.2 90733.4 63663.2 Q 91848.8 63024.2 92733.2 62025.8 Q 93132.8 62099.6 93200.6 61915.4 L 92033 61288.4 Z M 95190.8 57356 Q 95190.8 57401 95190.8 57445.4 Q 95205.8 59397.8 95061.8 60727.4 Q 94975.4 61433 94775.6 62004.2 Q 94575.2 62575.4 94213.4 63038 Q 93546.2 63906.2 92045.6 64520 L 92180.6 64741.4 Q 93905.6 64209.8 94698.2 63390.8 Q 95147 62937.2 95397.8 62376.2 Q 95648.6 61814.6 95763.2 61131.8 Q 95949.8 59897.6 95969.6 58195.4 Q 95973.2 58059.8 95977.4 57921.8 Q 96186.8 57927.2 96292.4 57854 Q 96398 57780.8 96432.2 57675.8 L 95190.8 57356 Z M 95670.2 61952 Q 96249.2 62428.4 96830.6 63109.4 Q 96884 63173 96936.2 63237.2 Q 97502.6 63926 97746.8 64569.2 Q 98209.4 64817.6 98424.2 64503.8 Q 98574.8 64281.2 98472.2 63882.8 Q 98369 63484.4 97911.2 63018.8 Q 97298 62374.4 95805.2 61841.6 L 95670.2 61952 Z M 96899 54407 L 93040.4 54407 L 93138.8 54776 L 95080.4 54776 Q 95060.6 55212.2 95022.2 55683.8 Q 94983.8 56154.8 94945.4 56508.2 L 94293.8 56508.2 L 93372.2 56103.2 L 93372.2 61988.6 L 93507.8 61988.6 Q 93794.6 61979.6 94008.2 61878.2 Q 94221.8 61776.8 94232.6 61694 L 94232.6 56877.2 L 97009.4 56877.2 L 97009.4 61866.2 L 97145 61866.2 Q 97373.6 61856.6 97602.8 61757 Q 97831.4 61657.4 97857.8 61583.6 L 97857.8 56987.6 Q 98186 56919.8 98312 56778.8 L 97341.2 56041.4 L 96899 56508.2 L 95313.8 56508.2 Q 95537.6 56157.2 95763.8 55692.8 Q 95990 55228.4 96186.2 54776 L 98385.8 54776 Q 98631.8 54779 98693 54579.2 Q 98366.6 54269.6 98002.4 53976.2 Q 97953.8 53936.6 97907.6 53899.4 Q 97563.8 53625.8 97538 53608.4 L 96899 54407 Z M 105500.6 54702.2 Q 105944 55056.8 106354.4 55569.8 Q 106765.4 56083.4 106913.6 56594.6 Q 107352.2 56838.8 107592.2 56574.2 Q 107757.8 56392.4 107714 56075 Q 107670.2 55758.2 107328.2 55412 Q 106862 54918.8 105611 54615.8 L 105500.6 54702.2 Z M 105218 57602 Q 105697.4 57929.6 106139.6 58430 Q 106581.8 58930.4 106766.6 59433.2 Q 107211.2 59658.2 107439.8 59384 Q 107601.2 59190.8 107540.6 58868 Q 107480 58544.6 107107.4 58206.8 Q 106607.6 57734 105328.4 57491.6 L 105218 57602 Z M 103436 57319.4 Q 103782.2 56873 104135 56285.6 Q 104487.8 55698.8 104787.8 55132.4 Q 105171.8 55110.8 105242.6 54886.4 L 103928 54480.8 Q 103767.2 55200.2 103583.6 55944.8 Q 103400 56689.4 103239.8 57233.6 L 103436 57319.4 Z M 99725.6 54591.2 Q 99969.2 55087.4 100178.6 55742 Q 100388 56396.6 100401.2 57012.2 Q 100779.2 57346.4 101062.4 57090.2 Q 101234 56934.2 101270.6 56617.4 Q 101307.2 56300.6 101134.4 55886 Q 100878.2 55224.2 99872.6 54518 L 99725.6 54591.2 Z M 102846.2 58499 L 104910.8 58499 Q 105187.4 58502 105242.6 58302.2 Q 104925.8 58019.6 104583.8 57744.2 Q 104555.6 57721.4 104528.6 57699.8 Q 104198.6 57435.8 104173.4 57417.8 L 103596.2 58155.2 L 102846.2 58155.2 L 102846.2 53976.8 Q 103080.2 53939.6 103173.8 53851.4 Q 103266.8 53762.6 103289 53633 L 101924.6 53485.4 L 101924.6 58155.2 L 99565.4 58155.2 L 99663.8 58499 L 101531.6 58499 Q 101237 59663.6 100739 60763.4 Q 100241.6 61863.2 99540.8 62750.6 L 99701 62910.2 Q 101089.4 61749.2 101924.6 60182.6 L 101924.6 64778 L 102109.4 64778 Q 102372.8 64768.4 102602 64650.8 Q 102831.2 64532.6 102846.2 64421.6 L 102846.2 59494.4 Q 103285.4 59867 103662.2 60380.6 Q 104039 60894.2 104173.4 61386.8 Q 104604.8 61640.6 104847.8 61374.8 Q 105018.2 61188.8 104975.6 60857 Q 104933 60524.6 104582.6 60154.4 Q 104111.6 59634.2 102846.2 59285.6 L 102846.2 58499 Z M 109592.6 60698.6 L 109359.2 60747.8 L 109359.2 53976.8 Q 109584.2 53939.6 109675.4 53851.4 Q 109767.2 53762.6 109789.4 53633 L 108388.4 53485.4 L 108388.4 60956.6 L 104763.2 61730.6 L 104935.4 62037.8 L 108388.4 61313 L 108388.4 64778 L 108572.6 64778 Q 108863.6 64767.8 109104.2 64644.8 Q 109344.8 64521.2 109359.2 64409.6 L 109359.2 61104.2 L 110931.8 60772.4 Q 111171.8 60717.2 111189.8 60514.4 Q 110852.6 60267.2 110494.4 60024.2 Q 110469.2 60007.4 110445.2 59990.6 Q 110098.4 59756.6 110072 59740.4 L 109592.6 60698.6 Z M 112320.8 61374.2 Q 112474.4 61316 112628 61091.6 Q 113524.4 60749 114285.2 60418.4 Q 115046 60088.4 115543.4 59861 Q 115612.4 59829.8 115675.4 59801.6 L 115650.8 59617.4 Q 114857 59757.2 114114.8 59878.4 Q 113372 59999.6 112799.6 60084.2 Q 113672 59315.6 114509 58391.6 Q 114591.2 58301 114671.6 58209.8 Q 115490.6 57285.8 115994.6 56508.2 Q 116366.6 56548.4 116461.4 56348.6 L 115208 55611.2 Q 114950 56195 114507.8 56963 Q 113950.4 57009.2 113446.4 57036.8 Q 112942.4 57064.4 112541.6 57073.4 Q 113184.2 56478.2 113796.8 55712.6 Q 114408.8 54947 114802.4 54296.6 Q 114986 54311 115092.8 54249.2 Q 115200.2 54187.4 115245.2 54099.8 L 113893.4 53534.6 Q 113714.6 54111.8 113346.8 54900.8 Q 113157.8 55303.4 112944.2 55691 Q 112529 56451.2 112124 56889.2 Q 112046.6 56936.6 111926 56967.8 Q 111804.8 56999 111792.2 57000.2 L 112283.6 58229 Q 112409.6 58173.2 112517 58044.2 Q 113457.2 57740 114212.6 57454.4 Q 113735 58215.8 113211.2 58898.6 Q 112687.4 59581.4 112209.8 60010.4 Q 112113.8 60075.2 111978.2 60110.6 Q 111842.6 60145.4 111828.8 60145.4 L 112320.8 61374.2 Z M 115958 61767.8 Q 114733.4 62141 113629.4 62442.2 Q 113556.8 62462 113485.4 62481.2 Q 112403 62774.6 111828.8 62898.2 L 112418.6 64139 Q 112618.4 64077.8 112689.2 63831.8 Q 114900.8 62658.8 116007.2 61927.4 L 115958 61767.8 Z M 120971 59961.2 L 115761.2 59961.2 L 115859.6 60317.6 L 118513.4 60317.6 Q 118233.8 60894.8 117716 61631.6 Q 117491 61949.6 117246.2 62253.2 Q 116682.8 62956.4 116154.2 63353 Q 116069 63399.8 115951.4 63431 Q 115834.4 63462.2 115822.4 63463.4 L 116277.2 64655.6 Q 116403.2 64618.4 116510.6 64470.8 Q 118051.4 64200.2 119343.2 63941 Q 120635 63681.8 121548.8 63476 Q 121837.4 64065.8 121979 64581.8 Q 122445.8 64902.8 122705 64599.2 Q 122885 64386.2 122829.8 63957.8 Q 122774.6 63530 122378.6 62982.2 Q 121843.4 62215.4 120418.4 61436 L 120270.8 61521.8 Q 120543.2 61875.8 120840.8 62308.4 Q 121138.4 62741 121401.2 63205.4 Q 120011 63307.4 118796 63378.8 Q 117581.6 63450.8 116744 63488 Q 117508.4 62955.2 118230.8 62302.4 Q 118953.8 61649.6 119423 61079.6 Q 119804 61107.2 119889.8 60932 L 118747.4 60317.6 L 122544.2 60317.6 Q 122823.8 60320.6 122863.4 60120.8 Q 122524.4 59816 122145.8 59520.8 Q 122084 59471.6 122025.8 59427.2 Q 121673 59155.4 121647.2 59138 L 120971 59961.2 Z M 119779.4 57983 L 116940.8 57983 L 117026.6 58339.4 L 121217 58339.4 Q 121484 58342.4 121548.8 58142.6 Q 121208 57845 120846.8 57562.4 Q 120810.8 57534.2 120777.2 57507.2 Q 120431.6 57239 120405.8 57221 L 119779.4 57983 Z M 118833.2 53350.4 Q 118176.2 55018.4 117185 56400.8 Q 116193.8 57783.2 115122.2 58658.6 L 115269.8 58794.2 Q 116513.6 58128.8 117610.4 57032 Q 118707.2 55935.8 119546 54431.6 Q 120072.2 55640 120896 56712.8 Q 121719.8 57785 122716.4 58487 Q 122842.4 57946.4 123392 57737 L 123428.6 57602 Q 122426.6 57084.2 121453.4 56237 Q 121340.6 56137.4 121230.8 56034.8 Q 120283.4 55159.4 119742.2 54137 Q 120123.2 54173.6 120209.6 53952.8 L 118833.2 53350.4 Z M 133468.4 58241 L 130408.4 58241 L 130408.4 54923 L 134316.2 54923 Q 134583.2 54926.6 134648 54726.8 Q 134280.8 54423.8 133888.4 54113 Q 133812.2 54052.4 133742 53997.2 Q 133382.6 53713.4 133357.4 53694.2 L 132657.2 54579.2 L 125136.8 54579.2 L 125235.2 54923 L 129376.4 54923 L 129376.4 58241 L 124203.2 58241 L 124313.6 58584.8 L 129376.4 58584.8 L 129376.4 63291.2 Q 129401 63589.4 129056.6 63573.8 Q 128852 63571.4 128360.6 63543.2 Q 127944.2 63518.6 127572.8 63494.6 Q 127134.2 63465.8 127103 63463.4 L 127103 63647.6 Q 127638.8 63712.4 127946 63812 Q 128253.8 63911.6 128430.2 64041.2 Q 128734.4 64289.6 128762 64778 Q 129788 64690.4 130109 64325 Q 130129.4 64304 130148 64281.8 Q 130439 63903.2 130408.4 63340.4 L 130408.4 58584.8 L 135164 58584.8 Q 135422 58588.4 135495.8 58388.6 Q 135140.6 58074.2 134741 57762.8 Q 134651.6 57692.6 134571.2 57629.6 Q 134206.4 57349.4 134180.6 57332 L 133468.4 58241 Z M 138850.4 57380.6 L 140337.2 57380.6 Q 140607.2 57384.2 140656.4 57184.4 Q 140384 56888 140080.4 56593.4 Q 140060.6 56574.2 140041.4 56555.6 Q 139746.2 56270.6 139722.8 56250.2 L 139218.8 57012.2 L 138850.4 57012.2 L 138850.4 54198.2 Q 139085.6 54168.8 139182.2 54077 Q 139278.8 53985.2 139292.6 53854.4 L 137940.8 53718.8 L 137940.8 57012.2 L 136454 57012.2 L 136552.4 57380.6 L 137940.8 57380.6 L 137940.8 61362.2 Q 137448.8 61492.4 137053.4 61587.8 Q 136657.4 61683.8 136404.8 61730.6 L 137031.8 62972 Q 137222 62901.2 137301.8 62664.8 Q 139372.4 61494.2 140373.8 60858.2 L 140324.6 60698.6 Q 139890.8 60827 139454 60946.4 Q 139143.2 61032.2 138850.4 61116.2 L 138850.4 57380.6 Z M 143016.2 62087 L 143016.2 60907.4 L 144478.4 60907.4 L 144478.4 62087 L 143016.2 62087 Z M 144785.6 60145.4 L 144380 60551 L 143114 60551 L 142254.2 60170 L 142254.2 63045.8 L 142377.2 63045.8 Q 142667 63036.2 142839.2 62945.6 Q 143012 62855.6 143016.2 62799.8 L 143016.2 62443.4 L 144478.4 62443.4 L 144478.4 62910.2 L 144600.8 62910.2 Q 144801.2 62901.8 145008.2 62815.4 Q 145215.2 62728.4 145239.8 62664.8 L 145239.8 60969.2 Q 145513.4 60904.4 145620.8 60784.4 L 144785.6 60145.4 Z M 141381.8 63524.6 L 141381.8 59715.8 L 146075.6 59715.8 L 146075.6 63524.6 L 141381.8 63524.6 Z M 145952.6 59346.8 L 141443 59346.8 L 140447.6 58904.6 L 140447.6 64753.4 L 140607.2 64753.4 Q 140906 64743.8 141137.6 64637 Q 141369.2 64530.2 141381.8 64446.2 L 141381.8 63881 L 146075.6 63881 L 146075.6 64606.4 L 146223.2 64606.4 Q 146480 64593.8 146725.4 64480.4 Q 146970.8 64366.4 146997.2 64299.2 L 146997.2 59887.4 Q 147381.2 59795.6 147525.8 59629.4 L 146456.6 58818.8 L 145952.6 59346.8 Z M 146284.4 57958.4 L 145068.2 57958.4 Q 145431.2 57582.2 145799 57113.6 Q 146166.8 56645 146493.2 56176.4 Q 146859.2 56192 146948 55967.6 L 145707.2 55488.8 Q 145471.4 56157.8 145212.2 56820.2 Q 144953.6 57482.6 144736.4 57958.4 L 144122 57958.4 L 144122 55267.4 L 147144.8 55267.4 Q 147396.8 55270.4 147464 55070.6 Q 147142.4 54773.6 146791.4 54486.8 Q 146754.2 54455.6 146718.2 54426.8 Q 146383.4 54155 146358.2 54137 L 145756.4 54898.4 L 144122 54898.4 L 144122 53891 Q 144561.2 53811.2 144576.8 53547.2 L 143187.8 53411.6 L 143187.8 54898.4 L 140226.8 54898.4 L 140324.6 55267.4 L 143187.8 55267.4 L 143187.8 57958.4 L 139857.8 57958.4 L 139956.2 58326.8 L 147611.6 58326.8 Q 147882.2 58330.4 147931.4 58130.6 Q 147611 57837.2 147265.4 57567.8 Q 147244.4 57551 147224 57534.8 Q 146888 57275 146862.2 57258.2 L 146284.4 57958.4 Z M 140816.6 55635.8 Q 141116 56037.8 141377 56573 Q 141638 57108.2 141689 57602 Q 142078.4 57896.6 142339.4 57659 Q 142496.6 57516.2 142510.4 57240.8 Q 142524.8 56966 142323.8 56624 Q 142022.6 56073.2 140963.6 55562 L 140816.6 55635.8 Z M 159752 57491.6 Q 160022.6 57494.6 160071.8 57294.8 Q 159771.8 57021.2 159453.2 56764.4 Q 159447.8 56760.2 159443 56756.6 Q 159126.2 56501.6 159101 56483.6 L 158572.4 57135.2 L 157527.8 57135.2 Q 157856.6 56852.6 158166.8 56540.6 Q 158477.6 56228.6 158695.4 55955.6 Q 159104 55943 159162.2 55709.6 L 157847.6 55353.2 Q 157722.2 55763 157537.4 56249 Q 157352 56734.4 157172 57135.2 L 154100 57135.2 L 154197.8 57491.6 L 156397.4 57491.6 L 156397.4 58843.4 L 154529.6 58843.4 L 154628 59199.2 L 156397.4 59199.2 L 156397.4 61005.8 L 156545 61005.8 Q 156899 60995.6 157101.2 60907.4 Q 157302.8 60819.2 157307 60772.4 L 157307 59199.2 L 159297.8 59199.2 Q 159558.8 59202.8 159617 59003 Q 159315.2 58717.4 158999.6 58457.6 Q 158684 58197.8 158658.8 58179.8 L 158142.2 58843.4 L 157307 58843.4 L 157307 57491.6 L 159752 57491.6 Z M 154972.4 55439.6 Q 155203.4 55718 155393 56112.2 Q 155582.6 56506.4 155611.4 56877.2 Q 155997.8 57158.6 156271.4 56952.8 Q 156445.4 56825 156477.2 56583.8 Q 156509.6 56342.6 156324.8 56069 Q 156059.6 55644.8 155094.8 55377.8 L 154972.4 55439.6 Z M 155807.6 53498 Q 156046.4 53728.4 156253.4 54068 Q 156459.8 54407 156533 54738.8 Q 156933.8 54966.8 157184.6 54743.6 Q 157338.2 54609.8 157351.4 54389 Q 157364.6 54167.6 157176.2 53937.8 Q 156893.6 53565.2 155930.6 53411.6 L 155807.6 53498 Z M 159444.8 55242.8 Q 159696.8 55245.8 159764.6 55046 Q 159456.2 54755 159131 54489.8 Q 159123.8 54483.8 159117.2 54478.4 Q 158795 54216.2 158769.2 54198.2 L 158228.6 54886.4 L 154407.2 54886.4 L 154505 55242.8 L 159444.8 55242.8 Z M 152883.2 54788 L 152883.2 56151.8 L 150401 56151.8 L 150401 56041.4 L 150401 54788 L 152883.2 54788 Z M 152919.8 58068.8 L 152919.8 59777 L 151113.8 59777 L 151113.8 58068.8 L 152919.8 58068.8 Z M 150216.8 60833.6 L 150364.4 60833.6 Q 150709.4 60822.8 150909.2 60721.4 Q 151109.6 60620.6 151113.8 60563.6 L 151113.8 60133.4 L 152919.8 60133.4 L 152919.8 60526.4 L 153067.4 60526.4 Q 153306.8 60515.6 153548 60413 Q 153789.8 60309.8 153816.8 60243.8 L 153816.8 58179.8 Q 154124 58112 154247 57970.4 L 153264.2 57245.6 L 152809.4 57712.4 L 151199.6 57712.4 L 150339.8 57356 Q 150387.8 56924 150400.4 56526.8 Q 150400.4 56517.8 150401 56508.2 L 152883.2 56508.2 L 152883.2 57012.2 L 153030.8 57012.2 Q 153261.8 57003.2 153506.6 56910.8 Q 153752 56818.4 153780.2 56754.2 L 153780.2 54935.6 Q 154130.6 54846.2 154259.6 54702.2 L 153227 53940.2 L 152760.2 54431.6 L 150573.2 54431.6 L 149540.6 54001.4 L 149540.6 56041.4 Q 149564 57136.4 149410.4 58314.8 Q 149256.2 59492.6 148643.6 60551 L 148803.8 60686.6 Q 149397.8 60137 149736.2 59491.4 Q 150074 58845.2 150216.8 58167.2 L 150216.8 60833.6 Z M 158327 63942.8 L 154910.6 63942.8 L 154910.6 62308.4 L 158585 62308.4 Q 158852 62311.4 158916.8 62111.6 Q 158579 61809.8 158225.6 61533.8 Q 158202.2 61515.8 158179.4 61497.8 Q 157836.8 61232 157810.4 61214.6 L 157208.6 61952 L 154910.6 61952 L 154910.6 60735.2 Q 155307.2 60658.4 155316.2 60416 L 153939.8 60281 L 153939.8 61952 L 149970.8 61952 L 150069.2 62308.4 L 153939.8 62308.4 L 153939.8 63942.8 L 148742 63942.8 L 148840.4 64299.2 L 159789.2 64299.2 Q 160056.2 64302.2 160121 64102.4 Q 159783.2 63807.2 159419.6 63521.6 Q 159377 63487.4 159336.2 63455.6 Q 158991.2 63186.2 158966 63168.8 L 158327 63942.8 Z M 164839.4 53571.8 Q 165311 54030.8 165727.4 54674.6 Q 166143.2 55317.8 166265 55943 Q 166728.2 56239.4 167012 55967.6 Q 167229.2 55760.6 167198.6 55358 Q 167168 54955.4 166769.6 54495.8 Q 166271.6 53904.2 164962.4 53473.4 L 164839.4 53571.8 Z M 163696.4 62037.8 Q 165930.2 61131.2 167766.8 59793.8 Q 169604 58456.4 170786.6 56951 Q 171030.8 56943.2 171156.8 56906 Q 171283.4 56868.8 171351.8 56778.8 L 170332.4 55820 L 169644.2 56422.4 L 161607.8 56422.4 L 161718.2 56790.8 L 169533.2 56790.8 Q 168626 58044.2 167225.6 59247.2 Q 166838.6 59580.8 166429.4 59900.6 Q 164946.8 61053.8 163377.2 61902.8 L 163291.4 61902.8 Q 163135.4 61916.6 162747.2 62180 Q 162358.4 62443.4 161888 62793.2 Q 161370.8 63178.4 160944.2 63463.4 L 161780 64631 Q 161924 64517 161865.8 64348.4 Q 162053.6 64050.8 162282.2 63716.6 Q 162510.8 63383 162725.6 63076.4 Q 162989 62700.8 163143.8 62468 Q 163243.4 62326.4 163344.8 62316.2 Q 163446.8 62305.4 163574 62468 Q 164276.6 63441.2 165157.4 63882.2 Q 165378.8 63992 165623.6 64076.6 Q 166600.4 64409.6 168182 64397.6 L 171622.4 64397.6 Q 171668 64049.6 171855.8 63798.2 Q 172044.2 63547.4 172384.4 63476 L 172384.4 63315.8 Q 171360.8 63369.2 170451.8 63380.6 Q 169543.4 63392 168538.4 63389.6 Q 166781 63409.4 165650.6 63144.2 Q 164520.2 62878.4 163758.2 62087 L 163696.4 62037.8 Z M 182681.6 63783.2 L 179154.8 63783.2 L 179154.8 58462.4 L 183381.8 58462.4 Q 183658.4 58465.4 183713.6 58265.6 Q 183374.6 57958.4 182987.6 57648.2 Q 182904.2 57580.4 182828 57519.8 Q 182473.4 57239 182448.2 57221 L 181748 58118 L 179154.8 58118 L 179154.8 54099.8 Q 179381 54062.6 179477.6 53972.6 Q 179574.2 53882 179597.6 53743.4 L 178098.2 53583.8 L 178098.2 63783.2 L 173330.6 63783.2 L 173441 64151.6 L 184340.6 64151.6 Q 184607.6 64154.6 184672.4 63954.8 Q 184324.4 63639.8 183931.4 63327.8 Q 183845.6 63258.8 183767.6 63197.6 Q 183407.6 62915.6 183381.8 62898.2 L 182681.6 63783.2 Z M 186183.8 66302 Q 187182.8 65796.2 187587.8 65007.2 Q 187992.2 64218.2 187977.8 63463.4 Q 187973 62911.4 187712 62583.2 Q 187451 62255 186994.4 62247.2 Q 186586.4 62257.4 186362 62498.6 Q 186137.6 62739.8 186134.6 63082.4 Q 186159.2 63574.4 186527 63810.8 Q 186894.8 64047.2 187306.4 64173.2 Q 187310 64175 187314.2 64176.2 Q 187280.6 64593.8 186987.2 65078 Q 186693.2 65562.2 185987 65970.2 L 186183.8 66302 Z M 203178.2 53571.8 Q 203675.6 53982.8 204117.8 54571.4 Q 204560.6 55160 204726.2 55746.8 Q 205202 56004.2 205472 55721.6 Q 205681.4 55503.8 205631 55112 Q 205580.6 54720.8 205154 54305.6 Q 204626 53775.2 203300.6 53473.4 L 203178.2 53571.8 Z M 198766.4 53805.2 Q 199188.8 54112.4 199585.4 54576.2 Q 199982 55040 200155.4 55512.8 Q 200622.8 55725.8 200868.2 55449.8 Q 201044 55254.2 200995.4 54936.8 Q 200946.8 54620 200586.8 54305.6 Q 200109.2 53870 198877.4 53706.8 L 198766.4 53805.2 Z M 197894 56508.2 Q 198298.4 56786.6 198682.4 57212 Q 199065.8 57637.4 199221.2 58081.4 Q 199674.2 58299.8 199916.6 58036.4 Q 200088.8 57851 200046.2 57548 Q 200003.6 57245.6 199659.8 56949.2 Q 199202 56534.6 198005 56397.8 L 197894 56508.2 Z M 201519.2 55488.8 Q 200618.6 57559.4 200141.6 58651.4 Q 199744.4 59561.6 199542.2 60016.4 Q 199340 60471.8 199246.4 60665 Q 199137.2 60889.4 199049 61042.4 Q 198962.6 61228.4 198898.4 61268.6 Q 198834.8 61308.8 198729.8 61301 L 198164.6 61301 L 198164.6 61571 Q 198551.6 61580 198791 61755.2 Q 198995.6 61895 199041.8 62560.4 Q 199087.4 63225.2 198951.2 64176.2 Q 199037 64787.6 199418 64790.6 Q 199779.2 64785.2 199981.4 64544.6 Q 200184.2 64304.6 200204 63893.6 Q 200220.8 63444.8 200148.8 63104 Q 200077.4 62763.2 199985.6 62489 Q 199856.6 62124.2 199835.6 61792.4 Q 199837.4 61557.8 199892.6 61265.6 Q 199947.2 60973.4 200032.4 60674 Q 200124.8 60339.8 200405 59487.2 Q 200645 58757.6 200937.8 57886.4 Q 201279.8 56870.6 201577.4 55994.6 Q 201657.2 55758.2 201728 55550 L 201519.2 55488.8 Z M 207552.8 63967.4 L 205524.8 63967.4 L 205524.8 60072.2 L 208535.6 60072.2 Q 208821.2 60075.2 208867.4 59875.4 Q 208547 59579 208197.2 59288 Q 208157 59254.4 208119.2 59222.6 Q 207786.2 58947.8 207761.6 58929.2 L 207147.2 59715.8 L 205524.8 59715.8 L 205524.8 56520.8 L 208854.8 56520.8 Q 209116.4 56523.8 209174.6 56324 Q 208862 56027 208500.8 55730.6 Q 208439 55679.6 208382 55632.8 Q 208044.8 55359.2 208019.6 55341.2 L 207405.2 56164.4 L 201568.4 56164.4 L 201666.8 56520.8 L 204529.4 56520.8 L 204529.4 59715.8 L 201593 59715.8 L 201691.4 60072.2 L 204529.4 60072.2 L 204529.4 63967.4 L 200867.6 63967.4 L 200966 64335.8 L 209027 64335.8 Q 209279 64338.8 209346.8 64139 Q 209025.8 63833.6 208661.6 63529.4 Q 208600.4 63477.8 208543.4 63430.4 Q 208204.4 63150.2 208179.2 63131.6 L 207552.8 63967.4 Z M 212799.2 60649.4 L 212799.2 59359.4 L 215318.6 59359.4 L 215318.6 60649.4 L 212799.2 60649.4 Z M 215318.6 57761.6 L 215318.6 59003 L 212799.2 59003 L 212799.2 57761.6 L 215318.6 57761.6 Z M 218882 57761.6 L 218882 59003 L 216326 59003 L 216326 57761.6 L 218882 57761.6 Z M 216326 60649.4 L 216326 59359.4 L 218882 59359.4 L 218882 60649.4 L 216326 60649.4 Z M 219619.4 64016.6 L 216326 64016.6 L 216326 62615.6 L 220406 62615.6 Q 220673 62618.6 220737.8 62418.8 Q 220394 62120 220030.4 61845.8 Q 219999.8 61823 219971 61800.8 Q 219621.2 61538.6 219594.8 61521.8 L 218967.8 62259.2 L 216326 62259.2 L 216326 60993.8 L 218882 60993.8 L 218882 61436 L 219029.6 61436 Q 219297.8 61425.2 219568.4 61322 Q 219839.6 61219.4 219877.4 61153.4 L 219877.4 57946.4 Q 220248.8 57854 220381.4 57687.8 L 219263 56840 L 218759 57405.2 L 216326 57405.2 L 216326 56262.8 L 221032.4 56262.8 Q 221312 56265.8 221352.2 56066 Q 221020.4 55776.8 220648.4 55490.6 Q 220589 55444.4 220533.8 55402.4 Q 220185.8 55137.2 220160 55119.8 L 219521 55893.8 L 216326 55893.8 L 216326 54726.8 Q 218067.8 54570.2 219422.6 54357.8 Q 219908 54551.6 220098.8 54395 L 219140 53436.2 Q 218097.8 53739.8 216552.2 54030.8 Q 215543 54221 214447.4 54381.8 Q 212771 54627.8 211202 54751.4 L 211239.2 54984.8 Q 213260 54981.8 215318.6 54812.6 L 215318.6 55893.8 L 210390.8 55893.8 L 210501.8 56262.8 L 215318.6 56262.8 L 215318.6 57405.2 L 212861 57405.2 L 211804.4 56951 L 211804.4 61583.6 L 211951.4 61583.6 Q 212279 61571.6 212532.2 61454.6 Q 212785.4 61337 212799.2 61251.8 L 212799.2 60993.8 L 215318.6 60993.8 L 215318.6 62259.2 L 211152.8 62259.2 L 211251.2 62615.6 L 215318.6 62615.6 L 215318.6 64016.6 L 210194.6 64016.6 L 210305 64360.4 L 221216.6 64360.4 Q 221477.6 64369.4 221536.4 64176.2 Q 221205.2 63878 220820.6 63574.4 Q 220737.2 63507.8 220661 63447.8 Q 220308.8 63174.2 220283 63156.2 L 219619.4 64016.6 Z M 228970.4 55931 L 225530 55931 L 225628.4 56287.4 L 228183.8 56287.4 Q 227709.8 57058.4 227012 57737 Q 226314.2 58416.2 225443.6 58929.2 L 225566.6 59126 Q 226621.4 58702.4 227485.4 58119.8 Q 228348.8 57537.2 228970.4 56790.8 L 228970.4 58523.6 L 229130 58523.6 Q 229493.6 58514.6 229703 58431.2 Q 229912.4 58348.4 229916.6 58302.2 L 229916.6 56287.4 L 230015 56287.4 Q 230540 57257.6 231342.2 57963.2 Q 232143.8 58668.2 233111.6 59076.8 Q 233289.8 58407.2 233836.4 58290.2 L 233849 58155.2 Q 232866.8 57929 231916.4 57447.2 Q 230966.6 56964.8 230334.2 56287.4 L 233443.4 56287.4 Q 233688.8 56290.4 233750.6 56090.6 Q 233421.2 55796 233059.4 55514.6 Q 233017.4 55481.6 232977.8 55451 Q 232633.4 55186.4 232607.6 55169 L 232005.8 55931 L 229916.6 55931 L 229916.6 54726.8 Q 231164 54585.2 232116.2 54407 Q 232565 54582.2 232755.2 54407 L 231759.8 53473.4 Q 230921.6 53781.2 229641.2 54093.8 Q 229145.6 54214.4 228620 54326 Q 227264.6 54614 225972.2 54776 L 226008.8 54984.8 Q 227489.6 54957.2 228970.4 54837.2 L 228970.4 55931 Z M 232349.6 59777 L 231870.2 60256.4 L 231022.4 60256.4 Q 231096.2 60066.8 231172.4 59866.4 Q 231270.2 59608.4 231354.2 59396 Q 231729.2 59340.8 231882.8 59175.2 L 230862.8 58364 L 230408 58855.4 L 226463.6 58855.4 L 226574.6 59211.8 L 228073.4 59211.8 Q 227938.4 60341.6 227434.4 61216.4 Q 226930.4 62090.6 225911 62750.6 L 225996.8 62934.8 Q 227333.6 62372 228078.2 61464.8 Q 228822.8 60558.2 229080.8 59211.8 L 230445.2 59211.8 Q 230342.6 59523.8 230217.2 59856.8 Q 230175.8 59967.8 230138 60072.2 Q 229815.2 60170 229584.8 60305.6 L 230543.6 61067 L 230973.2 60624.8 L 231944 60624.8 Q 231858.8 61237.4 231732.2 61622 Q 231605.6 62006 231465.2 62111.6 Q 231336.2 62201 231059.6 62198 Q 230863.4 62195 230397.2 62162.6 Q 229931.6 62129.6 229560.2 62099.6 L 229548.2 62295.8 Q 229878.8 62351.6 230160.8 62432.6 Q 230443.4 62513.6 230580.2 62615.6 Q 230707.4 62711.6 230753.6 62867.6 Q 230800.4 63023.6 230789 63192.8 Q 231517.4 63199.4 231968.6 62910.2 Q 232638.2 62449.4 232829 60735.2 Q 233191.4 60689.6 233295.8 60551 L 232349.6 59777 Z M 222936.8 53768 Q 223341.8 54285.2 223723.4 54972.2 Q 224105 55659.8 224252 56287.4 Q 224697.2 56591 224963 56313.2 Q 225141.2 56126.6 225119.6 55763.6 Q 225098 55400 224784.2 54949.4 Q 224346.8 54294.8 223084.4 53682.2 L 222936.8 53768 Z M 225014 58229 Q 225514.4 58152.2 225628.4 57983 L 224472.8 57048.8 L 223944.8 57725 L 222494.6 57725 L 222568.4 58093.4 L 224129 58093.4 L 224129 62333 Q 223775 62589.2 223354.4 62915 Q 222822.2 63329 222384.2 63635.6 L 223170.8 64692.2 Q 223314.8 64578.8 223256.6 64409.6 Q 223445.6 64119.2 223683.2 63785 Q 223920.2 63450.2 224144.6 63141.8 Q 224394.8 62797.4 224546.6 62578.4 Q 224709.8 62292.8 224927.6 62578.4 Q 225546.8 63530.6 226394.6 63952.4 Q 226663.4 64086.2 226974.8 64180.4 Q 227960 64473.2 229609.4 64458.8 L 233185.4 64458.8 Q 233220.8 64149.8 233392.4 63933.2 Q 233564 63716.6 233885.6 63647.6 L 233885.6 63488 Q 232824.8 63533 231881 63548 Q 230937.8 63563 229904.6 63561.8 Q 228183.8 63582.8 227117 63377.6 Q 226923.8 63337.4 226745.6 63285.8 Q 225765.8 63014 225111.8 62222.6 Q 225093.2 62202.8 225077 62184.8 Q 225048.2 62148.8 225014 62124.2 L 225014 58229 Z M 240570.2 54726.8 L 244195.4 54726.8 L 244195.4 60833.6 L 244343 60833.6 Q 244672.4 60822.2 244884.8 60723.2 Q 245097.2 60624.2 245104.4 60575.6 L 245104.4 54837.2 Q 245495 54769.4 245608.4 54628.4 L 244613 53841.8 L 244146.2 54407 L 240705.8 54407 L 239685.8 53976.8 L 239685.8 60969.2 L 239820.8 60969.2 Q 240165.8 60959 240366.2 60861.2 Q 240566 60764 240570.2 60698.6 L 240570.2 54726.8 Z M 236048.6 53583.8 Q 236330 53928.8 236590.4 54407 Q 236851.4 54885.8 236921 55341.2 Q 237320.6 55653.2 237613.4 55451.6 Q 237814.4 55315.4 237840.8 55028 Q 237867.2 54740 237619.4 54392.6 Q 237283.4 53895.2 236171 53498 L 236048.6 53583.8 Z M 237522.8 58597.4 Q 238290.8 57583.4 238727 56606.6 Q 238756.4 56603 238783.4 56600 Q 238974.2 56578.4 239089.4 56552 Q 239205.2 56525.6 239280.2 56459 L 238284.8 55488.8 L 237682.4 56054 L 234819.8 56054 L 234930.2 56410.4 L 237707 56410.4 Q 237282.8 57569.6 236497.4 58795.4 Q 236407.4 58935.8 236313.8 59074.4 Q 235497.8 60287 234524.6 61202.6 L 234672.2 61337.6 Q 235679.6 60665 236576.6 59715.8 L 236576.6 64766 L 236748.8 64766 Q 237095.6 64752.8 237306.2 64626.2 Q 237517.4 64499.6 237522.8 64421.6 L 237522.8 59138 Q 237806.6 59477.6 238038.8 59880.2 Q 238271.6 60282.2 238370.6 60649.4 Q 238765.4 60908.6 239003 60663.2 Q 239139.2 60522.2 239135.6 60270.2 Q 239132 60018.2 238926.8 59714 Q 238605.2 59202.2 237522.8 58757 L 237522.8 58597.4 Z M 245903.6 61841.6 L 245743.4 61841.6 Q 245640.2 62373.2 245540.6 62819.6 Q 245441.6 63266.6 245375 63438.8 Q 245325.8 63586.4 245166.2 63586.4 Q 244994 63601.4 244490 63598.4 L 243740.6 63598.4 Q 243526.4 63600.8 243464 63554 Q 243402.2 63507.8 243408.8 63389.6 L 243408.8 60243.8 Q 243743.6 60182.6 243765.2 59936.6 L 242659.4 59813.6 Q 242823.2 58466.6 242822.6 56811.8 Q 242826.8 56565.2 242831.6 56312 Q 243230.6 56241.2 243261.2 55967.6 L 241885.4 55832.6 Q 241884.2 56150 241884.2 56456 Q 241914.8 58287.8 241760 59754.8 Q 241662.2 60564.8 241421 61274 Q 241180.4 61983.2 240733.4 62598.8 Q 239943.2 63714.8 238186.4 64557.2 L 238321.4 64766 Q 240299.6 64022.6 241251.2 63002 Q 241305.2 62946.2 241356.8 62889.2 Q 242262.8 61853 242536.4 60526.4 L 242536.4 63623 Q 242520.2 64068.2 242720.6 64248.2 Q 242921 64428.2 243531.8 64421.6 L 244453.4 64421.6 Q 245501 64421.6 245885 64283.6 Q 246269 64145.6 246247.4 63869 Q 246253.4 63741.2 246195.2 63650.6 Q 246137 63560 245940.2 63488 L 245903.6 61841.6 Z M 247034 61841.6 Q 247837.4 62441 248270.6 63036.2 Q 248703.2 63631.4 248963 64212.8 Q 249215 64769 249614.6 64753.4 Q 249885.2 64750.4 250043 64581.8 Q 250200.8 64412.6 250204.4 64114.4 Q 250219.4 63730.4 249921.8 63291.2 Q 249618.2 62823.8 248960 62396 Q 248301.8 61967.6 247169 61656.8 L 247034 61841.6 Z M 268464.2 54137 Q 268056.2 55071.2 267572 55983.2 Q 267087.2 56894.6 266670.2 57516.2 L 266829.8 57639.2 Q 267475.4 57138.8 268146.2 56441 Q 268817 55742.6 269397.8 54984.8 Q 269806.4 55021.4 269901.8 54800.6 L 268464.2 54137 Z M 260477 54296.6 Q 260965.4 54920.6 261407.6 55742.6 Q 261415.4 55757.6 261423.2 55772 Q 261861.8 56595.2 261975.8 57356 Q 262446.2 57710 262743.8 57425 Q 262971.8 57206.6 262945.4 56737.4 Q 262918.4 56268.2 262506.2 55678.4 Q 261992.6 54923 260624.6 54210.8 L 260477 54296.6 Z M 270368.6 61288.4 L 270209 61288.4 Q 270190.4 61380.2 270171.8 61471.4 Q 270042.8 62107.4 269931.8 62606 Q 269820.8 63105.2 269742.2 63291.2 Q 269699.6 63390.2 269643.8 63429.8 Q 269588 63468.8 269471.6 63476 Q 269180 63512.6 268390.4 63512.6 L 267222.8 63512.6 Q 266901.2 63515 266805.2 63447.8 Q 266709.2 63381.2 266719.4 63217.4 L 266719.4 58745 L 266719.4 58572.8 L 270356.6 58572.8 Q 270608.6 58575.8 270675.8 58376 Q 270342.2 58075.4 269960 57774.8 Q 269883.2 57714.2 269813 57659.6 Q 269460.8 57386 269435 57368.6 L 268758.8 58229 L 265490.6 58229 L 265490.6 53940.2 Q 265914.2 53860.4 265932.8 53596.4 L 264470.6 53460.8 L 264470.6 58229 L 259346.6 58229 L 259445 58572.8 L 262995.8 58572.8 Q 262937 60420.8 262341.2 61758.2 Q 262154.6 62162.6 261899 62529.2 Q 261074.6 63740.6 259260.2 64618.4 L 259322 64790.6 Q 261472.4 64127 262530.2 62982.8 Q 262981.4 62502.8 263288 61927.4 Q 263996.6 60555.2 264126.2 58572.8 L 265711.4 58572.8 L 265711.4 63463.4 Q 265692.2 64023.8 265963.4 64234.4 Q 266234.6 64445 267026.6 64434.2 L 268341.2 64434.2 Q 269738 64436.6 270251.6 64308.8 Q 270315.8 64293.2 270370.4 64275.8 Q 270805.4 64130.6 270774.2 63819.8 Q 270779 63665.6 270700.4 63561.8 Q 270622.4 63458 270405.8 63377.6 L 270368.6 61288.4 Z M 278208.8 57221 Q 279272 56705 280285.4 56004.8 Q 281298.2 55304 282104 54530 Q 282466.4 54609.8 282570.8 54431.6 L 281317.4 53657.6 Q 280662.8 54616.4 279825.8 55490 Q 278989.4 56363.6 278085.8 57036.8 L 278208.8 57221 Z M 278208.8 60662 Q 279336.2 60090.2 280406.6 59316.2 Q 281477 58542.2 282337.4 57675.8 Q 282693.8 57771.2 282792.2 57590 L 281526.2 56815.4 Q 280825.4 57856.4 279933.2 58798.4 Q 279041.6 59740.4 278073.2 60477.2 L 278208.8 60662 Z M 276721.4 54382.4 L 276721.4 55279.4 L 273453.2 55279.4 L 273453.2 54382.4 L 276721.4 54382.4 Z M 273453.2 56570 L 273453.2 55635.8 L 276721.4 55635.8 L 276721.4 56570 L 273453.2 56570 Z M 273453.2 56926.4 L 276721.4 56926.4 L 276721.4 57442.4 L 276869 57442.4 Q 277098.8 57432.8 277332.8 57341 Q 277567.4 57248.6 277594.4 57184.4 L 277594.4 54554.6 Q 277987.4 54462.2 278122.4 54296.6 L 277077.8 53510 L 276599 54026 L 273514.4 54026 L 272568.2 53608.4 L 272568.2 57614.6 L 272703.2 57614.6 Q 272992.4 57605.6 273216.8 57511.4 Q 273440.6 57417.2 273453.2 57344 L 273453.2 56926.4 Z M 278516 58548.2 Q 278786 58551.2 278835.2 58351.4 Q 278515.4 58065.8 278175.8 57794 Q 278154.8 57777.2 278134.4 57760.4 Q 277803.8 57497 277778.6 57479 L 277213.4 58191.8 L 275444 58191.8 Q 275768 58055 275766.2 57727.4 Q 275757.8 57607.4 275672 57485 Q 275470.4 57150.8 274559 56975.6 L 274436 57036.8 Q 274597.4 57218.6 274694 57488.6 Q 274791.2 57758 274767.8 58032.2 Q 274890.8 58139.6 275013.8 58191.8 L 271646.6 58191.8 L 271745 58548.2 L 278516 58548.2 Z M 273465.2 59654 L 276660.2 59654 L 276660.2 60809 L 273465.2 60809 L 273465.2 59654 Z M 276660.2 61165.4 L 276660.2 61694 L 276795.2 61694 Q 277025.6 61685 277265.6 61600.4 Q 277505 61515.2 277532.6 61460.6 L 277532.6 59777 Q 277861.4 59703.2 277987.4 59555.6 L 277004 58830.8 L 276549.8 59297.6 L 273539 59297.6 L 272605.4 58904.6 L 272605.4 61779.8 L 272727.8 61779.8 Q 272921.6 61776.8 273096.8 61718.6 Q 272896.4 62301.8 272505.2 62979.8 Q 272114 63657.2 271610 64176.2 L 271733 64335.8 Q 272421.2 63963.2 272978.6 63440.6 Q 273535.4 62918 273883.4 62406.8 Q 274072.4 62424.8 274167.2 62388.2 Q 274262 62351.6 274313 62259.2 L 273121.4 61718.6 Q 273440.6 61611.2 273465.2 61521.8 L 273465.2 61165.4 L 274644.8 61165.4 L 274644.8 63524.6 Q 274669.4 63740 274436 63734 Q 274273.4 63731 273938 63708.2 Q 273863.6 63702.8 273792.8 63698 Q 273471.8 63675.2 273440.6 63672.2 L 273440.6 63844.4 Q 273749.6 63891.8 273920 63968.6 Q 274090.4 64046 274178 64139 Q 274353.2 64369.4 274362.2 64766 Q 275104.4 64688 275328.8 64368.2 Q 275552.6 64048.4 275529.8 63537.2 L 275529.8 61165.4 L 276660.2 61165.4 Z M 275787.8 61890.8 Q 276154.4 62208.2 276488 62675.6 Q 276822.2 63143 276930.8 63598.4 Q 277343 63858.2 277590.2 63615.2 Q 277754 63455.6 277738.4 63168.8 Q 277722.8 62881.4 277445 62561 Q 277055 62086.4 275910.8 61779.8 L 275787.8 61890.8 Z M 281784.2 60231.8 Q 280876.4 61674.8 279692 62753.6 Q 278508.2 63833 277102.4 64593.8 L 277213.4 64790.6 Q 280442 63614 282620 61055 Q 282827 61101.2 282933.2 61073.6 Q 283039.4 61046 283099.4 60944.6 L 281784.2 60231.8 Z M 290103.2 60759.8 L 283971.8 60759.8 L 284069.6 61128.8 L 291651.8 61128.8 Q 291918.8 61131.8 291983.6 60932 Q 291633.8 60615.8 291256.4 60312.8 Q 291198.8 60266 291145.4 60223.4 Q 290792.6 59942.6 290766.8 59924.6 L 290103.2 60759.8 Z M 292991 55734.2 L 287363 55734.2 Q 287437.4 55250.6 287498 54811.4 Q 287559.2 54371.6 287596.4 54026 Q 287814.8 54032 287922.2 53957 Q 288029.6 53882 288063.2 53768 L 286662.8 53436.2 Q 286615.4 54084.2 286481 55075.4 Q 286397.6 55686.8 286299.2 56315 Q 286139 57333.2 285986.6 58093.4 Q 285707 58213.4 285519.8 58351.4 L 286551.8 59052.2 L 286994.6 58572.8 L 292966.4 58572.8 Q 292822.4 60254 292581.8 61527.8 Q 292533.8 61777.4 292482.8 62001.2 Q 292226 63147.8 291897.2 63438.8 Q 291774.2 63538.4 291653 63575.6 Q 291532.4 63612.8 291344.6 63611 Q 291095.6 63608 290509.4 63561.8 Q 290396.6 63552.8 290279 63543.2 Q 289668.8 63492.2 289169.6 63438.8 L 289157 63635.6 Q 289632.2 63711.2 290049.8 63830.6 Q 290466.8 63950 290656.4 64090.4 Q 290969.6 64317.2 290951 64802.6 Q 291989.6 64812.2 292585.4 64286.6 Q 293093.6 63819.2 293434.4 62403.2 Q 293458.4 62306 293481.2 62205.2 Q 293809.4 60737 293961.8 58720.4 Q 294354.8 58677.2 294490.4 58523.6 L 293421.2 57626.6 L 292843.4 58204.4 L 286957.4 58204.4 Q 287082.2 57567.8 287201 56789.6 Q 287256.2 56439.8 287313.8 56090.6 L 294576.2 56090.6 Q 294864.8 56093.6 294932.6 55893.8 Q 294578.6 55582.4 294188.6 55281.8 Q 294118.4 55227.8 294054.2 55178.6 Q 293693 54903.8 293666.6 54886.4 L 292991 55734.2 Z M 302145.8 61251.8 L 296333.6 61251.8 L 296431.4 61608.2 L 303644.6 61608.2 Q 303905.6 61611.2 303964.4 61411.4 Q 303632.6 61104.2 303264.8 60803 Q 303207.2 60756.2 303154.4 60712.4 Q 302810 60434 302784.8 60416 L 302145.8 61251.8 Z M 304529.6 59162.6 L 299577.2 59162.6 Q 299637.2 58860.2 299703.8 58518.2 Q 299799.8 58018.4 299909 57479 L 305610.8 57479 Q 305877.8 57482 305942.6 57282.8 Q 305602.4 56976.2 305241.8 56687 Q 305204.6 56657 305169.2 56628.8 Q 304825.4 56354.6 304799.6 56336.6 L 304173.2 57122.6 L 299970.8 57122.6 Q 300008.6 56906.6 300045.2 56703.8 Q 300136.4 56213.6 300191.6 55832.6 Q 300418.4 55838.6 300528.2 55763.6 Q 300637.4 55688.6 300671 55574.6 L 299294.6 55218.2 Q 299227.4 55807.4 299069.6 56702.6 Q 299007.8 57057.8 298938.8 57420.8 Q 298766 58335.8 298606.4 59039.6 Q 298317.8 59156.6 298103 59310.2 L 299122.4 60047.6 L 299601.8 59519 L 304640 59519 Q 304498.4 61110.2 304257.8 62185.4 Q 304016.6 63260.6 303718.4 63524.6 Q 303621.2 63614.6 303507.8 63644.6 Q 303394.4 63674.6 303214.4 63672.2 Q 302973.8 63669.2 302423 63626 Q 302365.4 63621.8 302306.6 63617 Q 301744.4 63571.4 301285.4 63524.6 L 301272.8 63734 Q 301700.6 63800 302070.2 63902.6 Q 302439.8 64005.8 302600 64127 Q 302876.6 64363.4 302858 64802.6 Q 303801.2 64805.6 304357.4 64348.4 Q 304836.2 63942.8 305142.2 62715.2 Q 305448.2 61487.6 305586.2 59654 Q 305976.2 59611.4 306090.2 59457.8 L 305070.2 58597.4 L 304529.6 59162.6 Z M 306434 53866.4 L 305832.2 54480.8 L 298004.6 54480.8 Q 297933.8 54164.6 297807.8 53829.8 L 297611 53841.8 Q 297668.6 54462.2 297417.8 54955.4 Q 297166.4 55449.2 296800.4 55673 Q 296562.2 55804.4 296444 56012 Q 296325.8 56220.2 296419.4 56471.6 Q 296553.8 56736.8 296849.6 56766.2 Q 297144.8 56796.2 297426.8 56619.2 Q 297725.6 56423.6 297920 55972.4 Q 298114.4 55521.2 298053.8 54837.2 L 305905.4 54837.2 Q 305801 55238.6 305670.8 55692.8 Q 305540.6 56147 305426.6 56483.6 L 305573.6 56582 Q 305955.8 56261.6 306368 55827.8 Q 306780.2 55394.6 307061 55046 Q 307407.8 55028 307515.2 54898.4 L 306434 53866.4 Z M 313192.4 53547.2 Q 313526 53837 313784 54285.8 Q 314041.4 54734.6 314089.4 55181.6 Q 314534 55474.4 314844.8 55253.6 Q 315087.8 55084.4 315111.2 54754.4 Q 315134 54424.4 314818.4 54084.2 Q 314430.8 53649.2 313302.8 53460.8 L 313192.4 53547.2 Z M 318206 55796 Q 318128 56165 318001.4 56567 Q 317875.4 56968.4 317751.2 57282.8 L 317898.8 57368.6 Q 318272.6 57096.8 318680.6 56712.8 Q 319088.6 56328.2 319361 55992.2 Q 319704.8 55986.2 319827.8 55869.2 L 318746.6 54825.2 L 318156.8 55439.6 L 310255.4 55439.6 Q 310212.8 55116.8 310095.8 54776 L 309899 54788 Q 309926 55342.4 309644 55778.6 Q 309362.6 56215.4 309002 56410.4 Q 308746.4 56533.4 308616.8 56746.4 Q 308487.2 56959.4 308572.4 57221 Q 308709.2 57505.4 309019.4 57549.8 Q 309329 57594.2 309604.4 57417.8 Q 309908.6 57240.2 310109.6 56828 Q 310310.6 56415.2 310292.6 55796 L 318206 55796 Z M 311091.2 56483.6 Q 311496.2 56812.4 311913.2 57279.2 Q 312329.6 57746.6 312541.4 58167.2 Q 312996.2 58379.6 313238 58118.6 Q 313403.6 57941 313355 57646.4 Q 313307 57352.4 312956.6 57047.6 Q 312476.6 56609.6 311201.6 56397.8 L 311091.2 56483.6 Z M 310133 58339.4 Q 310594.4 58686.2 311049.8 59190.2 Q 311504.6 59694.2 311717.6 60170 Q 312183.8 60398 312433.4 60131 Q 312615.2 59937.2 312556.4 59606.6 Q 312497.6 59276 312096.2 58934 Q 311573.6 58470.2 310243.4 58241 L 310133 58339.4 Z M 317739.2 60674 L 314863.4 60674 Q 315081.8 59900.6 315145.4 59003 Q 315209 58104.8 315223.4 57078.8 Q 315227.6 56882 315232.4 56680.4 Q 315650 56616.2 315662.6 56348.6 L 314175.2 56201 Q 314175.8 56413.4 314175.8 56620.4 Q 314189.6 57807.8 314134.4 58817.6 Q 314079.2 59827.4 313819.4 60674 L 308817.8 60674 L 308928.8 61042.4 L 313683.8 61042.4 Q 313262.6 62190.2 312051.2 63068.6 Q 310839.8 63947 308474 64606.4 L 308572.4 64815.2 Q 311016.2 64292 312381.2 63554 Q 313746.8 62816.6 314347.4 61841.6 Q 315804.8 62501 316812.8 63268.4 Q 317820.8 64035.8 318255.2 64631 Q 318718.4 64840.4 318929.6 64544.6 Q 319124 64272.2 318855.8 63758.6 Q 318587.6 63244.4 317621.6 62680.4 Q 316588.4 62072 314470.4 61632.8 Q 314636 61356.2 314728.4 61042.4 L 319324.4 61042.4 Q 319600.4 61046 319656.2 60846.2 Q 319323.2 60529.4 318942.2 60215.6 Q 318863 60150.2 318791 60090.8 Q 318440.6 59807 318414.8 59789.6 L 317739.2 60674 Z M 322273.4 62714 L 322273.4 59469.8 L 324657.2 59469.8 L 324657.2 62714 L 322273.4 62714 Z M 324657.2 56054 L 324657.2 59113.4 L 322273.4 59113.4 L 322273.4 56054 L 324657.2 56054 Z M 325038.2 55119.8 L 324534.2 55697.6 L 323096.6 55697.6 Q 323350.4 55310.6 323611.4 54884.6 Q 323871.8 54459.2 324079.4 54099.8 Q 324470 54093.8 324546.8 53829.8 L 323060 53485.4 Q 322973.6 53992.4 322861.4 54600.8 Q 322749.8 55209.2 322654.4 55697.6 L 322334.6 55697.6 L 321351.8 55242.8 L 321351.8 64397.6 L 321524 64397.6 Q 321828.8 64386.2 322046 64266.8 Q 322263.2 64147.4 322273.4 64053.2 L 322273.4 63070.4 L 324657.2 63070.4 L 324657.2 64016.6 L 324792.2 64016.6 Q 325058.6 64004.6 325311.2 63888.8 Q 325564.4 63773.6 325590.8 63696.8 L 325590.8 56238.2 Q 325974.8 56136.8 326119.4 55980.2 L 325038.2 55119.8 Z M 331047.2 55058.6 L 330469.4 55685 L 327987.2 55685 Q 328340.6 54954.2 328638.2 54149 Q 329022.2 54130.4 329093 53891 L 327643.4 53485.4 Q 327345.8 54918.2 326841.2 56242.4 Q 326336.6 57567.2 325763 58511.6 L 325935.2 58622 Q 326997.8 57599 327803 56041.4 L 330592.4 56041.4 Q 330543.2 59208.8 330383.6 61113.2 Q 330223.4 63018.2 329879.6 63365 Q 329801.6 63464.6 329703.2 63501.8 Q 329604.2 63539 329424.8 63537.2 Q 329168.6 63534.2 328653.8 63492.8 Q 328139 63450.8 327680 63402.2 L 327668 63611 Q 328081.4 63685.4 328417.4 63792.2 Q 328752.8 63899 328908.8 64028.6 Q 329179.4 64268 329154.8 64766 Q 330143.6 64781.6 330690.8 64151.6 Q 331124.6 63623 331322 61649.6 Q 331518.8 59676.2 331575.2 56189 Q 331977.8 56139.8 332103.8 55980.2 L 331047.2 55058.6 Z M 326832.2 58290.2 Q 327293 58798.4 327689 59492.6 Q 328085.6 60187.4 328196 60833.6 Q 328645.4 61155.8 328931.6 60891.2 Q 329144 60695.6 329123.6 60293 Q 329103.8 59891 328732.4 59403.2 Q 328257.8 58758.2 326955.2 58204.4 L 326832.2 58290.2 Z M 337252.4 53522.6 Q 337647.2 53998.4 338014.4 54622.4 Q 338381.6 55245.8 338517.8 55832.6 Q 338977.4 56132 339265.4 55871.6 Q 339473 55685 339459.8 55317.8 Q 339446 54951.2 339102.8 54516.8 Q 338653.4 53925.2 337387.4 53448.8 L 337252.4 53522.6 Z M 343666.4 56532.8 Q 343952.6 56535.8 343998.2 56336.6 Q 343646 56025.2 343256.6 55721 Q 343184.6 55664 343118 55611.8 Q 342758.6 55334 342732.8 55316.6 L 342032.6 56176.4 L 333553.4 56176.4 L 333651.8 56532.8 L 343666.4 56532.8 Z M 335225 57417.8 Q 335668.4 58476.8 336055.4 59761.4 Q 336133.4 60027.2 336202.4 60294.2 Q 336549.8 61587.2 336576.8 62738.6 Q 337091.6 63204.2 337394 62765 Q 337613.6 62442.8 337592 61749.2 Q 337569.8 61055.6 337201.4 60109.4 Q 336720.2 58839.2 335409.2 57368.6 L 335225 57417.8 Z M 342462.2 63611 L 339575 63611 Q 340298 62385.2 340928.6 61002.2 Q 341065.4 60704 341193.8 60408.8 Q 341789 59038.4 342155 57946.4 Q 342570.2 57930.8 342634.4 57675.8 L 341061.8 57245.6 Q 340794.2 58517.6 340380.8 60023.6 Q 340270.4 60423.8 340154.6 60824 Q 339717.8 62330.6 339255.2 63611 L 333037.4 63611 L 333148.4 63979.4 L 344121.2 63979.4 Q 344388.8 63982.4 344453 63783.2 Q 344093.6 63464.6 343698.8 63154.4 Q 343622 63093.2 343551.8 63038 Q 343188.8 62756 343163 62738.6 L 342462.2 63611 Z M 347660 56741.6 Q 348284 55525.4 348741.8 54161.6 Q 349156.4 54143 349220.6 53903.6 L 347709.2 53448.8 Q 347325.2 55197.8 346692.8 56834 Q 346665.2 56906.6 346637 56978 Q 345997.4 58601 345288.8 59765 L 345461 59850.8 Q 346188.8 59135 346824.8 58179.8 L 346824.8 64802.6 L 347009 64802.6 Q 347307.8 64790.6 347546.6 64676.6 Q 347785.4 64563.2 347807.6 64495.4 L 347807.6 57159.8 Q 348133.4 57110.6 348201.2 56951 L 347660 56741.6 Z M 356188.4 56410.4 Q 356455.4 56413.4 356520.2 56213.6 Q 356192 55901 355835.6 55601 Q 355793 55565 355752.2 55530.8 Q 355414.4 55248.8 355389.2 55230.2 L 354762.8 56054 L 352833.8 56054 L 352833.8 53976.8 Q 353266.4 53897 353276 53633 L 351850.4 53485.4 L 351850.4 56054 L 348422 56054 L 348520.4 56410.4 L 351297.8 56410.4 Q 350843 58101.8 350019.8 59698.4 Q 349196 61295.6 348041 62517.2 L 348201.2 62676.8 Q 350670.8 60701.6 351850.4 57823.4 L 351850.4 61915.4 L 349810.4 61915.4 L 349908.8 62283.8 L 351850.4 62283.8 L 351850.4 64815.2 L 352047.2 64815.2 Q 352330.4 64803.8 352574 64684.4 Q 352817.6 64565 352833.8 64470.8 L 352833.8 62283.8 L 354750.2 62283.8 Q 355005.2 62286.8 355057.4 62087 Q 354762.8 61780.4 354441.8 61497.8 Q 354428 61485.2 354413.6 61472.6 Q 354099.8 61196.6 354074.6 61178 L 353534 61915.4 L 352833.8 61915.4 L 352833.8 56410.4 L 352870.4 56410.4 Q 353326.4 58428.8 354114.8 59993.6 Q 354902.6 61558.4 355967 62554.4 Q 356091.2 62194.4 356328.2 61992.2 Q 356564.6 61789.4 356864 61743.2 L 356900.6 61620.2 Q 355742.6 60874.4 354748.4 59513.6 Q 354727.4 59485.4 354706.4 59456.6 Q 353718.2 58086.2 353116.4 56410.4 L 356188.4 56410.4 Z M 365662.4 53608.4 Q 365931.8 53829.8 366178.4 54159.8 Q 366425 54489.8 366510.2 54812.6 Q 366893.6 55052 367143.8 54848 Q 367298.6 54723.8 367307 54507.2 Q 367316 54290.6 367107.2 54058.4 Q 366800 53689.4 365772.8 53510 L 365662.4 53608.4 Z M 359247.8 61313 Q 359183 62024 358816.4 62560.4 Q 358449.8 63096.2 358007 63328.4 Q 357797.6 63459.8 357699.8 63641.6 Q 357601.4 63823.4 357687.2 64028.6 Q 357810.8 64238.6 358086.8 64240.4 Q 358362.2 64242.8 358633.4 64065.8 Q 359057.6 63807.8 359358.8 63123.8 Q 359363 63113 359367.2 63102.8 Q 359663.6 62412.2 359456.6 61313 L 359247.8 61313 Z M 362774.6 56532.8 L 359886.8 56532.8 L 359985.2 56889.2 L 364028 56889.2 Q 364289 56892.2 364347.2 56693 Q 364035.2 56414.6 363701 56148.8 Q 363683.6 56135 363666.8 56121.8 Q 363340.4 55862.6 363315.2 55844.6 L 362774.6 56532.8 Z M 362860.4 58068.8 L 362860.4 59543.6 L 361128.2 59543.6 L 361128.2 58068.8 L 362860.4 58068.8 Z M 361128.2 59912 L 362860.4 59912 L 362860.4 60354.8 L 363008 60354.8 Q 363247.4 60345.8 363488.6 60251.6 Q 363730.4 60157.4 363757.4 60084.2 L 363757.4 58216.4 Q 364113.8 58127.6 364248.8 57983 L 363216.8 57221 L 362750 57712.4 L 361176.8 57712.4 L 360243.2 57307.4 L 360243.2 60600.2 L 360366.2 60600.2 Q 360647.6 60589.4 360880.4 60488 Q 361113.8 60387.2 361128.2 60330.2 L 361128.2 59912 Z M 362369 60784.4 Q 362821.4 61178 363241.4 61737.2 Q 363661.4 62295.8 363819.2 62837 Q 364247.6 63080 364477.4 62804 Q 364629.2 62621 364582.4 62300.6 Q 364535.6 61980.2 364206.2 61616 Q 363742.4 61079 362479.4 60686.6 L 362369 60784.4 Z M 366252.2 62001.2 L 366104.6 62001.2 Q 365974.4 62502.8 365860.4 62859.8 Q 365746.4 63216.8 365662.4 63377.6 Q 365611.4 63458.6 365544.2 63494 Q 365477 63529.4 365342.6 63537.2 Q 365170.4 63554.6 364777.4 63558.8 Q 364384.4 63562.4 363843.8 63561.8 L 362184.8 63561.8 Q 361774.4 63565.4 361659.2 63520.4 Q 361544 63475.4 361557.8 63340.4 L 361557.8 61423.4 Q 361908.2 61362.2 361926.8 61116.2 L 360575 60981.2 L 360575 63488 Q 360552.8 64011.8 360855.8 64203.8 Q 361158.8 64395.8 362049.8 64385 L 363782 64385 Q 365354 64389.8 365988.8 64303.4 Q 366188 64275.8 366324.2 64236.8 Q 366749.6 64111.4 366719 63819.8 Q 366723.2 63691.4 366628.4 63595.4 Q 366533.6 63499.4 366288.8 63426.8 L 366252.2 62001.2 Z M 366153.8 61374.2 Q 366729.2 61873.4 367226 62586.2 Q 367722.8 63299.6 367874 63992 Q 368334.8 64278.8 368591 63983 Q 368784.8 63759.8 368721.8 63334.4 Q 368658.8 62909 368222.6 62416.4 Q 367671.8 61776.2 366288.8 61276.4 L 366153.8 61374.2 Z M 368832.8 58830.8 L 368685.2 58794.2 Q 368560.4 59134.4 368417.6 59459 Q 368274.8 59783.6 368169.2 59985.8 Q 368064.8 60250.4 367812.8 60035 Q 367050.8 59549.6 366510.2 58843.4 Q 367272.2 57906.2 367812.8 56582 Q 368221.4 56597.6 368279.6 56373.2 L 366952.4 55869.2 Q 366626.6 57119.6 366043.4 58130.6 Q 365385.8 56871.2 365170.4 55427 L 368660.6 55427 Q 368927.6 55430 368992.4 55230.2 Q 368685.8 54938.6 368366.6 54663.2 Q 368357.6 54656 368349.2 54648.8 Q 368033.6 54377 368009 54357.8 L 367468.4 55070.6 L 365121.8 55070.6 Q 365051 54471.8 365035.4 53891 Q 365244.2 53861 365334.8 53771 Q 365426 53681.6 365441 53559.2 L 364052.6 53436.2 Q 364067.6 54281 364175.6 55070.6 L 359813 55070.6 L 358719.2 54628.4 L 358719.2 56987.6 Q 358744.4 58166.6 358555.4 59405.6 Q 358365.8 60644 357662.6 61730.6 L 357810.2 61866.2 Q 358799.6 61037.6 359183 59989.4 Q 359388.2 59459 359487.2 58922.6 Q 359663.6 57862.4 359640.8 56975.6 L 359640.8 55427 L 364224.8 55427 Q 364377.2 56415.8 364682 57314.6 Q 364987.4 58214 365490.2 58990.4 Q 364697.6 60044 363757.4 60711.2 L 363893 60858.2 Q 364974.2 60379.4 365871.2 59531 Q 366485.6 60327.2 367358 60920 Q 367784 61216.4 368242.4 61335.8 Q 368701.4 61455.2 368943.2 61153.4 Q 369032 61048.4 368975.6 60872 Q 368919.2 60696.2 368648 60379.4 L 368832.8 58830.8 Z " fill-rule="nonzero" style="fill:#666666;;fill-opacity:1;"/>
</svg>