<svg version="1.1" x="0" y="0" width="100%" height="100%" viewBox="0 0 816435.2 47411.2" xmlns="http://www.w3.org/2000/svg">
  <path d="M 11073.9 11686.2 L 9582.8 13337.2 L 2846.2 13337.2 L 3086.7 14108.1 L 9796 14108.1 Q 9489.2 17203.4 8783.3 20339 Q 6960.7 18329.2 4098.1 16238.8 L 3725 16424.7 Q 4757.2 17992.5 5849.2 19799.5 Q 6939.9 21606.5 7931.8 23533.1 Q 7060.8 26302.1 5785.5 28772.1 Q 4510.2 31240.8 2739.6 33251.9 L 3059.4 33517.1 Q 5130.3 32033.8 6660.4 30248.9 Q 8191.8 28465.3 9263 26462 Q 10061.2 28319.7 10461.6 30056.5 Q 11814.9 31087.4 12549.4 30212.5 Q 13137 29509.2 12951.1 27867.3 Q 12740.5 25844.5 10833.4 22920.8 Q 12264.7 18767.3 12776.9 14615.1 Q 13226.7 14561.8 13456.8 14468.2 Q 13685.6 14374.6 13815.6 14161.4 L 11073.9 11686.2 Z M 27234.2 28166.3 L 26914.4 28166.3 Q 26629.7 29307.7 26376.2 30189.1 Q 26121.4 31071.8 25956.3 31413.7 Q 25845.8 31608.7 25760 31673.7 Q 25674.2 31738.7 25503.9 31733.5 L 24492.5 31733.5 L 23400.5 31733.5 Q 23070.3 31738.7 22965 31654.2 Q 22858.4 31568.4 22867.5 31334.4 L 22867.5 25636.5 Q 23061.2 25604 23214.6 25529.9 L 23214.6 26035.6 L 23746.3 26035.6 Q 24879.9 26004.4 25544.2 25723.6 Q 26207.2 25442.8 26222.8 25290.7 L 26222.8 13096.7 Q 26673.9 13035.6 26914.4 12904.3 Q 27156.2 12773 27287.5 12591 L 24545.8 10461.6 L 23108 12111.3 L 17011 12111.3 L 13868.9 10914 L 13868.9 26329.4 L 14374.6 26329.4 Q 15482.2 26302.1 16095.8 26035.6 Q 16708.1 25770.4 16717.2 25583.2 L 16717.2 12857.5 L 23214.6 12857.5 L 23214.6 24917.6 L 20844.7 24704.4 Q 21128.1 23043 21208.7 21154.1 Q 21289.3 19266.5 21306.2 17117.6 Q 21314 16465 21324.4 15786.4 Q 22201.9 15620 22282.5 15014.2 L 18528.1 14668.4 Q 18529.4 15573.2 18533.3 16433.8 Q 18616.5 20513.2 18298 23689.1 Q 18067.9 25739.2 17399.7 27469.5 Q 16732.8 29198.5 15415.9 30651.9 Q 13408.7 32898.3 9183.7 34609.1 L 9395.6 35061.5 Q 14262.8 33708.2 16764 31750.4 Q 19265.2 29792.6 20179.1 27180.9 L 20179.1 32026 Q 20133.6 33305.2 20597.7 33820 Q 21063.1 34334.8 22575 34316.6 L 24226 34316.6 Q 26337.2 34312.7 27223.8 33890.2 Q 28111.7 33467.7 28085.7 32665.6 Q 28100 32291.2 27949.2 32026 Q 27799.7 31762.1 27314.8 31547.6 L 27234.2 28166.3 Z M 37937.1 24012.8 L 46350.7 24012.8 Q 46935.7 24019.3 47042.3 23586.4 Q 46294.8 22954.6 45474.5 22360.5 Q 45366.6 22281.2 45265.2 22207.1 Q 44490.4 21652 44433.2 21616.9 L 43048.7 23240.6 L 37751.2 23240.6 Q 40512.4 20970.8 42037.3 17943.1 Q 42489.7 17909.3 42743.2 17836.5 Q 42995.4 17762.4 43129.3 17570 L 40546.2 15306.7 L 38975.8 16797.8 L 36951.7 16797.8 Q 37431.4 16225.8 37830.5 15652.5 Q 38336.2 15673.3 38542.9 15590.1 Q 38749.6 15505.6 38815.9 15306.7 L 35142.1 14374.6 Q 34407.6 16403.9 32988 18359.1 Q 31569.7 20313 29896.6 21563.6 L 30082.5 21856.1 Q 31234.3 21369.9 32345.8 20764.1 Q 32754 21180.1 33047.8 21779.4 Q 33341.6 22380 33410.5 22974.1 Q 34249 23534.4 34867.8 23128.8 Q 35246.1 22889.6 35354 22458 Q 35463.2 22027.7 35162.9 21562.3 Q 34719.6 20800.5 32825.5 20445.6 Q 33856.4 19765.7 34769 19007.8 Q 35434.6 19746.2 35620.5 20605.5 Q 36517.5 21113.8 37112.9 20686.1 Q 37431.4 20465.1 37534.1 20108.9 Q 37636.8 19752.7 37435.3 19374.4 Q 37106.4 18665.9 35434.6 18395.5 Q 35880.5 17988.6 36286.1 17542.7 L 39001.8 17542.7 Q 37801.9 20469 35377.4 22874 Q 32954.2 25280.3 29576.8 26807.8 L 29764 27180.9 Q 34575.3 25843.2 37751.2 23267.9 L 37937.1 24012.8 Z M 35807.7 27739.9 Q 34992.6 29292.1 33454.7 31018.5 Q 31915.5 32744.9 30082.5 33996.8 L 30295.7 34316.6 Q 32724.1 33648.4 34822.3 32492.7 Q 36920.5 31335.7 38310.2 30029.2 Q 38758.7 30124.1 38971.9 30033.1 Q 39186.4 29942.1 39295.6 29736.7 L 35807.7 27739.9 Z M 50743.4 27473.4 Q 51355.7 27481.2 51488.3 27048.3 Q 50662.8 26372.3 49780.1 25740.5 Q 49629.3 25631.3 49490.2 25531.2 Q 48671.2 24952.7 48614 24917.6 L 47095.6 26701.2 L 32932.1 26701.2 L 33145.3 27473.4 L 40386.3 27473.4 L 40386.3 31441 Q 40433.1 31873.9 39880.6 31867.4 Q 39497.1 31862.2 38680.7 31816.7 Q 38381.7 31799.8 38102.2 31784.2 Q 37339.1 31738.7 37271.5 31733.5 L 37271.5 32079.3 Q 38134.7 32243.1 38572.8 32486.2 Q 39010.9 32729.3 39215 33011.4 Q 39660.9 33697.8 39667.4 35061.5 Q 42047.7 34862.6 42809.5 33995.5 Q 42856.3 33947.4 42900.5 33896.7 Q 43596 32994.5 43528.4 31494.3 L 43528.4 27473.4 L 50743.4 27473.4 Z M 44620.4 28778.6 Q 46166.1 29749.7 47710.5 31191.4 Q 47724.8 31204.4 47739.1 31218.7 Q 49279.6 32661.7 50131.1 34129.4 Q 51442.8 34576.6 52073.3 33842.1 Q 52662.2 33158.3 52294.3 32026 Q 51926.4 30895 50257.2 29892.7 Q 48484 28818.9 44832.3 28565.4 L 44620.4 28778.6 Z M 48533.4 17330.8 Q 48287.7 18000.3 47957.5 18721.8 Q 47627.3 19442 47282.8 20072.5 Q 45704.6 18961 44567.1 17330.8 L 48533.4 17330.8 Z M 51276.4 16371.4 Q 51925.1 15982.7 52514 15530.3 Q 53102.9 15076.6 53512.4 14668.4 Q 54271.6 14647.6 54551.1 14348.6 L 51782.1 11712.2 L 50210.4 13309.9 L 43235.9 13309.9 Q 44001.6 12753.5 43949.6 11838.3 Q 43897.6 11128.5 43074.7 10572.1 Q 42051.6 9851.9 39400.9 9981.9 L 39215 10141.8 Q 39893.6 10660.5 40416.2 11499 Q 40940.1 12338.8 41079.2 13256.6 L 41158.5 13309.9 L 33305.2 13309.9 Q 33184.3 12624.8 32904.8 11818.8 L 32533 11818.8 Q 32517.4 12654.7 31953.2 13326.8 Q 31389 13997.6 30694.8 14295.3 Q 30039.6 14557.9 29687.3 15080.5 Q 29335 15603.1 29497.5 16345.4 Q 29740.6 17124.1 30479 17343.8 Q 31217.4 17563.5 31920.7 17224.2 Q 32575.9 16878.4 32991.9 16068.5 Q 33407.9 15259.9 33384.5 14054.8 L 50450.9 14054.8 Q 50410.6 14409.7 50382 14778.9 Q 50354.7 15120.8 50317 15466.6 L 49891.9 15067.5 L 48454.1 16558.6 L 44034.1 16558.6 Q 43560.9 15712.3 43208.6 14747.7 L 42862.8 14960.9 Q 43930.1 19378.3 46280.5 21992.6 Q 48630.9 24608.2 52153.9 26088.9 Q 52759.7 23925.7 54604.4 23479.8 L 54630.4 23187.3 Q 52803.9 22772.6 51112.6 22129.1 Q 49421.3 21485.6 47974.4 20552.2 Q 48952 19977.6 49875 19253.5 Q 50798 18529.4 51435 17836.5 Q 52228 17809.2 52501 17542.7 L 51276.4 16371.4 Z M 62084.6 17862.5 Q 63808.4 15187.1 65173.4 11952.7 Q 66045.7 11965.7 66238.1 11419.7 L 62005.3 10009.2 Q 61019.9 13875.4 59456 17445.2 Q 59306.5 17787.1 59154.4 18123.8 Q 57556.7 21627.3 55829 24066.1 L 56147.5 24305.3 Q 57984.4 22948.1 59582.1 21111.2 L 59582.1 35035.5 L 60168.4 35035.5 Q 61126.5 35000.4 61885.7 34672.8 Q 62643.6 34343.9 62724.2 34129.4 L 62724.2 18927.2 Q 63456.1 18760.8 63549.7 18395.5 L 62084.6 17862.5 Z M 80562.8 16478 Q 81154.3 16484.5 81307.7 16051.6 Q 80482.2 15343.1 79556.6 14598.2 Q 79265.4 14364.2 79010.6 14160.1 Q 78192.9 13510.1 78139.6 13469.8 L 76382 15759.1 L 70125.1 15759.1 Q 71191.1 14028.8 72095.9 12058 Q 73000.7 12104.8 73187.9 11552.3 L 68900.5 10035.2 Q 67987.9 13545.2 66544.9 16805.6 Q 66478.6 16957.7 66411 17108.5 Q 64953.7 20340.3 63415.8 22602.3 L 63709.6 22814.2 Q 67070.1 20405.3 69672.7 16478 L 70312.3 16478 L 70312.3 35008.2 L 70897.3 35008.2 Q 72145.3 34974.4 72834.3 34666.3 Q 73523.3 34356.9 73533.7 34182.7 L 73533.7 27953.1 L 80029.8 27953.1 Q 80655.1 27959.6 80802 27526.7 Q 79959.6 26800 79027.5 26040.8 Q 78736.3 25801.6 78480.2 25594.9 Q 77661.2 24931.9 77606.6 24891.6 L 75823 27208.2 L 73533.7 27208.2 L 73533.7 22175.9 L 79524.1 22175.9 Q 80115.6 22182.4 80269 21749.5 Q 79460.4 21041 78571.2 20314.3 Q 78342.4 20127.1 78138.3 19960.7 Q 77341.4 19314.6 77286.8 19274.3 L 75663.1 21403.7 L 73533.7 21403.7 L 73533.7 16478 L 80562.8 16478 Z M 99065.7 12723.6 L 99065.7 18794.6 L 91398.3 18794.6 L 91398.3 12723.6 L 99065.7 12723.6 Z M 91398.3 19539.5 L 99065.7 19539.5 L 99065.7 21696.2 L 99598.7 21696.2 Q 100450.2 21663.7 101279.6 21355.6 L 101305.6 21345.2 Q 102128.5 21035.8 102207.8 20844.7 L 102207.8 13230.6 Q 103052.8 13030.4 103298.5 12671.6 L 100264.3 10355 L 98799.2 11952.7 L 91558.2 11952.7 L 88256.2 10647.5 L 88256.2 21936.7 L 88735.9 21936.7 Q 89757.7 21901.6 90555.9 21553.2 Q 91354.1 21204.8 91398.3 20951.3 L 91398.3 19539.5 Z M 87084.9 31334.4 L 87084.9 24332.6 L 90971.9 24332.6 L 90971.9 31334.4 L 87084.9 31334.4 Z M 90705.4 23560.4 L 87218.8 23560.4 L 84130 22335.8 L 84130 34795 L 84582.4 34795 Q 85543.1 34761.2 86293.2 34412.8 Q 87043.3 34064.4 87084.9 33810.9 L 87084.9 32106.6 L 90971.9 32106.6 L 90971.9 34316.6 L 91477.6 34316.6 Q 92291.4 34281.5 93090.9 33960.4 Q 93098.7 33956.5 93106.5 33953.9 Q 93902.1 33631.5 93980.1 33437.8 L 93980.1 24811 Q 94792.6 24625.1 95046.1 24279.3 L 92089.9 22042 L 90705.4 23560.4 Z M 99332.2 31334.4 L 99332.2 24332.6 L 103432.4 24332.6 L 103432.4 31334.4 L 99332.2 31334.4 Z M 104603.7 22016 L 103165.9 23560.4 L 99464.8 23560.4 L 96377.3 22335.8 L 96377.3 34822.3 L 96829.7 34822.3 Q 97807.3 34788.5 98549.6 34438.8 Q 99293.2 34090.4 99332.2 33836.9 L 99332.2 32106.6 L 103432.4 32106.6 L 103432.4 34449.2 L 103938.1 34449.2 Q 104754.5 34421.9 105578.7 34145 Q 105585.2 34143.7 105593 34141.1 Q 106412 33864.2 106493.9 33677 L 106493.9 24838.3 Q 107299.9 24618.6 107585.9 24279.3 L 104603.7 22016 Z M 123479.7 23799.6 L 123479.7 16691.2 L 129470.1 16691.2 L 129470.1 23799.6 L 123479.7 23799.6 Z M 114214.6 23799.6 L 114214.6 16691.2 L 120151.7 16691.2 L 120151.7 23799.6 L 114214.6 23799.6 Z M 130722 14268 L 129230.9 15919 L 123479.7 15919 L 123479.7 11259.8 Q 124008.8 11176.6 124222 10973.8 Q 124436.5 10771 124465.1 10487.6 L 120151.7 10088.5 L 120151.7 15919 L 114455.1 15919 L 110913.9 14534.5 L 110913.9 27208.2 L 111392.3 27208.2 Q 112459.6 27170.5 113312.4 26794.8 Q 114165.2 26419.1 114214.6 26142.2 L 114214.6 24571.8 L 120151.7 24571.8 L 120151.7 35035.5 L 120764 35035.5 Q 121772.8 34996.5 122600.9 34592.2 Q 123430.3 34189.2 123479.7 33890.2 L 123479.7 24571.8 L 129470.1 24571.8 L 129470.1 26807.8 L 130029.1 26807.8 Q 130883.2 26781.8 131759.4 26504.9 Q 131814 26489.3 131866 26472.4 Q 132717.5 26191.6 132798.1 26009.6 L 132798.1 17250.2 Q 133623.6 17037 133890.1 16665.2 L 130722 14268 Z M 145551.1 10461.6 Q 145549.8 10823 145549.8 11184.4 Q 145608.3 14954.4 145266.4 18685.4 Q 145022 21076.1 144342.1 23407 Q 143660.9 25737.9 142333.6 27976.5 Q 140304.3 31470.9 136046.8 34636.4 L 136339.3 35008.2 Q 141362.5 32553.8 143985.9 29518.3 Q 146488.4 26632.3 147505 23425.2 Q 148567.1 20054.3 148746.5 16558.6 Q 149107.9 22038.1 150608.1 26226.7 Q 151120.3 27600.8 151813.2 28826.7 Q 153863.3 32568.1 158118.2 34875.6 Q 158656.4 32239.2 161073.1 31760.8 L 161126.4 31441 Q 155961.5 29531.3 153308.2 26265.7 Q 151662.4 24263.7 150718.6 21696.2 Q 149214.5 17503.7 148959.7 11632.9 Q 149470.6 11570.5 149691.6 11379.4 Q 149912.6 11188.3 149943.8 10886.7 L 145551.1 10461.6 Z M 165546.4 16452 Q 166065.1 14901.1 166425.2 13230.6 Q 166824.3 13183.8 167063.5 13017.4 L 167063.5 16452 L 165546.4 16452 Z M 185114 13523.1 L 183464.3 15253.4 L 176355.9 15253.4 Q 177213.9 13670 177873 11765.5 Q 178771.3 11759 178911.7 11233.8 L 174890.8 10035.2 Q 174385.1 13316.4 173239.8 16158.2 Q 172606.7 15467.9 172062 14910.2 Q 171518.6 14353.8 171483.5 14321.3 L 170125 16452 L 169992.4 16452 L 169992.4 11180.5 Q 170518.9 11098.6 170720.4 10907.5 Q 170923.2 10716.4 170950.5 10434.3 L 167063.5 10035.2 L 167063.5 12511.7 L 163735.5 11899.4 Q 163692.6 14414.9 163389.7 16910.9 Q 163086.8 19406.9 162564.2 21403.7 L 162963.3 21589.6 Q 164381.6 19786.5 165279.9 17224.2 L 167063.5 17224.2 L 167063.5 23373.2 Q 165573.7 23755.4 164414.1 24025.8 Q 163254.5 24297.5 162564.2 24439.2 L 163895.4 27953.1 Q 164367.3 27773.7 164561 27234.2 Q 164850.9 27076.9 165135.6 26922.2 Q 166153.5 26376.2 167063.5 25849.7 L 167063.5 35008.2 L 167649.8 35008.2 Q 168529.9 34979.6 169239.7 34681.9 Q 169950.8 34384.2 169992.4 34156.7 L 169992.4 24145.4 Q 172115.3 22867.5 173480.3 21990 L 173399.7 21670.2 Q 173398.4 21670.2 173395.8 21671.5 Q 171674.6 22156.4 169992.4 22602.3 L 169992.4 17224.2 L 172787.4 17224.2 Q 171863.1 19313.3 170737.3 20844.7 L 171031.1 21083.9 Q 173905.4 19253.5 175902.2 16025.6 L 176755 16025.6 Q 176163.5 19169 174668.5 22222.7 Q 173173.5 25276.4 170924.5 27660.6 L 171163.7 27953.1 Q 174326.6 25800.3 176465.1 22707.6 Q 178603.6 19616.2 179630.6 16025.6 L 180322.2 16025.6 Q 179787.9 20838.2 177730 25271.2 Q 175672.1 29704.2 171802 33038.7 L 172015.2 33305.2 Q 176956.5 30503.7 179650.1 26264.4 Q 179897.1 25884.8 180128.5 25497.4 Q 182646.6 21156.7 183517.6 16025.6 L 183756.8 16025.6 Q 183522.8 22439.8 183018.4 26293 Q 182514 30144.9 181680.7 30908 Q 181432.4 31125.1 181190.6 31217.4 Q 180948.8 31309.7 180561.4 31308.4 Q 180034.9 31303.2 179011.8 31230.4 Q 177988.7 31157.6 176964.3 31074.4 Q 176745.9 31057.5 176541.8 31041.9 L 176541.8 31413.7 Q 177529.8 31616.5 178278.6 31923.3 Q 179027.4 32230.1 179417.4 32612.3 Q 180062.2 33284.4 180029.7 34795 Q 181354.4 34800.2 182319 34455.7 Q 183283.6 34111.2 184049.3 33357.2 Q 185250.5 32182 185873.2 28100 Q 186495.9 24018 186739 16531.3 Q 187650.3 16358.4 187963.6 16025.6 L 185114 13523.1 Z M 196589.1 21536.3 Q 198713.3 19020.8 200077 16264.8 L 213149.8 16264.8 Q 213762.1 16271.3 213894.7 15839.7 Q 213035.4 15110.4 212063 14340.8 Q 211713.3 14061.3 211411.7 13824.7 Q 210568 13163 210513.4 13124 L 208650.5 15492.6 L 200476.1 15492.6 Q 201401.7 13555.6 202047.8 11739.5 Q 202576.9 11716.1 202805.7 11569.2 Q 203035.8 11422.3 203085.2 11180.5 L 198585.9 10009.2 Q 198020.4 12631.3 196936.2 15492.6 L 189773.2 15492.6 L 189986.4 16264.8 L 196616.4 16264.8 Q 195381.4 19317.2 193508.1 22148.6 Q 191634.8 24981.3 189081.6 27154.9 L 189320.8 27447.4 Q 191637.4 26222.8 193554.9 24599.1 L 193554.9 34982.2 L 194167.2 34982.2 Q 195126.6 34949.7 195897.5 34632.5 Q 196668.4 34315.3 196749 34103.4 L 196749 22415.1 Q 197461.4 22269.5 197574.5 21883.4 L 196589.1 21536.3 Z M 209209.5 32586.3 L 206333.9 32586.3 L 206333.9 24439.2 L 211765.3 24439.2 Q 212358.1 24445.7 212510.2 24012.8 Q 211702.9 23325.1 210807.2 22614 Q 210570.6 22426.8 210360 22260.4 Q 209556.6 21629.9 209502 21589.6 L 207825 23693 L 206333.9 23693 L 206333.9 18502.1 Q 207199.7 18335.7 207185.4 17809.2 L 203138.5 17436.1 L 203138.5 23693 L 198107.5 23693 L 198320.7 24439.2 L 203138.5 24439.2 L 203138.5 32586.3 L 197148.1 32586.3 L 197361.3 33357.2 L 213442.3 33357.2 Q 214067.6 33365 214214.5 32932.1 Q 213351.3 32204.1 212401 31460.5 Q 212112.4 31233 211858.9 31036.7 Q 211021.7 30389.3 210967.1 30349 L 209209.5 32586.3 Z M 218527.9 10167.8 Q 219066.1 10943.9 219509.4 11959.2 Q 219952.7 12973.2 220072.3 14028.8 Q 221126.6 14820.5 221997.6 14450 Q 222775 14123.7 222963.5 13299.5 Q 223152 12476.6 222335.6 11579.6 Q 221438.6 10577.3 218767.1 10035.2 L 218527.9 10167.8 Z M 234528.3 25636.5 L 234528.3 21190.5 L 236978.8 21190.5 L 236978.8 25636.5 L 234528.3 25636.5 Z M 229150.2 25636.5 L 229150.2 21190.5 L 231600.7 21190.5 L 231600.7 25636.5 L 229150.2 25636.5 Z M 231600.7 16345.4 L 231600.7 20445.6 L 229150.2 20445.6 L 229150.2 16345.4 L 231600.7 16345.4 Z M 236978.8 16345.4 L 236978.8 20445.6 L 234528.3 20445.6 L 234528.3 16345.4 L 236978.8 16345.4 Z M 238096.8 14054.8 L 236712.3 15599.2 L 234528.3 15599.2 L 234528.3 11153.2 Q 235054.8 11071.3 235261.5 10880.2 Q 235466.9 10689.1 235513.7 10408.3 L 231600.7 10009.2 L 231600.7 15599.2 L 229337.4 15599.2 L 226248.6 14348.6 L 226248.6 16665.2 L 223718.8 14188.7 L 222041.8 15786.4 L 215918.8 15786.4 L 216158 16558.6 L 222148.4 16558.6 Q 221316.4 19196.3 219640.7 21990 Q 219566.6 22112.2 219491.2 22234.4 Q 217785.6 25019 215626.3 27208.2 L 215891.5 27447.4 Q 217894.8 26242.3 219699.2 24599.1 L 219699.2 34954.9 L 220204.9 34954.9 Q 221317.7 34917.2 221965.1 34568.8 Q 222613.8 34221.7 222628.1 34022.8 L 222628.1 22628.3 Q 223058.4 23316 223402.9 24072.6 Q 223748.7 24829.2 223878.7 25557.2 Q 224830.3 26216.3 225531 25774.3 Q 226022.4 25471.4 226118.6 24844.8 Q 226214.8 24218.2 225694.8 23485 Q 224999.3 22450.2 222628.1 21696.2 L 222628.1 21429.7 Q 224245.3 19306.8 225263.2 17224.2 Q 225956.1 17183.9 226248.6 16983.7 L 226248.6 28432.8 L 226701 28432.8 Q 227657.8 28400.3 228385.8 28063.6 Q 229112.5 27725.6 229150.2 27473.4 L 229150.2 26408.7 L 231600.7 26408.7 L 231600.7 35088.8 L 232159.7 35088.8 Q 233024.2 35052.4 233753.5 34675.4 Q 234482.8 34299.7 234528.3 34022.8 L 234528.3 26408.7 L 236978.8 26408.7 L 236978.8 28219.6 L 237457.2 28219.6 Q 238251.5 28184.5 239014.6 27859.5 Q 239779 27535.8 239853.1 27340.8 L 239853.1 16823.8 Q 240691.6 16637.9 240972.4 16292.1 L 238096.8 14054.8 Z M 244113.2 14854.3 Q 244186 16299.9 243784.3 17655.8 Q 243382.6 19013 242835.3 19699.4 Q 242405 20110.2 242263.3 20612 Q 242121.6 21112.5 242408.9 21563.6 Q 242809.3 22071.9 243464.5 21966.6 Q 244119.7 21860 244539.6 21271.1 Q 245109 20415.7 245198.7 18760.8 Q 245288.4 17107.2 244539.6 14854.3 L 244113.2 14854.3 Z M 245950.1 10061.2 L 245950.1 35035.5 L 246536.4 35035.5 Q 247416.5 35006.9 248127.6 34709.2 Q 248837.4 34411.5 248879 34182.7 L 248879 11206.5 Q 249387.3 11124.6 249601.8 10933.5 Q 249815 10742.4 249864.4 10461.6 L 245950.1 10061.2 Z M 248879 14455.2 Q 249296.3 15261.2 249608.3 16341.5 Q 249920.3 17423.1 249917.7 18448.8 Q 250748.4 19195 251434.8 18776.4 Q 251891.1 18504.7 252034.1 17892.4 Q 252177.1 17281.4 251807.9 16505.3 Q 251298.3 15358.7 249198.8 14321.3 L 248879 14455.2 Z M 255801.5 28113 L 255801.5 25743.1 L 262191 25743.1 L 262191 28113 L 255801.5 28113 Z M 262191 22707.6 L 262191 24970.9 L 255801.5 24970.9 L 255801.5 22707.6 L 262191 22707.6 Z M 261924.5 21990 L 255934.1 21990 L 252766 20684.8 L 252766 34982.2 L 253218.4 34982.2 Q 254236.3 34948.4 254999.4 34596.1 Q 255762.5 34242.5 255801.5 33970.8 L 255801.5 28885.2 L 262191 28885.2 L 262191 31121.2 Q 262237.8 31633.4 261685.3 31626.9 Q 261303.1 31623 260482.8 31577.5 Q 260172.1 31560.6 259883.5 31543.7 Q 259116.5 31499.5 259048.9 31494.3 L 259048.9 31840.1 Q 259871.8 31998.7 260311.2 32245.7 Q 260749.3 32494 260992.4 32851.5 Q 261465.6 33531.4 261499.4 35008.2 Q 263806.9 34797.6 264534.9 33981.2 Q 264602.5 33911 264662.3 33836.9 Q 265294.1 32968.5 265226.5 31494.3 L 265226.5 23240.6 Q 266052 23007.9 266317.2 22655.6 L 263283 20392.3 L 261924.5 21990 Z M 263336.3 19353.6 L 260247.5 19353.6 L 260247.5 16904.4 L 265838.8 16904.4 Q 266431.6 16910.9 266583.7 16478 Q 265838.8 15818.9 265019.8 15153.3 Q 264870.3 15031.1 264733.8 14920.6 Q 263975.9 14308.3 263921.3 14268 L 262457.5 16132.2 L 260247.5 16132.2 L 260247.5 13949.5 L 266611 13949.5 Q 267202.5 13956 267355.9 13523.1 Q 266587.6 12822.4 265732.2 12123 Q 265541.1 11964.4 265368.2 11822.7 Q 264588.2 11193.5 264533.6 11153.2 L 262963.2 13177.3 L 260247.5 13177.3 L 260247.5 11233.8 Q 260716.8 11153.2 260906.6 10976.4 Q 261096.4 10800.9 261126.3 10540.9 L 257239.3 10195.1 L 257239.3 13177.3 L 251248.9 13177.3 L 251462.1 13949.5 L 257239.3 13949.5 L 257239.3 16132.2 L 252339.6 16132.2 L 252552.8 16904.4 L 257239.3 16904.4 L 257239.3 19353.6 L 250530 19353.6 L 250743.2 20098.5 L 266982.8 20098.5 Q 267562.6 20106.3 267701.7 19673.4 Q 266932.1 18988.3 266085.8 18291.5 Q 265901.2 18138.1 265733.5 18001.6 Q 264961.3 17371.1 264906.7 17330.8 L 263336.3 19353.6 Z M 288708.4 32851.5 L 282451.5 32851.5 L 282451.5 21243.8 L 291424.1 21243.8 Q 292003.9 21250.3 292143 20817.4 Q 291282.4 20058.2 290303.5 19278.2 Q 289947.3 18993.5 289641.8 18753 Q 288790.3 18087.4 288735.7 18048.4 L 286818.2 20498.9 L 282451.5 20498.9 L 282451.5 11579.6 Q 282978 11497.7 283184.7 11306.6 Q 283390.1 11115.5 283436.9 10833.4 L 279016.9 10408.3 L 279016.9 32851.5 L 269113.5 32851.5 L 269326.7 33597.7 L 293367.6 33597.7 Q 293992.9 33604.2 294139.8 33171.3 Q 293253.2 32431.6 292260 31643.8 Q 291883 31342.2 291560.6 31088.7 Q 290706.5 30416.6 290651.9 30376.3 L 288708.4 32851.5 Z M 313442.2 19806 L 313442.2 23161.3 L 304789.4 23161.3 L 304789.4 19806 L 313442.2 19806 Z M 304789.4 27340.8 L 304789.4 23933.5 L 313442.2 23933.5 L 313442.2 27340.8 L 304789.4 27340.8 Z M 315359.7 14481.2 L 307291.9 14481.2 Q 308017.3 13117.5 308543.8 11792.8 Q 309072.9 11788.9 309301.7 11645.9 Q 309531.8 11502.9 309581.2 11259.8 L 305269.1 9955.9 Q 304716.6 12138.6 303724.7 14481.2 L 296057.3 14481.2 L 296269.2 15253.4 L 303404.9 15253.4 Q 302107.5 18123.8 300166.6 20784.9 Q 298225.7 23446 295630.9 25476.6 L 295870.1 25743.1 Q 299178.6 24159.7 301647.3 21856.1 L 301647.3 34982.2 L 302233.6 34982.2 Q 303424.4 34943.2 304100.4 34596.1 Q 304776.4 34247.7 304789.4 34050.1 L 304789.4 28113 L 313442.2 28113 L 313442.2 30908 Q 313502 31454 312883.2 31441 Q 312469.8 31437.1 311518.2 31390.3 Q 310922.8 31360.4 310382 31331.8 Q 309516.2 31285 309448.6 31281.1 L 309448.6 31626.9 Q 310450.9 31805 310993 32072.8 Q 311535.1 32340.6 311818.5 32718.9 Q 312410 33431.3 312484.1 34982.2 Q 314959.3 34757.3 315787.4 33937 Q 315921.3 33813.5 316029.2 33677 Q 316677.9 32768.3 316610.3 31281.1 L 316610.3 20392.3 Q 317542.4 20185.6 317834.9 19780 L 314640.8 17330.8 L 313149.7 19033.8 L 305109.2 19033.8 L 304496.9 18794.6 Q 305841.1 17064.3 306866.8 15253.4 L 319805.7 15253.4 Q 320437.5 15259.9 320550.6 14827 Q 319700.4 14095.1 318737.1 13338.5 Q 318406.9 13077.2 318120.9 12854.9 Q 317278.5 12203.6 317222.6 12164.6 L 315359.7 14481.2 Z M 327925.5 10009.2 Q 327041.5 13901.4 325545.2 17476.4 Q 325452.9 17697.4 325360.6 17914.5 Q 323838.3 21446.6 322122.3 23906.2 L 322414.8 24119.4 Q 324277.7 22768.7 325902.7 20977.3 L 325902.7 35008.2 L 326487.7 35008.2 Q 327465.3 34974.4 328228.4 34645.5 Q 328991.5 34316.6 329070.8 34103.4 L 329070.8 18502.1 Q 329783.2 18348.7 329896.3 17996.4 L 328537.8 17489.4 Q 330116 15014.2 331334.1 11978.7 Q 332245.4 11978.7 332398.8 11419.7 L 327925.5 10009.2 Z M 342622 19646.1 L 340172.8 19646.1 L 340172.8 11658.9 Q 340699.3 11578.3 340902.1 11383.3 Q 341103.6 11187 341130.9 10886.7 L 336870.8 10487.6 L 336870.8 19646.1 L 330481.3 19646.1 L 330694.5 20418.3 L 336870.8 20418.3 L 336870.8 34795 L 337510.4 34795 Q 338480.2 34756 339300.5 34355.6 Q 340120.8 33956.5 340172.8 33677 L 340172.8 20418.3 L 346854.8 20418.3 Q 347447.6 20424.8 347601 19993.2 Q 346783.3 19237.9 345853.8 18455.3 Q 345544.4 18192.7 345274 17967.8 Q 344460.2 17291.8 344405.6 17250.2 L 342622 19646.1 Z M 358436.5 9849.3 Q 357006.5 13744.1 354838.1 17258 Q 354302.5 18134.2 353743.5 18962.3 Q 351480.2 22290.3 349198.7 24518.5 L 349465.2 24757.7 Q 353162.4 22801.2 356256.4 19746.2 Q 359351.7 16691.2 361791.8 12298.5 Q 362756.4 12405.1 362963.1 11872.1 L 358436.5 9849.3 Z M 364879.3 24891.6 Q 365749 25957.6 366613.5 27217.3 Q 367478 28478.3 368207.3 29843.3 Q 364124 30024 360539.9 30139.7 Q 356955.8 30255.4 354470.2 30295.7 Q 356938.9 28540.7 359480.4 26237.1 Q 361088.5 24781.1 362527.6 23287.4 Q 364803.9 20925.3 366184.5 18927.2 Q 366661.6 18998.7 366950.2 18864.8 Q 367237.5 18730.9 367355.8 18502.1 L 362963.1 16185.5 Q 362206.5 18101.7 360692 20524.9 Q 359735.2 22060.2 358626.3 23579.9 Q 357517.4 25100.9 356381.2 26433.4 Q 354587.2 28543.3 353111.7 29657.4 Q 352749 29897.9 352286.2 30029.2 Q 351824.7 30161.8 351780.5 30163.1 L 352979.1 34236 Q 353497.8 34083.9 353937.2 33570.4 Q 358563.9 32744.9 362270.2 31980.5 Q 365977.8 31214.8 368607.7 30589.5 Q 369546.3 32486.2 369964.9 34263.3 Q 371346.8 35227.9 372251.6 34601.3 Q 373156.4 33974.7 373047.2 32364 Q 373032.9 32224.9 373008.2 32079.3 Q 372780.7 30410.1 370956.8 28421.1 Q 369131.6 26432.1 365173.1 24731.7 L 364879.3 24891.6 Z M 395630.8 32665.6 L 380401.3 32665.6 L 380401.3 13150 L 398771.6 13150 Q 399351.4 13156.5 399490.5 12723.6 Q 398753.4 12034.6 397905.8 11313.1 Q 397684.8 11124.6 397487.2 10956.9 Q 396722.8 10316 396669.5 10274.4 L 395125.1 12405.1 L 380748.4 12405.1 L 377260.5 11073.9 L 377260.5 32373.1 Q 376747 32759.2 376435 33145.3 L 379656.4 35008.2 L 380614.5 33410.5 L 399837.6 33410.5 Q 400462.9 33418.3 400609.8 32985.4 Q 399797.3 32235.3 398865.2 31448.8 Q 398538.9 31170.6 398255.5 30935.3 Q 397441.7 30256.7 397388.4 30216.4 L 395630.8 32665.6 Z M 392675.9 14401.9 Q 391596.9 17416.6 390039.5 20151.8 Q 387290 18255.1 382984.4 16398.7 L 382664.6 16611.9 Q 384038.7 17861.2 385557.1 19377 Q 387075.5 20891.5 388548.4 22521.7 Q 386979.3 24807.1 385241.2 26679.1 Q 383501.8 28549.8 381732.5 29896.6 L 381973 30189.1 Q 386572.4 28146.8 390252.7 24465.2 Q 392183.2 26848.1 393394.8 28991.8 Q 394909.3 29800.4 395655.5 29012.6 Q 396011.7 28633 396053.3 27946.6 Q 396094.9 27260.2 395742.6 26330.7 Q 395080.9 24450.9 392382.1 21990 Q 394186.5 19639.6 395630.8 16691.2 Q 396575.9 16804.3 396802.1 16318.1 L 392675.9 14401.9 Z M 412136.9 12830.2 L 412136.9 18528.1 L 406679.5 18528.1 L 406679.5 12830.2 L 412136.9 12830.2 Z M 406679.5 19274.3 L 412136.9 19274.3 L 412136.9 20605.5 L 412616.6 20605.5 Q 413394 20576.9 414197.4 20320.8 Q 414203.9 20318.2 414211.7 20316.9 Q 415011.2 20059.5 415093.1 19912.6 L 415093.1 13309.9 Q 415493.5 13242.3 415765.2 13083.7 Q 416035.6 12925.1 416157.8 12776.9 L 413256.2 10568.2 L 411871.7 12085.3 L 407025.3 12085.3 L 403857.2 10860.7 L 403857.2 20870.7 L 404390.2 20870.7 Q 405458.8 20834.3 406063.3 20482 Q 406669.1 20129.7 406679.5 19912.6 L 406679.5 19274.3 Z M 412136.9 23108 L 409608.4 23108 L 409608.4 23108 Q 409734.5 21869.1 409821.6 20631.5 Q 410692.6 20505.4 410726.4 19939.9 L 406865.4 19592.8 Q 406839.4 21350.4 406732.8 23108 L 402606.6 23108 L 402845.8 23880.2 L 406653.5 23880.2 Q 406415.6 27071.7 405425 29903.1 Q 404434.4 32735.8 402180.2 34769 L 402446.7 35142.1 Q 405704.5 33394.9 407238.5 30826.1 Q 407620.7 30217.7 407926.2 29576.8 Q 409149.5 26875.4 409501.8 23880.2 L 412403.4 23880.2 Q 412227.9 27403.2 411927.6 29294.7 Q 411627.3 31184.9 411152.8 31573.6 Q 410912.3 31833.6 410353.3 31814.1 Q 409933.4 31811.5 409179.4 31763.4 Q 408424.1 31716.6 407824.8 31654.2 L 407797.5 32026 Q 409182 32345.8 409687.7 32985.4 Q 410160.9 33610.7 410114.1 34954.9 Q 411991.3 34969.2 413228.9 34022.8 Q 414174 33306.5 414660.2 31078.3 Q 415146.4 28848.8 415332.3 24358.6 Q 416144.8 24239 416397 23880.2 L 413681.3 21616.9 L 412136.9 23108 Z M 420390.6 13442.5 Q 420919.7 13359.3 421132.9 13156.5 Q 421347.4 12953.7 421376 12671.6 L 417515 12324.5 L 417515 28938.5 L 418048 28938.5 Q 418928.1 28906 419639.2 28605.7 Q 420349 28304.1 420390.6 28113 L 420390.6 13442.5 Z M 422786.5 10461.6 L 422786.5 30988.6 Q 422833.3 31487.8 422201.5 31467 Q 421793.3 31463.1 420824.8 31409.8 Q 420172.2 31374.7 419582 31339.6 Q 418700.6 31286.3 418634.3 31281.1 L 418634.3 31654.2 Q 419674.3 31832.3 420245 32096.2 Q 420815.7 32360.1 421136.8 32718.9 Q 421447.5 33076.4 421589.2 33627.6 Q 421730.9 34178.8 421802.4 34954.9 Q 424267.2 34715.7 425087.5 33890.2 Q 425216.2 33770.6 425318.9 33638 Q 425970.2 32726.7 425902.6 31201.8 L 425902.6 11605.6 Q 426854.2 11453.5 426886.7 10860.7 L 422786.5 10461.6 Z M 432797.8 28672 Q 431837.1 28695.4 431210.5 29318.1 Q 430583.9 29939.5 430561.8 30882 Q 430583.9 31823.2 431210.5 32445.9 Q 431837.1 33068.6 432797.8 33092 Q 433755.9 33068.6 434359.1 32445.9 Q 434962.3 31823.2 434980.5 30882 Q 434962.3 29939.5 434359.1 29318.1 Q 433755.9 28695.4 432797.8 28672  Z M 437111.2 16665.2 Q 437510.3 17303.5 437510.3 18022.4 Q 437542.8 18818 437081.3 19293.8 Q 436618.5 19769.6 435513.5 20205.1 L 433889.8 20791.4 Q 432645.7 21272.4 432115.3 21800.2 Q 431584.9 22326.7 431599.2 23108 Q 431614.8 23729.4 431997 24928 Q 432036 25063.2 432078.9 25211.4 L 432424.7 26302.1 L 433277.5 26302.1 L 433303.5 24998.2 Q 433339.9 24406.7 433659.7 24085.6 Q 433979.5 23764.5 434873.9 23373.2 L 436072.5 22920.8 Q 437455.7 22372.2 438186.3 21384.2 Q 438915.6 20394.9 438920.8 18847.9 Q 438853.2 16887.5 437532.4 15490 Q 436505.4 14382.4 435145.6 13642.7 Q 433406.2 12709.3 431865.7 12377.8 Q 430301.8 12710.6 430295.3 14161.4 Q 430278.4 14845.2 430760.7 15302.8 Q 431243 15761.7 432424.7 15946.3 L 437111.2 16665.2 Z " fill-rule="nonzero" style="fill:#333333;;fill-opacity:1;"/>
</svg>