<svg version="1.1" x="0" y="0" width="100%" height="100%" viewBox="0 0 61030.4 227532.8" xmlns="http://www.w3.org/2000/svg">
  <path d="M 21020.9 44519.5 Q 20747.3 44519.5 20747.3 44401.7 Q 20747.3 44285.8 20981 44090.1 Q 23433.9 42068.5 25611.3 39188.1 Q 27790.6 36309.6 29152.9 33702.8 L 27051.5 34052.4 Q 26739.9 34130.3 26546.1 34130.3 Q 26040.7 34130.3 25495.4 33740.8 L 25028 33313.3 Q 23356 36543.3 23004.5 37320.4 Q 22149.5 39032.3 21292.6 40647.3 Q 20437.6 42262.3 19658.6 43428.9 Q 19269.1 44052.1 18607.9 44052.1 Q 18258.3 44052.1 17906.8 43818.4 Q 17363.4 43506.8 16525.5 42786.7 Q 15689.5 42068.5 15106.2 41445.3 Q 14678.7 40939.9 14678.7 40666.3 Q 14678.7 40316.7 15262 39967.1 Q 16001.1 39615.6 16369.7 39129.2 Q 16740.2 38642.8 16896 37865.7 Q 17401.4 35686.4 17694 32671.1 Q 17984.7 29655.8 17984.7 27592.4 Q 17984.7 27360.6 17946.7 27282.7 Q 17906.8 27204.8 17751 27242.8 Q 17245.6 27360.6 16837.1 27514.5 Q 16428.6 27670.3 15729.4 28021.8 Q 15222.1 28293.5 14716.7 28293.5 Q 14327.2 28293.5 14015.6 28137.7 Q 13550.1 27866 12985.8 27282.7 Q 12421.5 26697.5 12109.9 26152.2 Q 11876.2 25802.6 11876.2 25568.9 Q 11876.2 25101.5 12421.5 25063.5 Q 14289.2 24751.9 16079 24050.8 Q 17868.8 23351.6 18723.8 22728.4 Q 19113.3 22338.9 19620.6 22338.9 Q 19930.3 22338.9 20203.9 22456.7 Q 21604.2 23078 22926.6 24518.2 Q 23471.9 25063.5 23471.9 25453 Q 23471.9 25764.6 23082.4 26230.1 Q 22499.1 27202.9 22265.4 28449.3 Q 22109.6 29304.3 21896.8 31308.8 Q 21682.1 33313.3 21526.3 34947.3 Q 21488.3 35141.1 21585.2 35200 Q 21682.1 35258.9 21798 35141.1 Q 22109.6 34869.4 23278.1 33936.5 Q 24173 33313.3 24640.4 32807.9 Q 23705.6 31561.5 23705.6 31056.1 Q 23705.6 30666.6 24076.1 30491.8 Q 24444.7 30317 24912.1 30394.9 Q 26546.1 30510.8 31993.4 29811.6 L 31993.4 27788.1 Q 31254.3 27866 30125.7 28099.7 Q 29698.2 29032.6 28647.5 29032.6 Q 27868.5 29032.6 26973.6 28137.7 Q 26078.7 27242.8 25962.8 26192.1 Q 25807 25103.4 25613.2 22884.2 Q 25261.7 19578.2 25028 17708.6 Q 24794.3 15840.9 24444.7 14868.1 Q 24366.8 14558.4 24366.8 14440.6 Q 24366.8 13857.3 25223.7 13857.3 Q 26624 13857.3 27382.1 14032.1 Q 28142.1 14206.9 28725.4 14752.2 Q 28763.4 14792.1 28841.3 14830.1 Q 28919.2 14868.1 28959.1 14946 Q 29931.9 14830.1 33823.1 14168.9 L 36080.3 13819.3 Q 37053.1 13663.5 37539.5 13429.8 Q 38025.9 13196.1 38316.6 12981.4 Q 38609.2 12768.6 38803 12650.8 Q 39308.4 12339.2 39815.7 12339.2 Q 40009.5 12339.2 40321.1 12417.1 Q 41216 12650.8 41995 13078.3 Q 42772.1 13507.7 43667 14206.9 Q 44561.9 14946 44561.9 15569.2 Q 44561.9 15802.9 44250.3 16426.1 Q 43978.6 16813.7 43784.8 17436.9 Q 43395.3 18721.3 42812 20978.5 Q 42226.8 23235.7 42150.8 23819 Q 41955.1 24907.7 41839.2 25297.2 Q 42188.8 25920.4 42188.8 26347.9 Q 42188.8 26697.5 41896.2 26931.2 Q 41605.5 27164.9 41216 27164.9 Q 38803 27242.8 36080.3 27398.6 L 36080.3 27866 L 36080.3 29188.4 Q 39232.4 28643.1 41138.1 28137.7 Q 41371.8 28099.7 41818.3 28000.9 Q 42266.7 27904 42538.4 27904 Q 42967.8 27904 43277.5 28099.7 Q 44056.5 28683 44523.9 29228.3 Q 44991.3 29771.7 45378.9 30588.7 Q 45574.6 30978.2 45574.6 31445.6 Q 45574.6 32652.1 43589.1 32652.1 L 42812 32612.2 Q 41060.2 32496.3 40359.1 32496.3 Q 39853.7 32496.3 38453.4 32574.2 Q 38141.8 32574.2 37986 32612.2 Q 40982.3 35998 44018.5 38215.3 Q 45069.2 39032.3 46663.3 39752.4 Q 48259.3 40472.5 49348 40822.1 Q 49815.4 40939.9 49815.4 41133.7 Q 49815.4 41407.3 49232.1 41639.1 Q 46469.5 42845.6 44795.6 43235.1 Q 43667 43546.7 43083.7 43546.7 Q 42344.6 43546.7 41565.6 42885.5 Q 39076.6 40550.4 36080.3 35804.2 L 36118.3 44052.1 Q 36118.3 45336.5 35787.7 46290.3 Q 35457.1 47242.2 34970.7 47768.5 Q 34484.3 48292.9 33978.9 48292.9 Q 33901 48292.9 33667.3 48215 Q 33122 48021.2 32498.8 47204.2 Q 31877.5 46387.2 31526 45296.6 Q 31450 44986.9 31546.9 44479.6 Q 31643.8 43974.2 31643.8 43858.3 Q 31799.6 43157.2 31799.6 42963.4 Q 31955.4 39771.4 31955.4 36930.9 Q 29814.1 39577.6 26720.9 41834.8 Q 23627.7 44090.1 21176.7 44519.5 L 21020.9 44519.5 Z M 17441.3 14013.1 Q 17401.4 13935.2 17401.4 13779.4 Q 17401.4 13545.7 17576.2 13351.9 Q 17752.9 13156.2 18062.6 13196.1 Q 23977.3 13663.5 23977.3 16969.5 Q 23977.3 18176 23394 18955 Q 22810.7 19732.1 21798 20239.4 Q 21566.2 20355.3 21292.6 20355.3 Q 20631.4 20355.3 20359.7 19849.9 Q 19542.7 18721.3 18860.6 17321 Q 18180.4 15918.8 17441.3 14013.1  Z M 29464.5 17436.9 Q 29464.5 18527.5 29580.4 20043.7 Q 30047.8 20005.7 31877.5 19772 Q 31681.8 18487.6 31372.1 17592.7 L 30904.7 17670.6 Q 30359.4 17748.5 30243.5 17748.5 Q 29776.1 17748.5 29464.5 17436.9  Z M 29736.2 21951.3 Q 29892 23896.9 30047.8 24674 L 31955.4 24402.3 L 31955.4 22612.5 L 31410.1 22728.4 Q 30982.6 22806.3 30574.1 22612.5 Q 30165.6 22416.8 29892 22107.1 Q 29892 22107.1 29736.2 21951.3  Z M 34911.8 17047.4 Q 36274.1 17436.9 36158.2 18371.7 L 36118.3 18915.1 L 36314 18837.2 Q 36545.8 18721.3 36897.3 18721.3 Q 37402.7 18721.3 37674.4 18993 Q 38335.6 19732.1 38569.3 20121.6 Q 38803 18060.1 38803 16931.5 Q 38803 16737.7 38647.2 16678.8 Q 38491.4 16619.9 38025.9 16619.9 Q 37636.4 16619.9 34911.8 17047.4  Z M 38141.8 23779.1 Q 38375.5 22262.9 38375.5 21951.3 Q 38181.7 22107.1 37674.4 22107.1 L 35924.5 22107.1 L 35846.6 23972.9 L 38141.8 23779.1 Z M 19892.3 106213.3 Q 19037.3 106407.1 18161.4 105668 Q 17285.5 104928.9 16780.1 104034 Q 16352.6 103372.8 16352.6 103061.2 Q 16352.6 102865.5 16546.4 102768.6 Q 16740.2 102671.7 17207.6 102631.8 Q 20243.8 102553.9 28026.2 102048.5 Q 28102.2 100182.7 28102.2 98936.3 Q 26390.3 99170 25729.1 99325.8 Q 25029.9 99521.5 24522.6 99521.5 Q 23511.8 99521.5 22810.7 98704.5 Q 22305.3 98159.2 21915.8 97536 Q 21526.3 96914.7 21526.3 96525.2 Q 21526.3 96057.8 22111.5 96017.9 Q 25223.7 95864 28180.1 95512.5 Q 28180.1 93061.5 27948.3 92594.1 L 27948.3 92516.2 L 27908.4 92556.1 Q 27986.3 93099.5 27422 93392.1 Q 26857.7 93682.8 26080.6 93682.8 Q 25807 93682.8 25495.4 93604.9 Q 24640.4 93411.1 24250.9 92827.8 Q 23861.4 92244.5 23627.7 90764.4 Q 23627.7 90103.2 23278.1 87866.9 Q 22928.5 85628.7 22694.8 85083.4 Q 22616.9 84927.6 22616.9 84811.7 Q 22616.9 84617.9 22751.8 84462.1 Q 22888.6 84306.3 23122.3 84306.3 Q 23705.6 84266.4 24503.6 84422.2 Q 25301.6 84578 25962.8 84849.7 Q 27558.8 84655.9 29738.1 84325.3 Q 31917.4 83994.7 32578.6 83800.9 Q 33745.2 83099.8 34094.8 82982 Q 34406.4 82866.1 34680 82866.1 Q 34989.7 82866.1 35263.3 82982 Q 35962.5 83255.6 36916.3 83916.8 Q 37870.1 84578 38337.5 85123.3 Q 38493.3 85317.1 38415.4 85609.7 Q 38337.5 85900.4 38162.7 86270.9 Q 37986 86641.4 37908.1 86913.1 Q 37676.3 87574.3 36857.4 90454.7 Q 36547.7 91777.1 35846.6 92497.2 Q 35145.5 93217.3 34172.7 93217.3 Q 33433.6 93217.3 32578.6 91893 Q 32578.6 91893 32557.7 91874 Q 32538.7 91855 32538.7 91855 Q 31565.9 91932.9 30593.1 92088.7 Q 32071.3 92360.4 32538.7 92710 Q 33161.9 93217.3 33006.1 94034.3 Q 33006.1 94034.3 32928.2 94811.4 Q 33823.1 94657.5 35612.9 94228.1 Q 36314 94072.3 36547.7 94072.3 Q 37053.1 94072.3 37558.5 94306 Q 37986 94539.7 38472.4 95396.6 Q 38958.8 96251.6 39076.6 96912.8 Q 39114.6 97068.6 39114.6 97302.3 Q 39114.6 97847.6 38628.2 98022.4 Q 38141.8 98197.2 36935.3 98275.1 Q 35497 98237.1 32812.3 98430.9 L 32812.3 101698.9 Q 39426.2 101153.6 41333.8 100648.2 Q 41721.4 100570.3 41955.1 100570.3 Q 42889.9 100570.3 43551.1 101115.6 Q 44134.4 101621 44485.9 101970.6 Q 44835.5 102322.1 45225 102983.3 Q 45496.7 103604.6 45496.7 103994.1 Q 45496.7 104461.5 45147.1 104655.3 Q 44679.7 105122.7 43940.6 105122.7 Q 43784.8 105122.7 43161.6 105044.8 Q 42072.9 104928.9 39699.8 104928.9 Q 34951.7 104928.9 28356.8 105337.4 Q 21760 105745.9 19892.3 106213.3  Z M 16079 85083.4 Q 17013.8 83449.4 17656 82049.1 Q 18298.2 80648.8 18298.2 79442.3 Q 18298.2 79052.8 18258.3 78897 L 18258.3 78781.1 Q 18258.3 78429.6 18725.7 78429.6 L 19193.1 78507.5 Q 20126 78663.3 20982.9 79286.5 Q 21060.8 79364.4 21370.5 79617.1 Q 21682.1 79869.8 21799.9 80141.5 Q 25301.6 79947.7 28142.1 79636.1 Q 28180.1 77107.2 27908.4 74091.9 Q 27636.7 71076.6 27247.2 70103.8 Q 27169.3 69948 27169.3 69870.1 Q 27169.3 69480.6 27830.5 69402.7 Q 29075 69324.8 30555.1 69752.3 Q 32033.3 70181.7 32422.8 70803 Q 32656.5 71076.6 32753.4 71367.3 Q 32850.3 71659.9 32772.4 72127.3 Q 32694.5 72514.9 32578.6 74148.9 Q 32460.8 75784.8 32500.7 78235.8 Q 33667.3 76523.9 34581.2 74597.3 Q 35497 72670.7 35535 71192.5 Q 35574.9 70765 35865.6 70569.3 Q 36158.2 70375.5 36547.7 70453.4 Q 39544 70998.7 40594.7 72437 Q 40710.6 72592.8 40710.6 72826.5 Q 40710.6 73371.8 40146.3 74033 Q 39582 74694.2 38687.1 75511.2 Q 36080.3 77846.3 34524.2 78936.9 Q 36391.9 78741.2 40049.4 78195.9 Q 40361 78157.9 41003.2 77964.1 Q 41645.4 77768.4 42150.8 77768.4 Q 42618.2 77768.4 42927.9 77924.2 Q 43744.9 78351.7 44679.7 79090.8 Q 45612.6 79831.8 46197.8 80453.1 Q 46547.4 80804.6 46819.1 81291 Q 47092.7 81777.4 47092.7 82242.9 Q 47092.7 83059.9 46002.1 83333.5 Q 45458.7 83489.3 44290.2 83723 Q 43978.6 83800.9 42559.3 84150.5 Q 41138.1 84500.1 39621.9 85083.4 Q 39310.3 85161.3 39232.4 85161.3 Q 38958.8 85161.3 38861.9 85005.5 Q 38765 84849.7 38920.8 84695.8 Q 39154.5 84384.2 39504.1 83742 Q 39853.7 83099.8 40049.4 82788.2 L 40710.6 81543.7 L 40748.6 81465.8 Q 40748.6 81387.9 40651.7 81329 Q 40554.8 81270.1 40476.9 81270.1 L 35924.5 81777.4 Q 25962.8 82828.1 22732.8 83215.7 Q 22499.1 83255.6 22033.6 83255.6 Q 21682.1 83255.6 21526.3 83215.7 Q 21176.7 85083.4 20671.3 86367.8 Q 20319.8 87029 19951.2 87302.6 Q 19580.7 87574.3 18997.4 87458.4 Q 18452.1 87340.6 17519.2 86894.1 Q 16584.4 86445.7 16234.8 86018.2 Q 15963.1 85590.7 15963.1 85472.9 Q 15963.1 85317.1 16079 85083.4  Z M 20865.1 74460.5 Q 20827.1 74382.6 20787.2 74304.7 Q 20749.2 74226.8 20749.2 74150.8 Q 20749.2 73877.2 21370.5 73721.4 Q 21915.8 73643.5 22265.4 73643.5 Q 23939.3 73643.5 25223.7 74460.5 Q 26080.6 74967.8 26527.1 75686 Q 26975.5 76406.1 26975.5 77185.1 Q 26975.5 77924.2 26586 78566.4 Q 26196.5 79208.6 25535.3 79520.2 Q 25417.5 79598.1 25145.8 79598.1 Q 24756.3 79598.1 24309.8 79324.5 Q 23861.4 79052.8 23627.7 78625.3 Q 23238.2 77924.2 21837.9 75862.7 Q 20827.1 74422.5 20865.1 74460.5  Z M 27247.2 87536.3 Q 27441 88936.6 27558.8 89947.4 Q 29854 89442 32422.8 89092.4 Q 32656.5 88001.8 32694.5 86795.3 Q 32694.5 86679.4 32305 86679.4 L 27247.2 87536.3 Z M 30437.3 164171.7 Q 29814.1 164483.3 29268.8 164483.3 Q 27752.6 164483.3 26973.6 162421.8 Q 26506.2 161175.4 25670.2 160124.7 Q 24834.2 159074 23861.4 158374.8 Q 23471.9 158023.3 23471.9 157829.5 Q 23471.9 157517.9 23899.4 157595.8 Q 24133.1 157595.8 24716.4 157711.7 Q 26662 157985.3 27479 158023.3 L 27674.7 158023.3 Q 27868.5 158023.3 28005.3 157888.4 Q 28140.2 157751.6 28218.1 157284.2 Q 28569.6 155844 28569.6 146427.6 Q 28569.6 140435 28413.8 135377.2 Q 28335.9 134248.6 28239 133315.7 Q 28140.2 132380.9 27908.4 131641.8 Q 27790.6 131214.3 27790.6 130940.7 Q 27790.6 130007.8 28763.4 130007.8 Q 29658.3 130007.8 31273.3 130805.8 Q 32888.3 131601.9 34016.9 132730.5 Q 34366.5 133042.1 34366.5 133431.6 Q 34366.5 133587.4 34210.7 134288.5 Q 33939 135183.4 33899.1 135844.6 Q 33861.1 137051.1 33861.1 140980.3 L 33899.1 151057.9 Q 33939 153744.5 33939 157867.5 Q 33783.2 160476.2 33063.1 161817.6 Q 32343 163160.9 30437.3 164171.7  Z M 15144.2 152731.8 Q 14950.4 152186.5 14950.4 151409.4 Q 14950.4 150474.6 15358.9 149520.8 Q 15767.4 148568.9 16584.4 147789.9 Q 18062.6 146427.6 19075.3 145202.1 Q 20086.1 143976.6 21020.9 141993 Q 21176.7 141719.4 21467.4 141525.6 Q 21760 141329.9 22071.6 141329.9 Q 22654.9 141329.9 22810.7 141953.1 Q 23044.4 143043.7 23044.4 145105.2 Q 23044.4 146623.3 22848.7 148061.6 Q 22459.2 151057.9 21252.7 152868.6 Q 20048.1 154677.4 18568 155260.7 Q 18218.4 155378.5 17828.9 155378.5 Q 16973.9 155378.5 16234.8 154696.4 Q 15493.8 154016.2 15144.2 152731.8  Z M 35844.7 142342.6 Q 35612.9 142031 35612.9 141875.2 Q 35612.9 141563.6 36274.1 141563.6 Q 36545.8 141563.6 37013.2 141641.5 Q 39270.4 142108.9 41235 143353.4 Q 43199.6 144599.8 44561.9 146000.1 Q 45924.2 147400.4 46585.4 148529 Q 47286.5 149813.4 47286.5 150980 Q 47286.5 152264.4 46429.6 153199.2 Q 45572.7 154132.1 44056.5 154443.7 Q 43744.9 154521.6 43589.1 154521.6 Q 42732.2 154521.6 41955.1 153801.5 Q 41176.1 153081.4 40864.5 152030.7 Q 39775.8 149152.2 38335.6 146370.6 Q 36895.4 143587.1 35844.7 142342.6  Z M 15807.3 211195.6 Q 15495.7 210923.9 15243 210418.5 Q 14990.3 209911.2 14834.5 209502.7 Q 14678.7 209094.2 14560.9 208822.5 Q 14483 208510.9 14581.8 208180.3 Q 14678.7 207849.7 15300 207382.3 Q 17013.8 206215.7 19075.3 203531 Q 17752.9 203918.6 17013.8 204192.2 Q 16506.5 204386 16234.8 204386 Q 15963.1 204386 15573.6 204114.3 Q 14716.7 203491.1 13821.8 201779.2 Q 13705.9 201429.6 13705.9 201311.8 Q 13705.9 201040.1 13899.7 200884.3 Q 15845.3 198433.3 16935.9 196409.8 Q 18024.6 194386.3 18803.6 192169 Q 19542.7 190067.6 19542.7 188082.1 Q 19542.7 187694.5 20048.1 187694.5 Q 20475.6 187694.5 21058.9 187966.2 Q 21837.9 188355.7 22850.6 189094.8 Q 23861.4 189833.9 24095.1 190223.4 Q 24406.7 190573 24406.7 191040.4 Q 24406.7 191585.7 23627.7 192712.4 Q 22926.6 193647.2 21644.1 195708.7 Q 20359.7 197772.1 19075.3 200029.3 Q 20008.2 199951.4 20515.5 199873.5 L 21682.1 199755.7 L 22305.3 198705 Q 23004.5 197538.4 23433.9 196624.5 Q 23861.4 195708.7 24211 194542.1 Q 24288.9 194230.5 24600.5 194230.5 Q 24950.1 194230.5 25651.2 194697.9 Q 26390.3 195243.2 27013.5 195885.4 Q 27636.7 196525.7 27946.4 197071 Q 28102.2 197382.6 28102.2 197538.4 Q 30009.8 197422.5 33044.1 197110.9 Q 33044.1 193685.2 32888.3 190766.8 Q 32888.3 190261.4 32713.5 189541.3 Q 32538.7 188821.2 32267 188511.5 Q 32071.3 188237.9 32071.3 188004.2 Q 32071.3 187694.5 32344.9 187439.9 Q 32616.6 187187.2 32966.2 187187.2 Q 34134.7 187227.1 35398.2 187694.5 Q 36663.6 188160 37539.5 188764.2 Q 38415.4 189366.5 38453.4 189756 Q 38453.4 190223.4 38259.6 190884.6 Q 37986 191857.4 37870.1 192868.2 Q 37870.1 192908.1 37792.2 194735.9 L 37714.3 196525.7 Q 41409.8 195904.4 43433.3 195281.2 Q 43589.1 195243.2 43919.7 195125.4 Q 44252.2 195009.5 44484 195009.5 Q 44717.7 195009.5 44951.4 195125.4 Q 46273.8 196098.2 47014.8 197616.3 Q 47286.5 198199.6 47286.5 198627.1 Q 47286.5 199484 45964.1 199484 Q 45496.7 199484 45225 199444.1 Q 44795.6 199406.1 43822.8 199406.1 Q 41371.8 199406.1 37596.5 199795.6 L 37518.6 203531 Q 39232.4 203141.5 40592.8 202714 Q 40710.6 202674.1 41001.3 202596.2 Q 41293.9 202518.3 41487.7 202518.3 Q 41799.3 202518.3 41995 202714 Q 43161.6 203724.8 43667 205320.8 Q 43784.8 205708.4 43784.8 206020 Q 43784.8 207070.7 42033 206914.9 Q 41178 206837 40632.7 206837 Q 37364.7 206837 30748.9 208199.3 L 30515.2 208239.2 Q 29931.9 208239.2 29464.5 207731.9 Q 29075 207382.3 28784.3 206954.8 Q 28491.7 206525.4 28102.2 205592.5 Q 28024.3 205476.6 28024.3 205203 Q 28024.3 204931.3 28180.1 204735.6 Q 28335.9 204541.8 28531.6 204541.8 Q 30748.9 204541.8 32966.2 204270.1 Q 33044.1 201623.4 33044.1 200378.9 Q 31098.5 200690.5 29854 200962.2 Q 29736.2 201002.1 29504.4 201002.1 Q 28803.3 201002.1 28375.8 200612.6 Q 27674.7 200107.2 27207.3 199406.1 Q 26857.7 199677.8 26156.6 200456.8 Q 25457.4 201233.9 24950.1 201741.2 Q 21837.9 205087.1 20241.9 206487.4 Q 22499.1 206097.9 25962.8 205280.9 Q 26701.9 205125.1 27129.4 205125.1 Q 27441 205125.1 27441 205242.9 Q 27441 205398.7 26741.8 205826.2 Q 25183.8 206721.1 21993.7 208626.8 Q 18803.6 210534.4 18336.2 210961.9 Q 17401.4 211740.9 16858 211740.9 Q 16312.7 211740.9 15807.3 211195.6  Z M 13472.2 215943.7 Q 13354.4 215632.1 13354.4 215358.5 Q 13354.4 214931 13569.1 214640.3 Q 13783.8 214347.7 14211.3 214347.7 Q 15495.7 214347.7 16702.2 213920.2 Q 19892.3 212829.6 21953.8 212052.5 Q 24017.2 211273.5 26078.7 210300.7 Q 26274.4 210184.8 26430.2 210184.8 Q 26586 210184.8 26624 210281.7 Q 26663.9 210378.6 26508.1 210534.4 Q 23823.4 213608.6 21741 215592.2 Q 19658.6 217577.7 16740.2 219872.9 Q 16350.7 220222.5 15923.2 220222.5 Q 15417.8 220222.5 15068.2 219717.1 Q 14638.8 219289.6 14095.4 217752.5 Q 13550.1 216215.4 13472.2 215943.7  Z M 27441 209989.1 Q 27403 209911.2 27403 209755.4 Q 27403 209367.8 27830.5 209367.8 Q 29230.8 209367.8 30300.5 209561.6 Q 31372.1 209755.4 31877.5 210067 Q 32111.2 210262.7 32227.1 210456.5 Q 35029.6 210144.9 37596.5 209483.7 Q 38219.7 209327.9 38628.2 209113.2 Q 39036.7 208900.4 39504.1 208588.8 Q 39893.6 208395 40087.4 208395 Q 40127.3 208395 40670.7 208472.9 Q 41409.8 208744.6 42538.4 209367.8 Q 43667 209989.1 44290.2 210494.5 Q 44717.7 210846 44717.7 211663 Q 44717.7 212168.4 44484 212518 Q 44328.2 212907.5 44037.5 213842.3 Q 43744.9 214775.2 43667 215048.8 Q 43083.7 217188.2 42616.3 219950.8 Q 42422.5 221001.5 42072.9 221468.9 Q 41721.4 221936.3 40982.3 222208 Q 40748.6 222285.9 40592.8 222285.9 Q 40087.4 222285.9 39485.1 221974.3 Q 38880.9 221662.7 38297.6 221001.5 Q 38025.9 220689.9 36935.3 220106.6 Q 34406.4 220222.5 32382.9 220574 Q 32267 221584.8 31702.7 222208 Q 31138.4 222831.2 30359.4 222831.2 Q 29931.9 222831.2 29386.6 222422.7 Q 28841.3 222014.2 28491.7 221372 Q 28142.1 220729.8 28220 220068.6 Q 28335.9 219367.5 28335.9 218083.1 Q 28335.9 215981.7 28064.2 213490.8 Q 27790.6 211001.8 27441 209989.1  Z M 32189.1 213608.6 Q 32189.1 214347.7 32267 216059.6 L 32305 217344 Q 33395.6 217150.2 35164.5 216954.5 Q 36935.3 216760.7 38297.6 216720.8 Q 38647.2 215048.8 38687.1 213181.1 Q 38687.1 212907.5 38590.2 212810.6 Q 38491.4 212713.7 38219.7 212751.7 L 36741.5 212947.4 Q 33861.1 213297 32189.1 213608.6  Z " fill-rule="nonzero" style="fill:#333333;;fill-opacity:1;"/>
</svg>