<svg version="1.1" x="0" y="0" width="100%" height="100%" viewBox="0 0 204800 86272" xmlns="http://www.w3.org/2000/svg">
  <path d="M 15567.1 14049 L 15567.1 12357.8 L 10119 12357.8 L 10119 10407.6 L 14463.2 10407.6 L 14463.2 8716.4 L 10119 8716.4 L 10119 6508.6 L 8313 6508.6 L 8313 8716.4 L 6578.4 8716.4 Q 6886.4 7988.4 7108.3 7239.4 L 5359.7 6838.3 Q 4998.5 8139.6 4384.6 9320.5 Q 3770.7 10500.7 2979.7 11296.6 Q 3328.3 11446.4 3811.3 11687.2 Q 4294.3 11928.7 4599.5 12142.9 Q 5209.2 11414.9 5775.5 10407.6 L 8313 10407.6 L 8313 12357.8 L 2879.6 12357.8 L 2879.6 14049 L 7223.1 14049 Q 6278.8 15171.8 5023 16118.9 Q 3766.5 17066.7 2435.1 17661.7 Q 2759.9 17959.2 3114.1 18386.2 Q 3468.3 18812.5 3696.5 19152.7 Q 4964.9 18475.8 6150 17453.8 Q 7335.1 16432.5 8313 15196.3 L 8313 19884.2 L 10119 19884.2 L 10119 15181.6 Q 11129.8 16396.8 12355.5 17396.4 Q 13581.2 18396.7 14893 19052.6 Q 15121.9 18690 15482.4 18255.3 Q 15843.6 17819.9 16169.1 17532.9 Q 14805.5 16960.3 13525.9 16048.9 Q 12245.6 15138.2 11280.3 14049 L 15567.1 14049 Z M 25831.2 13103.3 L 21387.6 13103.3 L 21387.6 12400.5 L 25831.2 12400.5 L 25831.2 13103.3 Z M 21387.6 16429 L 25831.2 16429 L 25831.2 17088.4 Q 23512.8 17174.5 21387.6 17217.2 L 21387.6 16429 Z M 25831.2 15138.9 L 21387.6 15138.9 L 21387.6 14407.4 L 25831.2 14407.4 L 25831.2 15138.9 Z M 24985.6 9275.7 Q 25906.8 10203.9 27107.3 10938.2 L 20441.2 10938.2 Q 21663.4 10192.7 22519.5 9275.7 L 24985.6 9275.7 Z M 28397.4 12400.5 L 28397.4 11626.3 Q 28533.9 11677.4 28669.7 11729.9 Q 28942.7 11838.4 29215 11927.3 Q 29407.5 11629.8 29702.2 11248.3 Q 29996.9 10866.8 30275.5 10623.2 Q 29473.3 10405.5 28678.8 10061.8 Q 27884.3 9718.8 27178.7 9275.7 L 29716.2 9275.7 L 29716.2 7756 L 23652.1 7756 Q 23935.6 7282.8 24154 6809.6 L 22275.9 6493.9 Q 22003.6 7146.3 21559.1 7756 L 17387.8 7756 L 17387.8 9275.7 L 19925.3 9275.7 Q 18713.6 10114.3 16813.8 10694.6 Q 17106.4 10940.3 17398.3 11357.5 Q 17690.2 11775.4 17831.6 12128.2 Q 18326.5 11959.5 18778 11769.8 L 18778 12400.5 L 19623.6 12400.5 L 19623.6 17260.6 L 17660.1 17303.3 L 17731.5 18866.4 Q 19059.4 18830 20729.6 18776.1 Q 22400.5 18722.2 24261.8 18659.9 Q 25039.5 18634 25831.2 18608.1 L 25831.2 19869.5 L 27609.2 19869.5 L 27609.2 18536.7 L 29501.3 18464.6 L 29587.4 16973.6 L 27609.2 17045.7 L 27609.2 12400.5 L 28397.4 12400.5 Z M 40224.6 13189.4 Q 40256.1 15490.3 41056.2 17210.2 Q 41856.3 18930.8 43049.1 20070.4 L 44410.6 19468.4 Q 43309.5 18317.6 42589.9 16780.4 Q 41871 15242.5 41844.4 13189.4 Q 41871 11135.6 42589.9 9597.7 Q 43309.5 8060.5 44410.6 6909.7 L 43049.1 6307.7 Q 41856.3 7447.3 41056.2 9167.9 Q 40256.1 10888.5 40224.6 13189.4  Z M 49041.1 7813.4 Q 48948.7 9874.2 48600.1 11989.6 Q 48296.3 13799.1 47641.1 15397.9 Q 46883 17266.2 45428.4 18508 Q 45725.9 18762.8 46089.9 19154.8 Q 46453.9 19546.8 46675.8 19855.5 Q 48280.2 18440.1 49157.3 16382.1 Q 49926.6 14592.9 50316.5 12572 Q 50759.6 10247.3 50933.9 7956.2 L 49041.1 7813.4 Z M 54991.1 7469 L 53285.2 7612.5 Q 53293.6 7714.7 53306.2 7907.9 Q 53337.7 8593.9 53509.9 10057.6 Q 53673.7 11435.9 54092.3 13152.3 Q 54510.9 14868.7 55309.6 16577.4 Q 56154.5 18391.1 57571.3 19798.1 Q 58119.4 19095.3 59076.3 18565.4 Q 57676.3 17238.9 56855.9 15528.8 Q 56060.7 13874.7 55667.3 12238.1 Q 55273.2 10601.5 55141.6 9352 Q 55005.1 8059.8 54996.7 7582.4 Q 54993.2 7513.1 54991.1 7469  Z M 72925.1 12099.5 L 72925.1 10336.2 L 67290.8 10336.2 Q 67393.7 9345.7 67424.5 8388.8 Q 67456 7431.9 67462.3 6555.5 Q 67463 6531.7 67463 6508.6 L 65599.6 6508.6 Q 65596.1 6788.6 65594 7078.4 Q 65609.4 8623.3 65456.1 10336.2 L 60237.6 10336.2 L 60237.6 12099.5 L 65169.1 12099.5 Q 64803.7 13862.8 63728.5 15439.2 Q 63592 15631 63442.2 15817.9 Q 62255 17353 59965.3 18407.2 Q 60348.9 18688.6 60689.1 19088.3 Q 61030 19488 61241.4 19855.5 Q 63498.2 18739.7 64771.5 17158.4 Q 66044.8 15577.1 66602.7 13762.7 Q 67429.4 15843.8 68737 17382.4 Q 70045.3 18921 71978.7 19840.8 Q 72196.4 19454.4 72550.6 18989.6 Q 72904.8 18525.5 73240.8 18235.7 Q 71234.6 17399.2 69909.5 15807.4 Q 68583.7 14215.6 67878.8 12099.5 L 72925.1 12099.5 Z M 84967.2 9519.3 L 84967.2 17088.4 L 81785 17088.4 L 81785 6594.7 L 79993 6594.7 L 79993 17088.4 L 76853.5 17088.4 L 76853.5 9576.7 L 75104.2 9576.7 L 75104.2 18837.7 L 84967.2 18837.7 L 84967.2 19855.5 L 86759.2 19855.5 L 86759.2 9519.3 L 84967.2 9519.3 Z M 94114.1 6508.6 Q 94109.2 6724.2 94105.7 6979.7 Q 94114.8 8068.2 93970.6 9641.8 Q 93835.5 11068.4 93346.2 12637.8 Q 92856.9 14207.2 91796.4 15672.3 Q 90635.1 17287.9 88508.5 18464.6 Q 88945.3 18762.8 89320.5 19133.1 Q 89695 19503.4 89927.4 19855.5 Q 92124 18525.5 93368.6 16739.8 Q 93388.2 16712.5 93407.8 16684.5 Q 94639.8 14893.9 95203.3 12988.5 Q 95724.8 14617.4 96772 16237.2 Q 97108 16740.5 97509.8 17217.2 Q 98764.2 18753 100808.9 19769.4 Q 100987.4 19396.3 101319.2 19004.3 Q 101651.7 18612.3 102055.6 18292.4 Q 100057.1 17371.2 98851 15950.9 Q 97808.7 14735 97215.8 13416.9 Q 96622.9 12098.8 96352 10926.3 Q 96041.9 9557.1 95977.5 8745.1 Q 96060.1 7433.3 96077.6 6508.6 L 94114.1 6508.6 Z M 107231.4 13189.4 Q 107199.9 10888.5 106399.8 9167.9 Q 105599.7 7447.3 104406.9 6307.7 L 103045.4 6909.7 Q 104146.5 8060.5 104866.1 9597.7 Q 105585 11135.6 105611.6 13189.4 Q 105585 15242.5 104866.1 16780.4 Q 104146.5 18317.6 103045.4 19468.4 L 104406.9 20070.4 Q 105599.7 18930.8 106399.8 17210.2 Q 107199.9 15490.3 107231.4 13189.4  Z M 121395.2 22694 L 122771.4 22694 L 122771.4 6437.2 L 121395.2 6437.2 L 121395.2 22694 Z M 136116 11210.5 Q 135787.7 10509.8 135206 9626.4 Q 134624.3 8743 133994.3 7956.2 L 132532 8773.8 Q 133143.1 9566.9 133711.5 10502.8 Q 134279.2 11438.7 134567.6 12156.9 L 136116 11210.5 Z M 131328 15453.9 L 131328 7469 L 129464.6 7469 L 129464.6 15698.2 Q 129435.9 16274.3 129084.5 16703.4 Q 128733.1 17131.8 128403.4 17332 Q 128644.2 17578.4 128922.8 17980.9 Q 129202.1 18383.4 129335.1 18694.2 Q 129517.1 18504.5 129977.7 18202.8 Q 130404 17923.5 131372.8 17385.9 Q 132426.3 16801.4 134496.2 15712.2 Q 134382.8 15404.2 134252.6 14943.6 Q 134122.4 14482.3 134051.7 14077.7 L 131328 15453.9 Z M 141405.9 18694.2 Q 140897 17944.5 140057 17026.1 Q 139217 16107 138352.5 15239 Q 139021.7 13683.6 139363.3 11678.8 Q 139704.9 9674 139814.8 7182 L 137994.1 7096.6 Q 137898.2 10551.1 137252.8 12972.4 Q 136839.8 14476.7 136084.5 15619.1 Q 134888.2 17458.7 132460.6 18450.6 Q 132784 18745.3 133177.4 19196.1 Q 133570.8 19646.9 133765.4 19941.6 Q 136188.1 18758.6 137492.2 16802.1 Q 138226.5 17600.8 138868.4 18400.2 Q 139511 19199.6 139900.9 19826.8 L 141405.9 18694.2 Z M 153247.8 17604.3 L 144588.8 17604.3 L 144588.8 11039 L 142825.5 11039 L 142825.5 19210.1 L 153247.8 19210.1 L 153247.8 19855.5 L 154968.4 19855.5 L 154968.4 10966.9 L 153247.8 10966.9 L 153247.8 17604.3 Z M 150825.1 12687.5 L 149577.7 12687.5 L 149577.7 11482.8 L 150825.1 11482.8 L 150825.1 12687.5 Z M 150825.1 15210.3 L 149577.7 15210.3 L 149577.7 13977.6 L 150825.1 13977.6 L 150825.1 15210.3 Z M 146868 13977.6 L 148115.4 13977.6 L 148115.4 15210.3 L 146868 15210.3 L 146868 13977.6 Z M 146868 11482.8 L 148115.4 11482.8 L 148115.4 12687.5 L 146868 12687.5 L 146868 11482.8 Z M 145477.8 10092.6 L 145477.8 16601.2 L 152301.4 16601.2 L 152301.4 10092.6 L 145477.8 10092.6 Z M 142653.3 7354.2 L 142653.3 8931.3 L 155154.6 8931.3 L 155154.6 7354.2 L 142653.3 7354.2 Z M 161075.2 12902.4 Q 161204 12322.1 161333.5 11698.4 L 167526.4 11698.4 L 167526.4 10236.1 L 161619.8 10236.1 L 161849.4 9074.8 L 160128.8 8917.3 Q 159921.6 10187.1 159633.2 11589.9 Q 159593.3 11784.5 159552.7 11977.7 Q 159260.1 13363.7 158982.2 14393.4 L 166351.1 14393.4 Q 166190.8 16091.6 165980.1 16977.1 Q 165768.7 17863.3 165490.8 18077.5 Q 165250.7 18271.4 164816.7 18249.7 Q 164488.4 18251.1 163863.3 18233.6 Q 163238.9 18216.1 162522.8 18163.6 Q 162753.1 18499.6 162905 18937.8 Q 163056.9 19376 163082.1 19754.7 Q 163793.3 19778.5 164421.2 19779.9 Q 165048.4 19782 165447.4 19740.7 Q 165915 19714.8 166266.4 19584.6 Q 166618.5 19454.4 166924.4 19138.7 Q 167336.7 18732 167618.1 17453.8 Q 167898.8 16176.3 168128.4 13619.2 Q 168150.8 13423.9 168167.6 13174.7 Q 168185.1 12925.5 168185.8 12902.4 L 161075.2 12902.4 Z M 165261.2 15368.5 L 157319 15368.5 L 157319 16944.9 L 165261.2 16944.9 L 165261.2 15368.5 Z M 157032.7 7154 L 157032.7 10379.6 L 158723.9 10379.6 L 158723.9 8730.4 L 167655.2 8730.4 L 167655.2 10379.6 L 169433.2 10379.6 L 169433.2 7154 L 157032.7 7154 Z M 175124.2 7884.8 Q 176034.9 8501.5 177014.2 9263.8 Q 177272.5 9465.4 177518.9 9667 Q 178454.1 10426.5 178995.2 11024.3 L 180256.6 9690.8 Q 179656 9086 178687.9 8369.2 Q 178434.5 8180.2 178172.7 7992.6 Q 177170.3 7281.4 176285.5 6723.5 L 175124.2 7884.8 Z M 180944.7 11612.3 Q 181473.2 12805.1 181923.3 14168.7 Q 181998.2 14395.5 182068.2 14620.9 Q 182489.6 15972.6 182650.6 17017 L 184385.2 16300.2 Q 184149.3 15164.1 183654.4 13734.7 Q 183648.8 13719.3 183643.9 13703.9 Q 183146.9 12273.8 182536.5 10966.9 L 180944.7 11612.3 Z M 172056.8 11426.1 Q 171912.6 12882.8 171622.8 14359.1 Q 171333.7 15835.4 170952.9 17002.3 L 172672.8 17690.4 Q 173010.2 16535.4 173261.5 15052.1 Q 173304.2 14802.2 173344.8 14550.9 Q 173580 13054.3 173719.3 11741.1 L 172056.8 11426.1 Z M 174637 10579.8 L 174637 17231.9 Q 174611.1 18566.1 175128.4 19098.8 Q 175645 19632.2 177017 19611.9 L 179411 19611.9 Q 180601.7 19637.1 181114.8 18963 Q 181198.8 18853.8 181270.9 18722.2 Q 181705.6 17910.9 181819.7 16041.9 Q 181445.9 15950.2 180989.5 15753.5 Q 180533.1 15556.8 180213.9 15325.1 Q 180157.9 16856.7 179997.6 17428.6 Q 179973.1 17515.4 179943.7 17586.8 Q 179754.7 18053.7 179267.5 18020.1 L 177217.2 18020.1 Q 176716 18034.1 176557.8 17878.7 Q 176400.3 17723.3 176415 17231.9 L 176415 10579.8 L 174637 10579.8 Z " fill-rule="nonzero" style="fill:#333333;;fill-opacity:1;"/>
  <path d="M 5857.4 32645 L 5857.4 34377.8 L 4272.2 34377.8 L 4272.2 32645 L 5857.4 32645 Z M 4272.2 37499 L 4272.2 35680.4 L 5857.4 35680.4 L 5857.4 37499 L 4272.2 37499 Z M 7209.2 38826.2 L 7209.2 31317.8 L 2920.4 31317.8 L 2920.4 39882.8 L 4272.2 39882.8 L 4272.2 38826.2 L 7209.2 38826.2 Z M 9432.8 36958.4 Q 9500.6 36236 9494.6 35569.4 L 9494.6 35385.2 L 12136.4 35385.2 L 12136.4 36958.4 L 9432.8 36958.4 Z M 12136.4 32497.4 L 12136.4 34070.6 L 9494.6 34070.6 L 9494.6 32497.4 L 12136.4 32497.4 Z M 13586.6 31146.2 L 8057 31146.2 L 8057 35569.4 Q 8082.2 36686.6 7869.2 37889.6 Q 7742.6 38543 7472 39173 Q 6997.4 40332.2 5808.2 41246.6 Q 6057.2 41402 6387.2 41695.4 Q 6717.2 41988.8 6902 42217.4 Q 7922.6 41448.2 8476.4 40420.4 Q 9029.6 39392.6 9248.6 38273 L 12136.4 38273 L 12136.4 40436 Q 12155 40733.6 11841.8 40718.6 Q 11665.4 40728.8 11201 40730.6 Q 10736.6 40732.4 10219.4 40706 Q 10383.2 40998.2 10532.6 41399 Q 10682.6 41799.2 10735.4 42119 Q 11496.8 42124.4 12039.8 42071.6 Q 12582.2 42018.8 12947.6 41849 Q 13301.6 41680.4 13446.8 41351 Q 13591.4 41021.6 13586.6 40448 L 13586.6 31146.2 Z M 16670.6 33173.6 L 24289.4 33173.6 L 24289.4 34709.6 L 25812.8 34709.6 L 25812.8 31809.8 L 21450.8 31809.8 Q 21345.2 31498.4 21173 31146.2 Q 21000.2 30793.4 20811.8 30482.6 L 19398.8 30900.2 Q 19610.6 31336.4 19804.4 31809.8 L 15221 31809.8 L 15221 34709.6 L 16670.6 34709.6 L 16670.6 33173.6 Z M 23552 35483.6 L 23552 34169 L 17358.8 34169 L 17358.8 35483.6 L 23552 35483.6 Z M 16928.6 38346.8 Q 16557.8 39011.6 15979.4 39621.8 Q 15401 40231.4 14753.6 40656.8 Q 15038.6 40838 15394.4 41122.4 Q 15750.2 41406.8 15970.4 41615.6 Q 16620.8 41102.6 17266.4 40357.4 Q 17912.6 39612.2 18378.8 38813.6 L 16928.6 38346.8 Z M 25886.6 37806.2 L 25886.6 36429.8 L 15098 36429.8 L 15098 37806.2 L 19730.6 37806.2 L 19730.6 40509.2 Q 19742.6 40715 19460 40718.6 Q 19281.8 40719.2 18827 40713.8 Q 18372.8 40707.8 17899.4 40681.4 Q 18051.2 40995.8 18177.8 41377.4 Q 18303.8 41758.4 18354.2 42082.4 Q 19072.4 42087.8 19619.6 42050 Q 20167.4 42012.2 20553.8 41861 Q 20942.6 41711 21089.6 41402 Q 21236.6 41093 21229.4 40546.4 L 21229.4 37806.2 L 25886.6 37806.2 Z M 22433.6 39047 Q 23038.4 39661.4 23646.8 40376 Q 23661.2 40392.8 23675 40409 Q 24280.4 41123 24621.2 41664.8 L 25935.8 40878.2 Q 25553 40323.2 24914.6 39632.6 Q 24275.6 38941.4 23662.4 38358.8 L 22433.6 39047 Z M 36651.2 32964.8 L 36651.2 33714.2 L 28823.6 33714.2 L 28823.6 32964.8 L 36651.2 32964.8 Z M 31010.6 36147.2 Q 31760.6 35594 32436.2 34967.6 L 34562 34967.6 L 33960.2 35373.2 Q 34260.8 35615.6 34599.2 35913.8 L 31010.6 36147.2 Z M 28762.4 34967.6 L 30568.4 34967.6 Q 30193.4 35301.8 29892.8 35537.6 Q 29591.6 35772.8 29438 35876.6 Q 28955.6 36254.6 28565.6 36319.4 Q 28681.4 36599 28802 36980 Q 28922.6 37360.4 28983.2 37584.8 Q 29172.2 37500.2 29593.4 37433.6 Q 29870.6 37390.4 30360.2 37340 Q 30850.4 37290.2 31646 37221.8 Q 32889.2 37116.2 35204.6 36931.4 Q 35412.8 36914.6 35631.2 36896.6 Q 36039.8 37332.8 36282.2 37658.6 L 37437.2 36884.6 Q 37080.8 36458 36522.2 35944.4 Q 35963 35430.8 35385.2 34967.6 L 36835.4 34967.6 L 36835.4 33984.8 L 38138 33984.8 L 38138 31637.6 L 33763.4 31637.6 Q 33659.6 31356.8 33514.4 31055.6 Q 33369.2 30753.8 33210.2 30482.6 L 31785.2 30900.2 Q 31969.4 31232 32117 31637.6 L 27398 31637.6 L 27398 33984.8 L 28762.4 33984.8 L 28762.4 34967.6 Z M 33505.4 40509.2 L 33505.4 39452.6 L 37265.6 39452.6 L 37265.6 38199.2 L 33505.4 38199.2 L 33505.4 37265.6 L 32006 37265.6 L 32006 38199.2 L 28430.6 38199.2 L 28430.6 39452.6 L 32006 39452.6 L 32006 40509.2 L 27361.4 40509.2 L 27361.4 41799.8 L 38248.4 41799.8 L 38248.4 40509.2 L 33505.4 40509.2 Z M 48398.6 38125.4 L 48398.6 40214.6 L 44294 40214.6 L 44294 38125.4 L 48398.6 38125.4 Z M 42807.2 42131.6 L 44294 42131.6 L 44294 41578.4 L 48398.6 41578.4 L 48398.6 42094.4 L 49946.6 42094.4 L 49946.6 36773.6 L 42807.2 36773.6 L 42807.2 42131.6 Z M 42168.2 34021.4 L 42168.2 32915.6 Q 44216 32797.4 46263.2 32548.4 Q 48311 32299.4 50007.8 31895.6 L 48816.2 30703.4 Q 47543.6 31014.8 45759.2 31242.2 Q 45098.6 31327.4 44402.6 31399.4 Q 42522.2 31592.6 40644.8 31686.8 L 40644.8 35053.4 Q 40662.8 36184.4 40518.8 37514.6 Q 40442.6 38150 40290.2 38779.4 Q 39990.2 40096.4 39207.2 41160.8 Q 39476.6 41316.8 39842.6 41622.8 Q 40209.2 41928.8 40423.4 42168.2 Q 41228.6 41085.8 41610.2 39679.4 Q 41832.8 38887.4 41954 38077.4 Q 42159.2 36641 42168.2 35422.4 L 50769.8 35422.4 L 50769.8 34021.4 L 42168.2 34021.4 Z M 60993.8 32756 Q 60654.8 32989.4 60219.2 33240.8 Q 59784.2 33492.8 59334.8 33726.2 Q 58701.8 33305.6 58253.6 32756 L 60993.8 32756 Z M 60723.2 38654 Q 60368.6 38334.8 59856.8 37995.2 Q 59345.6 37655 58843.4 37364 L 60723.2 37364 L 60723.2 38654 Z M 59519 39071.6 Q 59838.2 39336.2 60047.6 39526.4 L 60723.2 38813.6 L 60723.2 40694 Q 60735.2 40896.8 60526.4 40878.2 Q 60416.6 40887.8 60138.2 40886 Q 59859.8 40883.6 59519 40865.6 L 59519 39071.6 Z M 58302.2 40386.8 L 56287.4 40386.8 L 56287.4 39698.6 L 58302.2 39698.6 L 58302.2 40386.8 Z M 55967.6 38764.4 Q 56517.8 38346.8 56975.6 37929.2 L 56299.4 37364 L 58462.4 37364 L 57860 37953.8 Q 58487 38303.6 59113.4 38764.4 L 55967.6 38764.4 Z M 53903.6 37364 L 55955.6 37364 Q 55517.6 37769.6 54961.4 38182.4 Q 54405.8 38595.2 53903.6 38900 L 53903.6 37364 Z M 61202.6 32756 L 62787.8 32756 L 62787.8 31588.4 L 58634 31588.4 Q 58511 31323.8 58334.6 31024.4 Q 58158.2 30725.6 57970.4 30470 L 56508.2 30888.2 Q 56717.6 31201.4 56889.2 31588.4 L 51924.8 31588.4 L 51924.8 32756 L 55697.6 32756 Q 54833.6 33168.8 53743.4 33445.4 Q 52653.8 33722 51531.8 33886.4 Q 51708.2 34088 51921.8 34405.4 Q 52135.4 34722.8 52256.6 34943 Q 53319.8 34721.6 54382.4 34389.8 L 54382.4 34599.2 Q 54369.8 34952 54186.2 35121.2 Q 54002.6 35290.4 53805.2 35348.6 Q 53919.2 35505.8 54029.6 35752.4 Q 54139.4 35999.6 54198.2 36221 L 52539.2 36221 L 52539.2 42131.6 L 53903.6 42131.6 L 53903.6 39108.8 L 54579.2 39723.2 Q 54840.2 39554 55119.8 39366.8 L 55119.8 41688.8 L 56287.4 41688.8 L 56287.4 41320.4 L 59519 41320.4 L 59519 41025.8 Q 59633 41279.6 59726.6 41566.4 Q 59819.6 41852.6 59850.8 42107 Q 60420.8 42112.4 60852.2 42074.6 Q 61283.6 42036.8 61595.6 41885.6 Q 61893.8 41733.2 62006 41454.2 Q 62117.6 41175.2 62111.6 40718.6 L 62111.6 36221 L 54370.4 36221 Q 54573.8 36138.2 55179.2 36012.8 Q 55360.4 35975.6 55593.8 35930.6 Q 56381.6 35780.6 58044.2 35496.2 Q 58015.4 35289.2 58002.8 34986.2 Q 57990.2 34682.6 58007.6 34439 L 55660.4 34770.8 L 55660.4 33923 Q 56493.2 33569.6 57159.8 33124.4 Q 58729.4 35450 62271.2 35987.6 Q 62390 35717.6 62600 35406.8 Q 62810.6 35096 63021.2 34881.8 Q 61546.4 34712.6 60404 34267.4 Q 61257.8 33870.8 62037.8 33382.4 L 61202.6 32756 Z M 65871.8 42758 Q 67023.2 42404.6 67653.8 41619.8 Q 68284.4 40835.6 68292.8 39772.4 Q 68291.6 38989.4 67956.2 38543.6 Q 67620.8 38097.2 66965.6 38088.8 Q 66462.8 38093.6 66119 38383.4 Q 65775.2 38673.8 65761.4 39194.6 Q 65776.4 39722.6 66114.8 40004 Q 66452.6 40285.4 66928.4 40288.4 Q 67005.2 40291.4 67064 40275.8 Q 66935 41277.2 65478.8 41762.6 L 65871.8 42758 Z M 82534.4 36810.8 L 83677.4 36810.8 L 82927.4 37191.8 Q 83145.8 37437.2 83373.2 37721.6 Q 83600.6 38006 83763.2 38261 L 82534.4 38261 L 82534.4 36810.8 Z M 84218 38261 L 84857 37904.6 Q 84701.6 37674.8 84446.6 37376 Q 84192.2 37077.2 83935.4 36810.8 L 84611 36810.8 L 84611 35582 L 82534.4 35582 L 82534.4 34427 L 84881.6 34427 L 84881.6 33149 L 78848 33149 L 78848 34427 L 81182.6 34427 L 81182.6 35582 L 79155.2 35582 L 79155.2 36810.8 L 81182.6 36810.8 L 81182.6 38261 L 78713 38261 L 78713 39452.6 L 85077.8 39452.6 L 85077.8 38261 L 84218 38261 Z M 78233.6 40165.4 L 78233.6 32472.8 L 85508 32472.8 L 85508 40165.4 L 78233.6 40165.4 Z M 76746.8 31133.6 L 76746.8 42131.6 L 78233.6 42131.6 L 78233.6 41517.2 L 85508 41517.2 L 85508 42131.6 L 87068.6 42131.6 L 87068.6 31133.6 L 76746.8 31133.6 Z M 95829.8 33714.2 L 95829.8 35397.8 L 94674.8 35397.8 L 94674.8 33714.2 L 95829.8 33714.2 Z M 97919 36651.2 Q 97522.4 37821.2 96813.2 38752.4 Q 96045.2 37812.2 95571.8 36651.2 L 97919 36651.2 Z M 91443.2 39366.8 L 90595.4 39366.8 L 90595.4 36282.2 L 91443.2 36282.2 L 91443.2 39366.8 Z M 98668.4 35348.6 L 98447.6 35397.8 L 97120.4 35397.8 L 97120.4 33714.2 L 98262.8 33714.2 Q 98130.8 34436 97980.2 34955 L 99098.6 35213.6 Q 99285.8 34698.8 99456.8 33990.8 Q 99627.2 33282.8 99749.6 32583.8 L 98840.6 32399.6 L 98619.2 32436.2 L 97120.4 32436.2 L 97120.4 30654.2 L 95829.8 30654.2 L 95829.8 32436.2 L 93421.4 32436.2 L 93421.4 35741.6 Q 93437.6 36843.8 93303.2 38125.4 Q 93169.4 39407.6 92696.6 40583 L 92696.6 35004.2 L 90693.8 35004.2 Q 91111.4 33791 91382 32522 L 92918 32522 L 92918 31195.4 L 88641.8 31195.4 L 88641.8 32522 L 89956.4 32522 Q 89718.2 33749.6 89314.4 34818.8 Q 88910.6 35887.4 88322 36663.2 Q 88490.6 36998.6 88642.4 37517 Q 88650.8 37545.2 88658.6 37572.8 Q 88807.4 38091.2 88850.6 38408 Q 89105.6 38116.4 89342 37769 L 89342 41553.8 L 90595.4 41553.8 L 90595.4 40644.8 L 92672 40644.8 Q 92490.8 41053.4 92254.4 41406.2 Q 92503.4 41520.2 92833.4 41735 Q 93163.4 41950.4 93347.6 42119 Q 93956 41156.6 94243.4 39932 Q 94530.8 38706.8 94613.6 37486.4 Q 95157.2 38739.8 95940.8 39735.2 Q 95028.2 40568 93912.8 41013.2 Q 94115.6 41220.8 94337 41538.8 Q 94558.4 41856.8 94687.4 42119 Q 95876 41563.4 96825.2 40694 Q 97796 41566.4 99024.8 42107 Q 99182.6 41817.2 99444.2 41486.6 Q 99705.8 41155.4 99946.4 40939.4 Q 98702.6 40488.2 97734.8 39686 Q 98978.6 38107.4 99504.2 35643.2 L 98668.4 35348.6 Z M 102662 32952.2 L 110330 32952.2 L 110330 34402.4 L 111828.8 34402.4 L 111828.8 31625 L 107454.2 31625 Q 107359.4 31354.4 107217.8 31069.4 Q 107076.8 30784.4 106926.2 30531.8 L 105377.6 30974 Q 105534.2 31262.6 105672.8 31625 L 101224.4 31625 L 101224.4 34402.4 L 102662 34402.4 L 102662 32952.2 Z M 109850.6 35053.4 Q 109397.6 35511.2 108786.2 35996.6 Q 108174.2 36482 107528 36921.2 Q 107162.6 36113.6 106446.8 35434.4 Q 106852.4 35170.4 107184.2 34869.2 L 109911.8 34869.2 L 109911.8 33628.4 L 103043 33628.4 L 103043 34869.2 L 105156.8 34869.2 Q 104314.4 35322.2 103290.2 35664.8 Q 102266 36007.4 101212.4 36221 Q 101399 36451.4 101617.4 36792.2 Q 101836.4 37133.6 101949.2 37364 Q 102821 37134.2 103689.8 36815.6 Q 104558.6 36496.4 105365.6 36073.4 Q 105546.8 36276.2 105709.4 36478.4 Q 105709.4 36478.4 105709.4 36479 Q 104986.4 36951.8 103907.6 37397 Q 103580.6 37532 103241.6 37656.8 Q 102124.4 38067.2 101114 38285.6 Q 101313.8 38526.2 101513 38841.2 Q 101712.8 39156.2 101838.8 39416 Q 102905 39085.4 104085.8 38556.2 Q 104115.2 38543.6 104144 38530.4 Q 105323.6 37998.2 106262.6 37412.6 Q 106373 37655.6 106446.8 37880 Q 105653.6 38540.6 104430.8 39141.2 Q 103967 39369.8 103475 39573.8 Q 102178.4 40112 100929.8 40386.8 Q 101147.6 40647.2 101356.4 40985.6 Q 101565.2 41324 101691.2 41603 Q 102942.8 41223.2 104261 40598.6 Q 105579.2 39974 106655.6 39243.8 Q 106653.2 39690.2 106556 40011.8 Q 106458.8 40333.4 106299.2 40484.6 Q 106172.6 40672.4 106013.6 40728.8 Q 105854.6 40785.8 105635.6 40779.8 Q 105193.4 40785.8 104529.8 40718.6 Q 104713.4 41033 104809.4 41412.8 Q 104905.4 41792 104923.4 42107 Q 105485.6 42131.6 105918.2 42119 Q 106388.6 42116.6 106728.2 41991.8 Q 107067.2 41867 107381 41541.8 Q 107860.4 41128.4 108033.8 40199 Q 108206.6 39269.6 107958.2 38138 Q 108008 38108 108059.6 38078 Q 108202.4 37997.6 108339.2 37904.6 Q 108786.8 39165.8 109535.6 40111.4 Q 110285 41057.6 111386.6 41591 Q 111553.4 41307.8 111825.8 40962.8 Q 112098.8 40617.2 112357.4 40398.8 Q 111295.4 39962 110569.4 39114.8 Q 109844 38267.6 109482.2 37167.2 Q 110311.4 36605 111067.4 36024.2 L 109850.6 35053.4 Z M 124362.8 34623.2 L 124362.8 33198.2 L 118968.2 33198.2 L 120172.4 32817.2 Q 120043.4 32349.2 119776.4 31749.8 Q 119508.8 31150.4 119214.2 30617.6 L 117665.6 31084.4 Q 117920.6 31589 118139 32164.4 Q 118356.8 32739.8 118464.8 33198.2 L 113229.8 33198.2 L 113229.8 34623.2 L 114827 34623.2 L 114827 41553.8 L 123502.4 41553.8 L 123502.4 40042.4 L 116400.2 40042.4 L 116400.2 34623.2 L 124362.8 34623.2 Z M 134414.6 38125.4 L 134414.6 40214.6 L 130310 40214.6 L 130310 38125.4 L 134414.6 38125.4 Z M 128823.2 42131.6 L 130310 42131.6 L 130310 41578.4 L 134414.6 41578.4 L 134414.6 42094.4 L 135962.6 42094.4 L 135962.6 36773.6 L 128823.2 36773.6 L 128823.2 42131.6 Z M 128184.2 34021.4 L 128184.2 32915.6 Q 130232 32797.4 132279.2 32548.4 Q 134327 32299.4 136023.8 31895.6 L 134832.2 30703.4 Q 133559.6 31014.8 131775.2 31242.2 Q 131114.6 31327.4 130418.6 31399.4 Q 128538.2 31592.6 126660.8 31686.8 L 126660.8 35053.4 Q 126678.8 36184.4 126534.8 37514.6 Q 126458.6 38150 126306.2 38779.4 Q 126006.2 40096.4 125223.2 41160.8 Q 125492.6 41316.8 125858.6 41622.8 Q 126225.2 41928.8 126439.4 42168.2 Q 127244.6 41085.8 127626.2 39679.4 Q 127848.8 38887.4 127970 38077.4 Q 128175.2 36641 128184.2 35422.4 L 136785.8 35422.4 L 136785.8 34021.4 L 128184.2 34021.4 Z M 139980.8 30678.8 Q 139574 32045 138935 33288.8 Q 138295.4 34532.6 137547.8 35409.8 Q 137735 35733.2 137949.8 36215 L 137951 36217.4 Q 138165.2 36699.8 138260.6 36995 Q 138635 36534.2 139010 35999.6 L 139010 42131.6 L 140411 42131.6 L 140411 33443.6 Q 140945.6 32255 141332.6 31084.4 L 139980.8 30678.8 Z M 149061.8 38088.8 L 145891.4 38088.8 L 145891.4 36835.4 L 148533.2 36835.4 L 148533.2 35496.2 L 145891.4 35496.2 L 145891.4 34304 L 148901.6 34304 L 148901.6 32952.2 L 147255.2 32952.2 Q 147833 32061.2 148410.2 31059.8 L 146862.2 30642.2 Q 146671.4 31181.6 146381.6 31802 Q 146091.2 32421.8 145781 32952.2 L 143655.2 32952.2 L 144515 32583.8 Q 144356.6 32171.6 144043.4 31651.4 Q 143730.8 31131.2 143396.6 30691.4 L 142155.8 31182.8 Q 142431.2 31598.6 142695.2 32072 Q 142958.6 32545.4 143114 32952.2 L 141369.2 32952.2 L 141369.2 34304 L 144416.6 34304 L 144416.6 35496.2 L 141725.6 35496.2 L 141725.6 36835.4 L 144416.6 36835.4 L 144416.6 38088.8 L 141000.8 38088.8 L 141000.8 39440.6 L 144416.6 39440.6 L 144416.6 42143.6 L 145891.4 42143.6 L 145891.4 39440.6 L 149061.8 39440.6 L 149061.8 38088.8 Z M 153436.4 30900.2 Q 153104.6 31407.2 152625.2 31932.2 Q 152158.4 31355 151470.2 30814.4 L 150413.6 31625 Q 151166 32242.4 151642.4 32915.6 Q 151206.8 33296.6 150757.4 33629.6 Q 150308 33962.6 149872.4 34205.6 Q 150101 34460 150332 34827.8 Q 150562.4 35195 150708.2 35496.2 Q 151488.8 34943 152305.4 34169 Q 152520.8 34746.2 152625.2 35360.6 Q 152147.6 36170.6 151437.8 36885.8 Q 150728 37601.6 149983.4 38015 Q 150204.2 38268.8 150436.4 38621.6 Q 150668.6 38974.4 150806.6 39255.8 Q 151298.6 38900.6 151796 38411 Q 152292.8 37922 152748.2 37364 Q 152739.8 38430.2 152651 39197.6 Q 152562.8 39965 152379.2 40239.2 Q 152247.2 40432.4 151986.2 40460 Q 151565.6 40509.2 150573.2 40448 Q 150775.4 40775 150878.6 41150 Q 150981.8 41525 150990.8 41898.2 Q 151958.6 41968.4 152686.4 41799.8 Q 153181.4 41685.8 153473 41295.8 Q 153897.2 40708.4 154052 39618.8 Q 154206.8 38528.6 154197.8 37241 Q 154211.6 36143.6 154050.8 35096.6 Q 153889.4 34049.6 153387.2 33063.2 Q 154050.8 32319.2 154529.6 31613 L 153436.4 30900.2 Z M 158658.8 40239.2 L 158658.8 37093.4 L 161018 37093.4 L 161018 35717 L 158658.8 35717 L 158658.8 32903 L 161128.4 32903 L 161128.4 31514.6 L 154714.4 31514.6 L 154714.4 32903 L 157147.4 32903 L 157147.4 35717 L 154861.4 35717 L 154861.4 37093.4 L 157147.4 37093.4 L 157147.4 40239.2 L 154148.6 40239.2 L 154148.6 41627.6 L 161312.6 41627.6 L 161312.6 40239.2 L 158658.8 40239.2 Z M 173514.8 32055.2 L 172089.2 32055.2 Q 171986 31717.4 171839 31342.4 Q 171692 30968 171524 30629.6 L 170344.4 30912.8 Q 170577.8 31456.4 170774.6 32055.2 L 169373.6 32055.2 L 169373.6 33198.2 L 173514.8 33198.2 L 173514.8 32055.2 Z M 171192.2 34660.4 Q 171152.6 34362.8 171038.6 33970.4 Q 170925.2 33578.6 170774.6 33234.8 L 169779.2 33480.8 Q 169911.8 33831.8 170014.4 34232 Q 170117 34631.6 170147.6 34955 L 171192.2 34660.4 Z M 170750 37032.2 L 169386.2 37032.2 L 169386.2 38187.2 L 170750 38187.2 L 170750 40055 L 172052.6 40055 L 172052.6 38187.2 L 173490.2 38187.2 L 173490.2 37032.2 L 172052.6 37032.2 L 172052.6 36135.2 L 173600.6 36135.2 L 173600.6 34967.6 L 172617.8 34967.6 Q 172922 34260.8 173281.4 33480.8 L 172101.8 33210.2 Q 171996.2 33617.6 171833 34089.2 Q 171669.8 34560.8 171499.4 34967.6 L 169275.2 34967.6 L 169275.2 36135.2 L 170750 36135.2 L 170750 37032.2 Z M 165097.4 33357.8 Q 164849.6 32852.6 164383.4 32236.4 Q 163916.6 31620.8 163438.4 31097 L 162283.4 31748 Q 162761 32309 163203.8 32951 Q 163646.6 33592.4 163856.6 34107.2 L 165097.4 33357.8 Z M 167813 32301.2 L 167813 33775.4 L 166891.4 33775.4 Q 166907 33520.4 166904 33284 L 166904 32301.2 L 167813 32301.2 Z M 167223.2 36847.4 L 168095.6 36847.4 L 168095.6 38900 L 167223.2 38900 L 167223.2 36847.4 Z M 164765.6 38531 Q 164967.8 38704.4 165174.2 38915 Q 165380.6 39125.6 165490.4 39280.4 Q 165957.8 38586.2 166240.4 37781.6 L 166240.4 39956.6 L 169115.6 39956.6 L 169115.6 35790.8 L 166719.2 35790.8 Q 166793 35339 166830.2 34906.4 L 169041.8 34906.4 L 169041.8 31170.8 L 165675.2 31170.8 L 165675.2 33272 Q 165691.4 34289 165542 35505.8 Q 165525.2 35628.2 165505.4 35750.6 Q 165327.8 36969.8 164765.6 38039.6 L 164765.6 35385.2 L 162258.8 35385.2 L 162258.8 36712.4 L 163438.4 36712.4 L 163438.4 39747.8 Q 162750.2 40113.2 162062.6 40829 L 162935 42107 Q 163312.4 41566.4 163701.2 41136.2 Q 164090 40706 164384.6 40681.4 Q 164678 40708.4 165128 41000.6 Q 165378.8 41152.4 165687.2 41308.4 Q 166379 41643.2 167241.8 41773.4 Q 168104 41903.6 169238.6 41898.2 Q 170000 41896.4 170954.6 41869.4 Q 171467 41854.4 171950 41835.8 Q 172851.8 41800.4 173367.2 41762.6 Q 173393.6 41451.2 173519.6 41045.6 Q 173645 40639.4 173772.8 40337.6 Q 172914.2 40454.6 171803.6 40527.8 Q 171558.2 40544 171311.6 40557.8 Q 170196.2 40619 169287.8 40620.2 Q 168269.6 40628.6 167417 40529.6 Q 166564.4 40430 165933.2 40116.2 Q 165537.2 39929 165266 39767 Q 164991.2 39602 164765.6 39514.4 L 164765.6 38531 Z M 182645 35016.8 L 182645 37326.8 L 180948.8 37326.8 L 180948.8 35016.8 L 182645 35016.8 Z M 184181 38666 L 184181 35016.8 L 185802.8 35016.8 L 185802.8 33603.8 L 184181 33603.8 L 184181 30863.6 L 182645 30863.6 L 182645 33603.8 L 180948.8 33603.8 L 180948.8 30752.6 L 179499.2 30752.6 L 179499.2 33603.8 L 177827.6 33603.8 L 177827.6 31010.6 L 176304.2 31010.6 L 176304.2 33603.8 L 174645.2 33603.8 L 174645.2 35016.8 L 176304.2 35016.8 L 176304.2 41468 L 185483 41468 L 185483 40055 L 177827.6 40055 L 177827.6 35016.8 L 179499.2 35016.8 L 179499.2 38666 L 184181 38666 Z M 188739.8 38015 Q 187907 38036.6 187345.4 38599.4 L 187344.2 38600.6 Q 186783.2 39164 186761 40005.8 Q 186783.2 40847 187344.2 41410.4 L 187345.4 41411.6 Q 187907 41974.4 188739.8 41996 Q 189590 41974.4 190149.8 41411 Q 190709.6 40847.6 190730 40005.8 Q 190709.6 39163.4 190149.8 38600 Q 189590 38036.6 188739.8 38015  Z M 188739.8 41111.6 Q 188284.4 41100.2 187971.8 40788.8 Q 187659.2 40478 187646 40005.8 Q 187659.2 39533.6 187971.8 39222.2 Q 188284.4 38911.4 188739.8 38900 Q 189212 38911.4 189522.8 39222.2 Q 189834.2 39533.6 189845.6 40005.8 Q 189834.2 40478 189522.8 40788.8 Q 189212 41100.2 188739.8 41111.6  Z M 6225.8 57067.4 L 10096.4 57067.4 L 10096.4 57964.4 L 6225.8 57964.4 L 6225.8 57067.4 Z M 10096.4 53037.2 L 10096.4 53799.2 L 6225.8 53799.2 L 6225.8 53037.2 L 10096.4 53037.2 Z M 6225.8 55015.4 L 10096.4 55015.4 L 10096.4 55838.6 L 6225.8 55838.6 L 6225.8 55015.4 Z M 13685 59304.2 L 13685 57964.4 L 11583.2 57964.4 L 11583.2 53037.2 L 13377.8 53037.2 L 13377.8 51697.4 L 11583.2 51697.4 L 11583.2 50505.8 L 10096.4 50505.8 L 10096.4 51697.4 L 6225.8 51697.4 L 6225.8 50505.8 L 4776.2 50505.8 L 4776.2 51697.4 L 3068 51697.4 L 3068 53037.2 L 4776.2 53037.2 L 4776.2 57964.4 L 2699 57964.4 L 2699 59304.2 L 6287.6 59304.2 Q 5637.8 59700.2 4663.4 60108.8 Q 4561.4 60152 4457.6 60194 Q 3468.8 60595.4 2539.4 60852.2 Q 2787.8 61076.6 3049.4 61383.8 Q 3311.6 61691 3485.6 61933.4 Q 4491.8 61628.6 5599.4 61172 Q 6706.4 60714.8 7565.6 60225.8 L 6398 59304.2 L 13685 59304.2 Z M 8806.4 60287 Q 9840.8 60667.4 10787.6 61107.2 Q 11735 61547 12345.2 61908.8 L 13746.2 60987.2 Q 13028 60626 11973.8 60193.4 Q 10919 59760.8 9851 59390 L 8806.4 60287 Z M 17150 52705.4 Q 17376.8 53102.6 17570.6 53513 Q 17765 53924 17862.8 54228.8 L 19128.2 53725.4 Q 18953 53279.6 18612.2 52705.4 L 20172.8 52705.4 Q 19896.2 53040.2 19583 53282.6 Q 19868.6 53433.2 20237.6 53676.2 Q 20606 53918.6 20836.4 54106.4 Q 21413.6 53534.6 21954.8 52705.4 L 22433.6 52705.4 Q 22631.6 53033.6 22794.8 53364.2 Q 22958 53694.8 23036 53958.8 L 24301.4 53492 Q 24178.4 53144.6 23908.4 52705.4 L 25997.6 52705.4 L 25997.6 51488.6 L 22605.8 51488.6 Q 22778 51114.2 22913 50739.2 L 21487.4 50370.8 Q 21282.8 50974.4 20970.2 51548.6 Q 20657 52122.8 20258.6 52607 L 20258.6 51488.6 L 17592.2 51488.6 Q 17746.4 51168.8 17870 50844.8 Q 17891 50791.4 17912 50739.2 L 16511 50370.8 Q 16209.8 51241.4 15726.2 52038.8 Q 15242.6 52835.6 14655.2 53393.6 Q 14923.4 53551.4 15288.2 53783.6 Q 15653 54015.2 15884 54192.2 Q 16434.2 53577.8 16965.8 52705.4 L 17150 52705.4 Z M 21524.6 60545 Q 21022.4 60555.8 20861 60437.6 Q 20699.6 60319.4 20713.4 59943.2 L 20713.4 59377.4 L 26034.2 59009 L 25899.2 57780.2 L 20713.4 58124 L 20713.4 57350 L 25088 57042.8 L 24965 55875.8 L 20713.4 56158.4 L 20713.4 55519.4 Q 21963.8 55435.4 23121.8 55301 Q 24279.8 55166.6 25272.2 54990.8 L 24645.8 53774.6 Q 23207 54034.4 21288.8 54204.8 Q 20513.6 54274.4 19702.4 54328.4 Q 17695.4 54461 15737 54499.4 Q 15843.2 54759.2 15938 55092.2 Q 16032.8 55425.8 16056.2 55703.6 Q 17595.2 55688 19226.6 55617.8 L 19226.6 56244.2 L 15540.2 56490.2 L 15675.2 57694.4 L 19226.6 57448.4 L 19226.6 58222.4 L 14962.4 58517.6 L 15085.4 59771 L 19226.6 59475.8 L 19226.6 59955.2 Q 19203.8 61014.8 19668.8 61422.2 Q 20134.4 61829.6 21365 61810.4 L 23798 61810.4 Q 24797.6 61830.2 25217 61391.6 Q 25636.4 60952.4 25751.6 59820.2 Q 25433 59751.2 25061.6 59606.6 Q 24690.8 59462 24437 59291.6 Q 24378.2 60055.4 24229.4 60309.8 Q 24080.6 60564.8 23662.4 60545 L 21524.6 60545 Z M 34365.2 51943.4 Q 34268 52204.4 34110.2 52539.2 Q 33953 52874 33800 53135.6 L 34599.2 53418.2 Q 34927.4 52935.8 35385.2 52250.6 L 34365.2 51943.4 Z M 30187.4 52275.2 Q 30357.8 52542.2 30510.2 52848.2 Q 30662 53154.2 30740.6 53393.6 L 31649.6 53037.2 Q 31561.4 52824.2 31394.6 52533.2 Q 31228.4 52242.2 31047.8 51992.6 L 30187.4 52275.2 Z M 28774.4 58787.6 Q 29542.4 58247 29904.8 57448.4 L 28958.6 57178.4 L 33972.2 57178.4 L 33149 57411.8 Q 33328.4 57696.2 33482 58015.4 Q 33636.2 58334.6 33714.2 58591.4 L 34967.6 58173.2 Q 34881.8 57965 34738.4 57698.6 Q 34595.6 57432.8 34427 57178.4 L 36380.6 57178.4 L 35643.2 57473 Q 35948.6 57768.2 36274.4 58125.8 Q 36600.8 58483.4 36822.8 58787.6 L 33443.6 58787.6 L 33443.6 58247 L 32288.6 58247 Q 32249 58009.4 32153.6 57723.2 Q 32058.2 57437.6 31944.8 57190.4 L 30703.4 57423.8 Q 30816.8 57699.2 30905 58008.8 Q 30992.6 58319 31023.2 58566.8 L 32006 58345.4 L 32006 58787.6 L 28774.4 58787.6 Z M 29831 53418.2 L 29831 51869.6 L 32030.6 51869.6 L 32030.6 53418.2 L 29831 53418.2 Z M 35705 53418.2 L 33431.6 53418.2 L 33431.6 51869.6 L 35705 51869.6 L 35705 53418.2 Z M 33443.6 60410 L 33443.6 59795.6 L 37044.2 59795.6 L 37044.2 58861.4 L 38100.8 58407.2 Q 37906.4 58141.4 37587.8 57810.8 Q 37269.2 57480.8 36945.8 57178.4 L 38223.8 57178.4 L 38223.8 56145.8 L 33431.6 56145.8 L 33431.6 55679 L 37241 55679 L 37241 54744.8 L 33431.6 54744.8 L 33431.6 54290.6 L 37118 54290.6 L 37118 50997.2 L 28516.4 50997.2 L 28516.4 54290.6 L 32030.6 54290.6 L 32030.6 54744.8 L 28418 54744.8 L 28418 55679 L 32030.6 55679 L 32030.6 56145.8 L 27324.2 56145.8 L 27324.2 57178.4 L 28713.2 57178.4 Q 28486.4 57577.4 28107.8 57875.6 Q 27729.2 58173.2 27263 58333.4 L 28245.8 59070.2 Q 28451.6 58981.4 28639.4 58874 L 28639.4 59795.6 L 32006 59795.6 L 32006 60410 L 27238.4 60410 L 27238.4 61540.4 L 38346.8 61540.4 L 38346.8 60410 L 33443.6 60410 Z M 43741.4 56502.2 Q 43609.4 56286.2 43287.2 55780.4 Q 43060.4 55425.8 42822.2 55063.4 Q 42483.8 54547.4 42291.2 54290.6 L 42291.2 54106.4 L 43409.6 54106.4 L 43409.6 52754.6 L 42291.2 52754.6 L 42291.2 50468.6 L 40964 50468.6 L 40964 52754.6 L 39526.4 52754.6 L 39526.4 54106.4 L 40902.8 54106.4 Q 40643.6 55215.8 40199 56328.2 Q 40178 56381 40155.8 56433.8 Q 39704.6 57536.6 39158 58259.6 Q 39342.2 58570.4 39545 58987.4 Q 39747.8 59404.4 39858.2 59733.8 Q 40163.6 59267.6 40443.2 58632.8 Q 40723.4 57998 40964 57264.2 L 40964 61933.4 L 42291.2 61933.4 L 42291.2 56121.2 Q 42477.2 56505.2 42633.8 56863.4 Q 42789.8 57221.6 42893.6 57485.6 L 43741.4 56502.2 Z M 47599.4 52557.8 Q 47404.4 53399 47192.6 54198.2 Q 46980.8 54998 46776.2 55617.8 L 48840.8 55617.8 Q 48410.6 57159.8 47648.6 58333.4 Q 46509.2 56957 45903.8 55212.2 Q 46051.4 53958.8 46125.2 52557.8 L 47599.4 52557.8 Z M 49565.6 54302.6 L 49307.6 54364.4 L 48509 54364.4 Q 48714.2 53616.8 48912.8 52800.8 Q 49111.4 51984.2 49271 51218.6 L 43605.8 51218.6 L 43605.8 52557.8 L 44760.8 52557.8 Q 44669 55353.2 44157.8 57525.8 Q 44145.2 57576.2 44132.6 57626 Q 43607.6 59781.8 42340.4 61110.2 Q 42611.6 61263.2 42979.4 61520.6 Q 43347.2 61777.4 43544.6 61958 Q 44268.2 61100.6 44750.6 59996.6 Q 45232.4 58892.6 45522.8 57546.8 Q 46063.4 58575.8 46751.6 59439.2 Q 45909.8 60311.6 44847.2 60852.2 Q 45100.4 61026.8 45392.6 61353.2 Q 45684.8 61679.6 45854.6 61946 Q 46868.6 61374.2 47735 60471.2 Q 48693.2 61337.6 49910 61908.8 Q 50085.8 61617.8 50357 61276.4 Q 50627.6 60934.4 50868.2 60717.2 Q 49620.8 60204.2 48632 59340.8 Q 49891.4 57479 50450.6 54659 L 49565.6 54302.6 Z M 54382.4 52582.4 Q 54600.2 52969.4 54785 53366 Q 54970.4 53762 55058.6 54057.2 L 56312 53528.6 Q 56167.4 53120 55857.2 52582.4 L 57332 52582.4 L 57332 51402.8 L 54615.8 51402.8 Q 54662 51299.6 54707.6 51199.4 Q 54809 50978.6 54898.4 50763.8 L 53522.6 50395.4 Q 53212.4 51227.6 52716.2 51986.6 Q 52219.4 52745 51605.6 53282.6 Q 51872.6 53414 52224.8 53642 Q 52576.4 53870.6 52797.2 54057.2 Q 53399.6 53457.8 53964.8 52582.4 L 54382.4 52582.4 Z M 52318.4 61921.4 L 53743.4 61921.4 L 53743.4 55408.4 L 52318.4 55408.4 L 52318.4 61921.4 Z M 52944.8 54389 Q 53326.4 54743.6 53687 55172 Q 54047.6 55600.4 54235.4 55937 L 55377.8 55138.4 Q 55161.2 54796.4 54779 54396.2 Q 54396.2 53996.6 54014 53663.6 L 52944.8 54389 Z M 56336.6 59475.8 L 56336.6 58812.2 L 58425.2 58812.2 L 58425.2 59475.8 L 56336.6 59475.8 Z M 58425.2 57190.4 L 58425.2 57829.4 L 56336.6 57829.4 L 56336.6 57190.4 L 58425.2 57190.4 Z M 59715.8 56121.2 L 55107.8 56121.2 L 55107.8 60545 L 59715.8 60545 L 59715.8 56121.2 Z M 62431.4 54130.4 L 55562 54130.4 L 55562 55421 L 60993.8 55421 L 60993.8 60385.4 Q 61011.8 60624.8 60735.2 60606.2 Q 60586.4 60616.4 60179.6 60612.8 Q 59772.2 60608.6 59346.8 60581.6 Q 59480 60850.4 59598.8 61193 Q 59717.6 61535.6 59777 61823 Q 60466.4 61837.4 60972.2 61803.2 Q 61477.4 61769 61817 61626.2 Q 62161.4 61477.4 62299.4 61190 Q 62436.8 60903.2 62431.4 60385.4 L 62431.4 54130.4 Z M 59654 51402.8 Q 59748.8 51155 59830.4 50915 Q 59859.2 50832.2 59887.4 50751.2 L 58511.6 50432 Q 58286.6 51208.4 57890.6 51915.8 Q 57495.2 52623.2 56975.6 53123 Q 57251.6 53262.2 57603.8 53487.2 Q 57956 53711.6 58167.2 53897 Q 58655.6 53356.4 59088.8 52594.4 L 59678.6 52594.4 Q 59934.8 52979.6 60156.2 53369 Q 60378.2 53758.4 60477.2 54069.2 L 61730.6 53479.4 Q 61655 53300.6 61526.6 53069.6 Q 61397.6 52838 61239.2 52594.4 L 62849 52594.4 L 62849 51402.8 L 59654 51402.8 Z M 65871.8 62572.4 Q 67023.2 62219 67653.8 61434.2 Q 68284.4 60650 68292.8 59586.8 Q 68291.6 58803.8 67956.2 58358 Q 67620.8 57911.6 66965.6 57903.2 Q 66462.8 57908 66119 58197.8 Q 65775.2 58488.2 65761.4 59009 Q 65776.4 59537 66114.8 59818.4 Q 66452.6 60099.8 66928.4 60102.8 Q 67005.2 60105.8 67064 60090.2 Q 66935 61091.6 65478.8 61577 L 65871.8 62572.4 Z M 83517.2 52287.2 Q 83373.2 52699.4 83173.4 53147.6 L 80666.6 53147.6 Q 80609.6 52949.6 80517.8 52722.2 Q 80426 52494.2 80322.8 52287.2 L 83517.2 52287.2 Z M 87252.8 53147.6 L 84672.8 53147.6 Q 84752.6 53010.2 84836 52860.8 Q 84942.2 52667.6 85065.8 52459.4 L 84082.4 52287.2 L 86601.8 52287.2 L 86601.8 51156.8 L 82780.4 51156.8 Q 82629.8 50711.6 82424 50321.6 L 80998.4 50579.6 Q 81111.8 50849.6 81207.2 51156.8 L 77226.2 51156.8 L 77226.2 52287.2 L 79868 52287.2 L 78946.4 52472 Q 79087.4 52782.2 79191.8 53147.6 L 76623.8 53147.6 L 76623.8 54278 L 87252.8 54278 L 87252.8 53147.6 Z M 84476 56158.4 L 79388.6 56158.4 L 79388.6 55629.8 L 84476 55629.8 L 84476 56158.4 Z M 84476 57546.8 L 79388.6 57546.8 L 79388.6 57018.2 L 84476 57018.2 L 84476 57546.8 Z M 85925.6 54720.8 L 78012.2 54720.8 L 78012.2 58468.4 L 81133.4 58468.4 L 80630 58959.8 Q 81164 59210 81700.4 59544.8 Q 82236.8 59880.2 82559 60176.6 L 83456 59279.6 Q 83218.4 59091.8 82875.2 58878.2 Q 82532 58665.2 82166 58468.4 L 85925.6 58468.4 L 85925.6 54720.8 Z M 77496.2 61638.8 Q 77976.2 61182.8 78359.6 60577.4 Q 78743 59972 79020.2 59377.4 L 77803.4 58836.8 Q 77550.2 59402 77156.6 59960 Q 76763 60518 76280 60926 L 77496.2 61638.8 Z M 81379.4 60643.4 Q 80975.6 60651.2 80846.6 60585.2 Q 80717 60519.2 80727.8 60287 L 80727.8 59009 L 79302.8 59009 L 79302.8 60299 Q 79278.2 61151.6 79686.8 61488.2 Q 80095.4 61824.8 81231.8 61810.4 L 83210 61810.4 Q 84051.2 61832 84426.8 61468.4 Q 84802.4 61104.8 84906.2 60102.8 Q 84605 60043.4 84248.6 59916.8 Q 83892.2 59790.2 83664.8 59648 Q 83630.6 60274.4 83517.2 60468.2 Q 83404.4 60662 83075 60643.4 L 81379.4 60643.4 Z M 84709.4 59242.4 Q 85155.8 59776.4 85549.4 60386.6 Q 85943 60996.8 86122.4 61466.6 L 87388.4 60901.4 Q 87171.2 60415.4 86753.6 59823.2 Q 86336.6 59231 85889 58726.4 L 84709.4 59242.4 Z M 99233.6 51206 L 96862.4 51206 Q 96787.4 50999.6 96701 50779.4 Q 96614.6 50558.6 96530.6 50370.8 L 95154.2 50628.8 Q 95169.2 50670.8 95185.4 50715.2 Q 95268.8 50952.2 95363 51206 L 92930 51206 L 92930 52385.6 L 99233.6 52385.6 L 99233.6 51206 Z M 99553.4 53442.8 L 98029.4 53442.8 Q 98143.4 53232.2 98255 53001.8 Q 98340.2 52827.2 98435 52643.6 L 97107.8 52398.2 Q 97041.8 52632.8 96948.2 52906.4 Q 96854.6 53180 96751.4 53442.8 L 95363 53442.8 Q 95304.8 53204.6 95200.4 52920.2 Q 95096 52636.4 94982 52398.2 L 93802.4 52631.6 Q 93965.6 53018.6 94073 53442.8 L 92586.2 53442.8 L 92586.2 54647 L 99553.4 54647 L 99553.4 53442.8 Z M 92340.2 57657.2 L 91209.8 58062.8 L 91209.8 54769.4 L 92254.4 54769.4 L 92254.4 53381 L 91209.8 53381 L 91209.8 50628.8 L 89784.2 50628.8 L 89784.2 53381 L 88592.6 53381 L 88592.6 54769.4 L 89784.2 54769.4 L 89784.2 58554.2 Q 88985.6 58827.8 88371.2 59009 L 88850.6 60508.4 Q 89693.6 60180.2 90677 59783 Q 91660.4 59386.4 92622.8 58984.4 L 92340.2 57657.2 Z M 94404.8 57338 L 97550.6 57338 L 97550.6 57854 L 94404.8 57854 L 94404.8 57338 Z M 94404.8 55973.6 L 97550.6 55973.6 L 97550.6 56490.2 L 94404.8 56490.2 L 94404.8 55973.6 Z M 97955.6 60643.4 Q 97808.6 60646.4 97734.8 60594.2 Q 97673 60529.4 97685.6 60299 L 97685.6 58775.6 L 98951 58775.6 L 98951 55064.6 L 93065 55064.6 L 93065 58775.6 L 94085 58775.6 Q 93994.4 59541.8 93540.2 60030.8 Q 93479 60092.6 93409.4 60151.4 Q 92883.2 60609.8 91578.2 60864.8 Q 91799 61064.6 92013.2 61391.6 Q 92226.8 61718 92328.2 61982.6 Q 93878.6 61589.6 94551.2 60898.4 Q 94677.2 60773.6 94782.2 60638 Q 95336 59887.4 95448.8 58775.6 L 96333.8 58775.6 L 96333.8 60262.4 Q 96333.2 60810.8 96418.4 61073.6 Q 96503 61335.8 96677.6 61479.2 Q 96851.6 61626.2 97107.8 61700 Q 97364.6 61773.8 97611.8 61773.8 L 98398.4 61773.8 Q 98582 61773.8 98797.4 61746.2 Q 99013.4 61718.6 99159.8 61663.4 Q 99510.2 61518.8 99676.4 61208.6 Q 99749 61041.8 99791.6 60723.2 Q 99834.2 60404.6 99860.6 60053.6 Q 99587.6 59957 99264.8 59793.8 Q 98941.4 59630.6 98742.2 59451.2 Q 98727.2 60133.4 98693 60372.8 Q 98637.8 60588.2 98545.4 60618.8 Q 98444 60649.4 98287.4 60643.4 L 97955.6 60643.4 Z M 103903.4 56318 Q 105332 55608.2 106484 54696.2 Q 107666.6 55673 109272.8 56318 L 103903.4 56318 Z M 106704.8 52840.4 L 108130.4 52840.4 L 108130.4 53811.2 L 109653.8 53811.2 L 109653.8 52840.4 L 112050.2 52840.4 L 112050.2 51488.6 L 109653.8 51488.6 L 109653.8 50493.2 L 108130.4 50493.2 L 108130.4 51488.6 L 104861.6 51488.6 L 104861.6 50493.2 L 103350.2 50493.2 L 103350.2 51488.6 L 100941.8 51488.6 L 100941.8 52840.4 L 103350.2 52840.4 L 103350.2 53811.2 L 104861.6 53811.2 L 104861.6 52840.4 L 106410.2 52840.4 Q 105557 53777 104194.4 54533 Q 103881.2 54707.6 103551.8 54866.6 Q 102119 55557.2 100598 55875.8 Q 100843.4 56183 101072.6 56573 Q 101301.8 56963 101445.8 57288.8 Q 102198.2 57073.4 102969.2 56748.2 L 102969.2 59869.4 Q 102945.8 60946.4 103502 61357.4 Q 103529.6 61377.8 103559 61397 Q 104149.4 61782.2 105611 61761.8 L 108818.6 61761.8 Q 109965.8 61782.2 110480 61389.8 Q 110573 61319 110651.6 61230.8 Q 111085.4 60741.8 111214.4 59549.6 Q 110877.8 59489.6 110487.8 59346.8 Q 110098.4 59204 109826 59033.6 Q 109756.4 59898.2 109557.2 60180.2 Q 109545.2 60196.4 109532.6 60212 Q 109319 60470.6 108720.2 60446.6 L 105672.8 60446.6 Q 104937.8 60457.4 104705 60339.2 Q 104472.2 60221 104493.2 59844.8 L 104493.2 57620.6 L 108155 57620.6 Q 108090.2 58514.6 107933.6 58652.6 Q 107792.6 58766.6 107503.4 58751 Q 107300 58752.8 106899.8 58743.2 Q 106500.2 58733.6 106029.2 58689.8 Q 106178.6 58929.2 106277.6 59233.4 Q 106377.2 59537.6 106397.6 59795.6 Q 106922 59813.6 107379.2 59813.6 Q 107836.4 59813.6 108130.4 59795.6 Q 108452.6 59772.2 108712.4 59686.4 Q 108972.2 59600.6 109175 59402 Q 109391.6 59203.4 109497.2 58594.4 Q 109603.4 57985.4 109653.8 56809.4 Q 109669.4 56655.8 109666.4 56465.6 Q 110566.4 56794.4 111485 56993.6 Q 111651.8 56682.2 111922.4 56305.4 Q 112193.6 55929.2 112443.2 55691 Q 110951 55472 109611.2 54992.6 Q 108270.8 54512.6 107405.6 53860.4 Q 107549.6 53709.8 107675.6 53540.6 L 106704.8 52840.4 Z M 124154 51771.2 L 121131.2 51771.2 Q 121007.6 51451.4 120842 51096.8 Q 120677 50742.8 120516.8 50432 L 119066.6 50825 Q 119272.4 51270.8 119459.6 51771.2 L 116228 51771.2 L 116228 53147.6 L 124154 53147.6 L 124154 51771.2 Z M 115908.8 54155 Q 115680.2 53475.8 115237.4 52588.4 Q 114794.6 51701.6 114335.6 50911.4 L 113082.2 51587 Q 113530.4 52415 113941.4 53337.2 L 113943.8 53342 Q 114354.2 54264.2 114544.4 54954.2 L 115908.8 54155 Z M 114716.6 56342.6 Q 114308 57564.2 113825.6 58728.2 Q 113343.2 59891.6 112935.2 60717.2 L 114422 61294.4 Q 114839 60333.8 115251.2 59211.8 Q 115663.4 58089.8 116043.8 56944.4 L 114716.6 56342.6 Z M 117186.8 57927.8 Q 116874.2 58616 116444.6 59304.2 Q 116015 59991.8 115564.4 60495.8 Q 115829.6 60665.6 116163.8 60923 Q 116497.4 61180.4 116707.4 61368.2 Q 117170.6 60785.6 117665.6 59967.2 Q 118161.2 59149.4 118550.6 58345.4 L 117186.8 57927.8 Z M 118304.6 55052 L 121929.8 55052 L 121929.8 56256.8 L 118304.6 56256.8 L 118304.6 55052 Z M 123428.6 57473 L 123428.6 53835.8 L 116904.2 53835.8 L 116904.2 57473 L 119423 57473 L 119423 60397.4 Q 119441.6 60597.2 119165 60594.2 Q 119014.4 60604.4 118596.8 60600.2 Q 118178.6 60596.6 117752 60569.6 Q 117905.6 60865.4 118049.6 61230.2 Q 118194.2 61595 118255.4 61908.8 Q 118917.2 61915.4 119424.8 61883 Q 119931.8 61850 120308 61700 Q 120696.2 61550.6 120837.8 61256 Q 120979.4 60961.4 120971 60434.6 L 120971 57473 L 123428.6 57473 Z M 121634.6 58394.6 Q 122016.8 59071.4 122393.6 59835.2 Q 122770.4 60599.6 122986.4 61184 L 124313.6 60581.6 Q 124081.4 60027.2 123694.4 59297.6 Q 123308 58568 122900.6 57903.2 L 121634.6 58394.6 Z M 127311.8 62572.4 Q 128463.2 62219 129093.8 61434.2 Q 129724.4 60650 129732.8 59586.8 Q 129731.6 58803.8 129396.2 58358 Q 129060.8 57911.6 128405.6 57903.2 Q 127902.8 57908 127559 58197.8 Q 127215.2 58488.2 127201.4 59009 Q 127216.4 59537 127554.8 59818.4 Q 127892.6 60099.8 128368.4 60102.8 Q 128445.2 60105.8 128504 60090.2 Q 128375 61091.6 126918.8 61577 L 127311.8 62572.4 Z M 139415.6 52545.8 L 147230.6 52545.8 L 147230.6 53823.2 L 148656.2 53823.2 L 148656.2 51304.4 L 144245 51304.4 Q 144119 50819 143900.6 50407.4 L 142413.8 50665.4 Q 142527.2 50957.6 142622.6 51304.4 L 138063.8 51304.4 L 138063.8 53823.2 L 139415.6 53823.2 L 139415.6 52545.8 Z M 141246.2 56084.6 Q 141851 55917.8 142284.8 55700.6 Q 142718.6 55483.4 143028.2 55224.2 Q 143702 55401.2 144398.6 55622 Q 145095.2 55842.8 145694.6 56084.6 L 141246.2 56084.6 Z M 143089.4 59733.8 L 140496.8 59733.8 L 140496.8 58947.8 L 143089.4 58947.8 L 143089.4 59733.8 Z M 148803.8 56084.6 L 146837.6 56084.6 L 147292.4 55457.6 Q 146678.6 55165.4 145765.4 54866.6 Q 144852.2 54567.2 143925.2 54339.8 L 147169.4 54339.8 L 147169.4 53208.8 L 144023.6 53208.8 Q 144041 53089.4 144054.2 52969.4 Q 144067.4 52849.4 144084.8 52730 L 142721 52730 Q 142709 52809.8 142699.4 52889.6 Q 142681.4 53049.2 142647.2 53208.8 L 139501.4 53208.8 L 139501.4 54339.8 L 142119.2 54339.8 Q 141762.8 54714.8 141045.2 54958.4 Q 140327.6 55202.6 139095.8 55347.2 Q 139218.8 55488.8 139350.8 55683.8 Q 139483.4 55878.2 139587.8 56084.6 L 137916.2 56084.6 L 137916.2 57362.6 L 145805.6 57362.6 L 145805.6 60434.6 Q 145808.6 60542 145756.4 60585.2 Q 145704.2 60627.8 145559.6 60643.4 Q 145431.8 60644 145131.2 60641.6 Q 144830.6 60639.8 144453.8 60630.8 L 144453.8 57878.6 L 139145 57878.6 L 139145 61417.4 L 140496.8 61417.4 L 140496.8 60803 L 144158.6 60803 Q 144272.6 61076.6 144367.4 61377.8 Q 144462.8 61678.4 144503 61933.4 Q 145194.2 61938.8 145719.2 61902.8 Q 146244.8 61866.8 146604.2 61724.6 Q 146983.4 61575.2 147123.2 61282.4 Q 147263 60989.6 147255.2 60471.2 L 147255.2 57362.6 L 148803.8 57362.6 L 148803.8 56084.6 Z M 154197.8 55654.4 Q 153666.2 55778.6 153138.2 55917.8 Q 153029.6 55945.4 152919.8 55973.6 L 152919.8 54155 L 154296.2 54155 L 154296.2 52803.8 L 152919.8 52803.8 L 152919.8 50481.2 L 151494.8 50481.2 L 151494.8 52803.8 L 149983.4 52803.8 L 149983.4 54155 L 151494.8 54155 L 151494.8 56318 Q 150560.6 56539.4 149847.8 56686.4 L 150228.8 58075.4 L 151494.8 57755.6 L 151494.8 60299 Q 151506.8 60545 151261.4 60533 Q 151130 60533 150807.8 60531.2 Q 150485.6 60529.4 150106.4 60520.4 Q 150249.2 60809.6 150364.4 61179.2 Q 150479.6 61549.4 150511.4 61847.6 Q 151163 61852.4 151620.8 61800.2 Q 152078.6 61747.4 152379.2 61577 Q 152687.6 61427 152806.4 61127 Q 152925.2 60827 152919.8 60299 L 152919.8 57387.2 Q 153654.2 57199.4 154370 56993.6 L 154197.8 55654.4 Z M 158634.2 60410 Q 158383.4 60422 158308.4 60296 Q 158232.8 60170 158240.6 59758.4 L 158240.6 56637.2 L 161361.8 56145.8 L 161128.4 54794 L 158240.6 55224.2 L 158240.6 52398.2 Q 159540.2 52097 160637 51685.4 L 159408.2 50579.6 Q 158502.2 50957.6 157176.8 51273.2 L 157120.4 51286.4 Q 155790.2 51600.2 154419.2 51795.8 Q 154554.2 52049 154682 52387.4 Q 154809.8 52725.8 154861.4 52988 Q 155810.6 52874 156778.4 52705.4 L 156778.4 55445.6 L 154431.2 55789.4 L 154665.2 57178.4 L 156778.4 56846.6 L 156778.4 59758.4 Q 156760.4 60910.4 157109 61364 Q 157457 61817 158388.2 61798.4 L 159740 61798.4 Q 160578.8 61817 160936.4 61199.6 Q 161294 60581.6 161386.4 59107.4 Q 161068.4 59028.8 160695.2 58860.2 Q 160322 58691.6 160059.2 58493 Q 160023.2 59628.8 159938 60032 Q 159853.4 60435.2 159605 60410 L 158634.2 60410 Z M 170774.6 58050.8 L 166485.8 58050.8 L 166485.8 57596 L 170774.6 57596 L 170774.6 58050.8 Z M 166485.8 60557.6 L 166485.8 60102.8 L 170774.6 60102.8 L 170774.6 60557.6 L 166485.8 60557.6 Z M 170774.6 59291.6 L 166485.8 59291.6 L 166485.8 58849.4 L 170774.6 58849.4 L 170774.6 59291.6 Z M 173355.2 56121.2 L 173355.2 54978.8 L 167505.8 54978.8 Q 167634.8 54720.8 167763.8 54462.2 L 172236.8 54462.2 L 172236.8 53405.6 L 168218.6 53405.6 Q 168311 53153.6 168402.8 52901.6 L 172875.8 52901.6 L 172875.8 51759.2 L 170762 51759.2 Q 171118.4 51326 171474.8 50837.6 L 169865 50444 Q 169741.4 50744 169550.6 51087.8 Q 169359.2 51431.6 169152.8 51759.2 L 166375.4 51759.2 L 166842.2 51587 Q 166698.2 51329.6 166479.8 51005 Q 166262 50680.4 166043.6 50395.4 L 164618 50825 Q 164759 51040.4 164911.4 51282.8 Q 165063.8 51525.8 165195.8 51759.2 L 163070 51759.2 L 163070 52901.6 L 166842.2 52901.6 Q 166753.4 53153.6 166646 53405.6 L 163671.8 53405.6 L 163671.8 54462.2 L 166154 54462.2 Q 166019 54720.8 165884 54978.8 L 162516.8 54978.8 L 162516.8 56121.2 L 165146.6 56121.2 Q 163871.6 57860 162062.6 58898.6 Q 162321.8 59109.2 162664.4 59437.4 Q 163007 59765.6 163193 60004.4 Q 164163.8 59362.4 165023.6 58480.4 L 165023.6 61946 L 166485.8 61946 L 166485.8 61589.6 L 170774.6 61589.6 L 170774.6 61933.4 L 172310.6 61933.4 L 172310.6 56564 L 166596.8 56564 Q 166669.4 56453 166737.8 56342.6 Q 166806.2 56232.2 166879.4 56121.2 L 173355.2 56121.2 Z M 179339 52275.2 L 184193 52275.2 L 184193 53467.4 L 185544.8 53467.4 L 185544.8 51034.4 L 178061.6 51034.4 L 178061.6 53540.6 L 179339 53540.6 L 179339 52275.2 Z M 182067.2 53381 Q 182699.6 53985.8 183324.8 54702.2 L 183353.6 54735.8 Q 183975.2 55451.6 184316 56010.8 L 185434.4 55236.8 Q 185051 54663.8 184395.8 53970.8 Q 183740.6 53278.4 183099.2 52705.4 L 182067.2 53381 Z M 180076.4 52803.8 Q 179704.4 53448.8 179113.4 54029.6 Q 178522.4 54609.8 177864.8 55015.4 Q 178100.6 55214.6 178396.4 55508.6 Q 178691.6 55802 178872.2 56010.8 Q 179578.4 55508 180251.6 54768.2 Q 180925.4 54028.4 181391.6 53221.4 L 180076.4 52803.8 Z M 177729.8 51697.4 Q 177345.8 51437.6 176757.2 51125 Q 176168.6 50811.8 175665.2 50579.6 L 174940.4 51697.4 Q 175453.4 51967.4 176030.6 52313.6 Q 176608.4 52659.8 176955.2 52938.8 L 177729.8 51697.4 Z M 177299.6 55175 Q 176896.4 54867.8 176276.6 54516.2 Q 175656.8 54164.6 175124.6 53921.6 L 174448.4 55003.4 Q 175007 55301.6 175616 55688 Q 176225 56074.4 176598.8 56391.8 L 177299.6 55175 Z M 176636 56932.4 Q 176145.2 58005.8 175613 59033.6 Q 175080.8 60061.4 174645.2 60766.4 L 175751 61798.4 Q 176217.2 60894.8 176689.4 59901.2 Q 177162.2 58908.2 177582.2 57939.8 L 176636 56932.4 Z M 185556.8 57706.4 L 185556.8 56403.8 L 182509.4 56403.8 L 182509.4 55187.6 L 181035.2 55187.6 L 181035.2 56403.8 L 178024.4 56403.8 L 178024.4 57706.4 L 180260.6 57706.4 Q 179710.4 58535.6 178943 59210 Q 178175.6 59885 177275 60299 Q 177524 60513.8 177791 60824.6 Q 178058 61135.4 178233.2 61405.4 Q 179049.2 60947.6 179763.2 60257.6 Q 180477.2 59567.6 181035.2 58714.4 L 181035.2 61835 L 182509.4 61835 L 182509.4 58751 Q 183013.4 59542.4 183636.8 60212 Q 184260.8 60881 184930.4 61331.6 Q 185124.2 61043 185408 60725 Q 185691.8 60406.4 185950.4 60201.2 Q 185193.8 59784.8 184497.2 59129 Q 183800.6 58473.2 183284 57706.4 L 185556.8 57706.4 Z M 191934.2 52607 L 196542.2 52607 L 196542.2 53921.6 L 197992.4 53921.6 L 197992.4 51218.6 L 190558.4 51218.6 L 190558.4 53921.6 L 191934.2 53921.6 L 191934.2 52607 Z M 190398.2 52017.2 Q 190013.6 51719 189412.4 51339.8 Q 188811.2 50960.6 188297 50653.4 L 187400 51624.2 Q 187922 51969.8 188510.6 52387.4 Q 189099.2 52805 189464.6 53123 L 190398.2 52017.2 Z M 189845.6 55113.8 Q 189422.6 54834.2 188773.4 54480.8 Q 188124.2 54127.4 187572.2 53847.8 L 186749 54892.4 Q 187310 55209.8 187942.4 55596.2 Q 188574.8 55982.6 188960.6 56280.8 L 189845.6 55113.8 Z M 189440 56871.2 Q 188871.2 57981.8 188232.8 59044.4 Q 187594.4 60107 187080.8 60840.2 L 188334.2 61823 Q 188893.4 60900.2 189459.8 59873.6 Q 190026.2 58847.6 190521.2 57841.4 L 189440 56871.2 Z M 196604 60385.4 Q 196505 60395 196473.2 60299 Q 196441.4 60203 196444.4 59881.4 L 196444.4 54376.4 L 191909.6 54376.4 L 191909.6 56944.4 Q 191938.4 57792.2 191691.8 58668.8 Q 191588 59001.2 191408 59322.2 Q 190964.6 60170 189771.8 60840.2 Q 189991.4 61019 190275.8 61368.2 Q 190559.6 61718 190705.4 61970.6 Q 192023 61219.4 192602.6 60160.4 Q 192887 59663.6 193048.4 59141 Q 193370 58028 193347.8 56993.6 L 193347.8 55728.2 L 195006.2 55728.2 L 195006.2 59881.4 Q 194996 60932.6 195296.6 61343.6 Q 195597.2 61754.6 196333.4 61737.2 L 197083.4 61737.2 Q 197780.6 61761.8 198089 61139.6 Q 198397.4 60516.8 198459.2 58947.8 Q 198158.6 58877.6 197792.6 58710.8 Q 197427.2 58544.6 197181.2 58345.4 Q 197167.4 59572.4 197120.6 59990 Q 197118.2 60006.2 197116.4 60021.8 Q 197067.2 60416 196935.8 60385.4 L 196604 60385.4 Z M 4308.8 79204.4 L 4308.8 76796 L 6263 76796 L 6263 79204.4 L 4308.8 79204.4 Z M 6263 75530 L 4308.8 75530 L 4308.8 73539.8 L 6263 73539.8 L 6263 75530 Z M 10170.2 72175.4 Q 10446.8 71404.4 10649.6 70614.8 L 9248.6 70295.6 Q 8978 71389.4 8553.2 72426.2 Q 8127.8 73462.4 7589.6 74252 L 7589.6 72261.8 L 5685.2 72261.8 Q 6005 71447.6 6324.2 70504.4 L 4727 70283 Q 4687.4 70728.2 4590.2 71258.6 Q 4493 71789 4370.6 72261.8 L 2981.6 72261.8 L 2981.6 81391.4 L 4308.8 81391.4 L 4308.8 80494.4 L 7589.6 80494.4 L 7589.6 74756 Q 7848.2 74927 8113.4 75114.2 Q 8379.2 75300.8 8535.8 75444.2 Q 9122.6 74630 9617.6 73502.6 L 12246.8 73502.6 Q 12152.6 76661.6 12010.4 78206.6 Q 12004.4 78269.6 11998.4 78330.2 Q 11852.6 79818.2 11595.8 80076.8 Q 11480 80194.4 11357.6 80241.2 Q 11235.2 80287.4 11055.2 80285.6 Q 10805 80288 10314.8 80276.6 Q 9824.6 80265.2 9224 80211.8 Q 9421.4 80529.2 9551.6 80924.6 Q 9681.8 81320 9703.4 81637.4 Q 10256 81657.8 10764.8 81657.2 Q 11273.6 81657.2 11632.4 81612.8 Q 11996.6 81557 12278 81413 Q 12558.8 81269.6 12812 80937.2 Q 13094 80596.4 13248.8 79506.8 Q 13347.8 78807.8 13418 77691.8 Q 13525.4 75940.4 13611.2 72839 Q 13619.6 72684.8 13622 72443 Q 13623.8 72201.2 13623.2 72175.4 L 10170.2 72175.4 Z M 11583.2 77778.8 Q 11278.4 77220.2 10767.8 76465.4 Q 10257.8 75711.2 9777.2 75051.2 L 8634.2 75702.2 Q 9104 76399.4 9585.2 77181.2 Q 10066.4 77963.6 10342.4 78540.8 L 11583.2 77778.8 Z M 16646 72581 L 24314 72581 L 24314 74031.2 L 25812.8 74031.2 L 25812.8 71253.8 L 21438.2 71253.8 Q 21343.4 70983.2 21201.8 70698.2 Q 21060.8 70413.2 20910.2 70160.6 L 19361.6 70602.8 Q 19518.2 70891.4 19656.8 71253.8 L 15208.4 71253.8 L 15208.4 74031.2 L 16646 74031.2 L 16646 72581 Z M 23834.6 74682.2 Q 23381.6 75140 22770.2 75625.4 Q 22158.2 76110.8 21512 76550 Q 21146.6 75742.4 20430.8 75063.2 Q 20836.4 74799.2 21168.2 74498 L 23895.8 74498 L 23895.8 73257.2 L 17027 73257.2 L 17027 74498 L 19140.8 74498 Q 18298.4 74951 17274.2 75293.6 Q 16250 75636.2 15196.4 75849.8 Q 15383 76080.2 15601.4 76421 Q 15820.4 76762.4 15933.2 76992.8 Q 16805 76763 17673.8 76444.4 Q 18542.6 76125.2 19349.6 75702.2 Q 19530.8 75905 19693.4 76107.2 Q 19693.4 76107.2 19693.4 76107.8 Q 18970.4 76580.6 17891.6 77025.8 Q 17564.6 77160.8 17225.6 77285.6 Q 16108.4 77696 15098 77914.4 Q 15297.8 78155 15497 78470 Q 15696.8 78785 15822.8 79044.8 Q 16889 78714.2 18069.8 78185 Q 18099.2 78172.4 18128 78159.2 Q 19307.6 77627 20246.6 77041.4 Q 20357 77284.4 20430.8 77508.8 Q 19637.6 78169.4 18414.8 78770 Q 17951 78998.6 17459 79202.6 Q 16162.4 79740.8 14913.8 80015.6 Q 15131.6 80276 15340.4 80614.4 Q 15549.2 80952.8 15675.2 81231.8 Q 16926.8 80852 18245 80227.4 Q 19563.2 79602.8 20639.6 78872.6 Q 20637.2 79319 20540 79640.6 Q 20442.8 79962.2 20283.2 80113.4 Q 20156.6 80301.2 19997.6 80357.6 Q 19838.6 80414.6 19619.6 80408.6 Q 19177.4 80414.6 18513.8 80347.4 Q 18697.4 80661.8 18793.4 81041.6 Q 18889.4 81420.8 18907.4 81735.8 Q 19469.6 81760.4 19902.2 81747.8 Q 20372.6 81745.4 20712.2 81620.6 Q 21051.2 81495.8 21365 81170.6 Q 21844.4 80757.2 22017.8 79827.8 Q 22190.6 78898.4 21942.2 77766.8 Q 21992 77736.8 22043.6 77706.8 Q 22186.4 77626.4 22323.2 77533.4 Q 22770.8 78794.6 23519.6 79740.2 Q 24269 80686.4 25370.6 81219.8 Q 25537.4 80936.6 25809.8 80591.6 Q 26082.8 80246 26341.4 80027.6 Q 25279.4 79590.8 24553.4 78743.6 Q 23828 77896.4 23466.2 76796 Q 24295.4 76233.8 25051.4 75653 L 23834.6 74682.2 Z M 33382.4 76439.6 L 34525.4 76439.6 L 33775.4 76820.6 Q 33993.8 77066 34221.2 77350.4 Q 34448.6 77634.8 34611.2 77889.8 L 33382.4 77889.8 L 33382.4 76439.6 Z M 35066 77889.8 L 35705 77533.4 Q 35549.6 77303.6 35294.6 77004.8 Q 35040.2 76706 34783.4 76439.6 L 35459 76439.6 L 35459 75210.8 L 33382.4 75210.8 L 33382.4 74055.8 L 35729.6 74055.8 L 35729.6 72777.8 L 29696 72777.8 L 29696 74055.8 L 32030.6 74055.8 L 32030.6 75210.8 L 30003.2 75210.8 L 30003.2 76439.6 L 32030.6 76439.6 L 32030.6 77889.8 L 29561 77889.8 L 29561 79081.4 L 35925.8 79081.4 L 35925.8 77889.8 L 35066 77889.8 Z M 29081.6 79794.2 L 29081.6 72101.6 L 36356 72101.6 L 36356 79794.2 L 29081.6 79794.2 Z M 27594.8 70762.4 L 27594.8 81760.4 L 29081.6 81760.4 L 29081.6 81146 L 36356 81146 L 36356 81760.4 L 37916.6 81760.4 L 37916.6 70762.4 L 27594.8 70762.4 Z M 48865.4 72482.6 L 48582.8 72556.4 L 45695 72556.4 L 46444.4 72126.2 Q 46238 71751.2 45885.2 71254.4 Q 45532.4 70757.6 45189.2 70298.6 Q 45126.8 70215.2 45068 70136 L 43753.4 70836.2 Q 44028.8 71232.8 44329.4 71691.8 Q 44630 72150.8 44859.2 72556.4 L 40067 72556.4 L 40067 73994 L 47477 73994 Q 46542.8 75176 45233.6 76365.2 Q 45025.4 76554.2 44810.6 76739 Q 43465.4 77904.2 42045.2 78762.2 L 41972 78762.2 Q 41453 78773 40784.6 79205.6 Q 40115.6 79638.8 39440.6 80359.4 L 40497.2 81735.8 Q 40881.8 81119 41262.2 80636 Q 41642 80153 41934.8 80126 Q 42185 80156.6 42584 80477 Q 42833.6 80666 43139 80850.8 Q 43754 81231.8 44550.8 81382.4 Q 45347.6 81533 46469 81527 Q 47265.8 81525.2 48227.6 81493.4 Q 48562.4 81482.6 48886.4 81470 Q 49815.2 81432.2 50401.4 81391.4 Q 50429.6 81074 50564 80616.2 Q 50698.4 80157.8 50819 79830.8 Q 49994.6 79949.6 48918.2 80027.6 Q 48701 80043.8 48483.2 80057 Q 47400.8 80124.2 46518.2 80126 Q 45550.4 80135 44778.2 80024.6 Q 44006 79914.2 43434.2 79572.8 Q 45107.6 78468.8 46683.8 77012 Q 47064.8 76659.2 47429 76294.4 Q 48938 74787.8 49995.8 73232.6 L 48865.4 72482.6 Z M 59482.4 76132.4 L 62726 76132.4 L 62726 74891 L 59482.4 74891 L 59482.4 74203.4 L 62198 74203.4 L 62198 72986.6 L 59482.4 72986.6 L 59482.4 72273.8 L 62627.6 72273.8 L 62627.6 71045 L 59482.4 71045 L 59482.4 70136 L 57983 70136 L 57983 76992.8 L 59482.4 76992.8 L 59482.4 76132.4 Z M 59211.8 78762.2 Q 58970.6 78427.4 58604.6 77996.6 Q 58239.2 77565.2 57866.6 77141 Q 57666.8 76912.4 57491.6 76709.6 L 56336.6 77361.2 Q 56779.4 77878.4 57247.4 78471.8 Q 57715.4 79065.2 57983 79499 L 59211.8 78762.2 Z M 55279.4 76968.2 L 56778.8 76968.2 L 56778.8 70160.6 L 55279.4 70160.6 L 55279.4 71069.6 L 52097 71069.6 L 52097 72311 L 55279.4 72311 L 55279.4 72974.6 L 52416.8 72974.6 L 52416.8 74190.8 L 55279.4 74190.8 L 55279.4 74952.8 L 51986.6 74952.8 L 51986.6 76181.6 L 55279.4 76181.6 L 55279.4 76968.2 Z M 53092.4 81084.2 Q 53417 80431.4 53739.8 79614.2 Q 54062 78797.6 54324.8 78085.4 L 54333.2 78061.4 L 53031.2 77533.4 Q 52793.6 78260.6 52450.4 79037 Q 52107.2 79812.8 51740.6 80420.6 L 53092.4 81084.2 Z M 56815.4 80175.2 Q 56322.8 80184.2 56169.2 80101.4 Q 56015 80018.6 56029.4 79733 L 56029.4 77447 L 54579.2 77447 L 54579.2 79757.6 Q 54552.8 80727.8 54996.8 81110.6 Q 55440.8 81493.4 56668.4 81477.8 L 58904.6 81477.8 Q 59861 81501.2 60276.2 81080 Q 60691.4 80658.8 60809 79511.6 Q 60489.8 79443.8 60114.8 79304 Q 59740.4 79164.8 59494.4 78995.6 Q 59452.4 79738.4 59313.2 79967.6 Q 59174 80196.8 58781.6 80175.2 L 56815.4 80175.2 Z M 59985.8 77693 Q 60416 78465.8 60876.2 79334 Q 60920 79416.8 60962.6 79498.4 Q 61415 80359.4 61669.4 80973.8 L 63082.4 80445.2 Q 62836.4 79916.6 62437.4 79217 Q 62038.4 78516.8 61626.2 77823.2 Q 61448.6 77523.8 61288.4 77250.8 L 59985.8 77693 Z M 71757.8 77484.2 L 64127 77484.2 L 64127 78884.6 L 71757.8 78884.6 L 71757.8 77484.2 Z M 67272.8 74842.4 Q 67438.4 74043.2 67604.6 73170.8 L 74375 73170.8 L 74375 71770.4 L 67862.6 71770.4 Q 67953.2 71278.4 68028.2 70812.2 Q 68043.8 70719.2 68059.4 70627.4 L 66560 70479.8 Q 66376.4 71724.2 66113 73097 Q 66041.6 73470.8 65967.2 73836.8 Q 65694.2 75180.2 65429.6 76181.6 L 66695 76193.6 L 73072.4 76193.6 Q 72908 77938.4 72681.2 78883.4 Q 72453.8 79828.4 72150.8 80052.2 Q 72015.2 80150 71856.2 80176.4 Q 71697.2 80203.4 71487.2 80199.8 Q 71155.4 80202.2 70503.2 80189 Q 69850.4 80175.2 69103.4 80113.4 Q 69338 80439.2 69492.2 80840 Q 69646.4 81241.4 69668.6 81576.2 Q 70353.2 81604.4 70959.2 81609.8 Q 71565.2 81615.2 71954.6 81588.2 Q 72435.2 81550.4 72777.8 81425.6 Q 73120.4 81300.2 73416.8 80986.4 Q 73832 80603 74104.4 79433.6 Q 74131.4 79319 74157.2 79194.8 Q 74420.6 77931.2 74633 75480.8 Q 74661.2 75312.2 74678 75087.8 Q 74694.2 74863.4 74694.8 74842.4 L 67272.8 74842.4 Z M 80384 75444.2 L 79069.4 75800.6 L 79069.4 74154.2 Q 79581.2 73581.2 80052.2 72897.8 Q 80523.2 72213.8 80888 71549 L 79929.2 70885.4 L 79659.2 70971.2 L 76488.8 70971.2 L 76488.8 72323 L 78762.2 72323 Q 78511.4 72732.2 78235.4 73109.6 Q 77958.8 73486.4 77680.4 73785.2 L 77680.4 76181.6 Q 77249 76281.8 76869.8 76375.4 Q 76472 76473.2 76132.4 76550 L 76451.6 77963 Q 77020.4 77797.4 77680.4 77594.6 L 77680.4 80040.2 Q 77693 80227.4 77484.2 80211.8 Q 77440.4 80211.8 77367.8 80213 Q 77214.2 80215.4 76972.4 80214.8 Q 76730.6 80213.6 76451.6 80199.8 Q 76594.4 80516 76711.4 80906 Q 76828.4 81296.6 76869.8 81612.8 Q 77429.6 81617.6 77844.8 81565.4 Q 78260 81512.6 78552.8 81342.2 Q 78851.6 81162.8 78963.2 80853.8 Q 79074.8 80545.4 79069.4 80052.2 L 79069.4 77189 Q 79806.2 76964.6 80543.6 76722.2 L 80384 75444.2 Z M 86454.2 70197.2 Q 85408.4 70528.4 83951 70791.8 Q 83927.6 70796 83904.2 70800.8 Q 82442.6 71062.4 80949.2 71229.2 L 80949.2 73478 Q 80963.6 74688.8 80837 76196 Q 80753.6 77117 80562.2 78049.4 Q 80261 79575.2 79536.2 80863.4 Q 79775.6 80961.8 80099.6 81206 Q 80424.2 81449.6 80617.4 81649.4 Q 81337.4 80381.6 81689 78810.2 Q 81982.4 77519 82099.4 76241.6 Q 82237.4 74687.6 82227.2 73478 L 82227.2 72311 Q 82718.6 72258.8 83210 72188 L 83210 73478 Q 83228.6 74658.2 83121.2 76079 Q 83048.6 76947.2 82860.8 77813 Q 82567.4 79230.2 81797 80396 Q 82001 80563.4 82290.2 80871.2 Q 82579.4 81178.4 82718.6 81391.4 Q 82830.8 81294.2 83225 81143 Q 83257.4 81130.4 83292.2 81117.8 Q 83722.4 80958.2 84819.8 80630 Q 84844.4 80781.2 84867.8 80924.6 Q 84917 81218 84955.4 81477.8 L 85974.8 81170.6 Q 85867.4 80446.4 85631 79523.6 Q 85394.6 78601.4 85102.4 77766.8 L 84144.2 78049.4 Q 84362 78728 84561.8 79499 L 84561.8 79499 L 83566.4 79745 Q 84113 78255.2 84279.2 76730 Q 84314 76442.6 84339.2 76161.2 Q 84456.2 74664.2 84438.8 73502.6 L 84438.8 72015.8 Q 84869 71945 85299.2 71856.2 Q 85386.8 74566.4 85648.4 76946 Q 85693.4 77332.4 85746.2 77705 Q 86052.8 79998.2 86736.8 81576.2 Q 86933 81279.8 87233 80972 Q 87533 80664.8 87793.4 80469.8 Q 87242 79265.6 86958.2 77397.2 Q 86841.2 76657.4 86756 75851 Q 86550.2 73817 86466.8 71622.8 Q 86991.8 71496.8 87461.6 71352.2 L 86454.2 70197.2 Z M 93630.2 77668.4 Q 93665.6 77400.8 93683.6 77115.2 Q 93693.2 76988 93704 76857.2 L 95891.6 76857.2 L 95891.6 75972.8 Q 96020 76131.2 96112.4 76264.4 Q 96152.6 76320.8 96186.2 76365.8 Q 96330.8 76151 96456.8 75899 Q 96567.2 76594.4 96744.2 77301.2 Q 96921.2 78008 97169.6 78675.8 Q 96597.8 79834.4 95547.2 80605.4 Q 95628.8 80250.2 95682.8 79648.4 Q 95736.2 79046.6 95780.6 78147.8 Q 95789.6 78012.8 95791.4 77847.8 Q 95793.8 77683.4 95793.2 77668.4 L 93630.2 77668.4 Z M 91037.6 73281.8 Q 91409.6 72479.6 91689.2 71659.4 L 91689.2 72704 L 93151.4 72704 L 93151.4 73564.4 L 91860.8 73564.4 L 91860.8 74744 L 93151.4 74744 L 93151.4 75690.2 L 91394 75690.2 L 91394 76857.2 L 92414 76857.2 Q 92364.8 78172.4 92066.6 79181.6 Q 91769 80190.2 91037.6 80814.2 L 91037.6 73281.8 Z M 95571.8 74744 L 95571.8 74744 Q 95427.8 75029.6 95264.6 75260 Q 95442.8 75438.2 95658.2 75690.2 L 94478.6 75690.2 L 94478.6 74744 L 95571.8 74744 Z M 98201.6 73686.8 Q 98118.8 75447.2 97796 76857.2 Q 97415 75428.6 97255.4 74018.6 Q 97310.6 73853 97365.8 73686.8 L 98201.6 73686.8 Z M 99934.4 73686.8 L 99934.4 72458 L 97697.6 72458 Q 97922 71505.8 98091.2 70517 L 96788.6 70283 Q 96624.8 71511.2 96336.8 72642.8 Q 96048.8 73773.8 95609 74670.2 L 95609 73564.4 L 94478.6 73564.4 L 94478.6 72704 L 95805.2 72704 L 95805.2 71549 L 94478.6 71549 L 94478.6 70455.2 L 93151.4 70455.2 L 93151.4 71549 L 91725.8 71549 Q 91892 71103.2 92021 70676.6 L 90669.2 70295.6 Q 90291.8 71650.4 89690.6 72885.2 Q 89089.4 74120 88371.2 75014 Q 88563.8 75316.4 88773.2 75794.6 L 88782.8 75816.2 Q 88991 76293.8 89084 76587.2 Q 89400.2 76206.2 89698.4 75751.4 L 89698.4 81747.8 L 91037.6 81747.8 L 91037.6 80863.4 Q 91263.2 81036.8 91526 81321.2 Q 91788.8 81605 91922.6 81797 Q 92544.2 81245 92919.2 80494.4 Q 93294.2 79744.4 93483.2 78786.8 L 94466 78786.8 Q 94421.6 79523 94367.6 79877 Q 94314.2 80231 94232.6 80322.8 Q 94115.6 80457.8 93925.4 80445.2 Q 93722.6 80454.8 93225.2 80408.6 Q 93355.4 80656.4 93440 80973.8 Q 93524.6 81291.2 93544.4 81576.2 Q 93872.6 81593 94158.8 81580.4 Q 94445.6 81567.8 94625.6 81539 Q 95040.8 81508.4 95326.4 81146 Q 95442.8 81007.4 95522.6 80703.2 Q 95699.6 80941.4 95894.6 81273.2 Q 96089.6 81605.6 96174.2 81834.2 Q 97184.6 81081.2 97808.6 80052.2 Q 98376.8 81047.6 99221.6 81747.8 Q 99383.6 81464 99651.8 81115.4 Q 99919.4 80766.2 100118.6 80556.2 Q 99107.6 79818.8 98520.8 78675.8 Q 98912.6 77643.2 99131 76393.4 Q 99349.4 75144.2 99455 73686.8 L 99934.4 73686.8 Z M 105537.8 70295.6 Q 105533.6 70480.4 105530.6 70699.4 Q 105538.4 71632.4 105414.8 72981.2 Q 105299 74204 104879.6 75549.2 Q 104460.2 76894.4 103551.2 78150.2 Q 102555.8 79535 100733 80543.6 Q 101107.4 80799.2 101429 81116.6 Q 101750 81434 101949.2 81735.8 Q 103832 80595.8 104898.8 79065.2 Q 104915.6 79041.8 104932.4 79017.8 Q 105988.4 77483 106471.4 75849.8 Q 106918.4 77246 107816 78634.4 Q 108104 79065.8 108448.4 79474.4 Q 109523.6 80790.8 111276.2 81662 Q 111429.2 81342.2 111713.6 81006.2 Q 111998.6 80670.2 112344.8 80396 Q 110631.8 79606.4 109598 78389 Q 108704.6 77346.8 108196.4 76217 Q 107688.2 75087.2 107456 74082.2 Q 107190.2 72908.6 107135 72212.6 Q 107205.8 71088.2 107220.8 70295.6 L 105537.8 70295.6 Z M 119546 77177 Q 120298.4 76737.8 120959 76169 Q 121622.6 76728.2 122433.8 77177 L 119546 77177 Z M 119619.8 80076.8 L 119619.8 78405.8 L 122187.8 78405.8 L 122187.8 80076.8 L 119619.8 80076.8 Z M 117678.2 76181.6 Q 117534.2 75990.2 117177.2 75562.4 Q 116994.8 75344 116804.6 75120.8 Q 116432.6 74684 116216 74448.8 L 116216 74154.2 L 117260 74154.2 Q 117507.8 74354.6 117753.2 74576.6 Q 117998.6 74798 118145 74952.8 Q 118608.8 74544.2 119054.6 74006.6 Q 119459.6 74618 119976.2 75210.8 Q 118756.4 76206.2 117260 76758.8 L 117678.2 76181.6 Z M 121954.4 72814.4 Q 121524.2 73628.6 120909.8 74313.8 Q 120270.8 73644.2 119853.2 72937.4 L 119939 72814.4 L 121954.4 72814.4 Z M 122876 71524.4 L 122630 71573.6 L 120651.8 71573.6 Q 120873.2 71112.8 121057.4 70652 L 119669 70271 Q 119330.6 71165.6 118791.8 71993 Q 118253 72820.4 117591.8 73466 L 117591.8 72802.4 L 116216 72802.4 L 116216 70283 L 114839.6 70283 L 114839.6 72802.4 L 113229.8 72802.4 L 113229.8 74154.2 L 114729.2 74154.2 Q 114462.2 75277.4 113987 76396.4 Q 113984 76402.4 113981 76409 Q 113505.2 77527.4 112935.2 78282.8 Q 113109.8 78561.8 113304.8 78927.8 Q 113500.4 79294.4 113610.8 79610 Q 113961.8 79133.6 114271.4 78483.8 Q 114581 77834.6 114839.6 77090.6 L 114839.6 81747.8 L 116216 81747.8 L 116216 76083.2 Q 116421.8 76411.4 116600 76725.2 Q 116778.2 77039.6 116891.6 77275.4 L 117002 77115.2 Q 117182 77343.2 117352.4 77605.4 Q 117522.8 77867.6 117629 78086 Q 117942.2 77975.6 118255.4 77828 L 118255.4 81760.4 L 119619.8 81760.4 L 119619.8 81330.2 L 122187.8 81330.2 L 122187.8 81723.2 L 123600.8 81723.2 L 123600.8 77717.6 L 123822.2 77803.4 Q 123970.4 77520.2 124223 77167.4 Q 124475 76815.2 124706.6 76587.2 Q 123096.8 76126.4 121929.8 75222.8 Q 123158.6 73865 123797.6 71954.6 L 122876 71524.4 Z M 127299.8 77643.8 Q 126467 77665.4 125905.4 78228.2 L 125904.2 78229.4 Q 125343.2 78792.8 125321 79634.6 Q 125343.2 80475.8 125904.2 81039.2 L 125905.4 81040.4 Q 126467 81603.2 127299.8 81624.8 Q 128150 81603.2 128709.8 81039.8 Q 129269.6 80476.4 129290 79634.6 Q 129269.6 78792.2 128709.8 78228.8 Q 128150 77665.4 127299.8 77643.8  Z M 127299.8 80740.4 Q 126844.4 80729 126531.8 80417.6 Q 126219.2 80106.8 126206 79634.6 Q 126219.2 79162.4 126531.8 78851 Q 126844.4 78540.2 127299.8 78528.8 Q 127772 78540.2 128082.8 78851 Q 128394.2 79162.4 128405.6 79634.6 Q 128394.2 80106.8 128082.8 80417.6 Q 127772 80729 127299.8 80740.4  Z " fill-rule="nonzero" style="fill:#666666;;fill-opacity:1;"/>
</svg>