<svg version="1.1" x="0" y="0" width="100%" height="100%" viewBox="0 0 816435.2 58316.8" xmlns="http://www.w3.org/2000/svg">
  <path d="M 12697.6 12107.2 Q 11742.4 15548.8 9638.4 19297.6 Q 9137.6 20177.6 8574.4 21038.4 Q 6214.4 24715.2 2867.2 27475.2 L 3129.6 27803.2 Q 7832 25622.4 11084.8 22260.8 Q 11440 21902.4 11777.6 21539.2 Q 14876.8 18107.2 16596.8 14598.4 Q 17198.4 14619.2 17481.6 14467.2 Q 17764.8 14315.2 17875.2 14041.6 L 12697.6 12107.2 Z M 23412.8 25576 L 7585.6 25576 L 7880 26526.4 L 13680 26526.4 Q 13619.2 29188.8 12784 32097.6 Q 12131.2 34272 10566.4 36476.8 Q 8513.6 39428.8 3980.8 42254.4 L 4342.4 42713.6 Q 9942.4 40433.6 12793.6 37652.8 Q 15368 35158.4 16454.4 32475.2 Q 17648 29483.2 17907.2 26526.4 L 23740.8 26526.4 Q 23500.8 31481.6 23052.8 34524.8 Q 22603.2 37569.6 21872 38224 Q 21504 38584 20692.8 38552 Q 20022.4 38545.6 18534.4 38452.8 Q 17046.4 38361.6 15712 38256 L 15712 38683.2 Q 16908.8 38908.8 17859.2 39276.8 Q 18809.6 39644.8 19316.8 40091.2 Q 19728 40492.8 19886.4 41164.8 Q 20044.8 41836.8 20038.4 42680 Q 21641.6 42683.2 22740.8 42348.8 Q 23840 42014.4 24657.6 41304 Q 25988.8 40241.6 26660.8 36756.8 Q 27334.4 33273.6 27606.4 27148.8 Q 28598.4 26992 28950.4 26592 L 25476.8 23576 L 23412.8 25576 Z M 21545.6 11681.6 L 21217.6 11846.4 Q 22409.6 17656 24878.4 21536 Q 27348.8 25417.6 31244.8 27836.8 Q 31616 26699.2 32436.8 25752 Q 33256 24804.8 34193.6 24428.8 L 34291.2 24035.2 Q 30665.6 22625.6 27635.2 20086.4 Q 24606.4 17547.2 22921.6 14270.4 Q 23788.8 13280 24166.4 12534.4 L 21545.6 11681.6 Z M 44712 20692.8 L 49233.6 20692.8 Q 49947.2 20700.8 50118.4 20168 Q 49262.4 19345.6 48280 18481.6 Q 48065.6 18292.8 47870.4 18120 Q 46972.8 17337.6 46907.2 17284.8 L 45137.6 19742.4 L 44712 19742.4 L 44712 13385.6 Q 45361.6 13286.4 45625.6 13046.4 Q 45888 12804.8 45924.8 12435.2 L 40976 11944 L 40976 19742.4 L 36060.8 19742.4 L 36323.2 20692.8 L 40582.4 20692.8 Q 39948.8 24454.4 38720 28057.6 Q 37489.6 31660.8 35603.2 34488 L 35963.2 34881.6 Q 38912 32366.4 40976 29212.8 L 40976 42648 L 41729.6 42648 Q 42841.6 42608 43748.8 42212.8 Q 44657.6 41817.6 44712 41532.8 L 44712 24460.8 Q 45345.6 25544 45814.4 26865.6 Q 46281.6 28187.2 46350.4 29441.6 Q 47574.4 30481.6 48587.2 30009.6 Q 49441.6 29617.6 49648 28582.4 Q 49852.8 27547.2 48952 26304 Q 47918.4 24843.2 44712 23740.8 L 44712 20692.8 Z M 61259.2 23740.8 L 54182.4 23740.8 L 54182.4 17121.6 Q 56819.2 16915.2 59387.2 16523.2 Q 61956.8 16132.8 63782.4 15680 Q 65363.2 16179.2 66011.2 15646.4 L 61686.4 11846.4 Q 60508.8 12780.8 58675.2 13905.6 Q 56841.6 15032 54902.4 16040 L 50412.8 14598.4 L 50412.8 25148.8 Q 50489.6 29328 49800 33400 Q 49668.8 34089.6 49500.8 34768 Q 48592 38779.2 45859.2 42188.8 L 46187.2 42582.4 Q 50083.2 40150.4 51796.8 36988.8 Q 53187.2 34473.6 53672 31788.8 Q 54252.8 28416 54182.4 25248 L 54182.4 24657.6 L 58604.8 24657.6 L 58604.8 42648 L 59326.4 42648 Q 60835.2 42606.4 61668.8 42246.4 Q 62502.4 41886.4 62537.6 41697.6 L 62537.6 24657.6 L 65782.4 24657.6 Q 66494.4 24665.6 66667.2 24134.4 Q 65729.6 23273.6 64694.4 22379.2 Q 64448 22166.4 64227.2 21976 Q 63291.2 21171.2 63225.6 21118.4 L 61259.2 23740.8 Z M 93569.6 39272 L 74334.4 39272 L 74334.4 21577.6 Q 75481.6 21372.8 75547.2 20627.2 L 70632 20136 L 70632 38846.4 Q 69886.4 39329.6 69385.6 39862.4 L 73318.4 41926.4 L 74531.2 40222.4 L 93569.6 40222.4 L 93569.6 42582.4 L 94289.6 42582.4 Q 95379.2 42542.4 96297.6 42147.2 Q 97214.4 41752 97272 41467.2 L 97272 21348.8 Q 97873.6 21249.6 98112 21033.6 Q 98350.4 20817.6 98385.6 20496 L 93569.6 20038.4 L 93569.6 39272 Z M 85540.8 34193.6 L 85540.8 27180.8 L 87966.4 27180.8 L 87966.4 34193.6 L 85540.8 34193.6 Z M 79904 27180.8 L 82395.2 27180.8 L 82395.2 34193.6 L 79904 34193.6 L 79904 27180.8 Z M 82395.2 19939.2 L 82395.2 26230.4 L 79904 26230.4 L 79904 19939.2 L 82395.2 19939.2 Z M 87966.4 19939.2 L 87966.4 26230.4 L 85540.8 26230.4 L 85540.8 19939.2 L 87966.4 19939.2 Z M 88523.2 36585.6 Q 89422.4 36550.4 90308.8 36208 Q 91195.2 35867.2 91308.8 35635.2 L 91308.8 20430.4 Q 92209.6 20193.6 92520 19808 L 89243.2 17284.8 L 87638.4 19022.4 L 80068.8 19022.4 L 76595.2 17547.2 L 76595.2 37110.4 L 77120 37110.4 Q 78217.6 37070.4 79040 36675.2 Q 79862.4 36280 79904 35995.2 L 79904 35144 L 87966.4 35144 L 87966.4 36585.6 L 88523.2 36585.6 Z M 93142.4 14860.8 L 68566.4 14860.8 L 68828.8 15777.6 L 98713.6 15777.6 Q 99443.2 15785.6 99630.4 15252.8 Q 98539.2 14350.4 97326.4 13427.2 Q 96918.4 13116.8 96564.8 12849.6 Q 95505.6 12056 95436.8 12009.6 L 93142.4 14860.8 Z M 125681.6 21708.8 L 125681.6 38880 L 122142.4 38880 L 122142.4 21708.8 L 125681.6 21708.8 Z M 107593.6 21708.8 L 111067.2 21708.8 L 111067.2 38880 L 107593.6 38880 L 107593.6 21708.8 Z M 118571.2 26721.6 L 114606.4 26721.6 L 114606.4 21708.8 L 118571.2 21708.8 L 118571.2 26721.6 Z M 114606.4 33734.4 L 118571.2 33734.4 L 118571.2 38880 L 114606.4 38880 L 114606.4 33734.4 Z M 114606.4 27640 L 118571.2 27640 L 118571.2 32784 L 114606.4 32784 L 114606.4 27640 Z M 125681.6 15024 L 101499.2 15024 L 101761.6 15942.4 L 113753.6 15942.4 Q 113652.8 17147.2 113520 18440 Q 113388.8 19732.8 113262.4 20792 L 107987.2 20792 L 103825.6 19219.2 L 103825.6 42451.2 L 104480 42451.2 Q 105944 42414.4 106761.6 42054.4 Q 107580.8 41692.8 107593.6 41435.2 L 107593.6 39796.8 L 125681.6 39796.8 L 125681.6 42188.8 L 126337.6 42188.8 Q 127852.8 42144 128724.8 41750.4 Q 129596.8 41356.8 129614.4 41140.8 L 129614.4 22068.8 Q 130193.6 21988.8 130515.2 21798.4 Q 130836.8 21608 131022.4 21380.8 L 127451.2 18563.2 L 125484.8 20792 L 114475.2 20792 Q 115576 19763.2 116756.8 18489.6 Q 117937.6 17216 118964.8 15942.4 L 131219.2 15942.4 Q 131948.8 15950.4 132137.6 15417.6 Q 131046.4 14532.8 129844.8 13606.4 Q 129440 13292.8 129089.6 13024 Q 128043.2 12222.4 127976 12172.8 L 125681.6 15024 Z M 150913.6 16728 Q 150510.4 17820.8 149942.4 19091.2 Q 149374.4 20361.6 148750.4 21380.8 L 142459.2 21380.8 L 141017.6 20824 Q 143000 18873.6 144588.8 16728 L 150913.6 16728 Z M 157105.6 22331.2 L 157105.6 29441.6 L 151305.6 29441.6 L 151305.6 22331.2 L 157105.6 22331.2 Z M 142033.6 22331.2 L 147603.2 22331.2 L 147603.2 29441.6 L 142033.6 29441.6 L 142033.6 22331.2 Z M 162611.2 32883.2 L 162251.2 32883.2 Q 161790.4 34259.2 161219.2 35537.6 Q 160646.4 36814.4 160185.6 37404.8 Q 159697.6 37955.2 158875.2 38129.6 Q 158054.4 38304 156582.4 38289.6 L 145179.2 38289.6 Q 143520 38304 142769.6 37958.4 Q 142020.8 37611.2 142033.6 36716.8 L 142033.6 30392 L 157105.6 30392 L 157105.6 32555.2 L 157728 32555.2 Q 158774.4 32516.8 159808 32153.6 L 159852.8 32137.6 Q 160873.6 31771.2 160972.8 31539.2 L 160972.8 23019.2 Q 162046.4 22756.8 162382.4 22299.2 L 158547.2 19382.4 L 156745.6 21380.8 L 149635.2 21380.8 Q 151158.4 20515.2 152608 19390.4 Q 154059.2 18265.6 155140.8 17252.8 Q 156139.2 17195.2 156451.2 16793.6 L 152878.4 13713.6 L 150848 15777.6 L 145276.8 15777.6 Q 146072 14648 146718.4 13516.8 Q 147366.4 13544 147640 13430.4 Q 147913.6 13316.8 147996.8 13025.6 L 142622.4 11715.2 Q 141518.4 14985.6 139555.2 18371.2 Q 138966.4 19385.6 138324.8 20355.2 Q 136192 23600 133808 25804.8 L 134102.4 26099.2 Q 136241.6 24944 138232 23347.2 L 138232 36617.6 Q 138219.2 39614.4 139956.8 40779.2 Q 141694.4 41945.6 145342.4 41894.4 L 156942.4 41894.4 Q 161244.8 41883.2 162968 41260.8 Q 163364.8 41126.4 163665.6 40966.4 Q 164955.2 40227.2 164872 39043.2 Q 164889.6 38456 164384 38150.4 Q 163880 37844.8 162643.2 37502.4 L 162611.2 32883.2 Z M 184041.6 22102.4 Q 187214.4 20963.2 190227.2 19259.2 Q 193238.4 17555.2 195772.8 15384 Q 196326.4 15507.2 196628.8 15438.4 Q 196931.2 15369.6 197115.2 15123.2 L 192627.2 12272 Q 190779.2 15088 188563.2 17473.6 Q 186347.2 19859.2 183812.8 21643.2 L 184041.6 22102.4 Z M 183976 30720 Q 187412.8 29540.8 190529.6 27668.8 Q 193646.4 25795.2 196198.4 23216 Q 196753.6 23294.4 197049.6 23224 Q 197347.2 23155.2 197508.8 22888 L 192824 20136 Q 189219.2 26574.4 183747.2 30260.8 L 183976 30720 Z M 178667.2 24068.8 Q 180083.2 23217.6 181457.6 21966.4 Q 182830.4 20716.8 183976 19251.2 Q 185024 19358.4 185286.4 18726.4 L 180764.8 16859.2 Q 180259.2 18766.4 179593.6 20611.2 Q 178928 22456 178273.6 23772.8 L 178667.2 24068.8 Z M 181224 11846.4 Q 179209.6 12929.6 176073.6 14080 Q 175044.8 14456 173958.4 14811.2 Q 170652.8 15902.4 167460.8 16564.8 L 167558.4 17022.4 Q 171491.2 16984 175456 16556.8 Q 175768 16523.2 176078.4 16488 Q 180001.6 16036.8 182894.4 15384 Q 184475.2 15958.4 185024 15449.6 L 181224 11846.4 Z M 172867.2 17416 Q 173528 18430.4 173961.6 19800 Q 174393.6 21169.6 174342.4 22528 Q 175500.8 23500.8 176467.2 23004.8 Q 177236.8 22617.6 177454.4 21680 Q 177673.6 20742.4 176963.2 19630.4 Q 176107.2 18241.6 173195.2 17219.2 L 172867.2 17416 Z M 167820.8 18169.6 Q 168462.4 19206.4 168918.4 20606.4 Q 169376 22006.4 169328 23412.8 Q 170496 24409.6 171472 23918.4 Q 172254.4 23532.8 172473.6 22577.6 Q 172694.4 21622.4 171964.8 20480 Q 171091.2 19064 168148.8 18006.4 L 167820.8 18169.6 Z M 178208 28688 L 184467.2 28688 Q 185204.8 28696 185352 28164.8 Q 184432 27369.6 183400 26526.4 Q 183163.2 26332.8 182948.8 26158.4 Q 182009.6 25396.8 181944 25345.6 L 180076.8 27771.2 L 178208 27771.2 L 178208 25083.2 Q 179265.6 24878.4 179289.6 24232 L 174440 23772.8 L 174440 27771.2 L 167363.2 27771.2 L 167624 28688 L 173097.6 28688 Q 172140.8 31731.2 170532.8 34606.4 Q 168924.8 37483.2 166641.6 39665.6 L 166969.6 40059.2 Q 171515.2 37502.4 174440 33768 L 174440 42680 L 175161.6 42680 Q 176254.4 42644.8 177201.6 42278.4 Q 178147.2 41912 178208 41632 L 178208 31179.2 Q 179227.2 32286.4 180108.8 33702.4 Q 180992 35116.8 181321.6 36520 Q 182747.2 37404.8 183726.4 36788.8 Q 184614.4 36235.2 184632 35049.6 Q 184648 33864 183315.2 32643.2 Q 181865.6 31297.6 178208 30654.4 L 178208 28688 Z M 193216 29344 Q 191084.8 33905.6 188153.6 37024 Q 185222.4 40142.4 181420.8 42220.8 L 181584 42680 Q 186312 41313.6 190075.2 38804.8 Q 193838.4 36296 196820.8 32227.2 Q 197926.4 32374.4 198196.8 31833.6 L 193216 29344 Z M 221462.4 23904 L 221462.4 28033.6 L 210812.8 28033.6 L 210812.8 23904 L 221462.4 23904 Z M 210812.8 33177.6 L 210812.8 28984 L 221462.4 28984 L 221462.4 33177.6 L 210812.8 33177.6 Z M 223822.4 17350.4 L 213892.8 17350.4 Q 214785.6 15672 215433.6 14041.6 Q 216084.8 14036.8 216366.4 13860.8 Q 216649.6 13684.8 216710.4 13385.6 L 211403.2 11780.8 Q 210723.2 14467.2 209502.4 17350.4 L 200065.6 17350.4 L 200326.4 18300.8 L 209108.8 18300.8 Q 207512 21833.6 205123.2 25108.8 Q 202734.4 28384 199540.8 30883.2 L 199835.2 31211.2 Q 203907.2 29262.4 206945.6 26427.2 L 206945.6 42582.4 L 207667.2 42582.4 Q 209132.8 42534.4 209964.8 42107.2 Q 210796.8 41678.4 210812.8 41435.2 L 210812.8 34128 L 221462.4 34128 L 221462.4 37568 Q 221536 38240 220774.4 38224 Q 220265.6 38219.2 219094.4 38161.6 Q 218361.6 38124.8 217696 38089.6 Q 216630.4 38032 216547.2 38027.2 L 216547.2 38452.8 Q 217780.8 38672 218448 39001.6 Q 219115.2 39331.2 219464 39796.8 Q 220192 40673.6 220283.2 42582.4 Q 223329.6 42305.6 224348.8 41296 Q 224513.6 41144 224646.4 40976 Q 225444.8 39857.6 225361.6 38027.2 L 225361.6 24625.6 Q 226508.8 24371.2 226868.8 23872 L 222937.6 20857.6 L 221102.4 22953.6 L 211206.4 22953.6 L 210452.8 22659.2 Q 212107.2 20529.6 213369.6 18300.8 L 229294.4 18300.8 Q 230072 18308.8 230211.2 17776 Q 229164.8 16875.2 227979.2 15944 Q 227572.8 15622.4 227220.8 15348.8 Q 226184 14547.2 226115.2 14499.2 L 223822.4 17350.4 Z M 238600 11846.4 Q 237568 16625.6 235790.4 21022.4 Q 235729.6 21176 235667.2 21329.6 Q 233872 25696 231849.6 28787.2 L 232243.2 29049.6 Q 234348.8 27401.6 236208 25214.4 L 236208 42648 L 236929.6 42648 Q 238108.8 42606.4 239043.2 42196.8 Q 239976 41787.2 240075.2 41500.8 L 240075.2 22560 Q 240960 22380.8 241057.6 21905.6 L 239124.8 21184 Q 241091.2 18030.4 242564.8 14139.2 Q 243688 14139.2 243875.2 13451.2 L 238600 11846.4 Z M 246398.4 31113.6 L 246398.4 22659.2 L 249806.4 22659.2 L 249806.4 31113.6 L 246398.4 31113.6 Z M 253313.6 23347.2 Q 254403.2 23044.8 254755.2 22593.6 L 251150.4 19808 L 249446.4 21708.8 L 246563.2 21708.8 L 242990.4 20267.2 L 242990.4 35012.8 L 243515.2 35012.8 Q 244620.8 34974.4 245484.8 34579.2 Q 246350.4 34182.4 246398.4 33899.2 L 246398.4 32064 L 249806.4 32064 L 249806.4 34390.4 L 250363.2 34390.4 Q 251337.6 34353.6 252268.8 34017.6 Q 253200 33680 253313.6 33472 L 253313.6 23347.2 Z M 257310.4 16137.6 L 242204.8 16137.6 L 242467.2 17056 L 256262.4 17056 L 256262.4 37667.2 Q 256312 38313.6 255475.2 38321.6 Q 254904 38316.8 253601.6 38256 Q 252563.2 38208 251640 38158.4 Q 250480 38097.6 250396.8 38092.8 L 250396.8 38518.4 Q 251867.2 38740.8 252649.6 39080 Q 253432 39419.2 253870.4 39862.4 Q 254721.6 40739.2 254787.2 42648 Q 257932.8 42403.2 259030.4 41300.8 Q 259257.6 41089.6 259430.4 40852.8 Q 260241.6 39609.6 260161.6 37798.4 L 260161.6 17056 L 262651.2 17056 Q 263404.8 17064 263569.6 16531.2 Q 262582.4 15620.8 261427.2 14640 Q 260985.6 14264 260606.4 13945.6 Q 259604.8 13108.8 259539.2 13057.6 L 257310.4 16137.6 Z M 278052.8 17809.6 L 283590.4 17809.6 L 283590.4 22888 L 275988.8 22888 L 276251.2 23838.4 L 295321.6 23838.4 Q 296051.2 23846.4 296238.4 23315.2 Q 295347.2 22393.6 294297.6 21436.8 Q 293980.8 21145.6 293700.8 20894.4 Q 292764.8 20056 292700.8 20004.8 L 290700.8 22888 L 287326.4 22888 L 287326.4 17809.6 L 294011.2 17809.6 Q 294739.2 17817.6 294928 17284.8 Q 294041.6 16388.8 293025.6 15462.4 Q 292768 15225.6 292536 15016 Q 291617.6 14192 291553.6 14139.2 L 289652.8 16859.2 L 287326.4 16859.2 L 287326.4 13254.4 Q 287976 13153.6 288240 12918.4 Q 288502.4 12683.2 288539.2 12337.6 L 283590.4 11910.4 L 283590.4 16859.2 L 277790.4 16859.2 L 278052.8 17809.6 Z M 268878.4 20038.4 Q 269516.8 18096 269958.4 16006.4 Q 270304 16006.4 270548.8 15908.8 L 270548.8 20038.4 L 268878.4 20038.4 Z M 278969.6 25542.4 Q 277416 25942.4 275870.4 26316.8 Q 274964.8 26537.6 274088 26755.2 L 274088 20987.2 L 278380.8 20987.2 Q 279092.8 20996.8 279265.6 20464 Q 278451.2 19571.2 277486.4 18616 Q 277222.4 18355.2 276987.2 18123.2 Q 276116.8 17275.2 276054.4 17219.2 L 274219.2 20038.4 L 274088 20038.4 L 274088 13288 Q 274736 13187.2 274985.6 12952 Q 275233.6 12716.8 275267.2 12369.6 L 270548.8 11878.4 L 270548.8 15123.2 L 266780.8 14304 Q 266728 17377.6 266329.6 20438.4 Q 265932.8 23500.8 265240 25936 L 265732.8 26164.8 Q 267460.8 24019.2 268550.4 20987.2 L 270548.8 20987.2 L 270548.8 27574.4 Q 268716.8 27995.2 267284.8 28299.2 Q 265851.2 28603.2 264979.2 28753.6 L 266780.8 33177.6 Q 267353.6 32956.8 267632 32292.8 Q 269188.8 31515.2 270548.8 30785.6 L 270548.8 42648 L 271236.8 42648 Q 272297.6 42604.8 273166.4 42156.8 Q 274035.2 41707.2 274088 41369.6 L 274088 28852.8 Q 277003.2 27203.2 278859.2 26032 Q 278964.8 25966.4 279068.8 25902.4 L 278969.6 25542.4 Z M 277889.6 30097.6 Q 278784 31236.8 279593.6 32744 Q 280401.6 34251.2 280707.2 35732.8 Q 282113.6 36662.4 283139.2 36086.4 Q 284064 35574.4 284160 34414.4 Q 284256 33256 283035.2 32017.6 Q 281700.8 30646.4 278150.4 29900.8 L 277889.6 30097.6 Z M 291619.2 28262.4 L 291225.6 28262.4 L 291225.6 25379.2 Q 292331.2 25248 292404.8 24526.4 L 287489.6 24100.8 L 287489.6 28262.4 L 276185.6 28262.4 L 276448 29212.8 L 287489.6 29212.8 L 287489.6 37995.2 Q 287531.2 38625.6 286736 38617.6 Q 286244.8 38611.2 284955.2 38536 Q 283825.6 38470.4 282806.4 38403.2 Q 281641.6 38328 281558.4 38321.6 L 281558.4 38780.8 Q 283004.8 39001.6 283787.2 39321.6 Q 284569.6 39641.6 285032 40059.2 Q 285486.4 40478.4 285696 41132.8 Q 285905.6 41785.6 286016 42648 Q 289121.6 42374.4 290171.2 41401.6 Q 290350.4 41246.4 290492.8 41075.2 Q 291308.8 39988.8 291225.6 38190.4 L 291225.6 29212.8 L 295452.8 29212.8 Q 296164.8 29220.8 296337.6 28688 Q 295548.8 27822.4 294611.2 26921.6 Q 294403.2 26721.6 294214.4 26540.8 Q 293353.6 25726.4 293289.6 25673.6 L 291619.2 28262.4 Z M 303088 34225.6 Q 302955.2 35966.4 301896 37192 Q 300835.2 38416 299548.8 38880 Q 298784 39251.2 298356.8 39899.2 Q 297929.6 40547.2 298172.8 41435.2 Q 298516.8 42368 299470.4 42593.6 Q 300424 42820.8 301384 42352 Q 302851.2 41651.2 303660.8 39683.2 Q 303702.4 39568 303742.4 39449.6 Q 304481.6 37411.2 303513.6 34225.6 L 303088 34225.6 Z M 307838.4 34619.2 Q 308219.2 36075.2 308331.2 37843.2 Q 308441.6 39611.2 308134.4 41337.6 Q 309288 42625.6 310432 42232 Q 311390.4 41910.4 311820.8 40787.2 Q 312249.6 39665.6 311670.4 38128 Q 311008 36305.6 308232 34488 L 307838.4 34619.2 Z M 313638.4 34553.6 Q 314680 35993.6 315473.6 37864 Q 316268.8 39732.8 316424 41566.4 Q 317800 42606.4 318844.8 42011.2 Q 319796.8 41473.6 319926.4 40153.6 Q 320054.4 38832 318838.4 37297.6 Q 317523.2 35617.6 313966.4 34390.4 L 313638.4 34553.6 Z M 306692.8 30720 L 306692.8 23937.6 L 320192 23937.6 L 320192 30720 L 306692.8 30720 Z M 320880 33603.2 Q 321936 33563.2 322979.2 33182.4 Q 323027.2 33164.8 323073.6 33148.8 Q 324094.4 32763.2 324190.4 32555.2 L 324190.4 24625.6 Q 325180.8 24339.2 325534.4 23904 L 321699.2 21020.8 L 319865.6 23019.2 L 315145.6 23019.2 L 315145.6 18169.6 L 326451.2 18169.6 Q 327220.8 18177.6 327401.6 17644.8 Q 326428.8 16769.6 325334.4 15827.2 Q 324995.2 15534.4 324697.6 15280 Q 323729.6 14454.4 323665.6 14401.6 L 321568 17252.8 L 315145.6 17252.8 L 315145.6 13353.6 Q 315916.8 13206.4 316219.2 12931.2 Q 316523.2 12656 316555.2 12238.4 L 311083.2 11846.4 L 311083.2 23019.2 L 306953.6 23019.2 L 302792 21380.8 L 302792 33964.8 L 303350.4 33964.8 Q 304612.8 33918.4 305622.4 33480 Q 306633.6 33043.2 306692.8 32752 L 306692.8 31670.4 L 320192 31670.4 L 320192 33603.2 L 320880 33603.2 Z M 320356.8 34422.4 Q 321838.4 35920 323203.2 37969.6 Q 324568 40019.2 325140.8 42057.6 Q 326636.8 42972.8 327606.4 42248 Q 328532.8 41560 328412.8 40067.2 Q 328294.4 38572.8 326577.6 36955.2 Q 324792 35262.4 320651.2 34193.6 L 320356.8 34422.4 Z M 337100.8 34521.6 Q 335870.4 34553.6 335089.6 35352 Q 334308.8 36152 334283.2 37339.2 Q 334308.8 38476.8 335089.6 39251.2 Q 335870.4 40027.2 337100.8 40059.2 Q 338328 40027.2 339096 39251.2 Q 339862.4 38476.8 339886.4 37339.2 Q 339862.4 36152 339096 35352 Q 338328 34553.6 337100.8 34521.6  Z M 335822.4 15811.2 Q 336158.4 15769.6 336544 15777.6 Q 338459.2 15801.6 339571.2 16838.4 Q 340681.6 17875.2 340705.6 19644.8 Q 340705.6 21022.4 340086.4 22147.2 Q 339467.2 23272 338214.4 24428.8 Q 336872 25689.6 336260.8 26608 Q 335649.6 27524.8 335659.2 28590.4 Q 335657.6 29281.6 335790.4 29974.4 Q 335923.2 30667.2 336216 31604.8 L 337526.4 31604.8 L 337526.4 30163.2 Q 337534.4 28995.2 338275.2 28204.8 Q 339014.4 27414.4 340385.6 26467.2 Q 340478.4 26398.4 340574.4 26329.6 Q 342968 24622.4 343904 23200 Q 344841.6 21776 344801.6 19873.6 Q 344782.4 17412.8 343032 16003.2 Q 341280 14593.6 338017.6 14564.8 Q 335011.2 14568 333185.6 16027.2 Q 331358.4 17486.4 331104 20364.8 Q 331726.4 21331.2 332939.2 21315.2 Q 334708.8 21356.8 335102.4 19185.6 L 335822.4 15811.2 Z " fill-rule="nonzero" style="fill:#333333;;fill-opacity:1;"/>
</svg>