<svg version="1.1" x="0" y="0" width="100%" height="100%" viewBox="0 0 235520 86272" xmlns="http://www.w3.org/2000/svg">
  <path d="M 5531.9 15425.2 Q 5566.2 16219 5231.6 17017 Q 5188.2 17110.1 5135.7 17202.5 Q 4730.4 17991.4 3495.6 18622.8 Q 3828.1 18853.8 4221.5 19222.7 Q 4615.6 19591.6 4829.1 19898.2 Q 6188.5 19135.2 6688.3 18136.3 Q 6848.6 17838.1 6952.9 17530.8 Q 7270 16498.3 7237.8 15482.6 L 7237.8 13891.5 L 5531.9 13891.5 L 5531.9 15425.2 Z M 11180.2 19898.2 L 12957.5 19898.2 L 12957.5 13934.9 L 11180.2 13934.9 L 11180.2 19898.2 Z M 11208.9 9261 Q 10441.7 10221.4 9287.4 10880.8 Q 7932.9 10221.4 7008.2 9261 L 11208.9 9261 Z M 15481 9261 L 15481 7827.4 L 10563.5 7827.4 Q 10426.3 7475.3 10176.4 7085.4 Q 9926.5 6695.5 9660.5 6365.1 L 8012 6809.6 Q 8352.2 7286.3 8628 7827.4 L 2908.3 7827.4 L 2908.3 9261 L 5158.8 9261 Q 6159.1 10684.1 7610.2 11655 Q 5373.7 12432.7 2535.2 12716.2 Q 2787.2 13008.8 3065.8 13459.6 Q 3344.4 13911.1 3467.6 14235.9 Q 5084.6 13991.6 6556.7 13597.5 Q 8028.8 13203.4 9302.1 12615.4 Q 11710.8 13701.8 15021.8 14035 Q 15182.8 13671 15464.9 13221.6 Q 15746.3 12771.5 16025.6 12472.6 Q 13222.8 12264.7 11065.4 11583.6 Q 12398.9 10658.9 13301.9 9261 L 15481 9261 Z M 19910.6 17203.2 L 19910.6 14550.9 L 27150 14550.9 L 27150 17203.2 L 19910.6 17203.2 Z M 27150 10307.5 L 27150 12859.7 L 19910.6 12859.7 L 19910.6 10307.5 L 27150 10307.5 Z M 23752.9 8572.9 Q 24179.2 7702.1 24584.5 6723.5 L 22362 6437.2 Q 22273.1 6927.9 22116.3 7483.7 Q 21960.2 8038.8 21774 8572.9 L 18176 8572.9 L 18176 19855.5 L 19910.6 19855.5 L 19910.6 18937.8 L 27150 18937.8 L 27150 19840.8 L 28956.7 19840.8 L 28956.7 8572.9 L 23752.9 8572.9 Z M 41558.1 17375.4 L 35823.7 17375.4 L 35823.7 13934.9 L 41558.1 13934.9 L 41558.1 17375.4 Z M 44195.7 9146.2 L 44195.7 7469 L 31609 7469 L 31609 9146.2 L 35350.5 9146.2 Q 34733.8 10890.6 33622.9 12522.3 Q 32512 14154 30949.6 15253.7 Q 31234.5 15506.4 31583.8 15885.8 Q 31933.1 16265.2 32153.6 16572.5 Q 33218.3 15805.3 34089.1 14780.5 L 34089.1 19884.2 L 35823.7 19884.2 L 35823.7 19023.9 L 41558.1 19023.9 L 41558.1 19826.8 L 43392.8 19826.8 L 43392.8 12300.4 L 35852.4 12300.4 Q 36709.2 10755.5 37328.7 9146.2 L 44195.7 9146.2 Z M 49715.2 22694 L 51091.4 22694 L 51091.4 6437.2 L 49715.2 6437.2 L 49715.2 22694 Z M 63246 15010.1 Q 62840.7 14232.4 62128.1 13269.9 Q 61415.5 12306.7 60623.1 11454.8 Q 60880.7 9254 60966.8 6752.2 L 59088.7 6694.8 Q 59013.1 10184.3 58528.7 13007.4 Q 58397.1 13729.8 58223.5 14396.9 Q 57578.1 17005.1 56092.7 18608.1 Q 56456.7 18816 56963.5 19166.7 Q 56992.2 19187 57020.9 19206.6 Q 57524.2 19558.7 57784.6 19798.1 Q 58735.2 18634 59347 17079.3 Q 59958.8 15525.3 60307.4 13619.2 Q 60829.6 14328.3 61260.8 15018.5 Q 61692 15709.4 61955.9 16256.8 L 63246 15010.1 Z M 64608.2 6694.8 Q 64506 10302.6 63913.8 13123.6 Q 63761.2 13813.8 63563.8 14448.7 Q 62792.4 17044.3 61052.9 18594.1 Q 61427.4 18812.5 61934.9 19163.2 Q 61963.6 19183.5 61991.6 19203.1 Q 62494.9 19554.5 62744.8 19783.4 Q 63686.3 18825.8 64342.9 17572.1 Q 64999.5 16319.1 65425.1 14780.5 Q 65884.3 16176.3 66611.6 17443.3 Q 67339.6 18710.3 68378.4 19611.9 Q 68591.2 19215 68968.5 18758.6 Q 69345.1 18302.9 69654.5 18034.8 Q 68442.1 17145.8 67660.9 15715.7 Q 67292 15058.4 67004.3 14350.7 Q 66397.4 12814.9 66099.2 11368.7 Q 66386.2 9239.3 66500.3 6766.9 L 64608.2 6694.8 Z M 73439.4 13418.3 L 73439.4 11798.5 L 76564.2 11798.5 Q 76629.3 12630.1 76779.8 13418.3 L 73439.4 13418.3 Z M 80349.1 8716.4 L 80349.1 10221.4 L 73439.4 10221.4 L 73439.4 8716.4 L 80349.1 8716.4 Z M 83087.5 15010.1 L 83087.5 13418.3 L 78557.1 13418.3 Q 78399.6 12630.1 78327.5 11798.5 L 82083.7 11798.5 L 82083.7 7139.3 L 71647.4 7139.3 L 71647.4 17217.2 Q 71631.3 17689.7 71399.6 17995.6 Q 71168.6 18300.8 70915.9 18450.6 Q 71121 18720.8 71344.3 19165.3 Q 71567.6 19610.5 71676.1 19955.6 Q 71871.4 19833.1 72367 19686.8 Q 72586.1 19621.7 72908.8 19537 Q 73653.6 19342.4 75289.5 18942 Q 76089.6 18745.3 77166.9 18479.3 Q 77099.7 18169.2 77048.6 17708.6 Q 76997.5 17248 76994.7 16873.5 L 73439.4 17676.4 L 73439.4 15010.1 L 77152.2 15010.1 Q 77733.9 17012.8 78744.7 18289.6 Q 78820.3 18383.4 78898 18472.3 Q 79935.4 19677.7 81252.1 19712 Q 82171.2 19747 82671.7 19212.9 Q 82726.3 19152 82777.4 19080.6 Q 83238.7 18459.7 83402.5 16802.1 Q 83045.5 16690.1 82637.4 16475.9 Q 82229.3 16261.7 81926.2 15999.2 Q 81875.8 17056.9 81741.4 17542 Q 81607.7 18027.1 81352.9 18020.1 Q 80746 17999.1 80112.5 17181.5 Q 79479 16364.6 79001.6 15010.1 L 83087.5 15010.1 Z M 85424.1 19869.5 L 87202.1 19869.5 L 87202.1 9935.1 L 85424.1 9935.1 L 85424.1 19869.5 Z M 85639 7411.6 Q 86138.8 7936.6 86607.1 8558.9 Q 87074.7 9180.5 87316.2 9662.8 L 88749.8 8745.1 Q 88485.9 8245.3 87990.3 7657.3 Q 87494.7 7069.3 86972.5 6580 L 85639 7411.6 Z M 90169.4 14594.3 L 92936.5 14594.3 L 92936.5 15955.8 L 90169.4 15955.8 L 90169.4 14594.3 Z M 90169.4 11869.9 L 92936.5 11869.9 L 92936.5 13218.1 L 90169.4 13218.1 L 90169.4 11869.9 Z M 88649.7 17332 L 94527.6 17332 L 94527.6 10508.4 L 88649.7 10508.4 L 88649.7 17332 Z M 97795.9 7196.7 L 89251.7 7196.7 L 89251.7 8787.8 L 96018.6 8787.8 L 96018.6 18020.1 Q 96043.8 18288.9 95789 18278.4 Q 95737.9 18278.4 95651.8 18279.8 Q 95469.1 18282.6 95197.5 18281.2 Q 94925.2 18280.5 94642.4 18264.4 Q 94797.8 18589.9 94934.3 19013.4 Q 95070.8 19436.2 95129.6 19783.4 Q 95796.7 19789.7 96310.5 19737.2 Q 96824.3 19684 97179.9 19497.1 Q 97528.5 19301.8 97665 18964.4 Q 97802.2 18627.7 97795.9 18034.8 L 97795.9 7196.7 Z M 106799.3 17805.2 L 106799.3 14924 L 111085.4 14924 L 111085.4 13274.8 L 106799.3 13274.8 L 106799.3 10752 L 111630 10752 L 111630 9088.8 L 106799.3 9088.8 L 106799.3 6508.6 L 105007.3 6508.6 L 105007.3 9088.8 L 102799.5 9088.8 Q 103168.4 8099.7 103472.9 7067.9 L 101709.6 6680.8 Q 101336.5 8167.6 100677.8 9526.3 Q 100019.1 10884.3 99172.1 11813.2 Q 99517.9 12001.5 99971.5 12306 Q 100425.1 12609.8 100706.5 12831 Q 101415.6 11963.7 102039.3 10752 L 105007.3 10752 L 105007.3 13274.8 L 101122.3 13274.8 L 101122.3 14924 L 105007.3 14924 L 105007.3 17805.2 L 99473.1 17805.2 L 99473.1 19482.4 L 112361.5 19482.4 L 112361.5 17805.2 L 106799.3 17805.2 Z M 117895 8114.4 Q 117400.1 7799.4 116633.6 7398.3 Q 116631.5 7397.6 116629.4 7396.2 Q 115863.6 6995.8 115228.7 6680.8 L 114268.3 7913.5 Q 114424.4 8002.4 114595.2 8099 Q 115215.4 8446.9 115851.7 8822.8 Q 116488 9198.7 116877.2 9490.6 L 117895 8114.4 Z M 117206.9 11984.7 Q 116754 11712.4 116063.1 11363.1 Q 115372.2 11013.8 114755.5 10713.5 Q 114627.4 10651.2 114511.9 10594.5 L 113594.2 11855.9 Q 114261.3 12215 115024.3 12646.2 Q 115788 13077.4 116261.2 13404.3 L 117206.9 11984.7 Z M 115228.7 19726 Q 115890.2 18671.8 116540.5 17504.2 Q 117190.8 16336.6 117766.2 15196.3 L 116518.8 14049 Q 115855.2 15322.3 115119.5 16527.7 Q 114383.1 17733.1 113795.1 18565.4 L 115228.7 19726 Z M 124532.4 17747.8 L 120231.6 17747.8 L 120231.6 15640.8 L 124532.4 15640.8 L 124532.4 17747.8 Z M 126869.7 12285.7 L 126869.7 10651.9 L 123228.3 10651.9 L 123228.3 8687.7 Q 124934.2 8361.5 126339.1 7842.1 L 125034.3 6493.9 Q 123880 6943.3 122194.4 7275.1 Q 122003.3 7313.6 121808.7 7350 Q 120089.5 7667.1 118325.5 7842.1 Q 118481.6 8148 118624.4 8562.4 Q 118767.2 8976.1 118826.7 9304.4 Q 120185.4 9181.9 121608.5 8974 L 121608.5 10651.9 L 117794.9 10651.9 L 117794.9 12285.7 L 121608.5 12285.7 L 121608.5 14092.4 L 118683.9 14092.4 L 118683.9 19884.2 L 120231.6 19884.2 L 120231.6 19296.2 L 124532.4 19296.2 L 124532.4 19812.1 L 126152.9 19812.1 L 126152.9 14092.4 L 123228.3 14092.4 L 123228.3 12285.7 L 126869.7 12285.7 Z M 135427.9 13734 L 135427.9 10651.9 L 138668.2 10651.9 L 138668.2 13734 L 135427.9 13734 Z M 130396.3 13734 L 130396.3 10651.9 L 133621.9 10651.9 L 133621.9 13734 L 130396.3 13734 Z M 135427.9 8974 L 135427.9 6493.9 L 133621.9 6493.9 L 133621.9 8974 L 128675.7 8974 L 128675.7 16199.4 L 130396.3 16199.4 L 130396.3 15411.2 L 133621.9 15411.2 L 133621.9 19884.2 L 135427.9 19884.2 L 135427.9 15411.2 L 138668.2 15411.2 L 138668.2 16128 L 140460.2 16128 L 140460.2 8974 L 135427.9 8974 Z M 146423.5 8099.7 Q 145953.8 7721.7 145185.2 7322 Q 144417.3 6922.3 143699.8 6652.1 L 142782.8 7898.8 Q 143498.2 8213.8 144243 8652 Q 144987.8 9090.2 145434.4 9490.6 L 146423.5 8099.7 Z M 145893.6 11970.7 Q 145404.3 11603.9 144635.7 11212.6 Q 143866.4 10821.3 143141.2 10551.1 L 142266.2 11841.2 Q 142984.4 12156.2 143739.7 12583.2 Q 144495 13010.9 144933.2 13389.6 L 145893.6 11970.7 Z M 145004.6 14049 Q 144418 15320.9 143759.3 16522.1 Q 143099.9 17724 142567.2 18565.4 L 144072.9 19625.9 Q 144650.4 18573.1 145235.6 17418.1 Q 145821.5 16263.1 146323.4 15124.2 L 145004.6 14049 Z M 151628 8974 Q 151377.4 9944.9 151103 10866.8 Q 150827.9 11788.7 150566.8 12501.3 L 153018.2 12501.3 Q 152512.8 14246.4 151599.3 15583.4 Q 150201.4 13970.6 149448.9 11970.7 Q 149616.9 10547.6 149721.2 8974 L 151628 8974 Z M 153893.2 10966.9 L 153591.5 11039 L 152659.8 11039 Q 152930.7 10166.8 153190.4 9214.8 Q 153450.1 8262.1 153677.6 7368.9 L 146653.1 7368.9 L 146653.1 8974 L 148058 8974 Q 147932 12236.7 147299.9 14744.1 L 147253.7 14913.5 Q 146597.1 17391.5 145033.3 18909.1 Q 145372.1 19090.4 145818 19408.9 Q 146264.6 19727.4 146495.6 19941.6 Q 147425.2 18928.7 148032.8 17595.9 Q 148640.4 16263.1 148989.7 14637 Q 149677.8 15823.5 150538.1 16858.8 Q 149430.7 17959.2 148044 18608.1 Q 148340.1 18823 148685.2 19212.2 Q 149030.3 19601.4 149219.3 19912.9 Q 150573.8 19217.1 151714.1 18048.8 Q 152907.6 19127.5 154423.1 19798.1 Q 154628.2 19448.8 154946.7 19045.6 Q 155264.5 18642.4 155555.7 18378.5 Q 154022 17780 152789.3 16730 Q 154279.6 14597.8 154953.7 11411.4 L 153893.2 10966.9 Z M 159168.4 16156.7 L 159168.4 14508.2 L 160774.2 14508.2 L 160774.2 15927.1 L 159168.4 16156.7 Z M 160774.2 8587.6 L 160774.2 10049.2 L 159168.4 10049.2 L 159168.4 8587.6 L 160774.2 8587.6 Z M 159168.4 11497.5 L 160774.2 11497.5 L 160774.2 13059.9 L 159168.4 13059.9 L 159168.4 11497.5 Z M 163626.7 16944.9 L 163541.3 15526 L 162437.4 15683.5 L 162437.4 8587.6 L 163268.3 8587.6 L 163268.3 7067.9 L 156745.7 7067.9 L 156745.7 8587.6 L 157533.9 8587.6 L 157533.9 16386.3 Q 157429.6 16398.9 157326.7 16412.2 Q 156919.3 16464.7 156588.2 16500.4 L 156917.9 18106.2 Q 157760.7 17976 158738.6 17810.8 Q 159715.8 17645.6 160774.2 17461.5 L 160774.2 19855.5 L 162437.4 19855.5 L 162437.4 17160.5 L 163626.7 16944.9 Z M 167813.4 9590.7 Q 167422.8 12070.8 166580 14035 Q 165777.1 12016.9 165362 9590.7 L 167813.4 9590.7 Z M 168530.2 7942.2 L 168243.2 7999.6 L 163369.1 7999.6 L 163369.1 9590.7 L 163871 9590.7 Q 164167.1 11358.2 164600.4 12929 Q 165033 14500.5 165663 15827 Q 164501.7 17651.2 162909.9 18636.8 Q 163179.4 18865.7 163478.3 19226.2 Q 163777.2 19586.7 163971.1 19912.9 Q 165462.1 18916.1 166566 17404.1 Q 167540.4 18837.7 168902.6 19798.1 Q 169118.9 19460 169445.8 19084.8 Q 169772 18709.6 170063.9 18479.3 Q 168526 17522.4 167526.4 15898.4 Q 169117.5 12895.4 169590.7 8214.5 L 168530.2 7942.2 Z M 183840.6 13447 L 183840.6 12070.8 L 177260.6 12070.8 Q 177458 11727.1 177633 11340 L 182565.2 11340 L 182565.2 10006.5 L 178163.6 10006.5 Q 178217.5 9835 178271.4 9669.8 Q 178325.3 9503.9 178378.5 9332.4 L 183353.4 9332.4 L 183353.4 7984.9 L 180887.3 7984.9 Q 181182 7518 181504.7 6953.1 Q 181553.7 6868.4 181604.1 6780.9 L 179783.4 6379.8 Q 179657.4 6754.3 179439.7 7182 Q 179222 7610.4 179009.2 7984.9 L 175425.2 7984.9 L 176228.1 7712.6 Q 176103.5 7402.5 175866.2 7040.6 Q 175628.9 6679.4 175353.8 6379.8 L 173834.1 6823.6 Q 174042 7087.5 174228.2 7394.1 Q 174415.1 7700 174536.9 7984.9 L 171841.2 7984.9 L 171841.2 9332.4 L 176658.6 9332.4 Q 176533.3 9669.8 176386.3 10006.5 L 172586.7 10006.5 L 172586.7 11340 L 175683.5 11340 Q 175443.4 11727.1 175181.6 12070.8 L 171225.2 12070.8 L 171225.2 13447 L 173734 13447 Q 172547.5 14329 170866.8 14780.5 Q 171169.2 15076.6 171495.4 15509.9 Q 171822.3 15943.2 172028.1 16314.2 Q 173375.6 15866.2 174422.1 15181.6 L 174422.1 15511.3 Q 174455 16130.1 174130.2 16833.6 Q 173994.4 17101 173763.4 17362.1 Q 173193.6 18050.9 171712.4 18579.4 Q 172007.1 18835.6 172339.6 19233.2 Q 172672.1 19631.5 172859.7 19941.6 Q 174532.7 19278.7 175243.9 18370.1 Q 175636.6 17891.3 175836.8 17390.8 Q 176188.2 16441.6 176156.7 15583.4 L 176156.7 14565.6 L 175253.7 14565.6 Q 175841 14060.2 176342.9 13447 L 178823 13447 Q 179328.4 14067.2 179941.6 14579.6 L 178751.6 14579.6 L 178751.6 19855.5 L 180557.6 19855.5 L 180557.6 15066.8 Q 181758.8 15901.9 183195.9 16371.6 Q 183391.2 16021.6 183704.8 15612.1 Q 184018.4 15202.6 184299.8 14938 Q 183357.6 14710.5 182498.7 14332.5 Q 181639.8 13954.5 180944.7 13447 L 183840.6 13447 Z M 192986.8 7268.1 Q 193546.1 8428.7 194298.6 9573.2 Q 195051.8 10717 195868.7 11727.1 L 188299.6 11727.1 Q 189111.6 10752.7 189801.1 9601.2 Q 190489.9 8450.4 190979.9 7196.7 L 189145.2 6694.8 Q 188529.9 8318.1 187509.3 9718.1 Q 186488 11118.1 185216.8 12042.1 Q 185550.7 12281.5 185978.4 12687.5 Q 186406.8 13093.5 186665.1 13375.6 Q 187116.6 13027.7 187525.4 12572.7 L 187525.4 13418.3 L 189833.3 13418.3 Q 189682.1 14703.5 189092 15829.1 Q 188824.6 16312.1 188420 16746.1 Q 187512.1 17759 185575.2 18407.2 Q 185877.6 18704 186182.8 19135.2 Q 186488 19565.7 186650.4 19926.9 Q 188815.5 19101.6 189884.4 17840.9 Q 190445.8 17199 190800 16473.1 Q 191465.7 15048.6 191654 13418.3 L 194650 13418.3 Q 194557.6 15576.4 194428.1 16615.2 Q 194297.9 17654.7 194076.7 17877.3 Q 193865.3 18077.5 193503.4 18063.5 Q 193232.5 18065.6 192725.7 18054.4 Q 192218.2 18043.2 191625.3 17991.4 Q 191854.2 18370.8 191999.8 18841.2 Q 192145.4 19311.6 192169.9 19712 Q 192822.3 19735.1 193388.6 19728.1 Q 193954.9 19721.1 194349 19669.3 Q 194753.6 19632.9 195064.4 19481 Q 195374.5 19329.1 195639.1 18981.2 Q 195981.4 18616.5 196155 17315.2 Q 196183 17111.5 196208.2 16880.5 Q 196364.3 15398.6 196456.7 12486.6 L 196456.7 12443.9 Q 196765.4 12779.2 197065 13068.3 Q 197163.7 13164.9 197259.6 13260.8 Q 197511.6 12909.4 197904.3 12493.6 Q 198297 12077.8 198635.8 11813.2 Q 197624.3 10971.1 196614.2 9753.8 Q 196373.4 9462.6 196143.1 9160.9 Q 195177.8 7900.9 194578.6 6666.1 L 192986.8 7268.1 Z " fill-rule="nonzero" style="fill:#333333;;fill-opacity:1;"/>
  <path d="M 5144.6 30703.4 Q 4671.2 32032.4 3932.6 33240.8 Q 3194 34449.8 2343.2 35299.4 Q 2546.6 35600 2787.2 36070.4 L 2801.6 36098 Q 3041 36568.4 3153.8 36860 Q 3525.8 36445.4 3915.8 35975 L 3915.8 42119 L 5390.6 42119 L 5390.6 33701.6 Q 6081.8 32451.8 6570.2 31146.2 L 5144.6 30703.4 Z M 13955 34046 L 13955 32657.6 L 9187.4 32657.6 Q 9534.2 31904.6 9789.2 31133.6 L 8376.2 30777.2 Q 7952 32116.4 7272.2 33338 Q 6591.8 34559.6 5771 35409.8 Q 6020.6 35601.8 6357.8 35906 Q 6695 36210.8 6889.4 36429.8 Q 7307 35946.8 7717.4 35339 Q 8127.8 34731.8 8499.2 34046 L 8966 34046 L 8966 42131.6 L 10465.4 42131.6 L 10465.4 39403.4 L 13807.4 39403.4 L 13807.4 38051.6 L 10465.4 38051.6 L 10465.4 36663.2 L 13647.8 36663.2 L 13647.8 35336 L 10465.4 35336 L 10465.4 34046 L 13955 34046 Z M 18526.4 32792.6 Q 18347.6 32382.2 18005.6 31880 Q 17663.6 31377.8 17309.6 30949.4 L 16031.6 31478 Q 16367 31928 16690.4 32450 Q 17014.4 32972 17174.6 33357.8 L 18526.4 32792.6 Z M 20541.2 33505.4 Q 20543 33452.6 20544.8 33400.4 Q 20563.4 32839.4 20565.8 32337.8 L 20565.8 30666.8 L 19079 30666.8 L 19079 32325.8 Q 19079 32878.4 19042.4 33505.4 L 15269.6 33505.4 L 15269.6 34992.2 L 18870.2 34992.2 Q 18640.4 36390.2 17886.8 37800.8 Q 17747 38051.6 17585 38297.6 Q 16706 39685.4 14962.4 40804.4 Q 15255.8 41003 15597.2 41319.2 Q 15938.6 41634.8 16130 41898.2 Q 17964.2 40657.4 18910.4 39130.4 Q 19241 38614.4 19490 38084 Q 20196.8 36515.6 20394.2 34992.2 L 23957.6 34992.2 Q 23869.4 37584.2 23730.2 38844.2 Q 23591 40104.8 23355.2 40337.6 Q 23240 40454.6 23117.6 40495.4 Q 22994.6 40536.8 22814.6 40533.8 Q 22556 40536.2 22080.8 40526.6 Q 21605 40517 21033.2 40472.6 Q 21239.6 40808 21377 41231.6 Q 21514.4 41654.6 21536.6 42008.6 Q 22100 42029.6 22621.4 42027.2 Q 23142.8 42024.8 23502.8 41972 Q 23885.6 41924 24175.4 41776.4 Q 24465.8 41629.4 24719.6 41295.8 Q 25008.2 40956.2 25170.2 39845 Q 25244 39344.6 25302.2 38643.2 Q 25430.6 37075.4 25530.2 34205.6 Q 25531.4 34032.8 25536.8 33782 Q 25541.6 33530.6 25542.8 33505.4 L 20541.2 33505.4 Z M 22986.8 38371.4 Q 22751.6 37892 22334 37276.4 Q 21916.4 36660.8 21487.4 36135.2 L 20258.6 36700.4 Q 20678 37262.6 21071.6 37898 Q 21465.2 38534 21672.2 39022.4 L 22986.8 38371.4 Z M 34869.2 35434.4 L 34869.2 39944 L 36319.4 39944 L 36319.4 35434.4 L 38358.8 35434.4 L 38358.8 34082.6 L 33038.6 34082.6 L 33038.6 34070.6 L 33038.6 32559.2 Q 34413.8 32487.8 35775.2 32299.4 Q 37137.2 32111 38236.4 31772.6 L 37044.2 30678.8 Q 36116 30955.4 34745 31124.6 Q 34561.4 31148 34374.2 31169 Q 32971.4 31323.8 31551.2 31367 L 31551.2 34058 Q 31568.6 35086.4 31432.4 36299 Q 31389.8 36632.6 31324.4 36965.6 Q 31107.2 38174 30470 39170 Q 30743 39306.2 31130.6 39573.8 Q 31518.2 39841.4 31736 40042.4 Q 32361.2 39087.2 32645 37863.2 Q 32929.4 36638.6 33001.4 35434.4 L 34869.2 35434.4 Z M 30396.2 33014 Q 30081.8 32536.4 29553.2 31946 Q 29024.6 31356.2 28516.4 30851 L 27398 31588.4 Q 27897.2 32115.8 28406 32740.4 Q 28914.2 33365 29192 33837.2 L 30396.2 33014 Z M 30039.8 35028.8 L 27226.4 35028.8 L 27226.4 36466.4 L 28614.8 36466.4 L 28614.8 39428 Q 27806.6 39790.4 26943.2 40706 L 27926.6 42094.4 Q 28257.8 41523.8 28619 41060.6 Q 28980.8 40598 29265.8 40571 Q 29505.2 40596.8 29898.8 40878.2 Q 30171.8 41064.2 30519.2 41246.6 Q 31179.8 41617.4 32015.6 41755.4 Q 32850.8 41892.8 34008.8 41885.6 Q 34793 41884.4 35762 41856.8 Q 36233 41843.6 36680.6 41827.4 Q 37602.8 41793.8 38150 41762.6 Q 38177 41430.8 38309.6 40990.4 Q 38442.8 40550 38580.2 40226.6 Q 37735.4 40349.6 36632.6 40424.6 Q 36347 40444.4 36060.2 40460 Q 34952 40521.2 34058 40521.8 Q 33033.2 40532 32196.8 40426.4 Q 31360.4 40321.4 30740.6 39981.2 Q 30401 39798.2 30153.8 39635 Q 30095.6 39597.8 30039.8 39563 L 30039.8 35028.8 Z M 50561 32718.8 Q 50277.8 32271.2 49787 31734.2 Q 49296.2 31197.2 48791.6 30740.6 L 47697.8 31416.2 Q 48193.4 31902.2 48663.8 32466.8 Q 49134.2 33031.4 49381.4 33480.8 L 50561 32718.8 Z M 42414.2 30752.6 Q 41844.8 32163.8 40958 33420.8 Q 40071.2 34677.8 39059.6 35544.8 Q 39266.6 35839.4 39510.8 36293 Q 39755 36746.6 39870.2 37032.2 Q 40527.8 36435.8 41148.2 35655.8 L 41148.2 42107 L 42672.2 42107 L 42672.2 33468.2 Q 43335.8 32337.8 43815.2 31207.4 L 42414.2 30752.6 Z M 50745.2 35164.4 L 50536.4 33788 L 47034.2 34242.8 Q 46908.2 32660.6 46874.6 30839 L 45387.8 30839 Q 45449 32777 45584.6 34439 L 43102.4 34770.8 L 43311.2 36183.8 L 45731.6 35852 Q 46045.4 38684 46863.8 40311.2 Q 47682.2 41938.4 49221.8 42107 Q 49709 42162.8 50130.2 41649.2 Q 50194.4 41564.6 50256.2 41461.4 Q 50658.2 40827.2 50880.8 39207.2 Q 50654 39087.8 50284.4 38853.8 Q 49915.4 38619.2 49688.6 38371.4 Q 49617.8 39390.8 49493.6 39869 Q 49369.4 40347.2 49160 40325 Q 48423.8 40208.6 47931.2 38967.2 Q 47439.2 37726.4 47181.8 35655.8 L 50745.2 35164.4 Z M 57958.4 36810.8 L 59101.4 36810.8 L 58351.4 37191.8 Q 58569.8 37437.2 58797.2 37721.6 Q 59024.6 38006 59187.2 38261 L 57958.4 38261 L 57958.4 36810.8 Z M 59642 38261 L 60281 37904.6 Q 60125.6 37674.8 59870.6 37376 Q 59616.2 37077.2 59359.4 36810.8 L 60035 36810.8 L 60035 35582 L 57958.4 35582 L 57958.4 34427 L 60305.6 34427 L 60305.6 33149 L 54272 33149 L 54272 34427 L 56606.6 34427 L 56606.6 35582 L 54579.2 35582 L 54579.2 36810.8 L 56606.6 36810.8 L 56606.6 38261 L 54137 38261 L 54137 39452.6 L 60501.8 39452.6 L 60501.8 38261 L 59642 38261 Z M 53657.6 40165.4 L 53657.6 32472.8 L 60932 32472.8 L 60932 40165.4 L 53657.6 40165.4 Z M 52170.8 31133.6 L 52170.8 42131.6 L 53657.6 42131.6 L 53657.6 41517.2 L 60932 41517.2 L 60932 42131.6 L 62492.6 42131.6 L 62492.6 31133.6 L 52170.8 31133.6 Z M 73367.6 40177.4 L 65945.6 40177.4 L 65945.6 34550 L 64434.2 34550 L 64434.2 41553.8 L 73367.6 41553.8 L 73367.6 42107 L 74842.4 42107 L 74842.4 34488.2 L 73367.6 34488.2 L 73367.6 40177.4 Z M 71291 35963 L 70221.8 35963 L 70221.8 34930.4 L 71291 34930.4 L 71291 35963 Z M 71291 38125.4 L 70221.8 38125.4 L 70221.8 37068.8 L 71291 37068.8 L 71291 38125.4 Z M 67899.2 37068.8 L 68968.4 37068.8 L 68968.4 38125.4 L 67899.2 38125.4 L 67899.2 37068.8 Z M 67899.2 34930.4 L 68968.4 34930.4 L 68968.4 35963 L 67899.2 35963 L 67899.2 34930.4 Z M 66707.6 33738.8 L 66707.6 39317.6 L 72556.4 39317.6 L 72556.4 33738.8 L 66707.6 33738.8 Z M 64286.6 31391.6 L 64286.6 32743.4 L 75002 32743.4 L 75002 31391.6 L 64286.6 31391.6 Z M 87375.8 35459 L 87375.8 33947.6 L 82546.4 33947.6 Q 82634.6 33098.6 82661 32278.4 Q 82688 31458.2 82693.4 30707 Q 82694 30686.6 82694 30666.8 L 81096.8 30666.8 Q 81093.8 30906.8 81092 31155.2 Q 81105.2 32479.4 80973.8 33947.6 L 76500.8 33947.6 L 76500.8 35459 L 80727.8 35459 Q 80414.6 36970.4 79493 38321.6 Q 79376 38486 79247.6 38646.2 Q 78230 39962 76267.4 40865.6 Q 76596.2 41106.8 76887.8 41449.4 Q 77180 41792 77361.2 42107 Q 79295.6 41150.6 80387 39795.2 Q 81478.4 38439.8 81956.6 36884.6 Q 82665.2 38668.4 83786 39987.2 Q 84907.4 41306 86564.6 42094.4 Q 86751.2 41763.2 87054.8 41364.8 Q 87358.4 40967 87646.4 40718.6 Q 85926.8 40001.6 84791 38637.2 Q 83654.6 37272.8 83050.4 35459 L 87375.8 35459 Z M 90288.2 32067.8 L 88985.6 32067.8 L 88985.6 38039.6 L 90288.2 38039.6 L 90288.2 32067.8 Z M 91013 35544.8 Q 91042.4 36974 90777.2 38283.2 Q 90708.2 38587.4 90611.6 38881.4 Q 90225.8 40144.4 89108.6 41136.2 Q 89380.4 41305.4 89698.4 41583.2 Q 90016.4 41861 90214.4 42094.4 Q 91408.4 41001.2 91853.6 39590.6 Q 92012.6 39117.8 92111.6 38621 Q 92380.4 37139.6 92352.8 35557.4 L 92352.8 30691.4 L 91013 30691.4 L 91013 35544.8 Z M 99774.2 32546.6 L 99774.2 31220 L 92770.4 31220 L 92770.4 32546.6 L 95535.2 32546.6 L 95535.2 33640.4 L 93102.2 33640.4 L 93102.2 40349.6 L 94416.8 40349.6 L 94416.8 34955 L 95535.2 34955 L 95535.2 42107 L 96899 42107 L 96899 34955 L 98127.8 34955 L 98127.8 38912 Q 98140.4 39099.2 97968.2 39084.2 Q 97877.6 39084.2 97658 39082.4 Q 97438.4 39080.6 97181.6 39071.6 Q 97313.6 39340.4 97418 39684.8 Q 97522.4 40029.2 97562.6 40325 Q 98040.2 40330.4 98398.4 40286.6 Q 98756 40243.4 99012.8 40091.6 Q 99284 39929 99384.2 39653.6 Q 99485 39378.8 99479.6 38948.6 L 99479.6 33640.4 L 96899 33640.4 L 96899 32546.6 L 99774.2 32546.6 Z M 102735.8 42758 Q 103887.2 42404.6 104517.8 41619.8 Q 105148.4 40835.6 105156.8 39772.4 Q 105155.6 38989.4 104820.2 38543.6 Q 104484.8 38097.2 103829.6 38088.8 Q 103326.8 38093.6 102983 38383.4 Q 102639.2 38673.8 102625.4 39194.6 Q 102640.4 39722.6 102978.8 40004 Q 103316.6 40285.4 103792.4 40288.4 Q 103869.2 40291.4 103928 40275.8 Q 103799 41277.2 102342.8 41762.6 L 102735.8 42758 Z M 115638.2 30691.4 Q 115164.8 32028.8 114426.2 33239.6 Q 113688.2 34450.4 112836.8 35299.4 Q 113033 35583.8 113268.2 36035.6 L 113274.2 36046.4 Q 113509.4 36498.2 113622.8 36773.6 Q 114010.4 36368.6 114397.4 35852 L 114397.4 42107 L 115847 42107 L 115847 33603.8 Q 116501.6 32387 116990 31133.6 L 115638.2 30691.4 Z M 119828.6 40632.2 Q 119246.6 40648.4 119068.4 40484.6 Q 118889.6 40321.4 118907 39784.4 L 118907 35852 L 120098.6 35385.2 L 120098.6 39219.2 L 121463 39219.2 L 121463 34844.6 L 122741 34340.6 Q 122731.4 35541.8 122712.8 36180.8 Q 122694.8 36819.8 122667.2 36970.4 Q 122622.8 37150.4 122549 37210.4 Q 122474.6 37269.8 122347.4 37265.6 Q 122237.6 37265 122023.4 37257.8 Q 121809.8 37250.6 121598 37241 Q 121728.8 37496 121812.8 37878.2 Q 121897.4 38260.4 121917.2 38580.2 Q 122252 38593.4 122633 38563.4 Q 123014 38532.8 123293.6 38408 Q 123605.6 38283.8 123777.8 38021 Q 123949.4 37758.2 123994.4 37302.2 Q 124048.4 36888.2 124072.4 35824.4 Q 124096.4 34761.2 124104.8 33149 L 124154 32927.6 L 123158.6 32546.6 L 122691.8 32878.4 L 121463 33357.8 L 121463 30703.4 L 120098.6 30703.4 L 120098.6 33886.4 L 118907 34353.2 L 118907 32018.6 L 117456.8 32018.6 L 117456.8 34918.4 L 115970 35496.2 L 116535.2 36786.2 L 117456.8 36429.8 L 117456.8 39784.4 Q 117434 41000 117902 41477 Q 117921.8 41497.4 117943.4 41516.6 Q 118437.2 41968.4 119705.6 41947.4 L 122421.2 41947.4 Q 123536 41964.8 123996.8 41432.6 Q 124014.2 41412.8 124031 41391.8 Q 124473.8 40836.2 124584.2 39514.4 Q 124274.6 39435.2 123905 39277.4 Q 123535.4 39120.2 123281.6 38948.6 Q 123207.8 39964.4 123022.4 40310.6 L 123021.2 40311.8 Q 122835.2 40657.4 122310.8 40632.2 L 119828.6 40632.2 Z M 127459.4 33615.8 Q 127196 33288.8 126891.2 32952.2 Q 126586.4 32616.2 126304.4 32325.8 L 125296.4 33124.4 Q 125727.2 33593.6 126155 34141.4 Q 126583.4 34688.6 126820.4 35102.6 L 127459.4 34574.6 L 127459.4 36552.8 Q 126852.2 37038.2 126293.6 37458.8 Q 125735 37880 125321 38162.6 L 126033.8 39428 Q 126576.8 38996 127157.6 38493.8 Q 127307.6 38365.4 127459.4 38236.4 L 127459.4 42119 L 128872.4 42119 L 128872.4 30666.8 L 127459.4 30666.8 L 127459.4 33615.8 Z M 136700 36589.4 L 135372.8 36589.4 L 135372.8 35397.8 L 133922.6 35397.8 L 133922.6 36589.4 L 130162.4 36589.4 Q 132179 36135.2 133832.6 35152.4 Q 134032.4 35030 134223.8 34898 Q 135810.2 33838.4 136662.8 32055.2 L 135704.6 31563.8 L 135458.6 31613 L 133357.4 31613 Q 133631 31333.4 133848.8 31035.2 L 132337.4 30654.2 Q 131835.2 31361 130992.2 32012 Q 130148.6 32663.6 129130.4 33075.2 Q 129356 33261.8 129639.2 33536 Q 129921.8 33810.2 130101.2 34033.4 Q 131145.8 33530 132116.6 32768 L 134598.8 32768 Q 133947.2 33551.6 133001 34131.8 Q 132811.4 33879.2 132554 33631.4 Q 132297.2 33383 132042.8 33185.6 L 130961.6 33800 Q 131195.6 33998.6 131425.4 34242.8 Q 131655.2 34487 131834 34721.6 Q 130602.2 35237.6 129240.8 35496.2 Q 129430.4 35709.2 129617.6 36015.2 Q 129804.2 36320.6 129929 36589.4 L 129265.4 36589.4 L 129265.4 37929.2 L 131072 37929.2 L 129929 38519 Q 130366.4 39033.8 130761.8 39629.6 Q 131157.2 40224.8 131354.6 40694 L 132632.6 39993.2 Q 132405.8 39534.8 131990.6 38970.2 Q 131574.8 38405.6 131145.8 37929.2 L 133922.6 37929.2 L 133922.6 40546.4 Q 133941.2 40770.8 133664.6 40755.2 Q 133491.8 40755.8 133058 40752.2 Q 132624.8 40748 132128.6 40730.6 Q 132281.6 41037.2 132411.2 41412.8 Q 132541.4 41788.4 132583.4 42094.4 Q 133292.6 42101 133829 42060.8 Q 134365.4 42020.6 134733.8 41861 Q 135104.6 41709.2 135242 41400.2 Q 135380 41091.8 135372.8 40571 L 135372.8 37929.2 L 136700 37929.2 L 136700 36589.4 Z M 148950.8 36589.4 L 144122 36589.4 L 144122 32866.4 L 148238.6 32866.4 L 148238.6 31416.2 L 138456.8 31416.2 L 138456.8 32866.4 L 142598 32866.4 L 142598 36589.4 L 137818.4 36589.4 L 137818.4 38064.2 L 142598 38064.2 L 142598 42131.6 L 144122 42131.6 L 144122 38064.2 L 148950.8 38064.2 L 148950.8 36589.4 Z M 139206.8 33653 Q 139509.2 34290.8 139756.4 34990.4 Q 140003.6 35690.6 140103.8 36208.4 L 141528.8 35766.2 Q 141417.2 35231.6 141138.8 34550 Q 140861 33867.8 140546 33259.4 L 139206.8 33653 Z M 146382.8 36183.8 Q 146700.2 35700.8 147049.4 35019.8 Q 147399.2 34338.8 147734.6 33615.8 L 146174 33222.8 Q 145991 33842 145699.4 34551.2 Q 145407.8 35260.4 145104.8 35815.4 L 146382.8 36183.8 Z M 159039.2 40398.8 Q 158843 40412 158784.8 40282.4 Q 158726 40152.2 158732 39723.2 L 158732 31158.2 L 152195 31158.2 L 152195 34906.4 Q 152219 36056.6 152013.8 37337 Q 151872.8 38150.6 151539.8 38937.8 Q 151034.6 40178 149823.2 41160.8 Q 150092.6 41337.2 150442.4 41663 Q 150792.2 41988.8 150978.8 42230 Q 152213 41219 152812.4 39858.2 Q 153234.2 38924 153437.6 37947.2 Q 153721.4 36525.2 153731 35274.8 Q 154293.8 35952.8 154904 36719.6 Q 154950.8 36778.4 154997 36837.2 Q 155600 37599.2 155967.2 38162.6 L 157159.4 37154.6 Q 156856.4 36738.8 156383 36190.4 Q 155909.6 35642.6 155411 35087 Q 155054.6 34688 154751 34340.6 L 153731 35127.2 L 153731 34918.4 L 153731 32620.4 L 157233.2 32620.4 L 157233.2 39710.6 Q 157221.2 40914.8 157566.2 41374.4 Q 157911.8 41834 158756.6 41811.8 L 159887.6 41811.8 Q 160725.8 41828 161068.4 41111.6 Q 161411.6 40395.2 161484.8 38752.4 Q 161167.4 38664.2 160790.6 38486.6 Q 160413.2 38309 160133 38100.8 Q 160103.6 39438.2 160030.4 39932 Q 159956.6 40425.8 159752 40398.8 L 159039.2 40398.8 Z M 164052.8 39575.6 L 164052.8 37167.2 L 166007 37167.2 L 166007 39575.6 L 164052.8 39575.6 Z M 166007 35901.2 L 164052.8 35901.2 L 164052.8 33911 L 166007 33911 L 166007 35901.2 Z M 169914.2 32546.6 Q 170190.8 31775.6 170393.6 30986 L 168992.6 30666.8 Q 168722 31760.6 168297.2 32797.4 Q 167871.8 33833.6 167333.6 34623.2 L 167333.6 32633 L 165429.2 32633 Q 165749 31818.8 166068.2 30875.6 L 164471 30654.2 Q 164431.4 31099.4 164334.2 31629.8 Q 164237 32160.2 164114.6 32633 L 162725.6 32633 L 162725.6 41762.6 L 164052.8 41762.6 L 164052.8 40865.6 L 167333.6 40865.6 L 167333.6 35127.2 Q 167592.2 35298.2 167857.4 35485.4 Q 168123.2 35672 168279.8 35815.4 Q 168866.6 35001.2 169361.6 33873.8 L 171990.8 33873.8 Q 171896.6 37032.8 171754.4 38577.8 Q 171748.4 38640.8 171742.4 38701.4 Q 171596.6 40189.4 171339.8 40448 Q 171224 40565.6 171101.6 40612.4 Q 170979.2 40658.6 170799.2 40656.8 Q 170549 40659.2 170058.8 40647.8 Q 169568.6 40636.4 168968 40583 Q 169165.4 40900.4 169295.6 41295.8 Q 169425.8 41691.2 169447.4 42008.6 Q 170000 42029 170508.8 42028.4 Q 171017.6 42028.4 171376.4 41984 Q 171740.6 41928.2 172022 41784.2 Q 172302.8 41640.8 172556 41308.4 Q 172838 40967.6 172992.8 39878 Q 173091.8 39179 173162 38063 Q 173269.4 36311.6 173355.2 33210.2 Q 173363.6 33056 173366 32814.2 Q 173367.8 32572.4 173367.2 32546.6 L 169914.2 32546.6 Z M 171327.2 38150 Q 171022.4 37591.4 170511.8 36836.6 Q 170001.8 36082.4 169521.2 35422.4 L 168378.2 36073.4 Q 168848 36770.6 169329.2 37552.4 Q 169810.4 38334.8 170086.4 38912 L 171327.2 38150 Z M 180887.6 39772.4 L 180887.6 37044.2 L 183836.6 37044.2 L 183836.6 39772.4 L 180887.6 39772.4 Z M 176574.2 37044.2 L 179400.8 37044.2 L 179400.8 39772.4 L 176574.2 39772.4 L 176574.2 37044.2 Z M 179400.8 32878.4 L 179400.8 35582 L 176574.2 35582 L 176574.2 32878.4 L 179400.8 32878.4 Z M 183836.6 35582 L 180887.6 35582 L 180887.6 32878.4 L 183836.6 32878.4 L 183836.6 35582 Z M 175112 31465.4 L 175112 41996 L 176574.2 41996 L 176574.2 41246.6 L 183836.6 41246.6 L 183836.6 41996 L 185360.6 41996 L 185360.6 31465.4 L 175112 31465.4 Z M 195326 33345.8 L 189698 33345.8 L 189698 34488.2 L 195326 34488.2 L 195326 33345.8 Z M 194207.6 38666 Q 194082.8 38673.8 194045 38607.8 Q 194007.2 38541.8 194011.4 38309.6 L 194011.4 36540.2 L 195879.2 36540.2 L 195879.2 35348.6 L 189071.6 35348.6 L 189071.6 36540.2 L 190619.6 36540.2 Q 190551.8 37490 190161.8 38087 Q 189771.8 38684 188764.4 39035 Q 188985.8 39224 189204.8 39532.4 Q 189424.4 39841.4 189525.8 40104.2 Q 190815.2 39602.6 191327.6 38727.8 Q 191840.6 37853 191922.2 36540.2 L 192745.4 36540.2 L 192745.4 38322.2 Q 192727.4 39149 192983.6 39485 Q 193239.8 39821 193986.8 39809 L 194822 39809 Q 195394.4 39829.4 195674.6 39441.8 Q 195954.8 39054.2 196038.8 38015 Q 195758.6 37955.6 195444.2 37827.8 Q 195129.8 37699.4 194933 37548.2 Q 194918 38255 194863.4 38471 Q 194809.4 38687.6 194674.4 38666 L 194207.6 38666 Z M 188739.8 40251.2 L 188739.8 32546.6 L 196247.6 32546.6 L 196247.6 40251.2 L 188739.8 40251.2 Z M 187289.6 31182.8 L 187289.6 42119 L 188739.8 42119 L 188739.8 41615.6 L 196247.6 41615.6 L 196247.6 42119 L 197771 42119 L 197771 31182.8 L 187289.6 31182.8 Z M 202010.6 33284 L 207491 33284 L 207491 33812.6 L 202010.6 33812.6 L 202010.6 33284 Z M 202010.6 31932.2 L 207491 31932.2 L 207491 32436.2 L 202010.6 32436.2 L 202010.6 31932.2 Z M 210182 35225.6 L 205562 35225.6 Q 205426.4 34964.6 205254.8 34721.6 L 208953.2 34721.6 L 208953.2 31035.2 L 200609.6 31035.2 L 200609.6 34721.6 L 204357.8 34721.6 L 203792.6 34893.8 Q 203906 35041.4 204001.4 35225.6 L 199344.2 35225.6 L 199344.2 36380.6 L 210182 36380.6 L 210182 35225.6 Z M 201974 39624.8 Q 201456.2 40025.6 200661.8 40371.2 Q 199868 40716.8 199037 40952 Q 199291.4 41142.2 199604 41443.4 Q 199916 41744.6 200106.2 41972 Q 200930.6 41650.4 201801.8 41174.6 Q 202672.4 40698.8 203313.2 40165.4 L 201974 39624.8 Z M 202305.8 37818.2 L 207294.2 37818.2 L 207294.2 38506.4 L 202305.8 38506.4 L 202305.8 37818.2 Z M 208769 39501.8 L 208769 36822.8 L 200904.8 36822.8 L 200904.8 39501.8 L 204087.2 39501.8 L 204087.2 40816.4 Q 204099.8 41001.2 203853.8 41001.2 Q 203714 41010.8 203325.2 41008.4 Q 202937 41006.6 202539.2 40988.6 Q 202670.6 41234.6 202778.6 41534 Q 202887.2 41832.8 202944.8 42107 Q 203588 42111.8 204076.4 42087.2 Q 204565.4 42062 204923 41947.4 Q 205276.4 41834 205416.2 41588 Q 205555.4 41341.4 205549.4 40878.2 L 205549.4 39501.8 L 208769 39501.8 Z M 206078 40448 Q 206862.2 40759.4 207709.4 41163.8 Q 207789.2 41202.2 207867.8 41240.6 Q 208703 41646.2 209223.8 41984 L 210243.8 41087 Q 209667.2 40740.2 208809.2 40361 Q 208735.4 40328 208661 40295.6 Q 207794.6 39920 207024.2 39661.4 L 206078 40448 Z M 215969.6 36073.4 L 214839.2 36393.2 L 214839.2 34414.4 L 215859.2 34414.4 L 215859.2 33026 L 214839.2 33026 L 214839.2 30666.8 L 213500 30666.8 L 213500 33026 L 212922.2 33026 Q 213033.2 32295.2 213106.4 31563.8 L 211890.2 31355 Q 211809.8 32462.6 211641.2 33513.2 Q 211473.2 34563.2 211190 35311.4 Q 211410.8 35441.6 211724 35640.2 Q 212037.8 35839.4 212222 35987.6 Q 212477 35321 212676.8 34414.4 L 213500 34414.4 L 213500 36761.6 Q 212234 37118 211300.4 37326.8 L 211656.8 38715.2 Q 212247.8 38557.4 212910.2 38352.2 Q 213198.2 38264.6 213500 38174.6 L 213500 42143.6 L 214839.2 42143.6 L 214839.2 37769 Q 215120.6 37685 215393 37598 Q 215778.8 37473.8 216166.4 37364 L 215969.6 36073.4 Z M 218157.2 32559.2 Q 218421.2 31748 218612 30900.2 L 217284.8 30654.2 Q 217007.6 32029.4 216503 33247.4 Q 215997.8 34465.4 215269.4 35286.8 Q 215510 35437.4 215845.4 35680.4 Q 216180.8 35922.8 216375.2 36110.6 Q 217100 35204 217641.2 33911 L 218267.6 33911 Q 217857.2 35275.4 217163 36498.8 Q 216469.4 37722.8 215552 38469.8 Q 215846.6 38631.8 216152.6 38853.8 Q 216458.6 39075.8 216670.4 39293 Q 217541 38441.6 218234.6 37113.8 Q 218341.4 36912.2 218442.8 36704 Q 219101 35334.8 219484.4 33911 L 220061.6 33911 Q 219642.2 35918 218818.4 37685 Q 218667.2 38001.8 218502.8 38303 Q 217601 39986.6 216252.2 40988.6 Q 216566.6 41152.4 216894.2 41385.2 Q 217222.4 41617.4 217444.4 41836.4 Q 218695.4 40770.8 219572 39058.4 Q 219896 38435.6 220170.2 37758.8 Q 220910 35901.8 221290.4 33911 L 221352.2 33911 Q 221223.2 36791.6 221072.6 38267 Q 221031.8 38677.4 220988 39000.2 Q 220828.4 40158.2 220626.8 40386.8 Q 220427 40641.8 220172 40620.2 Q 219993.2 40621.4 219708.2 40613.6 Q 219423.2 40606.4 219078.8 40571 Q 219245.6 40887.2 219350.6 41279 Q 219455.6 41670.8 219484.4 41996 Q 219885.2 42015.8 220247.6 42010.4 Q 220609.4 42004.4 220872.8 41959.4 Q 221172.2 41902.4 221397.8 41764.4 Q 221624 41626.4 221831 41320.4 Q 222100.4 40992.2 222280.4 39845 Q 222383.6 39185 222470 38170.4 Q 222620 36396.2 222752.6 33222.8 Q 222762.2 33068 222769.4 32826.2 Q 222777.2 32584.4 222777.2 32559.2 L 218157.2 32559.2 Z M 10514.6 51267.8 L 7442.6 51267.8 L 7442.6 52472 L 10514.6 52472 L 10514.6 51267.8 Z M 3792.8 52398.2 L 5660.6 52398.2 L 5660.6 58517.6 L 6692.6 58517.6 L 6692.6 51083 L 2810 51083 L 2810 58578.8 L 3792.8 58578.8 L 3792.8 52398.2 Z M 10035.2 59636 L 10035.2 57768.2 L 10871 57768.2 L 10871 56551.4 L 10035.2 56551.4 L 10035.2 54880.4 L 8916.8 54880.4 L 8916.8 59856.8 L 8351.6 59967.2 L 8351.6 55544 L 7270.4 55544 L 7270.4 60164 L 6656 60262.4 L 6754.4 60741.8 Q 6552.2 60321.2 6253.4 59787.8 Q 5954.6 59254.4 5660.6 58787.6 L 5009.6 59144 Q 5198 58447.4 5259.8 57747.8 Q 5321.6 57048.8 5316.8 56416.4 L 5316.8 53086.4 L 4173.8 53086.4 L 4173.8 56416.4 Q 4191.8 57254 4029.8 58264.4 Q 3927.8 58847.6 3704 59406.8 Q 3335 60377 2441 61036.4 Q 2652.2 61211 2877.2 61445 Q 3102.2 61679.6 3240.2 61872.2 Q 3854 61406.6 4248.8 60821.6 Q 4644.2 60236 4862 59586.8 Q 5146.4 60087.8 5410.4 60605 Q 5674.4 61122.2 5820.2 61503.2 L 6791 60926 L 6926.6 61515.8 Q 7842.8 61328.6 8948 61085.6 Q 10052.6 60843.2 11190.2 60581.6 L 11067.2 59439.2 L 10035.2 59636 Z M 13905.8 54524 L 13905.8 53307.2 L 12124.4 53307.2 Q 12102.8 52290.8 12099.8 51255.2 Q 12363.2 51666.2 12583.4 52137.2 Q 12803.6 52607.6 12910.4 52963.4 L 13955 52508.6 Q 13837.4 52136 13595.6 51677.6 Q 13353.8 51219.8 13070.6 50837.6 L 12099.8 51218.6 L 12111.8 50493.2 L 10858.4 50493.2 Q 10859.6 50562.2 10860.2 50631.8 Q 10875.2 51947 10907.6 53307.2 L 6951.2 53307.2 L 6951.2 54524 L 10944.8 54524 Q 11006.6 56556.2 11190.8 58260.8 Q 11364.2 59854.4 11714 60849.8 Q 12086.6 61915.4 12738.8 61946 Q 13394.6 61974.2 13697.6 61431.2 L 13706 61415.6 Q 14005.4 60862.4 14102.6 59390 Q 13857.8 59259.2 13606.4 59066 Q 13355 58872.8 13156.4 58640.6 Q 13147.4 60655.4 12972.2 60680 Q 12750.2 60648.8 12566.6 59567.6 Q 12458.6 58935.8 12370.4 58037.6 Q 12221.6 56508.2 12149 54524 L 13905.8 54524 Z M 24977.6 55040 L 24707 55138.4 L 22765.4 55138.4 L 23060.6 54659 Q 22730.6 54506.6 22283.6 54338 Q 22146.8 54285.2 22004 54228.8 Q 22784.6 53697.2 23515.4 53093.6 Q 24245.6 52490.6 24842 51894.2 L 23798 51071 L 23466.2 51156.8 L 16118 51156.8 L 16118 52496.6 L 22052.6 52496.6 Q 21309.2 53138.6 20492 53651.6 Q 19756.4 53378.6 19090.4 53148.8 Q 18811.4 53051.6 18563 52963.4 L 17838.2 54069.2 Q 18437 54293.6 19137.8 54571.4 Q 19838 54849.2 20529.2 55138.4 L 14938.4 55138.4 L 14938.4 56526.8 L 19791.8 56526.8 L 19791.8 60299 Q 19794.8 60434.6 19725.8 60486.8 Q 19656.8 60539 19484.6 60545 Q 19274 60545.6 18724.4 60542 Q 18174.8 60538.4 17604.8 60520.4 Q 17775.8 60818.6 17924 61206.8 Q 18072.2 61595 18132.8 61921.4 Q 18924.8 61926.8 19527.8 61889 Q 20130.8 61851.2 20553.8 61700 Q 20988.2 61551.2 21155.6 61236.2 Q 21323 60921.2 21315.8 60348.2 L 21315.8 56526.8 L 23908.4 56526.8 Q 23674.4 56946.2 23424.8 57338 Q 23174.6 57729.8 22949.6 58038.2 L 24203 58763 Q 24725.6 58130.6 25236.8 57284 Q 25748 56437.4 26169.2 55556 L 24977.6 55040 Z M 36638.6 51243.2 L 36319.4 51329 L 27791.6 51329 L 27791.6 52766.6 L 34881.8 52766.6 Q 34262.6 53321 33524 53857.4 Q 32784.8 54393.2 32055.2 54782 L 32055.2 60225.8 Q 32073.8 60523.4 31686.8 60508.4 Q 31624.4 60508.4 31515.2 60509 Q 31197.2 60511.4 30652.4 60508.4 Q 30107.6 60506 29536.4 60483.8 Q 29719.4 60793.4 29891 61206.8 Q 30062.6 61620.8 30126.2 61958 Q 31009.4 61971.8 31671.2 61922.6 Q 32333.6 61874 32792.6 61712.6 Q 33237.8 61554.8 33417.8 61217.6 Q 33597.8 60880.4 33591.2 60262.4 L 33591.2 55519.4 Q 34757.6 54821.6 35856.8 53921.6 Q 36956 53021.6 37818.2 52103 L 36638.6 51243.2 Z M 41922.8 53061.8 L 41922.8 52472 Q 43615.4 52385.6 45326.6 52226 Q 45323 52634.6 45302 53061.8 L 41922.8 53061.8 Z M 41922.8 54327.2 L 45228.2 54327.2 Q 45191 54800.6 45154.4 55199.6 L 42537.2 55199.6 L 42537.2 59488.4 L 44011.4 59488.4 L 44011.4 56539.4 L 48386 56539.4 L 48386 59586.8 L 49922 59586.8 L 49922 55199.6 L 46567.4 55199.6 Q 46588.4 55050.2 46611.8 54894.2 Q 46653.8 54628.4 46690.4 54327.2 L 50646.8 54327.2 L 50646.8 53061.8 L 46825.4 53061.8 Q 46838.6 52878.8 46854.2 52698.2 Q 46884.8 52365.8 46899.2 52053.8 Q 48558.2 51854.6 49959.2 51562.4 L 48816.2 50407.4 Q 47568.2 50678.6 45810.2 50876.6 Q 45022.4 50966 44184.8 51038.6 Q 42318.2 51198.8 40484.6 51267.8 L 40484.6 54744.8 Q 40500.8 55903.4 40373.6 57284.6 Q 40307.6 57933.2 40176.8 58578.2 Q 39915.2 59952.8 39231.2 61073.6 Q 39518.6 61186.4 39898.4 61405.4 Q 40277.6 61623.8 40509.2 61810.4 Q 41200.4 60664.4 41507.6 59213 Q 41702.6 58321.4 41794.4 57420.8 Q 41934.2 55955 41922.8 54744.8 L 41922.8 54327.2 Z M 47022.2 56944.4 L 45486.2 56944.4 L 45486.2 57878.6 Q 45516.2 58290.2 45288.2 58805.6 Q 45161.6 59063 44899.4 59328.8 Q 44637.2 59594 44192.6 59855.6 Q 43335.8 60378.8 41492.6 60815.6 Q 41778.8 61050.2 42060.8 61370 Q 42342.8 61689.8 42500 61933.4 Q 44520.8 61351.4 45501.8 60625.4 Q 46394 59970.2 46708.4 59298.8 Q 47051 58554.8 47022.2 57915.2 L 47022.2 56944.4 Z M 46296.8 60336.2 Q 47157.8 60662.6 48075.8 61092.2 Q 48128 61116.2 48180.2 61140.8 Q 49091 61571 49700.6 61933.4 L 50733.2 60962.6 Q 50060.6 60626.6 49128.2 60215 Q 48195.2 59802.8 47329.4 59475.8 L 46296.8 60336.2 Z M 55427 50481.2 L 53891 50481.2 L 53891 52766.6 L 51777.8 52766.6 L 51777.8 54118.4 L 53633 54118.4 Q 53326.4 55270.4 52785.2 56431.4 Q 52244 57593 51605.6 58431.2 Q 51791 58709.6 52006.4 59078 Q 52221.8 59446.4 52343 59771 Q 52776.8 59208.8 53167.4 58442 Q 53558 57675.2 53891 56809.4 L 53891 61958 L 55427 61958 L 55427 56268.8 Q 55728.8 56756 56009 57233.6 Q 56289.8 57711.2 56471.6 58087.4 L 57245.6 56649.8 Q 57093.2 56444.6 56704.4 55947.2 Q 56415.8 55578.8 56105 55193.6 Q 55686.2 54674.6 55427 54389 L 55427 54118.4 L 57245.6 54118.4 L 57245.6 52766.6 L 55427 52766.6 L 55427 50481.2 Z M 59703.2 54524 L 59703.2 50481.2 L 58118 50481.2 L 58118 61958 L 59703.2 61958 L 59703.2 55580.6 Q 60339.2 56156 60956.6 56754.2 Q 61574 57352.4 61952 57816.8 L 63168.8 56711 Q 62733.8 56237.6 62045.6 55633.4 Q 61357.4 55029.2 60685.4 54465.8 Q 60444.8 54263 60231.8 54081.8 L 59703.2 54524 Z M 75222.8 52410.2 L 75222.8 50923.4 L 64077.8 50923.4 L 64077.8 52410.2 L 68538.2 52410.2 Q 68412.2 53064.8 68231 53700.8 L 64655.6 53700.8 L 64655.6 61946 L 66167 61946 L 66167 55064.6 L 67481.6 55064.6 L 67481.6 61565 L 68931.8 61565 L 68931.8 55064.6 L 70283 55064.6 L 70283 61565 L 71745.8 61565 L 71745.8 55064.6 L 73195.4 55064.6 L 73195.4 60385.4 Q 73214 60624.8 72974.6 60606.2 Q 72923.6 60606.8 72836.6 60607.4 Q 72648.8 60609.8 72362 60609.2 Q 72074.6 60608 71770.4 60594.2 Q 71914.4 60874.4 72049.4 61244 Q 72185 61613.6 72237.2 61921.4 Q 72853.4 61925.6 73320.2 61877 Q 73786.4 61827.8 74117 61675.4 Q 74442.8 61506.8 74565.8 61206.8 Q 74688.8 60907.4 74682.2 60397.4 L 74682.2 53700.8 L 69828.8 53700.8 Q 70049.6 53092.4 70271 52410.2 L 75222.8 52410.2 Z M 77607.2 61995.2 Q 77996 61471.4 78408.8 60770.6 Q 78821 60069.8 79118.6 59390 L 77717.6 59021.6 Q 77420 59681 77009.6 60327.2 Q 76599.2 60972.8 76218.2 61430 L 77607.2 61995.2 Z M 79794.2 59513 Q 79905.8 60113 79966.4 60761.6 Q 80027 61410.2 80027.6 61872.2 L 81465.2 61675.4 Q 81453.2 61205.6 81366.8 60577.4 Q 81281 59948.6 81158 59377.4 L 79794.2 59513 Z M 84844.4 56637.2 Q 84285.2 56201 83394.8 55654.4 Q 83628.2 54653 83714 53393.6 L 84857 53393.6 Q 84791 55475.6 84921.8 56820.8 Q 84983 57352.4 85111.4 57746.6 Q 85412 58748.6 86368.4 58763 Q 87032.6 58782.8 87360.8 58353.2 Q 87688.4 57923.6 87781.4 56809.4 Q 87521.6 56748.8 87217.4 56600.6 Q 86913.8 56452.4 86700.2 56280.8 Q 86674.4 56921.6 86609.6 57212 Q 86544.8 57502.4 86417.6 57497.6 Q 86142.2 57491.6 86127.2 56112.2 Q 86112.2 54732.8 86232.8 52164.8 L 83763.2 52164.8 Q 83785.4 51613.4 83790.8 51015.8 Q 83794.4 50736.8 83799.8 50444 L 82424 50444 Q 82421 51359.6 82399.4 52164.8 L 80949.2 52164.8 L 80949.2 53393.6 L 82350.2 53393.6 Q 82298 54235.4 82153.4 54929.6 Q 81840.8 54751.4 81561.2 54597.8 Q 81493.4 54560 81428.6 54524 L 80814.2 55433 L 80679.2 54167.6 L 80674.4 54168.8 Q 80065.4 54315.8 79474.4 54462.2 L 79474.4 53442.8 L 80740.4 53442.8 L 80740.4 52103 L 79474.4 52103 L 79474.4 50493.2 L 78135.2 50493.2 L 78135.2 52103 L 76500.8 52103 L 76500.8 53442.8 L 78135.2 53442.8 L 78135.2 54769.4 Q 77045 55018.4 76230.8 55175 L 76513.4 56588 L 78135.2 56183 L 78135.2 57313.4 Q 78144.8 57528.2 77914.4 57522.2 Q 77783.6 57522.8 77459.6 57519.2 Q 77135.6 57515 76746.8 57497.6 Q 76880.6 57794 76994 58155.2 Q 77107.4 58515.8 77139.8 58812.2 Q 77755.4 58816.4 78200 58767.8 Q 78644.6 58719.2 78946.4 58566.8 Q 79245.2 58407.2 79362.8 58118 Q 79479.8 57829.4 79474.4 57338 L 79474.4 55838.6 L 80765 55506.8 L 80740.4 55544 Q 81094.4 55751 81480.8 55995.8 Q 81619.4 56082.8 81760.4 56170.4 Q 81296.6 57212 80187.2 57903.2 Q 80445.8 58100 80702 58407.2 Q 80958.2 58714.4 81096.8 58984.4 Q 82383.8 58179.8 82952 56932.4 Q 83674.4 57420.8 84119.6 57816.8 L 84844.4 56637.2 Z M 82301 59488.4 Q 82519.4 60078.2 82698.8 60721.4 Q 82878.2 61364.6 82940 61835 L 84389.6 61552.4 Q 84309.8 61073.6 84111.8 60446.6 Q 83914.4 59820.2 83677.4 59267 L 82301 59488.4 Z M 84795.2 59463.8 Q 85225.4 60084.8 85637 60784.4 Q 86048.6 61484 86257.4 61995.2 L 87646.4 61380.8 Q 87399.8 60845.6 86964.2 60176.6 Q 86528.6 59507.6 86097.8 58935.2 L 84795.2 59463.8 Z M 99270.8 50653.4 L 97796 50653.4 L 97796 57276.2 Q 97814.6 57537.8 97501.4 57522.2 Q 97324.4 57522.8 96862.4 57519.2 Q 96399.8 57515 95891.6 57497.6 Q 96053 57804.2 96194 58187 Q 96335 58570.4 96395 58886 Q 97131.8 58891.4 97679.6 58846.4 Q 98226.8 58800.8 98594.6 58640.6 Q 98975.6 58481.6 99126.2 58169 Q 99276.8 57855.8 99270.8 57300.8 L 99270.8 50653.4 Z M 96911.6 51611.6 L 95486 51611.6 L 95486 56576 L 96911.6 56576 L 96911.6 51611.6 Z M 93286.4 54179.6 Q 92991.2 55070.6 92475.2 55740.2 Q 92238.8 55506.8 91937.6 55275.2 Q 91637 55043.6 91344.8 54855.8 L 90386.6 55642.4 Q 90696.2 55868 91008.8 56138 Q 91320.8 56408 91566.2 56661.8 Q 90420.2 57503.6 88739.6 57792.8 Q 88931.6 58056.2 89123.6 58425.2 Q 89315.6 58794.8 89415.8 59094.8 Q 91587.2 58599.8 92953.4 57313.4 Q 93042.8 57227 93129.2 57135.8 Q 94441.4 55784.6 94908.2 53246 L 94035.8 53012.6 L 93777.8 53049.2 L 91983.8 53049.2 Q 92177.6 52662.2 92352.8 52275.2 L 94945.4 52275.2 L 94945.4 50972.6 L 88875.2 50972.6 L 88875.2 52275.2 L 90840.8 52275.2 Q 90402.2 53137.4 89786 53849.6 Q 89169.8 54561.8 88445 55064.6 Q 88652.6 55306.4 88904 55682 Q 89156 56057.6 89280.8 56318 Q 90392.6 55460.6 91283.6 54179.6 L 93286.4 54179.6 Z M 89931.8 62019.8 Q 90310.4 61486.4 90711.8 60780.2 Q 91113.8 60074 91418.6 59402 L 90005.6 59021.6 Q 89699 59682.2 89286.8 60331.4 Q 88874 60980.6 88494.2 61430 L 89931.8 62019.8 Z M 92082.2 59525 Q 92193.8 60116 92254.4 60764.6 Q 92315 61413.2 92315.6 61884.2 L 93753.2 61675.4 Q 93741.2 61205.6 93654.8 60577.4 Q 93569 59948.6 93446 59377.4 L 92082.2 59525 Z M 94576.4 59500.4 Q 94795.4 60081.8 94974.2 60723.2 Q 95153.6 61364.6 95215.4 61835 L 96677.6 61552.4 Q 96588.8 61073.6 96389 60446.6 Q 96189.2 59820.2 95952.8 59267 L 94576.4 59500.4 Z M 97071.2 59475.8 Q 97501.4 60087.8 97913 60788 Q 98324.6 61487.6 98533.4 62007.2 L 99971 61356.2 Q 99716.6 60837.8 99282.8 60165.8 Q 98849 59493.2 98410.4 58910.6 L 97071.2 59475.8 Z M 102612.8 59390 L 102612.8 56981.6 L 104567 56981.6 L 104567 59390 L 102612.8 59390 Z M 104567 55715.6 L 102612.8 55715.6 L 102612.8 53725.4 L 104567 53725.4 L 104567 55715.6 Z M 108474.2 52361 Q 108750.8 51590 108953.6 50800.4 L 107552.6 50481.2 Q 107282 51575 106857.2 52611.8 Q 106431.8 53648 105893.6 54437.6 L 105893.6 52447.4 L 103989.2 52447.4 Q 104309 51633.2 104628.2 50690 L 103031 50468.6 Q 102991.4 50913.8 102894.2 51444.2 Q 102797 51974.6 102674.6 52447.4 L 101285.6 52447.4 L 101285.6 61577 L 102612.8 61577 L 102612.8 60680 L 105893.6 60680 L 105893.6 54941.6 Q 106152.2 55112.6 106417.4 55299.8 Q 106683.2 55486.4 106839.8 55629.8 Q 107426.6 54815.6 107921.6 53688.2 L 110550.8 53688.2 Q 110456.6 56847.2 110314.4 58392.2 Q 110308.4 58455.2 110302.4 58515.8 Q 110156.6 60003.8 109899.8 60262.4 Q 109784 60380 109661.6 60426.8 Q 109539.2 60473 109359.2 60471.2 Q 109109 60473.6 108618.8 60462.2 Q 108128.6 60450.8 107528 60397.4 Q 107725.4 60714.8 107855.6 61110.2 Q 107985.8 61505.6 108007.4 61823 Q 108560 61843.4 109068.8 61842.8 Q 109577.6 61842.8 109936.4 61798.4 Q 110300.6 61742.6 110582 61598.6 Q 110862.8 61455.2 111116 61122.8 Q 111398 60782 111552.8 59692.4 Q 111651.8 58993.4 111722 57877.4 Q 111829.4 56126 111915.2 53024.6 Q 111923.6 52870.4 111926 52628.6 Q 111927.8 52386.8 111927.2 52361 L 108474.2 52361 Z M 109887.2 57964.4 Q 109582.4 57405.8 109071.8 56651 Q 108561.8 55896.8 108081.2 55236.8 L 106938.2 55887.8 Q 107408 56585 107889.2 57366.8 Q 108370.4 58149.2 108646.4 58726.4 L 109887.2 57964.4 Z M 113942.6 56453 Q 114139.4 55713.8 114269.6 54766.4 Q 114399.8 53819.6 114422 53024.6 L 113389.4 52889.6 Q 113342 53664.8 113211.2 54552.8 Q 113081 55441.4 112886 56096.6 L 113942.6 56453 Z M 118611.8 59107.4 L 118611.8 58542.2 L 122286.2 58542.2 L 122286.2 59107.4 L 118611.8 59107.4 Z M 122286.2 56932.4 L 122286.2 57509.6 L 118611.8 57509.6 L 118611.8 56932.4 L 122286.2 56932.4 Z M 123662.6 55863.2 L 117260 55863.2 L 117260 61958 L 118611.8 61958 L 118611.8 60114.8 L 122286.2 60114.8 L 122286.2 60520.4 Q 122298.2 60729.2 122052.8 60717.2 Q 122015.6 60717.2 121951.4 60717.8 Q 121767.2 60720.2 121454 60717.8 Q 121140.8 60714.8 120811.4 60692.6 Q 120944.6 60970.4 121054.4 61313 Q 121164.2 61655.6 121205 61933.4 Q 121839.2 61940 122307.8 61907.6 Q 122775.8 61874.6 123096.8 61724.6 Q 123422.6 61581.8 123545.6 61301 Q 123668.6 61019.6 123662.6 60545 L 123662.6 55863.2 Z M 121143.2 54351.8 L 121143.2 53823.2 L 123785 53823.2 L 123785 52840.4 L 121143.2 52840.4 L 121143.2 52349 L 124116.8 52349 L 124116.8 51304.4 L 121143.2 51304.4 L 121143.2 50468.6 L 119693.6 50468.6 L 119693.6 51304.4 L 116817.8 51304.4 L 116817.8 52349 L 119693.6 52349 L 119693.6 52840.4 L 117149.6 52840.4 L 117149.6 53811.2 Q 117034.4 53457.8 116847.2 53003 Q 116660 52548.8 116461.4 52140.2 L 115761.2 52434.8 L 115761.2 50468.6 L 114446.6 50468.6 L 114446.6 61933.4 L 115761.2 61933.4 L 115761.2 53000 Q 115910.6 53366 116030 53722.4 Q 116149.4 54078.2 116216 54351.8 L 117174.2 53885 L 117149.6 53823.2 L 119693.6 53823.2 L 119693.6 54351.8 L 116436.8 54351.8 L 116436.8 55396.4 L 124485.8 55396.4 L 124485.8 54351.8 L 121143.2 54351.8 Z M 126746.6 61454.6 Q 127004.6 61021.4 127262.6 60459.2 Q 127520 59897 127748.6 59361.2 Q 127802 59237 127852.4 59119.4 L 126549.8 58665.2 Q 126340.4 59231.6 126024.8 59835.2 Q 125709.2 60438.8 125370.2 60913.4 L 126746.6 61454.6 Z M 131760.2 53319.8 L 127975.4 53319.8 L 127975.4 54290.6 L 131760.2 54290.6 L 131760.2 53319.8 Z M 130518.8 56711 L 129167.6 56711 L 129167.6 55789.4 L 130518.8 55789.4 L 130518.8 56711 Z M 131637.2 57239.6 Q 131860.4 57435.2 132108.8 57691.4 Q 132357.2 57947 132497.6 58124 Q 132986 57804.8 133455.8 57411.8 Q 134138 58241 135225.2 58259.6 Q 135978.8 58286 136349.6 57821.6 Q 136720.4 57357.2 136847.6 56084.6 Q 136579.4 56007.2 136269.8 55841.6 Q 135960.2 55676.6 135729.2 55470.2 Q 135687.8 56256.8 135589.4 56609.6 Q 135490.4 56963 135274.4 56957 Q 134804.6 56948 134426.6 56441 Q 135563 55144.4 136220.6 53405.6 L 134906 53098.4 Q 134512.4 54204.2 133824.8 55125.8 Q 133541.6 54130.4 133406.6 52766.6 L 136601.6 52766.6 L 136601.6 51611.6 L 135483.2 51611.6 L 135803 51365.6 Q 135570.2 51146 135222.2 50882 Q 134874.2 50618 134549.6 50407.4 L 133689.2 51009.8 Q 134010.8 51250.4 134367.2 51543.8 Q 134409.2 51578 134451.2 51611.6 L 133332.8 51611.6 Q 133317.8 51052.4 133320.8 50456.6 L 131944.4 50456.6 Q 131944.4 51043.4 131981.6 51611.6 L 126341 51611.6 L 126341 53454.8 Q 126359.6 54341.6 126202.4 55399.4 Q 126178.4 55544 126147.8 55688 Q 125948.6 56746.4 125321 57632.6 Q 125561.6 57768.8 125889.8 58038.2 Q 126217.4 58307.6 126402.8 58517.6 Q 127080.8 57583.4 127358 56400.8 Q 127449.8 56031.2 127511.6 55659.2 Q 127693.4 54469.4 127680.8 53479.4 L 127680.8 52766.6 L 132054.8 52766.6 Q 132233 54834.2 132780.2 56256.8 Q 132245.6 56723.6 131637.2 57080 L 131637.2 54818.6 L 128012 54818.6 L 128012 57669.8 L 131637.2 57669.8 L 131637.2 57239.6 Z M 130002.8 58394.6 Q 130407.8 58833.8 130835.6 59328.8 Q 131263.4 59823.2 131502.2 60188.6 L 132718.4 59586.8 Q 132443.6 59228.6 132002.6 58751 Q 131562.2 58273.4 131157.8 57878.6 L 130002.8 58394.6 Z M 130359.2 60630.8 Q 129839.6 60639.2 129674 60569.6 Q 129509 60500 129524 60250.4 L 129524 58493 L 128036.6 58493 L 128036.6 60274.4 Q 128011.4 61117.4 128479.4 61446.8 Q 128946.8 61775.6 130211.6 61761.8 L 132534.2 61761.8 Q 133536.8 61784 133971.2 61397.6 Q 134019.2 61354.4 134062.4 61305.2 Q 134452.4 60860 134561.6 59709.2 Q 134239.4 59651.6 133850.6 59526.8 Q 133461.8 59402 133222.4 59242.4 Q 133182.2 60126.8 133032.2 60392 Q 133032.2 60393.2 133031.6 60393.8 Q 132881 60658.4 132435.8 60630.8 L 130359.2 60630.8 Z M 134132 58849.4 Q 134477.6 59451.2 134823.2 60119.6 Q 135168.8 60788 135348.2 61269.8 L 136749.2 60803 Q 136524.2 60304.4 136154.6 59655.8 Q 135785 59007.2 135422 58443.8 L 134132 58849.4 Z M 139599.8 62572.4 Q 140751.2 62219 141381.8 61434.2 Q 142012.4 60650 142020.8 59586.8 Q 142019.6 58803.8 141684.2 58358 Q 141348.8 57911.6 140693.6 57903.2 Q 140190.8 57908 139847 58197.8 Q 139503.2 58488.2 139489.4 59009 Q 139504.4 59537 139842.8 59818.4 Q 140180.6 60099.8 140656.4 60102.8 Q 140733.2 60105.8 140792 60090.2 Q 140663 61091.6 139206.8 61577 L 139599.8 62572.4 Z M 153681.8 57067.4 L 157552.4 57067.4 L 157552.4 57964.4 L 153681.8 57964.4 L 153681.8 57067.4 Z M 157552.4 53037.2 L 157552.4 53799.2 L 153681.8 53799.2 L 153681.8 53037.2 L 157552.4 53037.2 Z M 153681.8 55015.4 L 157552.4 55015.4 L 157552.4 55838.6 L 153681.8 55838.6 L 153681.8 55015.4 Z M 161141 59304.2 L 161141 57964.4 L 159039.2 57964.4 L 159039.2 53037.2 L 160833.8 53037.2 L 160833.8 51697.4 L 159039.2 51697.4 L 159039.2 50505.8 L 157552.4 50505.8 L 157552.4 51697.4 L 153681.8 51697.4 L 153681.8 50505.8 L 152232.2 50505.8 L 152232.2 51697.4 L 150524 51697.4 L 150524 53037.2 L 152232.2 53037.2 L 152232.2 57964.4 L 150155 57964.4 L 150155 59304.2 L 153743.6 59304.2 Q 153093.8 59700.2 152119.4 60108.8 Q 152017.4 60152 151913.6 60194 Q 150924.8 60595.4 149995.4 60852.2 Q 150243.8 61076.6 150505.4 61383.8 Q 150767.6 61691 150941.6 61933.4 Q 151947.8 61628.6 153055.4 61172 Q 154162.4 60714.8 155021.6 60225.8 L 153854 59304.2 L 161141 59304.2 Z M 156262.4 60287 Q 157296.8 60667.4 158243.6 61107.2 Q 159191 61547 159801.2 61908.8 L 161202.2 60987.2 Q 160484 60626 159429.8 60193.4 Q 158375 59760.8 157307 59390 L 156262.4 60287 Z M 171671.6 59991.8 L 164249.6 59991.8 L 164249.6 54364.4 L 162738.2 54364.4 L 162738.2 61368.2 L 171671.6 61368.2 L 171671.6 61921.4 L 173146.4 61921.4 L 173146.4 54302.6 L 171671.6 54302.6 L 171671.6 59991.8 Z M 169595 55777.4 L 168525.8 55777.4 L 168525.8 54744.8 L 169595 54744.8 L 169595 55777.4 Z M 169595 57939.8 L 168525.8 57939.8 L 168525.8 56883.2 L 169595 56883.2 L 169595 57939.8 Z M 166203.2 56883.2 L 167272.4 56883.2 L 167272.4 57939.8 L 166203.2 57939.8 L 166203.2 56883.2 Z M 166203.2 54744.8 L 167272.4 54744.8 L 167272.4 55777.4 L 166203.2 55777.4 L 166203.2 54744.8 Z M 165011.6 53553.2 L 165011.6 59132 L 170860.4 59132 L 170860.4 53553.2 L 165011.6 53553.2 Z M 162590.6 51206 L 162590.6 52557.8 L 173306 52557.8 L 173306 51206 L 162590.6 51206 Z M 183000.8 52533.2 L 177373.4 52533.2 L 177373.4 51918.8 L 183000.8 51918.8 L 183000.8 52533.2 Z M 183000.8 54118.4 L 177373.4 54118.4 L 177373.4 53492 L 183000.8 53492 L 183000.8 54118.4 Z M 184488.2 50886.8 L 175959.8 50886.8 L 175959.8 55150.4 L 184488.2 55150.4 L 184488.2 50886.8 Z M 181096.4 59168.6 L 184881.2 59168.6 L 184881.2 57903.2 L 181096.4 57903.2 L 181096.4 56981.6 L 185655.2 56981.6 L 185655.2 55691 L 174817.4 55691 L 174817.4 56981.6 L 179609.6 56981.6 L 179609.6 60102.8 Q 179018.6 59924 178572.8 59555.6 Q 178127 59187.8 177840.2 58566.8 Q 177990.8 58035.2 178122.8 57448.4 L 176660.6 57227 Q 176449.4 58467.8 175881.8 59415.8 Q 175313.6 60364.4 174375.2 60950.6 Q 174642.2 61125.8 174974 61437.2 Q 175305.8 61748.6 175481 61970.6 Q 176543.6 61233.2 177201.2 60016.4 Q 177968 61060.4 179147 61417.4 Q 180326.6 61774.4 182006 61749.2 L 185507.6 61749.2 Q 185568.8 61419.2 185707.4 61022.6 Q 185846.6 60626 185999.6 60360.8 Q 185522.6 60379.4 184715.6 60387.2 Q 183963.2 60394.4 183239 60396.2 Q 182462 60398 182079.2 60397.4 Q 181578.8 60397.4 181096.4 60360.8 L 181096.4 59168.6 Z M 191209.4 51869.6 L 190964 51918.8 L 187191.2 51918.8 L 187191.2 53319.8 L 190583 53319.8 Q 190340 54779 189931.4 56072 Q 189040.4 55236.8 188186.6 54511.4 L 187179.2 55445.6 Q 187717.4 55917.8 188269.4 56450 Q 188822 56982.2 189341.6 57546.8 Q 188851.4 58583 188206.4 59391.2 Q 187562 60200 186785.6 60729.2 Q 187054.4 60945.8 187341.8 61283.6 Q 187629.2 61622 187805.6 61921.4 Q 189393.8 60723.2 190410.8 58787.6 Q 191117.6 59672.6 191529.2 60410 L 192659.6 59316.2 Q 192396.2 58851.8 191988.2 58326.8 Q 191580.2 57802.4 191086.4 57264.2 Q 191882 55070.6 192180.2 52140.2 L 191209.4 51869.6 Z M 192254 56133.8 Q 192670.4 56781.8 193020.2 57513.2 Q 193370 58244 193519.4 58800.2 L 194785.4 58161.2 Q 194625.2 57598.4 194246 56892.2 Q 193867.4 56186.6 193421.6 55568.6 L 192254 56133.8 Z M 198213.8 53196.8 L 196898.6 53196.8 L 196898.6 50456.6 L 195449 50456.6 L 195449 53196.8 L 192352.4 53196.8 L 192352.4 54597.8 L 195449 54597.8 L 195449 60114.8 Q 195467 60407 195153.8 60385.4 Q 195104.6 60385.4 195023.6 60386 Q 194799.8 60388.4 194420.6 60386 Q 194041.4 60383 193605.8 60360.8 Q 193758.2 60708.8 193888.4 61151.6 Q 194018 61594.4 194060 61933.4 Q 194825 61937.6 195378.2 61870.4 Q 195931.4 61803.2 196272.2 61614.2 Q 196617.8 61437.2 196760.6 61085.6 Q 196903.4 60734 196898.6 60114.8 L 196898.6 54597.8 L 198213.8 54597.8 L 198213.8 53196.8 Z M 205586.6 60164 L 205586.6 57694.4 L 209260.4 57694.4 L 209260.4 56280.8 L 205586.6 56280.8 L 205586.6 54118.4 L 209727.2 54118.4 L 209727.2 52692.8 L 205586.6 52692.8 L 205586.6 50481.2 L 204050.6 50481.2 L 204050.6 52692.8 L 202158.2 52692.8 Q 202474.4 51845 202735.4 50960.6 L 201224 50628.8 Q 200904.2 51903.2 200339.6 53067.8 Q 199775 54231.8 199049 55028 Q 199345.4 55189.4 199734.2 55450.4 Q 200123 55710.8 200364.2 55900.4 Q 200972 55157 201506.6 54118.4 L 204050.6 54118.4 L 204050.6 56280.8 L 200720.6 56280.8 L 200720.6 57694.4 L 204050.6 57694.4 L 204050.6 60164 L 199307 60164 L 199307 61601.6 L 210354.2 61601.6 L 210354.2 60164 L 205586.6 60164 Z M 215097.2 51857.6 Q 214673 51587.6 214016 51243.8 Q 214014.2 51243.2 214012.4 51242 Q 213356 50898.8 212811.8 50628.8 L 211988.6 51685.4 Q 212122.4 51761.6 212268.8 51844.4 Q 212800.4 52142.6 213345.8 52464.8 Q 213891.2 52787 214224.8 53037.2 L 215097.2 51857.6 Z M 214507.4 55175 Q 214119.2 54941.6 213527 54642.2 Q 212934.8 54342.8 212406.2 54085.4 Q 212296.4 54032 212197.4 53983.4 L 211410.8 55064.6 Q 211982.6 55372.4 212636.6 55742 Q 213291.2 56111.6 213696.8 56391.8 L 214507.4 55175 Z M 212811.8 61810.4 Q 213378.8 60906.8 213936.2 59906 Q 214493.6 58905.2 214986.8 57927.8 L 213917.6 56944.4 Q 213348.8 58035.8 212718.2 59069 Q 212087 60102.2 211583 60815.6 L 212811.8 61810.4 Z M 220786.4 60114.8 L 217100 60114.8 L 217100 58308.8 L 220786.4 58308.8 L 220786.4 60114.8 Z M 222789.8 55433 L 222789.8 54032.6 L 219668.6 54032.6 L 219668.6 52349 Q 221130.8 52069.4 222335 51624.2 L 221216.6 50468.6 Q 220227.2 50853.8 218782.4 51138.2 Q 218618.6 51171.2 218451.8 51202.4 Q 216978.2 51474.2 215466.2 51624.2 Q 215600 51886.4 215722.4 52241.6 Q 215844.8 52596.2 215895.8 52877.6 Q 217060.4 52772.6 218280.2 52594.4 L 218280.2 54032.6 L 215011.4 54032.6 L 215011.4 55433 L 218280.2 55433 L 218280.2 56981.6 L 215773.4 56981.6 L 215773.4 61946 L 217100 61946 L 217100 61442 L 220786.4 61442 L 220786.4 61884.2 L 222175.4 61884.2 L 222175.4 56981.6 L 219668.6 56981.6 L 219668.6 55433 L 222789.8 55433 Z M 12001.4 72482.6 L 11718.8 72556.4 L 8831 72556.4 L 9580.4 72126.2 Q 9374 71751.2 9021.2 71254.4 Q 8668.4 70757.6 8325.2 70298.6 Q 8262.8 70215.2 8204 70136 L 6889.4 70836.2 Q 7164.8 71232.8 7465.4 71691.8 Q 7766 72150.8 7995.2 72556.4 L 3203 72556.4 L 3203 73994 L 10613 73994 Q 9678.8 75176 8369.6 76365.2 Q 8161.4 76554.2 7946.6 76739 Q 6601.4 77904.2 5181.2 78762.2 L 5108 78762.2 Q 4589 78773 3920.6 79205.6 Q 3251.6 79638.8 2576.6 80359.4 L 3633.2 81735.8 Q 4017.8 81119 4398.2 80636 Q 4778 80153 5070.8 80126 Q 5321 80156.6 5720 80477 Q 5969.6 80666 6275 80850.8 Q 6890 81231.8 7686.8 81382.4 Q 8483.6 81533 9605 81527 Q 10401.8 81525.2 11363.6 81493.4 Q 11698.4 81482.6 12022.4 81470 Q 12951.2 81432.2 13537.4 81391.4 Q 13565.6 81074 13700 80616.2 Q 13834.4 80157.8 13955 79830.8 Q 13130.6 79949.6 12054.2 80027.6 Q 11837 80043.8 11619.2 80057 Q 10536.8 80124.2 9654.2 80126 Q 8686.4 80135 7914.2 80024.6 Q 7142 79914.2 6570.2 79572.8 Q 8243.6 78468.8 9819.8 77012 Q 10200.8 76659.2 10565 76294.4 Q 12074 74787.8 13131.8 73232.6 L 12001.4 72482.6 Z M 22520 78467 Q 22013 78977 21303.2 79339.4 Q 20492 78977 19865.6 78467 L 22520 78467 Z M 16388 75419.6 L 16388 74547.2 L 24547.4 74547.2 L 24547.4 75419.6 L 19632.2 75419.6 Q 19687.4 75118.4 19742.6 74817.8 L 18354.2 74657.6 Q 18296 75057.2 18219.2 75419.6 L 18219.2 75419.6 L 16388 75419.6 Z M 19718 72347.6 Q 19790 72564.8 19868.6 72810.8 Q 19952 73071.8 20037.8 73330.4 L 18501.8 73330.4 Q 18425 73059.2 18302 72748.4 Q 18179 72437.6 18047 72138.8 Q 19316 72101.6 20565.8 72028.4 L 19718 72347.6 Z M 21315.8 73330.4 Q 21230 73037.6 21105.2 72687.2 Q 20980.4 72336.8 20848.4 72015.8 Q 22022 71948 23085.2 71843.6 Q 22950.8 72192.8 22754.6 72587 Q 22558.4 72981.8 22359.8 73330.4 L 21315.8 73330.4 Z M 23760.8 77201.6 L 23540 77238.2 L 19140.8 77238.2 Q 19248.2 76940.6 19337 76624.4 Q 19337 76623.8 19337 76623.8 L 24780.8 76623.8 L 24780.8 75603.8 L 25800.8 75603.8 L 25800.8 73330.4 L 23662.4 73330.4 Q 23772.8 73153.4 23892.8 72962.6 Q 24137 72573.8 24387.8 72163.4 L 23232.8 71831.6 Q 24234.2 71736.2 25088 71622.8 L 24682.4 70455.2 Q 23212.4 70665.2 21283.4 70807.4 Q 20408.6 70872.2 19494.2 70922.6 Q 17479.4 71031.8 15552.8 71069.6 Q 15640.4 71309 15726.2 71615 Q 15812 71921 15835.4 72188 Q 16732.4 72188 17666 72150.8 L 16928.6 72482.6 Q 17097.8 72879.2 17248.4 73330.4 L 15183.8 73330.4 L 15183.8 75603.8 L 16228.4 75603.8 L 16228.4 76623.8 L 17924 76623.8 Q 17497.4 77988.8 16727.6 78980 Q 15957.8 79971.8 14766.2 80580.8 Q 14986.4 80793.8 15266.6 81129.2 Q 15547.4 81464 15675.2 81686.6 Q 17528 80605.4 18513.8 78713 Q 19131.2 79401.2 19914.8 79941.8 Q 18778.4 80313.2 17457.2 80482.4 Q 17633.6 80703.8 17830.4 81061.4 Q 18027.2 81419 18120.8 81686.6 Q 19829 81398 21315.8 80703.2 Q 22998.8 81437.6 25124.6 81674 Q 25259 81390.8 25463 81029 Q 25666.4 80667.2 25874.6 80420.6 Q 24166.4 80282.6 22716.2 79868 Q 23877.8 79032.2 24559.4 77754.2 L 23760.8 77201.6 Z M 28884.8 79204.4 L 28884.8 76796 L 30839 76796 L 30839 79204.4 L 28884.8 79204.4 Z M 30839 75530 L 28884.8 75530 L 28884.8 73539.8 L 30839 73539.8 L 30839 75530 Z M 34746.2 72175.4 Q 35022.8 71404.4 35225.6 70614.8 L 33824.6 70295.6 Q 33554 71389.4 33129.2 72426.2 Q 32703.8 73462.4 32165.6 74252 L 32165.6 72261.8 L 30261.2 72261.8 Q 30581 71447.6 30900.2 70504.4 L 29303 70283 Q 29263.4 70728.2 29166.2 71258.6 Q 29069 71789 28946.6 72261.8 L 27557.6 72261.8 L 27557.6 81391.4 L 28884.8 81391.4 L 28884.8 80494.4 L 32165.6 80494.4 L 32165.6 74756 Q 32424.2 74927 32689.4 75114.2 Q 32955.2 75300.8 33111.8 75444.2 Q 33698.6 74630 34193.6 73502.6 L 36822.8 73502.6 Q 36728.6 76661.6 36586.4 78206.6 Q 36580.4 78269.6 36574.4 78330.2 Q 36428.6 79818.2 36171.8 80076.8 Q 36056 80194.4 35933.6 80241.2 Q 35811.2 80287.4 35631.2 80285.6 Q 35381 80288 34890.8 80276.6 Q 34400.6 80265.2 33800 80211.8 Q 33997.4 80529.2 34127.6 80924.6 Q 34257.8 81320 34279.4 81637.4 Q 34832 81657.8 35340.8 81657.2 Q 35849.6 81657.2 36208.4 81612.8 Q 36572.6 81557 36854 81413 Q 37134.8 81269.6 37388 80937.2 Q 37670 80596.4 37824.8 79506.8 Q 37923.8 78807.8 37994 77691.8 Q 38101.4 75940.4 38187.2 72839 Q 38195.6 72684.8 38198 72443 Q 38199.8 72201.2 38199.2 72175.4 L 34746.2 72175.4 Z M 36159.2 77778.8 Q 35854.4 77220.2 35343.8 76465.4 Q 34833.8 75711.2 34353.2 75051.2 L 33210.2 75702.2 Q 33680 76399.4 34161.2 77181.2 Q 34642.4 77963.6 34918.4 78540.8 L 36159.2 77778.8 Z M 43741.4 76316.6 Q 43609.4 76100.6 43287.2 75594.8 Q 43060.4 75240.2 42822.2 74877.8 Q 42483.8 74361.8 42291.2 74105 L 42291.2 73920.8 L 43409.6 73920.8 L 43409.6 72569 L 42291.2 72569 L 42291.2 70283 L 40964 70283 L 40964 72569 L 39526.4 72569 L 39526.4 73920.8 L 40902.8 73920.8 Q 40643.6 75030.2 40199 76142.6 Q 40178 76195.4 40155.8 76248.2 Q 39704.6 77351 39158 78074 Q 39342.2 78384.8 39545 78801.8 Q 39747.8 79218.8 39858.2 79548.2 Q 40163.6 79082 40443.2 78447.2 Q 40723.4 77812.4 40964 77078.6 L 40964 81747.8 L 42291.2 81747.8 L 42291.2 75935.6 Q 42477.2 76319.6 42633.8 76677.8 Q 42789.8 77036 42893.6 77300 L 43741.4 76316.6 Z M 47599.4 72372.2 Q 47404.4 73213.4 47192.6 74012.6 Q 46980.8 74812.4 46776.2 75432.2 L 48840.8 75432.2 Q 48410.6 76974.2 47648.6 78147.8 Q 46509.2 76771.4 45903.8 75026.6 Q 46051.4 73773.2 46125.2 72372.2 L 47599.4 72372.2 Z M 49565.6 74117 L 49307.6 74178.8 L 48509 74178.8 Q 48714.2 73431.2 48912.8 72615.2 Q 49111.4 71798.6 49271 71033 L 43605.8 71033 L 43605.8 72372.2 L 44760.8 72372.2 Q 44669 75167.6 44157.8 77340.2 Q 44145.2 77390.6 44132.6 77440.4 Q 43607.6 79596.2 42340.4 80924.6 Q 42611.6 81077.6 42979.4 81335 Q 43347.2 81591.8 43544.6 81772.4 Q 44268.2 80915 44750.6 79811 Q 45232.4 78707 45522.8 77361.2 Q 46063.4 78390.2 46751.6 79253.6 Q 45909.8 80126 44847.2 80666.6 Q 45100.4 80841.2 45392.6 81167.6 Q 45684.8 81494 45854.6 81760.4 Q 46868.6 81188.6 47735 80285.6 Q 48693.2 81152 49910 81723.2 Q 50085.8 81432.2 50357 81090.8 Q 50627.6 80748.8 50868.2 80531.6 Q 49620.8 80018.6 48632 79155.2 Q 49891.4 77293.4 50450.6 74473.4 L 49565.6 74117 Z M 59113.4 73871.6 L 60784.4 73871.6 Q 60566.6 75714.8 59998.4 77078.6 Q 59362.4 75705.2 59039.6 74055.8 L 59113.4 73871.6 Z M 62984 73871.6 L 62984 72519.8 L 59543.6 72519.8 Q 59820.2 71540 60023 70504.4 L 58560.8 70258.4 Q 58366.4 71474 58018.4 72585.8 Q 57669.8 73697.6 57171.8 74608.4 Q 56969.6 74208.8 56697.2 73740.8 Q 56424.8 73272.8 56156.6 72827.6 Q 56065.4 72674.6 55980.2 72531.8 L 54874.4 73047.8 Q 55119.8 73441.4 55365.8 73908.2 L 53583.8 74018.6 Q 53854.4 73619.6 54115.4 73173.8 Q 54376.4 72728.6 54591.2 72273.8 L 57294.8 72273.8 L 57294.8 70946.6 L 51704 70946.6 L 51704 72273.8 L 53031.2 72273.8 Q 52801.4 72780.2 52584.2 73161.8 Q 52366.4 73543.4 52256.6 73699.4 Q 51968 74129.6 51679.4 74228 Q 51805.4 74525.6 51938.6 74917.4 Q 52071.8 75309.2 52133.6 75542.6 Q 52298 75469.4 52722.8 75402.2 Q 53006.6 75357.8 53523.2 75302.6 Q 54310.4 75218.6 55967.6 75075.8 Q 56078.6 75330.8 56151.8 75530 L 56803.4 75198.2 Q 56634.2 75441.2 56447 75665.6 Q 56711 75878 57030.8 76215.2 Q 57350 76552.4 57540.8 76783.4 Q 57851 76381.4 58142.6 75923.6 Q 58526.6 77367.2 59150.6 78552.8 Q 58443.8 79496 57332 80126 L 57270.2 78958.4 Q 56277.8 79109 55267.4 79241 L 55267.4 77975.6 L 57110.6 77975.6 L 57110.6 76661 L 55267.4 76661 L 55267.4 75530 L 53805.2 75530 L 53805.2 76661 L 51949.4 76661 L 51949.4 77975.6 L 53805.2 77975.6 L 53805.2 79437.8 Q 52812.2 79566.2 51995 79658.6 Q 51772.4 79684.4 51568.4 79708.4 L 51777.8 81182.6 Q 52816.4 81033.2 54109.4 80840 Q 55401.8 80646.8 56754.2 80433.2 L 56693 80457.8 Q 56909 80709.2 57155 81101.6 Q 57401 81493.4 57516.2 81772.4 Q 59024.6 81007.4 59998.4 79855.4 Q 60895.4 81014 62234.6 81711.2 Q 62403.8 81402.2 62683.4 81047.6 Q 62962.4 80693 63205.4 80457.8 Q 61795.4 79803.2 60882.8 78577.4 Q 61412.6 77621 61749.2 76450.4 Q 62085.8 75279.2 62283.8 73871.6 L 62984 73871.6 Z M 73674.8 76378.4 Q 73316 76716.8 72834.8 77097.2 Q 72353.6 77477 71856.2 77816 Q 71272.4 77063 70910 76144.4 L 75038.6 76144.4 L 75038.6 74903.6 L 70344.8 74903.6 L 70344.8 74215.4 L 74141.6 74215.4 L 74141.6 73047.8 L 70344.8 73047.8 L 70344.8 72408.8 L 74621 72408.8 L 74621 71168 L 70344.8 71168 L 70344.8 70283 L 68870 70283 L 68870 71168 L 64741.4 71168 L 64741.4 72408.8 L 68870 72408.8 L 68870 73047.8 L 65343.2 73047.8 L 65343.2 74215.4 L 68870 74215.4 L 68870 74903.6 L 64212.8 74903.6 L 64212.8 76144.4 L 67703 76144.4 Q 66877.4 76787.6 65853.2 77313.8 Q 64829.6 77839.4 63783.2 78159.8 Q 64025 78396.2 64297.4 78735.8 Q 64569.8 79076 64728.8 79339.4 Q 65570.6 79041.8 66412.4 78577.4 L 66412.4 79487 Q 66399.2 79889.6 66206.6 80124.2 Q 66014 80358.8 65798 80457.8 Q 65972.6 80699.6 66149.6 81084.2 Q 66327.2 81469.4 66400.4 81747.8 Q 66563.6 81641.6 66972.2 81494.6 Q 67331.6 81366.2 68119.4 81125 Q 69024.2 80847.8 70836.2 80310.2 Q 70760 80055.8 70690.4 79686.8 Q 70620.8 79317.2 70590.2 79007.6 L 67936.4 79733 L 67936.4 77631.2 Q 68811.8 77001.8 69521.6 76280 Q 70199.6 78192.2 71407.4 79505.6 Q 72615.8 80818.4 74510.6 81477.8 Q 74677.4 81166.4 74948 80795.6 Q 75218.6 80424.8 75468.8 80187.2 Q 73812.8 79708.4 72692 78713 Q 73224.2 78397.4 73796 78030.8 Q 74367.8 77664.8 74891 77275.4 L 73674.8 76378.4 Z M 87461.6 78565.4 Q 86910.8 77781.2 86006 76815.8 Q 85894.4 76696.4 85779.2 76575.8 Q 84849.8 75605.6 83873.6 74744 Q 83944.4 74366 83996.6 73969.4 L 87339.2 73969.4 L 87339.2 72556.4 L 84131.6 72556.4 Q 84187.4 71484.2 84205.4 70320.2 L 82682 70320.2 Q 82669.4 71502.8 82620.2 72556.4 L 79818.8 72556.4 L 79818.8 73969.4 L 82497.8 73969.4 Q 82322 75420.2 81669.8 76527.2 Q 81017 77634.2 79560.8 78356.6 Q 79821.2 78574.4 80095.4 78914 Q 80369.6 79253.6 80519 79536.2 Q 81680.6 78935 82389.8 78106.4 Q 83099.6 77277.2 83468 76242.8 Q 84314 77089.4 85053.2 77954 Q 85793 78818.6 86232.8 79499 L 87461.6 78565.4 Z M 79314.8 72839 Q 79098.2 72315.2 78671.6 71673.2 Q 78245 71031.8 77778.8 70479.8 L 76525.4 71106.8 Q 76972.4 71697.8 77373.2 72372.2 Q 77774.6 73046.6 77963 73564.4 L 79314.8 72839 Z M 79191.8 74731.4 L 76267.4 74731.4 L 76267.4 76132.4 L 77717.6 76132.4 L 77717.6 78995.6 Q 76906.4 79373.6 76058.6 80285.6 L 77078.6 81735.8 Q 77410.4 81154.4 77769.8 80679.2 Q 78129.2 80203.4 78405.8 80175.2 Q 78659 80204 79088.6 80515.4 Q 79349.6 80694.2 79671.2 80875.4 Q 80340.2 81246.8 81179.6 81390.2 Q 82019 81533.6 83185.4 81527 Q 83957.6 81525.2 84915.8 81497 Q 85396.4 81483.2 85851.2 81465.2 Q 86760.2 81429.8 87290 81391.4 Q 87317 81049.4 87449.6 80594.6 Q 87582.2 80139.2 87720.2 79806.2 Q 86883.2 79937 85788.2 80014.4 Q 85505.6 80034.8 85220.6 80051 Q 84120.2 80113.4 83234.6 80113.4 Q 82210.4 80123 81370.4 80010.8 Q 80529.8 79898 79892.6 79548.2 Q 79592 79385.6 79365.8 79230.8 Q 79275.2 79170.8 79191.8 79118.6 L 79191.8 74731.4 Z M 90435.8 77643.8 Q 89603 77665.4 89041.4 78228.2 L 89040.2 78229.4 Q 88479.2 78792.8 88457 79634.6 Q 88479.2 80475.8 89040.2 81039.2 L 89041.4 81040.4 Q 89603 81603.2 90435.8 81624.8 Q 91286 81603.2 91845.8 81039.8 Q 92405.6 80476.4 92426 79634.6 Q 92405.6 78792.2 91845.8 78228.8 Q 91286 77665.4 90435.8 77643.8  Z M 90435.8 80740.4 Q 89980.4 80729 89667.8 80417.6 Q 89355.2 80106.8 89342 79634.6 Q 89355.2 79162.4 89667.8 78851 Q 89980.4 78540.2 90435.8 78528.8 Q 90908 78540.2 91218.8 78851 Q 91530.2 79162.4 91541.6 79634.6 Q 91530.2 80106.8 91218.8 80417.6 Q 90908 80729 90435.8 80740.4  Z " fill-rule="nonzero" style="fill:#666666;;fill-opacity:1;"/>
</svg>