<svg version="1.1" x="0" y="0" width="100%" height="100%" viewBox="0 0 44748.8 251238.4" xmlns="http://www.w3.org/2000/svg">
  <path d="M 14386.9 19865 Q 16092.4 16916 17428.9 13415 Q 18450.4 13391 18595.9 12770 L 13588.9 11264 Q 12679.9 15570.5 11206.9 19677.5 Q 11062.9 20082.5 10914.4 20480 Q 9406.9 24521 7752.4 27422 L 8119.9 27668 Q 9840.4 26148.5 11376.4 24258.5 L 11376.4 40110.5 L 12021.4 40110.5 Q 13104.4 40070 13956.4 39692 Q 14809.9 39312.5 14878.9 39065 L 14878.9 21002 Q 15745.9 20849 15831.4 20418.5 L 14386.9 19865 Z M 31620.4 18974 Q 31563.4 23327 31413.4 25388 Q 31263.4 27447.5 30883.9 27791 Q 30684.4 28052 30115.9 28037 Q 29772.4 28037 29256.4 28014.5 Q 28738.9 27990.5 28303.9 27945.5 L 28303.9 20172.5 L 31620.4 18974 Z M 35368.9 30617 L 35031.4 30617 Q 33978.4 34035.5 33340.9 35010.5 Q 32964.4 35486 32173.9 35502.5 Q 31633.9 35568.5 30672.4 35582 Q 29712.4 35597 28456.9 35594 L 24001.9 35594 Q 22780.9 35604.5 22320.4 35325.5 Q 21859.9 35046.5 21882.4 34365.5 L 21882.4 22446.5 L 24831.4 21401 L 24831.4 33627.5 L 25446.4 33627.5 Q 26491.9 33594.5 27370.9 33233 Q 28248.4 32870 28303.9 32583.5 L 28303.9 28406 Q 29325.4 28743.5 29746.9 29358.5 Q 30162.4 30119 30115.9 31754 Q 32181.4 31739 33463.9 30710 Q 34261.9 30069.5 34600.9 28338.5 Q 34735.9 27654.5 34822.9 26721.5 Q 35038.9 24333.5 35061.4 19589 Q 35998.9 19451 36289.9 19035.5 L 33096.4 16425.5 L 31314.4 18146 L 31129.9 18206 L 28303.9 19220 L 28303.9 12953 Q 28912.9 12857 29160.4 12623 Q 29406.4 12389 29439.4 12062 L 24831.4 11633 L 24831.4 20450 L 21882.4 21494 L 21882.4 15749 Q 22950.4 15564.5 22957.9 14919.5 L 18381.4 14427.5 L 18381.4 22722.5 L 15124.9 23889.5 L 15708.4 24657.5 L 18381.4 23705 L 18381.4 35318 Q 18346.9 37563.5 19578.4 38313.5 Q 20811.4 39062 23725.9 39003.5 L 28180.9 39003.5 Q 32763.4 39015.5 34717.9 38615 Q 35334.4 38489 35764.9 38319.5 Q 37104.4 37767.5 37027.9 36638 Q 37044.4 36141.5 36708.4 35793.5 Q 36373.9 35447 35491.9 35133.5 L 35368.9 30617 Z M 12574.9 68516.2 L 12574.9 60437.2 L 17244.4 60437.2 L 17244.4 68516.2 L 12574.9 68516.2 Z M 17244.4 51927.7 L 17244.4 59546.2 L 12574.9 59546.2 L 12574.9 51927.7 L 17244.4 51927.7 Z M 18564.4 49193.2 L 16936.9 51036.7 L 14263.9 51036.7 Q 15021.4 50108.2 15823.9 49055.2 Q 16626.4 48000.7 17244.4 47165.2 Q 18312.4 47189.2 18504.4 46428.7 L 13527.4 45230.2 Q 13405.9 46563.7 13227.4 48144.7 Q 13048.9 49725.7 12882.4 51036.7 L 12697.9 51036.7 L 9256.9 49592.2 L 9256.9 72816.7 L 9810.4 72816.7 Q 10950.4 72780.7 11745.4 72383.2 Q 12540.4 71984.2 12574.9 71649.7 L 12574.9 69375.7 L 17244.4 69375.7 L 17244.4 71802.7 L 17766.4 71802.7 Q 18727.9 71762.2 19632.4 71388.7 Q 20536.9 71013.7 20623.9 70788.7 L 20623.9 52479.7 Q 21567.4 52272.7 21913.9 51834.7 L 18564.4 49193.2 Z M 33618.4 48947.2 L 31681.9 50943.7 L 26797.9 50943.7 Q 27750.4 49200.7 28518.4 47226.7 Q 29554.9 47219.2 29716.9 46613.2 L 24862.9 45198.7 Q 24237.4 48792.7 23122.9 52206.7 Q 22008.4 55622.2 20715.4 58040.2 L 21114.4 58286.2 Q 24079.9 55775.2 26305.9 51834.7 L 32020.9 51834.7 Q 31882.9 59714.2 31536.4 64188.7 Q 31191.4 68663.2 30361.9 69468.7 Q 29977.9 69875.2 29224.9 69867.7 Q 28564.9 69861.7 27282.4 69774.7 Q 25999.9 69689.2 24831.4 69591.7 L 24801.4 70020.7 Q 25941.4 70232.2 26785.9 70581.7 Q 27631.9 70931.2 28057.9 71372.2 Q 28786.9 72125.2 28732.9 73892.2 Q 30240.4 73898.2 31321.9 73500.7 Q 32401.9 73103.2 33217.9 72233.2 Q 34366.9 71046.7 34860.4 66962.2 Q 34941.4 66309.7 35011.9 65573.2 Q 35430.4 60954.7 35553.4 52418.2 Q 36574.9 52265.2 36904.9 51834.7 L 33618.4 48947.2 Z M 23080.9 57395.2 Q 24036.4 58697.2 24789.4 60390.7 Q 25543.9 62084.2 25692.4 63753.7 Q 27003.4 64754.2 28014.4 64230.7 Q 28960.9 63744.7 29094.4 62498.2 Q 29227.9 61253.2 28018.9 59819.2 Q 26739.4 58289.2 23326.9 57210.7 L 23080.9 57395.2 Z M 9471.4 99471.9 Q 9933.4 99287.4 10300.9 98733.9 Q 12886.9 97580.4 14935.9 96525.9 Q 16986.4 95471.4 18165.4 94802.4 L 18135.4 94433.4 Q 16152.4 94712.4 14268.4 94952.4 Q 12384.4 95190.9 10884.4 95354.4 Q 13084.9 93674.4 15240.4 91571.4 Q 15505.9 91311.9 15765.4 91050.9 Q 17866.9 88941.9 19179.4 87152.4 Q 20116.9 87236.4 20316.4 86721.9 L 16200.4 84449.4 Q 15684.4 85869.9 14664.4 87612.9 Q 12075.4 87797.4 10086.4 87890.4 Q 11745.4 86549.4 13404.4 84771.9 Q 15063.4 82994.4 16168.9 81377.4 Q 17059.9 81369.9 17212.9 80855.4 L 12727.9 79103.4 Q 12363.4 80567.4 11535.4 82515.9 Q 11061.4 83625.9 10513.9 84663.9 Q 9559.9 86486.4 8641.9 87398.4 Q 8401.9 87561.9 8062.9 87663.9 Q 7723.9 87764.4 7690.9 87767.4 L 9288.4 91668.9 Q 9618.4 91538.4 9901.9 91176.9 Q 11875.9 90347.4 13527.4 89517.9 Q 12405.4 91277.4 11218.9 92778.9 Q 10033.9 94278.9 8980.9 95139.9 Q 8707.9 95306.4 8296.9 95420.4 Q 7885.9 95534.4 7843.9 95538.9 L 9471.4 99471.9 Z M 18780.4 99747.9 Q 15615.4 100592.4 12742.9 101288.4 Q 12409.9 101369.4 12088.9 101445.9 Q 9310.9 102110.4 7843.9 102389.4 L 9625.9 106598.4 Q 10209.4 106376.4 10423.9 105738.9 Q 13368.4 103977.9 15466.9 102524.4 Q 17563.9 101069.4 18871.9 100023.9 L 18780.4 99747.9 Z M 29256.4 99194.4 Q 29839.9 100079.4 30445.9 101118.9 Q 31053.4 102158.4 31590.4 103250.4 Q 28426.9 103413.9 25653.4 103538.4 Q 22881.4 103661.4 20868.4 103710.9 Q 22801.9 102591.9 24655.9 101183.4 Q 26508.4 99776.4 27750.4 98519.4 Q 28648.9 98549.4 28855.9 98120.4 L 25354.9 96306.9 L 35122.9 96306.9 Q 35806.9 96314.4 35983.9 95816.4 Q 34993.9 94965.9 33913.9 94122.9 Q 33616.9 93888.9 33354.4 93683.4 Q 32391.4 92942.4 32328.4 92897.4 L 30300.4 95415.9 L 18042.4 95415.9 L 18288.4 96306.9 L 24340.9 96306.9 Q 23664.4 97784.4 22443.4 99551.4 Q 21982.9 100211.4 21490.9 100830.9 Q 20181.4 102489.9 18964.9 103311.9 Q 18720.4 103452.9 18354.4 103548.9 Q 17988.4 103644.9 17950.9 103649.4 L 19425.4 107550.9 Q 19794.4 107457.9 20070.4 107090.4 Q 23730.4 106271.4 26763.4 105480.9 Q 29796.4 104690.4 31959.4 104079.9 Q 32634.4 105615.9 32941.9 107058.9 Q 34315.9 108044.4 35250.4 107402.4 Q 36082.9 106832.4 36067.9 105468.9 Q 36051.4 104106.9 34722.4 102450.9 Q 33255.4 100601.4 29562.4 99041.4 L 29256.4 99194.4 Z M 27474.4 90470.4 L 21114.4 90470.4 L 21360.4 91329.9 L 31560.4 91329.9 Q 32250.4 91338.9 32388.4 90839.4 Q 31485.4 90059.4 30504.4 89297.4 Q 30327.4 89157.9 30163.9 89031.9 Q 29257.9 88334.4 29194.9 88289.4 L 27474.4 90470.4 Z M 24954.4 78735.9 Q 23613.4 83036.4 21310.9 86549.4 Q 19008.4 90062.4 16353.4 92313.9 L 16660.9 92651.4 Q 20104.9 91061.4 22950.4 88412.4 Q 25795.9 85761.9 27903.4 81776.4 Q 29029.9 84819.9 30841.9 87551.4 Q 32652.4 90284.4 34908.4 92129.4 Q 35230.9 90155.4 37119.4 89057.4 L 37212.4 88658.4 Q 34699.9 87515.4 32277.4 85575.9 Q 32266.9 85566.9 32254.9 85557.9 Q 29835.4 83613.9 28426.9 81069.9 Q 29347.9 81108.9 29532.4 80547.9 L 24954.4 78735.9 Z M 31375.9 138475.1 L 13342.9 138475.1 L 13342.9 121886.6 Q 14418.4 121694.6 14479.9 120995.6 L 9871.9 120535.1 L 9871.9 138076.1 Q 9172.9 138529.1 8703.4 139028.6 L 12390.4 140963.6 L 13527.4 139366.1 L 31375.9 139366.1 L 31375.9 141578.6 L 32050.9 141578.6 Q 33072.4 141541.1 33933.4 141170.6 Q 34792.9 140800.1 34846.9 140533.1 L 34846.9 121672.1 Q 35410.9 121579.1 35634.4 121376.6 Q 35857.9 121174.1 35890.9 120872.6 L 31375.9 120443.6 L 31375.9 138475.1 Z M 23848.9 133714.1 L 23848.9 127139.6 L 26122.9 127139.6 L 26122.9 133714.1 L 23848.9 133714.1 Z M 18564.4 127139.6 L 20899.9 127139.6 L 20899.9 133714.1 L 18564.4 133714.1 L 18564.4 127139.6 Z M 20899.9 120350.6 L 20899.9 126248.6 L 18564.4 126248.6 L 18564.4 120350.6 L 20899.9 120350.6 Z M 26122.9 120350.6 L 26122.9 126248.6 L 23848.9 126248.6 L 23848.9 120350.6 L 26122.9 120350.6 Z M 26644.9 135956.6 Q 27487.9 135923.6 28318.9 135602.6 Q 29149.9 135283.1 29256.4 135065.6 L 29256.4 120811.1 Q 30100.9 120589.1 30391.9 120227.6 L 27319.9 117862.1 L 25815.4 119491.1 L 18718.9 119491.1 L 15462.4 118108.1 L 15462.4 136448.6 L 15954.4 136448.6 Q 16983.4 136411.1 17754.4 136040.6 Q 18525.4 135670.1 18564.4 135403.1 L 18564.4 134605.1 L 26122.9 134605.1 L 26122.9 135956.6 L 26644.9 135956.6 Z M 30975.4 115589.6 L 7935.4 115589.6 L 8181.4 116449.1 L 36198.4 116449.1 Q 36882.4 116456.6 37057.9 115957.1 Q 36034.9 115111.1 34897.9 114245.6 Q 34515.4 113954.6 34183.9 113704.1 Q 33190.9 112960.1 33126.4 112916.6 L 30975.4 115589.6 Z M 16045.9 153917.8 Q 17137.9 155425.3 18292.9 157169.8 Q 19447.9 158914.3 20562.4 160768.3 Q 19191.4 163912.3 17520.4 166555.3 Q 15850.9 169198.3 14017.9 171212.8 L 14386.9 171520.3 Q 18879.4 168478.3 22128.4 163594.3 Q 23748.4 166712.8 24493.9 169462.3 Q 26064.4 170621.8 26866.9 169609.3 Q 27601.9 168677.8 27103.9 166397.8 Q 26575.9 163930.3 23940.4 160490.8 Q 25438.9 157511.8 26613.4 153886.3 Q 27666.4 153940.3 27841.9 153302.8 L 23418.4 151889.8 Q 22728.4 155038.3 21667.9 158003.8 Q 19555.9 155899.3 16476.4 153701.8 L 16045.9 153917.8 Z M 36535.9 166021.3 L 36228.4 165959.8 Q 35791.9 167902.3 35215.9 169523.8 Q 35031.4 170168.8 34477.9 169799.8 Q 33169.9 168977.8 32502.4 166387.3 Q 31989.4 164440.3 31762.9 161939.8 Q 31537.9 159437.8 31527.4 156788.8 Q 31521.4 153277.3 31743.4 150323.8 Q 32826.4 150085.3 33126.4 149708.8 L 29593.9 146728.3 L 27750.4 148817.8 L 15892.9 148817.8 L 11683.9 147313.3 L 11683.9 159938.8 Q 11758.9 164122.3 11154.4 167870.8 Q 11083.9 168253.3 11001.4 168631.3 Q 10275.4 172319.8 7873.9 175298.8 L 8181.4 175544.8 Q 11811.4 173353.3 13324.9 170513.8 Q 14446.9 168466.3 14854.9 166222.3 Q 15381.4 163114.3 15309.4 159907.3 L 15309.4 149678.8 L 28119.4 149678.8 Q 27997.9 154457.8 28147.9 159163.3 Q 28249.9 161935.3 28564.9 164443.3 Q 28879.9 166951.3 29493.4 169019.8 Q 30505.9 172546.3 32695.9 174161.8 Q 33724.9 175004.8 34753.9 175259.8 Q 35784.4 175514.8 36628.9 174745.3 Q 37020.4 174361.3 36924.4 173470.3 Q 36826.9 172579.3 36228.4 171365.8 L 36535.9 166021.3 Z M 15615.4 188866.5 L 19824.4 188866.5 Q 20476.9 188874 20623.9 188374.5 Q 19899.4 187600.5 19033.9 186787.5 Q 18853.9 186616.5 18687.4 186462 Q 17887.9 185721 17827.9 185671.5 L 16230.4 188007 L 15615.4 188007 L 15615.4 181708.5 Q 16245.4 181617 16483.9 181405.5 Q 16722.4 181194 16752.4 180849 L 12298.9 180418.5 L 12298.9 188007 L 7996.9 188007 L 8242.9 188866.5 L 11868.4 188866.5 Q 11368.9 192391.5 10339.9 195778.5 Q 9310.9 199165.5 7659.4 201861 L 8058.4 202198.5 Q 10546.9 199833 12298.9 196915.5 L 12298.9 209356.5 L 12973.9 209356.5 Q 13945.9 209320.5 14755.9 208926 Q 15565.9 208533 15615.4 208219.5 L 15615.4 191938.5 Q 16135.9 192855 16506.4 193939.5 Q 16876.9 195022.5 16936.9 196054.5 Q 18030.4 196960.5 18897.4 196497 Q 19552.9 196152 19708.9 195330 Q 19866.4 194506.5 19210.9 193507.5 Q 18387.4 192198 15615.4 191170.5 L 15615.4 188866.5 Z M 30238.9 197929.5 L 24892.9 197929.5 L 22282.9 196945.5 Q 25431.4 195564 27841.9 193720.5 Q 29401.9 195241.5 31560.4 196393.5 L 30238.9 197929.5 Z M 24525.4 206254.5 L 24525.4 198820.5 L 30361.9 198820.5 L 30361.9 206254.5 L 24525.4 206254.5 Z M 30546.4 185395.5 Q 29431.9 188130 27535.9 190494 Q 25537.9 189066 24186.4 187177.5 Q 24823.9 186309 25416.4 185395.5 L 30546.4 185395.5 Z M 32449.9 182692.5 L 30484.9 184534.5 L 25906.9 184534.5 Q 26413.9 183652.5 26829.4 182722.5 Q 27841.9 182730 28026.4 182139 L 23511.4 180603 Q 22765.9 183894 21444.4 186811.5 Q 20124.4 189729 18595.9 191754 L 18994.9 192030 Q 21552.4 190410 23695.9 187822.5 Q 24778.9 190095 26275.9 192000 Q 22642.9 195825 17305.9 198174 L 17520.4 198574.5 Q 19464.4 198060 21175.9 197406 L 21175.9 209265 L 21759.4 209265 Q 23061.4 209235 23787.4 208945.5 Q 24513.4 208657.5 24525.4 208465.5 L 24525.4 207114 L 30361.9 207114 L 30361.9 208957.5 L 30975.4 208957.5 Q 32328.4 208924.5 33103.9 208630.5 Q 33879.4 208338 33894.4 208189.5 L 33894.4 199065 Q 34839.4 198843 35092.9 198481.5 L 33586.9 197346 Q 34231.9 197614.5 34876.9 197836.5 Q 35115.4 195355.5 37242.4 194580 L 37303.9 194242.5 Q 33018.4 193482 29931.4 191938.5 Q 32604.4 189258 34263.4 185979 Q 34827.4 185940 35115.4 185836.5 Q 35403.4 185734.5 35553.4 185487 L 32449.9 182692.5 Z M 12237.4 232725.2 L 12237.4 219145.7 L 14940.4 219145.7 L 14940.4 232725.2 L 12237.4 232725.2 Z M 14632.9 218286.2 L 12360.4 218286.2 L 8980.9 216841.7 L 8980.9 238069.7 L 9502.9 238069.7 Q 10600.9 238033.7 11400.4 237639.2 Q 12198.4 237246.2 12237.4 236932.7 L 12237.4 233584.7 L 14940.4 233584.7 L 14940.4 236533.7 L 15462.4 236533.7 Q 16420.9 236490.2 17298.4 236085.2 Q 18175.9 235678.7 18258.4 235428.2 L 18258.4 219669.2 Q 19102.9 219445.7 19393.9 219084.2 L 16230.4 216535.7 L 14632.9 218286.2 Z M 26244.4 218101.7 L 26244.4 227901.2 L 23725.9 227901.2 L 23725.9 218101.7 L 26244.4 218101.7 Z M 31866.4 218101.7 L 31866.4 227901.2 L 29316.4 227901.2 L 29316.4 218101.7 L 31866.4 218101.7 Z M 35644.9 233185.7 L 35307.4 233185.7 Q 34797.4 235092.2 34378.9 236430.2 Q 33960.4 237766.7 33679.9 238315.7 Q 33357.4 238830.2 32665.9 238837.7 Q 31681.9 238953.2 29409.4 238929.2 L 25630.9 238929.2 Q 24523.9 238939.7 24114.4 238684.7 Q 23703.4 238428.2 23725.9 237793.7 L 23725.9 228762.2 L 31866.4 228762.2 L 31866.4 231433.7 L 32419.9 231433.7 Q 33361.9 231396.2 34273.9 231054.2 Q 35187.4 230710.7 35277.4 230512.7 L 35277.4 218562.2 Q 36106.9 218377.7 36382.9 218010.2 L 33187.9 215490.2 L 31560.4 217210.7 L 24124.9 217210.7 L 20316.4 215767.7 L 20316.4 238684.7 Q 20283.4 240844.7 21391.9 241587.2 Q 22498.9 242329.7 25138.9 242278.7 L 29133.4 242278.7 Q 33490.9 242284.7 35254.9 241816.7 Q 35551.9 241740.2 35793.4 241650.2 Q 37228.9 241098.2 37150.9 239974.7 Q 37165.9 239541.2 36858.4 239194.7 Q 36552.4 238848.2 35737.9 238530.2 L 35644.9 233185.7 Z " fill-rule="nonzero" style="fill:#333333;;fill-opacity:1;"/>
</svg>