<svg version="1.1" x="0" y="0" width="100%" height="100%" viewBox="0 0 816486.4 47411.2" xmlns="http://www.w3.org/2000/svg">
  <path d="M 23267.9 16212.8 L 23267.9 17011 L 7532.7 17011 L 7293.5 16212.8 L 23267.9 16212.8 Z M 22415.1 12032 L 23214.6 11153.2 L 25024.2 12563.7 Q 24891.6 12723.6 24571.8 12856.2 Q 24252 12990.1 23852.9 13069.4 L 23852.9 21590.9 Q 23852.9 21670.2 23680 21776.8 Q 23507.1 21883.4 23280.9 21977 Q 23054.7 22069.3 22841.5 22069.3 L 22681.6 22069.3 L 22681.6 12032 L 22415.1 12032 Z M 22308.5 22122.6 Q 22201.9 22681.6 21350.4 22788.2 L 21350.4 32426.4 Q 21350.4 32985.4 21190.5 33437.8 Q 21030.6 33890.2 20498.9 34182.7 Q 19965.9 34476.5 18820.6 34609.1 Q 18767.3 34316.6 18608.7 34076.1 Q 18448.8 33836.9 18155 33651 Q 17809.2 33491.1 17170.9 33358.5 Q 16531.3 33224.6 15519.9 33118 L 15519.9 32692.9 Q 15519.9 32692.9 16025.6 32731.9 Q 16531.3 32772.2 17237.2 32812.5 Q 17943.1 32851.5 18568.4 32891.8 Q 19193.7 32932.1 19432.9 32932.1 Q 19886.6 32932.1 20032.2 32785.2 Q 20179.1 32639.6 20179.1 32319.8 L 20179.1 21856.1 L 22308.5 22122.6 Z M 8518.1 26035.6 Q 10088.5 26595.9 11127.2 27261.5 Q 12164.6 27927.1 12737.9 28578.4 Q 13309.9 29231 13510.1 29790 Q 13709 30349 13629.7 30735.1 Q 13549.1 31121.2 13256.6 31227.8 Q 12964.1 31334.4 12565 31095.2 Q 12298.5 30269.7 11579.6 29363.6 Q 10860.7 28458.8 9955.9 27647.6 Q 9049.8 26835.1 8224.3 26302.1 L 8518.1 26035.6 Z M 23240.6 20259.7 L 23240.6 21057.9 L 6148.2 21057.9 L 5909 20259.7 L 23240.6 20259.7 Z M 23347.2 12030.7 L 23347.2 12830.2 L 6361.4 12830.2 L 6120.9 12030.7 L 23347.2 12030.7 Z M 25823.7 23214.6 Q 25823.7 23214.6 26035.6 23374.5 Q 26248.8 23533.1 26581.6 23799.6 Q 26914.4 24066.1 27274.5 24372.9 Q 27633.3 24678.4 27927.1 24970.9 Q 27820.5 25397.3 27234.2 25397.3 L 3645.7 25397.3 L 3405.2 24599.1 L 24704.4 24599.1 L 25823.7 23214.6 Z M 45152.1 10408.3 Q 46111.5 10914 46670.5 11473 Q 47229.5 12032 47481.7 12537.7 Q 47735.2 13043.4 47748.2 13469.8 Q 47761.2 13896.2 47615.6 14161.4 Q 47468.7 14427.9 47202.2 14455.2 Q 46937 14481.2 46643.2 14242 Q 46617.2 13337.2 46058.2 12298.5 Q 45499.2 11259.8 44806.3 10621.5 L 45152.1 10408.3 Z M 47095.6 32665.6 Q 47095.6 33171.3 46950 33597.7 Q 46803.1 34022.8 46363.7 34303.6 Q 45924.3 34583.1 44992.2 34688.4 Q 44966.2 34449.2 44846.6 34210 Q 44727 33970.8 44513.8 33810.9 Q 44247.3 33651 43754.6 33544.4 Q 43261.9 33437.8 42489.7 33331.2 L 42489.7 32932.1 Q 42489.7 32932.1 42862.8 32958.1 Q 43235.9 32985.4 43741.6 33024.4 Q 44247.3 33064.7 44699.7 33092 Q 45152.1 33118 45339.3 33118 Q 45711.1 33118 45817.7 33011.4 Q 45924.3 32904.8 45924.3 32639.6 L 45924.3 23479.8 L 47095.6 23479.8 L 47095.6 32665.6 Z M 52181.2 22389.1 Q 52181.2 22389.1 52341.1 22521.7 Q 52501 22655.6 52767.5 22867.5 Q 53034 23080.7 53326.5 23347.2 Q 53619 23613.7 53859.5 23852.9 Q 53752.9 24279.3 53193.9 24279.3 L 40014.5 24279.3 L 39801.3 23479.8 L 51276.4 23479.8 L 52181.2 22389.1 Z M 50371.6 18075.7 Q 50371.6 18075.7 50531.5 18208.3 Q 50690.1 18342.2 50943.6 18554.1 Q 51197.1 18767.3 51489.6 19020.8 Q 51782.1 19273 52021.3 19513.5 Q 51916 19938.6 51357 19938.6 L 41425 19938.6 L 41211.8 19140.4 L 49492.8 19140.4 L 50371.6 18075.7 Z M 51728.8 14668.4 L 52581.6 13788.3 L 54152 15386 Q 54019.4 15492.6 53778.9 15532.9 Q 53539.7 15573.2 53166.6 15599.2 Q 52900.1 16104.9 52407.4 16810.8 Q 51916 17516.7 51542.9 17969.1 L 51116.5 17783.2 Q 51250.4 17410.1 51423.3 16823.8 Q 51596.2 16238.8 51769.1 15639.5 Q 51942 15041.5 52021.3 14668.4 L 51728.8 14668.4 Z M 41399 13655.7 Q 41584.9 15093.5 41239.1 16145.2 Q 40893.3 17196.9 40440.9 17676.6 Q 40253.7 17862.5 39988.5 17995.1 Q 39722 18129 39468.5 18129 Q 39216.3 18129 39056.4 17969.1 Q 38869.2 17729.9 38990.1 17410.1 Q 39109.7 17090.3 39402.2 16823.8 Q 39722 16557.3 40040.5 16038.6 Q 40360.3 15519.9 40600.8 14880.3 Q 40840 14242 40893.3 13628.4 L 41399 13655.7 Z M 52714.2 14667.1 L 52714.2 15466.6 L 40759.4 15466.6 L 40759.4 14667.1 L 52714.2 14667.1 Z M 44113.4 26754.5 Q 44008.1 26941.7 43767.6 27074.3 Q 43528.4 27208.2 43129.3 27154.9 Q 42197.2 28991.8 40972.6 30655.8 Q 39748 32319.8 38497.4 33410.5 L 38097 33118 Q 39215 31867.4 40347.3 29962.9 Q 41478.3 28059.7 42276.5 25983.6 L 44113.4 26754.5 Z M 49438.2 26009.6 Q 50822.7 27048.3 51714.5 27980.4 Q 52607.6 28911.2 53086 29710.7 Q 53565.7 30508.9 53711.3 31108.2 Q 53858.2 31707.5 53764.6 32066.3 Q 53672.3 32426.4 53418.8 32505.7 Q 53166.6 32586.3 52819.5 32319.8 Q 52580.3 31387.7 51942 30282.7 Q 51302.4 29177.7 50530.2 28100 Q 49758 27021 49066.4 26222.8 L 49438.2 26009.6 Z M 31227.8 11447 L 32718.9 12272.5 L 32400.4 12272.5 L 32400.4 20151.8 Q 32400.4 20232.4 32119.6 20418.3 Q 31840.1 20605.5 31387.7 20605.5 L 31227.8 20605.5 L 31227.8 12272.5 L 31227.8 11447 Z M 29630.1 32000 Q 30642.8 31786.8 32226.2 31374.7 Q 33810.9 30961.3 35714.1 30415.3 Q 37618.6 29870.6 39534.8 29284.3 L 39668.7 29683.4 Q 38097 30429.6 35980.6 31308.4 Q 33864.2 32185.9 31174.5 33118 Q 31121.2 33357.2 30975.6 33517.1 Q 30828.7 33677 30668.8 33757.6 L 29630.1 32000 Z M 37192.2 22308.5 Q 37192.2 22308.5 37512 22562 Q 37831.8 22814.2 38284.2 23187.3 Q 38736.6 23560.4 39109.7 23933.5 Q 39003.1 24358.6 38416.8 24358.6 L 34770.3 24358.6 L 34770.3 23560.4 L 36153.5 23560.4 L 37192.2 22308.5 Z M 33384.5 22788.2 Q 33358.5 23027.4 33158.3 23187.3 Q 32959.4 23347.2 32533 23426.5 L 32533 31814.1 L 31361.7 32213.2 L 31361.7 22549 L 33384.5 22788.2 Z M 35515.2 18608.7 L 35515.2 30882 L 34343.9 31281.1 L 34343.9 18608.7 L 35515.2 18608.7 Z M 37112.9 12272.5 L 37885.1 11393.7 L 39722 12804.2 Q 39428.2 13122.7 38550.7 13309.9 L 38550.7 19832 Q 38550.7 19885.3 38376.5 19991.9 Q 38203.6 20098.5 37977.4 20166.1 Q 37751.2 20232.4 37538 20232.4 L 37378.1 20232.4 L 37378.1 12272.5 L 37112.9 12272.5 Z M 37964.4 18474.8 L 37964.4 19273 L 32000 19273 L 32000 18474.8 L 37964.4 18474.8 Z M 37911.1 12271.2 L 37911.1 13069.4 L 31814.1 13069.4 L 31814.1 12271.2 L 37911.1 12271.2 Z M 61100.5 31654.2 Q 60514.2 31654.2 60128.1 31255.1 Q 59742 30856 59742 30349 Q 59742 29764 60128.1 29390.9 Q 60514.2 29017.8 61100.5 29017.8 Q 61712.8 29017.8 62084.6 29390.9 Q 62457.7 29764 62457.7 30349 Q 62457.7 30856 62084.6 31255.1 Q 61712.8 31654.2 61100.5 31654.2  Z M 61100.5 20791.4 Q 60514.2 20791.4 60128.1 20392.3 Q 59742 19993.2 59742 19486.2 Q 59742 18901.2 60128.1 18528.1 Q 60514.2 18155 61100.5 18155 Q 61712.8 18155 62084.6 18528.1 Q 62457.7 18901.2 62457.7 19486.2 Q 62457.7 19993.2 62084.6 20392.3 Q 61712.8 20791.4 61100.5 20791.4  Z M 91664.8 12457.1 L 104098 12457.1 L 104098 13256.6 L 91878 13256.6 L 91664.8 12457.1 Z M 89215.6 21883.4 L 104471.1 21883.4 L 105589.1 20552.2 Q 105589.1 20552.2 105789.3 20710.8 Q 105988.2 20870.7 106295 21124.2 Q 106600.5 21376.4 106946.3 21670.2 Q 107293.4 21962.7 107585.9 22255.2 Q 107532.6 22468.4 107359.7 22575 Q 107186.8 22681.6 106920.3 22681.6 L 89427.5 22681.6 L 89215.6 21883.4 Z M 97708.5 17276.2 L 99837.9 17542.7 Q 99784.6 17809.2 99571.4 17982.1 Q 99359.5 18155 98879.8 18208.3 L 98879.8 32505.7 Q 98879.8 33064.7 98747.2 33517.1 Q 98613.3 33969.5 98120.6 34250.3 Q 97627.9 34529.8 96563.2 34662.4 Q 96509.9 34369.9 96377.3 34129.4 Q 96243.4 33890.2 95950.9 33730.3 Q 95658.4 33544.4 95099.4 33424.8 Q 94540.4 33305.2 93608.3 33198.6 L 93608.3 32744.9 Q 93608.3 32744.9 94047.7 32785.2 Q 94487.1 32825.5 95112.4 32865.8 Q 95737.7 32904.8 96283.7 32945.1 Q 96829.7 32985.4 97042.9 32985.4 Q 97442 32985.4 97574.6 32851.5 Q 97708.5 32718.9 97708.5 32373.1 L 97708.5 17276.2 Z M 103565 12458.4 L 103246.5 12458.4 L 104230.6 11526.3 L 105908.9 13150 Q 105775 13282.6 105509.8 13322.9 Q 105243.3 13363.2 104790.9 13389.2 Q 104044.7 13975.5 103020.3 14801 Q 101994.6 15625.2 100876.6 16450.7 Q 99758.6 17276.2 98747.2 17862.5 L 98214.2 17862.5 Q 99146.3 17143.6 100157.7 16132.2 Q 101169.1 15120.8 102088.2 14122.4 Q 103006 13124 103565 12458.4  Z M 86871.7 18368.2 L 87537.3 17516.7 L 88842.5 17995.1 Q 88789.2 18182.3 88589 18301.9 Q 88390.1 18421.5 88070.3 18474.8 L 88070.3 34129.4 Q 88070.3 34182.7 87910.4 34303.6 Q 87750.5 34423.2 87537.3 34515.5 Q 87325.4 34609.1 87084.9 34609.1 L 86871.7 34609.1 L 86871.7 18368.2 Z M 89348.2 10487.6 L 91504.9 11180.5 Q 91425.6 11419.7 91185.1 11579.6 Q 90945.9 11739.5 90493.5 11713.5 Q 89614.7 14135.4 88482.4 16439 Q 87351.4 18741.3 86033.2 20725.1 Q 84716.3 22708.9 83278.5 24226 L 82878.1 23933.5 Q 84102.7 22335.8 85314.3 20179.1 Q 86525.9 18022.4 87564.6 15547.2 Q 88603.3 13070.7 89348.2 10487.6  Z M 120151.7 12006 L 121616.8 12697.6 L 131281 12697.6 L 131973.9 11818.8 L 133730.2 13203.3 Q 133570.3 13363.2 133305.1 13469.8 Q 133038.6 13576.4 132558.9 13629.7 L 132558.9 33730.3 Q 132558.9 33783.6 132413.3 33903.2 Q 132266.4 34022.8 132040.2 34116.4 Q 131814 34210 131573.5 34210 L 131414.9 34210 L 131414.9 13497.1 L 121297 13497.1 L 121297 34050.1 Q 121297 34156.7 121030.5 34342.6 Q 120764 34529.8 120311.6 34529.8 L 120151.7 34529.8 L 120151.7 12697.6 L 120151.7 12006 Z M 126888.3 12857.5 L 126888.3 31814.1 L 125796.3 31814.1 L 125796.3 12857.5 L 126888.3 12857.5 Z M 132452.3 31334.4 L 132452.3 32132.6 L 120498.8 32132.6 L 120498.8 31334.4 L 132452.3 31334.4 Z M 132319.7 21616.9 L 132319.7 22415.1 L 120364.9 22415.1 L 120364.9 21616.9 L 132319.7 21616.9 Z M 119566.7 16637.9 Q 119460.1 16877.1 119061 16970.7 Q 118660.6 17064.3 118075.6 16744.5 L 118767.2 16558.6 Q 118208.2 17516.7 117316.4 18741.3 Q 116424.6 19965.9 115359.9 21256.8 Q 114295.2 22549 113149.9 23773.6 Q 112004.6 24998.2 110886.6 25983.6 L 110833.3 25689.8 L 111686.1 25689.8 Q 111552.2 26436 111272.7 26835.1 Q 110993.2 27234.2 110673.4 27340.8 L 109902.5 25370 Q 109902.5 25370 110182 25303.7 Q 110461.5 25237.4 110594.1 25158.1 Q 111552.2 24279.3 112577.9 23041.7 Q 113602.3 21802.8 114587.7 20405.3 Q 115573.1 19007.8 116371.3 17702.6 Q 117170.8 16398.7 117649.2 15413.3 L 119566.7 16637.9 Z M 116904.3 11978.7 Q 116797.7 12217.9 116411.6 12351.8 Q 116025.5 12484.4 115413.2 12217.9 L 116104.8 12032 Q 115573.1 13017.4 114707.3 14308.3 Q 113842.8 15599.2 112830.1 16864.1 Q 111818.7 18129 110833.3 19114.4 L 110780 18820.6 L 111632.8 18820.6 Q 111526.2 19566.8 111233.7 19978.9 Q 110939.9 20392.3 110647.4 20498.9 L 109902.5 18528.1 Q 109902.5 18528.1 110141.7 18474.8 Q 110380.9 18421.5 110461.5 18342.2 Q 111099.8 17702.6 111752.4 16757.5 Q 112405 15812.4 113017.3 14760.7 Q 113629.6 13709 114122.3 12710.6 Q 114615 11712.2 114907.5 10967.3 L 116904.3 11978.7 Z M 110221 31467 Q 111073.8 31255.1 112484.3 30815.7 Q 113896.1 30376.3 115626.4 29803 Q 117356.7 29231 119114.3 28618.7 L 119274.2 28991.8 Q 117889.7 29736.7 116025.5 30655.8 Q 114161.3 31573.6 111792.7 32586.3 Q 111765.4 32825.5 111619.8 32998.4 Q 111472.9 33171.3 111313 33251.9 L 110221 31467 Z M 110354.9 25503.9 Q 111127.1 25423.3 112444 25224.4 Q 113762.2 25024.2 115413.2 24757.7 Q 117064.2 24492.5 118794.5 24198.7 L 118847.8 24625.1 Q 117595.9 24998.2 115479.5 25650.8 Q 113363.1 26302.1 110993.2 26914.4 L 110354.9 25503.9 Z M 110274.3 18767.3 Q 110886.6 18767.3 111899.3 18728.3 Q 112910.7 18688 114135.3 18634.7 Q 115359.9 18581.4 116611.8 18502.1 L 116663.8 18954.5 Q 115786.3 19140.4 114175.6 19513.5 Q 112564.9 19886.6 110860.6 20179.1 L 110274.3 18767.3 Z M 137670.5 17196.9 Q 139985.8 19300.3 141517.2 21137.2 Q 143048.6 22974.1 143940.4 24505.5 Q 144832.2 26035.6 145205.3 27193.9 Q 145577.1 28352.2 145551.1 29058.1 Q 145523.8 29764 145231.3 29962.9 Q 144938.8 30163.1 144486.4 29790 Q 144245.9 28379.5 143501 26728.5 Q 142754.8 25077.5 141690.1 23387.5 Q 140625.4 21696.2 139454.1 20166.1 Q 138282.8 18634.7 137218.1 17436.1 L 137670.5 17196.9 Z M 143820.8 13390.5 L 144698.3 12511.7 L 146296 14028.8 Q 146163.4 14188.7 145937.2 14242 Q 145711 14295.3 145284.6 14348.6 Q 144911.5 16770.5 144273.2 19273 Q 143633.6 21776.8 142622.2 24226 Q 141610.8 26675.2 140145.7 28885.2 Q 138681.9 31093.9 136631.8 32904.8 L 136205.4 32559 Q 137963 30722.1 139294.2 28458.8 Q 140625.4 26195.5 141570.5 23667 Q 142515.6 21137.2 143127.9 18528.1 Q 143740.2 15919 144060 13390.5 L 143820.8 13390.5 Z M 144804.9 13389.2 L 144804.9 14188.7 L 136471.9 14188.7 L 136232.7 13389.2 L 144804.9 13389.2 Z M 155695 25450.6 Q 155614.4 25982.3 154922.8 26062.9 L 154922.8 32559 Q 154922.8 32825.5 155055.4 32891.8 Q 155189.3 32958.1 155695 32958.1 L 157398 32958.1 Q 158010.3 32958.1 158436.7 32958.1 Q 158863.1 32958.1 159023 32932.1 Q 159288.2 32932.1 159422.1 32638.3 Q 159528.7 32345.8 159688.6 31347.4 Q 159848.5 30349 159981.1 29284.3 L 160354.2 29284.3 L 160433.5 32718.9 Q 160779.3 32825.5 160872.9 32958.1 Q 160966.5 33090.7 160966.5 33250.6 Q 160966.5 33517.1 160700 33703 Q 160433.5 33890.2 159674.3 33982.5 Q 158916.4 34076.1 157451.3 34076.1 L 155481.8 34076.1 Q 154762.9 34076.1 154389.8 33956.5 Q 154018 33836.9 153884.1 33557.4 Q 153751.5 33277.9 153751.5 32825.5 L 153751.5 25184.1 L 155695 25450.6 Z M 154229.9 15466.6 Q 154202.6 15731.8 153990.7 15919 Q 153777.5 16104.9 153325.1 16158.2 Q 153297.8 18208.3 153231.5 20111.5 Q 153165.2 22016 152911.7 23733.3 Q 152659.5 25450.6 152086.2 27008 Q 151514.2 28565.4 150475.5 29949.9 Q 149438.1 31334.4 147800.1 32531.7 Q 146163.4 33730.3 143740.2 34741.7 L 143394.4 34236 Q 146082.8 33011.4 147759.8 31520.3 Q 149438.1 30029.2 150342.9 28258.6 Q 151247.7 26488 151607.8 24465.2 Q 151966.6 22441.1 152032.9 20125.8 Q 152099.2 17809.2 152099.2 15226.1 L 154229.9 15466.6 Z M 147202.1 11340.4 L 148665.9 12032 L 157026.2 12032 L 157691.8 11180.5 L 159368.8 12511.7 Q 159234.9 12644.3 158982.7 12750.9 Q 158729.2 12857.5 158330.1 12910.8 L 158330.1 25929 Q 158330.1 26009.6 157997.3 26195.5 Q 157664.5 26381.4 157291.4 26381.4 L 157132.8 26381.4 L 157132.8 12723.6 L 148346.1 12723.6 L 148346.1 26248.8 Q 148346.1 26328.1 148079.6 26515.3 Q 147814.4 26701.2 147360.7 26701.2 L 147202.1 26701.2 L 147202.1 12032 L 147202.1 11340.4 Z M 173506.3 10141.8 Q 174545 10355 175183.3 10700.8 Q 175822.9 11046.6 176142.7 11445.7 Q 176461.2 11846.1 176514.5 12204.9 Q 176567.8 12565 176422.2 12804.2 Q 176275.3 13043.4 176008.8 13109.7 Q 175743.6 13177.3 175396.5 12964.1 Q 175183.3 12298.5 174545 11552.3 Q 173905.4 10807.4 173213.8 10381 L 173506.3 10141.8 Z M 184661.6 13311.2 L 185593.7 12377.8 L 187324 14054.8 Q 187191.4 14161.4 186952.2 14201.7 Q 186711.7 14242 186339.9 14268 Q 185992.8 14773.7 185474.1 15413.3 Q 184955.4 16051.6 184475.7 16452 L 184076.6 16238.8 Q 184315.8 15679.8 184582.3 14788 Q 184848.8 13896.2 184955.4 13311.2 L 184661.6 13311.2 Z M 165945.5 12191.9 Q 166291.3 13442.5 166171.7 14387.6 Q 166052.1 15332.7 165679 15946.3 Q 165305.9 16558.6 164853.5 16851.1 Q 164587 17037 164254.2 17130.6 Q 163921.4 17224.2 163656.2 17170.9 Q 163389.7 17117.6 163255.8 16877.1 Q 163097.2 16584.6 163255.8 16279.1 Q 163415.7 15972.3 163762.8 15786.4 Q 164533.7 15386 165053.7 14401.9 Q 165572.4 13416.5 165439.8 12217.9 L 165945.5 12191.9 Z M 185700.3 13309.9 L 185700.3 14108.1 L 165599.7 14108.1 L 165599.7 13309.9 L 185700.3 13309.9 Z M 175663 32612.3 Q 175663 33145.3 175503.1 33557.4 Q 175343.2 33970.8 174877.8 34250.3 Q 174412.4 34529.8 173427 34636.4 Q 173399.7 34395.9 173267.1 34156.7 Q 173133.2 33917.5 172894 33783.6 Q 172627.5 33597.7 172082.8 33491.1 Q 171536.8 33384.5 170658 33277.9 L 170658 32878.8 Q 170658 32878.8 171070.1 32906.1 Q 171483.5 32932.1 172055.5 32972.4 Q 172627.5 33011.4 173147.5 33038.7 Q 173666.2 33064.7 173879.4 33064.7 Q 174252.5 33064.7 174372.1 32959.4 Q 174491.7 32852.8 174491.7 32586.3 L 174491.7 26862.4 L 175663 26862.4 L 175663 32612.3 Z M 182319 16691.2 L 183197.8 15812.4 L 184795.5 17382.8 Q 184635.6 17489.4 184369.1 17528.4 Q 184102.6 17568.7 183730.8 17596 Q 183091.2 18528.1 181986.2 19565.5 Q 180881.2 20604.2 179869.8 21323.1 L 179496.7 21083.9 Q 180029.7 20497.6 180642 19712.4 Q 181254.3 18927.2 181800.3 18116 Q 182346.3 17303.5 182638.8 16691.2 L 182319 16691.2 Z M 176328.6 15146.8 Q 176994.2 16823.8 178086.2 18314.9 Q 179176.9 19806 180629 21044.9 Q 182079.8 22282.5 183782.8 23227.6 Q 185487.1 24172.7 187351.3 24785 L 187298 25051.5 Q 186871.6 25051.5 186566.1 25290.7 Q 186259.3 25529.9 186099.4 25930.3 Q 183730.8 24944.9 181719.7 23427.8 Q 179709.9 21909.4 178205.8 19886.6 Q 176701.7 17862.5 175822.9 15439.3 L 176328.6 15146.8 Z M 171084.4 15067.5 Q 171003.8 15253.4 170803.6 15319.7 Q 170604.7 15386 170125 15332.7 Q 169459.4 16505.3 168435 17768.9 Q 167409.3 19033.8 166158.7 20166.1 Q 164906.8 21297.1 163522.3 22095.3 L 163176.5 21723.5 Q 164401.1 20870.7 165559.4 19659.1 Q 166717.7 18448.8 167662.8 17090.3 Q 168607.9 15733.1 169192.9 14427.9 L 171084.4 15067.5 Z M 171776 29418.2 Q 171643.4 29604.1 171443.2 29683.4 Q 171243 29764 170790.6 29657.4 Q 170125 30429.6 169087.6 31255.1 Q 168048.9 32080.6 166797 32812.5 Q 165546.4 33544.4 164215.2 34050.1 L 163921.4 33651 Q 165120 33038.7 166265.3 32159.9 Q 167409.3 31281.1 168354.4 30323 Q 169299.5 29364.9 169858.5 28458.8 L 171776 29418.2 Z M 173905.4 16689.9 L 173905.4 17489.4 L 167968.3 17489.4 L 168554.6 16689.9 L 173905.4 16689.9 Z M 173107.2 16691.2 L 174039.3 15839.7 L 175556.4 17276.2 Q 175263.9 17542.7 174412.4 17568.7 Q 172894 20550.9 170138 23054.7 Q 167383.3 25557.2 163336.4 27101.6 L 163069.9 26649.2 Q 165493.1 25583.2 167515.9 24040.1 Q 169540 22495.7 171044.1 20618.5 Q 172548.2 18741.3 173373.7 16691.2 L 173107.2 16691.2 Z M 167596.5 18261.6 Q 168821.1 18447.5 169525.7 18807.6 Q 170231.6 19166.4 170538.4 19565.5 Q 170843.9 19965.9 170830.9 20284.4 Q 170817.9 20604.2 170564.4 20751.1 Q 170312.2 20896.7 169939.1 20710.8 Q 169593.3 20124.5 168847.1 19512.2 Q 168102.2 18899.9 167330 18554.1 L 167596.5 18261.6 Z M 165759.6 20072.5 Q 166877.6 20418.3 167489.9 20857.7 Q 168102.2 21297.1 168328.4 21736.5 Q 168554.6 22175.9 168488.3 22494.4 Q 168422 22814.2 168168.5 22920.8 Q 167915 23027.4 167569.2 22814.2 Q 167356 22175.9 166730.7 21457 Q 166105.4 20738.1 165465.8 20311.7 L 165759.6 20072.5 Z M 178591.9 28752.6 Q 180482.1 29284.3 181773 29923.9 Q 183065.2 30562.2 183823.1 31214.8 Q 184582.3 31867.4 184928.1 32439.4 Q 185273.9 33011.4 185260.9 33411.8 Q 185247.9 33810.9 184968.4 33957.8 Q 184688.9 34103.4 184236.5 33917.5 Q 183756.8 33064.7 182758.4 32146.9 Q 181760 31227.8 180575.7 30416.6 Q 179390.1 29604.1 178325.4 29071.1 L 178591.9 28752.6 Z M 178218.8 22175.9 Q 178218.8 22175.9 178511.3 22402.1 Q 178805.1 22628.3 179230.2 22961.1 Q 179656.6 23293.9 180002.4 23639.7 Q 179895.8 24066.1 179310.8 24066.1 L 170817.9 24066.1 L 170604.7 23267.9 L 177286.7 23267.9 L 178218.8 22175.9 Z M 182611.5 25689.8 Q 182611.5 25689.8 182931.3 25930.3 Q 183251.1 26169.5 183703.5 26529.6 Q 184155.9 26888.4 184529 27234.2 Q 184422.4 27660.6 183836.1 27660.6 L 166291.3 27660.6 L 166078.1 26862.4 L 181600.1 26862.4 L 182611.5 25689.8 Z M 183464.3 16689.9 L 183464.3 17489.4 L 176887.6 17489.4 L 176648.4 16689.9 L 183464.3 16689.9 Z M 201834.6 12085.3 Q 202047.8 15679.8 202687.4 18834.9 Q 203325.7 21990 204656.9 24678.4 Q 205988.1 27366.8 208264.4 29576.8 Q 210540.7 31786.8 214002.6 33517.1 L 213949.3 33810.9 Q 213442.3 33836.9 213056.2 33970.8 Q 212671.4 34103.4 212458.2 34636.4 Q 209183.5 32798.2 207080.1 30442.6 Q 204976.7 28085.7 203778.1 25250.4 Q 202580.8 22415.1 202021.8 19127.4 Q 201461.5 15839.7 201302.9 12164.6 L 201834.6 12085.3 Q 201781.3 13922.2 201687.7 15878.7 Q 201595.4 17836.5 201262.6 19819 Q 200929.8 21802.8 200197.9 23773.6 Q 199464.7 25743.1 198186.8 27633.3 Q 196908.9 29523.5 194899.1 31281.1 Q 192889.3 33038.7 189987.7 34609.1 L 189614.6 34129.4 Q 192889.3 32213.2 194952.4 30056.5 Q 197015.5 27899.8 198173.8 25570.2 Q 199332.1 23240.6 199837.8 20817.4 Q 200343.5 18395.5 200450.1 15932 Q 200556.7 13469.8 200556.7 11073.9 L 202766.7 11340.4 Q 202739.4 11605.6 202540.5 11818.8 Q 202340.3 12032 201834.6 12085.3  Z M 228725.1 10435.6 L 230881.8 11047.9 Q 230801.2 11287.1 230562 11447 Q 230322.8 11606.9 229896.4 11579.6 Q 228938.3 14641.1 227406.9 17077.3 Q 225875.5 19513.5 223932 21083.9 L 223532.9 20765.4 Q 225237.2 19007.8 226608.7 16318.1 Q 227978.9 13629.7 228725.1 10435.6  Z M 230828.5 15838.4 L 232292.3 15838.4 Q 231680 18447.5 230575 20777.1 Q 229470 23108 227859.3 25090.5 Q 226248.6 27074.3 224145.2 28618.7 L 223825.4 28245.6 Q 225663.6 26647.9 227074.1 24651.1 Q 228484.6 22654.3 229444 20418.3 Q 230402.1 18182.3 230828.5 15838.4  Z M 234715.5 15838.4 L 236179.3 15838.4 Q 235647.6 19460.2 234502.3 22654.3 Q 233357 25849.7 231453.8 28552.4 Q 229550.6 31255.1 226675 33384.5 L 226381.2 33011.4 Q 228885 30801.4 230588 28113 Q 232292.3 25423.3 233303.7 22321.5 Q 234316.4 19219.7 234715.5 15838.4  Z M 238389.3 15839.7 L 238096.8 15839.7 L 238841.7 14907.6 L 240573.3 16318.1 Q 240439.4 16478 240172.9 16571.6 Q 239907.7 16665.2 239481.3 16718.5 Q 239347.4 19859.3 239082.2 22628.3 Q 238815.7 25397.3 238455.6 27607.3 Q 238096.8 29817.3 237657.4 31308.4 Q 237218 32798.2 236685 33384.5 Q 236100 34050.1 235327.8 34355.6 Q 234555.6 34662.4 233676.8 34636.4 Q 233676.8 34369.9 233597.5 34103.4 Q 233516.9 33836.9 233224.4 33677 Q 232904.6 33491.1 232053.1 33331.2 Q 231200.3 33171.3 230376.1 33064.7 L 230402.1 32505.7 Q 231067.7 32586.3 231906.2 32678.6 Q 232744.7 32772.2 233490.9 32838.5 Q 234235.8 32904.8 234529.6 32904.8 Q 235008 32904.8 235247.2 32825.5 Q 235487.7 32744.9 235780.2 32479.7 Q 236259.9 32053.3 236685 30602.5 Q 237111.4 29151.7 237444.2 26914.4 Q 237777 24678.4 238016.2 21856.1 Q 238256.7 19035.1 238389.3 15839.7  Z M 227686.4 15838.4 L 238602.5 15838.4 L 238602.5 16611.9 L 227313.3 16611.9 L 227686.4 15838.4 Z M 220923.8 10435.6 L 223053.2 10674.8 Q 222999.9 10941.3 222801 11140.2 Q 222600.8 11340.4 222095.1 11419.7 L 222095.1 34050.1 Q 222095.1 34156.7 221948.2 34289.3 Q 221802.6 34423.2 221589.4 34515.5 Q 221376.2 34609.1 221163 34609.1 L 220923.8 34609.1 L 220923.8 10435.6 Z M 218394 11978.7 L 220471.4 12379.1 Q 220418.1 12618.3 220204.9 12791.2 Q 219991.7 12964.1 219592.6 12991.4 Q 219166.2 15280.7 218394 17490.7 Q 217621.8 19699.4 216584.4 21271.1 L 216132 21057.9 Q 216691 19859.3 217130.4 18395.5 Q 217569.8 16931.7 217902.6 15280.7 Q 218235.4 13629.7 218394 11978.7  Z M 216238.6 25130.8 Q 217062.8 24891.6 218581.2 24372.9 Q 220098.3 23852.9 222041.8 23147 Q 223985.3 22442.4 226062.7 21670.2 L 226222.6 22096.6 Q 224650.9 22841.5 222508.5 23893.2 Q 220364.8 24944.9 217649.1 26195.5 Q 217516.5 26675.2 217143.4 26835.1 L 216238.6 25130.8 Z M 218208.1 16052.9 L 223053.2 16052.9 L 224145.2 14721.7 Q 224145.2 14721.7 224491 15001.2 Q 224838.1 15280.7 225303.5 15666.8 Q 225768.9 16052.9 226169.3 16424.7 Q 226062.7 16851.1 225476.4 16851.1 L 218208.1 16851.1 L 218208.1 16052.9 Z M 243474.9 12591 L 254470.3 12591 L 255509 11259.8 Q 255509 11259.8 255707.9 11419.7 Q 255908.1 11579.6 256227.9 11846.1 Q 256546.4 12111.3 256893.5 12405.1 Q 257239.3 12697.6 257531.8 12964.1 Q 257425.2 13389.2 256840.2 13389.2 L 243688.1 13389.2 L 243474.9 12591 Z M 242809.3 20365 L 255002 20365 L 256121.3 19033.8 Q 256121.3 19033.8 256320.2 19193.7 Q 256520.4 19353.6 256840.2 19605.8 Q 257158.7 19859.3 257505.8 20151.8 Q 257851.6 20445.6 258144.1 20738.1 Q 258037.5 21137.2 257452.5 21137.2 L 243022.5 21137.2 L 242809.3 20365 Z M 252473.5 12591 L 253644.8 12591 L 253644.8 34022.8 Q 253644.8 34103.4 253365.3 34289.3 Q 253085.8 34475.2 252633.4 34475.2 L 252473.5 34475.2 L 252473.5 12591 Z M 246562.4 12591 L 247761 12591 L 247761 20497.6 Q 247761 22282.5 247614.1 24198.7 Q 247468.5 26116.2 247016.1 27979.1 Q 246562.4 29843.3 245631.6 31573.6 Q 244699.5 33303.9 243127.8 34741.7 L 242728.7 34423.2 Q 244459 32373.1 245271.5 30069.5 Q 246084 27767.2 246323.2 25331 Q 246562.4 22894.8 246562.4 20524.9 L 246562.4 12591 Z M 264746.8 10993.3 L 266690.3 12058 Q 266557.7 12245.2 266357.5 12298.5 Q 266158.6 12351.8 265704.9 12271.2 Q 264161.8 14242 261964.8 16025.6 Q 259767.8 17809.2 257318.6 19061.1 L 256972.8 18581.4 Q 259236.1 17143.6 261258.9 15200.1 Q 263283 13256.6 264746.8 10993.3  Z M 264934 17809.2 L 266850.2 18847.9 Q 266743.6 19033.8 266517.4 19100.1 Q 266291.2 19166.4 265838.8 19061.1 Q 264027.9 21376.4 261552.7 23187.3 Q 259076.2 24998.2 256147.3 26248.8 L 255854.8 25770.4 Q 258543.2 24358.6 260872.8 22374.8 Q 263202.4 20392.3 264934 17809.2  Z M 265465.7 24491.2 L 267462.5 25503.9 Q 267329.9 25689.8 267116.7 25756.1 Q 266903.5 25822.4 266451.1 25743.1 Q 264294.4 28885.2 261365.5 31027.6 Q 258436.6 33171.3 254790.1 34581.8 L 254523.6 34076.1 Q 257930.9 32478.4 260686.9 30189.1 Q 263442.9 27899.8 265465.7 24491.2  Z M 284847.4 12804.2 L 285753.5 11925.4 L 287377.2 13468.5 Q 287217.3 13602.4 286950.8 13642.7 Q 286685.6 13681.7 286285.2 13681.7 Q 285753.5 14161.4 285007.3 14760.7 Q 284262.4 15360 283449.9 15932 Q 282638.7 16505.3 281839.2 16904.4 L 281307.5 16904.4 Q 282026.4 16372.7 282771.3 15613.5 Q 283516.2 14854.3 284155.8 14095.1 Q 284794.1 13337.2 285167.2 12804.2 L 284847.4 12804.2 Z M 278777.7 11366.4 Q 277792.3 12565 276407.8 13881.9 Q 275023.3 15200.1 273346.3 16398.7 Q 271669.3 17597.3 269832.4 18448.8 L 269512.6 18049.7 Q 271216.9 17117.6 272800.3 15826.7 Q 274385 14534.5 275688.9 13137 Q 276994.1 11739.5 277792.3 10487.6 L 279842.4 10967.3 Q 279789.1 11153.2 279549.9 11259.8 Q 279310.7 11366.4 278777.7 11366.4  Z M 274225.1 22016 Q 274225.1 22069.3 274092.5 22175.9 Q 273958.6 22282.5 273745.4 22374.8 Q 273533.5 22468.4 273239.7 22468.4 L 273079.8 22468.4 L 273079.8 16424.7 L 273480.2 15812.4 L 274544.9 16319.4 L 274225.1 16319.4 L 274225.1 22016 Z M 285433.7 12802.9 L 285433.7 13602.4 L 275822.8 13602.4 L 276621 12802.9 L 285433.7 12802.9 Z M 289907 16318.1 L 289907 17117.6 L 273692.1 17117.6 L 273692.1 16318.1 L 289907 16318.1 Z M 289907 20552.2 L 289907 21350.4 L 273692.1 21350.4 L 273692.1 20552.2 L 289907 20552.2 Z M 289107.5 16319.4 L 289907 15466.6 L 291716.6 16851.1 Q 291584 17011 291251.2 17143.6 Q 290918.4 17277.5 290545.3 17356.8 L 290545.3 21830.1 Q 290545.3 21883.4 290372.4 22003 Q 290199.5 22122.6 289973.3 22216.2 Q 289747.1 22308.5 289533.9 22308.5 L 289374 22308.5 L 289374 16319.4 L 289107.5 16319.4 Z M 283010.5 27447.4 Q 281467.4 28778.6 279310.7 30017.5 Q 277154 31255.1 274717.8 32240.5 Q 272281.6 33224.6 269858.4 33836.9 L 269672.5 33305.2 Q 271989.1 32639.6 274372 31587.9 Q 276754.9 30536.2 278831 29218 Q 280907.1 27899.8 282291.6 26462 L 283010.5 27447.4 Z M 281759.9 24571.8 Q 280401.4 25636.5 278525.5 26688.2 Q 276648.3 27739.9 274570.9 28618.7 Q 272494.8 29497.5 270470.7 30083.8 L 270257.5 29604.1 Q 272202.3 28938.5 274225.1 27993.4 Q 276247.9 27048.3 278032.8 25916 Q 279816.4 24785 281013.7 23586.4 L 281759.9 24571.8 Z M 279443.3 21431 Q 280907.1 22575 281813.2 23986.8 Q 282718 25397.3 283144.4 26888.4 Q 283569.5 28379.5 283583.8 29751 Q 283596.8 31121.2 283264 32200.2 Q 282931.2 33277.9 282344.9 33864.2 Q 281999.1 34237.3 281453.1 34436.2 Q 280907.1 34636.4 279923 34636.4 Q 279923 34343.9 279789.1 34169.7 Q 279656.5 33996.8 279443.3 33890.2 Q 279204.1 33757.6 278577.5 33625 Q 277952.2 33491.1 277286.6 33411.8 L 277260.6 32932.1 Q 277766.3 32959.4 278498.2 33012.7 Q 279230.1 33066 279895.7 33092 Q 280561.3 33118 280853.8 33118 Q 281120.3 33118 281280.2 33079 Q 281440.1 33038.7 281572.7 32906.1 Q 282131.7 32319.8 282359.2 31054.9 Q 282585.4 29790 282344.9 28166.3 Q 282105.7 26542.6 281320.5 24851.3 Q 280535.3 23161.3 279070.2 21750.8 L 279443.3 21431 Z M 291157.6 23479.8 Q 290971.7 23639.7 290771.5 23639.7 Q 290572.6 23639.7 290199.5 23453.8 Q 289320.7 23959.5 288068.8 24558.8 Q 286818.2 25158.1 285420.7 25730.1 Q 284023.2 26302.1 282692 26728.5 L 282372.2 26382.7 Q 283622.8 25823.7 285007.3 25091.8 Q 286391.8 24358.6 287630.7 23586.4 Q 288868.3 22814.2 289666.5 22175.9 L 291157.6 23479.8 Z M 285007.3 25450.6 Q 285753.5 27021 287084.7 28326.2 Q 288415.9 29630.1 290159.2 30576.5 Q 291903.8 31521.6 293847.3 32080.6 L 293794 32373.1 Q 293420.9 32399.1 293141.4 32639.6 Q 292861.9 32878.8 292728 33277.9 Q 290865.1 32533 289254.4 31441 Q 287643.7 30349 286432.1 28912.5 Q 285220.5 27474.7 284501.6 25717.1 L 285007.3 25450.6 Z M 283170.4 16931.7 Q 281414.1 20313 278205.7 22708.9 Q 274997.3 25104.8 270470.7 26542.6 L 270284.8 26062.9 Q 274385 24518.5 277339.9 22096.6 Q 280294.8 19673.4 281892.5 16505.3 L 283170.4 16505.3 L 283170.4 16931.7 Z M 299837.7 33145.3 Q 299784.4 33970.8 299238.4 35048.5 Q 298692.4 36126.2 297201.3 36979 L 297601.7 37617.3 Q 298905.6 36951.7 299637.5 36019.6 Q 300369.4 35088.8 300663.2 34063.1 Q 300955.7 33038.7 300955.7 32159.9 Q 300955.7 31174.5 300516.3 30482.9 Q 300076.9 29790 299172.1 29790 Q 298425.9 29790 298054.1 30216.4 Q 297681 30642.8 297681 31201.8 Q 297681 31786.8 297986.5 32146.9 Q 298293.3 32505.7 298799 32731.9 Q 299304.7 32958.1 299837.7 33145.3  Z M 341663.9 20951.3 Q 343261.6 22468.4 344299 23799.6 Q 345337.7 25130.8 345924 26235.8 Q 346509 27340.8 346709.2 28139 Q 346908.1 28938.5 346815.8 29416.9 Q 346722.2 29896.6 346442.7 30003.2 Q 346163.2 30109.8 345764.1 29790 Q 345550.9 28831.9 345058.2 27686.6 Q 344565.5 26542.6 343899.9 25370 Q 343234.3 24198.7 342542.7 23108 Q 341849.8 22016 341237.5 21137.2 L 341663.9 20951.3 Z M 333996.5 20817.4 L 336099.9 21455.7 Q 336019.3 21696.2 335780.1 21854.8 Q 335540.9 22014.7 335114.5 21988.7 Q 334209.7 24597.8 332851.2 26846.8 Q 331494 29097.1 329869 30588.2 L 329469.9 30268.4 Q 330402 29176.4 331253.5 27686.6 Q 332106.3 26195.5 332810.9 24450.9 Q 333516.8 22707.6 333996.5 20817.4  Z M 334395.6 10568.2 L 336526.3 11180.5 Q 336445.7 11419.7 336219.5 11579.6 Q 335993.3 11739.5 335540.9 11739.5 Q 334555.5 14854.3 333038.4 17583 Q 331520 20311.7 329683.1 22121.3 L 329310 21828.8 Q 330348.7 20497.6 331306.8 18714 Q 332266.2 16930.4 333064.4 14854.3 Q 333862.6 12776.9 334395.6 10568.2  Z M 332985.1 15465.3 L 345205.1 15465.3 L 345205.1 16237.5 L 332985.1 16237.5 L 332985.1 15465.3 Z M 344699.4 15466.6 L 344406.9 15466.6 L 345284.4 14534.5 L 346935.4 16158.2 Q 346802.8 16290.8 346549.3 16331.1 Q 346297.1 16371.4 345924 16424.7 Q 345578.2 17276.2 344951.6 18381.2 Q 344326.3 19486.2 343714 20258.4 L 343340.9 20045.2 Q 343581.4 19432.9 343833.6 18581.4 Q 344087.1 17728.6 344326.3 16890.1 Q 344565.5 16051.6 344699.4 15466.6  Z M 326381.1 18074.4 L 327046.7 17222.9 L 328351.9 17702.6 Q 328298.6 17888.5 328098.4 18008.1 Q 327899.5 18127.7 327579.7 18181 L 327579.7 34155.4 Q 327579.7 34208.7 327419.8 34315.3 Q 327259.9 34421.9 327046.7 34515.5 Q 326834.8 34607.8 326594.3 34607.8 L 326381.1 34607.8 L 326381.1 18074.4 Z M 328804.3 10487.6 L 330935 11180.5 Q 330854.4 11393.7 330615.2 11552.3 Q 330376 11712.2 329922.3 11686.2 Q 329070.8 14028.8 327978.8 16292.1 Q 326888.1 18554.1 325623.2 20524.9 Q 324358.3 22494.4 322999.8 23958.2 L 322600.7 23665.7 Q 323772 22095.3 324930.3 19978.9 Q 326088.6 17862.5 327087 15426.3 Q 328085.4 12990.1 328804.3 10487.6  Z M 337962.8 16636.6 L 340093.5 16903.1 Q 340040.2 17169.6 339827 17355.5 Q 339613.8 17542.7 339135.4 17596 L 339135.4 32478.4 Q 339135.4 33037.4 338988.5 33476.8 Q 338841.6 33916.2 338335.9 34195.7 Q 337830.2 34475.2 336738.2 34607.8 Q 336684.9 34315.3 336552.3 34076.1 Q 336419.7 33835.6 336153.2 33677 Q 335833.4 33517.1 335247.1 33397.5 Q 334662.1 33276.6 333730 33170 L 333730 32744.9 Q 333730 32744.9 334182.4 32770.9 Q 334634.8 32798.2 335274.4 32851.5 Q 335912.7 32904.8 336486 32930.8 Q 337058 32958.1 337271.2 32958.1 Q 337670.3 32958.1 337817.2 32824.2 Q 337962.8 32691.6 337962.8 32345.8 L 337962.8 16636.6 Z M 356786.8 11127.2 Q 356680.2 11340.4 356294.1 11460 Q 355908 11579.6 355295.7 11313.1 L 355987.3 11153.2 Q 355428.3 12032 354523.5 13164.3 Q 353618.7 14295.3 352552.7 15426.3 Q 351488 16558.6 350476.6 17437.4 L 350423.3 17117.6 L 351195.5 17117.6 Q 351088.9 17783.2 350822.4 18169.3 Q 350555.9 18555.4 350263.4 18662 L 349544.5 16851.1 Q 349544.5 16851.1 349783.7 16784.8 Q 350024.2 16718.5 350130.8 16665.2 Q 350796.4 16106.2 351515.3 15267.7 Q 352234.2 14427.9 352899.8 13497.1 Q 353565.4 12565 354110.1 11673.2 Q 354656.1 10781.4 354975.9 10141.8 L 356786.8 11127.2 Z M 349757.7 16957.7 Q 350743.1 16957.7 352407.1 16904.4 Q 354071.1 16851.1 356134.2 16744.5 Q 358197.3 16637.9 360354 16505.3 L 360407.3 16985 Q 358703 17250.2 356027.6 17636.3 Q 353352.2 18022.4 350316.7 18316.2 L 349757.7 16957.7 Z M 357452.4 13416.5 Q 358756.3 14108.1 359594.8 14827 Q 360433.3 15545.9 360859.7 16211.5 Q 361286.1 16877.1 361405.7 17436.1 Q 361525.3 17996.4 361418.7 18355.2 Q 361312.1 18714 361032.6 18794.6 Q 360753.1 18873.9 360407.3 18608.7 Q 360300.7 17783.2 359767.7 16851.1 Q 359236 15919 358530.1 15080.5 Q 357824.2 14242 357132.6 13655.7 L 357452.4 13416.5 Z M 372867.8 25211.4 Q 372761.2 25397.3 372467.4 25437.6 Q 372174.9 25476.6 371748.5 25370 Q 370897 26009.6 369632.1 26675.2 Q 368368.5 27340.8 366930.7 27927.1 Q 365492.9 28512.1 364055.1 28885.2 L 363814.6 28458.8 Q 365199.1 27953.1 366597.9 27208.2 Q 367995.4 26462 369166.7 25649.5 Q 370338 24838.3 371030.9 24145.4 L 372867.8 25211.4 Z M 365066.5 22894.8 Q 364959.9 23453.8 364241 23533.1 L 364241 32479.7 Q 364241 32825.5 364441.2 32958.1 Q 364640.1 33092 365465.6 33092 L 368234.6 33092 Q 369220 33092 369938.9 33079 Q 370657.8 33064.7 370924.3 33038.7 Q 371136.2 33011.4 371229.8 32945.1 Q 371323.4 32878.8 371402.7 32718.9 Q 371536.6 32452.4 371709.5 31547.6 Q 371882.4 30642.8 372042.3 29630.1 L 372388.1 29630.1 L 372467.4 32825.5 Q 372840.5 32932.1 372974.4 33038.7 Q 373107 33145.3 373107 33358.5 Q 373107 33677 372761.2 33849.9 Q 372414.1 34024.1 371376.7 34090.4 Q 370338 34156.7 368261.9 34156.7 L 365333 34156.7 Q 364400.9 34156.7 363908.2 34024.1 Q 363415.5 33890.2 363242.6 33570.4 Q 363069.7 33251.9 363069.7 32718.9 L 363069.7 22628.3 L 365066.5 22894.8 Z M 372654.6 13416.5 Q 372520.7 13603.7 372228.2 13629.7 Q 371935.7 13657 371536.6 13550.4 Q 370683.8 14082.1 369459.2 14668.4 Q 368234.6 15253.4 366850.1 15786.4 Q 365465.6 16319.4 364108.4 16665.2 L 363895.2 16212.8 Q 365199.1 15733.1 366544.6 15067.5 Q 367888.8 14401.9 369047.1 13670 Q 370205.4 12938.1 370897 12325.8 L 372654.6 13416.5 Z M 358224.6 20392.3 L 358916.2 19513.5 L 360833.7 20951.3 Q 360727.1 21083.9 360394.3 21230.8 Q 360061.5 21376.4 359661.1 21429.7 L 359661.1 32505.7 Q 359661.1 33064.7 359541.5 33491.1 Q 359421.9 33917.5 359009.8 34182.7 Q 358596.4 34449.2 357717.6 34555.8 Q 357691.6 34289.3 357598 34037.1 Q 357505.7 33783.6 357292.5 33651 Q 357052 33491.1 356639.9 33358.5 Q 356227.8 33224.6 355588.2 33171.3 L 355588.2 32718.9 Q 355588.2 32718.9 355895 32746.2 Q 356200.5 32772.2 356626.9 32798.2 Q 357052 32825.5 357438.1 32851.5 Q 357824.2 32878.8 357984.1 32878.8 Q 358276.6 32878.8 358383.2 32759.2 Q 358489.8 32639.6 358489.8 32373.1 L 358489.8 20392.3 L 358224.6 20392.3 Z M 365040.5 10967.3 Q 364987.2 11526.3 364241 11606.9 L 364241 20045.2 Q 364241 20365 364426.9 20471.6 Q 364614.1 20578.2 365439.6 20578.2 L 368128 20578.2 Q 369086.1 20578.2 369792 20565.2 Q 370497.9 20552.2 370764.4 20524.9 Q 370977.6 20524.9 371056.9 20471.6 Q 371136.2 20418.3 371216.8 20285.7 Q 371349.4 20019.2 371509.3 19193.7 Q 371669.2 18368.2 371829.1 17437.4 L 372174.9 17437.4 L 372255.5 20366.3 Q 372627.3 20445.6 372761.2 20552.2 Q 372893.8 20658.8 372893.8 20870.7 Q 372893.8 21164.5 372548 21350.4 Q 372202.2 21536.3 371189.5 21602.6 Q 370178.1 21670.2 368155.3 21670.2 L 365279.7 21670.2 Q 364374.9 21670.2 363895.2 21536.3 Q 363415.5 21403.7 363242.6 21096.9 Q 363069.7 20791.4 363069.7 20258.4 L 363069.7 10700.8 L 365040.5 10967.3 Z M 352394.1 34103.4 Q 352394.1 34156.7 352260.2 34276.3 Q 352127.6 34395.9 351914.4 34476.5 Q 351701.2 34555.8 351434.7 34555.8 L 351221.5 34555.8 L 351221.5 20392.3 L 351221.5 19700.7 L 351221.5 19700.7 L 352526.7 20391 L 358916.2 20391 L 358916.2 21190.5 L 352394.1 21190.5 L 352394.1 34103.4 Z M 359102.1 27500.7 L 359102.1 28298.9 L 351647.9 28298.9 L 351647.9 27500.7 L 359102.1 27500.7 Z M 359208.7 23906.2 L 359208.7 24704.4 L 351754.5 24704.4 L 351754.5 23906.2 L 359208.7 23906.2 Z M 382877.8 21537.6 Q 382771.2 21883.4 382078.3 22016 L 382078.3 34156.7 Q 382078.3 34210 381932.7 34329.6 Q 381785.8 34449.2 381572.6 34542.8 Q 381359.4 34635.1 381120.2 34635.1 L 380907 34635.1 L 380907 21830.1 L 381546.6 21004.6 L 382877.8 21537.6 Z M 392540.7 17755.9 Q 392514.7 18022.4 392328.8 18195.3 Q 392141.6 18368.2 391689.2 18421.5 L 391689.2 33011.4 L 390517.9 33011.4 L 390517.9 17516.7 L 392540.7 17755.9 Z M 388467.8 11127.2 Q 388361.2 11366.4 388135 11473 Q 387908.8 11579.6 387375.8 11552.3 Q 386737.5 13495.8 385726.1 15560.2 Q 384714.7 17623.3 383330.2 19620.1 Q 381945.7 21616.9 380162.1 23387.5 Q 378377.2 25158.1 376141.2 26515.3 L 375821.4 26169.5 Q 377845.5 24731.7 379509.5 22894.8 Q 381173.5 21057.9 382477.4 18980.5 Q 383782.6 16904.4 384727.7 14734.7 Q 385672.8 12565 386231.8 10461.6 L 388467.8 11127.2 Z M 398132 31147.2 Q 398132 31147.2 398332.2 31307.1 Q 398531.1 31467 398850.9 31720.5 Q 399170.7 31972.7 399516.5 32266.5 Q 399862.3 32559 400156.1 32851.5 Q 400049.5 33277.9 399490.5 33277.9 L 383223.6 33277.9 L 383010.4 32478.4 L 397067.3 32478.4 L 398132 31147.2 Z M 396322.4 22309.8 Q 396322.4 22309.8 396521.3 22468.4 Q 396721.5 22628.3 397027 22868.8 Q 397333.8 23108 397666.6 23400.5 Q 397999.4 23694.3 398265.9 23959.5 Q 398212.6 24172.7 398052.7 24279.3 Q 397892.8 24385.9 397600.3 24385.9 L 384900.6 24385.9 L 384687.4 23587.7 L 395283.7 23587.7 L 396322.4 22309.8 Z M 397679.6 14135.4 Q 397679.6 14135.4 397879.8 14295.3 Q 398078.7 14455.2 398385.5 14707.4 Q 398691 14960.9 399038.1 15253.4 Q 399383.9 15545.9 399676.4 15839.7 Q 399597.1 16264.8 398984.8 16264.8 L 376887.4 16264.8 L 376646.9 15466.6 L 396587.6 15466.6 L 397679.6 14135.4 Z M 405321 18528.1 L 405587.5 18688 L 405587.5 33064.7 L 405826.7 33064.7 L 405188.4 33836.9 L 403458.1 32665.6 Q 403671.3 32505.7 404057.4 32319.8 Q 404443.5 32132.6 404762 32053.3 L 404416.2 32958.1 L 404416.2 18528.1 L 405321 18528.1 Z M 406598.9 17463.4 Q 406572.9 17755.9 406319.4 17943.1 Q 406067.2 18129 405587.5 18208.3 L 405587.5 19219.7 L 404416.2 19219.7 L 404416.2 17649.3 L 404416.2 17196.9 L 406598.9 17463.4 Z M 420070.8 27793.2 L 420070.8 28591.4 L 409367.9 28591.4 L 409367.9 27793.2 L 420070.8 27793.2 Z M 420070.8 21723.5 L 420070.8 22521.7 L 409367.9 22521.7 L 409367.9 21723.5 L 420070.8 21723.5 Z M 419192 16159.5 L 419991.5 15280.7 L 421801.1 16691.2 Q 421668.5 16851.1 421348.7 16983.7 Q 421028.9 17117.6 420629.8 17196.9 L 420629.8 29231 Q 420629.8 29310.3 420456.9 29416.9 Q 420284 29523.5 420057.8 29617.1 Q 419831.6 29710.7 419618.4 29710.7 L 419458.5 29710.7 L 419458.5 16159.5 L 419192 16159.5 Z M 409926.9 29657.4 Q 409926.9 29710.7 409807.3 29816 Q 409687.7 29922.6 409474.5 30003.2 Q 409261.3 30082.5 408994.8 30082.5 L 408781.6 30082.5 L 408781.6 16159.5 L 408781.6 15466.6 L 408781.6 15466.6 L 410086.8 16158.2 L 420177.4 16158.2 L 420177.4 16957.7 L 409926.9 16957.7 L 409926.9 29657.4 Z M 425928.6 17410.1 Q 425875.3 17676.6 425662.1 17862.5 Q 425448.9 18048.4 424943.2 18101.7 L 424943.2 34050.1 Q 424943.2 34156.7 424810.6 34276.3 Q 424676.7 34395.9 424463.5 34475.2 Q 424251.6 34555.8 424011.1 34555.8 L 423771.9 34555.8 L 423771.9 17143.6 L 425928.6 17410.1 Z M 415279 16558.6 L 415279 28272.9 L 414107.7 28272.9 L 414107.7 16558.6 L 415279 16558.6 Z M 424384.2 32292.5 L 424384.2 33090.7 L 405028.5 33090.7 L 405028.5 32292.5 L 424384.2 32292.5 Z M 424863.9 11127.2 Q 424863.9 11127.2 425090.1 11300.1 Q 425316.3 11473 425649.1 11739.5 Q 425981.9 12006 426355 12324.5 Q 426726.8 12644.3 427046.6 12936.8 Q 426993.3 13150 426807.4 13256.6 Q 426620.2 13363.2 426353.7 13363.2 L 402899.1 13363.2 L 402659.9 12565 L 423692.6 12565 L 424863.9 11127.2 Z M 445071.1 24439.2 L 445790 23639.7 L 447441 24970.9 Q 447174.5 25237.4 446455.6 25316.7 Q 446429.6 27206.9 446229.4 28365.2 Q 446029.2 29523.5 445497.5 29975.9 Q 445151.7 30242.4 444578.4 30402.3 Q 444006.4 30562.2 443447.4 30562.2 Q 443447.4 30323 443353.8 30082.5 Q 443261.5 29843.3 442995 29683.4 Q 442755.8 29550.8 442075.9 29416.9 Q 441397.3 29284.3 440785 29205 L 440811 28751.3 Q 441290.7 28778.6 441956.3 28831.9 Q 442621.9 28885.2 443221.2 28925.5 Q 443820.5 28964.5 444059.7 28964.5 Q 444618.7 28964.5 444831.9 28778.6 Q 445098.4 28539.4 445205 27421.4 Q 445311.6 26302.1 445337.6 24439.2 L 445071.1 24439.2 Z M 435752.7 23773.6 L 435752.7 23720.3 L 437243.8 24439.2 L 436924 24439.2 L 436924 32345.8 Q 436924 32718.9 437216.5 32851.5 Q 437510.3 32985.4 438760.9 32985.4 L 443340.8 32985.4 Q 444991.8 32985.4 446163.1 32958.1 Q 447334.4 32932.1 447733.5 32904.8 Q 448079.3 32878.8 448185.9 32785.2 Q 448292.5 32692.9 448399.1 32505.7 Q 448559 32159.9 448731.9 31201.8 Q 448904.8 30242.4 449092 29017.8 L 449463.8 29017.8 L 449517.1 32665.6 Q 449943.5 32772.2 450103.4 32878.8 Q 450263.3 32985.4 450263.3 33198.6 Q 450263.3 33463.8 450024.1 33638 Q 449783.6 33810.9 449064.7 33903.2 Q 448345.8 33996.8 446974.3 34037.1 Q 445604.1 34076.1 443366.8 34076.1 L 438734.9 34076.1 Q 437510.3 34076.1 436857.7 33943.5 Q 436205.1 33810.9 435978.9 33463.8 Q 435752.7 33118 435752.7 32479.7 L 435752.7 24439.2 L 435752.7 23773.6 Z M 446029.2 24437.9 L 446029.2 25237.4 L 436205.1 25237.4 L 436205.1 24437.9 L 446029.2 24437.9 Z M 448319.8 12431.1 Q 448213.2 12618.3 447974 12737.9 Q 447733.5 12857.5 447360.4 12830.2 Q 446775.4 13762.3 445962.9 14841.3 Q 445151.7 15919 444352.2 16691.2 L 443899.8 16424.7 Q 444326.2 15812.4 444778.6 14986.9 Q 445231 14161.4 445657.4 13269.6 Q 446082.5 12377.8 446402.3 11605.6 L 448319.8 12431.1 Z M 433969.1 11792.8 Q 435087.1 12298.5 435793 12844.5 Q 436497.6 13389.2 436857.7 13896.2 Q 437216.5 14401.9 437297.1 14814 Q 437376.4 15227.4 437256.8 15479.6 Q 437137.2 15733.1 436883.7 15799.4 Q 436631.5 15865.7 436311.7 15652.5 Q 436125.8 15067.5 435672.1 14401.9 Q 435219.7 13736.3 434673.7 13096.7 Q 434129 12458.4 433649.3 12006 L 433969.1 11792.8 Z M 445657.4 20471.6 Q 446109.8 21243.8 447054.9 22148.6 Q 448000 23053.4 449664 23946.5 Q 451328 24838.3 453883.8 25557.2 L 453804.5 25875.7 Q 453378.1 25903 453111.6 26022.6 Q 452845.1 26142.2 452712.5 26568.6 Q 450263.3 25769.1 448744.9 24704.4 Q 447227.8 23639.7 446415.3 22562 Q 445604.1 21483 445177.7 20657.5 L 445657.4 20471.6 Z M 442542.6 10967.3 Q 442489.3 11233.8 442263.1 11353.4 Q 442036.9 11473 441450.6 11499 Q 440970.9 13922.2 440106.4 16292.1 Q 439240.6 18660.7 437856.1 20778.4 Q 436471.6 22894.8 434421.5 24625.1 Q 432371.4 26355.4 429549.1 27554 L 429256.6 27206.9 Q 431838.4 25956.3 433742.9 24159.7 Q 435646.1 22361.8 436951.3 20192.1 Q 438255.2 18022.4 439054.7 15573.2 Q 439852.9 13124 440226 10540.9 L 442542.6 10967.3 Z M 451487.9 19087.1 Q 451487.9 19087.1 451688.1 19247 Q 451887 19406.9 452193.8 19659.1 Q 452499.3 19912.6 452845.1 20205.1 Q 453192.2 20497.6 453484.7 20791.4 Q 453378.1 21216.5 452819.1 21216.5 L 429576.4 21216.5 L 429335.9 20418.3 L 450369.9 20418.3 L 451487.9 19087.1 Z M 450077.4 15014.2 Q 450077.4 15014.2 450250.3 15146.8 Q 450423.2 15280.7 450689.7 15506.9 Q 450954.9 15733.1 451248.7 15999.6 Q 451541.2 16264.8 451780.4 16505.3 Q 451701.1 16930.4 451142.1 16930.4 L 431200.1 16930.4 L 430959.6 16132.2 L 449198.6 16132.2 L 450077.4 15014.2 Z M 477604.9 23746.3 L 477604.9 24544.5 L 458250.5 24544.5 L 458250.5 23746.3 L 477604.9 23746.3 Z M 476646.8 15946.3 L 477446.3 15067.5 L 479255.9 16478 Q 479123.3 16637.9 478803.5 16770.5 Q 478483.7 16903.1 478084.6 16983.7 L 478084.6 26276.1 Q 478084.6 26355.4 477911.7 26462 Q 477738.8 26568.6 477512.6 26662.2 Q 477286.4 26754.5 477073.2 26754.5 L 476913.3 26754.5 L 476913.3 15946.3 L 476646.8 15946.3 Z M 458809.5 26594.6 Q 458809.5 26647.9 458676.9 26754.5 Q 458543 26861.1 458344.1 26941.7 Q 458143.9 27021 457877.4 27021 L 457664.2 27021 L 457664.2 15946.3 L 457664.2 15253.4 L 457664.2 15253.4 L 458969.4 15945 L 477472.3 15945 L 477472.3 16744.5 L 458809.5 16744.5 L 458809.5 26594.6 Z M 469405.8 10728.1 Q 469352.5 10994.6 469153.6 11180.5 Q 468953.4 11366.4 468447.7 11447 L 468447.7 34103.4 Q 468447.7 34210 468315.1 34342.6 Q 468181.2 34475.2 467968 34555.8 Q 467756.1 34635.1 467515.6 34635.1 L 467276.4 34635.1 L 467276.4 10461.6 L 469405.8 10728.1 Z M 496508.2 10621.5 L 498824.8 10888 Q 498797.5 11153.2 498598.6 11353.4 Q 498398.4 11553.6 497892.7 11632.9 Q 497865.4 14668.4 498172.2 17702.6 Q 498479 20738.1 499210.9 23507.1 Q 499942.8 26276.1 501207.7 28486.1 Q 502472.6 30696.1 504362.8 32106.6 Q 504708.6 32426.4 504868.5 32413.4 Q 505028.4 32399.1 505187 31974 Q 505400.2 31521.6 505694 30681.8 Q 505986.5 29843.3 506172.4 29071.1 L 506545.5 29124.4 L 506119.1 33011.4 Q 506652.1 33651 506758.7 33917.5 Q 506865.3 34184 506758.7 34369.9 Q 506571.5 34609.1 506253 34636.4 Q 505933.2 34662.4 505519.8 34502.5 Q 505107.7 34342.6 504655.3 34063.1 Q 504202.9 33783.6 503750.5 33411.8 Q 501700.4 31840.1 500315.9 29484.5 Q 498931.4 27127.6 498092.9 24159.7 Q 497253.1 21190.5 496881.3 17755.9 Q 496508.2 14321.3 496508.2 10621.5  Z M 503456.7 20153.1 L 505346.9 21083.9 Q 505214.3 21271.1 505001.1 21337.4 Q 504787.9 21403.7 504282.2 21297.1 Q 502711.8 24332.6 500634.4 26688.2 Q 498558.3 29045.1 495989.5 30828.7 Q 493419.4 32612.3 490411.2 33996.8 L 490144.7 33518.4 Q 492994.3 32027.3 495430.5 30150.1 Q 497866.7 28272.9 499889.5 25810.7 Q 501912.3 23347.2 503456.7 20153.1  Z M 482477.3 16106.2 L 489293.2 16106.2 L 490278.6 14881.6 Q 490278.6 14881.6 490464.5 15027.2 Q 490651.7 15174.1 490944.2 15413.3 Q 491236.7 15652.5 491556.5 15932 Q 491876.3 16212.8 492141.5 16478 Q 492062.2 16904.4 491475.9 16904.4 L 482690.5 16904.4 L 482477.3 16106.2 Z M 490304.6 19221 L 503883.1 17463.4 L 504708.6 16052.9 Q 504708.6 16052.9 504907.5 16185.5 Q 505107.7 16318.1 505440.5 16518.3 Q 505773.3 16718.5 506133.4 16970.7 Q 506492.2 17224.2 506812 17463.4 Q 506784.7 17649.3 506624.8 17770.2 Q 506466.2 17889.8 506172.4 17943.1 L 490624.4 19965.9 L 490304.6 19221 Z M 486844 10487.6 L 489000.7 10728.1 Q 488947.4 10993.3 488721.2 11193.5 Q 488495 11393.7 488015.3 11447 L 488015.3 32479.7 Q 488015.3 33038.7 487882.7 33478.1 Q 487748.8 33917.5 487296.4 34197 Q 486844 34476.5 485885.9 34609.1 Q 485858.6 34316.6 485739 34063.1 Q 485619.4 33810.9 485380.2 33651 Q 485113.7 33465.1 484621 33358.5 Q 484128.3 33251.9 483383.4 33171.3 L 483383.4 32718.9 Q 483383.4 32718.9 483755.2 32746.2 Q 484128.3 32772.2 484634 32812.5 Q 485139.7 32852.8 485606.4 32878.8 Q 486071.8 32904.8 486231.7 32904.8 Q 486604.8 32904.8 486724.4 32785.2 Q 486844 32665.6 486844 32345.8 L 486844 10487.6 Z M 482344.7 24599.1 Q 482983 24439.2 483981.4 24146.7 Q 484979.8 23852.9 486257.7 23453.8 Q 487535.6 23054.7 488987.7 22588 Q 490438.5 22122.6 491955.6 21642.9 L 492088.2 22069.3 Q 490598.4 22708.9 488534 23626.7 Q 486470.9 24545.8 483808.5 25636.5 Q 483701.9 26090.2 483302.8 26276.1 L 482344.7 24599.1 Z M 500395.2 11686.2 Q 501753.7 11925.4 502631.2 12338.8 Q 503510 12750.9 504002.7 13217.6 Q 504495.4 13683 504655.3 14122.4 Q 504815.2 14561.8 504721.6 14881.6 Q 504628 15200.1 504348.5 15319.7 Q 504069 15440.6 503669.9 15253.4 Q 503403.4 14668.4 502818.4 14041.8 Q 502232.1 13416.5 501526.2 12870.5 Q 500821.6 12324.5 500128.7 11978.7 L 500395.2 11686.2 Z M 517569.5 14641.1 Q 517462.9 14880.3 517076.8 15001.2 Q 516690.7 15120.8 516051.1 14854.3 L 516770 14668.4 Q 516185 15492.6 515239.9 16544.3 Q 514293.5 17596 513189.8 18634.7 Q 512084.8 19673.4 511018.8 20445.6 L 510992.8 20125.8 L 511844.3 20125.8 Q 511765 20844.7 511525.8 21256.8 Q 511285.3 21670.2 511018.8 21802.8 L 510060.7 19833.3 Q 510060.7 19833.3 510314.2 19793 Q 510566.4 19752.7 510673 19699.4 Q 511365.9 19193.7 512084.8 18408.5 Q 512803.7 17623.3 513482.3 16744.5 Q 514160.9 15865.7 514719.9 15040.2 Q 515278.9 14214.7 515624.7 13602.4 L 517569.5 14641.1 Z M 510647 20098.5 Q 511658.4 20045.2 513429 19912.6 Q 515199.6 19780 517462.9 19566.8 Q 519724.9 19353.6 522174.1 19140.4 L 522227.4 19620.1 Q 520204.6 19939.9 517235.4 20418.3 Q 514267.5 20898 510939.5 21324.4 L 510647 20098.5 Z M 532931.6 11287.1 Q 532878.3 11552.3 532652.1 11739.5 Q 532425.9 11925.4 531946.2 11978.7 L 531946.2 32533 Q 531946.2 33092 531813.6 33531.4 Q 531679.7 33970.8 531214.3 34263.3 Q 530747.6 34555.8 529736.2 34662.4 Q 529682.9 34369.9 529563.3 34129.4 Q 529443.7 33890.2 529177.2 33704.3 Q 528910.7 33544.4 528377.7 33410.5 Q 527846 33277.9 527046.5 33198.6 L 527046.5 32772.2 Q 527046.5 32772.2 527445.6 32798.2 Q 527846 32825.5 528405 32878.8 Q 528964 32932.1 529456.7 32958.1 Q 529949.4 32985.4 530135.3 32985.4 Q 530508.4 32985.4 530641 32851.5 Q 530774.9 32718.9 530774.9 32373.1 L 530774.9 11020.6 L 532931.6 11287.1 Z M 528031.9 13389.2 Q 527978.6 13655.7 527765.4 13842.9 Q 527552.2 14028.8 527046.5 14082.1 L 527046.5 28592.7 Q 527046.5 28698 526913.9 28818.9 Q 526780 28938.5 526566.8 29017.8 Q 526354.9 29098.4 526114.4 29098.4 L 525875.2 29098.4 L 525875.2 13124 L 528031.9 13389.2 Z M 509075.3 32399.1 Q 510060.7 32266.5 511645.4 31987 Q 513228.8 31707.5 515238.6 31308.4 Q 517249.7 30908 519552 30442.6 Q 521855.6 29977.2 524277.5 29497.5 L 524384.1 29977.2 Q 521881.6 30694.8 518487.3 31600.9 Q 515093 32505.7 510566.4 33597.7 Q 510406.5 34076.1 509981.4 34210 L 509075.3 32399.1 Z M 518713.5 15652.5 Q 520177.3 16398.7 521109.4 17183.9 Q 522041.5 17969.1 522534.2 18701 Q 523026.9 19432.9 523172.5 20032.2 Q 523319.4 20631.5 523212.8 21017.6 Q 523106.2 21403.7 522826.7 21497.3 Q 522547.2 21589.6 522174.1 21324.4 Q 522014.2 20418.3 521401.9 19406.9 Q 520789.6 18395.5 519978.4 17463.4 Q 519165.9 16531.3 518393.7 15893 L 518713.5 15652.5 Z M 517941.3 21457 Q 517888 21749.5 517661.8 21936.7 Q 517435.6 22122.6 516929.9 22175.9 L 516929.9 31413.7 L 515758.6 31680.2 L 515758.6 21217.8 L 517941.3 21457 Z M 521349.9 23613.7 Q 521349.9 23613.7 521548.8 23773.6 Q 521749 23933.5 522067.5 24185.7 Q 522387.3 24439.2 522733.1 24731.7 Q 523080.2 25024.2 523345.4 25318 Q 523266.1 25743.1 522681.1 25743.1 L 510114 25743.1 L 509900.8 24944.9 L 520257.9 24944.9 L 521349.9 23613.7 Z M 522308 11526.3 Q 522308 11526.3 522506.9 11686.2 Q 522707.1 11846.1 523026.9 12098.3 Q 523345.4 12351.8 523692.5 12644.3 Q 524038.3 12936.8 524330.8 13230.6 Q 524251.5 13655.7 523639.2 13655.7 L 509475.7 13655.7 L 509262.5 12857.5 L 521216 12857.5 L 522308 11526.3 Z M 537562.2 16531.3 L 555426.8 16531.3 L 556572.1 15093.5 Q 556572.1 15093.5 556798.3 15266.4 Q 557024.5 15439.3 557357.3 15705.8 Q 557690.1 15972.3 558063.2 16292.1 Q 558436.3 16610.6 558754.8 16904.4 Q 558648.2 17329.5 558089.2 17329.5 L 537802.7 17329.5 L 537562.2 16531.3 Z M 538654.2 24198.7 L 554282.8 24198.7 L 555426.8 22788.2 Q 555426.8 22788.2 555640 22961.1 Q 555853.2 23134 556173 23400.5 Q 556492.8 23665.7 556851.6 23972.5 Q 557211.7 24279.3 557530.2 24571.8 Q 557504.2 24757.7 557317 24864.3 Q 557131.1 24970.9 556838.6 24970.9 L 538867.4 24970.9 L 538654.2 24198.7 Z M 535752.6 32744.9 L 556678.7 32744.9 L 557850 31307.1 Q 557850 31307.1 558063.2 31480 Q 558276.4 31654.2 558622.2 31919.4 Q 558968 32185.9 559341.1 32505.7 Q 559714.2 32825.5 560032.7 33118 Q 559926.1 33517.1 559341.1 33517.1 L 535991.8 33517.1 L 535752.6 32744.9 Z M 547253.7 16531.3 L 548425 16531.3 L 548425 33171.3 L 547253.7 33171.3 L 547253.7 16531.3 Z M 544085.6 10434.3 Q 545869.2 10914 547053.5 11499 Q 548239.1 12085.3 548943.7 12697.6 Q 549649.6 13309.9 549942.1 13842.9 Q 550235.9 14374.6 550208.6 14760.7 Q 550182.6 15146.8 549903.1 15293.7 Q 549623.6 15439.3 549197.2 15253.4 Q 548770.8 14455.2 547866 13602.4 Q 546961.2 12750.9 545882.2 11978.7 Q 544804.5 11206.5 543819.1 10726.8 L 544085.6 10434.3 Z M 574570.6 12085.3 Q 574783.8 15679.8 575423.4 18834.9 Q 576061.7 21990 577392.9 24678.4 Q 578724.1 27366.8 581000.4 29576.8 Q 583276.7 31786.8 586738.6 33517.1 L 586685.3 33810.9 Q 586178.3 33836.9 585792.2 33970.8 Q 585407.4 34103.4 585194.2 34636.4 Q 581919.5 32798.2 579816.1 30442.6 Q 577712.7 28085.7 576514.1 25250.4 Q 575316.8 22415.1 574757.8 19127.4 Q 574197.5 15839.7 574038.9 12164.6 L 574570.6 12085.3 Q 574517.3 13922.2 574423.7 15878.7 Q 574331.4 17836.5 573998.6 19819 Q 573665.8 21802.8 572933.9 23773.6 Q 572200.7 25743.1 570922.8 27633.3 Q 569644.9 29523.5 567635.1 31281.1 Q 565625.3 33038.7 562723.7 34609.1 L 562350.6 34129.4 Q 565625.3 32213.2 567688.4 30056.5 Q 569751.5 27899.8 570909.8 25570.2 Q 572068.1 23240.6 572573.8 20817.4 Q 573079.5 18395.5 573186.1 15932 Q 573292.7 13469.8 573292.7 11073.9 L 575502.7 11340.4 Q 575475.4 11605.6 575276.5 11818.8 Q 575076.3 12032 574570.6 12085.3  Z M 592595.1 32426.4 Q 593713.1 32399.1 595470.7 32279.5 Q 597227 32159.9 599411 32000 Q 601593.7 31840.1 604070.2 31626.9 Q 606545.4 31413.7 609101.2 31174.5 L 609154.5 31707.5 Q 606252.9 32106.6 602112.4 32612.3 Q 597973.2 33118 593074.8 33570.4 L 592595.1 32426.4 Z M 602180 20552.2 Q 602073.4 20817.4 601660 20951.3 Q 601247.9 21083.9 600635.6 20844.7 L 601301.2 20578.2 Q 600714.9 21856.1 599797.1 23453.8 Q 598878 25051.5 597760 26754.5 Q 596642 28458.8 595456.4 30069.5 Q 594272.1 31680.2 593100.8 32958.1 L 592994.2 32744.9 L 593659.8 32744.9 Q 593580.5 33331.2 593380.3 33623.7 Q 593180.1 33917.5 592968.2 34022.8 L 592062.1 32426.4 Q 592062.1 32426.4 592168.7 32399.1 Q 592275.3 32373.1 592409.2 32332.8 Q 592541.8 32292.5 592674.4 32239.2 Q 592808.3 32185.9 592887.6 32106.6 Q 593633.8 31201.8 594458 29977.2 Q 595283.5 28751.3 596109 27366.8 Q 596934.5 25983.6 597680.7 24571.8 Q 598425.6 23161.3 599037.9 21869.1 Q 599650.2 20578.2 600049.3 19566.8 L 602180 20552.2 Z M 605747.2 11366.4 Q 605614.6 11632.9 605388.4 11952.7 Q 605160.9 12271.2 604895.7 12618.3 L 604789.1 11846.1 Q 605508 13842.9 606732.6 15812.4 Q 607957.2 17783.2 609714.8 19419.9 Q 611471.1 21057.9 613734.4 22016 L 613655.1 22308.5 Q 613282 22335.8 612975.2 22534.7 Q 612669.7 22734.9 612482.5 23054.7 Q 610299.8 21802.8 608635.8 20059.5 Q 606971.8 18314.9 605787.5 16065.9 Q 604601.9 13815.6 603803.7 11046.6 L 604070.2 10886.7 L 605747.2 11366.4 Z M 599251.1 11978.7 Q 599144.5 12191.9 598891 12324.5 Q 598638.8 12458.4 598186.4 12377.8 Q 597015.1 14720.4 595550 16864.1 Q 594086.2 19007.8 592461.2 20791.4 Q 590837.5 22575 589186.5 23880.2 L 588787.4 23560.4 Q 590278.5 22175.9 591822.9 20205.1 Q 593367.3 18235.6 594777.8 15893 Q 596189.6 13549.1 597254.3 11073.9 L 599251.1 11978.7 Z M 604123.5 25130.8 Q 606067 26621.9 607344.9 27966.1 Q 608622.8 29311.6 609354.7 30442.6 Q 610086.6 31573.6 610366.1 32426.4 Q 610645.6 33277.9 610592.3 33796.6 Q 610539 34316.6 610233.5 34449.2 Q 609926.7 34583.1 609501.6 34263.3 Q 609261.1 33251.9 608635.8 32066.3 Q 608010.5 30882 607172 29657.4 Q 606333.5 28432.8 605427.4 27327.8 Q 604522.6 26222.8 603724.4 25344 L 604123.5 25130.8 Z M 636471.4 13841.6 Q 636578 13096.7 637124 12230.9 Q 637670 11366.4 639001.2 10700.8 L 638600.8 10088.5 Q 637322.9 10620.2 636604 11473 Q 635886.4 12324.5 635592.6 13229.3 Q 635300.1 14135.4 635300.1 14854.3 Q 635300.1 15919 635752.5 16531.3 Q 636204.9 17143.6 637057.7 17143.6 Q 637776.6 17143.6 638175.7 16744.5 Q 638574.8 16345.4 638574.8 15759.1 Q 638574.8 15226.1 638335.6 14867.3 Q 638095.1 14507.2 637629.7 14268 Q 637164.3 14028.8 636471.4 13841.6  Z M 631199.9 13841.6 Q 631306.5 13096.7 631852.5 12230.9 Q 632398.5 11366.4 633729.7 10700.8 L 633329.3 10088.5 Q 632051.4 10620.2 631332.5 11473 Q 630614.9 12324.5 630321.1 13229.3 Q 630028.6 14135.4 630028.6 14854.3 Q 630028.6 15919 630481 16531.3 Q 630933.4 17143.6 631786.2 17143.6 Q 632505.1 17143.6 632904.2 16744.5 Q 633303.3 16345.4 633303.3 15759.1 Q 633303.3 15226.1 633064.1 14867.3 Q 632823.6 14507.2 632358.2 14268 Q 631892.8 14028.8 631199.9 13841.6  Z M 648558.8 34210 Q 648558.8 34289.3 648279.3 34462.2 Q 647999.8 34636.4 647546.1 34636.4 L 647387.5 34636.4 L 647387.5 24785 L 648558.8 24785 L 648558.8 34210 Z M 651193.9 17542.7 L 651886.8 16823.8 L 653376.6 18022.4 Q 653271.3 18129 653043.8 18235.6 Q 652817.6 18340.9 652552.4 18394.2 L 652552.4 25663.8 Q 652552.4 25770.4 652378.2 25916 Q 652205.3 26062.9 651979.1 26169.5 Q 651752.9 26276.1 651539.7 26276.1 L 651379.8 26276.1 L 651379.8 17542.7 L 651193.9 17542.7 Z M 644804.4 25956.3 Q 644804.4 26009.6 644657.5 26116.2 Q 644511.9 26222.8 644298.7 26302.1 Q 644085.5 26382.7 643819 26382.7 L 643633.1 26382.7 L 643633.1 17542.7 L 643633.1 16877.1 L 643633.1 16877.1 L 644937 17542.7 L 652019.4 17542.7 L 652019.4 18340.9 L 644804.4 18340.9 L 644804.4 25956.3 Z M 649489.6 10726.8 Q 649463.6 10993.3 649250.4 11166.2 Q 649037.2 11340.4 648584.8 11392.4 L 648584.8 18101.7 L 647413.5 18101.7 L 647413.5 10487.6 L 649489.6 10726.8 Z M 652844.9 27074.3 Q 652844.9 27074.3 653030.8 27234.2 Q 653218 27394.1 653523.5 27633.3 Q 653830.3 27872.5 654163.1 28166.3 Q 654495.9 28458.8 654761.1 28725.3 Q 654655.8 29150.4 654069.5 29150.4 L 642515.1 29150.4 L 642301.9 28352.2 L 651806.2 28352.2 L 652844.9 27074.3 Z M 652098.7 24385.9 L 652098.7 25184.1 L 644138.8 25184.1 L 644138.8 24385.9 L 652098.7 24385.9 Z M 652098.7 21057.9 L 652098.7 21856.1 L 644138.8 21856.1 L 644138.8 21057.9 L 652098.7 21057.9 Z M 651912.8 12936.8 Q 651912.8 12936.8 652219.6 13190.3 Q 652525.1 13442.5 652964.5 13802.6 Q 653403.9 14161.4 653777 14534.5 Q 653670.4 14960.9 653084.1 14960.9 L 642461.8 14960.9 L 642248.6 14161.4 L 650901.4 14161.4 L 651912.8 12936.8 Z M 660911.4 10726.8 Q 660858.1 10993.3 660659.2 11180.5 Q 660459 11366.4 659953.3 11445.7 L 659953.3 34103.4 Q 659953.3 34210 659820.7 34342.6 Q 659686.8 34476.5 659473.6 34555.8 Q 659261.7 34636.4 659021.2 34636.4 L 658782 34636.4 L 658782 10461.6 L 660911.4 10726.8 Z M 665145.5 23612.4 L 665145.5 24411.9 L 653563.8 24411.9 L 653324.6 23612.4 L 665145.5 23612.4 Z M 664134.1 23613.7 L 664879 22788.2 L 666530 24119.4 Q 666396.1 24252 666156.9 24345.6 Q 665917.7 24439.2 665544.6 24492.5 Q 665518.6 26276.1 665412 27473.4 Q 665305.4 28672 665092.2 29363.6 Q 664879 30056.5 664505.9 30376.3 Q 664160.1 30668.8 663667.4 30815.7 Q 663174.7 30961.3 662643 30961.3 Q 662643 30748.1 662575.4 30495.9 Q 662509.1 30242.4 662295.9 30082.5 Q 662110 29949.9 661617.3 29856.3 Q 661124.6 29764 660672.2 29710.7 L 660672.2 29231 Q 661258.5 29257 662016.4 29324.6 Q 662775.6 29390.9 663095.4 29390.9 Q 663387.9 29390.9 663534.8 29337.6 Q 663680.4 29284.3 663787 29177.7 Q 664080.8 28885.2 664213.4 27554 Q 664347.3 26222.8 664399.3 23613.7 L 664134.1 23613.7 Z M 663761 17969.1 Q 663761 17969.1 664093.8 18235.6 Q 664426.6 18502.1 664906.3 18901.2 Q 665384.7 19300.3 665757.8 19673.4 Q 665678.5 20098.5 665064.9 20098.5 L 654468.6 20098.5 L 654255.4 19300.3 L 662643 19300.3 L 663761 17969.1 Z M 664559.2 13363.2 Q 664559.2 13363.2 664772.4 13523.1 Q 664985.6 13683 665318.4 13949.5 Q 665651.2 14214.7 666010 14521.5 Q 666370.1 14827 666662.6 15120.8 Q 666583.3 15545.9 665971 15545.9 L 654148.8 15545.9 L 653936.9 14747.7 L 663441.2 14747.7 L 664559.2 13363.2 Z M 670896.7 12190.6 L 678937.2 12190.6 L 679922.6 11020.6 Q 679922.6 11020.6 680228.1 11259.8 Q 680534.9 11500.3 680961.3 11846.1 Q 681386.4 12191.9 681759.5 12537.7 Q 681652.9 12964.1 681067.9 12964.1 L 670896.7 12964.1 L 670896.7 12190.6 Z M 670896.7 26195.5 L 679416.9 26195.5 L 680455.6 24944.9 Q 680455.6 24944.9 680774.1 25197.1 Q 681093.9 25450.6 681533.3 25823.7 Q 681972.7 26195.5 682345.8 26542.6 Q 682265.2 26967.7 681652.9 26967.7 L 670896.7 26967.7 L 670896.7 26195.5 Z M 683303.9 12164.6 L 690385 12164.6 L 690385 12938.1 L 683303.9 12938.1 L 683303.9 12164.6 Z M 673559.1 21243.8 L 679150.4 21243.8 L 679150.4 22042 L 673559.1 22042 L 673559.1 21243.8 Z M 683303.9 18474.8 L 690517.6 18474.8 L 690517.6 19273 L 683303.9 19273 L 683303.9 18474.8 Z M 670337.7 12191.9 L 670337.7 11473 L 671828.8 12191.9 L 671509 12191.9 L 671509 28512.1 Q 671509 28592.7 671216.5 28778.6 Q 670922.7 28964.5 670470.3 28964.5 L 670337.7 28964.5 L 670337.7 12191.9 Z M 689772.7 12165.9 L 689533.5 12165.9 L 690278.4 11287.1 L 692115.3 12671.6 Q 691795.5 13017.4 690971.3 13203.3 L 690971.3 20285.7 Q 690944 20339 690771.1 20431.3 Q 690598.2 20524.9 690359 20591.2 Q 690118.5 20657.5 689932.6 20657.5 L 689772.7 20657.5 L 689772.7 12165.9 Z M 673079.4 16345.4 L 673079.4 15733.1 L 673079.4 15733.1 L 674384.6 16345.4 L 679523.5 16345.4 L 679523.5 17143.6 L 674250.7 17143.6 L 674250.7 22894.8 Q 674250.7 22920.8 674105.1 23014.4 Q 673958.2 23108 673745 23187.3 Q 673531.8 23266.6 673266.6 23266.6 L 673079.4 23266.6 L 673079.4 16345.4 Z M 682691.6 12165.9 L 682691.6 11500.3 L 682691.6 11447 L 684182.7 12165.9 L 683862.9 12165.9 L 683862.9 25689.8 Q 683862.9 26090.2 684076.1 26235.8 Q 684289.3 26382.7 685113.5 26382.7 L 687882.5 26382.7 Q 688867.9 26382.7 689573.8 26382.7 Q 690278.4 26382.7 690544.9 26355.4 Q 690758.1 26329.4 690864.7 26276.1 Q 690971.3 26222.8 691050.6 26090.2 Q 691183.2 25849.7 691343.1 25024.2 Q 691503 24198.7 691662.9 23293.9 L 692008.7 23293.9 L 692089.3 26142.2 Q 692488.4 26248.8 692635.3 26355.4 Q 692780.9 26462 692780.9 26675.2 Q 692780.9 26995 692409.1 27167.9 Q 692036 27340.8 690997.3 27421.4 Q 689958.6 27500.7 687909.8 27500.7 L 685006.9 27474.7 Q 684048.8 27474.7 683556.1 27327.8 Q 683064.7 27180.9 682877.5 26835.1 Q 682691.6 26489.3 682691.6 25930.3 L 682691.6 12165.9 Z M 675635.2 12511.7 L 676806.5 12511.7 L 676806.5 16771.8 L 675635.2 16771.8 L 675635.2 12511.7 Z M 675635.2 21243.8 L 676806.5 21243.8 L 676806.5 26542.6 L 675635.2 26542.6 L 675635.2 21243.8 Z M 678484.8 16345.4 L 678510.8 16345.4 L 679203.7 15573.2 L 680694.8 16878.4 Q 680588.2 17011 680321.7 17157.9 Q 680055.2 17303.5 679709.4 17356.8 L 679709.4 22468.4 Q 679683.4 22549 679389.6 22721.9 Q 679097.1 22894.8 678724 22894.8 L 678484.8 22894.8 L 678484.8 16345.4 Z M 672786.9 28539.4 L 673266.6 28565.4 Q 673452.5 30109.8 673079.4 31255.1 Q 672707.6 32399.1 672095.3 33132.3 Q 671483 33864.2 670922.7 34236 Q 670417 34583.1 669845 34662.4 Q 669273 34743 669059.8 34369.9 Q 668872.6 34077.4 669059.8 33744.6 Q 669245.7 33411.8 669591.5 33171.3 Q 670257.1 32851.5 670950 32185.9 Q 671641.6 31520.3 672148.6 30589.5 Q 672654.3 29657.4 672786.9 28539.4  Z M 687616 28405.5 Q 689213.7 29205 690225.1 30043.5 Q 691236.5 30882 691782.5 31654.2 Q 692328.5 32426.4 692501.4 33051.7 Q 692674.3 33677 692554.7 34076.1 Q 692435.1 34476.5 692115.3 34583.1 Q 691795.5 34688.4 691370.4 34395.9 Q 691157.2 33463.8 690478.6 32399.1 Q 689798.7 31334.4 688947.2 30336 Q 688095.7 29337.6 687296.2 28646 L 687616 28405.5 Z M 677019.7 28725.3 Q 677925.8 29550.8 678444.5 30323 Q 678963.2 31095.2 679163.4 31786.8 Q 679363.6 32479.7 679323.3 32998.4 Q 679283 33517.1 679069.8 33810.9 Q 678857.9 34103.4 678564.1 34130.7 Q 678271.6 34156.7 677951.8 33836.9 Q 677979.1 33038.7 677791.9 32133.9 Q 677606 31227.8 677299.2 30363.3 Q 676993.7 29497.5 676646.6 28857.9 L 677019.7 28725.3 Z M 682184.6 28725.3 Q 683436.5 29470.2 684208.7 30229.4 Q 684979.6 30988.6 685365.7 31667.2 Q 685751.8 32345.8 685832.4 32878.8 Q 685911.7 33410.5 685766.1 33743.3 Q 685619.2 34076.1 685326.7 34129.4 Q 685032.9 34182.7 684661.1 33890.2 Q 684527.2 33118 684061.8 32200.2 Q 683596.4 31281.1 682997.1 30415.3 Q 682397.8 29550.8 681838.8 28911.2 L 682184.6 28725.3 Z M 703590.4 34263.3 Q 703590.4 34342.6 703310.9 34515.5 Q 703031.4 34689.7 702579 34689.7 L 702419.1 34689.7 L 702419.1 25770.4 L 703590.4 25770.4 L 703590.4 34263.3 Z M 704522.5 22894.8 Q 704469.2 23161.3 704269 23347.2 Q 704070.1 23533.1 703590.4 23586.4 L 703590.4 26169.5 Q 703590.4 26169.5 703336.9 26169.5 Q 703084.7 26169.5 702738.9 26169.5 L 702419.1 26169.5 L 702419.1 22628.3 L 704522.5 22894.8 Z M 695763.1 30003.2 Q 696934.4 29896.6 699024.8 29657.4 Q 701115.2 29418.2 703763.3 29071.1 Q 706412.7 28725.3 709235 28352.2 L 709314.3 28831.9 Q 707131.6 29311.6 704163.7 29962.9 Q 701194.5 30615.5 697226.9 31361.7 Q 697147.6 31600.9 696974.7 31747.8 Q 696801.8 31893.4 696641.9 31946.7 L 695763.1 30003.2 Z M 707238.2 24411.9 Q 707238.2 24411.9 707543.7 24665.4 Q 707850.5 24917.6 708289.9 25277.7 Q 708729.3 25636.5 709075.1 25983.6 Q 708968.5 26408.7 708383.5 26408.7 L 698052.4 26408.7 L 697839.2 25610.5 L 706226.8 25610.5 L 707238.2 24411.9 Z M 707238.2 20019.2 Q 707238.2 20019.2 707558 20272.7 Q 707876.5 20524.9 708330.2 20898 Q 708782.6 21271.1 709155.7 21642.9 Q 709075.1 22069.3 708490.1 22069.3 L 696055.6 22069.3 L 695842.4 21271.1 L 706199.5 21271.1 L 707238.2 20019.2 Z M 702871.5 19087.1 Q 702764.9 19300.3 702459.4 19432.9 Q 702152.6 19566.8 701619.6 19406.9 L 701966.7 19033.8 Q 701726.2 19673.4 701314.1 20618.5 Q 700900.7 21563.6 700395 22628.3 Q 699889.3 23693 699370.6 24678.4 Q 698850.6 25663.8 698451.5 26382.7 L 698664.7 26382.7 L 698052.4 26914.4 L 696827.8 25770.4 Q 697067 25636.5 697440.1 25490.9 Q 697813.2 25344 698079.7 25290.7 L 697414.1 26009.6 Q 697785.9 25344 698291.6 24345.6 Q 698798.6 23347.2 699317.3 22229.2 Q 699836 21111.2 700288.4 20059.5 Q 700742.1 19007.8 701007.3 18261.6 L 702871.5 19087.1 Z M 703829.6 10700.8 Q 703803.6 10967.3 703563.1 11153.2 Q 703323.9 11339.1 702818.2 11419.7 L 702818.2 17676.6 L 701672.9 17676.6 L 701672.9 10434.3 L 703829.6 10700.8 Z M 719325.6 20870.7 Q 719219 21083.9 718992.8 21190.5 Q 718766.6 21297.1 718233.6 21271.1 Q 717621.3 23240.6 716622.9 25184.1 Q 715624.5 27127.6 714186.7 28911.2 Q 712748.9 30696.1 710845.7 32185.9 Q 708942.5 33677 706492 34715.7 L 706226.8 34316.6 Q 708462.8 33224.6 710259.4 31680.2 Q 712057.3 30137.1 713428.8 28285.9 Q 714799 26436 715731.1 24398.9 Q 716663.2 22361.8 717196.2 20258.4 L 719325.6 20870.7 Z M 713734.3 10860.7 Q 715038.2 11366.4 715891 11925.4 Q 716742.5 12484.4 717194.9 13004.4 Q 717647.3 13523.1 717794.2 13949.5 Q 717941.1 14374.6 717847.5 14654.1 Q 717753.9 14933.6 717488.7 15014.2 Q 717222.2 15093.5 716876.4 14907.6 Q 716609.9 14321.3 716010.6 13616.7 Q 715411.3 12910.8 714719.7 12245.2 Q 714026.8 11579.6 713441.8 11099.9 L 713734.3 10860.7 Z M 712776.2 11125.9 Q 712695.6 11366.4 712469.4 11526.3 Q 712243.2 11686.2 711790.8 11739.5 Q 711764.8 15172.8 711963.7 18408.5 Q 712163.9 21642.9 712748.9 24424.9 Q 713335.2 27208.2 714493.5 29297.3 Q 715651.8 31387.7 717542 32505.7 Q 717887.8 32746.2 718034.7 32705.9 Q 718180.3 32665.6 718340.2 32266.5 Q 718527.4 31760.8 718766.6 30948.3 Q 719005.8 30137.1 719193 29311.6 L 719564.8 29364.9 L 719219 33171.3 Q 719752 33677 719858.6 33903.2 Q 719963.9 34130.7 719831.3 34316.6 Q 719671.4 34609.1 719232 34596.1 Q 718792.6 34583.1 718220.6 34316.6 Q 717648.6 34050.1 717089.6 33651 Q 715039.5 32399.1 713761.6 30203.4 Q 712483.7 28006.4 711790.8 25011.2 Q 711099.2 22016 710845.7 18368.2 Q 710593.5 14720.4 710593.5 10594.2 L 712776.2 11125.9 Z M 706705.2 12510.4 Q 706705.2 12510.4 707038 12763.9 Q 707370.8 13017.4 707823.2 13389.2 Q 708276.9 13762.3 708622.7 14135.4 Q 708516.1 14560.5 707957.1 14560.5 L 696774.5 14560.5 L 696561.3 13762.3 L 705693.8 13762.3 L 706705.2 12510.4 Z M 717621.3 16025.6 Q 717621.3 16025.6 717821.5 16185.5 Q 718020.4 16345.4 718340.2 16597.6 Q 718660 16851.1 719005.8 17143.6 Q 719351.6 17436.1 719645.4 17729.9 Q 719538.8 18155 718979.8 18155 L 695496.6 18155 L 695257.4 17356.8 L 716556.6 17356.8 L 717621.3 16025.6 Z M 725448.6 13389.2 Q 725342 14134.1 724796 14999.9 Q 724250 15864.4 722918.8 16530 L 723319.2 17142.3 Q 724597.1 16610.6 725314.7 15757.8 Q 726033.6 14906.3 726327.4 13987.2 Q 726619.9 13069.4 726619.9 12376.5 Q 726619.9 11311.8 726167.5 10699.5 Q 725715.1 10087.2 724862.3 10087.2 Q 724143.4 10087.2 723744.3 10486.3 Q 723345.2 10885.4 723345.2 11471.7 Q 723345.2 12004.7 723584.4 12363.5 Q 723824.9 12723.6 724290.3 12962.8 Q 724755.7 13202 725448.6 13389.2  Z M 730720.1 13389.2 Q 730613.5 14134.1 730067.5 14999.9 Q 729521.5 15864.4 728190.3 16530 L 728590.7 17142.3 Q 729868.6 16610.6 730586.2 15757.8 Q 731305.1 14906.3 731598.9 13987.2 Q 731891.4 13069.4 731891.4 12376.5 Q 731891.4 11311.8 731439 10699.5 Q 730986.6 10087.2 730133.8 10087.2 Q 729414.9 10087.2 729015.8 10486.3 Q 728616.7 10885.4 728616.7 11471.7 Q 728616.7 12004.7 728855.9 12363.5 Q 729096.4 12723.6 729561.8 12962.8 Q 730027.2 13202 730720.1 13389.2  Z M 766610.5 25770.4 Q 766610.5 25770.4 766943.3 26036.9 Q 767276.1 26302.1 767754.5 26702.5 Q 768234.2 27101.6 768607.3 27474.7 Q 768580 27686.6 768394.1 27793.2 Q 768206.9 27899.8 767914.4 27899.8 L 757345.4 27899.8 L 757132.2 27101.6 L 765518.5 27101.6 L 766610.5 25770.4 Z M 768100.3 12059.3 L 768846.5 11206.5 L 770630.1 12671.6 Q 770497.5 12857.5 770164.7 12936.8 Q 769831.9 13016.1 769431.5 13069.4 Q 769378.2 13948.2 769272.9 15185.8 Q 769166.3 16424.7 769045.4 17809.2 Q 768925.8 19193.7 768780.2 20563.9 Q 768633.3 21935.4 768473.4 23134 Q 768260.2 23266.6 767954.7 23306.9 Q 767647.9 23345.9 767195.5 23266.6 Q 767408.7 21909.4 767581.6 20378 Q 767754.5 18846.6 767914.4 17329.5 Q 768074.3 15812.4 768180.9 14453.9 Q 768287.5 13096.7 768366.8 12059.3 L 768100.3 12059.3 Z M 769245.6 12058 L 769245.6 12857.5 L 758516.7 12857.5 L 758276.2 12058 L 769245.6 12058 Z M 762909.4 15119.5 Q 762828.8 15360 762563.6 15532.9 Q 762297.1 15705.8 761684.8 15599.2 L 761951.3 15172.8 Q 761870.7 15945 761738.1 17024 Q 761604.2 18101.7 761418.3 19287.3 Q 761232.4 20471.6 761045.2 21589.6 Q 760859.3 22707.6 760673.4 23560.4 L 760938.6 23560.4 L 760167.7 24305.3 L 758623.3 22946.8 Q 758915.8 22788.2 759314.9 22628.3 Q 759714 22468.4 760033.8 22415.1 L 759554.1 23347.2 Q 759714 22601 759914.2 21457 Q 760114.4 20311.7 760300.3 19033.8 Q 760486.2 17755.9 760633.1 16557.3 Q 760780 15360 760859.3 14507.2 L 762909.4 15119.5 Z M 770470.2 22788.2 L 771216.4 21909.4 L 772893.4 23293.9 Q 772626.9 23586.4 771854.7 23667 Q 771668.8 28006.4 771163.1 30521.9 Q 770656.1 33037.4 769885.2 33809.6 Q 769458.8 34236 768833.5 34436.2 Q 768206.9 34635.1 767594.6 34635.1 Q 767594.6 34395.9 767515.3 34142.4 Q 767434.7 33890.2 767169.5 33730.3 Q 766956.3 33597.7 766384.3 33463.8 Q 765811 33331.2 765226 33250.6 L 765252 32744.9 Q 765704.4 32772.2 766303.7 32825.5 Q 766903 32878.8 767421.7 32917.8 Q 767941.7 32958.1 768180.9 32958.1 Q 768819.2 32958.1 769139 32691.6 Q 769698 32159.9 770124.4 29643.1 Q 770550.8 27127.6 770736.7 22788.2 L 770470.2 22788.2 Z M 771269.7 22786.9 L 771269.7 23586.4 L 760167.7 23586.4 L 760167.7 22786.9 L 771269.7 22786.9 Z M 751061.2 31600.9 Q 751061.2 31654.2 750941.6 31773.8 Q 750822 31893.4 750621.8 31972.7 Q 750421.6 32053.3 750129.1 32053.3 L 749915.9 32053.3 L 749915.9 13017.4 L 749915.9 12324.5 L 749915.9 12324.5 L 751221.1 13016.1 L 755747.7 13016.1 L 755747.7 13815.6 L 751061.2 13815.6 L 751061.2 31600.9 Z M 755587.8 27528 L 755587.8 28326.2 L 750528.2 28326.2 L 750528.2 27528 L 755587.8 27528 Z M 754762.3 13017.4 L 755561.8 12138.6 L 757371.4 13549.1 Q 757264.8 13709 756932 13841.6 Q 756599.2 13975.5 756200.1 14054.8 L 756200.1 30455.6 Q 756200.1 30536.2 756027.2 30668.8 Q 755854.3 30801.4 755628.1 30895 Q 755401.9 30988.6 755188.7 30988.6 L 755028.8 30988.6 L 755028.8 13017.4 L 754762.3 13017.4 Z M 779389.5 32985.4 Q 778856.5 32985.4 778523.7 32625.3 Q 778190.9 32266.5 778190.9 31814.1 Q 778190.9 31334.4 778523.7 31001.6 Q 778856.5 30668.8 779389.5 30668.8 Q 779921.2 30668.8 780254 31001.6 Q 780586.8 31334.4 780586.8 31814.1 Q 780586.8 32266.5 780254 32625.3 Q 779921.2 32985.4 779389.5 32985.4  Z M 778909.8 27420.1 Q 778829.2 26649.2 778790.2 26088.9 Q 778749.9 25529.9 778749.9 24864.3 Q 778749.9 24198.7 779016.4 23667 Q 779282.9 23134 779921.2 22549 Q 780560.8 21962.7 781625.5 21137.2 Q 782743.5 20311.7 783368.8 19646.1 Q 783994.1 18980.5 784260.6 18314.9 Q 784527.1 17649.3 784527.1 16797.8 Q 784527.1 15040.2 783515.7 14109.4 Q 782504.3 13177.3 780693.4 13177.3 Q 780027.8 13177.3 779509.1 13270.9 Q 778989.1 13363.2 778443.1 13589.4 Q 777898.4 13815.6 777152.2 14216 L 778163.6 13337.2 Q 777817.8 14534.5 777551.3 15227.4 Q 777286.1 15919 777059.9 16238.8 Q 776832.4 16558.6 776620.5 16650.9 Q 776407.3 16744.5 776166.8 16744.5 Q 775874.3 16744.5 775622.1 16611.9 Q 775368.6 16478 775236 16159.5 Q 775528.5 14455.2 777006.6 13403.5 Q 778483.4 12351.8 780959.9 12351.8 Q 782876.1 12351.8 784047.4 12951.1 Q 785218.7 13550.4 785738.7 14561.8 Q 786257.4 15573.2 786257.4 16797.8 Q 786257.4 18235.6 785459.2 19434.2 Q 784659.7 20631.5 782769.5 21883.4 Q 781544.9 22681.6 780932.6 23214.6 Q 780320.3 23746.3 780107.1 24266.3 Q 779895.2 24785 779841.9 25503.9 L 779761.3 27420.1 L 778909.8 27420.1 Z " fill-rule="nonzero" style="fill:#333333;;fill-opacity:1;"/>
</svg>