<svg version="1.1" x="0" y="0" width="100%" height="100%" viewBox="0 0 179148.8 83865.6" xmlns="http://www.w3.org/2000/svg">
  <path d="M 16978.25 6804.15 L 16978.25 6727.65 L 12185.75 6727.65 L 12185.75 21227.4 L 16978.25 21227.4 L 16978.25 21150.9 Q 15689 20049.9 14829.5 18203.4 Q 13970 16356.9 13937 13977.9 Q 13970 11598.15 14829.5 9751.65 Q 15689 7905.15 16978.25 6804.15  Z M 26086.25 9615.15 Q 25475.75 10417.65 24796.25 11058.9 L 21355.25 11058.9 Q 22035.5 10371.9 22646 9615.15 L 26086.25 9615.15 Z M 28928 14576.4 L 26132.75 14576.4 L 26132.75 12748.65 L 28928 12748.65 L 28928 14576.4 Z M 21494 12748.65 L 24350.75 12748.65 L 24350.75 14576.4 L 21494 14576.4 L 21494 12748.65 Z M 23429 19215.15 Q 22229 19233.9 21848 19029.15 Q 21833.75 19021.65 21819.5 19013.4 Q 21459.5 18796.65 21494 18124.65 L 21494 16312.65 L 28928 16312.65 L 28928 16834.65 L 30725 16834.65 L 30725 11058.9 L 26977.25 11058.9 Q 27509.75 10511.4 27991.25 9920.4 Q 28472 9329.4 28866.5 8770.65 L 27699.5 7895.4 L 27346.25 7986.9 L 23813 7986.9 L 24197 7326.9 L 22538 6696.9 Q 21739.25 8142.15 20482.25 9383.4 Q 19224.5 10623.9 17837.75 11458.65 Q 18095 11800.65 18387.5 12326.4 Q 18679.25 12852.15 18821 13194.15 Q 19262.75 12891.15 19727 12518.4 L 19727 18124.65 Q 19699.25 19628.4 20405.75 20231.4 Q 20516.75 20327.4 20649.5 20406.9 Q 21496.25 20901.9 23459.75 20874.15 L 28712.75 20874.15 Q 30348.5 20895.15 31094 20379.9 Q 31342.25 20208.9 31526 19965.9 Q 32070.5 19225.65 32246 17617.65 Q 31848.5 17541.9 31368.5 17358.9 Q 30887.75 17175.9 30525.5 16972.65 Q 30418.25 18226.65 30128.75 18701.4 Q 30056 18816.15 29963.75 18900.15 Q 29585.75 19242.9 28620.5 19215.15 L 23429 19215.15 Z M 39956.75 9522.9 Q 39762.5 10213.65 39442.25 11010.9 Q 39121.25 11808.15 38789 12441.9 L 40187 12856.65 Q 40510.25 12342.15 40886.75 11636.4 Q 41263.25 10929.9 41643.5 10187.4 L 41661.5 10152.9 Q 42026 10437.9 42370.25 10797.9 Q 42713.75 11157.9 42951.5 11489.4 Q 44109.5 10801.65 45209.75 9851.4 Q 46310 8901.9 47144.75 7787.4 L 45332.75 7035.15 Q 44702.75 7925.4 43704.5 8724.15 Q 42706.25 9522.9 41707.25 10045.65 L 41753.75 9968.4 L 39956.75 9522.9 Z M 45624.5 11243.4 Q 44945.75 12166.65 43862.75 12995.4 Q 43856 13000.65 43849.25 13005.15 Q 42765.5 13833.15 41707.25 14376.9 Q 42086 14654.4 42452.75 15029.4 Q 42819.5 15405.15 43059.5 15728.4 Q 44242.25 15050.4 45389.75 14087.4 Q 46538 13123.65 47421.5 11996.4 L 45624.5 11243.4 Z M 36331.25 9953.4 Q 36651.5 10500.9 36917 11137.65 Q 37182.5 11775.15 37283.75 12288.15 L 38789 11750.4 Q 38654.75 11271.9 38370.5 10657.65 Q 38086.25 10044.15 37745 9507.9 L 36331.25 9953.4 Z M 40616.75 6942.9 Q 39215.75 7313.4 37322 7596.9 Q 37205 7614.9 37088 7632.15 Q 35179.25 7910.4 33275 8079.15 Q 33421.25 8393.4 33564.5 8814.9 Q 33708.5 9235.65 33751.25 9584.4 Q 35741.75 9448.65 37841.75 9177.9 L 37870.25 9173.4 Q 39969.5 8901.9 41707.25 8478.9 L 40616.75 6942.9 Z M 36300.5 12226.65 Q 36109.25 11703.9 35741.75 11080.65 Q 35375 10456.65 34918.25 9922.65 L 33581.75 10506.15 Q 34016.75 11076.9 34365.5 11736.9 Q 34714.25 12396.9 34872.5 12933.15 L 36300.5 12226.65 Z M 41400.5 15452.4 L 41400.5 13808.4 L 38558.75 13808.4 L 38558.75 12456.9 L 36792.5 12456.9 L 36792.5 13808.4 L 33597.5 13808.4 L 33597.5 15452.4 L 36224 15452.4 Q 35587.25 16412.4 34751 17255.4 Q 33915.5 18097.65 33059.75 18631.65 Q 33358.25 18959.4 33662.75 19416.9 Q 33967.25 19874.4 34150.25 20259.9 Q 34825.25 19734.9 35506.25 19031.4 Q 36186.5 18327.15 36792.5 17525.4 L 36792.5 21104.4 L 38558.75 21104.4 L 38558.75 16880.4 Q 39119 17418.15 39578 17967.15 Q 40037.75 18516.15 40310 18984.9 L 41523.5 17756.4 Q 41178.5 17237.4 40598 16626.9 Q 40016.75 16016.4 39326.75 15452.4 L 41400.5 15452.4 Z M 45977.75 15483.15 Q 45163.25 16839.9 43787 17888.4 Q 42410.75 18937.65 40847 19568.4 Q 41215.25 19893.9 41576.75 20331.15 Q 41939 20768.4 42168.5 21150.9 Q 43889 20319.9 45344 19083.15 Q 46799 17845.65 47805.5 16220.4 L 45977.75 15483.15 Z M 62397.5 9845.4 L 62397.5 8309.4 L 53243 8309.4 Q 53312.75 8133.15 53384.75 7956.15 Q 53531 7602.9 53657.75 7249.65 L 51799.25 6804.15 Q 51281 8428.65 50380.25 9847.65 Q 49479.5 11267.4 48327.5 12210.9 Q 48689 12412.65 49176.5 12741.15 Q 49664 13069.65 49955.75 13317.15 Q 50639 12643.65 51288.5 11760.15 Q 51937.25 10876.65 52505.75 9845.4 L 62397.5 9845.4 Z M 61107.5 12057.9 L 61107.5 10567.65 L 52136.75 10567.65 L 52136.75 12057.9 L 61107.5 12057.9 Z M 50462.75 12871.65 L 50462.75 14453.4 L 58327.25 14453.4 Q 58399.25 16705.65 58799 18382.65 Q 59012 19231.65 59357.75 19847.4 Q 60016.25 21070.65 61352.75 21104.4 Q 62220.5 21111.15 62582 20455.65 Q 62942.75 19800.15 63027.5 18401.4 Q 62723.75 18198.9 62408.75 17898.15 Q 62093.75 17597.4 61814 17280.15 Q 61805.75 18221.4 61731.5 18744.9 Q 61656.5 19268.4 61475.75 19276.65 Q 60907.25 19247.4 60608 18075.9 Q 60434.75 17421.9 60332.75 16514.4 Q 60158.75 14899.65 60155 12871.65 L 50462.75 12871.65 Z M 67604.75 12411.15 L 67604.75 11274.15 L 70753.25 11274.15 Q 70277 11888.4 69617 12411.15 L 67604.75 12411.15 Z M 71506.25 9123.9 Q 71202.5 9561.9 70876.25 9953.4 L 67773.5 9953.4 Q 68226.5 9538.65 68633.75 9123.9 L 71506.25 9123.9 Z M 74839.25 12411.15 L 71644.25 12411.15 Q 72147.5 11888.4 72535.25 11274.15 L 74839.25 11274.15 L 74839.25 12411.15 Z M 75699.5 13762.65 Q 75074 14242.65 74249.75 14745.9 Q 73425.5 15248.4 72581 15682.65 Q 71855 14637.9 70507.25 13731.9 L 76651.25 13731.9 L 76651.25 9953.4 L 72980.75 9953.4 Q 73606.25 9200.4 74024.75 8493.9 L 72780.5 7680.15 L 72519.5 7756.65 L 69800.75 7756.65 Q 70031 7434.15 70262 7111.65 L 68357 6743.4 Q 67754.75 7692.9 66689 8668.65 Q 65622.5 9644.4 64133 10444.65 Q 64447.25 10657.65 64799 11032.65 Q 65151.5 11406.9 65362.25 11735.4 Q 65634.5 11573.4 65884.25 11412.15 L 65884.25 13731.9 L 67404.5 13731.9 Q 65930 14392.65 64225.25 14776.65 Q 64446.5 15028.65 64711.25 15413.4 Q 64975.25 15798.9 65116.25 16050.9 Q 67208.75 15483.15 69002 14453.4 Q 69371 14680.65 69693.5 14929.65 Q 68717.75 15560.4 67364.75 16072.65 Q 66011 16584.15 64655 16880.4 Q 64907 17113.65 65181.5 17458.65 Q 65456 17803.65 65638.25 18093.9 Q 66919.25 17739.9 68246 17137.65 Q 69572.75 16536.15 70646 15789.9 Q 70883.75 16055.4 71075.75 16343.4 Q 70011.5 17123.4 68438.75 17800.65 Q 68100.5 17946.9 67751.75 18083.4 Q 66126.5 18717.15 64532.75 19061.4 Q 64795.25 19331.4 65081.75 19710.9 Q 65367.5 20089.65 65561.75 20382.9 Q 67111.25 19957.65 68717.75 19227.15 Q 70325 18496.65 71644.25 17586.9 Q 71767.25 18168.15 71636.75 18593.4 Q 71506.25 19018.65 71168 19230.9 Q 70961 19398.15 70705.25 19447.65 Q 70449.5 19497.15 70139 19491.9 Q 69833.75 19492.65 69436.25 19476.15 Q 69038.75 19460.4 68618 19415.4 Q 68837.75 19784.4 68962.25 20231.4 Q 69086 20677.65 69110 21058.65 Q 69854.75 21104.4 70461.5 21104.4 Q 71024 21099.15 71448.5 20987.4 Q 71873 20875.65 72320 20582.4 Q 73126.25 20087.4 73382 19096.65 Q 73637.75 18105.9 73211 16896.15 Q 73387.25 16830.15 73571.75 16749.15 Q 73650.5 16715.4 73733 16680.9 Q 74227.25 17804.4 75063.5 18867.9 Q 75900.5 19931.4 77096.75 20582.4 Q 77306.75 20204.4 77651.75 19745.4 Q 77996.75 19286.4 78310.25 19000.65 Q 77203.25 18530.4 76413.5 17712.15 Q 75623 16893.9 75161.75 15974.4 Q 76202 15436.65 77174 14853.15 L 75699.5 13762.65 Z M 84070.25 21227.4 L 84070.25 6727.65 L 79277.75 6727.65 L 79277.75 6804.15 Q 80567 7905.15 81426.5 9751.65 Q 82286 11598.15 82319 13977.9 Q 82286 16356.9 81426.5 18203.4 Q 80567 20049.9 79277.75 21150.9 L 79277.75 21227.4 L 84070.25 21227.4 Z " fill-rule="nonzero" style="fill:#333333;;fill-opacity:1;"/>
  <path d="M 10154.8 32732.95 Q 9849.95 32082.3 9309.8 31262 Q 8769.65 30441.7 8184.65 29711.1 L 6826.8 30470.3 Q 7394.25 31206.75 7922.05 32075.8 Q 8449.2 32944.85 8717 33611.75 L 10154.8 32732.95 Z M 5708.8 36673.25 L 5708.8 29258.7 L 3978.5 29258.7 L 3978.5 36900.1 Q 3951.85 37435.05 3625.55 37833.5 Q 3299.25 38231.3 2993.1 38417.2 Q 3216.7 38646 3475.4 39019.75 Q 3734.75 39393.5 3858.25 39682.1 Q 4027.25 39505.95 4454.95 39225.8 Q 4850.8 38966.45 5750.4 38467.25 Q 6728.65 37924.5 8650.7 36913.1 Q 8545.4 36627.1 8424.5 36199.4 Q 8303.6 35771.05 8237.95 35395.35 L 5708.8 36673.25 Z M 15066.85 39682.1 Q 14594.3 38985.95 13814.3 38133.15 Q 13034.3 37279.7 12231.55 36473.7 Q 12852.95 35029.4 13170.15 33167.8 Q 13487.35 31306.2 13589.4 28992.2 L 11898.75 28912.9 Q 11809.7 32120.65 11210.4 34369 Q 10826.9 35765.85 10125.55 36826.65 Q 9014.7 38534.85 6760.5 39455.9 Q 7060.8 39729.55 7426.1 40148.15 Q 7791.4 40566.75 7972.1 40840.4 Q 10221.75 39741.9 11432.7 37925.15 Q 12114.55 38666.8 12710.6 39409.1 Q 13307.3 40151.4 13669.35 40733.8 L 15066.85 39682.1 Z M 18474.8 35368.7 Q 19218.4 34584.8 19904.15 33693 Q 20590.55 32801.85 21163.85 31867.8 L 19766.35 30976 Q 19400.4 31671.5 18954.5 32346.85 L 17782.55 32440.45 Q 18346.75 31653.95 18860.9 30753.05 Q 19375.05 29852.15 19779.35 28925.9 L 18195.3 28286.95 Q 17836.5 29312 17380.85 30227.85 Q 17248.9 30495.65 17122.8 30734.85 Q 16684.7 31553.85 16465 31841.15 Q 16049 32486.6 15653.15 32613.35 Q 15791.6 32956.55 15947.6 33407 Q 16103.6 33857.45 16171.85 34131.1 Q 16318.1 34052.45 16686 33974.45 Q 17054.55 33896.45 17929.45 33798.3 Q 17596 34230.55 17324.95 34543.85 Q 17054.55 34856.5 16890.75 35009.25 Q 16549.5 35359.6 16290.15 35566.95 Q 16030.8 35774.3 15759.1 35834.75 Q 15907.3 36179.25 16065.25 36633.6 Q 16223.85 37087.95 16292.1 37352.5 Q 16463.05 37248.5 16919.35 37132.8 Q 17266.45 37045.7 17955.45 36920.9 Q 18877.15 36754.5 20777.75 36460.7 Q 20736.15 36187.05 20714.7 35796.4 Q 20693.25 35405.75 20711.45 35062.55 L 18474.8 35368.7 Z M 16038.6 40254.75 Q 17009.7 40020.75 18159.55 39756.85 Q 19382.2 39476.05 20631.5 39176.4 L 20458.6 37698.3 Q 19943.8 37804.25 19423.15 37911.5 Q 18389 38126.65 17438.7 38317.1 Q 16487.75 38507.55 15759.1 38630.4 L 16038.6 40254.75 Z M 25304.35 38404.2 L 25304.35 31055.95 L 27873.15 31055.95 L 27873.15 29471.9 L 20990.95 29471.9 L 20990.95 31055.95 L 23573.4 31055.95 L 23573.4 38404.2 L 20764.75 38404.2 L 20764.75 39988.25 L 28152.65 39988.25 L 28152.65 38404.2 L 25304.35 38404.2 Z M 32252.85 31628.6 L 33783.6 31628.6 L 33783.6 30656.2 L 36858.75 30656.2 L 36858.75 31628.6 L 38442.8 31628.6 L 38442.8 30656.2 L 41278.75 30656.2 L 41278.75 29219.05 L 38442.8 29219.05 L 38442.8 28353.25 L 36858.75 28353.25 L 36858.75 29219.05 L 33783.6 29219.05 L 33783.6 28353.25 L 32213.2 28353.25 L 32213.2 29219.05 L 29444.2 29219.05 L 29444.2 30656.2 L 32213.2 30656.2 L 32213.2 31614.95 L 31853.75 31495.35 Q 31381.2 32597.75 30636.95 33575.35 Q 29892.7 34552.95 29031.45 35236.1 Q 29268.7 35524.05 29560.55 35979.7 Q 29852.4 36435.35 29990.2 36713.55 Q 30395.8 36363.85 30802.05 35914.7 L 30802.05 40773.45 L 32345.8 40773.45 L 32345.8 33904.9 Q 32938.6 32963.05 33370.85 32001.05 L 32252.85 31628.6 Z M 36379.7 35741.8 L 36379.7 37059.35 L 34875.6 37059.35 L 34875.6 35741.8 L 36379.7 35741.8 Z M 37830.5 38350.9 L 37830.5 34450.25 L 33411.15 34450.25 L 33411.15 39096.45 L 34875.6 39096.45 L 34875.6 38350.9 L 37830.5 38350.9 Z M 41345.05 32134.3 L 33411.15 32134.3 L 33411.15 33598.75 L 38709.3 33598.75 L 38709.3 38989.85 Q 38711.9 39145.85 38637.8 39204.35 Q 38563.05 39262.85 38376.5 39269.35 Q 38182.15 39270 37636.15 39266.1 Q 37089.5 39262.2 36486.3 39242.7 Q 36661.8 39565.1 36820.4 39970.05 Q 36979 40375 37045.3 40707.15 Q 37881.2 40713.65 38492.85 40670.75 Q 39104.5 40627.2 39521.15 40454.3 Q 39943.65 40301.55 40108.75 39966.8 Q 40273.85 39631.4 40266.7 39029.5 L 40266.7 33598.75 L 41345.05 33598.75 L 41345.05 32134.3 Z M 45378.3 40547.25 L 46803.1 39322.65 Q 46324.05 38733.1 45593.45 37983.65 Q 45457.6 37844.55 45318.5 37706.75 Q 44571 36960.55 43900.85 36407.4 L 42516.35 37605.35 Q 43222.25 38219.6 43987.3 39001.55 Q 44753 39782.85 45378.3 40547.25  Z M 61526.25 30709.5 Q 61357.9 31308.15 61080.35 31999.1 Q 60802.15 32690.05 60514.2 33239.3 L 61725.8 33598.75 Q 62005.95 33152.85 62332.25 32541.2 Q 62658.55 31928.9 62988.1 31285.4 L 63003.7 31255.5 Q 63319.6 31502.5 63617.95 31814.5 Q 63915.65 32126.5 64121.7 32413.8 Q 65125.3 31817.75 66078.85 30994.2 Q 67032.4 30171.3 67755.85 29205.4 L 66185.45 28553.45 Q 65639.45 29325 64774.3 30017.25 Q 63909.15 30709.5 63043.35 31162.55 L 63083.65 31095.6 L 61526.25 30709.5 Z M 66438.3 32200.6 Q 65850.05 33000.75 64911.45 33719 Q 64905.6 33723.55 64899.75 33727.45 Q 63960.5 34445.05 63043.35 34916.3 Q 63371.6 35156.8 63689.45 35481.8 Q 64007.3 35807.45 64215.3 36087.6 Q 65240.35 35500 66234.85 34665.4 Q 67230 33830.15 67995.7 32853.2 L 66438.3 32200.6 Z M 58384.15 31082.6 Q 58661.7 31557.1 58891.8 32108.95 Q 59121.9 32661.45 59209.65 33106.05 L 60514.2 32640 Q 60397.85 32225.3 60151.5 31692.95 Q 59905.15 31161.25 59609.4 30696.5 L 58384.15 31082.6 Z M 62098.25 28473.5 Q 60884.05 28794.6 59242.8 29040.3 Q 59141.4 29055.9 59040 29070.85 Q 57385.75 29312 55735.4 29458.25 Q 55862.15 29730.6 55986.3 30095.9 Q 56111.1 30460.55 56148.15 30762.8 Q 57873.25 30645.15 59693.25 30410.5 L 59717.95 30406.6 Q 61537.3 30171.3 63043.35 29804.7 L 62098.25 28473.5 Z M 58357.5 33052.75 Q 58191.75 32599.7 57873.25 32059.55 Q 57555.4 31518.75 57159.55 31055.95 L 56001.25 31561.65 Q 56378.25 32056.3 56680.5 32628.3 Q 56982.75 33200.3 57119.9 33665.05 L 58357.5 33052.75 Z M 62777.5 35848.4 L 62777.5 34423.6 L 60314.65 34423.6 L 60314.65 33252.3 L 58783.9 33252.3 L 58783.9 34423.6 L 56014.9 34423.6 L 56014.9 35848.4 L 58291.2 35848.4 Q 57739.35 36680.4 57014.6 37411 Q 56290.5 38140.95 55548.85 38603.75 Q 55807.55 38887.8 56071.45 39284.3 Q 56335.35 39680.8 56493.95 40014.9 Q 57078.95 39559.9 57669.15 38950.2 Q 58258.7 38339.85 58783.9 37645 L 58783.9 40746.8 L 60314.65 40746.8 L 60314.65 37086 Q 60800.2 37552.05 61198 38027.85 Q 61596.45 38503.65 61832.4 38909.9 L 62884.1 37845.2 Q 62585.1 37395.4 62082 36866.3 Q 61578.25 36337.2 60980.25 35848.4 L 62777.5 35848.4 Z M 66744.45 35875.05 Q 66038.55 37050.9 64845.8 37959.6 Q 63653.05 38868.95 62297.8 39415.6 Q 62616.95 39697.7 62930.25 40076.65 Q 63244.2 40455.6 63443.1 40787.1 Q 64934.2 40066.9 66195.2 38995.05 Q 67456.2 37922.55 68328.5 36514 L 66744.45 35875.05 Z M 78259.2 36926.75 L 69220.3 36926.75 L 69220.3 38284.6 L 78259.2 38284.6 L 78259.2 36926.75 Z M 72335.1 34463.9 L 72335.1 30829.75 L 78139.6 30829.75 Q 78072 31658.5 77999.85 32067.35 Q 77927.05 32476.85 77819.8 32586.7 Q 77673.55 32732.95 77447.35 32719.95 Q 77124.3 32723.2 76502.25 32666.65 Q 76663.45 32966.3 76764.85 33345.25 Q 76866.25 33724.85 76888.35 34064.15 Q 77292.65 34074.55 77644.95 34062.85 Q 77997.25 34050.5 78232.55 34010.85 Q 78480.2 33976.4 78688.2 33879.55 Q 78896.2 33782.7 79084.7 33558.45 Q 79319.35 33306.9 79444.15 32468.4 Q 79568.95 31630.55 79643.7 29990.6 Q 79654.1 29833.95 79661.9 29641.55 Q 79669.7 29449.15 79670.35 29431.6 L 75570.15 29431.6 Q 75816.5 28966.2 76062.85 28459.85 L 74172.65 28313.6 Q 74082.3 28832.95 73893.15 29431.6 L 70791.35 29431.6 L 70791.35 35861.4 L 79444.15 35861.4 Q 79344.7 37451.3 79203 38229.35 Q 79060.65 39007.4 78871.5 39189.4 Q 78695.35 39369.45 78378.8 39349.3 Q 78159.1 39350.6 77750.25 39342.8 Q 77340.75 39334.35 76861.7 39296 Q 77053.45 39598.25 77172.4 39985 Q 77292 40371.75 77314.1 40693.5 Q 77851.65 40723.4 78319 40715.6 Q 78787 40707.8 79084.7 40666.85 Q 79431.15 40632.4 79705.45 40515.4 Q 79979.1 40399.05 80216.35 40134.5 Q 80527.05 39811.45 80715.55 38669.4 Q 80718.8 38650.55 80722.05 38631.05 Q 80908.6 37472.75 81041.2 35089.2 Q 81051.6 34928 81059.4 34707 Q 81067.85 34485.35 81067.85 34463.9 L 72335.1 34463.9 Z M 76395.65 32627 Q 75926.35 32283.8 75177.55 31882.75 Q 74428.75 31482.35 73759.9 31189.2 L 72907.75 32147.3 Q 73593.5 32490.5 74318.9 32913 Q 75044.3 33335.5 75490.2 33678.05 L 76395.65 32627 Z M 85554.15 29804.7 Q 86785.25 30652.95 87617.25 31841.15 Q 87049.15 34503.55 85768.65 36398.95 Q 84488.8 38295 82372.4 39349.3 Q 82715.6 39599.55 83147.85 39985 Q 83580.75 40369.8 83823.85 40640.2 Q 85616.55 39580.7 86875.6 37899.8 Q 88134 36218.9 88908.8 33931.55 Q 89178.55 34428.15 89442.45 34932.55 Q 90193.2 36426.9 91114.25 37817.25 Q 91332.65 38133.8 91571.2 38437.35 Q 92576.1 39766.6 94140.65 40680.5 Q 94216.7 40284.65 94454.6 39748.4 Q 94693.15 39212.8 94899.2 38856.6 Q 93373.65 37859.5 92438.95 36597.2 Q 92334.95 36462 92234.85 36324.85 Q 91342.4 35042.4 90622.85 33657.9 Q 89903.3 32273.4 88979.65 30935.05 Q 88971.85 30924 88964.05 30913.6 Q 88037.15 29575.9 86525.9 28433.2 L 85554.15 29804.7 Z M 105934.9 38670.05 L 97894.4 38670.05 L 97894.4 32573.7 L 96257.05 32573.7 L 96257.05 40161.15 L 105934.9 40161.15 L 105934.9 40760.45 L 107532.6 40760.45 L 107532.6 32506.75 L 105934.9 32506.75 L 105934.9 38670.05 Z M 103685.25 34104.45 L 102526.95 34104.45 L 102526.95 32985.8 L 103685.25 32985.8 L 103685.25 34104.45 Z M 103685.25 36447.05 L 102526.95 36447.05 L 102526.95 35302.4 L 103685.25 35302.4 L 103685.25 36447.05 Z M 100010.8 35302.4 L 101169.1 35302.4 L 101169.1 36447.05 L 100010.8 36447.05 L 100010.8 35302.4 Z M 100010.8 32985.8 L 101169.1 32985.8 L 101169.1 34104.45 L 100010.8 34104.45 L 100010.8 32985.8 Z M 98719.9 31694.9 L 98719.9 37738.6 L 105056.1 37738.6 L 105056.1 31694.9 L 98719.9 31694.9 Z M 96097.15 29152.1 L 96097.15 30616.55 L 107705.5 30616.55 L 107705.5 29152.1 L 96097.15 29152.1 Z M 111126.45 41465.7 Q 112373.8 41082.85 113056.95 40232.65 Q 113740.1 39383.1 113749.2 38231.3 Q 113747.9 37383.05 113384.55 36900.1 Q 113021.2 36416.5 112311.4 36407.4 Q 111766.7 36412.6 111394.25 36726.55 Q 111021.8 37041.15 111006.85 37605.35 Q 111023.1 38177.35 111389.7 38482.2 Q 111755.65 38787.05 112271.1 38790.3 Q 112354.3 38793.55 112418 38776.65 Q 112278.25 39861.5 110700.7 40387.35 L 111126.45 41465.7 Z M 129377.15 30789.45 Q 128848.05 31484.95 128259.15 32040.7 L 125276.95 32040.7 Q 125866.5 31445.3 126395.6 30789.45 L 129377.15 30789.45 Z M 131840 35089.2 L 129417.45 35089.2 L 129417.45 33505.15 L 131840 33505.15 L 131840 35089.2 Z M 125397.2 33505.15 L 127873.05 33505.15 L 127873.05 35089.2 L 125397.2 35089.2 L 125397.2 33505.15 Z M 127074.2 39109.45 Q 126034.2 39125.7 125704 38948.25 Q 125691.65 38941.75 125679.3 38934.6 Q 125367.3 38746.75 125397.2 38164.35 L 125397.2 36593.95 L 131840 36593.95 L 131840 37046.35 L 133397.4 37046.35 L 133397.4 32040.7 L 130149.35 32040.7 Q 130610.85 31566.2 131028.15 31054 Q 131444.8 30541.8 131786.7 30057.55 L 130775.3 29299 L 130469.15 29378.3 L 127407 29378.3 L 127739.8 28806.3 L 126302 28260.3 Q 125609.75 29512.85 124520.35 30588.6 Q 123430.3 31663.7 122228.45 32387.15 Q 122451.4 32683.55 122704.9 33139.2 Q 122957.75 33594.85 123080.6 33891.25 Q 123463.45 33628.65 123865.8 33305.6 L 123865.8 38164.35 Q 123841.75 39467.6 124454.05 39990.2 Q 124550.25 40073.4 124665.3 40142.3 Q 125399.15 40571.3 127100.85 40547.25 L 131653.45 40547.25 Q 133071.1 40565.45 133717.2 40118.9 Q 133932.35 39970.7 134091.6 39760.1 Q 134563.5 39118.55 134715.6 37724.95 Q 134371.1 37659.3 133955.1 37500.7 Q 133538.45 37342.1 133224.5 37165.95 Q 133131.55 38252.75 132880.65 38664.2 Q 132817.6 38763.65 132737.65 38836.45 Q 132410.05 39133.5 131573.5 39109.45 L 127074.2 39109.45 Z M 141398.25 30709.5 Q 141229.9 31308.15 140952.35 31999.1 Q 140674.15 32690.05 140386.2 33239.3 L 141597.8 33598.75 Q 141877.95 33152.85 142204.25 32541.2 Q 142530.55 31928.9 142860.1 31285.4 L 142875.7 31255.5 Q 143191.6 31502.5 143489.95 31814.5 Q 143787.65 32126.5 143993.7 32413.8 Q 144997.3 31817.75 145950.85 30994.2 Q 146904.4 30171.3 147627.85 29205.4 L 146057.45 28553.45 Q 145511.45 29325 144646.3 30017.25 Q 143781.15 30709.5 142915.35 31162.55 L 142955.65 31095.6 L 141398.25 30709.5 Z M 146310.3 32200.6 Q 145722.05 33000.75 144783.45 33719 Q 144777.6 33723.55 144771.75 33727.45 Q 143832.5 34445.05 142915.35 34916.3 Q 143243.6 35156.8 143561.45 35481.8 Q 143879.3 35807.45 144087.3 36087.6 Q 145112.35 35500 146106.85 34665.4 Q 147102 33830.15 147867.7 32853.2 L 146310.3 32200.6 Z M 138256.15 31082.6 Q 138533.7 31557.1 138763.8 32108.95 Q 138993.9 32661.45 139081.65 33106.05 L 140386.2 32640 Q 140269.85 32225.3 140023.5 31692.95 Q 139777.15 31161.25 139481.4 30696.5 L 138256.15 31082.6 Z M 141970.25 28473.5 Q 140756.05 28794.6 139114.8 29040.3 Q 139013.4 29055.9 138912 29070.85 Q 137257.75 29312 135607.4 29458.25 Q 135734.15 29730.6 135858.3 30095.9 Q 135983.1 30460.55 136020.15 30762.8 Q 137745.25 30645.15 139565.25 30410.5 L 139589.95 30406.6 Q 141409.3 30171.3 142915.35 29804.7 L 141970.25 28473.5 Z M 138229.5 33052.75 Q 138063.75 32599.7 137745.25 32059.55 Q 137427.4 31518.75 137031.55 31055.95 L 135873.25 31561.65 Q 136250.25 32056.3 136552.5 32628.3 Q 136854.75 33200.3 136991.9 33665.05 L 138229.5 33052.75 Z M 142649.5 35848.4 L 142649.5 34423.6 L 140186.65 34423.6 L 140186.65 33252.3 L 138655.9 33252.3 L 138655.9 34423.6 L 135886.9 34423.6 L 135886.9 35848.4 L 138163.2 35848.4 Q 137611.35 36680.4 136886.6 37411 Q 136162.5 38140.95 135420.85 38603.75 Q 135679.55 38887.8 135943.45 39284.3 Q 136207.35 39680.8 136365.95 40014.9 Q 136950.95 39559.9 137541.15 38950.2 Q 138130.7 38339.85 138655.9 37645 L 138655.9 40746.8 L 140186.65 40746.8 L 140186.65 37086 Q 140672.2 37552.05 141070 38027.85 Q 141468.45 38503.65 141704.4 38909.9 L 142756.1 37845.2 Q 142457.1 37395.4 141954 36866.3 Q 141450.25 36337.2 140852.25 35848.4 L 142649.5 35848.4 Z M 146616.45 35875.05 Q 145910.55 37050.9 144717.8 37959.6 Q 143525.05 38868.95 142169.8 39415.6 Q 142488.95 39697.7 142802.25 40076.65 Q 143116.2 40455.6 143315.1 40787.1 Q 144806.2 40066.9 146067.2 38995.05 Q 147328.2 37922.55 148200.5 36514 L 146616.45 35875.05 Z M 152833.05 30616.55 Q 152583.45 31235.35 152313.7 31734.55 L 150782.95 31734.55 Q 151082.6 31185.95 151341.95 30616.55 L 152833.05 30616.55 Z M 153365.4 34224.05 L 152553.55 34224.05 L 152553.55 32933.15 L 153365.4 32933.15 L 153365.4 34224.05 Z M 153365.4 36646.6 L 152553.55 36646.6 L 152553.55 35329.05 L 153365.4 35329.05 L 153365.4 36646.6 Z M 150716.65 35329.05 L 151514.85 35329.05 L 151514.85 36646.6 L 150716.65 36646.6 L 150716.65 35329.05 Z M 150716.65 32933.15 L 151514.85 32933.15 L 151514.85 34224.05 L 150716.65 34224.05 L 150716.65 32933.15 Z M 149544.7 37845.2 L 154590 37845.2 L 154590 31734.55 L 153551.95 31734.55 Q 153832.1 31309.45 154087.55 30849.25 Q 154343 30389.7 154563.35 29964.6 L 153765.15 29338.65 L 153485 29418.6 L 151781.35 29418.6 Q 151781.35 29418.6 151781.35 29417.95 Q 151924.35 28955.8 152047.85 28513.15 L 150676.35 28326.6 Q 150470.3 29274.95 150014 30305.2 Q 149558.35 31336.1 148812.8 32214.25 Q 148966.85 32307.85 149163.8 32467.1 Q 149360.75 32625.7 149544.7 32799.9 L 149544.7 37845.2 Z M 149305.5 40401 Q 150221.35 40297 151334.15 40172.2 Q 152173.95 40078.6 153064.45 39978.5 Q 153954.95 39877.75 154842.85 39775.05 L 154816.2 38470.5 Q 154242.25 38521.85 153667.65 38572.55 Q 152361.15 38690.2 151172.3 38792.9 Q 149983.45 38896.25 149079.3 38963.2 L 149305.5 40401 Z M 161366.25 36393.75 L 158930.05 36393.75 L 158930.05 34996.25 L 160926.85 34996.25 L 160926.85 33665.05 L 158930.05 33665.05 L 158930.05 32173.95 L 161179.7 32173.95 L 161179.7 30816.1 L 159755.55 30816.1 Q 160005.8 30382.55 160250.85 29894.4 Q 160496.55 29406.25 160727.3 28912.9 L 159342.8 28593.1 Q 159167.3 29097.5 158906.65 29699.4 Q 158646 30301.95 158371.05 30816.1 L 156374.25 30816.1 L 157425.95 30363.7 Q 157308.95 29989.95 157074.3 29511.55 Q 156840.3 29033.15 156573.8 28619.75 L 155468.8 29032.5 Q 155715.8 29455 155938.1 29939.25 Q 156160.4 30424.15 156267.65 30816.1 L 155109.35 30816.1 L 155109.35 32173.95 L 157425.95 32173.95 L 157425.95 33665.05 L 155322.55 33665.05 L 155322.55 34996.25 L 157425.95 34996.25 L 157425.95 36393.75 L 154883.15 36393.75 L 154883.15 37818.55 L 157425.95 37818.55 L 157425.95 40840.4 L 158930.05 40840.4 L 158930.05 37818.55 L 161366.25 37818.55 L 161366.25 36393.75 Z M 171576.45 30936.35 Q 171404.2 31279.55 171215.05 31600 Q 171025.9 31920.45 170843.9 32173.95 L 168820.45 32173.95 Q 169280 31594.8 169699.25 30936.35 L 171576.45 30936.35 Z M 172708.1 35315.4 L 171722.7 35315.4 L 171722.7 33545.45 L 172708.1 33545.45 L 172708.1 35315.4 Z M 169419.75 33545.45 L 170378.5 33545.45 L 170378.5 35315.4 L 169419.75 35315.4 L 169419.75 33545.45 Z M 170271.9 39203.05 Q 169746.7 39216.05 169576.4 39079.55 Q 169405.45 38943.05 169419.75 38497.15 L 169419.75 36686.9 L 174145.25 36686.9 L 174145.25 32173.95 L 172414.95 32173.95 Q 172757.5 31699.45 173072.1 31187.25 Q 173387.35 30675.05 173639.55 30190.8 L 172694.45 29484.9 L 172401.95 29578.5 L 170457.8 29578.5 Q 170617.05 29265.85 170748.35 28955.8 Q 170796.45 28845.3 170843.9 28739.35 L 169419.75 28260.3 Q 169084.35 29095.55 168584.5 29871 Q 168084.65 30646.45 167489.25 31282.15 L 167489.25 30403.35 L 165905.2 30403.35 L 165905.2 28340.25 L 164374.45 28340.25 L 164374.45 30403.35 L 162404.3 30403.35 L 162404.3 31867.8 L 164374.45 31867.8 L 164374.45 33186 L 162737.1 33186 L 162737.1 34610.15 L 164374.45 34610.15 L 164374.45 36060.95 L 162364.65 36060.95 L 162364.65 37525.4 L 164374.45 37525.4 L 164374.45 40760.45 L 165905.2 40760.45 L 165905.2 37525.4 L 167622.5 37525.4 L 167622.5 36060.95 L 165905.2 36060.95 L 165905.2 34610.15 L 167343 34610.15 L 167343 33186 L 165905.2 33186 L 165905.2 31867.8 L 166997.2 31867.8 Q 167187 32193.45 167396.3 32651.7 Q 167606.25 33109.95 167716.1 33385.55 Q 167776.55 33325.75 167842.2 33265.95 Q 167907.85 33205.5 167968.95 33145.7 L 167968.95 38497.15 Q 167948.8 39711.35 168427.85 40161.15 Q 168907.55 40611.6 170125 40587.55 L 172654.8 40587.55 Q 173709.75 40608.35 174155.65 40053.25 Q 174601.55 39497.5 174717.9 38111.05 Q 174403.3 38036.95 174020.45 37879.65 Q 173638.25 37723 173373.7 37539.05 Q 173319.1 38551.1 173160.5 38889.75 Q 173001.25 39228.4 172548.2 39203.05 L 170271.9 39203.05 Z M 6174.85 49709.95 L 6174.85 51587.15 L 4457.55 51587.15 L 4457.55 49709.95 L 6174.85 49709.95 Z M 4457.55 54968.45 L 4457.55 52998.3 L 6174.85 52998.3 L 6174.85 54968.45 L 4457.55 54968.45 Z M 7639.3 56406.25 L 7639.3 48272.15 L 2993.1 48272.15 L 2993.1 57550.9 L 4457.55 57550.9 L 4457.55 56406.25 L 7639.3 56406.25 Z M 10048.2 54382.8 Q 10121.65 53600.2 10115.15 52878.05 L 10115.15 52678.5 L 12977.1 52678.5 L 12977.1 54382.8 L 10048.2 54382.8 Z M 12977.1 49550.05 L 12977.1 51254.35 L 10115.15 51254.35 L 10115.15 49550.05 L 12977.1 49550.05 Z M 14548.15 48086.25 L 8557.75 48086.25 L 8557.75 52878.05 Q 8585.05 54088.35 8354.3 55391.6 Q 8217.15 56099.45 7924 56781.95 Q 7409.85 58037.75 6121.55 59028.35 Q 6391.3 59196.7 6748.8 59514.55 Q 7106.3 59832.4 7306.5 60080.05 Q 8412.15 59246.75 9012.1 58133.3 Q 9611.4 57019.85 9848.65 55806.95 L 12977.1 55806.95 L 12977.1 58150.2 Q 12997.25 58472.6 12657.95 58456.35 Q 12466.85 58467.4 11963.75 58469.35 Q 11460.65 58471.3 10900.35 58442.7 Q 11077.8 58759.25 11239.65 59193.45 Q 11402.15 59627 11459.35 59973.45 Q 12284.2 59979.3 12872.45 59922.1 Q 13460.05 59864.9 13855.9 59680.95 Q 14239.4 59498.3 14396.7 59141.45 Q 14553.35 58784.6 14548.15 58163.2 L 14548.15 48086.25 Z M 16797.8 54063 Q 17031.15 53265.45 17192.35 52243 Q 17352.9 51219.9 17396.45 50322.25 L 16265.45 50176 Q 16193.3 51034.65 16023.65 51993.4 Q 15854.65 52951.5 15612.85 53650.25 L 16797.8 54063 Z M 20738.1 52265.75 Q 20598.35 51755.5 20308.45 51062.6 Q 20019.2 50370.35 19699.4 49750.25 L 18981.15 50056.4 L 18981.15 47553.25 L 17410.1 47553.25 L 17410.1 59973.45 L 18981.15 59973.45 L 18981.15 51014.5 Q 19183.3 51501.35 19340.6 51973.25 Q 19497.25 52445.15 19579.8 52811.75 L 20738.1 52265.75 Z M 24411.9 51028.15 L 25756.75 51028.15 L 25756.75 53464.35 L 24372.25 53464.35 Q 24411.9 52848.15 24411.9 52252.75 L 24411.9 51028.15 Z M 28139.65 54968.45 L 28139.65 53464.35 L 27301.15 53464.35 L 27301.15 49563.7 L 24411.9 49563.7 L 24411.9 47553.25 L 22814.85 47553.25 L 22814.85 49563.7 L 20524.9 49563.7 L 20524.9 51028.15 L 22814.85 51028.15 L 22814.85 52239.1 Q 22824.6 52831.9 22774.55 53464.35 L 19912.6 53464.35 L 19912.6 54968.45 L 22562 54968.45 Q 22313.7 56078 21568.15 57078.35 Q 20823.25 58078.05 19326.95 58828.8 Q 19603.85 59065.4 19936 59420.95 Q 20268.15 59777.15 20444.95 60053.4 Q 21811.9 59257.15 22625.05 58248.35 Q 23438.2 57239.55 23826.25 56113.1 Q 24367.05 57454.7 25207.5 58444.65 Q 26047.95 59433.95 27287.5 60026.75 Q 27479.9 59658.85 27796.45 59231.8 Q 28113.65 58804.1 28405.5 58535.65 Q 27162.05 58055.95 26322.25 57131.65 Q 25483.1 56207.35 24998.2 54968.45 L 28139.65 54968.45 Z M 31254.45 60665.7 Q 32501.8 60282.85 33184.95 59432.65 Q 33868.1 58583.1 33877.2 57431.3 Q 33875.9 56583.05 33512.55 56100.1 Q 33149.2 55616.5 32439.4 55607.4 Q 31894.7 55612.6 31522.25 55926.55 Q 31149.8 56241.15 31134.85 56805.35 Q 31151.1 57377.35 31517.7 57682.2 Q 31883.65 57987.05 32399.1 57990.3 Q 32482.3 57993.55 32546 57976.65 Q 32406.25 59061.5 30828.7 59587.35 L 31254.45 60665.7 Z M 45032.5 49976.45 Q 45278.2 50406.75 45488.15 50851.35 Q 45698.75 51296.6 45804.7 51626.8 L 47175.55 51081.45 Q 46985.75 50598.5 46616.55 49976.45 L 48307.2 49976.45 Q 48007.55 50339.15 47668.25 50601.75 Q 47977.65 50764.9 48377.4 51028.15 Q 48776.5 51290.75 49026.1 51494.2 Q 49651.4 50874.75 50237.7 49976.45 L 50756.4 49976.45 Q 50970.9 50332 51147.7 50690.15 Q 51324.5 51048.3 51409 51334.3 L 52779.85 50828.6 Q 52646.6 50452.25 52354.1 49976.45 L 54617.4 49976.45 L 54617.4 48658.25 L 50942.95 48658.25 Q 51129.5 48252.65 51275.75 47846.4 L 49731.35 47447.3 Q 49509.7 48101.2 49171.05 48723.25 Q 48831.75 49345.3 48400.15 49869.85 L 48400.15 48658.25 L 45511.55 48658.25 Q 45678.6 48311.8 45812.5 47960.8 Q 45835.25 47902.95 45858 47846.4 L 44340.25 47447.3 Q 44013.95 48390.45 43490.05 49254.3 Q 42966.15 50117.5 42329.8 50722 Q 42620.35 50892.95 43015.55 51144.5 Q 43410.75 51395.4 43661 51587.15 Q 44257.05 50921.55 44832.95 49976.45 L 45032.5 49976.45 Z M 49771.65 58469.35 Q 49227.6 58481.05 49052.75 58353 Q 48877.9 58224.95 48892.85 57817.4 L 48892.85 57204.45 L 54657.05 56805.35 L 54510.8 55474.15 L 48892.85 55846.6 L 48892.85 55008.1 L 53632 54675.3 L 53498.75 53411.05 L 48892.85 53717.2 L 48892.85 53024.95 Q 50247.45 52933.95 51501.95 52788.35 Q 52756.45 52642.75 53831.55 52452.3 L 53152.95 51134.75 Q 51594.25 51416.2 49516.2 51600.8 Q 48676.4 51676.2 47797.6 51734.7 Q 45623.35 51878.35 43501.75 51919.95 Q 43616.8 52201.4 43719.5 52562.15 Q 43822.2 52923.55 43847.55 53224.5 Q 45514.8 53207.6 47282.15 53131.55 L 47282.15 53810.15 L 43288.55 54076.65 L 43434.8 55381.2 L 47282.15 55114.7 L 47282.15 55953.2 L 42662.6 56273 L 42795.85 57630.85 L 47282.15 57311.05 L 47282.15 57830.4 Q 47257.45 58978.3 47761.2 59419.65 Q 48265.6 59861 49598.75 59840.2 L 52234.5 59840.2 Q 53317.4 59861.65 53771.75 59386.5 Q 54226.1 58910.7 54350.9 57684.15 Q 54005.75 57609.4 53603.4 57452.75 Q 53201.7 57296.1 52926.75 57111.5 Q 52863.05 57938.95 52701.85 58214.55 Q 52540.65 58490.8 52087.6 58469.35 L 49771.65 58469.35 Z M 63682.3 49150.95 Q 63577 49433.7 63406.05 49796.4 Q 63235.75 50159.1 63070 50442.5 L 63935.8 50748.65 Q 64291.35 50226.05 64787.3 49483.75 L 63682.3 49150.95 Z M 59156.35 49510.4 Q 59340.95 49799.65 59506.05 50131.15 Q 59670.5 50462.65 59755.65 50722 L 60740.4 50335.9 Q 60644.85 50105.15 60464.15 49789.9 Q 60284.1 49474.65 60088.45 49204.25 L 59156.35 49510.4 Z M 57625.6 56565.5 Q 58457.6 55979.85 58850.2 55114.7 L 57825.15 54822.2 L 63256.55 54822.2 L 62364.75 55075.05 Q 62559.1 55383.15 62725.5 55728.95 Q 62892.55 56074.75 62977.05 56352.95 L 64334.9 55899.9 Q 64241.95 55674.35 64086.6 55385.75 Q 63931.9 55097.8 63749.25 54822.2 L 65865.65 54822.2 L 65066.8 55141.35 Q 65397.65 55461.15 65750.6 55848.55 Q 66104.2 56235.95 66344.7 56565.5 L 62683.9 56565.5 L 62683.9 55979.85 L 61432.65 55979.85 Q 61389.75 55722.45 61286.4 55412.4 Q 61183.05 55103 61060.2 54835.2 L 59715.35 55088.05 Q 59838.2 55386.4 59933.75 55721.8 Q 60028.65 56057.85 60061.8 56326.3 L 61126.5 56086.45 L 61126.5 56565.5 L 57625.6 56565.5 Z M 58770.25 50748.65 L 58770.25 49071 L 61153.15 49071 L 61153.15 50748.65 L 58770.25 50748.65 Z M 65133.75 50748.65 L 62670.9 50748.65 L 62670.9 49071 L 65133.75 49071 L 65133.75 50748.65 Z M 62683.9 58323.1 L 62683.9 57657.5 L 66584.55 57657.5 L 66584.55 56645.45 L 67729.2 56153.4 Q 67518.6 55865.45 67173.45 55507.3 Q 66828.3 55149.8 66477.95 54822.2 L 67862.45 54822.2 L 67862.45 53703.55 L 62670.9 53703.55 L 62670.9 53197.85 L 66797.75 53197.85 L 66797.75 52185.8 L 62670.9 52185.8 L 62670.9 51693.75 L 66664.5 51693.75 L 66664.5 48125.9 L 57346.1 48125.9 L 57346.1 51693.75 L 61153.15 51693.75 L 61153.15 52185.8 L 57239.5 52185.8 L 57239.5 53197.85 L 61153.15 53197.85 L 61153.15 53703.55 L 56054.55 53703.55 L 56054.55 54822.2 L 57559.3 54822.2 Q 57313.6 55254.45 56903.45 55577.5 Q 56493.3 55899.9 55988.25 56073.45 L 57052.95 56871.65 Q 57275.9 56775.45 57479.35 56659.1 L 57479.35 57657.5 L 61126.5 57657.5 L 61126.5 58323.1 L 55961.6 58323.1 L 55961.6 59547.7 L 67995.7 59547.7 L 67995.7 58323.1 L 62683.9 58323.1 Z M 72441.7 50495.8 L 71802.75 50495.8 L 71802.75 49337.5 L 72441.7 49337.5 L 72441.7 50495.8 Z M 70631.45 57843.4 L 70631.45 56924.95 L 73587 56924.95 L 73587 57843.4 L 70631.45 57843.4 Z M 71097.5 51813.35 L 71097.5 52851.4 Q 71106.6 53277.15 71018.85 53735.4 Q 70931.1 54193 70631.45 54609 L 70631.45 51813.35 L 71097.5 51813.35 Z M 73546.7 54928.15 L 73587 54928.15 L 73587 55780.3 L 70631.45 55780.3 L 70631.45 54888.5 Q 70766 54982.75 70901.2 55101.7 Q 71035.75 55220.65 71110.5 55314.25 Q 71568.75 54779.3 71724.75 54119.55 Q 71880.75 53459.8 71869.7 52865.05 L 71869.7 51813.35 L 72322.1 51813.35 L 72322.1 53956.4 Q 72314.3 54532.95 72482 54737.05 Q 72649.05 54941.15 73080.65 54928.15 L 73546.7 54928.15 Z M 73067.65 51813.35 L 73587 51813.35 L 73587 54103.3 Q 73560.35 54142.95 73413.45 54142.95 L 73187.25 54142.95 Q 73109.9 54148.15 73087.8 54113.05 Q 73065.05 54077.95 73067.65 53943.4 L 73067.65 51813.35 Z M 69193.65 49337.5 L 70578.15 49337.5 L 70578.15 50495.8 L 69366.55 50495.8 L 69366.55 59907.15 L 70631.45 59907.15 L 70631.45 59068.65 L 73587 59068.65 L 73587 59734.25 L 74891.55 59734.25 L 74891.55 50495.8 L 73679.95 50495.8 L 73679.95 49337.5 L 74944.2 49337.5 L 74944.2 48032.95 L 69193.65 48032.95 L 69193.65 49337.5 Z M 79217.95 53903.1 L 77180.85 53903.1 L 77180.85 51720.4 L 79217.95 51720.4 L 79217.95 53903.1 Z M 77180.85 57764.1 L 77180.85 55381.2 L 79217.95 55381.2 L 79217.95 57764.1 L 77180.85 57764.1 Z M 81494.25 50215.65 L 80695.4 50215.65 L 80695.4 47566.9 L 79217.95 47566.9 L 79217.95 50215.65 L 77180.85 50215.65 L 77180.85 47566.9 L 75730.05 47566.9 L 75730.05 50215.65 L 75050.8 50215.65 L 75050.8 51720.4 L 75730.05 51720.4 L 75730.05 59987.1 L 77180.85 59987.1 L 77180.85 59268.2 L 79217.95 59268.2 L 79217.95 59907.15 L 80695.4 59907.15 L 80695.4 51720.4 L 81494.25 51720.4 L 81494.25 50215.65 Z M 83730.25 53210.85 L 84409.5 53210.85 L 84409.5 54529.05 L 83730.25 54529.05 L 83730.25 53210.85 Z M 84409.5 50761.65 L 84409.5 51986.25 L 83730.25 51986.25 L 83730.25 50761.65 L 84409.5 50761.65 Z M 86299.7 51986.25 L 85593.8 51986.25 L 85593.8 50761.65 L 86299.7 50761.65 L 86299.7 51986.25 Z M 85593.8 54529.05 L 85593.8 53210.85 L 86299.7 53210.85 L 86299.7 54529.05 L 85593.8 54529.05 Z M 87537.95 55873.25 L 87537.95 49417.45 L 85714.05 49417.45 L 85714.05 47553.25 L 84276.25 47553.25 L 84276.25 49417.45 L 82585.6 49417.45 L 82585.6 56525.85 L 83730.25 56525.85 L 83730.25 55873.25 L 84276.25 55873.25 L 84276.25 59960.45 L 85714.05 59960.45 L 85714.05 55873.25 L 87537.95 55873.25 Z M 90759.35 51680.1 Q 91601.75 51087.95 92451.3 50375.55 Q 93301.5 49663.8 94114 48871.45 L 92982.35 47992.65 L 92556.6 48152.55 L 87857.1 48152.55 L 87844.1 49603.35 L 91038.85 49603.35 Q 90383.65 50198.75 89825.95 50616.7 Q 89267.6 51035.3 89001.75 51201.05 Q 88629.3 51455.85 88276.35 51648.9 Q 87923.4 51841.3 87630.9 51906.3 Q 87810.95 52211.8 88008.55 52653.8 Q 88206.15 53095.8 88296.5 53370.75 Q 88397.25 53271.3 88692.35 53221.25 Q 88988.1 53171.2 89348.2 53171.2 Q 88995.9 54137.1 88421.3 54938.55 Q 87846.7 55739.35 87084.9 56286 Q 87333.85 56438.75 87677.7 56683.8 Q 88020.9 56928.85 88230.2 57111.5 Q 89056.35 56433.55 89725.85 55420.85 Q 90395.35 54408.15 90812.65 53171.2 L 91371.65 53171.2 Q 90866.6 55088.7 89946.85 56582.4 Q 89027.75 58076.1 87643.9 59015.35 Q 87923.4 59168.1 88282.85 59420.95 Q 88642.3 59673.8 88842.5 59866.85 Q 90241.3 58750.8 91233.2 57053 Q 92225.75 55355.85 92795.8 53171.2 L 93075.3 53171.2 Q 92926.45 55654.2 92743.8 56817.7 Q 92739.25 56845.65 92735.35 56872.3 Q 92551.4 58010.45 92343.4 58243.15 Q 92166.6 58483 91891 58442.7 Q 91726.55 58452.45 91459.4 58442.7 Q 91192.9 58432.95 90878.95 58403.05 Q 91051.2 58724.8 91158.45 59131.7 Q 91265.7 59538.6 91278.05 59880.5 Q 92170.5 59923.4 92702.85 59827.2 Q 93008.35 59783.65 93248.2 59651.05 Q 93488.7 59517.8 93714.25 59214.9 Q 94004.8 58885.35 94212.8 57693.9 Q 94277.8 57318.2 94338.25 56835.25 Q 94530 55297.35 94699.65 52372.35 Q 94710.05 52189.7 94717.85 51946.6 Q 94725.65 51703.5 94726.3 51680.1 L 90759.35 51680.1 Z M 99079.35 49656.65 Q 98773.2 49242.6 98266.85 48736.9 Q 97761.15 48230.55 97255.45 47806.75 L 96243.4 48631.6 Q 96740.65 49087.25 97230.75 49625.45 Q 97720.2 50163 97987.35 50588.75 L 99079.35 49656.65 Z M 98426.75 53011.3 Q 98115.4 52617.4 97585 52131.2 Q 97053.95 51645 96563.2 51240.7 L 95577.8 52119.5 Q 96068.55 52537.45 96581.4 53054.85 Q 97094.25 53572.25 97375.05 53970.05 L 98426.75 53011.3 Z M 97189.15 54595.35 Q 96899.9 55816.7 96546.3 56989.95 Q 96192.7 58163.85 95884.6 59015.35 L 97241.8 59667.3 Q 97547.95 58665 97856.05 57526.2 Q 98164.15 56386.75 98400.1 55274.6 L 97189.15 54595.35 Z M 103485.7 53929.75 Q 103308.25 53751.65 102861.7 53325.25 Q 102774.6 53242.05 102682.95 53155.6 Q 102216.25 52713.6 101821.7 52372.35 L 101821.7 51879.65 L 103019.65 51879.65 L 103019.65 50362.55 L 101821.7 50362.55 L 101821.7 47553.25 L 100357.25 47553.25 L 100357.25 50362.55 L 98732.9 50362.55 L 98732.9 51879.65 L 100224 51879.65 Q 99880.15 53384.4 99323.75 54727.3 Q 98767.35 56069.55 98054.3 56924.95 Q 98306.5 57138.15 98611.35 57461.2 Q 98916.2 57783.6 99119 58056.6 Q 99847.65 57008.15 100357.25 55381.2 L 100357.25 59973.45 L 101821.7 59973.45 L 101821.7 54116.3 Q 102084.95 54480.95 102313.75 54823.5 Q 102542.55 55166.05 102686.85 55420.85 L 103485.7 53929.75 Z M 107918.05 51879.65 L 107918.05 50362.55 L 106134.45 50362.55 L 106134.45 47553.25 L 104643.35 47553.25 L 104643.35 50362.55 L 103245.85 50362.55 L 103245.85 51879.65 L 104484.1 51879.65 Q 104103.2 53435.1 103510.4 54805.3 Q 102917.6 56175.5 102127.85 57031.55 Q 102388.5 57236.95 102681.65 57559.35 Q 102974.8 57881.75 103165.9 58136.55 Q 103604 57593.15 103969.95 56856.7 Q 104335.25 56120.9 104643.35 55247.95 L 104643.35 59973.45 L 106134.45 59973.45 L 106134.45 55221.3 Q 106354.15 56014.3 106613.5 56680.55 Q 106873.5 57346.8 107173.15 57830.4 Q 107377.9 57537.25 107700.3 57206.4 Q 108022.7 56875.55 108277.5 56672.1 Q 107634.65 55853.75 107126.35 54565.45 Q 106618.05 53277.8 106294.35 51879.65 L 107918.05 51879.65 Z M 110633.75 59667.3 Q 111149.2 58698.8 111658.8 57620.45 Q 112169.05 56542.75 112603.9 55474.15 L 111366.3 54502.4 Q 110861.25 55691.9 110279.5 56811.85 Q 109697.75 57931.8 109222.6 58722.2 L 110633.75 59667.3 Z M 112244.45 52798.75 Q 111819.35 52426.3 111141.4 52011.6 Q 110464.1 51596.9 109848.55 51294 L 108943.1 52399 Q 109559.3 52752.6 110222.95 53201.1 Q 110886.6 53649.6 111272.7 54023.35 L 112244.45 52798.75 Z M 109622.35 48871.45 Q 110162.5 49286.15 110725.4 49788.6 Q 111288.3 50290.4 111619.15 50695.35 L 112724.15 49603.35 Q 112371.85 49200.35 111785.55 48731.7 Q 111198.6 48263.05 110647.4 47899.7 L 109622.35 48871.45 Z M 116384.95 57071.85 Q 116680.7 56595.4 116956.95 56059.8 L 118288.15 56059.8 L 117369.7 56406.25 Q 117461.35 56585.65 117564.05 56770.9 Q 117619.3 56872.95 117675.85 56978.25 L 116384.95 57071.85 Z M 114733.95 52279.4 Q 114921.8 52437.35 115141.5 52655.1 Q 115361.85 52873.5 115519.8 53051.6 L 114733.95 53051.6 L 114733.95 52279.4 Z M 121110.45 54874.85 L 117516.6 54874.85 Q 117652.45 54562.2 117769.45 54249.55 L 120564.45 54249.55 L 120564.45 50295.6 L 119180.6 50295.6 L 119180.6 53051.6 L 115732.35 53051.6 Q 116381.7 52665.5 117090.2 52199.45 Q 117868.9 52655.1 118368.1 53051.6 L 119074 52133.15 Q 118650.85 51830.25 118048.95 51467.55 Q 118591.05 51041.15 119033.7 50575.1 L 117875.4 50096.05 Q 117493.2 50502.3 116970.6 50868.25 Q 116254.95 50485.4 115599.75 50163 Q 115599.75 50163 115599.1 50163 L 114933.5 50974.85 Q 115432.7 51230.95 115972.2 51546.85 Q 115353.4 51916.7 114733.95 52185.8 L 114733.95 50295.6 L 113402.75 50295.6 L 113402.75 54249.55 L 116291.35 54249.55 Q 116241.3 54386.05 116194.5 54520.6 Q 116132.75 54702.6 116065.15 54874.85 L 112950.35 54874.85 L 112950.35 59960.45 L 114427.8 59960.45 L 114427.8 56059.8 L 115559.45 56059.8 Q 115409.95 56369.2 115319.6 56499.2 Q 115036.85 57078.35 114694.3 57177.8 Q 114821.05 57467.7 114955.6 57847.3 Q 115089.5 58226.25 115146.7 58456.35 Q 115281.9 58383.55 115697.25 58312.7 Q 115860.4 58285.4 116098.3 58254.85 Q 116717.75 58174.9 118168.55 58043.6 Q 118275.15 58289.95 118341.45 58496 L 119393.15 58056.6 Q 119225.45 57660.1 118945.95 57108.25 Q 118665.8 56556.4 118368.1 56059.8 L 119606.35 56059.8 L 119606.35 58575.95 Q 119616.1 58792.4 119366.5 58789.15 Q 119220.25 58789.8 118843.9 58785.25 Q 118468.2 58781.35 118061.95 58762.5 Q 118187.4 59009.5 118310.25 59311.1 Q 118432.45 59613.35 118488.35 59880.5 Q 119156.55 59885.7 119657.7 59859.05 Q 120158.85 59831.75 120498.15 59707.6 Q 120842 59575 120979.15 59318.25 Q 121115.65 59060.85 121110.45 58588.95 L 121110.45 54874.85 Z M 117969 48578.3 Q 117866.3 48292.95 117719.4 47973.15 Q 117571.85 47652.7 117410 47367.35 L 115945.55 47766.45 Q 116135.35 48142.8 116305 48578.3 L 112763.8 48578.3 L 112763.8 49909.5 L 121323.65 49909.5 L 121323.65 48578.3 L 117969 48578.3 Z M 124438.45 60665.7 Q 125685.8 60282.85 126368.95 59432.65 Q 127052.1 58583.1 127061.2 57431.3 Q 127059.9 56583.05 126696.55 56100.1 Q 126333.2 55616.5 125623.4 55607.4 Q 125078.7 55612.6 124706.25 55926.55 Q 124333.8 56241.15 124318.85 56805.35 Q 124335.1 57377.35 124701.7 57682.2 Q 125067.65 57987.05 125583.1 57990.3 Q 125666.3 57993.55 125730 57976.65 Q 125590.25 59061.5 124012.7 59587.35 L 124438.45 60665.7 Z M 138323.1 58029.95 Q 139513.9 58310.75 140840.55 58741.05 Q 141513.3 58958.8 142144.45 59189.55 Q 143391.8 59645.85 144193.25 60053.4 L 145072.05 58629.25 Q 144214.05 58234.7 142950.45 57820.65 Q 142280.95 57600.95 141580.9 57400.1 Q 140260.75 57021.15 139134.95 56792.35 L 138323.1 58029.95 Z M 139467.75 54861.85 Q 140378.4 55117.95 141356 55498.85 Q 141463.25 55540.45 141568.55 55583.35 Q 142529.9 55970.1 143128.55 56339.3 L 143927.4 54995.1 Q 143306.65 54649.95 142341.4 54306.1 Q 142210.75 54259.3 142077.5 54213.15 Q 141094.7 53877.75 140213.3 53663.9 L 139467.75 54861.85 Z M 139108.3 50655.05 L 139108.3 49603.35 L 145139 49603.35 L 145139 51028.15 L 139108.3 51028.15 L 139108.3 50655.05 Z M 146776.35 52518.6 L 146776.35 48099.25 L 137431.3 48099.25 L 137431.3 50628.4 Q 137455.35 51752.25 137257.75 53062 Q 137152.45 53691.85 136943.8 54315.85 Q 136533.65 55613.25 135474.15 56672.1 Q 135747.15 56855.4 136130 57227.85 Q 136512.2 57600.95 136725.4 57883.7 Q 137827.8 56796.9 138347.8 55370.8 Q 138868.45 53944.7 139001.7 52518.6 L 143328.1 52518.6 Q 143904 54231.35 144828.95 55592.45 Q 145754.55 56952.9 147068.85 57777.1 Q 147271 57443 147589.5 57066.65 Q 147908.65 56690.3 148200.5 56445.9 Q 147100.7 55851.15 146280.4 54822.2 Q 145460.1 53792.6 144938.8 52518.6 L 146776.35 52518.6 Z M 158024.6 50268.95 L 152180.45 50268.95 L 152180.45 49377.15 L 158024.6 49377.15 L 158024.6 50268.95 Z M 158024.6 52306.05 L 152180.45 52306.05 L 152180.45 51414.25 L 158024.6 51414.25 L 158024.6 52306.05 Z M 159661.95 48152.55 L 150623.05 48152.55 L 150623.05 53543.65 L 159661.95 53543.65 L 159661.95 48152.55 Z M 158836.45 57337.7 Q 159234.25 56828.1 159672.35 56153.4 Q 160109.8 55478.05 160487.45 54768.9 L 159156.25 54182.6 Q 158881.95 54822.85 158455.55 55535.9 Q 158029.15 56248.3 157625.5 56778.7 L 158836.45 57337.7 Z M 152407.3 56805.35 Q 152193.45 56284.05 151824.9 55585.95 Q 151456.35 54887.2 151102.75 54276.2 L 149891.15 54795.55 Q 150233.05 55437.75 150580.15 56159.9 Q 150926.6 56882.05 151129.4 57404.65 L 152407.3 56805.35 Z M 157359 57883.7 L 157359 53956.4 L 155867.9 53956.4 L 155867.9 57883.7 L 154337.15 57883.7 L 154337.15 53956.4 L 152833.05 53956.4 L 152833.05 57883.7 L 148919.4 57883.7 L 148919.4 59401.45 L 161366.25 59401.45 L 161366.25 57883.7 L 157359 57883.7 Z M 165333.2 57843.4 L 165333.2 56459.55 L 171656.4 56459.55 L 171656.4 57843.4 L 165333.2 57843.4 Z M 171656.4 53623.6 L 171656.4 54995.1 L 165333.2 54995.1 L 165333.2 53623.6 L 171656.4 53623.6 Z M 171656.4 50788.3 L 171656.4 52159.8 L 165333.2 52159.8 L 165333.2 50788.3 L 171656.4 50788.3 Z M 168780.8 49270.55 Q 169103.85 48545.15 169406.75 47739.8 L 167489.25 47526.6 Q 167437.25 47931.55 167339.75 48383.95 Q 167242.25 48836.35 167129.8 49270.55 L 163722.5 49270.55 L 163722.5 59973.45 L 165333.2 59973.45 L 165333.2 59307.85 L 171656.4 59307.85 L 171656.4 59960.45 L 173347.05 59960.45 L 173347.05 49270.55 L 168780.8 49270.55 Z M 14614.45 68630.45 Q 14424 68258 14078.85 67785.45 Q 13733.7 67312.9 13363.2 66900.15 L 12218.55 67539.1 Q 12578 67963.55 12905.6 68457.55 Q 13233.2 68951.55 13402.85 69336.35 L 14614.45 68630.45 Z M 3951.85 79240.4 Q 4371.1 78663.85 4808.55 77902.05 Q 5246 77140.9 5575.55 76404.45 L 4084.45 76019 Q 3743.85 76726.2 3301.2 77431.45 Q 2857.9 78136.7 2447.1 78614.45 L 3951.85 79240.4 Z M 6401.05 76537.7 Q 6512.85 77177.95 6582.4 77880.6 Q 6651.95 78583.25 6653.9 79093.5 L 8211.3 78867.3 Q 8197 78359 8098.2 77677.8 Q 7999.4 76996.6 7865.5 76377.8 L 6401.05 76537.7 Z M 14614.45 70853.45 L 14614.45 69363 L 12151.6 69363 L 12151.6 66939.8 L 10647.5 66939.8 L 10647.5 69363 L 9036.8 69363 Q 9196.7 68796.85 9316.3 68191.05 L 8331.55 67818.6 L 8051.4 67858.25 L 6440.7 67858.25 Q 6640.9 67418.85 6800.15 67019.75 L 5296.05 66633.65 Q 4929.45 67796.5 4198.2 69008.1 Q 4150.1 69086.75 4100.7 69164.1 Q 3349.3 70365.3 2354.15 71199.9 Q 2607 71391.65 2909.9 71680.9 Q 3212.8 71969.5 3405.85 72211.3 Q 4115 71595.75 4722.1 70800.15 Q 5329.2 70005.2 5828.4 69109.5 L 7532.7 69109.5 Q 7382.55 69705.55 7173.25 70241.15 Q 6879.45 70058.5 6570.7 69893.4 Q 6261.95 69728.3 5988.3 69615.85 L 5296.05 70494 Q 5630.8 70667.55 5985.05 70880.1 Q 6339.3 71093.3 6653.9 71306.5 Q 6407.55 71732.25 6121.55 72118.35 Q 5818 71896.05 5489.1 71678.95 Q 5160.2 71461.85 4856.65 71279.85 L 4005.15 72091.7 Q 4319.1 72294.5 4655.8 72539.55 Q 4991.85 72784.6 5296.05 73036.8 Q 4191.05 74065.1 2726.6 74634.5 Q 3002.2 74843.8 3324.6 75205.2 Q 3647 75566.6 3831.6 75845.45 Q 5550.2 75105.1 6843.7 73645.85 Q 8137.2 72186.6 8876.9 69908.35 L 8876.9 70853.45 L 10567.55 70853.45 Q 10431.7 71929.85 9729.7 72995.2 L 9688.1 73055 Q 8964.65 74117.75 7292.85 75006.95 Q 7574.3 75234.45 7885 75534.75 Q 8196.35 75834.4 8397.85 76111.95 Q 9608.8 75467.8 10362.8 74685.85 Q 11117.45 73903.9 11499.65 73049.8 Q 11905.25 73981.9 12481.15 74713.8 Q 13057.05 75446.35 13842.25 75939.05 Q 14023.6 75606.25 14316.75 75233.15 Q 14609.9 74860.7 14880.95 74607.85 Q 13867.6 74076.15 13211.75 73099.85 Q 12555.9 72124.2 12191.9 70853.45 L 14614.45 70853.45 Z M 9090.1 76511.05 Q 9326.7 77140.9 9521.05 77835.75 Q 9715.4 78530.6 9782.35 79040.2 L 11353.4 78734.05 Q 11256.55 78223.8 11040.1 77541.3 Q 10823.65 76858.8 10567.55 76258.2 L 9090.1 76511.05 Z M 11805.8 76484.4 Q 12270.55 77147.4 12712.55 77905.95 Q 13154.55 78663.85 13389.85 79226.75 L 14880.95 78548.15 Q 14615.1 77978.1 14147.1 77253.35 Q 13679.1 76528.6 13203.3 75898.75 L 11805.8 76484.4 Z M 17809.2 76418.1 L 17809.2 73809 L 19926.25 73809 L 19926.25 76418.1 L 17809.2 76418.1 Z M 19926.25 72437.5 L 17809.2 72437.5 L 17809.2 70281.45 L 19926.25 70281.45 L 19926.25 72437.5 Z M 24159.05 68803.35 Q 24458.7 67968.1 24678.4 67112.7 L 23160.65 66766.9 Q 22867.5 67951.85 22407.3 69075.05 Q 21946.45 70197.6 21363.4 71053 L 21363.4 68896.95 L 19300.3 68896.95 Q 19646.75 68014.9 19992.55 66993.1 L 18262.25 66753.25 Q 18219.35 67235.55 18114.05 67810.15 Q 18008.75 68384.75 17876.15 68896.95 L 16371.4 68896.95 L 16371.4 78787.35 L 17809.2 78787.35 L 17809.2 77815.6 L 21363.4 77815.6 L 21363.4 71599 Q 21643.55 71784.25 21930.85 71987.05 Q 22218.8 72189.2 22388.45 72344.55 Q 23024.15 71462.5 23560.4 70241.15 L 26408.7 70241.15 Q 26306.65 73663.4 26152.6 75337.15 Q 26146.1 75405.4 26139.6 75471.05 Q 25981.65 77083.05 25703.45 77363.2 Q 25578 77490.6 25445.4 77541.3 Q 25312.8 77591.35 25117.8 77589.4 Q 24846.75 77592 24315.7 77579.65 Q 23784.65 77567.3 23134 77509.45 Q 23347.85 77853.3 23488.9 78281.65 Q 23629.95 78710 23653.35 79053.85 Q 24252 79075.95 24803.2 79075.3 Q 25354.4 79075.3 25743.1 79027.2 Q 26137.65 78966.75 26442.5 78810.75 Q 26746.7 78655.4 27021 78295.3 Q 27326.5 77926.1 27494.2 76745.7 Q 27601.45 75988.45 27677.5 74779.45 Q 27793.85 72882.1 27886.8 69522.25 Q 27895.9 69355.2 27898.5 69093.25 Q 27900.45 68831.3 27899.8 68803.35 L 24159.05 68803.35 Z M 25689.8 74873.7 Q 25359.6 74268.55 24806.45 73450.85 Q 24253.95 72633.8 23733.3 71918.8 L 22495.05 72624.05 Q 23004 73379.35 23525.3 74226.3 Q 24046.6 75073.9 24345.6 75699.2 L 25689.8 74873.7 Z M 33025.05 69016.55 Q 32775.45 69635.35 32505.7 70134.55 L 30974.95 70134.55 Q 31274.6 69585.95 31533.95 69016.55 L 33025.05 69016.55 Z M 33557.4 72624.05 L 32745.55 72624.05 L 32745.55 71333.15 L 33557.4 71333.15 L 33557.4 72624.05 Z M 33557.4 75046.6 L 32745.55 75046.6 L 32745.55 73729.05 L 33557.4 73729.05 L 33557.4 75046.6 Z M 30908.65 73729.05 L 31706.85 73729.05 L 31706.85 75046.6 L 30908.65 75046.6 L 30908.65 73729.05 Z M 30908.65 71333.15 L 31706.85 71333.15 L 31706.85 72624.05 L 30908.65 72624.05 L 30908.65 71333.15 Z M 29736.7 76245.2 L 34782 76245.2 L 34782 70134.55 L 33743.95 70134.55 Q 34024.1 69709.45 34279.55 69249.25 Q 34535 68789.7 34755.35 68364.6 L 33957.15 67738.65 L 33677 67818.6 L 31973.35 67818.6 Q 31973.35 67818.6 31973.35 67817.95 Q 32116.35 67355.8 32239.85 66913.15 L 30868.35 66726.6 Q 30662.3 67674.95 30206 68705.2 Q 29750.35 69736.1 29004.8 70614.25 Q 29158.85 70707.85 29355.8 70867.1 Q 29552.75 71025.7 29736.7 71199.9 L 29736.7 76245.2 Z M 29497.5 78801 Q 30413.35 78697 31526.15 78572.2 Q 32365.95 78478.6 33256.45 78378.5 Q 34146.95 78277.75 35034.85 78175.05 L 35008.2 76870.5 Q 34434.25 76921.85 33859.65 76972.55 Q 32553.15 77090.2 31364.3 77192.9 Q 30175.45 77296.25 29271.3 77363.2 L 29497.5 78801 Z M 41558.25 74793.75 L 39122.05 74793.75 L 39122.05 73396.25 L 41118.85 73396.25 L 41118.85 72065.05 L 39122.05 72065.05 L 39122.05 70573.95 L 41371.7 70573.95 L 41371.7 69216.1 L 39947.55 69216.1 Q 40197.8 68782.55 40442.85 68294.4 Q 40688.55 67806.25 40919.3 67312.9 L 39534.8 66993.1 Q 39359.3 67497.5 39098.65 68099.4 Q 38838 68701.95 38563.05 69216.1 L 36566.25 69216.1 L 37617.95 68763.7 Q 37500.95 68389.95 37266.3 67911.55 Q 37032.3 67433.15 36765.8 67019.75 L 35660.8 67432.5 Q 35907.8 67855 36130.1 68339.25 Q 36352.4 68824.15 36459.65 69216.1 L 35301.35 69216.1 L 35301.35 70573.95 L 37617.95 70573.95 L 37617.95 72065.05 L 35514.55 72065.05 L 35514.55 73396.25 L 37617.95 73396.25 L 37617.95 74793.75 L 35075.15 74793.75 L 35075.15 76218.55 L 37617.95 76218.55 L 37617.95 79240.4 L 39122.05 79240.4 L 39122.05 76218.55 L 41558.25 76218.55 L 41558.25 74793.75 Z M 46483.3 68258 Q 46023.75 67965.5 45312 67593.05 Q 45310.05 67592.4 45308.1 67591.1 Q 44597 67219.3 44007.45 66926.8 L 43115.65 68071.45 Q 43260.6 68154 43419.2 68243.7 Q 43995.1 68566.75 44585.95 68915.8 Q 45176.8 69264.85 45538.2 69535.9 L 46483.3 68258 Z M 45844.35 71851.85 Q 45423.8 71599 44782.25 71274.65 Q 44140.7 70950.3 43568.05 70671.45 Q 43449.1 70613.6 43341.85 70560.95 L 42489.7 71732.25 Q 43109.15 72065.7 43817.65 72466.1 Q 44526.8 72866.5 44966.2 73170.05 L 45844.35 71851.85 Z M 44007.45 79040.2 Q 44621.7 78061.3 45225.55 76977.1 Q 45829.4 75892.9 46363.7 74834.05 L 45205.4 73768.7 Q 44589.2 74951.05 43906.05 76070.35 Q 43222.25 77189.65 42676.25 77962.5 L 44007.45 79040.2 Z M 52646.6 77203.3 L 48653 77203.3 L 48653 75246.8 L 52646.6 75246.8 L 52646.6 77203.3 Z M 54816.95 72131.35 L 54816.95 70614.25 L 51435.65 70614.25 L 51435.65 68790.35 Q 53019.7 68487.45 54324.25 68005.15 L 53112.65 66753.25 Q 52040.8 67170.55 50475.6 67478.65 Q 50298.15 67514.4 50117.45 67548.2 Q 48521.05 67842.65 46883.05 68005.15 Q 47028 68289.2 47160.6 68674 Q 47293.2 69058.15 47348.45 69363 Q 48610.1 69249.25 49931.55 69056.2 L 49931.55 70614.25 L 46390.35 70614.25 L 46390.35 72131.35 L 49931.55 72131.35 L 49931.55 73809 L 47215.85 73809 L 47215.85 79187.1 L 48653 79187.1 L 48653 78641.1 L 52646.6 78641.1 L 52646.6 79120.15 L 54151.35 79120.15 L 54151.35 73809 L 51435.65 73809 L 51435.65 72131.35 L 54816.95 72131.35 Z M 64254.95 74554.55 L 55988.25 74554.55 L 55988.25 76071.65 L 64254.95 76071.65 L 64254.95 74554.55 Z M 59396.2 71692.6 Q 59575.6 70826.8 59755.65 69881.7 L 67090.25 69881.7 L 67090.25 68364.6 L 60035.15 68364.6 Q 60133.3 67831.6 60214.55 67326.55 Q 60231.45 67225.8 60248.35 67126.35 L 58624 66966.45 Q 58425.1 68314.55 58139.75 69801.75 Q 58062.4 70206.7 57981.8 70603.2 Q 57686.05 72058.55 57399.4 73143.4 L 58770.25 73156.4 L 65679.1 73156.4 Q 65501 75046.6 65255.3 76070.35 Q 65008.95 77094.1 64680.7 77336.55 Q 64533.8 77442.5 64361.55 77471.1 Q 64189.3 77500.35 63961.8 77496.45 Q 63602.35 77499.05 62895.8 77484.75 Q 62188.6 77469.8 61379.35 77402.85 Q 61633.5 77755.8 61800.55 78190 Q 61967.6 78624.85 61991.65 78987.55 Q 62733.3 79018.1 63389.8 79023.95 Q 64046.3 79029.8 64468.15 79000.55 Q 64988.8 78959.6 65359.95 78824.4 Q 65731.1 78688.55 66052.2 78348.6 Q 66502 77933.25 66797.1 76666.4 Q 66826.35 76542.25 66854.3 76407.7 Q 67139.65 75038.8 67369.75 72384.2 Q 67400.3 72201.55 67418.5 71958.45 Q 67436.05 71715.35 67436.7 71692.6 L 59396.2 71692.6 Z M 72734.85 68909.95 L 72734.85 70787.15 L 71017.55 70787.15 L 71017.55 68909.95 L 72734.85 68909.95 Z M 71017.55 74168.45 L 71017.55 72198.3 L 72734.85 72198.3 L 72734.85 74168.45 L 71017.55 74168.45 Z M 74199.3 75606.25 L 74199.3 67472.15 L 69553.1 67472.15 L 69553.1 76750.9 L 71017.55 76750.9 L 71017.55 75606.25 L 74199.3 75606.25 Z M 76608.2 73582.8 Q 76681.65 72800.2 76675.15 72078.05 L 76675.15 71878.5 L 79537.1 71878.5 L 79537.1 73582.8 L 76608.2 73582.8 Z M 79537.1 68750.05 L 79537.1 70454.35 L 76675.15 70454.35 L 76675.15 68750.05 L 79537.1 68750.05 Z M 81108.15 67286.25 L 75117.75 67286.25 L 75117.75 72078.05 Q 75145.05 73288.35 74914.3 74591.6 Q 74777.15 75299.45 74484 75981.95 Q 73969.85 77237.75 72681.55 78228.35 Q 72951.3 78396.7 73308.8 78714.55 Q 73666.3 79032.4 73866.5 79280.05 Q 74972.15 78446.75 75572.1 77333.3 Q 76171.4 76219.85 76408.65 75006.95 L 79537.1 75006.95 L 79537.1 77350.2 Q 79557.25 77672.6 79217.95 77656.35 Q 79026.85 77667.4 78523.75 77669.35 Q 78020.65 77671.3 77460.35 77642.7 Q 77637.8 77959.25 77799.65 78393.45 Q 77962.15 78827 78019.35 79173.45 Q 78844.2 79179.3 79432.45 79122.1 Q 80020.05 79064.9 80415.9 78880.95 Q 80799.4 78698.3 80956.7 78341.45 Q 81113.35 77984.6 81108.15 77363.2 L 81108.15 67286.25 Z M 85527.5 70826.8 Q 85354.6 73033.55 84822.25 74620.85 Q 84486.2 74321.2 84169.65 74061.85 Q 84486.2 72564.25 84781.95 70826.8 L 85527.5 70826.8 Z M 86752.1 76644.3 Q 86442.7 76201.65 85953.25 75699.2 Q 86841.8 73372.85 86991.95 69468.95 L 86100.15 69376 L 85847.3 69402.65 L 85008.15 69402.65 Q 85194.7 68051.3 85301.3 66820.2 L 83943.45 66753.25 Q 83870 68018.15 83676.95 69402.65 L 82572.6 69402.65 L 82572.6 70826.8 L 83450.75 70826.8 Q 83270.05 71893.45 83066.6 72852.2 Q 82863.15 73810.95 82651.9 74567.55 Q 83434.5 75216.9 84236.6 76005.35 Q 83487.8 77323.55 82319.1 77962.5 Q 82557.65 78186.75 82803.35 78533.2 Q 83049.7 78879.65 83197.9 79173.45 Q 84459.55 78391.5 85261 77110.35 Q 85316.9 77183.8 85370.85 77255.3 Q 85611.35 77567.3 85794 77842.25 L 86752.1 76644.3 Z M 92862.75 72956.85 L 92862.75 73662.75 L 90426.55 73662.75 L 90426.55 72956.85 L 92862.75 72956.85 Z M 90426.55 75526.3 L 90426.55 74873.7 L 92862.75 74873.7 L 92862.75 75526.3 L 90426.55 75526.3 Z M 90426.55 77429.5 L 90426.55 76737.25 L 92862.75 76737.25 L 92862.75 77429.5 L 90426.55 77429.5 Z M 89068.7 79200.1 L 90426.55 79200.1 L 90426.55 78694.4 L 92862.75 78694.4 L 92862.75 79200.1 L 94286.9 79200.1 L 94286.9 71692.6 L 89068.7 71692.6 L 89068.7 79200.1 Z M 92862.75 69748.45 L 91504.9 69748.45 L 91504.9 68523.85 L 92862.75 68523.85 L 92862.75 69748.45 Z M 88815.85 68523.85 L 90106.75 68523.85 L 90106.75 69748.45 L 88815.85 69748.45 L 88815.85 68523.85 Z M 94366.85 67219.3 L 87378.05 67219.3 L 87378.05 71040 Q 87393 72347.15 87279.9 73926.65 Q 87216.2 74732.65 87081 75537.35 Q 86831.4 77115.55 86180.1 78414.9 Q 86459.6 78518.25 86837.25 78741.2 Q 87214.25 78964.15 87444.35 79146.8 Q 88099.55 77857.2 88397.25 76233.5 Q 88609.15 75109.65 88700.8 73981.9 Q 88826.25 72351.7 88815.85 71040 L 94366.85 71040 L 94366.85 67219.3 Z M 97801.45 74727.45 Q 96899.25 74750.85 96290.85 75360.55 L 96289.55 75361.85 Q 95681.8 75972.2 95657.75 76884.15 Q 95681.8 77795.45 96289.55 78405.8 L 96290.85 78407.1 Q 96899.25 79016.8 97801.45 79040.2 Q 98722.5 79016.8 99328.95 78406.45 Q 99935.4 77796.1 99957.5 76884.15 Q 99935.4 75971.55 99328.95 75361.2 Q 98722.5 74750.85 97801.45 74727.45  Z M 97801.45 78082.1 Q 97308.1 78069.75 96969.45 77732.4 Q 96630.8 77395.7 96616.5 76884.15 Q 96630.8 76372.6 96969.45 76035.25 Q 97308.1 75698.55 97801.45 75686.2 Q 98313 75698.55 98649.7 76035.25 Q 98987.05 76372.6 98999.4 76884.15 Q 98987.05 77395.7 98649.7 77732.4 Q 98313 78069.75 97801.45 78082.1  Z " fill-rule="nonzero" style="fill:#555555;;fill-opacity:1;"/>
</svg>