<svg version="1.1" x="0" y="0" width="100%" height="100%" viewBox="0 0 860108.8 61798.4" xmlns="http://www.w3.org/2000/svg">
  <path d="M 10535.8 44793.35 Q 10232.4 44869.2 10080.7 44869.2 Q 9133.5 44869.2 8376.85 44073.7 Q 7618.35 43278.2 6634.15 41800.05 Q 6367.75 41420.8 6367.75 41117.4 Q 6367.75 40814 6634.15 40643.8 Q 6898.7 40473.6 7314.95 40473.6 Q 10271.25 40473.6 18796.05 39753.95 L 18908.9 36721.8 L 18984.75 34487 Q 16749.95 34790.4 16143.15 34790.4 Q 15386.5 34790.4 14363.45 34183.6 Q 13908.35 33880.2 13492.1 33332.6 Q 13074 32783.15 12922.3 32213.35 L 12885.3 32061.65 Q 12885.3 31760.1 13188.7 31645.4 Q 14515.15 31229.15 19060.6 30394.8 L 19099.45 25925.2 L 17014.5 26454.3 Q 16901.65 26493.15 16635.25 26493.15 Q 15575.2 26493.15 14285.75 25281.4 Q 12430.2 28387.55 10156.55 30831.4 Q 7884.75 33275.25 5383.55 34146.6 Q 4852.6 34298.3 4739.75 34298.3 Q 4323.5 34298.3 4323.5 33994.9 Q 4323.5 33654.5 4700.9 33160.55 Q 6291.9 31077.45 7807.05 28160 Q 9324.05 25242.55 10289.75 22343.6 Q 11255.45 19446.5 11255.45 17400.4 Q 11255.45 16641.9 11179.6 16301.5 L 11142.6 15998.1 Q 11142.6 15657.7 11331.3 15506 Q 11520 15354.3 11899.25 15430.15 Q 13301.55 15733.55 15025.75 16660.4 Q 16749.95 17589.1 17203.2 18384.6 Q 17317.9 18612.15 17317.9 18839.7 Q 17317.9 19143.1 17127.35 19540.85 Q 16938.65 19938.6 16862.8 20127.3 Q 16331.85 21416.75 15726.9 22628.5 Q 17810 22288.1 19099.45 22021.7 Q 19099.45 18651 18984.75 15922.25 Q 18947.75 14747.5 18853.4 13989 Q 18757.2 13232.35 18492.65 12322.15 Q 18416.8 11944.75 18416.8 11830.05 Q 18416.8 10921.7 19743.25 11073.4 Q 22773.55 11450.8 23796.6 12322.15 Q 24288.7 12664.4 24536.6 13080.65 Q 24782.65 13496.9 24782.65 14255.4 Q 24782.65 14595.8 24743.8 14823.35 Q 24592.1 16566.05 24479.25 20846.95 Q 26562.35 20354.85 27812.95 19938.6 Q 28684.3 19635.2 29291.1 19635.2 Q 29783.2 19635.2 30047.75 19862.75 Q 31413.05 20961.65 31981 22325.1 Q 32169.7 22780.2 32169.7 23120.6 Q 32169.7 23879.1 31337.2 23916.1 Q 28192.2 24143.65 24403.4 24863.3 Q 24327.55 27895.45 24327.55 29486.45 Q 25235.9 29334.75 25748.35 29240.4 Q 26258.95 29144.2 26525.35 29107.2 Q 26980.45 28994.35 27320.85 28994.35 Q 27927.65 28994.35 28380.9 29334.75 Q 28911.85 29714 29461.3 30415.15 Q 30010.75 31114.45 30351.15 31721.25 Q 30465.85 31948.8 30465.85 32213.35 Q 30465.85 32933 29707.35 33160.55 Q 28760.15 33351.1 24251.7 33880.2 L 24251.7 39298.85 Q 31146.65 38730.9 32700.65 38427.5 Q 33155.75 38351.65 33344.45 38351.65 Q 34178.8 38351.65 34783.75 38919.6 Q 35314.7 39413.55 35882.65 40264.55 Q 36452.45 41117.4 36678.15 41912.9 Q 36754 42064.6 36754 42368 Q 36754 42860.1 36376.6 43163.5 Q 35997.35 43466.9 35466.4 43428.05 Q 34102.95 43352.2 32473.1 43352.2 Q 27017.45 43352.2 19913.45 43770.3 Q 12809.45 44186.55 10535.8 44793.35  Z M 40883.2 37746.7 Q 40542.8 37746.7 40542.8 37443.3 Q 40542.8 37176.9 40920.2 36836.5 Q 42814.6 35130.8 44577.65 32328.05 Q 46338.85 29523.45 47817 25849.35 Q 46906.8 26113.9 45922.6 26530.15 Q 45770.9 26644.85 45430.5 26720.7 Q 45088.25 26796.55 44784.85 26796.55 Q 44368.6 26796.55 43554.6 26001.05 Q 42740.6 25205.55 42209.65 24106.65 Q 42094.95 23879.1 42094.95 23764.4 Q 42094.95 23348.15 42777.6 23348.15 Q 44179.9 23348.15 46111.3 23007.75 Q 47855.85 22665.5 48233.25 22589.65 L 48196.25 16073.95 Q 48196.25 14064.85 47702.3 12473.85 Q 47589.45 12133.45 47589.45 11868.9 Q 47589.45 10882.85 48612.5 10882.85 Q 49748.4 10882.85 50867.65 11413.8 Q 51985.05 11944.75 52440.15 12473.85 Q 52856.4 13004.8 52856.4 13687.45 Q 52856.4 14140.7 52704.7 14747.5 Q 52553 15354.3 52516 15657.7 Q 52364.3 16604.9 52249.6 21718.3 Q 52591.85 21642.45 52893.4 21568.45 Q 53196.8 21492.6 53424.35 21416.75 Q 53539.05 21377.9 53973.8 21244.7 Q 54410.4 21113.35 54826.65 21113.35 Q 55242.9 21113.35 55433.45 21265.05 Q 56038.4 21642.45 56587.85 22249.25 Q 57137.3 22856.05 57403.7 23536.85 L 57479.55 23840.25 Q 57479.55 24143.65 57194.65 24295.35 Q 56909.75 24447.05 56569.35 24447.05 Q 54447.4 24447.05 52856.4 24787.45 L 52212.6 24902.15 Q 52173.75 25318.4 52173.75 26113.9 Q 54182.85 26417.3 55470.45 27136.95 Q 56228.95 27516.2 56778.4 28178.5 Q 57327.85 28842.65 57252 29447.6 Q 57137.3 30167.25 56626.7 30698.2 Q 56114.25 31229.15 55509.3 31229.15 Q 55091.2 31229.15 54863.65 31040.45 Q 54295.7 30622.35 53690.75 29902.7 Q 53083.95 29183.05 52173.75 28008.3 Q 52136.75 30169.1 52136.75 34298.3 Q 52136.75 40397.75 52249.6 41988.75 Q 52325.45 43087.65 51946.2 43827.65 Q 51568.8 44565.8 50810.3 44565.8 Q 49975.95 44565.8 49371 43959 Q 48764.2 43354.05 48423.8 42823.1 Q 48081.55 42292.15 48005.7 42179.3 Q 47778.15 41611.35 47778.15 41307.95 Q 47778.15 41041.55 47892.85 40701.15 Q 47968.7 40397.75 48138.9 39811.3 Q 48309.1 39223 48309.1 38806.75 L 48272.1 32137.5 Q 46832.8 34183.6 45127.1 35434.2 Q 43421.4 36684.8 41186.6 37670.85 L 40883.2 37746.7 Z M 53272.65 44149.55 Q 56077.25 41117.4 57155.8 35548.9 Q 58236.2 29978.55 58236.2 23916.1 Q 58236.2 22515.65 58160.35 20771.1 Q 58123.35 20430.7 58123.35 19862.75 Q 58084.5 19143.1 58008.65 18536.3 Q 57932.8 17929.5 57744.1 17285.7 Q 57629.4 16945.3 57629.4 16717.75 Q 57629.4 16035.1 58576.6 16035.1 Q 60206.45 16035.1 61381.2 16377.35 Q 62441.25 16149.8 63540.15 15752.05 Q 64639.05 15354.3 64942.45 15239.6 Q 65321.7 15087.9 65662.1 14766 Q 66004.35 14444.1 66230.05 14368.25 Q 66381.75 14292.4 66724 14292.4 Q 67140.25 14292.4 67328.95 14444.1 Q 68200.3 14862.2 69129 15506 Q 70057.7 16149.8 70473.95 16566.05 Q 70777.35 16830.6 70777.35 17248.7 Q 70777.35 17664.95 70492.45 18290.25 Q 70209.4 18915.55 70170.55 19028.4 Q 69299.2 20809.95 68864.45 24635.75 Q 68427.85 28463.4 68427.85 32024.65 Q 68427.85 33882.05 68542.55 34790.4 Q 68731.25 36647.8 69450.9 37802.2 Q 70170.55 38958.45 71913.25 38958.45 Q 72784.6 38958.45 73278.55 38749.4 Q 73770.65 38542.2 74149.9 37898.4 Q 74490.3 37328.6 74736.35 36401.75 Q 74982.4 35473.05 75172.95 33919.05 Q 75209.95 33615.65 75398.65 33615.65 Q 75589.2 33615.65 75626.2 33919.05 Q 76005.45 35700.6 76384.7 36496.1 Q 76763.95 37291.6 77368.9 38048.25 L 77936.85 38769.75 Q 78506.65 39602.25 78506.65 40512.45 Q 78506.65 41383.8 77936.85 42121.95 Q 77368.9 42860.1 76270 43239.35 Q 74414.45 43997.85 72331.35 43997.85 Q 69489.75 43997.85 67443.65 42634.4 Q 64222.8 40397.75 64222.8 33160.55 Q 64222.8 30698.2 64507.7 27629.05 Q 64790.75 24559.9 65434.55 18839.7 Q 64526.2 18991.4 62859.35 19522.35 Q 62668.8 20582.4 62650.3 21605.45 Q 62631.8 22628.5 62631.8 22968.9 Q 62289.55 29675.15 61268.35 33994.9 Q 60245.3 38314.65 58369.4 40871.35 Q 56493.5 43428.05 53539.05 44754.5 Q 53387.35 44830.35 53311.5 44830.35 Q 53083.95 44830.35 53083.95 44565.8 Q 53083.95 44338.25 53272.65 44149.55  Z M 82256.6 36192.7 Q 81499.95 36344.4 81044.85 36344.4 Q 80589.75 36344.4 80304.85 36250.05 Q 80021.8 36155.7 80021.8 36004 Q 80021.8 35737.6 80589.75 35434.2 Q 82976.25 34070.75 85458.95 31967.3 Q 87939.8 29865.7 89834.2 27440.35 Q 87144.3 28008.3 84794.8 28576.25 Q 84151 28766.8 83847.6 28766.8 Q 83355.5 28766.8 83090.95 28539.25 Q 82371.3 28084.15 81953.2 27667.9 Q 81536.95 27251.65 81006 26341.45 Q 80778.45 25925.2 80778.45 25660.65 Q 80778.45 25281.4 81081.85 25090.85 Q 81385.25 24902.15 81801.5 24902.15 Q 83431.35 24902.15 87599.4 24447.05 Q 87484.7 22400.95 87049.95 20525.05 Q 86613.35 18651 85932.55 17892.5 Q 85477.45 17361.55 85477.45 17097 Q 85477.45 16680.75 86084.25 16566.05 Q 86689.2 16453.2 87599.4 16453.2 Q 88811.15 16453.2 89910.05 16754.75 Q 91843.3 16604.9 94229.8 16149.8 Q 94381.5 15087.9 94381.5 13876.15 Q 94381.5 12361 94078.1 11337.95 Q 94002.25 11034.55 94002.25 10882.85 Q 94002.25 9974.5 95101.15 10163.2 Q 97260.1 10390.75 98510.7 11868.9 Q 98965.8 12361 99211.85 12758.75 Q 99457.9 13156.5 99457.9 13572.75 Q 99457.9 13839.15 99345.05 14140.7 Q 99269.2 14331.25 99117.5 14936.2 Q 99913 14710.5 100784.35 14331.25 Q 101200.6 14179.55 101542.85 14179.55 Q 101920.25 14179.55 102299.5 14292.4 Q 104118.05 14786.35 106012.45 16073.95 Q 106695.1 16680.75 106695.1 17324.55 Q 106695.1 17779.65 106467.55 18232.9 Q 105633.2 20279 105292.8 21492.6 Q 107375.9 20998.65 107945.7 20697.1 Q 108398.95 20469.55 108817.05 20469.55 Q 109309.15 20469.55 109688.4 20734.1 Q 112074.9 22288.1 112339.45 23766.25 Q 112415.3 24334.2 112017.55 24693.1 Q 111619.8 25053.85 110787.3 25090.85 Q 105141.1 25394.25 101467 25773.5 Q 107451.75 29675.15 113401.35 29675.15 Q 114348.55 29675.15 114348.55 30244.95 Q 114348.55 30622.35 113817.6 31077.45 Q 112983.25 31760.1 111164.7 32668.45 Q 109346.15 33578.65 108398.95 33767.35 Q 107794 33919.05 107300.05 33994.9 Q 107338.9 34109.6 107338.9 34298.3 Q 107338.9 34638.7 107150.2 35017.95 Q 106428.7 36268.55 105672.05 39413.55 Q 107945.7 39034.3 108778.2 39034.3 Q 109915.95 39034.3 110711.45 39602.25 Q 112794.55 41344.95 112946.25 42784.25 Q 113097.95 43391.05 112661.35 43864.65 Q 112226.6 44338.25 111695.65 44262.4 Q 110104.65 44073.7 106428.7 44073.7 Q 101163.6 44073.7 94779.25 44489.95 Q 88394.9 44906.2 84985.35 45474.15 Q 83999.3 45625.85 82939.25 44982.05 Q 81877.35 44338.25 81348.25 43429.9 Q 81006 42671.4 81006 42406.85 Q 81006 41800.05 82029.05 41761.2 L 86840.9 41420.8 Q 86689.2 37404.45 86121.25 34866.25 Q 84302.7 35661.75 82256.6 36192.7  Z M 90213.45 33010.7 Q 93130.9 32934.85 96919.7 32365.05 Q 100708.5 31797.1 102451.2 31116.3 Q 100860.2 29675.15 97260.1 26228.6 Q 96616.3 26341.45 95328.7 26493.15 Q 94002.25 28576.25 92675.8 30111.75 Q 91349.35 31645.4 89758.35 32820.15 L 90213.45 33010.7 Z M 90629.7 36571.95 Q 90705.55 39866.8 90781.4 41156.25 Q 91349.35 41080.4 92562.95 41004.55 L 92562.95 39716.95 Q 92562.95 37480.3 92335.4 36381.4 Q 92183.7 36457.25 91728.6 36533.1 Q 91047.8 36647.8 91008.95 36647.8 Q 90857.25 36647.8 90629.7 36571.95  Z M 91084.8 19899.75 Q 91312.35 22400.95 91501.05 23916.1 Q 91691.6 23916.1 92070.85 23842.1 Q 92524.1 22931.9 92903.35 21794.15 L 93586 19483.5 L 91084.8 19899.75 Z M 95707.95 35928.15 Q 95896.65 36116.85 95933.65 36325.9 Q 95972.5 36533.1 95972.5 36855 Q 95972.5 37176.9 95972.5 37367.45 L 95972.5 39374.7 L 95972.5 40701.15 L 97071.4 40588.3 Q 97260.1 39186 97260.1 37935.4 Q 97260.1 36381.4 96956.7 35624.75 L 95593.25 35813.45 L 95707.95 35928.15 Z M 97184.25 23044.75 Q 97298.95 23044.75 97374.8 23007.75 L 97639.35 22931.9 L 97678.2 22968.9 Q 99874.15 22628.5 101048.9 22363.95 Q 101579.85 20166.15 101579.85 18651 L 101579.85 18536.3 Q 101579.85 18347.6 101522.5 18290.25 Q 101467 18232.9 101315.3 18232.9 Q 101048.9 18232.9 98397.85 18651 Q 97828.05 21340.9 97184.25 23044.75  Z M 99874.15 35321.35 Q 100292.25 35473.05 100480.95 35700.6 Q 100669.65 35889.3 100708.5 36211.2 Q 100745.5 36533.1 100708.5 37252.75 L 100480.95 40170.2 L 101579.85 40057.35 Q 101883.25 38655.05 102016.45 37765.2 Q 102147.8 36875.35 102186.65 35852.3 L 102186.65 35737.6 Q 102186.65 35208.5 101692.7 35208.5 L 99874.15 35321.35 Z M 122797.5 46687.75 Q 122569.95 46763.6 122455.25 46763.6 Q 121774.45 46763.6 120921.6 46042.1 Q 120068.75 45322.45 119689.5 44451.1 Q 119386.1 43846.15 119386.1 43428.05 Q 119386.1 42708.4 120181.6 42027.6 Q 122834.5 39829.8 124388.5 37707.85 Q 124691.9 37367.45 124917.6 37367.45 Q 125145.15 37367.45 125296.85 37537.65 Q 125448.55 37707.85 125524.4 37972.4 Q 125639.1 38351.65 125639.1 39034.3 Q 125639.1 40321.9 125259.85 42007.25 Q 124880.6 43694.45 124218.3 45039.4 Q 123554.15 46384.35 122797.5 46687.75  Z M 118098.5 29902.7 Q 119613.65 28387.55 121489.55 25242.55 Q 123365.45 22097.55 124671.55 18800.85 Q 125979.5 15506 125979.5 13459.9 Q 125979.5 12170.45 126092.35 11717.2 Q 126207.05 11262.1 126812 11413.8 Q 127570.5 11489.65 128669.4 12039.1 Q 129768.3 12588.55 130449.1 13535.75 Q 130828.35 14064.85 130828.35 14671.65 Q 130828.35 15126.75 130658.15 15561.5 Q 130487.95 15998.1 130299.25 16338.5 Q 130108.7 16678.9 130032.85 16793.6 L 129124.5 18497.45 Q 130071.7 18232.9 131359.3 17777.8 Q 131623.85 17701.95 132097.45 17476.25 Q 132571.05 17248.7 132989.15 17248.7 Q 133329.55 17248.7 133594.1 17400.4 Q 134580.15 18044.2 135205.45 18517.8 Q 135830.75 18991.4 136171.15 19596.35 Q 136435.7 19975.6 136435.7 20242 Q 136435.7 20543.55 136056.45 21037.5 Q 135716.05 21490.75 135564.35 21757.15 L 134617.15 23612.7 L 136247 23272.3 L 137155.35 23083.6 Q 137534.6 21189.2 137743.65 19520.5 Q 137950.85 17853.65 137950.85 16982.3 Q 137913.85 15354.3 137819.5 14407.1 Q 137725.15 13459.9 137307.05 12473.85 Q 137118.35 12057.6 137458.75 11811.55 Q 137801 11565.5 138557.65 11602.5 Q 140794.3 11867.05 142385.3 13269.35 Q 142688.7 13687.45 142688.7 14179.55 Q 142688.7 14482.95 142592.5 14899.2 Q 142498.15 15315.45 142461.15 15581.85 L 142309.45 16414.35 Q 141930.2 18497.45 141702.65 20279 Q 141665.65 20734.1 141399.25 22212.25 Q 143332.5 21794.15 144771.8 21453.75 Q 145112.2 21339.05 145491.45 21339.05 Q 146438.65 21339.05 146893.75 21870 Q 147461.7 22476.8 148050 23233.45 Q 148636.45 23991.95 148636.45 24295.35 Q 148636.45 24635.75 148408.9 24863.3 Q 148181.35 25090.85 147765.1 25090.85 Q 145831.85 25090.85 141967.2 25582.95 Q 143332.5 27704.9 145302.75 29978.55 Q 147461.7 32440.9 148654.95 33445.45 Q 149848.2 34450 151478.05 35245.5 Q 152084.85 35585.9 152084.85 35813.45 Q 152084.85 36002.15 151553.9 36192.7 Q 148144.35 37176.9 146514.5 37176.9 Q 145263.9 37176.9 144449.9 36324.05 Q 143635.9 35473.05 142537 33691.5 Q 141550.95 32100.5 140415.05 29751 L 139845.25 28652.1 Q 137155.35 35965.15 130715.5 37404.45 L 130563.8 37404.45 Q 130032.85 37404.45 130032.85 37139.9 Q 130032.85 36912.35 130412.1 36684.8 Q 132382.35 35169.65 133860.5 32479.75 Q 135336.8 29789.85 136322.85 26454.3 L 135679.05 26530.15 Q 135375.65 26530.15 135166.6 26435.8 Q 134959.4 26341.45 134541.3 26075.05 Q 134163.9 25810.5 133784.65 25318.4 Q 132230.65 28424.55 130582.3 30849.9 Q 128933.95 33275.25 126301.4 35397.2 Q 123668.85 37517.3 120029.9 38655.05 Q 119728.35 38730.9 119537.8 38730.9 Q 119045.7 38730.9 119045.7 38464.5 Q 119045.7 38199.95 119613.65 37783.7 Q 122645.8 35661.75 125639.1 31645.4 Q 125296.85 31380.85 125184 31190.3 Q 125448.55 31532.55 123894.55 29789.85 Q 122986.2 28879.65 122379.4 28160 L 122266.55 28045.3 Q 120523.85 29714 118666.45 30546.5 Q 118363.05 30698.2 117946.8 30698.2 Q 117643.4 30698.2 117643.4 30509.5 Q 117643.4 30357.8 118098.5 29902.7  Z M 123099.05 27212.8 Q 123781.7 27022.25 124501.35 27022.25 Q 125600.25 27022.25 126434.6 27592.05 Q 126812 27856.6 127039.55 28330.2 Q 127267.1 28803.8 127305.95 29371.75 Q 128517.7 27440.35 128782.25 26948.25 Q 128441.85 26833.55 128138.45 26530.15 L 126887.85 25318.4 Q 125903.65 24332.35 125639.1 24106.65 Q 124273.8 26001.05 123099.05 27212.8  Z M 126586.3 22704.35 Q 127115.4 22628.5 127381.8 22628.5 Q 128138.45 22628.5 128933.95 22968.9 Q 129352.05 23159.45 129635.1 23594.2 Q 129920 24030.8 129995.85 24598.75 Q 130676.65 23159.45 131246.45 21414.9 Q 131359.3 21113.35 131359.3 20998.65 Q 131359.3 20885.8 131246.45 20885.8 L 130867.2 20961.65 Q 129276.2 21490.75 128480.7 21490.75 Q 128214.3 21490.75 128138.45 21453.75 Q 127949.75 21377.9 127607.5 21113.35 Q 127154.25 21908.85 126586.3 22704.35  Z M 128062.6 38958.45 Q 127986.75 38655.05 127986.75 38503.35 Q 127986.75 38087.1 128593.55 38162.95 Q 129692.45 38199.95 131018.9 38901.1 Q 132343.5 39602.25 132989.15 40549.45 Q 133518.25 41457.8 133518.25 42329.15 Q 133518.25 43352.2 132817.1 44186.55 Q 132117.8 45019.05 130904.2 45664.7 Q 130752.5 45777.55 130600.8 45777.55 Q 130375.1 45777.55 130184.55 45588.85 Q 129995.85 45398.3 129920 45170.75 Q 129540.75 44186.55 129009.8 42064.6 Q 128933.95 41761.2 128650.9 40738.15 Q 128366 39715.1 128062.6 38958.45  Z M 134693 38843.75 Q 134541.3 38464.5 134541.3 38314.65 Q 134541.3 37783.7 135336.8 37783.7 Q 136132.3 37783.7 137440.25 38351.65 Q 138748.2 38919.6 139353.15 39526.4 Q 140452.05 40473.6 140452.05 41724.2 Q 140452.05 42708.4 139808.25 43637.1 Q 139164.45 44565.8 138102.55 45094.9 Q 137876.85 45170.75 137762.15 45170.75 Q 137307.05 45170.75 137194.2 44678.65 Q 136132.3 41572.5 134693 38843.75  Z M 141438.1 37859.55 Q 141323.4 37517.3 141323.4 37404.45 Q 141323.4 37025.2 141854.35 37025.2 Q 142194.75 37025.2 142461.15 37101.05 Q 143787.6 37328.6 145358.25 38087.1 Q 146930.75 38843.75 147840.95 39563.4 Q 148827 40397.75 148827 41800.05 Q 148827 42935.95 148201.7 44034.85 Q 147576.4 45133.75 146553.35 45701.7 Q 146174.1 45966.25 145870.7 45966.25 Q 145112.2 45966.25 144658.95 44717.5 Q 142877.4 40397.75 141438.1 37859.55  Z M 142801.55 16262.65 Q 142801.55 16225.65 142744.2 16129.45 Q 142688.7 16035.1 142688.7 15922.25 Q 142688.7 15618.85 143066.1 15543 Q 143635.9 15430.15 144431.4 15430.15 Q 145567.3 15430.15 146098.25 15694.7 Q 146969.6 16110.95 147404.35 16717.75 Q 147840.95 17324.55 147840.95 18005.35 Q 147840.95 18612.15 147537.55 19218.95 Q 147234.15 19823.9 146703.2 20242 Q 146551.5 20391.85 146362.8 20391.85 Q 146174.1 20391.85 146022.4 20297.5 Q 145870.7 20203.15 145794.85 20090.3 Q 144808.8 18839.7 144392.55 18271.75 Q 143066.1 16566.05 142801.55 16262.65  Z M 171130.35 30661.2 Q 171888.85 34298.3 172456.8 35698.75 Q 173024.75 37101.05 173631.55 36912.35 Q 174730.45 36721.8 176093.9 34146.6 Q 177457.35 31569.55 177457.35 23196.45 Q 177457.35 23081.75 177572.05 23081.75 Q 177799.6 23044.75 178291.7 23044.75 Q 179351.75 23044.75 180356.3 23481.35 Q 181360.85 23916.1 181947.3 24578.4 Q 182535.6 25242.55 182459.75 25886.35 Q 182004.65 30091.4 181418.2 32611.1 Q 180829.9 35130.8 180583.85 35680.25 Q 180337.8 36229.7 179618.15 37707.85 Q 178746.8 39335.85 177192.8 40303.4 Q 175638.8 41269.1 173594.55 41420.8 Q 172268.1 41533.65 171130.35 40852.85 Q 169994.45 40170.2 169235.95 39147.15 Q 168479.3 38124.1 168251.75 37176.9 L 166697.75 30849.9 Q 166168.65 28727.95 165807.9 27723.4 Q 165449 26720.7 165164.1 26150.9 Q 164879.2 25582.95 164766.35 25394.25 Q 164614.65 25127.85 164614.65 24787.45 Q 164614.65 24143.65 165088.25 23707.05 Q 165561.85 23272.3 166244.5 23309.3 L 168592.15 23424 Q 169086.1 23461 169483.85 23782.9 Q 169881.6 24104.8 169957.45 24559.9 L 170941.65 29863.85 L 171130.35 30661.2 Z M 184046.95 28387.55 Q 184046.95 27173.95 184748.1 25980.7 Q 185449.25 24787.45 186925.55 23991.95 Q 188403.7 23196.45 190601.5 23196.45 Q 193367.25 23196.45 194939.75 24332.35 Q 196512.25 25470.1 197117.2 26794.7 Q 197648.15 27969.45 197496.45 28689.1 Q 197231.9 29220.05 196436.4 29371.75 Q 196057.15 29447.6 195753.75 29447.6 Q 194995.25 29447.6 194275.6 29144.2 Q 193935.2 29031.35 193746.5 28576.25 Q 193594.8 28084.15 193461.6 27817.75 Q 193328.4 27553.2 193100.85 27325.65 Q 192229.5 26530.15 190941.9 26530.15 Q 189918.85 26530.15 189086.35 26985.25 Q 188252 27440.35 188252 28348.7 Q 188252 28764.95 188479.55 29295.9 Q 188744.1 29978.55 189861.5 30413.3 Q 190980.75 30849.9 193215.55 31454.85 L 194238.6 31721.25 Q 196057.15 32250.35 197061.7 33615.65 Q 198066.25 34979.1 198066.25 36608.95 Q 198066.25 37896.55 197459.45 38956.6 Q 196551.1 40662.3 194636.35 41154.4 Q 192723.45 41648.35 190185.25 41609.5 Q 188176.15 41572.5 186527.8 40965.7 Q 184881.3 40358.9 184463.2 39374.7 Q 184198.65 38843.75 184198.65 38161.1 Q 184198.65 37252.75 184653.75 35774.6 Q 184653.75 35737.6 184690.75 35717.25 Q 184729.6 35698.75 184766.6 35737.6 Q 185676.8 36645.95 186925.55 37195.4 Q 188176.15 37744.85 189465.6 37859.55 Q 189806 37896.55 190449.8 37896.55 Q 191737.4 37896.55 192571.75 37574.65 Q 193406.1 37252.75 193481.95 36645.95 L 193518.95 36342.55 Q 193518.95 35471.2 192741.95 35073.45 Q 191964.95 34675.7 190336.95 34296.45 L 189350.9 34070.75 Q 187722.9 33615.65 186679.5 33142.05 Q 185637.95 32668.45 184957.15 31682.4 Q 184463.2 30925.75 184256 29978.55 Q 184046.95 29031.35 184046.95 28387.55  Z M 207075.55 41152.55 Q 206696.3 41381.95 206167.2 41457.8 Q 205976.65 41457.8 205597.4 41457.8 Q 204385.65 41457.8 203666 40775.15 Q 202946.35 40094.35 202946.35 38804.9 Q 202946.35 36910.5 204233.95 36305.55 Q 204916.6 36002.15 205447.55 36002.15 Q 205900.8 36002.15 206355.9 36192.7 Q 208098.6 36803.2 208098.6 38864.1 Q 208098.6 40390.35 207075.55 41152.55  Z M 229447.1 45398.3 Q 228424.05 45398.3 228196.5 44451.1 Q 227930.1 43466.9 226907.05 42064.6 Q 225885.85 40662.3 225164.35 39981.5 Q 224975.65 39790.95 224975.65 39602.25 Q 224975.65 39186 225467.75 39186 L 226226.25 39223 Q 227665.55 39374.7 228575.75 39374.7 Q 229104.85 39374.7 229295.4 39337.7 Q 229559.95 39298.85 229730.15 39089.8 Q 229900.35 38882.6 230242.6 38314.65 Q 231189.8 36684.8 231113.95 31985.8 Q 229863.35 33123.55 228688.6 34031.9 Q 227856.1 34714.55 227134.6 34714.55 Q 226718.35 34714.55 226226.25 34374.15 Q 225619.45 33994.9 225145.85 33293.75 Q 224672.25 32592.6 224368.85 32024.65 Q 224065.45 31456.7 223952.6 31266.15 Q 223688.05 30849.9 223688.05 30585.35 Q 223688.05 29978.55 224975.65 29789.85 Q 227362.15 29486.45 230849.4 27667.9 Q 230431.3 24106.65 229711.65 22288.1 Q 229559.95 21945.85 229559.95 21566.6 Q 229559.95 21037.5 229939.2 21037.5 Q 230242.6 21037.5 230546 21302.05 Q 230849.4 21490.75 231226.8 21945.85 Q 231569.05 21265.05 232477.4 19028.4 Q 231606.05 19255.95 230564.5 19577.85 Q 229522.95 19899.75 228764.45 20203.15 Q 228385.2 20317.85 228005.95 20317.85 Q 226226.25 20317.85 224938.65 17664.95 Q 224823.95 17437.4 224823.95 17209.85 Q 224823.95 16604.9 225543.6 16566.05 Q 227930.1 16262.65 230261.1 15676.2 Q 232590.25 15087.9 233311.75 14634.65 Q 233765 14331.25 234183.1 14331.25 Q 234523.5 14331.25 234826.9 14595.8 Q 235470.7 15126.75 236436.4 16092.45 Q 237402.1 17058.15 237781.35 17740.8 Q 238160.6 18423.45 238160.6 18725 Q 238160.6 19028.4 237914.55 19274.45 Q 237668.5 19520.5 237137.55 19823.9 Q 236001.65 20354.85 232817.8 22362.1 L 231985.3 22893.05 Q 232856.65 24219.5 233652.15 26113.9 Q 235622.4 24902.15 237592.65 23764.4 Q 237781.35 23612.7 238047.75 23612.7 Q 238425.15 23612.7 238425.15 23991.95 Q 238425.15 24332.35 237971.9 24902.15 Q 235849.95 27325.65 234523.5 28690.95 Q 235470.7 32176.35 235470.7 35282.5 Q 235470.7 38275.8 234599.35 40662.3 Q 233955.55 42480.85 232383.05 43940.5 Q 230810.55 45398.3 229447.1 45398.3  Z M 232704.95 44489.95 Q 235243.15 41724.2 236512.25 38503.35 Q 237781.35 35282.5 238217.95 31512.2 Q 238652.7 27743.75 238615.7 22212.25 Q 238615.7 21226.2 238425.15 20032.95 Q 238236.45 18839.7 238008.9 18081.2 Q 237933.05 17853.65 237933.05 17777.8 Q 237933.05 17513.25 238160.6 17343.05 Q 238388.15 17172.85 238804.4 17209.85 Q 239790.45 17285.7 240698.8 17607.6 Q 241609 17929.5 242176.95 18460.45 Q 244450.6 17021.15 246439.35 15163.75 Q 248428.1 13308.2 248807.35 12170.45 Q 249186.6 11489.65 249754.55 11489.65 Q 249982.1 11489.65 250246.65 11602.5 Q 251156.85 12018.75 252104.05 12816.1 Q 253051.25 13611.6 253391.65 14407.1 L 253428.65 14784.5 Q 253428.65 15543 252823.7 15959.25 L 252216.9 16338.5 Q 251724.8 16678.9 251081 16982.3 Q 249110.75 17929.5 246609.55 18725 Q 247064.65 18915.55 247292.2 19104.25 Q 247480.9 19255.95 247556.75 19559.35 Q 248200.55 19711.05 248731.5 19975.6 Q 249186.6 20242 249490 20941.3 Q 249791.55 21642.45 250285.5 23159.45 Q 251460.25 26872.4 252881.05 29884.2 Q 254301.85 32896 256233.25 36041 Q 257293.3 37556.15 258164.65 38540.35 Q 259037.85 39526.4 260286.6 40510.6 Q 260704.7 40852.85 260704.7 41193.25 Q 260704.7 41533.65 260210.75 41648.35 Q 258127.65 42140.45 256801.2 42140.45 Q 256081.55 42140.45 255398.9 42027.6 Q 254375.85 41875.9 253619.2 41193.25 Q 252860.7 40510.6 252596.15 39602.25 Q 251800.65 36836.5 249639.85 30470.65 Q 248087.7 25962.2 247405.05 23575.7 L 247292.2 25621.8 Q 247064.65 29486.45 246874.1 33008.85 Q 246685.4 36533.1 246609.55 38351.65 Q 246572.55 38579.2 246628.05 38597.7 Q 246685.4 38616.2 246874.1 38540.35 L 248048.85 37896.55 Q 247745.45 36836.5 247443.9 36116.85 Q 247292.2 35774.6 247292.2 35473.05 Q 247292.2 35017.95 247708.45 35017.95 Q 247897.15 35017.95 248163.55 35130.8 Q 249375.3 35813.45 250625.9 37006.7 Q 251876.5 38199.95 252104.05 38919.6 Q 252255.75 39261.85 252255.75 39829.8 Q 252255.75 40777 251782.15 41496.65 Q 251308.55 42216.3 250513.05 42216.3 Q 249451.15 42216.3 248920.2 40814 L 248692.65 40133.2 L 247329.2 42329.15 Q 246988.8 42747.25 246609.55 43466.9 L 246154.45 44186.55 Q 245777.05 44754.5 245246.1 44754.5 Q 244829.85 44754.5 244260.05 44414.1 L 243882.65 44186.55 Q 242101.1 43011.8 241873.55 42179.3 Q 241836.55 42027.6 241836.55 41800.05 Q 241836.55 41533.65 241930.9 41363.45 Q 242025.25 41193.25 242252.8 40965.7 Q 242593.2 40662.3 242763.4 40340.4 Q 242935.45 40018.5 243048.3 39374.7 Q 243200 38087.1 243484.9 31210.65 Q 243767.95 24332.35 243806.8 21414.9 Q 243806.8 20393.7 243730.95 19559.35 L 243011.3 19711.05 L 243011.3 19899.75 Q 243011.3 20090.3 242935.45 20467.7 Q 242783.75 21113.35 242783.75 22704.35 Q 242783.75 31077.45 240643.3 37422.95 Q 238501 43770.3 233424.6 45285.45 Q 233272.9 45361.3 233121.2 45361.3 Q 232893.65 45361.3 232723.45 45246.6 Q 232553.25 45133.75 232553.25 44906.2 Q 232553.25 44793.35 232704.95 44489.95  Z M 261159.8 31305 Q 260932.25 31380.85 260893.4 31380.85 Q 260704.7 31380.85 260704.7 31190.3 Q 260704.7 31038.6 260893.4 30774.05 Q 263962.55 26985.25 265838.45 23139.1 Q 267714.35 19294.8 268434 14862.2 Q 268546.85 14103.7 268546.85 13384.05 Q 268546.85 12740.25 268434 12170.45 Q 268282.3 11489.65 268963.1 11489.65 Q 269305.35 11489.65 269684.6 11602.5 Q 270744.65 11944.75 271843.55 12607.05 Q 272942.45 13269.35 273662.1 13990.85 Q 273850.8 14140.7 274002.5 14501.45 Q 274154.2 14862.2 274154.2 15315.45 Q 274154.2 15922.25 273774.95 16566.05 L 273131.15 17816.65 Q 272639.05 18839.7 272524.35 18991.4 Q 271804.7 20242 271653 20506.55 Q 270176.7 23120.6 269001.95 24826.3 Q 270062 25053.85 270592.95 25318.4 Q 270857.5 25470.1 270933.35 25677.3 Q 271009.2 25886.35 270933.35 26302.6 Q 270781.65 26872.4 270744.65 28045.3 Q 270592.95 30091.4 270517.1 33919.05 Q 270365.4 39411.7 270176.7 40852.85 Q 270062 41988.75 269664.25 42632.55 Q 269266.5 43276.35 268585.7 43276.35 Q 268243.45 43276.35 267940.05 43124.65 Q 267068.7 42784.25 266349.05 41761.2 Q 265629.4 40738.15 265819.95 39715.1 Q 266236.2 37101.05 266482.25 33710 Q 266728.3 30318.95 266691.3 27553.2 Q 264302.95 29978.55 261159.8 31305  Z M 269001.95 43922 Q 270668.8 42103.45 271843.55 39544.9 Q 273018.3 36988.2 273397.55 35680.25 Q 273774.95 34374.15 274494.6 31608.4 Q 274761 30546.5 274761 29902.7 Q 274761 29675.15 274685.15 29220.05 L 274002.5 29486.45 Q 273774.95 29562.3 273586.25 29562.3 Q 273170 29562.3 272903.6 29295.9 Q 272790.75 29183.05 272393 28842.65 Q 271995.25 28500.4 271503.15 27629.05 Q 271388.45 27325.65 271388.45 27136.95 Q 271388.45 26948.25 271503.15 26796.55 Q 271616 26644.85 271767.7 26606 Q 273662.1 26378.45 276313.15 25697.65 L 276427.85 24143.65 L 275517.65 24408.2 Q 275290.1 24447.05 274988.55 24541.4 Q 274685.15 24635.75 274494.6 24635.75 Q 274041.35 24635.75 273662.1 24106.65 Q 272942.45 22741.35 272942.45 22325.1 Q 272942.45 22021.7 273207 21984.7 Q 274494.6 21757.15 276540.7 21189.2 L 276579.55 20203.15 L 276009.75 20393.7 Q 275821.05 20430.7 275462.15 20563.9 Q 275101.4 20695.25 274836.85 20695.25 Q 274418.75 20695.25 274078.35 20166.15 Q 274002.5 20014.45 273623.25 19274.45 Q 273245.85 18536.3 273245.85 18120.05 Q 273245.85 17740.8 273547.4 17703.8 Q 275290.1 17513.25 276616.55 17134 L 276579.55 15846.4 Q 276540.7 14331.25 276048.6 12625.55 Q 275972.75 12322.15 275972.75 12170.45 Q 275972.75 11413.8 277184.5 11526.65 Q 278435.1 11717.2 279154.75 11963.25 Q 279876.25 12209.3 280368.35 12625.55 Q 280860.45 13041.8 280860.45 13724.45 Q 280860.45 14216.55 280708.75 14823.35 Q 280595.9 15467.15 280557.05 15733.55 L 280899.3 15581.85 Q 281125 15467.15 281428.4 15467.15 Q 281883.5 15467.15 282223.9 15770.55 Q 283095.25 16377.35 283550.35 17703.8 Q 283626.2 18005.35 283626.2 18081.2 Q 283626.2 18384.6 283380.15 18554.8 Q 283134.1 18725 282566.15 18800.85 Q 280481.2 19180.1 280177.8 19255.95 Q 280177.8 19522.35 280101.95 20051.45 L 280177.8 20051.45 Q 280405.35 19938.6 280708.75 19938.6 Q 281125 19938.6 281352.55 20203.15 Q 281998.2 20771.1 282566.15 21945.85 Q 282679 22173.4 282679 22325.1 Q 282679 22741.35 281731.8 22856.05 Q 280784.6 22968.9 279876.25 23196.45 L 279761.55 24711.6 Q 280064.95 24635.75 281846.5 23991.95 Q 282299.75 23764.4 282490.3 23764.4 Q 282717.85 23764.4 282906.55 23954.95 Q 283398.65 24219.5 283816.75 24674.6 Q 285557.6 19446.5 285557.6 14179.55 Q 285557.6 13080.65 285104.35 11641.35 L 285028.5 11337.95 Q 285028.5 10958.7 285596.45 10958.7 Q 285785.15 10958.7 286164.4 11034.55 Q 286354.95 11071.55 287168.95 11280.6 Q 287982.95 11489.65 288608.25 11811.55 Q 289233.55 12133.45 289649.8 12588.55 Q 290180.75 13232.35 290180.75 14216.55 Q 290180.75 15126.75 289858.85 15998.1 Q 289536.95 16869.45 289498.1 17021.15 Q 288362.2 20543.55 287679.55 22136.4 Q 289953.2 21226.2 292075.15 20695.25 Q 292643.1 20582.4 293098.2 20582.4 Q 293553.3 20582.4 293817.85 20734.1 Q 294613.35 21189.2 295334.85 22173.4 Q 295447.7 22325.1 295447.7 22628.5 Q 295447.7 23196.45 294916.75 23461 Q 294197.1 23803.25 291166.8 24484.05 Q 289801.5 24787.45 288702.6 25090.85 Q 288173.5 25166.7 287945.95 25166.7 Q 287263.3 25166.7 286847.05 24902.15 L 286467.8 24598.75 Q 285748.15 25886.35 284952.65 26872.4 Q 285861 26985.25 286354.95 27780.75 Q 286998.75 28842.65 288286.35 31114.45 Q 288438.05 30622.35 288513.9 30091.4 Q 288741.45 28766.8 288741.45 27819.6 Q 288741.45 26833.55 288475.05 26265.6 Q 288362.2 25962.2 288362.2 25773.5 Q 288362.2 25507.1 288665.6 25507.1 L 289120.7 25582.95 Q 290143.75 25886.35 291109.45 26265.6 Q 292075.15 26644.85 292454.4 26909.4 Q 293212.9 27364.5 293212.9 27971.3 Q 293212.9 28197 292985.35 28727.95 Q 292606.1 29523.45 292321.2 30357.8 Q 292038.15 31190.3 291962.3 31417.85 Q 291468.35 33123.55 290672.85 35054.95 Q 292454.4 37744.85 293893.7 39147.15 Q 296622.45 41724.2 297530.8 42140.45 Q 297985.9 42329.15 297985.9 42595.55 Q 297985.9 42860.1 297569.65 43050.65 Q 296167.35 43542.75 294898.25 43655.6 Q 293629.15 43770.3 293438.6 43807.3 Q 293249.9 43846.15 292909.5 43846.15 Q 291658.9 43846.15 290976.25 43050.65 Q 290369.45 42329.15 288589.75 38919.6 Q 285596.45 43276.35 281088 44793.35 Q 280975.15 44830.35 280784.6 44830.35 Q 280444.2 44830.35 280444.2 44565.8 Q 280444.2 44299.4 280747.6 44073.7 Q 282338.6 42860.1 283948.1 40455.1 Q 285557.6 38048.25 286771.2 35321.35 L 286203.25 34070.75 L 285256.05 31909.95 Q 284725.1 30622.35 284364.35 29884.2 Q 284005.45 29144.2 283474.5 28463.4 L 282793.7 29031.35 Q 282642 29107.2 282566.15 29107.2 Q 282375.6 29107.2 282262.75 28974 Q 282148.05 28842.65 282223.9 28652.1 L 282830.7 27325.65 L 281731.8 27592.05 Q 279761.55 28008.3 279117.75 28121.15 L 277223.35 28463.4 Q 277980 28766.8 278510.95 29220.05 Q 279003.05 29714 279003.05 30206.1 Q 279685.7 30130.25 279989.1 30015.55 Q 280671.75 29789.85 280936.3 29789.85 Q 281163.85 29789.85 281428.4 29978.55 Q 282717.85 30698.2 283456 31229.15 Q 284194.15 31758.25 284194.15 32289.2 Q 284194.15 32555.6 284023.95 32838.65 Q 283853.75 33123.55 283814.9 33160.55 Q 283777.9 33236.4 283589.2 33539.8 Q 283398.65 33843.2 283322.8 34183.6 Q 283019.4 35737.6 282244.25 38294.3 Q 281467.25 40852.85 280860.45 42480.85 Q 280253.65 44110.7 278701.5 44717.5 Q 278094.7 44867.35 277906 44867.35 Q 277299.2 44867.35 277147.5 44262.4 Q 276692.4 42823.1 275253.1 41230.25 Q 275064.4 41002.7 275064.4 40852.85 Q 275064.4 40777 275140.25 40719.65 Q 275214.25 40662.3 275328.95 40701.15 Q 276731.25 40965.7 277071.65 40965.7 Q 277678.45 40965.7 277981.85 40131.35 Q 279458.15 35282.5 279648.7 33804.35 L 279648.7 33615.65 Q 279648.7 32933 278890.2 33123.55 L 277791.3 33236.4 Q 276579.55 37441.45 274798 40358.9 Q 273018.3 43276.35 269645.75 44678.65 Q 269077.8 44869.2 268887.25 44869.2 Q 268622.7 44869.2 268622.7 44641.65 Q 268622.7 44375.25 269001.95 43922  Z M 302305.65 41951.75 Q 301473.15 41195.1 300657.3 39735.45 Q 299843.3 38277.65 299502.9 37027.05 Q 299464.05 36875.35 299464.05 36647.8 Q 299464.05 36231.55 299767.45 36079.85 Q 300070.85 35928.15 300790.5 35928.15 Q 301321.45 35928.15 301946.75 35567.4 Q 302570.2 35208.5 303064.15 34525.85 Q 305411.8 31495.55 306814.1 29355.1 Q 308216.4 27212.8 309428.15 24485.9 Q 309807.4 23651.55 310071.95 23651.55 Q 310299.5 23651.55 310299.5 24221.35 Q 310299.5 24522.9 310186.65 25053.85 Q 308974.9 30548.35 307478.25 35378.7 Q 305981.6 40209.05 305071.4 41535.5 Q 304540.45 42406.85 303556.25 42406.85 Q 302836.6 42406.85 302305.65 41951.75  Z M 300903.35 16869.45 Q 300335.4 16377.35 300335.4 16149.8 Q 300335.4 15809.4 301321.45 15770.55 Q 301623 15733.55 302192.8 15733.55 Q 304314.75 15733.55 306264.65 16586.4 Q 308216.4 17439.25 308974.9 18763.85 Q 309315.3 19370.65 309315.3 20053.3 Q 309315.3 21076.35 308690 22023.55 Q 308064.7 22970.75 307572.6 23159.45 Q 306965.8 23387 306473.7 23387 Q 305450.65 23387 304806.85 22363.95 Q 303707.95 20393.7 302797.75 19030.25 Q 301889.4 17664.95 300903.35 16869.45  Z M 309731.55 29562.3 Q 314959.65 23690.4 316968.75 16604.9 Q 317688.4 13952 317536.7 11756.05 Q 317536.7 10733 318446.9 10733 Q 318559.75 10733 318939 10808.85 Q 320681.7 11337.95 321762.1 12057.6 Q 322840.65 12779.1 323068.2 12891.95 Q 323599.15 13422.9 323599.15 13952 Q 323599.15 14445.95 323107.05 15013.9 Q 322500.25 15961.1 322121 16717.75 Q 326932.85 21947.7 328638.55 23387 L 329509.9 24145.5 Q 330949.2 25433.1 331972.25 26095.4 Q 332995.3 26759.55 334549.3 27212.8 Q 335230.1 27479.2 335230.1 27743.75 Q 335230.1 28010.15 334625.15 28123 Q 333411.55 28539.25 331896.4 29012.85 Q 330381.25 29486.45 329054.8 29714 Q 328866.1 29752.85 328523.85 29752.85 Q 327652.5 29752.85 327027.2 29316.25 Q 326401.9 28881.5 325796.95 28010.15 Q 324470.5 26189.75 321704.75 21720.15 Q 321553.05 21453.75 320491.15 19711.05 Q 319394.1 21871.85 317764.25 23879.1 Q 319543.95 23993.8 321288.5 24865.15 Q 323068.2 25849.35 323068.2 27099.95 Q 323068.2 27858.45 322424.4 28502.25 Q 321780.6 29146.05 320718.7 29525.3 Q 320491.15 29601.15 320417.15 29601.15 Q 320113.75 29601.15 319828.85 29430.95 Q 319543.95 29258.9 319431.1 29107.2 Q 318596.75 28084.15 317499.7 26304.45 Q 317196.3 25888.2 316665.35 25053.85 Q 313899.6 27895.45 310034.95 30054.4 Q 309807.4 30169.1 309694.55 30169.1 Q 309504 30169.1 309504 29978.55 Q 309504 29714 309731.55 29562.3  Z M 312156.9 32594.45 Q 311816.5 32176.35 311816.5 31872.95 Q 311816.5 31380.85 312800.7 31419.7 Q 313823.75 31456.7 317251.8 30812.9 Q 320681.7 30169.1 322385.55 29789.85 Q 322727.8 29752.85 323484.45 29334.75 Q 324130.1 28918.5 324470.5 28918.5 Q 325114.3 28918.5 326723.8 30226.45 Q 328335.15 31532.55 328790.25 32366.9 Q 328903.1 32594.45 328903.1 32820.15 Q 328903.1 33465.8 328031.75 34146.6 Q 327615.5 34564.7 326744.15 35321.35 Q 326516.6 35548.9 325153.15 36760.65 Q 323787.85 37974.25 322613.1 39300.7 Q 322045.15 39944.5 322008.15 40020.35 Q 322688.95 40397.75 322955.35 40588.3 Q 324394.65 41496.65 324394.65 43089.5 Q 324394.65 43997.85 323882.2 44887.7 Q 323371.6 45779.4 322500.25 46423.2 Q 321628.9 47142.85 321060.95 47142.85 Q 320341.3 47142.85 319771.5 46006.95 Q 318939 44489.95 316911.4 41875.9 Q 314883.8 39261.85 313975.45 38238.8 Q 313786.75 38050.1 313786.75 37974.25 Q 313786.75 37859.55 313899.6 37804.05 Q 314012.45 37746.7 314088.3 37746.7 Q 315642.3 37707.85 318371.05 38542.2 L 319923.2 36496.1 Q 321780.6 34070.75 321893.45 33843.2 L 321969.3 33541.65 Q 321969.3 33426.95 321874.95 33408.45 Q 321780.6 33389.95 321590.05 33426.95 Q 316058.55 34564.7 315338.9 34640.55 Q 314543.4 34677.55 314203 34620.2 Q 313860.75 34564.7 313444.5 34185.45 Q 313065.25 33919.05 312724.85 33389.95 Q 312384.45 32859 312156.9 32594.45  Z M 351521.2 40131.35 Q 351484.2 40170.2 351293.65 40170.2 Q 351180.8 40170.2 351067.95 40112.85 Q 350953.25 40055.5 350953.25 39942.65 Q 350953.25 39829.8 351104.95 39678.1 Q 353794.85 36836.5 355121.3 34448.15 Q 356447.75 32061.65 357394.95 29486.45 L 357546.65 28916.65 Q 355006.6 30546.5 352507.25 31417.85 Q 352507.25 32705.45 352468.4 33351.1 Q 352468.4 35282.5 352431.4 36153.85 Q 352355.55 37139.9 351957.8 37878.05 Q 351560.05 38616.2 351029.1 39013.95 Q 350498.15 39411.7 350120.75 39411.7 Q 349550.95 39411.7 349116.2 38825.25 Q 348679.6 38236.95 348452.05 37404.45 Q 348415.05 37213.9 348415.05 36836.5 Q 348415.05 36457.25 348527.9 36002.15 Q 348679.6 35282.5 348718.45 34790.4 Q 345460.6 36797.65 341405.4 38919.6 Q 340269.5 39487.55 339738.55 39487.55 Q 339322.3 39487.55 338830.2 39071.3 Q 338299.25 38540.35 337540.75 37195.4 Q 336784.1 35850.45 336784.1 35358.35 Q 336784.1 34751.55 337958.85 34487 Q 338412.1 34372.3 339246.45 34222.45 Q 339170.6 30546.5 339094.75 28916.65 Q 339018.9 26870.55 339018.9 26226.75 Q 338981.9 25166.7 338867.2 24408.2 Q 338754.35 23651.55 338450.95 23044.75 Q 338299.25 22741.35 338299.25 22513.8 Q 338299.25 22286.25 338430.6 22154.9 Q 338563.8 22021.7 338754.35 22021.7 Q 339890.25 22021.7 340950.3 22362.1 Q 342012.2 22704.35 342543.15 23120.6 Q 342996.4 23575.7 342846.55 24635.75 Q 342807.7 24826.3 342694.85 26454.3 L 342694.85 28311.7 L 342694.85 33463.95 L 343717.9 33236.4 Q 343906.6 30433.65 343906.6 25394.25 Q 343906.6 20391.85 343717.9 17248.7 Q 343717.9 15087.9 343262.8 13724.45 Q 343186.95 13496.9 343186.95 13384.05 Q 343186.95 12890.1 343679.05 12890.1 Q 345081.35 12965.95 346198.75 13250.85 Q 347316.15 13533.9 347808.25 14027.85 Q 348339.2 14481.1 348187.5 15580 Q 348111.65 15922.25 348035.8 17513.25 Q 347504.85 27401.5 347504.85 31229.15 L 347504.85 32403.9 L 348946 32061.65 Q 349058.85 30015.55 349058.85 27856.6 Q 349058.85 23348.15 348755.45 21453.75 L 348718.45 21150.35 Q 348718.45 20771.1 349134.7 20771.1 Q 350196.6 20771.1 351314 21244.7 Q 352431.4 21718.3 353151.05 22249.25 Q 353302.75 22362.1 353302.75 22780.2 Q 353302.75 23309.3 353188.05 23612.7 Q 353038.2 23803.25 352829.15 24881.8 Q 352620.1 25962.2 352583.1 26454.3 Q 352507.25 27741.9 352507.25 30281.95 Q 354098.25 28539.25 355102.8 27155.45 Q 356105.5 25773.5 356523.6 24408.2 L 356296.05 24522.9 Q 355916.8 24711.6 355652.25 24711.6 Q 355348.85 24711.6 355139.8 24541.4 Q 354932.6 24371.2 354760.55 24180.65 Q 354590.35 23991.95 354514.5 23916.1 Q 353643.15 22704.35 353643.15 21642.45 Q 353491.45 20734.1 354590.35 20506.55 Q 355273 20391.85 356333.05 18915.55 Q 357394.95 17437.4 358303.3 15655.85 Q 359213.5 13876.15 359365.2 13193.5 Q 359894.3 11526.65 359933.15 10655.3 Q 359933.15 10351.9 360539.95 10351.9 Q 360917.35 10351.9 361296.6 10466.6 Q 362735.9 10958.7 363457.4 11545.15 Q 364177.05 12133.45 364556.3 12814.25 Q 364593.3 12928.95 364593.3 13117.65 Q 364593.3 13837.3 363721.95 14936.2 Q 363418.55 15543 361979.25 17172.85 Q 360539.95 18800.85 359137.65 20127.3 Q 361448.3 19899.75 364857.85 19407.65 Q 364101.2 18269.9 363533.25 17322.7 Q 363418.55 17209.85 363418.55 17058.15 Q 363418.55 16869.45 363664.6 16754.75 Q 363910.65 16641.9 364328.75 16641.9 Q 365540.5 16641.9 367074.15 17304.2 Q 368609.65 17968.35 369368.15 18725 Q 370011.95 19483.5 370011.95 20543.55 Q 370011.95 22249.25 368382.1 23461 Q 368078.7 23651.55 367775.3 23651.55 Q 367586.6 23651.55 367397.9 23536.85 Q 367207.35 23424 367170.35 23233.45 Q 366979.8 22817.2 366450.7 21908.85 Q 362661.9 22589.65 358985.95 23612.7 Q 359894.3 24104.8 360501.1 24826.3 Q 360841.5 25318.4 360841.5 25658.8 Q 360841.5 25923.35 360634.3 26226.75 Q 360425.25 26530.15 359970.15 26985.25 L 359629.75 27325.65 Q 360804.5 27932.45 361487.15 28576.25 Q 361788.7 28840.8 361788.7 29183.05 Q 361788.7 29295.9 361712.85 29599.3 Q 363418.55 29220.05 364062.35 28879.65 Q 364365.75 28727.95 364669.15 28557.75 Q 364972.55 28387.55 365124.25 28387.55 Q 365464.65 28387.55 366126.95 28764.95 Q 366791.1 29144.2 367359.05 29693.65 Q 367927 30243.1 368078.7 30774.05 Q 368154.55 30886.9 368154.55 31114.45 Q 368154.55 31342 367832.65 31797.1 Q 367510.75 32252.2 367434.9 32553.75 Q 366487.7 35926.3 364593.3 38616.2 Q 366979.8 40510.6 368988.9 41761.2 Q 370920.3 43048.8 373345.65 43996 Q 373800.75 44186.55 373800.75 44338.25 Q 373800.75 44526.95 373382.65 44717.5 Q 372246.75 45285.45 370692.75 45701.7 Q 369140.6 46117.95 368041.7 46308.5 Q 367851.15 46345.5 367510.75 46345.5 Q 366942.8 46345.5 366354.5 46156.8 Q 365768.05 45966.25 365427.65 45701.7 Q 365048.4 45398.3 364156.7 44356.75 Q 363266.85 43315.2 361864.55 41648.35 Q 359553.9 43655.6 356675.3 44773 Q 353794.85 45890.4 350574 46005.1 L 350537 46005.1 Q 350346.45 46005.1 350176.25 45814.55 Q 350006.05 45625.85 350233.6 45513 Q 353112.2 44338.25 355519.05 42671.4 Q 357924.05 41002.7 359705.6 39071.3 L 359022.95 38236.95 L 357470.8 36266.7 Q 355158.3 39034.3 351521.2 40131.35  Z M 359289.35 33728.5 Q 360236.55 34751.55 361827.55 36229.7 Q 363191 33994.9 363342.7 32137.5 Q 363342.7 32061.65 363305.7 32004.3 Q 363266.85 31948.8 363229.85 31948.8 Q 362167.95 32024.65 360160.7 32705.45 Q 360046 32744.3 359857.3 32744.3 L 359289.35 33728.5 Z M 363758.95 24522.9 Q 363646.1 24408.2 363646.1 24332.35 Q 363646.1 24219.5 363873.65 24104.8 Q 364177.05 23953.1 364820.85 23953.1 Q 365768.05 23953.1 367170.35 24295.35 Q 368570.8 24635.75 369593.85 25052 Q 371035 25734.65 371035 27440.35 Q 371035 28045.3 370807.45 28670.6 Q 370579.9 29295.9 370239.5 29751 Q 369784.4 30243.1 369442.15 30243.1 Q 369064.75 30243.1 368494.95 29599.3 Q 367738.3 28879.65 366487.7 27440.35 Q 364404.6 25166.7 363758.95 24522.9  Z " fill-rule="nonzero" style="fill:#333333;;fill-opacity:1;"/>
</svg>