<svg version="1.1" x="0" y="0" width="100%" height="100%" viewBox="0 0 816435.2 47411.2" xmlns="http://www.w3.org/2000/svg">
  <path d="M 12565 11899.4 L 10967.3 13576.4 L 3272.6 13576.4 L 3511.8 14321.3 L 11180.5 14321.3 Q 10747.6 17702.6 9715.4 21083.9 Q 7618.5 18914.2 4763.7 16823.8 L 4443.9 17037 Q 5725.7 18473.5 6826.8 20198.6 Q 7929.2 21925 8810.6 23720.3 Q 7736.8 26551.7 6218.4 29068.5 Q 4700 31585.3 2687.6 33597.7 L 3006.1 33864.2 Q 5314.9 32396.5 7069.9 30568.7 Q 8824.9 28742.2 10114.5 26675.2 Q 10787.9 28386 11099.9 29736.7 Q 11818.8 31409.8 12792.5 31507.3 Q 13303.4 31572.3 13722 31251.2 Q 14141.9 30930.1 14352.5 30282.7 Q 14778.9 29078.9 13949.5 27074.3 Q 13096.7 25277.7 11765.5 23479.8 Q 12698.9 21395.9 13322.9 19221 Q 13946.9 17046.1 14321.3 14880.3 Q 14791.9 14827 15037.6 14734.7 Q 15282 14641.1 15413.3 14427.9 L 12565 11899.4 Z M 23986.8 16770.5 L 23986.8 11340.4 Q 24904.6 11187 24944.9 10594.2 L 20870.7 10195.1 L 20870.7 16770.5 L 14054.8 16770.5 L 14268 17516.7 L 20870.7 17516.7 L 20870.7 30961.3 Q 20917.5 31507.3 20205.1 31494.3 Q 19773.5 31489.1 18721.8 31433.2 Q 17846.9 31387.7 17063 31340.9 Q 16119.2 31286.3 16051.6 31281.1 L 16051.6 31626.9 Q 17190.4 31841.4 17830 32109.2 Q 18468.3 32378.3 18847.9 32772.2 Q 19546 33457.3 19646.1 34982.2 Q 22209.7 34745.6 23088.5 33935.7 Q 23264 33784.9 23397.9 33614.6 Q 24053.1 32698.1 23986.8 31201.8 L 23986.8 17516.7 L 27314.8 17516.7 Q 27912.8 17523.2 28032.4 17090.3 Q 27411 16370.1 26642.7 15590.1 Q 26420.4 15362.6 26220.2 15163.7 Q 25527.3 14473.4 25476.6 14427.9 L 23986.8 16770.5 Z M 14508.5 20125.8 Q 15532.9 21395.9 16059.4 22950.7 Q 16584.6 24506.8 16770.5 25717.1 Q 17670.1 26640.1 18504.7 26250.1 Q 19336.7 25862.7 19520 24721.3 Q 19703.3 23581.2 18652.9 22242.2 Q 17601.2 20899.3 14720.4 19912.6 L 14508.5 20125.8 Z M 37723.9 19752.7 L 35594.5 19752.7 L 35594.5 11658.9 Q 36163.9 11560.1 36413.5 11356 Q 36663.1 11153.2 36712.5 10833.4 L 32559 10434.3 L 32559 30082.5 Q 32582.4 30538.8 32326.3 30875.5 Q 32070.2 31210.9 31255.1 31707.5 L 33491.1 34982.2 Q 33924 34688.4 34236 33996.8 Q 36474.6 32638.3 38286.8 31429.3 Q 40097.7 30221.6 41353.5 29348 Q 41787.7 29049 42143.9 28804.6 L 42037.3 28486.1 Q 42036 28486.1 42033.4 28487.4 Q 40304.4 29030.8 38654.7 29544.3 Q 37005 30057.8 35594.5 30482.9 L 35594.5 20498.9 L 41584.9 20498.9 Q 42184.2 20505.4 42303.8 20072.5 Q 41599.2 19340.6 40749 18525.5 Q 40439.6 18227.8 40170.5 17973 Q 39425.6 17268.4 39374.9 17224.2 L 37723.9 19752.7 Z M 53405.8 26489.3 L 53113.3 26489.3 Q 52764.9 27840 52426.9 28932 Q 52088.9 30022.7 51861.4 30455.6 Q 51562.4 30835.2 51142.5 30854.7 Q 50564 30888.5 49305.6 30882 L 47255.5 30882 Q 46588.6 30888.5 46329.9 30694.8 Q 46072.5 30502.4 46084.2 30029.2 L 46084.2 21536.3 Q 47681.9 21052.7 49435.6 20279.2 Q 51188 19504.4 52846.8 18502.1 Q 53317.4 18678.9 53598.2 18651.6 Q 53880.3 18624.3 54071.4 18421.5 L 50982.6 15492.6 Q 49847.7 16869.3 48573.7 18175.8 Q 47298.4 19482.3 46084.2 20498.9 L 46084.2 11712.2 Q 47063.1 11526.3 47042.3 10940 L 43022.7 10540.9 L 43022.7 30961.3 Q 42988.9 32685.1 43774.1 33331.2 Q 44559.3 33977.3 46563.9 33943.5 L 49039.1 33943.5 Q 52237.1 33948.7 53461.7 33463.8 Q 54687.6 32980.2 54630.4 31946.7 Q 54643.4 31533.3 54400.3 31225.2 Q 54158.5 30915.8 53512.4 30642.8 L 53405.8 26489.3 Z M 69566.1 17117.6 L 66265.4 17117.6 L 66265.4 12804.2 L 69566.1 12804.2 L 69566.1 17117.6 Z M 69566.1 17996.4 Q 69625.9 20738.1 69247.6 23639.7 Q 69037 22831.1 68288.2 21945.8 Q 67539.4 21061.8 66131.5 20232.4 Q 66258.9 18987 66265.4 17862.5 L 69566.1 17862.5 L 69566.1 17996.4 Z M 60966.6 17862.5 L 63522.4 17862.5 Q 63556.2 20588.6 63096 23513.6 Q 63083 23579.9 63071.3 23646.2 Q 62591.6 26569.9 60966.6 29177.7 L 60966.6 17862.5 Z M 75823 12058 L 56547.9 12058 L 56759.8 12804.2 L 63522.4 12804.2 L 63522.4 17117.6 L 61207.1 17117.6 L 57905.1 15786.4 L 57905.1 35061.5 L 58410.8 35061.5 Q 59409.2 35026.4 60168.4 34645.5 Q 60927.6 34265.9 60966.6 33970.8 L 60966.6 29550.8 L 61073.2 29657.4 Q 63450.9 27949.2 64565 25802.9 Q 65679.1 23656.6 65998.9 21429.7 Q 66407.1 22439.8 66660.6 23539.6 Q 66915.4 24640.7 66903.7 25689.8 Q 67412 26182.5 67906 26235.8 Q 68398.7 26289.1 68767.9 25983.6 Q 68262.2 27953.1 67116.9 29683.4 L 67409.4 29923.9 Q 69651.9 28300.2 70704.9 26272.2 Q 71757.9 24245.5 72042.6 22122.6 Q 72634.1 23353.7 73011.1 24665.4 Q 73388.1 25975.8 73399.8 27208.2 Q 74461.9 28116.9 75241.9 27555.3 Q 75828.2 27136.7 75949.1 26150 Q 76071.3 25162 75469.4 23872.4 Q 74707.6 22181.1 72228.5 20498.9 Q 72309.1 19206.7 72309.1 17996.4 L 72309.1 17862.5 L 75982.9 17862.5 L 75982.9 31201.8 Q 76036.2 31793.3 75370.6 31786.8 Q 74846.7 31781.6 73758.6 31724.4 Q 72908.4 31680.2 72162.2 31636 Q 71204.1 31578.8 71137.8 31573.6 L 71137.8 31946.7 Q 72311.7 32126.1 72951.3 32390 Q 73590.9 32652.6 73986.1 33011.4 Q 74355.3 33350.7 74525.6 33873.3 Q 74694.6 34397.2 74784.3 35114.8 Q 77345.3 34892.5 78217.6 34104.7 Q 78367.1 33979.9 78484.1 33842.1 Q 79165.3 32964.6 79097.7 31520.3 L 79097.7 18395.5 Q 79936.2 18195.3 80215.7 17836.5 L 77154.2 15492.6 L 75716.4 17117.6 L 72309.1 17117.6 L 72309.1 12804.2 L 80243 12804.2 Q 80848.8 12810.7 81015.2 12377.8 Q 80139 11655 79170.5 10915.3 Q 78861.1 10678.7 78593.3 10475.9 Q 77741.8 9833.7 77687.2 9796 L 75823 12058 Z M 107106.2 13043.4 Q 107731.5 13049.9 107878.4 12618.3 Q 107101 11905.9 106239.1 11176.6 Q 106025.9 10994.6 105834.8 10834.7 Q 105056.1 10183.4 105002.8 10141.8 L 103405.1 12298.5 L 93341.8 12298.5 L 93555 13043.4 L 107106.2 13043.4 Z M 97627.9 19993.2 L 97627.9 16185.5 L 102792.8 16185.5 L 102792.8 19993.2 L 97627.9 19993.2 Z M 103325.8 21883.4 Q 104512.7 21857.4 105166.6 21626 Q 105819.2 21395.9 105828.3 21271.1 L 105828.3 16371.4 Q 106640.8 16205 106813.7 15919 L 104098 13868.9 L 102686.2 15466.6 L 97894.4 15466.6 L 94673 14214.7 L 94673 22229.2 L 95206 22229.2 Q 96335.7 22205.8 96975.3 21962.7 Q 97616.2 21719.6 97627.9 21536.3 L 97627.9 20738.1 L 102792.8 20738.1 L 102792.8 21883.4 L 103325.8 21883.4 Z M 89267.6 15599.2 L 90386.9 15599.2 L 90386.9 26116.2 Q 90412.9 26534.8 90039.8 26515.3 Q 89930.6 26514 89747.3 26504.9 Q 89505.5 26490.6 89267.6 26489.3 L 89267.6 15599.2 Z M 91238.4 13495.8 L 90120.4 14827 L 89534.1 14827 L 89534.1 11287.1 Q 90043.7 11205.2 90253 11014.1 Q 90463.6 10821.7 90493.5 10540.9 L 86579.2 10167.8 L 86579.2 14827 L 85939.6 14827 L 83437.1 13736.3 L 83437.1 29790 L 83837.5 29790 Q 84640.9 29761.4 85211.6 29467.6 Q 85781 29173.8 85807 28964.5 L 85807 15599.2 L 86818.4 15599.2 L 86818.4 34982.2 L 87244.8 34982.2 Q 88050.8 34948.4 88635.8 34655.9 Q 89222.1 34363.4 89267.6 34210 L 89267.6 26941.7 Q 89800.6 27174.4 89933.2 27607.3 Q 90193.2 28213.1 90173.7 29337.6 Q 91798.7 29197.2 92277.1 28462.7 Q 92754.2 27728.2 92702.2 26408.7 L 92702.2 16025.6 Q 93542 15825.4 93821.5 15466.6 L 91238.4 13495.8 Z M 101461.6 32426.4 L 101461.6 28698 L 103991.4 28698 L 103991.4 32426.4 L 101461.6 32426.4 Z M 96483.9 28698 L 98933.1 28698 L 98933.1 32426.4 L 96483.9 32426.4 L 96483.9 28698 Z M 98933.1 24279.3 L 98933.1 27927.1 L 96483.9 27927.1 L 96483.9 24279.3 L 98933.1 24279.3 Z M 103991.4 24279.3 L 103991.4 27927.1 L 101461.6 27927.1 L 101461.6 24279.3 L 103991.4 24279.3 Z M 105269.3 21883.4 L 103858.8 23507.1 L 96802.4 23507.1 L 93608.3 22308.5 L 93608.3 35008.2 L 94140 35008.2 Q 95247.6 34980.9 95861.2 34719.6 Q 96474.8 34457 96483.9 34289.3 L 96483.9 33171.3 L 103991.4 33171.3 L 103991.4 34928.9 L 104497.1 34928.9 Q 105630.7 34899 106293.7 34628.6 Q 106958 34359.5 106973.6 34210 L 106973.6 24492.5 Q 107812.1 24339.1 108011 23986.8 L 105269.3 21883.4 Z M 117250.1 17170.9 Q 118112 17099.4 118694.4 16897.9 Q 119276.8 16696.4 119300.2 16505.3 L 119300.2 14214.7 L 124198.6 14214.7 L 124198.6 17090.3 L 124704.3 17090.3 Q 125774.2 17051.3 126515.2 16808.2 Q 127256.2 16563.8 127287.4 16345.4 L 127287.4 14214.7 L 133570.3 14214.7 Q 134203.4 14221.2 134316.5 13789.6 Q 133584.6 13088.9 132725.3 12359.6 Q 132482.2 12151.6 132265.1 11969.6 Q 131494.2 11327.4 131440.9 11287.1 L 129789.9 13469.8 L 127287.4 13469.8 L 127287.4 11099.9 Q 127813.9 11019.3 128016.7 10843.8 Q 128218.2 10668.3 128245.5 10408.3 L 124198.6 10035.2 L 124198.6 13469.8 L 119300.2 13469.8 L 119300.2 11099.9 Q 119809.8 11019.3 120015.2 10843.8 Q 120220.6 10668.3 120232.3 10408.3 L 116264.7 10035.2 L 116264.7 13469.8 L 109422.8 13469.8 L 109608.7 14214.7 L 116264.7 14214.7 L 116264.7 16717.2 L 115865.6 16531.3 Q 114647.5 19807.3 112830.1 22578.9 Q 111014 25349.2 109077 27127.6 L 109316.2 27394.1 Q 111938.3 26176 114241.9 24198.7 L 114241.9 35008.2 L 114826.9 35008.2 Q 115727.8 34979.6 116474 34702.7 Q 117221.5 34424.5 117303.4 34236 L 117303.4 22760.9 Q 118015.8 22621.8 118128.9 22282.5 L 116663.8 21723.5 Q 117768.8 20411.8 118713.9 18820.6 Q 119666.8 18907.7 119859.2 18395.5 L 117250.1 17170.9 Z M 133038.6 27287.5 L 132718.8 27287.5 Q 132337.9 28626.5 132023.3 29621 Q 131707.4 30614.2 131466.9 31014.6 Q 131214.7 31421.5 130722 31387.7 Q 130082.4 31434.5 128644.6 31441 L 126142.1 31441 Q 125479.1 31446.2 125243.8 31281.1 Q 125009.8 31116 125024.1 30722.1 L 125024.1 25557.2 Q 126853.2 24856.5 128652.4 23906.2 Q 130450.3 22955.9 132079.2 21776.8 Q 132971 22095.3 133303.8 21696.2 L 130295.6 18873.9 Q 127859.4 21376.4 125024.1 23400.5 L 125024.1 18261.6 Q 125902.9 18122.5 125902.9 17542.7 L 121962.6 17170.9 L 121962.6 25423.3 Q 120491 26308.6 119140.3 26914.4 L 119272.9 27234.2 Q 120558.6 26995 121962.6 26595.9 L 121962.6 31441 Q 121922.3 33066 122684.1 33667.9 Q 123447.2 34268.5 125503.8 34236 L 128352.1 34236 Q 131742.5 34247.7 133021.7 33830.4 Q 134299.6 33413.1 134235.9 32426.4 Q 134248.9 32013 134007.1 31720.5 Q 133764 31428 133117.9 31174.5 L 133038.6 27287.5 Z M 150423.5 28672 L 136445.9 28672 L 136631.8 29444.2 L 154177.9 29444.2 Q 154809.7 29450.7 154922.8 29017.8 Q 154150.6 28327.5 153283.5 27607.3 Q 153056 27418.8 152854.5 27251.1 Q 152074.5 26610.2 152021.2 26568.6 L 150423.5 28672 Z M 157824.4 22122.6 L 156174.7 23693 L 143101.9 23693 L 143101.9 14028.8 L 153352.4 14028.8 Q 153066.4 19334.1 152260.4 20045.2 Q 152109.6 20163.5 151927.6 20211.6 Q 151746.9 20261 151434.9 20258.4 Q 151000.7 20257.1 150077.7 20205.1 Q 149153.4 20154.4 148400.7 20072.5 L 148400.7 20418.3 Q 150011.4 20738.1 150662.7 21376.4 Q 150955.2 21691 151052.7 22099.2 Q 151150.2 22507.4 151142.4 23080.7 Q 152237 23092.4 153075.5 22937.7 Q 153915.3 22784.3 154549.7 22335.8 Q 155450.6 21694.9 155880.9 19865.8 Q 156312.5 18038 156493.2 14561.8 Q 157265.4 14401.9 157559.2 14082.1 L 154709.6 11739.5 L 153113.2 13283.9 L 146615.8 13283.9 Q 147186.5 12813.3 147767.6 12307.6 Q 148348.7 11803.2 148799.8 11392.4 Q 149711.1 11385.9 149864.5 10700.8 L 145152 9875.3 Q 145119.5 10283.5 145085.7 10760.6 Q 145040.2 11401.5 144985.6 12061.9 Q 144931 12722.3 144859.5 13283.9 L 143501 13283.9 L 139959.8 11899.4 L 139959.8 23373.2 Q 139481.4 23752.8 139161.6 24172.7 L 142329.7 26009.6 L 143287.8 24465.2 L 156441.2 24465.2 Q 156326.8 27470.8 156094.1 29357.1 Q 155861.4 31244.7 155428.5 31654.2 Q 155169.8 31912.9 154549.7 31893.4 Q 154027.1 31889.5 152767.4 31818 Q 152647.8 31810.2 152524.3 31802.4 Q 151236 31725.7 150103.7 31626.9 L 150103.7 31974 Q 151142.4 32156 152000.4 32442 Q 152859.7 32729.3 153299.1 33092 Q 154077.8 33751.1 154018 35008.2 Q 155379.1 35014.7 156260.5 34805.4 Q 157143.2 34596.1 157745.1 34103.4 Q 158664.2 33355.9 159080.2 31104.3 Q 159494.9 28854 159635.3 24970.9 Q 160414 24831.8 160674 24492.5 L 157824.4 22122.6 Z M 144778.9 15334 Q 145551.1 16075 146306.4 17120.2 Q 147063 18166.7 147415.3 19247 Q 148630.8 19847.6 149439.4 19318.5 Q 150176.5 18838.8 150184.3 17935.3 Q 150190.8 17033.1 149096.2 16214.1 Q 147911.9 15315.8 144966.1 15146.8 L 144778.9 15334 Z M 182905.3 32292.5 L 167276.7 32292.5 L 167276.7 17915.8 Q 168208.8 17749.4 168262.1 17143.6 L 164268.5 16744.5 L 164268.5 31946.7 Q 163662.7 32339.3 163255.8 32772.2 L 166451.2 34449.2 L 167436.6 33064.7 L 182905.3 33064.7 L 182905.3 34982.2 L 183490.3 34982.2 Q 184375.6 34949.7 185121.8 34628.6 Q 185866.7 34307.5 185913.5 34076.1 L 185913.5 17729.9 Q 186402.3 17649.3 186596 17473.8 Q 186789.7 17298.3 186818.3 17037 L 182905.3 16665.2 L 182905.3 32292.5 Z M 176381.9 28166.3 L 176381.9 22468.4 L 178352.7 22468.4 L 178352.7 28166.3 L 176381.9 28166.3 Z M 171802 22468.4 L 173826.1 22468.4 L 173826.1 28166.3 L 171802 28166.3 L 171802 22468.4 Z M 173826.1 16584.6 L 173826.1 21696.2 L 171802 21696.2 L 171802 16584.6 L 173826.1 16584.6 Z M 178352.7 16584.6 L 178352.7 21696.2 L 176381.9 21696.2 L 176381.9 16584.6 L 178352.7 16584.6 Z M 178805.1 30109.8 Q 179535.7 30081.2 180255.9 29803 Q 180976.1 29526.1 181068.4 29337.6 L 181068.4 16983.7 Q 181800.3 16791.3 182052.5 16478 L 179390.1 14427.9 L 178086.2 15839.7 L 171935.9 15839.7 L 169113.6 14641.1 L 169113.6 30536.2 L 169540 30536.2 Q 170431.8 30503.7 171100 30182.6 Q 171768.2 29861.5 171802 29630.1 L 171802 28938.5 L 178352.7 28938.5 L 178352.7 30109.8 L 178805.1 30109.8 Z M 182558.2 12458.4 L 162590.2 12458.4 L 162803.4 13203.3 L 187084.8 13203.3 Q 187677.6 13209.8 187829.7 12776.9 Q 186943.1 12043.7 185957.7 11293.6 Q 185626.2 11041.4 185338.9 10824.3 Q 184478.3 10179.5 184422.4 10141.8 L 182558.2 12458.4 Z M 190226.9 38576.7 Q 192589 37456.1 193613.4 35594.5 Q 193655 35524.3 193694 35454.1 Q 194672.9 33578.2 194645.6 31733.5 Q 194622.2 30346.4 193941 29593.7 Q 193258.5 28841 192196.4 28831.9 Q 191146 28860.5 190545.4 29493.6 Q 189944.8 30126.7 189933.1 31014.6 Q 189996.8 32248.3 190876.9 32864.5 Q 190983.5 32947.7 191096.6 33023.1 Q 192027.4 33579.5 192915.3 33836.9 Q 192800.9 34782 192096.3 35846.7 Q 191393 36912.7 189800.5 37777.2 L 190226.9 38576.7 Z M 221376.2 17330.8 Q 222747.7 14834.8 223799.4 11899.4 Q 224731.5 11878.6 224864.1 11340.4 L 220471.4 10035.2 Q 219764.2 13814.3 218501.9 17378.9 Q 218425.2 17597.3 218347.2 17813.1 Q 217061.5 21340 215599 23880.2 L 215918.8 24092.1 Q 217403.4 22854.5 218687.8 21297.1 L 218687.8 35035.5 L 219272.8 35035.5 Q 220214 35000.4 220964.1 34672.8 Q 221714.2 34343.9 221775.3 34129.4 L 221775.3 18314.9 Q 222502 18169.3 222628.1 17783.2 L 221376.2 17330.8 Z M 239746.5 16691.2 Q 240326.3 16697.7 240465.4 16264.8 Q 239721.8 15534.2 238852.1 14778.9 Q 238594.7 14554 238367.2 14359 Q 237591.1 13697.3 237537.8 13655.7 L 235940.1 15919 L 232851.3 15919 L 232851.3 11287.1 Q 233380.4 11205.2 233593.6 11010.2 Q 233806.8 10815.2 233836.7 10514.9 L 229736.5 10114.5 L 229736.5 15919 L 222867.3 15919 L 223080.5 16691.2 L 228245.4 16691.2 Q 227443.3 20344.2 225882 23863.3 Q 224322 27381.1 222041.8 30056.5 L 222335.6 30349 Q 227174.2 26801.3 229736.5 21616.9 L 229736.5 28857.9 L 225768.9 28857.9 L 225956.1 29604.1 L 229736.5 29604.1 L 229736.5 35142.1 L 230322.8 35142.1 Q 231266.6 35103.1 232036.2 34715.7 Q 232805.8 34328.3 232851.3 34050.1 L 232851.3 29604.1 L 236578.4 29604.1 Q 237158.2 29610.6 237297.3 29177.7 Q 236634.3 28470.5 235864.7 27746.4 Q 235703.5 27593 235556.6 27455.2 Q 234846.8 26798.7 234794.8 26754.5 L 233384.3 28857.9 L 232851.3 28857.9 L 232851.3 16691.2 L 232904.6 16691.2 Q 233671.6 21150.2 235050.9 24531.5 Q 236431.5 27912.8 238575.2 30135.8 Q 238945.7 29034.7 239630.8 28373 Q 240315.9 27710 241184.3 27526.7 L 241290.9 27261.5 Q 238818.3 25747 236729.2 22994.9 Q 234638.8 20242.8 233384.3 16691.2 L 239746.5 16691.2 Z M 261499.4 24092.1 L 243740.1 24092.1 L 243953.3 24838.3 L 252712.7 24838.3 Q 251954.8 26068.1 250578.1 27551.4 Q 249889.1 28289.8 249140.3 28971 Q 247642.7 30342.5 246297.2 31014.6 Q 246007.3 31136.8 245674.5 31208.3 Q 245340.4 31279.8 245311.8 31281.1 L 246615.7 34901.6 Q 247029.1 34735.2 247361.9 34289.3 Q 251693.5 33627.6 255215.2 33021.8 Q 258738.2 32414.7 261232.9 31893.4 Q 262178 33264.9 262724 34555.8 Q 264031.8 35269.5 264796.2 34614.3 Q 265525.5 33990.3 265282.4 32665.6 Q 265040.6 31340.9 263364.9 29856.3 Q 261619 28302.8 257798.3 27180.9 L 257559.1 27366.8 Q 258309.2 28174.1 259146.4 29154.3 Q 259982.3 30135.8 260753.2 31201.8 Q 257037.8 31301.9 253770.9 31357.8 Q 250505.3 31413.7 248187.4 31413.7 Q 250299.9 30502.4 252353.9 29311.6 Q 254406.6 28119.5 255720.9 27048.3 Q 256546.4 27114.6 256733.6 26701.2 L 253405.6 24838.3 L 265785.5 24838.3 Q 266397.8 24844.8 266530.4 24411.9 Q 265689.3 23689.1 264740.3 22949.4 Q 264437.4 22712.8 264173.5 22510 Q 263337.6 21867.8 263283 21830.1 L 261499.4 24092.1 Z M 257105.4 19539.5 L 248320 19539.5 L 248533.2 20311.7 L 260859.8 20311.7 Q 261491.6 20318.2 261606 19886.6 Q 260794.8 19183.3 259914.7 18499.5 Q 259731.4 18355.2 259563.7 18225.2 Q 258759 17607.7 258703.1 17570 L 257105.4 19539.5 Z M 253085.8 9875.3 Q 252390.3 11912.4 250562.5 14295.3 Q 249054.5 16267.4 247122.7 18110.8 Q 244786.6 20341.6 242355.6 21856.1 L 242542.8 22201.9 Q 245746 20883.7 248808.8 18760.8 Q 250203.7 17794.9 251463.4 16727.6 Q 254235 14386.3 255880.8 11899.4 Q 257208.1 14993.4 259698.9 17313.9 Q 262188.4 19634.4 265252.5 21190.5 Q 265421.5 20300 266037.7 19520 Q 266655.2 18740 267622.4 18448.8 L 267675.7 18022.4 Q 264878.1 17221.6 262077.9 15912.5 Q 261347.3 15560.2 260651.8 15166.3 Q 257986.8 13701.2 256333.2 11579.6 Q 257512.3 11506.8 257612.4 10993.3 L 253085.8 9875.3 Z M 287297.9 14854.3 L 293288.3 14854.3 Q 293887.6 14860.8 294007.2 14427.9 Q 293290.9 13710.3 292412.1 12956.3 Q 292118.3 12701.5 291858.3 12483.1 Q 291079.6 11831.8 291025 11792.8 L 289401.3 14108.1 L 287297.9 14108.1 L 287297.9 11233.8 Q 287804.9 11150.6 288002.5 10963.4 Q 288201.4 10776.2 288230 10514.9 L 284183.1 10141.8 L 284183.1 14108.1 L 279044.2 14108.1 L 279044.2 11233.8 Q 279989.3 11053.1 279976.3 10514.9 L 275982.7 10141.8 L 275982.7 14108.1 L 269433.3 14108.1 L 269619.2 14854.3 L 275982.7 14854.3 L 275982.7 18662 L 276461.1 18662 Q 277462.1 18641.2 278231.7 18385.1 Q 279002.6 18130.3 279044.2 17889.8 L 279044.2 14854.3 L 284183.1 14854.3 L 284183.1 18528.1 L 284688.8 18528.1 Q 285633.9 18508.6 286338.5 18288.9 L 284928 19726.7 L 271961.8 19726.7 L 272202.3 20498.9 L 284076.5 20498.9 Q 281999.1 21841.8 280227.2 22953.3 Q 276089.3 25484.4 273907.9 27261.5 Q 273889.7 27275.8 273872.8 27291.4 Q 271709.6 29064.6 271935.8 30775.4 Q 272086.6 32442 273805.2 33335.1 Q 275525.1 34226.9 279150.8 34236 L 286579 34236 Q 290193 34242.5 291870 33730.3 Q 293547 33218.1 293527.5 32106.6 Q 293544.4 31629.5 293218.1 31377.3 Q 292890.5 31125.1 292010.4 30828.7 L 292117 26807.8 L 291797.2 26781.8 Q 291097.8 29663.9 290278.8 30748.1 Q 290090.3 31044.5 289320.7 31164.1 Q 288552.4 31285 286605 31281.1 L 279283.4 31281.1 Q 277538.8 31295.4 276561.2 31084.8 Q 275584.9 30874.2 275477 30269.7 Q 275308 29436.4 278329.2 27374.6 Q 281349.1 25312.8 287910.2 21483 Q 289088 21437.5 289507.9 21030.6 L 286472.4 18261.6 Q 287264.1 17975.6 287297.9 17729.9 L 287297.9 14854.3 Z M 311366.1 11020.6 Q 312191.6 11683.6 312913.1 12678.1 Q 313634.6 13671.3 313921.9 14694.4 Q 315072.4 15324.9 315852.4 14821.8 Q 316566.1 14364.2 316580.4 13482.8 Q 316594.7 12601.4 315539.1 11813.6 Q 314400.3 10951.7 311552 10833.4 L 311366.1 11020.6 Z M 320125.5 17570 Q 320750.8 17576.5 320896.4 17143.6 Q 320060.5 16387 319101.1 15583.6 Q 318737.1 15278.1 318426.4 15020.7 Q 317595.7 14335.6 317542.4 14295.3 L 315652.2 16823.8 L 309741.1 16823.8 L 309741.1 11233.8 Q 310270.2 11151.9 310483.4 10960.8 Q 310697.9 10768.4 310726.5 10487.6 L 306573 10061.2 L 306573 16823.8 L 296083.3 16823.8 L 296322.5 17570 L 304842.7 17570 Q 303805.3 21606.5 301626.5 25505.2 Q 301317.1 26052.5 300986.9 26586.8 Q 298657.3 30402.3 295364.4 33171.3 L 295630.9 33463.8 Q 299325.5 31457.9 302060.7 28731.8 Q 304795.9 26005.7 306573 22681.6 L 306573 35008.2 L 307159.3 35008.2 Q 308107 34970.5 308900 34583.1 Q 309693 34194.4 309741.1 33917.5 L 309741.1 17570 L 309794.4 17570 Q 310688.8 23127.5 312686.9 26848.1 Q 314685 30568.7 317834.9 33092 Q 318304.2 31948 319112.8 31294.1 Q 319921.4 30640.2 320949.7 30536.2 L 321056.3 30242.4 Q 317621.7 28569.3 314790.3 25679.4 Q 314521.2 25397.3 314262.5 25102.2 Q 311529.9 22081 310246.8 17570 L 320125.5 17570 Z M 342302.2 18714 Q 341195.9 19754 339420.1 21083.9 Q 337645.6 22413.8 335780.1 23533.1 Q 334754.4 21915.9 333090.4 20578.2 Q 334835 19513.5 336099.9 18288.9 L 343048.4 18288.9 Q 343647.7 18295.4 343767.3 17862.5 Q 343454 17583 343101.7 17303.5 Q 343905.1 16862.8 344759.2 16232.3 Q 345612 15601.8 346216.5 15040.2 Q 346982.2 15040.2 347227.9 14720.4 L 344458.9 12085.3 L 342888.5 13683 L 335806.1 13683 Q 336687.5 13278.7 336830.5 12375.2 Q 336968.3 11489.9 335958.2 10764.5 Q 334932.5 10023.5 332264.9 10114.5 L 332079 10274.4 Q 332760.2 10797 333290.6 11658.9 Q 333821 12520.8 333943.2 13442.5 Q 334182.4 13602.4 334421.6 13683 L 326461.7 13683 Q 326327.8 12977.1 326035.3 12191.9 L 325662.2 12191.9 Q 325664.8 13311.2 325073.3 14201.7 Q 324481.8 15092.2 323746 15492.6 Q 323146.7 15795.5 322826.9 16318.1 Q 322508.4 16840.7 322707.3 17542.7 Q 323029.7 18281.1 323772 18444.9 Q 324514.3 18608.7 325156.5 18208.3 Q 325855.9 17765 326274.5 16810.8 Q 326694.4 15857.9 326594.3 14455.2 L 343127.7 14455.2 Q 343067.9 15106.5 342991.2 15799.4 Q 342915.8 16491 342835.2 17064.3 Q 342064.3 16440.3 341467.6 15965.8 Q 340870.9 15491.3 340838.4 15466.6 L 339187.4 17542.7 L 326434.4 17542.7 L 326647.6 18288.9 L 331786.5 18288.9 Q 330282.4 19837.2 328175.1 21356.9 Q 326067.8 22876.6 323665.4 23986.8 L 323852.6 24305.3 Q 326222.5 23722.9 328428.6 22864.9 Q 330633.4 22006.9 332505.4 20924 L 332718.6 21243.8 Q 331200.2 23166.5 328878.4 25025.5 Q 328596.3 25251.7 328306.4 25472.7 Q 325930 27287.5 323453.5 28458.8 L 323612.1 28804.6 Q 326455.2 28041.5 329196.9 26828.6 Q 331939.9 25615.7 334022.5 24252 Q 334135.6 24604.3 334208.4 24917.6 L 334208.4 24917.6 Q 332333.8 27330.4 329434.8 29403.9 Q 329191.7 29578.1 328943.4 29748.4 Q 325987.2 31771.2 322734.6 32958.1 L 322920.5 33357.2 Q 326152.3 32681.2 329200.8 31454 Q 332248 30228.1 334662.1 28672 Q 334638.7 29700.3 334472.3 30489.4 Q 334304.6 31277.2 334022.5 31707.5 Q 333815.8 32033.8 333250.3 32000 Q 332713.4 31996.1 331663 31933.7 Q 330612.6 31870 329736.4 31786.8 L 329762.4 32106.6 Q 330551.5 32310.7 331140.4 32569.4 Q 331729.3 32828.1 331999.7 33092 Q 332597.7 33743.3 332638 35035.5 Q 335494.1 35121.3 336552.3 33890.2 Q 337496.1 32695.5 337626.1 30428.3 Q 337658.6 29775.7 337605.3 29073.7 Q 337444.1 26636.2 336125.9 24119.4 Q 336964.4 23959.5 337802.9 23720.3 Q 338722 27197.8 340458.8 29478 Q 342195.6 31756.9 344752.7 33277.9 Q 345457.3 31027.6 347281.2 30615.5 L 347334.5 30323 Q 344509.6 29485.8 342122.8 27859.5 Q 339737.3 26234.5 338389.2 23560.4 Q 340141.6 23093.7 341719.8 22551.6 Q 343298 22010.8 344512.2 21483 Q 344942.5 21615.6 345168.7 21553.2 Q 345393.6 21490.8 345523.6 21324.4 L 342302.2 18714 Z M 357371.8 17037 Q 357204.1 19639.6 356766 22062.8 Q 356329.2 24486 355481.6 26649.2 Q 354084.1 26088.9 352286.2 25529.9 Q 352911.5 23643.6 353542 21433.6 Q 354171.2 19223.6 354736.7 17037 L 357371.8 17037 Z M 357132.6 16264.8 L 354948.6 16264.8 Q 355311.3 14798.4 355614.2 13525.7 Q 355917.1 12254.3 356121.2 11287.1 Q 356701 11222.1 356912.9 11044 Q 357123.5 10864.6 357185.9 10621.5 L 353192.3 10061.2 Q 353046.7 11123.3 352732.1 12744.4 Q 352418.8 14365.5 351993.7 16264.8 L 348904.9 16264.8 L 349145.4 17037 L 351807.8 17037 Q 351257.9 19416 350652.1 21619.5 Q 350047.6 23824.3 349517.2 25344 Q 350727.5 26005.7 352006.7 26867.6 Q 353287.2 27730.8 354496.2 28751.3 Q 353548.5 30514.1 352160.1 32006.5 Q 350773 33498.9 348825.6 34662.4 L 349038.8 35008.2 Q 353691.5 33145.3 356067.9 30163.1 Q 357405.6 31474.8 358223.3 32744.9 Q 359280.2 33292.2 360146 32842.4 Q 360699.8 32551.2 360896.1 31940.2 Q 361092.4 31329.2 360710.2 30494.6 Q 360172 29229.7 357717.6 27739.9 Q 358914.9 25472.7 359522 22890.9 Q 360129.1 20309.1 360407.3 17542.7 Q 361232.8 17463.4 361418.7 17064.3 L 358649.7 14641.1 L 357132.6 16264.8 Z M 365199.1 29550.8 L 365199.1 15174.1 L 369379.9 15174.1 L 369379.9 29550.8 L 365199.1 29550.8 Z M 370630.5 12723.6 L 369086.1 14427.9 L 365305.7 14427.9 L 362137.6 13070.7 L 362137.6 34103.4 L 362643.3 34103.4 Q 363693.7 34069.6 364430.8 33697.8 Q 365166.6 33324.7 365199.1 33011.4 L 365199.1 30323 L 369379.9 30323 L 369379.9 33384.5 L 369885.6 33384.5 Q 370808.6 33339 371625 32933.4 L 371645.8 32923 Q 372457 32516.1 372548 32292.5 L 372548 15733.1 Q 373386.5 15519.9 373666 15146.8 L 370630.5 12723.6 Z M 380614.5 10009.2 Q 379776 13892.3 378331.7 17464.7 Q 378282.3 17589.5 378231.6 17714.3 Q 376773 21262 375129.8 23773.6 L 375449.6 23986.8 Q 377160.4 22647.8 378671 20870.7 L 378671 35035.5 L 379257.3 35035.5 Q 380215.4 35001.7 380974.6 34668.9 Q 381732.5 34336.1 381813.1 34103.4 L 381813.1 18714 Q 382532 18568.4 382611.3 18182.3 L 381040.9 17596 Q 382638.6 15033.7 383835.9 11872.1 Q 384748.5 11872.1 384900.6 11313.1 L 380614.5 10009.2 Z M 386950.7 25663.8 L 386950.7 18794.6 L 389719.7 18794.6 L 389719.7 25663.8 L 386950.7 25663.8 Z M 392569.3 19353.6 Q 393454.6 19107.9 393740.6 18741.3 L 390811.7 16478 L 389427.2 18022.4 L 387084.6 18022.4 L 384181.7 16851.1 L 384181.7 28831.9 L 384608.1 28831.9 Q 385506.4 28800.7 386208.4 28479.6 Q 386911.7 28157.2 386950.7 27927.1 L 386950.7 26436 L 389719.7 26436 L 389719.7 28326.2 L 390172.1 28326.2 Q 390963.8 28296.3 391720.4 28023.3 Q 392477 27749 392569.3 27580 L 392569.3 19353.6 Z M 395816.7 13495.8 L 383543.4 13495.8 L 383756.6 14242 L 394965.2 14242 L 394965.2 30988.6 Q 395005.5 31513.8 394325.6 31520.3 Q 393861.5 31516.4 392803.3 31467 Q 391959.6 31428 391209.5 31387.7 Q 390267 31338.3 390199.4 31334.4 L 390199.4 31680.2 Q 391394.1 31860.9 392029.8 32136.5 Q 392665.5 32412.1 393021.7 32772.2 Q 393713.3 33484.6 393766.6 35035.5 Q 396322.4 34836.6 397214.2 33940.9 Q 397398.8 33769.3 397539.2 33576.9 Q 398198.3 32566.8 398133.3 31095.2 L 398133.3 14242 L 400156.1 14242 Q 400768.4 14248.5 400902.3 13815.6 Q 400100.2 13075.9 399161.6 12279 Q 398802.8 11973.5 398494.7 11714.8 Q 397680.9 11034.9 397627.6 10993.3 L 395816.7 13495.8 Z M 416264.4 24785 L 416264.4 19114.4 L 421615.2 19114.4 L 421615.2 24785 L 416264.4 24785 Z M 408196.6 24785 Q 408443.6 22515.2 408409.8 20365 L 408409.8 19114.4 L 413175.6 19114.4 L 413175.6 24785 L 408196.6 24785 Z M 413175.6 12883.5 L 413175.6 18342.2 L 408409.8 18342.2 L 408409.8 12883.5 L 413175.6 12883.5 Z M 421615.2 12883.5 L 421615.2 18342.2 L 416264.4 18342.2 L 416264.4 12883.5 L 421615.2 12883.5 Z M 422813.8 10381 L 421322.7 12138.6 L 408889.5 12138.6 L 405322.3 10860.7 L 405322.3 20392.3 Q 405382.1 23968.6 404905 27427.9 Q 404836.1 27871.2 404751.6 28309.3 Q 404153.6 31727 402206.2 34609.1 L 402500 34822.3 Q 405213.1 32919.1 406483.2 30515.4 Q 407753.3 28113 408090 25529.9 L 413175.6 25529.9 L 413175.6 34688.4 L 413734.6 34688.4 Q 414941 34653.3 415598.8 34333.5 Q 416255.3 34012.4 416264.4 33836.9 L 416264.4 25529.9 L 421615.2 25529.9 L 421615.2 30801.4 Q 421662 31360.4 421030.2 31360.4 Q 420654.5 31355.2 419754.9 31299.3 Q 419249.2 31268.1 418785.1 31236.9 Q 417955.7 31179.7 417888.1 31174.5 L 417888.1 31547.6 Q 418830.6 31727 419349.3 31987 Q 419868 32245.7 420151.4 32586.3 Q 420663.6 33284.4 420736.4 34741.7 Q 423154.4 34520.7 423948.7 33723.8 Q 424067 33613.3 424163.2 33492.4 Q 424797.6 32613.6 424730 31121.2 L 424730 13495.8 Q 425649.1 13256.6 425928.6 12857.5 L 422813.8 10381 Z M 434820.6 17862.5 Q 436544.4 15187.1 437909.4 11952.7 Q 438781.7 11965.7 438974.1 11419.7 L 434741.3 10009.2 Q 433755.9 13875.4 432192 17445.2 Q 432042.5 17787.1 431890.4 18123.8 Q 430292.7 21627.3 428565 24066.1 L 428883.5 24305.3 Q 430720.4 22948.1 432318.1 21111.2 L 432318.1 35035.5 L 432904.4 35035.5 Q 433862.5 35000.4 434621.7 34672.8 Q 435379.6 34343.9 435460.2 34129.4 L 435460.2 18927.2 Q 436192.1 18760.8 436285.7 18395.5 L 434820.6 17862.5 Z M 453298.8 16478 Q 453890.3 16484.5 454043.7 16051.6 Q 453218.2 15343.1 452292.6 14598.2 Q 452001.4 14364.2 451746.6 14160.1 Q 450928.9 13510.1 450875.6 13469.8 L 449118 15759.1 L 442861.1 15759.1 Q 443927.1 14028.8 444831.9 12058 Q 445736.7 12104.8 445923.9 11552.3 L 441636.5 10035.2 Q 440723.9 13545.2 439280.9 16805.6 Q 439214.6 16957.7 439147 17108.5 Q 437689.7 20340.3 436151.8 22602.3 L 436445.6 22814.2 Q 439806.1 20405.3 442408.7 16478 L 443048.3 16478 L 443048.3 35008.2 L 443633.3 35008.2 Q 444881.3 34974.4 445570.3 34666.3 Q 446259.3 34356.9 446269.7 34182.7 L 446269.7 27953.1 L 452765.8 27953.1 Q 453391.1 27959.6 453538 27526.7 Q 452695.6 26800 451763.5 26040.8 Q 451472.3 25801.6 451216.2 25594.9 Q 450397.2 24931.9 450342.6 24891.6 L 448559 27208.2 L 446269.7 27208.2 L 446269.7 22175.9 L 452260.1 22175.9 Q 452851.6 22182.4 453005 21749.5 Q 452196.4 21041 451307.2 20314.3 Q 451078.4 20127.1 450874.3 19960.7 Q 450077.4 19314.6 450022.8 19274.3 L 448399.1 21403.7 L 446269.7 21403.7 L 446269.7 16478 L 453298.8 16478 Z M 471801.7 12723.6 L 471801.7 18794.6 L 464134.3 18794.6 L 464134.3 12723.6 L 471801.7 12723.6 Z M 464134.3 19539.5 L 471801.7 19539.5 L 471801.7 21696.2 L 472334.7 21696.2 Q 473186.2 21663.7 474015.6 21355.6 L 474041.6 21345.2 Q 474864.5 21035.8 474943.8 20844.7 L 474943.8 13230.6 Q 475788.8 13030.4 476034.5 12671.6 L 473000.3 10355 L 471535.2 11952.7 L 464294.2 11952.7 L 460992.2 10647.5 L 460992.2 21936.7 L 461471.9 21936.7 Q 462493.7 21901.6 463291.9 21553.2 Q 464090.1 21204.8 464134.3 20951.3 L 464134.3 19539.5 Z M 459820.9 31334.4 L 459820.9 24332.6 L 463707.9 24332.6 L 463707.9 31334.4 L 459820.9 31334.4 Z M 463441.4 23560.4 L 459954.8 23560.4 L 456866 22335.8 L 456866 34795 L 457318.4 34795 Q 458279.1 34761.2 459029.2 34412.8 Q 459779.3 34064.4 459820.9 33810.9 L 459820.9 32106.6 L 463707.9 32106.6 L 463707.9 34316.6 L 464213.6 34316.6 Q 465027.4 34281.5 465826.9 33960.4 Q 465834.7 33956.5 465842.5 33953.9 Q 466638.1 33631.5 466716.1 33437.8 L 466716.1 24811 Q 467528.6 24625.1 467782.1 24279.3 L 464825.9 22042 L 463441.4 23560.4 Z M 472068.2 31334.4 L 472068.2 24332.6 L 476168.4 24332.6 L 476168.4 31334.4 L 472068.2 31334.4 Z M 477339.7 22016 L 475901.9 23560.4 L 472200.8 23560.4 L 469113.3 22335.8 L 469113.3 34822.3 L 469565.7 34822.3 Q 470543.3 34788.5 471285.6 34438.8 Q 472029.2 34090.4 472068.2 33836.9 L 472068.2 32106.6 L 476168.4 32106.6 L 476168.4 34449.2 L 476674.1 34449.2 Q 477490.5 34421.9 478314.7 34145 Q 478321.2 34143.7 478329 34141.1 Q 479148 33864.2 479229.9 33677 L 479229.9 24838.3 Q 480035.9 24618.6 480321.9 24279.3 L 477339.7 22016 Z M 502978.3 22095.3 Q 502371.2 23066.4 501335.1 24305.3 Q 500297.7 25545.5 499171.9 26675.2 Q 497247.9 24744.7 496162.4 21616.9 L 506120.4 21616.9 Q 506713.2 21623.4 506865.3 21190.5 Q 506081.4 20454.7 505196.1 19704.6 Q 504947.8 19494 504729.4 19309.4 Q 503937.7 18649 503884.4 18608.7 L 502206.1 20844.7 L 496189.7 20844.7 L 496189.7 17729.9 L 504096.3 17729.9 Q 504689.1 17736.4 504842.5 17303.5 Q 504087.2 16596.3 503225.3 15872.2 Q 502999.1 15681.1 502797.6 15512.1 Q 502021.5 14868.6 501966.9 14827 L 500396.5 16983.7 L 496189.7 16983.7 L 496189.7 14028.8 L 505135 14028.8 Q 505714.8 14035.3 505853.9 13602.4 Q 505084.3 12880.9 504210.7 12143.8 Q 503974.1 11942.3 503763.5 11766.8 Q 502979.6 11114.2 502925 11073.9 L 501301.3 13256.6 L 496189.7 13256.6 L 496189.7 11020.6 Q 496700.6 10938.7 496921.6 10747.6 Q 497142.6 10556.5 497175.1 10274.4 L 492968.3 9928.6 L 492968.3 13256.6 L 483809.8 13256.6 L 484049 14028.8 L 492968.3 14028.8 L 492968.3 16983.7 L 485113.7 16983.7 L 485326.9 17729.9 L 492968.3 17729.9 L 492968.3 20844.7 L 482478.6 20844.7 L 482690.5 21616.9 L 491210.7 21616.9 Q 489687.1 23769.7 487280.8 25783.4 Q 484873.2 27797.1 481892.3 29231 L 482052.2 29576.8 Q 485646.7 28618.7 488680.9 27101.6 L 488680.9 30775.4 Q 488708.2 31117.3 488435.2 31424.1 Q 488162.2 31730.9 487270.4 32213.2 L 489320.5 35354 Q 489613 35155.1 489906.8 34795 Q 492444.4 33314.3 494432.1 32033.8 Q 496421.1 30752 497600.2 29949.9 L 497493.6 29657.4 Q 495507.2 30209.9 493667.7 30706.5 Q 492707 30966.5 491850.3 31201.8 L 491850.3 25264.7 Q 494152.6 23693 495656.7 21723.5 Q 496683.7 26637.5 498898.9 29723.7 Q 501112.8 32809.9 504655.3 34289.3 Q 504949.1 32040.3 507159.1 30908 L 507212.4 30536.2 Q 505088.2 30165.7 503208.4 29377.9 Q 501328.6 28588.8 499784.2 27261.5 Q 501405.3 26706.4 502922.4 26022.6 Q 504438.2 25338.8 505561.4 24704.4 Q 505991.7 24798 506214 24712.2 Q 506435 24625.1 506546.8 24439.2 L 502978.3 22095.3 Z M 516796 17649.3 L 522813.7 17649.3 Q 522612.2 21329.6 521394.1 24070 Q 521260.2 24357.3 521110.7 24636.8 Q 519741.8 27292.7 516503.5 29284.3 L 516770 29657.4 Q 520688.2 28344.4 522679.8 26361.9 Q 524672.7 24380.7 525395.5 21670.2 Q 526912.6 23340.7 528294.5 25271.2 Q 529676.4 27200.4 530455.1 28991.8 Q 531824 29792.6 532628.7 29138.7 Q 533386.6 28525.1 533163 27127.6 Q 532939.4 25731.4 531271.5 24059.6 Q 529512.6 22287.7 525608.7 20791.4 Q 525915.5 19300.3 526061.1 17649.3 L 533170.8 17649.3 Q 533762.3 17655.8 533915.7 17224.2 Q 533134.4 16488.4 532251.7 15731.8 Q 531998.2 15513.4 531774.6 15322.3 Q 530986.8 14655.4 530933.5 14615.1 L 529309.8 16904.4 L 526088.4 16904.4 Q 526235.3 14782.8 526276.9 12345.3 Q 526288.6 11864.3 526301.6 11366.4 Q 527199.9 11219.5 527259.7 10594.2 L 522973.6 10248.4 Q 522964.5 11149.3 522960.6 12002.1 Q 522968.4 14647.6 522839.7 16904.4 L 516582.8 16904.4 L 516796 17649.3 Z M 510060.7 10700.8 Q 510969.4 11887.7 511794.9 13399.6 Q 512619.1 14911.5 512989.6 16398.7 Q 514203.8 17209.9 515056.6 16697.7 Q 515856.1 16219.3 515880.8 15097.4 Q 515905.5 13975.5 514714.7 12730.1 Q 513457.6 11404.1 510327.2 10540.9 L 510060.7 10700.8 Z M 515492.1 20924 Q 516569.8 20731.6 516849.3 20339 L 513574.6 17702.6 L 512030.2 19752.7 L 508915.4 19752.7 L 509075.3 20498.9 L 512430.6 20498.9 L 512430.6 29337.6 Q 512060.1 29559.9 511659.7 29801.7 Q 510874.5 30277.5 510073.7 30752 Q 509274.2 31226.5 508595.6 31600.9 L 510673 34848.3 Q 511072.1 34628.6 510992.8 34210 Q 511416.6 33543.1 511928.8 32800.8 Q 512442.3 32058.5 512932.4 31365.6 Q 513668.2 30329.5 514054.3 29736.7 Q 514150.5 29591.1 514258.4 29502.7 Q 514290.9 29472.8 514320.8 29444.2 L 514639.3 29363.6 Q 514839.5 29410.4 515039.7 29736.7 Q 516442.4 31953.2 518339.1 33053 Q 518736.9 33277.9 519173.7 33462.5 Q 521268 34356.9 524810.5 34342.6 L 531839.6 34342.6 Q 531921.5 33367.6 532428.5 32655.2 Q 532934.2 31944.1 533836.4 31707.5 L 533836.4 31387.7 Q 531709.6 31504.7 529781.7 31541.1 Q 527855.1 31577.5 525768.6 31573.6 Q 521834.8 31606.1 519461 31036.7 Q 519411.6 31025 519363.5 31013.3 Q 517013.1 30428.3 515492.1 28857.9 L 515492.1 20924 Z M 559394.4 13389.2 Q 560021 13397 560166.6 12964.1 Q 559298.2 12227 558303.7 11449.6 Q 557920.2 11148 557591.3 10894.5 Q 556734.6 10234.1 556678.7 10195.1 L 554762.5 12644.3 L 535566.7 12644.3 L 535779.9 13389.2 L 546748 13389.2 Q 545692.4 16900.5 543379.7 20571.7 Q 542402.1 22123.9 541251.6 23617.6 Q 538535.9 27149.7 535193.6 29870.6 L 535406.8 30082.5 Q 538569.7 28427.6 541284.1 26163 Q 543997.2 23898.4 546163 21243.8 L 546163 35035.5 L 546748 35035.5 Q 547677.5 35009.5 548482.2 34758.6 Q 549286.9 34509 549357.1 34342.6 L 549357.1 19087.1 Q 550090.3 18954.5 550182.6 18581.4 L 548531.6 17969.1 Q 549969.4 15718.8 550928.8 13389.2 L 559394.4 13389.2 Z M 550209.9 20365 Q 552010.4 21672.8 553883.7 23498 Q 554366 23972.5 554823.6 24461.3 Q 556603.3 26346.3 557610.8 28166.3 Q 558986.2 28769.5 559686.9 28024.6 Q 560388.9 27278.4 559900.1 25809.4 Q 559891 25783.4 559880.6 25757.4 Q 559365.8 24280.6 557137.6 22715.4 Q 554908.1 21151.5 550449.1 20125.8 L 550209.9 20365 Z M 576646.7 16424.7 L 568021.2 16424.7 L 568234.4 17170.9 L 580454.4 17170.9 Q 581079.7 17177.4 581226.6 16744.5 Q 580437.5 16093.2 579548.3 15404.2 Q 579309.1 15218.3 579097.2 15054.5 Q 578299 14440.9 578244.4 14401.9 L 576646.7 16424.7 Z M 572228 26248.8 L 572228 21217.8 L 576486.8 21217.8 L 576486.8 26248.8 L 572228 26248.8 Z M 579443 21616.9 Q 580141.1 21457 580401.1 21137.2 L 577578.8 18980.5 L 576221.6 20445.6 L 572360.6 20445.6 L 569352.4 19247 L 569352.4 30082.5 L 569778.8 30082.5 Q 570735.6 30050 571462.3 29734.1 Q 572189 29416.9 572228 29205 L 572228 26995 L 576486.8 26995 L 576486.8 29470.2 L 576993.8 29470.2 Q 577768.6 29439 578560.3 29140 Q 578566.8 29137.4 578574.6 29136.1 Q 579362.4 28835.8 579443 28646 L 579443 21616.9 Z M 583330 10568.2 L 581892.2 12217.9 L 566982.5 12217.9 L 563707.8 10860.7 L 563707.8 35061.5 L 564240.8 35061.5 Q 565235.3 35026.4 565971.1 34626 Q 566706.9 34225.6 566743.3 33890.2 L 566743.3 12990.1 L 582158.7 12990.1 L 582158.7 31281.1 Q 582212 31899.9 581465.8 31920.7 Q 580995.2 31915.5 579909.7 31853.1 Q 578980.2 31799.8 578157.3 31747.8 Q 577194 31685.4 577126.4 31680.2 L 577126.4 32053.3 Q 578319.8 32215.8 578980.2 32479.7 Q 579639.3 32742.3 580055.3 33064.7 Q 580425.8 33402.7 580607.8 33909.7 Q 580788.5 34418 580880.8 35114.8 Q 583457.4 34874.3 584337.5 34086.5 Q 584474 33973.4 584584.5 33847.3 Q 585287.8 32980.2 585220.2 31547.6 L 585220.2 13495.8 Q 586045.7 13296.9 586312.2 12936.8 L 583330 10568.2 Z M 590225.2 14854.3 Q 590298 16299.9 589896.3 17655.8 Q 589494.6 19013 588947.3 19699.4 Q 588517 20110.2 588375.3 20612 Q 588233.6 21112.5 588520.9 21563.6 Q 588921.3 22071.9 589576.5 21966.6 Q 590231.7 21860 590651.6 21271.1 Q 591221 20415.7 591310.7 18760.8 Q 591400.4 17107.2 590651.6 14854.3 L 590225.2 14854.3 Z M 592062.1 10061.2 L 592062.1 35035.5 L 592648.4 35035.5 Q 593528.5 35006.9 594239.6 34709.2 Q 594949.4 34411.5 594991 34182.7 L 594991 11206.5 Q 595499.3 11124.6 595713.8 10933.5 Q 595927 10742.4 595976.4 10461.6 L 592062.1 10061.2 Z M 594991 14455.2 Q 595408.3 15261.2 595720.3 16341.5 Q 596032.3 17423.1 596029.7 18448.8 Q 596860.4 19195 597546.8 18776.4 Q 598003.1 18504.7 598146.1 17892.4 Q 598289.1 17281.4 597919.9 16505.3 Q 597410.3 15358.7 595310.8 14321.3 L 594991 14455.2 Z M 601913.5 28113 L 601913.5 25743.1 L 608303 25743.1 L 608303 28113 L 601913.5 28113 Z M 608303 22707.6 L 608303 24970.9 L 601913.5 24970.9 L 601913.5 22707.6 L 608303 22707.6 Z M 608036.5 21990 L 602046.1 21990 L 598878 20684.8 L 598878 34982.2 L 599330.4 34982.2 Q 600348.3 34948.4 601111.4 34596.1 Q 601874.5 34242.5 601913.5 33970.8 L 601913.5 28885.2 L 608303 28885.2 L 608303 31121.2 Q 608349.8 31633.4 607797.3 31626.9 Q 607415.1 31623 606594.8 31577.5 Q 606284.1 31560.6 605995.5 31543.7 Q 605228.5 31499.5 605160.9 31494.3 L 605160.9 31840.1 Q 605983.8 31998.7 606423.2 32245.7 Q 606861.3 32494 607104.4 32851.5 Q 607577.6 33531.4 607611.4 35008.2 Q 609918.9 34797.6 610646.9 33981.2 Q 610714.5 33911 610774.3 33836.9 Q 611406.1 32968.5 611338.5 31494.3 L 611338.5 23240.6 Q 612164 23007.9 612429.2 22655.6 L 609395 20392.3 L 608036.5 21990 Z M 609448.3 19353.6 L 606359.5 19353.6 L 606359.5 16904.4 L 611950.8 16904.4 Q 612543.6 16910.9 612695.7 16478 Q 611950.8 15818.9 611131.8 15153.3 Q 610982.3 15031.1 610845.8 14920.6 Q 610087.9 14308.3 610033.3 14268 L 608569.5 16132.2 L 606359.5 16132.2 L 606359.5 13949.5 L 612723 13949.5 Q 613314.5 13956 613467.9 13523.1 Q 612699.6 12822.4 611844.2 12123 Q 611653.1 11964.4 611480.2 11822.7 Q 610700.2 11193.5 610645.6 11153.2 L 609075.2 13177.3 L 606359.5 13177.3 L 606359.5 11233.8 Q 606828.8 11153.2 607018.6 10976.4 Q 607208.4 10800.9 607238.3 10540.9 L 603351.3 10195.1 L 603351.3 13177.3 L 597360.9 13177.3 L 597574.1 13949.5 L 603351.3 13949.5 L 603351.3 16132.2 L 598451.6 16132.2 L 598664.8 16904.4 L 603351.3 16904.4 L 603351.3 19353.6 L 596642 19353.6 L 596855.2 20098.5 L 613094.8 20098.5 Q 613674.6 20106.3 613813.7 19673.4 Q 613044.1 18988.3 612197.8 18291.5 Q 612013.2 18138.1 611845.5 18001.6 Q 611073.3 17371.1 611018.7 17330.8 L 609448.3 19353.6 Z M 632797.6 10274.4 Q 633213.6 10771 633565.9 11502.9 Q 633918.2 12234.8 633994.9 12990.1 Q 634916.6 13662.2 635686.2 13313.8 Q 636292 13047.3 636461 12454.5 Q 636631.3 11861.7 636064.5 11241.6 Q 635378.1 10455.1 633036.8 10141.8 L 632797.6 10274.4 Z M 618713.4 26914.4 Q 618649.7 28296.3 617907.4 29354.5 Q 617165.1 30411.4 616264.2 30854.7 Q 615667.5 31157.6 615375 31660.7 Q 615082.5 32162.5 615304.8 32825.5 Q 615580.4 33466.4 616283.7 33597.7 Q 616987 33729 617702 33331.2 Q 618803.1 32741 619345.2 31101.7 Q 619887.3 29462.4 619112.5 26914.4 L 618713.4 26914.4 Z M 626301.5 20179.1 L 626301.5 23214.6 L 623718.4 23214.6 L 623718.4 20179.1 L 626301.5 20179.1 Z M 623718.4 23986.8 L 626301.5 23986.8 L 626301.5 25024.2 L 626779.9 25024.2 Q 627497.5 25000.8 628245 24757.7 Q 628991.2 24515.9 629069.2 24332.6 L 629069.2 20552.2 Q 629775.1 20392.3 630001.3 20072.5 L 627312.9 18101.7 L 626061 19432.9 L 623851 19432.9 L 621002.7 18314.9 L 621002.7 25583.2 L 621401.8 25583.2 Q 622280.6 25552 622980 25250.4 Q 623678.1 24950.1 623718.4 24757.7 L 623718.4 23986.8 Z M 625715.2 25796.4 Q 626608.3 26646.6 627396.1 27869.9 Q 628183.9 29093.2 628456.9 30323 Q 629563.2 30982.1 630304.2 30451.7 Q 630945.1 29996.7 630939.9 29084.1 Q 630936 28172.8 629946.7 27229 Q 628828.7 26142.2 625954.4 25610.5 L 625715.2 25796.4 Z M 633994.9 28298.9 L 633702.4 28298.9 Q 632870.4 30575.2 632397.2 31255.1 Q 632267.2 31430.6 632102.1 31507.3 Q 631935.7 31584 631626.3 31600.9 Q 631288.3 31638.6 630581.1 31647.7 Q 629873.9 31655.5 629017.2 31654.2 L 625768.5 31654.2 Q 625032.7 31659.4 624816.9 31554.1 Q 624599.8 31448.8 624623.2 31174.5 L 624623.2 27340.8 Q 625416.2 27221.2 625448.7 26701.2 L 621482.4 26355.4 L 621482.4 31654.2 Q 621429.1 33138.8 622210.4 33664 Q 622991.7 34189.2 625235.5 34156.7 L 628670.1 34156.7 Q 632225.6 34174.9 633659.5 33900.6 Q 633936.4 33847.3 634156.1 33779.7 Q 635284.5 33428.7 635219.5 32533 Q 635236.4 32137.8 634993.3 31853.1 Q 634750.2 31568.4 634048.2 31334.4 L 633994.9 28298.9 Z M 633542.5 27127.6 Q 634797 28262.5 635812.3 29856.3 Q 636827.6 31451.4 637163 33064.7 Q 638359 33821.3 639157.2 33251.9 Q 639930.7 32699.4 639865.7 31490.4 Q 639800.7 30281.4 638438.3 29006.1 Q 637039.5 27693.1 633781.7 26941.7 L 633542.5 27127.6 Z M 639878.7 20870.7 L 639586.2 20791.4 Q 639292.4 21554.5 638924.5 22308.5 Q 638555.3 23062.5 638282.3 23507.1 Q 637975.5 24038.8 637429.5 23613.7 Q 636191.9 22807.7 635272.8 21723.5 Q 636964.1 19780 638175.7 16957.7 Q 639080.5 16990.2 639266.4 16505.3 L 635432.7 15093.5 Q 634893.2 17542.7 633835 19592.8 Q 632590.9 17190.4 632185.3 14348.6 L 639586.2 14348.6 Q 640166 14355.1 640305.1 13922.2 Q 639630.4 13242.3 638859.5 12559.8 Q 638725.6 12438.9 638600.8 12328.4 Q 637883.2 11700.5 637828.6 11658.9 L 636444.1 13576.4 L 632078.7 13576.4 Q 631959.1 12324.5 631918.8 11073.9 Q 632797.6 10873.7 632797.6 10355 L 628883.3 10035.2 Q 628923.6 11825.3 629122.5 13576.4 L 620763.5 13576.4 L 617408.2 12377.8 L 617408.2 17570 Q 617460.2 20162.2 617104 22963.7 Q 617096.2 23020.9 617087.1 23078.1 Q 616716.6 25878.3 615304.8 28352.2 L 615545.3 28592.7 Q 617988 26854.6 619002 24604.3 Q 619672.8 23173 619953.6 21719.6 Q 620360.5 19432.9 620311.1 17542.7 L 620311.1 14348.6 L 629229.1 14348.6 Q 629435.8 15746.1 629762.1 17064.3 Q 628970.4 16368.8 628178.7 15750 Q 628130.6 15712.3 628085.1 15675.9 Q 627315.5 15077.9 627259.6 15040.2 L 625821.8 16877.1 L 620443.7 16877.1 L 620656.9 17649.3 L 629229.1 17649.3 Q 629668.5 17649.3 629868.7 17410.1 Q 630607.1 20098.5 632104.7 22389.1 Q 630581.1 24411.9 628776.7 25717.1 L 629043.2 26009.6 Q 631272.7 25177.6 633143.4 23746.3 Q 634334.2 25184.1 635965.7 26302.1 Q 636867.9 26943 638011.9 27234.2 Q 638179.6 27271.9 638343.4 27292.7 Q 639474.4 27482.5 640172.5 26675.2 Q 640426 26348.9 640292.1 25823.7 Q 640156.9 25297.2 639453.6 24411.9 L 639878.7 20870.7 Z M 645789.8 28672 Q 644829.1 28695.4 644202.5 29318.1 Q 643575.9 29939.5 643553.8 30882 Q 643575.9 31823.2 644202.5 32445.9 Q 644829.1 33068.6 645789.8 33092 Q 646747.9 33068.6 647351.1 32445.9 Q 647954.3 31823.2 647972.5 30882 Q 647954.3 29939.5 647351.1 29318.1 Q 646747.9 28695.4 645789.8 28672  Z M 650103.2 16665.2 Q 650502.3 17303.5 650502.3 18022.4 Q 650534.8 18818 650073.3 19293.8 Q 649610.5 19769.6 648505.5 20205.1 L 646881.8 20791.4 Q 645637.7 21272.4 645107.3 21800.2 Q 644576.9 22326.7 644591.2 23108 Q 644606.8 23729.4 644989 24928 Q 645028 25063.2 645070.9 25211.4 L 645416.7 26302.1 L 646269.5 26302.1 L 646295.5 24998.2 Q 646331.9 24406.7 646651.7 24085.6 Q 646971.5 23764.5 647865.9 23373.2 L 649064.5 22920.8 Q 650447.7 22372.2 651178.3 21384.2 Q 651907.6 20394.9 651912.8 18847.9 Q 651845.2 16887.5 650524.4 15490 Q 649497.4 14382.4 648137.6 13642.7 Q 646398.2 12709.3 644857.7 12377.8 Q 643293.8 12710.6 643287.3 14161.4 Q 643270.4 14845.2 643752.7 15302.8 Q 644235 15761.7 645416.7 15946.3 L 650103.2 16665.2 Z " fill-rule="nonzero" style="fill:#333333;;fill-opacity:1;"/>
</svg>