<svg version="1.1" x="0" y="0" width="100%" height="100%" viewBox="0 0 62003.2 285081.6" xmlns="http://www.w3.org/2000/svg">
  <path d="M 27904 11448.5 Q 28687 12071 29314 13038.5 Q 29939.5 14006 30146.5 15042.5 Q 31466.5 15765.5 32405.5 15215 Q 33277 14709.5 33376 13748 Q 33475 12786.5 32377 11997.5 Q 31205.5 11142.5 28150 11234 L 27904 11448.5 Z M 24064 30894.5 Q 24137.5 33069.5 23171.5 35130.5 Q 22802.5 35858 22226.5 36545 Q 20674 38493.5 16876 39926 L 17060.5 40263.5 Q 21962.5 39288.5 24292 37593.5 Q 25895.5 36455 26656 35114 Q 27740.5 33117.5 27719.5 30956 L 27719.5 27515 Q 28238.5 27441.5 28453 27230 Q 28667.5 27020 28702 26715.5 L 24064 26286.5 L 24064 30894.5 Z M 34540 40110.5 L 35185 40110.5 Q 36299.5 40079 37220.5 39753.5 Q 38140 39428 38195.5 39188 L 38195.5 27638 Q 38714.5 27543.5 38929 27345.5 Q 39142 27147.5 39178 26870 L 34540 26439.5 L 34540 40110.5 Z M 35123.5 16425.5 Q 33895 19052 31375 21033.5 Q 29362 20232.5 27724 19097 Q 26084.5 17963 24923.5 16425.5 L 35123.5 16425.5 Z M 43847.5 16425.5 Q 44569 16433 44738.5 15933.5 Q 43687 15081.5 42536.5 14232.5 Q 42169 13961 41849.5 13728.5 Q 40841.5 12996.5 40775.5 12953 L 38564.5 15534.5 L 17305 15534.5 L 17582.5 16425.5 L 24187 16425.5 Q 26092 20211.5 29287 22476.5 Q 26786.5 23972 23549.5 25068.5 Q 20312.5 26166.5 16475.5 26900 L 16598.5 27300.5 Q 20897.5 26870 24613 26021 Q 28330 25172 31313.5 23798 Q 33740.5 25124 36674.5 25956.5 Q 39608.5 26787.5 42956.5 27239 Q 43426 24627.5 45691 23951 L 45721 23582 Q 42737.5 23472.5 39874 23102 Q 37009 22733 34417 22046 Q 37796.5 19812.5 39608.5 16425.5 L 43847.5 16425.5 Z M 23603.5 70052.2 L 23603.5 61542.7 L 38410 61542.7 L 38410 70052.2 L 23603.5 70052.2 Z M 38410 52388.2 L 38410 60651.7 L 23603.5 60651.7 L 23603.5 52388.2 L 38410 52388.2 Z M 39946 49407.7 L 38041 51558.7 L 28241.5 51558.7 Q 29470 50471.2 30595 49236.7 Q 31720 48003.7 32582.5 46986.7 Q 32624.5 46937.2 32665 46889.2 Q 33686.5 46865.2 33833.5 46244.2 L 28457.5 44954.2 Q 28264 46455.7 27938.5 48255.7 Q 27613 50057.2 27259 51558.7 L 23911 51558.7 L 19763.5 49899.7 L 19763.5 73830.7 L 20408.5 73830.7 Q 21697 73787.2 22628.5 73311.7 Q 23558.5 72836.2 23603.5 72447.7 L 23603.5 70943.2 L 38410 70943.2 L 38410 73676.2 L 38993.5 73676.2 Q 40133.5 73626.7 41132.5 73152.7 Q 41179 73131.7 41224 73110.7 Q 42199 72630.7 42281.5 72356.2 L 42281.5 53186.2 Q 43372 52895.2 43724.5 52418.2 L 39946 49407.7 Z M 38747.5 93480.9 L 38747.5 103863.9 L 26921.5 103863.9 L 26921.5 93480.9 L 38747.5 93480.9 Z M 39116.5 82298.4 L 16937.5 82298.4 L 17182 83189.4 L 26153.5 83189.4 Q 25237 87237.9 22976.5 91380.9 Q 22553.5 92151.9 22091.5 92909.4 Q 19618 96972.9 16261 100116.9 L 16537 100392.9 Q 20332 98189.4 23296 95108.4 L 23296 107765.4 L 23972.5 107765.4 Q 25366 107723.4 26137 107336.4 Q 26909.5 106947.9 26921.5 106721.4 L 26921.5 104754.9 L 38747.5 104754.9 L 38747.5 107580.9 L 39332.5 107580.9 Q 40309 107546.4 41293 107207.4 Q 41321.5 107196.9 41348.5 107187.9 Q 42319 106845.9 42434.5 106628.4 L 42434.5 94187.4 Q 43426 93903.9 43817.5 93480.9 L 40162 90623.4 L 38410 92621.4 L 27289 92621.4 L 25907.5 92067.9 Q 27500.5 89984.4 28706.5 87732.9 Q 29914 85481.4 30700 83189.4 L 44492.5 83189.4 Q 45238 83196.9 45383.5 82698.9 Q 44357.5 81842.4 43208.5 80940.9 Q 42779.5 80603.4 42413.5 80318.4 Q 41422 79548.9 41359 79503.9 L 39116.5 82298.4 Z M 21176.5 136202.6 L 21176.5 128123.6 L 25846 128123.6 L 25846 136202.6 L 21176.5 136202.6 Z M 25846 119614.1 L 25846 127232.6 L 21176.5 127232.6 L 21176.5 119614.1 L 25846 119614.1 Z M 27166 116879.6 L 25538.5 118723.1 L 22865.5 118723.1 Q 23623 117794.6 24425.5 116741.6 Q 25228 115687.1 25846 114851.6 Q 26914 114875.6 27106 114115.1 L 22129 112916.6 Q 22007.5 114250.1 21829 115831.1 Q 21650.5 117412.1 21484 118723.1 L 21299.5 118723.1 L 17858.5 117278.6 L 17858.5 140503.1 L 18412 140503.1 Q 19552 140467.1 20347 140069.6 Q 21142 139670.6 21176.5 139336.1 L 21176.5 137062.1 L 25846 137062.1 L 25846 139489.1 L 26368 139489.1 Q 27329.5 139448.6 28234 139075.1 Q 29138.5 138700.1 29225.5 138475.1 L 29225.5 120166.1 Q 30169 119959.1 30515.5 119521.1 L 27166 116879.6 Z M 42220 116633.6 L 40283.5 118630.1 L 35399.5 118630.1 Q 36352 116887.1 37120 114913.1 Q 38156.5 114905.6 38318.5 114299.6 L 33464.5 112885.1 Q 32839 116479.1 31724.5 119893.1 Q 30610 123308.6 29317 125726.6 L 29716 125972.6 Q 32681.5 123461.6 34907.5 119521.1 L 40622.5 119521.1 Q 40484.5 127400.6 40138 131875.1 Q 39793 136349.6 38963.5 137155.1 Q 38579.5 137561.6 37826.5 137554.1 Q 37166.5 137548.1 35884 137461.1 Q 34601.5 137375.6 33433 137278.1 L 33403 137707.1 Q 34543 137918.6 35387.5 138268.1 Q 36233.5 138617.6 36659.5 139058.6 Q 37388.5 139811.6 37334.5 141578.6 Q 38842 141584.6 39923.5 141187.1 Q 41003.5 140789.6 41819.5 139919.6 Q 42968.5 138733.1 43462 134648.6 Q 43543 133996.1 43613.5 133259.6 Q 44032 128641.1 44155 120104.6 Q 45176.5 119951.6 45506.5 119521.1 L 42220 116633.6 Z M 31682.5 125081.6 Q 32638 126383.6 33391 128077.1 Q 34145.5 129770.6 34294 131440.1 Q 35605 132440.6 36616 131917.1 Q 37562.5 131431.1 37696 130184.6 Q 37829.5 128939.6 36620.5 127505.6 Q 35341 125975.6 31928.5 124897.1 L 31682.5 125081.6 Z M 18073 167158.3 Q 18535 166973.8 18902.5 166420.3 Q 21488.5 165266.8 23537.5 164212.3 Q 25588 163157.8 26767 162488.8 L 26737 162119.8 Q 24754 162398.8 22870 162638.8 Q 20986 162877.3 19486 163040.8 Q 21686.5 161360.8 23842 159257.8 Q 24107.5 158998.3 24367 158737.3 Q 26468.5 156628.3 27781 154838.8 Q 28718.5 154922.8 28918 154408.3 L 24802 152135.8 Q 24286 153556.3 23266 155299.3 Q 20677 155483.8 18688 155576.8 Q 20347 154235.8 22006 152458.3 Q 23665 150680.8 24770.5 149063.8 Q 25661.5 149056.3 25814.5 148541.8 L 21329.5 146789.8 Q 20965 148253.8 20137 150202.3 Q 19663 151312.3 19115.5 152350.3 Q 18161.5 154172.8 17243.5 155084.8 Q 17003.5 155248.3 16664.5 155350.3 Q 16325.5 155450.8 16292.5 155453.8 L 17890 159355.3 Q 18220 159224.8 18503.5 158863.3 Q 20477.5 158033.8 22129 157204.3 Q 21007 158963.8 19820.5 160465.3 Q 18635.5 161965.3 17582.5 162826.3 Q 17309.5 162992.8 16898.5 163106.8 Q 16487.5 163220.8 16445.5 163225.3 L 18073 167158.3 Z M 27382 167434.3 Q 24217 168278.8 21344.5 168974.8 Q 21011.5 169055.8 20690.5 169132.3 Q 17912.5 169796.8 16445.5 170075.8 L 18227.5 174284.8 Q 18811 174062.8 19025.5 173425.3 Q 21970 171664.3 24068.5 170210.8 Q 26165.5 168755.8 27473.5 167710.3 L 27382 167434.3 Z M 37858 166880.8 Q 38441.5 167765.8 39047.5 168805.3 Q 39655 169844.8 40192 170936.8 Q 37028.5 171100.3 34255 171224.8 Q 31483 171347.8 29470 171397.3 Q 31403.5 170278.3 33257.5 168869.8 Q 35110 167462.8 36352 166205.8 Q 37250.5 166235.8 37457.5 165806.8 L 33956.5 163993.3 L 43724.5 163993.3 Q 44408.5 164000.8 44585.5 163502.8 Q 43595.5 162652.3 42515.5 161809.3 Q 42218.5 161575.3 41956 161369.8 Q 40993 160628.8 40930 160583.8 L 38902 163102.3 L 26644 163102.3 L 26890 163993.3 L 32942.5 163993.3 Q 32266 165470.8 31045 167237.8 Q 30584.5 167897.8 30092.5 168517.3 Q 28783 170176.3 27566.5 170998.3 Q 27322 171139.3 26956 171235.3 Q 26590 171331.3 26552.5 171335.8 L 28027 175237.3 Q 28396 175144.3 28672 174776.8 Q 32332 173957.8 35365 173167.3 Q 38398 172376.8 40561 171766.3 Q 41236 173302.3 41543.5 174745.3 Q 42917.5 175730.8 43852 175088.8 Q 44684.5 174518.8 44669.5 173155.3 Q 44653 171793.3 43324 170137.3 Q 41857 168287.8 38164 166727.8 L 37858 166880.8 Z M 36076 158156.8 L 29716 158156.8 L 29962 159016.3 L 40162 159016.3 Q 40852 159025.3 40990 158525.8 Q 40087 157745.8 39106 156983.8 Q 38929 156844.3 38765.5 156718.3 Q 37859.5 156020.8 37796.5 155975.8 L 36076 158156.8 Z M 33556 146422.3 Q 32215 150722.8 29912.5 154235.8 Q 27610 157748.8 24955 160000.3 L 25262.5 160337.8 Q 28706.5 158747.8 31552 156098.8 Q 34397.5 153448.3 36505 149462.8 Q 37631.5 152506.3 39443.5 155237.8 Q 41254 157970.8 43510 159815.8 Q 43832.5 157841.8 45721 156743.8 L 45814 156344.8 Q 43301.5 155201.8 40879 153262.3 Q 40868.5 153253.3 40856.5 153244.3 Q 38437 151300.3 37028.5 148756.3 Q 37949.5 148795.3 38134 148234.3 L 33556 146422.3 Z M 39977.5 206161.5 L 21944.5 206161.5 L 21944.5 189573 Q 23020 189381 23081.5 188682 L 18473.5 188221.5 L 18473.5 205762.5 Q 17774.5 206215.5 17305 206715 L 20992 208650 L 22129 207052.5 L 39977.5 207052.5 L 39977.5 209265 L 40652.5 209265 Q 41674 209227.5 42535 208857 Q 43394.5 208486.5 43448.5 208219.5 L 43448.5 189358.5 Q 44012.5 189265.5 44236 189063 Q 44459.5 188860.5 44492.5 188559 L 39977.5 188130 L 39977.5 206161.5 Z M 32450.5 201400.5 L 32450.5 194826 L 34724.5 194826 L 34724.5 201400.5 L 32450.5 201400.5 Z M 27166 194826 L 29501.5 194826 L 29501.5 201400.5 L 27166 201400.5 L 27166 194826 Z M 29501.5 188037 L 29501.5 193935 L 27166 193935 L 27166 188037 L 29501.5 188037 Z M 34724.5 188037 L 34724.5 193935 L 32450.5 193935 L 32450.5 188037 L 34724.5 188037 Z M 35246.5 203643 Q 36089.5 203610 36920.5 203289 Q 37751.5 202969.5 37858 202752 L 37858 188497.5 Q 38702.5 188275.5 38993.5 187914 L 35921.5 185548.5 L 34417 187177.5 L 27320.5 187177.5 L 24064 185794.5 L 24064 204135 L 24556 204135 Q 25585 204097.5 26356 203727 Q 27127 203356.5 27166 203089.5 L 27166 202291.5 L 34724.5 202291.5 L 34724.5 203643 L 35246.5 203643 Z M 39577 183276 L 16537 183276 L 16783 184135.5 L 44800 184135.5 Q 45484 184143 45659.5 183643.5 Q 44636.5 182797.5 43499.5 181932 Q 43117 181641 42785.5 181390.5 Q 41792.5 180646.5 41728 180603 L 39577 183276 Z M 24647.5 221604.2 Q 25739.5 223111.7 26894.5 224856.2 Q 28049.5 226600.7 29164 228454.7 Q 27793 231598.7 26122 234241.7 Q 24452.5 236884.7 22619.5 238899.2 L 22988.5 239206.7 Q 27481 236164.7 30730 231280.7 Q 32350 234399.2 33095.5 237148.7 Q 34666 238308.2 35468.5 237295.7 Q 36203.5 236364.2 35705.5 234084.2 Q 35177.5 231616.7 32542 228177.2 Q 34040.5 225198.2 35215 221572.7 Q 36268 221626.7 36443.5 220989.2 L 32020 219576.2 Q 31330 222724.7 30269.5 225690.2 Q 28157.5 223585.7 25078 221388.2 L 24647.5 221604.2 Z M 45137.5 233707.7 L 44830 233646.2 Q 44393.5 235588.7 43817.5 237210.2 Q 43633 237855.2 43079.5 237486.2 Q 41771.5 236664.2 41104 234073.7 Q 40591 232126.7 40364.5 229626.2 Q 40139.5 227124.2 40129 224475.2 Q 40123 220963.7 40345 218010.2 Q 41428 217771.7 41728 217395.2 L 38195.5 214414.7 L 36352 216504.2 L 24494.5 216504.2 L 20285.5 214999.7 L 20285.5 227625.2 Q 20360.5 231808.7 19756 235557.2 Q 19685.5 235939.7 19603 236317.7 Q 18877 240006.2 16475.5 242985.2 L 16783 243231.2 Q 20413 241039.7 21926.5 238200.2 Q 23048.5 236152.7 23456.5 233908.7 Q 23983 230800.7 23911 227593.7 L 23911 217365.2 L 36721 217365.2 Q 36599.5 222144.2 36749.5 226849.7 Q 36851.5 229621.7 37166.5 232129.7 Q 37481.5 234637.7 38095 236706.2 Q 39107.5 240232.7 41297.5 241848.2 Q 42326.5 242691.2 43355.5 242946.2 Q 44386 243201.2 45230.5 242431.7 Q 45622 242047.7 45526 241156.7 Q 45428.5 240265.7 44830 239052.2 L 45137.5 233707.7 Z M 24217 256552.9 L 28426 256552.9 Q 29078.5 256560.4 29225.5 256060.9 Q 28501 255286.9 27635.5 254473.9 Q 27455.5 254302.9 27289 254148.4 Q 26489.5 253407.4 26429.5 253357.9 L 24832 255693.4 L 24217 255693.4 L 24217 249394.9 Q 24847 249303.4 25085.5 249091.9 Q 25324 248880.4 25354 248535.4 L 20900.5 248104.9 L 20900.5 255693.4 L 16598.5 255693.4 L 16844.5 256552.9 L 20470 256552.9 Q 19970.5 260077.9 18941.5 263464.9 Q 17912.5 266851.9 16261 269547.4 L 16660 269884.9 Q 19148.5 267519.4 20900.5 264601.9 L 20900.5 277042.9 L 21575.5 277042.9 Q 22547.5 277006.9 23357.5 276612.4 Q 24167.5 276219.4 24217 275905.9 L 24217 259624.9 Q 24737.5 260541.4 25108 261625.9 Q 25478.5 262708.9 25538.5 263740.9 Q 26632 264646.9 27499 264183.4 Q 28154.5 263838.4 28310.5 263016.4 Q 28468 262192.9 27812.5 261193.9 Q 26989 259884.4 24217 258856.9 L 24217 256552.9 Z M 38840.5 265615.9 L 33494.5 265615.9 L 30884.5 264631.9 Q 34033 263250.4 36443.5 261406.9 Q 38003.5 262927.9 40162 264079.9 L 38840.5 265615.9 Z M 33127 273940.9 L 33127 266506.9 L 38963.5 266506.9 L 38963.5 273940.9 L 33127 273940.9 Z M 39148 253081.9 Q 38033.5 255816.4 36137.5 258180.4 Q 34139.5 256752.4 32788 254863.9 Q 33425.5 253995.4 34018 253081.9 L 39148 253081.9 Z M 41051.5 250378.9 L 39086.5 252220.9 L 34508.5 252220.9 Q 35015.5 251338.9 35431 250408.9 Q 36443.5 250416.4 36628 249825.4 L 32113 248289.4 Q 31367.5 251580.4 30046 254497.9 Q 28726 257415.4 27197.5 259440.4 L 27596.5 259716.4 Q 30154 258096.4 32297.5 255508.9 Q 33380.5 257781.4 34877.5 259686.4 Q 31244.5 263511.4 25907.5 265860.4 L 26122 266260.9 Q 28066 265746.4 29777.5 265092.4 L 29777.5 276951.4 L 30361 276951.4 Q 31663 276921.4 32389 276631.9 Q 33115 276343.9 33127 276151.9 L 33127 274800.4 L 38963.5 274800.4 L 38963.5 276643.9 L 39577 276643.9 Q 40930 276610.9 41705.5 276316.9 Q 42481 276024.4 42496 275875.9 L 42496 266751.4 Q 43441 266529.4 43694.5 266167.9 L 42188.5 265032.4 Q 42833.5 265300.9 43478.5 265522.9 Q 43717 263041.9 45844 262266.4 L 45905.5 261928.9 Q 41620 261168.4 38533 259624.9 Q 41206 256944.4 42865 253665.4 Q 43429 253626.4 43717 253522.9 Q 44005 253420.9 44155 253173.4 L 41051.5 250378.9 Z " fill-rule="nonzero" style="fill:#333333;;fill-opacity:1;"/>
</svg>