<svg version="1.1" x="0" y="0" width="100%" height="100%" viewBox="0 0 179148.8 83865.6" xmlns="http://www.w3.org/2000/svg">
  <path d="M 16978.25 6804.15 L 16978.25 6727.65 L 12185.75 6727.65 L 12185.75 21227.4 L 16978.25 21227.4 L 16978.25 21150.9 Q 15689 20049.9 14829.5 18203.4 Q 13970 16356.9 13937 13977.9 Q 13970 11598.15 14829.5 9751.65 Q 15689 7905.15 16978.25 6804.15  Z M 22476.5 8294.4 Q 23452.25 8955.15 24501.5 9771.9 Q 24778.25 9987.9 25042.25 10203.9 Q 26044.25 11017.65 26624 11658.15 L 27975.5 10229.4 Q 27332 9581.4 26294.75 8813.4 Q 26023.25 8610.9 25742.75 8409.9 Q 24668.75 7647.9 23720.75 7050.15 L 22476.5 8294.4 Z M 28712.75 12288.15 Q 29279 13566.15 29761.25 15027.15 Q 29841.5 15270.15 29916.5 15511.65 Q 30368 16959.9 30540.5 18078.9 L 32399 17310.9 Q 32146.25 16093.65 31616 14562.15 Q 31610 14545.65 31604.75 14529.15 Q 31072.25 12996.9 30418.25 11596.65 L 28712.75 12288.15 Z M 19190 12088.65 Q 19035.5 13649.4 18725 15231.15 Q 18415.25 16812.9 18007.25 18063.15 L 19850 18800.4 Q 20211.5 17562.9 20480.75 15973.65 Q 20526.5 15705.9 20570 15436.65 Q 20822 13833.15 20971.25 12426.15 L 19190 12088.65 Z M 21954.5 11181.9 L 21954.5 18309.15 Q 21926.75 19738.65 22481 20309.4 Q 23034.5 20880.9 24504.5 20859.15 L 27069.5 20859.15 Q 28345.25 20886.15 28895 20163.9 Q 28985 20046.9 29062.25 19905.9 Q 29528 19036.65 29650.25 17034.15 Q 29249.75 16935.9 28760.75 16725.15 Q 28271.75 16514.4 27929.75 16266.15 Q 27869.75 17907.15 27698 18519.9 Q 27671.75 18612.9 27640.25 18689.4 Q 27437.75 19189.65 26915.75 19153.65 L 24719 19153.65 Q 24182 19168.65 24012.5 19002.15 Q 23843.75 18835.65 23859.5 18309.15 L 23859.5 11181.9 L 21954.5 11181.9 Z M 46730 7725.9 L 43766 7725.9 Q 43672.25 7467.9 43564.25 7192.65 Q 43456.25 6916.65 43351.25 6681.9 L 41630.75 7004.4 Q 41649.5 7056.9 41669.75 7112.4 Q 41774 7408.65 41891.75 7725.9 L 38850.5 7725.9 L 38850.5 9200.4 L 46730 9200.4 L 46730 7725.9 Z M 47129.75 10521.9 L 45224.75 10521.9 Q 45367.25 10258.65 45506.75 9970.65 Q 45613.25 9752.4 45731.75 9522.9 L 44072.75 9216.15 Q 43990.25 9509.4 43873.25 9851.4 Q 43756.25 10193.4 43627.25 10521.9 L 41891.75 10521.9 Q 41819 10224.15 41688.5 9868.65 Q 41558 9513.9 41415.5 9216.15 L 39941 9507.9 Q 40145 9991.65 40279.25 10521.9 L 38420.75 10521.9 L 38420.75 12027.15 L 47129.75 12027.15 L 47129.75 10521.9 Z M 38113.25 15789.9 L 36700.25 16296.9 L 36700.25 12180.15 L 38006 12180.15 L 38006 10444.65 L 36700.25 10444.65 L 36700.25 7004.4 L 34918.25 7004.4 L 34918.25 10444.65 L 33428.75 10444.65 L 33428.75 12180.15 L 34918.25 12180.15 L 34918.25 16911.15 Q 33920 17253.15 33152 17479.65 L 33751.25 19353.9 Q 34805 18943.65 36034.25 18447.15 Q 37263.5 17951.4 38466.5 17448.9 L 38113.25 15789.9 Z M 40694 15390.9 L 44626.25 15390.9 L 44626.25 16035.9 L 40694 16035.9 L 40694 15390.9 Z M 40694 13685.4 L 44626.25 13685.4 L 44626.25 14331.15 L 40694 14331.15 L 40694 13685.4 Z M 45132.5 19522.65 Q 44948.75 19526.4 44856.5 19461.15 Q 44779.25 19380.15 44795 19092.15 L 44795 17187.9 L 46376.75 17187.9 L 46376.75 12549.15 L 39019.25 12549.15 L 39019.25 17187.9 L 40294.25 17187.9 Q 40181 18145.65 39613.25 18756.9 Q 39536.75 18834.15 39449.75 18907.65 Q 38792 19480.65 37160.75 19799.4 Q 37436.75 20049.15 37704.5 20457.9 Q 37971.5 20865.9 38098.25 21196.65 Q 40036.25 20705.4 40877 19841.4 Q 41034.5 19685.4 41165.75 19515.9 Q 41858 18577.65 41999 17187.9 L 43105.25 17187.9 L 43105.25 19046.4 Q 43104.5 19731.9 43211 20060.4 Q 43316.75 20388.15 43535 20567.4 Q 43752.5 20751.15 44072.75 20843.4 Q 44393.75 20935.65 44702.75 20935.65 L 45686 20935.65 Q 45915.5 20935.65 46184.75 20901.15 Q 46454.75 20866.65 46637.75 20797.65 Q 47075.75 20616.9 47283.5 20229.15 Q 47374.25 20020.65 47427.5 19622.4 Q 47480.75 19224.15 47513.75 18785.4 Q 47172.5 18664.65 46769 18460.65 Q 46364.75 18256.65 46115.75 18032.4 Q 46097 18885.15 46054.25 19184.4 Q 45985.25 19453.65 45869.75 19491.9 Q 45743 19530.15 45547.25 19522.65 L 45132.5 19522.65 Z M 53504 13670.4 Q 53642 13048.65 53780.75 12380.4 L 60416 12380.4 L 60416 10813.65 L 54087.5 10813.65 L 54333.5 9569.4 L 52490 9400.65 Q 52268 10761.15 51959 12264.15 Q 51916.25 12472.65 51872.75 12679.65 Q 51559.25 14164.65 51261.5 15267.9 L 59156.75 15267.9 Q 58985 17087.4 58759.25 18036.15 Q 58532.75 18985.65 58235 19215.15 Q 57977.75 19422.9 57512.75 19399.65 Q 57161 19401.15 56491.25 19382.4 Q 55822.25 19363.65 55055 19307.4 Q 55301.75 19667.4 55464.5 20136.9 Q 55627.25 20606.4 55654.25 21012.15 Q 56416.25 21037.65 57089 21039.15 Q 57761 21041.4 58188.5 20997.15 Q 58689.5 20969.4 59066 20829.9 Q 59443.25 20690.4 59771 20352.15 Q 60212.75 19916.4 60514.25 18546.9 Q 60815 17178.15 61061 14438.4 Q 61085 14229.15 61103 13962.15 Q 61121.75 13695.15 61122.5 13670.4 L 53504 13670.4 Z M 57989 16312.65 L 49479.5 16312.65 L 49479.5 18001.65 L 57989 18001.65 L 57989 16312.65 Z M 49172.75 7511.4 L 49172.75 10967.4 L 50984.75 10967.4 L 50984.75 9200.4 L 60554 9200.4 L 60554 10967.4 L 62459 10967.4 L 62459 7511.4 L 49172.75 7511.4 Z M 67927.25 8985.9 L 67927.25 10982.4 L 66437 10982.4 L 66437 8985.9 L 67927.25 8985.9 Z M 66437 14807.4 L 66437 12579.9 L 67927.25 12579.9 L 67927.25 14807.4 L 66437 14807.4 Z M 72227.75 13854.9 L 75668.75 13854.9 L 75668.75 15498.15 L 72227.75 15498.15 L 72227.75 13854.9 Z M 66437 16434.9 L 69601.25 16434.9 L 69601.25 11259.15 Q 69873.5 11524.65 70114.25 11879.4 Q 70354.25 12233.4 70476.5 12533.4 L 70507.25 12518.4 L 70507.25 16972.65 L 77480.75 16972.65 L 77480.75 12395.4 L 70907 12395.4 Q 72422 11855.4 73116.5 10995.9 Q 73811 10136.4 74024.75 8939.4 L 76145 8939.4 Q 76088 9590.4 76013.75 9930.15 Q 75940.25 10269.9 75837.5 10368.15 Q 75676.25 10536.9 75377 10521.9 Q 75186.5 10521.9 74835.5 10508.4 Q 74483.75 10494.15 74040.5 10460.4 Q 74226.5 10770.15 74343.5 11166.9 Q 74460.5 11562.9 74486 11919.15 Q 75014 11941.65 75484.25 11932.65 Q 75954.5 11923.65 76252.25 11888.4 Q 76874 11850.15 77312 11397.15 Q 77570.75 11125.65 77705.75 10316.4 Q 77840.75 9506.4 77926.25 7956.15 Q 77938.25 7776.9 77947.25 7568.4 Q 77957 7360.65 77957 7341.9 L 70046.75 7341.9 L 70046.75 8939.4 L 72227.75 8939.4 Q 72044.75 9710.4 71462 10268.4 Q 70878.5 10825.65 69601.25 11181.9 L 69601.25 7388.4 L 64716.5 7388.4 L 64716.5 17157.15 L 66437 17157.15 L 66437 16434.9 Z M 65792 21227.4 Q 66286.25 20526.9 66788.75 19605.15 Q 67291.25 18683.4 67681.25 17787.15 L 65915 17295.15 Q 65543 18168.15 65027.75 19021.65 Q 64512.5 19874.4 64025.75 20459.4 L 65792 21227.4 Z M 68465 17879.4 Q 68594 18690.15 68674.25 19576.65 Q 68753.75 20462.4 68756.75 21089.4 L 70553.75 20812.65 Q 70537.25 20177.4 70423.25 19320.9 Q 70308.5 18464.4 70154 17679.15 L 68465 17879.4 Z M 71705.75 17848.65 Q 71978.75 18647.4 72203 19524.15 Q 72427.25 20401.65 72504.5 21027.9 L 74332.25 20658.9 Q 74220.5 20001.9 73971.5 19152.15 Q 73721.75 18301.65 73426.25 17541.15 L 71705.75 17848.65 Z M 74870 17832.9 Q 75359 18645.15 75827.75 19560.9 Q 76296.5 20476.65 76544 21150.9 L 78310.25 20397.9 Q 78026 19715.4 77523.5 18833.4 Q 77020.25 17951.4 76529 17187.9 L 74870 17832.9 Z M 84070.25 21227.4 L 84070.25 6727.65 L 79277.75 6727.65 L 79277.75 6804.15 Q 80567 7905.15 81426.5 9751.65 Q 82286 11598.15 82319 13977.9 Q 82286 16356.9 81426.5 18203.4 Q 80567 20049.9 79277.75 21150.9 L 79277.75 21227.4 L 84070.25 21227.4 Z " fill-rule="nonzero" style="fill:#333333;;fill-opacity:1;"/>
  <path d="M 12750.9 38670.05 L 4710.4 38670.05 L 4710.4 32573.7 L 3073.05 32573.7 L 3073.05 40161.15 L 12750.9 40161.15 L 12750.9 40760.45 L 14348.6 40760.45 L 14348.6 32506.75 L 12750.9 32506.75 L 12750.9 38670.05 Z M 10501.25 34104.45 L 9342.95 34104.45 L 9342.95 32985.8 L 10501.25 32985.8 L 10501.25 34104.45 Z M 10501.25 36447.05 L 9342.95 36447.05 L 9342.95 35302.4 L 10501.25 35302.4 L 10501.25 36447.05 Z M 6826.8 35302.4 L 7985.1 35302.4 L 7985.1 36447.05 L 6826.8 36447.05 L 6826.8 35302.4 Z M 6826.8 32985.8 L 7985.1 32985.8 L 7985.1 34104.45 L 6826.8 34104.45 L 6826.8 32985.8 Z M 5535.9 31694.9 L 5535.9 37738.6 L 11872.1 37738.6 L 11872.1 31694.9 L 5535.9 31694.9 Z M 2913.15 29152.1 L 2913.15 30616.55 L 14521.5 30616.55 L 14521.5 29152.1 L 2913.15 29152.1 Z M 25810.05 38657.05 L 24372.25 38657.05 L 24372.25 33265.95 L 25810.05 33265.95 L 25810.05 38657.05 Z M 18129 33265.95 L 19499.85 33265.95 L 19499.85 38657.05 L 18129 38657.05 L 18129 33265.95 Z M 22948.1 34184.4 L 20911 34184.4 L 20911 33265.95 L 22948.1 33265.95 L 22948.1 34184.4 Z M 20911 37671.65 L 22948.1 37671.65 L 22948.1 38657.05 L 20911 38657.05 L 20911 37671.65 Z M 22948.1 36434.05 L 20911 36434.05 L 20911 35422 L 22948.1 35422 L 22948.1 36434.05 Z M 28033.05 30603.55 L 28033.05 29112.45 L 16052.25 29112.45 L 16052.25 30603.55 L 20911 30603.55 Q 20824.55 31212.6 20697.8 31801.5 L 16598.25 31801.5 L 16598.25 40787.1 L 18129 40787.1 L 18129 40107.85 L 25810.05 40107.85 L 25810.05 40787.1 L 27420.75 40787.1 L 27420.75 31801.5 L 22361.8 31801.5 Q 22454.1 31475.2 22560.7 31135.9 Q 22642.6 30873.3 22721.25 30603.55 L 28033.05 30603.55 Z M 31893.4 28406.55 Q 31379.9 29854.75 30582.35 31160.6 Q 29784.15 32466.45 28871.55 33385.55 Q 29086.05 33704.7 29342.8 34205.85 Q 29599.55 34707 29723.7 35035.9 Q 30142.95 34573.75 30562.2 34051.15 L 30562.2 40773.45 L 32092.95 40773.45 L 32092.95 31694.9 Q 32855.4 30300.65 33397.5 28886.25 L 31893.4 28406.55 Z M 41478.3 33704.7 L 41478.3 32240.9 L 36672.2 32240.9 L 36938.7 31202.2 L 40786.05 31202.2 L 40786.05 29764.4 L 37298.15 29764.4 L 37564.65 28699.7 L 35993.6 28500.15 L 35993.6 28500.15 Q 35857.1 29112.45 35700.45 29764.4 L 33357.85 29764.4 L 33357.85 31202.2 L 35354.65 31202.2 L 35075.15 32240.9 L 32599.3 32240.9 L 32599.3 33704.7 L 34649.4 33704.7 Q 34224.3 35146.4 33854.45 36248.15 Q 33845.35 36274.8 33836.9 36300.8 L 38323.2 36300.8 Q 37651.1 37026.2 36899.05 37791.9 Q 36332.9 37429.2 35767.4 37126.3 L 34662.4 38084.4 Q 35604.9 38650.55 36555.85 39351.9 Q 36703.4 39460.45 36846.4 39569.65 Q 37768.75 40270.35 38323.2 40826.75 L 39441.2 39628.8 Q 38945.25 39173.15 38150.3 38617.4 Q 38937.45 37809.45 39702.5 36995 Q 40467.55 36179.9 41105.2 35462.3 L 40000.2 34743.4 L 39761 34823.35 L 35953.95 34823.35 Q 36113.2 34283.85 36273.1 33704.7 L 41478.3 33704.7 Z M 49505.15 33332.25 L 49505.15 34131.1 L 47934.75 34131.1 Q 47962.7 33946.5 47995.85 33764.5 Q 48034.2 33555.2 48067.35 33332.25 L 49505.15 33332.25 Z M 51062.55 31242.5 L 52646.6 31242.5 L 52646.6 32067.35 L 51062.55 32067.35 L 51062.55 31242.5 Z M 49505.15 38590.75 L 51062.55 38590.75 L 51062.55 35368.7 L 53099.65 35368.7 Q 53061.3 35843.2 53013.2 36087.6 Q 52964.45 36332.65 52886.45 36407.4 Q 52746.7 36556.9 52487.35 36527 Q 52331.35 36528.95 52042.75 36520.5 Q 51754.8 36512.05 51409 36473.7 Q 51570.2 36751.9 51673.55 37099.65 Q 51776.9 37447.4 51808.1 37765.25 Q 52224.1 37784.75 52590.05 37776.95 Q 52956.65 37769.15 53192.6 37738.6 Q 53459.1 37711.95 53665.15 37615.1 Q 53871.85 37518.9 54057.75 37312.2 Q 54263.8 37104.2 54363.9 36469.15 Q 54464.65 35833.45 54510.8 34636.8 Q 54521.2 34491.85 54529 34318.95 Q 54536.8 34146.05 54537.45 34131.1 L 51062.55 34131.1 L 51062.55 33332.25 L 53977.8 33332.25 L 53977.8 29977.6 L 52434.05 29977.6 Q 52889.7 29388.7 53325.85 28699.7 L 51768.45 28313.6 Q 51602.05 28702.3 51344 29145.6 Q 51085.95 29588.9 50809.7 29977.6 L 49012.45 29977.6 L 49585.1 29724.75 Q 49467.45 29403 49227.6 28996.1 Q 48987.1 28589.2 48719.95 28247.3 L 47442.05 28792.65 Q 47624.7 29066.3 47798.25 29375.05 Q 47971.15 29683.8 48094 29977.6 L 46363.7 29977.6 L 46363.7 31242.5 L 49505.15 31242.5 L 49505.15 32067.35 L 46842.75 32067.35 Q 46751.1 32898.05 46611.35 33787.9 Q 46472.25 34678.4 46310.4 35368.7 L 48719.95 35368.7 Q 48163.55 35923.15 47431.65 36387.25 Q 46700.4 36851.35 45884.65 37165.95 Q 46116.7 37360.95 46393.6 37673.6 Q 46670.5 37986.25 46842.75 38231.3 Q 47575.95 37890.7 48253.9 37445.45 Q 48931.85 37000.2 49505.15 36460.7 L 49505.15 38590.75 Z M 45804.7 31415.4 Q 45557.7 30856.4 45104 30155.7 Q 44650.3 29455 44194 28845.95 L 42822.5 29484.9 Q 43267.1 30136.2 43689.6 30872.65 Q 44112.1 31609.1 44326.6 32160.95 L 45804.7 31415.4 Z M 45605.15 33278.95 L 42543 33278.95 L 42543 34823.35 L 44073.75 34823.35 L 44073.75 37831.55 Q 43258.65 38224.15 42383.1 39176.4 L 43475.1 40773.45 Q 43783.2 40172.2 44129 39663.9 Q 44474.8 39154.95 44753 39123.1 Q 45026 39153 45488.15 39476.7 Q 45772.85 39665.2 46123.85 39855 Q 46850.55 40246.95 47769.65 40394.5 Q 48688.75 40541.4 49944.55 40534.25 Q 50809.7 40532.3 51875.7 40501.75 Q 52393.75 40486.8 52886.45 40467.95 Q 53901.1 40428.95 54510.8 40387.35 Q 54548.5 40016.2 54688.9 39525.45 Q 54828.65 39034.7 54976.2 38683.7 Q 54053.85 38815.65 52854.6 38901.45 Q 52514 38926.15 52172.1 38945.65 Q 50968.3 39015.2 50010.85 39016.5 Q 48889.6 39026.25 47967.9 38906.65 Q 47046.2 38787.05 46363.7 38417.2 Q 45979.55 38224.8 45702.65 38039.55 Q 45652.6 38008.35 45605.15 37977.8 L 45605.15 33278.95 Z M 65599.8 34996.25 L 65599.8 38484.15 L 62790.5 38484.15 L 62790.5 34304 L 66837.4 34304 L 66837.4 29471.9 L 65080.45 29471.9 L 65080.45 32773.25 L 62790.5 32773.25 L 62790.5 28353.25 L 61033.55 28353.25 L 61033.55 32773.25 L 58837.2 32773.25 L 58837.2 29471.9 L 57159.55 29471.9 L 57159.55 34304 L 61033.55 34304 L 61033.55 38484.15 L 58237.9 38484.15 L 58237.9 35009.25 L 56454.3 35009.25 L 56454.3 40054.55 L 65599.8 40054.55 L 65599.8 40773.45 L 67383.4 40773.45 L 67383.4 34996.25 L 65599.8 34996.25 Z M 71869.7 31162.55 L 71869.7 30523.6 Q 73703.35 30430 75557.15 30257.1 Q 75553.25 30699.75 75530.5 31162.55 L 71869.7 31162.55 Z M 71869.7 32533.4 L 75450.55 32533.4 Q 75410.25 33046.25 75370.6 33478.5 L 72535.3 33478.5 L 72535.3 38124.7 L 74132.35 38124.7 L 74132.35 34929.95 L 78871.5 34929.95 L 78871.5 38231.3 L 80535.5 38231.3 L 80535.5 33478.5 L 76901.35 33478.5 Q 76924.1 33316.65 76949.45 33147.65 Q 76994.95 32859.7 77034.6 32533.4 L 81320.7 32533.4 L 81320.7 31162.55 L 77180.85 31162.55 Q 77195.15 30964.3 77212.05 30768.65 Q 77245.2 30408.55 77260.8 30070.55 Q 79058.05 29854.75 80575.8 29538.2 L 79337.55 28286.95 Q 77985.55 28580.75 76081.05 28795.25 Q 75227.6 28892.1 74320.2 28970.75 Q 72298.05 29144.3 70311.65 29219.05 L 70311.65 32985.8 Q 70329.2 34240.95 70191.4 35737.25 Q 70119.9 36439.9 69978.2 37138.65 Q 69694.8 38627.8 68953.8 39842 Q 69265.15 39964.2 69676.6 40201.45 Q 70087.4 40438.05 70338.3 40640.2 Q 71087.1 39398.7 71419.9 37826.35 Q 71631.15 36860.45 71730.6 35884.8 Q 71882.05 34296.85 71869.7 32985.8 L 71869.7 32533.4 Z M 77394.05 35368.7 L 75730.05 35368.7 L 75730.05 36380.75 Q 75762.55 36826.65 75515.55 37385 Q 75378.4 37663.85 75094.35 37951.8 Q 74810.3 38239.1 74328.65 38522.5 Q 73400.45 39089.3 71403.65 39562.5 Q 71713.7 39816.65 72019.2 40163.1 Q 72324.7 40509.55 72495 40773.45 Q 74684.2 40142.95 75746.95 39356.45 Q 76713.5 38646.65 77054.1 37919.3 Q 77425.25 37113.3 77394.05 36420.4 L 77394.05 35368.7 Z M 76608.2 39043.15 Q 77540.95 39396.75 78535.45 39862.15 Q 78592 39888.15 78648.55 39914.8 Q 79635.25 40380.85 80295.65 40773.45 L 81414.3 39721.75 Q 80685.65 39357.75 79675.55 38911.85 Q 78664.8 38465.3 77726.85 38111.05 L 76608.2 39043.15 Z M 86499.25 28366.9 L 84835.25 28366.9 L 84835.25 30842.75 L 82545.95 30842.75 L 82545.95 32307.2 L 84555.75 32307.2 Q 84223.6 33555.2 83637.3 34812.95 Q 83051 36071.35 82359.4 36979.4 Q 82560.25 37281 82793.6 37680.1 Q 83026.95 38079.2 83158.25 38430.85 Q 83628.2 37821.8 84051.35 36991.1 Q 84474.5 36160.4 84835.25 35222.45 L 84835.25 40800.1 L 86499.25 40800.1 L 86499.25 34636.8 Q 86826.2 35164.6 87129.75 35682 Q 87433.95 36199.4 87630.9 36606.95 L 88469.4 35049.55 Q 88304.3 34827.25 87883.1 34288.4 Q 87570.45 33889.3 87233.75 33472 Q 86780.05 32909.75 86499.25 32600.35 L 86499.25 32307.2 L 88469.4 32307.2 L 88469.4 30842.75 L 86499.25 30842.75 L 86499.25 28366.9 Z M 91131.8 32746.6 L 91131.8 28366.9 L 89414.5 28366.9 L 89414.5 40800.1 L 91131.8 40800.1 L 91131.8 33891.25 Q 91820.8 34514.6 92489.65 35162.65 Q 93158.5 35810.7 93568 36313.8 L 94886.2 35115.85 Q 94414.95 34603 93669.4 33948.45 Q 92923.85 33293.9 92195.85 32683.55 Q 91935.2 32463.85 91704.45 32267.55 L 91131.8 32746.6 Z M 97681.2 38018.1 L 97681.2 35409 L 99798.25 35409 L 99798.25 38018.1 L 97681.2 38018.1 Z M 99798.25 34037.5 L 97681.2 34037.5 L 97681.2 31881.45 L 99798.25 31881.45 L 99798.25 34037.5 Z M 104031.05 30403.35 Q 104330.7 29568.1 104550.4 28712.7 L 103032.65 28366.9 Q 102739.5 29551.85 102279.3 30675.05 Q 101818.45 31797.6 101235.4 32653 L 101235.4 30496.95 L 99172.3 30496.95 Q 99518.75 29614.9 99864.55 28593.1 L 98134.25 28353.25 Q 98091.35 28835.55 97986.05 29410.15 Q 97880.75 29984.75 97748.15 30496.95 L 96243.4 30496.95 L 96243.4 40387.35 L 97681.2 40387.35 L 97681.2 39415.6 L 101235.4 39415.6 L 101235.4 33199 Q 101515.55 33384.25 101802.85 33587.05 Q 102090.8 33789.2 102260.45 33944.55 Q 102896.15 33062.5 103432.4 31841.15 L 106280.7 31841.15 Q 106178.65 35263.4 106024.6 36937.15 Q 106018.1 37005.4 106011.6 37071.05 Q 105853.65 38683.05 105575.45 38963.2 Q 105450 39090.6 105317.4 39141.3 Q 105184.8 39191.35 104989.8 39189.4 Q 104718.75 39192 104187.7 39179.65 Q 103656.65 39167.3 103006 39109.45 Q 103219.85 39453.3 103360.9 39881.65 Q 103501.95 40310 103525.35 40653.85 Q 104124 40675.95 104675.2 40675.3 Q 105226.4 40675.3 105615.1 40627.2 Q 106009.65 40566.75 106314.5 40410.75 Q 106618.7 40255.4 106893 39895.3 Q 107198.5 39526.1 107366.2 38345.7 Q 107473.45 37588.45 107549.5 36379.45 Q 107665.85 34482.1 107758.8 31122.25 Q 107767.9 30955.2 107770.5 30693.25 Q 107772.45 30431.3 107771.8 30403.35 L 104031.05 30403.35 Z M 105561.8 36473.7 Q 105231.6 35868.55 104678.45 35050.85 Q 104125.95 34233.8 103605.3 33518.8 L 102367.05 34224.05 Q 102876 34979.35 103397.3 35826.3 Q 103918.6 36673.9 104217.6 37299.2 L 105561.8 36473.7 Z M 114347.85 30816.1 L 110487.5 30816.1 L 110487.5 31908.1 L 120058.75 31908.1 L 120058.75 30816.1 L 115958.55 30816.1 L 115958.55 30270.75 L 120857.6 30270.75 L 120857.6 29139.1 L 115958.55 29139.1 L 115958.55 28340.25 L 114347.85 28340.25 L 114347.85 29139.1 L 109569.05 29139.1 L 109569.05 30270.75 L 114347.85 30270.75 L 114347.85 30816.1 Z M 118115.25 38550.45 L 118115.25 39362.3 L 112351.05 39362.3 L 112351.05 38550.45 L 118115.25 38550.45 Z M 110793.65 40787.1 L 112351.05 40787.1 L 112351.05 40427.65 L 118115.25 40427.65 L 118115.25 40773.45 L 119752.6 40773.45 L 119752.6 37498.75 L 110793.65 37498.75 L 110793.65 40787.1 Z M 116903.65 34982.6 Q 116760.65 35395.35 116557.85 35808.1 L 113815.5 35808.1 Q 113689.4 35405.75 113443.05 34982.6 L 116903.65 34982.6 Z M 112564.25 33345.25 L 117875.4 33345.25 L 117875.4 34010.85 L 112564.25 34010.85 L 112564.25 33345.25 Z M 118195.2 35808.1 Q 118444.8 35445.4 118714.55 34982.6 L 119473.1 34982.6 L 119473.1 32346.85 L 111060.15 32346.85 L 111060.15 34982.6 L 112418 34982.6 L 111859 35115.85 Q 112031.9 35432.4 112165.15 35808.1 L 109116.65 35808.1 L 109116.65 37006.05 L 121270.35 37006.05 L 121270.35 35808.1 L 118195.2 35808.1 Z M 123440.05 34903.3 Q 123682.5 34104.45 123839.8 33076.15 Q 123996.45 32047.85 124039.35 31148.9 L 122801.1 30976 Q 122737.4 31835.95 122566.45 32797.95 Q 122395.5 33760.6 122162.15 34450.25 L 123440.05 34903.3 Z M 132372.35 34144.1 L 128818.15 34144.1 L 128818.15 32387.15 L 132372.35 32387.15 L 132372.35 34144.1 Z M 132745.45 39176.4 Q 132619.35 39184.85 132580.35 39101 Q 132542 39017.8 132545.25 38737 L 132545.25 35555.25 L 134023.35 35555.25 L 134023.35 30989 L 132665.5 30989 Q 132935.9 30505.4 133209.55 29950.95 Q 133482.55 29397.15 133743.85 28832.95 L 132079.85 28353.25 Q 131893.3 28979.85 131607.3 29691.6 Q 131320.65 30402.7 131014.5 30989 L 129403.8 30989 L 130242.3 30656.2 Q 130070.05 30179.1 129724.9 29561.6 Q 129380.4 28944.1 129017.7 28406.55 L 127633.2 28925.9 Q 127930.25 29408.2 128214.3 29962.65 Q 128498.35 30517.1 128684.9 30989 L 127234.1 30989 L 127234.1 32413.8 Q 127080.7 31967.25 126877.9 31483.65 Q 126675.1 30999.4 126461.9 30563.25 L 125650.05 30896.05 L 125650.05 28353.25 L 124066 28353.25 L 124066 40773.45 L 125650.05 40773.45 L 125650.05 31641.6 Q 125862.6 32179.8 126027.7 32703.05 Q 126192.8 33226.3 126275.35 33625.4 L 127234.1 33199 L 127234.1 35555.25 L 128578.3 35555.25 Q 128526.3 36784.4 128153.2 37692.45 Q 128023.2 37984.3 127832.1 38244.3 Q 127269.2 39050.95 125849.6 39548.85 Q 126108.95 39782.2 126360.5 40133.2 Q 126612.05 40483.55 126741.4 40787.1 Q 128426.85 40149.45 129159.4 39125.05 Q 129449.95 38734.4 129642.35 38287.85 Q 130118.8 37115.25 130202.65 35555.25 L 131028.15 35555.25 L 131028.15 38750 Q 131006.05 39764.65 131304.4 40182.6 Q 131602.1 40601.2 132478.95 40587.55 L 133370.75 40587.55 Q 134059.75 40613.55 134389.3 40103.3 Q 134718.85 39592.4 134808.55 38231.3 Q 134482.25 38146.8 134098.1 37979.75 Q 133713.95 37812.7 133477.35 37619 Q 133461.1 38607 133402.6 38906.65 Q 133344.1 39206.3 133197.85 39176.4 L 132745.45 39176.4 Z M 144126.95 36154.55 L 135860.25 36154.55 L 135860.25 37671.65 L 144126.95 37671.65 L 144126.95 36154.55 Z M 139268.2 33292.6 Q 139447.6 32426.8 139627.65 31481.7 L 146962.25 31481.7 L 146962.25 29964.6 L 139907.15 29964.6 Q 140005.3 29431.6 140086.55 28926.55 Q 140103.45 28825.8 140120.35 28726.35 L 138496 28566.45 Q 138297.1 29914.55 138011.75 31401.75 Q 137934.4 31806.7 137853.8 32203.2 Q 137558.05 33658.55 137271.4 34743.4 L 138642.25 34756.4 L 145551.1 34756.4 Q 145373 36646.6 145127.3 37670.35 Q 144880.95 38694.1 144552.7 38936.55 Q 144405.8 39042.5 144233.55 39071.1 Q 144061.3 39100.35 143833.8 39096.45 Q 143474.35 39099.05 142767.8 39084.75 Q 142060.6 39069.8 141251.35 39002.85 Q 141505.5 39355.8 141672.55 39790 Q 141839.6 40224.85 141863.65 40587.55 Q 142605.3 40618.1 143261.8 40623.95 Q 143918.3 40629.8 144340.15 40600.55 Q 144860.8 40559.6 145231.95 40424.4 Q 145603.1 40288.55 145924.2 39948.6 Q 146374 39533.25 146669.1 38266.4 Q 146698.35 38142.25 146726.3 38007.7 Q 147011.65 36638.8 147241.75 33984.2 Q 147272.3 33801.55 147290.5 33558.45 Q 147308.05 33315.35 147308.7 33292.6 L 139268.2 33292.6 Z M 158597.25 30949.35 L 155016.4 30949.35 L 155016.4 30177.15 L 158597.25 30177.15 L 158597.25 30949.35 Z M 158597.25 32919.5 L 155016.4 32919.5 L 155016.4 32147.3 L 158597.25 32147.3 L 158597.25 32919.5 Z M 160167.65 28886.25 L 153538.3 28886.25 L 153538.3 34211.05 L 160167.65 34211.05 L 160167.65 28886.25 Z M 153059.25 29831.35 Q 152611.4 29500.5 151904.2 29137.15 Q 151197 28773.8 150569.75 28513.15 L 149718.25 29631.8 Q 150363.05 29943.8 151050.75 30350.05 Q 151738.45 30756.95 152153.8 31109.25 L 153059.25 29831.35 Z M 152233.75 33412.2 Q 151777.45 33080.7 151064.4 32719.95 Q 150350.7 32358.55 149704.6 32107.65 L 148892.75 33252.3 Q 149557.7 33554.55 150255.8 33951.05 Q 150953.25 34348.2 151368.6 34690.1 L 152233.75 33412.2 Z M 151382.25 35382.35 Q 150849.25 36554.3 150248.65 37673.6 Q 149648.7 38792.9 149145.6 39575.5 L 150503.45 40520.6 Q 151029.3 39550.8 151564.9 38470.5 Q 152101.15 37390.85 152566.55 36340.45 L 151382.25 35382.35 Z M 154523.7 36340.45 L 155269.25 36340.45 L 155269.25 39029.5 L 154523.7 39029.5 L 154523.7 36340.45 Z M 157186.1 36340.45 L 157186.1 39029.5 L 156440.55 39029.5 L 156440.55 36340.45 L 157186.1 36340.45 Z M 159129.6 36340.45 L 159129.6 39029.5 L 158357.4 39029.5 L 158357.4 36340.45 L 159129.6 36340.45 Z M 160620.7 39029.5 L 160620.7 35009.25 L 153112.55 35009.25 L 153112.55 39029.5 L 152114.15 39029.5 L 152114.15 40401 L 161366.25 40401 L 161366.25 39029.5 L 160620.7 39029.5 Z M 5309.7 49976.45 L 5309.7 52332.7 L 4311.3 52332.7 L 4311.3 49976.45 L 5309.7 49976.45 Z M 4311.3 56139.75 L 4311.3 53690.55 L 5309.7 53690.55 L 5309.7 56139.75 L 4311.3 56139.75 Z M 6707.2 57510.6 L 6707.2 48591.95 L 2926.8 48591.95 L 2926.8 58549.3 L 4311.3 58549.3 L 4311.3 57510.6 L 6707.2 57510.6 Z M 12284.85 55993.5 Q 11912.4 56768.95 11300.1 57324.7 Q 10464.2 56748.8 9968.9 55993.5 L 12284.85 55993.5 Z M 13190.3 54808.55 L 12937.45 54848.2 L 9782.35 54848.2 Q 9811.6 54718.85 9835.65 54588.85 Q 9859.7 54458.85 9888.95 54329.5 L 14747.7 54329.5 L 14747.7 53051.6 L 10048.2 53051.6 Q 10085.25 52738.3 10101.5 52425.65 L 14468.2 52425.65 L 14468.2 51187.4 L 13216.95 51187.4 Q 13530.9 50697.3 13882.55 50141.55 Q 14095.75 49805.5 14308.3 49470.75 L 12843.85 49044.35 Q 13729.15 48928 14494.85 48791.5 L 13589.4 47606.55 Q 12442.8 47850.3 10834.05 48000.45 Q 10508.4 48032.3 10173.65 48059.6 Q 8520.05 48192.2 6893.75 48245.5 Q 7007.5 48496.4 7106.3 48821.4 Q 7205.75 49147.05 7239.55 49417.45 Q 8594.8 49397.95 10046.9 49305.65 Q 11499 49214 12843.85 49044.35 Q 12656.65 49548.1 12374.55 50125.95 Q 12092.45 50704.45 11805.8 51187.4 L 10128.15 51187.4 L 11379.4 50907.9 Q 11326.75 50585.5 11223.4 50142.85 Q 11120.05 49700.2 11006.95 49297.2 L 9782.35 49510.4 Q 9874.65 49932.25 9952 50389.2 Q 10029.35 50845.5 10061.85 51187.4 L 8531.1 51187.4 L 9276.65 50948.2 Q 9180.45 50636.2 9012.1 50217.6 Q 8843.1 49799 8677.35 49417.45 L 7479.4 49750.25 Q 7612.65 50089.55 7743.95 50478.9 Q 7874.6 50868.25 7958.45 51187.4 L 7146.6 51187.4 L 7146.6 52425.65 L 8597.4 52425.65 Q 8561 52728.55 8544.1 53051.6 L 6773.5 53051.6 L 6773.5 54329.5 L 8371.2 54329.5 Q 8172.3 55626.9 7548.95 56807.3 Q 6926.25 57987.05 5628.85 58815.8 Q 5917.45 59027.05 6201.5 59348.15 Q 6484.9 59669.25 6653.9 59960.45 Q 7536.6 59375.45 8134.6 58626 Q 8733.25 57875.9 9116.75 57031.55 Q 9552.9 57640.6 10128.15 58109.9 Q 9163.55 58605.85 7958.45 58841.8 Q 8171.65 59049.8 8424.5 59398.2 Q 8677.35 59745.95 8810.6 60013.75 Q 10208.1 59654.3 11326.75 58975.05 Q 12551.35 59657.55 14135.4 60000.1 Q 14293.35 59686.15 14551.4 59319.55 Q 14809.45 58952.95 15066.85 58709.2 Q 13649.2 58489.5 12511.05 57990.3 Q 13546.5 56911.95 14041.8 55155 L 13190.3 54808.55 Z M 17942.45 60665.7 Q 19189.8 60282.85 19872.95 59432.65 Q 20556.1 58583.1 20565.2 57431.3 Q 20563.9 56583.05 20200.55 56100.1 Q 19837.2 55616.5 19127.4 55607.4 Q 18582.7 55612.6 18210.25 55926.55 Q 17837.8 56241.15 17822.85 56805.35 Q 17839.1 57377.35 18205.7 57682.2 Q 18571.65 57987.05 19087.1 57990.3 Q 19170.3 57993.55 19234 57976.65 Q 19094.25 59061.5 17516.7 59587.35 L 17942.45 60665.7 Z M 38336.2 49789.9 L 32239.85 49789.9 L 32239.85 49124.3 L 38336.2 49124.3 L 38336.2 49789.9 Z M 38336.2 51507.2 L 32239.85 51507.2 L 32239.85 50828.6 L 38336.2 50828.6 L 38336.2 51507.2 Z M 39947.55 48006.3 L 30708.45 48006.3 L 30708.45 52625.2 L 39947.55 52625.2 L 39947.55 48006.3 Z M 36273.1 56978.25 L 40373.3 56978.25 L 40373.3 55607.4 L 36273.1 55607.4 L 36273.1 54609 L 41211.8 54609 L 41211.8 53210.85 L 29470.85 53210.85 L 29470.85 54609 L 34662.4 54609 L 34662.4 57990.3 Q 34022.15 57796.6 33539.2 57397.5 Q 33056.25 56999.05 32745.55 56326.3 Q 32908.7 55750.4 33051.7 55114.7 L 31467.65 54874.85 Q 31238.85 56219.05 30623.95 57246.05 Q 30008.4 58273.7 28991.8 58908.75 Q 29281.05 59098.55 29640.5 59435.9 Q 29999.95 59773.25 30189.75 60013.75 Q 31340.9 59214.9 32053.3 57896.7 Q 32884 59027.7 34161.25 59414.45 Q 35439.15 59801.2 37258.5 59773.9 L 41051.9 59773.9 Q 41118.2 59416.4 41268.35 58986.75 Q 41419.15 58557.1 41584.9 58269.8 Q 41068.15 58289.95 40193.9 58298.4 Q 39378.8 58306.2 38594.25 58308.15 Q 37752.5 58310.1 37337.8 58309.45 Q 36795.7 58309.45 36273.1 58269.8 L 36273.1 56978.25 Z M 52686.9 57870.05 L 44646.4 57870.05 L 44646.4 51773.7 L 43009.05 51773.7 L 43009.05 59361.15 L 52686.9 59361.15 L 52686.9 59960.45 L 54284.6 59960.45 L 54284.6 51706.75 L 52686.9 51706.75 L 52686.9 57870.05 Z M 50437.25 53304.45 L 49278.95 53304.45 L 49278.95 52185.8 L 50437.25 52185.8 L 50437.25 53304.45 Z M 50437.25 55647.05 L 49278.95 55647.05 L 49278.95 54502.4 L 50437.25 54502.4 L 50437.25 55647.05 Z M 46762.8 54502.4 L 47921.1 54502.4 L 47921.1 55647.05 L 46762.8 55647.05 L 46762.8 54502.4 Z M 46762.8 52185.8 L 47921.1 52185.8 L 47921.1 53304.45 L 46762.8 53304.45 L 46762.8 52185.8 Z M 45471.9 50894.9 L 45471.9 56938.6 L 51808.1 56938.6 L 51808.1 50894.9 L 45471.9 50894.9 Z M 42849.15 48352.1 L 42849.15 49816.55 L 54457.5 49816.55 L 54457.5 48352.1 L 42849.15 48352.1 Z M 57798.5 50042.75 L 66105.5 50042.75 L 66105.5 51613.8 L 67729.2 51613.8 L 67729.2 48604.95 L 62990.05 48604.95 Q 62887.35 48311.8 62733.95 48003.05 Q 62581.2 47694.3 62418.05 47420.65 L 60740.4 47899.7 Q 60910.05 48212.35 61060.2 48604.95 L 56241.1 48604.95 L 56241.1 51613.8 L 57798.5 51613.8 L 57798.5 50042.75 Z M 65586.15 52319.05 Q 65095.4 52815 64433.05 53340.85 Q 63770.05 53866.7 63070 54342.5 Q 62674.15 53467.6 61898.7 52731.8 Q 62338.1 52445.8 62697.55 52119.5 L 65652.45 52119.5 L 65652.45 50775.3 L 58211.25 50775.3 L 58211.25 52119.5 L 60501.2 52119.5 Q 59588.6 52610.25 58479.05 52981.4 Q 57369.5 53352.55 56228.1 53583.95 Q 56430.25 53833.55 56666.85 54202.75 Q 56904.1 54572.6 57026.3 54822.2 Q 57970.75 54573.25 58911.95 54228.1 Q 59853.15 53882.3 60727.4 53424.05 Q 60923.7 53643.75 61099.85 53862.8 Q 61099.85 53862.8 61099.85 53863.45 Q 60316.6 54375.65 59147.9 54857.95 Q 58793.65 55004.2 58426.4 55139.4 Q 57216.1 55584 56121.5 55820.6 Q 56337.95 56081.25 56553.75 56422.5 Q 56770.2 56763.75 56906.7 57045.2 Q 58061.75 56687.05 59340.95 56113.75 Q 59372.8 56100.1 59404 56085.8 Q 60681.9 55509.25 61699.15 54874.85 Q 61818.75 55138.1 61898.7 55381.2 Q 61039.4 56096.85 59714.7 56747.5 Q 59212.25 56995.15 58679.25 57216.15 Q 57274.6 57799.2 55921.95 58096.9 Q 56157.9 58379 56384.1 58745.6 Q 56610.3 59112.2 56746.8 59414.45 Q 58102.7 59003 59530.75 58326.35 Q 60958.8 57649.7 62124.9 56858.65 Q 62122.3 57342.25 62017 57690.65 Q 61911.7 58039.05 61738.8 58202.85 Q 61601.65 58406.3 61429.4 58467.4 Q 61257.15 58529.15 61019.9 58522.65 Q 60540.85 58529.15 59821.95 58456.35 Q 60020.85 58796.95 60124.85 59208.4 Q 60228.85 59619.2 60248.35 59960.45 Q 60857.4 59987.1 61326.05 59973.45 Q 61835.65 59970.85 62203.55 59835.65 Q 62570.8 59700.45 62910.75 59348.15 Q 63430.1 58900.3 63617.95 57893.45 Q 63805.15 56886.6 63536.05 55660.7 Q 63590 55628.2 63645.9 55595.7 Q 63800.6 55508.6 63948.8 55407.85 Q 64433.7 56774.15 65244.9 57798.55 Q 66056.75 58823.6 67250.15 59401.45 Q 67430.85 59094.65 67725.95 58720.9 Q 68021.7 58346.5 68301.85 58109.9 Q 67151.35 57636.7 66364.85 56718.9 Q 65579 55801.1 65187.05 54609 Q 66085.35 53999.95 66904.35 53370.75 L 65586.15 52319.05 Z M 70591.8 60040.4 Q 71013 59472.95 71460.2 58713.75 Q 71906.75 57954.55 72229.15 57218.1 L 70711.4 56819 Q 70389 57533.35 69944.4 58233.4 Q 69499.8 58932.8 69087.05 59428.1 L 70591.8 60040.4 Z M 72961.05 57351.35 Q 73081.95 58001.35 73147.6 58704 Q 73213.25 59406.65 73213.9 59907.15 L 74771.3 59693.95 Q 74758.3 59185 74664.7 58504.45 Q 74571.75 57823.25 74438.5 57204.45 L 72961.05 57351.35 Z M 78432.1 54235.9 Q 77826.3 53763.35 76861.7 53171.2 Q 77114.55 52086.35 77207.5 50722 L 78445.75 50722 Q 78374.25 52977.5 78515.95 54434.8 Q 78582.25 55010.7 78721.35 55437.75 Q 79047 56523.25 80083.1 56538.85 Q 80802.65 56560.3 81158.2 56094.9 Q 81513.1 55629.5 81613.85 54422.45 Q 81332.4 54356.8 81002.85 54196.25 Q 80673.95 54035.7 80442.55 53849.8 Q 80414.6 54544 80344.4 54858.6 Q 80274.2 55173.2 80136.4 55168 Q 79838.05 55161.5 79821.8 53667.15 Q 79805.55 52172.8 79936.2 49390.8 L 77260.8 49390.8 Q 77284.85 48793.45 77290.7 48146.05 Q 77294.6 47843.8 77300.45 47526.6 L 75810 47526.6 Q 75806.75 48518.5 75783.35 49390.8 L 74212.3 49390.8 L 74212.3 50722 L 75730.05 50722 Q 75673.5 51633.95 75516.85 52386 Q 75178.2 52192.95 74875.3 52026.55 Q 74801.85 51985.6 74731.65 51946.6 L 74066.05 52931.35 L 73919.8 51560.5 L 73914.6 51561.8 Q 73254.85 51721.05 72614.6 51879.65 L 72614.6 50775.3 L 73986.1 50775.3 L 73986.1 49323.85 L 72614.6 49323.85 L 72614.6 47579.9 L 71163.8 47579.9 L 71163.8 49323.85 L 69393.2 49323.85 L 69393.2 50775.3 L 71163.8 50775.3 L 71163.8 52212.45 Q 69982.75 52482.2 69100.7 52651.85 L 69406.85 54182.6 L 71163.8 53743.85 L 71163.8 54968.45 Q 71174.2 55201.15 70924.6 55194.65 Q 70782.9 55195.3 70431.9 55191.4 Q 70080.9 55186.85 69659.7 55168 Q 69804.65 55489.1 69927.5 55880.4 Q 70050.35 56271.05 70085.45 56592.15 Q 70752.35 56596.7 71234 56544.05 Q 71715.65 56491.4 72042.6 56326.3 Q 72366.3 56153.4 72493.7 55840.1 Q 72620.45 55527.45 72614.6 54995.1 L 72614.6 53370.75 L 74012.75 53011.3 L 73986.1 53051.6 Q 74369.6 53275.85 74788.2 53541.05 Q 74938.35 53635.3 75091.1 53730.2 Q 74588.65 54858.6 73386.8 55607.4 Q 73666.95 55820.6 73944.5 56153.4 Q 74222.05 56486.2 74372.2 56778.7 Q 75766.45 55907.05 76382 54555.7 Q 77164.6 55084.8 77646.9 55513.8 L 78432.1 54235.9 Z M 75676.75 57324.7 Q 75913.35 57963.65 76107.7 58660.45 Q 76302.05 59357.25 76369 59866.85 L 77939.4 59560.7 Q 77852.95 59042 77638.45 58362.75 Q 77424.6 57684.15 77167.85 57084.85 L 75676.75 57324.7 Z M 78378.8 57298.05 Q 78844.85 57970.8 79290.75 58728.7 Q 79736.65 59486.6 79962.85 60040.4 L 81467.6 59374.8 Q 81200.45 58795 80728.55 58070.25 Q 80256.65 57345.5 79789.95 56725.4 L 78378.8 57298.05 Z M 90786 56419.25 Q 90236.75 56971.75 89467.8 57364.35 Q 88589 56971.75 87910.4 56419.25 L 90786 56419.25 Z M 84143 53117.9 L 84143 52172.8 L 92982.35 52172.8 L 92982.35 53117.9 L 87657.55 53117.9 Q 87717.35 52791.6 87777.15 52465.95 L 86273.05 52292.4 Q 86210 52725.3 86126.8 53117.9 L 86126.8 53117.9 L 84143 53117.9 Z M 87750.5 49789.9 Q 87828.5 50025.2 87913.65 50291.7 Q 88004 50574.45 88096.95 50854.6 L 86432.95 50854.6 Q 86349.75 50560.8 86216.5 50224.1 Q 86083.25 49887.4 85940.25 49563.7 Q 87315 49523.4 88668.95 49444.1 L 87750.5 49789.9 Z M 89481.45 50854.6 Q 89388.5 50537.4 89253.3 50157.8 Q 89118.1 49778.2 88975.1 49430.45 Q 90246.5 49357 91398.3 49243.9 Q 91252.7 49622.2 91040.15 50049.25 Q 90827.6 50476.95 90612.45 50854.6 L 89481.45 50854.6 Z M 92130.2 55048.4 L 91891 55088.05 L 87125.2 55088.05 Q 87241.55 54765.65 87337.75 54423.1 Q 87337.75 54422.45 87337.75 54422.45 L 93235.2 54422.45 L 93235.2 53317.45 L 94340.2 53317.45 L 94340.2 50854.6 L 92023.6 50854.6 Q 92143.2 50662.85 92273.2 50456.15 Q 92537.75 50034.95 92809.45 49590.35 L 91558.2 49230.9 Q 92643.05 49127.55 93568 49004.7 L 93128.6 47739.8 Q 91536.1 47967.3 89446.35 48121.35 Q 88498.65 48191.55 87508.05 48246.15 Q 85325.35 48364.45 83238.2 48405.4 Q 83333.1 48664.75 83426.05 48996.25 Q 83519 49327.75 83544.35 49617 Q 84516.1 49617 85527.5 49576.7 L 84728.65 49936.15 Q 84911.95 50365.8 85075.1 50854.6 L 82838.45 50854.6 L 82838.45 53317.45 L 83970.1 53317.45 L 83970.1 54422.45 L 85807 54422.45 Q 85344.85 55901.2 84510.9 56975 Q 83676.95 58049.45 82386.05 58709.2 Q 82624.6 58939.95 82928.15 59303.3 Q 83232.35 59666 83370.8 59907.15 Q 85378 58735.85 86445.95 56685.75 Q 87114.8 57431.3 87963.7 58016.95 Q 86732.6 58419.3 85301.3 58602.6 Q 85492.4 58842.45 85705.6 59229.85 Q 85918.8 59617.25 86020.2 59907.15 Q 87870.75 59594.5 89481.45 58841.8 Q 91304.7 59637.4 93607.65 59893.5 Q 93753.25 59586.7 93974.25 59194.75 Q 94194.6 58802.8 94420.15 58535.65 Q 92569.6 58386.15 90998.55 57937 Q 92256.95 57031.55 92995.35 55647.05 L 92130.2 55048.4 Z M 102740.15 58056.6 L 102740.15 55381.2 L 106720.1 55381.2 L 106720.1 53849.8 L 102740.15 53849.8 L 102740.15 51507.2 L 107225.8 51507.2 L 107225.8 49962.8 L 102740.15 49962.8 L 102740.15 47566.9 L 101076.15 47566.9 L 101076.15 49962.8 L 99026.05 49962.8 Q 99368.6 49044.35 99651.35 48086.25 L 98014 47726.8 Q 97667.55 49107.4 97055.9 50369.05 Q 96444.25 51630.05 95657.75 52492.6 Q 95978.85 52667.45 96400.05 52950.2 Q 96821.25 53232.3 97082.55 53437.7 Q 97741 52632.35 98320.15 51507.2 L 101076.15 51507.2 L 101076.15 53849.8 L 97468.65 53849.8 L 97468.65 55381.2 L 101076.15 55381.2 L 101076.15 58056.6 L 95937.25 58056.6 L 95937.25 59614 L 107905.05 59614 L 107905.05 58056.6 L 102740.15 58056.6 Z M 113043.3 49058 Q 112583.75 48765.5 111872 48393.05 Q 111870.05 48392.4 111868.1 48391.1 Q 111157 48019.3 110567.45 47726.8 L 109675.65 48871.45 Q 109820.6 48954 109979.2 49043.7 Q 110555.1 49366.75 111145.95 49715.8 Q 111736.8 50064.85 112098.2 50335.9 L 113043.3 49058 Z M 112404.35 52651.85 Q 111983.8 52399 111342.25 52074.65 Q 110700.7 51750.3 110128.05 51471.45 Q 110009.1 51413.6 109901.85 51360.95 L 109049.7 52532.25 Q 109669.15 52865.7 110377.65 53266.1 Q 111086.8 53666.5 111526.2 53970.05 L 112404.35 52651.85 Z M 110567.45 59840.2 Q 111181.7 58861.3 111785.55 57777.1 Q 112389.4 56692.9 112923.7 55634.05 L 111765.4 54568.7 Q 111149.2 55751.05 110466.05 56870.35 Q 109782.25 57989.65 109236.25 58762.5 L 110567.45 59840.2 Z M 119206.6 58003.3 L 115213 58003.3 L 115213 56046.8 L 119206.6 56046.8 L 119206.6 58003.3 Z M 121376.95 52931.35 L 121376.95 51414.25 L 117995.65 51414.25 L 117995.65 49590.35 Q 119579.7 49287.45 120884.25 48805.15 L 119672.65 47553.25 Q 118600.8 47970.55 117035.6 48278.65 Q 116858.15 48314.4 116677.45 48348.2 Q 115081.05 48642.65 113443.05 48805.15 Q 113588 49089.2 113720.6 49474 Q 113853.2 49858.15 113908.45 50163 Q 115170.1 50049.25 116491.55 49856.2 L 116491.55 51414.25 L 112950.35 51414.25 L 112950.35 52931.35 L 116491.55 52931.35 L 116491.55 54609 L 113775.85 54609 L 113775.85 59987.1 L 115213 59987.1 L 115213 59441.1 L 119206.6 59441.1 L 119206.6 59920.15 L 120711.35 59920.15 L 120711.35 54609 L 117995.65 54609 L 117995.65 52931.35 L 121376.95 52931.35 Z M 125250.3 59747.25 L 126675.1 58522.65 Q 126196.05 57933.1 125465.45 57183.65 Q 125329.6 57044.55 125190.5 56906.75 Q 124443 56160.55 123772.85 55607.4 L 122388.35 56805.35 Q 123094.25 57419.6 123859.3 58201.55 Q 124625 58982.85 125250.3 59747.25  Z M 138070.25 55061.4 Q 137606.15 55908.35 136939.9 56745.55 Q 136274.3 57582.75 135580.75 58189.85 Q 135879.75 58375.1 136271.05 58667.6 Q 136663 58960.1 136911.95 59174.6 Q 137580.15 58473.25 138311.4 57507.35 Q 139042 56541.45 139601 55580.75 L 138070.25 55061.4 Z M 147481.6 54289.2 L 147481.6 52692.15 L 142929 52692.15 L 142929 50402.2 L 141291.65 50402.2 L 141291.65 52692.15 L 138336.1 52692.15 Q 138479.1 52046.05 138603.9 51312.2 Q 138729.35 50579 138802.15 49843.2 Q 140900.35 49797.05 143016.75 49619.6 L 143187.05 49604 Q 145295.65 49420.7 147002.55 49071 L 146203.7 47646.85 Q 144694.4 47946.5 142687.85 48131.1 Q 142039.8 48192.2 141367.05 48240.95 Q 139285.75 48389.8 137244.75 48432.05 Q 137232.4 49511.05 137103.05 50495.15 Q 137073.8 50733.7 137042.6 50951.45 Q 136906.1 51853 136832 52185.8 Q 136672.1 52908.6 136352.95 53051.6 Q 136499.85 53372.7 136652.6 53801.7 Q 136804.7 54230.7 136871.65 54502.4 Q 136991.9 54393.2 137470.95 54341.2 Q 137950 54289.2 138549.3 54289.2 L 141291.65 54289.2 L 141291.65 58056.6 Q 141301.4 58349.75 140971.85 58323.1 Q 140897.75 58323.1 140769.7 58323.75 Q 140492.8 58327 140067.05 58325.7 Q 139641.95 58325.05 139188.25 58309.45 Q 139372.2 58665 139519.1 59114.8 Q 139666 59565.25 139720.6 59920.15 Q 140557.8 59935.1 141173.35 59880.5 Q 141788.9 59825.25 142196.45 59640.65 Q 142609.2 59450.2 142772.35 59086.85 Q 142935.5 58723.5 142929 58083.25 L 142929 54289.2 L 147481.6 54289.2 Z M 144193.25 55660.7 Q 144816.6 56468.65 145445.8 57387.1 Q 145501.7 57469.65 145556.95 57551.55 Q 146173.15 58464.15 146509.85 59148.6 L 148013.95 58469.35 Q 147637.6 57778.4 146985.65 56893.75 Q 146925.85 56811.85 146865.4 56729.95 Q 146202.4 55842.05 145577.75 55075.05 L 144193.25 55660.7 Z M 160913.2 54063 L 160913.2 52439.3 L 155841.25 52439.3 Q 155842.55 52419.15 155843.2 52399 Q 155865.3 51901.75 155867.9 51440.9 L 155867.9 50069.4 L 160394.5 50069.4 L 160394.5 48445.7 L 149850.85 48445.7 L 149850.85 50069.4 L 154203.9 50069.4 L 154203.9 51414.25 Q 154203.9 51906.3 154164.25 52439.3 L 149371.8 52439.3 L 149371.8 54063 L 153831.45 54063 Q 153464.85 55304.5 152398.2 56455 Q 152318.25 56537.55 152233.75 56619.45 Q 151102.75 57754.35 148905.75 58562.3 Q 149178.1 58811.9 149475.15 59212.95 Q 149772.2 59614.65 149944.45 59933.8 Q 152168.1 59080.35 153408.95 57895.4 Q 154649.15 56709.8 155175.65 55367.55 Q 156001.8 57008.15 157272.55 58150.2 Q 158543.3 59291.6 160407.5 59893.5 Q 160588.2 59535.35 160893.7 59110.25 Q 161198.55 58684.5 161498.85 58416.05 Q 159556 57896.7 158259.25 56778.7 Q 156962.5 55660.7 156267.65 54063 L 160913.2 54063 Z M 174744.55 50801.95 Q 174476.1 50147.4 173960.65 49304.35 Q 173445.2 48460.65 172907.65 47726.8 L 171736.35 48232.5 Q 172271.95 49006 172757.5 49869.85 Q 173243.7 50733.7 173479.65 51387.6 L 174744.55 50801.95 Z M 170471.45 58176.2 L 170471.45 56006.5 L 172694.45 56006.5 L 172694.45 58176.2 L 170471.45 58176.2 Z M 170298.55 54781.9 Q 171120.15 53800.4 171683.05 52558.9 Q 172218.65 53810.15 172934.3 54781.9 L 170298.55 54781.9 Z M 166650.75 58216.5 L 164507.7 58216.5 L 164507.7 56938.6 L 166650.75 56938.6 L 166650.75 58216.5 Z M 163895.4 50748.65 L 163895.4 49843.2 L 167236.4 49843.2 L 167236.4 50748.65 L 166264.65 50748.65 L 166264.65 50109.7 L 164906.8 50109.7 L 164906.8 50748.65 L 163895.4 50748.65 Z M 171203.35 49909.5 Q 170806.85 51391.5 170073.65 52618.7 Q 169340.45 53845.9 168355.05 54648.65 L 168355.05 53996.7 L 166264.65 53996.7 L 166264.65 53477.35 L 167702.45 53477.35 L 167702.45 52359.35 L 166264.65 52359.35 L 166264.65 51866.65 L 168075.55 51866.65 L 168075.55 51014.5 L 168674.2 51014.5 L 168674.2 50934.55 Q 168932.25 51100.95 169190.3 51299.2 Q 169448.35 51497.45 169606.3 51653.45 Q 170163.35 50987.85 170662.55 50053.15 Q 171162.4 49117.8 171509.5 48112.9 L 170138.65 47780.1 Q 169894.9 48539.3 169516.6 49266 Q 169137.65 49992.7 168674.2 50562.1 L 168674.2 48751.85 L 166411.55 48751.85 Q 166318.6 48456.1 166171.7 48125.9 Q 166024.15 47795.7 165851.9 47500.6 L 164427.75 47846.4 Q 164657.2 48268.9 164826.85 48751.85 L 162523.9 48751.85 L 162523.9 51041.15 L 163110.2 51041.15 L 163110.2 51866.65 L 164906.8 51866.65 L 164906.8 52359.35 L 163522.3 52359.35 L 163522.3 53477.35 L 164906.8 53477.35 L 164906.8 53996.7 L 162657.15 53996.7 L 162657.15 55114.7 L 164906.8 55114.7 L 164906.8 55793.95 L 163069.9 55793.95 L 163069.9 59973.45 L 164507.7 59973.45 L 164507.7 59281.2 L 166650.75 59281.2 L 166650.75 59880.5 L 168141.85 59880.5 L 168141.85 55793.95 L 166264.65 55793.95 L 166264.65 55114.7 L 168355.05 55114.7 L 168355.05 54941.8 Q 168757.4 55314.25 169060.3 55727 L 169060.3 60000.1 L 170471.45 60000.1 L 170471.45 59374.8 L 172694.45 59374.8 L 172694.45 59987.1 L 174171.9 59987.1 L 174171.9 55593.75 Q 174336.35 55381.85 174534.6 55184.9 Q 174733.5 54987.3 174917.45 54835.2 Q 174084.15 54076 173468.6 53089.95 Q 172852.4 52103.25 172388.3 50775.3 Q 172433.8 50636.2 172473.45 50493.2 Q 172502.05 50390.5 172534.55 50282.6 L 171203.35 49909.5 Z M 14707.4 75725.85 Q 14110.7 74876.3 13130.5 73830.45 Q 13009.6 73701.1 12884.8 73570.45 Q 11877.95 72519.4 10820.4 71586 Q 10897.1 71176.5 10953.65 70746.85 L 14574.8 70746.85 L 14574.8 69216.1 L 11099.9 69216.1 Q 11160.35 68054.55 11179.85 66793.55 L 9529.5 66793.55 Q 9515.85 68074.7 9462.55 69216.1 L 6427.7 69216.1 L 6427.7 70746.85 L 9329.95 70746.85 Q 9139.5 72318.55 8432.95 73517.8 Q 7725.75 74717.05 6148.2 75499.65 Q 6430.3 75735.6 6727.35 76103.5 Q 7024.4 76471.4 7186.25 76777.55 Q 8444.65 76126.25 9212.95 75228.6 Q 9981.9 74330.3 10381 73209.7 Q 11297.5 74126.85 12098.3 75063.5 Q 12899.75 76000.15 13376.2 76737.25 L 14707.4 75725.85 Z M 5881.7 69522.25 Q 5647.05 68954.8 5184.9 68259.3 Q 4722.75 67564.45 4217.7 66966.45 L 2859.85 67645.7 Q 3344.1 68285.95 3778.3 69016.55 Q 4213.15 69747.15 4417.25 70308.1 L 5881.7 69522.25 Z M 5748.45 71572.35 L 2580.35 71572.35 L 2580.35 73090.1 L 4151.4 73090.1 L 4151.4 76191.9 Q 3272.6 76601.4 2354.15 77589.4 L 3459.15 79160.45 Q 3818.6 78530.6 4207.95 78015.8 Q 4597.3 77500.35 4896.95 77469.8 Q 5171.25 77501 5636.65 77838.35 Q 5919.4 78032.05 6267.8 78228.35 Q 6992.55 78630.7 7901.9 78786.05 Q 8811.25 78941.4 10074.85 78934.25 Q 10911.4 78932.3 11949.45 78901.75 Q 12470.1 78886.8 12962.8 78867.3 Q 13947.55 78828.95 14521.5 78787.35 Q 14550.75 78416.85 14694.4 77924.15 Q 14838.05 77430.8 14987.55 77070.05 Q 14080.8 77211.75 12894.55 77295.6 Q 12588.4 77317.7 12279.65 77335.25 Q 11087.55 77402.85 10128.15 77402.85 Q 9018.6 77413.25 8108.6 77291.7 Q 7197.95 77169.5 6507.65 76790.55 Q 6182 76614.4 5936.95 76446.7 Q 5838.8 76381.7 5748.45 76325.15 L 5748.45 71572.35 Z M 17809.2 76418.1 L 17809.2 73809 L 19926.25 73809 L 19926.25 76418.1 L 17809.2 76418.1 Z M 19926.25 72437.5 L 17809.2 72437.5 L 17809.2 70281.45 L 19926.25 70281.45 L 19926.25 72437.5 Z M 24159.05 68803.35 Q 24458.7 67968.1 24678.4 67112.7 L 23160.65 66766.9 Q 22867.5 67951.85 22407.3 69075.05 Q 21946.45 70197.6 21363.4 71053 L 21363.4 68896.95 L 19300.3 68896.95 Q 19646.75 68014.9 19992.55 66993.1 L 18262.25 66753.25 Q 18219.35 67235.55 18114.05 67810.15 Q 18008.75 68384.75 17876.15 68896.95 L 16371.4 68896.95 L 16371.4 78787.35 L 17809.2 78787.35 L 17809.2 77815.6 L 21363.4 77815.6 L 21363.4 71599 Q 21643.55 71784.25 21930.85 71987.05 Q 22218.8 72189.2 22388.45 72344.55 Q 23024.15 71462.5 23560.4 70241.15 L 26408.7 70241.15 Q 26306.65 73663.4 26152.6 75337.15 Q 26146.1 75405.4 26139.6 75471.05 Q 25981.65 77083.05 25703.45 77363.2 Q 25578 77490.6 25445.4 77541.3 Q 25312.8 77591.35 25117.8 77589.4 Q 24846.75 77592 24315.7 77579.65 Q 23784.65 77567.3 23134 77509.45 Q 23347.85 77853.3 23488.9 78281.65 Q 23629.95 78710 23653.35 79053.85 Q 24252 79075.95 24803.2 79075.3 Q 25354.4 79075.3 25743.1 79027.2 Q 26137.65 78966.75 26442.5 78810.75 Q 26746.7 78655.4 27021 78295.3 Q 27326.5 77926.1 27494.2 76745.7 Q 27601.45 75988.45 27677.5 74779.45 Q 27793.85 72882.1 27886.8 69522.25 Q 27895.9 69355.2 27898.5 69093.25 Q 27900.45 68831.3 27899.8 68803.35 L 24159.05 68803.35 Z M 25689.8 74873.7 Q 25359.6 74268.55 24806.45 73450.85 Q 24253.95 72633.8 23733.3 71918.8 L 22495.05 72624.05 Q 23004 73379.35 23525.3 74226.3 Q 24046.6 75073.9 24345.6 75699.2 L 25689.8 74873.7 Z M 39241.65 70507.65 L 39241.65 75313.1 Q 38692.4 74636.45 37831.15 73785.6 Q 37747.95 73702.4 37662.8 73619.2 Q 36788.55 72764.45 35953.95 72011.75 Q 36106.7 71239.55 36139.85 70507.65 L 39241.65 70507.65 Z M 31467.65 70507.65 L 34502.5 70507.65 Q 34490.8 71533.35 34109.25 72623.4 Q 33933.1 73092.7 33639.3 73545.1 Q 32988 74598.75 31467.65 75419.7 L 31467.65 70507.65 Z M 40812.7 68963.25 L 36153.5 68963.25 L 36153.5 66753.25 L 34516.15 66753.25 L 34516.15 68963.25 L 29883.6 68963.25 L 29883.6 79213.75 L 31467.65 79213.75 L 31467.65 75459.35 Q 31768.6 75695.3 32079.95 76035.25 Q 32391.3 76375.85 32572.65 76631.3 Q 33654.9 75985.2 34353 75200 Q 35051.1 74414.8 35434.6 73569.15 Q 36178.85 74312.1 36850.3 75050.5 Q 37522.4 75788.25 37937.1 76351.8 L 39241.65 75339.75 L 39241.65 77336.55 Q 39244.9 77512.7 39170.15 77580.95 Q 39095.4 77649.85 38908.85 77656.35 Q 38849.7 77656.35 38749.6 77657 Q 38461 77659.6 37976.1 77656.35 Q 37491.2 77653.75 36979 77629.7 Q 37154.5 77956 37303.35 78399.95 Q 37451.55 78843.9 37497.7 79200.1 Q 38385.6 79206.6 39028.45 79155.25 Q 39671.95 79103.9 40080.15 78920.6 Q 40492.9 78737.95 40656.05 78373.3 Q 40819.2 78008.65 40812.7 77376.2 L 40812.7 68963.25 Z M 46376.7 68044.8 Q 47222.35 68617.45 48131.7 69325.3 Q 48371.55 69512.5 48600.35 69699.7 Q 49468.75 70404.95 49971.2 70960.05 L 51142.5 69721.8 Q 50584.8 69160.2 49685.85 68494.6 Q 49450.55 68319.1 49207.45 68144.9 Q 48276.65 67484.5 47455.05 66966.45 L 46376.7 68044.8 Z M 51781.45 71506.05 Q 52272.2 72613.65 52690.15 73879.85 Q 52759.7 74090.45 52824.7 74299.75 Q 53216 75554.9 53365.5 76524.7 L 54976.2 75859.1 Q 54757.15 74804.15 54297.6 73476.85 Q 54292.4 73462.55 54287.85 73448.25 Q 53826.35 72120.3 53259.55 70906.75 L 51781.45 71506.05 Z M 43528.4 71333.15 Q 43394.5 72685.8 43125.4 74056.65 Q 42856.95 75427.5 42503.35 76511.05 L 44100.4 77150 Q 44413.7 76077.5 44647.05 74700.15 Q 44686.7 74468.1 44724.4 74234.75 Q 44942.8 72845.05 45072.15 71625.65 L 43528.4 71333.15 Z M 45924.3 70547.3 L 45924.3 76724.25 Q 45900.25 77963.15 46380.6 78457.8 Q 46860.3 78953.1 48134.3 78934.25 L 50357.3 78934.25 Q 51462.95 78957.65 51939.4 78331.7 Q 52017.4 78230.3 52084.35 78108.1 Q 52488 77354.75 52593.95 75619.25 Q 52246.85 75534.1 51823.05 75351.45 Q 51399.25 75168.8 51102.85 74953.65 Q 51050.85 76375.85 50902 76906.9 Q 50879.25 76987.5 50851.95 77053.8 Q 50676.45 77487.35 50224.05 77456.15 L 48320.2 77456.15 Q 47854.8 77469.15 47707.9 77324.85 Q 47561.65 77180.55 47575.3 76724.25 L 47575.3 70547.3 L 45924.3 70547.3 Z M 64574.75 71479.4 L 64574.75 73981.9 L 62737.2 73981.9 L 62737.2 71479.4 L 64574.75 71479.4 Z M 66238.75 75432.7 L 66238.75 71479.4 L 67995.7 71479.4 L 67995.7 69948.65 L 66238.75 69948.65 L 66238.75 66980.1 L 64574.75 66980.1 L 64574.75 69948.65 L 62737.2 69948.65 L 62737.2 66859.85 L 61166.8 66859.85 L 61166.8 69948.65 L 59355.9 69948.65 L 59355.9 67139.35 L 57705.55 67139.35 L 57705.55 69948.65 L 55908.3 69948.65 L 55908.3 71479.4 L 57705.55 71479.4 L 57705.55 78468.2 L 67649.25 78468.2 L 67649.25 76937.45 L 59355.9 76937.45 L 59355.9 71479.4 L 61166.8 71479.4 L 61166.8 75432.7 L 66238.75 75432.7 Z M 72135.55 70627.25 L 74465.15 70627.25 L 74465.15 71586 L 72135.55 71586 L 72135.55 70627.25 Z M 72135.55 68484.2 L 74465.15 68484.2 L 74465.15 69442.3 L 72135.55 69442.3 L 72135.55 68484.2 Z M 78392.45 69442.3 L 76062.85 69442.3 L 76062.85 68484.2 L 78392.45 68484.2 L 78392.45 69442.3 Z M 78392.45 71586 L 76062.85 71586 L 76062.85 70627.25 L 78392.45 70627.25 L 78392.45 71586 Z M 80042.8 72863.9 L 80042.8 67206.3 L 70551.5 67206.3 L 70551.5 72863.9 L 72667.9 72863.9 Q 71948.35 73478.8 71015.6 73968.9 Q 70083.5 74459 69074.05 74754.1 Q 69344.45 75018 69638.25 75386.55 Q 69931.4 75755.1 70112.1 76058.65 Q 71393.25 75599.1 72535.3 74820.4 L 72535.3 75300.1 Q 72566.5 75849.35 72268.15 76466.2 Q 72145.3 76695.65 71937.95 76919.9 Q 71416.65 77523.1 70045.8 77989.15 Q 70321.4 78234.2 70641.2 78604.7 Q 70961.65 78974.55 71137.15 79280.05 Q 72679.6 78686.6 73334.15 77865.65 Q 73691.65 77437.95 73874.95 76991.4 Q 74201.25 76134.05 74172.65 75366.4 L 74172.65 74447.95 L 73041 74447.95 Q 73959.45 73735.55 74638.05 72863.9 L 76009.55 72863.9 Q 76658.25 73752.45 77566.95 74460.95 L 76568.55 74460.95 L 76568.55 79146.8 L 78219.55 79146.8 L 78219.55 74940.65 Q 79264.1 75619.25 80469.2 76019 Q 80660.95 75684.25 80959.95 75300.1 Q 81258.95 74915.3 81520.9 74661.15 Q 80482.85 74396.6 79542.3 73931.85 Q 78601.75 73467.75 77873.1 72863.9 L 80042.8 72863.9 Z M 84369.2 76418.1 L 84369.2 73809 L 86486.25 73809 L 86486.25 76418.1 L 84369.2 76418.1 Z M 86486.25 72437.5 L 84369.2 72437.5 L 84369.2 70281.45 L 86486.25 70281.45 L 86486.25 72437.5 Z M 90719.05 68803.35 Q 91018.7 67968.1 91238.4 67112.7 L 89720.65 66766.9 Q 89427.5 67951.85 88967.3 69075.05 Q 88506.45 70197.6 87923.4 71053 L 87923.4 68896.95 L 85860.3 68896.95 Q 86206.75 68014.9 86552.55 66993.1 L 84822.25 66753.25 Q 84779.35 67235.55 84674.05 67810.15 Q 84568.75 68384.75 84436.15 68896.95 L 82931.4 68896.95 L 82931.4 78787.35 L 84369.2 78787.35 L 84369.2 77815.6 L 87923.4 77815.6 L 87923.4 71599 Q 88203.55 71784.25 88490.85 71987.05 Q 88778.8 72189.2 88948.45 72344.55 Q 89584.15 71462.5 90120.4 70241.15 L 92968.7 70241.15 Q 92866.65 73663.4 92712.6 75337.15 Q 92706.1 75405.4 92699.6 75471.05 Q 92541.65 77083.05 92263.45 77363.2 Q 92138 77490.6 92005.4 77541.3 Q 91872.8 77591.35 91677.8 77589.4 Q 91406.75 77592 90875.7 77579.65 Q 90344.65 77567.3 89694 77509.45 Q 89907.85 77853.3 90048.9 78281.65 Q 90189.95 78710 90213.35 79053.85 Q 90812 79075.95 91363.2 79075.3 Q 91914.4 79075.3 92303.1 79027.2 Q 92697.65 78966.75 93002.5 78810.75 Q 93306.7 78655.4 93581 78295.3 Q 93886.5 77926.1 94054.2 76745.7 Q 94161.45 75988.45 94237.5 74779.45 Q 94353.85 72882.1 94446.8 69522.25 Q 94455.9 69355.2 94458.5 69093.25 Q 94460.45 68831.3 94459.8 68803.35 L 90719.05 68803.35 Z M 92249.8 74873.7 Q 91919.6 74268.55 91366.45 73450.85 Q 90813.95 72633.8 90293.3 71918.8 L 89055.05 72624.05 Q 89564 73379.35 90085.3 74226.3 Q 90606.6 75073.9 90905.6 75699.2 L 92249.8 74873.7 Z M 101089.15 68683.75 L 99119 68683.75 Q 99338.7 67871.9 99518.75 67019.75 L 97921.05 66740.25 Q 97611.65 68481.6 97022.75 70008.45 Q 96433.2 71535.3 95564.8 72557.75 Q 95857.95 72753.4 96260.3 73053.7 Q 96663.3 73354 96896 73569.15 Q 97397.15 72904.85 97835.9 72043.6 Q 98275.3 71181.7 98626.3 70187.85 L 100636.75 70187.85 Q 100360.5 71865.5 99824.9 73183.05 Q 99481.05 72908.1 99120.3 72635.75 Q 98758.9 72363.4 98450.8 72135.25 Q 98411.15 72106 98373.45 72078.05 L 97415.35 73156.4 Q 97814.45 73472.3 98274 73850.6 Q 98732.9 74228.9 99132.65 74594.2 Q 97828.1 76710.6 95604.45 77709 Q 95915.8 77939.75 96308.4 78334.95 Q 96701.65 78730.15 96922.65 79040.2 Q 99171 77916.35 100608.15 75439.85 Q 102045.95 72962.7 102526.95 68963.25 L 101395.3 68630.45 L 101089.15 68683.75 Z M 108224.2 73768.7 Q 107762.7 73194.75 107023 72440.75 L 107015.2 72432.95 Q 106274.85 71678.95 105576.75 70997.1 Q 105445.45 70867.75 105322.6 70746.85 L 104736.95 71173.25 L 104736.95 66753.25 L 103059.3 66753.25 L 103059.3 79187.1 L 104736.95 79187.1 L 104736.95 72358.2 Q 105362.25 73019.9 105947.9 73682.25 Q 106534.2 74344.6 106880 74847.05 L 108224.2 73768.7 Z M 117542.6 77376.2 Q 117155.2 77393.1 117036.9 77220.2 Q 116918.6 77047.3 116930.3 76484.4 L 116930.3 73928.6 Q 118117.2 73028.35 119231.95 71920.1 Q 120346.05 70812.5 121283.35 69522.25 L 119766.25 68484.2 Q 118557.9 70311.35 116930.3 71758.9 L 116930.3 66953.45 L 115213 66953.45 L 115213 73129.75 Q 113915.6 74048.2 112657.2 74647.5 L 112657.2 69788.75 Q 113402.75 68520.6 113948.75 67232.95 L 112338.05 66700.6 Q 111771.9 68158.55 110878.8 69464.4 Q 109985.7 70770.25 108969.75 71678.95 Q 109205.7 71987.05 109508.6 72476.5 Q 109510.55 72479.1 109512.5 72482.35 Q 109815.4 72971.8 109981.8 73289.65 Q 110481 72793.7 110980.2 72198.3 L 110980.2 79187.1 L 112657.2 79187.1 L 112657.2 74820.4 Q 112955.55 75070 113241.55 75371.6 Q 113527.55 75673.2 113695.9 75912.4 Q 114444.7 75559.45 115213 75086.9 L 115213 76457.75 Q 115191.55 77872.15 115651.1 78427.9 Q 116110.65 78983.65 117316.4 78960.9 L 119259.9 78960.9 Q 120403.25 78979.75 120860.2 78176.35 Q 120874.5 78152.3 120888.15 78126.95 Q 121330.15 77295.6 121430.25 75406.05 Q 121073.4 75318.95 120631.4 75107.05 Q 120189.4 74894.5 119872.2 74647.5 Q 119809.8 76192.55 119674.6 76781.45 Q 119661.6 76837.35 119646.65 76886.75 Q 119497.8 77407.4 119100.65 77376.2 L 117542.6 77376.2 Z M 124425.45 74727.45 Q 123523.25 74750.85 122914.85 75360.55 L 122913.55 75361.85 Q 122305.8 75972.2 122281.75 76884.15 Q 122305.8 77795.45 122913.55 78405.8 L 122914.85 78407.1 Q 123523.25 79016.8 124425.45 79040.2 Q 125346.5 79016.8 125952.95 78406.45 Q 126559.4 77796.1 126581.5 76884.15 Q 126559.4 75971.55 125952.95 75361.2 Q 125346.5 74750.85 124425.45 74727.45  Z M 124425.45 78082.1 Q 123932.1 78069.75 123593.45 77732.4 Q 123254.8 77395.7 123240.5 76884.15 Q 123254.8 76372.6 123593.45 76035.25 Q 123932.1 75698.55 124425.45 75686.2 Q 124937 75698.55 125273.7 76035.25 Q 125611.05 76372.6 125623.4 76884.15 Q 125611.05 77395.7 125273.7 77732.4 Q 124937 78069.75 124425.45 78082.1  Z " fill-rule="nonzero" style="fill:#555555;;fill-opacity:1;"/>
</svg>