<svg version="1.1" x="0" y="0" width="100%" height="100%" viewBox="0 0 44646.4 217395.2" xmlns="http://www.w3.org/2000/svg">
  <path d="M 27913.7 14274.5 L 27913.7 17531 L 16917.2 17531 L 16917.2 14274.5 L 27913.7 14274.5 Z M 16917.2 21708.5 L 16917.2 18390.5 L 27913.7 18390.5 L 27913.7 21708.5 L 16917.2 21708.5 Z M 16917.2 22599.5 L 27913.7 22599.5 L 27913.7 24167 L 28558.7 24167 Q 29511.2 24134 30519.2 23831 Q 30607.7 23805.5 30691.7 23780 Q 31660.7 23469.5 31753.7 23306 L 31753.7 14919.5 Q 32691.2 14673.5 32983.7 14244.5 L 29326.7 11510 L 27607.7 13415 L 17131.7 13415 L 13107.2 11817.5 L 13107.2 24689 L 13660.7 24689 Q 14892.2 24648.5 15876.2 24228.5 Q 16860.2 23807 16917.2 23490.5 L 16917.2 22599.5 Z M 24504.2 31508 L 33166.7 31508 Q 33873.2 31515.5 34027.7 31017.5 Q 33090.2 30155 32004.2 29256.5 Q 31623.2 28938.5 31291.7 28668.5 Q 30342.2 27899 30279.2 27852.5 L 28221.2 30617 L 24504.2 30617 L 24504.2 26378 L 35839.7 26378 Q 36523.7 26385.5 36700.7 25886 Q 35778.2 25058 34753.7 24189.5 Q 34461.2 23940.5 34201.7 23721.5 Q 33289.7 22955 33228.2 22907 L 31263.2 25518.5 L 8007.2 25518.5 L 8253.2 26378 L 20664.2 26378 L 20664.2 35901.5 Q 19309.7 35544.5 18271.7 34796 Q 17233.7 34046 16455.2 32768 Q 17308.7 31116.5 17745.2 29420 Q 18310.7 29415.5 18571.7 29228 Q 18831.2 29039 18913.7 28713.5 L 13905.2 27761 Q 13668.2 30624.5 12408.2 33677 Q 12247.7 34044.5 12067.7 34407.5 Q 10647.2 37428.5 7608.2 39771.5 L 7854.2 40079 Q 10900.7 38862.5 12900.2 37157 Q 14898.2 35451.5 16056.2 33474.5 Q 17295.2 36935 19629.2 38237 Q 19776.2 38322.5 19927.7 38400.5 Q 22342.7 39596 26286.2 39527 L 35103.2 39527 Q 35101.7 38486 35521.7 37698.5 Q 35940.2 36911 36792.2 36699.5 L 36792.2 36332 Q 35376.2 36365 33163.7 36377 Q 31519.7 36387.5 29890.7 36390.5 Q 27697.7 36393.5 26347.7 36393.5 L 26347.7 36393.5 Q 25380.2 36401 24504.2 36362 L 24504.2 31508 Z M 14335.7 45077.2 Q 13315.7 49568.2 11589.2 53693.2 Q 11482.7 53948.2 11376.2 54198.7 Q 9619.7 58274.2 7639.7 61112.2 L 7977.2 61358.2 Q 10126.7 59799.7 12001.7 57732.7 L 12001.7 73922.2 L 12676.7 73922.2 Q 13804.7 73883.2 14685.2 73503.7 Q 15565.7 73124.2 15657.2 72878.2 L 15657.2 54876.7 Q 16479.2 54699.7 16609.7 54293.2 L 15042.2 53708.2 Q 16863.2 50852.2 18268.7 47349.7 Q 19320.2 47349.7 19497.2 46704.7 L 14335.7 45077.2 Z M 31293.2 56196.7 L 28467.2 56196.7 L 28467.2 46980.7 Q 29074.7 46887.7 29308.7 46662.7 Q 29541.2 46436.2 29572.7 46089.7 L 24657.2 45629.2 L 24657.2 56196.7 L 17284.7 56196.7 L 17530.7 57087.7 L 24657.2 57087.7 L 24657.2 73676.2 L 25395.2 73676.2 Q 26514.2 73631.2 27460.7 73169.2 Q 28407.2 72708.7 28467.2 72386.2 L 28467.2 57087.7 L 36177.2 57087.7 Q 36861.2 57095.2 37038.2 56597.2 Q 36094.7 55725.7 35022.2 54822.7 Q 34665.2 54519.7 34353.2 54260.2 Q 33414.2 53480.2 33351.2 53432.2 L 31293.2 56196.7 Z M 18820.7 78735.9 Q 17170.7 83229.9 14668.7 87284.4 Q 14050.7 88295.4 13405.7 89250.9 Q 10794.2 93090.9 8161.7 95661.9 L 8469.2 95937.9 Q 12735.2 93680.4 16305.2 90155.4 Q 19876.7 86630.4 22692.2 81561.9 Q 23805.2 81684.9 24043.7 81069.9 L 18820.7 78735.9 Z M 26254.7 96092.4 Q 27258.2 97322.4 28255.7 98775.9 Q 29253.2 100230.9 30094.7 101805.9 Q 25383.2 102014.4 21247.7 102147.9 Q 17112.2 102281.4 14244.2 102327.9 Q 17092.7 100302.9 20025.2 97644.9 Q 21880.7 95964.9 23541.2 94241.4 Q 26167.7 91515.9 27760.7 89210.4 Q 28311.2 89292.9 28644.2 89138.4 Q 28975.7 88983.9 29112.2 88719.9 L 24043.7 86046.9 Q 23170.7 88257.9 21423.2 91053.9 Q 20319.2 92825.4 19039.7 94578.9 Q 17760.2 96333.9 16449.2 97871.4 Q 14379.2 100305.9 12676.7 101591.4 Q 12258.2 101868.9 11724.2 102020.4 Q 11191.7 102173.4 11140.7 102174.9 L 12523.7 106874.4 Q 13122.2 106698.9 13629.2 106106.4 Q 18967.7 105153.9 23244.2 104271.9 Q 27522.2 103388.4 30556.7 102666.9 Q 31639.7 104855.4 32122.7 106905.9 Q 33717.2 108018.9 34761.2 107295.9 Q 35805.2 106572.9 35679.2 104714.4 Q 35662.7 104553.9 35634.2 104385.9 Q 35371.7 102459.9 33267.2 100164.9 Q 31161.2 97869.9 26593.7 95907.9 L 26254.7 96092.4 Z M 20695.7 113192.6 Q 21391.7 114347.6 21988.7 115808.6 Q 22587.2 117268.1 22753.7 118723.1 Q 24004.7 119693.6 24990.2 119210.6 Q 25851.2 118792.1 26020.7 117731.6 Q 26191.7 116671.1 25218.2 115430.6 Q 24132.2 114017.6 20971.7 113008.1 L 20695.7 113192.6 Z M 31846.7 132269.6 L 28836.2 132269.6 L 28836.2 126464.6 L 34458.2 126464.6 Q 35125.7 126472.1 35287.7 125972.6 Q 34425.2 125144.6 33457.7 124310.6 Q 33235.7 124117.1 33033.2 123943.1 Q 32154.2 123193.1 32092.7 123146.6 L 30310.7 125573.6 L 28836.2 125573.6 L 28836.2 120596.6 L 35409.2 120596.6 Q 36078.2 120604.1 36238.7 120104.6 Q 35359.7 119303.6 34368.2 118489.1 Q 34129.7 118291.1 33913.7 118115.6 Q 33015.2 117386.6 32952.2 117340.1 L 31170.2 119705.6 L 28836.2 119705.6 Q 30169.7 118523.6 31404.2 117266.6 Q 32640.2 116011.1 33535.7 115036.1 Q 34503.2 115105.1 34734.2 114482.6 L 29911.7 112823.6 Q 29575.7 114349.1 29065.7 116219.6 Q 28557.2 118088.6 28036.7 119705.6 L 20049.2 119705.6 L 20295.2 120596.6 Q 19506.2 119776.1 18640.7 118972.1 Q 18519.2 118858.1 18406.7 118753.1 Q 17590.7 118004.6 17530.7 117955.1 L 15933.2 120289.1 L 15903.2 120289.1 L 15903.2 114115.1 Q 16486.7 114022.1 16720.7 113795.6 Q 16953.2 113570.6 17008.7 113224.1 L 12523.7 112793.6 L 12523.7 120289.1 L 8223.2 120289.1 L 8469.2 121180.1 L 12093.2 121180.1 Q 11521.7 124732.1 10392.2 128146.1 Q 9262.7 131560.1 7516.7 134236.1 L 7884.2 134605.1 Q 10641.2 132101.6 12523.7 129044.6 L 12523.7 141640.1 L 13198.7 141640.1 Q 14194.7 141604.1 15022.7 141229.1 Q 15852.2 140854.1 15903.2 140564.6 L 15903.2 124405.1 Q 16470.2 125416.1 16881.2 126587.6 Q 17293.7 127757.6 17377.7 128860.1 Q 18483.2 129739.1 19341.2 129229.1 Q 19990.7 128849.6 20130.2 127981.1 Q 20269.7 127111.1 19585.7 126058.1 Q 18726.2 124681.1 15903.2 123575.6 L 15903.2 121180.1 L 19588.7 121180.1 Q 20265.2 121187.6 20388.2 120688.1 L 20295.2 120596.6 L 25365.2 120596.6 L 25365.2 125573.6 L 20664.2 125573.6 L 20910.2 126464.6 L 25365.2 126464.6 L 25365.2 132269.6 L 18453.2 132269.6 L 18697.7 133130.6 L 25365.2 133130.6 L 25365.2 141763.1 L 25978.7 141763.1 Q 27327.2 141722.6 28075.7 141367.1 Q 28824.2 141011.6 28836.2 140810.6 L 28836.2 133130.6 L 36177.2 133130.6 Q 36892.7 133138.1 37006.7 132638.6 Q 36139.7 131825.6 35148.2 130979.6 Q 34881.2 130750.1 34642.7 130549.1 Q 33751.7 129799.1 33690.2 129751.1 L 31846.7 132269.6 Z M 12523.7 170045.8 L 12523.7 161966.8 L 17193.2 161966.8 L 17193.2 170045.8 L 12523.7 170045.8 Z M 17193.2 153457.3 L 17193.2 161075.8 L 12523.7 161075.8 L 12523.7 153457.3 L 17193.2 153457.3 Z M 18513.2 150722.8 L 16885.7 152566.3 L 14212.7 152566.3 Q 14970.2 151637.8 15772.7 150584.8 Q 16575.2 149530.3 17193.2 148694.8 Q 18261.2 148718.8 18453.2 147958.3 L 13476.2 146759.8 Q 13354.7 148093.3 13176.2 149674.3 Q 12997.7 151255.3 12831.2 152566.3 L 12646.7 152566.3 L 9205.7 151121.8 L 9205.7 174346.3 L 9759.2 174346.3 Q 10899.2 174310.3 11694.2 173912.8 Q 12489.2 173513.8 12523.7 173179.3 L 12523.7 170905.3 L 17193.2 170905.3 L 17193.2 173332.3 L 17715.2 173332.3 Q 18676.7 173291.8 19581.2 172918.3 Q 20485.7 172543.3 20572.7 172318.3 L 20572.7 154009.3 Q 21516.2 153802.3 21862.7 153364.3 L 18513.2 150722.8 Z M 33567.2 150476.8 L 31630.7 152473.3 L 26746.7 152473.3 Q 27699.2 150730.3 28467.2 148756.3 Q 29503.7 148748.8 29665.7 148142.8 L 24811.7 146728.3 Q 24186.2 150322.3 23071.7 153736.3 Q 21957.2 157151.8 20664.2 159569.8 L 21063.2 159815.8 Q 24028.7 157304.8 26254.7 153364.3 L 31969.7 153364.3 Q 31831.7 161243.8 31485.2 165718.3 Q 31140.2 170192.8 30310.7 170998.3 Q 29926.7 171404.8 29173.7 171397.3 Q 28513.7 171391.3 27231.2 171304.3 Q 25948.7 171218.8 24780.2 171121.3 L 24750.2 171550.3 Q 25890.2 171761.8 26734.7 172111.3 Q 27580.7 172460.8 28006.7 172901.8 Q 28735.7 173654.8 28681.7 175421.8 Q 30189.2 175427.8 31270.7 175030.3 Q 32350.7 174632.8 33166.7 173762.8 Q 34315.7 172576.3 34809.2 168491.8 Q 34890.2 167839.3 34960.7 167102.8 Q 35379.2 162484.3 35502.2 153947.8 Q 36523.7 153794.8 36853.7 153364.3 L 33567.2 150476.8 Z M 23029.7 158924.8 Q 23985.2 160226.8 24738.2 161920.3 Q 25492.7 163613.8 25641.2 165283.3 Q 26952.2 166283.8 27963.2 165760.3 Q 28909.7 165274.3 29043.2 164027.8 Q 29176.7 162782.8 27967.7 161348.8 Q 26688.2 159818.8 23275.7 158740.3 L 23029.7 158924.8 Z M 11970.2 199035 L 11970.2 184350 L 14335.7 184350 L 14335.7 199035 L 11970.2 199035 Z M 14857.7 202722 Q 15834.2 202678.5 16689.2 202267.5 Q 17545.7 201858 17623.7 201585 L 17623.7 184903.5 Q 18537.2 184674 18852.2 184258.5 L 15625.7 181678.5 L 14028.2 183460.5 L 12124.7 183460.5 L 8806.7 182046 L 8806.7 204502.5 L 9328.7 204502.5 Q 10441.7 204466.5 11191.7 204073.5 Q 11940.2 203679 11970.2 203367 L 11970.2 199894.5 L 14335.7 199894.5 L 14335.7 202722 L 14857.7 202722 Z M 31815.2 183675 L 31815.2 188682 L 23061.2 188682 L 23061.2 183675 L 31815.2 183675 Z M 31815.2 189573 L 31815.2 191446.5 L 32430.2 191446.5 Q 33315.2 191416.5 34258.7 191127 Q 34293.2 191116.5 34326.2 191106 Q 35254.7 190815 35349.2 190648.5 L 35349.2 184290 Q 36285.2 184020 36577.7 183613.5 L 33136.7 181002 L 31509.2 182814 L 23583.2 182814 L 19620.2 181371 L 19620.2 191478 Q 19690.7 195655.5 19003.7 199731 Q 18826.7 200679 18580.7 201609 Q 17592.2 205605 14796.2 209019 L 15135.2 209265 Q 18895.7 206826 20599.7 203650.5 Q 22090.7 200908.5 22578.2 197982 Q 23125.7 194593.5 23061.2 191446.5 L 23061.2 189573 L 31815.2 189573 Z M 35563.7 200539.5 L 35194.7 200539.5 Q 34822.7 201951 34495.7 203032.5 Q 34170.2 204114 33934.7 204534 Q 33705.2 204964.5 33198.2 204933 Q 32629.7 204972 31140.2 204964.5 L 28743.2 204964.5 Q 28071.2 204969 27861.2 204825 Q 27649.7 204681 27669.2 204318 L 27669.2 199650 Q 29865.2 198921 31854.2 197998.5 Q 33843.2 197074.5 34980.2 196393.5 Q 35733.2 196708.5 36117.2 196332 L 32829.2 193321.5 Q 32028.2 194311.5 30618.2 195763.5 Q 29206.7 197214 27669.2 198574.5 L 27669.2 192307.5 Q 28636.7 192138 28681.7 191508 L 24412.7 191109 L 24412.7 205270.5 Q 24361.7 207033 25095.2 207690 Q 25828.7 208347 27945.2 208312.5 L 30832.7 208312.5 Q 34269.2 208308 35563.7 207751.5 Q 36858.2 207195 36792.2 206131.5 Q 36807.2 205654.5 36570.2 205321.5 Q 36331.7 204988.5 35655.2 204718.5 L 35563.7 200539.5 Z " fill-rule="nonzero" style="fill:#333333;;fill-opacity:1;"/>
</svg>