<svg version="1.1" x="0" y="0" width="100%" height="100%" viewBox="0 0 816435.2 47411.2" xmlns="http://www.w3.org/2000/svg">
  <path d="M 5668.5 20179.1 L 5909 20924 L 21670.2 20924 L 21670.2 22042 L 22229.2 22042 Q 23082 22013.4 23923.1 21727.4 Q 23936.1 21723.5 23949.1 21718.3 Q 24783.7 21431 24864.3 21243.8 L 24864.3 12964.1 Q 25570.2 12784.7 25796.4 12484.4 L 22867.5 10274.4 L 21429.7 11792.8 L 5935 11792.8 L 6174.2 12565 L 21670.2 12565 L 21670.2 16078.9 L 6999.7 16078.9 L 7240.2 16823.8 L 21670.2 16823.8 L 21670.2 20179.1 L 5668.5 20179.1 Z M 7452.1 25956.3 Q 8485.6 26880.6 9409.9 28168.9 Q 10332.9 29458.5 10726.8 30801.4 Q 11978.7 31498.2 12812 30948.3 Q 13638.8 30403.6 13599.8 29284.3 Q 13560.8 28165 12201 27125 Q 10832.1 26075.9 7665.3 25770.4 L 7452.1 25956.3 Z M 23347.2 24305.3 L 21670.2 24305.3 L 21670.2 22894.8 Q 22555.5 22747.9 22602.3 22201.9 L 18421.5 21830.1 L 18421.5 24305.3 L 3246.6 24305.3 L 3458.5 25077.5 L 18421.5 25077.5 L 18421.5 31121.2 Q 18461.8 31587.9 17862.5 31573.6 Q 17477.7 31569.7 16493.6 31519 Q 15763 31481.3 15098.7 31443.6 Q 14203 31391.6 14135.4 31387.7 L 14135.4 31733.5 Q 15210.5 31912.9 15782.5 32176.8 Q 16354.5 32440.7 16691.2 32798.2 Q 17316.5 33504.1 17382.8 35008.2 Q 19926.9 34789.8 20792.7 33986.4 Q 20953.9 33848.6 21078.7 33692.6 Q 21737.8 32787.8 21670.2 31281.1 L 21670.2 25077.5 L 27473.4 25077.5 Q 28100 25084 28245.6 24652.4 Q 27421.4 23911.4 26486.7 23156.1 Q 26190.3 22915.6 25930.3 22708.9 Q 25106.1 22055 25051.5 22016 L 23347.2 24305.3 Z M 44433.2 10301.7 Q 44950.6 10982.9 45322.4 11948.8 Q 45694.2 12914.7 45711.1 13896.2 Q 46726.4 14655.4 47572.7 14279.7 Q 48307.2 13959.9 48507.4 13190.3 Q 48706.3 12419.4 47992.6 11593.9 Q 47189.2 10642.3 44672.4 10167.8 L 44433.2 10301.7 Z M 33305.2 12776.9 L 36659.2 12776.9 L 36659.2 18288.9 L 33305.2 18288.9 L 33305.2 12776.9 Z M 39854.6 28618.7 Q 38163.3 29024.3 36473.3 29470.2 L 36473.3 24652.4 L 39481.5 24652.4 Q 40013.2 24658.9 40147.1 24226 Q 39580.3 23555.2 38895.2 22862.3 Q 38787.3 22753.1 38687.2 22651.7 Q 38041.1 22006.9 37990.4 21962.7 L 36738.5 23880.2 L 36473.3 23880.2 L 36473.3 19087.1 L 36659.2 19087.1 L 36659.2 19912.6 L 37111.6 19912.6 Q 37807.1 19887.9 38526 19652.6 Q 39246.2 19418.6 39321.6 19274.3 L 39321.6 13177.3 Q 40053.5 13004.4 40307 12671.6 L 37644.6 10674.8 L 36420 12032 L 33651 12032 L 30694.8 10674.8 L 30694.8 20285.7 L 31148.5 20285.7 Q 32174.2 20257.1 32735.8 19978.9 Q 33297.4 19702 33305.2 19513.5 L 33305.2 19087.1 L 33917.5 19087.1 L 33917.5 30135.8 L 32878.8 30402.3 L 32878.8 23027.4 Q 33209 22948.1 33335.1 22824.6 Q 33459.9 22701.1 33491.1 22521.7 L 30589.5 22229.2 L 30589.5 30882 Q 29877.1 31041.9 29363.6 31121.2 L 30961.3 34395.9 Q 31421.5 34210 31600.9 33704.3 Q 34425.8 32282.1 36473.3 31065.3 Q 38519.5 29847.2 39907.9 28885.2 L 39854.6 28618.7 Z M 41691.5 25158.1 Q 41049.3 27490.3 40027.5 29587.2 Q 39005.7 31684.1 37883.8 33118 L 38229.6 33384.5 Q 39920.9 32340.6 41427.6 30709.1 Q 42935.6 29076.3 44087.4 26914.4 Q 44925.9 26954.7 45126.1 26436 L 41691.5 25158.1 Z M 49119.7 25610.5 Q 49912.7 27044.4 50636.8 28802 Q 51360.9 30559.6 51594.9 32213.2 Q 52694.7 33097.2 53481.2 32561.6 Q 54133.8 32122.2 54188.4 31048.4 Q 54241.7 29973.3 53352.5 28607 Q 52311.2 26971.6 49412.2 25450.6 L 49119.7 25610.5 Z M 49891.9 23187.3 L 40013.2 23187.3 L 40226.4 23959.5 L 45365.3 23959.5 L 45365.3 31413.7 Q 45412.1 31827.1 44859.6 31840.1 Q 44469.6 31836.2 43612.9 31793.3 Q 43228.1 31773.8 42873.2 31754.3 Q 42077.6 31711.4 42010 31707.5 L 42010 32053.3 Q 42877.1 32213.2 43358.1 32452.4 Q 43840.4 32691.6 44087.4 33011.4 Q 44580.1 33677 44593.1 35061.5 Q 46901.9 34853.5 47633.8 33947.4 Q 47675.4 33900.6 47714.4 33852.5 Q 48386.5 32913.9 48320.2 31441 L 48320.2 23959.5 L 53565.7 23959.5 Q 54157.2 23966 54310.6 23533.1 Q 53520.2 22829.8 52655.7 22136.9 Q 52472.4 21988.7 52307.3 21856.1 Q 51516.9 21229.5 51462.3 21190.5 L 49891.9 23187.3 Z M 48426.8 18873.9 L 41318.4 18873.9 L 41531.6 19646.1 L 52021.3 19646.1 Q 52599.8 19652.6 52740.2 19221 Q 51986.2 18535.9 51143.8 17848.2 Q 50961.8 17698.7 50796.7 17564.8 Q 50025.8 16943.4 49971.2 16904.4 L 48426.8 18873.9 Z M 52181.2 13017.4 L 50822.7 14455.2 L 42410.4 14455.2 Q 42283 13802.6 42037.3 13070.7 L 41610.9 13043.4 Q 41655.1 13729.8 41235.2 14411 Q 40815.3 15093.5 40360.3 15439.3 Q 39787 15763 39517.9 16262.2 Q 39248.8 16760.1 39454.2 17382.8 Q 39783.1 18057.5 40479.9 18162.8 Q 41176.7 18266.8 41664.2 17862.5 Q 42090.6 17516.7 42316.8 16831.6 Q 42543 16145.2 42489.7 15200.1 L 51063.2 15200.1 Q 51022.9 15591.4 50982.6 16008.7 Q 50903.3 16869.3 50822.7 17516.7 L 51116.5 17676.6 Q 51736.6 17298.3 52447.7 16754.9 Q 53157.5 16211.5 53698.3 15733.1 Q 54430.2 15692.8 54683.7 15413.3 L 52181.2 13017.4 Z M 62404.4 21776.8 Q 63404.1 21750.8 64038.5 21120.3 Q 64672.9 20491.1 64693.7 19566.8 Q 64672.9 18623 64038.5 17988.6 Q 63404.1 17355.5 62404.4 17330.8 Q 61424.2 17355.5 60793.7 17988.6 Q 60163.2 18623 60141.1 19566.8 Q 60163.2 20491.1 60793.7 21120.3 Q 61424.2 21750.8 62404.4 21776.8  Z M 62404.4 31733.5 Q 63404.1 31707.5 64038.5 31078.3 Q 64672.9 30447.8 64693.7 29523.5 Q 64672.9 28561.5 64038.5 27923.2 Q 63404.1 27284.9 62404.4 27261.5 Q 61424.2 27284.9 60793.7 27923.2 Q 60163.2 28561.5 60141.1 29523.5 Q 60163.2 30447.8 60793.7 31078.3 Q 61424.2 31707.5 62404.4 31733.5  Z M 88496.7 17489.4 Q 90054.1 14940.1 91212.4 11872.1 Q 92070.4 11872.1 92249.8 11313.1 L 87963.7 10009.2 Q 87127.8 13907.9 85682.2 17490.7 Q 85627.6 17627.2 85573 17761.1 Q 84111.8 21317.9 82453 23826.9 L 82771.5 24038.8 Q 84495.3 22681.6 86020.2 20924 L 86020.2 35035.5 L 86605.2 35035.5 Q 87564.6 35001.7 88322.5 34668.9 Q 89081.7 34336.1 89162.3 34103.4 L 89162.3 18528.1 Q 89894.2 18395.5 89986.5 18022.4 L 88496.7 17489.4 Z M 103245.2 21909.4 L 100343.6 21909.4 L 100343.6 18261.6 Q 101241.9 18122.5 101301.7 17542.7 L 100424.2 17463.4 Q 101868.5 16556 103308.9 15500.4 Q 104749.3 14443.5 105855.6 13576.4 Q 106679.8 13555.6 106946.3 13256.6 L 104044.7 10594.2 L 102233.8 12324.5 L 92330.4 12324.5 L 92569.6 13070.7 L 102154.5 13070.7 Q 101621.5 14039.2 100913 15206.6 Q 100204.5 16375.3 99492.1 17382.8 L 97149.5 17170.9 L 97149.5 21909.4 L 89800.6 21909.4 L 90013.8 22655.6 L 97149.5 22655.6 L 97149.5 30935.3 Q 97195 31434.5 96563.2 31413.7 Q 96161.5 31409.8 95173.5 31357.8 Q 94453.3 31321.4 93800.7 31283.7 Q 92903.7 31233 92836.1 31227.8 L 92836.1 31573.6 Q 93911.2 31754.3 94483.2 32033.8 Q 95055.2 32313.3 95391.9 32691.6 Q 95741.6 33068.6 95891.1 33640.6 Q 96040.6 34212.6 96110.8 35008.2 Q 98632.8 34770.3 99486.9 33934.4 Q 99632.5 33800.5 99748.2 33652.3 Q 100411.2 32717.6 100343.6 31148.5 L 100343.6 22655.6 L 107345.4 22655.6 Q 107938.2 22675.1 108091.6 22255.2 Q 107285.6 21512.9 106374.3 20739.4 Q 106085.7 20493.7 105833.5 20280.5 Q 105030.1 19608.4 104976.8 19566.8 L 103245.2 21909.4 Z M 111153.1 34210 Q 111618.5 34037.1 111846 33463.8 Q 114433 31942.8 116271.2 30705.2 Q 118110.7 29467.6 119300.2 28565.4 L 119219.6 28298.9 Q 116471.4 29038.6 113981.9 29628.8 Q 113632.2 29712 113298.1 29790 Q 110910 30343.8 109689.3 30562.2 L 111153.1 34210 Z M 127767.1 31413.7 L 127767.1 22389.1 L 130322.9 22389.1 L 130322.9 31413.7 L 127767.1 31413.7 Z M 122574.9 22389.1 L 125130.7 22389.1 L 125130.7 31413.7 L 122574.9 31413.7 L 122574.9 22389.1 Z M 125130.7 13469.8 L 125130.7 21616.9 L 122574.9 21616.9 L 122574.9 13469.8 L 125130.7 13469.8 Z M 130322.9 13469.8 L 130322.9 21616.9 L 127767.1 21616.9 L 127767.1 13469.8 L 130322.9 13469.8 Z M 131707.4 10967.3 L 130189 12723.6 L 122920.7 12723.6 L 119726.6 11499 L 119726.6 16983.7 L 116371.3 15067.5 Q 115918.9 16292.1 115067.4 17836.5 Q 113062.8 18002.9 111498.9 18048.4 Q 112934.1 16868 114348.5 15302.8 Q 115762.9 13738.9 116717.1 12298.5 Q 117503.6 12258.2 117649.2 11818.8 L 113842.8 10408.3 Q 113525.6 11690.1 112801.5 13391.8 Q 112384.2 14368.1 111903.2 15279.4 Q 111069.9 16871.9 110274.3 17676.6 Q 110068.9 17801.4 109798.5 17896.3 Q 109528.1 17991.2 109502.1 17996.4 L 110807.3 21271.1 Q 111093.3 21150.2 111339 20870.7 Q 112830.1 20185.6 114082 19539.5 Q 113169.4 21003.3 112198.3 22252.6 Q 111225.9 23500.6 110354.9 24226 Q 110123.5 24388.5 109802.4 24492.5 Q 109481.3 24595.2 109448.8 24599.1 L 110780 27899.8 Q 111099.8 27786.7 111339 27473.4 Q 113877.9 26475 115861.7 25540.3 Q 117846.8 24605.6 119007.7 23986.8 L 118954.4 23667 Q 116970.6 23967.3 115086.9 24202.6 Q 113203.2 24437.9 111739.4 24599.1 Q 113641.3 23140.5 115471.7 21282.8 Q 115700.5 21051.4 115924.1 20818.7 Q 117707.7 18954.5 118820.5 17382.8 Q 119473.1 17476.4 119726.6 17170.9 L 119726.6 34928.9 L 120258.3 34928.9 Q 121346.4 34896.4 121956.1 34596.1 Q 122564.5 34294.5 122574.9 34103.4 L 122574.9 32159.9 L 130322.9 32159.9 L 130322.9 34529.8 L 130828.6 34529.8 Q 131944 34494.7 132614.8 34169.7 Q 133286.9 33846 133303.8 33651 L 133303.8 13789.6 Q 134222.9 13608.9 134502.4 13230.6 L 131707.4 10967.3 Z M 144193.9 11686.2 L 142702.8 13337.2 L 135966.2 13337.2 L 136206.7 14108.1 L 142916 14108.1 Q 142609.2 17203.4 141903.3 20339 Q 140080.7 18329.2 137218.1 16238.8 L 136845 16424.7 Q 137877.2 17992.5 138969.2 19799.5 Q 140059.9 21606.5 141051.8 23533.1 Q 140180.8 26302.1 138905.5 28772.1 Q 137630.2 31240.8 135859.6 33251.9 L 136179.4 33517.1 Q 138250.3 32033.8 139780.4 30248.9 Q 141311.8 28465.3 142383 26462 Q 143181.2 28319.7 143581.6 30056.5 Q 144934.9 31087.4 145669.4 30212.5 Q 146257 29509.2 146071.1 27867.3 Q 145860.5 25844.5 143953.4 22920.8 Q 145384.7 18767.3 145896.9 14615.1 Q 146346.7 14561.8 146576.8 14468.2 Q 146805.6 14374.6 146935.6 14161.4 L 144193.9 11686.2 Z M 160354.2 28166.3 L 160034.4 28166.3 Q 159749.7 29307.7 159496.2 30189.1 Q 159241.4 31071.8 159076.3 31413.7 Q 158965.8 31608.7 158880 31673.7 Q 158794.2 31738.7 158623.9 31733.5 L 157612.5 31733.5 L 156520.5 31733.5 Q 156190.3 31738.7 156085 31654.2 Q 155978.4 31568.4 155987.5 31334.4 L 155987.5 25636.5 Q 156181.2 25604 156334.6 25529.9 L 156334.6 26035.6 L 156866.3 26035.6 Q 157999.9 26004.4 158664.2 25723.6 Q 159327.2 25442.8 159342.8 25290.7 L 159342.8 13096.7 Q 159793.9 13035.6 160034.4 12904.3 Q 160276.2 12773 160407.5 12591 L 157665.8 10461.6 L 156228 12111.3 L 150131 12111.3 L 146988.9 10914 L 146988.9 26329.4 L 147494.6 26329.4 Q 148602.2 26302.1 149215.8 26035.6 Q 149828.1 25770.4 149837.2 25583.2 L 149837.2 12857.5 L 156334.6 12857.5 L 156334.6 24917.6 L 153964.7 24704.4 Q 154248.1 23043 154328.7 21154.1 Q 154409.3 19266.5 154426.2 17117.6 Q 154434 16465 154444.4 15786.4 Q 155321.9 15620 155402.5 15014.2 L 151648.1 14668.4 Q 151649.4 15573.2 151653.3 16433.8 Q 151736.5 20513.2 151418 23689.1 Q 151187.9 25739.2 150519.7 27469.5 Q 149852.8 29198.5 148535.9 30651.9 Q 146528.7 32898.3 142303.7 34609.1 L 142515.6 35061.5 Q 147382.8 33708.2 149884 31750.4 Q 152385.2 29792.6 153299.1 27180.9 L 153299.1 32026 Q 153253.6 33305.2 153717.7 33820 Q 154183.1 34334.8 155695 34316.6 L 157346 34316.6 Q 159457.2 34312.7 160343.8 33890.2 Q 161231.7 33467.7 161205.7 32665.6 Q 161220 32291.2 161069.2 32026 Q 160919.7 31762.1 160434.8 31547.6 L 160354.2 28166.3 Z M 171057.1 24012.8 L 179470.7 24012.8 Q 180055.7 24019.3 180162.3 23586.4 Q 179414.8 22954.6 178594.5 22360.5 Q 178486.6 22281.2 178385.2 22207.1 Q 177610.4 21652 177553.2 21616.9 L 176168.7 23240.6 L 170871.2 23240.6 Q 173632.4 20970.8 175157.3 17943.1 Q 175609.7 17909.3 175863.2 17836.5 Q 176115.4 17762.4 176249.3 17570 L 173666.2 15306.7 L 172095.8 16797.8 L 170071.7 16797.8 Q 170551.4 16225.8 170950.5 15652.5 Q 171456.2 15673.3 171662.9 15590.1 Q 171869.6 15505.6 171935.9 15306.7 L 168262.1 14374.6 Q 167527.6 16403.9 166108 18359.1 Q 164689.7 20313 163016.6 21563.6 L 163202.5 21856.1 Q 164354.3 21369.9 165465.8 20764.1 Q 165874 21180.1 166167.8 21779.4 Q 166461.6 22380 166530.5 22974.1 Q 167369 23534.4 167987.8 23128.8 Q 168366.1 22889.6 168474 22458 Q 168583.2 22027.7 168282.9 21562.3 Q 167839.6 20800.5 165945.5 20445.6 Q 166976.4 19765.7 167889 19007.8 Q 168554.6 19746.2 168740.5 20605.5 Q 169637.5 21113.8 170232.9 20686.1 Q 170551.4 20465.1 170654.1 20108.9 Q 170756.8 19752.7 170555.3 19374.4 Q 170226.4 18665.9 168554.6 18395.5 Q 169000.5 17988.6 169406.1 17542.7 L 172121.8 17542.7 Q 170921.9 20469 168497.4 22874 Q 166074.2 25280.3 162696.8 26807.8 L 162884 27180.9 Q 167695.3 25843.2 170871.2 23267.9 L 171057.1 24012.8 Z M 168927.7 27739.9 Q 168112.6 29292.1 166574.7 31018.5 Q 165035.5 32744.9 163202.5 33996.8 L 163415.7 34316.6 Q 165844.1 33648.4 167942.3 32492.7 Q 170040.5 31335.7 171430.2 30029.2 Q 171878.7 30124.1 172091.9 30033.1 Q 172306.4 29942.1 172415.6 29736.7 L 168927.7 27739.9 Z M 183863.4 27473.4 Q 184475.7 27481.2 184608.3 27048.3 Q 183782.8 26372.3 182900.1 25740.5 Q 182749.3 25631.3 182610.2 25531.2 Q 181791.2 24952.7 181734 24917.6 L 180215.6 26701.2 L 166052.1 26701.2 L 166265.3 27473.4 L 173506.3 27473.4 L 173506.3 31441 Q 173553.1 31873.9 173000.6 31867.4 Q 172617.1 31862.2 171800.7 31816.7 Q 171501.7 31799.8 171222.2 31784.2 Q 170459.1 31738.7 170391.5 31733.5 L 170391.5 32079.3 Q 171254.7 32243.1 171692.8 32486.2 Q 172130.9 32729.3 172335 33011.4 Q 172780.9 33697.8 172787.4 35061.5 Q 175167.7 34862.6 175929.5 33995.5 Q 175976.3 33947.4 176020.5 33896.7 Q 176716 32994.5 176648.4 31494.3 L 176648.4 27473.4 L 183863.4 27473.4 Z M 177740.4 28778.6 Q 179286.1 29749.7 180830.5 31191.4 Q 180844.8 31204.4 180859.1 31218.7 Q 182399.6 32661.7 183251.1 34129.4 Q 184562.8 34576.6 185193.3 33842.1 Q 185782.2 33158.3 185414.3 32026 Q 185046.4 30895 183377.2 29892.7 Q 181604 28818.9 177952.3 28565.4 L 177740.4 28778.6 Z M 181653.4 17330.8 Q 181407.7 18000.3 181077.5 18721.8 Q 180747.3 19442 180402.8 20072.5 Q 178824.6 18961 177687.1 17330.8 L 181653.4 17330.8 Z M 184396.4 16371.4 Q 185045.1 15982.7 185634 15530.3 Q 186222.9 15076.6 186632.4 14668.4 Q 187391.6 14647.6 187671.1 14348.6 L 184902.1 11712.2 L 183330.4 13309.9 L 176355.9 13309.9 Q 177121.6 12753.5 177069.6 11838.3 Q 177017.6 11128.5 176194.7 10572.1 Q 175171.6 9851.9 172520.9 9981.9 L 172335 10141.8 Q 173013.6 10660.5 173536.2 11499 Q 174060.1 12338.8 174199.2 13256.6 L 174278.5 13309.9 L 166425.2 13309.9 Q 166304.3 12624.8 166024.8 11818.8 L 165653 11818.8 Q 165637.4 12654.7 165073.2 13326.8 Q 164509 13997.6 163814.8 14295.3 Q 163159.6 14557.9 162807.3 15080.5 Q 162455 15603.1 162617.5 16345.4 Q 162860.6 17124.1 163599 17343.8 Q 164337.4 17563.5 165040.7 17224.2 Q 165695.9 16878.4 166111.9 16068.5 Q 166527.9 15259.9 166504.5 14054.8 L 183570.9 14054.8 Q 183530.6 14409.7 183502 14778.9 Q 183474.7 15120.8 183437 15466.6 L 183011.9 15067.5 L 181574.1 16558.6 L 177154.1 16558.6 Q 176680.9 15712.3 176328.6 14747.7 L 175982.8 14960.9 Q 177050.1 19378.3 179400.5 21992.6 Q 181750.9 24608.2 185273.9 26088.9 Q 185879.7 23925.7 187724.4 23479.8 L 187750.4 23187.3 Q 185923.9 22772.6 184232.6 22129.1 Q 182541.3 21485.6 181094.4 20552.2 Q 182072 19977.6 182995 19253.5 Q 183918 18529.4 184555 17836.5 Q 185348 17809.2 185621 17542.7 L 184396.4 16371.4 Z M 198799.1 10461.6 Q 198797.8 10823 198797.8 11184.4 Q 198856.3 14954.4 198514.4 18685.4 Q 198270 21076.1 197590.1 23407 Q 196908.9 25737.9 195581.6 27976.5 Q 193552.3 31470.9 189294.8 34636.4 L 189587.3 35008.2 Q 194610.5 32553.8 197233.9 29518.3 Q 199736.4 26632.3 200753 23425.2 Q 201815.1 20054.3 201994.5 16558.6 Q 202355.9 22038.1 203856.1 26226.7 Q 204368.3 27600.8 205061.2 28826.7 Q 207111.3 32568.1 211366.2 34875.6 Q 211904.4 32239.2 214321.1 31760.8 L 214374.4 31441 Q 209209.5 29531.3 206556.2 26265.7 Q 204910.4 24263.7 203966.6 21696.2 Q 202462.5 17503.7 202207.7 11632.9 Q 202718.6 11570.5 202939.6 11379.4 Q 203160.6 11188.3 203191.8 10886.7 L 198799.1 10461.6 Z M 218794.4 16452 Q 219313.1 14901.1 219673.2 13230.6 Q 220072.3 13183.8 220311.5 13017.4 L 220311.5 16452 L 218794.4 16452 Z M 238362 13523.1 L 236712.3 15253.4 L 229603.9 15253.4 Q 230461.9 13670 231121 11765.5 Q 232019.3 11759 232159.7 11233.8 L 228138.8 10035.2 Q 227633.1 13316.4 226487.8 16158.2 Q 225854.7 15467.9 225310 14910.2 Q 224766.6 14353.8 224731.5 14321.3 L 223373 16452 L 223240.4 16452 L 223240.4 11180.5 Q 223766.9 11098.6 223968.4 10907.5 Q 224171.2 10716.4 224198.5 10434.3 L 220311.5 10035.2 L 220311.5 12511.7 L 216983.5 11899.4 Q 216940.6 14414.9 216637.7 16910.9 Q 216334.8 19406.9 215812.2 21403.7 L 216211.3 21589.6 Q 217629.6 19786.5 218527.9 17224.2 L 220311.5 17224.2 L 220311.5 23373.2 Q 218821.7 23755.4 217662.1 24025.8 Q 216502.5 24297.5 215812.2 24439.2 L 217143.4 27953.1 Q 217615.3 27773.7 217809 27234.2 Q 218098.9 27076.9 218383.6 26922.2 Q 219401.5 26376.2 220311.5 25849.7 L 220311.5 35008.2 L 220897.8 35008.2 Q 221777.9 34979.6 222487.7 34681.9 Q 223198.8 34384.2 223240.4 34156.7 L 223240.4 24145.4 Q 225363.3 22867.5 226728.3 21990 L 226647.7 21670.2 Q 226646.4 21670.2 226643.8 21671.5 Q 224922.6 22156.4 223240.4 22602.3 L 223240.4 17224.2 L 226035.4 17224.2 Q 225111.1 19313.3 223985.3 20844.7 L 224279.1 21083.9 Q 227153.4 19253.5 229150.2 16025.6 L 230003 16025.6 Q 229411.5 19169 227916.5 22222.7 Q 226421.5 25276.4 224172.5 27660.6 L 224411.7 27953.1 Q 227574.6 25800.3 229713.1 22707.6 Q 231851.6 19616.2 232878.6 16025.6 L 233570.2 16025.6 Q 233035.9 20838.2 230978 25271.2 Q 228920.1 29704.2 225050 33038.7 L 225263.2 33305.2 Q 230204.5 30503.7 232898.1 26264.4 Q 233145.1 25884.8 233376.5 25497.4 Q 235894.6 21156.7 236765.6 16025.6 L 237004.8 16025.6 Q 236770.8 22439.8 236266.4 26293 Q 235762 30144.9 234928.7 30908 Q 234680.4 31125.1 234438.6 31217.4 Q 234196.8 31309.7 233809.4 31308.4 Q 233282.9 31303.2 232259.8 31230.4 Q 231236.7 31157.6 230212.3 31074.4 Q 229993.9 31057.5 229789.8 31041.9 L 229789.8 31413.7 Q 230777.8 31616.5 231526.6 31923.3 Q 232275.4 32230.1 232665.4 32612.3 Q 233310.2 33284.4 233277.7 34795 Q 234602.4 34800.2 235567 34455.7 Q 236531.6 34111.2 237297.3 33357.2 Q 238498.5 32182 239121.2 28100 Q 239743.9 24018 239987 16531.3 Q 240898.3 16358.4 241211.6 16025.6 L 238362 13523.1 Z M 257105.4 18688 Q 259622.2 17684.4 261975.2 16215.4 Q 264326.9 14746.4 266265.2 12883.5 Q 266712.4 12966.7 266946.4 12913.4 Q 267180.4 12861.4 267329.9 12644.3 L 263654.8 10381 Q 262276.8 12769.1 260584.2 14788 Q 258890.3 16805.6 256893.5 18314.9 L 257105.4 18688 Z M 256068 26142.2 Q 259011.2 25128.2 261606 23530.5 Q 264199.5 21931.5 266344.5 19699.4 Q 266812.5 19798.2 267050.4 19726.7 Q 267288.3 19655.2 267436.5 19432.9 L 263602.8 17224.2 Q 260560.8 22694.6 255880.8 25770.4 L 256068 26142.2 Z M 248665.8 20684.8 L 248665.8 20578.2 L 248665.8 13203.3 L 251515.4 13203.3 L 251515.4 20684.8 L 248665.8 20684.8 Z M 258224.7 21457 Q 258769.4 21463.5 258916.3 21030.6 Q 258214.3 20303.9 257395.3 19553.8 Q 257183.4 19357.5 256993.6 19184.6 Q 256253.9 18517.7 256200.6 18474.8 L 254656.2 20684.8 L 254549.6 20684.8 L 254549.6 13203.3 L 257585.1 13203.3 Q 258184.4 13209.8 258304 12776.9 Q 257534.4 12090.5 256660.8 11372.9 Q 256424.2 11177.9 256213.6 11005 Q 255429.7 10369.3 255375.1 10327.7 L 253777.4 12458.4 L 242969.2 12458.4 L 243181.1 13203.3 L 245657.6 13203.3 L 245657.6 20605.5 L 245657.6 20684.8 L 242408.9 20684.8 L 242622.1 21457 L 245657.6 21457 Q 245696.6 24900.7 245098.6 28278.1 Q 245066.1 28441.9 245031 28605.7 Q 244382.3 31970.1 242355.6 34848.3 L 242622.1 35061.5 Q 245648.5 32960.7 246940.7 30277.5 Q 247723.3 28711 248097.7 27054.8 Q 248693.1 24220.8 248665.8 21457 L 251515.4 21457 L 251515.4 34741.7 L 252047.1 34741.7 Q 253232.7 34706.6 253877.5 34386.8 Q 254523.6 34065.7 254549.6 33890.2 L 254549.6 21457 L 258224.7 21457 Z M 263895.3 24066.1 Q 262224.8 27773.7 259914.7 30323 Q 257604.6 32872.3 254576.9 34583.1 L 254736.8 34954.9 Q 258501.6 33804.4 261499.4 31750.4 Q 264495.9 29696.4 266824.2 26408.7 Q 267722.5 26534.8 267942.2 26062.9 L 263895.3 24066.1 Z M 287750.3 20870.7 L 287750.3 21111.2 Q 286883.2 21913.3 285646.9 22854.5 Q 284410.6 23797 283144.4 24599.1 Q 282165.5 22788.2 280348.1 21297.1 Q 280621.1 21104.7 280855.1 20870.7 L 287750.3 20870.7 Z M 275716.2 20125.8 L 275716.2 16851.1 L 280401.4 16851.1 Q 279477.1 18568.4 278192.7 20125.8 L 275716.2 20125.8 Z M 283170.4 13629.7 Q 282766.1 14242 282255.2 14894.6 Q 281745.6 15545.9 281200.9 16078.9 L 276089.3 16078.9 L 275076.6 15705.8 Q 276475.4 14687.9 277632.4 13629.7 L 283170.4 13629.7 Z M 287750.3 16851.1 L 287750.3 20125.8 L 281626 20125.8 Q 283071.6 18628.2 284076.5 16851.1 L 287750.3 16851.1 Z M 289267.4 21749.5 Q 289887.5 21579.2 290342.5 21373.8 Q 290797.5 21168.4 290839.1 21057.9 L 290839.1 17303.5 Q 291584 17117.6 291850.5 16770.5 L 288868.3 14587.8 L 287483.8 16078.9 L 282265.6 16078.9 Q 283416.1 15647.3 284512 15087 Q 285607.9 14526.7 286498.4 13975.5 Q 287257.6 13975.5 287537.1 13655.7 L 284902 11313.1 L 283357.6 12857.5 L 278457.9 12857.5 Q 279150.8 12138.6 279763.1 11419.7 Q 280392.3 11398.9 280680.9 11263.7 Q 280970.8 11127.2 281041 10886.7 L 276701.6 10035.2 Q 275764.3 11881.2 273985.9 14030.1 Q 273616.7 14473.4 273220.2 14910.2 Q 271315.7 17033.1 269060.2 18608.7 L 269299.4 18873.9 Q 271029.7 18222.6 272680.7 17250.2 L 272680.7 22255.2 L 273239.7 22255.2 Q 274408.4 22218.8 275057.1 21883.4 Q 275705.8 21546.7 275716.2 21350.4 L 275716.2 20870.7 L 277499.8 20870.7 Q 274564.4 23919.2 269992.3 25770.4 L 270178.2 26142.2 Q 276168.6 24665.4 279923 21670.2 Q 280196 22116.1 280428.7 22602.3 Q 278737.4 24414.5 276119.2 26092.8 Q 275664.2 26385.3 275192.3 26666.1 Q 272481.8 28279.4 269672.5 29284.3 L 269832.4 29657.4 Q 272922.5 29032.1 275961.9 27882.9 Q 279002.6 26733.7 281333.5 25370 L 281386.8 25717.1 Q 279491.4 27938.8 276517 29803 Q 276132.2 30046.1 275734.4 30278.8 Q 272672.9 32068.9 269352.7 33092 L 269486.6 33491.1 Q 272801.6 32933.4 275952.8 31807.6 Q 279102.7 30680.5 281600 29205 Q 281467.4 31041.9 280855.1 31760.8 Q 280601.6 32053.3 280108.9 32026 Q 279548.6 32022.1 278474.8 31963.6 Q 277401 31903.8 276541.7 31840.1 L 276567.7 32132.6 Q 277336 32335.4 277889.8 32582.4 Q 278442.3 32829.4 278671.1 33092 Q 279257.4 33670.5 279283.4 35008.2 Q 282133 35068 283223.7 33970.8 Q 284292.3 32782.6 284483.4 30562.2 Q 284506.8 30272.3 284510.7 29972 Q 284565.3 27669.7 283464.2 25211.4 Q 283921.8 25125.6 284415.8 25003.4 Q 284661.5 24944.9 284902 24891.6 Q 285799 28031.1 287500.7 30046.1 Q 289202.4 32062.4 291716.6 33384.5 Q 292349.7 31142 294139.8 30694.8 L 294167.1 30402.3 Q 291457.9 29745.8 289124.4 28399 Q 286790.9 27053.5 285461 24757.7 Q 286751.9 24414.5 287942.7 24036.2 Q 289134.8 23657.9 290066.9 23293.9 Q 290498.5 23429.1 290735.1 23373.2 Q 290973 23318.6 291104.3 23134 L 289267.4 21749.5 Z M 296722.9 38576.7 Q 299085 37456.1 300109.4 35594.5 Q 300151 35524.3 300190 35454.1 Q 301168.9 33578.2 301141.6 31733.5 Q 301118.2 30346.4 300437 29593.7 Q 299754.5 28841 298692.4 28831.9 Q 297642 28860.5 297041.4 29493.6 Q 296440.8 30126.7 296429.1 31014.6 Q 296492.8 32248.3 297372.9 32864.5 Q 297479.5 32947.7 297592.6 33023.1 Q 298523.4 33579.5 299411.3 33836.9 Q 299296.9 34782 298592.3 35846.7 Q 297889 36912.7 296296.5 37777.2 L 296722.9 38576.7 Z M 329949.6 21510.3 Q 332838.2 19419.9 335007.9 16051.6 L 343394.2 16051.6 Q 343270.7 16999.3 343091.3 18071.8 Q 342913.2 19144.3 342728.6 19993.2 L 342967.8 20179.1 Q 343933.7 19486.2 344919.1 18515.1 Q 345903.2 17542.7 346589.6 16691.2 Q 347368.3 16671.7 347627 16371.4 L 344806 13683 L 343155 15334 L 335460.3 15334 Q 336345.6 13822.1 337111.3 12111.3 Q 338003.1 12125.6 338176 11579.6 L 334022.5 10088.5 Q 333319.2 13312.5 332145.3 16262.2 Q 330972.7 19211.9 329629.8 21297.1 L 329949.6 21510.3 Z M 327473.1 10009.2 Q 326630.7 13923.5 325195.5 17519.3 L 325138.3 17659.7 Q 323694 21242.5 322041.7 23773.6 L 322361.5 23986.8 Q 324078.8 22641.3 325555.6 20898 L 325555.6 34982.2 L 326115.9 34982.2 Q 327093.5 34945.8 327855.3 34609.1 Q 328618.4 34272.4 328697.7 34076.1 L 328697.7 18555.4 Q 329416.6 18421.5 329497.2 18048.4 L 327978.8 17489.4 Q 329529.7 14960.9 330721.8 11872.1 Q 331579.8 11872.1 331759.2 11313.1 L 327473.1 10009.2 Z M 333064.4 20339 Q 332508 23160 331573.3 25766.5 Q 330638.6 28373 329523.2 30216.4 L 329869 30455.6 Q 331715 29047.7 333267.2 26924.8 Q 334819.4 24801.9 335966 22095.3 Q 336878.6 22088.8 337030.7 21563.6 L 333064.4 20339 Z M 337271.2 31014.6 Q 337297.2 31513.8 336684.9 31494.3 Q 336291 31489.1 335336.8 31435.8 Q 334707.6 31400.7 334135.6 31365.6 Q 333264.6 31312.3 333197 31308.4 L 333197 31680.2 Q 334198 31858.3 334747.9 32126.1 Q 335299.1 32393.9 335620.2 32772.2 Q 336192.2 33491.1 336285.8 35008.2 Q 338731.1 34783.3 339538.4 33942.2 Q 339651.5 33833 339745.1 33713.4 Q 340400.3 32793 340332.7 31255.1 L 340332.7 17436.1 Q 341218 17277.5 341264.8 16717.2 L 337271.2 16345.4 L 337271.2 31014.6 Z M 341344.1 20764.1 Q 342343.8 22664.7 343238.2 24928 Q 344132.6 27191.3 344432.9 29311.6 Q 345669.2 30337.3 346524.6 29748.4 Q 347298.1 29218 347311.1 27814 Q 347325.4 26408.7 346156.7 24578.3 Q 344885.3 22564.6 341663.9 20605.5 L 341344.1 20764.1 Z M 353538.1 27261.5 L 353538.1 24358.6 L 357452.4 24358.6 L 357452.4 27261.5 L 353538.1 27261.5 Z M 357452.4 20924 L 357452.4 23613.7 L 353538.1 23613.7 L 353538.1 20924 L 357452.4 20924 Z M 357185.9 20151.8 L 353670.7 20151.8 L 350662.5 18927.2 L 350662.5 35008.2 L 351114.9 35008.2 Q 352087.3 34977 352795.8 34636.4 Q 353504.3 34294.5 353538.1 34022.8 L 353538.1 28032.4 L 357452.4 28032.4 L 357452.4 31067.9 Q 357512.2 31547.6 356972.7 31547.6 Q 356561.9 31541.1 355818.3 31490.4 Q 355676.6 31481.3 355541.4 31470.9 Q 354830.3 31420.2 354762.7 31413.7 L 354762.7 31814.1 Q 355488.1 31918.1 355874.2 32172.9 Q 356260.3 32427.7 356467 32772.2 Q 356879.1 33497.6 356892.1 34901.6 Q 359146.3 34723.5 359841.8 33877.2 Q 359878.2 33836.9 359912 33796.6 Q 360554.2 32919.1 360486.6 31413.7 L 360486.6 21403.7 Q 361312.1 21237.3 361578.6 20870.7 L 358543.1 18581.4 L 357185.9 20151.8 Z M 356972.7 13096.7 Q 357964.6 14261.5 358677 15865.7 Q 356541.1 15925.5 354615.8 15948.9 Q 352690.5 15973.6 351195.5 15972.3 Q 352749 15106.5 354267.4 13985.9 Q 355785.8 12865.3 356838.8 11818.8 Q 357256.1 11850 357488.8 11712.2 Q 357720.2 11574.4 357798.2 11366.4 L 353804.6 9902.6 Q 353382.1 10967.3 352446.1 12390.8 Q 352026.2 13025.2 351558.2 13627.1 Q 350518.2 14977.8 349544.5 15652.5 Q 349339.1 15774.7 349068.7 15846.2 Q 348798.3 15917.7 348772.3 15919 L 350077.5 19140.4 Q 350396 19014.3 350636.5 18688 Q 353227.4 18078.3 355345.1 17493.3 Q 357462.8 16908.3 358916.2 16478 Q 359202.2 17316.5 359289.3 18155 Q 360385.2 18948 361205.5 18470.9 Q 361950.4 18039.3 362034.9 17034.4 Q 362118.1 16028.2 361132.7 14916.7 Q 360064.1 13697.3 357211.9 12936.8 L 356972.7 13096.7 Z M 368341.2 21909.4 Q 371267.5 21915.9 372411.5 21486.9 Q 373555.5 21057.9 373506.1 20125.8 Q 373516.5 19712.4 373286.4 19423.8 Q 373056.3 19135.2 372467.4 18901.2 L 372388.1 16132.2 L 372095.6 16132.2 Q 371769.3 17085.1 371479.4 17792.3 Q 371189.5 18500.8 371003.6 18794.6 Q 370743.6 19100.1 370364 19087.1 Q 369825.8 19120.9 368687 19114.4 L 366743.5 19114.4 Q 366219.6 19119.6 366061 19010.4 Q 365902.4 18901.2 365918 18608.7 L 365918 15839.7 Q 367562.5 15467.9 369106.9 15007.7 Q 370650 14546.2 371775.8 14135.4 Q 372940.6 14440.9 373346.2 14028.8 L 370257.4 11605.6 Q 369525.5 12389.5 368337.3 13346.3 Q 367150.4 14304.4 365918 15146.8 L 365918 11473 Q 366690.2 11319.6 366743.5 10807.4 L 362829.2 10461.6 L 362829.2 19300.3 Q 362782.4 20808.3 363419.4 21373.8 Q 364055.1 21938 365945.3 21909.4 L 368341.2 21909.4 Z M 372733.9 28379.5 L 372467.4 28379.5 Q 372124.2 29416.9 371825.2 30199.5 Q 371526.2 30982.1 371323.4 31281.1 Q 371103.7 31600.9 370683.8 31600.9 Q 370434.2 31620.4 369964.9 31624.3 Q 369495.6 31628.2 368926.2 31626.9 L 366903.4 31626.9 Q 366378.2 31630.8 366207.9 31513.8 Q 366037.6 31398.1 366051.9 31121.2 L 366051.9 28139 Q 367754.9 27689.2 369322.7 27148.4 Q 370890.5 26607.6 372015 26116.2 Q 373252.6 26408.7 373612.7 25983.6 L 370310.7 23560.4 Q 369603.5 24382 368450.4 25384.3 Q 367298.6 26385.3 366051.9 27287.5 L 366051.9 23667 Q 366863.1 23513.6 366876.1 23001.4 L 362935.8 22655.6 L 362935.8 31814.1 Q 362889 33342.9 363545.5 33924 Q 364202 34503.8 366131.2 34476.5 L 368580.4 34476.5 Q 371602.9 34480.4 372767.7 34037.1 Q 373932.5 33592.5 373879.2 32639.6 Q 373890.9 32226.2 373668.6 31933.7 Q 373447.6 31641.2 372840.5 31387.7 L 372733.9 28379.5 Z M 382957.1 21536.3 Q 385081.3 19020.8 386445 16264.8 L 399517.8 16264.8 Q 400130.1 16271.3 400262.7 15839.7 Q 399403.4 15110.4 398431 14340.8 Q 398081.3 14061.3 397779.7 13824.7 Q 396936 13163 396881.4 13124 L 395018.5 15492.6 L 386844.1 15492.6 Q 387769.7 13555.6 388415.8 11739.5 Q 388944.9 11716.1 389173.7 11569.2 Q 389403.8 11422.3 389453.2 11180.5 L 384953.9 10009.2 Q 384388.4 12631.3 383304.2 15492.6 L 376141.2 15492.6 L 376354.4 16264.8 L 382984.4 16264.8 Q 381749.4 19317.2 379876.1 22148.6 Q 378002.8 24981.3 375449.6 27154.9 L 375688.8 27447.4 Q 378005.4 26222.8 379922.9 24599.1 L 379922.9 34982.2 L 380535.2 34982.2 Q 381494.6 34949.7 382265.5 34632.5 Q 383036.4 34315.3 383117 34103.4 L 383117 22415.1 Q 383829.4 22269.5 383942.5 21883.4 L 382957.1 21536.3 Z M 395577.5 32586.3 L 392701.9 32586.3 L 392701.9 24439.2 L 398133.3 24439.2 Q 398726.1 24445.7 398878.2 24012.8 Q 398070.9 23325.1 397175.2 22614 Q 396938.6 22426.8 396728 22260.4 Q 395924.6 21629.9 395870 21589.6 L 394193 23693 L 392701.9 23693 L 392701.9 18502.1 Q 393567.7 18335.7 393553.4 17809.2 L 389506.5 17436.1 L 389506.5 23693 L 384475.5 23693 L 384688.7 24439.2 L 389506.5 24439.2 L 389506.5 32586.3 L 383516.1 32586.3 L 383729.3 33357.2 L 399810.3 33357.2 Q 400435.6 33365 400582.5 32932.1 Q 399719.3 32204.1 398769 31460.5 Q 398480.4 31233 398226.9 31036.7 Q 397389.7 30389.3 397335.1 30349 L 395577.5 32586.3 Z M 422521.3 32292.5 L 406892.7 32292.5 L 406892.7 17915.8 Q 407824.8 17749.4 407878.1 17143.6 L 403884.5 16744.5 L 403884.5 31946.7 Q 403278.7 32339.3 402871.8 32772.2 L 406067.2 34449.2 L 407052.6 33064.7 L 422521.3 33064.7 L 422521.3 34982.2 L 423106.3 34982.2 Q 423991.6 34949.7 424737.8 34628.6 Q 425482.7 34307.5 425529.5 34076.1 L 425529.5 17729.9 Q 426018.3 17649.3 426212 17473.8 Q 426405.7 17298.3 426434.3 17037 L 422521.3 16665.2 L 422521.3 32292.5 Z M 415997.9 28166.3 L 415997.9 22468.4 L 417968.7 22468.4 L 417968.7 28166.3 L 415997.9 28166.3 Z M 411418 22468.4 L 413442.1 22468.4 L 413442.1 28166.3 L 411418 28166.3 L 411418 22468.4 Z M 413442.1 16584.6 L 413442.1 21696.2 L 411418 21696.2 L 411418 16584.6 L 413442.1 16584.6 Z M 417968.7 16584.6 L 417968.7 21696.2 L 415997.9 21696.2 L 415997.9 16584.6 L 417968.7 16584.6 Z M 418421.1 30109.8 Q 419151.7 30081.2 419871.9 29803 Q 420592.1 29526.1 420684.4 29337.6 L 420684.4 16983.7 Q 421416.3 16791.3 421668.5 16478 L 419006.1 14427.9 L 417702.2 15839.7 L 411551.9 15839.7 L 408729.6 14641.1 L 408729.6 30536.2 L 409156 30536.2 Q 410047.8 30503.7 410716 30182.6 Q 411384.2 29861.5 411418 29630.1 L 411418 28938.5 L 417968.7 28938.5 L 417968.7 30109.8 L 418421.1 30109.8 Z M 422174.2 12458.4 L 402206.2 12458.4 L 402419.4 13203.3 L 426700.8 13203.3 Q 427293.6 13209.8 427445.7 12776.9 Q 426559.1 12043.7 425573.7 11293.6 Q 425242.2 11041.4 424954.9 10824.3 Q 424094.3 10179.5 424038.4 10141.8 L 422174.2 12458.4 Z M 432717.2 11499 Q 433339.9 12262.1 433862.5 13303.4 Q 434385.1 14344.7 434528.1 15386 Q 435647.4 16149.1 436506.7 15735.7 Q 437285.4 15365.2 437423.2 14502 Q 437562.3 13637.5 436657.5 12748.3 Q 435673.4 11766.8 432930.4 11340.4 L 432717.2 11499 Z M 445284.3 22495.7 L 443899.8 23799.6 L 438655.6 23799.6 L 436658.8 23027.4 Q 437657.2 22062.8 438495.7 20977.3 L 445630.1 20977.3 Q 445886.2 21744.3 446346.4 22585.4 Q 446806.6 23426.5 447520.3 24252 L 445284.3 22495.7 Z M 453111.6 20977.3 Q 453670.6 20983.8 453830.5 20552.2 Q 453102.5 19819 452245.8 19062.4 Q 451996.2 18840.1 451775.2 18647.7 Q 451008.2 17983.4 450954.9 17943.1 L 449331.2 20205.1 L 439027.4 20205.1 Q 440099.9 18587.9 440891.6 16851.1 L 451487.9 16851.1 Q 452066.4 16857.6 452206.8 16424.7 Q 451504.8 15733.1 450685.8 15002.5 Q 450473.9 14812.7 450284.1 14643.7 Q 449543.1 13991.1 449491.1 13949.5 L 448000 16104.9 L 444804.6 16104.9 Q 445795.2 15409.4 446735.1 14617.7 Q 447675 13826 448426.4 13150 Q 449290.9 13237.1 449517.1 12804.2 L 446056.5 10886.7 Q 445637.9 12141.2 445034.7 13555.6 Q 444431.5 14970 443873.8 16104.9 L 441211.4 16104.9 Q 442142.2 13828.6 442675.2 11473 Q 443204.3 11450.9 443434.4 11300.1 Q 443663.2 11148 443713.9 10886.7 L 439400.5 9875.3 Q 438994.9 13049.9 437990 16104.9 L 430854.3 16104.9 L 431067.5 16851.1 L 437723.5 16851.1 Q 437051.4 18587.9 436098.5 20205.1 L 429416.5 20205.1 L 429629.7 20977.3 L 435646.1 20977.3 Q 434415 22863.6 432704.2 24499 Q 430993.4 26134.4 428723.6 27420.1 L 428936.8 27686.6 Q 432650.9 26361.9 435167.7 24358.6 L 435167.7 31680.2 Q 435122.2 33374.1 436045.2 33933.1 Q 436969.5 34493.4 439400.5 34449.2 L 443394.1 34449.2 Q 447278.5 34457 448936 34142.4 Q 449527.5 34031.9 449918.8 33874.6 Q 450995.2 33427.4 450928.9 32533 Q 450943.2 32080.6 450668.9 31784.2 Q 450394.6 31486.5 449651 31255.1 L 449544.4 27927.1 L 449251.9 27927.1 Q 448412.1 30415.3 447893.4 31148.5 Q 447723.1 31364.3 447517.7 31460.5 Q 447312.3 31558 446961.3 31573.6 Q 446521.9 31594.4 445647 31610 Q 444772.1 31626.9 443713.9 31626.9 L 439720.3 31626.9 Q 438810.3 31633.4 438545.1 31500.8 Q 438279.9 31368.2 438308.5 31014.6 L 438308.5 24545.8 L 444139 24545.8 Q 444106.5 27014.5 443793.2 27366.8 Q 443626.8 27547.5 443101.6 27526.7 Q 442719.4 27522.8 441753.5 27464.3 Q 440787.6 27404.5 439986.8 27340.8 L 439986.8 27713.9 Q 440736.9 27856.9 441354.4 28079.2 Q 441970.6 28302.8 442302.1 28565.4 Q 442848.1 29205 442754.5 30323 Q 444698 30302.2 445604.1 29683.4 Q 446287.9 29223.2 446562.2 28093.5 Q 446836.5 26962.5 446882 24944.9 Q 447554.1 24838.3 447786.8 24571.8 Q 449264.9 26216.3 451940.3 27261.5 Q 452019.6 26066.8 452563 25506.5 Q 453106.4 24947.5 454123 24731.7 L 454150.3 24411.9 Q 450984.8 23817.8 449041.3 22914.3 Q 447099.1 22010.8 446269.7 20977.3 L 453111.6 20977.3 Z M 469591.7 23799.6 L 469591.7 16691.2 L 475582.1 16691.2 L 475582.1 23799.6 L 469591.7 23799.6 Z M 460326.6 23799.6 L 460326.6 16691.2 L 466263.7 16691.2 L 466263.7 23799.6 L 460326.6 23799.6 Z M 476834 14268 L 475342.9 15919 L 469591.7 15919 L 469591.7 11259.8 Q 470120.8 11176.6 470334 10973.8 Q 470548.5 10771 470577.1 10487.6 L 466263.7 10088.5 L 466263.7 15919 L 460567.1 15919 L 457025.9 14534.5 L 457025.9 27208.2 L 457504.3 27208.2 Q 458571.6 27170.5 459424.4 26794.8 Q 460277.2 26419.1 460326.6 26142.2 L 460326.6 24571.8 L 466263.7 24571.8 L 466263.7 35035.5 L 466876 35035.5 Q 467884.8 34996.5 468712.9 34592.2 Q 469542.3 34189.2 469591.7 33890.2 L 469591.7 24571.8 L 475582.1 24571.8 L 475582.1 26807.8 L 476141.1 26807.8 Q 476995.2 26781.8 477871.4 26504.9 Q 477926 26489.3 477978 26472.4 Q 478829.5 26191.6 478910.1 26009.6 L 478910.1 17250.2 Q 479735.6 17037 480002.1 16665.2 L 476834 14268 Z M 492808.4 20605.5 Q 490831.1 21090.4 488894.1 21536.3 L 488894.1 16797.8 L 492275.4 16797.8 Q 492874.7 16804.3 492994.3 16371.4 Q 492361.2 15655.1 491605.9 14894.6 Q 491422.6 14710 491257.5 14543.6 Q 490568.5 13861.1 490519.1 13815.6 L 489107.3 16025.6 L 488894.1 16025.6 L 488894.1 11180.5 Q 489853.5 11014.1 489853.5 10408.3 L 485859.9 10035.2 L 485859.9 16025.6 L 482131.5 16025.6 L 482344.7 16797.8 L 485859.9 16797.8 L 485859.9 22229.2 Q 484592.4 22510 483599.2 22705 Q 482607.3 22900 481998.9 23001.4 L 483223.5 26675.2 Q 483742.2 26502.3 483942.4 25930.3 Q 484431.2 25676.8 484901.8 25437.6 Q 485390.6 25188 485859.9 24944.9 L 485859.9 31201.8 Q 485892.4 31654.2 485326.9 31626.9 Q 484938.2 31623 484077.6 31580.1 Q 483682.4 31560.6 483317.1 31541.1 Q 482518.9 31498.2 482451.3 31494.3 L 482451.3 31867.4 Q 483334 32007.8 483812.4 32262.6 Q 484290.8 32518.7 484554.7 32878.8 Q 485007.1 33570.4 485060.4 35061.5 Q 487414.7 34837.9 488171.3 34003.3 Q 488248 33925.3 488315.6 33840.8 Q 488961.7 32947.7 488894.1 31387.7 L 488894.1 23293.9 Q 491410.9 21883.4 492887.7 20870.7 L 492808.4 20605.5 Z M 506892.6 27234.2 L 506598.8 27154.9 Q 506240 28044.1 505781.1 28964.5 Q 505320.9 29884.9 505002.4 30455.6 Q 504794.4 30811.8 504612.4 30828.7 Q 504430.4 30845.6 504123.6 30562.2 Q 502406.3 29284.3 501327.3 27366.8 Q 503643.9 24671.9 505401.5 20817.4 Q 505911.1 20857.7 506160.7 20757.6 Q 506410.3 20658.8 506519.5 20418.3 L 502765.1 18873.9 Q 501640.6 22135.6 500156 24678.4 Q 499264.2 21896.4 499012 18555.4 L 506493.5 17623.3 Q 507085 17570 507159.1 17117.6 Q 506440.2 16576.8 505597.8 16025.6 Q 504755.4 15474.4 504256.2 15174.1 Q 505187 14951.8 505400.2 14057.4 Q 505512 13559.5 505267.6 13020 Q 505024.5 12481.8 504345.9 12039.8 Q 503203.2 11244.2 500449.8 11287.1 L 500236.6 11473 Q 501107.6 12078.8 501924 13040.8 Q 502740.4 14001.5 503112.2 14986.9 Q 503511.3 15174.1 503831.1 15200.1 L 502605.2 17330.8 L 498958.7 17783.2 Q 498752 14720.4 498824.8 11419.7 Q 499337 11333.9 499554.1 11123.3 Q 499771.2 10912.7 499784.2 10647.5 L 495656.7 10221.1 Q 495643.7 14395.4 495949.2 18129 L 490784.3 18767.3 L 491104.1 19513.5 L 496029.8 18901.2 Q 496456.2 23826.9 498079.9 27713.9 Q 494958.6 31560.6 490598.4 33970.8 L 490784.3 34369.9 Q 495603.4 32631.8 499065.3 29657.4 Q 500409.5 31906.4 502472.6 33597.7 Q 503403.4 34358.2 504578.6 34783.3 Q 504806.1 34858.7 505032.3 34905.5 Q 506194.5 35187.6 506999.2 34369.9 Q 507307.3 34042.3 507161.7 33401.4 Q 507016.1 32759.2 506306.3 31654.2 L 506892.6 27234.2 Z M 519272.5 12511.7 L 509102.6 12511.7 L 509314.5 13283.9 L 514027 13283.9 Q 513603.2 14355.1 512741.3 15726.6 Q 512465.7 16160.8 512168 16574.2 Q 511239.8 17884.6 510353.2 18528.1 Q 510142.6 18650.3 509837.1 18721.8 Q 509531.6 18793.3 509501.7 18794.6 L 510992.8 22308.5 Q 511351.6 22135.6 511631.1 21642.9 Q 513149.5 21243.8 514506.7 20844.7 L 514506.7 24757.7 L 509395.1 24757.7 L 509608.3 25529.9 L 514506.7 25529.9 L 514506.7 30029.2 Q 512660.7 30291.8 511228.1 30479 Q 509796.8 30666.2 508889.4 30748.1 L 510406.5 34502.5 Q 510912.2 34369.9 511178.7 33836.9 Q 515592.2 32322.4 518662.8 31127.7 Q 521734.7 29933 523692.5 29017.8 L 523611.9 28672 Q 520456.8 29158.2 517542.2 29604.1 L 517542.2 25529.9 L 522493.9 25529.9 Q 523059.4 25536.4 523186.8 25104.8 Q 522486.1 24383.3 521651.5 23644.9 Q 521426.6 23444.7 521225.1 23267.9 Q 520471.1 22615.3 520417.8 22575 L 518873.4 24757.7 L 517542.2 24757.7 L 517542.2 21856.1 Q 518029.7 21776.8 518224.7 21596.1 Q 518418.4 21416.7 518447 21137.2 L 514613.3 20817.4 Q 516239.6 20353.3 517634.5 19919.1 Q 519030.7 19484.9 520098 19140.4 Q 520456.8 20059.5 520497.1 20977.3 Q 521600.8 21798.9 522406.8 21295.8 Q 523145.2 20839.5 523199.8 19759.2 Q 523253.1 18678.9 522206.6 17459.5 Q 521080.8 16129.6 518154.5 15227.4 L 517888 15413.3 Q 518453.5 16020.4 518959.2 16800.4 Q 519464.9 17581.7 519831.5 18448.8 Q 517486.3 18608.7 515395.9 18724.4 Q 513304.2 18840.1 511818.3 18901.2 Q 513250.9 18038 514692.6 16923.9 Q 516135.6 15811.1 517169.1 14747.7 Q 517994.6 14700.9 518101.2 14214.7 L 514586 13283.9 L 523026.9 13283.9 Q 523639.2 13290.4 523771.8 12857.5 Q 523000.9 12150.3 522135.1 11415.8 Q 521905 11220.8 521700.9 11047.9 Q 520923.5 10396.6 520870.2 10355 L 519272.5 12511.7 Z M 527285.7 13442.5 Q 527795.3 13361.9 528004.6 13170.8 Q 528215.2 12978.4 528245.1 12697.6 L 524437.4 12324.5 L 524437.4 29124.4 L 524970.4 29124.4 Q 525814.1 29098.4 526527.8 28812.4 Q 527241.5 28525.1 527285.7 28298.9 L 527285.7 13442.5 Z M 529655.6 10381 L 529655.6 31255.1 Q 529702.4 31767.3 529070.6 31760.8 Q 528659.8 31755.6 527697.8 31702.3 Q 527068.6 31667.2 526497.9 31632.1 Q 525623 31578.8 525555.4 31573.6 L 525555.4 31946.7 Q 526556.4 32123.5 527106.3 32375.7 Q 527657.5 32627.9 527978.6 32985.4 Q 528571.4 33677 528644.2 35088.8 Q 531068.7 34878.2 531863 34056.6 Q 531963.1 33961.7 532046.3 33860.3 Q 532705.4 32968.5 532637.8 31494.3 L 532637.8 11526.3 Q 533555.6 11359.9 533595.9 10754.1 L 529655.6 10381 Z M 543234.1 10408.3 Q 544476.9 11359.9 545670.3 12770.4 Q 546863.7 14182.2 547466.9 15652.5 Q 548786.4 16262.2 549588.5 15631.7 Q 550389.3 15002.5 550229.4 13811.7 Q 550226.8 13792.2 550222.9 13774 Q 550043.5 12579.3 548453.6 11514.6 Q 546863.7 10449.9 543420 10195.1 L 543234.1 10408.3 Z M 554975.7 33011.4 L 549491 33011.4 L 549491 24970.9 L 557450.9 24970.9 Q 558030.7 24977.4 558169.8 24545.8 Q 557326.1 23804.8 556377.1 23059.9 Q 556078.1 22823.3 555815.5 22620.5 Q 554977 21974.4 554922.4 21936.7 L 553111.5 24198.7 L 549491 24198.7 L 549491 17382.8 L 558436.3 17382.8 Q 559061.6 17390.6 559208.5 16957.7 Q 558340.1 16223.2 557369 15465.3 Q 557041.4 15207.9 556756.7 14986.9 Q 555909.1 14334.3 555853.2 14295.3 L 553990.3 16637.9 L 537164.4 16637.9 L 537376.3 17382.8 L 546056.4 17382.8 L 546056.4 24198.7 L 538282.4 24198.7 L 538495.6 24970.9 L 546056.4 24970.9 L 546056.4 33011.4 L 535379.5 33011.4 L 535592.7 33757.6 L 559554.3 33757.6 Q 560179.6 33764.1 560326.5 33331.2 Q 559430.8 32585 558438.9 31808.9 Q 558084 31530.7 557779.8 31294.1 Q 556920.5 30628.5 556865.9 30589.5 L 554975.7 33011.4 Z M 571535.1 10461.6 Q 571533.8 10823 571533.8 11184.4 Q 571592.3 14954.4 571250.4 18685.4 Q 571006 21076.1 570326.1 23407 Q 569644.9 25737.9 568317.6 27976.5 Q 566288.3 31470.9 562030.8 34636.4 L 562323.3 35008.2 Q 567346.5 32553.8 569969.9 29518.3 Q 572472.4 26632.3 573489 23425.2 Q 574551.1 20054.3 574730.5 16558.6 Q 575091.9 22038.1 576592.1 26226.7 Q 577104.3 27600.8 577797.2 28826.7 Q 579847.3 32568.1 584102.2 34875.6 Q 584640.4 32239.2 587057.1 31760.8 L 587110.4 31441 Q 581945.5 29531.3 579292.2 26265.7 Q 577646.4 24263.7 576702.6 21696.2 Q 575198.5 17503.7 574943.7 11632.9 Q 575454.6 11570.5 575675.6 11379.4 Q 575896.6 11188.3 575927.8 10886.7 L 571535.1 10461.6 Z M 596322.2 10754.1 Q 594996.2 14529.3 593021.5 17953.5 Q 592739.4 18444.9 592450.8 18922 Q 590425.4 22243.5 588335 24492.5 L 588627.5 24757.7 Q 591833.3 22828.5 594538.6 19916.5 Q 597243.9 17003.2 599330.4 13017.4 Q 600230 13117.5 600448.4 12618.3 L 596322.2 10754.1 Z M 603671.1 25344 Q 604461.5 26351.5 605261 27564.4 Q 606061.8 28776 606732.6 30082.5 Q 603269.4 30403.6 600055.8 30598.6 Q 596843.5 30794.9 594458 30854.7 Q 596479.5 29132.2 598443.8 26928.7 Q 599061.3 26237.1 599639.8 25540.3 Q 601479.3 23317.3 602605.1 21457 Q 603490.4 21483 603697.1 21030.6 L 599383.7 18714 Q 598883.2 20488.5 597866.6 22763.5 Q 597341.4 23938.7 596748.6 25098.3 Q 596154.5 26256.6 595544.8 27294 Q 594364.4 29307.7 593393.3 30323 Q 593095.6 30575.2 592394.9 30742.9 Q 592237.6 30783.2 592085.5 30817 Q 591410.8 30958.7 591343.2 30961.3 L 593074.8 34769 Q 593512.9 34602.6 593873 34076.1 Q 598035.6 33227.2 601363.6 32362.7 Q 604692.9 31498.2 607078.4 30748.1 Q 607916.9 32445.9 608277 34103.4 Q 609593.9 35036.8 610459.7 34418 Q 611326.8 33799.2 611204.6 32234 L 611199.4 32184.6 Q 611056.4 30610.3 609382 28708.4 Q 607707.6 26806.5 603963.6 25184.1 L 603671.1 25344 Z M 603724.4 10514.9 L 603457.9 10647.5 Q 604267.8 15500.4 606086.5 18671.1 Q 607905.2 21841.8 610832.8 23799.6 Q 611207.2 22801.2 612030.1 22082.3 Q 612854.3 21363.4 613947.6 21164.5 L 614000.9 20844.7 Q 610871.8 19535.6 608462.9 17473.8 Q 606054 15410.7 604761.8 12723.6 Q 605493.7 11925.4 605826.5 11287.1 L 603724.4 10514.9 Z M 632584.4 9555.5 Q 630358.8 10547.4 629446.2 12181.5 Q 628533.6 13816.9 628563.5 15466.6 Q 628583 16748.4 629186.2 17410.1 Q 629789.4 18071.8 630747.5 18075.7 Q 631662.7 18060.1 632234.7 17536.2 Q 632806.7 17012.3 632823.6 16158.2 Q 632778.1 14977.8 631989 14391.5 Q 631198.6 13805.2 630214.5 13602.4 Q 630288.6 12908.2 630976.3 11989.1 Q 631665.3 11070 633036.8 10355 L 632584.4 9555.5 Z M 638547.5 9555.5 Q 636341.4 10547.4 635432.7 12181.5 Q 634524 13816.9 634553.9 15466.6 Q 634573.4 16748.4 635176.6 17410.1 Q 635779.8 18071.8 636737.9 18075.7 Q 637653.1 18060.1 638225.1 17536.2 Q 638797.1 17012.3 638814 16158.2 Q 638764.6 14977.8 637971.6 14391.5 Q 637179.9 13805.2 636232.2 13602.4 Q 636286.8 12908.2 636970.6 11989.1 Q 637654.4 11070 639027.2 10355 L 638547.5 9555.5 Z M 645203.5 21403.7 L 650608.9 21403.7 L 650608.9 24226 L 645203.5 24226 L 645203.5 21403.7 Z M 650608.9 17809.2 L 650608.9 20631.5 L 645203.5 20631.5 L 645203.5 17809.2 L 650608.9 17809.2 Z M 650342.4 28725.3 L 649250.4 28725.3 L 649250.4 24998.2 L 650608.9 24998.2 L 650608.9 25877 L 651061.3 25877 Q 651790.6 25843.2 652495.2 25529.9 Q 653199.8 25217.9 653271.3 25024.2 L 653271.3 18075.7 Q 653870.6 17922.3 654069.5 17649.3 L 651594.3 15786.4 L 650395.7 17037 L 649277.7 17037 L 649277.7 14427.9 L 653591.1 14427.9 Q 654182.6 14434.4 654336 14002.8 Q 653575.5 13293 652734.4 12605.3 Q 652571.9 12471.4 652422.4 12350.5 Q 651648.9 11725.2 651594.3 11686.2 L 650075.9 13655.7 L 649277.7 13655.7 L 649277.7 11073.9 Q 649744.4 10993.3 649922.5 10817.8 Q 650100.6 10642.3 650129.2 10381 L 646508.7 10061.2 L 646508.7 13655.7 L 641796.2 13655.7 L 642009.4 14427.9 L 646508.7 14427.9 L 646508.7 17037 L 645310.1 17037 L 642701 15972.3 L 642701 26302.1 L 643074.1 26302.1 Q 643889.2 26274.8 644528.8 25992.7 Q 645168.4 25710.6 645203.5 25503.9 L 645203.5 24998.2 L 646481.4 24998.2 L 646481.4 28725.3 L 641768.9 28725.3 L 641982.1 29470.2 L 646481.4 29470.2 L 646481.4 34954.9 L 646988.4 34954.9 Q 648055.7 34923.7 648648.5 34642.9 Q 649241.3 34360.8 649250.4 34210 L 649250.4 29470.2 L 654176.1 29470.2 Q 654801.4 29478 654948.3 29045.1 Q 654152.7 28335.3 653266.1 27625.5 Q 653045.1 27448.7 652848.8 27292.7 Q 652048 26660.9 651993.4 26621.9 L 650342.4 28725.3 Z M 660459 24038.8 L 663202 24038.8 Q 663147.4 26139.6 663022.6 27197.8 Q 662897.8 28254.7 662643 28458.8 Q 662483.1 28652.5 662003.4 28646 Q 661749.9 28646 661320.9 28625.2 Q 660893.2 28605.7 660459 28565.4 L 660459 24038.8 Z M 664426.6 21883.4 L 662962.8 23267.9 L 660459 23267.9 L 660459 19859.3 L 665224.8 19859.3 Q 665817.6 19865.8 665971 19432.9 Q 665204 18751.7 664349.9 18057.5 Q 664156.2 17898.9 663979.4 17755.9 Q 663203.3 17130.6 663148.7 17090.3 L 661578.3 19087.1 L 660459 19087.1 L 660459 15545.9 L 665837.1 15545.9 Q 666436.4 15552.4 666556 15120.8 Q 665785.1 14417.5 664901.1 13703.8 Q 664663.2 13510.1 664450 13339.8 Q 663655.7 12710.6 663601.1 12671.6 L 661950.1 14773.7 L 660459 14773.7 L 660459 11445.7 Q 660985.5 11365.1 661192.2 11174 Q 661397.6 10981.6 661444.4 10700.8 L 657478.1 10301.7 L 657478.1 14773.7 L 653830.3 14773.7 L 654043.5 15545.9 L 657478.1 15545.9 L 657478.1 19087.1 L 654096.8 19087.1 L 654310 19859.3 L 657478.1 19859.3 L 657478.1 23267.9 L 653457.2 23267.9 L 653696.4 24038.8 L 657478.1 24038.8 L 657478.1 35008.2 L 658037.1 35008.2 Q 658939.3 34973.1 659677.7 34592.2 Q 660414.8 34212.6 660459 33917.5 L 660459 29017.8 Q 661205.2 29231 661551 29683.4 Q 661943.6 30189.1 661896.8 31255.1 Q 662827.6 31261.6 663507.5 31125.1 Q 664188.7 30987.3 664719.1 30615.5 Q 665421.1 30133.2 665704.5 28768.2 Q 665987.9 27403.2 666050.3 24465.2 Q 666816 24339.1 667061.7 24012.8 L 664426.6 21883.4 Z M 672573.7 25877 L 672573.7 13070.7 L 675901.7 13070.7 L 675901.7 16318.1 L 675821.1 16318.1 L 673452.5 15334 L 673452.5 22948.1 L 673771 22948.1 Q 674578.3 22928.6 675035.9 22724.5 Q 675493.5 22520.4 675502.6 22361.8 L 675502.6 21670.2 L 675874.4 21670.2 L 675874.4 25877 L 672573.7 25877 Z M 678376.9 16983.7 L 678376.9 20898 L 675502.6 20898 L 675502.6 16983.7 L 678376.9 16983.7 Z M 672786.9 26649.2 L 682078 26649.2 Q 682657.8 26655.7 682796.9 26222.8 Q 682085.8 25503.9 681275.9 24769.4 Q 681092.6 24600.4 680924.9 24449.6 Q 680187.8 23789.2 680134.5 23746.3 L 678617.4 25877 L 677924.5 25877 L 677924.5 21670.2 L 678376.9 21670.2 L 678376.9 22655.6 L 678750 22655.6 Q 679523.5 22633.5 680008.4 22442.4 Q 680492 22250 680507.6 22148.6 L 680507.6 17196.9 Q 681299.3 17064.3 681493 16770.5 L 679362.3 15120.8 L 678350.9 16318.1 L 677951.8 16318.1 L 677951.8 13070.7 L 681386.4 13070.7 Q 681977.9 13077.2 682131.3 12644.3 Q 681417.6 11946.2 680589.5 11246.8 Q 680399.7 11085.6 680228.1 10941.3 Q 679470.2 10314.7 679415.6 10274.4 L 677898.5 12298.5 L 672946.8 12298.5 L 669911.3 10967.3 L 669911.3 25610.5 Q 669418.6 25969.3 669085.8 26329.4 L 671908.1 28032.4 L 672786.9 26649.2 Z M 671934.1 28192.3 Q 671762.5 29303.8 670985.1 30564.8 Q 670950 30622 670913.6 30679.2 Q 670118 31931.1 669165.1 32612.3 Q 668559.3 33853.8 669193.7 34518.1 Q 669496.6 34853.5 669971.1 34995.2 Q 670445.6 35136.9 670983.8 35056.3 Q 672075.8 34913.3 672812.9 33783.6 Q 673582.5 32522.6 673508.4 31041.9 Q 673434.3 29561.2 672386.5 28139 L 671934.1 28192.3 Z M 675874.4 28085.7 Q 676555.6 29454.6 676766.2 31018.5 Q 676978.1 32581.1 676940.4 33730.3 Q 677717.8 34824.9 678665.5 34614.3 Q 679614.5 34403.7 680070.8 33355.9 Q 680105.9 33266.2 680135.8 33171.3 Q 680515.4 32071.5 679683.4 30644.1 Q 678850.1 29215.4 676140.9 27927.1 L 675874.4 28085.7 Z M 681599.6 28298.9 Q 682507 29569 682939.9 31108.2 Q 683374.1 32647.4 683462.5 33836.9 Q 684355.6 34775.5 685209.7 34398.5 Q 686053.4 34028 686284.8 32911.3 Q 686516.2 31795.9 685563.3 30467.3 Q 684601.3 29123.1 681838.8 28113 L 681599.6 28298.9 Z M 687456.1 27980.4 Q 688541.6 29432.5 689087.6 31174.5 Q 689632.3 32916.5 689798.7 34289.3 Q 690752.9 35303.3 691664.2 34944.5 Q 692576.8 34585.7 692845.9 33398.8 Q 692870.6 33270.1 692883.6 33134.9 Q 693042.2 31888.2 691889.1 30416.6 Q 690736 28946.3 687669.3 27793.2 L 687456.1 27980.4 Z M 688867.9 13043.4 L 688867.9 18634.7 L 685326.7 18634.7 L 685326.7 13043.4 L 688867.9 13043.4 Z M 692142.6 21776.8 L 691848.8 21776.8 Q 691581 22615.3 691302.8 23274.4 Q 691025.9 23933.5 690837.4 24172.7 Q 690570.9 24424.9 690145.8 24439.2 Q 689914.4 24457.4 689433.4 24462.6 Q 688952.4 24466.5 688360.9 24465.2 L 686284.8 24465.2 Q 685701.1 24469.1 685506.1 24328.7 Q 685311.1 24188.3 685326.7 23852.9 L 685326.7 19406.9 L 688867.9 19406.9 L 688867.9 20471.6 L 689346.3 20471.6 Q 690141.9 20439.1 690918 20142.7 Q 691692.8 19845 691769.5 19673.4 L 691769.5 13469.8 Q 692494.9 13316.4 692780.9 12964.1 L 689958.6 10833.4 L 688601.4 12298.5 L 685698.5 12298.5 L 682477.1 11046.6 L 682477.1 24439.2 Q 682434.2 25870.5 683089.4 26419.1 Q 683745.9 26967.7 685619.2 26941.7 L 688068.4 26941.7 Q 691050.6 26953.4 692195.9 26595.9 Q 693339.9 26237.1 693286.6 25370 Q 693297 24999.5 693066.9 24738.2 Q 692838.1 24476.9 692249.2 24226 L 692142.6 21776.8 Z M 713920.2 11073.9 Q 714732.7 11700.5 715545.2 12640.4 Q 716356.4 13581.6 716769.8 14508.5 Q 717938.5 14958.3 718595 14353.8 Q 719142.3 13855.9 719055.2 13066.8 Q 718968.1 12279 718000.9 11625.1 Q 716868.6 10837.3 714133.4 10886.7 L 713920.2 11073.9 Z M 709261 27980.4 Q 707391.6 28159.8 705563.8 28310.6 Q 704995.7 28358.7 704441.9 28405.5 L 704441.9 26062.9 L 708702 26062.9 Q 709267.5 26069.4 709394.9 25636.5 Q 708669.5 24965.7 707877.8 24319.6 Q 707768.6 24231.2 707667.2 24148 Q 706919.7 23546.1 706865.1 23507.1 L 705480.6 25290.7 L 704441.9 25290.7 L 704441.9 23453.8 Q 704932 23371.9 705141.3 23180.8 Q 705350.6 22989.7 705401.3 22707.6 L 702099.3 22361.8 L 702099.3 25290.7 L 699650.1 25290.7 Q 699717.7 25162 699789.2 25026.8 Q 700551 23612.4 701354.4 21962.7 L 708382.2 21962.7 Q 708934.7 21969.2 709047.8 21536.3 Q 708328.9 20891.5 707520.3 20264.9 Q 707395.5 20167.4 707278.5 20076.4 Q 706521.9 19497.9 706466 19460.2 L 705081.5 21190.5 L 701753.5 21190.5 Q 702159.1 20352 702445.1 19673.4 Q 702958.6 19725.4 703227.7 19583.7 Q 703496.8 19440.7 703590.4 19193.7 L 700129.8 18101.7 Q 699924.4 18672.4 699573.4 19477.1 Q 699223.7 20281.8 698798.6 21190.5 L 695603.2 21190.5 L 695816.4 21962.7 L 698425.5 21962.7 Q 697687.1 23520.1 696987.7 24757.7 Q 696322.1 25011.2 695895.7 25344 L 698372.2 27154.9 L 699436.9 26062.9 L 701700.2 26062.9 L 701700.2 28646 Q 699629.3 28804.6 698022.5 28904.7 Q 696415.7 29004.8 695443.3 29045.1 L 696748.5 32452.4 Q 697254.2 32358.8 697520.7 31867.4 Q 698907.8 31498.2 700157.1 31147.2 Q 700954 30924.9 701700.2 30722.1 L 701700.2 34928.9 L 702205.9 34928.9 Q 703253.7 34900.3 703843.9 34642.9 Q 704432.8 34384.2 704441.9 34236 L 704441.9 29923.9 Q 707383.8 29017.8 709288.3 28352.2 L 709261 27980.4 Z M 719937.9 27660.6 L 719644.1 27633.3 Q 719311.3 28504.3 718903.1 29420.8 Q 718493.6 30337.3 718180.3 30908 Q 718008.7 31246 717828 31274.6 Q 717646 31303.2 717354.8 31041.9 Q 715870.2 29996.7 714905.6 28352.2 Q 716277.1 26646.6 717269 24811 Q 718259.6 22976.7 718952.5 21111.2 Q 719462.1 21148.9 719707.8 21037.1 Q 719953.5 20926.6 720044.5 20684.8 L 716076.9 18980.5 Q 715404.8 22389.1 713734.3 25717.1 Q 712702.1 22395.6 712509.7 18075.7 L 719511.5 18075.7 Q 720104.3 18082.2 720256.4 17649.3 Q 719486.8 16927.8 718613.2 16190.7 Q 718376.6 15989.2 718166 15813.7 Q 717382.1 15161.1 717328.8 15120.8 L 715731.1 17303.5 L 712482.4 17303.5 Q 712390.1 14498.1 712456.4 11492.5 Q 712456.4 11483.4 712456.4 11473 Q 712945.2 11405.4 713154.5 11203.9 Q 713365.1 11001.1 713414.5 10754.1 L 709554.8 10274.4 Q 709534 13949.5 709713.4 17303.5 L 703643.7 17303.5 L 703643.7 14427.9 L 708063.7 14427.9 Q 708608.4 14434.4 708755.3 14002.8 Q 708109.2 13315.1 707360.4 12646.9 Q 707249.9 12545.5 707145.9 12453.2 Q 706440 11833.1 706385.4 11792.8 L 705081.5 13655.7 L 703643.7 13655.7 L 703643.7 11366.4 Q 704171.5 11266.3 704386 11070 Q 704599.2 10875 704629.1 10594.2 L 700795.4 10274.4 L 700795.4 13655.7 L 696375.4 13655.7 L 696588.6 14427.9 L 700795.4 14427.9 L 700795.4 17303.5 L 695204.1 17303.5 L 695417.3 18075.7 L 709766.7 18075.7 Q 709956.5 21154.1 710470 23812.6 Q 710982.2 26472.4 711950.7 28672 Q 710776.8 30319.1 709294.8 31767.3 Q 707811.5 33214.2 705960.3 34342.6 L 706173.5 34662.4 Q 710259.4 33045.2 712908.8 30508.9 Q 714133.4 32445.9 715917 33783.6 Q 716859.5 34494.7 717978.8 34863.9 Q 718117.9 34905.5 718254.4 34934.1 Q 719362 35213.6 720097.8 34423.2 Q 720365.6 34116.4 720223.9 33554.8 Q 720082.2 32993.2 719432.2 32026 L 719937.9 27660.6 Z M 729335.6 18075.7 Q 731561.2 17085.1 732473.8 15449.7 Q 733386.4 13815.6 733356.5 12164.6 Q 733337 10865.9 732733.8 10212 Q 732130.6 9556.8 731172.5 9555.5 Q 730257.3 9572.4 729685.3 10092.4 Q 729113.3 10612.4 729096.4 11445.7 Q 729141.9 12643 729931 13226.7 Q 730721.4 13810.4 731705.5 14028.8 Q 731631.4 14723 730943.7 15643.4 Q 730254.7 16562.5 728883.2 17277.5 L 729335.6 18075.7 Z M 723372.5 18075.7 Q 725578.6 17085.1 726487.3 15449.7 Q 727396 13815.6 727366.1 12164.6 Q 727346.6 10865.9 726743.4 10212 Q 726140.2 9556.8 725182.1 9555.5 Q 724266.9 9572.4 723694.9 10092.4 Q 723122.9 10612.4 723106 11445.7 Q 723155.4 12643 723948.4 13226.7 Q 724740.1 13810.4 725687.8 14028.8 Q 725633.2 14723 724949.4 15643.4 Q 724265.6 16562.5 722892.8 17277.5 L 723372.5 18075.7 Z M 752046.6 27500.7 L 752046.6 13815.6 L 754335.9 13815.6 L 754335.9 27500.7 L 752046.6 27500.7 Z M 755453.9 11579.6 L 754069.4 13070.7 L 752179.2 13070.7 L 749330.9 11872.1 L 749330.9 32452.4 L 749783.3 32452.4 Q 750728.4 32419.9 751373.2 32083.2 Q 752019.3 31746.5 752046.6 31494.3 L 752046.6 28272.9 L 754335.9 28272.9 L 754335.9 31014.6 L 754788.3 31014.6 Q 755595.6 30978.2 756328.8 30622 Q 757062 30265.8 757130.9 30029.2 L 757130.9 14295.3 Q 757956.4 14075.6 758222.9 13736.3 L 755453.9 11579.6 Z M 764904.9 27261.5 L 757663.9 27261.5 L 757877.1 28032.4 L 768074.3 28032.4 Q 768639.8 28040.2 768765.9 27607.3 Q 768119.8 26920.9 767345 26221.5 Q 767181.2 26072 767031.7 25938.1 Q 766316.7 25305 766263.4 25264.7 L 764904.9 27261.5 Z M 771082.5 21510.3 L 769617.4 22974.1 L 769085.7 22974.1 Q 769343.1 20943.5 769565.4 18541.1 Q 769643.4 17700 769713.6 16883.6 Q 769912.5 14544.9 770017.8 12936.8 Q 770856.3 12763.9 771135.8 12431.1 L 768206.9 10195.1 L 767035.6 11686.2 L 758355.5 11686.2 L 758596 12431.1 L 767248.8 12431.1 Q 767130.5 14563.1 766892.6 17315.2 Q 766875.7 17502.4 766858.8 17692.2 Q 766611.8 20457.3 766263.4 22974.1 L 762030.6 22974.1 Q 762280.2 21333.5 762510.3 19325 Q 762538.9 19067.6 762567.5 18811.5 Q 762789.8 16813.4 762908.1 15360 Q 763398.2 15350.9 763624.4 15176.7 Q 763849.3 15002.5 763920.8 14773.7 L 760140.4 14028.8 Q 760102.7 15205.3 759919.4 17137.1 Q 759820.6 18188.8 759694.5 19279.5 Q 759464.4 21284.1 759208.3 22788.2 Q 758709.1 23093.7 758329.5 23400.5 L 761071.2 25051.5 L 762163.2 23720.3 L 769830.6 23720.3 Q 769655.1 27149.7 769337.9 29171.2 Q 769022 31192.7 768526.7 31626.9 Q 768226.4 31886.9 767647.9 31867.4 Q 767144.8 31863.5 766026.8 31799.8 Q 764910.1 31737.4 763946.8 31654.2 L 763920.8 32026 Q 764793.1 32191.1 765501.6 32449.8 Q 766208.8 32708.5 766583.2 33011.4 Q 767202 33670.5 767142.2 34928.9 Q 768270.6 34928.9 769079.2 34685.8 Q 769887.8 34441.4 770496.2 33943.5 Q 771443.9 33185.6 771940.5 30805.3 Q 772438.4 28425 772626.9 24172.7 Q 773438.1 24053.1 773691.6 23693 L 771082.5 21510.3 Z M 780134.4 28432.8 Q 779134.7 28458.8 778500.3 29107.5 Q 777865.9 29757.5 777845.1 30722.1 Q 777865.9 31646.4 778500.3 32275.6 Q 779134.7 32906.1 780134.4 32932.1 Q 781131.5 32906.1 781755.5 32275.6 Q 782378.2 31646.4 782397.7 30722.1 Q 782378.2 29757.5 781755.5 29107.5 Q 781131.5 28458.8 780134.4 28432.8  Z M 779095.7 13230.6 Q 779368.7 13196.8 779682 13203.3 Q 781238.1 13222.8 782141.6 14065.2 Q 783043.8 14907.6 783063.3 16345.4 Q 783063.3 17464.7 782560.2 18378.6 Q 782057.1 19292.5 781039.2 20232.4 Q 779948.5 21256.8 779451.9 22003 Q 778955.3 22747.9 778963.1 23613.7 Q 778961.8 24175.3 779069.7 24738.2 Q 779177.6 25301.1 779415.5 26062.9 L 780480.2 26062.9 L 780480.2 24891.6 Q 780486.7 23942.6 781088.6 23300.4 Q 781689.2 22658.2 782803.3 21888.6 Q 782878.7 21832.7 782956.7 21776.8 Q 784901.5 20389.7 785662 19234 Q 786423.8 18077 786391.3 16531.3 Q 786375.7 14531.9 784953.5 13386.6 Q 783530 12241.3 780879.3 12217.9 Q 778436.6 12220.5 776953.3 13406.1 Q 775468.7 14591.7 775262 16930.4 Q 775767.7 17715.6 776753.1 17702.6 Q 778190.9 17736.4 778510.7 15972.3 L 779095.7 13230.6 Z " fill-rule="nonzero" style="fill:#333333;;fill-opacity:1;"/>
</svg>