<svg version="1.1" x="0" y="0" width="100%" height="100%" viewBox="0 0 241254.4 67481.6" xmlns="http://www.w3.org/2000/svg">
  <path d="M 38650.7 24990 Q 38466.2 25037.25 38189.45 25037.25 Q 37269.2 25037.25 36645.95 24461.25 Q 36024.95 23885.25 35241.95 22548.75 Q 35057.45 22179.75 35057.45 21995.25 Q 35057.45 21718.5 35356.7 21511.5 Q 35655.95 21304.5 36209.45 21304.5 Q 36760.7 21304.5 38511.2 21120 Q 38189.45 17801.25 37867.7 16973.25 Q 37635.95 16282.5 37635.95 15913.5 Q 37635.95 15267.75 38558.45 15267.75 Q 39480.95 15267.75 40677.95 15614.25 Q 41877.2 15958.5 42520.7 16512 Q 42936.95 16881 42936.95 17434.5 Q 42936.95 17709 42889.7 17918.25 Q 42844.7 18125.25 42844.7 18262.5 Q 42797.45 18723.75 42797.45 20521.5 L 45609.95 20060.25 Q 45702.2 18033 45702.2 17295 Q 45702.2 16235.25 45609.95 15315 Q 45562.7 15038.25 45492.95 14739 Q 45425.45 14437.5 45425.45 14163 Q 45425.45 13609.5 46023.95 13470 Q 46161.2 13425 46530.2 13425 Q 47821.7 13425 49225.7 14185.5 Q 50631.95 14946 50953.7 15774 Q 51045.95 16050.75 51045.95 16190.25 Q 51045.95 16604.25 50769.2 17272.5 Q 50492.45 17940.75 50447.45 18170.25 L 50262.95 19185 Q 50447.45 19137.75 50769.2 19137.75 Q 51691.7 19137.75 52152.95 19738.5 Q 52843.7 20521.5 53142.95 20982.75 Q 53442.2 21441.75 53581.7 22087.5 Q 53673.95 22272 53673.95 22409.25 Q 53673.95 23147.25 52614.2 23147.25 Q 51507.2 23147.25 49524.95 23379 Q 49295.45 24531 49180.7 25266.75 Q 49065.95 26004.75 48973.7 26326.5 Q 49387.7 26234.25 49686.95 26166.75 Q 49986.2 26097 50170.7 26049.75 Q 50631.95 25957.5 50816.45 25957.5 Q 51369.95 25957.5 51898.7 26189.25 Q 52429.7 26418.75 52751.45 26835 Q 53212.7 27294 53442.2 27962.25 Q 53673.95 28630.5 53766.2 28862.25 Q 53811.2 29046.75 53811.2 29413.5 Q 53811.2 29829.75 53604.2 30014.25 Q 53397.2 30198.75 52843.7 30151.5 Q 50724.2 29967 44181.2 30867 Q 37638.2 31764.75 35379.2 32271 Q 34825.7 32410.5 33997.7 32041.5 Q 33167.45 31672.5 32544.2 30934.5 Q 31923.2 30198.75 31830.95 29368.5 L 31830.95 29184 Q 31830.95 28815 32037.95 28677.75 Q 32244.95 28538.25 32890.7 28585.5 Q 34917.95 28630.5 39156.95 28032 Q 39019.7 27755.25 39019.7 27386.25 L 38835.2 24945 Q 38787.95 24990 38650.7 24990  Z M 36760.7 50012.25 Q 36900.2 48952.5 37084.7 45219.75 Q 37269.2 41487 37269.2 37801.5 L 37269.2 35682 Q 37269.2 34989 37059.95 34413 Q 36852.95 33837 36807.95 33607.5 Q 36668.45 33193.5 36668.45 32916.75 Q 36668.45 32133.75 37912.7 32133.75 Q 39618.2 32133.75 40954.7 32961.75 Q 42520.7 32869.5 43166.45 32777.25 Q 43812.2 32685 44547.95 32525.25 Q 45285.95 32363.25 45607.7 32271 Q 46068.95 32226 47083.7 31764.75 Q 47544.95 31533 48003.95 31395.75 Q 48465.2 31258.5 48786.95 31350.75 Q 49846.7 31764.75 50539.7 32293.5 Q 51230.45 32824.5 51736.7 33654.75 Q 51968.45 34021.5 51968.45 34345.5 Q 54040.7 29922 55100.45 26142 Q 56160.2 22364.25 56436.95 18678.75 Q 56529.2 17387.25 56529.2 16282.5 Q 56529.2 15130.5 56436.95 14669.25 Q 56391.95 14529.75 56391.95 14300.25 Q 56391.95 13654.5 57082.7 13654.5 Q 57219.95 13654.5 57681.2 13746.75 Q 60675.95 14392.5 62334.2 15497.25 Q 62979.95 15958.5 62979.95 17065.5 Q 62979.95 18033 62610.95 19277.25 Q 62244.2 20521.5 62151.95 20798.25 Q 61551.2 23147.25 60261.95 25820.25 L 61137.2 25543.5 Q 64638.2 24483.75 65929.7 23930.25 Q 66620.45 23700.75 67034.45 23700.75 Q 67680.2 23700.75 68141.45 24022.5 Q 68739.95 24299.25 69315.95 25129.5 Q 69891.95 25957.5 70168.7 26281.5 Q 70353.2 26511 70353.2 27017.25 Q 70353.2 27386.25 70191.2 27663 Q 70031.45 27939.75 69707.45 27987 L 68647.7 28169.25 Q 64363.7 28954.5 61920.2 29553 Q 62934.95 29782.5 63947.45 30151.5 Q 64962.2 30520.5 65515.7 30842.25 Q 66435.95 31443 66435.95 32271 Q 66435.95 32595 66251.45 33238.5 Q 66066.95 33792 65607.95 35542.5 L 65238.95 36879 Q 64179.2 40749 63072.2 43145.25 Q 64869.95 45496.5 66251.45 46970.25 Q 68049.2 48813 69777.2 50057.25 Q 71505.2 51301.5 72794.45 51902.25 Q 73440.2 52176.75 73440.2 52545.75 Q 73440.2 52962 72519.95 53236.5 Q 70308.2 53929.5 68580.2 54343.5 Q 66852.2 54757.5 65700.2 54665.25 Q 64685.45 54528 63810.2 53630.25 Q 62934.95 52730.25 62104.7 51486 Q 61137.2 50012.25 60169.7 48214.5 Q 56621.45 52822.5 50307.95 54942 Q 50170.7 55034.25 49893.95 55034.25 Q 49709.45 55034.25 49572.2 54919.5 Q 49432.7 54804.75 49432.7 54665.25 Q 49432.7 54343.5 49756.7 54159 Q 52519.7 52131.75 54501.95 49713 Q 56484.2 47294.25 57865.7 43928.25 Q 56160.2 40841.25 54778.7 37754.25 Q 54225.2 36465 53811.2 35589.75 Q 52843.7 36694.5 51462.2 37662 Q 51185.45 41025.75 51185.45 45726 Q 51185.45 47294.25 51230.45 47845.5 L 51277.7 49413.75 Q 51277.7 50842.5 51023.45 51717.75 Q 50769.2 52593 50033.45 53376 Q 49018.7 54435.75 47774.45 54665.25 Q 47083.7 54712.5 46761.95 54413.25 Q 46437.95 54114 46253.45 53722.5 Q 46068.95 53328.75 46023.95 53191.5 Q 45654.95 52361.25 44802.2 51393.75 Q 43949.45 50426.25 43443.2 50149.5 Q 43029.2 49780.5 43029.2 49551 Q 43029.2 49229.25 43443.2 49229.25 Q 43904.45 49229.25 44433.2 49274.25 Q 44964.2 49321.5 45931.7 49321.5 Q 46300.7 49321.5 46437.95 49159.5 Q 46577.45 48997.5 46622.45 48675.75 Q 46714.7 47708.25 46806.95 45773.25 Q 46345.7 45957.75 45702.2 45957.75 Q 45378.2 45957.75 44709.95 46050 Q 44041.7 46142.25 43672.7 46187.25 L 41553.2 46416.75 Q 41508.2 48354 41508.2 51762.75 Q 41508.2 53099.25 40884.95 53904.75 Q 40263.95 54712.5 39618.2 55034.25 Q 38927.45 55266 38166.95 54505.5 Q 37406.45 53745 36900.2 52685.25 Q 36668.45 52176.75 36668.45 51301.5 Q 36668.45 50658 36760.7 50012.25  Z M 43443.2 43100.25 Q 44273.45 42960.75 44871.95 42960.75 Q 45425.45 42960.75 45562.7 43100.25 Q 46345.7 43698.75 46854.2 44389.5 Q 46899.2 43284.75 46899.2 40980.75 Q 46345.7 41165.25 45839.45 41165.25 Q 44916.95 41210.25 41600.45 41716.5 L 41600.45 43422 L 43443.2 43100.25 Z M 43627.7 38215.5 Q 44732.45 38031 45101.45 38031 Q 45562.7 38031 45792.2 38215.5 Q 46300.7 38537.25 46854.2 39275.25 Q 46761.95 37340.25 46669.7 36325.5 Q 46669.7 35866.5 46161.2 35866.5 Q 44181.2 35774.25 41829.95 36465 L 41692.7 38537.25 L 43627.7 38215.5 Z M 42936.95 26880 L 42936.95 27433.5 Q 43857.2 27341.25 45240.95 27064.5 L 45285.95 26097 L 45425.45 23930.25 L 42889.7 24299.25 L 42936.95 26880 Z M 56115.2 32916.75 Q 56299.7 33193.5 56459.45 33562.5 Q 56621.45 33929.25 56850.95 34345.5 Q 57543.95 35589.75 59616.2 38492.25 L 60306.95 35450.25 Q 60583.7 34113.75 60583.7 32869.5 Q 60583.7 31026.75 60077.45 30014.25 Q 59892.95 30014.25 59708.45 30106.5 Q 59109.95 30243.75 58511.45 30243.75 Q 58142.45 30243.75 57957.95 30198.75 Q 56758.7 32041.5 56115.2 32916.75  Z M 102287.45 42317.25 Q 101457.2 41349.75 101043.2 40566.75 L 100903.7 40566.75 Q 99751.7 40659 97263.2 40911 Q 94774.7 41165.25 93071.45 41394.75 Q 92979.2 42454.5 92517.95 43030.5 Q 92056.7 43606.5 91318.7 43606.5 Q 91181.45 43606.5 90720.2 43514.25 Q 89109.2 43100.25 87840.2 42110.25 Q 86573.45 41118 86528.45 39138 Q 86528.45 35866.5 85905.2 32271 Q 85284.2 28677.75 84453.95 27109.5 Q 84224.45 26742.75 84224.45 26418.75 Q 84224.45 25775.25 85513.7 25728 L 86573.45 25683 Q 89799.95 25683 91410.95 26972.25 L 91687.7 27201.75 L 92979.2 27064.5 Q 93163.7 23700.75 93163.7 21810.75 Q 93163.7 20289.75 93071.45 19506.75 Q 92931.95 17940.75 92702.45 16948.5 Q 92470.7 15958.5 92056.7 15128.25 Q 91872.2 14759.25 91872.2 14253 Q 91872.2 13607.25 92241.2 13215.75 Q 92610.2 12824.25 93300.95 12963.75 Q 94866.95 13148.25 96986.45 13791.75 Q 99105.95 14437.5 99614.45 14943.75 Q 100165.7 15452.25 100165.7 16235.25 Q 100165.7 16557 99983.45 17387.25 L 99843.95 18676.5 Q 104406.95 17985.75 106479.2 17110.5 Q 106987.7 16926 107723.45 16926 Q 108785.45 16926 109291.7 17432.25 Q 109705.7 17801.25 110166.95 18492 Q 110628.2 19185 110812.7 19736.25 Q 111089.45 20566.5 111089.45 21212.25 Q 111089.45 22132.5 110443.7 22132.5 Q 107631.2 22132.5 101871.2 23007.75 L 99337.7 23331.75 Q 99245.45 24344.25 99153.2 26373.75 Q 102055.7 25820.25 102701.45 25174.5 Q 103254.95 24623.25 104037.95 24623.25 Q 104314.7 24623.25 104451.95 24668.25 Q 105511.7 25037.25 106319.45 25635.75 Q 107124.95 26234.25 108416.45 27433.5 Q 109244.45 28261.5 109244.45 29046.75 Q 109244.45 29413.5 109014.95 29782.5 Q 108047.45 31443 107264.45 36510 Q 106848.2 38814 106571.45 39873.75 Q 106157.45 41210.25 105466.7 42202.5 Q 104775.95 43192.5 103898.45 43192.5 Q 103162.7 43192.5 102287.45 42317.25  Z M 79107.95 51578.25 Q 79107.95 50565.75 80075.45 49782.75 Q 81319.7 48768 82748.45 47294.25 Q 84177.2 45818.25 85284.2 44436.75 Q 85605.95 44067.75 85974.95 44067.75 Q 86436.2 44067.75 86665.7 44805.75 Q 86805.2 45267 86805.2 46142.25 Q 86805.2 47800.5 86251.7 50082 Q 85698.2 52363.5 84753.2 53999.25 Q 83808.2 55635 82795.7 55635 Q 82057.7 55635 81182.45 54989.25 Q 80307.2 54343.5 79706.45 53376 Q 79107.95 52408.5 79107.95 51578.25  Z M 89844.95 45957.75 Q 89799.95 45865.5 89752.7 45726 Q 89707.7 45588.75 89707.7 45449.25 Q 89707.7 44990.25 90398.45 44990.25 Q 91734.95 44990.25 93415.7 45888 Q 95098.7 46785.75 95881.7 47985 Q 96572.45 49137 96572.45 50149.5 Q 96572.45 51393.75 95697.2 52453.5 Q 94821.95 53513.25 93300.95 54343.5 Q 93208.7 54435.75 92979.2 54435.75 Q 92702.45 54435.75 92448.2 54228.75 Q 92196.2 54021.75 92103.95 53697.75 Q 91687.7 52545.75 90996.95 49827.75 Q 90213.95 46833 89844.95 45957.75  Z M 92011.7 31303.5 Q 92196.2 33562.5 92610.2 36557.25 Q 94176.2 36372.75 98554.7 35634.75 Q 98876.45 35589.75 99382.7 35589.75 Q 100305.2 35589.75 100903.7 36003.75 Q 101502.2 33839.25 101502.2 31074 Q 101502.2 30705 101434.7 30565.5 Q 101364.95 30428.25 101135.45 30428.25 Q 99891.2 30428.25 95235.95 30981.75 L 92011.7 31303.5 Z M 98046.2 45818.25 Q 97861.7 45496.5 97861.7 45174.75 Q 97861.7 44529 98876.45 44529 Q 99891.2 44529 101479.7 45219.75 Q 103070.45 45910.5 103853.45 46693.5 Q 105097.7 47985 105097.7 49598.25 Q 105097.7 50795.25 104337.2 51877.5 Q 103576.7 52962 102240.2 53605.5 Q 102055.7 53745 101826.2 53745 Q 101317.7 53745 101180.45 53099.25 Q 99983.45 49827.75 98046.2 45818.25  Z M 105925.7 44207.25 Q 105743.45 43930.5 105743.45 43606.5 Q 105743.45 43147.5 106386.95 43147.5 Q 106895.45 43147.5 107217.2 43237.5 Q 108875.45 43514.25 110927.45 44481.75 Q 112977.2 45451.5 114036.95 46326.75 Q 115328.45 47339.25 115328.45 49182 Q 115328.45 50658 114520.7 52086.75 Q 113715.2 53515.5 112423.7 54251.25 Q 111964.7 54483 111595.7 54483 Q 110673.2 54483 109982.45 52962 Q 108047.45 47892.75 105925.7 44207.25  Z M 135603.2 35313 Q 134037.2 37340.25 133299.2 38676.75 Q 134496.2 39090.75 135004.7 39943.5 Q 135510.95 40796.25 135510.95 42085.5 Q 135510.95 43975.5 134174.45 45588.75 L 137076.95 46371.75 Q 137076.95 46279.5 137169.2 46095 Q 139473.2 44022.75 140879.45 41948.25 Q 142285.7 39873.75 142744.7 37018.5 L 142652.45 37018.5 Q 141547.7 37063.5 140971.7 36602.25 Q 140395.7 36143.25 139797.2 35173.5 Q 139520.45 34714.5 139520.45 34530 Q 139520.45 34113.75 140395.7 34068.75 Q 142976.45 33884.25 147168.2 32824.5 Q 145280.45 31258.5 145188.2 29139 Q 143482.7 31535.25 141063.95 33238.5 Q 138645.2 34944 135695.45 35313 L 135603.2 35313 Z M 123945.95 30981.75 Q 123945.95 30475.5 124312.7 30475.5 Q 124544.45 30520.5 125142.95 30520.5 Q 126848.45 30520.5 128945.45 29922 Q 131040.2 29323.5 132054.95 28585.5 Q 132561.2 28308.75 132837.95 28308.75 Q 133069.7 28308.75 133344.2 28446 Q 134037.2 28722.75 135281.45 29622.75 Q 136525.7 30520.5 137261.45 31350.75 Q 137630.45 31717.5 137630.45 32133.75 Q 137630.45 32455.5 137400.95 32824.5 Q 139889.45 30381 141824.45 27249 L 140532.95 27525.75 Q 139981.7 27615.75 139657.7 27615.75 Q 138552.95 27615.75 137585.45 27087 Q 136617.95 26556 136064.45 25543.5 Q 135695.45 24945 135695.45 24668.25 Q 135695.45 24159.75 136847.45 24069.75 Q 139151.45 24114.75 143851.7 23192.25 L 143896.7 23100 L 144036.2 23192.25 L 145140.95 22962.75 Q 145095.95 21718.5 144864.2 21027.75 Q 142285.7 21581.25 139104.2 21903 L 139014.2 21903 Q 138690.2 21903 138413.45 21673.5 Q 138136.7 21441.75 138136.7 21165 Q 138136.7 20796 138552.95 20613.75 Q 144173.45 18078 147584.45 15681.75 Q 149519.45 14300.25 150716.45 12916.5 Q 150855.95 12779.25 151132.7 12502.5 Q 151409.45 12225.75 151686.2 12225.75 Q 151868.45 12225.75 152192.45 12410.25 Q 155187.2 14023.5 155925.2 16143 Q 155970.2 16280.25 155970.2 16512 Q 155970.2 17202.75 154957.7 17848.5 Q 152883.2 19137.75 148965.95 20105.25 Q 150165.2 20703.75 150117.95 21903 L 156109.7 20566.5 Q 156800.45 20429.25 157261.7 20429.25 Q 157812.95 20429.25 158089.7 20566.5 Q 158366.45 20703.75 158550.95 20865.75 Q 158735.45 21027.75 158780.45 21072.75 Q 160116.95 22501.5 160578.2 23838 Q 160625.45 23977.5 160625.45 24159.75 Q 160625.45 24528.75 160348.7 24760.5 Q 160071.95 24990 159747.95 24990 Q 157077.2 24990 152192.45 25543.5 Q 157169.45 29276.25 164448.2 31350.75 Q 165233.45 31580.25 165233.45 32041.5 Q 165233.45 32363.25 164772.2 32502.75 Q 162375.95 33792 160256.45 34390.5 Q 159012.2 34851.75 158458.7 34851.75 Q 157675.7 34851.75 156845.45 34206 Q 153020.45 31395.75 149980.7 27525.75 L 150025.7 29598 Q 150025.7 31026.75 149427.2 32133.75 Q 150394.7 31672.5 150878.45 31488 Q 151362.2 31303.5 151683.95 31443 Q 152561.45 31625.25 153459.2 32433 Q 154356.95 33238.5 154725.95 34021.5 Q 154865.45 34298.25 154865.45 34530 Q 154865.45 35081.25 154311.95 35634.75 Q 153112.7 37110.75 152698.7 38400 L 153204.95 38262.75 Q 154172.45 37938.75 154449.2 37801.5 Q 154818.2 37662 155094.95 37617 Q 155371.7 37569.75 155648.45 37617 Q 156291.95 37709.25 157261.7 38838.75 Q 158229.2 39966 158505.95 40659 Q 158643.2 40933.5 158643.2 41165.25 Q 158643.2 41487 158274.2 41995.5 Q 157905.2 42501.75 157767.95 42778.5 Q 157214.45 43698.75 156201.95 46187.25 Q 156109.7 46419 155855.45 47017.5 Q 155601.2 47616 155094.95 48077.25 Q 154588.7 48538.5 153573.95 49137 Q 153297.2 49274.25 153020.45 49274.25 Q 152145.2 49274.25 151269.95 48261.75 L 149564.45 46648.5 Q 148689.2 45910.5 146801.45 44115 Q 146616.95 43975.5 146616.95 43791 Q 146616.95 43561.5 146776.7 43377 Q 146938.7 43192.5 147123.2 43237.5 Q 150441.95 44067.75 151224.95 44067.75 Q 151638.95 44067.75 151776.2 43883.25 Q 152007.95 43514.25 152284.7 42778.5 Q 152561.45 42040.5 152653.7 41811 Q 152745.95 41579.25 152745.95 41302.5 Q 152745.95 41025.75 152376.95 41165.25 L 149611.7 41811 Q 148965.95 41948.25 148596.95 41534.25 Q 148227.95 41118 147768.95 40197.75 Q 147676.7 39828.75 147676.7 39689.25 Q 147676.7 38998.5 148320.2 38953.5 L 148459.7 38953.5 Q 149242.7 37662 149933.45 35542.5 Q 148644.2 35774.25 147030.95 36188.25 L 147075.95 36233.25 Q 147584.45 36602.25 147584.45 37340.25 Q 147584.45 37662 147444.95 38170.5 Q 146432.45 41671.5 143943.95 44045.25 Q 141455.45 46419 138413.45 46785.75 Q 139473.2 47109.75 140256.2 47294.25 Q 146477.45 49137 150763.7 49989.75 Q 155049.95 50842.5 160485.95 50842.5 Q 162468.2 50842.5 164587.7 50703 L 164679.95 50703 Q 165093.95 50703 165093.95 51027 Q 165093.95 51348.75 164724.95 51670.5 Q 162837.2 53468.25 161385.95 54528 Q 159932.45 55587.75 157905.2 56418 Q 156568.7 56924.25 155187.2 56924.25 Q 153621.2 56924.25 151683.95 56233.5 Q 150486.95 55772.25 149312.45 55288.5 Q 148137.95 54804.75 146985.95 54343.5 Q 141455.45 52039.5 137884.7 50727.75 Q 134313.95 49413.75 132700.7 49321.5 Q 131316.95 49229.25 130419.2 49643.25 Q 129521.45 50059.5 128898.2 50543.25 Q 128277.2 51027 127953.2 51209.25 Q 127539.2 51486 127217.45 51486 Q 126940.7 51486 126641.45 51279 Q 126339.95 51072 126018.2 50795.25 Q 125419.7 49967.25 125187.95 49366.5 Q 124958.45 48768 124681.7 47478.75 Q 124636.7 46740.75 124843.7 46441.5 Q 125050.7 46142.25 125833.7 45957.75 Q 127908.2 45496.5 129750.95 45312 Q 131040.2 43746 131040.2 42594 Q 131040.2 41995.5 130740.95 41419.5 Q 130441.7 40841.25 129795.95 39921 Q 129521.45 39507 129521.45 38814 Q 129521.45 38400 129566.45 38123.25 Q 129843.2 37248 130902.95 33330.75 Q 129658.7 33929.25 128736.2 34530 L 127860.95 34989 Q 127768.7 35036.25 127561.7 35151 Q 127354.7 35265.75 127170.2 35265.75 Q 126893.45 35265.75 126663.95 35081.25 Q 125696.45 34482.75 124958.45 33423 Q 124220.45 32363.25 123945.95 31166.25 L 123945.95 30981.75 Z M 126940.7 19000.5 Q 126756.2 18768.75 126756.2 18447 Q 126756.2 17848.5 128092.7 17848.5 Q 129521.45 17848.5 130972.7 18192.75 Q 132423.95 18539.25 133391.45 19185 Q 135740.45 20613.75 135740.45 22593.75 Q 135740.45 23745.75 134912.45 24783 Q 134082.2 25820.25 132700.7 26463.75 Q 132239.45 26648.25 132009.95 26648.25 Q 131685.95 26648.25 131433.95 26441.25 Q 131179.7 26234.25 131087.45 25865.25 Q 130027.7 23055 126940.7 19000.5  Z M 181683.2 53007 Q 181084.7 53283.75 180531.2 53283.75 Q 180209.45 53283.75 180209.45 53099.25 Q 180209.45 52869.75 181037.45 52224 Q 185460.95 49089.75 187881.95 46164.75 Q 190300.7 43237.5 191405.45 39113.25 Q 192512.45 34989 192512.45 28585.5 Q 192512.45 24713.25 191866.7 23424 Q 191774.45 23147.25 191774.45 23102.25 Q 191774.45 22825.5 192375.2 22825.5 Q 194078.45 22870.5 195414.95 23169.75 Q 196751.45 23469 197903.45 24254.25 Q 198135.2 24346.5 198135.2 24805.5 Q 198135.2 25129.5 198018.2 25705.5 Q 197903.45 26281.5 197903.45 26740.5 L 197858.45 29321.25 L 197766.2 31994.25 Q 197626.7 34896.75 197165.45 37155.75 Q 198918.2 37617 199838.45 38215.5 Q 200436.95 38537.25 200344.7 39552 L 199930.7 45174.75 Q 199885.7 47017.5 200436.95 47823 Q 200990.45 48630.75 201681.2 48768 Q 202374.2 48905.25 203571.2 48905.25 Q 205506.2 48905.25 206565.95 48099.75 Q 207625.7 47294.25 208109.45 45980.25 Q 208593.2 44666.25 209054.45 42225 Q 209193.95 41763.75 209423.45 41763.75 Q 209700.2 41763.75 209745.2 42132.75 Q 210253.7 44112.75 210552.95 44943 Q 210852.2 45773.25 211635.2 46925.25 Q 212465.45 48077.25 212465.45 49458.75 Q 212465.45 50518.5 211911.95 51418.5 Q 211358.45 52316.25 210345.95 52777.5 Q 209193.95 53283.75 207027.2 53605.5 Q 204860.45 53929.5 202603.7 53929.5 Q 200621.45 53929.5 199147.7 53652.75 Q 197257.7 53328.75 196337.45 52478.25 Q 195414.95 51625.5 195162.95 50473.5 Q 194908.7 49321.5 194908.7 47523.75 Q 194908.7 44666.25 194953.7 43422 Q 193110.95 46648.5 189861.95 48997.5 Q 186612.95 51348.75 181683.2 53007  Z M 165831.95 43192.5 Q 169425.2 39921 173065.7 35704.5 Q 176706.2 31488 177444.2 29136.75 Q 177489.2 29046.75 177421.7 28977 Q 177351.95 28907.25 177212.45 28954.5 Q 176476.7 29184 175509.2 29598 Q 174541.7 30014.25 174172.7 30151.5 L 173250.2 30565.5 Q 172329.95 30889.5 171636.95 30889.5 Q 170946.2 30889.5 170118.2 30428.25 Q 168826.7 29690.25 167766.95 27249 Q 167674.7 26972.25 167674.7 26880 Q 167674.7 26603.25 167904.2 26418.75 Q 168135.95 26234.25 168549.95 26234.25 L 169749.2 26234.25 Q 170624.45 26234.25 171038.45 26189.25 Q 172512.2 25957.5 174978.2 25059.75 Q 177444.2 24162 178596.2 23469 Q 179424.2 23055 179932.7 23055 Q 180301.7 23055 180668.45 23239.5 Q 181451.45 23608.5 182603.45 24621 Q 183755.45 25635.75 184356.2 26511 Q 184630.7 26832.75 184630.7 27386.25 Q 184630.7 27802.5 184356.2 28169.25 Q 183341.45 29229 182880.2 30198.75 Q 182421.2 31026.75 181406.45 32685 Q 182328.95 32916.75 182695.7 33146.25 Q 184907.45 34206 184907.45 36280.5 Q 184907.45 37754.25 183802.7 39367.5 Q 183388.7 39873.75 182835.2 39873.75 Q 182373.95 39873.75 182144.45 39504.75 L 180483.95 36971.25 Q 180393.95 37432.5 180301.7 38814 Q 180254.45 39644.25 180254.45 41901 L 180301.7 47386.5 Q 180301.7 49044.75 180209.45 50795.25 Q 179977.7 54435.75 178688.45 54435.75 Q 177858.2 54435.75 177005.45 53929.5 Q 176152.7 53421 175554.2 52361.25 Q 174726.2 50795.25 174726.2 49182 Q 174726.2 48720.75 174771.2 48491.25 Q 175324.7 44574 175324.7 39552 Q 173065.7 41442 170669.45 42686.25 Q 168273.2 43930.5 165969.2 44344.5 L 165784.7 44344.5 Q 165325.7 44344.5 165325.7 43975.5 Q 165325.7 43698.75 165831.95 43192.5  Z M 173526.95 14761.5 Q 173342.45 14577 173342.45 14300.25 Q 173342.45 14070.75 173504.45 13861.5 Q 173664.2 13654.5 173940.95 13609.5 Q 175140.2 13517.25 177189.95 13861.5 Q 179239.7 14208 180346.7 14669.25 Q 181590.95 15222.75 182236.7 16098 Q 182880.2 16973.25 182880.2 18033 Q 182880.2 19554 181683.2 21257.25 Q 181498.7 21489 181176.95 21648.75 Q 180852.95 21810.75 180531.2 21810.75 Q 179932.7 21810.75 179655.95 21396.75 Q 176060.45 17202.75 173526.95 14761.5  Z M 185323.7 16190.25 Q 185323.7 15958.5 185530.7 15821.25 Q 185737.7 15681.75 186059.45 15729 Q 188041.7 16050.75 189193.7 16512 Q 190345.7 16973.25 191083.7 17709 L 191268.2 17985.75 Q 193063.7 17756.25 194285.45 17479.5 Q 195507.2 17202.75 197073.2 16741.5 Q 198180.2 16327.5 198918.2 15798.75 Q 199653.95 15267.75 199838.45 15175.5 Q 200484.2 14806.5 201082.7 14806.5 Q 201359.45 14806.5 201496.7 14853.75 Q 202511.45 15083.25 203157.2 15452.25 Q 203800.7 15821.25 204401.45 16282.5 Q 204999.95 16741.5 205229.45 16926 Q 205645.7 17295 205830.2 17526.75 Q 206012.45 17756.25 206012.45 18078 Q 206012.45 18217.5 205830.2 18768.75 Q 205368.95 19599 205092.2 21718.5 Q 204770.45 24576 204770.45 28722.75 Q 204770.45 30151.5 204815.45 30842.25 L 204860.45 33101.25 Q 204860.45 34437.75 204423.95 35220.75 Q 203985.2 36003.75 203017.7 36649.5 Q 201728.45 37524.75 200805.95 37524.75 Q 199977.95 37524.75 199653.95 36741.75 Q 199561.7 36188.25 199561.7 34714.5 L 199608.95 30059.25 Q 199701.2 26189.25 199701.2 24346.5 Q 199701.2 21718.5 199608.95 20982.75 Q 199516.7 20289.75 198778.7 20474.25 Q 195599.45 20798.25 193664.45 21441.75 Q 193479.95 21489 193203.2 21489 Q 192604.7 21489 192143.45 21120 Q 191682.2 20751 191083.7 19968 Q 190991.45 20474.25 190899.2 24805.5 Q 190806.95 29136.75 190806.95 32226 Q 190806.95 34345.5 190851.95 34851.75 Q 190899.2 35128.5 190899.2 35634.75 Q 190899.2 37340.25 190208.45 38377.5 Q 189515.45 39414.75 188640.2 39414.75 Q 188041.7 39414.75 187350.95 38676.75 Q 186660.2 37938.75 186151.7 36926.25 Q 185645.45 35911.5 185645.45 35128.5 Q 185645.45 34851.75 185690.45 34714.5 Q 186106.7 33193.5 186106.7 27478.5 Q 186106.7 23885.25 185922.2 20728.5 Q 185737.7 17571.75 185415.95 16557 L 185323.7 16190.25 Z " fill-rule="nonzero" style="fill:#b23636;;fill-opacity:1;"/>
</svg>