<svg version="1.1" x="0" y="0" width="100%" height="100%" viewBox="0 0 768000 29798.4" xmlns="http://www.w3.org/2000/svg">
  <path d="M 4671.6 7381.3 L 4671.6 7008.2 L 4671.6 7008.2 L 5388.4 7380.6 L 13344.6 7380.6 L 13344.6 7796.4 L 5316.3 7796.4 L 5316.3 13961.3 Q 5316.3 13990 5237.9 14054.4 Q 5158.8 14118.8 5044 14161.5 Q 4929.2 14204.9 4786.4 14204.9 L 4671.6 14204.9 L 4671.6 7381.3 Z M 4943.9 10205.1 L 13402 10205.1 L 13402 10620.9 L 4943.9 10620.9 L 4943.9 10205.1 Z M 4943.9 13014.9 L 13402 13014.9 L 13402 13430.7 L 4943.9 13430.7 L 4943.9 13014.9 Z M 8828.9 7380.6 L 9459.6 7380.6 L 9459.6 13201.1 L 8828.9 13201.1 L 8828.9 7380.6 Z M 13115 7381.3 L 12972.2 7381.3 L 13402 6908.1 L 14377.1 7652.9 Q 14305 7739 14132.8 7818.1 Q 13961.3 7897.2 13760.4 7939.9 L 13760.4 13703 Q 13760.4 13746.4 13660.3 13810.8 Q 13559.5 13875.2 13437.7 13925.6 Q 13315.9 13975.3 13201.1 13975.3 L 13115 13975.3 L 13115 7381.3 Z M 8083.4 14104.8 Q 8871.6 14362.4 9388.2 14678.1 Q 9904.1 14993.1 10191.1 15315.8 Q 10477.4 15638.5 10578.2 15925.5 Q 10678.3 16211.8 10635.6 16405.7 Q 10592.2 16598.9 10441.7 16663.3 Q 10291.2 16728.4 10076.3 16598.9 Q 9961.5 16169.1 9610.1 15724.6 Q 9258.7 15280.1 8807.2 14893 Q 8355.7 14505.9 7925.9 14247.6 L 8083.4 14104.8 Z M 6377.5 14821.6 L 7424 14964.4 Q 7381.3 15236.7 7008.2 15294.1 L 7008.2 18477 Q 7008.2 18663.2 7137 18713.6 Q 7266.5 18764 7796.4 18764 L 9731.9 18764 Q 10434.7 18764 10928.9 18757 Q 11423.8 18749.3 11610 18735.3 Q 11767.5 18720.6 11817.9 18677.9 Q 11868.3 18634.5 11911 18534.4 Q 11982.4 18348.2 12068.5 17853.3 Q 12154.6 17359.1 12255.4 16756.4 L 12455.6 16756.4 L 12484.3 18605.8 Q 12699.2 18663.2 12778.3 18728.3 Q 12857.4 18792.7 12857.4 18892.8 Q 12857.4 19065 12641.8 19165.1 Q 12426.9 19265.9 11760.5 19301.6 Q 11094.1 19337.3 9760.6 19337.3 L 7739 19337.3 Q 7165.7 19337.3 6871.7 19272.9 Q 6578.4 19208.5 6477.6 19036.3 Q 6377.5 18864.1 6377.5 18577.1 L 6377.5 14821.6 Z M 4743 15122.6 L 5015.3 15136.6 Q 5101.4 16010.9 4901.2 16656.3 Q 4700.3 17301.7 4370.6 17717.5 Q 4040.9 18132.6 3753.9 18333.5 Q 3510.3 18519.7 3209.3 18598.8 Q 2908.3 18677.9 2793.5 18505.7 Q 2693.4 18348.2 2778.8 18183 Q 2864.9 18018.5 3037.1 17903.7 Q 3410.2 17688.8 3775.6 17280 Q 4141 16871.2 4413.3 16319.6 Q 4685.6 15767.3 4743 15122.6  Z M 12786 14921.7 Q 13703 15380.2 14298 15868.1 Q 14893 16355.3 15215.7 16799.8 Q 15538.4 17244.3 15645.5 17609.7 Q 15753.3 17975.1 15702.9 18204.7 Q 15653.2 18434.3 15488 18498.7 Q 15322.8 18563.1 15093.9 18405.6 Q 14979.1 17846.3 14570.3 17222.6 Q 14162.2 16598.9 13638.6 16025.6 Q 13115.7 15452.3 12613.8 15050.5 L 12786 14921.7 Z M 23136.2 13373.3 Q 23050.1 13660.3 22914.3 14083.1 Q 22777.8 14505.9 22634.3 14921.7 Q 22490.8 15337.5 22362 15638.5 L 22505.5 15638.5 L 22104.4 15982.9 L 21344.2 15265.4 Q 21501.7 15194 21724.3 15115.6 Q 21946.2 15036.5 22118.4 15007.8 L 21788.7 15481 Q 21903.5 15194 22039.3 14799.9 Q 22175.8 14405.8 22297.6 14011 Q 22419.4 13616.9 22476.8 13373.3 L 23136.2 13373.3 Z M 28025 12470.3 Q 28025 12470.3 28132.1 12556.4 Q 28239.9 12642.5 28412.1 12778.3 Q 28583.6 12914.8 28770.5 13072.3 Q 28956.7 13229.8 29114.2 13387.3 Q 29056.8 13616.9 28741.8 13616.9 L 21057.2 13616.9 L 21057.2 13187.1 L 27423 13187.1 L 28025 12470.3 Z M 29200.3 7739 Q 29100.2 7839.8 28970.7 7846.8 Q 28841.9 7853.8 28598.3 7753.7 Q 27752.7 8857.6 26541 9954.5 Q 25330 11050.7 23839 12061.5 Q 22348 13072.3 20620.4 13910.9 Q 18892.8 14750.2 17014.7 15352.2 L 16899.9 15122.6 Q 18691.9 14463.2 20362.1 13560.2 Q 22032.3 12656.5 23509.3 11596 Q 24985.6 10534.8 26182.6 9366.5 Q 27379.6 8198.2 28211.2 7008.2 L 29200.3 7739 Z M 27164.7 15208.7 L 27594.5 14749.5 L 28498.2 15495.7 Q 28426.1 15567.1 28282.6 15616.8 Q 28139.8 15667.2 27910.2 15681.2 Q 27810.1 16498.8 27609.2 17222.6 Q 27408.3 17946.4 27136 18470 Q 26863.7 18992.9 26562.7 19222.5 Q 26290.4 19408.7 25903.3 19509.5 Q 25516.2 19609.6 25100.4 19609.6 Q 25100.4 19480.8 25043 19344.3 Q 24985.6 19208.5 24828.1 19107.7 Q 24669.9 19021.6 24233.1 18935.5 Q 23795.6 18850.1 23337.1 18792.7 L 23351.1 18534.4 Q 23680.8 18563.1 24147 18605.8 Q 24613.2 18649.2 25028.3 18677.9 Q 25444.1 18706.6 25616.3 18706.6 Q 25831.2 18706.6 25960.7 18677.9 Q 26089.5 18649.2 26218.3 18548.4 Q 26433.2 18390.9 26648.8 17910.7 Q 26863.7 17430.5 27042.9 16728.4 Q 27222.1 16025.6 27322.2 15208.7 L 27164.7 15208.7 Z M 27709.3 15208 L 27709.3 15639.2 L 22061 15639.2 L 22175.8 15208 L 27709.3 15208 Z M 23279.7 6735.9 Q 23265 6878.7 23157.9 6972.5 Q 23050.1 7065.6 22806.5 7094.3 L 22806.5 11366.4 L 22175.8 11366.4 L 22175.8 6606.4 L 23279.7 6735.9 Z M 25401.4 7953.9 Q 25401.4 7953.9 25580.6 8097.4 Q 25759.8 8240.9 26003.4 8448.8 Q 26247 8656.7 26433.2 8857.6 Q 26390.5 9086.5 26074.8 9086.5 L 18520.4 9086.5 L 18405.6 8656.7 L 24842.1 8656.7 L 25401.4 7953.9 Z M 29085.5 10291.2 Q 29085.5 10291.2 29193.3 10377.3 Q 29300.4 10463.4 29458.6 10592.2 Q 29616.1 10721 29795.3 10879.2 Q 29974.5 11036.7 30118 11194.2 Q 30074.6 11423.8 29759.6 11423.8 L 17200.9 11423.8 L 17072.1 10994 L 28540.9 10994 L 29085.5 10291.2 Z M 33845.5 17989.8 Q 33529.8 17989.8 33321.9 17774.9 Q 33114 17560 33114 17287 Q 33114 16972 33321.9 16771.1 Q 33529.8 16570.2 33845.5 16570.2 Q 34175.2 16570.2 34375.4 16771.1 Q 34576.3 16972 34576.3 17287 Q 34576.3 17560 34375.4 17774.9 Q 34175.2 17989.8 33845.5 17989.8  Z M 33845.5 12140.6 Q 33529.8 12140.6 33321.9 11925.7 Q 33114 11710.8 33114 11437.8 Q 33114 11122.8 33321.9 10921.9 Q 33529.8 10721 33845.5 10721 Q 34175.2 10721 34375.4 10921.9 Q 34576.3 11122.8 34576.3 11437.8 Q 34576.3 11710.8 34375.4 11925.7 Q 34175.2 12140.6 33845.5 12140.6  Z M 50073.6 11997.1 Q 50747.7 12484.3 51170.5 12950.5 Q 51593.3 13416.7 51808.2 13832.5 Q 52023.1 14247.6 52066.5 14570.3 Q 52109.2 14893 52037.8 15093.9 Q 51965.7 15294.8 51815.2 15330.5 Q 51664.7 15366.2 51478.5 15208.7 Q 51435.8 14706.8 51184.5 14140.5 Q 50933.9 13574.2 50575.5 13036.6 Q 50217.1 12499 49872.7 12111.9 L 50073.6 11997.1 Z M 56997.3 10392 L 56868.5 10392 L 57241.6 9904.1 L 58273.4 10678.3 Q 58202 10749.7 58022.8 10835.8 Q 57843.6 10921.9 57642.7 10950.6 L 57642.7 18491 Q 57642.7 18778 57556.6 19006.9 Q 57470.5 19236.5 57177.2 19394 Q 56883.2 19552.2 56252.5 19609.6 Q 56209.1 19466.1 56130.7 19344.3 Q 56051.6 19222.5 55908.1 19150.4 Q 55707.2 19064.3 55348.8 18985.9 Q 54991.1 18906.8 54445.8 18878.1 L 54445.8 18634.5 Q 54445.8 18634.5 54718.1 18656.2 Q 54991.1 18677.2 55377.5 18698.9 Q 55764.6 18720.6 56109 18742.3 Q 56452.7 18763.3 56596.2 18763.3 Q 56839.8 18763.3 56918.9 18684.9 Q 56997.3 18605.8 56997.3 18419.6 L 56997.3 10392 Z M 46675.8 10392 L 46675.8 10004.9 L 46675.8 10004.9 L 47407.3 10391.3 L 57341.7 10391.3 L 57341.7 10807.1 L 47321.2 10807.1 L 47321.2 19351.3 Q 47321.2 19394 47249.1 19451.4 Q 47177.7 19508.8 47062.9 19559.2 Q 46948.1 19609.6 46790.6 19609.6 L 46675.8 19609.6 L 46675.8 10392 Z M 45729.4 7638.9 L 56925.9 7638.9 L 57571.3 6864.7 Q 57571.3 6864.7 57685.4 6957.8 Q 57800.2 7050.9 57987.1 7194.4 Q 58173.3 7337.9 58366.5 7510.1 Q 58560.4 7681.6 58732.6 7839.8 Q 58689.2 8068.7 58359.5 8068.7 L 45858.9 8068.7 L 45729.4 7638.9 Z M 53686.3 12083.2 Q 54531.9 12642.5 55077.2 13187.1 Q 55621.8 13731.7 55922.8 14211.9 Q 56223.8 14692.1 56316.9 15065.2 Q 56410 15437.6 56359.6 15674.2 Q 56309.9 15910.8 56159.4 15968.2 Q 56008.9 16025.6 55808 15868.1 Q 55707.9 15280.1 55320.8 14606 Q 54933.7 13932.6 54438.8 13294.9 Q 53944.6 12656.5 53485.4 12212 L 53686.3 12083.2 Z M 49830 7839.8 L 50460.7 7839.8 L 50460.7 10075.6 Q 50460.7 10864.5 50381.6 11774.5 Q 50303.2 12685.2 50066.6 13630.9 Q 49830 14577.3 49335.1 15480.3 Q 48840.9 16384 47994.6 17158.2 L 47779.7 16986 Q 48697.4 15867.4 49134.9 14670.4 Q 49571.7 13473.4 49701.2 12291.1 Q 49830 11108.1 49830 10075.6 L 49830 7839.8 Z M 53370.6 7939.9 L 54016 7939.9 L 54016 10477.4 Q 54016 11265.6 53936.9 12154.6 Q 53858.5 13043.6 53614.9 13953.6 Q 53370.6 14864.3 52876.4 15724.6 Q 52381.5 16584.2 51535.9 17315.7 L 51321 17129.5 Q 52238 16097 52675.5 14957.4 Q 53113 13817.8 53241.8 12678.2 Q 53370.6 11537.9 53370.6 10491.4 L 53370.6 7939.9 Z M 65972 18333.5 L 72208.3 18333.5 L 72208.3 18764 L 65972 18764 L 65972 18333.5 Z M 65599.6 13689 L 65599.6 13315.9 L 66416.5 13689 L 71878.6 13689 L 72222.3 13258.5 L 73111.3 13932.6 Q 73053.9 14018.7 72925.1 14076.1 Q 72796.3 14133.5 72580.7 14162.2 L 72580.7 19251.2 Q 72580.7 19308.6 72401.5 19408.7 Q 72222.3 19509.5 72022.1 19509.5 L 71921.3 19509.5 L 71921.3 14118.8 L 66244.3 14118.8 L 66244.3 19351.3 Q 66244.3 19394.7 66086.8 19494.8 Q 65929.3 19595.6 65685 19595.6 L 65599.6 19595.6 L 65599.6 13689 Z M 66359.1 9273.4 L 66359.1 8901 L 67176 9273.4 L 71090.4 9273.4 L 71434.1 8843.6 L 72279.7 9503 Q 72222.3 9574.4 72108.2 9631.8 Q 71993.4 9689.2 71792.5 9717.9 L 71792.5 12613.8 Q 71792.5 12656.5 71613.3 12757.3 Q 71434.1 12857.4 71233.2 12857.4 L 71133.1 12857.4 L 71133.1 9689.2 L 67004.5 9689.2 L 67004.5 12757.3 Q 67004.5 12800 66853.3 12900.1 Q 66702.8 13000.9 66459.2 13000.9 L 66359.1 13000.9 L 66359.1 9273.4 Z M 65958 15968.2 L 72208.3 15968.2 L 72208.3 16384 L 65958 16384 L 65958 15968.2 Z M 66660.1 11782.2 L 71491.5 11782.2 L 71491.5 12212 L 66660.1 12212 L 66660.1 11782.2 Z M 65341.3 7538.8 L 71448.8 7538.8 L 72036.1 6808 Q 72036.1 6808 72143.9 6893.4 Q 72251 6979.5 72423.2 7123 Q 72595.4 7266.5 72781.6 7424 Q 72967.8 7581.5 73126 7725 Q 73068.6 7954.6 72752.9 7954.6 L 65456.1 7954.6 L 65341.3 7538.8 Z M 68753.1 13689 L 69383.8 13689 L 69383.8 18620.5 L 68753.1 18620.5 L 68753.1 13689 Z M 60538.6 9015.8 L 60538.6 8642.7 L 60538.6 8642.7 L 61241.4 9015.1 L 64452.3 9015.1 L 64452.3 9445.6 L 61169.3 9445.6 L 61169.3 16455.4 Q 61169.3 16484.1 61097.9 16549.2 Q 61025.8 16613.6 60911.7 16656.3 Q 60796.9 16699.7 60653.4 16699.7 L 60538.6 16699.7 L 60538.6 9015.8 Z M 64065.2 9015.8 L 63921.7 9015.8 L 64294.8 8542.6 L 65326.6 9302.1 Q 65255.2 9388.2 65083 9459.6 Q 64910.8 9531.7 64695.9 9574.4 L 64695.9 15423.6 Q 64695.9 15724.6 64645.5 15932.5 Q 64595.8 16140.4 64423.6 16262.2 Q 64251.4 16384 63864.3 16426.7 Q 63850.3 16312.6 63821.6 16183.1 Q 63792.9 16054.3 63721.5 15968.2 Q 63635.4 15896.8 63498.9 15839.4 Q 63363.1 15782 63133.5 15753.3 L 63133.5 15509.7 Q 63133.5 15509.7 63291 15523.7 Q 63449.2 15538.4 63627.7 15552.4 Q 63806.9 15567.1 63879 15567.1 Q 64065.2 15567.1 64065.2 15337.5 L 64065.2 9015.8 Z M 62244.5 9216 L 62244.5 6635.8 L 63391.8 6750.6 Q 63377.1 6893.4 63262.3 7001.2 Q 63147.5 7109 62875.2 7151.7 L 62875.2 9216 L 62803.8 9216 L 62803.8 9244.7 L 62875.2 9244.7 L 62875.2 19308.6 Q 62875.2 19337.3 62803.8 19401.7 Q 62732.4 19466.1 62610.6 19516.5 Q 62488.1 19566.9 62330.6 19566.9 L 62244.5 19566.9 L 62244.5 9244.7 L 62316.6 9244.7 L 62316.6 9216 L 62244.5 9216 Z M 75835 10921.9 L 75978.5 11008 L 75978.5 18749.3 L 76107.3 18749.3 L 75763.6 19165.1 L 74831.9 18534.4 Q 74946.7 18448.3 75154.6 18348.2 Q 75362.5 18247.4 75534 18204.7 L 75347.8 18691.9 L 75347.8 10921.9 L 75835 10921.9 Z M 76523.1 10348.6 Q 76509.1 10506.1 76372.6 10606.9 Q 76236.8 10707 75978.5 10749.7 L 75978.5 11294.3 L 75347.8 11294.3 L 75347.8 10448.7 L 75347.8 10205.1 L 76523.1 10348.6 Z M 83777.2 15910.8 L 83777.2 16340.6 L 78014.1 16340.6 L 78014.1 15910.8 L 83777.2 15910.8 Z M 83777.2 12642.5 L 83777.2 13072.3 L 78014.1 13072.3 L 78014.1 12642.5 L 83777.2 12642.5 Z M 83304 9646.5 L 83734.5 9173.3 L 84708.9 9932.8 Q 84637.5 10018.9 84465.3 10090.3 Q 84293.1 10162.4 84078.2 10205.1 L 84078.2 16685 Q 84078.2 16727.7 83985.1 16785.1 Q 83892 16842.5 83770.2 16892.9 Q 83648.4 16943.3 83533.6 16943.3 L 83447.5 16943.3 L 83447.5 9646.5 L 83304 9646.5 Z M 78315.1 16914.6 Q 78315.1 16943.3 78250.7 17000 Q 78186.3 17057.4 78071.5 17100.8 Q 77956.7 17143.5 77813.2 17143.5 L 77698.4 17143.5 L 77698.4 9646.5 L 77698.4 9273.4 L 77698.4 9273.4 L 78401.2 9645.8 L 83834.6 9645.8 L 83834.6 10076.3 L 78315.1 10076.3 L 78315.1 16914.6 Z M 86931.4 10319.9 Q 86902.7 10463.4 86787.9 10563.5 Q 86673.1 10663.6 86400.8 10692.3 L 86400.8 19279.9 Q 86400.8 19337.3 86329.4 19401.7 Q 86257.3 19466.1 86142.5 19508.8 Q 86028.4 19552.2 85898.9 19552.2 L 85770.1 19552.2 L 85770.1 10176.4 L 86931.4 10319.9 Z M 81197 9861.4 L 81197 16169.1 L 80566.3 16169.1 L 80566.3 9861.4 L 81197 9861.4 Z M 86099.8 18333.5 L 86099.8 18763.3 L 75677.5 18763.3 L 75677.5 18333.5 L 86099.8 18333.5 Z M 86358.1 6936.8 Q 86358.1 6936.8 86479.9 7029.9 Q 86601.7 7123 86780.9 7266.5 Q 86960.1 7410 87161 7581.5 Q 87361.2 7753.7 87533.4 7911.2 Q 87504.7 8026 87404.6 8083.4 Q 87303.8 8140.8 87160.3 8140.8 L 74530.9 8140.8 L 74402.1 7711 L 85727.4 7711 L 86358.1 6936.8 Z M 92422.2 12542.4 Q 92364.8 12728.6 91991.7 12800 L 91991.7 19337.3 Q 91991.7 19366 91913.3 19430.4 Q 91834.2 19494.8 91719.4 19545.2 Q 91604.6 19594.9 91475.8 19594.9 L 91361 19594.9 L 91361 12699.9 L 91705.4 12255.4 L 92422.2 12542.4 Z M 97625.3 10506.1 Q 97611.3 10649.6 97511.2 10742.7 Q 97410.4 10835.8 97166.8 10864.5 L 97166.8 18720.6 L 96536.1 18720.6 L 96536.1 10377.3 L 97625.3 10506.1 Z M 95432.2 6936.8 Q 95374.8 7065.6 95253 7123 Q 95131.2 7180.4 94844.2 7165.7 Q 94500.5 8212.2 93955.9 9323.8 Q 93411.3 10434.7 92665.8 11509.9 Q 91920.3 12585.1 90959.9 13538.5 Q 89998.8 14491.9 88794.8 15222.7 L 88622.6 15036.5 Q 89712.5 14262.3 90608.5 13273.2 Q 91504.5 12284.1 92206.6 11165.5 Q 92909.4 10047.6 93418.3 8879.3 Q 93927.2 7711 94228.2 6578.4 L 95432.2 6936.8 Z M 100636 17716.8 Q 100636 17716.8 100743.8 17802.9 Q 100850.9 17889 101023.1 18025.5 Q 101195.3 18161.3 101381.5 18319.5 Q 101567.7 18477 101725.9 18634.5 Q 101668.5 18864.1 101367.5 18864.1 L 92608.4 18864.1 L 92493.6 18433.6 L 100062.7 18433.6 L 100636 17716.8 Z M 99661.6 12958.2 Q 99661.6 12958.2 99768.7 13043.6 Q 99876.5 13129.7 100041 13259.2 Q 100206.2 13388 100385.4 13545.5 Q 100564.6 13703.7 100708.1 13846.5 Q 100679.4 13961.3 100593.3 14018.7 Q 100507.2 14076.1 100349.7 14076.1 L 93511.4 14076.1 L 93396.6 13646.3 L 99102.3 13646.3 L 99661.6 12958.2 Z M 100392.4 8556.6 Q 100392.4 8556.6 100500.2 8642.7 Q 100607.3 8728.8 100772.5 8864.6 Q 100937 9001.1 101123.9 9158.6 Q 101310.1 9316.1 101467.6 9474.3 Q 101424.9 9703.2 101095.2 9703.2 L 89196.6 9703.2 L 89067.1 9273.4 L 99804.4 9273.4 L 100392.4 8556.6 Z M 109381.1 9804 L 114427.4 9804 L 115015.4 9087.2 Q 115015.4 9087.2 115201.6 9230 Q 115388.5 9373.5 115639.1 9588.4 Q 115889.7 9804 116105.3 10004.2 Q 116047.9 10233.8 115732.2 10233.8 L 109495.9 10233.8 L 109381.1 9804 Z M 113022.5 6592.4 L 114198.5 6721.2 Q 114169.8 6879.4 114055 6979.5 Q 113940.2 7079.6 113667.9 7108.3 L 113667.9 18419.6 Q 113667.9 18706.6 113581.8 18943.2 Q 113495.7 19179.1 113216.4 19337.3 Q 112937.1 19494.8 112334.4 19552.2 Q 112291.7 19408.7 112220.3 19293.9 Q 112148.2 19179.1 111990.7 19107.7 Q 111804.5 19021.6 111474.8 18957.2 Q 111145.1 18892.8 110599.8 18835.4 L 110599.8 18605.8 Q 110599.8 18605.8 110858.1 18627.5 Q 111116.4 18649.2 111481.8 18670.2 Q 111847.2 18691.9 112169.9 18713.6 Q 112492.6 18735.3 112606.7 18735.3 Q 112851 18735.3 112937.1 18649.2 Q 113022.5 18563.1 113022.5 18362.2 L 113022.5 6592.4 Z M 112879.7 9804 L 113610.5 9804 L 113610.5 10032.9 Q 112822.3 12212 111388.7 14111.8 Q 109955.1 16010.9 107976.2 17373.1 L 107776 17158.2 Q 108966 16211.8 109947.4 15021.8 Q 110929.5 13831.8 111675 12499 Q 112420.5 11165.5 112879.7 9804  Z M 103174.2 9818 L 107575.1 9818 L 108148.4 9101.2 Q 108148.4 9101.2 108334.6 9244.7 Q 108521.5 9388.2 108779.1 9603.1 Q 109037.4 9818 109238.3 10018.9 Q 109180.9 10247.8 108865.2 10247.8 L 103288.3 10247.8 L 103174.2 9818 Z M 105725.7 9818 L 106442.5 9818 L 106442.5 10047.6 Q 105998 11939.7 105166.4 13631.6 Q 104335.5 15322.8 103059.4 16670.3 L 102858.5 16470.1 Q 103561.3 15552.4 104112.9 14470.2 Q 104665.2 13388 105073.3 12205 Q 105482.1 11022 105725.7 9818  Z M 105854.5 6578.4 L 107001.8 6707.2 Q 106973.1 6864.7 106865.3 6965.5 Q 106758.2 7065.6 106499.9 7108.3 L 106499.9 19322.6 Q 106499.9 19380 106420.8 19444.4 Q 106342.4 19508.8 106227.6 19559.2 Q 106112.8 19609.6 105998 19609.6 L 105854.5 19609.6 L 105854.5 6578.4 Z M 106499.9 11796.2 Q 107231.4 12125.9 107696.9 12470.3 Q 108163.1 12814 108406.7 13144.4 Q 108650.3 13474.1 108714.7 13746.4 Q 108779.8 14018.7 108714.7 14190.9 Q 108650.3 14362.4 108485.8 14398.8 Q 108320.6 14434.5 108120.4 14305 Q 107990.9 13932.6 107689.9 13488.1 Q 107388.9 13043.6 107023.5 12627.8 Q 106658.1 12212 106328.4 11911 L 106499.9 11796.2 Z M 125839.5 13574.2 Q 125796.1 13688.3 125667.3 13774.4 Q 125538.5 13860.5 125294.9 13846.5 Q 125222.8 14663.4 125087 15366.2 Q 124950.5 16068.3 124635.5 16670.3 Q 124319.8 17272.3 123703.1 17788.9 Q 123087.1 18304.8 122054.6 18742.3 Q 121022.8 19179.1 119445.7 19537.5 L 119316.2 19251.2 Q 120764.5 18849.4 121710.9 18404.9 Q 122656.6 17960.4 123230.6 17437.5 Q 123803.9 16913.9 124097.9 16283.2 Q 124391.2 15652.5 124499 14893 Q 124606.8 14132.8 124635.5 13215.8 L 125839.5 13574.2 Z M 125208.8 16570.2 Q 126484.2 16914.6 127366.2 17287 Q 128247.5 17660.1 128799.8 18018.5 Q 129351.4 18376.9 129631.4 18684.9 Q 129910.7 18992.9 129961.1 19215.5 Q 130010.8 19437.4 129882 19523.5 Q 129753.2 19609.6 129509.6 19538.2 Q 129193.9 19193.8 128671 18813.7 Q 128147.4 18434.3 127523.7 18047.2 Q 126900 17660.1 126262.3 17330.4 Q 125624.6 17000.7 125079.3 16771.1 L 125208.8 16570.2 Z M 121767.6 17072.1 Q 121767.6 17100.8 121689.2 17150.5 Q 121610.1 17200.9 121495.3 17243.6 Q 121380.5 17287 121251.7 17287 L 121136.9 17287 L 121136.9 12184 L 121136.9 11810.9 L 121136.9 11810.9 L 121839.7 12183.3 L 128363 12183.3 L 128363 12613.1 L 121767.6 12613.1 L 121767.6 17072.1 Z M 127989.9 12184 L 128420.4 11710.8 L 129394.8 12470.3 Q 129323.4 12555.7 129151.2 12627.8 Q 128979 12699.2 128764.1 12742.6 L 128764.1 16913.9 Q 128764.1 16957.3 128671 17021.7 Q 128577.9 17086.1 128456.1 17136.5 Q 128334.3 17186.9 128219.5 17186.9 L 128133.4 17186.9 L 128133.4 12184 L 127989.9 12184 Z M 125824.8 8240.9 Q 125796.1 8384.4 125682 8477.5 Q 125567.2 8570.6 125352.3 8585.3 Q 125280.2 9187.3 125187.1 9897.1 Q 125094 10606.2 125000.9 11280.3 Q 124907.8 11953.7 124821.7 12455.6 L 124305.1 12455.6 Q 124362.5 11939.7 124427.6 11194.2 Q 124492 10448.7 124549.4 9631.8 Q 124606.8 8814.2 124634.8 8112.1 L 125824.8 8240.9 Z M 129093.8 9158.6 Q 129093.8 9158.6 129201.6 9244.7 Q 129308.7 9330.8 129480.9 9466.6 Q 129653.1 9603.1 129839.3 9760.6 Q 130025.5 9918.1 130183.7 10076.3 Q 130126.3 10305.2 129810.6 10305.2 L 119359.6 10305.2 L 119359.6 9875.4 L 128505.8 9875.4 L 129093.8 9158.6 Z M 129409.5 7295.2 Q 129323.4 7380.6 129158.2 7366.6 Q 128993.7 7351.9 128764.1 7251.8 Q 127846.4 7395.3 126750.2 7538.8 Q 125653.3 7681.6 124456.3 7796.4 Q 123259.3 7911.2 122025.9 7997.3 Q 120793.2 8083.4 119589.2 8126.1 L 119545.8 7825.1 Q 120707.1 7753.7 121976.2 7617.2 Q 123244.6 7481.4 124477.3 7302.2 Q 125710.7 7123 126792.9 6929.1 Q 127875.1 6735.9 128664 6549.7 L 129409.5 7295.2 Z M 120019 7939.9 Q 119961.6 8040 119732 8068.7 L 119732 11423.8 Q 119732 12355.5 119667.6 13416 Q 119603.2 14477.2 119388.3 15574.1 Q 119173.4 16670.3 118721.9 17716.8 Q 118269.7 18763.3 117496.2 19667 L 117251.9 19508.8 Q 118069.5 18290.8 118463.6 16950.3 Q 118857.7 15609.8 118979.5 14204.9 Q 119101.3 12800 119101.3 11437.8 L 119101.3 7596.2 L 120019 7939.9 Z M 134684.7 19609.6 Q 134498.5 19609.6 134369 19466.1 Q 134240.2 19322.6 134082.7 19007.6 Q 133853.1 18505.7 133530.4 18061.2 Q 133208.4 17616.7 132756.2 17193.9 Q 132304.7 16771.1 131660 16355.3 L 131846.2 16097 Q 133078.9 16556.2 133753 17093.8 Q 134426.4 17631.4 134770.8 18118.6 Q 134971.7 18390.9 135050.1 18613.5 Q 135129.2 18835.4 135129.2 19079 Q 135129.2 19351.3 135007.4 19480.8 Q 134885.6 19609.6 134684.7 19609.6  Z M 153909.5 8155.5 L 153737.3 8155.5 L 154239.2 7653.6 L 155142.2 8527.9 Q 155013.4 8614 154568.9 8642 Q 154325.3 8957.7 153987.9 9373.5 Q 153651.2 9789.3 153278.1 10198.1 Q 152905.7 10606.2 152547.3 10893.2 L 152260.3 10893.2 Q 152561.3 10534.8 152877 10025.9 Q 153192.7 9517 153472 9008.1 Q 153751.3 8499.2 153909.5 8155.5  Z M 149751.5 8154.8 L 154239.2 8154.8 L 154239.2 8570.6 L 149493.9 8570.6 L 149751.5 8154.8 Z M 152160.2 10778.4 L 152790.9 10778.4 L 152790.9 14520.6 L 152160.2 14520.6 L 152160.2 10778.4 Z M 147916.8 17200.9 L 148562.2 17200.9 L 148562.2 17932.4 Q 148562.2 18376.9 148963.3 18498.7 Q 149364.4 18620.5 150053.2 18620.5 L 156102.6 18620.5 Q 156876.8 18620.5 157228.2 18541.4 Q 157579.6 18463 157722.4 18162 Q 157808.5 17989.8 157916.3 17624.4 Q 158023.4 17258.3 158117.2 16821.5 Q 158210.3 16384 158253 16039.6 L 158453.9 16039.6 L 158467.9 18333.5 Q 158768.9 18405.6 158883.7 18455.3 Q 158998.5 18505.7 158998.5 18620.5 Q 158998.5 18792.7 158761.9 18921.5 Q 158525.3 19050.3 157909.3 19129.4 Q 157292.6 19208.5 156160 19208.5 L 150138.6 19208.5 Q 149421.8 19208.5 148927.6 19093.7 Q 148432.7 18978.9 148175.1 18699.6 Q 147916.8 18419.6 147916.8 17917.7 L 147916.8 17200.9 Z M 156518.4 10778.4 L 156374.9 10778.4 L 156805.4 10319.9 L 157779.8 11065.4 Q 157708.4 11151.5 157536.2 11229.9 Q 157364 11309 157163.8 11351.7 L 157163.8 15394.9 Q 157163.8 15437.6 157063 15495 Q 156962.9 15552.4 156841.1 15602.8 Q 156719.3 15653.2 156604.5 15653.2 L 156518.4 15653.2 L 156518.4 10778.4 Z M 148203.8 10778.4 L 157005.6 10778.4 L 157005.6 11208.9 L 148203.8 11208.9 L 148203.8 10778.4 Z M 148203.8 14262.3 L 157005.6 14262.3 L 157005.6 14692.1 L 148203.8 14692.1 L 148203.8 14262.3 Z M 150182 6492.3 L 151328.6 6808 Q 151285.9 6922.8 151171.1 6965.5 Q 151056.3 7008.2 150784 6994.2 Q 150310.8 7969.3 149580 9022.8 Q 148848.5 10076.3 147945.5 11022.7 Q 147042.5 11968.4 146053.4 12627.8 L 145866.5 12426.9 Q 146540.6 11911 147178.3 11215.9 Q 147816.7 10520.8 148383 9724.9 Q 148948.6 8929.7 149407.8 8105.1 Q 149866.3 7281.2 150182 6492.3  Z M 148562.2 10778.4 L 148562.2 17430.5 Q 148562.2 17430.5 148411.7 17430.5 Q 148261.2 17430.5 148016.9 17430.5 L 147916.8 17430.5 L 147916.8 10663.6 L 148045.6 10463.4 L 148733.7 10778.4 L 148562.2 10778.4 Z M 160503.5 13273.2 L 166352.7 13273.2 L 166912 12570.4 Q 166912 12570.4 167091.2 12713.9 Q 167270.4 12857.4 167514 13065.3 Q 167757.6 13273.2 167943.8 13459.4 Q 167901.1 13689 167600.1 13689 L 160618.3 13689 L 160503.5 13273.2 Z M 163872.6 11423.8 L 165019.2 11552.6 Q 165005.2 11710.8 164890.4 11810.9 Q 164775.6 11911 164503.3 11954.4 L 164503.3 19308.6 Q 164503.3 19366 164424.2 19430.4 Q 164345.8 19494.8 164238 19538.2 Q 164130.9 19580.9 164016.1 19580.9 L 163872.6 19580.9 L 163872.6 11423.8 Z M 163657.7 13273.2 L 164417.2 13273.2 L 164417.2 13488.1 Q 163843.9 15051.2 162840.1 16377 Q 161837 17702.8 160432.1 18706.6 L 160259.9 18477 Q 161048.8 17774.9 161700.5 16936.3 Q 162352.9 16097.7 162847.8 15165.3 Q 163342 14233.6 163657.7 13273.2  Z M 164431.9 14678.1 Q 165320.2 14879 165908.2 15158.3 Q 166496.2 15437.6 166847.6 15739.3 Q 167198.3 16040.3 167341.8 16319.6 Q 167485.3 16598.9 167463.6 16799.8 Q 167442.6 17000.7 167299.1 17072.1 Q 167155.6 17144.2 166926 17043.4 Q 166739.8 16642.3 166295.3 16219.5 Q 165850.8 15796 165320.2 15430.6 Q 164790.3 15065.2 164302.4 14850.3 L 164431.9 14678.1 Z M 161005.4 9029.8 Q 161536 9344.8 161851 9682.2 Q 162166.7 10018.9 162310.2 10326.9 Q 162453.7 10635.6 162460.7 10886.2 Q 162467.7 11136.8 162374.6 11288 Q 162281.5 11438.5 162131 11452.5 Q 161980.5 11467.2 161808.3 11323.7 Q 161808.3 10950.6 161650.8 10549.5 Q 161492.6 10147.7 161270.7 9775.3 Q 161048.8 9402.2 160819.2 9129.9 L 161005.4 9029.8 Z M 163328 8556.6 Q 163843.9 8915 164144.9 9273.4 Q 164445.9 9631.8 164575.4 9954.5 Q 164704.2 10277.2 164697.2 10534.8 Q 164689.5 10793.1 164589.4 10943.6 Q 164489.3 11094.1 164338.8 11108.8 Q 164188.3 11122.8 164016.1 10965.3 Q 164001.4 10406 163729.1 9746.6 Q 163456.8 9087.2 163141.8 8642.7 L 163328 8556.6 Z M 166797.2 6750.6 L 167686.2 7552.8 Q 167600.1 7624.9 167434.9 7624.9 Q 167270.4 7624.9 167026.8 7538.8 Q 166237.9 7768.4 165184.4 7990.3 Q 164130.9 8212.9 162962.6 8370.4 Q 161793.6 8527.9 160633 8585.3 L 160575.6 8327 Q 161421.2 8212.9 162295.5 8047.7 Q 163170.5 7883.2 164009.1 7667.6 Q 164847.7 7452.7 165564.5 7216.1 Q 166281.3 6979.5 166797.2 6750.6  Z M 167040.8 8485.2 L 168130.7 8986.4 Q 168073.3 9087.2 167943.8 9151.6 Q 167815 9216 167614.1 9187.3 Q 167213 9890.1 166718.1 10585.2 Q 166223.9 11280.3 165722 11753.5 L 165507.1 11610 Q 165879.5 11036.7 166302.3 10191.1 Q 166725.8 9344.8 167040.8 8485.2  Z M 172073.1 6764.6 L 173090.9 7366.6 Q 173018.8 7467.4 172904 7496.1 Q 172789.9 7524.8 172560.3 7467.4 Q 171657.3 8384.4 170438.6 9230.7 Q 169219.9 10076.3 167901.1 10664.3 L 167743.6 10420 Q 168932.9 9731.9 170080.2 8786.2 Q 171226.8 7839.8 172073.1 6764.6  Z M 172259.3 10434.7 L 173277.1 10994 Q 173219.7 11094.1 173104.9 11122.8 Q 172990.1 11151.5 172746.5 11108.8 Q 171800.1 12198 170524.7 13108 Q 169248.6 14018.7 167815 14649.4 L 167642.8 14377.1 Q 168961.6 13660.3 170166.3 12656.5 Q 171370.3 11653.4 172259.3 10434.7  Z M 172531.6 14391.1 L 173578.1 14950.4 Q 173520.7 15051.2 173398.9 15086.9 Q 173277.1 15122.6 173033.5 15079.2 Q 171857.5 16699.7 170281.1 17788.9 Q 168704 18878.8 166739.8 19580.9 L 166611 19308.6 Q 168417 18505.7 169915 17337.4 Q 171413 16169.1 172531.6 14391.1  Z M 177692.7 19609.6 Q 177506.5 19609.6 177377 19466.1 Q 177248.2 19322.6 177090.7 19007.6 Q 176861.1 18505.7 176538.4 18061.2 Q 176216.4 17616.7 175764.2 17193.9 Q 175312.7 16771.1 174668 16355.3 L 174854.2 16097 Q 176086.9 16556.2 176761 17093.8 Q 177434.4 17631.4 177778.8 18118.6 Q 177979.7 18390.9 178058.1 18613.5 Q 178137.2 18835.4 178137.2 19079 Q 178137.2 19351.3 178015.4 19480.8 Q 177893.6 19609.6 177692.7 19609.6  Z M 197891.9 11151.5 Q 197834.5 11294.3 197633.6 11373.4 Q 197433.4 11452.5 197089 11323 L 197447.4 11194.2 Q 197261.2 11696.1 196967.2 12326.8 Q 196673.2 12957.5 196314.8 13616.9 Q 195956.4 14276.3 195569.3 14893 Q 195182.2 15509.7 194809.8 16011.6 L 194766.4 15868.1 L 195239.6 15868.1 Q 195182.2 16211.8 195053.4 16426.7 Q 194924.6 16642.3 194781.1 16699.7 L 194322.6 15709.9 Q 194322.6 15709.9 194444.4 15674.2 Q 194566.2 15638.5 194623.6 15581.1 Q 194924.6 15151.3 195247.3 14512.9 Q 195569.3 13875.2 195863.3 13172.4 Q 196157.3 12470.3 196400.9 11810.9 Q 196644.5 11151.5 196774 10663.6 L 197891.9 11151.5 Z M 194522.8 15796 Q 194982 15782 195727.5 15724.6 Q 196473 15667.2 197397 15581.1 Q 198321.7 15495 199282.8 15394.9 L 199311.5 15653.2 Q 198566 15796 197354.3 16025.6 Q 196142.6 16255.2 194809.8 16441.4 L 194522.8 15796 Z M 197978 13258.5 Q 198608.7 13846.5 198988.8 14384.1 Q 199368.2 14921.7 199555.1 15387.9 Q 199741.3 15853.4 199777 16204.8 Q 199812.7 16556.2 199734.3 16764.1 Q 199655.2 16972 199504.7 17007.7 Q 199354.2 17043.4 199182 16871.2 Q 199153.3 16312.6 198924.4 15674.2 Q 198694.8 15036.5 198379.1 14419.8 Q 198064.1 13803.8 197763.1 13344.6 L 197978 13258.5 Z M 197146.4 6879.4 Q 197117.7 6994.2 196995.9 7087.3 Q 196874.1 7180.4 196630.5 7180.4 Q 196214.7 8657.4 195577 10040.6 Q 194938.6 11423.8 194164.4 12398.2 L 193935.5 12255.4 Q 194351.3 11552.6 194737.7 10635.6 Q 195124.8 9717.9 195440.5 8671.4 Q 195756.2 7624.9 195971.1 6564.4 L 197146.4 6879.4 Z M 200759.1 9044.5 L 201188.9 8542.6 L 202135.3 9316.1 Q 201977.8 9488.3 201533.3 9531 Q 201489.9 11466.5 201418.5 13058.3 Q 201347.1 14649.4 201225.3 15853.4 Q 201102.8 17058.1 200931.3 17839.3 Q 200759.1 18620.5 200515.5 18921.5 Q 200257.2 19265.9 199863.1 19430.4 Q 199469 19595.6 199053.2 19595.6 Q 199053.2 19437.4 199002.8 19294.6 Q 198953.1 19151.1 198809.6 19065 Q 198651.4 18964.9 198250.3 18878.8 Q 197849.2 18792.7 197447.4 18735.3 L 197462.1 18448.3 Q 197777.1 18491.7 198178.9 18527.4 Q 198580 18563.1 198931.4 18591.8 Q 199282.8 18620.5 199440.3 18620.5 Q 199669.9 18620.5 199777 18584.8 Q 199884.8 18549.1 199999.6 18419.6 Q 200285.9 18133.3 200465.1 16899.9 Q 200644.3 15667.2 200759.1 13653.3 Q 200873.9 11639.4 200916.6 9044.5 L 200759.1 9044.5 Z M 201117.5 9043.8 L 201117.5 9473.6 L 195397.8 9473.6 L 195584 9043.8 L 201117.5 9043.8 Z M 192157.5 11624.7 Q 192788.2 11968.4 193168.3 12312.8 Q 193548.4 12656.5 193734.6 12979.2 Q 193920.8 13301.9 193949.5 13552.5 Q 193978.2 13803.8 193892.1 13961.3 Q 193806 14118.8 193648.5 14147.5 Q 193491 14176.2 193304.8 14032.7 Q 193218.7 13660.3 193003.1 13237.5 Q 192788.2 12814 192508.9 12412.9 Q 192229.6 12011.8 191971.3 11724.8 L 192157.5 11624.7 Z M 192659.4 6635.8 Q 192644.7 6793.3 192537.6 6894.1 Q 192429.8 6994.2 192157.5 7037.6 L 192157.5 19308.6 Q 192157.5 19366 192078.4 19437.4 Q 192000 19509.5 191892.2 19559.2 Q 191785.1 19609.6 191670.3 19609.6 L 191526.8 19609.6 L 191526.8 6507 L 192659.4 6635.8 Z M 192071.4 10076.3 Q 191684.3 11897 190946.5 13545.5 Q 190208 15194 189046.7 16512.8 L 188831.8 16312.6 Q 189476.5 15408.9 189971.4 14362.4 Q 190465.6 13315.9 190817 12169.3 Q 191168.4 11022 191383.3 9846.7 L 192071.4 9846.7 L 192071.4 10076.3 Z M 193433.6 9129.9 Q 193433.6 9129.9 193612.8 9273.4 Q 193792 9416.9 194049.6 9631.8 Q 194307.9 9846.7 194508.8 10047.6 Q 194451.4 10276.5 194150.4 10276.5 L 189175.5 10276.5 L 189060.7 9846.7 L 192860.3 9846.7 L 193433.6 9129.9 Z M 205031.2 19308.6 Q 205031.2 19351.3 204966.8 19416.4 Q 204902.4 19480.8 204794.6 19530.5 Q 204687.5 19580.9 204529.3 19580.9 L 204400.5 19580.9 L 204400.5 7338.6 L 204400.5 6936.8 L 204400.5 6936.8 L 205102.6 7337.9 L 215066.4 7337.9 L 215066.4 7768.4 L 205031.2 7768.4 L 205031.2 19308.6 Z M 214621.9 7338.6 L 215052.4 6850.7 L 216041.5 7624.9 Q 215969.4 7725 215790.2 7789.4 Q 215611 7853.8 215396.1 7897.2 L 215396.1 19222.5 Q 215396.1 19251.2 215303 19322.6 Q 215209.9 19394.7 215088.1 19452.1 Q 214966.3 19509.5 214851.5 19509.5 L 214765.4 19509.5 L 214765.4 7338.6 L 214621.9 7338.6 Z M 209346.7 8384.4 Q 209274.6 8585.3 208844.8 8513.9 Q 208586.5 9144.6 208163.7 9832.7 Q 207740.9 10520.8 207181.6 11165.5 Q 206622.3 11810.9 205977.6 12340.8 L 205834.1 12154.6 Q 206393.4 11567.3 206865.9 10857.5 Q 207339.1 10147.7 207705.2 9395.2 Q 208070.6 8642.7 208285.5 7954.6 L 209346.7 8384.4 Z M 208787.4 13946.6 Q 209647.7 13975.3 210235 14097.1 Q 210823 14218.9 211166.7 14391.1 Q 211511.1 14563.3 211668.6 14742.5 Q 211826.8 14921.7 211826.8 15072.2 Q 211826.8 15222.7 211712 15301.8 Q 211597.2 15380.2 211411 15351.5 Q 211081.3 15065.2 210356.8 14727.8 Q 209633 14391.1 208730 14190.2 L 208787.4 13946.6 Z M 207196.3 15681.2 Q 208744.7 15824.7 209798.2 16061.3 Q 210851.7 16297.9 211497.1 16570.2 Q 212141.8 16842.5 212457.5 17100.8 Q 212773.2 17359.1 212822.9 17559.3 Q 212873.3 17760.2 212736.8 17860.3 Q 212601 17961.1 212371.4 17903.7 Q 211941.6 17588 211152.7 17222.6 Q 210364.5 16857.2 209339.7 16512.8 Q 208314.2 16169.1 207138.9 15939.5 L 207196.3 15681.2 Z M 207884.4 9803.3 Q 208443 10793.1 209432.1 11559.6 Q 210421.9 12326.8 211690.3 12850.4 Q 212959.4 13373.3 214349.6 13645.6 L 214335.6 13803.1 Q 214106 13817.8 213940.8 13961.3 Q 213776.3 14104.8 213704.2 14348.4 Q 211668.6 13803.1 210063.5 12713.9 Q 208457.7 11624 207626.1 9961.5 L 207884.4 9803.3 Z M 211940.9 9402.9 L 212486.2 8929.7 L 213331.8 9731.9 Q 213245.7 9818 213109.9 9846.7 Q 212973.4 9875.4 212701.1 9875.4 Q 211654.6 11452.5 209862.6 12706.9 Q 208070.6 13961.3 205676.6 14678.1 L 205533.1 14448.5 Q 206980.7 13917.9 208249.8 13144.4 Q 209518.2 12370.2 210515 11416.8 Q 211511.1 10463.4 212084.4 9402.9 L 211940.9 9402.9 Z M 212342.7 9402.2 L 212342.7 9832 L 207783.6 9832 L 208199.4 9402.2 L 212342.7 9402.2 Z M 215009 18233.4 L 215009 18663.2 L 204730.2 18663.2 L 204730.2 18233.4 L 215009 18233.4 Z M 223524.5 6693.2 L 224671.8 6836.7 Q 224643.1 6979.5 224528.3 7087.3 Q 224413.5 7195.1 224169.9 7237.8 L 224169.9 18634.5 L 223524.5 18634.5 L 223524.5 6693.2 Z M 223840.2 11825.6 L 227840 11825.6 L 228456.7 11065.4 Q 228456.7 11065.4 228570.8 11158.5 Q 228685.6 11251.6 228864.8 11395.1 Q 229044 11538.6 229237.9 11703.8 Q 229431.1 11868.3 229603.3 12025.8 Q 229545.9 12255.4 229230.2 12255.4 L 223840.2 12255.4 L 223840.2 11825.6 Z M 217733.4 18419.6 L 229001.3 18419.6 L 229617.3 17660.1 Q 229617.3 17660.1 229732.1 17753.2 Q 229846.9 17846.3 230033.1 17989.8 Q 230220 18132.6 230413.2 18297.8 Q 230607.1 18462.3 230778.6 18620.5 Q 230721.2 18849.4 230391.5 18849.4 L 217862.2 18849.4 L 217733.4 18419.6 Z M 232155.5 8757.5 L 243423.4 8757.5 L 244011.4 8040.7 Q 244011.4 8040.7 244118.5 8126.8 Q 244226.3 8212.2 244398.5 8348.7 Q 244570.7 8485.2 244756.9 8642.7 Q 244943.1 8800.2 245100.6 8957.7 Q 245071.9 9072.5 244978.8 9129.9 Q 244885.7 9187.3 244728.2 9187.3 L 232284.3 9187.3 L 232155.5 8757.5 Z M 237675 6535 L 238850.3 6908.1 Q 238792.9 7050.9 238678.1 7101.3 Q 238563.3 7151.7 238277 7123 Q 237918.6 8112.1 237366.3 9151.6 Q 236814.7 10191.1 236061.5 11208.9 Q 235309 12226.7 234363.3 13129.7 Q 233416.9 14032.7 232255.6 14720.8 L 232083.4 14520.6 Q 233129.9 13789.1 234011.9 12857.4 Q 234893.2 11925.7 235603 10864.5 Q 236312.8 9804 236835.7 8700.1 Q 237359.3 7596.2 237675 6535  Z M 236169.3 11266.3 L 236169.3 19337.3 Q 236169.3 19366 236097.9 19430.4 Q 236025.8 19494.8 235911 19545.2 Q 235796.9 19594.9 235653.4 19594.9 L 235567.3 19594.9 L 235567.3 11280.3 L 235724.8 10979.3 L 236341.5 11266.3 L 236169.3 11266.3 Z M 235810.9 13502.8 L 242520.4 13502.8 L 242520.4 13932.6 L 235810.9 13932.6 L 235810.9 13502.8 Z M 235810.9 11265.6 L 242520.4 11265.6 L 242520.4 11681.4 L 235810.9 11681.4 L 235810.9 11265.6 Z M 235810.9 15767.3 L 242520.4 15767.3 L 242520.4 16183.1 L 235810.9 16183.1 L 235810.9 15767.3 Z M 242133.3 11266.3 L 241975.8 11266.3 L 242362.9 10750.4 L 243452.1 11552.6 Q 243366 11652.7 243186.8 11738.8 Q 243007.6 11824.9 242764 11868.3 L 242764 18477 Q 242764 18763.3 242684.9 18999.9 Q 242606.5 19236.5 242348.2 19387 Q 242090.6 19537.5 241516.6 19594.9 Q 241487.9 19437.4 241423.5 19308.6 Q 241359.1 19179.1 241215.6 19093 Q 241058.1 19007.6 240757.1 18942.5 Q 240456.1 18878.1 239996.9 18820.7 L 239996.9 18577.1 Q 239996.9 18577.1 240226.5 18591.8 Q 240456.1 18605.8 240771.1 18634.5 Q 241086.8 18663.2 241373.8 18677.9 Q 241660.1 18691.9 241774.9 18691.9 Q 241989.8 18691.9 242061.9 18620.5 Q 242133.3 18548.4 242133.3 18376.2 L 242133.3 11266.3 Z M 250461.9 8069.4 L 257960.3 8069.4 L 258547.6 7352.6 Q 258547.6 7352.6 258655.4 7438 Q 258763.2 7524.1 258927.7 7660.6 Q 259092.9 7796.4 259279.1 7954.6 Q 259465.3 8112.1 259622.8 8269.6 Q 259565.4 8499.2 259264.4 8499.2 L 250576.7 8499.2 L 250461.9 8069.4 Z M 257487.1 8154.8 L 258117.8 8154.8 L 258117.8 18477 Q 258117.8 18749.3 258024.7 18985.9 Q 257931.6 19222.5 257644.6 19380 Q 257357.6 19537.5 256741.6 19594.9 Q 256712.9 19480.1 256640.8 19358.3 Q 256569.4 19236.5 256411.9 19165.1 Q 256211 19079 255859.6 19014.6 Q 255508.2 18950.2 254948.9 18906.8 L 254948.9 18677.2 Q 254948.9 18677.2 255221.9 18698.9 Q 255494.2 18720.6 255866.6 18742.3 Q 256239.7 18763.3 256583.4 18785 Q 256927.8 18806.7 257056.6 18806.7 Q 257314.9 18806.7 257401 18720.6 Q 257487.1 18634.5 257487.1 18448.3 L 257487.1 8154.8 Z M 251293.5 14964.4 L 254777.4 14964.4 L 254777.4 15380.2 L 251293.5 15380.2 L 251293.5 14964.4 Z M 251078.6 10850.5 L 251078.6 10492.1 L 251078.6 10492.1 L 251795.4 10849.8 L 254992.3 10849.8 L 254992.3 11280.3 L 251723.3 11280.3 L 251723.3 16412.7 Q 251723.3 16441.4 251644.9 16498.1 Q 251565.8 16555.5 251451 16598.9 Q 251336.2 16641.6 251193.4 16641.6 L 251078.6 16641.6 L 251078.6 10850.5 Z M 254576.5 10850.5 L 254419 10850.5 L 254834.8 10363.3 L 255866.6 11150.8 Q 255795.2 11236.9 255616 11316 Q 255436.8 11394.4 255207.2 11437.8 L 255207.2 16211.8 Q 255193.2 16225.8 255100.1 16269.2 Q 255006.3 16311.9 254884.5 16340.6 Q 254762.7 16369.3 254662.6 16369.3 L 254576.5 16369.3 L 254576.5 10850.5 Z M 248225.4 10678.3 L 248555.1 10262.5 L 249286.6 10534.8 Q 249257.9 10635.6 249157.8 10700 Q 249057 10764.4 248870.8 10793.1 L 248870.8 19336.6 Q 248870.8 19365.3 248784.7 19422.7 Q 248698.6 19480.1 248583.8 19530.5 Q 248469.7 19580.9 248340.2 19580.9 L 248225.4 19580.9 L 248225.4 10678.3 Z M 249659 6592.4 L 250806.3 6965.5 Q 250748.9 7079.6 250619.4 7165.7 Q 250490.6 7251.8 250247 7237.8 Q 249788.5 8513.2 249178.8 9738.9 Q 248569.8 10964.6 247867 12011.1 Q 247164.9 13057.6 246404.7 13846.5 L 246204.5 13688.3 Q 246849.2 12842.7 247487.6 11710.1 Q 248125.3 10577.5 248691.6 9266.4 Q 249257.9 7954.6 249659 6592.4  Z M 268410.6 10821.8 Q 269815.5 11380.4 270783.6 11918 Q 271751 12455.6 272353 12943.5 Q 272955.7 13430.7 273235 13824.8 Q 273514.3 14219.6 273557.7 14484.2 Q 273600.4 14749.5 273449.9 14842.6 Q 273299.4 14936.4 273027.1 14821.6 Q 272726.1 14362.4 272173.8 13832.5 Q 271622.2 13301.9 270941.1 12786 Q 270260 12269.4 269557.9 11803.9 Q 268855.1 11337.7 268253.1 11008 L 268410.6 10821.8 Z M 260912.9 7682.3 L 271779.7 7682.3 L 272425.1 6893.4 Q 272425.1 6893.4 272546.9 6986.5 Q 272668.7 7079.6 272847.9 7230.1 Q 273027.1 7381.3 273235 7552.8 Q 273442.9 7725 273615.1 7882.5 Q 273571.7 8112.1 273242 8112.1 L 261042.4 8112.1 L 260912.9 7682.3 Z M 266934.3 10477.4 L 267163.9 10205.1 L 268009.5 10520.8 Q 267966.8 10620.9 267859 10685.3 Q 267751.2 10749.7 267565 10778.4 L 267565 19293.9 Q 267565 19322.6 267485.9 19380 Q 267407.5 19437.4 267292.7 19487.8 Q 267177.9 19538.2 267049.1 19538.2 L 266934.3 19538.2 L 266934.3 10477.4 Z M 268038.2 7825.1 L 268984.6 7825.1 Q 268138.3 9344.8 266869.9 10735.7 Q 265600.8 12125.9 264045.4 13308.9 Q 262490 14491.9 260784.1 15366.2 L 260640.6 15151.3 Q 261787.9 14477.2 262891.8 13631.6 Q 263995.7 12785.3 264977.1 11832.6 Q 265959.2 10879.2 266740.4 9861.4 Q 267522.3 8842.9 268038.2 7825.1  Z M 276109.2 7668.3 L 276109.2 7295.2 L 276109.2 7295.2 L 276826 7667.6 L 286775.1 7667.6 L 286775.1 8097.4 L 276754.6 8097.4 L 276754.6 19308.6 Q 276754.6 19352 276689.5 19416.4 Q 276625.1 19480.8 276510.3 19531.2 Q 276396.2 19580.9 276238 19580.9 L 276109.2 19580.9 L 276109.2 7668.3 Z M 279019.1 12126.6 L 279019.1 11768.2 L 279019.1 11768.2 L 279721.9 12125.9 L 283936.6 12125.9 L 283936.6 12541.7 L 279664.5 12541.7 L 279664.5 17014.7 Q 279664.5 17029.4 279585.4 17079.1 Q 279507 17129.5 279385.2 17172.9 Q 279263.4 17215.6 279133.9 17215.6 L 279019.1 17215.6 L 279019.1 12126.6 Z M 277901.2 9904.1 L 283750.4 9904.1 L 284338.4 9187.3 Q 284338.4 9187.3 284445.5 9273.4 Q 284553.3 9359.5 284717.8 9495.3 Q 284883 9631.8 285069.2 9789.3 Q 285255.4 9946.8 285398.9 10105 Q 285341.5 10333.9 285040.5 10333.9 L 278016 10333.9 L 277901.2 9904.1 Z M 279277.4 15352.2 L 283821.8 15352.2 L 283821.8 15782 L 279277.4 15782 L 279277.4 15352.2 Z M 283449.4 12126.6 L 283319.9 12126.6 L 283707 11682.1 L 284624.7 12384.2 Q 284567.3 12455.6 284416.8 12534.7 Q 284266.3 12613.1 284080.1 12641.8 L 284080.1 16671 Q 284080.1 16713.7 283980 16778.1 Q 283879.2 16843.2 283757.4 16892.9 Q 283635.6 16943.3 283520.8 16943.3 L 283449.4 16943.3 L 283449.4 12126.6 Z M 286430.7 7668.3 L 286301.9 7668.3 L 286675 7180.4 L 287706.8 7968.6 Q 287635.4 8040 287463.2 8126.1 Q 287291 8212.2 287076.1 8255.6 L 287076.1 18405.6 Q 287076.1 18691.9 286990 18936.2 Q 286903.9 19179.8 286595.9 19337.3 Q 286287.9 19494.8 285642.5 19566.9 Q 285599.8 19423.4 285520.7 19301.6 Q 285441.6 19179.8 285284.1 19107.7 Q 285069.2 19007.6 284703.8 18943.2 Q 284337.7 18878.8 283750.4 18821.4 L 283750.4 18577.8 Q 283750.4 18577.8 284036.7 18598.8 Q 284323.7 18620.5 284724.8 18649.2 Q 285126.6 18677.9 285492 18699.6 Q 285857.4 18720.6 286000.9 18720.6 Q 286244.5 18720.6 286337.6 18635.2 Q 286430.7 18549.1 286430.7 18333.5 L 286430.7 7668.3 Z M 291592.5 18706.6 Q 291305.5 18706.6 291126.3 18512.7 Q 290947.1 18319.5 290947.1 18075.9 Q 290947.1 17817.6 291126.3 17638.4 Q 291305.5 17459.2 291592.5 17459.2 Q 291878.8 17459.2 292058 17638.4 Q 292237.2 17817.6 292237.2 18075.9 Q 292237.2 18319.5 292058 18512.7 Q 291878.8 18706.6 291592.5 18706.6  Z M 291334.2 15709.9 Q 291290.8 15294.8 291269.8 14993.1 Q 291248.1 14692.1 291248.1 14333.7 Q 291248.1 13975.3 291391.6 13689 Q 291535.1 13402 291878.8 13087 Q 292223.2 12771.3 292796.5 12326.8 Q 293398.5 11882.3 293735.2 11523.9 Q 294071.9 11165.5 294215.4 10807.1 Q 294358.9 10448.7 294358.9 9990.2 Q 294358.9 9043.8 293814.3 8542.6 Q 293269.7 8040.7 292294.6 8040.7 Q 291936.2 8040.7 291656.9 8091.1 Q 291376.9 8140.8 291082.9 8262.6 Q 290789.6 8384.4 290387.8 8600 L 290932.4 8126.8 Q 290746.2 8771.5 290602.7 9144.6 Q 290459.9 9517 290338.1 9689.2 Q 290215.6 9861.4 290101.5 9911.1 Q 289986.7 9961.5 289857.2 9961.5 Q 289699.7 9961.5 289563.9 9890.1 Q 289427.4 9818 289356 9646.5 Q 289513.5 8728.8 290309.4 8162.5 Q 291104.6 7596.2 292438.1 7596.2 Q 293469.9 7596.2 294100.6 7918.9 Q 294731.3 8241.6 295011.3 8786.2 Q 295290.6 9330.8 295290.6 9990.2 Q 295290.6 10764.4 294860.8 11409.8 Q 294430.3 12054.5 293412.5 12728.6 Q 292753.1 13158.4 292423.4 13445.4 Q 292093.7 13731.7 291978.9 14011.7 Q 291864.8 14291 291836.1 14678.1 L 291792.7 15709.9 L 291334.2 15709.9 Z M 313942.1 12226.7 Q 314802.4 13043.6 315361 13760.4 Q 315920.3 14477.2 316236 15072.2 Q 316551 15667.2 316658.8 16097 Q 316765.9 16527.5 316716.2 16785.1 Q 316665.8 17043.4 316515.3 17100.8 Q 316364.8 17158.2 316149.9 16986 Q 316035.1 16470.1 315769.8 15853.4 Q 315504.5 15237.4 315146.1 14606 Q 314787.7 13975.3 314415.3 13388 Q 314042.2 12800 313712.5 12326.8 L 313942.1 12226.7 Z M 309813.5 12154.6 L 310946.1 12498.3 Q 310902.7 12627.8 310773.9 12713.2 Q 310645.1 12799.3 310415.5 12785.3 Q 309928.3 14190.2 309196.8 15401.2 Q 308466 16612.9 307591 17415.8 L 307376.1 17243.6 Q 307878 16655.6 308336.5 15853.4 Q 308795.7 15050.5 309175.1 14111.1 Q 309555.2 13172.4 309813.5 12154.6  Z M 310028.4 6635.8 L 311175.7 6965.5 Q 311132.3 7094.3 311010.5 7180.4 Q 310888.7 7266.5 310645.1 7266.5 Q 310114.5 8943.7 309297.6 10413 Q 308480 11882.3 307490.9 12856.7 L 307290 12699.2 Q 307849.3 11982.4 308365.2 11022 Q 308881.8 10061.6 309311.6 8943.7 Q 309741.4 7825.1 310028.4 6635.8  Z M 309268.9 9272.7 L 315848.9 9272.7 L 315848.9 9688.5 L 309268.9 9688.5 L 309268.9 9272.7 Z M 315576.6 9273.4 L 315419.1 9273.4 L 315891.6 8771.5 L 316780.6 9645.8 Q 316709.2 9717.2 316572.7 9738.9 Q 316436.9 9760.6 316236 9789.3 Q 316049.8 10247.8 315712.4 10842.8 Q 315375.7 11437.8 315046 11853.6 L 314845.1 11738.8 Q 314974.6 11409.1 315110.4 10950.6 Q 315246.9 10491.4 315375.7 10039.9 Q 315504.5 9588.4 315576.6 9273.4  Z M 305712.9 10677.6 L 306071.3 10219.1 L 306774.1 10477.4 Q 306745.4 10577.5 306637.6 10641.9 Q 306530.5 10706.3 306358.3 10735 L 306358.3 19336.6 Q 306358.3 19365.3 306272.2 19422.7 Q 306186.1 19480.1 306071.3 19530.5 Q 305957.2 19580.2 305827.7 19580.2 L 305712.9 19580.2 L 305712.9 10677.6 Z M 307017.7 6592.4 L 308165 6965.5 Q 308121.6 7080.3 307992.8 7165.7 Q 307864 7251.8 307619.7 7237.8 Q 307161.2 8499.2 306573.2 9717.9 Q 305985.9 10935.9 305304.8 11997.1 Q 304623.7 13057.6 303892.2 13845.8 L 303677.3 13688.3 Q 304308 12842.7 304931.7 11703.1 Q 305555.4 10563.5 306093 9251.7 Q 306630.6 7939.9 307017.7 6592.4  Z M 311949.2 9903.4 L 313096.5 10046.9 Q 313067.8 10190.4 312953 10290.5 Q 312838.2 10391.3 312580.6 10420 L 312580.6 18433.6 Q 312580.6 18734.6 312501.5 18971.2 Q 312422.4 19207.8 312150.1 19358.3 Q 311877.8 19508.8 311289.8 19580.2 Q 311261.1 19422.7 311189.7 19293.9 Q 311118.3 19164.4 310974.8 19079 Q 310802.6 18992.9 310486.9 18928.5 Q 310171.9 18863.4 309670 18806 L 309670 18577.1 Q 309670 18577.1 309913.6 18591.1 Q 310157.2 18605.8 310501.6 18634.5 Q 310845.3 18663.2 311154 18677.2 Q 311462 18691.9 311576.8 18691.9 Q 311791.7 18691.9 311870.8 18619.8 Q 311949.2 18548.4 311949.2 18362.2 L 311949.2 9903.4 Z M 326414 8413.1 Q 326528.8 9932.8 326794.1 11402.1 Q 327059.4 12871.4 327597 14226.6 Q 328134.6 15581.1 329030.6 16764.1 Q 329926.6 17946.4 331288.1 18906.8 L 331245.4 19065 Q 330973.1 19079 330793.9 19165.1 Q 330614.7 19251.2 330499.9 19538.2 Q 329238.5 18548.4 328420.9 17280 Q 327604 16010.9 327130.8 14556.3 Q 326657.6 13101 326428 11552.6 Q 326199.1 10004.2 326113 8456.5 L 326414 8413.1 Z M 326485.4 7366.6 Q 326456.7 8685.4 326400 10018.9 Q 326342.6 11351.7 326113 12649.5 Q 325883.4 13946.6 325352.8 15172.3 Q 324822.9 16398 323854.8 17509.6 Q 322887.4 18620.5 321353.7 19566.9 L 321152.8 19308.6 Q 322586.4 18348.2 323482.4 17237.3 Q 324378.4 16125.7 324865.6 14900 Q 325352.8 13674.3 325553.7 12355.5 Q 325754.6 11036.7 325797.3 9653.5 Q 325840.7 8269.6 325840.7 6850.7 L 326973.3 6965.5 Q 326958.6 7108.3 326858.5 7223.1 Q 326758.4 7337.9 326485.4 7366.6  Z M 319819.3 17860.3 Q 320106.3 17631.4 320622.2 17165.2 Q 321138.8 16699.7 321798.2 16090 Q 322457.6 15481 323145.7 14821.6 L 323317.2 15021.8 Q 323016.2 15366.2 322529 15925.5 Q 322041.8 16484.1 321446.8 17151.2 Q 320851.8 17817.6 320221.1 18491.7 L 319819.3 17860.3 Z M 320594.2 10979.3 L 320737 11065.4 L 320737 17846.3 L 320192.4 18047.2 L 320436 17774.9 Q 320508.1 18018.5 320450.7 18211.7 Q 320393.3 18405.6 320285.5 18519.7 Q 320178.4 18634.5 320092.3 18663.2 L 319676.5 17760.2 Q 319962.8 17616.7 320034.9 17530.6 Q 320106.3 17444.5 320106.3 17258.3 L 320106.3 10979.3 L 320594.2 10979.3 Z M 320120.3 10434.7 L 320479.4 10032.9 L 321238.9 10678.3 Q 321181.5 10764.4 321024 10842.8 Q 320866.5 10921.9 320636.9 10965.3 L 320737 10835.8 L 320737 11567.3 L 320106.3 11567.3 L 320106.3 10434.7 L 320120.3 10434.7 Z M 319547.7 6607.1 Q 320235.8 6965.5 320665.6 7337.9 Q 321095.4 7711 321318 8047.7 Q 321539.9 8384.4 321597.3 8649.7 Q 321654.7 8915 321590.3 9087.2 Q 321525.9 9258.7 321375.4 9287.4 Q 321224.9 9316.1 321038 9187.3 Q 320937.9 8800.2 320658.6 8341.7 Q 320378.6 7882.5 320034.9 7452.7 Q 319690.5 7022.9 319360.8 6721.2 L 319547.7 6607.1 Z M 320679.6 10434.7 L 320679.6 10864.5 L 318142.1 10864.5 L 318013.3 10434.7 L 320679.6 10434.7 Z M 339789.6 12599.1 Q 340521.1 13058.3 340979.6 13516.8 Q 341438.8 13975.3 341667.7 14391.1 Q 341897.3 14806.9 341954.7 15136.6 Q 342012.1 15466.3 341933 15674.2 Q 341853.9 15882.1 341682.4 15917.8 Q 341510.2 15954.2 341309.3 15796 Q 341251.9 15294.8 340979.6 14728.5 Q 340707.3 14162.2 340334.9 13631.6 Q 339961.8 13101 339603.4 12713.9 L 339789.6 12599.1 Z M 339488.6 7109 Q 339459.9 8155.5 339403.2 9237.7 Q 339345.8 10319.9 339151.9 11416.8 Q 338958.7 12513.7 338542.9 13595.9 Q 338127.1 14678.1 337388.6 15710.6 Q 336650.1 16742.4 335496.5 17703.5 Q 334342.2 18663.9 332665 19509.5 L 332464.1 19237.2 Q 334356.9 18190.7 335553.9 17015.4 Q 336750.9 15839.4 337417.3 14563.3 Q 338083.7 13287.9 338363.7 11961.4 Q 338643 10635.6 338707.4 9281.1 Q 338771.8 7925.9 338771.8 6578.4 L 339990.5 6707.2 Q 339976.5 6850.7 339868.7 6965.5 Q 339761.6 7080.3 339488.6 7109  Z M 334600.5 7108.3 Q 335331.3 7452.7 335789.8 7818.1 Q 336249 8183.5 336492.6 8527.9 Q 336736.2 8871.6 336800.6 9158.6 Q 336865 9445.6 336793.6 9624.8 Q 336722.2 9804 336571.7 9846.7 Q 336421.2 9890.1 336220.3 9746.6 Q 336134.2 9330.8 335840.2 8864.6 Q 335546.2 8399.1 335166.8 7968.6 Q 334786.7 7538.8 334428.3 7237.8 L 334600.5 7108.3 Z M 344420.8 10448.7 L 344420.8 10878.5 L 332908.6 10878.5 L 332779.8 10448.7 L 344420.8 10448.7 Z M 343904.9 10449.4 L 344334.7 9961.5 L 345266.4 10735.7 Q 345180.3 10807.1 345044.5 10857.5 Q 344908 10907.2 344664.4 10921.9 Q 344607 12226.7 344492.2 13516.8 Q 344377.4 14806.9 344212.9 15910.8 Q 344047.7 17014.7 343825.8 17796.6 Q 343603.2 18577.8 343330.9 18878.8 Q 343029.9 19222.5 342593.1 19380.7 Q 342155.6 19538.2 341639.7 19538.2 Q 341639.7 19394.7 341574.6 19251.2 Q 341510.2 19108.4 341338 19022.3 Q 341195.2 18950.2 340872.5 18871.8 Q 340549.8 18792.7 340155.7 18728.3 Q 339761.6 18663.9 339403.2 18620.5 L 339417.2 18334.2 Q 339847 18376.9 340421 18434.3 Q 340994.3 18491.7 341489.2 18534.4 Q 341983.4 18577.8 342169.6 18577.8 Q 342456.6 18577.8 342585.4 18549.1 Q 342714.9 18520.4 342857.7 18376.9 Q 343102 18162 343295.2 17401.8 Q 343489.1 16642.3 343639.6 15524.4 Q 343790.1 14405.8 343897.2 13087 Q 344005 11768.2 344062.4 10449.4 L 343904.9 10449.4 Z M 352892.9 11194.2 Q 352892.9 12212 352799.8 13315.9 Q 352706.7 14419.8 352427.4 15523.7 Q 352147.4 16627.6 351574.1 17652.4 Q 351000.8 18677.9 350054.4 19552.2 L 349824.8 19380 Q 350642.4 18448.3 351122.6 17437.5 Q 351602.8 16426.7 351853.4 15373.2 Q 352104.7 14319.7 352183.1 13265.5 Q 352262.2 12212 352262.2 11208.2 L 352262.2 7509.4 L 352892.9 7509.4 L 352892.9 11194.2 Z M 354154.3 7510.1 L 354570.1 6994.2 L 355530.5 7782.4 Q 355444.4 7868.5 355308.6 7918.2 Q 355172.1 7968.6 354928.5 7997.3 Q 354928.5 10075.6 354921.5 11710.1 Q 354914.5 13344.6 354878.1 14584.3 Q 354842.4 15824.7 354792.7 16692 Q 354742.3 17559.3 354649.2 18089.9 Q 354556.1 18620.5 354412.6 18864.1 Q 354197.7 19236.5 353846.3 19394.7 Q 353494.9 19552.2 353122.5 19552.2 Q 353122.5 19408.7 353086.8 19265.2 Q 353050.4 19122.4 352936.3 19021.6 Q 352821.5 18935.5 352527.5 18864.1 Q 352233.5 18792.7 351903.8 18735.3 L 351917.8 18463 Q 352304.9 18491 352749.4 18534.4 Q 353193.9 18577.1 353380.1 18577.1 Q 353609.7 18577.1 353688.8 18541.4 Q 353767.2 18505.7 353853.3 18405.6 Q 354025.5 18190 354111.6 17444.5 Q 354197.7 16699.7 354240.4 15366.2 Q 354283.8 14032.7 354290.8 12076.2 Q 354297.8 10119 354297.8 7510.1 L 354154.3 7510.1 Z M 354799.7 7509.4 L 354799.7 7939.9 L 351115.6 7939.9 L 350986.1 7509.4 L 354799.7 7509.4 Z M 354656.2 14204.9 L 354656.2 14634.7 L 350842.6 14634.7 L 350713.8 14204.9 L 354656.2 14204.9 Z M 354642.2 10807.1 L 354642.2 11236.9 L 351100.9 11236.9 L 350972.1 10807.1 L 354642.2 10807.1 Z M 358569.9 7538.8 L 359085.8 7036.9 L 360003.5 7982.6 Q 359860 8111.4 359386.8 8111.4 Q 359244 8469.8 359043.1 8979.4 Q 358842.2 9488.3 358613.3 10039.9 Q 358383.7 10592.2 358161.1 11101.1 Q 357939.2 11610 357753 11968.4 Q 358455.1 12613.8 358885.6 13244.5 Q 359315.4 13875.2 359509.3 14484.2 Q 359702.5 15093.9 359702.5 15709.9 Q 359702.5 16842.5 359322.4 17294 Q 358943 17746.2 357967.9 17817.6 Q 357967.9 17645.4 357932.2 17516.6 Q 357896.5 17387.8 357795.7 17315.7 Q 357709.6 17258.3 357501.7 17215.6 Q 357293.8 17172.2 357036.2 17143.5 L 357036.2 16899.9 Q 357279.8 16899.9 357666.9 16899.9 Q 358054 16899.9 358254.9 16899.9 Q 358455.1 16899.9 358598.6 16813.8 Q 358784.8 16685 358885.6 16412.7 Q 358985.7 16140.4 358985.7 15623.8 Q 358985.7 14706.8 358620.3 13817.8 Q 358254.9 12928.8 357408.6 12011.1 Q 357552.1 11610 357731.3 11036.7 Q 357910.5 10463.4 358089.7 9825 Q 358268.9 9187.3 358441.1 8585.3 Q 358613.3 7983.3 358727.4 7538.8 L 358569.9 7538.8 Z M 356175.9 7151.7 L 356978.8 7538.8 L 356806.6 7538.8 L 356806.6 19380 Q 356806.6 19423.4 356656.1 19516.5 Q 356505.6 19609.6 356262 19609.6 L 356175.9 19609.6 L 356175.9 7538.8 L 356175.9 7151.7 Z M 359100.5 7538.1 L 359100.5 7968.6 L 356434.2 7968.6 L 356434.2 7538.1 L 359100.5 7538.1 Z M 347961.4 16914.6 Q 347961.4 16972 347824.9 17072.1 Q 347689.1 17172.2 347459.5 17172.2 L 347344.7 17172.2 L 347344.7 7839.8 L 347344.7 7467.4 L 347344.7 7467.4 L 348047.5 7839.1 L 350040.4 7839.1 L 350040.4 8269.6 L 347961.4 8269.6 L 347961.4 16914.6 Z M 350011.7 15151.3 L 350011.7 15581.1 L 347674.4 15581.1 L 347674.4 15151.3 L 350011.7 15151.3 Z M 349609.9 7839.8 L 350040.4 7366.6 L 351014.8 8126.1 Q 350857.3 8298.3 350384.1 8398.4 L 350384.1 16412.7 Q 350384.1 16455.4 350291 16520.5 Q 350197.9 16584.9 350076.1 16642.3 Q 349954.3 16699.7 349839.5 16699.7 L 349753.4 16699.7 L 349753.4 7839.8 L 349609.9 7839.8 Z M 372604.9 11295 Q 372604.9 11295 372755.4 11416.8 Q 372905.9 11538.6 373135.5 11732.5 Q 373364.4 11925.7 373629.7 12147.6 Q 373895 12370.2 374109.9 12571.1 Q 374081.2 12699.9 373967.1 12742.6 Q 373852.3 12786 373680.1 12786 L 361351 12786 L 361207.5 12312.8 L 371816.7 12312.8 L 372604.9 11295 Z M 381364 18333.5 L 387600.3 18333.5 L 387600.3 18764 L 381364 18764 L 381364 18333.5 Z M 380991.6 13689 L 380991.6 13315.9 L 381808.5 13689 L 387270.6 13689 L 387614.3 13258.5 L 388503.3 13932.6 Q 388445.9 14018.7 388317.1 14076.1 Q 388188.3 14133.5 387972.7 14162.2 L 387972.7 19251.2 Q 387972.7 19308.6 387793.5 19408.7 Q 387614.3 19509.5 387414.1 19509.5 L 387313.3 19509.5 L 387313.3 14118.8 L 381636.3 14118.8 L 381636.3 19351.3 Q 381636.3 19394.7 381478.8 19494.8 Q 381321.3 19595.6 381077 19595.6 L 380991.6 19595.6 L 380991.6 13689 Z M 381751.1 9273.4 L 381751.1 8901 L 382568 9273.4 L 386482.4 9273.4 L 386826.1 8843.6 L 387671.7 9503 Q 387614.3 9574.4 387500.2 9631.8 Q 387385.4 9689.2 387184.5 9717.9 L 387184.5 12613.8 Q 387184.5 12656.5 387005.3 12757.3 Q 386826.1 12857.4 386625.2 12857.4 L 386525.1 12857.4 L 386525.1 9689.2 L 382396.5 9689.2 L 382396.5 12757.3 Q 382396.5 12800 382245.3 12900.1 Q 382094.8 13000.9 381851.2 13000.9 L 381751.1 13000.9 L 381751.1 9273.4 Z M 381350 15968.2 L 387600.3 15968.2 L 387600.3 16384 L 381350 16384 L 381350 15968.2 Z M 382052.1 11782.2 L 386883.5 11782.2 L 386883.5 12212 L 382052.1 12212 L 382052.1 11782.2 Z M 380733.3 7538.8 L 386840.8 7538.8 L 387428.1 6808 Q 387428.1 6808 387535.9 6893.4 Q 387643 6979.5 387815.2 7123 Q 387987.4 7266.5 388173.6 7424 Q 388359.8 7581.5 388518 7725 Q 388460.6 7954.6 388144.9 7954.6 L 380848.1 7954.6 L 380733.3 7538.8 Z M 384145.1 13689 L 384775.8 13689 L 384775.8 18620.5 L 384145.1 18620.5 L 384145.1 13689 Z M 375930.6 9015.8 L 375930.6 8642.7 L 375930.6 8642.7 L 376633.4 9015.1 L 379844.3 9015.1 L 379844.3 9445.6 L 376561.3 9445.6 L 376561.3 16455.4 Q 376561.3 16484.1 376489.9 16549.2 Q 376417.8 16613.6 376303.7 16656.3 Q 376188.9 16699.7 376045.4 16699.7 L 375930.6 16699.7 L 375930.6 9015.8 Z M 379457.2 9015.8 L 379313.7 9015.8 L 379686.8 8542.6 L 380718.6 9302.1 Q 380647.2 9388.2 380475 9459.6 Q 380302.8 9531.7 380087.9 9574.4 L 380087.9 15423.6 Q 380087.9 15724.6 380037.5 15932.5 Q 379987.8 16140.4 379815.6 16262.2 Q 379643.4 16384 379256.3 16426.7 Q 379242.3 16312.6 379213.6 16183.1 Q 379184.9 16054.3 379113.5 15968.2 Q 379027.4 15896.8 378890.9 15839.4 Q 378755.1 15782 378525.5 15753.3 L 378525.5 15509.7 Q 378525.5 15509.7 378683 15523.7 Q 378841.2 15538.4 379019.7 15552.4 Q 379198.9 15567.1 379271 15567.1 Q 379457.2 15567.1 379457.2 15337.5 L 379457.2 9015.8 Z M 377636.5 9216 L 377636.5 6635.8 L 378783.8 6750.6 Q 378769.1 6893.4 378654.3 7001.2 Q 378539.5 7109 378267.2 7151.7 L 378267.2 9216 L 378195.8 9216 L 378195.8 9244.7 L 378267.2 9244.7 L 378267.2 19308.6 Q 378267.2 19337.3 378195.8 19401.7 Q 378124.4 19466.1 378002.6 19516.5 Q 377880.1 19566.9 377722.6 19566.9 L 377636.5 19566.9 L 377636.5 9244.7 L 377708.6 9244.7 L 377708.6 9216 L 377636.5 9216 Z M 392761.4 9287.4 L 399958.1 9287.4 L 399958.1 9703.2 L 392761.4 9703.2 L 392761.4 9287.4 Z M 392761.4 11337.7 L 399958.1 11337.7 L 399958.1 11753.5 L 392761.4 11753.5 L 392761.4 11337.7 Z M 399628.4 7295.2 L 399484.9 7295.2 L 399915.4 6822 L 400889.8 7581.5 Q 400818.4 7652.9 400646.2 7732 Q 400474 7811.1 400259.1 7853.8 L 400259.1 12083.2 Q 400259.1 12125.9 400166 12183.3 Q 400072.9 12240.7 399951.1 12291.1 Q 399829.3 12341.5 399714.5 12341.5 L 399628.4 12341.5 L 399628.4 7295.2 Z M 392445.7 7295.2 L 392445.7 6922.8 L 392445.7 6922.8 L 393148.5 7294.5 L 399958.1 7294.5 L 399958.1 7710.3 L 393077.1 7710.3 L 393077.1 12240.7 Q 393077.1 12269.4 392998 12319.8 Q 392918.9 12370.2 392797.1 12405.9 Q 392675.3 12441.6 392546.5 12441.6 L 392445.7 12441.6 L 392445.7 7295.2 Z M 389851.5 12986.2 L 400990.6 12986.2 L 401592.6 12240.7 Q 401592.6 12240.7 401707.4 12326.8 Q 401821.5 12412.9 401993.7 12556.4 Q 402165.9 12699.9 402359.1 12864.4 Q 402553 13029.6 402725.2 13187.1 Q 402667.8 13402 402352.1 13402 L 389980.3 13402 L 389851.5 12986.2 Z M 395958.3 12986.2 L 396589 12986.2 L 396589 18749.3 L 395958.3 18577.1 L 395958.3 12986.2 Z M 396288 15394.9 L 399814.6 15394.9 L 400387.9 14678.1 Q 400387.9 14678.1 400495.7 14764.2 Q 400603.5 14850.3 400768 14986.1 Q 400933.2 15122.6 401119.4 15280.1 Q 401305.6 15437.6 401463.1 15595.8 Q 401405.7 15824.7 401090.7 15824.7 L 396288 15824.7 L 396288 15394.9 Z M 393177.2 14133.5 L 394323.8 14463.2 Q 394266.4 14606 394137.6 14678.1 Q 394008.8 14749.5 393779.2 14735.5 Q 393492.2 15595.8 392998 16498.8 Q 392503.1 17401.8 391736.6 18204.7 Q 390969.4 19007.6 389880.2 19594.9 L 389722 19408.7 Q 390682.4 18778 391370.5 17910.7 Q 392058.6 17043.4 392503.1 16061.3 Q 392947.6 15079.2 393177.2 14133.5  Z M 392991 15767.3 Q 393349.4 16685 393822.6 17251.3 Q 394295.1 17817.6 394925.8 18104.6 Q 395557.2 18390.9 396374.1 18491.7 Q 397191 18591.8 398237.5 18591.8 Q 398639.3 18591.8 399255.3 18591.8 Q 399872 18591.8 400553.1 18591.8 Q 401234.2 18591.8 401857.9 18584.8 Q 402480.9 18577.1 402896.7 18563.1 L 402896.7 18778 Q 402696.5 18792.7 402581.7 18906.8 Q 402466.9 19021.6 402438.2 19222.5 Q 402093.8 19222.5 401542.2 19222.5 Q 400990.6 19222.5 400366.9 19222.5 Q 399743.2 19222.5 399169.9 19222.5 Q 398595.9 19222.5 398194.8 19222.5 Q 397119.6 19222.5 396281 19093.7 Q 395442.4 18964.2 394797 18613.5 Q 394152.3 18262.1 393657.4 17602.7 Q 393162.5 16943.3 392761.4 15896.8 L 392991 15767.3 Z M 415813.1 13731.7 L 415813.1 14161.5 L 405391.5 14161.5 L 405391.5 13731.7 L 415813.1 13731.7 Z M 415297.2 9531.7 L 415727.7 9058.5 L 416702.1 9818 Q 416630.7 9904.1 416458.5 9975.5 Q 416286.3 10046.9 416071.4 10090.3 L 416071.4 15093.9 Q 416071.4 15136.6 415978.3 15194 Q 415885.2 15251.4 415763.4 15301.8 Q 415641.6 15351.5 415526.8 15351.5 L 415440.7 15351.5 L 415440.7 9531.7 L 415297.2 9531.7 Z M 405692.5 15265.4 Q 405692.5 15294.1 405621.1 15351.5 Q 405549 15408.9 405441.9 15452.3 Q 405334.1 15495 405190.6 15495 L 405075.8 15495 L 405075.8 9531.7 L 405075.8 9158.6 L 405075.8 9158.6 L 405778.6 9531 L 415741.7 9531 L 415741.7 9961.5 L 405692.5 9961.5 L 405692.5 15265.4 Z M 411398.2 6721.9 Q 411369.5 6865.4 411262.4 6965.5 Q 411154.6 7065.6 410882.3 7109 L 410882.3 19308.6 Q 410882.3 19366 410810.9 19437.4 Q 410738.8 19508.8 410624 19552.2 Q 410509.9 19594.9 410380.4 19594.9 L 410251.6 19594.9 L 410251.6 6578.4 L 411398.2 6721.9 Z M 421075 9531.7 L 427440.1 9531.7 L 427985.4 8857.6 Q 427985.4 8857.6 428164.6 9001.1 Q 428343.8 9144.6 428587.4 9344.8 Q 428831 9545.7 429017.2 9731.9 Q 428959.8 9961.5 428658.8 9961.5 L 421189.8 9961.5 L 421075 9531.7 Z M 420731.3 16097.7 L 427827.2 16097.7 L 428386.5 15409.6 Q 428386.5 15409.6 428558.7 15552.4 Q 428730.9 15695.9 428967.5 15896.8 Q 429203.4 16097.7 429404.3 16283.9 Q 429346.9 16513.5 429031.9 16513.5 L 420845.4 16513.5 L 420731.3 16097.7 Z M 421648.3 12499 L 427096.4 12499 L 427626.3 11853.6 Q 427626.3 11853.6 427791.5 11990.1 Q 427956.7 12125.9 428185.6 12319.8 Q 428415.2 12513 428601.4 12699.9 Q 428558.7 12928.8 428243 12928.8 L 421763.1 12928.8 L 421648.3 12499 Z M 424572.9 9560.4 L 425203.6 9560.4 L 425203.6 16255.2 L 424572.9 16255.2 L 424572.9 9560.4 Z M 426264.8 13315.9 Q 426838.1 13574.2 427181.8 13853.5 Q 427526.2 14133.5 427705.4 14398.8 Q 427884.6 14663.4 427913.3 14879 Q 427942 15093.9 427877.6 15229.7 Q 427813.2 15366.2 427676.7 15387.9 Q 427540.2 15408.9 427368.7 15294.8 Q 427296.6 14993.1 427088.7 14656.4 Q 426880.8 14319.7 426615.5 13990 Q 426350.9 13660.3 426092.6 13430.7 L 426264.8 13315.9 Z M 419727.5 18190.7 L 430221.9 18190.7 L 430221.9 18620.5 L 419727.5 18620.5 L 419727.5 18190.7 Z M 429963.6 7396 L 429820.1 7396 L 430250.6 6894.1 L 431239.7 7667.6 Q 431167.6 7753.7 430988.4 7832.8 Q 430809.2 7911.2 430609 7954.6 L 430609 19208.5 Q 430609 19251.2 430515.2 19323.3 Q 430422.1 19394.7 430293.3 19452.1 Q 430164.5 19509.5 430049.7 19509.5 L 429963.6 19509.5 L 429963.6 7396 Z M 419311.7 7396 L 419311.7 6994.2 L 419311.7 6994.2 L 420028.5 7395.3 L 430322 7395.3 L 430322 7811.1 L 419957.1 7811.1 L 419957.1 19308.6 Q 419957.1 19351.3 419892.7 19416.4 Q 419827.6 19480.8 419713.5 19530.5 Q 419598.7 19580.9 419440.5 19580.9 L 419311.7 19580.9 L 419311.7 7396 Z M 434235 10921.9 L 434378.5 11008 L 434378.5 18749.3 L 434507.3 18749.3 L 434163.6 19165.1 L 433231.9 18534.4 Q 433346.7 18448.3 433554.6 18348.2 Q 433762.5 18247.4 433934 18204.7 L 433747.8 18691.9 L 433747.8 10921.9 L 434235 10921.9 Z M 434923.1 10348.6 Q 434909.1 10506.1 434772.6 10606.9 Q 434636.8 10707 434378.5 10749.7 L 434378.5 11294.3 L 433747.8 11294.3 L 433747.8 10448.7 L 433747.8 10205.1 L 434923.1 10348.6 Z M 442177.2 15910.8 L 442177.2 16340.6 L 436414.1 16340.6 L 436414.1 15910.8 L 442177.2 15910.8 Z M 442177.2 12642.5 L 442177.2 13072.3 L 436414.1 13072.3 L 436414.1 12642.5 L 442177.2 12642.5 Z M 441704 9646.5 L 442134.5 9173.3 L 443108.9 9932.8 Q 443037.5 10018.9 442865.3 10090.3 Q 442693.1 10162.4 442478.2 10205.1 L 442478.2 16685 Q 442478.2 16727.7 442385.1 16785.1 Q 442292 16842.5 442170.2 16892.9 Q 442048.4 16943.3 441933.6 16943.3 L 441847.5 16943.3 L 441847.5 9646.5 L 441704 9646.5 Z M 436715.1 16914.6 Q 436715.1 16943.3 436650.7 17000 Q 436586.3 17057.4 436471.5 17100.8 Q 436356.7 17143.5 436213.2 17143.5 L 436098.4 17143.5 L 436098.4 9646.5 L 436098.4 9273.4 L 436098.4 9273.4 L 436801.2 9645.8 L 442234.6 9645.8 L 442234.6 10076.3 L 436715.1 10076.3 L 436715.1 16914.6 Z M 445331.4 10319.9 Q 445302.7 10463.4 445187.9 10563.5 Q 445073.1 10663.6 444800.8 10692.3 L 444800.8 19279.9 Q 444800.8 19337.3 444729.4 19401.7 Q 444657.3 19466.1 444542.5 19508.8 Q 444428.4 19552.2 444298.9 19552.2 L 444170.1 19552.2 L 444170.1 10176.4 L 445331.4 10319.9 Z M 439597 9861.4 L 439597 16169.1 L 438966.3 16169.1 L 438966.3 9861.4 L 439597 9861.4 Z M 444499.8 18333.5 L 444499.8 18763.3 L 434077.5 18763.3 L 434077.5 18333.5 L 444499.8 18333.5 Z M 444758.1 6936.8 Q 444758.1 6936.8 444879.9 7029.9 Q 445001.7 7123 445180.9 7266.5 Q 445360.1 7410 445561 7581.5 Q 445761.2 7753.7 445933.4 7911.2 Q 445904.7 8026 445804.6 8083.4 Q 445703.8 8140.8 445560.3 8140.8 L 432930.9 8140.8 L 432802.1 7711 L 444127.4 7711 L 444758.1 6936.8 Z M 449116.3 18792.7 Q 449087.6 19237.2 448793.6 19817.5 Q 448499.6 20397.8 447696.7 20857 L 447912.3 21200.7 Q 448614.4 20842.3 449008.5 20340.4 Q 449402.6 19839.2 449560.8 19286.9 Q 449718.3 18735.3 449718.3 18262.1 Q 449718.3 17731.5 449481.7 17359.1 Q 449245.1 16986 448757.9 16986 Q 448356.1 16986 448155.9 17215.6 Q 447955 17445.2 447955 17746.2 Q 447955 18061.2 448119.5 18255.1 Q 448284.7 18448.3 448557 18570.1 Q 448829.3 18691.9 449116.3 18792.7  Z M 465831.6 6965.5 Q 465788.9 7080.3 465659.4 7166.4 Q 465530.6 7251.8 465287 7237.8 Q 464828.5 8542.6 464233.5 9789.3 Q 463638.5 11036.7 462942.7 12104.9 Q 462247.6 13172.4 461502.1 13975.3 L 461287.2 13817.8 Q 461932.6 12957.5 462563.3 11796.2 Q 463194 10635.6 463745.6 9302.1 Q 464297.9 7968.6 464685 6592.4 L 465831.6 6965.5 Z M 464470.1 10492.1 Q 464441.4 10592.2 464333.6 10656.6 Q 464225.8 10721.7 464039.6 10749.7 L 464039.6 19337.3 Q 464039.6 19366 463961.2 19430.4 Q 463882.1 19494.8 463767.3 19545.2 Q 463652.5 19594.9 463523.7 19594.9 L 463408.9 19594.9 L 463408.9 10635.6 L 463738.6 10205.1 L 464470.1 10492.1 Z M 468182.9 6406.2 Q 468871 6764.6 469293.8 7137 Q 469717.3 7510.1 469939.2 7853.8 Q 470161.1 8198.2 470211.5 8485.2 Q 470261.9 8771.5 470197.5 8950.7 Q 470132.4 9129.9 469974.9 9165.6 Q 469817.4 9202 469631.2 9058.5 Q 469573.8 8642.7 469308.5 8169.5 Q 469043.2 7696.3 468691.8 7258.8 Q 468340.4 6822 468010.7 6521 L 468182.9 6406.2 Z M 467408.7 12541.7 L 467408.7 13430.7 L 466778 13430.7 L 466778 12871.4 L 467408.7 12541.7 Z M 466605.8 18649.2 Q 466950.2 18519.7 467559.2 18269.1 Q 468168.2 18018.5 468950.1 17674.1 Q 469731.3 17330.4 470548.2 16957.3 L 470648.3 17186.9 Q 470247.2 17401.8 469645.2 17746.2 Q 469043.2 18089.9 468333.4 18498.7 Q 467623.6 18906.8 466878.1 19322.6 L 466605.8 18649.2 Z M 467265.2 13129.7 L 467408.7 13215.8 L 467408.7 18663.2 L 466749.3 18964.2 L 466878.1 18663.2 Q 467079 18964.2 466985.9 19193.8 Q 466892.8 19423.4 466792 19494.8 L 466247.4 18864.1 Q 466591.8 18620.5 466684.9 18512.7 Q 466778 18405.6 466778 18262.1 L 466778 13129.7 L 467265.2 13129.7 Z M 469917.5 9330.8 Q 469401.6 10492.1 468577 11545.6 Q 467753.1 12599.1 466734.6 13481.1 Q 465716.8 14362.4 464584.2 15036.5 L 464412.7 14835.6 Q 465401.8 14147.5 466297.8 13244.5 Q 467193.8 12341.5 467881.9 11330.7 Q 468570 10319.9 468957.1 9330.8 L 469917.5 9330.8 Z M 474419.2 11954.4 Q 474361.8 12025.8 474254 12040.5 Q 474146.9 12054.5 473946 11997.1 Q 473544.2 12298.1 472970.9 12699.9 Q 472397.6 13101 471788.6 13509.8 Q 471178.9 13917.9 470648.3 14247.6 L 470519.5 14076.1 Q 470992.7 13689 471559 13180.1 Q 472125.3 12671.2 472662.9 12147.6 Q 473200.5 11624.7 473587.6 11222.9 L 474419.2 11954.4 Z M 469774 9488.3 Q 469903.5 10778.4 470189.8 12054.5 Q 470476.8 13330.6 471035.4 14534.6 Q 471594.7 15738.6 472512.4 16806.8 Q 473430.1 17875 474820.3 18764 L 474777.6 18921.5 Q 474505.3 18935.5 474326.1 19007.6 Q 474146.9 19079 474060.8 19351.3 Q 473028.3 18620.5 472282.8 17731.5 Q 471537.3 16842.5 471035.4 15853.4 Q 470534.2 14864.3 470218.5 13803.8 Q 469903.5 12742.6 469738.3 11667.4 Q 469573.1 10592.2 469487.7 9545.7 L 469774 9488.3 Z M 473515.5 8571.3 Q 473515.5 8571.3 473623.3 8656.7 Q 473731.1 8742.8 473902.6 8879.3 Q 474074.8 9015.1 474261 9173.3 Q 474447.9 9330.8 474605.4 9488.3 Q 474548 9717.9 474232.3 9717.9 L 464885.9 9717.9 L 464771.1 9288.1 L 472928.2 9288.1 L 473515.5 8571.3 Z M 480913.8 7496.1 L 480913.8 7352.6 L 480913.8 7094.3 L 481688 7496.1 L 481544.5 7496.1 L 481544.5 10779.1 Q 481544.5 11724.8 481487.1 12807.7 Q 481429.7 13889.9 481236.5 15029.5 Q 481042.6 16169.1 480626.8 17251.3 Q 480211 18333.5 479494.2 19279.9 L 479265.3 19122.4 Q 480010.8 17875 480354.5 16477.1 Q 480698.9 15079.2 480806 13631.6 Q 480913.8 12183.3 480913.8 10793.1 L 480913.8 7496.1 Z M 481387 7495.4 L 487708.7 7495.4 L 487708.7 7911.2 L 481387 7911.2 L 481387 7495.4 Z M 481387 9947.5 L 487708.7 9947.5 L 487708.7 10377.3 L 481387 10377.3 L 481387 9947.5 Z M 482247.3 18204.7 L 487737.4 18204.7 L 487737.4 18634.5 L 482247.3 18634.5 L 482247.3 18204.7 Z M 487493.8 7496.1 L 487379 7496.1 L 487766.1 7094.3 L 488611.7 7739 Q 488554.3 7811.1 488418.5 7875.5 Q 488282 7939.9 488124.5 7968.6 L 488124.5 10678.3 Q 488124.5 10721.7 488031.4 10778.4 Q 487938.3 10835.8 487816.5 10886.2 Q 487694.7 10936.6 487579.9 10936.6 L 487493.8 10936.6 L 487493.8 7496.1 Z M 484569.2 10549.5 L 485730.5 10693 Q 485715.8 10835.8 485587 10943.6 Q 485458.2 11051.4 485199.9 11080.1 L 485199.9 15250.7 L 484569.2 15250.7 L 484569.2 10549.5 Z M 481989 15036.5 L 481989 14678.1 L 481989 14678.1 L 482691.1 15035.8 L 487780.8 15035.8 L 487780.8 15451.6 L 482619.7 15451.6 L 482619.7 19337.3 Q 482619.7 19366 482540.6 19423.4 Q 482462.2 19480.8 482340.4 19523.5 Q 482218.6 19566.9 482089.1 19566.9 L 481989 19566.9 L 481989 15036.5 Z M 487365 15036.5 L 487221.5 15036.5 L 487651.3 14563.3 L 488626.4 15308.1 Q 488554.3 15394.2 488382.8 15473.3 Q 488210.6 15552.4 487995.7 15595.1 L 487995.7 19222.5 Q 487995.7 19265.2 487902.6 19330.3 Q 487809.5 19394.7 487687.7 19444.4 Q 487565.2 19494.8 487451.1 19494.8 L 487365 19494.8 L 487365 15036.5 Z M 481286.2 12456.3 L 487192.8 12456.3 L 487766.1 11739.5 Q 487766.1 11739.5 487873.9 11824.9 Q 487981 11911 488153.2 12054.5 Q 488325.4 12198 488511.6 12355.5 Q 488697.8 12513.7 488855.3 12656.5 Q 488797.9 12886.1 488482.9 12886.1 L 481286.2 12886.1 L 481286.2 12456.3 Z M 475781.4 9818 L 478992.3 9818 L 479522.9 9158.6 Q 479522.9 9158.6 479623.7 9237.7 Q 479723.8 9316.1 479881.3 9445.6 Q 480038.8 9574.4 480211 9724.9 Q 480383.2 9875.4 480526.7 10018.9 Q 480469.3 10248.5 480168.3 10248.5 L 475896.2 10248.5 L 475781.4 9818 Z M 477931.8 6593.1 L 479093.1 6721.9 Q 479064.4 6865.4 478942.6 6972.5 Q 478820.8 7080.3 478562.5 7109 L 478562.5 18434.3 Q 478562.5 18735.3 478498.1 18971.9 Q 478433.7 19208.5 478190.1 19359 Q 477945.8 19509.5 477429.9 19580.9 Q 477401.2 19423.4 477336.8 19286.9 Q 477272.4 19151.1 477142.9 19065 Q 477000.1 18964.2 476741.8 18906.8 Q 476483.5 18850.1 476067.7 18806.7 L 476067.7 18563.1 Q 476067.7 18563.1 476268.6 18577.1 Q 476469.5 18591.8 476741.8 18613.5 Q 477014.1 18634.5 477265.4 18649.2 Q 477516 18663.2 477602.1 18663.2 Q 477803 18663.2 477867.4 18598.8 Q 477931.8 18534.4 477931.8 18362.2 L 477931.8 6593.1 Z M 475537.8 14247.6 Q 475967.6 14132.8 476741.8 13875.2 Q 477516 13616.9 478498.1 13266.2 Q 479480.2 12914.8 480512 12527.7 L 480598.1 12757.3 Q 479809.9 13144.4 478727.7 13667.3 Q 477644.8 14190.2 476268.6 14806.9 Q 476197.2 15079.2 475996.3 15150.6 L 475537.8 14247.6 Z M 493113.4 9287.4 L 500310.1 9287.4 L 500310.1 9703.2 L 493113.4 9703.2 L 493113.4 9287.4 Z M 493113.4 11337.7 L 500310.1 11337.7 L 500310.1 11753.5 L 493113.4 11753.5 L 493113.4 11337.7 Z M 499980.4 7295.2 L 499836.9 7295.2 L 500267.4 6822 L 501241.8 7581.5 Q 501170.4 7652.9 500998.2 7732 Q 500826 7811.1 500611.1 7853.8 L 500611.1 12083.2 Q 500611.1 12125.9 500518 12183.3 Q 500424.9 12240.7 500303.1 12291.1 Q 500181.3 12341.5 500066.5 12341.5 L 499980.4 12341.5 L 499980.4 7295.2 Z M 492797.7 7295.2 L 492797.7 6922.8 L 492797.7 6922.8 L 493500.5 7294.5 L 500310.1 7294.5 L 500310.1 7710.3 L 493429.1 7710.3 L 493429.1 12240.7 Q 493429.1 12269.4 493350 12319.8 Q 493270.9 12370.2 493149.1 12405.9 Q 493027.3 12441.6 492898.5 12441.6 L 492797.7 12441.6 L 492797.7 7295.2 Z M 490203.5 12986.2 L 501342.6 12986.2 L 501944.6 12240.7 Q 501944.6 12240.7 502059.4 12326.8 Q 502173.5 12412.9 502345.7 12556.4 Q 502517.9 12699.9 502711.1 12864.4 Q 502905 13029.6 503077.2 13187.1 Q 503019.8 13402 502704.1 13402 L 490332.3 13402 L 490203.5 12986.2 Z M 496310.3 12986.2 L 496941 12986.2 L 496941 18749.3 L 496310.3 18577.1 L 496310.3 12986.2 Z M 496640 15394.9 L 500166.6 15394.9 L 500739.9 14678.1 Q 500739.9 14678.1 500847.7 14764.2 Q 500955.5 14850.3 501120 14986.1 Q 501285.2 15122.6 501471.4 15280.1 Q 501657.6 15437.6 501815.1 15595.8 Q 501757.7 15824.7 501442.7 15824.7 L 496640 15824.7 L 496640 15394.9 Z M 493529.2 14133.5 L 494675.8 14463.2 Q 494618.4 14606 494489.6 14678.1 Q 494360.8 14749.5 494131.2 14735.5 Q 493844.2 15595.8 493350 16498.8 Q 492855.1 17401.8 492088.6 18204.7 Q 491321.4 19007.6 490232.2 19594.9 L 490074 19408.7 Q 491034.4 18778 491722.5 17910.7 Q 492410.6 17043.4 492855.1 16061.3 Q 493299.6 15079.2 493529.2 14133.5  Z M 493343 15767.3 Q 493701.4 16685 494174.6 17251.3 Q 494647.1 17817.6 495277.8 18104.6 Q 495909.2 18390.9 496726.1 18491.7 Q 497543 18591.8 498589.5 18591.8 Q 498991.3 18591.8 499607.3 18591.8 Q 500224 18591.8 500905.1 18591.8 Q 501586.2 18591.8 502209.9 18584.8 Q 502832.9 18577.1 503248.7 18563.1 L 503248.7 18778 Q 503048.5 18792.7 502933.7 18906.8 Q 502818.9 19021.6 502790.2 19222.5 Q 502445.8 19222.5 501894.2 19222.5 Q 501342.6 19222.5 500718.9 19222.5 Q 500095.2 19222.5 499521.9 19222.5 Q 498947.9 19222.5 498546.8 19222.5 Q 497471.6 19222.5 496633 19093.7 Q 495794.4 18964.2 495149 18613.5 Q 494504.3 18262.1 494009.4 17602.7 Q 493514.5 16943.3 493113.4 15896.8 L 493343 15767.3 Z M 512438.3 6721.9 L 513613.6 6865.4 Q 513599.6 7022.9 513484.8 7130.7 Q 513370 7237.8 513097.7 7266.5 L 513097.7 19179.8 Q 513097.7 19237.2 513018.6 19308.6 Q 512940.2 19380.7 512825.4 19430.4 Q 512710.6 19480.8 512581.8 19480.8 L 512438.3 19480.8 L 512438.3 6721.9 Z M 508267 11323.7 L 515893.5 11323.7 L 516495.5 10592.9 Q 516495.5 10592.9 516602.6 10678.3 Q 516710.4 10764.4 516875.6 10907.9 Q 517040.1 11051.4 517226.3 11208.9 Q 517413.2 11366.4 517556 11509.9 Q 517542 11739.5 517197.6 11739.5 L 508381.1 11739.5 L 508267 11323.7 Z M 506517.7 10707 L 506862.1 10277.2 L 507621.6 10564.2 Q 507578.2 10664.3 507471.1 10728.7 Q 507363.3 10793.1 507191.8 10821.8 L 507191.8 19294.6 Q 507191.8 19323.3 507105.7 19387.7 Q 507019.6 19452.1 506897.8 19502.5 Q 506776 19552.9 506646.5 19552.9 L 506517.7 19552.9 L 506517.7 10707 Z M 507936.6 6593.1 L 509112.6 6994.2 Q 509083.9 7109 508947.4 7195.1 Q 508811.6 7281.2 508568 7266.5 Q 508080.1 8556.6 507456.4 9797 Q 506833.4 11036.7 506116.6 12104.9 Q 505399.8 13173.1 504625.6 13990 L 504396 13846.5 Q 505055.4 12972.2 505707.8 11810.9 Q 506360.2 10649.6 506940.5 9309.8 Q 507521.5 7969.3 507936.6 6593.1  Z M 527519.8 10850.5 Q 527448.4 10979.3 527225.8 11036.7 Q 527003.9 11094.1 526688.2 10921.9 L 527061.3 10807.1 Q 526702.9 11409.1 526179.3 12154.6 Q 525656.4 12900.1 525011 13717.7 Q 524365.6 14534.6 523648.8 15351.5 Q 522932 16169.1 522194.2 16928.6 Q 521455.7 17688.8 520752.9 18319.5 L 520710.2 18190 L 521154.7 18190 Q 521097.3 18520.4 520960.8 18713.6 Q 520825 18906.8 520666.8 18964.2 L 520237 18003.8 Q 520237 18003.8 520316.1 17982.8 Q 520394.5 17961.1 520495.3 17925.4 Q 520595.4 17889 520652.8 17846.3 Q 521240.8 17273 521907.2 16520.5 Q 522573.6 15767.3 523233 14921.7 Q 523892.4 14076.1 524509.1 13222.8 Q 525125.8 12370.2 525620 11581.3 Q 526114.9 10793.1 526429.9 10176.4 L 527519.8 10850.5 Z M 520495.3 18061.2 Q 521140 18047.2 522157.8 17989.8 Q 523175.6 17932.4 524473.4 17853.3 Q 525770.5 17774.9 527254.5 17667.1 Q 528738.5 17559.3 530300.9 17459.2 L 530315.6 17746.2 Q 528652.4 17946.4 526194 18204.7 Q 523734.9 18463 520781.6 18720.6 L 520495.3 18061.2 Z M 525469.5 7151.7 Q 525412.1 7266.5 525269.3 7337.9 Q 525125.8 7410 524882.2 7366.6 Q 524136.7 8742.8 523212 9983.2 Q 522287.3 11222.9 521269.5 12240.7 Q 520251.7 13258.5 519205.2 13975.3 L 519018.3 13789.1 Q 519950 13000.9 520903.4 11875.3 Q 521856.8 10749.7 522731.8 9395.2 Q 523606.1 8040.7 524279.5 6578.4 L 525469.5 7151.7 Z M 527533.8 14377.1 Q 528637.7 15180 529369.2 15910.8 Q 530100 16642.3 530515.8 17258.3 Q 530931.6 17875 531089.1 18333.5 Q 531247.3 18792.7 531211.6 19079 Q 531175.2 19366 531003.7 19437.4 Q 530831.5 19509.5 530573.2 19322.6 Q 530401 18778 530042.6 18140.3 Q 529684.2 17501.9 529218.7 16842.5 Q 528752.5 16183.1 528258.3 15574.1 Q 527763.4 14964.4 527333.6 14491.9 L 527533.8 14377.1 Z M 535304.5 18706.6 Q 535017.5 18706.6 534838.3 18512.7 Q 534659.1 18319.5 534659.1 18075.9 Q 534659.1 17817.6 534838.3 17638.4 Q 535017.5 17459.2 535304.5 17459.2 Q 535590.8 17459.2 535770 17638.4 Q 535949.2 17817.6 535949.2 18075.9 Q 535949.2 18319.5 535770 18512.7 Q 535590.8 18706.6 535304.5 18706.6  Z M 535046.2 15709.9 Q 535002.8 15294.8 534981.8 14993.1 Q 534960.1 14692.1 534960.1 14333.7 Q 534960.1 13975.3 535103.6 13689 Q 535247.1 13402 535590.8 13087 Q 535935.2 12771.3 536508.5 12326.8 Q 537110.5 11882.3 537447.2 11523.9 Q 537783.9 11165.5 537927.4 10807.1 Q 538070.9 10448.7 538070.9 9990.2 Q 538070.9 9043.8 537526.3 8542.6 Q 536981.7 8040.7 536006.6 8040.7 Q 535648.2 8040.7 535368.9 8091.1 Q 535088.9 8140.8 534794.9 8262.6 Q 534501.6 8384.4 534099.8 8600 L 534644.4 8126.8 Q 534458.2 8771.5 534314.7 9144.6 Q 534171.9 9517 534050.1 9689.2 Q 533927.6 9861.4 533813.5 9911.1 Q 533698.7 9961.5 533569.2 9961.5 Q 533411.7 9961.5 533275.9 9890.1 Q 533139.4 9818 533068 9646.5 Q 533225.5 8728.8 534021.4 8162.5 Q 534816.6 7596.2 536150.1 7596.2 Q 537181.9 7596.2 537812.6 7918.9 Q 538443.3 8241.6 538723.3 8786.2 Q 539002.6 9330.8 539002.6 9990.2 Q 539002.6 10764.4 538572.8 11409.8 Q 538142.3 12054.5 537124.5 12728.6 Q 536465.1 13158.4 536135.4 13445.4 Q 535805.7 13731.7 535690.9 14011.7 Q 535576.8 14291 535548.1 14678.1 L 535504.7 15709.9 L 535046.2 15709.9 Z " fill-rule="nonzero" style="fill:#333333;;fill-opacity:1;"/>
</svg>