<svg version="1.1" x="0" y="0" width="100%" height="100%" viewBox="0 0 75929.6 221798.4" xmlns="http://www.w3.org/2000/svg">
  <path d="M 35956.95 45818.25 Q 35587.95 46047.75 35358.45 46047.75 Q 35081.7 46047.75 35081.7 45773.25 Q 35081.7 45404.25 35542.95 44758.5 Q 36647.7 43237.5 37662.45 40704 L 37522.95 40704 Q 36924.45 40704 36694.95 40195.5 Q 35911.95 38537.25 34989.45 36924 Q 32869.95 42639 28124.7 45726 Q 28124.7 46740.75 28169.7 47339.25 L 28214.7 48491.25 Q 28214.7 50840.25 27616.2 52131.75 Q 27017.7 53421 25910.7 54251.25 Q 25820.7 54343.5 25543.95 54343.5 Q 24758.7 54343.5 23768.7 53052 Q 22778.7 51762.75 22317.45 50289 Q 22132.95 49920 22132.95 49366.5 Q 22132.95 48813 22317.45 47985 Q 22778.7 44758.5 22778.7 39873.75 Q 22778.7 36786.75 22639.2 34390.5 Q 22594.2 32640 22409.7 31488 Q 22225.2 30336 21948.45 29044.5 Q 21903.45 28907.25 21903.45 28722.75 Q 21903.45 28401 22087.95 28284 Q 22272.45 28169.25 22778.7 28169.25 Q 23698.95 28169.25 25035.45 28446 Q 26371.95 28722.75 27247.2 29136.75 L 31947.45 28585.5 Q 31947.45 27800.25 31855.2 26234.25 Q 31717.95 23930.25 31396.2 22870.5 Q 29458.95 23331.75 27431.7 23930.25 Q 27064.95 24022.5 26833.2 24022.5 Q 26095.2 24022.5 25312.2 23331.75 Q 24299.7 22641 23584.2 21833.25 Q 22870.95 21027.75 22546.95 19828.5 Q 22501.95 19691.25 22501.95 19414.5 Q 22501.95 18908.25 22823.7 18654 Q 23147.7 18399.75 23606.7 18492 Q 28491.45 18631.5 35081.7 17571.75 Q 41671.95 16512 48307.2 14806.5 Q 48860.7 14669.25 49274.7 14669.25 Q 49965.45 14669.25 50518.95 15036 Q 51394.2 15544.5 52109.7 16534.5 Q 52822.95 17524.5 53284.2 18676.5 Q 53421.45 19000.5 53421.45 19369.5 Q 53421.45 19920.75 53077.2 20289.75 Q 52730.7 20658.75 51992.7 20611.5 Q 51349.2 20566.5 49965.45 20566.5 Q 46048.2 20566.5 41669.7 21120 Q 43606.95 21441.75 44758.95 22179.75 Q 45080.7 22364.25 45080.7 23100 Q 45080.7 23469 45010.95 24092.25 Q 44941.2 24713.25 44896.2 25082.25 Q 44896.2 25635.75 44803.95 26740.5 L 46187.7 26511 Q 47155.2 26326.5 47753.7 26119.5 Q 48352.2 25912.5 48858.45 25635.75 Q 49411.95 25404 49873.2 25404 Q 50287.2 25404 50611.2 25543.5 Q 54112.2 27201.75 54757.95 27984.75 Q 55034.7 28401 55034.7 29091.75 Q 55034.7 29368.5 54805.2 31119 Q 54712.95 31488 54620.7 32223.75 Q 53882.7 38123.25 53882.7 48122.25 Q 53882.7 49366.5 53329.2 50748 Q 52775.7 52131.75 51855.45 53376 Q 50563.95 55081.5 48583.95 55311 Q 47661.45 55448.25 47155.2 54435.75 Q 45818.7 51947.25 42821.7 50012.25 Q 42547.2 49872.75 42547.2 49688.25 Q 42547.2 49321.5 43375.2 49321.5 L 44758.95 49321.5 Q 45494.7 49321.5 45910.95 49274.25 Q 46693.95 49182 47085.45 49020 Q 47476.95 48860.25 47616.45 48351.75 Q 48399.45 42132.75 48399.45 35542.5 Q 48399.45 32916.75 48307.2 31857 Q 48214.95 31303.5 47384.7 31303.5 Q 46140.45 31303.5 44342.7 31440.75 Q 43973.7 33468 43514.7 35265.75 Q 45494.7 36141 46232.7 36739.5 Q 47708.7 37938.75 47708.7 39367.5 Q 47708.7 40980.75 45863.7 42454.5 Q 45449.7 42776.25 44941.2 42776.25 Q 44619.45 42776.25 44320.2 42616.5 Q 44020.95 42454.5 43928.7 42177.75 L 42270.45 38629.5 Q 40150.95 43284.75 35956.95 45818.25  Z M 28032.45 41487 L 28032.45 43836 Q 29229.45 41948.25 30196.95 39135.75 Q 31164.45 36325.5 31625.7 33054 Q 29321.7 33330.75 28032.45 33607.5 L 28032.45 35405.25 L 28032.45 41487 Z M 34897.2 22132.5 Q 35956.95 22409.25 36787.2 22962.75 Q 37108.95 23147.25 37108.95 23793 Q 37108.95 24207 37063.95 24598.5 Q 37016.7 24990 36971.7 25359 L 36832.2 27939.75 Q 37707.45 27800.25 39966.45 27478.5 L 39874.2 26049.75 Q 39689.7 22593.75 39136.2 21441.75 Q 36924.45 21718.5 34897.2 22132.5  Z M 35772.45 34390.5 Q 37662.45 35173.5 38490.45 35864.25 L 39043.95 36325.5 Q 39457.95 34482.75 39781.95 31949.25 L 36233.7 32363.25 Q 35956.95 33744.75 35772.45 34390.5  Z M 19736.7 109203.85 Q 19045.95 109203.85 18402.45 108996.85 Q 17756.7 108789.85 17756.7 108513.1 Q 17756.7 108191.35 18676.95 107775.1 Q 21534.45 106623.1 24369.45 103743.1 Q 27202.2 100863.1 29528.7 96601.6 Q 31857.45 92340.1 33146.7 87270.85 Q 28585.95 88053.85 25082.7 89113.6 Q 24760.95 89250.85 24391.95 89250.85 Q 23608.95 89250.85 22870.95 88652.35 Q 21626.7 87732.1 19968.45 84642.85 Q 19691.7 84136.6 19691.7 83814.85 Q 19691.7 83169.1 20521.95 83169.1 Q 26005.2 83169.1 34114.2 82293.85 Q 34530.45 79299.1 34530.45 76164.85 Q 34530.45 71786.35 33792.45 69437.35 Q 33652.95 68931.1 33652.95 68654.35 Q 33652.95 68008.6 34530.45 68008.6 Q 34667.7 68008.6 35313.45 68100.85 Q 36971.7 68377.6 38537.7 68814.1 Q 40105.95 69252.85 40749.45 69806.35 Q 41210.7 70267.6 41073.45 70958.35 Q 40749.45 72155.35 40749.45 72708.85 Q 40749.45 76810.6 40243.2 81463.6 Q 45541.95 80635.6 49090.2 79575.85 Q 49920.45 79391.35 50197.2 79391.35 Q 50840.7 79391.35 51394.2 79758.1 Q 53284.2 80910.1 54296.7 83306.35 Q 54436.2 83630.35 54436.2 84091.6 Q 54436.2 84642.85 54089.7 85011.85 Q 53745.45 85380.85 53054.7 85380.85 Q 47524.2 85288.6 39597.45 86256.1 Q 42225.45 90126.1 44252.7 92846.35 Q 46279.95 95564.35 48628.95 97915.6 Q 51486.45 100725.85 54044.7 102683.35 Q 56600.7 104643.1 59136.45 105747.85 Q 59734.95 106024.6 59734.95 106346.35 Q 59734.95 106670.35 59089.2 106947.1 Q 57154.2 107682.85 54989.7 108074.35 Q 52822.95 108468.1 51209.7 108468.1 Q 49414.2 108468.1 48237.45 108099.1 Q 47062.95 107730.1 46324.95 106578.1 L 45541.95 105333.85 Q 41671.95 99434.35 39367.95 95519.35 L 38906.7 94689.1 L 37801.95 92754.1 Q 35266.2 100264.6 30820.2 104735.35 Q 26374.2 109203.85 19736.7 109203.85  Z M 18676.95 151347.2 Q 17203.2 150150.2 15774.45 148167.95 Q 15497.7 147798.95 15497.7 147569.45 Q 15497.7 147337.7 15821.7 147130.7 Q 16143.45 146923.7 16926.45 146739.2 Q 21073.2 145402.7 25127.7 143422.7 L 25127.7 141210.95 L 25127.7 136879.7 Q 23791.2 137246.45 22686.45 137707.7 Q 21718.95 138031.7 21028.2 138031.7 Q 20519.7 138031.7 20335.2 137939.45 Q 19644.45 137662.7 18816.45 137061.95 Q 17986.2 136463.45 17387.7 135680.45 Q 17203.2 135311.45 17203.2 134942.45 Q 17203.2 134298.95 17709.45 134251.7 Q 21212.7 133605.95 25035.45 132501.2 L 24898.2 128768.45 Q 24850.95 127017.95 24207.45 125127.95 Q 23791.2 123975.95 23791.2 123654.2 Q 23791.2 123100.7 24484.2 123100.7 Q 26002.95 123100.7 27501.45 123422.45 Q 28999.95 123746.45 29920.2 124207.7 Q 30518.7 124437.2 30518.7 125082.95 Q 30518.7 125312.45 30473.7 125589.2 Q 30426.45 125865.95 30426.45 126142.7 Q 30244.2 129274.7 30196.95 130842.95 L 30658.2 130658.45 Q 31670.7 130381.7 31994.7 130381.7 Q 32363.7 130381.7 32685.45 130566.2 Q 33331.2 131072.45 34044.45 131810.45 Q 34759.95 132546.2 34989.45 133191.95 Q 35173.95 133653.2 34897.2 133860.2 Q 34620.45 134067.2 33700.2 134298.95 Q 32271.45 134665.7 31717.95 134897.45 Q 30289.2 135403.7 30012.45 135495.95 L 29920.2 140886.95 L 33423.45 138767.45 Q 33607.95 138675.2 33700.2 138675.2 Q 33929.7 138675.2 34136.7 138814.7 Q 34345.95 138951.95 34345.95 139228.7 Q 34345.95 139365.95 34114.2 139689.95 Q 32179.2 141854.45 29920.2 144066.2 Q 29920.2 147384.95 30012.45 155401.7 L 30059.7 156508.7 Q 30151.95 157705.7 30151.95 158166.95 Q 30151.95 159964.7 29366.7 161346.2 Q 28768.2 162360.95 28122.45 163051.7 Q 27478.95 163742.45 27017.7 163881.95 Q 26095.2 164158.7 25728.45 164158.7 Q 25127.7 164158.7 24758.7 163742.45 Q 22731.45 160794.95 19552.2 157568.45 Q 19322.7 157246.7 19322.7 157154.45 Q 19322.7 156877.7 19876.2 156969.95 Q 21718.95 157291.7 23424.45 157199.45 Q 23930.7 157154.45 24252.45 156693.2 Q 24574.2 156231.95 24666.45 155633.45 Q 24943.2 153329.45 25082.7 148260.2 Q 22778.7 150150.2 21718.95 150978.2 Q 20796.45 151716.2 19828.95 151716.2 Q 19138.2 151716.2 18676.95 151347.2  Z M 31027.2 162867.2 Q 34343.7 160747.7 36672.45 158882.45 Q 38998.95 157014.95 40981.2 154389.2 Q 38584.95 151209.95 36879.45 149459.45 Q 36602.7 149182.7 36163.95 148791.2 Q 35727.45 148399.7 35497.95 148122.95 Q 35266.2 147846.2 35266.2 147569.45 Q 35266.2 147337.7 35497.95 147155.45 Q 36233.7 146646.95 37248.45 146646.95 Q 38537.7 146646.95 39689.7 147477.2 Q 40519.95 148075.7 43422.45 150519.2 Q 44389.95 148674.2 45404.7 146185.7 Q 45496.95 145818.95 45496.95 145587.2 Q 45496.95 145173.2 45172.95 145173.2 Q 44943.45 145173.2 42547.2 145634.45 Q 39412.95 146277.95 38584.95 146277.95 Q 37801.95 146277.95 37385.7 145656.95 Q 36971.7 145033.7 36717.45 144320.45 Q 36465.45 143607.2 36325.95 143330.45 Q 36233.7 142961.45 36233.7 142869.2 Q 36233.7 142500.2 36532.95 142293.2 Q 36832.2 142086.2 37340.7 142086.2 Q 38308.2 142086.2 41347.95 141809.45 Q 41487.45 140979.2 41579.7 138445.7 L 38722.2 138999.2 Q 37615.2 139273.7 36787.2 139273.7 Q 35587.95 139273.7 34782.45 138607.7 Q 33974.7 137939.45 33146.7 136233.95 Q 32962.2 136002.2 32962.2 135635.45 Q 32962.2 135219.2 33306.45 134919.95 Q 33652.95 134620.7 34206.45 134575.7 L 35819.7 134436.2 Q 38215.95 134251.7 39136.2 134067.2 L 41532.45 133698.2 L 41347.95 129414.2 Q 41255.7 127110.2 41118.45 125796.2 Q 40981.2 124482.2 40657.2 123606.95 Q 40519.95 123237.95 40519.95 122963.45 Q 40519.95 122502.2 40841.7 122247.95 Q 41163.45 121993.7 41716.95 121993.7 Q 43192.95 121993.7 45080.7 122569.7 Q 46970.7 123145.7 47708.7 123654.2 Q 48167.7 123975.95 48167.7 124482.2 Q 48167.7 124758.95 47983.2 125681.45 Q 47800.95 126464.45 47753.7 126970.7 Q 47384.7 129321.95 47107.95 132638.45 L 49643.7 132039.95 Q 51346.95 131533.7 52591.2 131533.7 Q 53513.7 131533.7 54112.2 131855.45 Q 55540.95 132777.95 56600.7 134989.7 Q 56692.95 135358.7 56692.95 135543.2 Q 56692.95 136049.45 56346.45 136326.2 Q 56002.2 136602.95 55540.95 136602.95 Q 53144.7 136602.95 50334.45 136924.7 Q 48905.7 137061.95 46878.45 137430.95 Q 46831.2 138582.95 46923.45 140196.2 Q 46923.45 140335.7 46970.7 140425.7 Q 47476.95 140011.7 47890.95 140011.7 Q 48307.2 140011.7 48997.95 140472.95 Q 49688.7 140934.2 50012.7 141118.7 Q 51072.45 141717.2 51922.95 142684.7 Q 52775.7 143652.2 52775.7 144297.95 Q 52730.7 144851.45 52523.7 145242.95 Q 52316.7 145634.45 51900.45 146185.7 Q 51439.2 146831.45 51209.7 147247.7 Q 48768.45 151439.45 47155.2 153651.2 Q 50518.95 156371.45 53605.95 158236.7 Q 56692.95 160101.95 59779.95 160839.95 Q 60886.95 161253.95 60886.95 161622.95 Q 60886.95 161854.7 60470.7 162039.2 Q 58627.95 162774.95 56485.95 163420.7 Q 54343.95 164066.45 52960.2 164066.45 Q 50334.45 164066.45 48075.45 162313.7 Q 46187.7 161024.45 43559.7 157752.95 Q 41347.95 159827.45 38560.2 161323.7 Q 35772.45 162822.2 31810.2 164066.45 Q 31072.2 164250.95 30750.45 164250.95 Q 30059.7 164250.95 30059.7 163881.95 Q 30059.7 163512.95 31027.2 162867.2  Z M 34390.95 202659.3 Q 34066.95 202796.55 33560.7 202796.55 Q 32914.95 202796.55 32453.7 202474.8 Q 31994.7 202105.8 31533.45 201437.55 Q 31072.2 200769.3 30842.7 200447.55 L 30241.95 199480.05 Q 30104.7 199203.3 30104.7 198834.3 Q 30104.7 198465.3 30289.2 198188.55 Q 30473.7 197914.05 30750.45 197866.8 Q 35403.45 197360.55 40657.2 196577.55 L 40794.45 191922.3 L 38722.2 192291.3 Q 37570.2 192520.8 36186.45 191461.05 Q 34804.95 190401.3 34343.7 188927.55 Q 34298.7 188790.3 34298.7 188513.55 Q 34298.7 187591.05 35542.95 187546.05 Q 37061.7 187546.05 40933.95 186992.55 Q 40978.95 184504.05 40978.95 181646.55 Q 40978.95 180586.8 40841.7 179158.05 Q 40702.2 177729.3 40427.7 176716.8 Q 40380.45 176577.3 40380.45 176300.55 Q 40380.45 175886.55 40657.2 175609.8 Q 40933.95 175333.05 41440.2 175333.05 Q 42178.2 175333.05 43674.45 175864.05 Q 45172.95 176392.8 46324.95 177130.8 Q 47476.95 177868.8 47476.95 178559.55 Q 47476.95 178881.3 47247.45 179666.55 Q 46923.45 181185.3 46878.45 181831.05 Q 46738.95 184411.8 46693.95 186025.05 Q 47983.2 185748.3 48997.95 185426.55 Q 49366.95 185334.3 49825.95 185334.3 Q 50194.95 185334.3 50518.95 185516.55 Q 51992.7 186578.55 52730.7 187912.8 Q 52915.2 188236.8 52915.2 188790.3 Q 52915.2 189341.55 52638.45 189757.8 Q 52361.7 190171.8 51855.45 190264.05 L 49873.2 190585.8 L 46509.45 191094.3 L 46369.95 195655.05 Q 51531.45 194732.55 53650.95 194089.05 Q 54296.7 193904.55 54618.45 193904.55 Q 55219.2 193904.55 55678.2 194181.3 Q 56785.2 194687.55 57707.7 195817.05 Q 58627.95 196946.55 58812.45 198051.3 Q 58904.7 198328.05 58904.7 198557.55 Q 58904.7 199066.05 58582.95 199410.3 Q 58258.95 199756.8 57568.2 199756.8 L 55954.95 199709.55 Q 50656.2 199709.55 44113.2 200632.05 Q 45586.95 201691.8 45771.45 202290.3 Q 45910.95 202751.55 45586.95 203235.3 Q 45265.2 203719.05 44482.2 204409.8 Q 43836.45 205055.55 41993.7 207314.55 L 40011.45 209618.55 Q 39826.95 209848.05 39874.2 209917.8 Q 39919.2 209985.3 40195.95 209940.3 Q 42407.7 209755.8 47845.95 208833.3 L 48259.95 208788.3 Q 46970.7 205885.8 46232.7 204594.3 Q 46140.45 204457.05 46140.45 204180.3 Q 46140.45 203948.55 46347.45 203788.8 Q 46554.45 203626.8 46923.45 203626.8 Q 47062.95 203626.8 47521.95 203719.05 Q 49780.95 204502.05 52269.45 206437.05 Q 54757.95 208374.3 55585.95 209800.8 Q 55909.95 210446.55 55909.95 211137.3 Q 55909.95 212521.05 54710.7 213718.05 Q 53513.7 214917.3 52222.2 215423.55 Q 51900.45 215560.8 51578.7 215560.8 Q 50703.45 215560.8 50287.2 214087.05 Q 50149.95 213673.05 49411.95 211645.8 Q 46324.95 212521.05 41854.2 214017.3 Q 37385.7 215515.8 35819.7 216346.05 Q 35358.45 216575.55 34804.95 216575.55 Q 34066.95 216575.55 33515.7 216114.3 Q 31441.2 214179.3 31441.2 212336.55 Q 31441.2 211875.3 31695.45 211506.3 Q 31947.45 211137.3 32545.95 210631.05 Q 34298.7 209479.05 36211.2 206713.8 Q 38123.7 203948.55 39043.95 201462.3 Q 36049.2 202105.8 34390.95 202659.3  Z M 17848.95 189296.55 Q 17756.7 189112.05 17756.7 188972.55 Q 17756.7 188558.55 18217.95 188513.55 Q 19414.95 188421.3 20105.7 188421.3 Q 22456.95 188421.3 24045.45 189274.05 Q 25636.2 190124.55 25820.7 192246.3 Q 25912.95 193398.3 25404.45 194550.3 Q 24898.2 195702.3 24115.2 196460.55 Q 23332.2 197221.05 22594.2 197313.3 L 22456.95 197313.3 Q 21671.7 197313.3 21349.95 196530.3 Q 21212.7 196300.8 20751.45 195241.05 Q 18861.45 190954.8 17848.95 189296.55  Z M 18355.2 210354.3 Q 18262.95 209893.05 18262.95 209848.05 Q 18262.95 209526.3 18424.95 209409.3 Q 18584.7 209294.55 19093.2 209157.3 Q 19599.45 208972.8 19691.7 208925.55 Q 20980.95 208511.55 22040.7 206945.55 Q 26326.95 200447.55 29092.2 193580.55 Q 29229.45 193213.8 29506.2 193213.8 Q 29645.7 193213.8 29760.45 193373.55 Q 29875.2 193535.55 29830.2 193765.05 Q 29461.2 195610.05 29321.7 196530.3 Q 27892.95 204088.05 26833.2 208648.8 Q 25773.45 213211.8 24576.45 215977.05 Q 24344.7 216483.3 23860.95 216782.55 Q 23377.2 217081.8 22870.95 217081.8 Q 22364.7 217081.8 21903.45 216712.8 Q 20888.7 215792.55 19853.7 213857.55 Q 18816.45 211922.55 18355.2 210354.3  Z M 23838.45 179342.55 Q 23698.95 179113.05 23698.95 178973.55 Q 23698.95 178651.8 24160.2 178604.55 Q 24529.2 178559.55 25267.2 178559.55 Q 27800.7 178559.55 29344.2 179389.8 Q 30887.7 180217.8 30887.7 182107.8 Q 30887.7 182337.3 30795.45 182890.8 Q 30610.95 184227.3 30034.95 184965.3 Q 29458.95 185701.05 28491.45 186162.3 Q 28169.7 186346.8 27685.95 186139.8 Q 27202.2 185932.8 26833.2 185426.55 Q 26002.95 184227.3 25404.45 182960.55 Q 24805.95 181693.8 23838.45 179342.55  Z " fill-rule="nonzero" style="fill:#333333;;fill-opacity:1;"/>
</svg>