<svg version="1.1" x="0" y="0" width="100%" height="100%" viewBox="0 0 860108.8 61798.4" xmlns="http://www.w3.org/2000/svg">
  <path d="M 6556.45 30357.8 Q 6328.9 30546.5 5912.65 30546.5 Q 5381.7 30546.5 4852.6 30130.25 Q 4321.65 29714 4018.25 28994.35 Q 3979.4 28879.65 3866.55 28539.25 Q 3753.7 28198.85 3753.7 27856.6 Q 3753.7 27099.95 4510.35 26304.45 Q 5420.55 25129.7 6007 24086.3 Q 6595.3 23044.75 6935.7 21605.45 Q 7048.55 21150.35 7390.8 21150.35 Q 7692.35 21150.35 7844.05 21416.75 Q 8147.45 22325.1 8413.85 23612.7 Q 8678.4 24902.15 8678.4 25697.65 Q 8678.4 27364.5 8034.6 28596.6 Q 7390.8 29826.85 6556.45 30357.8  Z M 8791.25 12588.55 Q 8754.25 12512.7 8754.25 12322.15 Q 8754.25 12057.6 9000.3 11848.55 Q 9246.35 11641.35 9588.6 11641.35 Q 11027.9 11641.35 12297 12020.6 Q 13566.1 12398 14437.45 13080.65 Q 14702 13308.2 14702 13648.6 Q 14702 13839.15 14589.15 14236.9 Q 14474.45 14634.65 14437.45 14975.05 Q 14097.05 15998.1 14058.2 17058.15 Q 13982.35 19028.4 13982.35 20621.25 Q 15345.8 20545.4 16596.4 21226.2 Q 17922.85 22021.7 17922.85 23424 Q 17922.85 24067.8 17619.45 24598.75 L 17885.85 24598.75 Q 20233.5 24561.75 24590.25 24030.8 L 24590.25 22515.65 L 21939.2 22817.2 Q 21559.95 22893.05 21238.05 22722.85 Q 20916.15 22552.65 20499.9 22097.55 L 19930.1 21302.05 Q 19893.1 21226.2 19893.1 21074.5 Q 19893.1 20621.25 20575.75 20506.55 L 24553.25 19862.75 L 24553.25 18460.45 Q 22015.05 18800.85 20688.6 19104.25 Q 20575.75 19143.1 20385.2 19143.1 Q 19780.25 19143.1 19173.45 18554.8 Q 18566.65 17968.35 18150.4 17209.85 Q 18037.55 17021.15 18037.55 16869.45 Q 18037.55 16641.9 18187.4 16490.2 Q 18339.1 16338.5 18642.5 16301.5 Q 21104.85 16035.1 24477.4 15391.3 L 24477.4 14519.95 Q 24288.7 12473.85 24022.3 11602.5 L 23985.3 11450.8 Q 23985.3 11149.25 24174 10901.35 Q 24364.55 10655.3 24817.8 10655.3 Q 25765 10579.45 27034.1 10882.85 Q 28303.2 11186.25 28873 11641.35 Q 29250.4 11905.9 29326.25 12190.8 Q 29402.1 12473.85 29402.1 13156.5 Q 29402.1 13839.15 29289.25 14519.95 L 30425.15 14331.25 Q 31751.6 14066.7 32092 14066.7 Q 32698.8 14066.7 33211.25 14331.25 Q 33721.85 14595.8 33912.4 14823.35 Q 34593.2 15467.15 34933.6 16377.35 Q 35048.3 16832.45 34820.75 17154.35 Q 34593.2 17476.25 34062.25 17476.25 Q 32850.5 17476.25 29100.55 17892.5 Q 29061.7 18308.75 29061.7 19104.25 L 30804.4 18839.7 Q 31183.65 18763.85 31335.35 18763.85 Q 31751.6 18763.85 32358.4 18991.4 Q 32889.35 19294.8 33305.6 19899.75 Q 33721.85 20506.55 33721.85 20846.95 Q 33797.7 21340.9 33438.8 21511.1 Q 33078.05 21681.3 32358.4 21681.3 Q 32130.85 21681.3 29857.2 21908.85 Q 29553.8 21908.85 28948.85 21984.7 Q 28873 23044.75 28873 23538.7 Q 32167.85 23120.6 32926.35 22968.9 Q 33266.75 22893.05 33967.9 22741.35 Q 34669.05 22591.5 35161.15 22591.5 Q 36184.2 22591.5 36828 23159.45 Q 37397.8 23727.4 37701.2 24219.5 Q 38002.75 24711.6 38002.75 25242.55 Q 38002.75 25697.65 37719.7 25943.7 Q 37434.8 26189.75 37094.4 26189.75 Q 36678.15 26152.75 35579.25 26152.75 Q 32510.1 26152.75 27698.25 26550.5 Q 22886.4 26948.25 20309.35 27403.35 Q 20157.65 27440.35 19854.25 27440.35 Q 19058.75 27440.35 18529.65 27024.1 Q 17998.7 26606 17391.9 25734.65 Q 16975.65 25318.4 16975.65 25318.4 Q 16748.1 25470.1 16444.7 25545.95 L 16219 25582.95 Q 15536.35 25582.95 15345.8 24863.3 Q 15005.4 24030.8 13982.35 22515.65 Q 13982.35 24143.65 14058.2 27856.6 Q 14134.05 33615.65 14134.05 36078 Q 14134.05 39071.3 14021.2 40777 Q 13945.35 42974.8 13603.1 44110.7 Q 13262.7 45246.6 12543.05 45246.6 Q 12239.65 45246.6 11823.4 45020.9 Q 10800.35 44414.1 10062.2 43391.05 Q 9322.2 42368 9285.2 40965.7 Q 9285.2 40510.6 9473.9 39678.1 Q 9662.6 38540.35 9662.6 38275.8 Q 9814.3 35397.2 9814.3 30812.9 Q 9814.3 23954.95 9512.75 16301.5 Q 9473.9 14936.2 9361.05 14368.25 Q 9246.35 13800.3 9057.65 13289.7 Q 8867.1 12777.25 8791.25 12588.55  Z M 19476.85 43352.2 Q 19628.55 42595.55 19759.9 39848.3 Q 19893.1 37101.05 19893.1 34450 Q 19893.1 29714 19476.85 28842.65 Q 19210.45 28500.4 19210.45 28235.85 Q 19210.45 28047.15 19362.15 27932.45 Q 19513.85 27819.6 19780.25 27856.6 Q 21522.95 27971.3 22621.85 28387.55 Q 24137 28274.7 25861.2 28026.8 Q 27583.55 27780.75 28569.6 27592.05 Q 29289.25 27477.35 29629.65 27346 Q 29971.9 27212.8 30501 26948.25 Q 30804.4 26720.7 31146.65 26720.7 Q 31524.05 26720.7 31866.3 26909.4 Q 32167.85 27061.1 32813.5 27383 Q 33457.3 27704.9 33873.55 28008.3 Q 34289.8 28311.7 34593.2 28690.95 Q 34744.9 28879.65 34744.9 29107.2 Q 34744.9 29295.9 34593.2 29543.8 Q 34441.5 29789.85 34404.5 29865.7 Q 34101.1 30318.95 34025.25 30546.5 Q 33873.55 31721.25 33873.55 33578.65 Q 33873.55 35473.05 34025.25 38579.2 Q 34138.1 40321.9 34138.1 41496.65 Q 34138.1 42632.55 33912.4 43448.4 Q 33684.85 44262.4 33002.2 44982.05 Q 32092 45777.55 31448.2 46156.8 Q 30804.4 46536.05 29971.9 46536.05 Q 29553.8 46536.05 29289.25 46327 Q 29024.7 46117.95 28721.3 45701.7 Q 28530.75 45513 28229.2 45057.9 Q 27698.25 44338.25 27148.8 43846.15 Q 26599.35 43352.2 25424.6 42935.95 Q 25160.05 42823.1 25160.05 42671.4 Q 25160.05 42480.85 25879.7 42405 Q 26675.2 42405 27431.85 42329.15 Q 28190.35 42255.15 28530.75 42216.3 Q 29024.7 42179.3 29119.05 41800.05 Q 29213.4 41420.8 29213.4 40209.05 L 29213.4 37935.4 Q 28873 38199.95 28153.35 38199.95 Q 27546.55 38238.8 26505 38314.65 Q 25461.6 38390.5 24817.8 38466.35 L 24440.4 38503.35 L 24440.4 43391.05 Q 24440.4 44830.35 23985.3 45474.15 Q 23530.2 46117.95 22470.15 46156.8 Q 21900.35 46156.8 21125.2 45701.7 Q 20348.2 45246.6 19835.75 44584.3 Q 19325.15 43922 19476.85 43352.2  Z M 24477.4 36192.7 Q 24969.5 36116.85 26031.4 35889.3 Q 26220.1 35850.45 26958.25 35756.1 Q 27698.25 35661.75 27925.8 35737.6 Q 28682.45 35965.15 29213.4 36760.65 L 29176.4 34070.75 Q 28873 34374.15 28077.5 34374.15 Q 27431.85 34374.15 26220.1 34468.5 Q 25008.35 34562.85 24704.95 34638.7 L 24477.4 34638.7 L 24477.4 36192.7 Z M 25955.55 32061.65 Q 27015.6 31872.95 27622.4 31872.95 Q 27925.8 31872.95 28001.65 31909.95 Q 28721.3 32176.35 29176.4 33008.85 L 29100.55 30167.25 Q 27698.25 30318.95 24704.95 30737.05 Q 24629.1 31038.6 24629.1 31114.45 Q 24629.1 31153.3 24553.25 32289.2 L 25955.55 32061.65 Z M 43761.8 44451.1 Q 43345.55 44451.1 43345.55 44186.55 Q 43345.55 43959 43687.8 43655.6 Q 44028.2 43352.2 44350.1 43048.8 Q 44672 42747.25 45012.4 42480.85 Q 47097.35 40586.45 47968.7 39715.1 Q 48840.05 38843.75 49520.85 37859.55 Q 49824.25 37443.3 50014.8 36684.8 Q 50090.65 36344.4 50203.5 36192.7 Q 50318.2 36041 50619.75 36041 Q 51265.4 36041 52079.4 36571.95 Q 52893.4 37101.05 53500.2 37820.7 Q 54107 38540.35 54107 38995.45 Q 54144 39147.15 54144 39374.7 Q 54144 39753.95 53955.3 39942.65 Q 53764.75 40131.35 53348.5 40358.9 Q 52817.55 40662.3 52704.7 40777 Q 50962 42177.45 48612.5 43182 Q 46263 44186.55 43952.35 44451.1 L 43761.8 44451.1 Z M 42361.35 26038.05 Q 41945.1 25394.25 41945.1 25127.85 Q 41945.1 24863.3 42209.65 24768.95 Q 42474.2 24672.75 43081 24635.75 Q 44899.55 24598.75 48821.55 24295.35 Q 52741.7 23991.95 57098.45 23536.85 Q 56872.75 23272.3 56360.3 22704.35 Q 55849.7 22136.4 55470.45 21642.45 L 55431.6 21642.45 Q 55204.05 22325.1 54711.95 22552.65 Q 54256.85 22704.35 53992.3 22704.35 Q 53424.35 22704.35 52799.05 22419.45 Q 52173.75 22136.4 51794.5 21794.15 Q 51150.7 21150.35 51074.85 20279 Q 50962 18232.9 50828.8 16945.3 Q 50695.6 15657.7 50318.2 14519.95 Q 50242.35 14407.1 50033.3 13952 Q 49824.25 13496.9 49520.85 13269.35 Q 49143.45 12891.95 49143.45 12512.7 Q 49143.45 12018.75 49900.1 11868.9 Q 50734.45 11717.2 51265.4 11717.2 Q 52704.7 11717.2 53727.75 12094.6 Q 57440.7 11641.35 60850.25 10845.85 Q 62252.55 10655.3 63199.75 10239.05 Q 63616 10087.35 63995.25 10087.35 Q 64411.5 10087.35 65094.15 10390.75 Q 65623.25 10694.15 66457.6 11299.1 Q 67291.95 11905.9 67859.9 12398 Q 68163.3 12664.4 68163.3 13117.65 Q 68163.3 13611.6 67859.9 13913.15 Q 67367.8 14558.8 66779.5 16357 Q 66193.05 18157.05 66078.35 19711.05 Q 66002.5 20467.7 65264.35 21131.85 Q 64526.2 21794.15 63464.3 22021.7 Q 63123.9 22136.4 62857.5 22136.4 Q 62517.1 22136.4 62289.55 21927.35 Q 62062 21718.3 61873.3 21189.2 L 61797.45 20998.65 L 59068.7 21226.2 L 59447.95 21377.9 Q 60091.75 21642.45 60452.5 22116.05 Q 60811.4 22589.65 60887.25 23120.6 Q 67556.5 22362.1 70398.1 21718.3 Q 70853.2 21529.6 71460 21529.6 Q 72140.8 21529.6 72823.45 21833 Q 73543.1 22210.4 74281.25 22950.4 Q 75021.25 23688.55 75474.5 24598.75 Q 75589.2 24748.6 75589.2 25015 Q 75589.2 25394.25 75172.95 25621.8 Q 74756.7 25847.5 73807.65 25810.5 Q 73202.7 25771.65 71724.55 25771.65 Q 67747.05 25771.65 61836.3 26245.25 Q 55925.55 26718.85 51491.1 27325.65 Q 52438.3 27325.65 53367 27553.2 Q 54295.7 27780.75 54750.8 28121.15 L 54902.5 28272.85 Q 60395.15 27780.75 62289.55 27401.5 Q 62896.35 27249.8 63275.6 27061.1 Q 63653 26870.55 64032.25 26530.15 Q 64259.8 26417.3 64450.35 26417.3 Q 64600.2 26417.3 65055.3 26493.15 Q 67935.75 27932.45 68579.55 28463.4 Q 68919.95 28803.8 68919.95 29068.35 Q 68919.95 29183.05 68768.25 29486.45 Q 68616.55 29599.3 68352 30091.4 Q 68087.45 30585.35 67935.75 30735.2 Q 67669.35 31305 67517.65 31872.95 Q 67367.8 32440.9 67291.95 32668.45 Q 67177.25 33275.25 66949.7 33994.9 Q 66761 35206.65 64526.2 35661.75 Q 64183.95 35774.6 63919.4 35774.6 Q 63579 35774.6 63369.95 35585.9 Q 63160.9 35397.2 63009.2 34942.1 Q 62137.85 35017.95 60395.15 35093.8 Q 61986.15 35624.75 62289.55 35926.3 Q 62480.1 36078 62480.1 36381.4 Q 62480.1 36645.95 62289.55 37215.75 Q 62176.7 37632 62043.5 38199.95 Q 61910.3 38767.9 61910.3 39374.7 L 61949.15 40397.75 Q 62062 41572.5 62025 42860.1 Q 61986.15 44186.55 61532.9 44943.2 Q 61077.8 45701.7 60358.15 46136.45 Q 59638.5 46573.05 58197.35 47179.85 Q 57744.1 47331.55 57364.85 47331.55 Q 56872.75 47331.55 56512 47007.8 Q 56151.25 46685.9 55735 45966.25 Q 54447.4 43618.6 53348.5 42821.25 Q 53159.8 42671.4 53159.8 42519.7 Q 53159.8 42253.3 53461.35 42253.3 L 56151.25 42216.3 Q 56645.2 42216.3 56909.75 42046.1 Q 57174.3 41875.9 57213.15 41306.1 Q 57289 37859.55 56758.05 35889.3 Q 56682.2 35510.05 56682.2 35434.2 L 55431.6 35585.9 Q 55204.05 36344.4 54674.95 36533.1 Q 54371.55 36608.95 54181 36608.95 Q 53576.05 36608.95 52893.4 36287.05 Q 52212.6 35965.15 51833.35 35585.9 Q 51226.55 34903.25 51113.7 34107.75 Q 51113.7 31569.55 50468.05 29599.3 Q 50392.2 29410.6 50222 29068.35 Q 50051.8 28727.95 49900.1 28387.55 Q 49483.85 28084.15 49483.85 27856.6 Q 49483.85 27704.9 49711.4 27592.05 Q 49180.45 27667.9 48821.55 27741.9 Q 48460.8 27817.75 48196.25 27856.6 Q 47058.5 28045.3 46338.85 28045.3 Q 45506.35 28045.3 44899.55 27856.6 Q 44104.05 27553.2 43402.9 27022.25 Q 42701.75 26493.15 42361.35 26038.05  Z M 54447.4 14292.4 L 54674.95 15467.15 Q 56151.25 15202.6 58008.65 14975.05 L 58992.85 14860.35 Q 59107.55 14823.35 59372.1 14823.35 Q 59903.05 14823.35 60413.65 15145.25 Q 60926.1 15467.15 61684.6 16186.8 Q 62025 16453.2 62025 16793.6 Q 62025 17400.4 60698.55 17552.1 L 56302.95 18005.35 Q 55659.15 18081.2 55128.2 18005.35 L 55355.75 19218.95 Q 59220.4 18725 61949.15 18499.3 Q 62176.7 17552.1 62289.55 17209.85 Q 62365.4 16830.6 62650.3 15694.7 Q 62933.35 14558.8 62933.35 14027.85 Q 62933.35 13572.75 62517.1 13611.6 L 59296.25 14027.85 Q 56569.35 14331.25 55773.85 14482.95 Q 55583.3 14519.95 55318.75 14519.95 Q 54787.8 14519.95 54447.4 14216.55 L 54447.4 14292.4 Z M 55091.2 30698.2 Q 55355.75 31758.25 55507.45 32933 Q 56948.6 32820.15 58576.6 32686.95 Q 60206.45 32555.6 61910.3 32403.9 Q 62365.4 32328.05 63427.3 32252.2 Q 63653 31417.85 63653 30546.5 L 63691.85 30054.4 Q 63691.85 29712.15 63275.6 29751 Q 56796.9 30585.35 55091.2 30698.2  Z M 63956.4 37517.3 Q 63579 37139.9 63579 36949.35 Q 63579 36571.95 64714.9 36608.95 Q 67328.95 36760.65 68938.45 37443.3 Q 70549.8 38124.1 71685.7 39335.85 Q 72481.2 40170.2 72481.2 41230.25 Q 72481.2 42064.6 71952.1 42878.6 Q 71421.15 43692.6 70510.95 44223.55 Q 69981.85 44526.95 69563.75 44526.95 Q 68579.55 44526.95 67821.05 43087.65 Q 67025.55 41230.25 66117.2 39905.65 Q 65207 38579.2 63956.4 37517.3  Z M 91008.95 27479.2 Q 89077.55 26985.25 88431.9 25414.6 Q 87788.1 23842.1 87788.1 20961.65 Q 87788.1 20014.45 87826.95 19446.5 L 87863.95 17248.7 Q 87863.95 13763.3 87183.15 12322.15 Q 87144.3 12246.3 87144.3 12133.45 Q 87144.3 11754.2 87978.65 11754.2 Q 89077.55 11754.2 90383.65 12076.1 Q 91691.6 12398 92069 12701.4 Q 92220.7 12853.1 92259.55 12967.8 Q 96351.75 12549.7 98662.4 12020.6 Q 99761.3 11754.2 100745.5 11073.4 Q 101011.9 10921.7 101352.3 10921.7 Q 101541 10921.7 101844.4 10997.55 Q 102488.2 11186.25 103568.6 12020.6 Q 104649 12853.1 105028.25 13384.05 Q 105329.8 13876.15 105329.8 14255.4 Q 105329.8 14595.8 105104.1 14899.2 Q 104649 15581.85 104136.55 16793.6 Q 103625.95 18005.35 103398.4 19294.8 Q 103209.7 20430.7 102432.7 21435.25 Q 101655.7 22439.8 100708.5 22667.35 Q 100329.25 22743.2 100177.55 22743.2 Q 99913 22743.2 99703.95 22647 Q 99496.75 22552.65 99230.35 22288.1 Q 98851.1 21833 97942.75 21416.75 Q 94570.2 21642.45 92032 22097.55 Q 92032 22552.65 92069 22667.35 Q 92144.85 23196.45 92487.1 23557.2 Q 92827.5 23917.95 93813.55 24030.8 Q 95365.7 24258.35 96995.55 24258.35 Q 100329.25 24258.35 103019.15 23311.15 Q 104042.2 23007.75 104706.35 22097.55 Q 105368.65 21189.2 105557.35 20127.3 Q 105672.05 19823.9 105936.6 19823.9 Q 106277 19823.9 106315.85 20127.3 Q 106807.95 22325.1 108021.55 23766.25 Q 108361.95 24219.5 108361.95 24674.6 Q 108361.95 25394.25 107642.3 26076.9 Q 106922.65 26759.55 105975.45 27024.1 Q 104156.9 27479.2 101637.2 27725.25 Q 99117.5 27971.3 96616.3 27971.3 Q 92487.1 27971.3 91008.95 27479.2  Z M 80097.65 32137.5 Q 79870.1 31684.25 79870.1 31342 Q 79870.1 30962.75 80116.15 30755.55 Q 80362.2 30546.5 80854.3 30585.35 Q 83583.05 30698.2 86803.9 30698.2 Q 92751.65 30698.2 98018.6 30318.95 L 97791.05 29144.2 Q 97678.2 28652.1 98037.1 28481.9 Q 98397.85 28311.7 99193.35 28311.7 Q 100480.95 28387.55 101352.3 28518.9 Q 102223.65 28652.1 103170.85 29295.9 Q 103322.55 29371.75 103398.4 29789.85 Q 107755.15 29258.9 110369.2 28424.55 Q 110939 28272.85 111431.1 28272.85 Q 112263.6 28272.85 112870.4 28879.65 Q 113438.35 29295.9 113950.8 30357.8 Q 114461.4 31417.85 114461.4 32100.5 Q 114461.4 32592.6 114158 32857.15 Q 113854.6 33123.55 113286.65 33123.55 L 111734.5 33123.55 Q 107150.2 33123.55 102867.45 33388.1 L 102867.45 34903.25 L 102867.45 38351.65 L 102867.45 40701.15 Q 102867.45 42443.85 102318 43959 Q 101768.55 45474.15 99837.15 46573.05 Q 99230.35 46952.3 98699.4 46952.3 Q 97563.5 46952.3 96768 45437.15 Q 96161.2 44262.4 95460.05 43524.25 Q 94760.75 42784.25 93850.55 42253.3 Q 93206.75 42027.6 93206.75 41685.35 Q 93206.75 41457.8 93510.15 41457.8 Q 95062.3 41457.8 95783.8 41306.1 Q 97715.2 41156.25 97866.9 40434.75 Q 98397.85 39034.3 98397.85 36496.1 Q 98397.85 35245.5 98283.15 33654.5 Q 94646.05 33919.05 90971.95 34298.3 Q 92372.4 34374.15 93395.45 34903.25 Q 94797.75 35737.6 94797.75 36988.2 Q 94797.75 37783.7 94248.3 38484.85 Q 93698.85 39186 92751.65 39602.25 Q 92524.1 39715.1 92296.55 39715.1 Q 91956.15 39715.1 91652.75 39469.05 Q 91349.35 39223 91273.5 39034.3 Q 90933.1 38199.95 90137.6 36836.5 Q 89342.1 35473.05 88887 35054.95 Q 88774.15 34903.25 88640.95 34790.4 Q 88507.75 34675.7 88431.9 34562.85 Q 85893.7 34866.25 84643.1 35130.8 Q 84491.4 35169.65 84189.85 35169.65 Q 82976.25 35169.65 81858.85 34335.3 Q 80741.45 33502.8 80097.65 32137.5  Z M 92144.85 18915.55 Q 96312.9 18308.75 98926.95 18157.05 Q 99230.35 16414.35 99230.35 15467.15 Q 99230.35 15354.3 99193.35 15315.45 Q 99154.5 15278.45 99002.8 15278.45 Q 98055.6 15315.45 94721.9 15846.4 Q 94153.95 15922.25 93528.65 16016.6 Q 92903.35 16110.95 92296.55 16186.8 L 92144.85 18915.55 Z M 144695.95 41724.2 Q 143067.95 41761.2 141589.8 40701.15 Q 140111.65 39639.25 139051.6 38011.25 Q 137157.2 35169.65 134807.7 30167.25 L 133557.1 27629.05 Q 132041.95 30017.4 130299.25 32574.1 Q 128556.55 35130.8 127685.2 36116.85 Q 125411.55 38692.05 122569.95 40000 Q 119728.35 41307.95 117266 41307.95 Q 116622.2 41307.95 116318.8 41269.1 Q 115484.45 41193.25 115484.45 40965.7 Q 115484.45 40852.85 115675 40701.15 Q 118894 38503.35 122248.05 34753.4 Q 125600.25 31001.6 127892.4 27401.5 Q 130184.55 23803.25 130412.1 22136.4 Q 128441.85 19143.1 126244.05 17097 Q 125751.95 16641.9 125393.05 16453.2 Q 125032.3 16262.65 124312.65 15998.1 Q 124048.1 15883.4 124048.1 15581.85 Q 124048.1 15315.45 124273.8 14956.55 Q 124501.35 14595.8 124767.75 14407.1 Q 125221 14027.85 125866.65 13839.15 Q 126510.45 13648.6 126965.55 13648.6 Q 127761.05 13648.6 128593.55 14179.55 Q 129427.9 14710.5 130412.1 15694.7 Q 131662.7 16945.3 132894.8 18536.3 Q 134125.05 20127.3 136247 23083.6 Q 139164.45 27136.95 141380.75 29921.2 Q 143597.05 32707.3 146459 35301 Q 149319.1 37896.55 152539.95 39489.4 Q 153335.45 39829.8 153335.45 40209.05 Q 153335.45 40510.6 152765.65 40662.3 Q 150871.25 41269.1 149034.2 41457.8 Q 147197.15 41648.35 144695.95 41724.2  Z M 165003.4 41117.4 Q 164626 41344.95 164095.05 41420.8 Q 163904.5 41457.8 163527.1 41457.8 Q 162313.5 41457.8 161593.85 40775.15 Q 160874.2 40094.35 160874.2 38806.75 Q 160874.2 36912.35 162161.8 36305.55 Q 162844.45 36002.15 163375.4 36002.15 Q 163828.65 36002.15 164283.75 36190.85 Q 166026.45 36797.65 166026.45 38843.75 Q 166026.45 40358.9 165003.4 41117.4  Z M 160874.2 27364.5 Q 160874.2 25470.1 162161.8 24863.3 Q 162844.45 24559.9 163375.4 24559.9 Q 163828.65 24559.9 164283.75 24748.6 Q 166026.45 25355.4 166026.45 27401.5 Q 166026.45 28916.65 165003.4 29675.15 Q 164626 29902.7 164095.05 29978.55 Q 163904.5 30015.55 163527.1 30015.55 Q 162313.5 30015.55 161593.85 29332.9 Q 160874.2 28652.1 160874.2 27364.5  Z M 202134.75 41193.25 Q 202020.05 41230.25 201755.5 41230.25 Q 201224.55 41230.25 200921.15 40889.85 Q 200769.45 40701.15 200183 39924.15 Q 199596.55 39147.15 199141.45 38370.15 Q 198686.35 37593.15 198345.95 36797.65 L 198345.95 36684.8 Q 198345.95 36305.55 198649.35 36266.7 Q 198950.9 36229.7 199557.7 36229.7 Q 201452.1 36229.7 202645.35 36912.35 Q 203838.6 37593.15 203725.75 38730.9 Q 203649.9 39602.25 203252.15 40188.7 Q 202854.4 40777 202134.75 41193.25  Z M 184742.9 23954.95 Q 184591.2 23766.25 184591.2 23538.7 Q 184591.2 23348.15 184742.9 23216.8 Q 184894.6 23083.6 185085.15 23046.6 Q 187547.5 22894.9 191904.25 22023.55 L 191904.25 21796 L 191904.25 20545.4 L 189329.05 20961.65 Q 188759.25 21000.5 188437.35 20924.65 Q 188115.45 20848.8 187775.05 20545.4 Q 187471.65 20242 187244.1 19844.25 Q 187016.55 19446.5 187016.55 19180.1 Q 187016.55 18763.85 187510.5 18726.85 Q 189480.75 18499.3 191752.55 18120.05 L 191639.7 16717.75 L 188986.8 17134 Q 188835.1 17172.85 188533.55 17172.85 Q 187963.75 17172.85 187490.15 16887.95 Q 187016.55 16604.9 186713.15 16186.8 Q 186676.15 16110.95 186448.6 15752.05 Q 186221.05 15391.3 186221.05 15163.75 Q 186221.05 14862.2 186637.3 14862.2 Q 188570.55 14823.35 191488 14292.4 Q 191299.3 12512.7 190729.5 11678.35 Q 190692.5 11602.5 190692.5 11489.65 Q 190692.5 10997.55 191299.3 10997.55 Q 192472.2 10958.7 193685.8 11299.1 Q 194897.55 11641.35 195389.65 12020.6 Q 195656.05 12246.3 195711.55 12455.35 Q 195768.9 12664.4 195807.75 13269.35 L 195807.75 13496.9 Q 196488.55 13345.2 196791.95 13308.2 L 197171.2 13269.35 Q 197778 13269.35 198270.1 13648.6 Q 198875.05 14216.55 199217.3 14936.2 Q 199330.15 15202.6 199330.15 15391.3 Q 199330.15 15770.55 198895.4 15922.25 Q 198458.8 16073.95 197511.6 16073.95 Q 197019.5 16073.95 195656.05 16149.8 L 195656.05 17400.4 Q 195883.6 17361.55 196053.8 17324.55 Q 196224 17285.7 196336.85 17248.7 L 196791.95 17172.85 Q 197208.2 17172.85 197739.15 17476.25 Q 198118.4 17703.8 198382.95 18177.4 Q 198649.35 18651 198725.2 19143.1 Q 198838.05 19522.35 198553.15 19616.7 Q 198270.1 19711.05 197247.05 19749.9 Q 196791.95 19749.9 195731.9 19938.6 L 195807.75 21152.2 L 196035.3 21113.35 Q 197132.35 20697.1 197853.85 20697.1 Q 198194.25 20697.1 198307.1 20772.95 Q 199481.85 21340.9 199973.95 22628.5 Q 200125.65 22970.75 199861.1 23235.3 Q 199596.55 23499.85 198989.75 23499.85 Q 197778 23538.7 195959.45 23803.25 L 195959.45 23993.8 Q 196072.3 24978 195522.85 25697.65 Q 194973.4 26417.3 194290.75 26456.15 Q 193913.35 26456.15 193400.9 26189.75 Q 192890.3 25925.2 192472.2 25508.95 Q 192055.95 25053.85 191867.25 24561.75 L 190805.35 24826.3 Q 188910.95 25242.55 187926.75 25545.95 Q 187623.35 25621.8 187395.8 25621.8 Q 186827.85 25621.8 186372.75 25394.25 Q 185917.65 25166.7 185595.75 24883.65 Q 185273.85 24598.75 184742.9 23954.95  Z M 185046.3 40777 Q 185690.1 40057.35 186733.5 39071.3 Q 187775.05 38087.1 188798.1 37365.6 Q 189253.2 37101.05 189441.9 37101.05 Q 189858.15 37101.05 189858.15 37632 Q 189897 38958.45 189517.75 40814 Q 189138.5 42671.4 188533.55 44110.7 Q 188343 44565.8 187984.1 44811.85 Q 187623.35 45057.9 186827.85 45172.6 Q 186335.75 45172.6 185747.45 44774.85 Q 185161 44377.1 184781.75 43712.95 Q 184402.5 43050.65 184402.5 42331 Q 184402.5 41459.65 185046.3 40777  Z M 188873.95 27327.5 Q 188835.1 27288.65 188835.1 27212.8 Q 188835.1 27061.1 189007.15 26948.25 Q 189177.35 26833.55 189404.9 26833.55 Q 191223.45 26833.55 197247.05 26247.1 Q 203270.65 25660.65 204937.5 25357.25 Q 205089.2 25318.4 205203.9 25281.4 Q 205316.75 25242.55 205429.6 25205.55 Q 204861.65 25090.85 204408.4 24637.6 Q 203990.3 24143.65 203877.45 23917.95 L 203006.1 24069.65 L 202702.7 24106.65 Q 202058.9 24106.65 201603.8 23766.25 Q 201072.85 23462.85 200808.3 23159.45 Q 200543.75 22856.05 200125.65 22099.4 Q 199973.95 21908.85 199973.95 21720.15 Q 199973.95 21529.6 200107.15 21416.75 Q 200240.35 21302.05 200429.05 21302.05 Q 201983.05 21302.05 203725.75 21189.2 L 203838.6 19901.6 L 203270.65 19977.45 Q 203118.95 20014.45 202815.55 20014.45 Q 202247.6 20014.45 201716.65 19559.35 Q 201339.25 19218.95 201093.2 18821.2 Q 200845.3 18423.45 200845.3 18120.05 Q 200845.3 17703.8 201339.25 17664.95 L 203953.3 17400.4 Q 203953.3 16717.75 203990.3 16377.35 L 202589.85 16604.9 L 202286.45 16641.9 Q 201642.65 16641.9 201148.7 16301.5 Q 200656.6 15959.25 200392.05 15430.15 Q 200088.65 14747.5 200088.65 14444.1 Q 200088.65 14103.7 200543.75 14103.7 Q 202058.9 14103.7 203990.3 13800.3 L 203990.3 13421.05 Q 203990.3 12928.95 203877.45 12020.6 Q 203762.75 11110.4 203574.05 10579.45 Q 203498.2 10427.75 203498.2 10314.9 Q 203498.2 9935.65 203914.45 9935.65 Q 205165.05 9935.65 206321.3 10314.9 Q 207475.7 10694.15 208006.65 11147.4 Q 208271.2 11337.95 208367.4 11584 Q 208461.75 11830.05 208385.9 12285.15 L 208234.2 13041.8 L 210696.55 12625.55 L 211075.8 12588.55 Q 211758.45 12588.55 212211.7 13004.8 Q 212590.95 13345.2 212800 13857.65 Q 213009.05 14368.25 213046.05 14444.1 Q 213160.75 14671.65 213160.75 14862.2 Q 213160.75 15506 211758.45 15506 Q 209939.9 15506 207969.65 15770.55 L 207930.8 16908.3 Q 209294.25 16717.75 209788.2 16566.05 Q 210165.6 16490.2 210280.3 16490.2 Q 210583.7 16490.2 211188.65 16793.6 Q 211643.75 17058.15 211947.15 17589.1 Q 212250.55 18120.05 212250.55 18612.15 Q 212250.55 18954.4 211908.3 19048.75 Q 211567.9 19143.1 210659.55 19180.1 Q 208992.7 19294.8 207817.95 19446.5 Q 207817.95 20354.85 207779.1 20848.8 Q 210393.15 20545.4 211606.75 20317.85 Q 212590.95 20090.3 213197.75 20090.3 Q 213652.85 20090.3 213841.55 20242 Q 214940.45 20924.65 215471.4 22439.8 Q 215547.25 22743.2 215243.85 23026.25 Q 214940.45 23311.15 214372.5 23272.3 Q 213765.7 23235.3 212402.25 23235.3 Q 210317.3 23235.3 207590.4 23424 Q 207399.85 24258.35 206794.9 24750.45 Q 206946.6 24750.45 207475.7 24826.3 Q 208310.05 25015 209142.55 25508.95 Q 209976.9 26001.05 210544.85 26644.85 Q 210696.55 26796.55 210696.55 26985.25 Q 210696.55 27136.95 210526.35 27477.35 Q 210356.15 27819.6 210280.3 28047.15 Q 210089.75 28690.95 209749.35 30698.2 Q 209408.95 32705.45 209333.1 33880.2 Q 209181.4 34942.1 208139.85 35868.95 Q 207098.3 36797.65 205884.7 36797.65 Q 204937.5 36797.65 204293.7 35434.2 Q 201679.65 35510.05 196109.3 35868.95 Q 190540.8 36229.7 191791.4 36229.7 Q 190501.95 36229.7 189745.3 34183.6 Q 189669.45 34031.9 189669.45 33956.05 Q 189669.45 33576.8 190426.1 33539.8 Q 192814.45 33425.1 196412.7 33179.05 Q 200012.8 32933 202702.7 32744.3 L 204558.25 32553.75 Q 204748.8 31342 204861.65 30243.1 Q 204976.35 29144.2 204976.35 28500.4 Q 204976.35 27971.3 204293.7 28084.15 Q 201527.95 28311.7 197644.8 28690.95 Q 193761.65 29070.2 191943.1 29258.9 Q 191752.55 29295.9 191449.15 29295.9 Q 190540.8 29295.9 189972.85 28785.3 Q 189404.9 28272.85 188873.95 27327.5  Z M 191299.3 37744.85 Q 191184.6 37517.3 191184.6 37365.6 Q 191184.6 37025.2 191525 36949.35 Q 192548.05 36721.8 193419.4 36721.8 Q 194366.6 36721.8 195049.25 36949.35 Q 195313.8 37025.2 195635.7 37347.1 Q 195959.45 37669 196109.3 38011.25 Q 196527.4 39261.85 196886.3 39963 Q 197247.05 40662.3 198061.05 41383.8 Q 198875.05 42103.45 200316.2 42595.55 Q 201224.55 42898.95 202702.7 42898.95 Q 203611.05 42898.95 204482.4 42786.1 Q 205355.6 42671.4 205847.7 42482.7 Q 206036.4 42406.85 206151.1 42140.45 Q 206263.95 41875.9 206263.95 41687.2 Q 206300.95 41496.65 206300.95 41041.55 Q 206300.95 39866.8 206075.25 38011.25 L 206075.25 37859.55 Q 206075.25 37480.3 206339.8 37480.3 Q 206528.5 37480.3 206680.2 37744.85 Q 208953.85 40510.6 211340.35 42027.6 Q 212363.4 42708.4 212363.4 43579.75 Q 212363.4 44338.25 211530.9 45057.9 Q 210204.45 46080.95 207988.15 46648.9 Q 205771.85 47218.7 203385.35 47218.7 Q 201907.2 47218.7 200580.75 46991.15 Q 197587.45 46423.2 195826.25 45172.6 Q 194065.05 43922 193288.05 42556.7 Q 192511.05 41193.25 191828.4 39186 Q 191375.15 37896.55 191299.3 37744.85  Z M 191600.85 30925.75 Q 191449.15 30585.35 191658.2 30413.3 Q 191867.25 30243.1 192814.45 30167.25 Q 193458.25 30054.4 197132.35 29675.15 Q 199748.25 29447.6 201072.85 29258.9 Q 201376.25 29220.05 201642.65 29164.55 Q 201907.2 29107.2 202171.75 29107.2 Q 202551 29107.2 202891.4 29410.6 Q 203612.9 30017.4 203990.3 30698.2 Q 204142 31077.45 203914.45 31323.5 Q 203686.9 31569.55 203006.1 31569.55 Q 202210.6 31569.55 198516.15 31909.95 Q 194821.7 32252.2 194102.05 32365.05 L 193306.55 32440.9 Q 192851.45 32440.9 192435.2 32024.65 Q 192170.65 31721.25 191980.1 31436.35 Q 191791.4 31153.3 191600.85 30925.75  Z M 209445.95 37064.05 Q 209181.4 36873.5 209181.4 36684.8 Q 209181.4 36418.4 209712.35 36266.7 Q 210811.25 35965.15 211871.3 35965.15 Q 213234.75 35965.15 214333.65 36418.4 Q 215356.7 36797.65 215926.5 37613.5 Q 216494.45 38427.5 216494.45 39411.7 Q 216494.45 40094.35 216152.2 40738.15 Q 215811.8 41381.95 215168 41800.05 Q 214712.9 42140.45 214257.8 42140.45 Q 213538.15 42140.45 212894.35 41269.1 L 212211.7 40284.9 Q 211379.2 39071.3 210790.9 38333.15 Q 210204.45 37593.15 209445.95 37064.05  Z M 225437.35 39602.25 Q 224943.4 39602.25 224338.45 38864.1 Q 223731.65 38124.1 223295.05 36969.7 Q 222860.3 35813.45 222860.3 34714.55 Q 222860.3 34298.3 222897.3 34107.75 Q 223012 32403.9 223012 28197 Q 223012 23803.25 222860.3 19994.1 Q 222708.6 16186.8 222368.2 14747.5 Q 222253.5 14407.1 222253.5 14103.7 Q 222253.5 13421.05 222897.3 13421.05 Q 223959.2 13421.05 224791.7 13705.95 Q 225626.05 13989 226534.4 14634.65 Q 227292.9 14634.65 228315.95 14444.1 Q 229527.7 14140.7 230058.65 13970.5 Q 230589.6 13800.3 230967 13535.75 Q 231270.4 13269.35 231592.3 13062.15 Q 231914.2 12853.1 232217.6 12853.1 Q 232445.15 12853.1 232711.55 13004.8 Q 234263.7 13913.15 234831.65 14710.5 Q 235098.05 15050.9 235268.25 15315.45 Q 235438.45 15581.85 235438.45 15807.55 Q 235438.45 16073.95 235249.75 16414.35 Q 234985.2 16830.6 234889 17285.7 Q 234794.65 17740.8 234737.3 18366.1 Q 234681.8 18991.4 234681.8 19218.95 Q 234642.95 19786.9 234642.95 21945.85 Q 234642.95 24106.65 234718.8 28727.95 L 234757.65 33691.5 Q 234757.65 35245.5 234472.75 35889.3 Q 234187.85 36533.1 233166.65 37367.45 Q 232028.9 38464.5 231309.25 38464.5 Q 230817.15 38464.5 230513.75 37859.55 Q 230323.2 37517.3 230191.85 37082.55 Q 230058.65 36645.95 229945.8 36381.4 Q 228428.8 36381.4 227141.2 36571.95 Q 226989.5 37972.4 226534.4 38767.9 Q 226081.15 39563.4 225437.35 39602.25  Z M 226989.5 27099.95 L 227975.55 26872.4 Q 228428.8 26757.7 228732.2 26757.7 Q 229224.3 26757.7 229566.55 27212.8 Q 229869.95 27516.2 230040.15 27799.25 Q 230210.35 28084.15 230362.05 28424.55 L 230362.05 26909.4 L 230362.05 23879.1 Q 230097.5 24030.8 229679.4 24067.8 Q 228467.65 24219.5 226989.5 24484.05 L 226989.5 27099.95 Z M 226989.5 21490.75 Q 227596.3 21416.75 227860.85 21340.9 Q 228315.95 21226.2 228619.35 21226.2 Q 229150.3 21226.2 229490.7 21605.45 Q 229831.1 22021.7 230001.3 22288.1 Q 230173.35 22552.65 230362.05 23007.75 L 230286.2 18575.15 Q 230286.2 18005.35 229794.1 18005.35 Q 229414.85 18005.35 228656.35 18232.9 Q 228467.65 18271.75 228182.75 18347.6 Q 227899.7 18423.45 227557.45 18460.45 L 227065.35 18460.45 Q 227026.5 18839.7 227026.5 19975.6 L 226989.5 21490.75 Z M 227065.35 33199.4 Q 228808.05 32971.85 230286.2 32971.85 Q 230362.05 31153.3 230362.05 29523.45 L 229755.25 29638.15 Q 228467.65 29789.85 227026.5 30054.4 L 227065.35 33199.4 Z M 234718.8 42064.6 Q 234530.1 41724.2 234530.1 41381.95 Q 234530.1 40928.7 235022.2 40701.15 Q 235173.9 40625.3 235629 40358.9 Q 236082.25 40094.35 236385.65 39583.75 Q 236689.05 39071.3 236726.05 38238.8 Q 237068.3 31760.1 237068.3 25355.4 Q 237068.3 14975.05 236006.4 12285.15 L 235930.55 11981.75 Q 235930.55 11717.2 236139.6 11602.5 Q 236348.65 11489.65 236726.05 11526.65 Q 236953.6 11602.5 237560.4 11678.35 Q 239075.55 11981.75 239946.9 12266.65 Q 240818.25 12549.7 241121.65 12965.95 Q 241425.05 13384.05 241462.05 13837.3 Q 243091.9 13535.75 245119.5 12947.45 Q 247145.25 12361 247713.2 11905.9 Q 247903.75 11717.2 248244.15 11717.2 Q 248547.55 11717.2 248926.8 11905.9 Q 249154.35 12057.6 249855.5 12455.35 Q 250554.8 12853.1 251028.4 13232.35 Q 251502 13611.6 251768.4 13989 Q 252260.5 14519.95 252260.5 15126.75 Q 252260.5 15239.6 252184.65 15543 Q 252108.8 15733.55 251844.25 16338.5 Q 251577.85 16945.3 251428 17664.95 Q 251124.6 18952.55 250802.7 20980.15 Q 250480.8 23007.75 250366.1 24258.35 Q 250290.25 25129.7 249740.8 25943.7 Q 249191.35 26757.7 248434.7 27270.15 Q 247676.2 27780.75 247069.4 27780.75 Q 246540.3 27780.75 246236.9 27364.5 L 246009.35 27099.95 Q 245668.95 27099.95 245138 27173.95 L 246464.45 29410.6 L 247335.8 30849.9 Q 250821.2 27553.2 251161.6 26001.05 Q 251200.45 25773.5 251352.15 25734.65 Q 251502 25697.65 251653.7 25810.5 Q 252715.6 26454.3 253511.1 27249.8 Q 254306.6 28047.15 254495.3 28463.4 Q 254798.7 28879.65 254798.7 29258.9 Q 254798.7 30015.55 253699.8 30509.5 Q 250517.8 31645.4 248207.15 32137.5 Q 253131.85 39715.1 257111.2 41004.55 Q 257488.6 41117.4 257603.3 41381.95 Q 257716.15 41648.35 257488.6 41761.2 Q 255366.65 42708.4 252449.2 43579.75 Q 251844.25 43770.3 251200.45 43770.3 Q 250253.25 43770.3 249627.95 43257.85 Q 249002.65 42747.25 248358.85 41685.35 Q 247940.75 40965.7 247202.6 39298.85 Q 246464.45 37632 245668.95 35737.6 Q 243280.6 30091.4 242068.85 27704.9 L 241121.65 27932.45 Q 240969.95 35585.9 240969.95 37820.7 Q 240969.95 38087.1 241310.35 37972.4 Q 243887.4 36836.5 244871.6 36268.55 Q 245062.15 36153.85 245250.85 36153.85 Q 245593.1 36153.85 245593.1 36457.25 Q 245593.1 36608.95 245441.4 36797.65 Q 244797.6 37556.15 243432.3 39071.3 Q 240365 42556.7 239075.55 44223.55 Q 238355.9 45209.6 237712.1 45209.6 Q 237295.85 45209.6 236953.6 44869.2 Q 236272.8 44186.55 235608.65 43372.55 Q 234946.35 42556.7 234718.8 42064.6  Z M 241425.05 24559.9 Q 242827.35 24258.35 244986.3 24030.8 L 245554.25 23840.25 Q 245933.5 23727.4 246103.7 23499.85 Q 246273.9 23272.3 246349.75 22741.35 Q 246501.45 21681.3 246634.65 19844.25 Q 246766 18005.35 246766 16566.05 Q 246766 16186.8 246653.15 16055.45 Q 246540.3 15922.25 246236.9 15998.1 L 241349.2 16793.6 L 241310.35 19143.1 Q 241804.3 19028.4 243735.7 18725 Q 244266.65 18649.15 244418.35 18649.15 Q 244721.75 18649.15 244986.3 18800.85 Q 245402.55 19104.25 245572.75 19370.65 Q 245744.8 19635.2 245933.5 20166.15 Q 246085.2 20543.55 246085.2 20695.25 Q 246085.2 21416.75 244758.75 21529.6 L 241917.15 21833 Q 241537.9 21870 241234.5 21833 L 241158.65 24598.75 L 241425.05 24559.9 Z M 278402.85 31268 Q 277646.2 30964.6 276906.2 30093.25 Q 276168.05 29221.9 276168.05 28008.3 L 276129.2 26909.4 Q 275903.5 22628.5 275618.6 19616.7 Q 275333.7 16604.9 274689.9 15467.15 Q 274538.2 15126.75 274860.1 14766 Q 275182 14407.1 275712.95 14218.4 Q 275864.65 14179.55 276243.9 14179.55 Q 277266.95 14179.55 278554.55 14616.15 Q 279842.15 15050.9 280336.1 15543 Q 280524.8 15733.55 280524.8 15733.55 Q 282306.35 15278.45 284389.45 14577.3 Q 286472.55 13876.15 286890.65 13572.75 Q 287269.9 13308.2 287571.45 13308.2 Q 287913.7 13308.2 288217.1 13459.9 Q 289201.3 13800.3 290622.1 14616.15 Q 292042.9 15430.15 292610.85 15998.1 Q 293028.95 16453.2 293028.95 16945.3 Q 293028.95 17248.7 292838.4 17740.8 Q 292270.45 18954.4 291702.5 25281.4 Q 291626.65 26569 290944 27838.1 Q 290261.35 29107.2 289314.15 29751 Q 288481.65 30320.8 287950.7 30320.8 Q 287231.05 30320.8 286700.1 29334.75 L 286398.55 28615.1 Q 283556.95 28918.5 281207.45 29334.75 Q 281207.45 30320.8 280752.35 30870.25 Q 280297.25 31419.7 279425.9 31419.7 Q 278894.95 31419.7 278402.85 31268  Z M 258398.8 26038.05 Q 258171.25 25621.8 258171.25 25357.25 Q 258171.25 24826.3 258815.05 24789.3 Q 260748.3 24485.9 262907.25 23670.05 Q 265066.2 22856.05 265937.55 22249.25 Q 266431.5 21871.85 266960.6 21871.85 Q 267151.15 21871.85 267604.4 22023.55 Q 268438.75 22325.1 269310.1 22874.55 Q 270181.45 23424 270825.25 24067.8 Q 271356.2 24561.75 271356.2 25015 Q 271356.2 25433.1 270976.95 25849.35 Q 270372 26720.7 270144.45 28008.3 Q 269878.05 29638.15 269613.5 32291.05 L 269385.95 34146.6 Q 269348.95 34413 269613.5 34261.3 Q 271128.65 32896 273287.6 30849.9 Q 273439.3 30698.2 273629.85 30698.2 Q 273818.55 30698.2 273912.9 30870.25 Q 274009.1 31040.45 273894.4 31305 Q 270825.25 37974.25 267075.3 43239.35 Q 266657.2 43922 265824.7 43922 Q 265408.45 43922 265105.05 43770.3 Q 264461.25 43391.05 263362.35 42443.85 Q 262263.45 41496.65 261771.35 40891.7 Q 261316.25 40436.6 261316.25 40057.35 Q 261316.25 39641.1 261921.2 39298.85 Q 263741.6 38542.2 264043.15 37328.6 Q 264461.25 35093.8 264762.8 32328.05 Q 265066.2 29562.3 265142.05 27555.05 Q 265142.05 27403.35 265123.55 27346 Q 265105.05 27288.65 264990.35 27327.5 Q 263854.45 27592.05 262263.45 28350.55 Q 261619.65 28615.1 261125.7 28615.1 Q 260709.45 28615.1 260406.05 28463.4 Q 259725.25 28123 258398.8 26038.05  Z M 264270.7 12324 Q 264233.7 12209.3 264233.7 12020.6 Q 264233.7 11526.65 264725.8 11526.65 Q 265066.2 11489.65 265748.85 11489.65 Q 268174.2 11489.65 269632 12324 Q 271091.65 13156.5 271091.65 15050.9 Q 271091.65 15506 271052.8 15770.55 Q 270636.55 18081.2 268930.85 18915.55 Q 268779.15 18991.4 268401.75 18991.4 Q 267643.25 18991.4 267264 18499.3 Q 265710 16186.8 264270.7 12324  Z M 271204.5 44565.8 Q 272340.4 43466.9 273818.55 41344.95 Q 275296.7 39223 276432.6 37064.05 Q 277570.35 34905.1 277797.9 33578.65 Q 277947.75 32403.9 278669.25 32403.9 Q 278857.95 32403.9 279464.75 32631.45 Q 280108.55 32896 281016.9 33560.15 Q 281927.1 34222.45 282419.2 34829.25 Q 282874.3 35434.2 282874.3 36155.7 Q 282874.3 36533.1 282722.6 36836.5 Q 281435 39413.55 278441.7 41933.25 Q 275448.4 44452.95 271963 45476 Q 271887.15 45513 271696.6 45513 Q 271432.05 45513 271223 45342.8 Q 271015.8 45172.6 271015.8 44945.05 Q 271015.8 44756.35 271204.5 44565.8  Z M 280563.65 19598.2 Q 280639.5 22743.2 280865.2 25736.5 Q 282646.75 25584.8 286472.55 24978 Q 286700.1 22173.4 286700.1 18726.85 Q 286700.1 18232.9 286359.7 18271.75 Q 286019.3 18271.75 284086.05 18915.55 Q 281927.1 19674.05 281168.6 19749.9 Q 280865.2 19749.9 280563.65 19598.2  Z M 285601.2 34185.45 Q 285488.35 33957.9 285488.35 33806.2 Q 285488.35 33351.1 286208 33351.1 Q 286511.4 33351.1 286663.1 33389.95 Q 288557.5 33919.05 290716.45 35434.2 Q 292877.25 36951.2 293633.9 38125.95 Q 294164.85 38958.45 294164.85 40020.35 Q 294164.85 41156.25 293576.55 42140.45 Q 292990.1 43126.5 292194.6 43581.6 Q 291587.8 43885 291095.7 43885 Q 290072.65 43885 289580.55 42710.25 Q 288897.9 40815.85 287647.3 38087.1 Q 286398.55 35360.2 285601.2 34185.45  Z M 303220.6 42974.8 Q 302993.05 43087.65 302689.65 43087.65 Q 302349.25 43087.65 302158.7 42935.95 Q 301627.75 42405 300530.7 40360.75 Q 300340.15 40018.5 300340.15 39715.1 Q 300340.15 39374.7 300549.2 39165.65 Q 300756.4 38958.45 300832.25 38882.6 Q 301135.65 38466.35 301250.35 38162.95 Q 301363.2 37859.55 301402.05 37176.9 Q 301514.9 35585.9 301514.9 34487 Q 301514.9 33084.7 301344.7 31797.1 Q 301174.5 30509.5 300643.55 27780.75 L 300643.55 27553.2 Q 300643.55 26833.55 301287.35 26833.55 Q 302386.25 26833.55 303694.2 27270.15 Q 305000.3 27704.9 305416.55 28272.85 Q 305719.95 28615.1 305719.95 29410.6 Q 305719.95 29751 305644.1 30888.75 L 305607.1 33236.4 Q 305607.1 34298.3 305531.25 38011.25 Q 308145.3 37595 314168.9 37006.7 Q 320194.35 36420.25 322277.45 36420.25 Q 323263.5 36420.25 323944.3 36873.5 Q 324323.55 33691.5 324284.7 29107.2 Q 324284.7 28842.65 324210.7 28008.3 Q 324059 26378.45 324059 26302.6 L 324059 26228.6 Q 324059 25621.8 325082.05 25621.8 Q 326330.8 25621.8 327298.35 26001.05 Q 328264.05 26378.45 329096.55 26909.4 Q 329967.9 27553.2 329967.9 28500.4 Q 329967.9 28727.95 329893.9 29183.05 Q 329399.95 32516.75 329248.25 36836.5 Q 329248.25 37176.9 329172.4 38503.35 Q 329096.55 39829.8 328944.85 40852.85 Q 328756.15 42292.15 327353.85 42974.8 Q 325953.4 43655.6 324399.4 43655.6 Q 323831.45 43655.6 323452.2 42974.8 Q 323072.95 42292.15 323072.95 41420.8 Q 323072.95 41041.55 323224.65 40510.6 Q 322580.85 40473.6 321254.4 40473.6 Q 317654.3 40473.6 313354.9 40928.7 Q 309053.65 41381.95 305986.35 41912.9 Q 304811.6 42064.6 304071.6 42480.85 Q 303333.45 42898.95 303220.6 42974.8  Z M 303144.75 16830.6 Q 302954.2 16377.35 302954.2 16149.8 Q 302954.2 15618.85 303712.7 15543 Q 305986.35 15391.3 312786.95 14310.9 Q 319587.55 13232.35 322088.75 12664.4 Q 322542 12588.55 322617.85 12588.55 Q 323224.65 12588.55 323565.05 13004.8 Q 324096 13535.75 324305.05 13857.65 Q 324512.25 14179.55 324930.35 15126.75 Q 325082.05 15430.15 325082.05 15883.4 Q 325082.05 16338.5 324854.5 16678.9 Q 324626.95 17021.15 324284.7 17021.15 Q 323565.05 17021.15 323185.8 16982.3 L 321633.65 16945.3 Q 318943.75 16945.3 314131.9 17664.95 Q 309320.05 18384.6 306478.45 19370.65 Q 306138.05 19483.5 305795.8 19483.5 Q 305492.4 19483.5 305190.85 19294.8 Q 304772.75 19143.1 304186.3 18460.45 Q 303598 17777.8 303144.75 16830.6  Z M 306099.2 21870 Q 305986.35 21642.45 305986.35 21377.9 Q 305986.35 20771.1 306933.55 20771.1 Q 308485.7 20771.1 309775.15 21302.05 L 309925 21416.75 Q 312426.2 21150.35 314908.9 20676.75 Q 317389.75 20203.15 318488.65 19672.2 Q 318829.05 19520.5 319132.45 19520.5 Q 319397 19520.5 319852.1 19672.2 Q 321481.95 20203.15 322960.1 21529.6 Q 323300.5 21833 323300.5 22173.4 Q 323300.5 22400.95 323185.8 22685.85 Q 323072.95 22968.9 323034.1 23159.45 Q 322732.55 24295.35 322429.15 31645.4 Q 322353.3 33123.55 321594.8 34240.95 Q 320838.15 35358.35 319548.7 35510.05 Q 319095.45 35585.9 318847.55 35397.2 Q 318601.5 35206.65 318355.45 34884.75 Q 318109.4 34562.85 317957.7 34374.15 Q 317617.3 33956.05 317426.75 33806.2 Q 314851.55 33806.2 311138.6 34259.45 Q 311099.75 35282.5 310115.55 35926.3 Q 309888 36002.15 309775.15 36002.15 Q 309320.05 36002.15 308770.6 35661.75 Q 308221.15 35321.35 307993.6 34979.1 Q 307653.2 34562.85 307577.35 34107.75 Q 307501.5 33654.5 307501.5 33293.75 Q 307501.5 32933 307501.5 32859 Q 307501.5 31872.95 307216.6 28955.5 Q 306931.7 26038.05 306515.45 23311.15 Q 306478.45 23120.6 306099.2 21870  Z M 310343.1 26454.3 Q 311442 26378.45 312766.6 26228.6 Q 312729.6 25205.55 312577.9 23499.85 L 310115.55 23879.1 L 310343.1 26454.3 Z M 310570.65 28766.8 Q 310646.5 29675.15 310874.05 31417.85 L 312805.45 31190.3 L 312805.45 28766.8 L 312161.65 28879.65 Q 311669.55 28994.35 311290.3 28994.35 Q 310874.05 28994.35 310570.65 28766.8  Z M 316102.15 28348.7 Q 316102.15 29410.6 316178 30849.9 Q 316631.25 30774.05 316897.65 30774.05 L 317125.2 30774.05 Q 317541.45 30774.05 317996.55 30964.6 Q 318148.25 29031.35 318185.25 28197 Q 316821.8 28272.85 316102.15 28348.7  Z M 316329.7 25621.8 Q 317086.35 25431.25 317426.75 25431.25 Q 317844.85 25431.25 318185.25 25621.8 L 318185.25 23651.55 Q 318185.25 22893.05 317541.45 22893.05 L 316290.85 22968.9 Q 316329.7 23083.6 316329.7 23311.15 Q 316329.7 23688.55 316290.85 23916.1 L 316178 25658.8 L 316329.7 25621.8 Z " fill-rule="nonzero" style="fill:#333333;;fill-opacity:1;"/>
</svg>