<svg version="1.1" x="0" y="0" width="100%" height="100%" viewBox="0 0 816384 76390.4" xmlns="http://www.w3.org/2000/svg">
  <path d="M 10700.8 10221.1 Q 9924.7 13017.4 8215.2 16063.3 Q 7808.3 16778.3 7350.7 17477.7 Q 5433.2 20465.1 2713.6 22707.6 L 2926.8 22974.1 Q 6747.5 21202.2 9390.4 18470.9 Q 9679 18179.7 9953.3 17884.6 Q 12471.4 15096.1 13868.9 12245.2 Q 14357.7 12262.1 14587.8 12138.6 Q 14817.9 12015.1 14907.6 11792.8 L 10700.8 10221.1 Z M 19406.9 21164.5 L 6547.3 21164.5 L 6786.5 21936.7 L 11499 21936.7 Q 11449.6 24099.9 10771 26463.3 Q 10240.6 28230 8969.2 30021.4 Q 7301.3 32419.9 3618.4 34715.7 L 3912.2 35088.8 Q 8462.2 33236.3 10778.8 30976.9 Q 12870.5 28950.2 13753.2 26770.1 Q 14723 24339.1 14933.6 21936.7 L 19673.4 21936.7 Q 19478.4 25962.8 19114.4 28435.4 Q 18749.1 30909.3 18155 31441 Q 17856 31733.5 17196.9 31707.5 Q 16652.2 31702.3 15443.2 31626.9 Q 14234.2 31552.8 13150 31467 L 13150 31814.1 Q 14122.4 31997.4 14894.6 32296.4 Q 15666.8 32595.4 16078.9 32958.1 Q 16413 33284.4 16541.7 33830.4 Q 16670.4 34376.4 16665.2 35061.5 Q 17967.8 35064.1 18860.9 34792.4 Q 19754 34520.7 20418.3 33943.5 Q 21499.9 33080.3 22045.9 30248.9 Q 22593.2 27418.8 22814.2 22442.4 Q 23620.2 22315 23906.2 21990 L 21083.9 19539.5 L 19406.9 21164.5 Z M 17889.8 9875.3 L 17623.3 10009.2 Q 18591.8 14729.5 20597.7 17882 Q 22604.9 21035.8 25770.4 23001.4 Q 26072 22077.1 26738.9 21307.5 Q 27404.5 20537.9 28166.3 20232.4 L 28245.6 19912.6 Q 25299.8 18767.3 22837.6 16704.2 Q 20376.7 14641.1 19007.8 11978.7 Q 19712.4 11174 20019.2 10568.2 L 17889.8 9875.3 Z M 36712.5 17196.9 L 40386.3 17196.9 Q 40966.1 17203.4 41105.2 16770.5 Q 40409.7 16102.3 39611.5 15400.3 Q 39437.3 15246.9 39278.7 15106.5 Q 38549.4 14470.8 38496.1 14427.9 L 37058.3 16424.7 L 36712.5 16424.7 L 36712.5 11259.8 Q 37240.3 11179.2 37454.8 10984.2 Q 37668 10787.9 37697.9 10487.6 L 33677 10088.5 L 33677 16424.7 L 29683.4 16424.7 L 29896.6 17196.9 L 33357.2 17196.9 Q 32842.4 20253.2 31844 23180.8 Q 30844.3 26108.4 29311.6 28405.5 L 29604.1 28725.3 Q 32000 26681.7 33677 24119.4 L 33677 35035.5 L 34289.3 35035.5 Q 35192.8 35003 35929.9 34681.9 Q 36668.3 34360.8 36712.5 34129.4 L 36712.5 20258.4 Q 37227.3 21138.5 37608.2 22212.3 Q 37987.8 23286.1 38043.7 24305.3 Q 39038.2 25150.3 39861.1 24766.8 Q 40555.3 24448.3 40723 23607.2 Q 40889.4 22766.1 40157.5 21756 Q 39317.7 20569.1 36712.5 19673.4 L 36712.5 17196.9 Z M 50157.1 19673.4 L 44407.2 19673.4 L 44407.2 14295.3 Q 46549.6 14127.6 48636.1 13809.1 Q 50723.9 13491.9 52207.2 13124 Q 53491.6 13529.6 54018.1 13096.7 L 50504.2 10009.2 Q 49547.4 10768.4 48057.6 11682.3 Q 46567.8 12597.5 44992.2 13416.5 L 41344.4 12245.2 L 41344.4 20817.4 Q 41406.8 24213 40846.5 27521.5 Q 40739.9 28081.8 40603.4 28633 Q 39865 31892.1 37644.6 34662.4 L 37911.1 34982.2 Q 41076.6 33006.2 42468.9 30437.4 Q 43598.6 28393.8 43992.5 26212.4 Q 44464.4 23472 44407.2 20898 L 44407.2 20418.3 L 48000.4 20418.3 L 48000.4 35035.5 L 48586.7 35035.5 Q 49812.6 35001.7 50489.9 34709.2 Q 51167.2 34416.7 51195.8 34263.3 L 51195.8 20418.3 L 53832.2 20418.3 Q 54410.7 20424.8 54551.1 19993.2 Q 53789.3 19293.8 52948.2 18567.1 Q 52748 18394.2 52568.6 18239.5 Q 51808.1 17585.6 51754.8 17542.7 L 50157.1 19673.4 Z M 76409.3 32292.5 L 60780.7 32292.5 L 60780.7 17915.8 Q 61712.8 17749.4 61766.1 17143.6 L 57772.5 16744.5 L 57772.5 31946.7 Q 57166.7 32339.3 56759.8 32772.2 L 59955.2 34449.2 L 60940.6 33064.7 L 76409.3 33064.7 L 76409.3 34982.2 L 76994.3 34982.2 Q 77879.6 34949.7 78625.8 34628.6 Q 79370.7 34307.5 79417.5 34076.1 L 79417.5 17729.9 Q 79906.3 17649.3 80100 17473.8 Q 80293.7 17298.3 80322.3 17037 L 76409.3 16665.2 L 76409.3 32292.5 Z M 69885.9 28166.3 L 69885.9 22468.4 L 71856.7 22468.4 L 71856.7 28166.3 L 69885.9 28166.3 Z M 65306 22468.4 L 67330.1 22468.4 L 67330.1 28166.3 L 65306 28166.3 L 65306 22468.4 Z M 67330.1 16584.6 L 67330.1 21696.2 L 65306 21696.2 L 65306 16584.6 L 67330.1 16584.6 Z M 71856.7 16584.6 L 71856.7 21696.2 L 69885.9 21696.2 L 69885.9 16584.6 L 71856.7 16584.6 Z M 72309.1 30109.8 Q 73039.7 30081.2 73759.9 29803 Q 74480.1 29526.1 74572.4 29337.6 L 74572.4 16983.7 Q 75304.3 16791.3 75556.5 16478 L 72894.1 14427.9 L 71590.2 15839.7 L 65439.9 15839.7 L 62617.6 14641.1 L 62617.6 30536.2 L 63044 30536.2 Q 63935.8 30503.7 64604 30182.6 Q 65272.2 29861.5 65306 29630.1 L 65306 28938.5 L 71856.7 28938.5 L 71856.7 30109.8 L 72309.1 30109.8 Z M 76062.2 12458.4 L 56094.2 12458.4 L 56307.4 13203.3 L 80588.8 13203.3 Q 81181.6 13209.8 81333.7 12776.9 Q 80447.1 12043.7 79461.7 11293.6 Q 79130.2 11041.4 78842.9 10824.3 Q 77982.3 10179.5 77926.4 10141.8 L 76062.2 12458.4 Z M 102500.3 18022.4 L 102500.3 31974 L 99624.7 31974 L 99624.7 18022.4 L 102500.3 18022.4 Z M 87803.8 18022.4 L 90626.1 18022.4 L 90626.1 31974 L 87803.8 31974 L 87803.8 18022.4 Z M 96723.1 22095.3 L 93501.7 22095.3 L 93501.7 18022.4 L 96723.1 18022.4 L 96723.1 22095.3 Z M 93501.7 27793.2 L 96723.1 27793.2 L 96723.1 31974 L 93501.7 31974 L 93501.7 27793.2 Z M 93501.7 22841.5 L 96723.1 22841.5 L 96723.1 27021 L 93501.7 27021 L 93501.7 22841.5 Z M 102500.3 12591 L 82852.1 12591 L 83065.3 13337.2 L 92808.8 13337.2 Q 92726.9 14316.1 92619 15366.5 Q 92512.4 16416.9 92409.7 17277.5 L 88123.6 17277.5 L 84742.3 15999.6 L 84742.3 34875.6 L 85274 34875.6 Q 86463.5 34845.7 87127.8 34553.2 Q 87793.4 34259.4 87803.8 34050.1 L 87803.8 32718.9 L 102500.3 32718.9 L 102500.3 34662.4 L 103033.3 34662.4 Q 104264.4 34626 104972.9 34306.2 Q 105681.4 33986.4 105695.7 33810.9 L 105695.7 18314.9 Q 106166.3 18249.9 106427.6 18095.2 Q 106688.9 17940.5 106839.7 17755.9 L 103938.1 15466.6 L 102340.4 17277.5 L 93395.1 17277.5 Q 94289.5 16441.6 95248.9 15406.8 Q 96208.3 14372 97042.9 13337.2 L 106999.6 13337.2 Q 107592.4 13343.7 107745.8 12910.8 Q 106859.2 12191.9 105882.9 11439.2 Q 105554 11184.4 105269.3 10966 Q 104419.1 10314.7 104364.5 10274.4 L 102500.3 12591 Z M 123001.3 13975.5 Q 122673.7 14863.4 122212.2 15895.6 Q 121750.7 16927.8 121243.7 17755.9 L 116132.1 17755.9 L 114960.8 17303.5 Q 116571.5 15718.8 117862.4 13975.5 L 123001.3 13975.5 Z M 128032.3 18528.1 L 128032.3 24305.3 L 123319.8 24305.3 L 123319.8 18528.1 L 128032.3 18528.1 Z M 115786.3 18528.1 L 120311.6 18528.1 L 120311.6 24305.3 L 115786.3 24305.3 L 115786.3 18528.1 Z M 132505.6 27101.6 L 132213.1 27101.6 Q 131838.7 28219.6 131374.6 29258.3 Q 130909.2 30295.7 130534.8 30775.4 Q 130138.3 31222.6 129470.1 31364.3 Q 128803.2 31506 127607.2 31494.3 L 118342.1 31494.3 Q 116994 31506 116384.3 31225.2 Q 115775.9 30943.1 115786.3 30216.4 L 115786.3 25077.5 L 128032.3 25077.5 L 128032.3 26835.1 L 128538 26835.1 Q 129388.2 26803.9 130228 26508.8 L 130264.4 26495.8 Q 131093.8 26198.1 131174.4 26009.6 L 131174.4 19087.1 Q 132046.7 18873.9 132319.7 18502.1 L 129203.6 16132.2 L 127739.8 17755.9 L 121962.6 17755.9 Q 123200.2 17052.6 124378 16138.7 Q 125557.1 15224.8 126435.9 14401.9 Q 127247.1 14355.1 127500.6 14028.8 L 124597.7 11526.3 L 122948 13203.3 L 118421.4 13203.3 Q 119067.5 12285.5 119592.7 11366.4 Q 120119.2 11388.5 120341.5 11296.2 Q 120563.8 11203.9 120631.4 10967.3 L 116264.7 9902.6 Q 115367.7 12559.8 113772.6 15310.6 Q 113294.2 16134.8 112772.9 16922.6 Q 111040 19559 109103 21350.4 L 109342.2 21589.6 Q 111080.3 20651 112697.5 19353.6 L 112697.5 30135.8 Q 112687.1 32570.7 114098.9 33517.1 Q 115510.7 34464.8 118474.7 34423.2 L 127899.7 34423.2 Q 131395.4 34414.1 132795.5 33908.4 Q 133117.9 33799.2 133362.3 33669.2 Q 134410.1 33068.6 134342.5 32106.6 Q 134356.8 31629.5 133946 31381.2 Q 133536.5 31132.9 132531.6 30854.7 L 132505.6 27101.6 Z M 149917.8 18342.2 Q 152495.7 17416.6 154943.6 16032.1 Q 157390.2 14647.6 159449.4 12883.5 Q 159899.2 12983.6 160144.9 12927.7 Q 160390.6 12871.8 160540.1 12671.6 L 156893.6 10355 Q 155392.1 12643 153591.6 14581.3 Q 151791.1 16519.6 149731.9 17969.1 L 149917.8 18342.2 Z M 149864.5 25344 Q 152656.9 24385.9 155189.3 22864.9 Q 157721.7 21342.6 159795.2 19247 Q 160246.3 19310.7 160486.8 19253.5 Q 160728.6 19197.6 160859.9 18980.5 L 157053.5 16744.5 Q 154124.6 21975.7 149678.6 24970.9 L 149864.5 25344 Z M 145551.1 19939.9 Q 146701.6 19248.3 147818.3 18231.7 Q 148933.7 17216.4 149864.5 16025.6 Q 150716 16112.7 150929.2 15599.2 L 147255.4 14082.1 Q 146844.6 15631.7 146303.8 17130.6 Q 145763 18629.5 145231.3 19699.4 L 145551.1 19939.9 Z M 147628.5 10009.2 Q 145991.8 10889.3 143443.8 11824 Q 142607.9 12129.5 141725.2 12418.1 Q 139039.4 13304.7 136445.9 13842.9 L 136525.2 14214.7 Q 139720.6 14183.5 142942 13836.4 Q 143195.5 13809.1 143447.7 13780.5 Q 146635.3 13413.9 148985.7 12883.5 Q 150270.1 13350.2 150716 12936.8 L 147628.5 10009.2 Z M 140838.6 14534.5 Q 141375.5 15358.7 141727.8 16471.5 Q 142078.8 17584.3 142037.2 18688 Q 142978.4 19478.4 143763.6 19075.4 Q 144388.9 18760.8 144565.7 17999 Q 144743.8 17237.2 144166.6 16333.7 Q 143471.1 15205.3 141105.1 14374.6 L 140838.6 14534.5 Z M 136738.4 15146.8 Q 137259.7 15989.2 137630.2 17126.7 Q 138002 18264.2 137963 19406.9 Q 138912 20216.8 139705 19817.7 Q 140340.7 19504.4 140518.8 18728.3 Q 140698.2 17952.2 140105.4 17024 Q 139395.6 15873.5 137004.9 15014.2 L 136738.4 15146.8 Z M 145178 23693 L 150263.6 23693 Q 150862.9 23699.5 150982.5 23267.9 Q 150235 22621.8 149396.5 21936.7 Q 149204.1 21779.4 149029.9 21637.7 Q 148266.8 21018.9 148213.5 20977.3 L 146696.4 22948.1 L 145178 22948.1 L 145178 20764.1 Q 146037.3 20597.7 146056.8 20072.5 L 142116.5 19699.4 L 142116.5 22948.1 L 136366.6 22948.1 L 136578.5 23693 L 141025.8 23693 Q 140248.4 26165.6 138941.9 28501.7 Q 137635.4 30839.1 135780.3 32612.3 L 136046.8 32932.1 Q 139740.1 30854.7 142116.5 27820.5 L 142116.5 35061.5 L 142702.8 35061.5 Q 143590.7 35032.9 144360.3 34735.2 Q 145128.6 34437.5 145178 34210 L 145178 25717.1 Q 146006.1 26616.7 146722.4 27767.2 Q 147440 28916.4 147707.8 30056.5 Q 148866.1 30775.4 149661.7 30274.9 Q 150383.2 29825.1 150397.5 28861.8 Q 150410.5 27898.5 149327.6 26906.6 Q 148149.8 25813.3 145178 25290.7 L 145178 23693 Z M 157372 24226 Q 155640.4 27932.3 153258.8 30466 Q 150877.2 32999.7 147788.4 34688.4 L 147921 35061.5 Q 151762.5 33951.3 154820.1 31912.9 Q 157877.7 29874.5 160300.9 26568.6 Q 161199.2 26688.2 161418.9 26248.8 L 157372 24226 Z M 180322.2 19806 L 180322.2 23161.3 L 171669.4 23161.3 L 171669.4 19806 L 180322.2 19806 Z M 171669.4 27340.8 L 171669.4 23933.5 L 180322.2 23933.5 L 180322.2 27340.8 L 171669.4 27340.8 Z M 182239.7 14481.2 L 174171.9 14481.2 Q 174897.3 13117.5 175423.8 11792.8 Q 175952.9 11788.9 176181.7 11645.9 Q 176411.8 11502.9 176461.2 11259.8 L 172149.1 9955.9 Q 171596.6 12138.6 170604.7 14481.2 L 162937.3 14481.2 L 163149.2 15253.4 L 170284.9 15253.4 Q 168987.5 18123.8 167046.6 20784.9 Q 165105.7 23446 162510.9 25476.6 L 162750.1 25743.1 Q 166058.6 24159.7 168527.3 21856.1 L 168527.3 34982.2 L 169113.6 34982.2 Q 170304.4 34943.2 170980.4 34596.1 Q 171656.4 34247.7 171669.4 34050.1 L 171669.4 28113 L 180322.2 28113 L 180322.2 30908 Q 180382 31454 179763.2 31441 Q 179349.8 31437.1 178398.2 31390.3 Q 177802.8 31360.4 177262 31331.8 Q 176396.2 31285 176328.6 31281.1 L 176328.6 31626.9 Q 177330.9 31805 177873 32072.8 Q 178415.1 32340.6 178698.5 32718.9 Q 179290 33431.3 179364.1 34982.2 Q 181839.3 34757.3 182667.4 33937 Q 182801.3 33813.5 182909.2 33677 Q 183557.9 32768.3 183490.3 31281.1 L 183490.3 20392.3 Q 184422.4 20185.6 184714.9 19780 L 181520.8 17330.8 L 180029.7 19033.8 L 171989.2 19033.8 L 171376.9 18794.6 Q 172721.1 17064.3 173746.8 15253.4 L 186685.7 15253.4 Q 187317.5 15259.9 187430.6 14827 Q 186580.4 14095.1 185617.1 13338.5 Q 185286.9 13077.2 185000.9 12854.9 Q 184158.5 12203.6 184102.6 12164.6 L 182239.7 14481.2 Z M 194246.5 10009.2 Q 193408 13892.3 191963.7 17464.7 Q 191914.3 17589.5 191863.6 17714.3 Q 190405 21262 188761.8 23773.6 L 189081.6 23986.8 Q 190792.4 22647.8 192303 20870.7 L 192303 35035.5 L 192889.3 35035.5 Q 193847.4 35001.7 194606.6 34668.9 Q 195364.5 34336.1 195445.1 34103.4 L 195445.1 18714 Q 196164 18568.4 196243.3 18182.3 L 194672.9 17596 Q 196270.6 15033.7 197467.9 11872.1 Q 198380.5 11872.1 198532.6 11313.1 L 194246.5 10009.2 Z M 200582.7 25663.8 L 200582.7 18794.6 L 203351.7 18794.6 L 203351.7 25663.8 L 200582.7 25663.8 Z M 206201.3 19353.6 Q 207086.6 19107.9 207372.6 18741.3 L 204443.7 16478 L 203059.2 18022.4 L 200716.6 18022.4 L 197813.7 16851.1 L 197813.7 28831.9 L 198240.1 28831.9 Q 199138.4 28800.7 199840.4 28479.6 Q 200543.7 28157.2 200582.7 27927.1 L 200582.7 26436 L 203351.7 26436 L 203351.7 28326.2 L 203804.1 28326.2 Q 204595.8 28296.3 205352.4 28023.3 Q 206109 27749 206201.3 27580 L 206201.3 19353.6 Z M 209448.7 13495.8 L 197175.4 13495.8 L 197388.6 14242 L 208597.2 14242 L 208597.2 30988.6 Q 208637.5 31513.8 207957.6 31520.3 Q 207493.5 31516.4 206435.3 31467 Q 205591.6 31428 204841.5 31387.7 Q 203899 31338.3 203831.4 31334.4 L 203831.4 31680.2 Q 205026.1 31860.9 205661.8 32136.5 Q 206297.5 32412.1 206653.7 32772.2 Q 207345.3 33484.6 207398.6 35035.5 Q 209954.4 34836.6 210846.2 33940.9 Q 211030.8 33769.3 211171.2 33576.9 Q 211830.3 32566.8 211765.3 31095.2 L 211765.3 14242 L 213788.1 14242 Q 214400.4 14248.5 214534.3 13815.6 Q 213732.2 13075.9 212793.6 12279 Q 212434.8 11973.5 212126.7 11714.8 Q 211312.9 11034.9 211259.6 10993.3 L 209448.7 13495.8 Z M 221828.6 17862.5 Q 223552.4 15187.1 224917.4 11952.7 Q 225789.7 11965.7 225982.1 11419.7 L 221749.3 10009.2 Q 220763.9 13875.4 219200 17445.2 Q 219050.5 17787.1 218898.4 18123.8 Q 217300.7 21627.3 215573 24066.1 L 215891.5 24305.3 Q 217728.4 22948.1 219326.1 21111.2 L 219326.1 35035.5 L 219912.4 35035.5 Q 220870.5 35000.4 221629.7 34672.8 Q 222387.6 34343.9 222468.2 34129.4 L 222468.2 18927.2 Q 223200.1 18760.8 223293.7 18395.5 L 221828.6 17862.5 Z M 240306.8 16478 Q 240898.3 16484.5 241051.7 16051.6 Q 240226.2 15343.1 239300.6 14598.2 Q 239009.4 14364.2 238754.6 14160.1 Q 237936.9 13510.1 237883.6 13469.8 L 236126 15759.1 L 229869.1 15759.1 Q 230935.1 14028.8 231839.9 12058 Q 232744.7 12104.8 232931.9 11552.3 L 228644.5 10035.2 Q 227731.9 13545.2 226288.9 16805.6 Q 226222.6 16957.7 226155 17108.5 Q 224697.7 20340.3 223159.8 22602.3 L 223453.6 22814.2 Q 226814.1 20405.3 229416.7 16478 L 230056.3 16478 L 230056.3 35008.2 L 230641.3 35008.2 Q 231889.3 34974.4 232578.3 34666.3 Q 233267.3 34356.9 233277.7 34182.7 L 233277.7 27953.1 L 239773.8 27953.1 Q 240399.1 27959.6 240546 27526.7 Q 239703.6 26800 238771.5 26040.8 Q 238480.3 25801.6 238224.2 25594.9 Q 237405.2 24931.9 237350.6 24891.6 L 235567 27208.2 L 233277.7 27208.2 L 233277.7 22175.9 L 239268.1 22175.9 Q 239859.6 22182.4 240013 21749.5 Q 239204.4 21041 238315.2 20314.3 Q 238086.4 20127.1 237882.3 19960.7 Q 237085.4 19314.6 237030.8 19274.3 L 235407.1 21403.7 L 233277.7 21403.7 L 233277.7 16478 L 240306.8 16478 Z M 258809.7 12723.6 L 258809.7 18794.6 L 251142.3 18794.6 L 251142.3 12723.6 L 258809.7 12723.6 Z M 251142.3 19539.5 L 258809.7 19539.5 L 258809.7 21696.2 L 259342.7 21696.2 Q 260194.2 21663.7 261023.6 21355.6 L 261049.6 21345.2 Q 261872.5 21035.8 261951.8 20844.7 L 261951.8 13230.6 Q 262796.8 13030.4 263042.5 12671.6 L 260008.3 10355 L 258543.2 11952.7 L 251302.2 11952.7 L 248000.2 10647.5 L 248000.2 21936.7 L 248479.9 21936.7 Q 249501.7 21901.6 250299.9 21553.2 Q 251098.1 21204.8 251142.3 20951.3 L 251142.3 19539.5 Z M 246828.9 31334.4 L 246828.9 24332.6 L 250715.9 24332.6 L 250715.9 31334.4 L 246828.9 31334.4 Z M 250449.4 23560.4 L 246962.8 23560.4 L 243874 22335.8 L 243874 34795 L 244326.4 34795 Q 245287.1 34761.2 246037.2 34412.8 Q 246787.3 34064.4 246828.9 33810.9 L 246828.9 32106.6 L 250715.9 32106.6 L 250715.9 34316.6 L 251221.6 34316.6 Q 252035.4 34281.5 252834.9 33960.4 Q 252842.7 33956.5 252850.5 33953.9 Q 253646.1 33631.5 253724.1 33437.8 L 253724.1 24811 Q 254536.6 24625.1 254790.1 24279.3 L 251833.9 22042 L 250449.4 23560.4 Z M 259076.2 31334.4 L 259076.2 24332.6 L 263176.4 24332.6 L 263176.4 31334.4 L 259076.2 31334.4 Z M 264347.7 22016 L 262909.9 23560.4 L 259208.8 23560.4 L 256121.3 22335.8 L 256121.3 34822.3 L 256573.7 34822.3 Q 257551.3 34788.5 258293.6 34438.8 Q 259037.2 34090.4 259076.2 33836.9 L 259076.2 32106.6 L 263176.4 32106.6 L 263176.4 34449.2 L 263682.1 34449.2 Q 264498.5 34421.9 265322.7 34145 Q 265329.2 34143.7 265337 34141.1 Q 266156 33864.2 266237.9 33677 L 266237.9 24838.3 Q 267043.9 24618.6 267329.9 24279.3 L 264347.7 22016 Z M 283223.7 23799.6 L 283223.7 16691.2 L 289214.1 16691.2 L 289214.1 23799.6 L 283223.7 23799.6 Z M 273958.6 23799.6 L 273958.6 16691.2 L 279895.7 16691.2 L 279895.7 23799.6 L 273958.6 23799.6 Z M 290466 14268 L 288974.9 15919 L 283223.7 15919 L 283223.7 11259.8 Q 283752.8 11176.6 283966 10973.8 Q 284180.5 10771 284209.1 10487.6 L 279895.7 10088.5 L 279895.7 15919 L 274199.1 15919 L 270657.9 14534.5 L 270657.9 27208.2 L 271136.3 27208.2 Q 272203.6 27170.5 273056.4 26794.8 Q 273909.2 26419.1 273958.6 26142.2 L 273958.6 24571.8 L 279895.7 24571.8 L 279895.7 35035.5 L 280508 35035.5 Q 281516.8 34996.5 282344.9 34592.2 Q 283174.3 34189.2 283223.7 33890.2 L 283223.7 24571.8 L 289214.1 24571.8 L 289214.1 26807.8 L 289773.1 26807.8 Q 290627.2 26781.8 291503.4 26504.9 Q 291558 26489.3 291610 26472.4 Q 292461.5 26191.6 292542.1 26009.6 L 292542.1 17250.2 Q 293367.6 17037 293634.1 16665.2 L 290466 14268 Z M 313442.2 19806 L 313442.2 23161.3 L 304789.4 23161.3 L 304789.4 19806 L 313442.2 19806 Z M 304789.4 27340.8 L 304789.4 23933.5 L 313442.2 23933.5 L 313442.2 27340.8 L 304789.4 27340.8 Z M 315359.7 14481.2 L 307291.9 14481.2 Q 308017.3 13117.5 308543.8 11792.8 Q 309072.9 11788.9 309301.7 11645.9 Q 309531.8 11502.9 309581.2 11259.8 L 305269.1 9955.9 Q 304716.6 12138.6 303724.7 14481.2 L 296057.3 14481.2 L 296269.2 15253.4 L 303404.9 15253.4 Q 302107.5 18123.8 300166.6 20784.9 Q 298225.7 23446 295630.9 25476.6 L 295870.1 25743.1 Q 299178.6 24159.7 301647.3 21856.1 L 301647.3 34982.2 L 302233.6 34982.2 Q 303424.4 34943.2 304100.4 34596.1 Q 304776.4 34247.7 304789.4 34050.1 L 304789.4 28113 L 313442.2 28113 L 313442.2 30908 Q 313502 31454 312883.2 31441 Q 312469.8 31437.1 311518.2 31390.3 Q 310922.8 31360.4 310382 31331.8 Q 309516.2 31285 309448.6 31281.1 L 309448.6 31626.9 Q 310450.9 31805 310993 32072.8 Q 311535.1 32340.6 311818.5 32718.9 Q 312410 33431.3 312484.1 34982.2 Q 314959.3 34757.3 315787.4 33937 Q 315921.3 33813.5 316029.2 33677 Q 316677.9 32768.3 316610.3 31281.1 L 316610.3 20392.3 Q 317542.4 20185.6 317834.9 19780 L 314640.8 17330.8 L 313149.7 19033.8 L 305109.2 19033.8 L 304496.9 18794.6 Q 305841.1 17064.3 306866.8 15253.4 L 319805.7 15253.4 Q 320437.5 15259.9 320550.6 14827 Q 319700.4 14095.1 318737.1 13338.5 Q 318406.9 13077.2 318120.9 12854.9 Q 317278.5 12203.6 317222.6 12164.6 L 315359.7 14481.2 Z M 326088.6 15786.4 L 335353.7 15786.4 L 335353.7 12910.8 L 325049.9 12910.8 L 324411.6 22148.6 L 325183.8 22521.7 Q 326581.3 22075.8 328059.4 22069.3 Q 330018.5 22081 331144.3 23340.7 Q 332270.1 24600.4 332292.2 26967.7 Q 332272.7 29420.8 331153.4 30755.9 Q 330035.4 32089.7 328059.4 32106.6 Q 327140.3 32106.6 326461.7 31867.4 L 326009.3 29576.8 Q 325833.8 28491.3 325412.6 28029.8 Q 324992.7 27568.3 324277.7 27580 Q 323174 27573.5 322707.3 28646 Q 322980.3 30757.2 324490.9 31916.8 Q 326002.8 33076.4 328591.1 33092 Q 331919.1 33064.7 333928.9 31400.7 Q 335940 29736.7 335993.3 26754.5 Q 335955.6 23786.6 334122.6 22216.2 Q 332288.3 20644.5 329096.8 20631.5 Q 327300.2 20631.5 325742.8 21111.2 L 326088.6 15786.4 Z M 348550.7 17996.4 L 348550.7 35088.8 L 349163 35088.8 Q 350193.9 35056.3 351050.6 34719.6 Q 351906 34381.6 351959.3 34129.4 L 351959.3 19167.7 Q 352487.1 19084.5 352701.6 18880.4 Q 352914.8 18677.6 352944.7 18395.5 L 348550.7 17996.4 Z M 350814 12271.2 Q 352258.3 15924.2 354724.4 18767.3 Q 357191.8 21611.7 360612.1 23426.5 Q 360861.7 22461.9 361427.2 21616.9 Q 361992.7 20771.9 362982 20365 L 363034 19965.9 Q 359280.9 18763.4 356205.1 16691.2 Q 353130.6 14619 351213.1 11978.7 Q 351878.7 11902 352166 11746 Q 352452 11590 352518.3 11313.1 L 347778.5 10009.2 Q 346838.6 13021.3 344778.1 16184.2 Q 344031.9 17325.6 343166.1 18420.2 Q 340784.5 21453.1 337768.5 23639.7 L 337928.4 23933.5 Q 341647.7 22393 344603.9 19864.5 Q 345875.3 18792 346960.8 17635 Q 349491.9 14911.5 350814 12271.2  Z M 384520.4 17596 L 380872.6 17596 L 380872.6 11153.2 Q 381438.1 11053.1 381648.7 10856.8 Q 381858 10661.8 381884 10381 L 377651.2 10035.2 L 377651.2 17596 L 371980.6 17596 L 371980.6 11872.1 Q 372488.9 11790.2 372699.5 11599.1 Q 372908.8 11408 372938.7 11127.2 L 368891.8 10726.8 L 368891.8 20311.7 Q 368950.3 24098.6 368192.4 27611.2 Q 368070.2 28132.5 367920.7 28642.1 Q 366979.5 32078 364418.5 34769 L 364659 35008.2 Q 368120.9 33111.5 369736.8 30216.4 Q 371352.7 27321.3 371740.1 23906.2 L 379274.9 23906.2 L 379274.9 34982.2 L 379807.9 34982.2 Q 380629.5 34954.9 381479.7 34691 Q 381518.7 34679.3 381556.4 34667.6 Q 382388.4 34399.8 382470.3 34236 L 382470.3 24465.2 Q 383342.6 24232.5 383615.6 23880.2 L 380473.5 21510.3 L 378982.4 23134 L 371846.7 23134 Q 371974.1 21723.5 371980.6 20311.7 L 371980.6 18368.2 L 388646.6 18368.2 Q 389279.7 18374.7 389392.8 17943.1 Q 388606.3 17186.5 387693.7 16411.7 Q 387396 16156.9 387136 15937.2 Q 386331.3 15267.7 386278 15227.4 L 384520.4 17596 Z M 401719.4 21749.5 Q 404289.5 20600.3 405346.4 18998.7 Q 405924.9 18169.3 406213.5 17324.3 Q 406723.1 15692.8 406671.1 14401.9 L 406671.1 12883.5 L 409574 12883.5 L 409574 17969.1 Q 409523.3 19250.9 409913.3 19789.1 Q 410302 20327.3 411729.4 20311.7 L 412821.4 20311.7 Q 414527 20314.3 415304.4 19906.1 Q 416081.8 19497.9 416070.1 18662 Q 416076.6 18273.3 415882.9 18035.4 Q 415690.5 17797.5 415217.3 17570 L 415084.7 17489.4 L 414818.2 17489.4 Q 414538.7 17576.5 414259.2 17623.3 Q 413992.7 17655.8 413726.2 17649.3 L 413247.8 17649.3 L 412821.4 17649.3 Q 412428.8 17663.6 412475.6 17277.5 L 412475.6 13124 Q 413194.5 13004.4 413433.7 12723.6 L 410771.3 10568.2 L 409307.5 12111.3 L 407123.5 12111.3 L 403769.5 10914 L 403769.5 14401.9 Q 403822.8 16094.5 403417.2 17973 Q 403010.3 19850.2 401506.2 21483 L 401719.4 21749.5 Z M 402811.4 25529.9 Q 402310.9 25641.7 401814.3 25752.2 Q 399085.6 26372.3 396633.8 26861.1 L 396633.8 23373.2 L 401638.8 23373.2 Q 402238.1 23381 402357.7 22948.1 Q 401621.9 22259.1 400800.3 21559.7 Q 400630 21412.8 400475.3 21281.5 Q 399722.6 20645.8 399669.3 20605.5 L 398152.2 22628.3 L 396633.8 22628.3 L 396633.8 18688 L 401480.2 18688 Q 402092.5 18694.5 402225.1 18261.6 Q 401485.4 17570 400671.6 16868 Q 400511.7 16727.6 400364.8 16601.5 Q 399616 15960.6 399562.7 15919 L 398071.6 17915.8 L 396633.8 17915.8 L 396633.8 14214.7 Q 397975.4 13952.1 399396.3 13608.9 Q 400817.2 13267 402039.2 12883.5 Q 402448.7 12986.2 402674.9 12953.7 Q 402899.8 12921.2 403050.6 12723.6 L 399722.6 10141.8 Q 398997.2 10908.8 398191.2 11686.2 Q 397386.5 12463.6 396580.5 13150 L 393678.9 11846.1 L 393678.9 27473.4 Q 391782.2 27840 390724 28006.4 L 392454.3 31441 Q 392906.7 31274.6 393119.9 30748.1 L 393678.9 30482.9 L 393678.9 35035.5 L 394078 35035.5 Q 395388.4 34999.1 396004.6 34662.4 Q 396622.1 34325.7 396633.8 34129.4 L 396633.8 29098.4 Q 400687.2 27095.1 402864.7 25849.7 L 402811.4 25529.9 Z M 410344.9 23027.4 Q 409512.9 25689.8 407923 27953.1 Q 405826.1 26049.9 404727.6 23027.4 L 410344.9 23027.4 Z M 411942.6 20631.5 L 410239.6 22282.5 L 402411 22282.5 L 402651.5 23027.4 L 404221.9 23027.4 Q 405060.4 26935.2 406698.4 29444.2 Q 403622.6 32851.5 398470.7 34741.7 L 398630.6 35088.8 Q 404454.6 33877.2 408002.3 31148.5 Q 409138.5 32416 410585.4 33365 Q 412031 34312.7 413806.8 35061.5 Q 414519.2 32798.2 416469.2 32373.1 L 416495.2 32053.3 Q 412821.4 31247.3 409866.5 29444.2 Q 412322.2 26920.9 413619.6 23560.4 Q 414092.8 23526.6 414346.3 23436.9 Q 414598.5 23348.5 414711.6 23134 L 411942.6 20631.5 Z M 418732.5 38576.7 Q 421094.6 37456.1 422119 35594.5 Q 422160.6 35524.3 422199.6 35454.1 Q 423178.5 33578.2 423151.2 31733.5 Q 423127.8 30346.4 422446.6 29593.7 Q 421764.1 28841 420702 28831.9 Q 419651.6 28860.5 419051 29493.6 Q 418450.4 30126.7 418438.7 31014.6 Q 418502.4 32248.3 419382.5 32864.5 Q 419489.1 32947.7 419602.2 33023.1 Q 420533 33579.5 421420.9 33836.9 Q 421306.5 34782 420601.9 35846.7 Q 419898.6 36912.7 418306.1 37777.2 L 418732.5 38576.7 Z M 451959.2 21510.3 Q 454847.8 19419.9 457017.5 16051.6 L 465403.8 16051.6 Q 465280.3 16999.3 465100.9 18071.8 Q 464922.8 19144.3 464738.2 19993.2 L 464977.4 20179.1 Q 465943.3 19486.2 466928.7 18515.1 Q 467912.8 17542.7 468599.2 16691.2 Q 469377.9 16671.7 469636.6 16371.4 L 466815.6 13683 L 465164.6 15334 L 457469.9 15334 Q 458355.2 13822.1 459120.9 12111.3 Q 460012.7 12125.6 460185.6 11579.6 L 456032.1 10088.5 Q 455328.8 13312.5 454154.9 16262.2 Q 452982.3 19211.9 451639.4 21297.1 L 451959.2 21510.3 Z M 449482.7 10009.2 Q 448640.3 13923.5 447205.1 17519.3 L 447147.9 17659.7 Q 445703.6 21242.5 444051.3 23773.6 L 444371.1 23986.8 Q 446088.4 22641.3 447565.2 20898 L 447565.2 34982.2 L 448125.5 34982.2 Q 449103.1 34945.8 449864.9 34609.1 Q 450628 34272.4 450707.3 34076.1 L 450707.3 18555.4 Q 451426.2 18421.5 451506.8 18048.4 L 449988.4 17489.4 Q 451539.3 14960.9 452731.4 11872.1 Q 453589.4 11872.1 453768.8 11313.1 L 449482.7 10009.2 Z M 455074 20339 Q 454517.6 23160 453582.9 25766.5 Q 452648.2 28373 451532.8 30216.4 L 451878.6 30455.6 Q 453724.6 29047.7 455276.8 26924.8 Q 456829 24801.9 457975.6 22095.3 Q 458888.2 22088.8 459040.3 21563.6 L 455074 20339 Z M 459280.8 31014.6 Q 459306.8 31513.8 458694.5 31494.3 Q 458300.6 31489.1 457346.4 31435.8 Q 456717.2 31400.7 456145.2 31365.6 Q 455274.2 31312.3 455206.6 31308.4 L 455206.6 31680.2 Q 456207.6 31858.3 456757.5 32126.1 Q 457308.7 32393.9 457629.8 32772.2 Q 458201.8 33491.1 458295.4 35008.2 Q 460740.7 34783.3 461548 33942.2 Q 461661.1 33833 461754.7 33713.4 Q 462409.9 32793 462342.3 31255.1 L 462342.3 17436.1 Q 463227.6 17277.5 463274.4 16717.2 L 459280.8 16345.4 L 459280.8 31014.6 Z M 463353.7 20764.1 Q 464353.4 22664.7 465247.8 24928 Q 466142.2 27191.3 466442.5 29311.6 Q 467678.8 30337.3 468534.2 29748.4 Q 469307.7 29218 469320.7 27814 Q 469335 26408.7 468166.3 24578.3 Q 466894.9 22564.6 463673.5 20605.5 L 463353.7 20764.1 Z M 475547.7 27261.5 L 475547.7 24358.6 L 479462 24358.6 L 479462 27261.5 L 475547.7 27261.5 Z M 479462 20924 L 479462 23613.7 L 475547.7 23613.7 L 475547.7 20924 L 479462 20924 Z M 479195.5 20151.8 L 475680.3 20151.8 L 472672.1 18927.2 L 472672.1 35008.2 L 473124.5 35008.2 Q 474096.9 34977 474805.4 34636.4 Q 475513.9 34294.5 475547.7 34022.8 L 475547.7 28032.4 L 479462 28032.4 L 479462 31067.9 Q 479521.8 31547.6 478982.3 31547.6 Q 478571.5 31541.1 477827.9 31490.4 Q 477686.2 31481.3 477551 31470.9 Q 476839.9 31420.2 476772.3 31413.7 L 476772.3 31814.1 Q 477497.7 31918.1 477883.8 32172.9 Q 478269.9 32427.7 478476.6 32772.2 Q 478888.7 33497.6 478901.7 34901.6 Q 481155.9 34723.5 481851.4 33877.2 Q 481887.8 33836.9 481921.6 33796.6 Q 482563.8 32919.1 482496.2 31413.7 L 482496.2 21403.7 Q 483321.7 21237.3 483588.2 20870.7 L 480552.7 18581.4 L 479195.5 20151.8 Z M 478982.3 13096.7 Q 479974.2 14261.5 480686.6 15865.7 Q 478550.7 15925.5 476625.4 15948.9 Q 474700.1 15973.6 473205.1 15972.3 Q 474758.6 15106.5 476277 13985.9 Q 477795.4 12865.3 478848.4 11818.8 Q 479265.7 11850 479498.4 11712.2 Q 479729.8 11574.4 479807.8 11366.4 L 475814.2 9902.6 Q 475391.7 10967.3 474455.7 12390.8 Q 474035.8 13025.2 473567.8 13627.1 Q 472527.8 14977.8 471554.1 15652.5 Q 471348.7 15774.7 471078.3 15846.2 Q 470807.9 15917.7 470781.9 15919 L 472087.1 19140.4 Q 472405.6 19014.3 472646.1 18688 Q 475237 18078.3 477354.7 17493.3 Q 479472.4 16908.3 480925.8 16478 Q 481211.8 17316.5 481298.9 18155 Q 482394.8 18948 483215.1 18470.9 Q 483960 18039.3 484044.5 17034.4 Q 484127.7 16028.2 483142.3 14916.7 Q 482073.7 13697.3 479221.5 12936.8 L 478982.3 13096.7 Z M 490350.8 21909.4 Q 493277.1 21915.9 494421.1 21486.9 Q 495565.1 21057.9 495515.7 20125.8 Q 495526.1 19712.4 495296 19423.8 Q 495065.9 19135.2 494477 18901.2 L 494397.7 16132.2 L 494105.2 16132.2 Q 493778.9 17085.1 493489 17792.3 Q 493199.1 18500.8 493013.2 18794.6 Q 492753.2 19100.1 492373.6 19087.1 Q 491835.4 19120.9 490696.6 19114.4 L 488753.1 19114.4 Q 488229.2 19119.6 488070.6 19010.4 Q 487912 18901.2 487927.6 18608.7 L 487927.6 15839.7 Q 489572.1 15467.9 491116.5 15007.7 Q 492659.6 14546.2 493785.4 14135.4 Q 494950.2 14440.9 495355.8 14028.8 L 492267 11605.6 Q 491535.1 12389.5 490346.9 13346.3 Q 489160 14304.4 487927.6 15146.8 L 487927.6 11473 Q 488699.8 11319.6 488753.1 10807.4 L 484838.8 10461.6 L 484838.8 19300.3 Q 484792 20808.3 485429 21373.8 Q 486064.7 21938 487954.9 21909.4 L 490350.8 21909.4 Z M 494743.5 28379.5 L 494477 28379.5 Q 494133.8 29416.9 493834.8 30199.5 Q 493535.8 30982.1 493333 31281.1 Q 493113.3 31600.9 492693.4 31600.9 Q 492443.8 31620.4 491974.5 31624.3 Q 491505.2 31628.2 490935.8 31626.9 L 488913 31626.9 Q 488387.8 31630.8 488217.5 31513.8 Q 488047.2 31398.1 488061.5 31121.2 L 488061.5 28139 Q 489764.5 27689.2 491332.3 27148.4 Q 492900.1 26607.6 494024.6 26116.2 Q 495262.2 26408.7 495622.3 25983.6 L 492320.3 23560.4 Q 491613.1 24382 490460 25384.3 Q 489308.2 26385.3 488061.5 27287.5 L 488061.5 23667 Q 488872.7 23513.6 488885.7 23001.4 L 484945.4 22655.6 L 484945.4 31814.1 Q 484898.6 33342.9 485555.1 33924 Q 486211.6 34503.8 488140.8 34476.5 L 490590 34476.5 Q 493612.5 34480.4 494777.3 34037.1 Q 495942.1 33592.5 495888.8 32639.6 Q 495900.5 32226.2 495678.2 31933.7 Q 495457.2 31641.2 494850.1 31387.7 L 494743.5 28379.5 Z M 505446.4 10221.1 Q 504670.3 13017.4 502960.8 16063.3 Q 502553.9 16778.3 502096.3 17477.7 Q 500178.8 20465.1 497459.2 22707.6 L 497672.4 22974.1 Q 501493.1 21202.2 504136 18470.9 Q 504424.6 18179.7 504698.9 17884.6 Q 507217 15096.1 508614.5 12245.2 Q 509103.3 12262.1 509333.4 12138.6 Q 509563.5 12015.1 509653.2 11792.8 L 505446.4 10221.1 Z M 514152.5 21164.5 L 501292.9 21164.5 L 501532.1 21936.7 L 506244.6 21936.7 Q 506195.2 24099.9 505516.6 26463.3 Q 504986.2 28230 503714.8 30021.4 Q 502046.9 32419.9 498364 34715.7 L 498657.8 35088.8 Q 503207.8 33236.3 505524.4 30976.9 Q 507616.1 28950.2 508498.8 26770.1 Q 509468.6 24339.1 509679.2 21936.7 L 514419 21936.7 Q 514224 25962.8 513860 28435.4 Q 513494.7 30909.3 512900.6 31441 Q 512601.6 31733.5 511942.5 31707.5 Q 511397.8 31702.3 510188.8 31626.9 Q 508979.8 31552.8 507895.6 31467 L 507895.6 31814.1 Q 508868 31997.4 509640.2 32296.4 Q 510412.4 32595.4 510824.5 32958.1 Q 511158.6 33284.4 511287.3 33830.4 Q 511416 34376.4 511410.8 35061.5 Q 512713.4 35064.1 513606.5 34792.4 Q 514499.6 34520.7 515163.9 33943.5 Q 516245.5 33080.3 516791.5 30248.9 Q 517338.8 27418.8 517559.8 22442.4 Q 518365.8 22315 518651.8 21990 L 515829.5 19539.5 L 514152.5 21164.5 Z M 512635.4 9875.3 L 512368.9 10009.2 Q 513337.4 14729.5 515343.3 17882 Q 517350.5 21035.8 520516 23001.4 Q 520817.6 22077.1 521484.5 21307.5 Q 522150.1 20537.9 522911.9 20232.4 L 522991.2 19912.6 Q 520045.4 18767.3 517583.2 16704.2 Q 515122.3 14641.1 513753.4 11978.7 Q 514458 11174 514764.8 10568.2 L 512635.4 9875.3 Z M 541574.7 10327.7 Q 542028.4 10988.1 542337.8 11902 Q 542645.9 12817.2 542640.7 13736.3 Q 543594.9 14508.5 544410 14158.8 Q 545071.7 13883.2 545275.8 13192.9 Q 545479.9 12503.9 544896.2 11723.9 Q 544207.2 10767.1 541841.2 10195.1 L 541574.7 10327.7 Z M 526905.5 10274.4 Q 527360.5 10936.1 527680.3 11861.7 Q 528001.4 12788.6 527997.5 13709 Q 528920.5 14460.4 529703.1 14097.7 Q 530315.4 13819.5 530500 13153.9 Q 530684.6 12487 530142.5 11723.9 Q 529484.7 10754.1 527172 10141.8 L 526905.5 10274.4 Z M 534146.5 15040.2 Q 534726.3 15046.7 534865.4 14615.1 Q 534143.9 13957.3 533371.7 13295.6 Q 533266.4 13205.9 533168.9 13121.4 Q 532442.2 12500 532390.2 12458.4 L 531059 14295.3 L 524322.4 14295.3 L 524535.6 15040.2 L 534146.5 15040.2 Z M 525574.3 15439.3 Q 525987.7 16403.9 526256.8 17616.8 Q 526524.6 18829.7 526479.1 19993.2 Q 527343.6 20808.3 528087.2 20392.3 Q 528604.6 20107.6 528782.7 19417.3 Q 528960.8 18725.7 528568.2 17823.5 Q 528049.5 16546.9 525894.1 15306.7 L 525574.3 15439.3 Z M 533828 26062.9 Q 534393.5 26069.4 534519.6 25636.5 Q 533855.3 24943.6 533119.5 24250.7 Q 533016.8 24154.5 532921.9 24063.5 Q 532229 23417.4 532177 23373.2 L 530871.8 25318 L 530446.7 25318 L 530446.7 25104.8 L 530446.7 21510.3 L 533721.4 21510.3 L 533640.8 21670.2 Q 533213.1 22100.5 533098.7 22604.9 Q 532984.3 23110.6 533295 23560.4 Q 533751.3 24007.6 534383.1 23846.4 Q 535014.9 23685.2 535372.4 23054.7 Q 535836.5 22112.2 535750.7 20352 Q 535666.2 18591.8 534732.8 16292.1 L 534306.4 16292.1 Q 534479.3 17372.4 534396.1 18498.2 Q 534314.2 19624 534067.2 20524.9 Q 533435.4 19898.3 532902.4 19400.4 Q 532369.4 18902.5 532336.9 18873.9 L 531059 20738.1 L 530126.9 20738.1 Q 530994 19760.5 531727.2 18717.9 Q 532460.4 17675.3 532949.2 16797.8 Q 533821.5 16770.5 533934.6 16264.8 L 530446.7 15306.7 Q 530321.9 16557.3 530067.1 18012 Q 529812.3 19468 529487.3 20738.1 L 524136.5 20738.1 L 524349.7 21510.3 L 527810.3 21510.3 L 527810.3 25104.8 L 527810.3 25318 L 524456.3 25318 L 524642.2 26062.9 L 527810.3 26062.9 Q 527802.5 28305.4 527185 30572.6 Q 526567.5 32839.8 524722.8 34822.3 L 524988 35088.8 Q 527797.3 33569.1 528956.9 31567.1 Q 529401.5 30841.7 529686.2 30090.3 Q 530409 28020.7 530419.4 26062.9 L 533828 26062.9 Z M 548870.3 21563.6 Q 549442.3 21570.1 549535.9 21137.2 Q 548905.4 20465.1 548168.3 19809.9 Q 548066.9 19717.6 547970.7 19633.1 Q 547273.9 19020.8 547219.3 18980.5 L 545915.4 20791.4 L 544796.1 20791.4 Q 545721.7 19795.6 546487.4 18724.4 Q 547253.1 17653.2 547778.3 16717.2 Q 548616.8 16691.2 548736.4 16185.5 L 545275.8 15280.7 Q 545131.5 16570.3 544833.8 18045.8 Q 544534.8 19521.3 544130.5 20791.4 L 539312.7 20791.4 L 539312.7 20658.8 L 539312.7 15067.5 L 548603.8 15067.5 Q 549175.8 15074 549269.4 14641.1 Q 548601.2 13984.6 547852.4 13332 Q 547753.6 13244.9 547660 13164.3 Q 546952.8 12552 546899.5 12511.7 L 545568.3 14321.3 L 539312.7 14321.3 L 539312.7 11552.3 Q 539818.4 11471.7 540021.2 11279.3 Q 540222.7 11088.2 540270.8 10807.4 L 536623 10461.6 L 536623 20658.8 Q 536688 24536.7 535609 27873.8 Q 535458.2 28311.9 535280.1 28738.3 Q 533993.1 31987 530685.9 34423.2 L 530952.4 34688.4 Q 535017.5 32865.8 536879.1 30012.3 Q 537443.3 29181.6 537856.7 28282 Q 539206.1 25197.1 539285.4 21563.6 L 542534.1 21563.6 L 542534.1 25636.5 L 539498.6 25636.5 L 539711.8 26408.7 L 542534.1 26408.7 L 542534.1 35035.5 L 543065.8 35035.5 Q 544135.7 35004.3 544740.2 34739.1 Q 545344.7 34473.9 545356.4 34342.6 L 545356.4 26408.7 L 548577.8 26408.7 Q 549122.5 26415.2 549269.4 25983.6 Q 548633.7 25319.3 547894 24631.6 Q 547762.7 24509.4 547641.8 24397.6 Q 546951.5 23763.2 546899.5 23720.3 L 545595.6 25636.5 L 545356.4 25636.5 L 545356.4 21563.6 L 548870.3 21563.6 Z M 540190.2 15599.2 Q 540645.2 16526.1 540949.4 17726 Q 541253.6 18927.2 541228.9 20072.5 Q 542103.8 20898 542859.1 20498.9 Q 543406.4 20216.8 543585.8 19507 Q 543765.2 18797.2 543319.3 17879.4 Q 542744.7 16630.1 540510 15466.6 L 540190.2 15599.2 Z M 570888.4 23613.7 L 570888.4 31786.8 L 564791.4 31786.8 L 564791.4 21217.8 L 569583.2 21217.8 L 569583.2 22734.9 L 570116.2 22734.9 Q 571041.8 22710.2 571806.2 22455.4 Q 572571.9 22200.6 572618.7 22016 L 572618.7 13762.3 Q 573517 13595.9 573497.5 13070.7 L 569583.2 12723.6 L 569583.2 20471.6 L 564791.4 20471.6 L 564791.4 11419.7 Q 565317.9 11339.1 565520.7 11142.8 Q 565722.2 10947.8 565749.5 10647.5 L 561623.3 10248.4 L 561623.3 20471.6 L 557043.4 20471.6 L 557043.4 13709 Q 557554.3 13627.1 557775.3 13459.4 Q 557997.6 13293 558028.8 13070.7 L 554061.2 12697.6 L 554061.2 20151.8 Q 553549 20552.2 553237 20951.3 L 556298.5 22760.9 L 557230.6 21217.8 L 561623.3 21217.8 L 561623.3 31786.8 L 555792.8 31786.8 L 555792.8 24545.8 Q 556763.9 24379.4 556776.9 23933.5 L 552757.3 23533.1 L 552757.3 31494.3 Q 552251.6 31859.6 551905.8 32266.5 L 555020.6 34103.4 L 555978.7 32559 L 570888.4 32559 L 570888.4 34795 L 571420.1 34795 Q 572328.8 34769 573101 34502.5 Q 573874.5 34236 573923.9 34050.1 L 573923.9 24652.4 Q 574822.2 24478.2 574801.4 23986.8 L 570888.4 23613.7 Z M 601612.6 23161.3 Q 602224.9 23167.8 602357.5 22734.9 Q 601483.9 22013.4 600518 21265.9 Q 600204.7 21022.8 599931.7 20812.2 Q 599084.1 20164.8 599029.5 20125.8 L 597139.3 22442.4 L 591468.7 22442.4 L 591468.7 15334 L 600627.2 15334 Q 601239.5 15340.5 601372.1 14907.6 Q 600516.7 14201.7 599563.8 13459.4 Q 599255.7 13218.9 598987.9 13010.9 Q 598152 12364.8 598097.4 12324.5 L 596287.8 14587.8 L 591468.7 14587.8 L 591468.7 11206.5 Q 591996.5 11124.6 592211 10933.5 Q 592424.2 10742.4 592454.1 10461.6 L 588273.3 10061.2 L 588273.3 14587.8 L 578822.3 14587.8 L 579035.5 15334 L 588273.3 15334 L 588273.3 22442.4 L 577651 22442.4 L 577890.2 23161.3 L 586463.7 23161.3 Q 585081.8 26027.8 582722.3 28744.8 Q 580362.8 31463.1 577305.2 33410.5 L 577544.4 33730.3 Q 580907.5 32387.4 583618 30495.9 Q 586327.2 28604.4 588273.3 26222.8 L 588273.3 35035.5 L 588885.6 35035.5 Q 589833.3 34997.8 590626.3 34605.2 Q 591419.3 34213.9 591468.7 33917.5 L 591468.7 23400.5 Q 594031 30302.2 600068.2 33171.3 Q 600356.8 32024.7 601009.4 31308.4 Q 601663.3 30590.8 602570.7 30402.3 L 602624 30082.5 Q 599643.1 29341.5 596853.3 27671 Q 596592 27512.4 596337.2 27347.3 Q 593605.9 25598.8 591921.1 23161.3 L 601612.6 23161.3 Z M 581723.9 15865.7 Q 582349.2 16987.6 582858.8 18389 Q 583368.4 19789.1 583454.2 21190.5 Q 584560.5 22096.6 585458.8 21685.8 Q 586281.7 21312.7 586463.7 20292.2 Q 586644.4 19270.4 585735.7 18058.8 Q 584759.4 16741.9 581964.4 15759.1 L 581723.9 15865.7 Z M 593066.4 21936.7 Q 594301.4 21167.1 595571.5 20082.9 Q 596842.9 18998.7 597938.8 17729.9 Q 598822.8 17768.9 599029.5 17250.2 L 595035.9 15679.8 Q 594523.7 17334.7 593911.4 18961 Q 593299.1 20586 592746.6 21723.5 L 593066.4 21936.7 Z M 607816.2 27500.7 L 607816.2 13815.6 L 610105.5 13815.6 L 610105.5 27500.7 L 607816.2 27500.7 Z M 611223.5 11579.6 L 609839 13070.7 L 607948.8 13070.7 L 605100.5 11872.1 L 605100.5 32452.4 L 605552.9 32452.4 Q 606498 32419.9 607142.8 32083.2 Q 607788.9 31746.5 607816.2 31494.3 L 607816.2 28272.9 L 610105.5 28272.9 L 610105.5 31014.6 L 610557.9 31014.6 Q 611365.2 30978.2 612098.4 30622 Q 612831.6 30265.8 612900.5 30029.2 L 612900.5 14295.3 Q 613726 14075.6 613992.5 13736.3 L 611223.5 11579.6 Z M 620674.5 27261.5 L 613433.5 27261.5 L 613646.7 28032.4 L 623843.9 28032.4 Q 624409.4 28040.2 624535.5 27607.3 Q 623889.4 26920.9 623114.6 26221.5 Q 622950.8 26072 622801.3 25938.1 Q 622086.3 25305 622033 25264.7 L 620674.5 27261.5 Z M 626852.1 21510.3 L 625387 22974.1 L 624855.3 22974.1 Q 625112.7 20943.5 625335 18541.1 Q 625413 17700 625483.2 16883.6 Q 625682.1 14544.9 625787.4 12936.8 Q 626625.9 12763.9 626905.4 12431.1 L 623976.5 10195.1 L 622805.2 11686.2 L 614125.1 11686.2 L 614365.6 12431.1 L 623018.4 12431.1 Q 622900.1 14563.1 622662.2 17315.2 Q 622645.3 17502.4 622628.4 17692.2 Q 622381.4 20457.3 622033 22974.1 L 617800.2 22974.1 Q 618049.8 21333.5 618279.9 19325 Q 618308.5 19067.6 618337.1 18811.5 Q 618559.4 16813.4 618677.7 15360 Q 619167.8 15350.9 619394 15176.7 Q 619618.9 15002.5 619690.4 14773.7 L 615910 14028.8 Q 615872.3 15205.3 615689 17137.1 Q 615590.2 18188.8 615464.1 19279.5 Q 615234 21284.1 614977.9 22788.2 Q 614478.7 23093.7 614099.1 23400.5 L 616840.8 25051.5 L 617932.8 23720.3 L 625600.2 23720.3 Q 625424.7 27149.7 625107.5 29171.2 Q 624791.6 31192.7 624296.3 31626.9 Q 623996 31886.9 623417.5 31867.4 Q 622914.4 31863.5 621796.4 31799.8 Q 620679.7 31737.4 619716.4 31654.2 L 619690.4 32026 Q 620562.7 32191.1 621271.2 32449.8 Q 621978.4 32708.5 622352.8 33011.4 Q 622971.6 33670.5 622911.8 34928.9 Q 624040.2 34928.9 624848.8 34685.8 Q 625657.4 34441.4 626265.8 33943.5 Q 627213.5 33185.6 627710.1 30805.3 Q 628208 28425 628396.5 24172.7 Q 629207.7 24053.1 629461.2 23693 L 626852.1 21510.3 Z M 634679.4 28672 Q 633718.7 28695.4 633092.1 29318.1 Q 632465.5 29939.5 632443.4 30882 Q 632465.5 31823.2 633092.1 32445.9 Q 633718.7 33068.6 634679.4 33092 Q 635637.5 33068.6 636240.7 32445.9 Q 636843.9 31823.2 636862.1 30882 Q 636843.9 29939.5 636240.7 29318.1 Q 635637.5 28695.4 634679.4 28672  Z M 638992.8 16665.2 Q 639391.9 17303.5 639391.9 18022.4 Q 639424.4 18818 638962.9 19293.8 Q 638500.1 19769.6 637395.1 20205.1 L 635771.4 20791.4 Q 634527.3 21272.4 633996.9 21800.2 Q 633466.5 22326.7 633480.8 23108 Q 633496.4 23729.4 633878.6 24928 Q 633917.6 25063.2 633960.5 25211.4 L 634306.3 26302.1 L 635159.1 26302.1 L 635185.1 24998.2 Q 635221.5 24406.7 635541.3 24085.6 Q 635861.1 23764.5 636755.5 23373.2 L 637954.1 22920.8 Q 639337.3 22372.2 640067.9 21384.2 Q 640797.2 20394.9 640802.4 18847.9 Q 640734.8 16887.5 639414 15490 Q 638387 14382.4 637027.2 13642.7 Q 635287.8 12709.3 633747.3 12377.8 Q 632183.4 12710.6 632176.9 14161.4 Q 632160 14845.2 632642.3 15302.8 Q 633124.6 15761.7 634306.3 15946.3 L 638992.8 16665.2 Z M 19699.4 59575.8 L 11632.9 59575.8 L 9343.6 58671 Q 13190.3 57412.6 16238.8 55475.6 Q 18389 57066.8 20977.3 58138 L 19699.4 59575.8 Z M 11445.7 66152.5 L 11445.7 60348 L 19965.9 60348 L 19965.9 66152.5 L 11445.7 66152.5 Z M 19033.8 48394.5 Q 17676.6 50637 15599.2 52601.3 Q 13290.4 51210.3 11818.8 49299.3 Q 12217.9 48846.9 12618.3 48394.5 L 19033.8 48394.5 Z M 21190.5 45785.4 L 19087.1 47622.3 L 13256.6 47622.3 Q 14108.1 46530.3 14801 45439.6 Q 15345.7 45459.1 15575.8 45359 Q 15807.2 45258.9 15893 45039.2 L 11526.3 43974.5 Q 10522.7 46617.4 8759.9 49275.9 Q 8293.2 49979.2 7791.4 50652.6 Q 5899.9 53198 3805.6 54890.6 L 4018.8 55157.1 Q 6044.2 54202.9 7914.9 52804.1 Q 9786.9 51405.3 11392.4 49751.7 Q 12550.7 52028 14268 53745.3 Q 11876 55707 8919.8 57260.5 Q 5963.6 58812.7 2634.3 59895.6 L 2792.9 60241.4 Q 5662 59789 8251.6 59016.8 L 8251.6 69081.4 L 8730 69081.4 Q 9757 69047.6 10577.3 68697.9 Q 11398.9 68349.5 11445.7 68096 L 11445.7 66924.7 L 19965.9 66924.7 L 19965.9 68894.2 L 20498.9 68894.2 Q 21345.2 68866.9 22208.4 68600.4 Q 22235.7 68591.3 22263 68583.5 Q 23113.2 68314.4 23214.6 68149.3 L 23214.6 60934.3 Q 24072.6 60708.1 24332.6 60322 L 21990 58538.4 Q 23746.3 59210.5 25663.8 59682.4 Q 26248.8 57359.3 28272.9 56834.1 L 28298.9 56541.6 Q 25724.9 56225.7 23180.8 55605.6 Q 20636.7 54986.8 18342.2 54011.8 Q 21090.4 51875.9 23001.4 49139.4 Q 23546.1 49105.6 23816.5 49017.2 Q 24086.9 48927.5 24252 48714.3 L 21190.5 45785.4 Z M 49518.8 51695.2 L 45871 51695.2 L 45871 45252.4 Q 46436.5 45152.3 46647.1 44956 Q 46856.4 44761 46882.4 44480.2 L 42649.6 44134.4 L 42649.6 51695.2 L 36979 51695.2 L 36979 45971.3 Q 37487.3 45889.4 37697.9 45698.3 Q 37907.2 45507.2 37937.1 45226.4 L 33890.2 44826 L 33890.2 54410.9 Q 33948.7 58197.8 33190.8 61710.4 Q 33068.6 62231.7 32919.1 62741.3 Q 31977.9 66177.2 29416.9 68868.2 L 29657.4 69107.4 Q 33119.3 67210.7 34735.2 64315.6 Q 36351.1 61420.5 36738.5 58005.4 L 44273.3 58005.4 L 44273.3 69081.4 L 44806.3 69081.4 Q 45627.9 69054.1 46478.1 68790.2 Q 46517.1 68778.5 46554.8 68766.8 Q 47386.8 68499 47468.7 68335.2 L 47468.7 58564.4 Q 48341 58331.7 48614 57979.4 L 45471.9 55609.5 L 43980.8 57233.2 L 36845.1 57233.2 Q 36972.5 55822.7 36979 54410.9 L 36979 52467.4 L 53645 52467.4 Q 54278.1 52473.9 54391.2 52042.3 Q 53604.7 51285.7 52692.1 50510.9 Q 52394.4 50256.1 52134.4 50036.4 Q 51329.7 49366.9 51276.4 49326.6 L 49518.8 51695.2 Z M 66717.8 55848.7 Q 69287.9 54699.5 70344.8 53097.9 Q 70923.3 52268.5 71211.9 51423.5 Q 71721.5 49792 71669.5 48501.1 L 71669.5 46982.7 L 74572.4 46982.7 L 74572.4 52068.3 Q 74521.7 53350.1 74911.7 53888.3 Q 75300.4 54426.5 76727.8 54410.9 L 77819.8 54410.9 Q 79525.4 54413.5 80302.8 54005.3 Q 81080.2 53597.1 81068.5 52761.2 Q 81075 52372.5 80881.3 52134.6 Q 80688.9 51896.7 80215.7 51669.2 L 80083.1 51588.6 L 79816.6 51588.6 Q 79537.1 51675.7 79257.6 51722.5 Q 78991.1 51755 78724.6 51748.5 L 78246.2 51748.5 L 77819.8 51748.5 Q 77427.2 51762.8 77474 51376.7 L 77474 47223.2 Q 78192.9 47103.6 78432.1 46822.8 L 75769.7 44667.4 L 74305.9 46210.5 L 72121.9 46210.5 L 68767.9 45013.2 L 68767.9 48501.1 Q 68821.2 50193.7 68415.6 52072.2 Q 68008.7 53949.4 66504.6 55582.2 L 66717.8 55848.7 Z M 67809.8 59629.1 Q 67309.3 59740.9 66812.7 59851.4 Q 64084 60471.5 61632.2 60960.3 L 61632.2 57472.4 L 66637.2 57472.4 Q 67236.5 57480.2 67356.1 57047.3 Q 66620.3 56358.3 65798.7 55658.9 Q 65628.4 55512 65473.7 55380.7 Q 64721 54745 64667.7 54704.7 L 63150.6 56727.5 L 61632.2 56727.5 L 61632.2 52787.2 L 66478.6 52787.2 Q 67090.9 52793.7 67223.5 52360.8 Q 66483.8 51669.2 65670 50967.2 Q 65510.1 50826.8 65363.2 50700.7 Q 64614.4 50059.8 64561.1 50018.2 L 63070 52015 L 61632.2 52015 L 61632.2 48313.9 Q 62973.8 48051.3 64394.7 47708.1 Q 65815.6 47366.2 67037.6 46982.7 Q 67447.1 47085.4 67673.3 47052.9 Q 67898.2 47020.4 68049 46822.8 L 64721 44241 Q 63995.6 45008 63189.6 45785.4 Q 62384.9 46562.8 61578.9 47249.2 L 58677.3 45945.3 L 58677.3 61572.6 Q 56780.6 61939.2 55722.4 62105.6 L 57452.7 65540.2 Q 57905.1 65373.8 58118.3 64847.3 L 58677.3 64582.1 L 58677.3 69134.7 L 59076.4 69134.7 Q 60386.8 69098.3 61003 68761.6 Q 61620.5 68424.9 61632.2 68228.6 L 61632.2 63197.6 Q 65685.6 61194.3 67863.1 59948.9 L 67809.8 59629.1 Z M 75343.3 57126.6 Q 74511.3 59789 72921.4 62052.3 Q 70824.5 60149.1 69726 57126.6 L 75343.3 57126.6 Z M 76941 54730.7 L 75238 56381.7 L 67409.4 56381.7 L 67649.9 57126.6 L 69220.3 57126.6 Q 70058.8 61034.4 71696.8 63543.4 Q 68621 66950.7 63469.1 68840.9 L 63629 69188 Q 69453 67976.4 73000.7 65247.7 Q 74136.9 66515.2 75583.8 67464.2 Q 77029.4 68411.9 78805.2 69160.7 Q 79517.6 66897.4 81467.6 66472.3 L 81493.6 66152.5 Q 77819.8 65346.5 74864.9 63543.4 Q 77320.6 61020.1 78618 57659.6 Q 79091.2 57625.8 79344.7 57536.1 Q 79596.9 57447.7 79710 57233.2 L 76941 54730.7 Z M 84529.1 69134.7 L 85062.1 69134.7 Q 86021.5 69100.9 86771.6 68748.6 Q 87523 68395 87564.6 68122 L 87564.6 48740.3 Q 88167.8 48640.2 88403.1 48424.4 Q 88637.1 48208.6 88682.6 47888.8 L 84529.1 47488.4 L 84529.1 69134.7 Z M 86579.2 44213.7 Q 87510 45164 88366.7 46487.4 Q 89222.1 47810.8 89614.7 49139.4 Q 90806.8 49812.8 91593.3 49255.1 Q 92314.8 48746.8 92286.2 47718.5 Q 92258.9 46691.5 91096.7 45652.8 Q 89844.8 44521.8 86792.4 44001.8 L 86579.2 44213.7 Z M 92862.1 61599.9 L 92862.1 57126.6 L 97414.7 57126.6 L 97414.7 61599.9 L 92862.1 61599.9 Z M 97414.7 52200.9 L 97414.7 56381.7 L 92862.1 56381.7 L 92862.1 52200.9 L 97414.7 52200.9 Z M 100317.6 52467.4 Q 100915.6 52328.3 101115.8 52068.3 L 98506.7 50045.5 L 97202.8 51430 L 92968.7 51430 L 89986.5 50284.7 L 89986.5 64768 L 90493.5 64768 Q 91602.4 64734.2 92226.4 64422.2 Q 92851.7 64108.9 92862.1 63916.5 L 92862.1 62372.1 L 97414.7 62372.1 L 97414.7 64209 L 97920.4 64209 Q 98769.3 64168.7 99518.1 63789.1 Q 100266.9 63410.8 100317.6 63170.3 L 100317.6 52467.4 Z M 104017.4 44879.3 L 102632.9 46504.3 L 92942.7 46504.3 L 93181.9 47249.2 L 102899.4 47249.2 L 102899.4 65060.5 Q 102959.2 65633.8 102261.1 65646.8 Q 101873.7 65641.6 100896.1 65583.1 Q 100187.6 65540.2 99544.1 65497.3 Q 98653.6 65438.8 98586 65433.6 L 98586 65806.7 Q 99663.7 65984.8 100247.4 66248.7 Q 100831.1 66512.6 101169.1 66871.4 Q 101774.9 67550 101862 69028.1 Q 104309.9 68788.9 105123.7 67993.3 Q 105262.8 67867.2 105373.3 67726.8 Q 106002.5 66841.5 105934.9 65380.3 L 105934.9 47754.9 Q 106773.4 47556 107052.9 47195.9 L 104017.4 44879.3 Z M 126701.1 46743.5 L 126701.1 49565.8 L 117170.8 49565.8 L 117170.8 46743.5 L 126701.1 46743.5 Z M 117170.8 53186.3 L 117170.8 50310.7 L 126701.1 50310.7 L 126701.1 53186.3 L 117170.8 53186.3 Z M 117170.8 53958.5 L 126701.1 53958.5 L 126701.1 55317 L 127260.1 55317 Q 128085.6 55288.4 128959.2 55025.8 Q 129035.9 55003.7 129108.7 54981.6 Q 129948.5 54712.5 130029.1 54570.8 L 130029.1 47302.5 Q 130841.6 47089.3 131095.1 46717.5 L 127925.7 44347.6 L 126435.9 45998.6 L 117356.7 45998.6 L 113868.8 44614.1 L 113868.8 55769.4 L 114348.5 55769.4 Q 115415.8 55734.3 116268.6 55370.3 Q 117121.4 55005 117170.8 54730.7 L 117170.8 53958.5 Z M 123746.2 61679.2 L 131253.7 61679.2 Q 131866 61685.7 131999.9 61254.1 Q 131187.4 60506.6 130246.2 59727.9 Q 129916 59452.3 129628.7 59218.3 Q 128805.8 58551.4 128751.2 58511.1 L 126967.6 60907 L 123746.2 60907 L 123746.2 57233.2 L 133570.3 57233.2 Q 134163.1 57239.7 134316.5 56806.8 Q 133517 56089.2 132629.1 55336.5 Q 132375.6 55120.7 132150.7 54930.9 Q 131360.3 54266.6 131307 54225 L 129604 56488.3 L 109448.8 56488.3 L 109662 57233.2 L 120418.2 57233.2 L 120418.2 65486.9 Q 119244.3 65177.5 118344.7 64528.8 Q 117445.1 63878.8 116770.4 62771.2 Q 117510.1 61339.9 117888.4 59869.6 Q 118378.5 59865.7 118604.7 59703.2 Q 118829.6 59539.4 118901.1 59257.3 L 114560.4 58431.8 Q 114355 60913.5 113263 63559 Q 113123.9 63877.5 112967.9 64192.1 Q 111736.8 66810.3 109103 68840.9 L 109316.2 69107.4 Q 111956.5 68053.1 113689.4 66575 Q 115421 65096.9 116424.6 63383.5 Q 117498.4 66382.6 119521.2 67511 Q 119648.6 67585.1 119779.9 67652.7 Q 121872.9 68688.8 125290.6 68629 L 132932 68629 Q 132930.7 67726.8 133294.7 67044.3 Q 133657.4 66361.8 134395.8 66178.5 L 134395.8 65860 Q 133168.6 65888.6 131251.1 65899 Q 129826.3 65908.1 128414.5 65910.7 Q 126513.9 65913.3 125343.9 65913.3 L 125343.9 65913.3 Q 124505.4 65919.8 123746.2 65886 L 123746.2 61679.2 Z M 146270 48846.9 L 146270 59176.7 L 146829 59176.7 Q 148075.7 59145.5 148753 58864.7 Q 149430.3 58582.6 149438.1 58431.8 L 149438.1 56301.1 L 158916.4 56301.1 Q 159509.2 56307.6 159662.6 55876 Q 158837.1 55172.7 157918 54469.4 Q 157672.3 54278.3 157452.6 54111.9 Q 156629.7 53490.5 156573.8 53452.8 L 154869.5 55556.2 L 149438.1 55556.2 L 149438.1 52601.3 L 157984.3 52601.3 Q 158551.1 52607.8 158677.2 52174.9 Q 157876.4 51480.7 156985.9 50794.3 Q 156775.3 50629.2 156584.2 50483.6 Q 155778.2 49870 155722.3 49832.3 L 154071.3 51855.1 L 149438.1 51855.1 L 149438.1 48846.9 L 159874.5 48846.9 Q 160467.3 48853.4 160620.7 48420.5 Q 159717.2 47660 158761.7 46935.9 Q 158523.8 46755.2 158311.9 46595.3 Q 157455.2 45955.7 157399.3 45918 L 155588.4 48102 L 143820.8 48102 Q 144499.4 46989.2 145019.4 45918 Q 145525.1 46035 145751.3 45971.3 Q 145977.5 45907.6 146084.1 45704.8 L 141824 44134.4 Q 141236.4 46751.3 140076.8 49483.9 Q 139786.9 50161.2 139471 50813.8 Q 138203.5 53452.8 136659.1 55236.4 L 136898.3 55449.6 Q 138841.8 54226.3 140486.3 52497.3 Q 142130.8 50769.6 143394.4 48846.9 L 146270 48846.9 Z M 147281.4 59763 Q 147943.1 60545.6 148473.5 61642.8 Q 149003.9 62740 149145.6 63863.2 Q 150277.9 64609.4 151129.4 64159.6 Q 151909.4 63752.7 152031.6 62841.4 Q 152152.5 61930.1 151216.5 61011 Q 150209 60008.7 147468.6 59603.1 L 147281.4 59763 Z M 139801.2 60215.4 Q 139757 61602.5 139078.4 62734.8 Q 138399.8 63867.1 137617.2 64394.9 Q 136967.2 64764.1 136702 65354.3 Q 136436.8 65943.2 136685.1 66632.2 Q 137075.1 67371.9 137903.2 67466.8 Q 138732.6 67563 139400.8 67004 Q 140370.6 66233.1 140716.4 64498.9 Q 141060.9 62763.4 140173 60215.4 L 139801.2 60215.4 Z M 155029.4 61945.7 L 154736.9 61945.7 Q 153937.4 64375.4 153459 65087.8 Q 153329 65302.3 153158.7 65386.8 Q 152989.7 65471.3 152659.5 65486.9 Q 152303.3 65506.4 151588.3 65510.3 Q 150873.3 65514.2 149997.1 65512.9 L 146696.4 65512.9 Q 145960.6 65519.4 145744.8 65410.2 Q 145527.7 65301 145551.1 65007.2 L 145551.1 60215.4 Q 146323.3 60062 146376.6 59549.8 L 142410.3 59204 L 142410.3 65646.8 Q 142359.6 67206.8 143151.3 67750.2 Q 143944.3 68292.3 146190.7 68255.9 L 149651.3 68255.9 Q 153252.3 68266.3 154703.1 67929.6 Q 154987.8 67863.3 155214 67782.7 Q 156347.6 67365.4 156281.3 66445 Q 156296.9 66032.9 156055.1 65740.4 Q 155812 65446.6 155110 65194.4 L 155029.4 61945.7 Z M 154709.6 60002.2 Q 155784.7 61233.3 156683 62864.8 Q 157582.6 64495 157877.7 66125.2 Q 159095.8 66976.7 159964.2 66460.6 Q 160822.2 65951 160836.5 64710.8 Q 160850.8 63471.9 159522.2 62106.9 Q 158179.3 60727.6 154950.1 59842.3 L 154709.6 60002.2 Z M 173693.5 44480.2 Q 174296.7 45481.2 174814.1 46747.4 Q 175332.8 48012.3 175477.1 49273.3 Q 176561.3 50114.4 177415.4 49695.8 Q 178161.6 49333.1 178308.5 48414 Q 178456.7 47494.9 177613 46419.8 Q 176671.8 45195.2 173932.7 44320.3 L 173693.5 44480.2 Z M 183357.7 61013.6 L 180748.6 61013.6 L 180748.6 55982.6 L 185621 55982.6 Q 186199.5 55989.1 186339.9 55556.2 Q 185592.4 54838.6 184753.9 54115.8 Q 184561.5 53948.1 184386 53797.3 Q 183624.2 53147.3 183570.9 53107 L 182026.5 55210.4 L 180748.6 55210.4 L 180748.6 50897 L 186445.2 50897 Q 187025 50903.5 187164.1 50470.6 Q 186402.3 49776.4 185543 49070.5 Q 185336.3 48898.9 185149.1 48746.8 Q 184370.4 48115 184315.8 48074.7 L 182771.4 50124.8 L 180748.6 50124.8 Q 181904.3 49100.4 182974.2 48011 Q 184045.4 46922.9 184821.5 46077.9 Q 185660 46137.7 185860.2 45598.2 L 181680.7 44160.4 Q 181389.5 45482.5 180947.5 47103.6 Q 180506.8 48723.4 180055.7 50124.8 L 173133.2 50124.8 L 173346.4 50897 Q 172662.6 50185.9 171912.5 49489.1 Q 171807.2 49390.3 171709.7 49299.3 Q 171002.5 48650.6 170950.5 48607.7 L 169566 50630.5 L 169540 50630.5 L 169540 45279.7 Q 170045.7 45199.1 170248.5 45002.8 Q 170450 44807.8 170498.1 44507.5 L 166611.1 44134.4 L 166611.1 50630.5 L 162884 50630.5 L 163097.2 51402.7 L 166238 51402.7 Q 165742.7 54481.1 164763.8 57439.9 Q 163784.9 60398.7 162271.7 62717.9 L 162590.2 63037.7 Q 164979.6 60868 166611.1 58218.6 L 166611.1 69134.7 L 167196.1 69134.7 Q 168059.3 69103.5 168776.9 68778.5 Q 169495.8 68453.5 169540 68202.6 L 169540 54197.7 Q 170031.4 55073.9 170387.6 56089.2 Q 170745.1 57103.2 170817.9 58058.7 Q 171776 58820.5 172519.6 58378.5 Q 173082.5 58049.6 173203.4 57296.9 Q 173324.3 56542.9 172731.5 55630.3 Q 171986.6 54436.9 169540 53478.8 L 169540 51402.7 L 172734.1 51402.7 Q 173320.4 51409.2 173427 50976.3 L 173346.4 50897 L 177740.4 50897 L 177740.4 55210.4 L 173666.2 55210.4 L 173879.4 55982.6 L 177740.4 55982.6 L 177740.4 61013.6 L 171750 61013.6 L 171961.9 61759.8 L 177740.4 61759.8 L 177740.4 69241.3 L 178272.1 69241.3 Q 179440.8 69206.2 180089.5 68898.1 Q 180738.2 68590 180748.6 68415.8 L 180748.6 61759.8 L 187110.8 61759.8 Q 187730.9 61766.3 187829.7 61333.4 Q 187078.3 60628.8 186219 59895.6 Q 185987.6 59696.7 185780.9 59522.5 Q 185008.7 58872.5 184955.4 58830.9 L 183357.7 61013.6 Z M 206067.4 59575.8 L 198000.9 59575.8 L 195711.6 58671 Q 199558.3 57412.6 202606.8 55475.6 Q 204757 57066.8 207345.3 58138 L 206067.4 59575.8 Z M 197813.7 66152.5 L 197813.7 60348 L 206333.9 60348 L 206333.9 66152.5 L 197813.7 66152.5 Z M 205401.8 48394.5 Q 204044.6 50637 201967.2 52601.3 Q 199658.4 51210.3 198186.8 49299.3 Q 198585.9 48846.9 198986.3 48394.5 L 205401.8 48394.5 Z M 207558.5 45785.4 L 205455.1 47622.3 L 199624.6 47622.3 Q 200476.1 46530.3 201169 45439.6 Q 201713.7 45459.1 201943.8 45359 Q 202175.2 45258.9 202261 45039.2 L 197894.3 43974.5 Q 196890.7 46617.4 195127.9 49275.9 Q 194661.2 49979.2 194159.4 50652.6 Q 192267.9 53198 190173.6 54890.6 L 190386.8 55157.1 Q 192412.2 54202.9 194282.9 52804.1 Q 196154.9 51405.3 197760.4 49751.7 Q 198918.7 52028 200636 53745.3 Q 198244 55707 195287.8 57260.5 Q 192331.6 58812.7 189002.3 59895.6 L 189160.9 60241.4 Q 192030 59789 194619.6 59016.8 L 194619.6 69081.4 L 195098 69081.4 Q 196125 69047.6 196945.3 68697.9 Q 197766.9 68349.5 197813.7 68096 L 197813.7 66924.7 L 206333.9 66924.7 L 206333.9 68894.2 L 206866.9 68894.2 Q 207713.2 68866.9 208576.4 68600.4 Q 208603.7 68591.3 208631 68583.5 Q 209481.2 68314.4 209582.6 68149.3 L 209582.6 60934.3 Q 210440.6 60708.1 210700.6 60322 L 208358 58538.4 Q 210114.3 59210.5 212031.8 59682.4 Q 212616.8 57359.3 214640.9 56834.1 L 214666.9 56541.6 Q 212092.9 56225.7 209548.8 55605.6 Q 207004.7 54986.8 204710.2 54011.8 Q 207458.4 51875.9 209369.4 49139.4 Q 209914.1 49105.6 210184.5 49017.2 Q 210454.9 48927.5 210620 48714.3 L 207558.5 45785.4 Z M 223106.5 66231.8 L 223106.5 61094.2 L 233916 61094.2 L 233916 66231.8 L 223106.5 66231.8 Z M 233916 55317 L 233916 60348 L 223106.5 60348 L 223106.5 55317 L 233916 55317 Z M 233916 49698.4 L 233916 54544.8 L 223106.5 54544.8 L 223106.5 49698.4 L 233916 49698.4 Z M 235247.2 47142.6 L 233650.8 48926.2 L 226860.9 48926.2 Q 227811.2 48109.8 228671.8 47202.4 Q 229532.4 46296.3 230162.9 45518.9 Q 231074.2 45452.6 231147 44906.6 L 226381.2 44134.4 Q 226299.3 45205.6 226131.6 46500.4 Q 225965.2 47796.5 225742.9 48926.2 L 223347 48926.2 L 219859.1 47515.7 L 219859.1 69054.1 L 220390.8 69054.1 Q 221486.7 69019 222278.4 68618.6 Q 223070.1 68218.2 223106.5 67882.8 L 223106.5 66978 L 233916 66978 L 233916 68974.8 L 234449 68974.8 Q 235395.4 68937.1 236261.2 68578.3 Q 236275.5 68571.8 236291.1 68565.3 Q 237149.1 68205.2 237244 67989.4 L 237244 50257.4 Q 238116.3 50065 238389.3 49672.4 L 235247.2 47142.6 Z M 248825.7 44187.7 Q 248166.6 45905 246988.8 47942.1 Q 245504.2 46376.9 243101.8 45092.5 L 242809.3 45359 Q 244985.5 47309 246084 49459.2 Q 245259.8 50747.5 244306.9 51951.3 Q 243352.7 53156.4 242329.6 54144.4 L 242568.8 54410.9 Q 244938.7 53139.5 246909.5 51430 Q 247174.7 52234.7 247361.9 53079.7 L 247361.9 53079.7 Q 246578 55483.4 245245.5 57766.2 Q 243911.7 60049 242090.4 61892.4 L 242303.6 62131.6 Q 243915.6 61263.2 245337.8 60195.9 Q 246761.3 59127.3 247814.3 57979.4 L 247814.3 58511.1 Q 247826 60797.8 247607.6 62684.1 Q 247389.2 64571.7 246802.9 65459.6 Q 246523.4 65879.5 245924.1 65860 Q 245216.9 65852.2 244326.4 65789.8 Q 244174.3 65779.4 244032.6 65770.3 Q 243195.4 65707.9 243127.8 65700.1 L 243127.8 66045.9 Q 244459 66445 244992 67004 Q 245437.9 67590.3 245444.4 69134.7 Q 247914.4 69181.5 248985.6 67829.5 Q 250063.3 66278.6 250423.4 63793 Q 250782.2 61307.4 250662.6 58538.4 Q 250624.9 56156.8 250156.9 53985.8 Q 249688.9 51813.5 248533.2 49911.6 Q 250310.3 48094.2 251488.1 46397.7 Q 251937.9 46453.6 252164.1 46354.8 Q 252389 46254.7 252499.5 46051.9 L 248825.7 44187.7 Z M 254736.8 57420.4 L 254736.8 50284.7 L 257531.8 50284.7 L 257531.8 57420.4 L 254736.8 57420.4 Z M 263389.6 50284.7 L 263389.6 57420.4 L 260380.1 57420.4 L 260380.1 50284.7 L 263389.6 50284.7 Z M 262058.4 60641.8 Q 262916.4 62212.2 263654.8 64102.4 L 260380.1 64394.9 L 260380.1 58191.3 L 263389.6 58191.3 L 263389.6 59496.5 L 263895.3 59496.5 Q 264693.5 59466.6 265493 59197.5 Q 266291.2 58927.1 266370.5 58777.6 L 266370.5 50790.4 Q 267216.8 50590.2 267462.5 50231.4 L 264507.6 47995.4 L 263123.1 49565.8 L 260380.1 49565.8 L 260380.1 45412.3 Q 260849.4 45331.7 261039.2 45156.2 Q 261229 44980.7 261258.9 44720.7 L 257531.8 44347.6 L 257531.8 49565.8 L 254896.7 49565.8 L 251861.2 48313.9 L 251861.2 60294.7 L 252287.6 60294.7 Q 253226.2 60262.2 253960.7 59929.4 Q 254695.2 59596.6 254736.8 59363.9 L 254736.8 58191.3 L 257531.8 58191.3 L 257531.8 64608.1 Q 255195.7 64808.3 253378.3 64927.9 Q 251560.9 65047.5 250502.7 65087.8 L 251807.9 68787.6 Q 252287.6 68682.3 252606.1 68175.3 Q 256347.5 67158.7 259129.5 66315 Q 261911.5 65472.6 263895.3 64794 Q 264514.1 66545.1 264693.5 68255.9 Q 265872.6 69246.5 266751.4 68717.4 Q 267574.3 68226 267656.2 66897.4 Q 267738.1 65570.1 266618.8 63897 Q 265433.2 62112.1 262350.9 60507.9 L 262058.4 60641.8 Z M 278298 44294.3 Q 279088.4 45334.3 279793 46664.2 Q 280497.6 47992.8 280748.5 49352.6 Q 281943.2 50146.9 282823.3 49669.8 Q 283661.8 49216.1 283743.7 48154 Q 283825.6 47093.2 282694.6 45970 Q 281518.1 44794.8 278511.2 44160.4 L 278298 44294.3 Z M 292569.4 50950.3 Q 293160.9 50956.8 293314.3 50523.9 Q 292452.4 49780.3 291472.2 49013.3 Q 291119.9 48736.4 290814.4 48501.1 Q 289961.6 47847.2 289907 47808.2 L 288070.1 50178.1 L 270098.9 50178.1 L 270338.1 50950.3 L 292569.4 50950.3 Z M 273638.8 52707.9 Q 274700.9 55413.2 275543.3 58515 Q 276384.4 61615.5 276488.4 64501.5 Q 277862.5 65730 278784.2 65004.6 Q 279651.3 64322.1 279679.9 62444.9 Q 279707.2 60569 278473.5 58043.1 Q 277174.8 55371.6 273985.9 52601.3 L 273638.8 52707.9 Z M 288868.3 66551.6 L 283304.3 66551.6 Q 285007.3 63839.8 286516.6 60806.9 Q 286862.4 60116.6 287190 59434.1 Q 288617.4 56437.6 289533.9 54065.1 Q 290008.4 54075.5 290252.8 53905.2 Q 290497.2 53736.2 290572.6 53506.1 L 285992.7 52307.5 Q 285522.1 54953 284761.6 58187.4 Q 284487.3 59358.7 284190.9 60536.5 Q 283374.5 63787.8 282532.1 66551.6 L 269032.9 66551.6 L 269246.1 67297.8 L 293474.2 67297.8 Q 294099.5 67304.3 294246.4 66871.4 Q 293375.4 66133 292378.3 65363.4 Q 292000 65069.6 291675 64821.3 Q 290814.4 64167.4 290758.5 64128.4 L 288868.3 66551.6 Z M 315359.7 47142.6 L 295790.8 47142.6 L 296004 47914.8 L 305881.4 47914.8 Q 305795.6 48976.9 305661.7 50114.4 Q 305526.5 51251.9 305401.7 52174.9 L 300928.4 52174.9 L 297627.7 50843.7 L 297627.7 69054.1 L 298107.4 69054.1 Q 299103.2 69021.6 299850.7 68665.4 Q 300598.2 68307.9 300635.9 68016.7 L 300635.9 52919.8 L 303590.8 52919.8 L 303590.8 68495.1 L 304097.8 68495.1 Q 305223.6 68463.9 305841.1 68183.1 Q 306458.6 67901 306466.4 67750.2 L 306466.4 52919.8 L 309475.9 52919.8 L 309475.9 68070 L 310007.6 68070 Q 311134.7 68038.8 311752.2 67769.7 Q 312368.4 67500.6 312377.5 67351.1 L 312377.5 52919.8 L 315492.3 52919.8 L 315492.3 65007.2 Q 315532.6 65486.9 315012.6 65486.9 Q 314610.9 65481.7 313901.1 65438.8 Q 313807.5 65433.6 313716.5 65428.4 Q 313030.1 65385.5 312962.5 65380.3 L 312962.5 65753.4 Q 313648.9 65895.1 314014.2 66162.9 Q 314380.8 66429.4 314587.5 66790.8 Q 314933.3 67556.5 314959.3 69081.4 Q 317214.8 68883.8 317910.3 67992 Q 317945.4 67950.4 317979.2 67906.2 Q 318621.4 66981.9 318553.8 65380.3 L 318553.8 53426.8 Q 318956.8 53357.9 319240.2 53199.3 Q 319522.3 53042 319645.8 52893.8 L 316610.3 50577.2 L 315225.8 52174.9 L 306359.8 52174.9 Q 307251.6 51276.6 308166.8 50154.7 Q 309083.3 49032.8 309875 47914.8 L 319885 47914.8 Q 320518.1 47921.3 320631.2 47488.4 Q 319764.1 46742.2 318778.7 45990.8 Q 318436.8 45728.2 318140.4 45505.9 Q 317279.8 44863.7 317222.6 44826 L 315359.7 47142.6 Z M 340066.2 48102 Q 338549.1 54039.1 334954.6 58937.5 Q 332847.3 56805.5 331280.8 54108 Q 329713 51411.8 328804.3 48102 L 340066.2 48102 Z M 341796.5 45412.3 L 339906.3 47355.8 L 323905.9 47355.8 L 324145.1 48102 L 328271.3 48102 Q 329016.2 51987.7 330329.2 55140.2 Q 331640.9 58292.7 333463.5 60800.4 Q 329150.1 65813.2 322361.5 68868.2 L 322574.7 69160.7 Q 326559.2 68115.5 329676.6 66515.2 Q 332792.7 64914.9 335140.5 62850.5 Q 338815.6 66818.1 343846.6 69107.4 Q 344351 67999.8 345224.6 67366.7 Q 346098.2 66733.6 347281.2 66685.5 L 347387.8 66365.7 Q 344600.6 65450.5 342003.2 64095.9 Q 339405.8 62741.3 337137.3 60907 Q 339502 58322.6 341101 55293.6 Q 342701.3 52263.3 343686.7 48900.2 Q 344236.6 48845.6 344522.6 48736.4 Q 344807.3 48628.5 344938.6 48394.5 L 341796.5 45412.3 Z M 357211.9 60241.4 Q 357497.9 58758.1 357828.1 56890 Q 358158.3 55023.2 358463.8 53079.7 L 365252.4 53079.7 L 364400.9 60241.4 L 357211.9 60241.4 Z M 368846.9 66924.7 L 366876.1 66924.7 L 368501.1 53612.7 Q 368949.6 53558.1 369199.2 53469.7 Q 369448.8 53380 369619.1 53186.3 L 366477 50604.5 L 365066.5 52307.5 L 358596.4 52307.5 Q 358836.9 50899.6 359033.2 49655.5 Q 359228.2 48411.4 359368.6 47462.4 L 372228.2 47462.4 Q 372853.5 47468.9 373000.4 47036 Q 372122.9 46292.4 371137.5 45517.6 Q 370781.3 45235.5 370474.5 44996.3 Q 369620.4 44333.3 369565.8 44294.3 L 367701.6 46690.2 L 349837 46690.2 L 350050.2 47462.4 L 356014.6 47462.4 Q 355878.1 49027.6 355519.3 51435.2 Q 355204.7 53538.6 354813.4 55712.2 Q 354364.9 58200.4 353937.2 60029.5 Q 353371.7 60328.5 353005.1 60667.8 L 356093.9 62425.4 L 357239.2 60987.6 L 364267 60987.6 L 363522.1 66924.7 L 348985.5 66924.7 L 349198.7 67696.9 L 373426.8 67696.9 Q 374052.1 67703.4 374197.7 67270.5 Q 373346.2 66519.1 372358.2 65736.5 Q 371974.7 65431 371645.8 65174.9 Q 370793 64513.2 370737.1 64475.5 L 368846.9 66924.7 Z M 378511.1 45305.7 Q 379336.6 46349.6 380002.2 47718.5 Q 380667.8 49087.4 380853.7 50470.6 Q 382030.2 51328.6 382931.1 50884 Q 383808.6 50452.4 383925.6 49356.5 Q 384043.9 48260.6 382909 47072.4 Q 381748.1 45854.3 378751.6 45145.8 L 378511.1 45305.7 Z M 388469.1 55556.2 Q 389210.1 56796.4 389717.1 58304.4 Q 390222.8 59813.7 390225.4 61333.4 Q 391383.7 62325.3 392347 61937.9 Q 393285.6 61560.9 393504 60415.6 Q 393722.4 59269 392696.7 57897.5 Q 391647.6 56492.2 388735.6 55423.6 L 388469.1 55556.2 Z M 397414.4 50045.5 L 395656.8 51829.1 L 389081.4 51829.1 Q 389358.3 49013.3 389423.3 46257.3 Q 389438.9 45847.8 389453.2 45439.6 Q 390359.3 45286.2 390385.3 44693.4 L 385939.3 44241 Q 386005.6 48034.4 385672.8 51829.1 L 376435 51829.1 L 376674.2 52601.3 L 385593.5 52601.3 Q 385204.8 56303.7 383512.2 59878.7 Q 383016.9 60884.9 382377.3 61874.2 Q 380171.2 65388.1 375635.5 68601.7 L 375929.3 69000.8 Q 381189.1 66521.7 383988 63490.1 Q 385865.2 61490.7 386946.8 59328.8 Q 388544.5 56055.4 388974.8 52601.3 L 395923.3 52601.3 Q 395773.8 58021 395404.6 61369.8 Q 395035.4 64718.6 394325.6 65407.6 Q 394116.3 65585.7 393886.2 65670.2 Q 393657.4 65753.4 393288.2 65753.4 Q 392703.2 65746.9 391455.2 65657.2 Q 391443.5 65657.2 391433.1 65655.9 Q 390182.5 65564.9 389081.4 65459.6 L 389054.1 65832.7 Q 390105.8 66013.4 390920.9 66308.5 Q 391737.3 66603.6 392168.9 67004 Q 392868.3 67663.1 392808.5 69000.8 Q 394215.1 69013.8 395210.9 68751.2 Q 396208 68489.9 396934.7 67803.5 Q 398048.8 66745.3 398549.3 63206.7 Q 399049.8 59668.1 399225.3 53160.3 Q 400110.6 53032.9 400396.6 52627.3 L 397414.4 50045.5 Z M 402366.1 55528.9 L 402606.6 56381.7 L 426461.6 56381.7 Q 427153.2 56388.2 427287.1 55955.3 Q 426373.2 55097.3 425316.3 54156.1 Q 424754.7 53655.6 424295.8 53250 Q 423424.8 52484.3 423372.8 52441.4 L 421162.8 55528.9 L 402366.1 55528.9 Z M 434368.2 51430 Q 435739.7 48934 436791.4 45998.6 Q 437723.5 45977.8 437856.1 45439.6 L 433463.4 44134.4 Q 432756.2 47913.5 431493.9 51478.1 Q 431417.2 51696.5 431339.2 51912.3 Q 430053.5 55439.2 428591 57979.4 L 428910.8 58191.3 Q 430395.4 56953.7 431679.8 55396.3 L 431679.8 69134.7 L 432264.8 69134.7 Q 433206 69099.6 433956.1 68772 Q 434706.2 68443.1 434767.3 68228.6 L 434767.3 52414.1 Q 435494 52268.5 435620.1 51882.4 L 434368.2 51430 Z M 452738.5 50790.4 Q 453318.3 50796.9 453457.4 50364 Q 452713.8 49633.4 451844.1 48878.1 Q 451586.7 48653.2 451359.2 48458.2 Q 450583.1 47796.5 450529.8 47754.9 L 448932.1 50018.2 L 445843.3 50018.2 L 445843.3 45386.3 Q 446372.4 45304.4 446585.6 45109.4 Q 446798.8 44914.4 446828.7 44614.1 L 442728.5 44213.7 L 442728.5 50018.2 L 435859.3 50018.2 L 436072.5 50790.4 L 441237.4 50790.4 Q 440435.3 54443.4 438874 57962.5 Q 437314 61480.3 435033.8 64155.7 L 435327.6 64448.2 Q 440166.2 60900.5 442728.5 55716.1 L 442728.5 62957.1 L 438760.9 62957.1 L 438948.1 63703.3 L 442728.5 63703.3 L 442728.5 69241.3 L 443314.8 69241.3 Q 444258.6 69202.3 445028.2 68814.9 Q 445797.8 68427.5 445843.3 68149.3 L 445843.3 63703.3 L 449570.4 63703.3 Q 450150.2 63709.8 450289.3 63276.9 Q 449626.3 62569.7 448856.7 61845.6 Q 448695.5 61692.2 448548.6 61554.4 Q 447838.8 60897.9 447786.8 60853.7 L 446376.3 62957.1 L 445843.3 62957.1 L 445843.3 50790.4 L 445896.6 50790.4 Q 446663.6 55249.4 448042.9 58630.7 Q 449423.5 62012 451567.2 64235 Q 451937.7 63133.9 452622.8 62472.2 Q 453307.9 61809.2 454176.3 61625.9 L 454282.9 61360.7 Q 451810.3 59846.2 449721.2 57094.1 Q 447630.8 54342 446376.3 50790.4 L 452738.5 50790.4 Z M 459475.1 64422.2 L 459475.1 57420.4 L 463522 57420.4 L 463522 64422.2 L 459475.1 64422.2 Z M 463522 50045.5 L 463522 56648.2 L 459475.1 56648.2 L 459475.1 50045.5 L 463522 50045.5 Z M 464666 47675.6 L 463255.5 49273.3 L 460938.9 49273.3 Q 461595.4 48468.6 462290.9 47556 Q 462986.4 46642.1 463522 45918 Q 464447.6 45938.8 464614 45279.7 L 460300.6 44241 Q 460195.3 45396.7 460040.6 46766.9 Q 459885.9 48137.1 459741.6 49273.3 L 459581.7 49273.3 L 456599.5 48021.4 L 456599.5 68149.3 L 457079.2 68149.3 Q 458067.2 68118.1 458756.2 67773.6 Q 459445.2 67427.8 459475.1 67137.9 L 459475.1 65167.1 L 463522 65167.1 L 463522 67270.5 L 463974.4 67270.5 Q 464807.7 67235.4 465591.6 66911.7 Q 466375.5 66586.7 466450.9 66391.7 L 466450.9 50523.9 Q 467268.6 50344.5 467568.9 49964.9 L 464666 47675.6 Z M 477712.8 47462.4 L 476034.5 49192.7 L 471801.7 49192.7 Q 472627.2 47682.1 473292.8 45971.3 Q 474191.1 45964.8 474331.5 45439.6 L 470124.7 44213.7 Q 469582.6 47328.5 468616.7 50287.3 Q 467650.8 53247.4 466530.2 55343 L 466876 55556.2 Q 469446.1 53380 471375.3 49964.9 L 476328.3 49964.9 Q 476208.7 56793.8 475908.4 60671.7 Q 475609.4 64549.6 474890.5 65247.7 Q 474557.7 65600 473905.1 65593.5 Q 473333.1 65588.3 472221.6 65512.9 Q 471110.1 65438.8 470097.4 65354.3 L 470071.4 65726.1 Q 471059.4 65909.4 471791.3 66212.3 Q 472524.5 66515.2 472893.7 66897.4 Q 473525.5 67550 473478.7 69081.4 Q 474785.2 69086.6 475722.5 68742.1 Q 476658.5 68397.6 477365.7 67643.6 Q 478361.5 66615.3 478789.2 63075.4 Q 478859.4 62509.9 478920.5 61871.6 Q 479283.2 57868.9 479389.8 50470.6 Q 480275.1 50338 480561.1 49964.9 L 477712.8 47462.4 Z M 468580.3 54784 Q 469408.4 55912.4 470061 57380.1 Q 470714.9 58847.8 470843.6 60294.7 Q 471979.8 61161.8 472856 60708.1 Q 473676.3 60286.9 473792 59206.6 Q 473907.7 58127.6 472859.9 56884.8 Q 471751 55558.8 468793.5 54624.1 L 468580.3 54784 Z M 485619.4 60215.4 L 485619.4 47488.4 L 487669.5 47488.4 L 487669.5 60215.4 L 485619.4 60215.4 Z M 488121.9 63410.8 Q 488968.2 63373.1 489709.2 63016.9 Q 490451.5 62662 490519.1 62425.4 L 490519.1 47968.1 Q 491310.8 47769.2 491583.8 47409.1 L 488787.5 45173.1 L 487403 46717.5 L 485753.3 46717.5 L 482877.7 45491.6 L 482877.7 64953.9 L 483330.1 64953.9 Q 484294.7 64922.7 484944.7 64582.1 Q 485593.4 64240.2 485619.4 63969.8 L 485619.4 60960.3 L 487669.5 60960.3 L 487669.5 63410.8 L 488121.9 63410.8 Z M 502818.4 46903.4 L 502818.4 51242.8 L 495231.6 51242.8 L 495231.6 46903.4 L 502818.4 46903.4 Z M 502818.4 52015 L 502818.4 53638.7 L 503351.4 53638.7 Q 504118.4 53612.7 504936.1 53361.8 Q 504966 53352.7 504994.6 53343.6 Q 505799.3 53091.4 505881.2 52947.1 L 505881.2 47436.4 Q 506692.4 47202.4 506945.9 46850.1 L 503963.7 44586.8 L 502553.2 46157.2 L 495684 46157.2 L 492249.4 44906.6 L 492249.4 53666 Q 492310.5 57286.5 491715.1 60818.6 Q 491561.7 61640.2 491348.5 62446.2 Q 490491.8 65909.4 488068.6 68868.2 L 488362.4 69081.4 Q 491621.5 66967.6 493098.3 64215.5 Q 494390.5 61839.1 494813 59302.8 Q 495287.5 56366.1 495231.6 53638.7 L 495231.6 52015 L 502818.4 52015 Z M 506067.1 61519.3 L 505747.3 61519.3 Q 505424.9 62742.6 505141.5 63679.9 Q 504859.4 64617.2 504655.3 64981.2 Q 504456.4 65354.3 504017 65327 Q 503524.3 65360.8 502233.4 65354.3 L 500156 65354.3 Q 499573.6 65358.2 499391.6 65233.4 Q 499208.3 65108.6 499225.2 64794 L 499225.2 60748.4 Q 501128.4 60116.6 502852.2 59317.1 Q 504576 58516.3 505561.4 57926.1 Q 506214 58199.1 506546.8 57872.8 L 503697.2 55263.7 Q 503003 56121.7 501781 57380.1 Q 500557.7 58637.2 499225.2 59816.3 L 499225.2 54384.9 Q 500063.7 54238 500102.7 53692 L 496402.9 53346.2 L 496402.9 65619.5 Q 496358.7 67147 496994.4 67716.4 Q 497630.1 68285.8 499464.4 68255.9 L 501966.9 68255.9 Q 504945.2 68252 506067.1 67769.7 Q 507189 67287.4 507131.8 66365.7 Q 507144.8 65952.3 506939.4 65663.7 Q 506732.7 65375.1 506146.4 65141.1 L 506067.1 61519.3 Z M 512669.8 62771.2 Q 511709.1 62794.6 511082.5 63417.3 Q 510455.9 64038.7 510433.8 64981.2 Q 510455.9 65922.4 511082.5 66545.1 Q 511709.1 67167.8 512669.8 67191.2 Q 513627.9 67167.8 514231.1 66545.1 Q 514834.3 65922.4 514852.5 64981.2 Q 514834.3 64038.7 514231.1 63417.3 Q 513627.9 62794.6 512669.8 62771.2  Z M 516983.2 50764.4 Q 517382.3 51402.7 517382.3 52121.6 Q 517414.8 52917.2 516953.3 53393 Q 516490.5 53868.8 515385.5 54304.3 L 513761.8 54890.6 Q 512517.7 55371.6 511987.3 55899.4 Q 511456.9 56425.9 511471.2 57207.2 Q 511486.8 57828.6 511869 59027.2 Q 511908 59162.4 511950.9 59310.6 L 512296.7 60401.3 L 513149.5 60401.3 L 513175.5 59097.4 Q 513211.9 58505.9 513531.7 58184.8 Q 513851.5 57863.7 514745.9 57472.4 L 515944.5 57020 Q 517327.7 56471.4 518058.3 55483.4 Q 518787.6 54494.1 518792.8 52947.1 Q 518725.2 50986.7 517404.4 49589.2 Q 516377.4 48481.6 515017.6 47741.9 Q 513278.2 46808.5 511737.7 46477 Q 510173.8 46809.8 510167.3 48260.6 Q 510150.4 48944.4 510632.7 49402 Q 511115 49860.9 512296.7 50045.5 L 516983.2 50764.4 Z " fill-rule="nonzero" style="fill:#333333;;fill-opacity:1;"/>
</svg>