<svg version="1.1" x="0" y="0" width="100%" height="100%" viewBox="0 0 860108.8 61798.4" xmlns="http://www.w3.org/2000/svg">
  <path d="M 10156.55 44717.5 Q 9436.9 44717.5 8698.75 43959 Q 7958.75 43202.35 7655.35 42443.85 Q 7239.1 41459.65 7239.1 39981.5 Q 7239.1 39374.7 7277.95 39110.15 Q 7694.2 36723.65 7694.2 28463.4 Q 7694.2 23916.1 7542.5 19786.9 Q 7390.8 15657.7 7202.1 14671.65 Q 7087.4 14103.7 7087.4 13763.3 Q 7087.4 13156.5 7372.3 12928.95 Q 7655.35 12701.4 8301 12777.25 Q 9436.9 12967.8 10857.7 13687.45 Q 12278.5 14407.1 12809.45 15087.9 L 12922.3 15278.45 Q 25729.85 14103.7 27245 13687.45 Q 27737.1 13535.75 28419.75 12853.1 Q 28721.3 12512.7 28987.7 12322.15 Q 29252.25 12133.45 29592.65 12133.45 Q 30238.3 12133.45 31450.05 12682.9 Q 32661.8 13232.35 33760.7 14009.35 Q 34859.6 14786.35 35201.85 15391.3 Q 35314.7 15618.85 35314.7 15846.4 Q 35314.7 16073.95 35087.15 16756.6 Q 34859.6 17172.85 34783.75 17589.1 Q 34406.35 18952.55 34406.35 27401.5 Q 34406.35 30243.1 34480.35 34562.85 L 34519.2 38618.05 Q 34519.2 40473.6 33836.55 41970.25 Q 33155.75 43466.9 32036.5 44301.25 Q 30919.1 45133.75 29631.5 45172.6 Q 29100.55 45172.6 28739.8 44660.15 Q 28380.9 44149.55 27888.8 42935.95 Q 27394.85 41761.2 27091.45 41307.95 Q 24061.15 41383.8 19589.7 41591 Q 15120.1 41800.05 12278.5 42064.6 Q 12013.95 43354.05 11349.8 44034.85 Q 10687.5 44717.5 10156.55 44717.5  Z M 12430.2 19218.95 Q 12467.2 23120.6 12467.2 33047.7 L 12467.2 38275.8 Q 14892.55 38048.25 24249.85 37519.15 L 27130.3 37367.45 Q 27509.55 37328.6 27868.45 37632 Q 28229.2 37935.4 28495.6 38542.2 Q 28760.15 38275.8 28760.15 37935.4 Q 28836 34525.85 28836 31569.55 Q 28836 23991.95 28608.45 18384.6 Q 28608.45 18005.35 28362.4 17892.5 Q 28116.35 17777.8 27698.25 17777.8 Q 26258.95 17777.8 21067.85 18271.75 Q 15878.6 18763.85 12430.2 19218.95  Z M 13793.65 34107.75 Q 13641.95 33615.65 14039.7 33426.95 Q 14437.45 33236.4 15044.25 33275.25 Q 15802.75 33312.25 18720.2 32933 Q 18757.2 31645.4 18757.2 29371.75 L 17166.2 29714 Q 16522.4 29902.7 16009.95 29277.4 Q 15499.35 28652.1 15195.95 27819.6 Q 15120.1 27516.2 15120.1 27440.35 Q 15120.1 26833.55 15839.75 26833.55 Q 16446.55 26833.55 18720.2 26378.45 L 18681.35 25925.2 Q 18453.8 24863.3 18037.55 23991.95 L 16901.65 24295.35 Q 16786.95 24334.2 16559.4 24334.2 Q 15763.9 24334.2 15044.25 23612.7 Q 14324.6 22893.05 14209.9 22060.55 L 14209.9 21870 Q 14209.9 21529.6 14361.6 21359.4 Q 14513.3 21189.2 14968.4 21189.2 Q 16522.4 21189.2 22357.3 19635.2 Q 23113.95 19483.5 23759.6 19294.8 Q 23948.3 19255.95 24251.7 19255.95 Q 24667.95 19255.95 24895.5 19370.65 Q 25123.05 19483.5 25387.6 19711.05 Q 25955.55 20279 26334.8 21605.45 Q 26410.65 21908.85 26410.65 22021.7 Q 26410.65 22628.5 25728 22628.5 Q 24440.4 22628.5 21865.2 23159.45 Q 22318.45 23272.3 22470.15 23387 Q 22736.55 23651.55 22736.55 23879.1 L 22660.7 24371.2 L 22546 25394.25 L 23569.05 25015 Q 23872.45 24902.15 24137 24902.15 Q 24895.5 24902.15 25387.6 25582.95 Q 25879.7 26265.6 26107.25 26985.25 Q 26146.1 27099.95 26146.1 27325.65 Q 26146.1 27667.9 25974.05 27932.45 Q 25803.85 28197 25502.3 28197 Q 24555.1 28197 22470.15 28576.25 Q 22470.15 29410.6 22546 32365.05 Q 23569.05 32213.35 25008.35 31911.8 L 24061.15 30585.35 L 23493.2 29789.85 Q 23152.8 29371.75 23152.8 29183.05 Q 23152.8 28879.65 23909.45 28879.65 Q 24555.1 28879.65 25217.4 28994.35 Q 25879.7 29107.2 26258.95 29295.9 Q 27585.4 29941.55 27585.4 30888.75 Q 27585.4 31569.55 26902.75 32176.35 Q 27167.3 32289.2 27243.15 32440.9 Q 28114.5 33615.65 28266.2 34450 Q 28417.9 35510.05 26486.5 35434.2 Q 24553.25 35397.2 21485.95 35700.6 Q 18416.8 36002.15 16598.25 36344.4 Q 15878.6 36496.1 14968.4 35756.1 Q 14060.05 35017.95 13793.65 34107.75  Z M 47476.6 42974.8 Q 47249.05 43087.65 46945.65 43087.65 Q 46605.25 43087.65 46414.7 42935.95 Q 45883.75 42405 44786.7 40360.75 Q 44596.15 40018.5 44596.15 39715.1 Q 44596.15 39374.7 44805.2 39165.65 Q 45012.4 38958.45 45088.25 38882.6 Q 45391.65 38466.35 45506.35 38162.95 Q 45619.2 37859.55 45658.05 37176.9 Q 45770.9 35585.9 45770.9 34487 Q 45770.9 33084.7 45600.7 31797.1 Q 45430.5 30509.5 44899.55 27780.75 L 44899.55 27553.2 Q 44899.55 26833.55 45543.35 26833.55 Q 46642.25 26833.55 47950.2 27270.15 Q 49256.3 27704.9 49672.55 28272.85 Q 49975.95 28615.1 49975.95 29410.6 Q 49975.95 29751 49900.1 30888.75 L 49863.1 33236.4 Q 49863.1 34298.3 49787.25 38011.25 Q 52401.3 37595 58424.9 37006.7 Q 64450.35 36420.25 66533.45 36420.25 Q 67519.5 36420.25 68200.3 36873.5 Q 68579.55 33691.5 68540.7 29107.2 Q 68540.7 28842.65 68466.7 28008.3 Q 68315 26378.45 68315 26302.6 L 68315 26228.6 Q 68315 25621.8 69338.05 25621.8 Q 70586.8 25621.8 71554.35 26001.05 Q 72520.05 26378.45 73352.55 26909.4 Q 74223.9 27553.2 74223.9 28500.4 Q 74223.9 28727.95 74149.9 29183.05 Q 73655.95 32516.75 73504.25 36836.5 Q 73504.25 37176.9 73428.4 38503.35 Q 73352.55 39829.8 73200.85 40852.85 Q 73012.15 42292.15 71609.85 42974.8 Q 70209.4 43655.6 68655.4 43655.6 Q 68087.45 43655.6 67708.2 42974.8 Q 67328.95 42292.15 67328.95 41420.8 Q 67328.95 41041.55 67480.65 40510.6 Q 66836.85 40473.6 65510.4 40473.6 Q 61910.3 40473.6 57610.9 40928.7 Q 53309.65 41381.95 50242.35 41912.9 Q 49067.6 42064.6 48327.6 42480.85 Q 47589.45 42898.95 47476.6 42974.8  Z M 47400.75 16830.6 Q 47210.2 16377.35 47210.2 16149.8 Q 47210.2 15618.85 47968.7 15543 Q 50242.35 15391.3 57042.95 14310.9 Q 63843.55 13232.35 66344.75 12664.4 Q 66798 12588.55 66873.85 12588.55 Q 67480.65 12588.55 67821.05 13004.8 Q 68352 13535.75 68561.05 13857.65 Q 68768.25 14179.55 69186.35 15126.75 Q 69338.05 15430.15 69338.05 15883.4 Q 69338.05 16338.5 69110.5 16678.9 Q 68882.95 17021.15 68540.7 17021.15 Q 67821.05 17021.15 67441.8 16982.3 L 65889.65 16945.3 Q 63199.75 16945.3 58387.9 17664.95 Q 53576.05 18384.6 50734.45 19370.65 Q 50394.05 19483.5 50051.8 19483.5 Q 49748.4 19483.5 49446.85 19294.8 Q 49028.75 19143.1 48442.3 18460.45 Q 47854 17777.8 47400.75 16830.6  Z M 50355.2 21870 Q 50242.35 21642.45 50242.35 21377.9 Q 50242.35 20771.1 51189.55 20771.1 Q 52741.7 20771.1 54031.15 21302.05 L 54181 21416.75 Q 56682.2 21150.35 59164.9 20676.75 Q 61645.75 20203.15 62744.65 19672.2 Q 63085.05 19520.5 63388.45 19520.5 Q 63653 19520.5 64108.1 19672.2 Q 65737.95 20203.15 67216.1 21529.6 Q 67556.5 21833 67556.5 22173.4 Q 67556.5 22400.95 67441.8 22685.85 Q 67328.95 22968.9 67290.1 23159.45 Q 66988.55 24295.35 66685.15 31645.4 Q 66609.3 33123.55 65850.8 34240.95 Q 65094.15 35358.35 63804.7 35510.05 Q 63351.45 35585.9 63103.55 35397.2 Q 62857.5 35206.65 62611.45 34884.75 Q 62365.4 34562.85 62213.7 34374.15 Q 61873.3 33956.05 61682.75 33806.2 Q 59107.55 33806.2 55394.6 34259.45 Q 55355.75 35282.5 54371.55 35926.3 Q 54144 36002.15 54031.15 36002.15 Q 53576.05 36002.15 53026.6 35661.75 Q 52477.15 35321.35 52249.6 34979.1 Q 51909.2 34562.85 51833.35 34107.75 Q 51757.5 33654.5 51757.5 33293.75 Q 51757.5 32933 51757.5 32859 Q 51757.5 31872.95 51472.6 28955.5 Q 51187.7 26038.05 50771.45 23311.15 Q 50734.45 23120.6 50355.2 21870  Z M 54599.1 26454.3 Q 55698 26378.45 57022.6 26228.6 Q 56985.6 25205.55 56833.9 23499.85 L 54371.55 23879.1 L 54599.1 26454.3 Z M 54826.65 28766.8 Q 54902.5 29675.15 55130.05 31417.85 L 57061.45 31190.3 L 57061.45 28766.8 L 56417.65 28879.65 Q 55925.55 28994.35 55546.3 28994.35 Q 55130.05 28994.35 54826.65 28766.8  Z M 60358.15 28348.7 Q 60358.15 29410.6 60434 30849.9 Q 60887.25 30774.05 61153.65 30774.05 L 61381.2 30774.05 Q 61797.45 30774.05 62252.55 30964.6 Q 62404.25 29031.35 62441.25 28197 Q 61077.8 28272.85 60358.15 28348.7  Z M 60585.7 25621.8 Q 61342.35 25431.25 61682.75 25431.25 Q 62100.85 25431.25 62441.25 25621.8 L 62441.25 23651.55 Q 62441.25 22893.05 61797.45 22893.05 L 60546.85 22968.9 Q 60585.7 23083.6 60585.7 23311.15 Q 60585.7 23688.55 60546.85 23916.1 L 60434 25658.8 L 60585.7 25621.8 Z M 85362.75 42935.95 Q 84530.25 42708.4 83714.4 42027.6 Q 82900.4 41344.95 82445.3 40416.25 Q 81992.05 39487.55 82104.9 38540.35 Q 82293.6 35206.65 82293.6 30394.8 Q 82293.6 23916.1 81764.5 22288.1 Q 81649.8 22060.55 81649.8 21833 Q 81649.8 21605.45 81820 21472.25 Q 81992.05 21340.9 82256.6 21377.9 Q 83847.6 21566.6 84643.1 21908.85 Q 85666.15 20166.15 86139.75 18025.7 Q 86613.35 15883.4 86728.05 13876.15 Q 86765.05 13117.65 86916.75 12795.75 Q 87068.45 12473.85 87484.7 12473.85 Q 87751.1 12473.85 88128.5 12588.55 Q 89190.4 12891.95 90174.6 13515.4 Q 91160.65 14140.7 91689.75 14975.05 Q 91956.15 15354.3 91956.15 15883.4 Q 91956.15 16604.9 91462.2 17209.85 Q 91236.5 17437.4 91045.95 17683.45 Q 90857.25 17929.5 90666.7 18157.05 Q 89606.65 19446.5 88583.6 20506.55 Q 87560.55 21566.6 86045.4 22704.35 L 86197.1 22817.2 Q 87599.4 22628.5 89719.5 21984.7 Q 90250.45 21833 90611.2 21586.95 Q 90970.1 21340.9 91216.15 21113.35 Q 91462.2 20885.8 91538.05 20809.95 Q 91993.15 20506.55 92409.4 20506.55 Q 92712.8 20506.55 92940.35 20619.4 Q 93774.7 20961.65 94455.5 21396.4 Q 95138.15 21833 96048.35 22628.5 Q 96501.6 23159.45 96501.6 23612.7 Q 96501.6 23803.25 96388.75 24106.65 Q 96124.2 25090.85 96048.35 25621.8 Q 97600.5 22741.35 98717.9 18821.2 Q 99835.3 14899.2 99835.3 12853.1 Q 99835.3 12398 99798.3 12246.3 L 99798.3 12094.6 Q 99798.3 11754.2 100007.35 11602.5 Q 100214.55 11450.8 100593.8 11526.65 Q 101920.25 11793.05 102904.45 12151.95 Q 103890.5 12512.7 104723 13117.65 Q 105329.8 13611.6 105329.8 14331.25 Q 105329.8 14671.65 105178.1 15012.05 Q 104798.85 15883.4 104419.6 17058.15 L 103966.35 18232.9 Q 103132 20582.4 102260.65 22060.55 Q 103775.8 21794.15 105141.1 21472.25 Q 106504.55 21150.35 107035.5 20961.65 Q 107187.2 20922.8 107679.3 20715.6 Q 108171.4 20506.55 108587.65 20506.55 Q 108891.05 20506.55 109118.6 20619.4 Q 110065.8 21037.5 111164.7 21833 Q 112263.6 22628.5 112679.85 23272.3 Q 113020.25 23727.4 113020.25 24182.5 Q 113020.25 24635.75 112737.2 25279.55 Q 112452.3 25925.2 112376.45 26152.75 Q 112187.75 26720.7 111960.2 28217.35 Q 111732.65 29714 111580.95 31266.15 Q 111543.95 31645.4 111486.6 32157.85 Q 111429.25 32668.45 111353.4 33312.25 Q 110709.6 40209.05 110254.5 41800.05 Q 109383.15 44678.65 106277 45816.4 Q 106049.45 45892.25 105973.6 45892.25 Q 105442.65 45892.25 104610.15 44830.35 Q 103814.65 43731.45 102488.2 42556.7 Q 101653.85 41800.05 101010.05 41156.25 Q 100706.65 40928.7 100706.65 40738.15 Q 100706.65 40586.45 100858.35 40510.6 Q 101010.05 40434.75 101237.6 40434.75 Q 102943.3 40434.75 104230.9 40360.75 Q 105366.8 40284.9 105481.5 39563.4 Q 106580.4 32479.75 106883.8 26796.55 Q 106883.8 26226.75 106504.55 25810.5 Q 106125.3 25394.25 105141.1 25545.95 Q 102752.75 25925.2 101655.7 25962.2 Q 100556.8 26001.05 100329.25 26001.05 Q 99685.45 26001.05 99267.35 25697.65 Q 97866.9 26872.4 95820.8 28008.3 L 95820.8 29562.3 Q 95820.8 34222.45 95933.65 37707.85 Q 95972.5 39223 95650.6 39942.65 Q 95326.85 40662.3 94303.8 41457.8 Q 93319.6 42329.15 92636.95 42329.15 Q 91917.3 42329.15 91613.9 41496.65 Q 91349.35 41004.55 91236.5 40625.3 Q 91045.95 40057.35 90818.4 39715.1 Q 90590.85 39374.7 90098.75 38995.45 Q 88243.2 39186 86916.75 39602.25 Q 86916.75 43239.35 85362.75 42935.95  Z M 86728.05 35737.6 Q 88356.05 35434.2 91388.2 35130.8 Q 91462.2 33084.7 91462.2 31797.1 Q 91121.8 32024.65 90515 32024.65 Q 89719.5 32024.65 88659.45 32119 Q 87599.4 32213.35 86992.6 32328.05 L 86689.2 32403.9 L 86728.05 35737.6 Z M 88431.9 28955.5 Q 88659.45 28879.65 89020.2 28803.8 Q 89379.1 28727.95 89719.5 28727.95 Q 90174.6 28727.95 90365.15 28879.65 Q 90781.4 29107.2 91008.95 29371.75 Q 91236.5 29638.15 91462.2 30091.4 Q 91462.2 26681.85 91425.2 25962.2 Q 91425.2 25394.25 90818.4 25394.25 Q 90515 25394.25 89303.25 25658.8 Q 87560.55 25962.2 87408.85 25962.2 Q 87068.45 26001.05 86840.9 25962.2 L 86728.05 29371.75 L 88431.9 28955.5 Z M 97372.95 28955.5 Q 97145.4 28727.95 97145.4 28539.25 Q 97145.4 28047.15 98168.45 28121.15 Q 99533.75 28197 100651.15 28576.25 Q 101768.55 28955.5 103095 29599.3 Q 104155.05 30167.25 104667.5 30925.75 Q 105178.1 31684.25 105178.1 32516.75 Q 105178.1 33351.1 104649 34146.6 Q 104118.05 34942.1 103207.85 35473.05 Q 103056.15 35585.9 102791.6 35585.9 Q 102488.2 35585.9 102203.3 35434.2 Q 101920.25 35282.5 101844.4 35169.65 Q 101768.55 35054.95 100177.55 32783.15 Q 98434.85 30015.55 97372.95 28955.5  Z M 123593 42368 Q 123478.3 42405 123213.75 42405 Q 121850.3 42405 120827.25 41080.4 Q 119804.2 39753.95 119160.4 38124.1 Q 119045.7 37820.7 119045.7 37669 Q 119045.7 37404.45 119215.9 37310.1 Q 119387.95 37215.75 119728.35 37215.75 Q 120144.6 37215.75 120560.85 37252.75 Q 120978.95 37291.6 121319.35 37328.6 Q 123176.75 37441.45 133651.45 36627.45 Q 144128 35813.45 146362.8 35473.05 Q 146930.75 35358.35 147385.85 35358.35 Q 148447.75 35358.35 149015.7 36041 Q 149583.65 36721.8 150038.75 37689.35 Q 150493.85 38655.05 150682.55 39411.7 Q 150795.4 39678.1 150795.4 39981.5 Q 150795.4 40701.15 150247.8 41060.05 Q 149698.35 41420.8 148939.85 41344.95 Q 147348.85 41117.4 144165 41117.4 Q 139392 41117.4 132798.6 41533.65 Q 126207.05 41951.75 123593 42368  Z M 124843.6 19938.6 Q 124691.9 19749.9 124691.9 19483.5 Q 124691.9 19067.25 125108.15 18802.7 Q 125524.4 18536.3 126131.2 18536.3 Q 127761.05 18575.15 133557.1 17911 Q 139355 17248.7 141438.1 16793.6 Q 141969.05 16717.75 142196.6 16717.75 Q 143521.2 16717.75 144091 17361.55 Q 144923.5 18158.9 145415.6 19674.05 Q 145530.3 20014.45 145530.3 20354.85 Q 145530.3 21377.9 144165 21377.9 Q 141854.35 21377.9 136437.55 21927.35 Q 131018.9 22476.8 129352.05 22856.05 Q 129085.65 22931.9 128556.55 22931.9 Q 126244.05 22931.9 124843.6 19938.6  Z M 126510.45 29410.6 Q 126434.6 29107.2 126434.6 28957.35 Q 126434.6 28047.15 127836.9 28047.15 Q 129237.35 28047.15 133520.1 27479.2 Q 137801 26911.25 139847.1 26532 Q 140527.9 26456.15 140755.45 26456.15 Q 141893.2 26456.15 142537 27099.95 Q 143067.95 27592.05 143351 28350.55 Q 143635.9 29107.2 143711.75 29258.9 Q 143787.6 29638.15 143787.6 29789.85 Q 143787.6 30925.75 142649.85 30925.75 Q 140755.45 30888.75 136228.5 31229.15 Q 131701.55 31571.4 130639.65 31760.1 Q 130108.7 31835.95 129920 31835.95 Q 128669.4 31835.95 127761.05 31077.45 Q 126850.85 30320.8 126510.45 29410.6  Z M 157577.5 45625.85 Q 157009.55 45625.85 156480.45 45455.65 Q 155949.5 45285.45 155949.5 45057.9 Q 155949.5 44793.35 156706.15 44451.1 Q 159055.65 43503.9 161386.65 41135.9 Q 163715.8 38767.9 165628.7 35264 Q 167543.45 31760.1 168603.5 27592.05 Q 164853.55 28235.85 161973.1 29107.2 Q 161708.55 29220.05 161405.15 29220.05 Q 160761.35 29220.05 160154.55 28727.95 Q 159131.5 27971.3 157768.05 25431.25 Q 157540.5 25015 157540.5 24750.45 Q 157540.5 24219.5 158223.15 24219.5 Q 162731.6 24219.5 169399 23499.85 Q 169741.25 21037.5 169741.25 18460.45 Q 169741.25 14860.35 169134.45 12928.95 Q 169019.75 12512.7 169019.75 12285.15 Q 169019.75 11754.2 169741.25 11754.2 Q 169854.1 11754.2 170385.05 11830.05 Q 171748.5 12057.6 173036.1 12416.5 Q 174325.55 12777.25 174854.65 13232.35 Q 175233.9 13611.6 175121.05 14179.55 Q 174854.65 15163.75 174854.65 15618.85 Q 174854.65 18991.4 174438.4 22817.2 Q 178795.15 22136.4 181712.6 21265.05 Q 182395.25 21113.35 182622.8 21113.35 Q 183151.9 21113.35 183607 21414.9 Q 185161 22362.1 185993.5 24332.35 Q 186108.2 24598.75 186108.2 24978 Q 186108.2 25431.25 185823.3 25734.65 Q 185540.25 26038.05 184972.3 26038.05 Q 180425 25962.2 173907.45 26757.7 Q 176068.25 29939.7 177735.1 32176.35 Q 179401.95 34411.15 181333.35 36344.4 Q 183682.85 38655.05 185786.3 40264.55 Q 187887.9 41875.9 189972.85 42784.25 Q 190464.95 43011.8 190464.95 43276.35 Q 190464.95 43542.75 189934 43770.3 Q 188343 44375.25 186563.3 44697.15 Q 184781.75 45020.9 183455.3 45020.9 Q 181979 45020.9 181011.45 44717.5 Q 180045.75 44414.1 179438.95 43466.9 L 178795.15 42443.85 Q 175613.15 37593.15 173718.75 34374.15 L 173339.5 33691.5 L 172431.15 32100.5 Q 170346.2 38275.8 166690.6 41951.75 Q 163035 45625.85 157577.5 45625.85  Z M 191904.25 31495.55 Q 191639.7 31721.25 191373.3 31721.25 Q 191221.6 31721.25 191184.6 31608.4 Q 191145.75 31495.55 191221.6 31343.85 Q 193003.15 29031.35 194764.35 24465.55 Q 196527.4 19899.75 197208.2 16566.05 Q 197587.45 14786.35 197587.45 13535.75 Q 197587.45 12701.4 197398.75 11868.9 Q 197359.9 11754.2 197359.9 11565.5 Q 197359.9 10618.3 198610.5 10731.15 Q 199861.1 10997.55 200638.1 11374.95 Q 201413.25 11754.2 201831.35 12057.6 Q 202247.6 12361 202360.45 12436.85 Q 203043.1 13004.8 203043.1 13611.6 Q 203043.1 13989 202663.85 14747.5 Q 201792.5 16490.2 201263.4 18232.9 Q 204029.15 18308.75 205316.75 18839.7 Q 207666.25 19938.6 207666.25 21453.75 Q 207666.25 22552.65 206339.8 23614.55 Q 205999.4 24030.8 205392.6 24030.8 Q 204748.8 24030.8 204369.55 23538.7 Q 203459.35 22591.5 202815.55 21870 Q 201527.95 20430.7 200732.45 19748.05 Q 200504.9 20354.85 199709.4 22249.25 Q 200845.3 22515.65 202171.75 23159.45 Q 202891.4 23575.7 203289.15 24164 Q 203686.9 24750.45 203686.9 25394.25 Q 203686.9 26001.05 203307.65 26587.5 Q 202930.25 27175.8 202210.6 27630.9 Q 201868.35 27858.45 201413.25 27858.45 Q 200732.45 27858.45 200429.05 27364.5 L 199822.25 26456.15 Q 198875.05 24978 198497.65 24522.9 Q 196753.1 27555.05 194329.6 29714 Q 194557.15 29638.15 194670 29638.15 Q 196603.25 29525.3 198534.65 28994.35 Q 200466.05 28463.4 202967.25 27630.9 Q 203157.8 27555.05 203459.35 27364.5 Q 203762.75 27175.8 204029.15 27175.8 Q 204293.7 27175.8 204748.8 27403.35 Q 205696 27858.45 206622.85 28805.65 Q 207551.55 29751 207742.1 30396.65 Q 207817.95 30661.2 207684.75 30849.9 Q 207551.55 31040.45 207135.3 31419.7 Q 206719.05 31760.1 206149.25 32403.9 Q 204029.15 35056.8 201755.5 37556.15 Q 202663.85 38048.25 203157.8 38806.75 Q 203649.9 39565.25 203649.9 40397.75 Q 203649.9 41232.1 203176.3 42007.25 Q 202702.7 42784.25 201792.5 43391.05 Q 201413.25 43655.6 200884.15 43655.6 Q 200088.65 43655.6 199670.55 42974.8 L 198571.65 41307.95 Q 197890.85 40246.05 197171.2 39243.35 Q 196451.55 38238.8 195580.2 37215.75 Q 195200.95 36799.5 195200.95 36496.1 Q 195200.95 35965.15 196336.85 35965.15 Q 197739.15 35965.15 199557.7 36608.95 Q 199861.1 36078 200504.9 34790.4 Q 201831.35 32291.05 202551 31116.3 Q 200921.15 31684.25 199159.95 32139.35 Q 197398.75 32592.6 196640.25 32592.6 Q 195730.05 32592.6 195010.4 32063.5 Q 194934.55 31987.65 194536.8 31608.4 Q 194139.05 31229.15 193987.35 30849.9 Q 193722.8 30433.65 193835.65 30093.25 Q 192964.3 30812.9 191904.25 31495.55  Z M 204256.7 45133.75 Q 208992.7 42861.95 211170.15 39641.1 Q 213349.45 36420.25 213728.7 33465.8 Q 214107.95 29789.85 214107.95 28463.4 Q 214107.95 27212.8 213880.4 26759.55 Q 213841.55 26644.85 213841.55 26493.15 Q 213841.55 26228.6 214296.65 26228.6 Q 215432.55 26228.6 216646.15 26587.5 Q 217857.9 26948.25 218616.4 27667.9 Q 218993.8 28008.3 218993.8 28463.4 Q 218993.8 28653.95 218899.45 29031.35 Q 218805.1 29410.6 218768.1 29789.85 Q 218313 34109.6 217138.25 37176.9 Q 218993.8 37367.45 220945.55 37935.4 Q 222897.3 38503.35 224355.1 39223 Q 225814.75 39942.65 226268 40473.6 Q 226874.8 41080.4 226874.8 42140.45 Q 226874.8 42935.95 226477.05 43751.8 Q 226079.3 44565.8 225320.8 45172.6 Q 224943.4 45400.15 224525.3 45400.15 Q 223920.35 45400.15 223389.4 44869.2 Q 219184.35 40094.35 216607.3 38427.5 Q 215016.3 41763.05 212061.85 43600.1 Q 209105.55 45437.15 204406.55 45931.1 Q 204254.85 45968.1 203953.3 45968.1 Q 203383.5 45968.1 203383.5 45740.55 Q 203383.5 45513 204256.7 45133.75  Z M 206491.5 16225.65 Q 206263.95 15657.7 206263.95 15354.3 Q 206263.95 14823.35 207174.15 14823.35 Q 209370.1 14823.35 214694.4 13724.45 Q 220016.85 12625.55 222518.05 11944.75 Q 222897.3 11868.9 223426.4 11868.9 Q 223881.5 11868.9 224127.55 12000.25 Q 224373.6 12133.45 224601.15 12398 Q 225019.25 12816.1 225492.85 13611.6 Q 225966.45 14407.1 226155.15 15087.9 L 226231 15543 Q 226231 15998.1 226003.45 16244.15 Q 225775.9 16490.2 225511.35 16414.35 Q 223086 16301.5 218237.15 17097 Q 218729.25 17437.4 219032.65 17853.65 Q 219184.35 18044.2 219184.35 18347.6 Q 219184.35 18688 218919.8 19009.9 Q 218653.4 19331.8 218313 19616.7 Q 217972.6 19899.75 217857.9 20014.45 Q 217630.35 20203.15 217025.4 20752.6 Q 216418.6 21302.05 215850.65 21720.15 Q 217099.4 21529.6 218122.45 21189.2 Q 219676.45 20734.1 220359.1 20393.7 Q 220738.35 20127.3 221267.45 20127.3 Q 221458 20127.3 221683.7 20203.15 Q 222669.75 20582.4 223237.7 20904.3 Q 223805.65 21226.2 224640 21870 Q 225207.95 22325.1 225207.95 22743.2 Q 225207.95 23007.75 224943.4 23387 Q 224525.3 24334.2 224412.45 25053.85 Q 224260.75 26681.85 224260.75 28803.8 L 224260.75 31684.25 L 224260.75 32934.85 Q 224260.75 34146.6 223711.3 34847.75 Q 223161.85 35548.9 222177.65 35965.15 Q 221609.7 36192.7 221078.75 36192.7 Q 220168.55 36192.7 219979.85 35548.9 Q 219676.45 34638.7 219676.45 33691.5 Q 219676.45 33086.55 219791.15 32176.35 Q 219904 31417.85 219979.85 29012.85 Q 220055.7 26607.85 220055.7 24447.05 Q 220055.7 24219.5 219828.15 24106.65 Q 219600.6 23991.95 219297.2 24030.8 Q 217933.75 24219.5 216039.35 24617.25 Q 214144.95 25015 213310.6 25281.4 Q 213160.75 25318.4 212933.2 25318.4 Q 212781.5 28502.25 212781.5 32063.5 L 212818.5 33654.5 Q 212970.2 35434.2 212344.9 36477.6 Q 211719.6 37519.15 210811.25 37480.3 Q 210356.15 37480.3 209730.85 36912.35 Q 209105.55 36344.4 208650.45 35510.05 Q 208197.2 34677.55 208197.2 33919.05 Q 208197.2 33615.65 208234.2 33463.95 Q 208424.75 32668.45 208537.6 30907.25 Q 208650.45 29146.05 208650.45 27136.95 Q 208650.45 22931.9 208197.2 21340.9 Q 208121.35 21113.35 208121.35 21037.5 Q 208121.35 20582.4 208765.15 20658.25 Q 210356.15 20922.8 211303.35 21265.05 Q 212250.55 21605.45 212818.5 22173.4 L 213084.9 22173.4 Q 214637.05 19143.1 214864.6 17701.95 L 210243.3 18575.15 Q 210052.75 18649.15 209636.5 18649.15 Q 208726.3 18649.15 207836.45 18005.35 Q 206946.6 17361.55 206491.5 16225.65  Z M 231725.5 38958.45 Q 231346.25 38503.35 230948.5 37045.55 Q 230550.75 35585.9 230436.05 35245.5 Q 230399.05 35093.8 230399.05 34790.4 Q 230399.05 34335.3 230645.1 34052.25 Q 230891.15 33767.35 231309.25 33806.2 Q 231573.8 33843.2 232028.9 33843.2 Q 232785.55 33843.2 233695.75 33578.65 Q 234415.4 33388.1 235741.85 32934.85 Q 235741.85 28918.5 235703 26532 Q 234415.4 26796.55 234339.55 26796.55 Q 233732.75 26872.4 233619.9 26872.4 Q 233203.65 26872.4 232633.85 26532 Q 232217.6 26265.6 231707 25564.45 Q 231194.55 24863.3 231042.85 24295.35 Q 231005.85 24219.5 231042.85 24125.15 Q 231081.7 24030.8 231194.55 23991.95 Q 233051.95 23387 235703 22591.5 L 235590.15 16793.6 Q 235514.3 14066.7 234642.95 12664.4 Q 234452.4 12322.15 234452.4 12057.6 Q 234452.4 11793.05 234679.95 11717.2 Q 234907.5 11641.35 235323.75 11678.35 Q 236650.2 11830.05 237900.8 12285.15 Q 239151.4 12740.25 239719.35 13232.35 Q 240022.75 13496.9 240174.45 13839.15 Q 240326.15 14179.55 240326.15 14710.5 Q 240326.15 15315.45 240250.3 15694.7 Q 240174.45 16301.5 240098.6 21302.05 L 240514.85 21189.2 Q 240969.95 21074.5 241349.2 21074.5 Q 241841.3 21074.5 242220.55 21340.9 Q 243091.9 21833 244039.1 23348.15 Q 244151.95 23575.7 244151.95 23803.25 Q 244151.95 24371.2 243508.15 24598.75 L 240022.75 25508.95 L 239946.9 31456.7 L 243696.85 30054.4 Q 243621 28502.25 243395.3 27403.35 Q 243167.75 26304.45 243128.9 26076.9 L 243053.05 25736.5 Q 243053.05 25357.25 243547 25357.25 Q 243887.4 25357.25 244664.4 25545.95 Q 245441.4 25736.5 245933.5 26001.05 Q 247184.1 25773.5 247940.75 25545.95 L 249002.65 24978 Q 249115.5 24863.3 249380.05 24863.3 Q 249570.6 24863.3 249779.65 24939.15 Q 249986.85 25015 250062.7 25053.85 Q 250858.2 25394.25 251237.45 25962.2 Q 251009.9 24410.05 250897.05 23235.3 Q 249267.2 23538.7 247069.4 24143.65 Q 246577.3 24219.5 246161.05 24012.3 Q 245742.95 23803.25 245175 23120.6 Q 244910.45 22817.2 244588.55 22193.75 Q 244266.65 21568.45 244227.8 21226.2 L 244227.8 21113.35 Q 244227.8 20809.95 244568.2 20734.1 Q 247903.75 20242 250593.65 19749.9 L 249874 12740.25 Q 249798.15 11905.9 249798.15 11717.2 Q 249798.15 11223.25 249968.35 11053.05 Q 250138.55 10882.85 250630.65 10919.85 Q 251540.85 10882.85 252658.25 11393.45 Q 253775.65 11905.9 254495.3 12473.85 Q 254610 12588.55 254685.85 12816.1 Q 254761.7 13041.8 254761.7 13269.35 Q 254761.7 13496.9 254647 13800.3 Q 254421.3 14444.1 254363.95 15108.25 Q 254306.6 15770.55 254306.6 16432.85 Q 254306.6 17097 254306.6 17437.4 L 254345.45 19067.25 L 257111.2 18460.45 Q 259081.45 17968.35 259534.7 17968.35 Q 259801.1 17968.35 259913.95 18005.35 Q 260672.45 18271.75 261146.05 19028.4 Q 261619.65 19786.9 261998.9 20922.8 Q 262074.75 21226.2 262074.75 21340.9 Q 262074.75 21681.3 261865.7 21908.85 Q 261656.65 22136.4 261353.25 22136.4 Q 257830.85 22136.4 254534.15 22591.5 Q 254874.55 26796.55 255745.9 30433.65 Q 256580.25 27667.9 256580.25 25584.8 Q 256580.25 25129.7 256504.4 24750.45 Q 256467.4 24674.6 256467.4 24522.9 Q 256467.4 24258.35 256674.6 24143.65 Q 256883.65 24030.8 257072.35 24067.8 Q 258398.8 24371.2 259458.85 24939.15 Q 260520.75 25508.95 260785.3 26189.75 Q 260900 26456.15 260900 26757.7 Q 260900 27175.8 260690.95 27725.25 Q 260481.9 28274.7 260406.05 28502.25 Q 259458.85 32215.2 257527.45 35661.75 Q 258739.2 38314.65 260332.05 40018.5 Q 260444.9 40170.2 260709.45 40170.2 Q 260900 40170.2 261012.85 40057.35 Q 261392.1 39526.4 261998.9 38333.15 Q 262603.85 37139.9 263171.8 35889.3 Q 263286.5 35700.6 263399.35 35700.6 Q 263475.2 35700.6 263551.05 35776.45 Q 263626.9 35852.3 263589.9 35965.15 Q 263514.05 36799.5 263665.75 37916.9 Q 263817.45 39034.3 264194.85 41041.55 Q 264764.65 43807.3 264764.65 44869.2 Q 264764.65 46611.9 262983.1 46611.9 Q 262074.75 46611.9 260994.35 46025.45 Q 259913.95 45437.15 258853.9 44377.1 Q 256731.95 42255.15 255140.95 39186 Q 252943.15 41838.9 250290.25 43448.4 Q 247637.35 45057.9 244758.75 45248.45 Q 244570.05 45248.45 244473.85 45039.4 Q 244379.5 44830.35 244607.05 44754.5 Q 247637.35 43202.35 249874 40758.5 Q 252108.8 38314.65 253586.95 35624.75 L 253246.55 34753.4 Q 251124.6 36116.85 248358.85 38087.1 Q 245630.1 39981.5 244379.5 40777 Q 244076.1 40928.7 243924.4 40928.7 Q 243508.15 40928.7 243053.05 40397.75 Q 242485.1 39905.65 241917.15 38958.45 Q 241349.2 38011.25 241349.2 37519.15 Q 241349.2 37291.6 241537.9 37215.75 Q 241726.6 37139.9 242333.4 37027.05 Q 242712.65 37027.05 243204.75 36912.35 L 253094.85 34222.45 Q 252032.95 31001.6 251426.15 27327.5 L 251426.15 27364.5 Q 251200.45 27780.75 251124.6 28463.4 Q 251048.75 29146.05 251009.9 30281.95 Q 251009.9 31380.85 250897.05 32403.9 Q 250630.65 34450 249306.05 34450 Q 249039.65 34450 248869.45 34316.8 Q 248699.25 34185.45 248547.55 33976.4 Q 248395.85 33767.35 248244.15 33615.65 L 246880.7 33882.05 L 246880.7 34033.75 Q 246880.7 34790.4 246614.3 35227 Q 246349.75 35661.75 245818.8 35585.9 Q 245517.25 35585.9 244928.95 35169.65 Q 244342.5 34753.4 244190.8 34450 Q 243887.4 33994.9 243811.55 33597.15 Q 243735.7 33199.4 243735.7 32820.15 Q 243735.7 32440.9 243735.7 32328.05 L 243735.7 30888.75 Q 241197.5 33314.1 238696.3 35264 Q 236195.1 37215.75 233240.65 39186 Q 232937.25 39413.55 232558 39413.55 Q 232104.75 39413.55 231725.5 38958.45  Z M 246729 28387.55 Q 246729 30320.8 246766 31456.7 Q 247372.8 31380.85 247789.05 31305 Q 247827.9 30925.75 247827.9 29826.85 L 247827.9 28502.25 Q 247827.9 28463.4 247827.9 28369.05 Q 247827.9 28274.7 247770.55 28235.85 Q 247713.2 28198.85 247600.35 28235.85 L 246729 28387.55 Z M 255557.2 13345.2 Q 255520.2 13308.2 255520.2 13156.5 Q 255520.2 12853.1 255745.9 12814.25 Q 256617.25 12701.4 257262.9 12701.4 Q 259194.3 12701.4 260369.05 13685.6 Q 260900 14103.7 260900 14975.05 Q 260900 15543 260672.45 16129.45 Q 260444.9 16717.75 260141.5 16982.3 Q 259649.4 17361.55 259118.45 17361.55 Q 258285.95 17361.55 257640.3 16453.2 Q 256315.7 14407.1 255557.2 13345.2  Z " fill-rule="nonzero" style="fill:#333333;;fill-opacity:1;"/>
</svg>