<svg version="1.1" x="0" y="0" width="100%" height="100%" viewBox="0 0 62003.2 318924.8" xmlns="http://www.w3.org/2000/svg">
  <path d="M 18442 11756 Q 19568.5 12849.5 20665 14336 Q 21763 15822.5 22313.5 17285 Q 23758 17999 24650.5 17319.5 Q 25469.5 16698.5 25378 15518 Q 25285 14339 23860 13208 Q 22324 11975 18718 11540 L 18442 11756 Z M 27934 30003.5 Q 25807 31323.5 23818 32460.5 L 23818 21186.5 Q 24793 21002 24985 20633 L 22006 18146 L 20377 19773.5 L 16844.5 19773.5 L 17122 20664.5 L 20347 20664.5 L 20347 33260 Q 20374 33716 20078.5 34058 Q 19783 34400 18841 34949 L 21391 38759 Q 21703 38571.5 22009 38148.5 Q 22316.5 37724 22466.5 37100 Q 24436 34947.5 25880.5 33147.5 Q 27325 31347.5 28118.5 30279.5 L 27934 30003.5 Z M 40007.5 37406 L 35645.5 37406 L 35645.5 22875.5 L 43478.5 22875.5 Q 44185 22884.5 44339.5 22385 Q 43480 21578 42487 20718.5 Q 42196 20465 41938 20243 Q 41051.5 19484 40990 19436 L 39148 21986 L 35645.5 21986 L 35645.5 12923 Q 36253 12830 36487 12603.5 Q 36719.5 12378.5 36751 12032 L 31897 11571.5 L 31897 37406 L 24862 37406 L 25108 38267 L 44647 38267 Q 45353.5 38274.5 45506.5 37775 Q 44624.5 36926 43595.5 36020 Q 43244.5 35709.5 42940 35444 Q 42034 34659.5 41974 34611.5 L 40007.5 37406 Z M 37334.5 47042.2 Q 38219.5 47973.7 38936.5 49308.7 Q 39653.5 50642.2 39823 51989.2 Q 41066.5 52841.2 41995 52314.7 Q 42817 51854.2 42922 50825.2 Q 43027 49794.7 41972.5 48702.7 Q 40805.5 47469.7 37612 46827.7 L 37334.5 47042.2 Z M 45137.5 64767.7 L 44830 64676.2 Q 44398 65721.7 43886.5 66756.7 Q 43373.5 67791.7 42988 68423.2 Q 42767.5 68814.7 42553 68841.7 Q 42340 68870.2 42004 68546.2 Q 40123 67194.7 38932 65198.2 Q 41467 62264.2 42988 59238.7 Q 43553.5 59324.2 43835.5 59196.7 Q 44119 59069.2 44246.5 58808.2 L 39884.5 56841.7 Q 39010 59445.7 37489 62094.7 Q 36514 59276.2 36137.5 55950.7 L 44647 55950.7 Q 45329.5 55959.7 45506.5 55460.2 Q 44530 54666.7 43462 53868.7 Q 43183 53660.2 42935.5 53477.2 Q 41977 52769.2 41912.5 52725.7 L 39946 55091.2 L 36044.5 55091.2 Q 35714.5 51189.7 35798.5 46919.2 Q 36388 46842.7 36625 46604.2 Q 36862 46367.2 36874 46059.7 L 32236 45599.2 Q 32204.5 50598.7 32635 55091.2 L 27106 55091.2 L 27106 49592.2 Q 28871.5 49200.7 30269.5 48762.7 Q 31751.5 49254.7 32266 48732.7 L 28396 45444.7 Q 26731 46562.2 24056.5 47844.7 Q 23167 48270.7 22225 48684.7 Q 19399 49929.7 16691.5 50790.7 L 16783 51159.7 Q 20162.5 50889.7 23542 50298.7 L 23542 55091.2 L 16568.5 55091.2 L 16844.5 55950.7 L 23542 55950.7 L 23542 60927.7 Q 21241 61301.2 19448.5 61577.2 Q 17654.5 61853.2 16598.5 61973.2 L 18196 66150.7 Q 18742 65996.2 19057 65382.7 Q 19280.5 65298.7 19499.5 65216.2 Q 21668.5 64404.7 23542 63662.2 L 23542 69314.2 Q 23596 69936.7 22865.5 69959.2 Q 22376.5 69954.7 21254.5 69891.7 Q 20513.5 69852.7 19844.5 69812.2 Q 18827.5 69750.7 18749.5 69744.7 L 18749.5 70143.7 Q 19969 70329.7 20620 70643.2 Q 21269.5 70956.7 21637 71372.2 Q 22306 72186.7 22375 73922.2 Q 25213 73686.7 26165.5 72614.2 Q 26288.5 72488.2 26390.5 72353.2 Q 27181 71195.2 27106 69437.2 L 27106 62217.7 Q 30415 60804.7 32573.5 59760.7 L 32512 59391.7 Q 31361.5 59585.2 30230.5 59784.7 Q 28640.5 60066.7 27106 60314.2 L 27106 55950.7 L 32726.5 55950.7 Q 33272.5 61274.2 35153.5 65535.7 Q 33563.5 67556.2 31564 69345.7 Q 29564.5 71135.2 27166 72509.2 L 27382 72878.2 Q 30052 71946.7 32278 70635.7 Q 34504 69324.7 36322 67748.2 Q 37826.5 70151.2 40069 71957.2 Q 41108.5 72834.7 42470.5 73323.7 Q 42722.5 73407.7 42974.5 73461.7 Q 44326 73796.2 45260.5 72908.2 Q 45619 72533.2 45464.5 71807.2 Q 45310 71079.7 44492.5 69806.2 L 45137.5 64767.7 Z M 21851.5 78920.4 Q 21031 83316.9 19610.5 87464.4 Q 19549 87648.9 19484.5 87830.4 Q 18047.5 91947.9 16414 94925.4 L 16783 95169.9 Q 18488.5 93726.9 20009.5 91821.9 L 20009.5 107765.4 L 20684.5 107765.4 Q 21788.5 107726.4 22651 107346.9 Q 23513.5 106967.4 23603.5 106721.4 L 23603.5 88596.9 Q 24448 88442.4 24556 88013.4 L 22927 87428.4 Q 24548.5 84533.4 25753 81039.9 Q 26806 81023.4 26983 80363.4 L 21851.5 78920.4 Z M 28396 79656.9 Q 29156.5 80576.4 29866 81788.4 Q 30575.5 83000.4 30946 84264.9 L 26644 83834.4 L 26644 107765.4 L 27259 107765.4 Q 28364.5 107730.9 29218 107351.4 Q 30070 106970.4 30116.5 106659.9 L 30116.5 85278.9 Q 30892 85155.9 31160.5 84848.4 Q 32404 85580.4 33241 84959.4 Q 33925 84456.9 33947.5 83474.4 Q 33971.5 82491.9 32990.5 81446.4 Q 31828 80174.4 28672 79472.4 L 28396 79656.9 Z M 41912.5 80609.4 L 40345 82452.9 L 34540 82452.9 L 34816 83343.9 L 40652.5 83343.9 L 40652.5 103280.4 Q 40721.5 103964.4 39916 103956.9 Q 39449.5 103950.9 38317 103890.9 Q 37511.5 103848.9 36782.5 103806.9 Q 35753.5 103746.9 35675.5 103740.9 L 35675.5 104141.4 Q 36878.5 104346.9 37550.5 104651.4 Q 38222.5 104955.9 38594.5 105369.9 Q 39332.5 106145.4 39424 107796.9 Q 42233.5 107534.4 43157.5 106602.9 Q 43280.5 106488.9 43382.5 106365.9 Q 44140 105353.4 44062 103679.4 L 44062 83927.4 Q 45007 83681.4 45353.5 83250.9 L 41912.5 80609.4 Z M 18658 113224.1 Q 19520.5 114269.6 20342.5 115678.1 Q 21166 117085.1 21545.5 118477.1 Q 22864 119258.6 23773 118661.6 Q 24568 118145.6 24605.5 117083.6 Q 24643 116020.1 23510.5 114919.1 Q 22244.5 113662.1 18934 113039.6 L 18658 113224.1 Z M 26705.5 132301.1 Q 25351 133136.6 24022 133897.1 Q 23888.5 133975.1 23756.5 134051.6 L 23756.5 122563.1 Q 24832 122339.6 24985 121979.6 L 22036 119521.1 L 20438.5 121118.6 L 16445.5 121118.6 L 16691.5 122009.6 L 20377 122009.6 L 20377 134758.1 Q 20407 135260.6 20101 135607.1 Q 19796.5 135953.6 18811 136478.6 L 21329.5 140288.6 Q 22043.5 139826.6 22436.5 138536.6 Q 23705.5 137005.1 24709 135643.1 Q 25712.5 134282.6 26396.5 133301.6 Q 26672.5 132911.6 26890 132608.6 L 26705.5 132301.1 Z M 31099 133898.6 L 31099 131225.6 L 38963.5 131225.6 L 38963.5 133898.6 L 31099 133898.6 Z M 38963.5 127661.6 L 38963.5 130334.6 L 31099 130334.6 L 31099 127661.6 L 38963.5 127661.6 Z M 38656 126802.1 L 31283.5 126802.1 L 27596.5 125327.6 L 27596.5 141547.1 L 28118.5 141547.1 Q 29273.5 141509.6 30161.5 141121.1 Q 31051 140732.6 31099 140441.6 L 31099 134789.6 L 38963.5 134789.6 L 38963.5 137123.6 Q 39017.5 137692.1 38380 137707.1 Q 37928.5 137701.1 36944.5 137641.1 Q 36512.5 137615.6 36113.5 137590.1 Q 35201.5 137528.6 35123.5 137522.6 L 35123.5 137953.1 Q 36116.5 138136.1 36635.5 138421.1 Q 37156 138707.6 37457.5 139120.1 Q 38041 139904.6 38072.5 141608.6 Q 40802.5 141365.6 41681.5 140422.1 Q 41777.5 140327.6 41860 140227.1 Q 42604 139214.6 42526 137522.6 L 42526 128276.6 Q 43456 128008.1 43786 127600.1 L 40222 124958.6 L 38656 126802.1 Z M 39884.5 123853.1 L 36322 123853.1 L 36322 120965.6 L 42865 120965.6 Q 43547.5 120973.1 43724.5 120473.6 Q 42832 119701.1 41849.5 118922.6 Q 41647 118760.6 41462.5 118615.1 Q 40562.5 117908.6 40499.5 117862.1 L 38747.5 120104.6 L 36322 120104.6 L 36322 117401.6 L 44032 117401.6 Q 44716 117409.1 44891.5 116909.6 Q 43958.5 116095.1 42923.5 115268.6 Q 42653.5 115052.6 42413.5 114862.1 Q 41483.5 114130.1 41420.5 114083.6 L 39547 116510.6 L 36322 116510.6 L 36322 113992.1 Q 37319.5 113800.1 37304.5 113192.6 L 32726.5 112793.6 L 32726.5 116510.6 L 26060.5 116510.6 L 26306.5 117401.6 L 32726.5 117401.6 L 32726.5 120104.6 L 27259 120104.6 L 27505 120965.6 L 32726.5 120965.6 L 32726.5 123853.1 L 25324 123853.1 L 25570 124744.1 L 44462.5 124744.1 Q 45169 124751.6 45322 124252.1 Q 44386 123416.6 43349.5 122582.6 Q 43084 122368.1 42847 122179.1 Q 41914 121441.1 41851 121394.6 L 39884.5 123853.1 Z M 44278 161014.3 Q 44999.5 161021.8 45169 160522.3 Q 44165.5 159674.8 43046.5 158800.3 Q 42667 158503.3 42340 158249.8 Q 41362 157495.3 41297.5 157450.3 L 39148 160123.3 L 32696.5 160123.3 L 32696.5 153947.8 L 41482 153947.8 Q 42188.5 153947.8 42343 153487.3 Q 41314 152600.8 40201 151745.8 Q 39890.5 151505.8 39617.5 151297.3 Q 38629 150550.3 38564.5 150506.8 L 36443.5 153088.3 L 32696.5 153088.3 L 32696.5 147988.3 Q 33305.5 147893.8 33553 147673.3 Q 33799 147452.8 33833.5 147128.8 L 29009.5 146666.8 L 29009.5 153088.3 L 24586 153088.3 Q 25447 151613.8 26122 149861.8 Q 27182.5 149854.3 27320.5 149248.3 L 22375 147835.3 Q 21845.5 151148.8 20780.5 154139.8 Q 19715.5 157130.8 18380.5 159293.8 L 18749.5 159539.8 Q 21836.5 157504.3 24094 153947.8 L 29009.5 153947.8 L 29009.5 160123.3 L 16783 160123.3 L 17060.5 161014.3 L 26921.5 161014.3 Q 25351 164509.3 22628.5 167813.8 Q 19906 171119.8 16354 173486.8 L 16630 173854.3 Q 20554 172210.3 23672.5 169903.3 Q 26791 167596.3 29009.5 164731.3 L 29009.5 175483.3 L 29716 175483.3 Q 30809.5 175439.8 31724.5 174986.8 Q 32639.5 174535.3 32696.5 174193.3 L 32696.5 161075.8 Q 35606.5 169768.3 42619 173393.8 Q 42977.5 172096.3 43744 171281.8 Q 44510.5 170467.3 45538 170230.3 L 45629.5 169861.3 Q 42056.5 168866.8 38795.5 166646.8 Q 38663.5 166555.3 38533 166462.3 Q 35303.5 164198.8 33310 161014.3 L 44278 161014.3 Z M 35584 190833 L 21698.5 190833 Q 24113.5 189694.5 25957 188332.5 Q 27802 186970.5 29132.5 185487 L 33895 185487 Q 35177.5 187476 36967 189051 L 35584 190833 Z M 34324 194980.5 L 26675.5 194980.5 L 26675.5 191724 L 34324 191724 L 34324 194980.5 Z M 26675.5 203643 L 26675.5 200172 L 34324 200172 L 34324 203305.5 L 26675.5 203643 Z M 34324 199281 L 26675.5 199281 L 26675.5 195840 L 34324 195840 L 34324 199281 Z M 45506.5 188652 Q 42917.5 188575.5 40162 187908 Q 39818.5 187821 39479.5 187723.5 Q 36769 186970.5 34939 185487 L 44002 185487 Q 44731 185494.5 44861.5 184996.5 Q 43916.5 184152 42814 183298.5 Q 42442 183007.5 42116.5 182760 Q 41147.5 182028 41083 181986 L 39025 184596 L 29900.5 184596 Q 30784 183490.5 31436.5 182385 Q 32450.5 182515.5 32635 181863 L 28118.5 180327 Q 27305.5 182370 25753 184596 L 17060.5 184596 L 17305 185487 L 25108 185487 Q 23617 187416 21491.5 189201 Q 19366 190986 16537 192430.5 L 16721.5 192738 Q 18796 192115.5 20593 191355 L 20684.5 191724 L 23111.5 191724 L 23111.5 203796 L 16999 204073.5 L 17243.5 204871.5 L 34324 204135 L 34324 209326.5 L 35000.5 209326.5 Q 36370 209289 37127.5 208965 Q 37886.5 208641 37918 208465.5 L 37918 203980.5 L 44123.5 203704.5 Q 44761 203650.5 44891.5 203182.5 Q 44152 202386 43313.5 201579 Q 43184.5 201456 43066 201340.5 Q 42278.5 200590.5 42220 200539.5 L 40376.5 203028 L 37918 203151 L 37918 191724 L 39271 191724 Q 39961 191731.5 40100.5 191232 L 39854.5 191017.5 Q 41321.5 191808 42926.5 192276 Q 43025.5 191247 43678 190476 Q 44332 189705 45445 189112.5 L 45506.5 188652 Z M 44401 229468.7 Q 45107.5 229476.2 45260.5 228976.7 Q 44252.5 228144.2 43138 227281.7 Q 42776.5 227001.2 42461.5 226758.2 Q 41483.5 226011.2 41420.5 225966.2 L 39239.5 228639.2 L 32696.5 228639.2 L 32696.5 220437.2 L 43264 220437.2 Q 43970.5 220444.7 44123.5 219945.2 Q 43136.5 219130.7 42037 218274.2 Q 41681.5 217996.7 41372.5 217756.7 Q 40408 217011.2 40345 216964.7 L 38257 219576.2 L 32696.5 219576.2 L 32696.5 215674.7 Q 33305.5 215580.2 33553 215359.7 Q 33799 215139.2 33833.5 214815.2 L 29009.5 214353.2 L 29009.5 219576.2 L 18104.5 219576.2 L 18350.5 220437.2 L 29009.5 220437.2 L 29009.5 228639.2 L 16753 228639.2 L 17029 229468.7 L 26921.5 229468.7 Q 25327 232776.2 22604.5 235911.2 Q 19882 239047.7 16354 241294.7 L 16630 241663.7 Q 20510.5 240114.2 23638 237931.7 Q 26764 235749.2 29009.5 233001.2 L 29009.5 243169.7 L 29716 243169.7 Q 30809.5 243126.2 31724.5 242673.2 Q 32639.5 242221.7 32696.5 241879.7 L 32696.5 229744.7 Q 35653 237708.2 42619 241018.7 Q 42952 239695.7 43705 238869.2 Q 44459.5 238041.2 45506.5 237823.7 L 45568 237454.7 Q 42128.5 236599.7 38909.5 234672.2 Q 38608 234489.2 38314 234298.7 Q 35162.5 232281.2 33218.5 229468.7 L 44401 229468.7 Z M 21452.5 221050.7 Q 22174 222345.2 22762 223962.2 Q 23350 225577.7 23449 227194.7 Q 24725.5 228240.2 25762 227766.2 Q 26711.5 227335.7 26921.5 226158.2 Q 27130 224979.2 26081.5 223581.2 Q 24955 222061.7 21730 220927.7 L 21452.5 221050.7 Z M 34540 228055.7 Q 35965 227167.7 37430.5 225916.7 Q 38897.5 224665.7 40162 223201.7 Q 41182 223246.7 41420.5 222648.2 L 36812.5 220836.2 Q 36221.5 222745.7 35515 224622.2 Q 34808.5 226497.2 34171 227809.7 L 34540 228055.7 Z M 33371.5 259164.4 L 33371.5 277012.9 L 34048 277012.9 Q 35164 276978.4 36083.5 276621.4 Q 37003 276264.4 37058.5 275998.9 L 37058.5 260454.4 Q 37688.5 260359.9 37927 260139.4 Q 38164 259918.9 38195.5 259594.9 L 33371.5 259164.4 Z M 24709 259255.9 L 24709 263341.9 Q 24779.5 265990.9 24088 268714.9 Q 23605 270499.9 22484.5 272175.4 Q 20825.5 274731.4 16999 276705.4 L 17213.5 277042.9 Q 22024 275646.4 24419.5 273367.9 Q 26719 271188.4 27521.5 268636.9 Q 28354 265968.4 28334.5 263373.4 L 28334.5 260515.9 Q 28876 260440.9 29095 260215.9 Q 29314 259992.4 29348.5 259686.4 L 24709 259255.9 Z M 32174.5 250593.4 Q 33500.5 254725.9 36271 257631.4 Q 39043 260538.4 42833.5 262389.4 Q 43046.5 261289.9 43805.5 260311.9 Q 44564.5 259333.9 45814 258948.4 L 45844 258487.9 Q 42397 257520.4 39112 255843.4 Q 38386 255457.9 37696 255028.9 Q 34571.5 253149.4 32696.5 250194.4 Q 34078 250093.9 34171 249487.9 L 28642 248136.4 Q 27926.5 250878.4 25829.5 253968.4 Q 24239.5 256315.9 22145.5 258490.9 Q 19390 261354.4 16292.5 263280.4 L 16475.5 263649.4 Q 20900.5 261961.9 24670 259072.9 Q 25826.5 258187.9 26876.5 257229.4 Q 30302.5 254095.9 32174.5 250593.4  Z M 18473.5 302622.6 Q 18934 302430.6 19303 301916.1 Q 22069 300879.6 24226 299912.1 Q 26381.5 298944.6 27628 298322.1 L 27596.5 297923.1 Q 25477 298085.1 23495.5 298218.6 Q 21514 298352.1 19948 298445.1 Q 22331.5 296702.1 24641.5 294497.1 Q 24995.5 294159.6 25339 293820.6 Q 27578.5 291603.6 28979.5 289689.6 Q 29462.5 289770.6 29762.5 289640.1 Q 30062.5 289508.1 30178 289290.6 L 25907.5 286955.1 Q 25582 287750.1 25090 288734.1 Q 24596.5 289718.1 23972.5 290765.1 Q 21184 290942.1 19087 290979.6 Q 20813.5 289644.6 22528 287912.1 Q 24242.5 286179.6 25415.5 284589.6 Q 26245 284582.1 26429.5 284067.6 L 21883 282224.1 Q 21496 283704.6 20602 285651.6 Q 20092 286763.1 19510 287799.6 Q 18491.5 289622.1 17551 290549.1 Q 17308 290714.1 16955.5 290814.6 Q 16604.5 290915.1 16568.5 290918.1 L 18166 294912.6 Q 18535 294782.1 18811 294420.6 Q 20945.5 293568.6 22712.5 292761.6 Q 21542.5 294471.6 20315.5 295899.6 Q 19090 297326.1 18011.5 298137.6 Q 17740 298325.1 17329 298445.1 Q 16918 298563.6 16876 298568.1 L 18473.5 302622.6 Z M 18749.5 309627.6 Q 19333 309365.1 19547.5 308736.6 Q 22508.5 306863.1 24574 305352.6 Q 26641 303843.6 27965.5 302775.6 L 27874 302469.6 Q 24710.5 303393.6 21841 304149.6 Q 21464.5 304248.6 21103 304341.6 Q 18341.5 305058.6 16906 305357.1 L 18749.5 309627.6 Z M 32635 307538.1 L 32635 299274.6 L 39977.5 299274.6 L 39977.5 307538.1 L 32635 307538.1 Z M 39854.5 298383.6 L 33004 298383.6 L 29287 296970.6 L 29287 310917.6 L 29900.5 310917.6 Q 31180 310886.1 31901.5 310583.1 Q 32623 310280.1 32635 310088.1 L 32635 308397.6 L 39977.5 308397.6 L 39977.5 310578.6 L 40591 310578.6 Q 41923 310545.6 42707.5 310253.1 Q 43492 309960.6 43510 309810.6 L 43510 299520.6 Q 44006.5 299429.1 44266 299285.1 Q 44527 299142.6 44677 298935.6 L 41513.5 296510.1 L 39854.5 298383.6 Z M 42373 282563.1 L 40591 284283.6 L 28057 284283.6 L 28334.5 285173.1 L 32603.5 285173.1 Q 32626 287861.1 32056 290361.6 Q 31778.5 291459.6 31256.5 292512.6 Q 30133 294911.1 27074.5 297032.1 L 27412 297461.1 Q 31633 295745.1 33536.5 293460.6 Q 34699 292106.1 35302 290594.1 Q 36265 288045.6 36382 285173.1 L 40868.5 285173.1 Q 40568.5 292293.6 39670 293099.1 Q 39355 293399.1 38717.5 293376.6 Q 38224 293373.6 37211.5 293318.1 Q 36200.5 293264.1 35338 293192.1 L 35338 293591.1 Q 37112.5 293960.1 37826.5 294696.6 Q 38410 295464.6 38348.5 296970.6 Q 40684 296978.1 42004 295925.1 Q 43046.5 295148.1 43552 292746.6 Q 44057.5 290343.6 44246.5 285696.6 Q 45145 285549.6 45445 285173.1 L 42373 282563.1 Z " fill-rule="nonzero" style="fill:#333333;;fill-opacity:1;"/>
</svg>