<svg version="1.1" x="0" y="0" width="100%" height="100%" viewBox="0 0 179148.8 83865.6" xmlns="http://www.w3.org/2000/svg">
  <path d="M 16978.25 6804.15 L 16978.25 6727.65 L 12185.75 6727.65 L 12185.75 21227.4 L 16978.25 21227.4 L 16978.25 21150.9 Q 15689 20049.9 14829.5 18203.4 Q 13970 16356.9 13937 13977.9 Q 13970 11598.15 14829.5 9751.65 Q 15689 7905.15 16978.25 6804.15  Z M 25871 18493.65 L 25871 16619.4 Q 25978.25 16908.15 26076.5 17205.15 Q 26175.5 17502.15 26225 17664.15 Q 26354 17595.9 26801.75 17477.4 Q 26894.75 17453.4 27010.25 17426.4 Q 27572 17292.15 29004.5 17034.15 Q 29074.25 17479.65 29096.75 17832.9 L 29957 17495.4 L 29957 18493.65 L 25871 18493.65 Z M 20188.25 16680.9 Q 20308.25 16964.4 20422.25 17308.65 Q 20537 17652.9 20587.25 17832.9 Q 20719.25 17744.4 21179 17624.4 Q 21263 17603.4 21364.25 17579.4 Q 21925.25 17446.65 23352.5 17187.9 Q 23421.5 17595.15 23444.75 17909.4 L 24274.25 17586.9 L 24274.25 18493.65 L 20188.25 18493.65 L 20188.25 16680.9 Z M 20188.25 12441.9 Q 20330.75 12748.65 20459 13127.4 Q 20587.25 13505.4 20648.75 13731.9 Q 20770.25 13664.4 21063.5 13599.15 Q 21357.5 13534.65 22031 13455.15 Q 21703.25 14215.65 21432.5 14780.4 Q 21161.75 15344.4 21017.75 15575.4 Q 20780 15970.65 20585.75 16227.9 Q 20391.5 16485.15 20188.25 16557.9 L 20188.25 12441.9 Z M 21800.75 16251.15 Q 22289 15509.4 22753.25 14653.65 Q 22942.25 15226.65 23093.75 15829.65 Q 23123.75 15941.4 23153 16050.9 L 21800.75 16251.15 Z M 24274.25 17064.9 Q 24165.5 16335.15 23947.25 15513.9 Q 23729.75 14691.9 23459.75 13962.15 L 23014.25 14161.65 Q 23724.5 12760.65 24274.25 11335.65 L 24274.25 17064.9 Z M 25871 12441.9 Q 25990.25 12730.65 26098.25 13048.65 Q 26205.5 13365.9 26255 13563.15 Q 26375.75 13494.9 26672 13430.4 Q 26968.25 13365.9 27653 13286.4 Q 27323.75 14033.4 27046.25 14582.4 Q 26768.75 15131.4 26624 15360.15 Q 26236.25 16108.65 25871 16327.65 L 25871 12441.9 Z M 27407 16128.15 Q 27914 15367.65 28375.25 14514.9 Q 28609.25 15198.9 28774.25 15928.65 L 27407 16128.15 Z M 29957 8386.65 L 29957 16757.4 Q 29826.5 16053.9 29615 15277.65 Q 29404.25 14501.4 29158.25 13808.4 L 28651.25 14023.65 Q 29388.5 12594.9 29942 11120.4 L 28574.75 10613.4 Q 28386.5 11331.9 28129.25 12027.15 L 27269 12103.65 Q 27691.25 11341.65 28070 10439.4 Q 28448.75 9536.4 28697.75 8647.65 L 27238.25 8202.15 Q 27078.5 9224.4 26813.75 10131.9 Q 26789 10218.9 26764.25 10302.15 Q 26501 11175.9 26363 11473.65 Q 26129 11980.65 25871 12165.15 L 25871 7096.65 L 24274.25 7096.65 L 24274.25 11289.9 L 22968.5 10782.9 Q 22780.25 11496.9 22523 12210.9 L 21647 12272.4 Q 22069.25 11499.15 22448 10596.15 Q 22826.75 9693.9 23075.75 8816.4 L 21586.25 8355.9 Q 21436.25 9375.15 21177.5 10280.4 Q 21152 10372.65 21126.5 10461.15 Q 20868.5 11330.4 20741 11627.4 Q 20487.5 12226.65 20188.25 12364.65 L 20188.25 8417.4 L 18514.25 8417.4 L 18514.25 20167.65 L 29957 20167.65 L 29957 21042.9 L 31661.75 21042.9 L 31661.75 8401.65 L 29957 8386.65 Z M 35579 9768.9 L 45240.5 9768.9 L 45240.5 10767.15 L 47099 10767.15 L 47099 8125.65 L 41799.5 8125.65 Q 41509.25 7526.4 41178.5 6951.9 Q 41118.5 6843.9 41062.25 6743.4 L 39173 7218.9 Q 39395.75 7626.15 39618.5 8125.65 L 33797 8125.65 L 33797 10951.65 L 35579 10951.65 L 35579 9768.9 Z M 34472.75 15882.15 Q 34277 16734.9 33943.25 17529.9 Q 33608.75 18324.15 33137 18923.4 Q 33433.25 19113.15 33816.5 19420.65 Q 34199 19728.15 34427 19952.4 Q 34940 19265.4 35369.75 18276.15 Q 35799.5 17286.9 36070.25 16220.4 L 34472.75 15882.15 Z M 40924.25 15421.65 L 40924.25 13824.15 L 38067.5 13824.15 L 38067.5 12764.4 L 40417.25 12764.4 L 40417.25 11228.4 L 38067.5 11228.4 L 38067.5 10368.15 L 36362 10368.15 L 36362 13824.15 L 33490.25 13824.15 L 33490.25 15421.65 L 36562.25 15421.65 L 36562.25 19368.9 Q 36581 19599.15 36300.5 19599.15 Q 36134.75 19599.9 35720.75 19597.65 Q 35307.5 19595.4 34841.75 19584.15 Q 35006.75 19928.4 35137.25 20348.4 Q 35267.75 20767.65 35318 21135.15 Q 36053 21142.65 36604.25 21095.4 Q 37155.5 21047.4 37544.75 20859.15 Q 37939.25 20680.65 38076.5 20338.65 Q 38214.5 19996.65 38205.5 19415.4 L 38205.5 15421.65 L 40924.25 15421.65 Z M 41231 18263.4 Q 41057.75 17736.9 40691.75 17072.4 Q 40325.75 16408.65 39910.25 15836.4 L 38558.75 16465.65 Q 38939.75 17084.4 39281 17769.9 Q 39621.5 18454.65 39772.25 18969.9 L 41231 18263.4 Z M 45056 12810.15 Q 44660.75 14568.9 43873.25 15959.4 Q 43163 14499.9 42752 12810.15 L 45056 12810.15 Z M 45885.5 11166.9 L 45593.75 11228.4 L 40955 11228.4 L 40955 12810.15 L 42014.75 12810.15 L 41216 12978.9 Q 41792 15505.65 42828.5 17479.65 Q 41546 18984.9 39710.75 19707.15 Q 39984.5 19977.15 40263.5 20388.15 Q 40543.25 20799.9 40724.75 21150.9 Q 42502.25 20332.65 43796.75 18939.15 Q 44887.25 20352.15 46484.75 21212.4 Q 46672.25 20849.4 47012.75 20428.65 Q 47352.5 20008.65 47667.5 19737.9 Q 46008.5 18961.65 44902.25 17541.15 Q 46427 15233.4 46961 11473.65 L 45885.5 11166.9 Z M 53012.75 15206.4 L 53012.75 14238.9 L 58419.5 14238.9 L 58419.5 14929.65 L 58097 15206.4 L 53012.75 15206.4 Z M 58419.5 9830.4 L 58419.5 10690.65 L 53012.75 10690.65 L 53012.75 9830.4 L 58419.5 9830.4 Z M 58419.5 12933.15 L 53012.75 12933.15 L 53012.75 11996.4 L 58419.5 11996.4 L 58419.5 12933.15 Z M 61184 11627.4 Q 60738.5 12368.4 60200.75 13040.4 L 60200.75 8263.65 L 56330 8263.65 Q 56679.5 7656.9 57005.75 7004.4 L 54871.25 6773.4 Q 54701.75 7461.15 54395 8263.65 L 51200 8263.65 L 51200 15206.4 L 49234.25 15206.4 L 49234.25 16803.9 L 55931 16803.9 Q 52774.25 18747.15 48834.5 19768.65 Q 49094 20056.65 49421.75 20493.9 Q 49750.25 20931.9 49940.75 21243.15 Q 52298 20531.4 54439.25 19493.4 Q 56580.5 18456.15 58419.5 17064.9 L 58419.5 18908.4 Q 58442 19314.9 58004.75 19307.4 Q 57756.5 19308.9 57084.5 19301.4 Q 56413.25 19294.65 55670 19261.65 Q 55862.75 19649.4 56038.25 20161.65 Q 56213.75 20673.9 56268.5 21073.65 Q 57358.25 21081.15 58109.75 21021.9 Q 58862 20963.4 59340.5 20751.15 Q 59828 20531.4 60018.5 20109.9 Q 60209 19688.4 60200.75 18939.15 L 60200.75 15528.9 Q 61656.5 14127.15 62765.75 12380.4 L 61184 11627.4 Z M 68418.5 8571.15 Q 67902.5 8202.9 67073 7820.4 Q 66242.75 7437.9 65484.5 7173.15 L 64640 8401.65 Q 65406.5 8712.9 66216.5 9127.65 Q 67025.75 9542.4 67527.5 9922.65 L 68418.5 8571.15 Z M 68050.25 10536.9 Q 66950.75 11099.4 65926.25 11606.4 Q 64901.75 12113.4 64148.75 12456.9 L 64778 14069.4 Q 65640.5 13614.9 66604.25 13090.65 Q 67567.25 12566.4 68510.75 12042.15 L 68050.25 10536.9 Z M 73133.75 16527.15 Q 72611.75 17349.15 71813 17894.4 Q 70530.5 17571.9 69202.25 17295.15 Q 69512.75 16945.65 69800.75 16527.15 L 73133.75 16527.15 Z M 78095 16527.15 L 78095 14929.65 L 70891.25 14929.65 Q 71112.5 14565.9 71291 14220.9 L 71306 14192.4 L 70369.25 13962.15 Q 72293 13136.4 73088 11919.15 Q 73688 12965.4 74685.5 13620.15 Q 75683 14274.9 77204.75 14561.4 Q 77363.75 14188.65 77638.25 13760.4 Q 77912.75 13332.9 78187.25 13040.4 Q 76422.5 12855.9 75363.5 12167.4 Q 74303.75 11478.15 73841 10290.9 Q 73928.75 10011.15 73994 9707.4 L 75668.75 9707.4 Q 75379.25 10362.9 75129.5 10875.15 Q 75114.5 10905.9 75100.25 10936.65 L 76651.25 11550.9 Q 77014.25 10947.15 77388.5 10152.9 Q 77763.5 9359.4 78080 8571.15 L 76712.75 8094.9 L 76421 8187.15 L 71751.5 8187.15 Q 71966.75 7698.9 72135.5 7234.65 L 70445.75 6819.9 Q 70104.5 7848.15 69518.75 8778.15 Q 68933 9708.15 68188.25 10368.15 Q 68508.5 10547.4 68923.25 10861.65 Q 69338.75 11175.9 69601.25 11412.15 Q 70304 10709.4 70937.75 9707.4 L 72182 9707.4 Q 71957.75 10750.65 71198.75 11527.65 Q 70976.75 11744.4 70690.25 11939.4 Q 69698.75 12639.9 67574 13056.15 Q 67847 13341.15 68103.5 13770.15 Q 68360 14199.15 68495 14530.65 Q 68621.75 14496.9 68748.5 14469.15 Q 68875.25 14441.4 69002 14407.65 Q 68840.75 14657.4 68679.5 14929.65 L 64225.25 14929.65 L 64225.25 16527.15 L 67558.25 16527.15 Q 66802.25 17495.4 66114.5 18232.65 Q 67793 18581.4 69401.75 18954.15 Q 67351.25 19468.65 64286.75 19568.4 Q 64509.5 19890.15 64697.75 20321.4 Q 64886 20752.65 64993.25 21165.9 Q 67279.25 21003.15 69038.75 20655.15 Q 70798.25 20307.9 72104.75 19660.65 Q 73423.25 20041.65 74539.25 20405.4 Q 75656 20769.9 76513.25 21104.4 L 78141.5 19676.4 Q 77282.75 19374.15 76196.75 19052.4 Q 75110 18729.9 73871 18416.4 Q 74654.75 17644.65 75207.5 16527.15 L 78095 16527.15 Z M 84070.25 21227.4 L 84070.25 6727.65 L 79277.75 6727.65 L 79277.75 6804.15 Q 80567 7905.15 81426.5 9751.65 Q 82286 11598.15 82319 13977.9 Q 82286 16356.9 81426.5 18203.4 Q 80567 20049.9 79277.75 21150.9 L 79277.75 21227.4 L 84070.25 21227.4 Z " fill-rule="nonzero" style="fill:#333333;;fill-opacity:1;"/>
  <path d="M 5748.45 32014.05 L 7359.8 32014.05 L 7359.8 31015.65 L 10128.15 31015.65 L 10128.15 32027.7 L 11765.5 32027.7 L 11765.5 31015.65 L 14601.45 31015.65 L 14601.45 29498.55 L 11765.5 29498.55 L 11765.5 28353.25 L 10128.15 28353.25 L 10128.15 29498.55 L 7359.8 29498.55 L 7359.8 28353.25 L 5748.45 28353.25 L 5748.45 29498.55 L 2806.55 29498.55 L 2806.55 31015.65 L 5748.45 31015.65 L 5748.45 32014.05 Z M 5908.35 32120.65 Q 5343.5 33297.8 4454.3 34350.8 Q 3564.45 35403.15 2540.7 36101.25 Q 2840.35 36318.35 3229.7 36650.5 Q 3619.05 36982 3858.25 37219.25 Q 4307.4 36859.8 4776.7 36380.75 L 4776.7 40787.1 L 6414.05 40787.1 L 6414.05 34410.6 Q 7033.5 33542.2 7492.4 32613.35 L 5908.35 32120.65 Z M 11166.85 39043.15 Q 10750.2 39054.85 10626.05 38924.85 Q 10501.25 38794.85 10514.25 38377.55 L 10514.25 36407.4 Q 11566.6 35917.3 12544.2 35392.1 Q 13521.8 34867.55 14374.6 34317 L 13270.25 33012.45 Q 12091.8 33891.25 10514.25 34770.05 L 10514.25 32346.85 L 8890.55 32346.85 L 8890.55 35608.55 Q 7859 36101.25 6826.8 36514 Q 6994.5 36764.25 7174.55 37099.65 Q 7354.6 37435.05 7452.75 37724.95 Q 8161.25 37445.45 8890.55 37126.3 L 8890.55 38377.55 Q 8867.15 39614.5 9313.05 40098.1 Q 9758.95 40581.7 10953.65 40560.9 L 12950.45 40560.9 Q 13982 40586.25 14424 39963.55 Q 14427.9 39958.35 14431.8 39952.5 Q 14870.55 39323.95 14987.55 37738.6 Q 14630.7 37654.75 14206.9 37475.35 Q 13783.1 37296.6 13496.45 37073 Q 13458.75 38276.8 13327.45 38675.25 Q 13326.8 38677.2 13326.15 38678.5 Q 13193.55 39074.35 12817.2 39043.15 L 11166.85 39043.15 Z M 19074.1 35941.35 L 17755.9 35941.35 L 17755.9 31148.9 L 19074.1 31148.9 L 19074.1 35941.35 Z M 28259.25 32693.3 L 25130.8 32693.3 L 25130.8 28593.1 L 23480.45 28593.1 L 23480.45 32693.3 L 20591.85 32693.3 L 20591.85 29684.45 L 16278.45 29684.45 L 16278.45 38430.85 L 17755.9 38430.85 L 17755.9 37405.8 L 20591.85 37405.8 L 20591.85 34264.35 L 23480.45 34264.35 L 23480.45 40787.1 L 25130.8 40787.1 L 25130.8 34264.35 L 28259.25 34264.35 L 28259.25 32693.3 Z M 30602.5 32027.7 L 31161.5 32027.7 L 31161.5 34517.2 L 30602.5 34517.2 L 30602.5 32027.7 Z M 32638.95 34517.2 L 32066.3 34517.2 L 32066.3 32027.7 L 32638.95 32027.7 L 32638.95 34517.2 Z M 32386.1 36527 Q 32585.65 37096.4 32785.2 37724.95 L 32266.5 37818.55 L 32266.5 35808.1 L 33783.6 35808.1 L 33783.6 30736.15 L 32252.85 30736.15 L 32252.85 28393.55 L 30974.95 28393.55 L 30974.95 30736.15 L 29483.85 30736.15 L 29483.85 36327.45 L 30602.5 36327.45 L 30602.5 35808.1 L 30974.95 35808.1 L 30974.95 38071.4 Q 30115 38247.55 29400 38365.2 Q 29243.35 38391.85 29097.75 38417.2 L 29377.25 39934.95 Q 30298.95 39720.45 31392.9 39474.75 Q 32239.85 39284.3 33118 39082.8 Q 33127.1 39127.65 33135.55 39172.5 Q 33233.7 39653.5 33277.9 40027.9 L 34449.2 39655.45 Q 34361.45 38911.85 34101.45 37968.05 Q 33841.45 37024.9 33504.1 36181.2 L 32386.1 36527 Z M 34449.2 29232.05 Q 34698.8 29655.85 34958.8 30132.3 Q 35218.15 30608.75 35367.65 30963 L 36592.9 30363.7 Q 36432.35 30039.35 36156.75 29585 Q 35881.15 29130.65 35621.15 28726.35 L 34449.2 29232.05 Z M 36632.55 35329.05 Q 36918.55 34909.8 37164.9 34450.25 L 38695.65 34450.25 Q 38871.8 34809.05 39062.25 35147.7 Q 39112.3 35238.05 39161.7 35329.05 L 36632.55 35329.05 Z M 39561.45 35914.7 Q 40083.4 36640.1 40665.8 37126.3 Q 40847.8 36854.6 41137.05 36543.9 Q 41426.3 36232.55 41677.85 36021.3 Q 41274.2 35737.25 40887.45 35331 Q 40500.7 34924.1 40186.75 34450.25 L 41265.1 34450.25 L 41265.1 33119.05 L 37723.9 33119.05 Q 37867.55 32706.3 37990.4 32253.9 L 40719.1 32253.9 L 40719.1 30963 L 39880.6 30963 Q 40117.85 30561.3 40390.2 30052.35 Q 40661.9 29543.4 40879 29072.15 L 39654.4 28712.7 Q 39459.4 29153.4 39205.25 29626.6 Q 38950.45 30099.8 38695.65 30470.3 Q 38915.35 30563.25 39205.25 30696.5 Q 39494.5 30829.75 39734.35 30963 L 38296.55 30963 Q 38519.5 29794.3 38643 28446.85 L 37151.9 28353.25 Q 37038.8 29757.9 36805.45 30963 L 34596.1 30963 L 34596.1 32253.9 L 36472.65 32253.9 Q 36332.9 32706.3 36153.5 33119.05 L 34130.05 33119.05 L 34130.05 34450.25 L 35420.95 34450.25 Q 34698.8 35459.05 33557.4 36127.9 Q 33803.1 36370.35 34091.7 36755.15 Q 34379.65 37139.95 34516.15 37392.15 Q 34915.25 37132.8 35274.7 36833.15 L 35274.7 38803.3 Q 35254.55 39842.65 35685.5 40237.85 Q 36117.1 40633.05 37244.85 40614.2 L 39321.6 40614.2 Q 40221.85 40637.6 40622.9 40199.5 Q 41023.95 39761.4 41145.5 38577.1 Q 40829.6 38511.45 40451.3 38360.65 Q 40073 38210.5 39827.3 38044.75 Q 39798.7 38820.85 39672.6 39063.3 Q 39546.5 39305.1 39188.35 39283 L 37417.75 39283 Q 36971.85 39292.1 36835.35 39194.6 Q 36698.85 39096.45 36712.5 38776.65 L 36712.5 36553.65 L 38189.95 36553.65 L 38189.95 37312.2 Q 38206.85 37475.35 38043.7 37459.1 Q 37935.8 37468.85 37695.95 37468.85 Q 37456.1 37468.85 37178.55 37459.1 Q 37303.35 37723.65 37408 38036.3 Q 37512.65 38348.95 37538 38643.4 Q 38037.2 38648.6 38426.55 38613.5 Q 38815.9 38579.05 39095.4 38443.85 Q 39369.05 38289.8 39467.85 38031.1 Q 39567.3 37772.4 39561.45 37338.85 L 39561.45 35914.7 Z M 42822.5 40201.45 Q 42823.15 40200.8 42823.15 40200.8 Q 43713.65 39836.8 44753 39410.4 Q 45793 38984.65 46842.75 38550.45 L 46563.25 37245.9 Q 45416 37682.05 44333.75 38066.2 Q 43250.85 38450.35 42463.05 38696.7 L 42822.5 40201.45 Z M 53019.7 36620.6 L 50942.95 36620.6 L 50942.95 35515.6 L 53019.7 35515.6 L 53019.7 36620.6 Z M 50942.95 39002.85 L 50942.95 37831.55 L 53019.7 37831.55 L 53019.7 39002.85 L 50942.95 39002.85 Z M 49451.85 33332.25 L 51102.85 33332.25 Q 51059.95 33651.4 50999.5 33971.2 Q 50970.25 34131.1 50942.95 34291 L 49611.75 34291 L 49611.75 40760.45 L 50942.95 40760.45 L 50942.95 40228.1 L 53019.7 40228.1 L 53019.7 40693.5 L 54404.2 40693.5 L 54404.2 34291 L 52354.1 34291 Q 52441.2 33999.15 52522.45 33691.7 Q 52569.25 33514.9 52620.6 33332.25 L 54603.75 33332.25 L 54603.75 32094 L 49465.5 32094 L 49451.85 33332.25 Z M 44806.3 35395.35 Q 45377 34600.4 45906.1 33713.15 Q 46434.55 32825.9 46896.05 31921.1 L 46896.05 31974.4 L 48027.7 31974.4 Q 47755.35 32914.3 47308.8 33876.3 Q 46862.25 34838.3 46270.75 35568.9 Q 46266.85 35305.65 46283.75 35062.55 L 44806.3 35395.35 Z M 51728.15 29564.85 Q 51594.9 29258.7 51414.2 28912.9 Q 51232.85 28566.45 51049.55 28260.3 L 49678.05 28699.7 Q 49891.25 29092.3 50104.45 29564.85 L 46896.05 29564.85 L 46896.05 31881.45 L 45698.1 31175.55 Q 45418.6 31844.4 45059.15 32533.4 L 44140.7 32600.35 Q 44673.7 31763.15 45142.35 30826.5 Q 45611 29889.2 45964.6 28952.55 L 44580.1 28326.6 Q 44283.05 29361.4 43882.65 30296.1 Q 43766.95 30570.4 43655.15 30816.1 Q 43268.4 31655.9 43075.35 31961.4 Q 42706.15 32646.5 42316.8 32773.25 Q 42462.4 33083.95 42602.8 33486.95 Q 42743.85 33889.95 42809.5 34131.1 Q 42940.15 34062.85 43265.15 33994.6 Q 43590.8 33926.35 44340.25 33837.95 Q 44036.7 34332.6 43796.2 34696.6 Q 43555.05 35061.25 43421.8 35236.1 Q 43137.1 35597.5 42912.2 35816.55 Q 42687.95 36035.6 42463.05 36087.6 Q 42580.7 36378.8 42712.65 36761.65 Q 42845.25 37145.15 42902.45 37365.5 Q 43047.4 37253.7 43479 37102.25 Q 43696.75 37026.2 44045.8 36924.15 Q 44752.35 36716.15 46323.4 36313.8 Q 46300.65 36104.5 46297.4 35795.1 Q 46474.2 36005.05 46658.15 36272.2 Q 46842.75 36540 46949.35 36740.2 Q 47245.75 36417.15 47522 36034.3 L 47522 40760.45 L 48853.2 40760.45 L 48853.2 33585.1 Q 49225.65 32703.05 49478.5 31841.15 L 48333.85 31548.65 L 48333.85 30869.4 L 53232.9 30869.4 L 53232.9 31787.85 L 54737 31787.85 L 54737 29564.85 L 51728.15 29564.85 Z M 56840.4 34916.3 Q 57110.8 34129.15 57256.4 33094.35 Q 57402 32059.55 57412.4 31122.25 L 56214.45 30976 Q 56174.15 31854.8 56026.6 32812.9 Q 55879.05 33771.65 55628.8 34450.25 L 56840.4 34916.3 Z M 60780.7 32919.5 Q 60639.65 32448.9 60366 31786.55 Q 60093 31123.55 59821.95 30523.6 L 59023.1 30856.4 L 59023.1 28340.25 L 57492.35 28340.25 L 57492.35 40787.1 L 59023.1 40787.1 L 59023.1 31828.15 Q 59205.75 32292.25 59352.65 32726.45 Q 59500.2 33160.65 59582.75 33505.15 L 60780.7 32919.5 Z M 64880.9 37485.75 L 67582.95 37485.75 L 67582.95 36074.6 L 64880.9 36074.6 L 64880.9 34850 L 63296.2 34850 L 63296.2 36074.6 L 60540.85 36074.6 L 60540.85 37485.75 L 63296.2 37485.75 L 63296.2 39056.15 L 59942.2 39056.15 L 59942.2 40480.95 L 68168.6 40480.95 L 68168.6 39056.15 L 64880.9 39056.15 L 64880.9 37485.75 Z M 65439.9 30297.4 Q 64897.15 31225.6 64095.05 31934.75 Q 63229.9 31215.85 62683.9 30297.4 L 65439.9 30297.4 Z M 66504.6 28859.6 L 66225.1 28912.9 L 60540.85 28912.9 L 60540.85 30297.4 L 61725.8 30297.4 L 61193.45 30470.3 Q 61878.55 31798.25 62884.1 32786.25 Q 61439.8 33608.5 59635.4 33931.55 Q 59853.15 34187 60073.5 34566.6 Q 60293.2 34946.85 60421.25 35262.75 Q 62468.1 34773.3 64095.05 33784.65 Q 65489.95 34710.25 67343.1 35195.8 Q 67523.8 34868.85 67800.7 34476.9 Q 68078.25 34084.95 68328.5 33837.95 Q 66661.25 33501.9 65372.95 32786.25 Q 66804.25 31465.45 67516.65 29285.35 L 66504.6 28859.6 Z M 78166.25 30270.75 L 78166.25 31228.85 L 71962.65 31228.85 L 71962.65 30270.75 L 78166.25 30270.75 Z M 73719.6 33572.1 Q 72631.5 33582.5 72281.8 33448.6 Q 71932.75 33314.7 71962.65 32906.5 L 71962.65 32547.05 L 79697 32547.05 Q 79620.95 33196.4 79342.75 33394 Q 79063.9 33591.6 78298.85 33572.1 L 73719.6 33572.1 Z M 78392.45 34942.95 Q 79741.2 34962.45 80343.75 34619.9 Q 80454.9 34555.55 80549.15 34476.25 Q 81054.2 34044.65 81201.1 32972.8 Q 80848.15 32918.85 80437.35 32788.2 Q 80026.55 32656.9 79723.65 32493.75 L 79723.65 28952.55 L 70391.6 28952.55 L 70391.6 32946.15 Q 70364.3 34032.3 70977.9 34471.05 Q 71085.15 34547.1 71214.5 34609.5 Q 71967.85 34962.45 73746.25 34942.95 L 78392.45 34942.95 Z M 81334.35 36434.05 L 78552.35 36434.05 L 78552.35 35262.75 L 76981.3 35262.75 L 76981.3 36434.05 L 73493.4 36434.05 L 73493.4 35262.75 L 71923 35262.75 L 71923 36393.75 L 71923 36434.05 L 69220.3 36434.05 L 69220.3 37871.85 L 71590.2 37871.85 Q 71350.35 38354.8 70791.35 38794.85 Q 70232.35 39235.55 69233.95 39589.15 Q 69506.3 39815.35 69801.4 40179.35 Q 70095.85 40543.35 70259 40840.4 Q 71724.1 40260.6 72423.5 39485.8 Q 73122.9 38711 73320.5 37871.85 L 76981.3 37871.85 L 76981.3 40773.45 L 78552.35 40773.45 L 78552.35 37871.85 L 81334.35 37871.85 L 81334.35 36434.05 Z M 84502.45 41465.7 Q 85749.8 41082.85 86432.95 40232.65 Q 87116.1 39383.1 87125.2 38231.3 Q 87123.9 37383.05 86760.55 36900.1 Q 86397.2 36416.5 85687.4 36407.4 Q 85142.7 36412.6 84770.25 36726.55 Q 84397.8 37041.15 84382.85 37605.35 Q 84399.1 38177.35 84765.7 38482.2 Q 85131.65 38787.05 85647.1 38790.3 Q 85730.3 38793.55 85794 38776.65 Q 85654.25 39861.5 84076.7 40387.35 L 84502.45 41465.7 Z M 101076.15 28539.8 L 101076.15 38803.3 Q 101095.65 39166 100676.4 39149.75 Q 100431.35 39160.15 99819.7 39156.25 Q 99207.4 39152.35 98533.35 39123.1 Q 98721.2 39470.85 98901.25 39938.2 Q 99081.3 40406.2 99159.3 40773.45 Q 100123.9 40778 100819.4 40715.6 Q 101515.55 40652.55 101980.95 40467.3 Q 102416.45 40288.55 102606.9 39905.05 Q 102797.35 39521.55 102793.45 38803.3 L 102793.45 28539.8 L 101076.15 28539.8 Z M 104244.25 32014.05 Q 104948.85 33319.9 105542.3 34764.85 Q 105708.05 35169.8 105855.6 35566.95 Q 106384.05 36983.95 106573.85 38071.4 L 108304.15 37392.15 Q 108062.35 36240.35 107464.35 34807.75 Q 107335.65 34496.4 107195.25 34181.15 Q 106547.2 32733.6 105801.65 31428.4 L 104244.25 32014.05 Z M 97588.25 31575.3 Q 97403.65 32751.15 96993.5 34073.25 Q 96881.7 34424.25 96753.65 34766.8 Q 96281.1 36058.35 95577.8 36979.4 Q 95908 37128.9 96355.2 37362.25 Q 96802.4 37596.25 97122.2 37804.9 Q 97861.25 36788.95 98383.85 35367.4 Q 98508 35039.8 98620.45 34704.4 Q 99097.55 33245.8 99398.5 31881.45 L 97588.25 31575.3 Z M 118195.2 36926.75 L 109156.3 36926.75 L 109156.3 38284.6 L 118195.2 38284.6 L 118195.2 36926.75 Z M 112271.1 34463.9 L 112271.1 30829.75 L 118075.6 30829.75 Q 118008 31658.5 117935.85 32067.35 Q 117863.05 32476.85 117755.8 32586.7 Q 117609.55 32732.95 117383.35 32719.95 Q 117060.3 32723.2 116438.25 32666.65 Q 116599.45 32966.3 116700.85 33345.25 Q 116802.25 33724.85 116824.35 34064.15 Q 117228.65 34074.55 117580.95 34062.85 Q 117933.25 34050.5 118168.55 34010.85 Q 118416.2 33976.4 118624.2 33879.55 Q 118832.2 33782.7 119020.7 33558.45 Q 119255.35 33306.9 119380.15 32468.4 Q 119504.95 31630.55 119579.7 29990.6 Q 119590.1 29833.95 119597.9 29641.55 Q 119605.7 29449.15 119606.35 29431.6 L 115506.15 29431.6 Q 115752.5 28966.2 115998.85 28459.85 L 114108.65 28313.6 Q 114018.3 28832.95 113829.15 29431.6 L 110727.35 29431.6 L 110727.35 35861.4 L 119380.15 35861.4 Q 119280.7 37451.3 119139 38229.35 Q 118996.65 39007.4 118807.5 39189.4 Q 118631.35 39369.45 118314.8 39349.3 Q 118095.1 39350.6 117686.25 39342.8 Q 117276.75 39334.35 116797.7 39296 Q 116989.45 39598.25 117108.4 39985 Q 117228 40371.75 117250.1 40693.5 Q 117787.65 40723.4 118255 40715.6 Q 118723 40707.8 119020.7 40666.85 Q 119367.15 40632.4 119641.45 40515.4 Q 119915.1 40399.05 120152.35 40134.5 Q 120463.05 39811.45 120651.55 38669.4 Q 120654.8 38650.55 120658.05 38631.05 Q 120844.6 37472.75 120977.2 35089.2 Q 120987.6 34928 120995.4 34707 Q 121003.85 34485.35 121003.85 34463.9 L 112271.1 34463.9 Z M 116331.65 32627 Q 115862.35 32283.8 115113.55 31882.75 Q 114364.75 31482.35 113695.9 31189.2 L 112843.75 32147.3 Q 113529.5 32490.5 114254.9 32913 Q 114980.3 33335.5 115426.2 33678.05 L 116331.65 32627 Z M 125130.7 38297.6 L 125130.7 35834.75 L 131853 35834.75 L 131853 38297.6 L 125130.7 38297.6 Z M 131853 31894.45 L 131853 34264.35 L 125130.7 34264.35 L 125130.7 31894.45 L 131853 31894.45 Z M 128698.55 30283.75 Q 129094.4 29475.15 129470.75 28566.45 L 127407 28300.6 Q 127324.45 28756.25 127178.85 29272.35 Q 127033.9 29787.8 126861 30283.75 L 123520 30283.75 L 123520 40760.45 L 125130.7 40760.45 L 125130.7 39908.3 L 131853 39908.3 L 131853 40746.8 L 133530.65 40746.8 L 133530.65 30283.75 L 128698.55 30283.75 Z M 138722.2 30523.6 L 138722.2 31867.8 L 137364.35 31867.8 L 137364.35 30523.6 L 138722.2 30523.6 Z M 137364.35 37325.85 L 137364.35 35901.7 L 138722.2 35901.7 L 138722.2 37325.85 L 137364.35 37325.85 Z M 137364.35 33199 L 138722.2 33199 L 138722.2 34570.5 L 137364.35 34570.5 L 137364.35 33199 Z M 140000.1 29139.1 L 136033.15 29139.1 L 136033.15 39788.7 L 137364.35 39788.7 L 137364.35 38710.35 L 140000.1 38710.35 L 140000.1 29139.1 Z M 142476.6 32560.05 L 145737.65 32560.05 L 145737.65 33625.4 L 142476.6 33625.4 L 142476.6 32560.05 Z M 145737.65 30244.1 L 145737.65 31282.15 L 142476.6 31282.15 L 142476.6 30244.1 L 145737.65 30244.1 Z M 147029.2 35129.5 Q 146721.75 35455.8 146301.85 35811.35 Q 145881.95 36167.55 145445.15 36473.7 Q 145131.85 35784.7 144899.15 34996.25 L 147282.05 34996.25 L 147282.05 28886.25 L 140932.2 28886.25 L 140932.2 38430.85 Q 140919.2 38897.55 140724.2 39179.65 Q 140529.2 39461.75 140306.25 39589.15 Q 140495.4 39808.2 140697.55 40178.05 Q 140899.05 40547.25 140998.5 40826.75 Q 141153.2 40712.35 141598.45 40550.5 Q 141809.7 40475.1 142137.95 40375.65 Q 142841.9 40161.8 144406.45 39762.05 Q 144366.15 39496.2 144348.6 39088 Q 144330.4 38679.8 144340.15 38324.25 L 142476.6 38737 L 142476.6 34996.25 L 143541.3 34996.25 Q 143977.45 36955.35 144832.2 38430.85 Q 145687.6 39905.7 147122.15 40746.8 Q 147304.8 40401.65 147609.65 40011.65 Q 147914.5 39621 148186.85 39375.95 Q 146925.85 38757.15 146123.75 37619 Q 146580.05 37323.25 147083.8 36963.15 Q 147587.55 36603.05 148054.25 36247.5 L 147029.2 35129.5 Z M 156280.65 34796.7 L 156280.65 36567.3 L 153964.7 36567.3 L 153964.7 34796.7 L 156280.65 34796.7 Z M 157732.1 37951.8 L 157732.1 33412.2 L 152539.9 33412.2 L 152539.9 38883.25 L 153964.7 38883.25 L 153964.7 37951.8 L 157732.1 37951.8 Z M 160660.35 30576.9 L 155109.35 30576.9 Q 155351.15 30132.95 155590.35 29635.05 Q 155829.55 29136.5 156041.45 28633.4 L 154031 28353.25 Q 153908.15 28862.2 153723.55 29445.25 Q 153538.3 30028.3 153325.75 30576.9 L 149651.3 30576.9 L 149651.3 40773.45 L 151235.35 40773.45 L 151235.35 32120.65 L 159063.3 32120.65 L 159063.3 38909.9 Q 159065.9 39086.05 158991.8 39153 Q 158917.05 39219.3 158730.5 39216.05 Q 158507.55 39228.4 157953.1 39227.75 Q 157398.65 39227.1 156787 39189.4 Q 156962.5 39526.75 157111.35 39978.5 Q 157259.55 40430.25 157305.7 40787.1 Q 158202.7 40792.95 158850.1 40742.25 Q 159497.5 40690.9 159914.8 40507.6 Q 160328.2 40324.3 160497.2 39951.85 Q 160666.2 39578.75 160660.35 38936.55 L 160660.35 30576.9 Z M 14481.2 54063 L 14481.2 52439.3 L 9409.25 52439.3 Q 9410.55 52419.15 9411.2 52399 Q 9433.3 51901.75 9435.9 51440.9 L 9435.9 50069.4 L 13962.5 50069.4 L 13962.5 48445.7 L 3418.85 48445.7 L 3418.85 50069.4 L 7771.9 50069.4 L 7771.9 51414.25 Q 7771.9 51906.3 7732.25 52439.3 L 2939.8 52439.3 L 2939.8 54063 L 7399.45 54063 Q 7032.85 55304.5 5966.2 56455 Q 5886.25 56537.55 5801.75 56619.45 Q 4670.75 57754.35 2473.75 58562.3 Q 2746.1 58811.9 3043.15 59212.95 Q 3340.2 59614.65 3512.45 59933.8 Q 5736.1 59080.35 6976.95 57895.4 Q 8217.15 56709.8 8743.65 55367.55 Q 9569.8 57008.15 10840.55 58150.2 Q 12111.3 59291.6 13975.5 59893.5 Q 14156.2 59535.35 14461.7 59110.25 Q 14766.55 58684.5 15066.85 58416.05 Q 13124 57896.7 11827.25 56778.7 Q 10530.5 55660.7 9835.65 54063 L 14481.2 54063 Z M 17942.45 60665.7 Q 19189.8 60282.85 19872.95 59432.65 Q 20556.1 58583.1 20565.2 57431.3 Q 20563.9 56583.05 20200.55 56100.1 Q 19837.2 55616.5 19127.4 55607.4 Q 18582.7 55612.6 18210.25 55926.55 Q 17837.8 56241.15 17822.85 56805.35 Q 17839.1 57377.35 18205.7 57682.2 Q 18571.65 57987.05 19087.1 57990.3 Q 19170.3 57993.55 19234 57976.65 Q 19094.25 59061.5 17516.7 59587.35 L 17942.45 60665.7 Z M 39601.1 47739.8 Q 39003.1 48563.35 38058.65 49299.15 Q 37114.2 50034.95 36166.5 50508.8 Q 36485 50738.25 36790.5 51047.65 Q 37096.65 51357.7 37285.15 51626.8 Q 38328.4 51021.65 39330.05 50184.45 Q 40331.05 49346.6 41105.2 48352.1 L 39601.1 47739.8 Z M 39867.6 51400.6 Q 39263.75 52256 38303.7 53031.45 Q 38284.85 53046.4 38266.65 53061.35 Q 37302.7 53833.55 36353.05 54342.5 Q 36660.5 54581.7 36960.15 54885.25 Q 37260.45 55188.8 37458.05 55447.5 Q 38503.9 54809.2 39523.1 53916.75 Q 40541.65 53023.65 41318.4 51986.25 L 39867.6 51400.6 Z M 32133.25 52665.5 L 32133.25 49803.55 L 33677 49803.55 L 33677 52665.5 L 32133.25 52665.5 Z M 36499.3 54129.95 L 36499.3 52665.5 L 35221.4 52665.5 L 35221.4 49803.55 L 36326.4 49803.55 L 36326.4 48325.45 L 29364.25 48325.45 L 29364.25 49803.55 L 30668.8 49803.55 L 30668.8 52665.5 L 29124.4 52665.5 L 29124.4 54129.95 L 30655.8 54129.95 Q 30617.45 55477.4 30259.3 56725.4 Q 29901.8 57973.4 28965.15 59001.7 Q 29250.5 59197.35 29589.15 59517.8 Q 29927.15 59838.25 30122.8 60093.7 Q 31272.65 58849.6 31685.4 57311.05 Q 32098.8 55773.15 32119.6 54129.95 L 33677 54129.95 L 33677 59987.1 L 35221.4 59987.1 L 35221.4 54129.95 L 36499.3 54129.95 Z M 40093.8 54915.15 Q 39389.2 56151.45 38208.15 57118 Q 37027.1 58085.2 35673.8 58682.55 Q 35981.25 58942.55 36281.55 59298.1 Q 36581.2 59653 36778.8 59973.45 Q 38251.05 59211 39497.75 58081.95 Q 40745.1 56952.25 41597.9 55500.8 L 40093.8 54915.15 Z M 45551.85 52412.65 L 45551.85 51427.25 L 48280.55 51427.25 Q 47867.8 51959.6 47295.8 52412.65 L 45551.85 52412.65 Z M 48933.15 49563.7 Q 48669.9 49943.3 48387.15 50282.6 L 45698.1 50282.6 Q 46090.7 49923.15 46443.65 49563.7 L 48933.15 49563.7 Z M 51821.75 52412.65 L 49052.75 52412.65 Q 49488.9 51959.6 49824.95 51427.25 L 51821.75 51427.25 L 51821.75 52412.65 Z M 52567.3 53583.95 Q 52025.2 53999.95 51310.85 54436.1 Q 50596.5 54871.6 49864.6 55247.95 Q 49235.4 54342.5 48067.35 53557.3 L 53392.15 53557.3 L 53392.15 50282.6 L 50211.05 50282.6 Q 50753.15 49630 51115.85 49017.7 L 50037.5 48312.45 L 49811.3 48378.75 L 47455.05 48378.75 Q 47654.6 48099.25 47854.8 47819.75 L 46203.8 47500.6 Q 45681.85 48323.5 44758.2 49169.15 Q 43833.9 50014.8 42543 50708.35 Q 42815.35 50892.95 43120.2 51217.95 Q 43425.7 51542.3 43608.35 51827 Q 43844.3 51686.6 44060.75 51546.85 L 44060.75 53557.3 L 45378.3 53557.3 Q 44100.4 54129.95 42622.95 54462.75 Q 42814.7 54681.15 43044.15 55014.6 Q 43272.95 55348.7 43395.15 55567.1 Q 45208.65 55075.05 46762.8 54182.6 Q 47082.6 54379.55 47362.1 54595.35 Q 46516.45 55142 45343.85 55585.95 Q 44170.6 56029.25 42995.4 56286 Q 43213.8 56488.15 43451.7 56787.15 Q 43689.6 57086.15 43847.55 57337.7 Q 44957.75 57030.9 46107.6 56508.95 Q 47257.45 55987.65 48187.6 55340.9 Q 48393.65 55571 48560.05 55820.6 Q 47637.7 56496.6 46274.65 57083.55 Q 45981.5 57210.3 45679.25 57328.6 Q 44270.7 57877.85 42889.45 58176.2 Q 43116.95 58410.2 43365.25 58739.1 Q 43612.9 59067.35 43781.25 59321.5 Q 45124.15 58952.95 46516.45 58319.85 Q 47909.4 57686.75 49052.75 56898.3 Q 49159.35 57402.05 49046.25 57770.6 Q 48933.15 58139.15 48640 58323.1 Q 48460.6 58468.05 48238.95 58510.95 Q 48017.3 58553.85 47748.2 58549.3 Q 47483.65 58549.95 47139.15 58535.65 Q 46794.65 58522 46430 58483 Q 46620.45 58802.8 46728.35 59190.2 Q 46835.6 59576.95 46856.4 59907.15 Q 47501.85 59946.8 48027.7 59946.8 Q 48515.2 59942.25 48883.1 59845.4 Q 49251 59748.55 49638.4 59494.4 Q 50337.15 59065.4 50558.8 58206.75 Q 50780.45 57348.1 50410.6 56299.65 Q 50563.35 56242.45 50723.25 56172.25 Q 50791.5 56143 50863 56113.1 Q 51291.35 57086.8 52016.1 58008.5 Q 52741.5 58930.2 53778.25 59494.4 Q 53960.25 59166.8 54259.25 58769 Q 54558.25 58371.2 54829.95 58123.55 Q 53870.55 57716 53186.1 57006.85 Q 52501 56297.7 52101.25 55500.8 Q 53002.8 55034.75 53845.2 54529.05 L 52567.3 53583.95 Z M 58743.6 49843.2 Q 58979.55 50262.45 59179.75 50692.1 Q 59380.6 51121.1 59476.15 51440.9 L 60834 50868.25 Q 60677.35 50425.6 60341.3 49843.2 L 61939 49843.2 L 61939 48565.3 L 58996.45 48565.3 Q 59046.5 48453.5 59095.9 48344.95 Q 59205.75 48105.75 59302.6 47873.05 L 57812.15 47473.95 Q 57476.1 48375.5 56938.55 49197.75 Q 56400.35 50019.35 55735.4 50601.75 Q 56024.65 50744.1 56406.2 50991.1 Q 56787.1 51238.75 57026.3 51440.9 Q 57678.9 50791.55 58291.2 49843.2 L 58743.6 49843.2 Z M 56507.6 59960.45 L 58051.35 59960.45 L 58051.35 52904.7 L 56507.6 52904.7 L 56507.6 59960.45 Z M 57186.2 51800.35 Q 57599.6 52184.5 57990.25 52648.6 Q 58380.9 53112.7 58584.35 53477.35 L 59821.95 52612.2 Q 59587.3 52241.7 59173.25 51808.15 Q 58758.55 51375.25 58344.5 51014.5 L 57186.2 51800.35 Z M 60860.65 57311.05 L 60860.65 56592.15 L 63123.3 56592.15 L 63123.3 57311.05 L 60860.65 57311.05 Z M 63123.3 54835.2 L 63123.3 55527.45 L 60860.65 55527.45 L 60860.65 54835.2 L 63123.3 54835.2 Z M 64521.45 53676.9 L 59529.45 53676.9 L 59529.45 58469.35 L 64521.45 58469.35 L 64521.45 53676.9 Z M 67463.35 51520.2 L 60021.5 51520.2 L 60021.5 52918.35 L 65905.95 52918.35 L 65905.95 58296.45 Q 65925.45 58555.8 65625.8 58535.65 Q 65464.6 58546.7 65023.9 58542.8 Q 64582.55 58538.25 64121.7 58509 Q 64266 58800.2 64394.7 59171.35 Q 64523.4 59542.5 64587.75 59853.85 Q 65334.6 59869.45 65882.55 59832.4 Q 66429.85 59795.35 66797.75 59640.65 Q 67170.85 59479.45 67320.35 59168.1 Q 67469.2 58857.4 67463.35 58296.45 L 67463.35 51520.2 Z M 64454.5 48565.3 Q 64557.2 48296.85 64645.6 48036.85 Q 64676.8 47947.15 64707.35 47859.4 L 63216.9 47513.6 Q 62973.15 48354.7 62544.15 49121.05 Q 62115.8 49887.4 61552.9 50428.85 Q 61851.9 50579.65 62233.45 50823.4 Q 62615 51066.5 62843.8 51267.35 Q 63372.9 50681.7 63842.2 49856.2 L 64481.15 49856.2 Q 64758.7 50273.5 64998.55 50695.35 Q 65239.05 51117.2 65346.3 51453.9 L 66704.15 50814.95 Q 66622.25 50621.25 66483.15 50371 Q 66343.4 50120.1 66171.8 49856.2 L 67915.75 49856.2 L 67915.75 48565.3 L 64454.5 48565.3 Z M 73427.1 53184.2 Q 72801.15 53370.75 72135.55 53517 L 72135.55 51546.85 L 73480.4 51546.85 L 73480.4 50083.05 L 72135.55 50083.05 L 72135.55 47566.9 L 70644.45 47566.9 L 70644.45 50083.05 L 69140.35 50083.05 L 69140.35 51546.85 L 70644.45 51546.85 L 70644.45 53903.1 Q 70431.25 53953.15 70227.8 54001.25 Q 69537.5 54164.4 68980.45 54289.2 L 69380.2 55793.95 L 70644.45 55461.15 L 70644.45 58256.15 Q 70648.35 58529.15 70391.6 58522.65 Q 70259.65 58523.3 69922.3 58519.4 Q 69585.6 58514.85 69193.65 58496 Q 69338.6 58828.15 69463.4 59235.05 Q 69588.2 59641.95 69633.05 59973.45 Q 70299.3 59979.3 70773.15 59922.1 Q 71247 59864.9 71563.55 59680.95 Q 71878.8 59499.6 72009.45 59168.1 Q 72140.1 58837.25 72135.55 58256.15 L 72135.55 55048.4 Q 72469.65 54949.6 72805.7 54856 Q 73216.5 54741.6 73613 54622 L 73427.1 53184.2 Z M 79323.9 58083.25 L 75663.1 58083.25 L 75663.1 56312.65 L 79323.9 56312.65 L 79323.9 58083.25 Z M 81507.25 53011.3 L 81507.25 51520.2 L 78272.2 51520.2 L 78272.2 49470.75 Q 79750.3 49237.4 80987.9 48884.45 L 79976.5 47606.55 Q 78836.4 47950.4 77254.95 48201.3 Q 77194.5 48211.05 77133.4 48220.15 Q 75542.85 48467.15 73932.8 48604.95 Q 74058.25 48887.7 74179.15 49252.35 Q 74299.4 49617 74345.55 49909.5 Q 75503.85 49830.2 76741.45 49670.3 L 76741.45 51520.2 L 73719.6 51520.2 L 73719.6 53011.3 L 76741.45 53011.3 L 76741.45 54874.85 L 74132.35 54874.85 L 74132.35 60000.1 L 75663.1 60000.1 L 75663.1 59521.05 L 79323.9 59521.05 L 79323.9 59946.8 L 80934.6 59946.8 L 80934.6 54874.85 L 78272.2 54874.85 L 78272.2 53011.3 L 81507.25 53011.3 Z M 83464.4 54116.3 Q 83734.8 53329.15 83880.4 52294.35 Q 84026 51259.55 84036.4 50322.25 L 82838.45 50176 Q 82798.15 51054.8 82650.6 52012.9 Q 82503.05 52971.65 82252.8 53650.25 L 83464.4 54116.3 Z M 87404.7 52119.5 Q 87263.65 51648.9 86990 50986.55 Q 86717 50323.55 86445.95 49723.6 L 85647.1 50056.4 L 85647.1 47540.25 L 84116.35 47540.25 L 84116.35 59987.1 L 85647.1 59987.1 L 85647.1 51028.15 Q 85829.75 51492.25 85976.65 51926.45 Q 86124.2 52360.65 86206.75 52705.15 L 87404.7 52119.5 Z M 91504.9 56685.75 L 94206.95 56685.75 L 94206.95 55274.6 L 91504.9 55274.6 L 91504.9 54050 L 89920.2 54050 L 89920.2 55274.6 L 87164.85 55274.6 L 87164.85 56685.75 L 89920.2 56685.75 L 89920.2 58256.15 L 86566.2 58256.15 L 86566.2 59680.95 L 94792.6 59680.95 L 94792.6 58256.15 L 91504.9 58256.15 L 91504.9 56685.75 Z M 92063.9 49497.4 Q 91521.15 50425.6 90719.05 51134.75 Q 89853.9 50415.85 89307.9 49497.4 L 92063.9 49497.4 Z M 93128.6 48059.6 L 92849.1 48112.9 L 87164.85 48112.9 L 87164.85 49497.4 L 88349.8 49497.4 L 87817.45 49670.3 Q 88502.55 50998.25 89508.1 51986.25 Q 88063.8 52808.5 86259.4 53131.55 Q 86477.15 53387 86697.5 53766.6 Q 86917.2 54146.85 87045.25 54462.75 Q 89092.1 53973.3 90719.05 52984.65 Q 92113.95 53910.25 93967.1 54395.8 Q 94147.8 54068.85 94424.7 53676.9 Q 94702.25 53284.95 94952.5 53037.95 Q 93285.25 52701.9 91996.95 51986.25 Q 93428.25 50665.45 94140.65 48485.35 L 93128.6 48059.6 Z M 105002.8 56006.5 L 104230.6 56006.5 L 104230.6 51108.1 L 103006 51108.1 L 103006 57391 L 107958.35 57391 L 107958.35 56006.5 L 106347.65 56006.5 L 106347.65 53331.1 L 107918.05 53331.1 L 107918.05 51906.3 L 106347.65 51906.3 L 106347.65 49444.1 Q 107272.6 49210.75 108038.3 48898.1 L 106986.6 47659.85 Q 106163.05 48031.65 104999.55 48318.95 Q 103836.7 48606.25 102633.55 48778.5 Q 102777.2 49041.75 102906.55 49392.1 Q 103035.25 49743.1 103099.6 50016.1 Q 104011.55 49916.65 105002.8 49736.6 L 105002.8 56006.5 Z M 98999.4 50122.7 Q 98729.65 49584.5 98230.45 48911.1 Q 97731.25 48238.35 97241.8 47659.85 L 96030.85 48499 Q 96508.6 49108.7 96984.4 49813.3 Q 97459.55 50517.9 97707.85 51067.8 L 98999.4 50122.7 Z M 98426.75 56605.8 L 98426.75 51626.8 L 95751.35 51626.8 L 95751.35 53237.5 L 97015.6 53237.5 L 97015.6 57244.75 Q 97000.65 57765.4 96795.9 58116.4 Q 96591.8 58467.4 96376.65 58629.25 Q 96569.7 58814.5 96794.6 59125.2 Q 97019.5 59435.25 97122.2 59680.95 Q 97225.55 59519.75 97567.45 59201.9 Q 97746.2 59035.5 98038.7 58780.7 Q 98609.4 58283.45 99864.55 57218.1 Q 99718.3 56982.8 99551.9 56602.55 Q 99385.5 56222.3 99278.9 55886.9 L 98426.75 56605.8 Z M 101901 52039.55 L 101674.8 52066.2 L 101262.05 52066.2 Q 101625.4 51279.05 101966 50363.85 Q 102306.6 49449.3 102580.25 48512 L 101741.75 47953 L 101315.35 48125.9 L 99291.9 48125.9 L 99291.9 49550.05 L 100916.25 49550.05 Q 100656.9 50332.65 100415.1 50922.85 Q 100173.95 51513.7 100064.1 51747.05 Q 99893.8 52096.1 99646.8 52365.85 Q 99399.15 52635.6 99198.95 52705.15 Q 99350.4 52900.8 99541.5 53201.1 Q 99733.25 53501.4 99824.9 53717.2 Q 99829.45 53635.3 99934.75 53533.9 Q 100039.4 53432.5 100184.35 53331.1 L 101342 53331.1 Q 101215.9 54555.7 100929.25 55580.75 Q 100669.9 54965.2 100490.5 54129.95 L 99412.15 54515.4 Q 99791.1 56109.85 100330.6 57125.15 Q 99764.45 58293.2 98919.45 58882.1 Q 99125.5 59087.5 99341.95 59417.7 Q 99558.4 59747.9 99704.65 60013.75 Q 100563.3 59348.15 101182.75 58323.1 Q 101963.4 59135.6 102991.05 59435.9 Q 104019.35 59736.85 105269.3 59720.6 L 107798.45 59720.6 Q 107853.05 59393 107979.8 58983.5 Q 108106.55 58574 108250.85 58296.45 Q 107850.45 58312.05 107154.95 58320.5 Q 106742.2 58325.7 106341.15 58327 Q 105665.8 58330.25 105349.25 58323.1 Q 104267.65 58340 103364.15 58065.05 Q 102460 57790.1 101768.4 57018.55 Q 102490.55 55117.95 102673.2 52199.45 L 101901 52039.55 Z M 111126.45 60665.7 Q 112373.8 60282.85 113056.95 59432.65 Q 113740.1 58583.1 113749.2 57431.3 Q 113747.9 56583.05 113384.55 56100.1 Q 113021.2 55616.5 112311.4 55607.4 Q 111766.7 55612.6 111394.25 55926.55 Q 111021.8 56241.15 111006.85 56805.35 Q 111023.1 57377.35 111389.7 57682.2 Q 111755.65 57987.05 112271.1 57990.3 Q 112354.3 57993.55 112418 57976.65 Q 112278.25 59061.5 110700.7 59587.35 L 111126.45 60665.7 Z M 125011.1 58029.95 Q 126201.9 58310.75 127528.55 58741.05 Q 128201.3 58958.8 128832.45 59189.55 Q 130079.8 59645.85 130881.25 60053.4 L 131760.05 58629.25 Q 130902.05 58234.7 129638.45 57820.65 Q 128968.95 57600.95 128268.9 57400.1 Q 126948.75 57021.15 125822.95 56792.35 L 125011.1 58029.95 Z M 126155.75 54861.85 Q 127066.4 55117.95 128044 55498.85 Q 128151.25 55540.45 128256.55 55583.35 Q 129217.9 55970.1 129816.55 56339.3 L 130615.4 54995.1 Q 129994.65 54649.95 129029.4 54306.1 Q 128898.75 54259.3 128765.5 54213.15 Q 127782.7 53877.75 126901.3 53663.9 L 126155.75 54861.85 Z M 125796.3 50655.05 L 125796.3 49603.35 L 131827 49603.35 L 131827 51028.15 L 125796.3 51028.15 L 125796.3 50655.05 Z M 133464.35 52518.6 L 133464.35 48099.25 L 124119.3 48099.25 L 124119.3 50628.4 Q 124143.35 51752.25 123945.75 53062 Q 123840.45 53691.85 123631.8 54315.85 Q 123221.65 55613.25 122162.15 56672.1 Q 122435.15 56855.4 122818 57227.85 Q 123200.2 57600.95 123413.4 57883.7 Q 124515.8 56796.9 125035.8 55370.8 Q 125556.45 53944.7 125689.7 52518.6 L 130016.1 52518.6 Q 130592 54231.35 131516.95 55592.45 Q 132442.55 56952.9 133756.85 57777.1 Q 133959 57443 134277.5 57066.65 Q 134596.65 56690.3 134888.5 56445.9 Q 133788.7 55851.15 132968.4 54822.2 Q 132148.1 53792.6 131626.8 52518.6 L 133464.35 52518.6 Z M 144712.6 50268.95 L 138868.45 50268.95 L 138868.45 49377.15 L 144712.6 49377.15 L 144712.6 50268.95 Z M 144712.6 52306.05 L 138868.45 52306.05 L 138868.45 51414.25 L 144712.6 51414.25 L 144712.6 52306.05 Z M 146349.95 48152.55 L 137311.05 48152.55 L 137311.05 53543.65 L 146349.95 53543.65 L 146349.95 48152.55 Z M 145524.45 57337.7 Q 145922.25 56828.1 146360.35 56153.4 Q 146797.8 55478.05 147175.45 54768.9 L 145844.25 54182.6 Q 145569.95 54822.85 145143.55 55535.9 Q 144717.15 56248.3 144313.5 56778.7 L 145524.45 57337.7 Z M 139095.3 56805.35 Q 138881.45 56284.05 138512.9 55585.95 Q 138144.35 54887.2 137790.75 54276.2 L 136579.15 54795.55 Q 136921.05 55437.75 137268.15 56159.9 Q 137614.6 56882.05 137817.4 57404.65 L 139095.3 56805.35 Z M 144047 57883.7 L 144047 53956.4 L 142555.9 53956.4 L 142555.9 57883.7 L 141025.15 57883.7 L 141025.15 53956.4 L 139521.05 53956.4 L 139521.05 57883.7 L 135607.4 57883.7 L 135607.4 59401.45 L 148054.25 59401.45 L 148054.25 57883.7 L 144047 57883.7 Z M 154616.65 49830.2 L 154616.65 49270.55 L 156014.8 49270.55 L 156014.8 49830.2 L 154616.65 49830.2 Z M 158876.75 49270.55 L 158876.75 49830.2 L 157518.9 49830.2 L 157518.9 49270.55 L 158876.75 49270.55 Z M 156014.8 51320.65 L 152473.6 51320.65 L 152473.6 52399 L 160993.15 52399 L 160993.15 51320.65 L 157518.9 51320.65 L 157518.9 50854.6 L 160421.15 50854.6 L 160421.15 48232.5 L 157518.9 48232.5 L 157518.9 47566.9 L 156014.8 47566.9 L 156014.8 48232.5 L 153165.85 48232.5 L 153165.85 50854.6 L 156014.8 50854.6 L 156014.8 51320.65 Z M 160021.4 55953.2 L 160021.4 52798.75 L 153285.45 52798.75 L 153285.45 56166.4 L 154803.2 56166.4 L 154803.2 53903.1 L 158451 53903.1 L 158451 55953.2 L 160021.4 55953.2 Z M 160900.2 56924.95 Q 160357.45 56649.35 159515.05 56341.25 Q 159487.1 56330.85 159459.8 56321.1 Q 158613.5 56014.3 157864.7 55806.95 L 157239.4 56832 Q 158029.15 57082.9 158881.95 57426.1 Q 159734.1 57769.3 160274.25 58070.25 L 160900.2 56924.95 Z M 152513.25 49909.5 Q 152173.95 49422.65 151616.9 48812.95 Q 151059.85 48203.9 150530.1 47686.5 L 149358.8 48525 Q 149878.15 49084 150415.05 49724.9 Q 150952.6 50365.8 151262 50854.6 L 152513.25 49909.5 Z M 157425.95 54235.9 L 155867.9 54235.9 L 155867.9 55301.25 Q 155901.7 55631.45 155620.9 55988.95 Q 155427.2 56217.75 154966.35 56433.55 Q 154271.5 56770.9 152606.85 57018.55 Q 152836.3 57229.8 153085.9 57530.75 Q 153335.5 57832.35 153485 58083.25 Q 153062.5 57957.15 152699.8 57750.45 Q 152448.25 57600.95 152251.3 57463.8 Q 152152.5 57397.5 152060.85 57337.7 L 152060.85 51959.6 L 149039 51959.6 L 149039 53411.05 L 150543.1 53411.05 L 150543.1 57058.2 Q 150099.8 57250.6 149603.2 57637.35 Q 149106.6 58024.1 148613.25 58575.95 L 149664.95 60000.1 Q 150032.2 59351.4 150420.25 58832.05 Q 150807.65 58312.7 151115.75 58282.8 Q 151382.9 58314.65 151826.85 58659.15 Q 152113.5 58869.75 152473.6 59081.65 Q 153188.6 59484 154107.7 59639.35 Q 155026.8 59794.05 156320.95 59787.55 Q 157198.45 59785.6 158279.4 59750.5 Q 158816.95 59733.6 159327.85 59712.15 Q 160357.45 59669.25 160980.15 59627.65 Q 161008.75 59297.45 161144.6 58841.8 Q 161280.45 58386.8 161419.55 58056.6 Q 160473.8 58191.8 159233.6 58273.05 Q 158952.15 58291.9 158668.1 58307.5 Q 157418.15 58375.1 156374.25 58376.4 Q 155555.9 58380.3 154863 58329.6 Q 154170.1 58278.9 153591.6 58123.55 Q 155583.85 57632.15 156439.9 56975.65 Q 156660.9 56815.1 156826 56649.35 Q 157457.15 55974.65 157425.95 55314.25 L 157425.95 54235.9 Z M 171070.75 52279.4 L 171070.75 54781.9 L 169233.2 54781.9 L 169233.2 52279.4 L 171070.75 52279.4 Z M 172734.75 56232.7 L 172734.75 52279.4 L 174491.7 52279.4 L 174491.7 50748.65 L 172734.75 50748.65 L 172734.75 47780.1 L 171070.75 47780.1 L 171070.75 50748.65 L 169233.2 50748.65 L 169233.2 47659.85 L 167662.8 47659.85 L 167662.8 50748.65 L 165851.9 50748.65 L 165851.9 47939.35 L 164201.55 47939.35 L 164201.55 50748.65 L 162404.3 50748.65 L 162404.3 52279.4 L 164201.55 52279.4 L 164201.55 59268.2 L 174145.25 59268.2 L 174145.25 57737.45 L 165851.9 57737.45 L 165851.9 52279.4 L 167662.8 52279.4 L 167662.8 56232.7 L 172734.75 56232.7 Z M 5735.45 67046.4 Q 5402.65 67665.2 4950.25 68324.3 Q 4421.15 67628.8 3632.05 66993.1 L 2540.7 67831.6 Q 3479.3 68627.2 4018.15 69482.6 Q 3232.95 70338 2367.8 70973.7 Q 2640.15 71174.55 2953.45 71467.7 Q 3266.1 71760.85 3459.15 72011.75 Q 4084.45 71529.45 4670.75 70947.05 Q 4859.9 71562.6 4950.25 72237.95 Q 4464.05 73044.6 3768.55 73783.65 Q 3073.05 74523.35 2367.8 74980.3 Q 2653.8 75193.5 2938.5 75524.35 Q 3222.55 75855.2 3418.85 76138.6 Q 4231.35 75473 5043.2 74487.6 Q 5025.65 75563.35 4933.35 76336.2 Q 4841.05 77109.7 4644.1 77376.2 Q 4497.2 77586.15 4231.35 77616.05 Q 3804.95 77669.35 2820.2 77603.05 Q 3020.4 77947.55 3127.65 78341.45 Q 3235.55 78736 3245.95 79120.15 Q 4178.05 79176.7 4950.25 79014.2 Q 5479.35 78887.45 5788.75 78481.2 Q 6237.9 77843.55 6397.8 76649.5 Q 6557.7 75454.8 6547.3 74048.2 Q 6559.65 72910.05 6407.55 71821.95 Q 6255.45 70733.85 5788.75 69695.8 Q 6553.8 68757.2 7119.95 67738.65 L 5735.45 67046.4 Z M 8770.3 73170.05 L 8770.3 70573.95 L 9928.6 70573.95 L 9928.6 73170.05 L 8770.3 73170.05 Z M 12631.3 70573.95 L 12631.3 73170.05 L 11526.3 73170.05 L 11526.3 70573.95 L 12631.3 70573.95 Z M 15014.2 78654.75 Q 14790.6 77863.7 14368.1 76811.35 Q 14359.65 76790.55 14351.85 76770.4 Q 13927.4 75716.75 13496.45 74767.1 L 12032 75179.85 Q 12147.7 75487.95 12278.35 75811 Q 12444.75 76221.8 12604.65 76657.95 L 11526.3 76763.9 L 11526.3 74527.9 L 14295.3 74527.9 L 14295.3 69216.1 L 11526.3 69216.1 L 11526.3 66793.55 L 9928.6 66793.55 L 9928.6 69216.1 L 7212.9 69216.1 L 7212.9 74527.9 L 9928.6 74527.9 L 9928.6 76923.8 Q 8618.2 77044.7 7515.8 77134.4 Q 6994.5 77177.95 6547.3 77216.95 L 6800.15 78893.95 Q 8110.55 78751.6 9765.45 78564.4 Q 11420.35 78377.2 13150 78175.05 Q 13172.75 78251.75 13195.5 78326.5 Q 13337.85 78789.95 13429.5 79173.45 L 15014.2 78654.75 Z M 27500.7 69136.15 L 21656.55 69136.15 L 23080.7 68723.4 Q 22966.3 68278.15 22771.3 67700.3 Q 22576.95 67122.45 22361.8 66607 L 20777.75 67006.75 Q 20963 67511.8 21137.2 68091.6 Q 21312.05 68671.4 21416.7 69136.15 L 16584.6 69136.15 L 16584.6 70733.85 L 27500.7 70733.85 L 27500.7 69136.15 Z M 21044.25 76325.15 Q 20870.05 75238.35 20552.2 73855.8 Q 20543.1 73817.45 20534.65 73778.45 Q 20213.55 72393.3 19832.65 71119.95 L 18235.6 71506.05 Q 18560.6 72685.8 18858.3 74016.35 Q 18903.15 74220.45 18946.05 74422.6 Q 19228.15 75741.45 19340.6 76763.9 L 21044.25 76325.15 Z M 24226 77083.7 Q 24683.6 75902.65 25159.4 74439.5 Q 25634.55 72976.35 26022.6 71506.05 L 24226 71159.6 Q 23978.35 72483 23561.7 73955.9 Q 23487.6 74217.2 23410.9 74476.55 Q 22976.05 75934.5 22508.7 77083.7 L 15985.95 77083.7 L 15985.95 78694.4 L 28059.7 78694.4 L 28059.7 77083.7 L 24226 77083.7 Z M 32066.3 78947.25 L 33491.1 77722.65 Q 33012.05 77133.1 32281.45 76383.65 Q 32145.6 76244.55 32006.5 76106.75 Q 31259 75360.55 30588.85 74807.4 L 29204.35 76005.35 Q 29910.25 76619.6 30675.3 77401.55 Q 31441 78182.85 32066.3 78947.25  Z M 49758 69855.05 L 51169.15 69855.05 L 51169.15 68963.25 L 54098.05 68963.25 L 54098.05 67685.35 L 51169.15 67685.35 L 51169.15 66766.9 L 49758 66766.9 L 49758 67685.35 L 46816.1 67685.35 L 46816.1 68963.25 L 49758 68963.25 L 49758 69855.05 Z M 43501.75 72997.15 Q 43694.15 72166.45 43809.2 71126.45 Q 43924.9 70086.45 43927.5 69216.1 L 42769.2 69082.85 Q 42738 69923.3 42614.5 70893.75 Q 42491 71863.55 42290.15 72584.4 L 43501.75 72997.15 Z M 46430 70614.25 L 46430 71465.75 L 47707.9 71465.75 L 47707.9 72344.55 L 49092.4 72344.55 L 49092.4 71465.75 L 51914.7 71465.75 L 51914.7 72331.55 L 53286.2 72331.55 L 53286.2 71465.75 L 54643.4 71465.75 L 54643.4 70214.5 L 53286.2 70214.5 L 53286.2 69495.6 L 51914.7 69495.6 L 51914.7 70214.5 L 49092.4 70214.5 L 49092.4 69509.25 L 47707.9 69509.25 L 47707.9 70214.5 L 47002.65 70214.5 Q 46887.6 69854.4 46704.95 69399.4 Q 46522.3 68944.4 46337.05 68523.85 L 45445.25 68909.95 L 45445.25 66753.25 L 44073.75 66753.25 L 44073.75 79187.1 L 45445.25 79187.1 L 45445.25 69429.3 Q 45588.9 69815.4 45718.25 70189.8 Q 45846.95 70563.55 45911.3 70840.45 L 46430 70614.25 Z M 53898.5 76750.9 L 53898.5 72597.4 L 46869.4 72597.4 L 46869.4 76817.2 L 48294.2 76817.2 L 48294.2 73875.3 L 52407.4 73875.3 L 52407.4 76750.9 L 53898.5 76750.9 Z M 51049.55 74540.9 L 49598.75 74540.9 L 49598.75 75659.55 Q 49631.25 76074.9 49325.1 76561.1 Q 49085.9 76919.9 48468.4 77267.65 Q 47654.6 77737.6 45817.7 78095.1 Q 46077.05 78316.1 46339 78619.65 Q 46600.3 78922.55 46749.8 79173.45 Q 48784.95 78672.95 49722.9 78009.3 Q 50377.45 77558.85 50670.6 77077.85 Q 51082.05 76370.65 51049.55 75699.2 L 51049.55 74540.9 Z M 50770.05 77523.1 Q 51309.55 77756.45 52105.8 78148.4 Q 52469.15 78327.15 52830.55 78511.1 Q 53622.25 78915.4 54137.7 79213.75 L 54843.6 78041.8 Q 54534.85 77884.5 53842.6 77601.75 Q 53239.4 77354.75 52615.4 77114.9 Q 51900.4 76840.6 51515.6 76710.6 L 50770.05 77523.1 Z M 64574.75 71479.4 L 64574.75 73981.9 L 62737.2 73981.9 L 62737.2 71479.4 L 64574.75 71479.4 Z M 66238.75 75432.7 L 66238.75 71479.4 L 67995.7 71479.4 L 67995.7 69948.65 L 66238.75 69948.65 L 66238.75 66980.1 L 64574.75 66980.1 L 64574.75 69948.65 L 62737.2 69948.65 L 62737.2 66859.85 L 61166.8 66859.85 L 61166.8 69948.65 L 59355.9 69948.65 L 59355.9 67139.35 L 57705.55 67139.35 L 57705.55 69948.65 L 55908.3 69948.65 L 55908.3 71479.4 L 57705.55 71479.4 L 57705.55 78468.2 L 67649.25 78468.2 L 67649.25 76937.45 L 59355.9 76937.45 L 59355.9 71479.4 L 61166.8 71479.4 L 61166.8 75432.7 L 66238.75 75432.7 Z M 71776.1 70787.15 Q 71650 72750.8 71283.4 74234.75 Q 70994.15 73968.9 70684.75 73702.4 Q 70954.5 72354.3 71163.8 70787.15 L 71776.1 70787.15 Z M 81374 74847.05 L 81374 73542.5 L 79377.2 73542.5 Q 79411 73163.55 79403.85 72823.6 L 79403.85 71825.2 L 80987.9 71825.2 L 80987.9 70547.3 L 77953.05 70547.3 Q 78079.8 70101.4 78166.25 69655.5 L 76901.35 69415.65 Q 76753.15 70232.05 76495.1 70983.45 Q 76237.7 71734.85 75849.65 72331.55 L 75849.65 72237.95 L 75849.65 69269.4 L 81387.65 69269.4 L 81387.65 67964.85 L 79151 67964.85 Q 79037.9 67661.3 78885.15 67342.8 Q 78731.75 67023.65 78579 66740.25 L 77180.85 67019.75 Q 77410.3 67462.4 77580.6 67964.85 L 74505.45 67964.85 L 74505.45 70174.85 Q 74212.3 69409.15 73879.5 68723.4 L 72854.45 69149.8 L 72987.7 69442.3 L 72295.45 69376 L 72069.25 69402.65 L 71336.7 69402.65 Q 71503.1 68038.3 71590.2 66793.55 L 70245.35 66753.25 Q 70182.3 67998 70019.15 69402.65 L 69207.3 69402.65 L 69207.3 70787.15 L 69832.6 70787.15 Q 69710.4 71743.3 69553.1 72614.3 Q 69395.8 73485.3 69233.95 74181.45 Q 70009.4 74876.95 70804.35 75712.2 Q 70165.4 77289.75 69047.4 78028.8 Q 69284 78240.7 69518 78557.9 Q 69752.65 78875.1 69899.55 79146.8 Q 71083.85 78278.4 71789.75 76830.85 Q 72285.7 77402.85 72561.95 77895.55 L 73453.75 76670.95 Q 73054 76058.65 72375.4 75326.75 Q 72990.95 73146.65 73107.3 69748.45 Q 73331.55 70297.05 73518.75 70840.45 Q 73705.3 71383.85 73799.55 71812.2 L 74505.45 71492.4 L 74505.45 72237.95 L 74505.45 72611.05 Q 73969.2 73176.55 73475.2 73662.75 Q 72981.2 74148.3 72614.6 74474.6 L 73413.45 75619.25 Q 73763.8 75264.35 74121.3 74867.85 Q 74251.95 74724.85 74385.2 74581.2 Q 74273.4 75620.55 73944.5 76622.85 Q 73615.6 77625.15 72974.05 78454.55 Q 73232.1 78578.05 73570.1 78821.15 Q 73908.1 79063.6 74105.7 79267.05 Q 74975.4 78138.65 75353.7 76678.1 Q 75524 76052.15 75626.7 75411.9 Q 75849 73919.5 75849.65 72611.05 Q 76090.8 72737.15 76362.5 72903.55 Q 76633.55 73069.95 76794.75 73196.7 Q 77221.15 72630.55 77527.3 71825.2 L 78046 71825.2 L 78046 72823.6 Q 78049.25 73163.55 78033 73542.5 L 75995.9 73542.5 L 75995.9 74847.05 L 77846.45 74847.05 Q 77653.4 75725.85 77081.4 76614.4 Q 76508.75 77502.95 75356.95 78281.65 Q 75627.35 78461.7 75914.65 78729.5 Q 76201.95 78996.65 76382 79226.75 Q 77227 78583.9 77795.1 77865.65 Q 78362.55 77147.4 78698.6 76404.45 Q 79068.45 77259.85 79565.7 77965.75 Q 80062.3 78671 80681.75 79146.8 Q 80851.4 78874.45 81112.7 78569.6 Q 81374.65 78264.75 81613.85 78082.1 Q 80861.15 77566.65 80282.65 76709.3 Q 79704.15 75851.95 79350.55 74847.05 L 81374 74847.05 Z M 94699.65 69975.3 Q 94269.35 69433.2 93620.65 68740.3 Q 92971.95 68046.75 92329.75 67385.7 Q 92061.3 67107.5 91824.05 66859.85 L 90599.45 67672.35 Q 91248.8 68373.7 91970.95 69192.05 Q 92114.6 69356.5 92254.35 69519 Q 92954.4 70326.95 93368.45 70920.4 L 94699.65 69975.3 Z M 88362.8 66886.5 Q 87879.2 67792.6 87183.05 68653.85 Q 86487.55 69515.1 85753.7 70121.55 Q 86051.4 70314.6 86429.7 70605.8 Q 86807.35 70896.35 87045.25 71119.95 Q 87753.75 70419.25 88512.95 69429.3 Q 89271.5 68439.35 89840.9 67418.85 L 88362.8 66886.5 Z M 87630.9 74061.85 Q 89071.95 72980.25 90133.4 71399.45 Q 90691.1 72223.65 91308.6 72875.6 Q 91925.45 73527.55 92622.9 74061.85 L 87630.9 74061.85 Z M 88416.1 77283.25 L 88416.1 75459.35 L 91704.45 75459.35 L 91704.45 77283.25 L 88416.1 77283.25 Z M 89654.35 69096.5 Q 89010.85 70611.65 87893.5 71750.45 Q 86776.15 72889.25 85354.6 73556.15 L 85354.6 70068.25 Q 86096.9 68690.25 86618.85 67272.6 L 85128.4 66806.55 Q 84625.95 68246.3 83843.35 69555.4 Q 83061.4 70865.15 82159.85 71785.55 Q 82383.45 72104.7 82642.15 72603.9 Q 82900.85 73103.1 83025 73422.9 Q 83427.35 72983.5 83850.5 72424.5 L 83850.5 79187.1 L 85354.6 79187.1 L 85354.6 73702.4 Q 85638.65 73979.3 85885 74311.45 Q 86132 74643.6 86286.05 74940.65 Q 86599.35 74763.85 86912 74567.55 L 86912 79200.1 L 88416.1 79200.1 L 88416.1 78681.4 L 91704.45 78681.4 L 91704.45 79107.15 L 93274.85 79107.15 L 93274.85 74527.9 Q 93445.8 74637.75 93621.3 74747.6 Q 93796.8 74857.45 93967.1 74967.3 Q 94126.35 74608.5 94409.75 74245.15 Q 94693.8 73881.15 94992.15 73622.45 Q 93738.3 73027.7 92721.05 72178.15 Q 91703.8 71328.6 90878.95 70054.6 Q 90995.3 69831.65 91092.15 69589.2 L 89654.35 69096.5 Z M 97681.2 76418.1 L 97681.2 73809 L 99798.25 73809 L 99798.25 76418.1 L 97681.2 76418.1 Z M 99798.25 72437.5 L 97681.2 72437.5 L 97681.2 70281.45 L 99798.25 70281.45 L 99798.25 72437.5 Z M 104031.05 68803.35 Q 104330.7 67968.1 104550.4 67112.7 L 103032.65 66766.9 Q 102739.5 67951.85 102279.3 69075.05 Q 101818.45 70197.6 101235.4 71053 L 101235.4 68896.95 L 99172.3 68896.95 Q 99518.75 68014.9 99864.55 66993.1 L 98134.25 66753.25 Q 98091.35 67235.55 97986.05 67810.15 Q 97880.75 68384.75 97748.15 68896.95 L 96243.4 68896.95 L 96243.4 78787.35 L 97681.2 78787.35 L 97681.2 77815.6 L 101235.4 77815.6 L 101235.4 71599 Q 101515.55 71784.25 101802.85 71987.05 Q 102090.8 72189.2 102260.45 72344.55 Q 102896.15 71462.5 103432.4 70241.15 L 106280.7 70241.15 Q 106178.65 73663.4 106024.6 75337.15 Q 106018.1 75405.4 106011.6 75471.05 Q 105853.65 77083.05 105575.45 77363.2 Q 105450 77490.6 105317.4 77541.3 Q 105184.8 77591.35 104989.8 77589.4 Q 104718.75 77592 104187.7 77579.65 Q 103656.65 77567.3 103006 77509.45 Q 103219.85 77853.3 103360.9 78281.65 Q 103501.95 78710 103525.35 79053.85 Q 104124 79075.95 104675.2 79075.3 Q 105226.4 79075.3 105615.1 79027.2 Q 106009.65 78966.75 106314.5 78810.75 Q 106618.7 78655.4 106893 78295.3 Q 107198.5 77926.1 107366.2 76745.7 Q 107473.45 75988.45 107549.5 74779.45 Q 107665.85 72882.1 107758.8 69522.25 Q 107767.9 69355.2 107770.5 69093.25 Q 107772.45 68831.3 107771.8 68803.35 L 104031.05 68803.35 Z M 105561.8 74873.7 Q 105231.6 74268.55 104678.45 73450.85 Q 104125.95 72633.8 103605.3 71918.8 L 102367.05 72624.05 Q 102876 73379.35 103397.3 74226.3 Q 103918.6 75073.9 104217.6 75699.2 L 105561.8 74873.7 Z M 116318 69482.6 Q 115905.25 70800.15 115253.3 72078.05 Q 114388.15 70936.65 113562.65 69935 L 112284.75 70614.25 Q 112808 71276.6 113356.6 72008.5 Q 113904.55 72740.4 114427.8 73502.85 Q 113846.7 74405.7 113178.5 75153.2 Q 112509.65 75901.35 111779.05 76444.75 Q 112061.8 76669 112384.2 77015.45 Q 112707.25 77361.9 112910.05 77656.35 Q 114264.65 76524.7 115359.9 74873.7 Q 115802.55 75566.6 116165.25 76196.45 Q 116527.95 76826.95 116771.05 77350.2 L 118208.2 76537.7 Q 117873.45 75853.25 117361.25 75051.8 Q 116849.7 74250.35 116225.05 73396.25 Q 117113.6 71738.75 117702.5 69881.7 L 116318 69482.6 Z M 110501.15 67206.3 L 110501.15 70933.4 Q 110518.7 72209.35 110375.05 73738.8 Q 110287.3 74587.05 110095.55 75430.75 Q 109767.3 76951.75 108943.1 78188.7 Q 109236.9 78338.85 109637.3 78665.8 Q 110037.7 78993.4 110261.3 79253.4 Q 111111.5 78010.6 111524.9 76408.35 Q 111860.3 75131.1 111996.8 73842.8 Q 112163.2 72226.25 112151.5 70933.4 L 112151.5 68723.4 L 118182.2 68723.4 Q 118139.95 72998.45 118334.3 75496.4 Q 118429.2 76565 118620.3 77311.85 Q 119038.9 79055.8 120271.95 79053.85 Q 120927.8 79063.6 121223.55 78486.4 Q 121519.95 77909.2 121616.15 76631.3 Q 121389.3 76407.7 121127.35 76056.7 Q 120865.4 75706.35 120658.05 75393.05 Q 120638.55 76206.85 120576.15 76778.85 Q 120514.4 77350.85 120405.2 77376.2 Q 119877.4 77365.15 119781.2 74787.25 Q 119685 72210 119766.25 67206.3 L 110501.15 67206.3 Z M 125889.25 76045 L 125889.25 75432.7 L 131028.15 75432.7 L 131028.15 76045 L 125889.25 76045 Z M 131028.15 73729.05 L 131028.15 74341.35 L 125889.25 74341.35 L 125889.25 73729.05 L 131028.15 73729.05 Z M 132558.9 72544.1 L 124385.15 72544.1 L 124385.15 79187.1 L 125889.25 79187.1 L 125889.25 77163.65 L 131028.15 77163.65 L 131028.15 77709 Q 131044.4 77948.85 130761.65 77948.85 Q 130591.35 77949.5 130144.15 77945.6 Q 129696.95 77941.7 129217.25 77922.2 Q 129362.2 78191.3 129488.95 78534.5 Q 129615.7 78878.35 129670.3 79187.1 Q 130417.8 79192.3 130971.6 79155.25 Q 131524.75 79118.2 131893.3 78973.9 Q 132275.5 78821.8 132420.45 78533.2 Q 132566.05 78243.95 132558.9 77722.65 L 132558.9 72544.1 Z M 126116.1 69988.3 L 128059.6 69988.3 L 128059.6 70680.55 L 126116.1 70680.55 L 126116.1 69988.3 Z M 130722 68470.55 L 130722 70680.55 L 129430.45 70680.55 L 129430.45 69016.55 L 126116.1 69016.55 L 126116.1 68470.55 L 130722 68470.55 Z M 132319.05 70680.55 L 132319.05 67272.6 L 124598.35 67272.6 L 124598.35 70680.55 L 122774.45 70680.55 L 122774.45 73502.85 L 124185.6 73502.85 L 124185.6 72025.4 L 132772.1 72025.4 L 132772.1 73502.85 L 134262.55 73502.85 L 134262.55 70680.55 L 132319.05 70680.55 Z M 137737.45 74727.45 Q 136835.25 74750.85 136226.85 75360.55 L 136225.55 75361.85 Q 135617.8 75972.2 135593.75 76884.15 Q 135617.8 77795.45 136225.55 78405.8 L 136226.85 78407.1 Q 136835.25 79016.8 137737.45 79040.2 Q 138658.5 79016.8 139264.95 78406.45 Q 139871.4 77796.1 139893.5 76884.15 Q 139871.4 75971.55 139264.95 75361.2 Q 138658.5 74750.85 137737.45 74727.45  Z M 137737.45 78082.1 Q 137244.1 78069.75 136905.45 77732.4 Q 136566.8 77395.7 136552.5 76884.15 Q 136566.8 76372.6 136905.45 76035.25 Q 137244.1 75698.55 137737.45 75686.2 Q 138249 75698.55 138585.7 76035.25 Q 138923.05 76372.6 138935.4 76884.15 Q 138923.05 77395.7 138585.7 77732.4 Q 138249 78069.75 137737.45 78082.1  Z " fill-rule="nonzero" style="fill:#555555;;fill-opacity:1;"/>
</svg>