<svg version="1.1" x="0" y="0" width="100%" height="100%" viewBox="0 0 388710.4 83148.8" xmlns="http://www.w3.org/2000/svg">
  <path d="M 16424.6 11872.4 L 16424.6 22599.5 L 12333.2 22599.5 L 12333.2 8738.6 Q 12698.6 8682.8 12847.1 8549.6 Q 12994.7 8417.3 13015.4 8222.9 L 10029.2 7927.7 L 10029.2 22599.5 L 6029.6 22599.5 L 6029.6 12683.3 Q 6674 12577.1 6710.9 12167.6 L 3743.6 11872.4 L 3743.6 22341.2 Q 3324.2 22618.4 3043.4 22949.6 L 5421.2 24129.5 L 6140.3 23134.1 L 16424.6 23134.1 L 16424.6 24903.5 L 16830.5 24903.5 Q 17528.9 24880.1 18102.2 24638.9 Q 18676.4 24397.7 18710.6 24221.3 L 18710.6 12664.4 Q 19076 12608.6 19224.5 12476.3 Q 19372.1 12343.1 19392.8 12148.7 L 16424.6 11872.4 Z M 26581.1 11853.5 L 25475 12996.5 L 21309.8 12996.5 L 21475.4 13531.1 L 25603.7 13531.1 Q 25173.5 16186.1 24026 18665.6 Q 24023.3 18671 24020.6 18677.3 Q 22871.3 21155.9 20867 22912.7 L 21032.6 23116.1 Q 23852.3 21610.4 25411.1 19367.6 Q 25639.7 19049.9 25845.8 18721.4 Q 27253.4 16407.5 27815.9 13844.3 Q 28382.9 13807.4 28535 13550 L 26581.1 11853.5 Z M 35501.9 10729.4 Q 35024.9 11651.9 34205 12913.7 Q 33385.1 14175.5 32478.8 15319.4 Q 31354.7 13272.8 30783.2 10287.5 L 30783.2 8388.5 Q 31134.2 8333.6 31274.6 8208.5 Q 31414.1 8084.3 31447.4 7890.8 L 28571.9 7595.6 L 28571.9 22064.9 Q 28598.9 22420.4 28129.1 22415 Q 27835.7 22412.3 27127.4 22371.8 Q 26578.4 22341.2 26085.2 22310.6 Q 25448 22271 25401.2 22268.3 L 25401.2 22525.7 Q 26187.8 22662.5 26610.8 22850.6 Q 27034.7 23039.6 27281.3 23299.7 Q 27719.6 23807.3 27797.9 24866.6 Q 29564.6 24716.3 30169.4 24149.3 Q 30285.5 24047.6 30375.5 23932.4 Q 30830 23289.8 30783.2 22212.5 L 30783.2 11596.1 Q 31365.5 15442.7 32499.5 17908.7 Q 32865.8 18716 33289.7 19418.9 Q 34605.5 21559.1 36497.3 23060.3 Q 36724.1 22289 37209.2 21765.2 Q 37695.2 21242.3 38377.4 21106.4 L 38469.2 20903.9 Q 36889.7 20160.5 35402.9 18929.3 Q 33916.1 17698.1 32737.1 15780.2 Q 34054.7 15015.2 35250.8 14153 Q 36446.9 13291.7 37308.2 12554.6 Q 37634 12605.9 37801.4 12540.2 Q 37968.8 12474.5 38045.3 12333.2 L 35501.9 10729.4 Z M 53528.9 22986.5 L 42709.1 22986.5 L 42709.1 13033.4 Q 43354.4 12918.2 43391.3 12498.8 L 40626.5 12222.5 L 40626.5 22747.1 Q 40207.1 23018.9 39925.4 23318.6 L 42137.6 24479.6 L 42819.8 23521.1 L 53528.9 23521.1 L 53528.9 24848.6 L 53933.9 24848.6 Q 54546.8 24826.1 55063.4 24603.8 Q 55579.1 24381.5 55611.5 24221.3 L 55611.5 12904.7 Q 55949.9 12848.9 56084 12727.4 Q 56218.1 12605.9 56237.9 12425 L 53528.9 12167.6 L 53528.9 22986.5 Z M 49012.7 20129.9 L 49012.7 16185.2 L 50377.1 16185.2 L 50377.1 20129.9 L 49012.7 20129.9 Z M 45842 16185.2 L 47243.3 16185.2 L 47243.3 20129.9 L 45842 20129.9 L 45842 16185.2 Z M 47243.3 12111.8 L 47243.3 15650.6 L 45842 15650.6 L 45842 12111.8 L 47243.3 12111.8 Z M 50377.1 12111.8 L 50377.1 15650.6 L 49012.7 15650.6 L 49012.7 12111.8 L 50377.1 12111.8 Z M 50690.3 21475.4 Q 51196.1 21455.6 51694.7 21263 Q 52193.3 21071.3 52257.2 20940.8 L 52257.2 12388.1 Q 52763.9 12254.9 52938.5 12038 L 51095.3 10618.7 L 50192.6 11596.1 L 45934.7 11596.1 L 43980.8 10766.3 L 43980.8 21770.6 L 44276 21770.6 Q 44893.4 21748.1 45356 21525.8 Q 45818.6 21303.5 45842 21143.3 L 45842 20664.5 L 50377.1 20664.5 L 50377.1 21475.4 L 50690.3 21475.4 Z M 53288.6 9255.2 L 39464.6 9255.2 L 39612.2 9770.9 L 56422.4 9770.9 Q 56832.8 9775.4 56938.1 9475.7 Q 56324.3 8968.1 55642.1 8448.8 Q 55412.6 8274.2 55213.7 8123.9 Q 54617.9 7677.5 54579.2 7651.4 L 53288.6 9255.2 Z M 65048.9 18010.4 Q 65699.6 17991.5 66122.6 17560.4 Q 66544.7 17130.2 66560 16517.3 Q 66544.7 15863.9 66122.6 15424.7 Q 65699.6 14986.4 65048.9 14968.4 Q 64384.7 14986.4 63959 15424.7 Q 63533.3 15863.9 63518.9 16517.3 Q 63533.3 17130.2 63959 17560.4 Q 64384.7 17991.5 65048.9 18010.4  Z M 74399.6 10913.9 Q 74450 11914.7 74171.9 12853.4 Q 73893.8 13793 73514.9 14268.2 Q 73217 14552.6 73118.9 14900 Q 73020.8 15246.5 73219.7 15558.8 Q 73496.9 15910.7 73950.5 15837.8 Q 74404.1 15764 74694.8 15356.3 Q 75089 14764.1 75151.1 13618.4 Q 75213.2 12473.6 74694.8 10913.9 L 74399.6 10913.9 Z M 75671.3 7595.6 L 75671.3 24885.5 L 76077.2 24885.5 Q 76686.5 24865.7 77178.8 24659.6 Q 77670.2 24453.5 77699 24295.1 L 77699 8388.5 Q 78050.9 8331.8 78199.4 8199.5 Q 78347 8067.2 78381.2 7872.8 L 75671.3 7595.6 Z M 77699 10637.6 Q 77987.9 11195.6 78203.9 11943.5 Q 78419.9 12692.3 78418.1 13402.4 Q 78993.2 13919 79468.4 13629.2 Q 79784.3 13441.1 79883.3 13017.2 Q 79982.3 12594.2 79726.7 12056.9 Q 79373.9 11263.1 77920.4 10544.9 L 77699 10637.6 Z M 82491.5 20093 L 82491.5 18452.3 L 86915 18452.3 L 86915 20093 L 82491.5 20093 Z M 86915 16350.8 L 86915 17917.7 L 82491.5 17917.7 L 82491.5 16350.8 L 86915 16350.8 Z M 86730.5 15854 L 82583.3 15854 L 80390 14950.4 L 80390 24848.6 L 80703.2 24848.6 Q 81407.9 24825.2 81936.2 24581.3 Q 82464.5 24336.5 82491.5 24148.4 L 82491.5 20627.6 L 86915 20627.6 L 86915 22175.6 Q 86947.4 22530.2 86564.9 22525.7 Q 86300.3 22523 85732.4 22491.5 Q 85517.3 22479.8 85317.5 22468.1 Q 84786.5 22437.5 84739.7 22433.9 L 84739.7 22673.3 Q 85309.4 22783.1 85613.6 22954.1 Q 85916.9 23126 86085.2 23373.5 Q 86412.8 23844.2 86436.2 24866.6 Q 88033.7 24720.8 88537.7 24155.6 Q 88584.5 24107 88625.9 24055.7 Q 89063.3 23454.5 89016.5 22433.9 L 89016.5 16719.8 Q 89588 16558.7 89771.6 16314.8 L 87671 14747.9 L 86730.5 15854 Z M 87707.9 14028.8 L 85569.5 14028.8 L 85569.5 12333.2 L 89440.4 12333.2 Q 89850.8 12337.7 89956.1 12038 Q 89440.4 11581.7 88873.4 11120.9 Q 88769.9 11036.3 88675.4 10959.8 Q 88150.7 10535.9 88112.9 10508 L 87099.5 11798.6 L 85569.5 11798.6 L 85569.5 10287.5 L 89975 10287.5 Q 90384.5 10292 90490.7 9992.3 Q 89958.8 9507.2 89366.6 9023 Q 89234.3 8913.2 89114.6 8815.1 Q 88574.6 8379.5 88536.8 8351.6 L 87449.6 9752.9 L 85569.5 9752.9 L 85569.5 8407.4 Q 85894.4 8351.6 86025.8 8229.2 Q 86157.2 8107.7 86177.9 7927.7 L 83486.9 7688.3 L 83486.9 9752.9 L 79339.7 9752.9 L 79487.3 10287.5 L 83486.9 10287.5 L 83486.9 11798.6 L 80094.8 11798.6 L 80242.4 12333.2 L 83486.9 12333.2 L 83486.9 14028.8 L 78842 14028.8 L 78989.6 14544.5 L 90232.4 14544.5 Q 90633.8 14549.9 90730.1 14250.2 Q 90197.3 13775.9 89611.4 13293.5 Q 89483.6 13187.3 89367.5 13092.8 Q 88832.9 12656.3 88795.1 12628.4 L 87707.9 14028.8 Z M 103909.7 9236.3 L 103909.7 10674.5 L 96887 10674.5 L 96887 9236.3 L 103909.7 9236.3 Z M 96887 12664.4 L 96887 11209.1 L 103909.7 11209.1 L 103909.7 12664.4 L 96887 12664.4 Z M 96887 13199 L 103909.7 13199 L 103909.7 13955 L 104277.8 13955 Q 104836.7 13937 105416.3 13763.3 L 105457.7 13750.7 Q 106027.4 13576.1 106084.1 13476.2 L 106084.1 9605.3 Q 106655.6 9457.7 106840.1 9199.4 L 104720.6 7632.5 L 103725.2 8720.6 L 97015.7 8720.6 L 94748.6 7817 L 94748.6 14305.1 L 95061.8 14305.1 Q 95744.9 14285.3 96299.3 14068.4 Q 96853.7 13850.6 96887 13678.7 L 96887 13199 Z M 97365.8 17217.5 L 103393.1 17217.5 L 103393.1 19282.1 L 97365.8 19282.1 L 97365.8 17217.5 Z M 103393.1 19797.8 L 103393.1 20462 L 103780.1 20462 Q 104319.2 20445.8 104906 20280.2 Q 104942 20270.3 104977.1 20260.4 Q 105547.7 20092.1 105605.3 19982.3 L 105605.3 17567.6 Q 106166.9 17424.5 106342.4 17199.5 L 104204 15595.7 L 103208.6 16682.9 L 97476.5 16682.9 L 95191.4 15798.2 L 95191.4 20664.5 L 95485.7 20664.5 L 95652.2 20664.5 Q 95067.2 21602.3 94119.5 22578.8 Q 93171.8 23555.3 92075.6 24258.2 L 92205.2 24479.6 Q 93868.4 24101.6 95340.8 23352.8 Q 96813.2 22604.9 97715.9 21714.8 Q 98042.6 21753.5 98192.9 21685.1 Q 98343.2 21616.7 98380.1 21475.4 L 96352.4 20534.9 Q 96778.1 20418.8 97066.1 20270.3 Q 97354.1 20122.7 97365.8 20019.2 L 97365.8 19797.8 L 99282.8 19797.8 L 99282.8 22433.9 Q 99310.7 22719.2 98951.6 22729.1 Q 98680.7 22724.6 98090.3 22688.6 Q 97831.1 22673.3 97591.7 22658 Q 97043.6 22622 96997.7 22618.4 L 96997.7 22875.8 Q 97635.8 22963.1 97956.2 23136.8 Q 98275.7 23309.6 98417 23521.1 Q 98771.6 23949.5 98767.1 24903.5 Q 100421.3 24766.7 100954.1 24180.8 Q 100991 24143.9 101024.3 24105.2 Q 101504.9 23492.3 101458.1 22470.8 L 101458.1 19797.8 L 103393.1 19797.8 Z M 102453.5 21032.6 Q 103818.8 21837.2 104734.1 22763.3 Q 105650.3 23688.5 105992.3 24368.9 Q 106795.1 24750.5 107335.1 24345.5 Q 107875.1 23939.6 107786.9 23176.4 Q 107773.4 23092.7 107749.1 23009 Q 107567.3 22230.5 106352.3 21569.9 Q 105138.2 20909.3 102527.3 20793.2 L 102453.5 21032.6 Z M 105863.6 14932.4 L 100904.6 14932.4 Q 101391.5 14603.9 101360 14074.7 Q 101329.4 13722.8 100937 13469.9 Q 100380.8 13082.9 98822 13309.7 L 98693.3 13439.3 Q 99024.5 13672.4 99328.7 14081.9 Q 99632.9 14491.4 99743.6 14932.4 L 91892 14932.4 L 92039.6 15448.1 L 108407 15448.1 Q 108830.9 15452.6 108922.7 15152.9 Q 108394.4 14684 107798.6 14205.2 Q 107656.4 14090 107529.5 13988.3 Q 106988.6 13559 106950.8 13531.1 L 105863.6 14932.4 Z M 116277.5 7688.3 Q 116880.5 8258.9 117417.8 9082.4 Q 117955.1 9905 118157.6 10766.3 Q 119002.7 11236.1 119578.7 10868.9 Q 120128.6 10520.6 120138.5 9815 Q 120149.3 9109.4 119333.9 8452.4 Q 118486.1 7763.9 116425.1 7577.6 L 116277.5 7688.3 Z M 126875.9 11577.2 Q 127285.4 11581.7 127391.6 11282 Q 126848 10757.3 126213.5 10188.5 Q 125973.2 9972.5 125766.2 9788.9 Q 125216.3 9302.9 125180.3 9273.2 L 123944.6 11061.5 L 110397.8 11061.5 L 110544.5 11577.2 L 126875.9 11577.2 Z M 120479.6 12203.6 Q 121635.2 13043.3 122742.2 14243.9 Q 122825.9 14334.8 122906.9 14427.5 Q 123991.4 15642.5 124535 16867.4 Q 125453.9 17303 125969.6 16825.1 Q 126485.3 16347.2 126265.7 15409.4 Q 126258.5 15381.5 126249.5 15352.7 Q 126002.9 14407.7 124679.9 13470.8 Q 123356.9 12533 120627.2 12056.9 L 120479.6 12203.6 Z M 110987.3 17586.5 Q 112949.3 16865.6 114475.7 15712.7 Q 116002.1 14560.7 116940.8 13328.6 Q 117268.4 13365.5 117429.5 13289 Q 117590.6 13212.5 117641 13070.3 L 114950 11706.8 Q 114422.6 13115.3 113350.7 14663.3 L 113341.7 14675.9 Q 112268.9 16222.1 110858.6 17383.1 L 110987.3 17586.5 Z M 121070 14968.4 Q 120281.6 17314.7 118636.4 19300.1 Q 116534.9 17765.6 115429.7 15374.3 L 115189.4 15558.8 Q 116120.9 18365 117770.6 20258.6 Q 116403.5 21675.2 114500.9 22791.2 Q 112598.3 23906.3 110139.5 24645.2 L 110250.2 24885.5 Q 113022.2 24450.8 115183.1 23569.7 Q 117343.1 22688.6 118968.5 21438.5 Q 120340.1 22647.2 122023.1 23486.9 Q 123706.1 24325.7 125659.1 24885.5 Q 126124.4 23277.2 127613 22968.5 L 127649.9 22747.1 Q 125660.9 22433.9 123771.8 21844.4 Q 121883.6 21254 120240.2 20332.4 Q 122023.1 18558.5 123059.9 16424.6 Q 123691.7 16466 123797.9 16148.3 L 121070 14968.4 Z M 135335.9 9162.5 L 128847.8 9162.5 L 128995.4 9697.1 L 137713.7 9697.1 Q 138114.2 9701.6 138211.4 9402.8 Q 137699.3 8949.2 137129.6 8484.8 Q 137015.3 8391.2 136910.9 8306.6 Q 136387.1 7881.8 136349.3 7853.9 L 135335.9 9162.5 Z M 131870.9 13733.6 L 131870.9 11669.9 L 134801.3 11669.9 L 134801.3 13733.6 L 131870.9 13733.6 Z M 135114.5 14876.6 Q 135582.5 14861.3 136077.5 14703.8 Q 136573.4 14546.3 136626.5 14434.7 L 136626.5 11946.2 Q 137109.8 11812.1 137289.8 11596.1 L 135464.6 10231.7 L 134616.8 11153.3 L 131944.7 11153.3 L 130064.6 10397.3 L 130064.6 15024.2 L 130304 15024.2 Q 130898 15005.3 131370.5 14810 Q 131843.9 14614.7 131870.9 14471.6 L 131870.9 14250.2 L 134801.3 14250.2 L 134801.3 14876.6 L 135114.5 14876.6 Z M 131373.2 16664.9 Q 131589.2 17096 131736.8 17690 Q 131884.4 18284 131852 18839.3 Q 132341.6 19297.4 132768.2 19031.9 Q 133004.9 18886.1 133098.5 18583.7 Q 133192.1 18281.3 133050.8 17894.3 Q 132835.7 17218.4 131594.6 16572.2 L 131373.2 16664.9 Z M 134359.4 19300.1 L 133898.6 19300.1 Q 134279.3 18792.5 134615 18288.5 Q 134950.7 17784.5 135151.4 17402 Q 135616.7 17393 135722.9 17162.6 L 135722.9 19189.4 Q 135433.1 18918.5 135197.3 18726.8 Q 134962.4 18535.1 134948.9 18526.1 L 134359.4 19300.1 Z M 130967.3 16277.9 L 135722.9 16277.9 L 135722.9 17033 L 133972.4 16461.5 Q 133911.2 16989.8 133771.7 17790.8 Q 133631.3 18592.7 133474.7 19300.1 L 130967.3 19300.1 L 130967.3 16277.9 Z M 135538.4 15761.3 L 131225.6 15761.3 L 129197.9 14968.4 L 129197.9 24829.7 L 129511.1 24829.7 Q 130206.8 24807.2 130584.8 24602 Q 130962.8 24395.9 130967.3 24277.1 L 130967.3 19816.7 L 132497.3 19816.7 L 132497.3 23723.6 L 132773.6 23723.6 Q 133375.7 23709.2 133725.8 23576.9 Q 134075 23443.7 134082.2 23373.5 L 134082.2 19816.7 L 135594.2 19816.7 Q 135658.1 19821.2 135722.9 19797.8 L 135722.9 22655.3 Q 135750.8 22954.1 135446.6 22949.6 Q 135198.2 22946 134808.5 22922.6 Q 134418.8 22898.3 134377.4 22894.7 L 134377.4 23153 Q 134756.3 23234.9 134948.9 23362.7 Q 135141.5 23489.6 135244.1 23668.7 Q 135479 24046.7 135464.6 24811.7 Q 136750.7 24687.5 137124.2 24187.1 Q 137496.8 23686.7 137455.4 22802 L 137455.4 16591.1 Q 137747 16543.4 137948.6 16434.5 Q 138150.2 16324.7 138248.3 16222.1 L 136349.3 14802.8 L 135538.4 15761.3 Z M 142524.2 17328.2 L 142524.2 12130.7 L 143556.5 12130.7 L 143556.5 17328.2 L 142524.2 17328.2 Z M 139943.9 12130.7 L 140920.4 12130.7 L 140920.4 17328.2 L 139943.9 17328.2 L 139943.9 12130.7 Z M 143851.7 18821.3 Q 144317 18804.2 144795.8 18639.5 Q 145275.5 18473.9 145325.9 18360.5 L 145325.9 12388.1 Q 145823.6 12277.4 145989.2 12056.9 L 144238.7 10711.4 L 143390.9 11614.1 L 142671.8 11614.1 L 142671.8 8517.2 Q 143326.1 8393 143317.1 8020.4 L 140791.7 7799 L 140791.7 11614.1 L 140035.7 11614.1 L 138248.3 10877 L 138248.3 19245.2 L 138506.6 19245.2 Q 139068.2 19224.5 139494.8 19022 Q 139921.4 18818.6 139943.9 18673.7 L 139943.9 17862.8 L 140791.7 17862.8 L 140791.7 21954.2 Q 139802.6 22009.1 139013.3 22039.7 Q 138224 22070.3 137731.7 22083.8 L 138598.4 24609.2 Q 138930.5 24548.9 139151 24184.4 Q 142187.6 23116.1 143925.5 22378.1 Q 144114.5 23332.1 144110 24258.2 Q 144812 24917.9 145355.6 24539.9 Q 145769.6 24255.5 145869.5 23553.5 Q 145970.3 22851.5 145568 21915.5 Q 145064 20700.5 143372 19447.7 L 143151.5 19540.4 Q 143524.1 20530.4 143814.8 21770.6 L 142653.8 21844.4 L 142653.8 17862.8 L 143556.5 17862.8 L 143556.5 18839.3 L 143851.7 18821.3 Z " fill-rule="nonzero" style="fill:#333333;;fill-opacity:1;"/>
  <path d="M 19124 39182 Q 19461.4 39186.2 19539.8 38953.1 Q 19072.2 38556.2 18536.7 38137.6 Q 18330.2 37975.2 18153.1 37838.7 Q 17691.8 37483.1 17661.7 37462.1 L 16629.9 38780.9 L 6293.7 38780.9 L 6408.5 39182 L 12314.4 39182 Q 11746 41072.7 10500.7 43049.5 Q 9974.3 43885.3 9354.8 44689.6 Q 7892.5 46591.5 6092.8 48056.6 L 6207.6 48170.7 Q 7910.7 47279.6 9372.3 46060.2 Q 10833.2 44840.8 11999.4 43411.4 L 11999.4 50837.7 L 12314.4 50837.7 Q 12814.9 50823.7 13248.2 50688.6 Q 13681.5 50554.2 13719.3 50464.6 L 13719.3 42250.1 Q 14114.1 42178.7 14163.8 41977.8 L 13274.8 41648.1 Q 14049 40436.4 14565.6 39182 L 19124 39182 Z M 14178.5 42938.2 Q 15148 43642.4 16156.7 44625.2 Q 16416.4 44880.7 16662.8 45143.9 Q 17621.1 46158.9 18163.6 47138.9 Q 18904.2 47463.7 19281.5 47062.6 Q 19659.5 46660.8 19396.3 45869.8 Q 19391.4 45855.8 19385.8 45841.8 Q 19108.6 45046.6 17908.8 44203.8 Q 16708.3 43361.7 14307.3 42809.4 L 14178.5 42938.2 Z M 25489.1 43081.7 Q 25487.7 43082.4 25486.3 43082.4 Q 24577.7 43343.5 23711.8 43583.6 L 23711.8 41174.9 L 25302.9 41174.9 Q 25600.4 41178.4 25661.3 40946 Q 25377.8 40575.7 25017.3 40164.8 Q 24934 40068.9 24857.7 39982.8 Q 24525.9 39609.7 24500 39583.8 L 23797.9 40773.8 L 23711.8 40773.8 L 23711.8 37964 Q 24224.2 37888.4 24242.4 37576.9 L 22178.1 37362 L 22178.1 40773.8 L 20528.9 40773.8 L 20643.7 41174.9 L 22178.1 41174.9 L 22178.1 43984.7 Q 21877.1 44058.9 21607.6 44126.1 Q 20764.8 44340.3 20314 44429.2 L 21002.1 46336 Q 21277.9 46239.4 21360.5 45948.9 Q 21447.3 45897.1 21532.7 45846 Q 21868.7 45649.3 22178.1 45447 L 22178.1 48858.8 Q 22195.6 49110.1 21891.1 49103.1 Q 21702.8 49099.6 21272.3 49070.9 Q 21109.2 49059.7 20956.6 49049.2 Q 20551.3 49019.8 20514.9 49017 L 20514.9 49217.2 Q 20938.4 49292.8 21176.4 49421.6 Q 21413.7 49551.1 21546.7 49733.8 Q 21783.3 50099.2 21805 50851.7 Q 23006.9 50727.1 23374.4 50275.6 Q 23387.7 50260.9 23400.3 50245.5 Q 23748.2 49782.1 23711.8 48959.6 L 23711.8 44486.6 Q 24837.4 43744.6 25532.5 43239.2 L 25489.1 43081.7 Z M 28772.1 42866.8 L 28772.1 46307.3 L 27295.8 46307.3 L 27295.8 42866.8 L 28772.1 42866.8 Z M 32557 39110.6 L 31682.7 40028.3 L 27668.2 40028.3 Q 28163.1 39289.8 28571.9 38422.5 Q 29055.6 38426 29130.5 38150.2 L 26922.7 37376 Q 26575.5 38924.4 25980.5 40320.2 Q 25385.5 41716 24715.6 42694.6 L 24873.1 42809.4 Q 25370.8 42486.7 25847.5 42077.9 L 25847.5 48099.3 L 26063.1 48099.3 Q 26534.9 48083.9 26905.2 47925.7 Q 27274.8 47767.5 27295.8 47654.8 L 27295.8 46708.4 L 28772.1 46708.4 L 28772.1 47597.4 L 29030.4 47597.4 Q 29433.6 47577.1 29815.1 47388.1 Q 30197.3 47198.4 30234.4 47081.5 L 30234.4 43081.7 Q 30629.2 42978.1 30765 42809.4 L 29317.4 41705.5 L 28629.3 42451 L 27338.5 42451 L 26034.4 41906.4 Q 26754.7 41271.5 27367.2 40444.1 L 31840.2 40444.1 Q 31773 44180 31593.1 46271.6 Q 31413.2 48362.5 31023.3 48744.7 Q 30840.6 48952.6 30464 48944.9 Q 30176.3 48942.8 29603.7 48902.2 Q 29031.1 48861.6 28528.5 48816.1 L 28514.5 49017 Q 29003.8 49114.3 29383.2 49271.1 Q 29762.6 49427.9 29962.1 49633 Q 30266.6 49991.4 30249.1 50780.3 Q 30922.5 50783.8 31424.4 50604.6 Q 31926.3 50425.4 32298.7 50020.1 Q 32816.7 49469.2 33056.8 47625.4 Q 33107.2 47247.4 33149.9 46807.1 Q 33349.4 44653.2 33417.3 40701.7 Q 33894 40626.8 34048 40444.1 L 32557 39110.6 Z M 35882.7 37748.4 Q 36320.9 38160 36754.2 38748.7 Q 37186.8 39337.4 37388.4 39942.2 Q 38035.9 40250.9 38444 39944.3 Q 38808 39673.4 38789.8 39182 Q 38771.6 38691.3 38192.7 38246.1 Q 37555 37746.3 35997.5 37648.3 L 35882.7 37748.4 Z M 34764.8 40960 Q 35199.5 41338.7 35594.3 41897.3 Q 35989.1 42455.9 36155.7 43039 Q 36763.3 43370.1 37168.6 43086.6 Q 37531.9 42834.6 37533.3 42357.9 Q 37534.7 41880.5 36988 41444.4 Q 36387.4 40957.2 34879.6 40859.9 L 34764.8 40960 Z M 39295.2 39884.8 Q 38186.4 42224.9 37601.2 43455.5 Q 37118.9 44469.8 36870.4 44981.5 Q 36621.9 45492.5 36502.2 45715.8 Q 36361.5 45977.6 36241.1 46163.8 Q 36141.7 46371 36058.4 46422.1 Q 35975.1 46473.2 35811.3 46464.8 L 35151.9 46464.8 L 35151.9 46723.1 Q 35606.9 46758.8 35911.4 46966.7 Q 36150.8 47165.5 36191.4 47990.1 Q 36231.3 48814.7 36040.9 49948.7 Q 36134 50343.5 36354.5 50520.6 Q 36574.3 50697 36829.1 50694.2 Q 37373.7 50687.2 37703.4 50368 Q 38033.1 50048.8 38061.8 49504.2 Q 38067.4 48949.8 37958.2 48559.2 Q 37849 48169.3 37713.9 47864.1 Q 37519.3 47453.2 37474.5 47024.1 Q 37466.8 46739.2 37535.4 46378.7 Q 37603.3 46018.9 37703.4 45647.9 Q 37814 45240.5 38126.9 44250.7 Q 38287.2 43742.5 38474.1 43160.8 Q 38661.7 42578.4 38854.9 41983.4 Q 39230.8 40828.4 39524.1 39942.2 L 39295.2 39884.8 Z M 45861.2 38852.3 L 45861.2 41347.1 L 41344.8 41347.1 L 41344.8 38852.3 L 45861.2 38852.3 Z M 45861.2 41762.9 L 45861.2 42493.7 L 46133.5 42493.7 Q 46552.8 42480.4 46981.2 42345.3 Q 47408.9 42210.2 47452.3 42121.3 L 47452.3 39125.3 Q 47907.3 39017.5 48039.6 38823.6 L 46463.2 37619.6 L 45717.7 38451.2 L 41603.1 38451.2 L 39796.4 37791.8 L 39796.4 42651.9 Q 39827.2 44614.7 39581.5 46570.5 Q 39541.6 46854.7 39490.5 47135.4 Q 39174.1 49070.2 38162.6 50722.9 L 38320.1 50837.7 Q 39834.2 49629.5 40478.9 48101.4 Q 40985.7 46928.9 41160 45700.4 Q 41374.2 44101.6 41344.8 42637.2 L 41344.8 41762.9 L 45861.2 41762.9 Z M 47853.4 46723.1 L 47695.9 46723.1 Q 47511.1 47400.7 47348 47914.5 Q 47184.9 48428.3 47065.2 48643.9 Q 46960.9 48834.3 46706.8 48830.8 Q 46551.4 48851.1 46240.6 48855.3 Q 45929.8 48860.2 45516.8 48858.8 L 44154.6 48858.8 Q 43789.2 48861.6 43673 48783.9 Q 43556.8 48706.2 43567.3 48515.1 L 43567.3 46393.4 Q 44471 46143.5 45445.4 45735.4 Q 46419.1 45327.3 47322.8 44787.6 Q 47767.3 44956.3 47954.2 44758.9 L 46505.9 43311.3 Q 45829 44017.6 45063.2 44678.4 Q 44298.1 45339.2 43567.3 45862.8 L 43567.3 43253.9 Q 44022.3 43167.8 44025.8 42866.8 L 42047.6 42694.6 L 42047.6 48973.6 Q 42025.2 49805.9 42406 50108.3 Q 42786.8 50410.7 43839.6 50393.2 L 45373.3 50393.2 Q 47162.5 50392.5 47823.3 50140.5 Q 47833.8 50137 47844.3 50132.8 Q 48491.8 49877.3 48455.4 49375.4 Q 48461.7 49152.8 48344.8 48997.4 Q 48227.2 48842 47910.8 48716 L 47853.4 46723.1 Z M 59752.7 43096.4 L 56842.1 43096.4 L 56842.1 39254.1 L 61229 39254.1 Q 61541.2 39257.6 61616.1 39024.5 Q 61159.7 38631.8 60637.5 38225.8 Q 60454.1 38082.3 60295.2 37959.8 Q 59839.5 37611.9 59810.1 37590.9 L 58806.3 38838.3 L 50362.2 38838.3 L 50477 39254.1 L 55064.8 39254.1 L 55064.8 43096.4 L 49200.9 43096.4 L 49330.4 43511.5 L 55064.8 43511.5 L 55064.8 48557.8 Q 55085.8 48866.5 54720.4 48873.5 Q 54475.4 48870.7 53893 48837.8 Q 53387.6 48809.1 52938.2 48780.4 Q 52420.2 48746.8 52383.8 48744.7 L 52383.8 48930.9 Q 53058.6 49038 53415.6 49190.6 Q 53773.3 49343.2 53974.9 49547.6 Q 54365.5 49959.2 54390.7 50823 Q 55813.1 50707.5 56317.8 50212.6 Q 56424.2 50116.7 56504.7 50008.2 Q 56877.8 49450.3 56842.1 48629.9 L 56842.1 43511.5 L 62218.1 43511.5 Q 62554.8 43515.7 62633.9 43282.6 Q 62160 42880.8 61628.7 42467.8 Q 61439.7 42320.1 61276.6 42194.8 Q 60814.6 41841.3 60784.5 41820.3 L 59752.7 43096.4 Z M 69988.1 46608.3 L 63709.1 46608.3 L 63823.9 47024.1 L 72052.4 47024.1 Q 72371.6 47027.6 72454.2 46794.5 Q 72027.2 46393.4 71556.1 45990.9 Q 71436.4 45888.7 71330 45798.4 Q 70905.8 45440.7 70877.1 45418.3 L 69988.1 46608.3 Z M 72927.4 44128.2 L 67923.8 44128.2 Q 68103 43279.1 68282.2 42236.1 L 74518.5 42236.1 Q 74841.2 42239.6 74905.6 42006.5 Q 74492.6 41620.1 74018.7 41223.9 Q 73885.7 41112.6 73768.1 41014.6 Q 73343.9 40666 73314.5 40644.3 L 72439.5 41820.3 L 68354.3 41820.3 Q 68443.2 41306.5 68517.4 40860.6 Q 68568.5 40555.4 68611.9 40300.6 Q 68877.2 40306.2 69004.6 40212.4 Q 69132 40119.3 69171.2 39984.9 L 67078.2 39483.7 Q 67029.2 40105.3 66865.4 41123.1 Q 66780.7 41650.9 66681.3 42197.6 Q 66488.8 43250.4 66304 44042.1 Q 65970.8 44185.6 65744.7 44371.8 L 67293.1 45360.9 L 67952.5 44544 L 73056.2 44544 Q 72902.9 46359.1 72639 47520.4 Q 72375.1 48682.4 72038.4 48959.6 Q 71914.5 49054.1 71791.3 49087 Q 71667.4 49119.2 71479.1 49117.1 Q 71201.9 49113.6 70557.9 49068.8 L 70497.7 49064.6 Q 69846.7 49019.1 69286 48973.6 L 69271.3 49174.5 Q 69795.6 49262 70208.6 49414.6 Q 70622.3 49567.2 70834.4 49762.5 Q 71174.6 50141.9 71149.4 50866.4 Q 71810.2 50867.8 72291.1 50732 Q 72772 50596.2 73142.3 50307.1 Q 74335.8 49350.2 74690.7 44802.3 Q 75124 44744.9 75278 44558 L 73787.7 43296.6 L 72927.4 44128.2 Z M 75378.8 37734.4 L 74475.8 38652.1 L 65802.1 38652.1 Q 65690.8 38229.3 65472.4 37763.1 L 65286.2 37777.1 Q 65340.1 38423.9 65047.5 38944 Q 64755.6 39464.1 64368.5 39712.6 Q 64002.4 39886.9 63811.3 40200.5 Q 63620.2 40514.1 63737.8 40946 Q 63931.7 41397.5 64359.4 41504.6 Q 64787.8 41612.4 65186.1 41375.8 Q 65596.3 41113.3 65813.3 40522.5 Q 66029.6 39932.4 65902.9 39067.9 L 74589.9 39067.9 Q 74522.7 39567 74419.8 40124.9 Q 74317.6 40682.8 74217.5 41117.5 L 74346.3 41218.3 Q 74869.2 40857.1 75437.6 40359.4 Q 76006 39861.7 76410.6 39426.3 Q 76642.3 39417.2 76765.5 39375.9 Q 76889.4 39334.6 76969.9 39239.4 L 75378.8 37734.4 Z M 83206.2 37490.8 Q 83622 37857.6 83885.2 38399.4 Q 84148.4 38941.2 84166.6 39512.4 Q 84814.1 39944.3 85323 39722.4 Q 85831.9 39501.2 85941.8 38975.5 Q 85946.7 38947.5 85949.5 38919.5 Q 86029.3 38387.5 85433.6 37921.3 Q 84837.9 37455.1 83306.3 37404.7 L 83206.2 37490.8 Z M 88338.6 45891.5 L 85671.6 45891.5 Q 85955.1 44945.8 86037.7 43841.2 Q 86120.3 42737.3 86137.8 41482.9 Q 86141.3 41337.3 86144.8 41189.6 Q 86629.2 41096.5 86661.4 40787.8 L 84310.1 40572.9 Q 84310.1 40815.8 84310.8 41052.4 Q 84326.2 42455.9 84259.7 43663.4 Q 84193.2 44870.9 83879.6 45891.5 L 78260 45891.5 L 78374.8 46293.3 L 83736.8 46293.3 Q 83244.7 47631.7 81876.2 48701.3 Q 80508.4 49771.6 77844.2 50636.8 L 77916.3 50851.7 Q 80935.4 50229.4 82611.2 49341.1 Q 84287 48452.8 85026.9 47282.4 Q 86513 48117.5 87553.2 49038 Q 88594.1 49959.2 89026.7 50622.8 Q 89674.9 50929.4 90085.8 50603.2 Q 90497.4 50276.3 90350.4 49613.4 Q 90324.5 49517.5 90281.8 49418.1 Q 90024.2 48730 88840.5 48046.8 Q 87656.8 47363.6 85227.8 46981.4 Q 85278.2 46866.6 85331.4 46751.8 Q 85439.2 46522.2 85528.8 46293.3 L 90661.2 46293.3 Q 90997.9 46296.8 91076.3 46063.7 Q 90632.5 45661.9 90125 45234.2 Q 89941.6 45079.5 89783.4 44947.2 Q 89341.7 44580.4 89313 44558 L 88338.6 45891.5 Z M 79808.4 43153.1 Q 80277.4 43576.6 80706.5 44171.6 Q 81134.9 44765.9 81314.1 45360.9 Q 81958.1 45712.3 82391.4 45431.6 Q 82800.9 45168.4 82799.5 44649.7 Q 82797.4 44131 82169.5 43661.3 Q 81509.4 43163.6 79909.2 43067.7 L 79808.4 43153.1 Z M 80898.3 40888.6 Q 81312.7 41268.7 81701.2 41818.2 Q 82089 42368.4 82245.8 42909.5 Q 82868.8 43237.8 83284.6 42960.6 Q 83653.5 42717.7 83661.2 42257.1 Q 83668.9 41797.2 83131.3 41372.3 Q 82534.9 40891.4 81012.4 40787.8 L 80898.3 40888.6 Z M 89743.5 38909.7 L 88854.5 39813.4 L 80095.4 39813.4 Q 80019.8 39404.6 79837.1 38953.1 L 79664.9 38953.1 Q 79662.8 39478.8 79319.1 39903 Q 78975.4 40326.5 78575.7 40530.2 Q 78188.6 40703.1 77984.2 41020.9 Q 77779.8 41338.7 77887.6 41791.6 Q 78057 42266.2 78520.4 42399.2 Q 78983.1 42532.2 79378.6 42307.5 Q 79786.7 42077.2 80014.9 41540.3 Q 80242.4 41004.1 80166.8 40214.5 L 88969.3 40214.5 Q 88914 40668.1 88824.4 41164.4 Q 88734.1 41660.7 88624.9 42049.2 L 88754.4 42135.3 Q 89275.9 41831.5 89827.5 41395.4 Q 90379.1 40959.3 90761.3 40558.9 Q 90983.2 40550.5 91110.6 40515.5 Q 91238 40480.5 91320.6 40386.7 L 89743.5 38909.7 Z M 92725.5 52744.5 Q 93997.4 52141.1 94549 51138.7 Q 94571.4 51100.9 94592.4 51063.1 Q 95119.5 50053 95104.8 49059.7 Q 95092.2 48312.8 94725.4 47907.5 Q 94357.9 47502.2 93786 47497.3 Q 93220.4 47512.7 92897 47853.6 Q 92573.6 48194.5 92567.3 48672.6 Q 92601.6 49336.9 93075.5 49668.7 Q 93132.9 49713.5 93193.8 49754.1 Q 93695 50053.7 94173.1 50192.3 Q 94111.5 50701.2 93732.1 51274.5 Q 93353.4 51848.5 92495.9 52314 L 92725.5 52744.5 Z M 116752.3 39856.1 L 116752.3 42063.9 L 113311.8 42063.9 L 113311.8 39856.1 L 116752.3 39856.1 Z M 117196.8 44558 L 117196.8 47024.1 L 113311.8 47024.1 L 113311.8 44558 L 117196.8 44558 Z M 113311.8 47425.2 L 117196.8 47425.2 L 117196.8 48256.8 L 117483.8 48256.8 Q 117909.4 48242.8 118353.9 48104.9 Q 118365.1 48101.4 118377 48097.9 Q 118815.9 47958.6 118860 47869.7 L 118860 44831 Q 119293.3 44712.7 119447.3 44530 L 117813.5 43311.3 L 117053.3 44142.9 L 113311.8 44142.9 L 113311.8 42465 L 116752.3 42465 L 116752.3 43124.4 L 117039.3 43124.4 Q 117449.5 43110.4 117894 42976.7 Q 117915.7 42970.4 117936.7 42964.1 Q 118371.4 42829 118415.5 42752 L 118415.5 40143.1 Q 118860 40017.1 119002.8 39827.4 L 117383 38608.7 L 116608.8 39455 L 114659.3 39455 Q 114904.3 39209.3 115189.9 38913.2 Q 115475.5 38617.1 115735.2 38346.2 Q 115866.8 38208.3 115978.1 38092.8 Q 116469.5 38038.9 116551.4 37705.7 L 114028.6 37333.3 Q 113984.5 37823.3 113926.4 38404.3 Q 113868.3 38986 113813.7 39455 L 113397.9 39455 L 111677.3 38738.2 L 111677.3 48572.5 L 111935.6 48572.5 Q 112492.1 48553.6 112892.5 48357.6 Q 113292.9 48160.9 113311.8 48013.2 L 113311.8 47425.2 Z M 107204.3 37763.1 Q 107674 38393.8 108111.5 39218.4 Q 108548.3 40042.3 108738.7 40845.2 Q 109377.8 41258.2 109815.3 40967.7 Q 110207.3 40709.4 110213.6 40134 Q 110219.2 39558.6 109629.8 38910.4 Q 108981.6 38188 107333.8 37691.7 L 107204.3 37763.1 Z M 109957.4 43139.1 Q 110559.4 43024.3 110688.2 42823.4 L 108996.3 41461.9 L 108222.8 42508.4 L 106588.3 42508.4 L 106659.7 42909.5 L 108437.7 42909.5 L 108437.7 47783.6 Q 108058.3 48018.8 107638.3 48293.9 Q 106983.8 48725.8 106430.8 49045.7 L 107577.4 50765.6 Q 107760.1 50655 107706.2 50435.9 Q 107937.2 50051.6 108210.2 49628.1 Q 108483.9 49203.9 108738 48818.2 Q 109057.2 48334.5 109240.6 48041.9 Q 109469.5 47633.1 109741.8 48041.9 Q 110499.9 49238.9 111550.6 49831.1 Q 111763.4 49948.7 111997.2 50045.3 Q 113156.4 50529.7 115117.8 50522 L 118974.8 50522 Q 119028.7 49986.5 119305.9 49600.8 Q 119583.1 49215.8 120078 49088.4 L 120078 48916.2 Q 118902.7 48988.3 117845.7 49004.4 Q 116788 49019.8 115634.4 49017 Q 113432.2 49044.3 112109.9 48723.7 Q 112107.8 48723 112105 48722.3 Q 110784.1 48400.3 109957.4 47526 L 109957.4 43139.1 Z M 129024 38050.1 Q 129458.7 38386.8 129853.5 38906.2 Q 130248.3 39426.3 130414.9 39956.2 Q 131042.1 40243.9 131434.1 39940.8 Q 131779.9 39676.9 131765.9 39221.9 Q 131751.2 38766.9 131214.3 38383.3 Q 130615.1 37946.5 129138.8 37949.3 L 129024 38050.1 Z M 131418 41433.2 Q 131136.6 42069.5 130652.9 42918.6 Q 130169.2 43767.7 129640.7 44544 Q 128870 43450.6 128422 41906.4 L 128422 40902.6 L 133783.3 40902.6 Q 134113 40906.1 134185.1 40673 Q 133746.9 40281.7 133248.5 39886.2 Q 133098 39765.8 132965.7 39662.2 Q 132523.3 39317.8 132493.2 39296.8 L 131561.5 40486.8 L 128422 40486.8 L 128422 38050.1 Q 128685.9 38006.7 128796.5 37910.1 Q 128907.1 37813.5 128923.9 37663 L 126687.4 37433.4 L 126687.4 40486.8 L 121125.2 40486.8 L 121239.3 40902.6 L 126687.4 40902.6 L 126687.4 45059.9 Q 124985.7 45881.7 123547.9 46528.5 Q 123477.2 46560 123407.9 46591.5 Q 121993.9 47225 121268 47511.3 L 122586.8 49318 Q 122827.6 49171 122873.8 48873.5 Q 125393.1 46851.9 126687.4 45561.8 L 126687.4 48658.6 Q 126716.1 48952.6 126357.7 48944.9 Q 126134.4 48942.1 125594.7 48911.3 Q 125193.6 48887.5 124831.7 48864.4 Q 124343.8 48832.9 124307.4 48830.8 L 124307.4 49017 Q 124898.9 49124.1 125221.6 49274.6 Q 125543.6 49425.1 125727 49619 Q 126077.7 50006.1 126128.1 50823 Q 127492.4 50704 127955.1 50262.3 Q 128037.7 50189.5 128102.1 50107.6 Q 128458.4 49611.3 128422 48787.4 L 128422 42780.7 Q 128962.4 45258 129931.9 46778.4 Q 130066.3 46993.3 130209.8 47194.9 Q 131241.6 48616.6 132736.8 49575.6 Q 132892.2 48954 133266 48525.6 Q 133639.1 48097.2 134170.4 47970.5 L 134213.8 47812.3 Q 133046.9 47407.7 131912.9 46712.6 Q 130778.2 46016.8 129869.6 44859.7 Q 130719.4 44396.3 131504.1 43872 Q 132288.8 43347.7 132880.3 42895.5 Q 133346.5 42938.2 133424.9 42723.3 L 131418 41433.2 Z M 122558.8 41719.5 Q 123069.8 42306.1 123490.5 43094.3 Q 123910.5 43882.5 124035.1 44672.8 Q 124678.4 45116.6 125140.4 44849.9 Q 125582.8 44595.8 125608.7 43992.4 Q 125633.9 43388.3 124998.3 42731.7 Q 124337.5 42045.7 122687.6 41634.1 L 122558.8 41719.5 Z M 144550 37117.7 Q 143351.6 37651.8 142860.2 38531.7 Q 142368.8 39412.3 142384.9 40300.6 Q 142395.4 40990.8 142720.2 41347.1 Q 143045 41703.4 143560.9 41705.5 Q 144053.7 41697.1 144361.7 41415 Q 144669.7 41132.9 144678.8 40673 Q 144654.3 40037.4 144229.4 39721.7 Q 143803.8 39406 143273.9 39296.8 Q 143313.8 38923 143684.1 38428.1 Q 144055.1 37933.2 144793.6 37548.2 L 144550 37117.7 Z M 147760.9 37117.7 Q 146573 37651.8 146083.7 38531.7 Q 145594.4 39412.3 145610.5 40300.6 Q 145621 40990.8 145945.8 41347.1 Q 146270.6 41703.4 146786.5 41705.5 Q 147279.3 41697.1 147587.3 41415 Q 147895.3 41132.9 147904.4 40673 Q 147877.8 40037.4 147450.8 39721.7 Q 147024.5 39406 146514.2 39296.8 Q 146543.6 38923 146911.8 38428.1 Q 147280 37933.2 148019.2 37548.2 L 147760.9 37117.7 Z M 162512.7 43540.2 Q 162850.1 43544.4 162928.5 43311.3 Q 162471.4 42908.8 161949.2 42499.3 Q 161766.5 42355.8 161609 42234 Q 161152.6 41884 161122.5 41863 L 160118.7 43124.4 L 156807 43124.4 Q 156957.5 41408 156979.2 39368.9 L 161652.4 39368.9 Q 161978.6 39372.4 162068.2 39139.3 Q 161600.6 38743.8 161077.7 38335.7 Q 160901.3 38197.1 160748 38078.8 Q 160291.6 37726.7 160262.2 37705.7 L 159273.1 38953.1 L 150742.9 38953.1 L 150857.7 39368.9 L 155072.4 39368.9 Q 155097.6 41397.5 154972.3 43124.4 L 149911.3 43124.4 L 150026.1 43540.2 L 154928.9 43540.2 Q 154749 45351.1 153927.2 46875.7 Q 153600.3 47462.3 153134.1 48009.7 Q 151951.1 49434.2 149524.2 50622.8 L 149639 50837.7 Q 152545.4 49903.2 154075.6 48632.7 Q 154898.1 47960.7 155429.4 47191.4 Q 156408 45738.2 156678.2 43927.3 Q 156935.1 45426 157688.3 46978.6 Q 158041.1 47677.2 158540.2 48336.6 Q 159614 49803.1 161595.7 50837.7 Q 161693 50133.5 162064.7 49760.4 Q 162436.4 49387.3 163072 49274.6 L 163086 49103.1 Q 160262.2 48167.2 158808.3 46767.2 Q 158699.8 46666.4 158597.6 46563.5 Q 157229.8 45139.7 156864.4 43540.2 L 162512.7 43540.2 Z M 169021.3 37605.6 Q 169020.6 37800.2 169020.6 37994.8 Q 169052.1 40024.8 168868 42033.8 Q 168736.4 43321.1 168370.3 44576.2 Q 168003.5 45831.3 167288.8 47036.7 Q 166196.1 48918.3 163903.6 50622.8 L 164061.1 50823 Q 166765.9 49501.4 168178.5 47866.9 Q 169526 46312.9 170073.4 44586 Q 170645.3 42770.9 170741.9 40888.6 Q 170936.5 43839.1 171744.3 46094.5 Q 172020.1 46834.4 172393.2 47494.5 Q 173497.1 49509.1 175788.2 50751.6 Q 176078 49332 177379.3 49074.4 L 177408 48902.2 Q 174626.9 47873.9 173198.2 46115.5 Q 172312 45037.5 171803.8 43655 Q 170993.9 41397.5 170856.7 38236.3 Q 171131.8 38202.7 171250.8 38099.8 Q 171369.8 37996.9 171386.6 37834.5 L 169021.3 37605.6 Z M 182368.2 49217.2 L 182368.2 45862.8 L 187586.7 45862.8 L 187586.7 49217.2 L 182368.2 49217.2 Z M 187443.2 45447 L 182483 45447 L 180604.9 44701.5 L 180604.9 50823 L 180863.2 50823 Q 181437.2 50804.1 181890.1 50610.2 Q 182343 50415.6 182368.2 50278.4 L 182368.2 49633 L 187586.7 49633 L 187586.7 50679.5 L 187887.7 50679.5 Q 188348.3 50665.5 188820.8 50524.8 Q 188848.1 50517.1 188875.4 50508.7 Q 189334.6 50365.9 189378.7 50278.4 L 189378.7 46163.8 Q 189830.2 46049 189980.7 45848.8 L 188260.1 44530 L 187443.2 45447 Z M 185722.6 42924.2 L 181608.7 42924.2 L 181722.8 43340 L 187973.8 43340 Q 188303.5 43343.5 188374.9 43110.4 Q 187929 42709.3 187429.2 42301.9 Q 187275.2 42175.9 187140.8 42067.4 Q 186698.4 41712.5 186669 41690.8 L 185722.6 42924.2 Z M 183859.2 37318.6 Q 183509.9 38458.2 182532 39772.1 Q 181774.6 40792 180796.7 41745.4 Q 179536.7 42974.6 178182.2 43813.2 L 178268.3 43984.7 Q 180084.8 43277.7 181757.8 42107.3 Q 182445.9 41626.4 183066.8 41096.5 Q 184576.7 39810.6 185450.3 38437.2 Q 186130 40124.9 187441.1 41372.3 Q 188752.9 42619.7 190410.5 43426.1 Q 190509.2 42934 190844.5 42490.2 Q 191179.8 42047.1 191730 41877.7 L 191744 41648.1 Q 190251.6 41258.2 188757.1 40584.1 Q 188357.4 40397.9 187978 40187.2 Q 186557.7 39421.4 185679.9 38265 Q 186019.4 38234.2 186181.8 38160.7 Q 186343.5 38087.2 186382 37949.3 L 183859.2 37318.6 Z M 192618.3 43511.5 L 192747.8 43970.7 L 205592.8 43970.7 Q 205965.2 43974.2 206037.3 43741.1 Q 205545.2 43279.1 204976.1 42772.3 Q 204673.7 42502.8 204426.6 42284.4 Q 203957.6 41872.1 203929.6 41849 L 202739.6 43511.5 L 192618.3 43511.5 Z M 210982.8 41705.5 Q 212181.2 41172.1 212672.6 40291.5 Q 213164 39411.6 213147.9 38522.6 Q 213137.4 37823.3 212812.6 37471.2 Q 212487.8 37118.4 211971.9 37117.7 Q 211479.1 37126.8 211171.1 37406.8 Q 210863.1 37686.8 210854 38135.5 Q 210878.5 38780.2 211303.4 39094.5 Q 211729 39408.8 212258.9 39526.4 Q 212219 39900.2 211848.7 40395.8 Q 211477.7 40890.7 210739.2 41275.7 L 210982.8 41705.5 Z M 207771.9 41705.5 Q 208959.8 41172.1 209449.1 40291.5 Q 209938.4 39411.6 209922.3 38522.6 Q 209911.8 37823.3 209587 37471.2 Q 209262.2 37118.4 208746.3 37117.7 Q 208253.5 37126.8 207945.5 37406.8 Q 207637.5 37686.8 207628.4 38135.5 Q 207655 38780.2 208082 39094.5 Q 208508.3 39408.8 209018.6 39526.4 Q 208989.2 39900.2 208621 40395.8 Q 208252.8 40890.7 207513.6 41275.7 L 207771.9 41705.5 Z M 223369.3 48300.2 L 223369.3 44530 L 225548.4 44530 L 225548.4 48300.2 L 223369.3 48300.2 Z M 225548.4 40558.9 L 225548.4 44114.2 L 223369.3 44114.2 L 223369.3 40558.9 L 225548.4 40558.9 Z M 226164.4 39282.8 L 225404.9 40143.1 L 224157.5 40143.1 Q 224511 39709.8 224885.5 39218.4 Q 225260 38726.3 225548.4 38336.4 Q 226046.8 38347.6 226136.4 37992.7 L 223813.8 37433.4 Q 223757.1 38055.7 223673.8 38793.5 Q 223590.5 39531.3 223512.8 40143.1 L 223426.7 40143.1 L 221820.9 39469 L 221820.9 50307.1 L 222079.2 50307.1 Q 222611.2 50290.3 222982.2 50104.8 Q 223353.2 49918.6 223369.3 49762.5 L 223369.3 48701.3 L 225548.4 48701.3 L 225548.4 49833.9 L 225792 49833.9 Q 226240.7 49815 226662.8 49640.7 Q 227084.9 49465.7 227125.5 49360.7 L 227125.5 40816.5 Q 227565.8 40719.9 227727.5 40515.5 L 226164.4 39282.8 Z M 233189.6 39168 L 232285.9 40099.7 L 230006.7 40099.7 Q 230451.2 39286.3 230809.6 38365.1 Q 231293.3 38361.6 231368.9 38078.8 L 229103.7 37418.7 Q 228811.8 39095.9 228291.7 40689.1 Q 227771.6 42283 227168.2 43411.4 L 227354.4 43526.2 Q 228738.3 42354.4 229777.1 40515.5 L 232444.1 40515.5 Q 232379.7 44192.6 232218 46280.7 Q 232057 48368.8 231669.9 48744.7 Q 231490.7 48934.4 231139.3 48930.9 Q 230831.3 48928.1 230232.8 48887.5 Q 229634.3 48847.6 229089 48802.1 L 229075 49002.3 Q 229607 49101 230001.1 49264.1 Q 230395.9 49427.2 230594.7 49633 Q 230934.9 49984.4 230909.7 50809 Q 231613.2 50811.8 232117.9 50626.3 Q 232621.9 50440.8 233002.7 50034.8 Q 233538.9 49481.1 233769.2 47575 Q 233807 47270.5 233839.9 46926.8 Q 234035.2 44771.5 234092.6 40787.8 Q 234569.3 40716.4 234723.3 40515.5 L 233189.6 39168 Z M 228272.1 43110.4 Q 228718 43718 229069.4 44508.3 Q 229421.5 45298.6 229490.8 46077.7 Q 230102.6 46544.6 230574.4 46300.3 Q 231016.1 46073.5 231078.4 45491.8 Q 231140.7 44910.8 230576.5 44241.6 Q 229979.4 43527.6 228386.9 43024.3 L 228272.1 43110.4 Z M 239898.4 42192.7 L 248643.5 42192.7 Q 248955.7 42196.2 249030.6 41963.8 Q 248620.4 41590 248171.7 41221.1 Q 248088.4 41151.8 248011.4 41088.8 Q 247597.7 40752.1 247568.3 40730.4 L 246765.4 41776.9 L 245203 41776.9 Q 245781.2 41319.8 246298.5 40867.6 Q 246563.8 40638 246780.1 40458.1 Q 247235.1 40483.3 247324.7 40229.2 L 245303.1 39512.4 Q 245192.5 40022 245037.8 40633.8 Q 244883.8 41245.6 244729.8 41776.9 L 239783.6 41776.9 L 239898.4 42192.7 Z M 241318 39727.3 Q 241596.6 40059.8 241805.2 40524.6 Q 242013.8 40989.4 242034.8 41461.9 Q 242590.6 41863.7 243042.8 41664.2 Q 243436.9 41494.1 243536.3 41094.4 Q 243636.4 40694.7 243242.3 40285.9 Q 242799.9 39816.9 241446.8 39641.2 L 241318 39727.3 Z M 240242.8 39497.7 L 248357.2 39497.7 Q 248658.2 39501.2 248743.6 39268.1 Q 248339.7 38899.2 247892.4 38519.1 Q 247793.7 38434.4 247704.1 38358.8 Q 247296 38015.1 247267.3 37992.7 L 246450.4 39096.6 L 244687.1 39096.6 Q 245115.5 38841.8 245114.8 38374.9 Q 245105.7 38078.8 244811 37809.3 Q 244374.9 37382.3 243037.9 37289.9 L 242923.8 37376 Q 243167.4 37666.5 243344.5 38094.9 Q 243521.6 38522.6 243539.8 38953.1 Q 243644.1 39035.7 243769.4 39096.6 L 240128 39096.6 L 240242.8 39497.7 Z M 240386.3 45447 Q 240235.1 45497.4 240084.6 45547.8 Q 239339.1 45801.9 238623 46020.3 L 238623 41533.3 L 240242.8 41533.3 Q 240536.8 41536.8 240615.2 41304.4 Q 240303.7 40915.2 239934.8 40514.8 Q 239870.4 40444.1 239810.9 40379.7 Q 239466.5 40010.1 239439.9 39984.9 L 238765.8 41117.5 L 238623 41117.5 L 238623 38192.9 Q 238916.3 38149.5 239027.6 38045.9 Q 239138.9 37943 239152.9 37791.8 L 237017.2 37605.6 L 237017.2 41117.5 L 235526.2 41117.5 L 235641 41533.3 L 237017.2 41533.3 L 237017.2 46522.2 Q 236020.4 46830.9 235497.5 46966.7 L 236530 48816.1 Q 236787.6 48704.8 236873.7 48400.3 Q 239360.8 46590.8 240429 45576.5 L 240386.3 45447 Z M 246234.8 43526.2 L 246234.8 44601.4 L 242235.7 44601.4 L 242235.7 43526.2 L 246234.8 43526.2 Z M 242235.7 46092.4 L 242235.7 45017.2 L 246234.8 45017.2 L 246234.8 46092.4 L 242235.7 46092.4 Z M 248528.7 47353.8 L 248371.2 47353.8 Q 248280.9 47626.1 248203.2 47867.6 Q 247969.4 48632.7 247826.6 48873.5 Q 247740.5 49045.7 247568.3 49045.7 L 246995 49045.7 L 246335.6 49045.7 Q 246147.3 49047.1 246088.5 48997.4 Q 246029 48947.7 246034.6 48830.8 L 246034.6 46680.4 L 246034.6 46508.2 L 246234.8 46508.2 L 246234.8 47066.8 L 246493.1 47066.8 Q 246891.4 47053.5 247308.6 46918.4 Q 247725.8 46783.3 247769.2 46694.4 L 247769.2 43741.1 Q 248163.3 43655 248299.8 43482.8 L 246794.1 42364.9 L 246092 43124.4 L 242321.1 43124.4 L 240629.9 42451 L 240629.9 47239 L 240844.8 47239 Q 241289.3 47229.2 241669.4 47095.5 Q 242048.8 46962.5 242192.3 46823.2 Q 242140.5 47660.4 241669.4 48454.2 Q 241447.5 48806.3 241080.7 49147.2 Q 240283.4 49917.2 238436.1 50622.8 L 238579.6 50823 Q 240910.6 50270 242052.3 49521 Q 242914 48965.9 243326.3 48328.2 Q 243865.3 47468.6 243970.3 46508.2 L 244500.2 46508.2 L 244500.2 49145.8 Q 244474.3 49843.7 244735.4 50117.4 Q 244996.5 50390.4 245862.4 50378.5 L 246822.8 50378.5 Q 248079.3 50379.2 248559.5 50172.7 Q 249039 49966.2 249016.6 49547.6 Q 249023.6 49346 248934 49203.2 Q 248844.4 49060.4 248572.1 48944.9 L 248528.7 47353.8 Z M 253474.9 40946 L 255811.5 40946 L 255811.5 42780.7 L 253474.9 42780.7 L 253474.9 40946 Z M 255811.5 38680.8 L 255811.5 40530.2 L 253474.9 40530.2 L 253474.9 38680.8 L 255811.5 38680.8 Z M 259826 38680.8 L 259826 40530.2 L 257460 40530.2 L 257460 38680.8 L 259826 38680.8 Z M 257460 42780.7 L 257460 40946 L 259826 40946 L 259826 42780.7 L 257460 42780.7 Z M 256141.2 43181.8 L 259826 43181.8 L 259826 43927.3 L 260112.3 43927.3 Q 260546.3 43913.3 260997.8 43767.7 L 261030 43757.9 Q 261473.1 43610.9 261517.2 43511.5 L 261517.2 38953.1 Q 261954.7 38845.3 262090.5 38652.1 L 260456.7 37404.7 L 259682.5 38265 L 253589.7 38265 L 251811.7 37562.2 L 251811.7 44114.2 L 252055.3 44114.2 Q 252595.7 44096 253023.4 43906.3 Q 253450.4 43715.9 253474.9 43568.9 L 253474.9 43181.8 L 255395.7 43181.8 Q 254675.4 44168.1 253288.7 45096.3 Q 253130.5 45202 252966 45305.6 Q 251525.4 46211.4 249818.8 46780.5 L 249862.2 46966.7 Q 250887.7 46802.2 251856.5 46527.8 Q 252826 46253.4 253689.8 45906.2 L 253689.8 47339.8 Q 253725.5 48182.6 253245.3 48968 Q 253095.5 49194.8 252878.5 49411.8 Q 252168 50160.8 250392.8 50722.9 L 250478.9 50880.4 Q 252751.1 50499.6 253811.6 49838.8 Q 254471.7 49440.5 254807 48975 Q 255334.1 48205 255324.3 47353.8 L 255324.3 46163.8 Q 255556 46130.9 255654 46038.5 Q 255751.3 45946.1 255768.8 45805.4 L 254249.1 45661.9 Q 255940.3 44905.9 256858 44128.2 Q 257811.4 45128.5 259280.7 45762.7 L 257890.5 45647.9 L 257890.5 50823 L 258191.5 50823 Q 258690.6 50811.1 259109.2 50678.1 Q 259527.1 50545.1 259553 50435.9 L 259553 46192.5 Q 259843.5 46146.3 259940.1 46035 Q 261101.4 46461.3 262477.6 46694.4 Q 262516.1 46234.5 262745 45791.4 Q 262973.9 45347.6 263452.7 45146 L 263452.7 44916.4 Q 261600.5 44968.9 259895.3 44730.2 Q 258190.8 44492.2 257058.9 43984.7 Q 257427.8 43953.2 257573.4 43875.5 Q 257719 43797.8 257732.3 43669.7 L 256141.2 43181.8 Z M 264757.5 52744.5 Q 266029.4 52141.1 266581 51138.7 Q 266603.4 51100.9 266624.4 51063.1 Q 267151.5 50053 267136.8 49059.7 Q 267124.2 48312.8 266757.4 47907.5 Q 266389.9 47502.2 265818 47497.3 Q 265252.4 47512.7 264929 47853.6 Q 264605.6 48194.5 264599.3 48672.6 Q 264633.6 49336.9 265107.5 49668.7 Q 265164.9 49713.5 265225.8 49754.1 Q 265727 50053.7 266205.1 50192.3 Q 266143.5 50701.2 265764.1 51274.5 Q 265385.4 51848.5 264527.9 52314 L 264757.5 52744.5 Z M 278663 39669.9 Q 279041 40319.5 279302.8 41133.6 Q 279565.3 41947.7 279566 42738 Q 280125.3 43233.6 280576.1 42994.9 Q 280966 42790.5 281052.1 42246.6 Q 281138.2 41702.7 280714.7 41025.8 Q 280237.3 40246 278806.5 39583.8 L 278663 39669.9 Z M 281200.5 37418.7 L 281200.5 44530 Q 280402.5 45062 279672.4 45474.3 Q 278941.6 45885.9 278434.1 46106.4 L 279552 48041.9 Q 279671.7 47962.1 279740.3 47823.5 Q 279808.9 47684.2 279810.3 47540 Q 280634.2 46447.3 281200.5 45504.4 L 281200.5 50809 L 281516.2 50809 Q 282004.8 50790.8 282421.3 50592 Q 282837.1 50393.2 282863.7 50235.7 L 282863.7 38050.1 Q 283146.5 38005.3 283257.8 37895.4 Q 283369.1 37786.2 283394.3 37634.3 L 281200.5 37418.7 Z M 283250.8 44773.6 Q 286144.6 44107.9 288060.5 42834.6 Q 289976.4 41561.3 291149.6 39798.7 Q 291680.2 39766.5 291823.7 39583.8 L 290246.6 38293.7 L 289415 39096.6 L 286691.3 39096.6 Q 286750.8 39022.4 286808.9 38949.6 Q 287178.5 38502.3 287479.5 38064.1 Q 287753.2 38073.9 287868.7 38013.7 Q 287983.5 37954.2 288010.1 37834.5 L 285702.2 37390 Q 285350.1 38481.3 284718.7 39646.8 Q 284648.7 39774.2 284577.3 39900.2 Q 283925.6 41048.9 283207.4 41834.3 L 283336.9 41963.8 Q 284193 41490.6 284985.4 40802.5 Q 285194 41074.8 285333.3 41389.8 Q 285471.9 41705.5 285487.3 42021.2 Q 286042.4 42381 286454 42152.8 Q 286741 42000.9 286838.3 41699.9 Q 286935.6 41399.6 286748.7 41077.6 Q 286496.7 40611.4 285458.6 40400.7 Q 285917.1 39967.4 286332.9 39512.4 L 289314.9 39512.4 Q 287322 42812.9 283136 44586.7 L 283250.8 44773.6 Z M 284440.8 45705.3 Q 284886 46161.7 285259.8 46803.6 Q 285632.9 47445.5 285744.9 48085.3 Q 286339.9 48462.6 286752.9 48192.4 Q 287111.3 47960 287130.2 47474.2 Q 287149.8 46987.7 286643.7 46480.2 Q 286073.9 45896.4 284569.6 45605.2 L 284440.8 45705.3 Z M 290017 44931.1 L 289931.6 44931.1 L 289931.6 43411.4 Q 290390.1 43332.3 290418.8 43039 L 288311.1 42838.1 L 288311.1 44931.1 L 283250.8 44931.1 L 283365.6 45346.9 L 288311.1 45346.9 L 288311.1 48844.8 Q 288339.8 49120.6 287981.4 49117.1 Q 287769.3 49114.3 287225.4 49080 Q 286794.2 49052.7 286403.6 49025.4 Q 285910.1 48991.1 285874.4 48988.3 L 285874.4 49189.2 Q 286486.2 49284.4 286813.1 49418.1 Q 287140 49551.8 287322 49733.8 Q 287662.9 50109.7 287723.8 50851.7 Q 289055.2 50731.3 289496.9 50298.7 Q 289555.7 50245.5 289604.7 50187.4 Q 289967.3 49715.6 289931.6 48916.2 L 289931.6 45346.9 L 291694.9 45346.9 Q 291992.4 45350.4 292053.3 45117.3 Q 291742.5 44725.3 291347 44310.9 Q 291244.1 44202.4 291151 44105.8 Q 290789.8 43736.2 290762.5 43712.4 L 290017 44931.1 Z M 296797.9 49274.6 L 296797.9 46508.2 L 302618.4 46508.2 L 302618.4 49274.6 L 296797.9 49274.6 Z M 302618.4 43397.4 L 302618.4 46106.4 L 296797.9 46106.4 L 296797.9 43397.4 L 302618.4 43397.4 Z M 302618.4 40372 L 302618.4 42981.6 L 296797.9 42981.6 L 296797.9 40372 L 302618.4 40372 Z M 303335.2 38995.8 L 302475.6 39956.2 L 298819.5 39956.2 Q 299331.2 39516.6 299794.6 39028 Q 300258 38540.1 300597.5 38121.5 Q 301088.2 38085.8 301127.4 37791.8 L 298561.2 37376 Q 298517.1 37952.8 298426.8 38650 Q 298337.2 39347.9 298217.5 39956.2 L 296927.4 39956.2 L 295049.3 39196.7 L 295049.3 50794.3 L 295335.6 50794.3 Q 295925.7 50775.4 296352 50559.8 Q 296778.3 50344.2 296797.9 50163.6 L 296797.9 49676.4 L 302618.4 49676.4 L 302618.4 50751.6 L 302905.4 50751.6 Q 303415 50731.3 303881.2 50538.1 Q 303888.9 50534.6 303897.3 50531.1 Q 304359.3 50337.2 304410.4 50221 L 304410.4 40673 Q 304880.1 40569.4 305027.1 40358 L 303335.2 38995.8 Z M 309715 47167.6 Q 309600.9 47950.2 309084.3 48488.5 Q 308567 49026.1 307980.4 49217.2 Q 307646.5 49381 307465.9 49660.3 Q 307285.3 49939.6 307392.4 50307.1 Q 307542.9 50705.4 307953.1 50799.9 Q 308364 50894.4 308783.3 50679.5 Q 309421 50386.2 309821.4 49551.1 Q 309848 49490.9 309872.5 49427.2 Q 310238.6 48554.3 309901.2 47181.6 L 309715 47167.6 Z M 311593.1 47382.5 Q 311761.1 48020.2 311833.2 48800 Q 311904.6 49579.8 311794 50335.8 Q 312281.2 50873.4 312748.8 50675.3 Q 313115.6 50522.7 313273.8 50056.5 Q 313432 49589.6 313206.6 48951.9 Q 312936.4 48147.6 311765.3 47325.1 L 311593.1 47382.5 Z M 314230.7 47296.4 Q 314612.2 47936.9 314930 48746.1 Q 315247.1 49556 315305.9 50335.8 Q 315878.5 50793.6 316317.4 50534.6 Q 316693.3 50316.2 316755.6 49780 Q 316818.6 49243.8 316370.6 48594.2 Q 315860.3 47838.2 314388.2 47225 L 314230.7 47296.4 Z M 316969.1 47282.4 Q 317586.5 47947.4 318198.3 48835.7 Q 318810.1 49724 319104.8 50594.1 Q 319759.3 50965.8 320161.8 50634.7 Q 320523.7 50338.6 320457.9 49726.8 Q 320392.1 49114.3 319689.3 48438.1 Q 318920 47688.4 317112.6 47181.6 L 316969.1 47282.4 Z M 320266.1 41590.7 Q 320585.3 41594.2 320667.9 41361.1 Q 320384.4 41107 320054.7 40824.9 Q 319725 40542.8 319473.7 40330.7 Q 319386.2 40256.5 319320.4 40200.5 Q 319639.6 39859.6 319448.5 39356.3 Q 319377.1 39196.7 319228 39043.4 Q 318801 38556.9 317471 38336.4 L 317341.5 38422.5 Q 317632 38756.4 317858.1 39235.9 Q 318083.5 39715.4 318115.7 40200.5 Q 318517.5 40486.8 318875.9 40429.4 L 318301.9 41189.6 L 316883 41189.6 Q 316998.5 40022.7 317016 38693.4 Q 317020.9 38510 317026.5 38322.4 Q 317495.5 38246.8 317513.7 37935.3 L 315463.4 37748.4 Q 315463.4 37961.2 315464.1 38169.1 Q 315488.6 39803.6 315378 41189.6 L 313843.6 41189.6 Q 314051.5 40633.8 314216.7 40057 Q 314469.4 40027.6 314601.7 39980 Q 314734 39931.7 314804 39827.4 L 313327.7 38522.6 L 312482.1 39382.9 L 310933.7 39382.9 Q 311187.8 38845.3 311420.9 38265 Q 311911.6 38282.5 311994.2 37978 L 309858.5 37333.3 Q 309486.8 39170.8 308763.7 40764.7 Q 308039.9 42357.9 307162.8 43454.8 L 307335 43583.6 Q 308044.8 43124.4 308668.5 42537.1 Q 308978.6 42858.4 309234.8 43293.1 Q 309491 43727.8 309586.2 44156.9 Q 310114 44467.7 310477.3 44209.4 Q 310739.8 44026.7 310777.6 43692.8 Q 310815.4 43358.9 310516.5 43013.8 Q 310124.5 42537.1 308883.4 42336.2 Q 309467.9 41734.2 309987.3 41002.7 Q 310251.9 41275.7 310467.5 41599.8 Q 310683.8 41923.9 310775.5 42250.1 Q 311322.2 42515.4 311661 42236.8 Q 311882.2 42059.7 311913.7 41772 Q 311945.2 41483.6 311709.3 41195.9 Q 311372.6 40754.9 310245.6 40615.6 Q 310499.7 40221.5 310732.8 39784.7 L 310732.8 39784.7 L 312553.5 39784.7 Q 312043.9 42146.5 310730.7 44175.1 Q 309418.2 46203.7 307220.2 47554.7 L 307349.7 47726.9 Q 309939 46716.1 311474.8 45059.9 Q 313010.6 43404.4 313772.2 41361.1 L 313843.6 41590.7 L 315334.6 41590.7 Q 315169.4 43140.5 314360.9 44397.7 Q 314248.9 44565 314121.5 44727.4 Q 313195.4 45948.9 311133.9 46924 L 311277.4 47138.9 Q 313728.1 46352.1 314935.6 45278.3 Q 315371 44900.3 315689.5 44487.3 Q 316563.1 43312 316782.9 41849 Q 316999.9 43860.1 317564.8 45092.1 Q 317594.2 45155.1 317624.3 45217.4 Q 318211.6 46420.7 319320.4 47267.7 Q 319728.5 45959.4 320782 45705.3 L 320796.7 45547.8 Q 319434.5 45080.9 318427.9 44176.5 Q 317420.6 43272.1 316983.1 41590.7 L 320266.1 41590.7 Z M 332308.2 40716.4 L 332308.2 49059.7 L 329126 49059.7 L 329126 38279 Q 329410.2 38235.6 329525.7 38132 Q 329640.5 38029.1 329656.6 37877.9 L 327334 37648.3 L 327334 49059.7 L 324223.2 49059.7 L 324223.2 41347.1 Q 324724.4 41264.5 324753.1 40946 L 322445.2 40716.4 L 322445.2 48858.8 Q 322119 49074.4 321900.6 49332 L 323750 50249.7 L 324309.3 49475.5 L 332308.2 49475.5 L 332308.2 50851.7 L 332623.9 50851.7 Q 333167.1 50833.5 333613 50645.9 Q 334059.6 50458.3 334086.2 50321.1 L 334086.2 41332.4 Q 334370.4 41289 334485.9 41186.1 Q 334600.7 41082.5 334616.8 40931.3 L 332308.2 40716.4 Z M 340207.7 40701.7 L 339347.4 41590.7 L 336107.8 41590.7 L 336236.6 42006.5 L 339447.5 42006.5 Q 339112.9 44071.5 338220.4 46000 Q 338218.3 46004.2 338216.2 46009.1 Q 337322.3 47936.9 335763.4 49303.3 L 335892.2 49461.5 Q 338085.3 48290.4 339297.7 46546 Q 339475.5 46298.9 339635.8 46043.4 Q 340730.6 44243.7 341168.1 42250.1 Q 341609.1 42221.4 341727.4 42021.2 L 340207.7 40701.7 Z M 347146.1 39827.4 Q 346775.1 40544.9 346137.4 41526.3 Q 345499.7 42507.7 344794.8 43397.4 Q 343920.5 41805.6 343476 39483.7 L 343476 38006.7 Q 343749 37964 343858.2 37866.7 Q 343966.7 37770.1 343992.6 37619.6 L 341756.1 37390 L 341756.1 48643.9 Q 341777.1 48920.4 341411.7 48916.2 Q 341183.5 48914.1 340632.6 48882.6 Q 340205.6 48858.8 339822 48835 Q 339326.4 48804.2 339290 48802.1 L 339290 49002.3 Q 339901.8 49108.7 340230.8 49255 Q 340560.5 49402 340752.3 49604.3 Q 341093.2 49999.1 341154.1 50823 Q 342528.2 50706.1 342998.6 50265.1 Q 343088.9 50186 343158.9 50096.4 Q 343512.4 49596.6 343476 48758.7 L 343476 40501.5 Q 343928.9 43493.3 344810.9 45411.3 Q 345095.8 46039.2 345425.5 46585.9 Q 346448.9 48250.5 347920.3 49418.1 Q 348096.7 48818.2 348474 48410.8 Q 348852 48004.1 349382.6 47898.4 L 349454 47740.9 Q 348225.5 47162.7 347069.1 46205.1 Q 345912.7 45247.5 344995.7 43755.8 Q 346020.5 43160.8 346950.8 42490.2 Q 347881.1 41820.3 348551 41247 Q 348804.4 41286.9 348934.6 41235.8 Q 349064.8 41184.7 349124.3 41074.8 L 347146.1 39827.4 Z M 357037.8 45963.6 L 350329 45963.6 L 350443.8 46378.7 L 359289 46378.7 Q 359618.7 46382.9 359690.1 46149.8 Q 359243.5 45757.8 358743 45357.4 Q 358590.4 45234.9 358457.4 45129.2 Q 358013.6 44780.6 357984.2 44758.9 L 357037.8 45963.6 Z M 360607.8 40114.4 L 354729.9 40114.4 Q 354909.1 38941.9 355002.2 38135.5 Q 355266.8 38140.4 355394.9 38041 Q 355522.3 37940.9 355561.5 37805.8 L 353353.7 37362 Q 353309.6 38052.2 353161.9 39185.5 Q 353056.2 39997.5 352922.5 40846.6 Q 352737 42030.3 352550.8 42909.5 L 352550.8 42909.5 Q 352253.3 43081.7 352063.6 43253.9 L 353669.4 44185.6 L 354285.4 43426.1 L 360507.7 43426.1 Q 360322.2 45584.9 360002.3 47024.1 Q 359682.4 48463.3 359260.3 48816.1 Q 359136.4 48921.8 359002 48963.1 Q 358867.6 49004.4 358658.3 49002.3 Q 358346.1 48998.8 357648.2 48948.4 Q 357579.6 48943.5 357509.6 48938.6 Q 356797 48885.4 356178.2 48830.8 L 356163.5 49017 Q 356743.8 49126.2 357208.6 49299.8 Q 357672.7 49474.1 357898.1 49690.4 Q 358099.7 49877.3 358179.5 50181.8 Q 358260 50486.3 358256.5 50866.4 Q 359011.8 50869.2 359538.2 50715.9 Q 360064.6 50562.6 360464.3 50221 Q 361160.1 49671.5 361594.8 48011.8 Q 362030.2 46351.4 362242.3 43727.1 Q 362714.8 43662 362887 43468.8 L 361309.9 42121.3 L 360378.2 43024.3 L 354256.7 43024.3 Q 354342.8 42552.5 354435.9 41990.4 Q 354528.3 41428.3 354624.2 40832.6 Q 354648 40681.4 354672.5 40530.2 L 362944.4 40530.2 Q 363281.1 40533.7 363360.2 40300.6 Q 362896.1 39902.3 362376.7 39505.4 Q 362213.6 39380.1 362071.5 39273 Q 361613 38930 361582.9 38909.7 L 360607.8 40114.4 Z M 366327.5 41719.5 Q 366326.8 43172 365912.4 44345.9 Q 365903.3 44373.9 365893.5 44401.2 Q 365472.1 45563.9 364908.6 46092.4 Q 364634.2 46400.4 364585.9 46753.2 Q 364537.6 47106.7 364779.8 47425.2 Q 365135.4 47761.2 365634.5 47683.5 Q 366132.9 47605.8 366499.7 47081.5 Q 367031.7 46373.8 367159.8 45063.4 Q 367163.3 45011.6 367165.4 44959.8 Q 367269 43626.3 366514.4 41705.5 L 366327.5 41719.5 Z M 374886.4 42021.2 L 374757.6 42135.3 Q 375529 43226.6 375893.7 44518.8 Q 375968.6 44768.7 376030.2 45016.5 Q 376329.8 46298.9 376377.4 47282.4 Q 376893.3 47901.2 377405 47678.6 Q 377916 47456 378074.2 46655.2 Q 378099.4 46504.7 378103.6 46338.8 Q 378154 45456.8 377436.5 44311.6 Q 376719 43166.4 374886.4 42021.2  Z M 368148.2 39984.9 L 368148.2 48515.1 Q 368130 49523.1 368641 49869.6 Q 369152.7 50216.8 370413.4 50192.3 L 372248.8 50192.3 Q 374248 50194.4 375062.8 49963.4 Q 375238.5 49915.8 375375 49856.3 Q 375998 49574.9 375961.6 49031 Q 375970 48788.1 375832.8 48617.3 Q 375695.6 48446.5 375316.2 48300.2 L 375258.8 45963.6 L 375101.3 45963.6 Q 374863.3 46789.6 374665.9 47376.9 Q 374468.5 47964.2 374327.1 48199.4 Q 374180.1 48436 373839.9 48457.7 Q 373641.1 48468.9 373268 48477.3 Q 372894.9 48485.7 372406.3 48486.4 L 370657 48486.4 Q 370183.1 48490.6 370006.7 48384.2 Q 369831 48277.8 369840.1 48013.2 L 369840.1 40587.6 Q 370349 40501.5 370342 40200.5 L 368148.2 39984.9 Z M 370384.7 37590.9 L 370255.9 37677 Q 370920.9 38484.1 371487.2 39533.4 Q 372052.8 40582.7 372277.5 41605.4 Q 372958.6 42078.6 373425.5 41772.7 Q 373889.6 41468.9 373863 40722 Q 373836.4 39974.4 373041.9 39112 Q 372242.5 38244 370384.7 37590.9  Z M 6836 68509.5 L 15581.1 68509.5 Q 15893.3 68513 15968.2 68280.6 Q 15558 67906.8 15109.3 67537.9 Q 15026 67468.6 14949 67405.6 Q 14535.3 67068.9 14505.9 67047.2 L 13703 68093.7 L 12140.6 68093.7 Q 12718.8 67636.6 13236.1 67184.4 Q 13501.4 66954.8 13717.7 66774.9 Q 14172.7 66800.1 14262.3 66546 L 12240.7 65829.2 Q 12130.1 66338.8 11975.4 66950.6 Q 11821.4 67562.4 11667.4 68093.7 L 6721.2 68093.7 L 6836 68509.5 Z M 8255.6 66044.1 Q 8534.2 66376.6 8742.8 66841.4 Q 8951.4 67306.2 8972.4 67778.7 Q 9528.2 68180.5 9980.4 67981 Q 10374.5 67810.9 10473.9 67411.2 Q 10574 67011.5 10179.9 66602.7 Q 9737.5 66133.7 8384.4 65958 L 8255.6 66044.1 Z M 7180.4 65814.5 L 15294.8 65814.5 Q 15595.8 65818 15681.2 65584.9 Q 15277.3 65216 14830 64835.9 Q 14731.3 64751.2 14641.7 64675.6 Q 14233.6 64331.9 14204.9 64309.5 L 13388 65413.4 L 11624.7 65413.4 Q 12053.1 65158.6 12052.4 64691.7 Q 12043.3 64395.6 11748.6 64126.1 Q 11312.5 63699.1 9975.5 63606.7 L 9861.4 63692.8 Q 10105 63983.3 10282.1 64411.7 Q 10459.2 64839.4 10477.4 65269.9 Q 10581.7 65352.5 10707 65413.4 L 7065.6 65413.4 L 7180.4 65814.5 Z M 7323.9 71763.8 Q 7172.7 71814.2 7022.2 71864.6 Q 6276.7 72118.7 5560.6 72337.1 L 5560.6 67850.1 L 7180.4 67850.1 Q 7474.4 67853.6 7552.8 67621.2 Q 7241.3 67232 6872.4 66831.6 Q 6808 66760.9 6748.5 66696.5 Q 6404.1 66326.9 6377.5 66301.7 L 5703.4 67434.3 L 5560.6 67434.3 L 5560.6 64509.7 Q 5853.9 64466.3 5965.2 64362.7 Q 6076.5 64259.8 6090.5 64108.6 L 3954.8 63922.4 L 3954.8 67434.3 L 2463.8 67434.3 L 2578.6 67850.1 L 3954.8 67850.1 L 3954.8 72839 Q 2958 73147.7 2435.1 73283.5 L 3467.6 75132.9 Q 3725.2 75021.6 3811.3 74717.1 Q 6298.4 72907.6 7366.6 71893.3 L 7323.9 71763.8 Z M 13172.4 69843 L 13172.4 70918.2 L 9173.3 70918.2 L 9173.3 69843 L 13172.4 69843 Z M 9173.3 72409.2 L 9173.3 71334 L 13172.4 71334 L 13172.4 72409.2 L 9173.3 72409.2 Z M 15466.3 73670.6 L 15308.8 73670.6 Q 15218.5 73942.9 15140.8 74184.4 Q 14907 74949.5 14764.2 75190.3 Q 14678.1 75362.5 14505.9 75362.5 L 13932.6 75362.5 L 13273.2 75362.5 Q 13084.9 75363.9 13026.1 75314.2 Q 12966.6 75264.5 12972.2 75147.6 L 12972.2 72997.2 L 12972.2 72825 L 13172.4 72825 L 13172.4 73383.6 L 13430.7 73383.6 Q 13829 73370.3 14246.2 73235.2 Q 14663.4 73100.1 14706.8 73011.2 L 14706.8 70057.9 Q 15100.9 69971.8 15237.4 69799.6 L 13731.7 68681.7 L 13029.6 69441.2 L 9258.7 69441.2 L 7567.5 68767.8 L 7567.5 73555.8 L 7782.4 73555.8 Q 8226.9 73546 8607 73412.3 Q 8986.4 73279.3 9129.9 73140 Q 9078.1 73977.2 8607 74771 Q 8385.1 75123.1 8018.3 75464 Q 7221 76234 5373.7 76939.6 L 5517.2 77139.8 Q 7848.2 76586.8 8989.9 75837.8 Q 9851.6 75282.7 10263.9 74645 Q 10802.9 73785.4 10907.9 72825 L 11437.8 72825 L 11437.8 75462.6 Q 11411.9 76160.5 11673 76434.2 Q 11934.1 76707.2 12800 76695.3 L 13760.4 76695.3 Q 15016.9 76696 15497.1 76489.5 Q 15976.6 76283 15954.2 75864.4 Q 15961.2 75662.8 15871.6 75520 Q 15782 75377.2 15509.7 75261.7 L 15466.3 73670.6 Z M 22505.5 67649.2 Q 22817 67653.4 22892.6 67420.3 Q 22555.9 67057 22161.8 66665.7 Q 22080.6 66585.2 22006.4 66511.7 Q 21643.8 66154.7 21616.5 66130.2 L 20885.7 67248.1 L 20656.1 67248.1 L 20656.1 64352.2 Q 20939.6 64309.5 21050.2 64210.8 Q 21161.5 64111.4 21186.7 63951.1 L 19021.6 63735.5 L 19021.6 67248.1 L 16972 67248.1 L 17086.8 67649.2 L 18821.4 67649.2 Q 18531.6 69264.1 17989.8 70835.6 Q 17447.3 72407.1 16642.3 73656.6 L 16828.5 73814.1 Q 18118.6 72652.8 19021.6 71190.5 L 19021.6 77154.5 L 19351.3 77154.5 Q 19837.8 77138.4 20234.7 76971.8 Q 20632.3 76805.2 20656.1 76681.3 L 20656.1 69255 Q 20955.7 69727.5 21199.3 70291 Q 21442.2 70854.5 21516.4 71391.4 Q 22040.7 71805.1 22447.4 71574.8 Q 22770.8 71394.2 22828.2 70970 Q 22885.6 70545.8 22509 70039.7 Q 22054 69407.6 20656.1 68925.3 L 20656.1 67649.2 L 22505.5 67649.2 Z M 24698.6 75190.3 L 24698.6 72093.5 L 27881.5 72093.5 L 27881.5 75190.3 L 24698.6 75190.3 Z M 27881.5 68710.4 L 27881.5 71677.7 L 24698.6 71677.7 L 24698.6 68710.4 L 27881.5 68710.4 Z M 27881.5 65356 L 27881.5 68294.6 L 24698.6 68294.6 L 24698.6 65356 L 27881.5 65356 Z M 28555.6 64051.2 L 27738 64954.2 L 24770.7 64954.2 L 23050.1 64223.4 L 23050.1 77068.4 L 23322.4 77068.4 Q 23897.8 77049.5 24290.5 76831.8 Q 24682.5 76614.1 24698.6 76423 L 24698.6 75591.4 L 27881.5 75591.4 L 27881.5 76996.3 L 28139.8 76996.3 Q 28641 76975.3 29080.6 76780 Q 29519.5 76584 29558.7 76466.4 L 29558.7 65642.3 Q 30003.2 65524 30146.7 65341.3 L 28555.6 64051.2 Z M 36425.7 64925.5 L 31379.4 64925.5 L 31494.2 65341.3 L 38275.1 65341.3 Q 38586.6 65344.8 38662.2 65112.4 Q 38263.9 64759.6 37820.8 64398.4 Q 37731.9 64325.6 37650.7 64259.8 Q 37243.3 63929.4 37213.9 63907.7 L 36425.7 64925.5 Z M 33730.7 68480.8 L 33730.7 66875.7 L 36009.9 66875.7 L 36009.9 68480.8 L 33730.7 68480.8 Z M 36253.5 69369.8 Q 36617.5 69357.9 37002.5 69235.4 Q 37388.2 69112.9 37429.5 69026.1 L 37429.5 67090.6 Q 37805.4 66986.3 37945.4 66818.3 L 36525.8 65757.1 L 35866.4 66473.9 L 33788.1 66473.9 L 32325.8 65885.9 L 32325.8 69484.6 L 32512 69484.6 Q 32974 69469.9 33341.5 69318 Q 33709.7 69166.1 33730.7 69054.8 L 33730.7 68882.6 L 36009.9 68882.6 L 36009.9 69369.8 L 36253.5 69369.8 Z M 33343.6 70760.7 Q 33511.6 71096 33626.4 71558 Q 33741.2 72020 33716 72451.9 Q 34096.8 72808.2 34428.6 72601.7 Q 34612.7 72488.3 34685.5 72253.1 Q 34758.3 72017.9 34648.4 71716.9 Q 34481.1 71191.2 33515.8 70688.6 L 33343.6 70760.7 Z M 35666.2 72810.3 L 35307.8 72810.3 Q 35603.9 72415.5 35865 72023.5 Q 36126.1 71631.5 36282.2 71334 Q 36644.1 71327 36726.7 71147.8 L 36726.7 72724.2 Q 36501.3 72513.5 36317.9 72364.4 Q 36135.2 72215.3 36124.7 72208.3 L 35666.2 72810.3 Z M 33027.9 70459.7 L 36726.7 70459.7 L 36726.7 71047 L 35365.2 70602.5 Q 35317.6 71013.4 35209.1 71636.4 Q 35099.9 72260.1 34978.1 72810.3 L 33027.9 72810.3 L 33027.9 70459.7 Z M 36583.2 70057.9 L 33228.8 70057.9 L 31651.7 69441.2 L 31651.7 77111.1 L 31895.3 77111.1 Q 32436.4 77093.6 32730.4 76934 Q 33024.4 76773.7 33027.9 76681.3 L 33027.9 73212.1 L 34217.9 73212.1 L 34217.9 76250.8 L 34432.8 76250.8 Q 34901.1 76239.6 35173.4 76136.7 Q 35445 76033.1 35450.6 75978.5 L 35450.6 73212.1 L 36626.6 73212.1 Q 36676.3 73215.6 36726.7 73197.4 L 36726.7 75419.9 Q 36748.4 75652.3 36511.8 75648.8 Q 36318.6 75646 36015.5 75627.8 Q 35712.4 75608.9 35680.2 75606.1 L 35680.2 75807 Q 35974.9 75870.7 36124.7 75970.1 Q 36274.5 76068.8 36354.3 76208.1 Q 36537 76502.1 36525.8 77097.1 Q 37526.1 77000.5 37816.6 76611.3 Q 38106.4 76222.1 38074.2 75534 L 38074.2 70703.3 Q 38301 70666.2 38457.8 70581.5 Q 38614.6 70496.1 38690.9 70416.3 L 37213.9 69312.4 L 36583.2 70057.9 Z M 42016.6 71276.6 L 42016.6 67234.1 L 42819.5 67234.1 L 42819.5 71276.6 L 42016.6 71276.6 Z M 40009.7 67234.1 L 40769.2 67234.1 L 40769.2 71276.6 L 40009.7 71276.6 L 40009.7 67234.1 Z M 43049.1 72437.9 Q 43411 72424.6 43783.4 72296.5 Q 44156.5 72167.7 44195.7 72079.5 L 44195.7 67434.3 Q 44582.8 67348.2 44711.6 67176.7 L 43350.1 66130.2 L 42690.7 66832.3 L 42131.4 66832.3 L 42131.4 64423.6 Q 42640.3 64327 42633.3 64037.2 L 40669.1 63865 L 40669.1 66832.3 L 40081.1 66832.3 L 38690.9 66259 L 38690.9 72767.6 L 38891.8 72767.6 Q 39328.6 72751.5 39660.4 72594 Q 39992.2 72435.8 40009.7 72323.1 L 40009.7 71692.4 L 40669.1 71692.4 L 40669.1 74874.6 Q 39899.8 74917.3 39285.9 74941.1 Q 38672 74964.9 38289.1 74975.4 L 38963.2 76939.6 Q 39221.5 76892.7 39393 76609.2 Q 41754.8 75778.3 43106.5 75204.3 Q 43253.5 75946.3 43250 76666.6 Q 43796 77179.7 44218.8 76885.7 Q 44540.8 76664.5 44618.5 76118.5 Q 44696.9 75572.5 44384 74844.5 Q 43992 73899.5 42676 72925.1 L 42504.5 72997.2 Q 42794.3 73767.2 43020.4 74731.8 L 42117.4 74789.2 L 42117.4 71692.4 L 42819.5 71692.4 L 42819.5 72451.9 L 43049.1 72437.9 Z M 46031.1 79061.3 Q 47303 78457.9 47854.6 77455.5 Q 47877 77417.7 47898 77379.9 Q 48425.1 76369.8 48410.4 75376.5 Q 48397.8 74629.6 48031 74224.3 Q 47663.5 73819 47091.6 73814.1 Q 46526 73829.5 46202.6 74170.4 Q 45879.2 74511.3 45872.9 74989.4 Q 45907.2 75653.7 46381.1 75985.5 Q 46438.5 76030.3 46499.4 76070.9 Q 47000.6 76370.5 47478.7 76509.1 Q 47417.1 77018 47037.7 77591.3 Q 46659 78165.3 45801.5 78630.8 L 46031.1 79061.3 Z M 63535.3 65885.9 L 63535.3 67376.9 L 63792.9 67376.9 Q 64329.1 67368.5 64725.3 67251.6 Q 65120.8 67135.4 65140.4 67018.5 L 65140.4 65885.9 L 67864.8 65885.9 L 67864.8 67305.5 L 68137.1 67305.5 Q 68711.1 67285.9 69097.5 67169 Q 69483.9 67052.8 69498.6 66947.1 L 69498.6 65885.9 L 72867.7 65885.9 Q 73186.9 65890.1 73269.5 65657 Q 72870.5 65285.3 72407.8 64907.3 Q 72289.5 64810 72183.1 64723.9 Q 71765.2 64387.9 71735.1 64366.9 L 70903.5 65484.8 L 69498.6 65484.8 L 69498.6 64309.5 Q 70007.5 64233.9 70000.5 63922.4 L 67864.8 63735.5 L 67864.8 65484.8 L 65140.4 65484.8 L 65140.4 64309.5 Q 65405 64275.9 65513.5 64175.1 Q 65622 64074.3 65628.3 63922.4 L 63535.3 63735.5 L 63535.3 65484.8 L 59850.5 65484.8 L 59951.3 65885.9 L 63535.3 65885.9 Z M 63520.6 75807 L 63520.6 73570.5 L 69584.7 73570.5 L 69584.7 75807 L 63520.6 75807 Z M 69441.2 73168.7 L 63621.4 73168.7 L 61914.8 72495.3 L 61914.8 77168.5 L 62144.4 77168.5 Q 62663.1 77151.7 63079.6 76978.8 Q 63496.8 76805.9 63520.6 76681.3 L 63520.6 76222.8 L 69584.7 76222.8 L 69584.7 77039.7 L 69857 77039.7 Q 70283.3 77025.7 70727.1 76887.1 Q 70739 76883.6 70750.2 76880.1 Q 71189.1 76740.8 71233.2 76652.6 L 71233.2 73856.8 Q 71677.7 73731.5 71821.2 73541.8 L 70201.4 72323.1 L 69441.2 73168.7 Z M 64409.6 71520.2 L 64409.6 69699.5 L 68581.6 69699.5 L 68581.6 71520.2 L 64409.6 71520.2 Z M 70789.4 67635.2 L 62029.6 67635.2 Q 61947.7 67241.1 61757.3 66803.6 L 61556.4 66818.3 Q 61590 67343.3 61284.1 67750 Q 60978.9 68156.7 60582 68338 Q 60224.3 68488.5 60012.2 68778.3 Q 59799.4 69068.8 59893.9 69498.6 Q 60033.9 69950.8 60440.6 70088.7 Q 60846.6 70225.9 61255.4 70043.9 Q 61676.8 69856.3 61926 69341.1 Q 62175.2 68825.9 62101.7 68036.3 L 70903.5 68036.3 Q 70860.1 68410.8 70799.9 68828.7 Q 70739.7 69245.9 70674.6 69599.4 L 69183.6 68495.5 L 68438.1 69298.4 L 64509.7 69298.4 L 62789.8 68624.3 L 62789.8 72595.4 L 63018.7 72595.4 Q 63538.8 72578.6 63961.6 72405.7 Q 64384.4 72232.8 64409.6 72108.2 L 64409.6 71936 L 68581.6 71936 L 68581.6 72394.5 L 68867.9 72394.5 Q 69280.2 72380.5 69717 72246.1 L 69753.4 72234.9 Q 70182.5 72099.1 70215.4 72022.1 L 70215.4 69943.1 Q 70512.9 69864.7 70659.9 69742.9 L 70774.7 69814.3 Q 71254.9 69531.5 71791.1 69138.8 Q 72327.3 68746.1 72710.2 68409.4 Q 72941.2 68391.2 73065.1 68354.1 Q 73188.3 68316.3 73269.5 68223.2 L 71706.4 66732.2 L 70789.4 67635.2 Z M 81899.8 68653 L 78071.5 68653 L 78186.3 69054.8 L 87289.8 69054.8 Q 87619.5 69058.3 87691.6 68825.2 Q 87258.3 68447.2 86773.9 68058.7 Q 86639.5 67950.9 86519.8 67855.7 Q 86086.5 67513.4 86057.1 67491.7 L 85168.1 68653 L 83591 68653 L 83591 66517.3 L 86888.7 66517.3 Q 87221.9 66520.8 87275.8 66287.7 Q 86860.7 65918.8 86385.4 65538 Q 86255.9 65433 86140.4 65341.3 Q 85714.1 65003.9 85684 64982.9 L 84809.7 66115.5 L 83591 66115.5 L 83591 64294.8 Q 83875.9 64240.9 83990.7 64135.2 Q 84106.2 64030.2 84121.6 63879 L 81899.8 63692.8 L 81899.8 66115.5 L 80466.2 66115.5 Q 80813.4 65552.7 81096.9 64925.5 Q 81565.9 64904.5 81626.8 64624.5 L 79491.1 63965.1 Q 79334.3 65145.3 79021.4 66255.5 Q 78709.2 67365.7 78315.8 68179.8 L 78502 68294.6 Q 79472.9 67610 80207.9 66517.3 L 81899.8 66517.3 L 81899.8 68653 Z M 81039.5 73340.9 L 81039.5 70832.1 L 84608.8 70832.1 L 84608.8 73340.9 L 81039.5 73340.9 Z M 84895.8 74688.4 Q 85334.7 74673 85777.8 74516.2 Q 85782.7 74514.8 85788.3 74512.7 Q 86228.6 74355.9 86272 74243.9 L 86272 71104.4 Q 86701.8 70975.6 86831.3 70803.4 L 85239.5 69584.7 L 84466 70416.3 L 81125.6 70416.3 L 79405 69742.9 L 79405 74803.2 L 79634.6 74803.2 Q 80164.5 74786.4 80589.4 74613.5 Q 81015 74440.6 81039.5 74316 L 81039.5 73742 L 84608.8 73742 L 84608.8 74688.4 L 84895.8 74688.4 Z M 74774.5 64237.4 Q 75272.2 64910.8 75654.4 65782.3 Q 76036.6 66653.8 76136.7 67520.4 Q 76780.7 68004.8 77265.8 67744.4 Q 77737.6 67491.7 77788.7 66841.4 Q 77839.8 66190.4 77205.6 65447.7 Q 76556 64685.4 74903.3 64151.3 L 74774.5 64237.4 Z M 77584.3 70015.2 Q 78165.3 69900.4 78315.8 69699.5 L 76609.2 68323.3 L 75807 69384.5 L 74186.5 69384.5 L 74258.6 69785.6 L 76021.9 69785.6 L 76021.9 74387.4 Q 75787.4 74510.6 75528.4 74649.2 Q 75177.7 74836.8 74826.3 75020.2 Q 74474.9 75203.6 74172.5 75347.8 L 75290.4 77053.7 Q 75480.8 76971.8 75433.9 76738.7 Q 75677.5 76322.2 75956.1 75895.9 Q 76234 75469.6 76466.4 75125.2 Q 76610.6 74911.7 76710 74760.5 Q 76914.4 74376.9 77225.9 74745.8 Q 77963 75719.5 78939.5 76217.9 Q 79224.4 76360 79550.6 76467.8 Q 80673.4 76845.1 82587.9 76838.8 L 86530.3 76838.8 Q 86594.7 76320.8 86883.1 75923.2 Q 87170.8 75525.6 87676.9 75405.2 L 87676.9 75233 Q 86487.6 75306.5 85401.2 75328.2 Q 84314.1 75349.9 83146.5 75347.8 Q 81027.6 75360.4 79699 75149 Q 78370.4 74938.3 77584.3 74358.7 L 77584.3 70015.2 Z M 99289.2 71004.3 L 99289.2 75405.2 L 96006.2 75405.2 L 96006.2 69714.2 L 98586.4 69714.2 L 98586.4 70531.1 L 98873.4 70531.1 Q 99371.8 70517.8 99783.4 70380.6 Q 100195.7 70243.4 100220.9 70144 L 100220.9 65699.7 Q 100704.6 65610.1 100694.1 65327.3 L 98586.4 65140.4 L 98586.4 69312.4 L 96006.2 69312.4 L 96006.2 64438.3 Q 96289.7 64394.9 96398.9 64289.2 Q 96507.4 64184.2 96522.1 64022.5 L 94300.3 63807.6 L 94300.3 69312.4 L 91834.2 69312.4 L 91834.2 65671 Q 92109.3 65626.9 92228.3 65536.6 Q 92348 65447 92364.8 65327.3 L 90228.4 65126.4 L 90228.4 69140.2 Q 89952.6 69355.8 89784.6 69570.7 L 91433.1 70545.1 L 91935 69714.2 L 94300.3 69714.2 L 94300.3 75405.2 L 91160.8 75405.2 L 91160.8 71506.2 Q 91683.7 71416.6 91690.7 71176.5 L 89526.3 70960.9 L 89526.3 75247.7 Q 89254 75444.4 89067.8 75663.5 L 90745 76652.6 L 91260.9 75821 L 99289.2 75821 L 99289.2 77025 L 99575.5 77025 Q 100064.8 77011 100480.6 76867.5 Q 100897.1 76724 100923.7 76623.9 L 100923.7 71563.6 Q 101407.4 71469.8 101396.2 71205.2 L 99289.2 71004.3 Z M 113567.8 75935.8 L 110457 75935.8 L 110457 71563.6 L 114456.8 71563.6 Q 114768.3 71567.1 114843.9 71334 Q 114438.6 70953.9 113975.9 70559.8 Q 113851.3 70452.7 113740 70358.2 Q 113324.2 70008.2 113295.5 69986.5 L 112435.2 71161.8 L 104464.3 71161.8 L 104579.1 71563.6 L 108722.4 71563.6 L 108722.4 75935.8 L 103002 75935.8 L 103130.8 76336.9 L 115703.5 76336.9 Q 116005.2 76340.4 116090.6 76108 Q 115681.1 75716 115201.6 75315.6 Q 115056 75193.1 114927.9 75087.4 Q 114500.2 74738.1 114470.8 74717.1 L 113567.8 75935.8 Z M 107274.1 66717.5 Q 106868.8 67470 106035.8 68438.8 Q 105702.6 68824.5 105327.4 69204.6 Q 104392.2 70160.1 103389.1 70832.1 L 103489.2 70960.9 Q 105072.6 70496.8 106457.2 69721.2 Q 107841.1 68944.9 108736.4 68137.1 Q 109395.8 68162.3 109496.6 67864.8 L 107274.1 66717.5 Z M 114771.8 64925.5 L 113840.1 65871.9 L 110069.9 65871.9 Q 110604.7 65700.4 110774.8 65199.9 Q 110866.5 64915.7 110761.5 64615.4 Q 110656.5 64315.8 110301.6 64071.5 Q 109713.6 63638.9 108205.8 63650.1 L 108120.4 63735.5 Q 108504.7 64061.7 108752.5 64581.8 Q 109000.3 65101.2 109008.7 65642.3 Q 109252.3 65811 109496.6 65871.9 L 104922.8 65871.9 Q 104815.7 65423.9 104579.1 64911.5 L 104392.9 64925.5 Q 104460.1 65605.2 104186.4 66144.2 Q 103912.7 66683.9 103517.9 66932.4 Q 103174.2 67096.9 102991.5 67393 Q 102808.8 67689.1 102915.9 68079.7 Q 103086 68490.6 103482.2 68595.6 Q 103878.4 68700.6 104263.4 68466.8 Q 104674.3 68237.2 104899.7 67676.5 Q 105125.1 67115.8 105008.9 66273 L 113940.2 66273 Q 113885.6 66623 113805.8 67013.6 Q 113726.7 67403.5 113639.2 67764 Q 112477.9 67244.6 110457 67090.6 L 110342.2 67219.4 Q 111339 67780.1 112375 68615.9 Q 112558.4 68765 112736.2 68918.3 Q 113739.3 69779.3 114342 70645.9 Q 115105.7 70870.6 115450.8 70438 Q 115776.3 70031.3 115524.3 69358.6 Q 115260.4 68644.6 114127.1 67993.6 Q 114588.4 67684.9 115042.7 67325.1 Q 115496.3 66965.3 115818.3 66646.1 Q 116227.1 66639.1 116377.6 66459.9 L 114771.8 64925.5 Z M 118815 68739.1 L 118943.8 69154.9 L 126771.2 69154.9 L 126771.2 69828.3 L 127072.2 69828.3 Q 127519.5 69813.6 127987.1 69668.7 Q 128020.7 69658.2 128052.9 69648.4 Q 128505.1 69500 128549.2 69413.2 L 128549.2 65255.2 Q 128997.2 65148.1 129122.5 64954.2 L 127430.6 63678.8 L 126627.7 64567.1 L 118857.7 64567.1 L 118986.5 64968.9 L 126771.2 64968.9 L 126771.2 66660.1 L 119373.6 66660.1 L 119503.1 67075.9 L 126771.2 67075.9 L 126771.2 68739.1 L 118815 68739.1 Z M 120549.6 70358.9 Q 120392.8 71027.4 119906.3 71555.9 Q 119419.1 72084.4 118929.1 72323.1 Q 118586.8 72519.8 118427.9 72826.4 Q 118268.3 73133.7 118399.2 73513.1 Q 118598.7 73930.3 119051.6 73993.3 Q 119503.8 74055.6 119875.5 73785.4 Q 120416.6 73403.9 120710.6 72536.6 Q 121004.6 71668.6 120749.8 70373.6 L 120549.6 70358.9 Z M 127516.7 70244.1 Q 127176.5 70848.9 126586.4 71644.1 Q 125996.3 72439.3 125366.3 73140 Q 124631.3 72190.8 124391.2 70789.4 Q 124412.9 70362.4 124434.6 69914.4 Q 124889.6 69846.5 124936.5 69542 L 122613.9 69341.1 Q 122612.5 69470.6 122610.4 69598 Q 122630 71076.4 122434.7 72309.8 Q 122291.2 73133 121891.5 73860.3 Q 121492.5 74587.6 120708.5 75230.9 Q 119552.1 76194.1 117165.8 76996.3 L 117266.6 77197.2 Q 120096 76602.2 121581.4 75774.1 Q 122863.8 75063.6 123454.6 74185.8 Q 124132.9 73163.8 124276.4 71922 Q 124539.6 73754.6 125427.9 74990.1 Q 125637.9 75271.5 125893.4 75522.1 Q 126984.7 76624.6 129237.3 77154.5 Q 129315 76430 129688.8 76041.5 Q 130061.9 75653 130699.6 75520 L 130713.6 75333.8 Q 128831.3 75101.4 127588.1 74640.1 Q 126345.6 74178.8 125624.6 73441 Q 126551.4 73056 127421.5 72605.9 Q 128292.3 72156.5 128950.3 71749.8 Q 129193.2 71799.5 129321.3 71753.3 Q 129448.7 71706.4 129509.6 71606.3 L 127516.7 70244.1 Z M 133480.7 72781.6 Q 133447.8 73482.3 133062.8 74022 Q 132677.8 74561 132204.6 74789.2 Q 131884 74953 131724.4 75228.1 Q 131564.8 75502.5 131674 75849.7 Q 131821.7 76224.9 132201.1 76295.6 Q 132579.8 76367 132964.1 76150.7 Q 133546.5 75832.9 133830 74971.9 Q 134113.5 74110.9 133695.6 72781.6 L 133480.7 72781.6 Z M 134713.4 66287.7 Q 135222.3 65556.2 135645.1 64739.3 Q 136118.3 64757.5 136204.4 64495.7 L 134082.7 63678.8 Q 133603.2 65317.5 132860.5 66789.6 Q 132117.8 68261.7 131315.6 69255 L 131459.1 69384.5 Q 132355.1 68839.2 133165 68079.7 L 133165 72466.6 L 133466 72466.6 Q 133938.5 72450.5 134319.3 72294.4 Q 134700.1 72138.3 134742.1 72036.1 L 134742.1 66717.5 Q 135125.7 66653.1 135186.6 66459.9 L 134713.4 66287.7 Z M 135731.2 71018.3 L 135989.5 71018.3 Q 136421.4 71005.7 136788.2 70876.9 Q 137155.7 70748.1 137178.8 70659.9 L 137178.8 66000.7 Q 137641.5 65907.6 137652 65642.3 L 135731.2 65470.8 L 135731.2 71018.3 Z M 141737.9 73469.7 L 141580.4 73469.7 Q 141142.9 74670.9 140877.6 75032.8 Q 140807.6 75137.8 140718 75181.2 Q 140629.1 75224.6 140461.8 75233 Q 140281.2 75243.5 139895.5 75245.6 Q 139510.5 75248.4 139028.2 75247.7 L 137264.9 75247.7 Q 136859.6 75251.2 136747.6 75200.8 Q 136634.9 75151.1 136648.9 75004.1 L 136648.9 72810.3 Q 137075.2 72738.9 137093.4 72451.9 L 134957 72280.4 L 134957 75319.1 Q 134929.7 76138.8 135356.7 76426.5 Q 135783.7 76714.2 136992.6 76695.3 L 138856.7 76695.3 Q 140790.8 76701.6 141568.5 76526.6 Q 141716.9 76493 141835.2 76452.4 Q 142447.7 76236.1 142412 75749.6 Q 142419.7 75527 142282.5 75371.6 Q 142146 75215.5 141766.6 75090.2 L 141737.9 73469.7 Z M 137451.8 71993.4 Q 137853.6 72471.5 138175.6 73123.9 Q 138496.9 73777 138555.7 74416.1 Q 139124.1 74824.9 139546.9 74575 Q 139911.6 74362.2 139960.6 73882 Q 140008.9 73402.5 139550.4 72876.1 Q 139031 72267.8 137580.6 71907.3 L 137451.8 71993.4 Z M 141723.9 72738.9 Q 142297.9 73338.1 142727 74169 Q 143156.1 74999.2 143257.6 75835.7 Q 143875 76275.3 144321.6 75998.1 Q 144745.8 75735.6 144764.7 75118.9 Q 144783.6 74501.5 144154.3 73819 Q 143497 73100.8 141852.7 72638.8 L 141723.9 72738.9 Z M 141795.3 66172.9 Q 141476.1 67642.2 140620 68810.5 Q 139759.7 68029.3 139243.8 66989.8 Q 139504.9 66602.7 139745 66172.9 L 141795.3 66172.9 Z M 144648.5 66172.9 Q 144967 66176.4 145049.6 65943.3 Q 144580.6 65552 144095.5 65178.2 Q 144003.1 65106.8 143918.4 65041.7 Q 143473.9 64702.9 143443.8 64681.9 L 142554.8 65771.8 L 139945.9 65771.8 Q 140243.4 65190.8 140476.5 64524.4 Q 140924.5 64506.2 141007.1 64208.7 L 138899.4 63678.8 Q 138709 65096.3 138295.3 66393.4 Q 137882.3 67690.5 137337 68624.3 L 137523.2 68753.1 Q 138319.1 68172.8 138985.5 67334.2 Q 139386.6 68538.2 140003.3 69527.3 Q 138530.5 71026 135788.6 71964.7 L 135860 72150.9 Q 138784.6 71574.1 140634 70373.6 Q 141777.1 71753.3 143888.3 72509.3 Q 144053.5 71312.3 145078.3 70975.6 L 145107 70818.1 Q 143017.5 70431 141637.8 69570.7 Q 143088.9 68205 143658.7 66172.9 L 144648.5 66172.9 Z M 157808.5 65470.8 Q 158145.2 65474.3 158224.3 65241.2 Q 157796.6 64847.1 157315.7 64436.2 Q 157171.5 64312.3 157045.5 64205.2 Q 156618.5 63844 156589.8 63821.6 L 155672.8 65055 L 150554.4 65055 L 150669.2 65470.8 L 157808.5 65470.8 Z M 146440.5 64065.2 Q 146908.1 64707.8 147330.9 65527.5 Q 147753 66347.9 147930.8 67119.3 Q 148562.9 67540.7 148997.6 67255.8 Q 149381.2 67006.6 149391.7 66443.8 Q 149402.2 65880.3 148836.6 65237 Q 148207.3 64509.7 146583.3 63993.8 L 146440.5 64065.2 Z M 154640.3 68509.5 L 154640.3 73011.2 Q 154614.4 73773.5 154895.1 74079.4 Q 155175.1 74384.6 156073.9 74373.4 L 157020.3 74373.4 Q 158310.4 74372 158815.8 74129.1 Q 159321.2 73886.9 159299.5 73412.3 Q 159307.9 73190.4 159213.4 73032.9 Q 159119.6 72874.7 158826.3 72738.9 L 158783.6 70803.4 L 158626.1 70803.4 Q 158571.5 70990.3 158519 71170.2 Q 158368.5 71692.4 158245.3 72090 Q 158121.4 72488.3 158038.1 72652.8 Q 157933.8 72842.5 157765.8 72839 L 157206.5 72839 L 156575.8 72839 Q 156367.2 72841.1 156303.5 72787.2 Q 156239.8 72733.3 156246.1 72595.4 L 156246.1 68595.6 L 156246.1 68509.5 L 158768.9 68509.5 Q 159098.6 68513 159170.7 68280.6 Q 158747.9 67882.3 158262.1 67462.3 Q 158103.2 67323.7 157963.9 67204.7 Q 157536.2 66840.7 157507.5 66818.3 L 156589.8 68108.4 L 149594 68108.4 L 149708.8 68509.5 L 151845.2 68509.5 Q 151911.7 70239.9 151614.9 71699.4 Q 151581.3 71845 151541.4 71988.5 Q 151183.7 73421.4 149981.1 74588.3 L 149995.8 74631 Q 149433 74355.2 148978 73928.9 L 148963.3 73914.2 L 148963.3 69498.6 Q 149565.3 69384.5 149694.8 69183.6 L 148031.6 67836.1 L 147257.4 68867.9 L 145737.7 68867.9 L 145823.8 69283.7 L 147472.3 69283.7 L 147472.3 74186.5 Q 147031.3 74474.2 146547.6 74780.1 Q 146063.9 75086 145666.3 75319.1 L 146827.6 77053.7 Q 147006.8 76960.6 146970.4 76738.7 Q 147182.5 76318.7 147437.3 75874.2 Q 147691.4 75430.4 147919.6 75045.4 Q 148128.2 74694 148261.2 74458.8 Q 148486.6 74050.7 148777.1 74458.8 Q 149538.7 75572.5 150556.5 76139.5 Q 150835.8 76292.1 151152.2 76409.7 Q 152310.7 76845.8 154267.9 76838.8 L 158210.3 76838.8 Q 158275.4 76291.4 158572.2 75888.9 Q 158868.3 75487.1 159385.6 75347.8 L 159385.6 75190.3 Q 158190 75253.3 157114.8 75272.9 Q 156040.3 75292.5 154855.2 75290.4 Q 153231.2 75296.7 152085.3 75168.6 Q 150938.7 75040.5 150153.3 74703.1 Q 151943.9 73782.6 152673.3 72353.9 Q 152772.7 72167.7 152859.5 71972.4 Q 153481.8 70480 153536.4 68509.5 L 154640.3 68509.5 Z M 160217.2 73498.4 Q 161067.7 74200.5 161498.2 74876.7 Q 161928.7 75552.2 162177.9 76131.1 Q 162237.4 76259.2 162295.5 76380.3 Q 162611.2 77046.7 163227.9 77025 Q 163652.1 77020.1 163896.4 76767.4 Q 164140 76514.7 164144.9 76079.3 Q 164177.1 75631.3 163843.9 75118.9 Q 163457.5 74511.3 162616.8 74043.7 Q 161775.4 73575.4 160346 73312.2 L 160217.2 73498.4 Z M 176560.1 73197.4 Q 176516 73840 176133.8 74304.8 Q 175750.9 74770.3 175298.7 74960.7 Q 174966.2 75114 174789.8 75391.2 Q 174613.4 75667.7 174710.7 76035.9 Q 174847.9 76413.2 175226.6 76507.7 Q 175606 76602.2 176000.8 76409 Q 176583.2 76131.8 176875.8 75303 Q 177167.7 74474.9 176761 73197.4 L 176560.1 73197.4 Z M 183929 69283.7 L 183929 70502.4 L 178524.3 70502.4 L 178524.3 69283.7 L 183929 69283.7 Z M 178524.3 72122.2 L 178524.3 70903.5 L 183929 70903.5 L 183929 72122.2 L 178524.3 72122.2 Z M 178524.3 72538 L 183929 72538 L 183929 73068.6 L 184215.3 73068.6 Q 184650 73051.1 185090.3 72886.6 Q 185102.9 72882.4 185114.8 72877.5 Q 185548.8 72711.6 185591.5 72610.1 L 185591.5 69570.7 Q 186047.2 69445.4 186179.5 69255 L 184559.7 68036.3 L 183785.5 68882.6 L 178610.4 68882.6 L 176875.8 68208.5 L 176875.8 73226.1 L 177119.4 73226.1 Q 177639.5 73208.6 178069.3 73029.4 Q 178498.4 72850.2 178524.3 72724.2 L 178524.3 72538 Z M 180373.7 72882.4 Q 180752.4 73248.5 181063.2 73770.7 Q 181374.7 74293.6 181462.9 74831.9 Q 182022.9 75183.3 182416.3 74927.8 Q 182741.1 74719.9 182773.3 74306.9 Q 182804.8 73893.9 182383.4 73477.4 Q 181888.5 72974.1 180502.5 72781.6 L 180373.7 72882.4 Z M 184531 73770.7 L 184373.5 73770.7 Q 183971.7 74899.8 183742.8 75233 Q 183672.1 75338.7 183583.2 75382.1 Q 183493.6 75425.5 183327 75433.9 Q 183156.2 75444.4 182771.2 75446.5 Q 182386.2 75448.6 181893.4 75448.6 L 180144.1 75448.6 Q 179749.3 75451.4 179638.7 75403.8 Q 179528.8 75355.5 179542.1 75219 L 179542.1 73699.3 Q 179957.9 73634.9 179986.6 73355.6 L 177979.7 73183.4 L 177979.7 75534 Q 177952.4 76301.2 178345.1 76564.4 Q 178737.1 76828.3 179871.8 76810.1 L 181735.2 76810.1 Q 183613.3 76815.7 184358.8 76644.9 Q 184498.8 76612.7 184610.1 76574.9 Q 185197.4 76365.6 185161.7 75907.1 Q 185168 75695 185039.9 75550.8 Q 184911.8 75405.9 184573.7 75290.4 L 184531 73770.7 Z M 184889.4 73283.5 Q 185390.6 73805.7 185786.8 74528.8 Q 186183.7 75252.6 186265.6 75978.5 Q 186859.2 76385.2 187281.3 76112.2 Q 187658.6 75870 187679.6 75333.8 Q 187700.6 74797.6 187159.5 74215.9 Q 186565.2 73567 185018.2 73183.4 L 184889.4 73283.5 Z M 185362.6 67563.8 L 182753 67563.8 Q 183212.9 67266.3 183656.7 66947.1 Q 184099.8 66627.9 184430.9 66373.8 Q 184896.4 66377.3 184975.5 66101.5 L 183312.3 65628.3 L 186566.6 65628.3 Q 186885.8 65631.8 186968.4 65398.7 Q 186517.6 65024.2 186032.5 64648.3 Q 185918.4 64559.4 185816.2 64480.3 Q 185378 64144.3 185347.9 64122.6 L 184459.6 65212.5 L 181936.1 65212.5 Q 182274.2 64860.4 182121.6 64378.1 Q 182020.1 64091.8 181662.4 63872.7 Q 181096.1 63498.9 179685.6 63606.7 L 179584.8 63706.8 Q 179953 63962.3 180296.7 64362.7 Q 180640.4 64763.8 180803.5 65212.5 L 175685.8 65212.5 L 175800.6 65628.3 L 182796.4 65628.3 Q 182697 66081.2 182559.8 66601.3 Q 182422.6 67121.4 182280.5 67563.8 L 179670.9 67563.8 Q 180141.3 67400 180243.5 66948.5 Q 180324 66574 179950.9 66207.9 Q 179516.2 65768.3 178179.9 65642.3 L 178065.1 65728.4 Q 178311.5 66020.3 178511.7 66464.8 Q 178711.9 66910 178753.2 67362.9 Q 178943.6 67506.4 179155 67563.8 L 174725.4 67563.8 L 174854.2 67979.6 L 187469.6 67979.6 Q 187799.3 67983.1 187871.4 67750 Q 187446.5 67381.1 186962.8 67005.2 Q 186831.9 66903 186715 66812.7 Q 186281 66480.2 186251.6 66459.9 L 185362.6 67563.8 Z M 192429.8 66789.6 L 192688.1 66789.6 Q 193252.3 66781.2 193635.9 66672.7 Q 194020.2 66564.9 194035.6 66459.9 L 194035.6 65642.3 L 196988.9 65642.3 L 196988.9 66732.2 L 197261.2 66732.2 Q 197855.5 66714 198239.8 66610.4 Q 198624.1 66506.1 198637.4 66402.5 L 198637.4 65642.3 L 201963.8 65642.3 Q 202285.8 65645.8 202350.9 65413.4 Q 201955.4 65046.6 201499.7 64682.6 Q 201398.2 64600.7 201306.5 64527.9 Q 200890 64201 200859.9 64180 L 200042.3 65241.2 L 198637.4 65241.2 L 198637.4 64280.8 Q 199146.3 64201.7 199139.3 63907.7 L 196988.9 63721.5 L 196988.9 65241.2 L 194035.6 65241.2 L 194035.6 64280.8 Q 194310 64246.5 194422.7 64147.8 Q 194535.4 64049.1 194551.5 63907.7 L 192429.8 63721.5 L 192429.8 65241.2 L 188803.1 65241.2 L 188903.2 65642.3 L 192429.8 65642.3 L 192429.8 66789.6 Z M 199067.9 67663.9 L 199067.9 68968.7 L 195956.4 68968.7 L 195956.4 67663.9 L 199067.9 67663.9 Z M 195956.4 70703.3 L 195956.4 69384.5 L 199067.9 69384.5 L 199067.9 70703.3 L 195956.4 70703.3 Z M 189692.1 74272.6 Q 189935.7 74211.7 190136.6 73914.2 Q 191279.7 73453.6 192207.9 73027.3 Q 193136.1 72601 193677.2 72323.1 L 193648.5 72136.9 Q 192812 72223.7 192018.2 72294.4 Q 191224.4 72365.1 190580.4 72409.2 Q 191594.7 71796 192557.2 71034.4 Q 193520.4 70273.5 194136.4 69628.1 Q 194351.3 69682 194480.1 69628.1 L 194480.1 71763.8 L 194695 71763.8 Q 195168.9 71746.3 195551.8 71575.5 Q 195934 71405.4 195956.4 71290.6 L 195956.4 71119.1 L 199067.9 71119.1 L 199067.9 71635 L 199325.5 71635 Q 199721 71619.6 200119.3 71471.9 Q 200517.6 71324.2 200558.9 71233.2 L 200558.9 67922.2 Q 201013.9 67814.4 201146.2 67621.2 L 199626.5 66473.9 L 198924.4 67262.8 L 196028.5 67262.8 L 194480.1 66631.4 L 194480.1 69384.5 L 192845.6 68251.9 Q 192595 68860.9 192042.7 69642.1 L 191990.9 69643.5 Q 190931.1 69667.3 190121.9 69670.8 Q 190861.8 69267.6 191602.4 68716 Q 192342.3 68164.4 192845.6 67663.9 Q 193257.9 67699.6 193347.5 67477.7 L 191383.3 66445.2 Q 191188.7 67008.7 190747.7 67757 Q 190579.7 68039.8 190393.5 68309.3 Q 189907.7 69022.6 189433.8 69369.8 Q 189323.2 69425.8 189177.6 69468.5 Q 189032 69511.2 189018 69513.3 L 189749.5 71305.3 Q 190028.8 71176.5 190222 70789.4 Q 190847.1 70592.7 191405.7 70412.1 Q 191466.6 70392.5 191526.8 70373.6 Q 191046.6 70984.7 190534.2 71497.1 Q 190021.8 72008.8 189562.6 72308.4 Q 189438 72374.9 189265.1 72419.7 Q 189092.2 72464.5 189075.4 72466.6 L 189692.1 74272.6 Z M 193691.9 73986.3 Q 192259.7 74370.6 191023.5 74674.4 Q 189787.3 74978.2 189161.5 75104.2 L 190121.9 76853.5 Q 190369 76767.4 190466.3 76466.4 Q 192541.1 75060.8 193537.2 74281 Q 193632.4 74209.6 193720.6 74143.8 L 193691.9 73986.3 Z M 195440.5 72825 L 196172 72825 L 196172 76336.9 L 195440.5 76336.9 L 195440.5 72825 Z M 197834.5 72825 L 197834.5 76336.9 L 197132.4 76336.9 L 197132.4 72825 L 197834.5 72825 Z M 199512.4 72825 L 199512.4 76336.9 L 198795.6 76336.9 L 198795.6 72825 L 199512.4 72825 Z M 200917.3 76064.6 L 200917.3 73011.2 Q 201311.4 72914.6 201447.2 72752.9 L 200071 71706.4 L 199368.9 72423.2 L 195626.7 72423.2 L 194050.3 71807.2 L 194050.3 76336.9 L 192559.3 76336.9 L 192674.1 76738.7 L 202135.3 76738.7 Q 202440.5 76742.2 202508.4 76509.1 Q 202225.6 76150 201870 75768.5 Q 201808.4 75701.3 201751 75639.7 Q 201417.1 75286.9 201389.8 75261.7 L 200917.3 76064.6 Z M 204271.7 63965.1 Q 204606.3 64406.8 204889.8 64994.1 Q 205173.3 65580.7 205260.8 66172.9 Q 205855.1 66603.4 206319.2 66388.5 Q 206735.7 66198.8 206812.7 65730.5 Q 206889.7 65261.5 206406.7 64753.3 Q 205878.9 64187.7 204386.5 63879 L 204271.7 63965.1 Z M 203139.1 67248.1 Q 203506.6 67647.1 203818.1 68199.4 Q 204129.6 68752.4 204228.3 69312.4 Q 204820.5 69699.5 205255.2 69460.8 Q 205638.1 69253.6 205687.1 68802.1 Q 205736.8 68349.9 205255.2 67892.1 Q 204720.4 67372 203253.9 67162 L 203139.1 67248.1 Z M 206823.2 67119.3 Q 205925.1 69236.8 205470.1 70303.6 Q 205137.6 71082.7 204956.3 71495 Q 204775 71908 204679.8 72103.3 Q 204553.8 72358.8 204443.9 72538 Q 204333.3 72754.3 204252.1 72801.2 Q 204170.9 72848.8 204028.1 72839 L 203397.4 72839 L 203397.4 73111.3 Q 203841.2 73143.5 204114.2 73326.9 Q 204362.7 73529.2 204397 74396.5 Q 204431.3 75263.1 204228.3 76423 Q 204322.8 76817.8 204540.5 76994.9 Q 204758.2 77172 205002.5 77168.5 Q 205516.3 77162.2 205839.7 76840.9 Q 206162.4 76519.6 206192.5 75964.5 Q 206210 75417.8 206107.8 75020.9 Q 206004.9 74624.7 205872.6 74304.1 Q 205673.1 73857.5 205633.2 73383.6 Q 205624.8 73110.6 205669.6 72778.1 Q 205714.4 72445.6 205791.4 72108.2 Q 205867.7 71730.9 206101.5 70804.8 Q 206168.7 70537.4 206243.6 70244.8 Q 206501.2 69235.4 206764.4 68223.2 Q 206917 67633.8 207038.8 67162 L 206823.2 67119.3 Z M 216112.9 70832.1 Q 216442.6 70835.6 216514.7 70602.5 Q 216089.1 70215.4 215615.2 69817.8 Q 215141.3 69420.2 214951.6 69269.7 Q 215483.6 69105.2 215550.1 68496.2 Q 215560.6 68360.4 215537.5 68212.7 Q 215457.7 67549.8 214593.2 66875.7 Q 214992.9 66562.8 215424.8 66191.1 Q 215856.7 65818.7 216170.3 65527.5 Q 216593.1 65517 216715.6 65356 L 215267.3 63951.1 L 214435.7 64796.7 L 208572.5 64796.7 Q 208457.7 64384.4 208256.8 63907.7 L 208085.3 63907.7 Q 208024.4 65334.3 207296.4 65728.4 Q 206807.1 66397.6 207009.4 66831.6 Q 207211 67265.6 207693.3 67316.7 Q 207705.2 67318.1 207717.1 67318.8 Q 208200.8 67358 208542.4 66864.5 Q 208884 66371.7 208672.6 65197.8 L 214536.5 65197.8 Q 214491 65487.6 214442 65814.5 Q 214371.3 66284.9 214306.9 66688.8 Q 213511 66183.4 212027.7 65914.6 L 211898.2 66015.4 Q 212568.1 66618.1 213208.6 67465.1 Q 213848.4 68312.1 214163.4 69140.2 Q 214557.5 69348.1 214866.2 69298.4 L 214019.9 70431 L 212414.8 70431 L 212414.8 68796.5 Q 212677.3 68753.1 212783.7 68658.6 Q 212890.1 68564.1 212916 68423.4 L 210780.3 68223.2 L 210780.3 70431 L 206909.3 70431 L 207024.1 70832.1 L 209934 70832.1 Q 209423 72321 208529.1 73758.8 Q 207635.9 75195.9 206436.1 76265.5 L 206579.6 76437.7 Q 207863.4 75748.2 208927.4 74860.6 Q 209990.7 73972.3 210780.3 72896.4 L 210780.3 77168.5 L 211095.3 77168.5 Q 211573.4 77151.7 211980.8 76978.8 Q 212388.2 76805.9 212414.8 76681.3 L 212414.8 71047 Q 213310.8 74463 215453.5 76179.4 Q 215844.1 74932 216815.7 74717.1 L 216858.4 74559.6 Q 215629.2 74043 214498.7 73077.7 Q 213368.2 72112.4 212643.7 70832.1 L 216112.9 70832.1 Z M 209948.7 65671 Q 209339 66854 208581.6 67938.3 Q 207823.5 69021.9 207138.9 69742.9 L 207282.4 69885.7 Q 208319.1 69409.7 209285.8 68716 Q 210252.5 68021.6 211095.3 67148 Q 211568.5 67273.3 211740.7 67033.2 L 209948.7 65671 Z M 230535 70029.2 Q 230864.7 70032.7 230936.8 69799.6 Q 230494.4 69394.3 229989 68982 Q 229821.7 68845.5 229676.8 68728.6 Q 229231.6 68373 229202.2 68352 L 228255.8 69613.4 L 222148.3 69613.4 L 222148.3 68853.9 Q 224046 68210.6 225740 67352.4 Q 227433.3 66493.5 228599.5 65657 Q 229051.7 65778.8 229158.8 65556.2 L 227280.7 64093.9 Q 226493.9 65020.7 225217.8 66114.1 Q 225065.2 66244.3 224908.4 66374.5 Q 223594.5 67467.9 222148.3 68394.7 L 222148.3 64309.5 Q 222636.2 64219.9 222650.2 63979.8 L 220371 63721.5 L 220371 69613.4 L 217690 69613.4 L 217818.8 70029.2 L 220371 70029.2 L 220371 74358.7 Q 220385 74622.6 220240.1 74808.8 Q 220095.2 74994.3 219625.5 75290.4 L 221059.1 77225.9 Q 221241.8 77090.1 221402.8 76824.8 Q 222774.8 75987.6 223786.3 75282 Q 224797.8 74576.4 225373.9 74115.1 L 225331.2 73971.6 Q 223600.1 74451.8 222148.3 74845.9 L 222148.3 70029.2 L 224012.4 70029.2 Q 224687.2 72625.5 226085.8 74234.8 Q 227483.7 75844.8 229503.2 76796.1 Q 229900.8 75559.2 231008.2 75376.5 L 231036.9 75204.3 Q 229060.1 74670.2 227359.8 73600.6 Q 227021 73381.5 226703.9 73136.5 Q 225109.3 71940.2 224284.7 70029.2 L 230535 70029.2 Z M 234018.9 74617 L 234018.9 70846.8 L 236198 70846.8 L 236198 74617 L 234018.9 74617 Z M 236198 66875.7 L 236198 70431 L 234018.9 70431 L 234018.9 66875.7 L 236198 66875.7 Z M 236814 65599.6 L 236054.5 66459.9 L 234807.1 66459.9 Q 235160.6 66026.6 235535.1 65535.2 Q 235909.6 65043.1 236198 64653.2 Q 236696.4 64664.4 236786 64309.5 L 234463.4 63750.2 Q 234406.7 64372.5 234323.4 65110.3 Q 234240.1 65848.1 234162.4 66459.9 L 234076.3 66459.9 L 232470.5 65785.8 L 232470.5 76623.9 L 232728.8 76623.9 Q 233260.8 76607.1 233631.8 76421.6 Q 234002.8 76235.4 234018.9 76079.3 L 234018.9 75018.1 L 236198 75018.1 L 236198 76150.7 L 236441.6 76150.7 Q 236890.3 76131.8 237312.4 75957.5 Q 237734.5 75782.5 237775.1 75677.5 L 237775.1 67133.3 Q 238215.4 67036.7 238377.1 66832.3 L 236814 65599.6 Z M 243839.2 65484.8 L 242935.5 66416.5 L 240656.3 66416.5 Q 241100.8 65603.1 241459.2 64681.9 Q 241942.9 64678.4 242018.5 64395.6 L 239753.3 63735.5 Q 239461.4 65412.7 238941.3 67005.9 Q 238421.2 68599.8 237817.8 69728.2 L 238004 69843 Q 239387.9 68671.2 240426.7 66832.3 L 243093.7 66832.3 Q 243029.3 70509.4 242867.6 72597.5 Q 242706.6 74685.6 242319.5 75061.5 Q 242140.3 75251.2 241788.9 75247.7 Q 241480.9 75244.9 240882.4 75204.3 Q 240283.9 75164.4 239738.6 75118.9 L 239724.6 75319.1 Q 240256.6 75417.8 240650.7 75580.9 Q 241045.5 75744 241244.3 75949.8 Q 241584.5 76301.2 241559.3 77125.8 Q 242262.8 77128.6 242767.5 76943.1 Q 243271.5 76757.6 243652.3 76351.6 Q 244188.5 75797.9 244418.8 73891.8 Q 244456.6 73587.3 244489.5 73243.6 Q 244684.8 71088.3 244742.2 67104.6 Q 245218.9 67033.2 245372.9 66832.3 L 243839.2 65484.8 Z M 238921.7 69427.2 Q 239367.6 70034.8 239719 70825.1 Q 240071.1 71615.4 240140.4 72394.5 Q 240752.2 72861.4 241224 72617.1 Q 241665.7 72390.3 241728 71808.6 Q 241790.3 71227.6 241226.1 70558.4 Q 240629 69844.4 239036.5 69341.1 L 238921.7 69427.2 Z M 253759.6 73154.7 L 253759.6 71061.7 L 255967.4 71061.7 L 255967.4 73154.7 L 253759.6 73154.7 Z M 249773.8 73154.7 L 249773.8 71061.7 L 252067.7 71061.7 L 252067.7 73154.7 L 249773.8 73154.7 Z M 252067.7 68653 L 252067.7 70659.9 L 249773.8 70659.9 L 249773.8 68653 L 252067.7 68653 Z M 255967.4 68653 L 255967.4 70659.9 L 253759.6 70659.9 L 253759.6 68653 L 255967.4 68653 Z M 258346.7 64796.7 L 257487.1 65671 L 253329.1 65671 Q 253826.1 65472.2 253930.4 64996.2 Q 254016.5 64587.4 253597.9 64198.9 Q 253123.3 63745.3 251709.3 63621.4 L 251594.5 63692.8 Q 251838.8 64014.8 252015.9 64481 Q 252193 64947.9 252211.2 65442.1 Q 252412.1 65610.1 252612.3 65671 L 248182.7 65671 Q 248111.3 65291.6 247953.1 64868.1 L 247752.9 64882.8 Q 247754.3 65464.5 247433.7 65932.8 Q 247113.1 66401.1 246706.4 66617.4 Q 246364.1 66779.8 246191.9 67063.3 Q 246019.7 67346.8 246118.4 67735.3 Q 246292 68134.3 246702.9 68226.7 Q 247113.1 68319.1 247480.6 68093.7 Q 247866.3 67856.4 248086.1 67346.8 Q 248305.2 66837.2 248240.1 66072.8 L 257601.2 66072.8 Q 257534.7 66514.5 257438.8 67002.4 Q 257342.2 67490.3 257242.8 67878.8 L 256598.1 67391.6 L 255823.9 68237.2 L 253759.6 68237.2 L 253759.6 66961.1 Q 254043.8 66917.7 254159.3 66814.8 Q 254274.1 66711.2 254290.2 66560 L 252067.7 66345.1 L 252067.7 68237.2 L 249874.6 68237.2 L 248154 67563.8 L 248154 74674.4 L 248397.6 74674.4 Q 248935.2 74655.5 249344 74467.9 Q 249752.8 74280.3 249773.8 74143.8 L 249773.8 73555.8 L 252067.7 73555.8 L 252067.7 77154.5 L 252383.4 77154.5 Q 252892.3 77135.6 253313 76948 Q 253733.7 76760.4 253759.6 76623.9 L 253759.6 73555.8 L 255967.4 73555.8 L 255967.4 74344.7 L 256253.7 74344.7 Q 256701 74325.8 257139.2 74153.6 L 257153.2 74148 Q 257587.9 73975.1 257629.9 73871.5 L 257629.9 68925.3 Q 258085.6 68818.2 258217.9 68624.3 L 257372.3 67979.6 Q 257871.4 67666 258406.2 67234.1 Q 258940.3 66802.2 259321.8 66402.5 Q 259723.6 66402.5 259866.4 66230.3 L 258346.7 64796.7 Z M 263651.3 63850.3 Q 263995.7 64228.3 264272.9 64770.1 Q 264550.8 65311.2 264626.4 65871.9 Q 265231.9 66259.7 265692.5 66021.7 Q 266122.3 65801.9 266194.4 65323.8 Q 266265.8 64845 265756.9 64388.6 Q 265216.5 63898.6 263751.4 63764.2 L 263651.3 63850.3 Z M 260999 70287.5 L 261113.8 70688.6 L 273285.4 70688.6 Q 273615.1 70688.6 273686.5 70473.7 Q 273248.3 70081 272754.8 69679.9 Q 272607.1 69559.5 272476.9 69455.2 Q 272038.7 69104.5 272009.3 69082.8 L 271077.6 70287.5 L 268009.5 70287.5 L 268009.5 68566.9 L 272095.4 68566.9 Q 272425.1 68570.4 272496.5 68338 Q 272063.9 67963.5 271583 67597.4 Q 271472.4 67512.7 271372.3 67437.1 Q 270935.5 67110.2 270905.4 67090.6 L 270045.1 68151.1 L 268009.5 68151.1 L 268009.5 66546 L 272969.7 66546 Q 273299.4 66549.5 273370.8 66316.4 Q 272925.6 65927.2 272434.9 65539.4 Q 272306.8 65437.2 272192.7 65346.9 Q 271752.4 65003.9 271722.3 64982.9 L 270805.3 66130.2 L 268654.9 66130.2 Q 269214.2 65756.4 269749.7 65334.3 Q 270285.2 64912.2 270661.8 64538.4 Q 271127.3 64570.6 271206.4 64280.8 L 269013.3 63621.4 Q 268879.6 64187.7 268665.4 64870.2 Q 268451.2 65552.7 268210.4 66130.2 L 261500.9 66130.2 L 261615.7 66546 L 266260.2 66546 L 266260.2 68151.1 L 262346.5 68151.1 L 262461.3 68566.9 L 266260.2 68566.9 L 266260.2 70287.5 L 260999 70287.5 Z M 273543 73082.6 Q 273880.4 73086.8 273958.8 72853.7 Q 273501.7 72469.4 272996.3 72076 Q 272847.2 71959.1 272715.6 71857.6 Q 272268.3 71512.5 272238.9 71491.5 L 271292.5 72681.5 L 267751.2 72681.5 Q 267859 72104.7 267923.4 71462.8 Q 268389.6 71398.4 268425.3 71075.7 L 266016.6 70903.5 Q 265995.6 71868.1 265844.4 72681.5 L 260684 72681.5 L 260798.8 73082.6 L 265759 73082.6 Q 265497.2 74151.5 264558.5 75014.6 Q 264322.6 75224.6 264031.4 75426.2 Q 262863.8 76249.4 260483.1 76953.6 L 260569.2 77183.2 Q 263403.5 76733.1 264908.5 76063.2 Q 266004 75581.6 266606 74982.4 Q 267425 74150.1 267665.1 73082.6 L 267794.6 73082.6 Q 268446.3 74838.2 269702.8 75760.1 Q 270959.3 76682 272869.6 77125.8 Q 273109.7 75878.4 274102.3 75534 L 274116.3 75376.5 Q 272164.7 75280.6 270581.3 74772.4 Q 268997.2 74264.9 268109.6 73082.6 L 273543 73082.6 Z M 285599.8 75935.8 L 282489 75935.8 L 282489 71563.6 L 286488.8 71563.6 Q 286800.3 71567.1 286875.9 71334 Q 286470.6 70953.9 286007.9 70559.8 Q 285883.3 70452.7 285772 70358.2 Q 285356.2 70008.2 285327.5 69986.5 L 284467.2 71161.8 L 276496.3 71161.8 L 276611.1 71563.6 L 280754.4 71563.6 L 280754.4 75935.8 L 275034 75935.8 L 275162.8 76336.9 L 287735.5 76336.9 Q 288037.2 76340.4 288122.6 76108 Q 287713.1 75716 287233.6 75315.6 Q 287088 75193.1 286959.9 75087.4 Q 286532.2 74738.1 286502.8 74717.1 L 285599.8 75935.8 Z M 279306.1 66717.5 Q 278900.8 67470 278067.8 68438.8 Q 277734.6 68824.5 277359.4 69204.6 Q 276424.2 70160.1 275421.1 70832.1 L 275521.2 70960.9 Q 277104.6 70496.8 278489.2 69721.2 Q 279873.1 68944.9 280768.4 68137.1 Q 281427.8 68162.3 281528.6 67864.8 L 279306.1 66717.5 Z M 286803.8 64925.5 L 285872.1 65871.9 L 282101.9 65871.9 Q 282636.7 65700.4 282806.8 65199.9 Q 282898.5 64915.7 282793.5 64615.4 Q 282688.5 64315.8 282333.6 64071.5 Q 281745.6 63638.9 280237.8 63650.1 L 280152.4 63735.5 Q 280536.7 64061.7 280784.5 64581.8 Q 281032.3 65101.2 281040.7 65642.3 Q 281284.3 65811 281528.6 65871.9 L 276954.8 65871.9 Q 276847.7 65423.9 276611.1 64911.5 L 276424.9 64925.5 Q 276492.1 65605.2 276218.4 66144.2 Q 275944.7 66683.9 275549.9 66932.4 Q 275206.2 67096.9 275023.5 67393 Q 274840.8 67689.1 274947.9 68079.7 Q 275118 68490.6 275514.2 68595.6 Q 275910.4 68700.6 276295.4 68466.8 Q 276706.3 68237.2 276931.7 67676.5 Q 277157.1 67115.8 277040.9 66273 L 285972.2 66273 Q 285917.6 66623 285837.8 67013.6 Q 285758.7 67403.5 285671.2 67764 Q 284509.9 67244.6 282489 67090.6 L 282374.2 67219.4 Q 283371 67780.1 284407 68615.9 Q 284590.4 68765 284768.2 68918.3 Q 285771.3 69779.3 286374 70645.9 Q 287137.7 70870.6 287482.8 70438 Q 287808.3 70031.3 287556.3 69358.6 Q 287292.4 68644.6 286159.1 67993.6 Q 286620.4 67684.9 287074.7 67325.1 Q 287528.3 66965.3 287850.3 66646.1 Q 288259.1 66639.1 288409.6 66459.9 L 286803.8 64925.5 Z M 290172.9 77154.5 L 290459.9 77154.5 Q 290976.5 77136.3 291380.4 76946.6 Q 291785 76756.2 291807.4 76609.2 L 291807.4 66172.9 Q 292132.2 66119 292258.9 66002.8 Q 292384.9 65886.6 292409.4 65714.4 L 290172.9 65498.8 L 290172.9 77154.5 Z M 291276.8 63735.5 Q 291778 64247.2 292239.3 64959.8 Q 292699.9 65672.4 292911.3 66387.8 Q 293553.2 66750.4 293976.7 66450.1 Q 294365.2 66176.4 294349.8 65622.7 Q 294335.1 65069.7 293709.3 64510.4 Q 293035.2 63901.4 291391.6 63621.4 L 291276.8 63735.5 Z M 294659.9 73097.3 L 294659.9 70688.6 L 297111.3 70688.6 L 297111.3 73097.3 L 294659.9 73097.3 Z M 297111.3 68036.3 L 297111.3 70287.5 L 294659.9 70287.5 L 294659.9 68036.3 L 297111.3 68036.3 Z M 298674.4 68179.8 Q 298996.4 68104.9 299104.2 67964.9 L 297699.3 66875.7 L 296997.2 67621.2 L 294717.3 67621.2 L 293111.5 67004.5 L 293111.5 74803.2 L 293384.5 74803.2 Q 293981.6 74785 294317.6 74617 Q 294654.3 74448.3 294659.9 74344.7 L 294659.9 73513.1 L 297111.3 73513.1 L 297111.3 74502.2 L 297383.6 74502.2 Q 297840.7 74480.5 298243.9 74276.1 Q 298647.1 74072.4 298674.4 73942.9 L 298674.4 68179.8 Z M 300666.6 64093.9 L 299921.1 64968.9 L 294703.3 64968.9 L 294832.1 65370 L 300064.6 65370 L 300064.6 74960.7 Q 300096.8 75269.4 299720.9 75276.4 Q 299512.3 75273.6 298985.9 75242.1 Q 298604.4 75219 298257.9 75195.9 Q 297778.4 75164.4 297742 75161.6 L 297742 75362.5 Q 298322.3 75458.4 298636.6 75600.5 Q 298950.9 75742.6 299132.9 75935.8 Q 299459.1 76301.2 299506 77097.1 Q 300824.1 76968.3 301262.3 76539.9 Q 301337.2 76472 301396.7 76396.4 Q 301735.5 75919.7 301699.1 75132.9 L 301699.1 65642.3 Q 302150.6 65535.2 302301.1 65341.3 L 300666.6 64093.9 Z M 305727.6 77068.4 Q 306587.9 77046 307157.7 76469.9 Q 307727.5 75893.8 307749.2 75032.8 Q 307727.5 74172.5 307157.7 73602.7 Q 306587.9 73032.9 305727.6 73011.2 Q 304866.6 73032.9 304290.5 73602.7 Q 303714.4 74172.5 303692 75032.8 Q 303714.4 75893.8 304290.5 76469.9 Q 304866.6 77046 305727.6 77068.4  Z M 305727.6 73527.1 Q 306367.4 73543.2 306791.6 73968.1 Q 307216.5 74393 307232.6 75032.8 Q 307216.5 75673.3 306791.6 76104.5 Q 306367.4 76535 305727.6 76552.5 Q 305077.3 76535 304650.3 76104.5 Q 304223.3 75673.3 304207.9 75032.8 Q 304223.3 74393 304650.3 73968.1 Q 305077.3 73543.2 305727.6 73527.1  Z " fill-rule="nonzero" style="fill:#525252;;fill-opacity:1;"/>
</svg>