<svg version="1.1" x="0" y="0" width="100%" height="100%" viewBox="0 0 816384 76390.4" xmlns="http://www.w3.org/2000/svg">
  <path d="M 20232.4 9555.5 Q 18006.8 10547.4 17094.2 12181.5 Q 16181.6 13816.9 16211.5 15466.6 Q 16231 16748.4 16834.2 17410.1 Q 17437.4 18071.8 18395.5 18075.7 Q 19310.7 18060.1 19882.7 17536.2 Q 20454.7 17012.3 20471.6 16158.2 Q 20426.1 14977.8 19637 14391.5 Q 18846.6 13805.2 17862.5 13602.4 Q 17936.6 12908.2 18624.3 11989.1 Q 19313.3 11070 20684.8 10355 L 20232.4 9555.5 Z M 26195.5 9555.5 Q 23989.4 10547.4 23080.7 12181.5 Q 22172 13816.9 22201.9 15466.6 Q 22221.4 16748.4 22824.6 17410.1 Q 23427.8 18071.8 24385.9 18075.7 Q 25301.1 18060.1 25873.1 17536.2 Q 26445.1 17012.3 26462 16158.2 Q 26412.6 14977.8 25619.6 14391.5 Q 24827.9 13805.2 23880.2 13602.4 Q 23934.8 12908.2 24618.6 11989.1 Q 25302.4 11070 26675.2 10355 L 26195.5 9555.5 Z M 35833.7 14161.4 L 35833.7 24625.1 L 33331.2 24625.1 L 33331.2 14161.4 L 35833.7 14161.4 Z M 35833.7 25397.3 L 35833.7 28085.7 L 36339.4 28085.7 Q 37136.3 28054.5 37926.7 27752.9 Q 38718.4 27452.6 38815.9 27261.5 L 38815.9 14641.1 Q 39620.6 14455.2 39907.9 14108.1 L 37005 11818.8 L 35567.2 13389.2 L 33437.8 13389.2 L 30429.6 12111.3 L 30429.6 29896.6 L 30882 29896.6 Q 31873.9 29862.8 32586.3 29510.5 Q 33297.4 29158.2 33331.2 28885.2 L 33331.2 25397.3 L 35833.7 25397.3 Z M 50184.4 19592.8 L 44006.8 19592.8 L 44006.8 14188.7 Q 46258.4 13983.3 48364.4 13672.6 Q 50469.1 13361.9 52021.3 13017.4 Q 53279.7 13456.8 53778.9 13017.4 L 50450.9 9981.9 Q 49378.4 10678.7 47731.3 11509.4 Q 46085.5 12340.1 44273.3 13096.7 L 40945.3 11899.4 L 40945.3 20578.2 Q 41011.6 23914 40300.5 27017.1 Q 40043.1 28045.4 39641.4 29037.3 Q 38494.8 32024.7 35513.9 34555.8 L 35754.4 34822.3 Q 39540 33038.7 41318.4 30616.8 Q 42994.1 28347 43518 25832.8 Q 44067.9 23150.9 44006.8 20552.2 L 44006.8 20339 L 47654.6 20339 L 47654.6 35008.2 L 48240.9 35008.2 Q 49469.4 34974.4 50154.5 34685.8 Q 50839.6 34397.2 50850 34263.3 L 50850 20339 L 54044.1 20339 Q 54643.4 20345.5 54763 19912.6 Q 53996 19192.4 53125 18447.5 Q 52883.2 18239.5 52667.4 18056.2 Q 51888.7 17398.4 51835.4 17356.8 L 50184.4 19592.8 Z M 62404.4 23720.3 Q 61266.9 26632.3 59569.1 29101 Q 57871.3 31569.7 56094.2 33145.3 L 56360.7 33437.8 Q 58874.9 32327.6 61123.9 30489.4 Q 63371.6 28649.9 65147.4 25983.6 Q 66045.7 26062.9 66265.4 25583.2 L 62404.4 23720.3 Z M 80109.1 22095.3 Q 80721.4 22103.1 80855.3 21670.2 Q 80019.4 20951.3 79066.5 20207.7 Q 78748 19956.8 78471.1 19742.3 Q 77635.2 19100.1 77580.6 19061.1 L 75769.7 21350.4 L 71217.1 21350.4 L 71217.1 15893 Q 71704.6 15812.4 71902.2 15633 Q 72101.1 15453.6 72149.2 15174.1 L 68049 14773.7 L 68049 21350.4 L 62325.1 21350.4 Q 62682.6 19715 63072.6 17679.2 Q 63144.1 17306.1 63214.3 16935.6 Q 63593.9 14914.1 63842.2 13442.5 Q 67353.5 13515.3 70853.1 13372.3 L 70975.3 13367.1 Q 74468.4 13220.2 77128.2 12936.8 Q 78365.8 13429.5 78884.5 13043.4 L 76008.9 9981.9 Q 74091.4 10668.3 71205.4 11346.9 Q 70823.2 11436.6 70431.9 11525 Q 67475.7 12190.6 64454.5 12671.6 L 60887.3 11846.1 Q 60784.6 13046 60457 15014.2 Q 60251.6 16253.1 60004.6 17538.8 Q 59612 19581.1 59236.3 21083.9 Q 58730.6 21376.4 58384.8 21670.2 L 61286.4 23347.2 L 62351.1 22095.3 L 68049 22095.3 L 68049 31334.4 Q 68108.8 31880.4 67409.4 31867.4 Q 66999.9 31860.9 65985.9 31797.2 Q 65194.2 31746.5 64480.5 31697.1 Q 63564 31632.1 63496.4 31626.9 L 63496.4 32000 Q 64631.3 32178.1 65226.7 32426.4 Q 65822.1 32673.4 66158.8 33011.4 Q 66529.3 33348.1 66694.4 33860.3 Q 66859.5 34372.5 66931 35088.8 Q 69473.8 34870.4 70339.6 34095.6 Q 70500.8 33961.7 70625.6 33809.6 Q 71284.7 32936 71217.1 31467 L 71217.1 22095.3 L 80109.1 22095.3 Z M 72708.2 24092.1 Q 74162.9 25782.1 75639.7 27914.1 Q 75756.7 28085.7 75872.4 28258.6 Q 77321.9 30406.2 78086.3 32479.7 Q 79450 33309.1 80284.6 32657.8 Q 81116.6 32010.4 80881.3 30489.4 Q 80647.3 28968.4 78809.1 27174.4 Q 76967 25376.5 72974.7 23906.2 L 72708.2 24092.1 Z M 90359.6 18075.7 Q 92585.2 17085.1 93497.8 15449.7 Q 94410.4 13815.6 94380.5 12164.6 Q 94361 10865.9 93757.8 10212 Q 93154.6 9556.8 92196.5 9555.5 Q 91281.3 9572.4 90709.3 10092.4 Q 90137.3 10612.4 90120.4 11445.7 Q 90165.9 12643 90955 13226.7 Q 91745.4 13810.4 92729.5 14028.8 Q 92655.4 14723 91967.7 15643.4 Q 91278.7 16562.5 89907.2 17277.5 L 90359.6 18075.7 Z M 84396.5 18075.7 Q 86602.6 17085.1 87511.3 15449.7 Q 88420 13815.6 88390.1 12164.6 Q 88370.6 10865.9 87767.4 10212 Q 87164.2 9556.8 86206.1 9555.5 Q 85290.9 9572.4 84718.9 10092.4 Q 84146.9 10612.4 84130 11445.7 Q 84179.4 12643 84972.4 13226.7 Q 85764.1 13810.4 86711.8 14028.8 Q 86657.2 14723 85973.4 15643.4 Q 85289.6 16562.5 83916.8 17277.5 L 84396.5 18075.7 Z M 119379.5 24970.9 Q 117476.3 25490.9 115652.4 25930.3 L 115652.4 18314.9 L 119272.9 18314.9 Q 119839.7 18321.4 119965.8 17889.8 Q 119383.4 17165.7 118678.8 16392.2 Q 118517.6 16214.1 118372 16054.2 Q 117724.6 15353.5 117676.5 15306.7 L 116318 17570 L 115652.4 17570 L 115652.4 11605.6 Q 116178.9 11522.4 116384.3 11319.6 Q 116591 11116.8 116637.8 10833.4 L 112590.9 10487.6 L 112590.9 17570 L 109288.9 17570 L 109476.1 18314.9 L 112590.9 18314.9 L 112590.9 26675.2 Q 110308.1 27200.4 109183.6 27447.4 L 110913.9 31041.9 Q 111385.8 30841.7 111579.5 30323 Q 114365.4 28700.6 116307.6 27424 Q 118251.1 26147.4 119460.1 25264.7 L 119379.5 24970.9 Z M 131840 18901.2 L 130295.6 20445.6 L 122788.1 20445.6 Q 124344.2 19260 126198 17735.1 Q 127141.8 16960.3 128040.1 16201.1 Q 129805.5 14710 130935.2 13683 Q 131502 13644 131940.1 13516.6 Q 132376.9 13387.9 132584.9 13150 L 129523.4 10621.5 L 128112.9 12164.6 L 118794.5 12164.6 L 119033.7 12910.8 L 127713.8 12910.8 Q 126342.3 14214.7 124430 15796.8 Q 124034.8 16125.7 123631.8 16453.3 Q 121688.3 18032.8 119991.8 19300.3 Q 119501.7 19365.3 119020.7 19500.5 Q 118539.7 19634.4 118208.2 19780 L 120631.4 22201.9 L 122041.9 21190.5 L 123080.6 21190.5 Q 122142 23990.7 120368.8 26421.7 Q 118595.6 28854 115998.2 30615.5 L 116264.7 30988.6 Q 123486.2 27626.8 125956.2 21190.5 L 126807.7 21190.5 Q 125915.9 25515.6 123449.8 28831.9 Q 120985 32148.2 116637.8 34316.6 L 116877 34662.4 Q 122480 32685.1 125557.1 29314.2 Q 128632.9 25943.3 129763.9 21190.5 L 130562.1 21190.5 Q 130150 30502.4 128938.4 31547.6 Q 128746 31704.9 128545.8 31773.8 Q 128344.3 31841.4 128032.3 31840.1 Q 127565.6 31836.2 126664.7 31776.4 Q 125763.8 31717.9 124998.1 31654.2 L 124970.8 32026 Q 125737.8 32188.5 126315 32439.4 Q 126893.5 32690.3 127180.8 33011.4 Q 127699.5 33677 127660.5 34982.2 Q 129736.6 35029 131014.5 33917.5 Q 132079.2 33041.3 132646 30169.6 Q 133211.5 27297.9 133437.7 21670.2 Q 134282.7 21529.8 134528.4 21190.5 L 131840 18901.2 Z M 153618.9 12431.1 L 153618.9 14508.5 L 143475 14508.5 L 143475 12431.1 L 153618.9 12431.1 Z M 143475 17382.8 L 143475 15280.7 L 153618.9 15280.7 L 153618.9 17382.8 L 143475 17382.8 Z M 143475 18155 L 153618.9 18155 L 153618.9 19247 L 154150.6 19247 Q 154957.9 19221 155795.1 18970.1 L 155854.9 18951.9 Q 156677.8 18699.7 156759.7 18555.4 L 156759.7 12964.1 Q 157585.2 12750.9 157851.7 12377.8 L 154790.2 10114.5 L 153352.4 11686.2 L 143660.9 11686.2 L 140386.2 10381 L 140386.2 19752.7 L 140838.6 19752.7 Q 141825.3 19724.1 142626.1 19410.8 Q 143426.9 19096.2 143475 18847.9 L 143475 18155 Z M 144166.6 23959.5 L 152872.7 23959.5 L 152872.7 26941.7 L 144166.6 26941.7 L 144166.6 23959.5 Z M 152872.7 27686.6 L 152872.7 28646 L 153431.7 28646 Q 154210.4 28622.6 155058 28383.4 Q 155110 28369.1 155160.7 28354.8 Q 155984.9 28111.7 156068.1 27953.1 L 156068.1 24465.2 Q 156879.3 24258.5 157132.8 23933.5 L 154044 21616.9 L 152606.2 23187.3 L 144326.5 23187.3 L 141025.8 21909.4 L 141025.8 28938.5 L 141450.9 28938.5 L 141691.4 28938.5 Q 140846.4 30293.1 139477.5 31703.6 Q 138108.6 33114.1 136525.2 34129.4 L 136712.4 34449.2 Q 139114.8 33903.2 141241.6 32821.6 Q 143368.4 31741.3 144672.3 30455.6 Q 145144.2 30511.5 145361.3 30412.7 Q 145578.4 30313.9 145631.7 30109.8 L 142702.8 28751.3 Q 143317.7 28583.6 143733.7 28369.1 Q 144149.7 28155.9 144166.6 28006.4 L 144166.6 27686.6 L 146935.6 27686.6 L 146935.6 31494.3 Q 146975.9 31906.4 146457.2 31920.7 Q 146065.9 31914.2 145213.1 31862.2 Q 144838.7 31840.1 144492.9 31818 Q 143701.2 31766 143634.9 31760.8 L 143634.9 32132.6 Q 144556.6 32258.7 145019.4 32509.6 Q 145480.9 32759.2 145685 33064.7 Q 146197.2 33683.5 146190.7 35061.5 Q 148580.1 34863.9 149349.7 34017.6 Q 149403 33964.3 149451.1 33908.4 Q 150145.3 33023.1 150077.7 31547.6 L 150077.7 27686.6 L 152872.7 27686.6 Z M 151515.5 29470.2 Q 153487.6 30632.4 154809.7 31970.1 Q 156133.1 33306.5 156627.1 34289.3 Q 157786.7 34840.5 158566.7 34255.5 Q 159346.7 33669.2 159219.3 32566.8 Q 159199.8 32445.9 159164.7 32325 Q 158902.1 31200.5 157147.1 30246.3 Q 155393.4 29292.1 151622.1 29124.4 L 151515.5 29470.2 Z M 156441.2 20658.8 L 149278.2 20658.8 Q 149981.5 20184.3 149936 19419.9 Q 149891.8 18911.6 149325 18546.3 Q 148521.6 17987.3 146270 18314.9 L 146084.1 18502.1 Q 146562.5 18838.8 147001.9 19430.3 Q 147441.3 20021.8 147601.2 20658.8 L 136260 20658.8 L 136473.2 21403.7 L 160115 21403.7 Q 160727.3 21410.2 160859.9 20977.3 Q 160096.8 20300 159236.2 19608.4 Q 159030.8 19442 158847.5 19295.1 Q 158066.2 18675 158011.6 18634.7 L 156441.2 20658.8 Z M 176727.7 23799.6 L 176727.7 16691.2 L 182718.1 16691.2 L 182718.1 23799.6 L 176727.7 23799.6 Z M 167462.6 23799.6 L 167462.6 16691.2 L 173399.7 16691.2 L 173399.7 23799.6 L 167462.6 23799.6 Z M 183970 14268 L 182478.9 15919 L 176727.7 15919 L 176727.7 11259.8 Q 177256.8 11176.6 177470 10973.8 Q 177684.5 10771 177713.1 10487.6 L 173399.7 10088.5 L 173399.7 15919 L 167703.1 15919 L 164161.9 14534.5 L 164161.9 27208.2 L 164640.3 27208.2 Q 165707.6 27170.5 166560.4 26794.8 Q 167413.2 26419.1 167462.6 26142.2 L 167462.6 24571.8 L 173399.7 24571.8 L 173399.7 35035.5 L 174012 35035.5 Q 175020.8 34996.5 175848.9 34592.2 Q 176678.3 34189.2 176727.7 33890.2 L 176727.7 24571.8 L 182718.1 24571.8 L 182718.1 26807.8 L 183277.1 26807.8 Q 184131.2 26781.8 185007.4 26504.9 Q 185062 26489.3 185114 26472.4 Q 185965.5 26191.6 186046.1 26009.6 L 186046.1 17250.2 Q 186871.6 17037 187138.1 16665.2 L 183970 14268 Z M 190226.9 38576.7 Q 192589 37456.1 193613.4 35594.5 Q 193655 35524.3 193694 35454.1 Q 194672.9 33578.2 194645.6 31733.5 Q 194622.2 30346.4 193941 29593.7 Q 193258.5 28841 192196.4 28831.9 Q 191146 28860.5 190545.4 29493.6 Q 189944.8 30126.7 189933.1 31014.6 Q 189996.8 32248.3 190876.9 32864.5 Q 190983.5 32947.7 191096.6 33023.1 Q 192027.4 33579.5 192915.3 33836.9 Q 192800.9 34782 192096.3 35846.7 Q 191393 36912.7 189800.5 37777.2 L 190226.9 38576.7 Z M 233570.2 19806 L 233570.2 23161.3 L 224917.4 23161.3 L 224917.4 19806 L 233570.2 19806 Z M 224917.4 27340.8 L 224917.4 23933.5 L 233570.2 23933.5 L 233570.2 27340.8 L 224917.4 27340.8 Z M 235487.7 14481.2 L 227419.9 14481.2 Q 228145.3 13117.5 228671.8 11792.8 Q 229200.9 11788.9 229429.7 11645.9 Q 229659.8 11502.9 229709.2 11259.8 L 225397.1 9955.9 Q 224844.6 12138.6 223852.7 14481.2 L 216185.3 14481.2 L 216397.2 15253.4 L 223532.9 15253.4 Q 222235.5 18123.8 220294.6 20784.9 Q 218353.7 23446 215758.9 25476.6 L 215998.1 25743.1 Q 219306.6 24159.7 221775.3 21856.1 L 221775.3 34982.2 L 222361.6 34982.2 Q 223552.4 34943.2 224228.4 34596.1 Q 224904.4 34247.7 224917.4 34050.1 L 224917.4 28113 L 233570.2 28113 L 233570.2 30908 Q 233630 31454 233011.2 31441 Q 232597.8 31437.1 231646.2 31390.3 Q 231050.8 31360.4 230510 31331.8 Q 229644.2 31285 229576.6 31281.1 L 229576.6 31626.9 Q 230578.9 31805 231121 32072.8 Q 231663.1 32340.6 231946.5 32718.9 Q 232538 33431.3 232612.1 34982.2 Q 235087.3 34757.3 235915.4 33937 Q 236049.3 33813.5 236157.2 33677 Q 236805.9 32768.3 236738.3 31281.1 L 236738.3 20392.3 Q 237670.4 20185.6 237962.9 19780 L 234768.8 17330.8 L 233277.7 19033.8 L 225237.2 19033.8 L 224624.9 18794.6 Q 225969.1 17064.3 226994.8 15253.4 L 239933.7 15253.4 Q 240565.5 15259.9 240678.6 14827 Q 239828.4 14095.1 238865.1 13338.5 Q 238534.9 13077.2 238248.9 12854.9 Q 237406.5 12203.6 237350.6 12164.6 L 235487.7 14481.2 Z M 245657.6 26302.1 L 245657.6 13655.7 L 247441.2 13655.7 L 247441.2 26302.1 L 245657.6 26302.1 Z M 249811.1 14054.8 Q 250643.1 13868.9 250956.4 13523.1 L 248399.3 11526.3 L 247174.7 12883.5 L 245764.2 12883.5 L 243287.7 11792.8 L 243287.7 30801.4 L 243660.8 30801.4 Q 244501.9 30774.1 245068.7 30476.4 Q 245635.5 30177.4 245657.6 29949.9 L 245657.6 27074.3 L 247441.2 27074.3 L 247441.2 29337.6 L 247814.3 29337.6 Q 248512.4 29306.4 249132.5 29004.8 Q 249751.3 28703.2 249811.1 28512.1 L 249811.1 14054.8 Z M 254097.2 24811 Q 254536.6 21869.1 254496.3 19167.7 L 255854.8 19167.7 Q 255861.3 22468.4 255827.5 24811 L 254097.2 24811 Z M 254496.3 12910.8 L 255854.8 12910.8 L 255854.8 18421.5 L 254496.3 18421.5 L 254496.3 12910.8 Z M 255562.3 12164.6 L 250156.9 12164.6 L 250396.1 12910.8 L 252021.1 12910.8 L 252021.1 18421.5 L 250370.1 18421.5 L 250609.3 19167.7 L 252021.1 19167.7 Q 252053.6 21928.9 251727.3 24811 L 250290.8 24811 L 250530 25557.2 L 251622 25557.2 Q 251281.4 27966.1 250406.5 30316.5 Q 249531.6 32665.6 247893.6 34795 L 248240.7 35035.5 Q 250804.3 33055.6 252140.7 30615.5 Q 253477.1 28176.7 253964.6 25557.2 L 255801.5 25557.2 Q 255746.9 28275.5 255577.9 29719.8 Q 255408.9 31165.4 255055.3 31547.6 Q 254790.1 31899.9 254203.8 31893.4 Q 253856.7 31890.8 253297.7 31857 Q 252738.7 31823.2 252177.1 31782.9 Q 252013.3 31771.2 251861.2 31760.8 L 251833.9 32159.9 Q 253165.1 32465.4 253698.1 33092 Q 254103.7 33630.2 254071.2 35008.2 Q 254979.9 35013.4 255788.5 34668.9 Q 256597.1 34324.4 257186 33570.4 Q 257764.5 32839.8 258019.3 30875.5 Q 258158.4 29817.3 258233.8 28249.5 Q 258310.5 26681.7 258341.7 24486 Q 258395 20362.4 258383.3 13363.2 Q 259255.6 13216.3 259528.6 12830.2 L 256998.8 10568.2 L 255562.3 12164.6 Z M 262430.2 28432.8 L 262430.2 12910.8 L 264055.2 12910.8 Q 263900.5 14507.2 263649.6 16450.7 Q 263602.8 16812.1 263554.7 17168.3 Q 263297.3 19085.8 263069.8 20392.3 Q 263998 21839.2 264390.6 23407 Q 264784.5 24974.8 264774.1 26542.6 Q 264771.5 27291.4 264644.1 27699.6 Q 264516.7 28109.1 264294.4 28298.9 Q 264115 28445.8 263814.7 28432.8 L 262430.2 28432.8 Z M 265252.5 10726.8 L 263842 12138.6 L 262536.8 12138.6 L 259874.4 11099.9 L 259874.4 35008.2 L 260326.8 35008.2 Q 261333 34975.7 261877.7 34662.4 Q 262423.7 34349.1 262430.2 34156.7 L 262430.2 28804.6 Q 263142.6 29004.8 263415.6 29363.6 Q 263574.2 29675.6 263641.8 30312.6 Q 263710.7 30949.6 263708.1 31520.3 Q 265716.6 31464.4 266536.9 30406.2 Q 267357.2 29346.7 267329.9 27234.2 Q 267345.5 25509.1 266487.5 23693 Q 265629.5 21878.2 263708.1 20311.7 Q 264498.5 18961 265288.9 17206 Q 266078 15449.7 266665.6 14039.2 Q 266763.1 13809.1 266850.2 13602.4 Q 267722.5 13608.9 267995.5 13256.6 L 265252.5 10726.8 Z M 270391.4 26088.9 Q 270843.8 25969.3 271136.3 25450.6 Q 275090.9 24216.9 277885.9 23257.5 Q 280680.9 22298.1 282558.1 21563.6 L 282504.8 21190.5 Q 282504.8 21190.5 282503.5 21190.5 Q 280574.3 21431 278724.4 21670.2 L 278724.4 16770.5 L 282212.3 16770.5 Q 282777.8 16778.3 282905.2 16345.4 Q 282269.5 15682.4 281528.5 14993.4 Q 281398.5 14871.2 281276.3 14759.4 Q 280587.3 14125 280535.3 14082.1 L 279204.1 16025.6 L 278724.4 16025.6 L 278724.4 11206.5 Q 279234 11124.6 279443.3 10933.5 Q 279652.6 10742.4 279682.5 10461.6 L 275822.8 10114.5 L 275822.8 22042 L 273879.3 22255.2 L 273879.3 14374.6 Q 274308.3 14313.5 274478.6 14161.4 Q 274647.6 14010.6 274677.5 13789.6 L 271242.9 13469.8 L 271242.9 22549 Q 269838.9 22715.4 268953.6 22760.9 L 270391.4 26088.9 Z M 273267 27554 L 290412.7 27554 Q 290991.2 27560.5 291131.6 27127.6 Q 290339.9 26439.9 289448.1 25739.2 Q 289215.4 25554.6 289006.1 25392.1 Q 288205.3 24770.7 288149.4 24731.7 L 286525.7 26807.8 L 273053.8 26807.8 L 273267 27554 Z M 288895.6 33251.9 L 269779.1 33251.9 L 270018.3 34022.8 L 292915.2 34022.8 Q 293540.5 34030.6 293687.4 33597.7 Q 292869.7 32881.4 291957.1 32146.9 Q 291695.8 31936.3 291465.7 31753 Q 290653.2 31108.2 290598.6 31067.9 L 288895.6 33251.9 Z M 292941.2 17996.4 L 292622.7 17996.4 Q 292296.4 19036.4 292010.4 19846.3 Q 291724.4 20656.2 291558 20977.3 Q 291298 21277.6 290839.1 21297.1 Q 290607.7 21316.6 290122.8 21320.5 Q 289637.9 21324.4 289028.2 21324.4 L 286898.8 21324.4 Q 286316.4 21329.6 286133.1 21200.9 Q 285949.8 21072.2 285966.7 20738.1 L 285966.7 16983.7 Q 287686.6 16636.6 289247.9 16158.2 Q 290809.2 15681.1 291929.8 15174.1 Q 293088.1 15479.6 293448.2 15067.5 L 290385.4 12776.9 Q 289680.8 13554.3 288495.2 14444.8 Q 287310.9 15335.3 285966.7 16132.2 L 285966.7 11153.2 Q 286811.7 10999.8 286818.2 10487.6 L 283010.5 10114.5 L 283010.5 21483 Q 282966.3 23010.5 283630.6 23579.9 Q 284293.6 24149.3 286205.9 24119.4 L 288735.7 24119.4 Q 291793.3 24123.3 292955.5 23683.9 Q 294116.4 23243.2 294060.5 22308.5 Q 294072.2 21897.7 293849.9 21616.9 Q 293627.6 21334.8 293021.8 21083.9 L 292941.2 17996.4 Z M 305295.1 10461.6 Q 305293.8 10823 305293.8 11184.4 Q 305352.3 14954.4 305010.4 18685.4 Q 304766 21076.1 304086.1 23407 Q 303404.9 25737.9 302077.6 27976.5 Q 300048.3 31470.9 295790.8 34636.4 L 296083.3 35008.2 Q 301106.5 32553.8 303729.9 29518.3 Q 306232.4 26632.3 307249 23425.2 Q 308311.1 20054.3 308490.5 16558.6 Q 308851.9 22038.1 310352.1 26226.7 Q 310864.3 27600.8 311557.2 28826.7 Q 313607.3 32568.1 317862.2 34875.6 Q 318400.4 32239.2 320817.1 31760.8 L 320870.4 31441 Q 315705.5 29531.3 313052.2 26265.7 Q 311406.4 24263.7 310462.6 21696.2 Q 308958.5 17503.7 308703.7 11632.9 Q 309214.6 11570.5 309435.6 11379.4 Q 309656.6 11188.3 309687.8 10886.7 L 305295.1 10461.6 Z M 339746.4 21962.7 L 338415.2 23240.6 L 335327.7 23240.6 L 335327.7 20552.2 L 340571.9 20552.2 Q 341137.4 20558.7 341264.8 20125.8 Q 340581 19477.1 339802.3 18840.1 Q 339685.3 18742.6 339574.8 18652.9 Q 338844.2 18061.4 338788.3 18022.4 L 337431.1 19780 L 335327.7 19780 L 335327.7 17090.3 L 341104.9 17090.3 Q 341683.4 17096.8 341823.8 16665.2 Q 341117.9 16010 340339.2 15369.1 Q 340233.9 15282 340135.1 15200.1 Q 339401.9 14600.8 339347.3 14561.8 L 337990.1 16318.1 L 335327.7 16318.1 L 335327.7 14455.2 Q 335836 14372 336049.2 14169.2 Q 336263.7 13965.1 336311.8 13683 L 332452.1 13337.2 L 332452.1 16318.1 L 327633 16318.1 L 327846.2 17090.3 L 332452.1 17090.3 L 332452.1 19780 L 328484.5 19780 L 328697.7 20552.2 L 332452.1 20552.2 L 332452.1 23240.6 L 327659 23240.6 L 327899.5 23986.8 L 332452.1 23986.8 L 332452.1 31014.6 L 332983.8 31014.6 Q 333847 30986 334564.6 30688.3 Q 335283.5 30390.6 335327.7 30163.1 L 335327.7 23986.8 L 338655.7 23986.8 Q 338616.7 25373.9 338512.7 26082.4 Q 338408.7 26792.2 338229.3 26941.7 Q 338075.9 27087.3 337643 27074.3 Q 337320.6 27074.3 336838.3 27054.8 Q 336356 27034 335993.3 26995 L 335993.3 27394.1 Q 336885.1 27594.3 337217.9 28032.4 Q 337576.7 28512.1 337536.4 29470.2 Q 338350.2 29478 338958.6 29363.6 Q 339565.7 29250.5 340040.2 28938.5 Q 340681.1 28519.9 340928.1 27496.8 Q 341175.1 26475 341237.5 24358.6 Q 341943.4 24245.5 342169.6 23933.5 L 339746.4 21962.7 Z M 326886.8 32106.6 L 326886.8 12776.9 L 342542.7 12776.9 L 342542.7 32106.6 L 326886.8 32106.6 Z M 343793.3 10327.7 L 342276.2 12006 L 327153.3 12006 L 323799.3 10621.5 L 323799.3 35035.5 L 324331 35035.5 Q 325364.5 34999.1 326108.1 34598.7 Q 326853 34199.6 326886.8 33864.2 L 326886.8 32851.5 L 342542.7 32851.5 L 342542.7 34848.3 L 343048.4 34848.3 Q 343962.3 34809.3 344785.2 34446.6 Q 345609.4 34082.6 345683.5 33864.2 L 345683.5 13309.9 Q 346509 13096.7 346775.5 12723.6 L 343793.3 10327.7 Z M 357185.9 11686.2 L 355694.8 13337.2 L 348958.2 13337.2 L 349198.7 14108.1 L 355908 14108.1 Q 355601.2 17203.4 354895.3 20339 Q 353072.7 18329.2 350210.1 16238.8 L 349837 16424.7 Q 350869.2 17992.5 351961.2 19799.5 Q 353051.9 21606.5 354043.8 23533.1 Q 353172.8 26302.1 351897.5 28772.1 Q 350622.2 31240.8 348851.6 33251.9 L 349171.4 33517.1 Q 351242.3 32033.8 352772.4 30248.9 Q 354303.8 28465.3 355375 26462 Q 356173.2 28319.7 356573.6 30056.5 Q 357926.9 31087.4 358661.4 30212.5 Q 359249 29509.2 359063.1 27867.3 Q 358852.5 25844.5 356945.4 22920.8 Q 358376.7 18767.3 358888.9 14615.1 Q 359338.7 14561.8 359568.8 14468.2 Q 359797.6 14374.6 359927.6 14161.4 L 357185.9 11686.2 Z M 373346.2 28166.3 L 373026.4 28166.3 Q 372741.7 29307.7 372488.2 30189.1 Q 372233.4 31071.8 372068.3 31413.7 Q 371957.8 31608.7 371872 31673.7 Q 371786.2 31738.7 371615.9 31733.5 L 370604.5 31733.5 L 369512.5 31733.5 Q 369182.3 31738.7 369077 31654.2 Q 368970.4 31568.4 368979.5 31334.4 L 368979.5 25636.5 Q 369173.2 25604 369326.6 25529.9 L 369326.6 26035.6 L 369858.3 26035.6 Q 370991.9 26004.4 371656.2 25723.6 Q 372319.2 25442.8 372334.8 25290.7 L 372334.8 13096.7 Q 372785.9 13035.6 373026.4 12904.3 Q 373268.2 12773 373399.5 12591 L 370657.8 10461.6 L 369220 12111.3 L 363123 12111.3 L 359980.9 10914 L 359980.9 26329.4 L 360486.6 26329.4 Q 361594.2 26302.1 362207.8 26035.6 Q 362820.1 25770.4 362829.2 25583.2 L 362829.2 12857.5 L 369326.6 12857.5 L 369326.6 24917.6 L 366956.7 24704.4 Q 367240.1 23043 367320.7 21154.1 Q 367401.3 19266.5 367418.2 17117.6 Q 367426 16465 367436.4 15786.4 Q 368313.9 15620 368394.5 15014.2 L 364640.1 14668.4 Q 364641.4 15573.2 364645.3 16433.8 Q 364728.5 20513.2 364410 23689.1 Q 364179.9 25739.2 363511.7 27469.5 Q 362844.8 29198.5 361527.9 30651.9 Q 359520.7 32898.3 355295.7 34609.1 L 355507.6 35061.5 Q 360374.8 33708.2 362876 31750.4 Q 365377.2 29792.6 366291.1 27180.9 L 366291.1 32026 Q 366245.6 33305.2 366709.7 33820 Q 367175.1 34334.8 368687 34316.6 L 370338 34316.6 Q 372449.2 34312.7 373335.8 33890.2 Q 374223.7 33467.7 374197.7 32665.6 Q 374212 32291.2 374061.2 32026 Q 373911.7 31762.1 373426.8 31547.6 L 373346.2 28166.3 Z M 380774.4 28432.8 Q 379774.7 28458.8 379140.3 29107.5 Q 378505.9 29757.5 378485.1 30722.1 Q 378505.9 31646.4 379140.3 32275.6 Q 379774.7 32906.1 380774.4 32932.1 Q 381771.5 32906.1 382395.5 32275.6 Q 383018.2 31646.4 383037.7 30722.1 Q 383018.2 29757.5 382395.5 29107.5 Q 381771.5 28458.8 380774.4 28432.8  Z M 379735.7 13230.6 Q 380008.7 13196.8 380322 13203.3 Q 381878.1 13222.8 382781.6 14065.2 Q 383683.8 14907.6 383703.3 16345.4 Q 383703.3 17464.7 383200.2 18378.6 Q 382697.1 19292.5 381679.2 20232.4 Q 380588.5 21256.8 380091.9 22003 Q 379595.3 22747.9 379603.1 23613.7 Q 379601.8 24175.3 379709.7 24738.2 Q 379817.6 25301.1 380055.5 26062.9 L 381120.2 26062.9 L 381120.2 24891.6 Q 381126.7 23942.6 381728.6 23300.4 Q 382329.2 22658.2 383443.3 21888.6 Q 383518.7 21832.7 383596.7 21776.8 Q 385541.5 20389.7 386302 19234 Q 387063.8 18077 387031.3 16531.3 Q 387015.7 14531.9 385593.5 13386.6 Q 384170 12241.3 381519.3 12217.9 Q 379076.6 12220.5 377593.3 13406.1 Q 376108.7 14591.7 375902 16930.4 Q 376407.7 17715.6 377393.1 17702.6 Q 378830.9 17736.4 379150.7 15972.3 L 379735.7 13230.6 Z M 3831.6 44826 Q 4684.4 46018.1 5493 47549.5 Q 6300.3 49079.6 6653.9 50551.2 Q 7839.5 51327.3 8655.9 50794.3 Q 9389.1 50319.8 9403.4 49249.9 Q 9416.4 48178.7 8317.9 46969.7 Q 7111.5 45624.2 4044.8 44693.4 L 3831.6 44826 Z M 17224.2 52015 L 17224.2 55023.2 L 14534.5 55023.2 L 14534.5 52015 L 17224.2 52015 Z M 22788.2 52015 L 22788.2 55023.2 L 19965.9 55023.2 L 19965.9 52015 L 22788.2 52015 Z M 19965.9 58777.6 L 19965.9 55769.4 L 22788.2 55769.4 L 22788.2 58777.6 L 19965.9 58777.6 Z M 14534.5 58777.6 L 14534.5 55769.4 L 17224.2 55769.4 L 17224.2 58777.6 L 14534.5 58777.6 Z M 14534.5 59549.8 L 17224.2 59549.8 L 17224.2 64394.9 L 17729.9 64394.9 Q 18775.1 64368.9 19357.5 64138.8 Q 19938.6 63908.7 19965.9 63782.6 L 19965.9 59549.8 L 22788.2 59549.8 L 22788.2 61866.4 Q 22848 62344.8 22389.1 62344.8 Q 22029 62338.3 21453.1 62291.5 Q 20878.5 62246 20817.4 62238.2 L 20817.4 62611.3 Q 21405 62715.3 21702.7 62933.7 Q 22000.4 63153.4 22148.6 63436.8 Q 22435.9 63969.8 22442.4 65220.4 Q 24551 65025.4 25167.2 64264.9 Q 25784.7 63505.7 25717.1 62131.6 L 25717.1 52520.7 Q 26542.6 52314 26807.8 51989 L 23880.2 49725.7 L 22521.7 51270.1 L 20498.9 51270.1 Q 21102.1 50950.3 21220.4 50370.5 Q 21340 49792 20684.8 49192.7 Q 21869.1 48765 23037.8 48247.6 Q 24206.5 47730.2 25051.5 47223.2 Q 25481.8 47207.6 25726.2 47142.6 Q 25971.9 47077.6 26142.2 46903.4 L 23347.2 44267 L 21670.2 45864.7 L 11099.9 45864.7 L 11340.4 46636.9 L 21429.7 46636.9 Q 20710.8 47635.3 19752.7 48633.7 Q 18922 48248.9 17503.7 47978.5 Q 16084.1 47708.1 13975.5 47622.3 L 13868.9 47968.1 Q 15561.5 48601.2 16644.4 49389 Q 17727.3 50176.8 18261.6 50950.3 Q 18468.3 51149.2 18714 51270.1 L 14668.4 51270.1 L 11605.6 50018.2 L 11605.6 64794 Q 10128.8 64209 9049.8 63063.7 L 9049.8 54837.3 Q 10135.3 54624.1 10381 54251 L 7266.2 51722.5 L 5802.4 53666 L 2766.9 53666 L 2926.8 54410.9 L 6227.5 54410.9 L 6227.5 63543.4 Q 5574.9 63965.9 4857.3 64452.1 Q 3682.1 65256.8 2687.6 65860 L 4817 69054.1 Q 5175.8 68808.4 5056.2 68441.8 Q 5435.8 67738.5 5888.2 66976.7 Q 6341.9 66216.2 6770.9 65515.5 Q 7353.3 64567.8 7692.6 63969.8 Q 8117.7 63230.1 8624.7 63969.8 Q 10037.8 66190.2 11976.1 67284.8 Q 12403.8 67521.4 12877 67712.5 Q 15028.5 68591.3 18662 68575.7 L 25877 68575.7 Q 25996.6 67599.4 26515.3 66888.3 Q 27034 66177.2 27953.1 65939.3 L 27953.1 65619.5 Q 25752.2 65736.5 23776.2 65772.9 Q 21800.2 65809.3 19620.1 65806.7 Q 17177.4 65831.4 15353.5 65646.8 Q 13529.6 65462.2 12164.6 65007.2 Q 13099.3 64939.6 13798.7 64618.5 Q 14499.4 64296.1 14534.5 64049.1 L 14534.5 59549.8 Z M 37751.2 50711.1 L 46803.1 50711.1 L 46803.1 61013.6 Q 46843.4 61559.6 46163.5 61546.6 Q 45755.3 61541.4 44737.4 61484.2 Q 43934 61440 43211.2 61395.8 Q 42290.8 61338.6 42223.2 61333.4 L 42223.2 61706.5 Q 43339.9 61884.6 43947 62131.6 Q 44555.4 62379.9 44912.9 62717.9 Q 45565.5 63396.5 45657.8 64794 Q 48161.6 64589.9 49001.4 63794.3 Q 49132.7 63679.9 49238 63552.5 Q 49906.2 62672.4 49838.6 61200.8 L 49838.6 50711.1 L 53885.5 50711.1 Q 54464 50717.6 54604.4 50284.7 Q 53966.1 49495.6 53193.9 48667.5 Q 52966.4 48423.1 52764.9 48209.9 Q 52070.7 47481.9 52021.3 47436.4 L 50504.2 49938.9 L 49838.6 49938.9 L 49838.6 45359 Q 50756.4 45239.4 50796.7 44640.1 L 46803.1 44267 L 46803.1 49938.9 L 37538 49938.9 L 37751.2 50711.1 Z M 39161.7 52627.3 Q 40169.2 53937.7 40686.6 55513.3 Q 41204 57087.6 41371.7 58297.9 Q 42307.7 59248.2 43164.4 58867.3 Q 44022.4 58485.1 44216.1 57334.6 Q 44217.4 57326.8 44217.4 57319 Q 44405.9 56164.6 43341.2 54804.8 Q 42276.5 53445 39374.9 52441.4 L 39161.7 52627.3 Z M 30748.1 44826 Q 31662 46015.5 32505.7 47539.1 Q 33349.4 49062.7 33704.3 50551.2 Q 34901.6 51320.8 35727.1 50785.2 Q 36481.1 50299 36488.9 49205.7 Q 36498 48113.7 35347.5 46893 Q 34104.7 45560.5 30988.6 44667.4 L 30748.1 44826 Z M 36072.9 54730.7 Q 36643.6 54629.3 36966 54477.2 Q 37287.1 54326.4 37457.4 54144.4 L 34236 51588.6 L 32718.9 53532.1 L 29444.2 53532.1 L 29604.1 54304.3 L 33145.3 54304.3 L 33145.3 63276.9 Q 32468 63691.6 31710.1 64172.6 Q 30347.7 65044.9 29205 65700.1 L 31334.4 69000.8 Q 31720.5 68748.6 31626.9 68335.2 Q 32102.7 67563 32677.3 66711.5 Q 33250.6 65860 33775.8 65102.1 Q 34359.5 64259.7 34688.4 63756.6 Q 34925 63390 35144.7 63366.6 Q 35365.7 63344.5 35620.5 63756.6 Q 37024.5 66001.7 38906.9 67136.6 Q 39348.9 67396.6 39841.6 67605.9 Q 41943.7 68508.1 45497.9 68495.1 L 52501 68495.1 Q 52599.8 67479.8 53102.9 66747.9 Q 53606 66017.3 54523.8 65779.4 L 54523.8 65459.6 Q 52417.8 65576.6 50489.9 65613 Q 48563.3 65649.4 46457.3 65646.8 Q 42527.4 65679.3 40158.8 65121.6 Q 40005.4 65085.2 39858.5 65044.9 Q 37562.7 64437.8 36072.9 62824.5 L 36072.9 54730.7 Z M 76409.3 66391.7 L 60780.7 66391.7 L 60780.7 52015 Q 61712.8 51848.6 61766.1 51242.8 L 57772.5 50843.7 L 57772.5 66045.9 Q 57166.7 66438.5 56759.8 66871.4 L 59955.2 68548.4 L 60940.6 67163.9 L 76409.3 67163.9 L 76409.3 69081.4 L 76994.3 69081.4 Q 77879.6 69048.9 78625.8 68727.8 Q 79370.7 68406.7 79417.5 68175.3 L 79417.5 51829.1 Q 79906.3 51748.5 80100 51573 Q 80293.7 51397.5 80322.3 51136.2 L 76409.3 50764.4 L 76409.3 66391.7 Z M 69885.9 62265.5 L 69885.9 56567.6 L 71856.7 56567.6 L 71856.7 62265.5 L 69885.9 62265.5 Z M 65306 56567.6 L 67330.1 56567.6 L 67330.1 62265.5 L 65306 62265.5 L 65306 56567.6 Z M 67330.1 50683.8 L 67330.1 55795.4 L 65306 55795.4 L 65306 50683.8 L 67330.1 50683.8 Z M 71856.7 50683.8 L 71856.7 55795.4 L 69885.9 55795.4 L 69885.9 50683.8 L 71856.7 50683.8 Z M 72309.1 64209 Q 73039.7 64180.4 73759.9 63902.2 Q 74480.1 63625.3 74572.4 63436.8 L 74572.4 51082.9 Q 75304.3 50890.5 75556.5 50577.2 L 72894.1 48527.1 L 71590.2 49938.9 L 65439.9 49938.9 L 62617.6 48740.3 L 62617.6 64635.4 L 63044 64635.4 Q 63935.8 64602.9 64604 64281.8 Q 65272.2 63960.7 65306 63729.3 L 65306 63037.7 L 71856.7 63037.7 L 71856.7 64209 L 72309.1 64209 Z M 76062.2 46557.6 L 56094.2 46557.6 L 56307.4 47302.5 L 80588.8 47302.5 Q 81181.6 47309 81333.7 46876.1 Q 80447.1 46142.9 79461.7 45392.8 Q 79130.2 45140.6 78842.9 44923.5 Q 77982.3 44278.7 77926.4 44241 L 76062.2 46557.6 Z M 102500.3 52121.6 L 102500.3 66073.2 L 99624.7 66073.2 L 99624.7 52121.6 L 102500.3 52121.6 Z M 87803.8 52121.6 L 90626.1 52121.6 L 90626.1 66073.2 L 87803.8 66073.2 L 87803.8 52121.6 Z M 96723.1 56194.5 L 93501.7 56194.5 L 93501.7 52121.6 L 96723.1 52121.6 L 96723.1 56194.5 Z M 93501.7 61892.4 L 96723.1 61892.4 L 96723.1 66073.2 L 93501.7 66073.2 L 93501.7 61892.4 Z M 93501.7 56940.7 L 96723.1 56940.7 L 96723.1 61120.2 L 93501.7 61120.2 L 93501.7 56940.7 Z M 102500.3 46690.2 L 82852.1 46690.2 L 83065.3 47436.4 L 92808.8 47436.4 Q 92726.9 48415.3 92619 49465.7 Q 92512.4 50516.1 92409.7 51376.7 L 88123.6 51376.7 L 84742.3 50098.8 L 84742.3 68974.8 L 85274 68974.8 Q 86463.5 68944.9 87127.8 68652.4 Q 87793.4 68358.6 87803.8 68149.3 L 87803.8 66818.1 L 102500.3 66818.1 L 102500.3 68761.6 L 103033.3 68761.6 Q 104264.4 68725.2 104972.9 68405.4 Q 105681.4 68085.6 105695.7 67910.1 L 105695.7 52414.1 Q 106166.3 52349.1 106427.6 52194.4 Q 106688.9 52039.7 106839.7 51855.1 L 103938.1 49565.8 L 102340.4 51376.7 L 93395.1 51376.7 Q 94289.5 50540.8 95248.9 49506 Q 96208.3 48471.2 97042.9 47436.4 L 106999.6 47436.4 Q 107592.4 47442.9 107745.8 47010 Q 106859.2 46291.1 105882.9 45538.4 Q 105554 45283.6 105269.3 45065.2 Q 104419.1 44413.9 104364.5 44373.6 L 102500.3 46690.2 Z M 116957.6 55609.5 Q 119846.2 53519.1 122015.9 50150.8 L 130402.2 50150.8 Q 130278.7 51098.5 130099.3 52171 Q 129921.2 53243.5 129736.6 54092.4 L 129975.8 54278.3 Q 130941.7 53585.4 131927.1 52614.3 Q 132911.2 51641.9 133597.6 50790.4 Q 134376.3 50770.9 134635 50470.6 L 131814 47782.2 L 130163 49433.2 L 122468.3 49433.2 Q 123353.6 47921.3 124119.3 46210.5 Q 125011.1 46224.8 125184 45678.8 L 121030.5 44187.7 Q 120327.2 47411.7 119153.3 50361.4 Q 117980.7 53311.1 116637.8 55396.3 L 116957.6 55609.5 Z M 114481.1 44108.4 Q 113638.7 48022.7 112203.5 51618.5 L 112146.3 51758.9 Q 110702 55341.7 109049.7 57872.8 L 109369.5 58086 Q 111086.8 56740.5 112563.6 54997.2 L 112563.6 69081.4 L 113123.9 69081.4 Q 114101.5 69045 114863.3 68708.3 Q 115626.4 68371.6 115705.7 68175.3 L 115705.7 52654.6 Q 116424.6 52520.7 116505.2 52147.6 L 114986.8 51588.6 Q 116537.7 49060.1 117729.8 45971.3 Q 118587.8 45971.3 118767.2 45412.3 L 114481.1 44108.4 Z M 120072.4 54438.2 Q 119516 57259.2 118581.3 59865.7 Q 117646.6 62472.2 116531.2 64315.6 L 116877 64554.8 Q 118723 63146.9 120275.2 61024 Q 121827.4 58901.1 122974 56194.5 Q 123886.6 56188 124038.7 55662.8 L 120072.4 54438.2 Z M 124279.2 65113.8 Q 124305.2 65613 123692.9 65593.5 Q 123299 65588.3 122344.8 65535 Q 121715.6 65499.9 121143.6 65464.8 Q 120272.6 65411.5 120205 65407.6 L 120205 65779.4 Q 121206 65957.5 121755.9 66225.3 Q 122307.1 66493.1 122628.2 66871.4 Q 123200.2 67590.3 123293.8 69107.4 Q 125739.1 68882.5 126546.4 68041.4 Q 126659.5 67932.2 126753.1 67812.6 Q 127408.3 66892.2 127340.7 65354.3 L 127340.7 51535.3 Q 128226 51376.7 128272.8 50816.4 L 124279.2 50444.6 L 124279.2 65113.8 Z M 128352.1 54863.3 Q 129351.8 56763.9 130246.2 59027.2 Q 131140.6 61290.5 131440.9 63410.8 Q 132677.2 64436.5 133532.6 63847.6 Q 134306.1 63317.2 134319.1 61913.2 Q 134333.4 60507.9 133164.7 58677.5 Q 131893.3 56663.8 128671.9 54704.7 L 128352.1 54863.3 Z M 142009.9 59603.1 L 142009.9 52414.1 L 146589.8 52414.1 L 146589.8 59603.1 L 142009.9 59603.1 Z M 149625.3 52919.8 Q 150450.8 52720.9 150716 52360.8 L 147735.1 50124.8 L 146323.3 51669.2 L 142143.8 51669.2 L 139029 50391.3 L 139029 63622.7 L 139481.4 63622.7 Q 140477.2 63590.2 141224.7 63253.5 Q 141972.2 62916.8 142009.9 62664.6 L 142009.9 60348 L 146589.8 60348 L 146589.8 62558 L 147095.5 62558 Q 147889.8 62530.7 148707.5 62256.4 Q 148719.2 62252.5 148732.2 62247.3 Q 149543.4 61971.7 149625.3 61785.8 L 149625.3 52919.8 Z M 155801.6 46423.7 L 135966.2 46423.7 L 136179.4 47195.9 L 153858.1 47195.9 L 153858.1 65034.5 Q 153898.4 65640.3 153139.2 65646.8 Q 152655.6 65641.6 151471.3 65580.5 Q 150865.5 65549.3 150237.6 65512.9 Q 149608.4 65477.8 149080.6 65446.6 Q 148041.9 65385.5 147974.3 65380.3 L 147974.3 65726.1 Q 149403 65945.8 150167.4 66229.2 Q 150931.8 66512.6 151381.6 66871.4 Q 152266.9 67583.8 152313.7 69134.7 Q 155035.9 68938.4 156018.7 68046.6 Q 156234.5 67865.9 156395.7 67660.5 Q 157118.5 66649.1 157053.5 65167.1 L 157053.5 47195.9 L 160300.9 47195.9 Q 160947 47202.4 161073.1 46770.8 Q 160208.6 46023.3 159233.6 45253.7 Q 158891.7 44983.3 158596.6 44751.9 Q 157746.4 44094.1 157691.8 44055.1 L 155801.6 46423.7 Z M 171084.4 46131.2 Q 172078.9 47780.9 172953.8 49775.1 Q 173830 51769.3 174145.9 53719.3 Q 175412.1 54686.5 176316.9 54149.6 Q 177185.3 53637.4 177220.4 52275 Q 177256.8 50912.6 175971.1 49235.6 Q 174639.9 47492.3 171349.6 45998.6 L 171084.4 46131.2 Z M 176567.8 57579 Q 174574.9 58667.1 172661.3 59679.8 Q 170747.7 60692.5 169113.6 61519.3 L 169113.6 47116.6 Q 170086 46950.2 170099 46344.4 L 165892.2 45945.3 L 165892.2 61839.1 Q 165918.2 62312.3 165649.1 62621.7 Q 165380 62929.8 164507.7 63383.5 L 166557.8 67057.3 Q 167083 66784.3 167489.9 65992.6 Q 170694.4 63483.6 173040.9 61352.9 Q 175387.4 59223.5 176755 57872.8 L 176567.8 57579 Z M 181201 45518.9 Q 181198.4 50104 180746 53814.2 Q 180380.7 56645.6 179353.7 59076.6 Q 178326.7 61508.9 176293.5 63630.5 Q 173650.6 66409.9 168580.6 68840.9 L 168793.8 69267.3 Q 173531 67890.6 176501.5 66088.8 Q 179472 64288.3 181094.4 62052.3 Q 182276.1 63475.8 183193.9 65164.5 Q 184111.7 66851.9 184475.7 68495.1 Q 185780.9 69346.6 186658.4 68743.4 Q 187482.6 68180.5 187483.9 66867.5 Q 187486.5 65555.8 186237.2 64027 Q 184920.3 62402 181706.7 61147.5 Q 183437 58257.6 183970 54674.8 Q 184501.7 51090.7 184635.6 46743.5 Q 185600.2 46583.6 185647 45945.3 L 181201 45518.9 Z M 199144.9 52813.2 Q 200152.4 51777.1 201149.5 50491.4 Q 202145.3 49204.4 203033.2 47888.8 Q 203938 47914.8 204123.9 47383.1 L 200450.1 45971.3 Q 200040.6 47752.3 199590.8 49548.9 Q 199142.3 51345.5 198773.1 52627.3 L 199144.9 52813.2 Z M 190067 46184.5 Q 190689.7 47452 191148.6 49019.8 Q 191606.2 50587.6 191611.4 52095.6 Q 192663.1 53030.3 193526.3 52590.9 Q 194267.3 52217.8 194449.3 51199.9 Q 194632.6 50182 193873.4 48889.8 Q 193012.8 47390.9 190359.5 46051.9 L 190067 46184.5 Z M 207532.5 47914.8 Q 208060.3 47851.1 208274.8 47652.2 Q 208488 47453.3 208516.6 47169.9 L 204603.6 46796.8 L 204603.6 59016.8 Q 203860 58288.8 203034.5 57585.5 Q 202875.9 57450.3 202730.3 57326.8 Q 201968.5 56687.2 201913.9 56648.2 L 200396.8 58751.6 L 198133.5 58751.6 Q 198227.1 57753.2 198240.1 56674.2 L 198240.1 54278.3 L 203245.1 54278.3 Q 203865.2 54284.8 203964 53851.9 Q 203229.5 53146 202409.2 52432.3 Q 202236.3 52281.5 202079 52143.7 Q 201328.9 51497.6 201275.6 51456 L 199757.2 53506.1 L 198240.1 53506.1 L 198240.1 45359 Q 198749.7 45277.1 198959 45086 Q 199168.3 44894.9 199198.2 44614.1 L 195204.6 44213.7 L 195204.6 53506.1 L 190146.3 53506.1 L 190359.5 54278.3 L 195204.6 54278.3 L 195204.6 56674.2 Q 195204.6 57753.2 195125.3 58751.6 L 189348.1 58751.6 L 189561.3 59522.5 L 195046 59522.5 Q 194714.5 62472.2 193354.7 64797.9 Q 191994.9 67123.6 189267.5 68894.2 L 189480.7 69188 Q 193569.2 67722.9 195571.2 65284.1 Q 197573.2 62845.3 198026.9 59522.5 L 203964 59522.5 Q 204403.4 59530.3 204603.6 59257.3 L 204603.6 63117 L 205135.3 63117 Q 206037.5 63091 206762.9 62805 Q 207489.6 62517.7 207532.5 62291.5 L 207532.5 47914.8 Z M 209928.4 44241 L 209928.4 65273.7 Q 209960.9 65785.9 209316.1 65779.4 Q 208936.5 65774.2 207990.1 65713.1 Q 207362.2 65672.8 206787.6 65632.5 Q 205921.8 65572.7 205854.2 65566.2 L 205854.2 65939.3 Q 206870.8 66117.4 207419.4 66385.2 Q 207966.7 66653 208304.7 67031.3 Q 208883.2 67737.2 208943 69241.3 Q 211409.1 68999.5 212229.4 68177.9 Q 212356.8 68059.6 212460.8 67928.3 Q 213110.8 67020.9 213043.2 65512.9 L 213043.2 45386.3 Q 214001.3 45252.4 214001.3 44640.1 L 209928.4 44241 Z M 226248.6 52761.2 Q 226936.3 51921.4 227613.6 50867.1 Q 228290.9 49812.8 228857.7 48793.6 Q 229683.2 48780.6 229869.1 48287.9 L 226834.9 47195.9 Q 226590.5 48628.5 226331.8 50075.4 Q 226073.1 51522.3 225849.5 52574 L 226248.6 52761.2 Z M 223027.2 53879.2 L 219619.9 53879.2 L 219831.8 54624.1 L 222282.3 54624.1 Q 221909.2 56904.3 221237.1 59084.4 Q 220565 61263.2 219513.3 63063.7 L 219859.1 63410.8 Q 221742.8 61566.1 223027.2 59283.3 L 223027.2 65167.1 L 223479.6 65167.1 Q 224214.1 65141.1 224814.7 64851.2 Q 225414 64561.3 225450.4 64315.6 L 225450.4 56488.3 Q 225965.2 57486.7 226344.8 58641.1 Q 226725.7 59795.5 226781.6 60853.7 Q 227718.9 61638.9 228420.9 61152.7 Q 228916.2 60812.1 229011.1 60049 Q 229106 59285.9 228570.4 58312.2 Q 227859.3 56958.9 225450.4 55688.8 L 225450.4 54624.1 L 229230.8 54624.1 Q 229796.3 54630.6 229922.4 54197.7 Q 229293.2 53560.7 228566.5 52914.6 Q 228466.4 52826.2 228374.1 52743 Q 227686.4 52137.2 227633.1 52095.6 L 226381.2 53879.2 L 225450.4 53879.2 L 225450.4 45838.7 Q 225956.1 45755.5 226158.9 45552.7 Q 226360.4 45348.6 226408.5 45066.5 L 223027.2 44720.7 L 223027.2 53879.2 Z M 219831.8 47488.4 Q 220208.8 48540.1 220441.5 49871.3 Q 220672.9 51202.5 220550.7 52414.1 Q 221343.7 53198 222010.6 52697.5 Q 222403.2 52405 222551.4 51775.8 Q 222699.6 51146.6 222452.6 50302.9 Q 222086 48917.1 220178.9 47383.1 L 219831.8 47488.4 Z M 236791.6 53373.5 L 232798 53373.5 L 232798 47968.1 Q 234489.3 47782.2 236139 47492.3 Q 237790 47202.4 239001.6 46876.1 Q 240153.4 47283 240625.3 46850.1 L 237431.2 44160.4 Q 236640.8 44820.8 235400.6 45635.9 Q 234160.4 46449.7 232851.3 47169.9 L 229949.7 46263.8 L 229949.7 55370.3 Q 229984.8 58182.2 229689.7 60934.3 Q 229395.9 63686.4 228352 66178.5 Q 227648.7 65546.7 227010.4 65013.7 Q 226372.1 64482 226329.2 64448.2 L 225077.3 66152.5 L 219460 66152.5 L 219460 46131.2 Q 220318 46018.1 220338.8 45465.6 L 216770.3 45119.8 L 216770.3 65886 Q 216277.6 66225.3 215944.8 66604.9 L 218794.4 68309.2 L 219645.9 66924.7 L 227952.9 66924.7 L 227978.9 66924.7 Q 227453.7 67963.4 226728.3 68921.5 L 227046.8 69188 Q 229969.2 67176.9 231192.5 64583.4 Q 232076.5 62763.4 232411.9 60827.7 Q 232856.5 58069.1 232798 55423.6 L 232798 54118.4 L 235167.9 54118.4 L 235167.9 69160.7 L 235673.6 69160.7 Q 236798.1 69125.6 237403.9 68821.4 Q 238009.7 68517.2 238016.2 68362.5 L 238016.2 54118.4 L 240412.1 54118.4 Q 241004.9 54124.9 241158.3 53692 Q 240419.9 53017.3 239580.1 52299.7 Q 239365.6 52116.4 239173.2 51953.9 Q 238415.3 51311.7 238362 51270.1 L 236791.6 53373.5 Z M 262510.8 57712.9 L 262510.8 65886 L 256413.8 65886 L 256413.8 55317 L 261205.6 55317 L 261205.6 56834.1 L 261738.6 56834.1 Q 262664.2 56809.4 263428.6 56554.6 Q 264194.3 56299.8 264241.1 56115.2 L 264241.1 47861.5 Q 265139.4 47695.1 265119.9 47169.9 L 261205.6 46822.8 L 261205.6 54570.8 L 256413.8 54570.8 L 256413.8 45518.9 Q 256940.3 45438.3 257143.1 45242 Q 257344.6 45047 257371.9 44746.7 L 253245.7 44347.6 L 253245.7 54570.8 L 248665.8 54570.8 L 248665.8 47808.2 Q 249176.7 47726.3 249397.7 47558.6 Q 249620 47392.2 249651.2 47169.9 L 245683.6 46796.8 L 245683.6 54251 Q 245171.4 54651.4 244859.4 55050.5 L 247920.9 56860.1 L 248853 55317 L 253245.7 55317 L 253245.7 65886 L 247415.2 65886 L 247415.2 58645 Q 248386.3 58478.6 248399.3 58032.7 L 244379.7 57632.3 L 244379.7 65593.5 Q 243874 65958.8 243528.2 66365.7 L 246643 68202.6 L 247601.1 66658.2 L 262510.8 66658.2 L 262510.8 68894.2 L 263042.5 68894.2 Q 263951.2 68868.2 264723.4 68601.7 Q 265496.9 68335.2 265546.3 68149.3 L 265546.3 58751.6 Q 266444.6 58577.4 266423.8 58086 L 262510.8 57712.9 Z M 274677.5 51588.6 Q 276155.6 49032.8 277313.9 45998.6 Q 278199.2 45977.8 278325.3 45439.6 L 273985.9 44134.4 Q 273198.1 47866.7 271921.5 51426.1 Q 271796.7 51777.1 271668 52121.6 Q 270361.5 55623.8 268927.6 58138 L 269246.1 58351.2 Q 270737.2 57034.3 272068.4 55396.3 L 272068.4 69134.7 L 272627.4 69134.7 Q 273566 69099.6 274304.4 68772 Q 275044.1 68443.1 275103.9 68228.6 L 275103.9 52574 Q 275855.3 52441.4 275929.4 52068.3 L 274677.5 51588.6 Z M 289613.2 50816.4 Q 289563.8 54589 289433.8 56375.2 Q 289303.8 58160.1 288974.9 58457.8 Q 288802 58684 288309.3 58671 Q 288011.6 58671 287564.4 58651.5 Q 287115.9 58630.7 286738.9 58591.7 L 286738.9 51855.1 L 289613.2 50816.4 Z M 292861.9 60907 L 292569.4 60907 Q 291656.8 63869.7 291104.3 64714.7 Q 290778 65126.8 290092.9 65141.1 Q 289624.9 65198.3 288791.6 65210 Q 287959.6 65223 286871.5 65220.4 L 283010.5 65220.4 Q 281952.3 65229.5 281553.2 64987.7 Q 281154.1 64745.9 281173.6 64155.7 L 281173.6 53825.9 L 283729.4 52919.8 L 283729.4 63516.1 L 284262.4 63516.1 Q 285168.5 63487.5 285930.3 63174.2 Q 286690.8 62859.6 286738.9 62611.3 L 286738.9 58990.8 Q 287624.2 59283.3 287989.5 59816.3 Q 288349.6 60475.4 288309.3 61892.4 Q 290099.4 61879.4 291210.9 60987.6 Q 291902.5 60432.5 292196.3 58932.3 Q 292313.3 58339.5 292388.7 57530.9 Q 292575.9 55461.3 292595.4 51349.4 Q 293407.9 51229.8 293660.1 50869.7 L 290892.4 48607.7 L 289348 50098.8 L 289188.1 50150.8 L 286738.9 51029.6 L 286738.9 45598.2 Q 287266.7 45515 287481.2 45312.2 Q 287694.4 45109.4 287723 44826 L 283729.4 44454.2 L 283729.4 52095.6 L 281173.6 53000.4 L 281173.6 48021.4 Q 282099.2 47861.5 282105.7 47302.5 L 278139.4 46876.1 L 278139.4 54065.1 L 275317.1 55076.5 L 275822.8 55742.1 L 278139.4 54916.6 L 278139.4 64981.2 Q 278109.5 66927.3 279176.8 67577.3 Q 280245.4 68226 282771.3 68175.3 L 286632.3 68175.3 Q 290603.8 68185.7 292297.7 67838.6 Q 292832 67729.4 293205.1 67582.5 Q 294366 67104.1 294299.7 66125.2 Q 294314 65694.9 294022.8 65393.3 Q 293732.9 65093 292968.5 64821.3 L 292861.9 60907 Z M 300316.1 44108.4 Q 299605 47918.7 298373.9 51513.2 Q 298320.6 51673.1 298264.7 51830.4 Q 297019.3 55398.9 295603.6 57979.4 L 295923.4 58191.3 Q 297401.5 56940.7 298719.7 55289.7 L 298719.7 69107.4 L 299304.7 69107.4 Q 300261.5 69073.6 301009 68744.7 Q 301756.5 68415.8 301834.5 68202.6 L 301834.5 52494.7 Q 302566.4 52360.8 302660 51989 L 301248.2 51482 Q 302653.5 48973 303697.4 45945.3 Q 304610 45931 304763.4 45359 L 300316.1 44108.4 Z M 305988 44746.7 Q 306647.1 45543.6 307262 46594 Q 307876.9 47644.4 308198 48740.3 L 304469.6 48367.2 L 304469.6 69107.4 L 305002.6 69107.4 Q 305960.7 69077.5 306700.4 68748.6 Q 307438.8 68418.4 307479.1 68149.3 L 307479.1 49619.1 Q 308151.2 49512.5 308383.9 49246 Q 309461.6 49880.4 310187 49342.2 Q 310779.8 48906.7 310799.3 48055.2 Q 310820.1 47203.7 309969.9 46297.6 Q 308962.4 45195.2 306227.2 44586.8 L 305988 44746.7 Z M 317702.3 45572.2 L 316343.8 47169.9 L 311312.8 47169.9 L 311552 47942.1 L 316610.3 47942.1 L 316610.3 65220.4 Q 316670.1 65813.2 315972 65806.7 Q 315567.7 65801.5 314586.2 65749.5 Q 313888.1 65713.1 313256.3 65676.7 Q 312364.5 65624.7 312296.9 65619.5 L 312296.9 65966.6 Q 313339.5 66144.7 313921.9 66408.6 Q 314504.3 66672.5 314826.7 67031.3 Q 315466.3 67703.4 315545.6 69134.7 Q 317980.5 68907.2 318781.3 68099.9 Q 318887.9 68001.1 318976.3 67894.5 Q 319632.8 67017 319565.2 65566.2 L 319565.2 48447.8 Q 320384.2 48234.6 320684.5 47861.5 L 317702.3 45572.2 Z M 326355.1 64422.2 L 326355.1 57420.4 L 330402 57420.4 L 330402 64422.2 L 326355.1 64422.2 Z M 330402 50045.5 L 330402 56648.2 L 326355.1 56648.2 L 326355.1 50045.5 L 330402 50045.5 Z M 331546 47675.6 L 330135.5 49273.3 L 327818.9 49273.3 Q 328475.4 48468.6 329170.9 47556 Q 329866.4 46642.1 330402 45918 Q 331327.6 45938.8 331494 45279.7 L 327180.6 44241 Q 327075.3 45396.7 326920.6 46766.9 Q 326765.9 48137.1 326621.6 49273.3 L 326461.7 49273.3 L 323479.5 48021.4 L 323479.5 68149.3 L 323959.2 68149.3 Q 324947.2 68118.1 325636.2 67773.6 Q 326325.2 67427.8 326355.1 67137.9 L 326355.1 65167.1 L 330402 65167.1 L 330402 67270.5 L 330854.4 67270.5 Q 331687.7 67235.4 332471.6 66911.7 Q 333255.5 66586.7 333330.9 66391.7 L 333330.9 50523.9 Q 334148.6 50344.5 334448.9 49964.9 L 331546 47675.6 Z M 344592.8 47462.4 L 342914.5 49192.7 L 338681.7 49192.7 Q 339507.2 47682.1 340172.8 45971.3 Q 341071.1 45964.8 341211.5 45439.6 L 337004.7 44213.7 Q 336462.6 47328.5 335496.7 50287.3 Q 334530.8 53247.4 333410.2 55343 L 333756 55556.2 Q 336326.1 53380 338255.3 49964.9 L 343208.3 49964.9 Q 343088.7 56793.8 342788.4 60671.7 Q 342489.4 64549.6 341770.5 65247.7 Q 341437.7 65600 340785.1 65593.5 Q 340213.1 65588.3 339101.6 65512.9 Q 337990.1 65438.8 336977.4 65354.3 L 336951.4 65726.1 Q 337939.4 65909.4 338671.3 66212.3 Q 339404.5 66515.2 339773.7 66897.4 Q 340405.5 67550 340358.7 69081.4 Q 341665.2 69086.6 342602.5 68742.1 Q 343538.5 68397.6 344245.7 67643.6 Q 345241.5 66615.3 345669.2 63075.4 Q 345739.4 62509.9 345800.5 61871.6 Q 346163.2 57868.9 346269.8 50470.6 Q 347155.1 50338 347441.1 49964.9 L 344592.8 47462.4 Z M 335460.3 54784 Q 336288.4 55912.4 336941 57380.1 Q 337594.9 58847.8 337723.6 60294.7 Q 338859.8 61161.8 339736 60708.1 Q 340556.3 60286.9 340672 59206.6 Q 340787.7 58127.6 339739.9 56884.8 Q 338631 55558.8 335673.5 54624.1 L 335460.3 54784 Z M 357185.9 59123.4 L 357185.9 56035.9 L 365439.6 56035.9 L 365439.6 58617.7 L 364879.3 59123.4 L 357185.9 59123.4 Z M 365439.6 48473.8 L 365439.6 51482 L 357185.9 51482 L 357185.9 48473.8 L 365439.6 48473.8 Z M 357185.9 52254.2 L 365439.6 52254.2 L 365439.6 55263.7 L 357185.9 55263.7 L 357185.9 52254.2 Z M 370869.7 52068.3 Q 369911.6 53672.5 368633.7 55236.4 L 368633.7 49006.8 Q 369472.2 48806.6 369751.7 48447.8 L 366636.9 45998.6 L 365145.8 47701.6 L 361072.9 47701.6 Q 361612.4 47184.2 362231.2 46577.1 Q 362850 45970 363308.9 45491.6 Q 364187.7 45425.3 364347.6 44800 L 359767.7 44108.4 Q 359726.1 44432.1 359679.3 44807.8 Q 359588.3 45539.7 359486.9 46311.9 Q 359385.5 47084.1 359289.3 47701.6 L 357531.7 47701.6 L 354017.8 46397.7 L 354017.8 59123.4 L 349943.6 59123.4 L 350182.8 59869.6 L 364027.8 59869.6 Q 361080.7 62404.6 357369.2 64522.3 Q 353656.4 66638.7 349331.3 68096 L 349491.2 68469.1 Q 354303.8 67472 358293.5 65766.4 Q 362283.2 64060.8 365439.6 61866.4 L 365439.6 65540.2 Q 365448.7 65840.5 365322.6 65996.5 Q 365196.5 66151.2 364826 66152.5 Q 364408.7 66147.3 363419.4 66087.5 Q 362720 66045.9 362088.2 66004.3 Q 361193.8 65944.5 361126.2 65939.3 L 361126.2 66312.4 Q 362224.7 66474.9 362803.2 66718 Q 363381.7 66961.1 363682 67244.5 Q 364031.7 67526.6 364181.2 68008.9 Q 364330.7 68492.5 364400.9 69134.7 Q 366929.4 68933.2 367783.5 68197.4 Q 367910.9 68096 368014.9 67981.6 Q 368701.3 67167.8 368633.7 65753.4 L 368633.7 59417.2 Q 371196 57173.4 373000.4 54810 Q 373905.2 55103.8 374171.7 54677.4 L 370869.7 52068.3 Z M 382638.6 56407.7 Q 387443.4 53472.3 389773 46903.4 Q 390664.8 46916.4 390837.7 46370.4 L 386764.8 45066.5 Q 386207.1 48393.2 385043.6 51266.2 Q 383881.4 54139.2 382344.8 56168.5 L 382638.6 56407.7 Z M 381414 51535.3 Q 382931.1 49060.1 384049.1 46024.6 Q 384927.9 46005.1 385087.8 45465.6 L 380695.1 44134.4 Q 379889.1 47944.7 378507.2 51509.3 Q 378418.8 51739.4 378327.8 51966.9 Q 376921.2 55491.2 375343 58005.4 L 375635.5 58218.6 Q 377306 56913.4 378777.6 55210.4 L 378777.6 69134.7 L 379363.9 69134.7 Q 380302.5 69099.6 381057.8 68772 Q 381811.8 68443.1 381892.4 68228.6 L 381892.4 52494.7 Q 382611.3 52381.6 382691.9 51989 L 381414 51535.3 Z M 394299.6 55157.1 L 384688.7 55157.1 L 384900.6 55929.3 L 387722.9 55929.3 Q 387707.3 58356.4 387135.3 60995.4 Q 386832.4 62273.3 386260.4 63560.3 Q 385134.6 66221.4 382291.5 68761.6 L 382585.3 69107.4 Q 386329.3 67074.2 388097.3 64574.3 Q 389297.2 62920.7 389899.1 61174.8 Q 390771.4 58531.9 390918.3 55929.3 L 394538.8 55929.3 Q 394406.2 60502.7 394112.4 62914.2 Q 393819.9 65325.7 393288.2 65806.7 Q 393015.2 66065.4 392462.7 66045.9 Q 392018.1 66043.3 391184.8 65996.5 Q 390350.2 65948.4 389666.4 65886 L 389640.4 66259.1 Q 391151 66578.9 391743.8 67217.2 Q 392215.7 67823 392168.9 69107.4 Q 394212.5 69141.2 395417.6 68096 Q 396318.5 67340.7 396763.1 64965.6 Q 396826.8 64627.6 396884 64250.6 Q 397279.2 61589.5 397414.4 56407.7 Q 398259.4 56255.6 398506.4 55902 L 395816.7 53638.7 L 394299.6 55157.1 Z M 393075 44134.4 L 392808.5 44267 Q 393478 48450.4 394944.4 51236.3 Q 396412.1 54022.2 398798.9 55769.4 Q 399103.1 54868.5 399740.1 54137.9 Q 400378.4 53407.3 401062.2 53107 L 401088.2 52813.2 Q 398906.8 51873.3 397015.3 50144.3 Q 395122.5 48415.3 394060.4 46157.2 Q 394711.7 45412.3 395044.5 44906.6 L 393075 44134.4 Z M 405934.6 61599.9 L 405934.6 47914.8 L 408223.9 47914.8 L 408223.9 61599.9 L 405934.6 61599.9 Z M 409341.9 45678.8 L 407957.4 47169.9 L 406067.2 47169.9 L 403218.9 45971.3 L 403218.9 66551.6 L 403671.3 66551.6 Q 404616.4 66519.1 405261.2 66182.4 Q 405907.3 65845.7 405934.6 65593.5 L 405934.6 62372.1 L 408223.9 62372.1 L 408223.9 65113.8 L 408676.3 65113.8 Q 409483.6 65077.4 410216.8 64721.2 Q 410950 64365 411018.9 64128.4 L 411018.9 48394.5 Q 411844.4 48174.8 412110.9 47835.5 L 409341.9 45678.8 Z M 418792.9 61360.7 L 411551.9 61360.7 L 411765.1 62131.6 L 421962.3 62131.6 Q 422527.8 62139.4 422653.9 61706.5 Q 422007.8 61020.1 421233 60320.7 Q 421069.2 60171.2 420919.7 60037.3 Q 420204.7 59404.2 420151.4 59363.9 L 418792.9 61360.7 Z M 424970.5 55609.5 L 423505.4 57073.3 L 422973.7 57073.3 Q 423231.1 55042.7 423453.4 52640.3 Q 423531.4 51799.2 423601.6 50982.8 Q 423800.5 48644.1 423905.8 47036 Q 424744.3 46863.1 425023.8 46530.3 L 422094.9 44294.3 L 420923.6 45785.4 L 412243.5 45785.4 L 412484 46530.3 L 421136.8 46530.3 Q 421018.5 48662.3 420780.6 51414.4 Q 420763.7 51601.6 420746.8 51791.4 Q 420499.8 54556.5 420151.4 57073.3 L 415918.6 57073.3 Q 416168.2 55432.7 416398.3 53424.2 Q 416426.9 53166.8 416455.5 52910.7 Q 416677.8 50912.6 416796.1 49459.2 Q 417286.2 49450.1 417512.4 49275.9 Q 417737.3 49101.7 417808.8 48872.9 L 414028.4 48128 Q 413990.7 49304.5 413807.4 51236.3 Q 413708.6 52288 413582.5 53378.7 Q 413352.4 55383.3 413096.3 56887.4 Q 412597.1 57192.9 412217.5 57499.7 L 414959.2 59150.7 L 416051.2 57819.5 L 423718.6 57819.5 Q 423543.1 61248.9 423225.9 63270.4 Q 422910 65291.9 422414.7 65726.1 Q 422114.4 65986.1 421535.9 65966.6 Q 421032.8 65962.7 419914.8 65899 Q 418798.1 65836.6 417834.8 65753.4 L 417808.8 66125.2 Q 418681.1 66290.3 419389.6 66549 Q 420096.8 66807.7 420471.2 67110.6 Q 421090 67769.7 421030.2 69028.1 Q 422158.6 69028.1 422967.2 68785 Q 423775.8 68540.6 424384.2 68042.7 Q 425331.9 67284.8 425828.5 64904.5 Q 426326.4 62524.2 426514.9 58271.9 Q 427326.1 58152.3 427579.6 57792.2 L 424970.5 55609.5 Z M 434022.4 62532 Q 433022.7 62558 432388.3 63206.7 Q 431753.9 63856.7 431733.1 64821.3 Q 431753.9 65745.6 432388.3 66374.8 Q 433022.7 67005.3 434022.4 67031.3 Q 435019.5 67005.3 435643.5 66374.8 Q 436266.2 65745.6 436285.7 64821.3 Q 436266.2 63856.7 435643.5 63206.7 Q 435019.5 62558 434022.4 62532  Z M 432983.7 47329.8 Q 433256.7 47296 433570 47302.5 Q 435126.1 47322 436029.6 48164.4 Q 436931.8 49006.8 436951.3 50444.6 Q 436951.3 51563.9 436448.2 52477.8 Q 435945.1 53391.7 434927.2 54331.6 Q 433836.5 55356 433339.9 56102.2 Q 432843.3 56847.1 432851.1 57712.9 Q 432849.8 58274.5 432957.7 58837.4 Q 433065.6 59400.3 433303.5 60162.1 L 434368.2 60162.1 L 434368.2 58990.8 Q 434374.7 58041.8 434976.6 57399.6 Q 435577.2 56757.4 436691.3 55987.8 Q 436766.7 55931.9 436844.7 55876 Q 438789.5 54488.9 439550 53333.2 Q 440311.8 52176.2 440279.3 50630.5 Q 440263.7 48631.1 438841.5 47485.8 Q 437418 46340.5 434767.3 46317.1 Q 432324.6 46319.7 430841.3 47505.3 Q 429356.7 48690.9 429150 51029.6 Q 429655.7 51814.8 430641.1 51801.8 Q 432078.9 51835.6 432398.7 50071.5 L 432983.7 47329.8 Z " fill-rule="nonzero" style="fill:#333333;;fill-opacity:1;"/>
</svg>