<svg version="1.1" x="0" y="0" width="100%" height="100%" viewBox="0 0 55961.6 227532.8" xmlns="http://www.w3.org/2000/svg">
  <path d="M 18460.9 44519.5 Q 18187.3 44519.5 18187.3 44401.7 Q 18187.3 44285.8 18421 44090.1 Q 20873.9 42068.5 23051.3 39188.1 Q 25230.6 36309.6 26592.9 33702.8 L 24491.5 34052.4 Q 24179.9 34130.3 23986.1 34130.3 Q 23480.7 34130.3 22935.4 33740.8 L 22468 33313.3 Q 20796 36543.3 20444.5 37320.4 Q 19589.5 39032.3 18732.6 40647.3 Q 17877.6 42262.3 17098.6 43428.9 Q 16709.1 44052.1 16047.9 44052.1 Q 15698.3 44052.1 15346.8 43818.4 Q 14803.4 43506.8 13965.5 42786.7 Q 13129.5 42068.5 12546.2 41445.3 Q 12118.7 40939.9 12118.7 40666.3 Q 12118.7 40316.7 12702 39967.1 Q 13441.1 39615.6 13809.7 39129.2 Q 14180.2 38642.8 14336 37865.7 Q 14841.4 35686.4 15134 32671.1 Q 15424.7 29655.8 15424.7 27592.4 Q 15424.7 27360.6 15386.7 27282.7 Q 15346.8 27204.8 15191 27242.8 Q 14685.6 27360.6 14277.1 27514.5 Q 13868.6 27670.3 13169.4 28021.8 Q 12662.1 28293.5 12156.7 28293.5 Q 11767.2 28293.5 11455.6 28137.7 Q 10990.1 27866 10425.8 27282.7 Q 9861.5 26697.5 9549.9 26152.2 Q 9316.2 25802.6 9316.2 25568.9 Q 9316.2 25101.5 9861.5 25063.5 Q 11729.2 24751.9 13519 24050.8 Q 15308.8 23351.6 16163.8 22728.4 Q 16553.3 22338.9 17060.6 22338.9 Q 17370.3 22338.9 17643.9 22456.7 Q 19044.2 23078 20366.6 24518.2 Q 20911.9 25063.5 20911.9 25453 Q 20911.9 25764.6 20522.4 26230.1 Q 19939.1 27202.9 19705.4 28449.3 Q 19549.6 29304.3 19336.8 31308.8 Q 19122.1 33313.3 18966.3 34947.3 Q 18928.3 35141.1 19025.2 35200 Q 19122.1 35258.9 19238 35141.1 Q 19549.6 34869.4 20718.1 33936.5 Q 21613 33313.3 22080.4 32807.9 Q 21145.6 31561.5 21145.6 31056.1 Q 21145.6 30666.6 21516.1 30491.8 Q 21884.7 30317 22352.1 30394.9 Q 23986.1 30510.8 29433.4 29811.6 L 29433.4 27788.1 Q 28694.3 27866 27565.7 28099.7 Q 27138.2 29032.6 26087.5 29032.6 Q 25308.5 29032.6 24413.6 28137.7 Q 23518.7 27242.8 23402.8 26192.1 Q 23247 25103.4 23053.2 22884.2 Q 22701.7 19578.2 22468 17708.6 Q 22234.3 15840.9 21884.7 14868.1 Q 21806.8 14558.4 21806.8 14440.6 Q 21806.8 13857.3 22663.7 13857.3 Q 24064 13857.3 24822.1 14032.1 Q 25582.1 14206.9 26165.4 14752.2 Q 26203.4 14792.1 26281.3 14830.1 Q 26359.2 14868.1 26399.1 14946 Q 27371.9 14830.1 31263.1 14168.9 L 33520.3 13819.3 Q 34493.1 13663.5 34979.5 13429.8 Q 35465.9 13196.1 35756.6 12981.4 Q 36049.2 12768.6 36243 12650.8 Q 36748.4 12339.2 37255.7 12339.2 Q 37449.5 12339.2 37761.1 12417.1 Q 38656 12650.8 39435 13078.3 Q 40212.1 13507.7 41107 14206.9 Q 42001.9 14946 42001.9 15569.2 Q 42001.9 15802.9 41690.3 16426.1 Q 41418.6 16813.7 41224.8 17436.9 Q 40835.3 18721.3 40252 20978.5 Q 39666.8 23235.7 39590.8 23819 Q 39395.1 24907.7 39279.2 25297.2 Q 39628.8 25920.4 39628.8 26347.9 Q 39628.8 26697.5 39336.2 26931.2 Q 39045.5 27164.9 38656 27164.9 Q 36243 27242.8 33520.3 27398.6 L 33520.3 27866 L 33520.3 29188.4 Q 36672.4 28643.1 38578.1 28137.7 Q 38811.8 28099.7 39258.3 28000.9 Q 39706.7 27904 39978.4 27904 Q 40407.8 27904 40717.5 28099.7 Q 41496.5 28683 41963.9 29228.3 Q 42431.3 29771.7 42818.9 30588.7 Q 43014.6 30978.2 43014.6 31445.6 Q 43014.6 32652.1 41029.1 32652.1 L 40252 32612.2 Q 38500.2 32496.3 37799.1 32496.3 Q 37293.7 32496.3 35893.4 32574.2 Q 35581.8 32574.2 35426 32612.2 Q 38422.3 35998 41458.5 38215.3 Q 42509.2 39032.3 44103.3 39752.4 Q 45699.3 40472.5 46788 40822.1 Q 47255.4 40939.9 47255.4 41133.7 Q 47255.4 41407.3 46672.1 41639.1 Q 43909.5 42845.6 42235.6 43235.1 Q 41107 43546.7 40523.7 43546.7 Q 39784.6 43546.7 39005.6 42885.5 Q 36516.6 40550.4 33520.3 35804.2 L 33558.3 44052.1 Q 33558.3 45336.5 33227.7 46290.3 Q 32897.1 47242.2 32410.7 47768.5 Q 31924.3 48292.9 31418.9 48292.9 Q 31341 48292.9 31107.3 48215 Q 30562 48021.2 29938.8 47204.2 Q 29317.5 46387.2 28966 45296.6 Q 28890 44986.9 28986.9 44479.6 Q 29083.8 43974.2 29083.8 43858.3 Q 29239.6 43157.2 29239.6 42963.4 Q 29395.4 39771.4 29395.4 36930.9 Q 27254.1 39577.6 24160.9 41834.8 Q 21067.7 44090.1 18616.7 44519.5 L 18460.9 44519.5 Z M 14881.3 14013.1 Q 14841.4 13935.2 14841.4 13779.4 Q 14841.4 13545.7 15016.2 13351.9 Q 15192.9 13156.2 15502.6 13196.1 Q 21417.3 13663.5 21417.3 16969.5 Q 21417.3 18176 20834 18955 Q 20250.7 19732.1 19238 20239.4 Q 19006.2 20355.3 18732.6 20355.3 Q 18071.4 20355.3 17799.7 19849.9 Q 16982.7 18721.3 16300.6 17321 Q 15620.4 15918.8 14881.3 14013.1  Z M 26904.5 17436.9 Q 26904.5 18527.5 27020.4 20043.7 Q 27487.8 20005.7 29317.5 19772 Q 29121.8 18487.6 28812.1 17592.7 L 28344.7 17670.6 Q 27799.4 17748.5 27683.5 17748.5 Q 27216.1 17748.5 26904.5 17436.9  Z M 27176.2 21951.3 Q 27332 23896.9 27487.8 24674 L 29395.4 24402.3 L 29395.4 22612.5 L 28850.1 22728.4 Q 28422.6 22806.3 28014.1 22612.5 Q 27605.6 22416.8 27332 22107.1 Q 27332 22107.1 27176.2 21951.3  Z M 32351.8 17047.4 Q 33714.1 17436.9 33598.2 18371.7 L 33558.3 18915.1 L 33754 18837.2 Q 33985.8 18721.3 34337.3 18721.3 Q 34842.7 18721.3 35114.4 18993 Q 35775.6 19732.1 36009.3 20121.6 Q 36243 18060.1 36243 16931.5 Q 36243 16737.7 36087.2 16678.8 Q 35931.4 16619.9 35465.9 16619.9 Q 35076.4 16619.9 32351.8 17047.4  Z M 35581.8 23779.1 Q 35815.5 22262.9 35815.5 21951.3 Q 35621.7 22107.1 35114.4 22107.1 L 33364.5 22107.1 L 33286.6 23972.9 L 35581.8 23779.1 Z M 17332.3 106213.3 Q 16477.3 106407.1 15601.4 105668 Q 14725.5 104928.9 14220.1 104034 Q 13792.6 103372.8 13792.6 103061.2 Q 13792.6 102865.5 13986.4 102768.6 Q 14180.2 102671.7 14647.6 102631.8 Q 17683.8 102553.9 25466.2 102048.5 Q 25542.2 100182.7 25542.2 98936.3 Q 23830.3 99170 23169.1 99325.8 Q 22469.9 99521.5 21962.6 99521.5 Q 20951.8 99521.5 20250.7 98704.5 Q 19745.3 98159.2 19355.8 97536 Q 18966.3 96914.7 18966.3 96525.2 Q 18966.3 96057.8 19551.5 96017.9 Q 22663.7 95864 25620.1 95512.5 Q 25620.1 93061.5 25388.3 92594.1 L 25388.3 92516.2 L 25348.4 92556.1 Q 25426.3 93099.5 24862 93392.1 Q 24297.7 93682.8 23520.6 93682.8 Q 23247 93682.8 22935.4 93604.9 Q 22080.4 93411.1 21690.9 92827.8 Q 21301.4 92244.5 21067.7 90764.4 Q 21067.7 90103.2 20718.1 87866.9 Q 20368.5 85628.7 20134.8 85083.4 Q 20056.9 84927.6 20056.9 84811.7 Q 20056.9 84617.9 20191.8 84462.1 Q 20328.6 84306.3 20562.3 84306.3 Q 21145.6 84266.4 21943.6 84422.2 Q 22741.6 84578 23402.8 84849.7 Q 24998.8 84655.9 27178.1 84325.3 Q 29357.4 83994.7 30018.6 83800.9 Q 31185.2 83099.8 31534.8 82982 Q 31846.4 82866.1 32120 82866.1 Q 32429.7 82866.1 32703.3 82982 Q 33402.5 83255.6 34356.3 83916.8 Q 35310.1 84578 35777.5 85123.3 Q 35933.3 85317.1 35855.4 85609.7 Q 35777.5 85900.4 35602.7 86270.9 Q 35426 86641.4 35348.1 86913.1 Q 35116.3 87574.3 34297.4 90454.7 Q 33987.7 91777.1 33286.6 92497.2 Q 32585.5 93217.3 31612.7 93217.3 Q 30873.6 93217.3 30018.6 91893 Q 30018.6 91893 29997.7 91874 Q 29978.7 91855 29978.7 91855 Q 29005.9 91932.9 28033.1 92088.7 Q 29511.3 92360.4 29978.7 92710 Q 30601.9 93217.3 30446.1 94034.3 Q 30446.1 94034.3 30368.2 94811.4 Q 31263.1 94657.5 33052.9 94228.1 Q 33754 94072.3 33987.7 94072.3 Q 34493.1 94072.3 34998.5 94306 Q 35426 94539.7 35912.4 95396.6 Q 36398.8 96251.6 36516.6 96912.8 Q 36554.6 97068.6 36554.6 97302.3 Q 36554.6 97847.6 36068.2 98022.4 Q 35581.8 98197.2 34375.3 98275.1 Q 32937 98237.1 30252.3 98430.9 L 30252.3 101698.9 Q 36866.2 101153.6 38773.8 100648.2 Q 39161.4 100570.3 39395.1 100570.3 Q 40329.9 100570.3 40991.1 101115.6 Q 41574.4 101621 41925.9 101970.6 Q 42275.5 102322.1 42665 102983.3 Q 42936.7 103604.6 42936.7 103994.1 Q 42936.7 104461.5 42587.1 104655.3 Q 42119.7 105122.7 41380.6 105122.7 Q 41224.8 105122.7 40601.6 105044.8 Q 39512.9 104928.9 37139.8 104928.9 Q 32391.7 104928.9 25796.8 105337.4 Q 19200 105745.9 17332.3 106213.3  Z M 13519 85083.4 Q 14453.8 83449.4 15096 82049.1 Q 15738.2 80648.8 15738.2 79442.3 Q 15738.2 79052.8 15698.3 78897 L 15698.3 78781.1 Q 15698.3 78429.6 16165.7 78429.6 L 16633.1 78507.5 Q 17566 78663.3 18422.9 79286.5 Q 18500.8 79364.4 18810.5 79617.1 Q 19122.1 79869.8 19239.9 80141.5 Q 22741.6 79947.7 25582.1 79636.1 Q 25620.1 77107.2 25348.4 74091.9 Q 25076.7 71076.6 24687.2 70103.8 Q 24609.3 69948 24609.3 69870.1 Q 24609.3 69480.6 25270.5 69402.7 Q 26515 69324.8 27995.1 69752.3 Q 29473.3 70181.7 29862.8 70803 Q 30096.5 71076.6 30193.4 71367.3 Q 30290.3 71659.9 30212.4 72127.3 Q 30134.5 72514.9 30018.6 74148.9 Q 29900.8 75784.8 29940.7 78235.8 Q 31107.3 76523.9 32021.2 74597.3 Q 32937 72670.7 32975 71192.5 Q 33014.9 70765 33305.6 70569.3 Q 33598.2 70375.5 33987.7 70453.4 Q 36984 70998.7 38034.7 72437 Q 38150.6 72592.8 38150.6 72826.5 Q 38150.6 73371.8 37586.3 74033 Q 37022 74694.2 36127.1 75511.2 Q 33520.3 77846.3 31964.2 78936.9 Q 33831.9 78741.2 37489.4 78195.9 Q 37801 78157.9 38443.2 77964.1 Q 39085.4 77768.4 39590.8 77768.4 Q 40058.2 77768.4 40367.9 77924.2 Q 41184.9 78351.7 42119.7 79090.8 Q 43052.6 79831.8 43637.8 80453.1 Q 43987.4 80804.6 44259.1 81291 Q 44532.7 81777.4 44532.7 82242.9 Q 44532.7 83059.9 43442.1 83333.5 Q 42898.7 83489.3 41730.2 83723 Q 41418.6 83800.9 39999.3 84150.5 Q 38578.1 84500.1 37061.9 85083.4 Q 36750.3 85161.3 36672.4 85161.3 Q 36398.8 85161.3 36301.9 85005.5 Q 36205 84849.7 36360.8 84695.8 Q 36594.5 84384.2 36944.1 83742 Q 37293.7 83099.8 37489.4 82788.2 L 38150.6 81543.7 L 38188.6 81465.8 Q 38188.6 81387.9 38091.7 81329 Q 37994.8 81270.1 37916.9 81270.1 L 33364.5 81777.4 Q 23402.8 82828.1 20172.8 83215.7 Q 19939.1 83255.6 19473.6 83255.6 Q 19122.1 83255.6 18966.3 83215.7 Q 18616.7 85083.4 18111.3 86367.8 Q 17759.8 87029 17391.2 87302.6 Q 17020.7 87574.3 16437.4 87458.4 Q 15892.1 87340.6 14959.2 86894.1 Q 14024.4 86445.7 13674.8 86018.2 Q 13403.1 85590.7 13403.1 85472.9 Q 13403.1 85317.1 13519 85083.4  Z M 18305.1 74460.5 Q 18267.1 74382.6 18227.2 74304.7 Q 18189.2 74226.8 18189.2 74150.8 Q 18189.2 73877.2 18810.5 73721.4 Q 19355.8 73643.5 19705.4 73643.5 Q 21379.3 73643.5 22663.7 74460.5 Q 23520.6 74967.8 23967.1 75686 Q 24415.5 76406.1 24415.5 77185.1 Q 24415.5 77924.2 24026 78566.4 Q 23636.5 79208.6 22975.3 79520.2 Q 22857.5 79598.1 22585.8 79598.1 Q 22196.3 79598.1 21749.8 79324.5 Q 21301.4 79052.8 21067.7 78625.3 Q 20678.2 77924.2 19277.9 75862.7 Q 18267.1 74422.5 18305.1 74460.5  Z M 24687.2 87536.3 Q 24881 88936.6 24998.8 89947.4 Q 27294 89442 29862.8 89092.4 Q 30096.5 88001.8 30134.5 86795.3 Q 30134.5 86679.4 29745 86679.4 L 24687.2 87536.3 Z M 27877.3 164171.7 Q 27254.1 164483.3 26708.8 164483.3 Q 25192.6 164483.3 24413.6 162421.8 Q 23946.2 161175.4 23110.2 160124.7 Q 22274.2 159074 21301.4 158374.8 Q 20911.9 158023.3 20911.9 157829.5 Q 20911.9 157517.9 21339.4 157595.8 Q 21573.1 157595.8 22156.4 157711.7 Q 24102 157985.3 24919 158023.3 L 25114.7 158023.3 Q 25308.5 158023.3 25445.3 157888.4 Q 25580.2 157751.6 25658.1 157284.2 Q 26009.6 155844 26009.6 146427.6 Q 26009.6 140435 25853.8 135377.2 Q 25775.9 134248.6 25679 133315.7 Q 25580.2 132380.9 25348.4 131641.8 Q 25230.6 131214.3 25230.6 130940.7 Q 25230.6 130007.8 26203.4 130007.8 Q 27098.3 130007.8 28713.3 130805.8 Q 30328.3 131601.9 31456.9 132730.5 Q 31806.5 133042.1 31806.5 133431.6 Q 31806.5 133587.4 31650.7 134288.5 Q 31379 135183.4 31339.1 135844.6 Q 31301.1 137051.1 31301.1 140980.3 L 31339.1 151057.9 Q 31379 153744.5 31379 157867.5 Q 31223.2 160476.2 30503.1 161817.6 Q 29783 163160.9 27877.3 164171.7  Z M 12584.2 152731.8 Q 12390.4 152186.5 12390.4 151409.4 Q 12390.4 150474.6 12798.9 149520.8 Q 13207.4 148568.9 14024.4 147789.9 Q 15502.6 146427.6 16515.3 145202.1 Q 17526.1 143976.6 18460.9 141993 Q 18616.7 141719.4 18907.4 141525.6 Q 19200 141329.9 19511.6 141329.9 Q 20094.9 141329.9 20250.7 141953.1 Q 20484.4 143043.7 20484.4 145105.2 Q 20484.4 146623.3 20288.7 148061.6 Q 19899.2 151057.9 18692.7 152868.6 Q 17488.1 154677.4 16008 155260.7 Q 15658.4 155378.5 15268.9 155378.5 Q 14413.9 155378.5 13674.8 154696.4 Q 12933.8 154016.2 12584.2 152731.8  Z M 33284.7 142342.6 Q 33052.9 142031 33052.9 141875.2 Q 33052.9 141563.6 33714.1 141563.6 Q 33985.8 141563.6 34453.2 141641.5 Q 36710.4 142108.9 38675 143353.4 Q 40639.6 144599.8 42001.9 146000.1 Q 43364.2 147400.4 44025.4 148529 Q 44726.5 149813.4 44726.5 150980 Q 44726.5 152264.4 43869.6 153199.2 Q 43012.7 154132.1 41496.5 154443.7 Q 41184.9 154521.6 41029.1 154521.6 Q 40172.2 154521.6 39395.1 153801.5 Q 38616.1 153081.4 38304.5 152030.7 Q 37215.8 149152.2 35775.6 146370.6 Q 34335.4 143587.1 33284.7 142342.6  Z M 13247.3 211195.6 Q 12935.7 210923.9 12683 210418.5 Q 12430.3 209911.2 12274.5 209502.7 Q 12118.7 209094.2 12000.9 208822.5 Q 11923 208510.9 12021.8 208180.3 Q 12118.7 207849.7 12740 207382.3 Q 14453.8 206215.7 16515.3 203531 Q 15192.9 203918.6 14453.8 204192.2 Q 13946.5 204386 13674.8 204386 Q 13403.1 204386 13013.6 204114.3 Q 12156.7 203491.1 11261.8 201779.2 Q 11145.9 201429.6 11145.9 201311.8 Q 11145.9 201040.1 11339.7 200884.3 Q 13285.3 198433.3 14375.9 196409.8 Q 15464.6 194386.3 16243.6 192169 Q 16982.7 190067.6 16982.7 188082.1 Q 16982.7 187694.5 17488.1 187694.5 Q 17915.6 187694.5 18498.9 187966.2 Q 19277.9 188355.7 20290.6 189094.8 Q 21301.4 189833.9 21535.1 190223.4 Q 21846.7 190573 21846.7 191040.4 Q 21846.7 191585.7 21067.7 192712.4 Q 20366.6 193647.2 19084.1 195708.7 Q 17799.7 197772.1 16515.3 200029.3 Q 17448.2 199951.4 17955.5 199873.5 L 19122.1 199755.7 L 19745.3 198705 Q 20444.5 197538.4 20873.9 196624.5 Q 21301.4 195708.7 21651 194542.1 Q 21728.9 194230.5 22040.5 194230.5 Q 22390.1 194230.5 23091.2 194697.9 Q 23830.3 195243.2 24453.5 195885.4 Q 25076.7 196525.7 25386.4 197071 Q 25542.2 197382.6 25542.2 197538.4 Q 27449.8 197422.5 30484.1 197110.9 Q 30484.1 193685.2 30328.3 190766.8 Q 30328.3 190261.4 30153.5 189541.3 Q 29978.7 188821.2 29707 188511.5 Q 29511.3 188237.9 29511.3 188004.2 Q 29511.3 187694.5 29784.9 187439.9 Q 30056.6 187187.2 30406.2 187187.2 Q 31574.7 187227.1 32838.2 187694.5 Q 34103.6 188160 34979.5 188764.2 Q 35855.4 189366.5 35893.4 189756 Q 35893.4 190223.4 35699.6 190884.6 Q 35426 191857.4 35310.1 192868.2 Q 35310.1 192908.1 35232.2 194735.9 L 35154.3 196525.7 Q 38849.8 195904.4 40873.3 195281.2 Q 41029.1 195243.2 41359.7 195125.4 Q 41692.2 195009.5 41924 195009.5 Q 42157.7 195009.5 42391.4 195125.4 Q 43713.8 196098.2 44454.8 197616.3 Q 44726.5 198199.6 44726.5 198627.1 Q 44726.5 199484 43404.1 199484 Q 42936.7 199484 42665 199444.1 Q 42235.6 199406.1 41262.8 199406.1 Q 38811.8 199406.1 35036.5 199795.6 L 34958.6 203531 Q 36672.4 203141.5 38032.8 202714 Q 38150.6 202674.1 38441.3 202596.2 Q 38733.9 202518.3 38927.7 202518.3 Q 39239.3 202518.3 39435 202714 Q 40601.6 203724.8 41107 205320.8 Q 41224.8 205708.4 41224.8 206020 Q 41224.8 207070.7 39473 206914.9 Q 38618 206837 38072.7 206837 Q 34804.7 206837 28188.9 208199.3 L 27955.2 208239.2 Q 27371.9 208239.2 26904.5 207731.9 Q 26515 207382.3 26224.3 206954.8 Q 25931.7 206525.4 25542.2 205592.5 Q 25464.3 205476.6 25464.3 205203 Q 25464.3 204931.3 25620.1 204735.6 Q 25775.9 204541.8 25971.6 204541.8 Q 28188.9 204541.8 30406.2 204270.1 Q 30484.1 201623.4 30484.1 200378.9 Q 28538.5 200690.5 27294 200962.2 Q 27176.2 201002.1 26944.4 201002.1 Q 26243.3 201002.1 25815.8 200612.6 Q 25114.7 200107.2 24647.3 199406.1 Q 24297.7 199677.8 23596.6 200456.8 Q 22897.4 201233.9 22390.1 201741.2 Q 19277.9 205087.1 17681.9 206487.4 Q 19939.1 206097.9 23402.8 205280.9 Q 24141.9 205125.1 24569.4 205125.1 Q 24881 205125.1 24881 205242.9 Q 24881 205398.7 24181.8 205826.2 Q 22623.8 206721.1 19433.7 208626.8 Q 16243.6 210534.4 15776.2 210961.9 Q 14841.4 211740.9 14298 211740.9 Q 13752.7 211740.9 13247.3 211195.6  Z M 10912.2 215943.7 Q 10794.4 215632.1 10794.4 215358.5 Q 10794.4 214931 11009.1 214640.3 Q 11223.8 214347.7 11651.3 214347.7 Q 12935.7 214347.7 14142.2 213920.2 Q 17332.3 212829.6 19393.8 212052.5 Q 21457.2 211273.5 23518.7 210300.7 Q 23714.4 210184.8 23870.2 210184.8 Q 24026 210184.8 24064 210281.7 Q 24103.9 210378.6 23948.1 210534.4 Q 21263.4 213608.6 19181 215592.2 Q 17098.6 217577.7 14180.2 219872.9 Q 13790.7 220222.5 13363.2 220222.5 Q 12857.8 220222.5 12508.2 219717.1 Q 12078.8 219289.6 11535.4 217752.5 Q 10990.1 216215.4 10912.2 215943.7  Z M 24881 209989.1 Q 24843 209911.2 24843 209755.4 Q 24843 209367.8 25270.5 209367.8 Q 26670.8 209367.8 27740.5 209561.6 Q 28812.1 209755.4 29317.5 210067 Q 29551.2 210262.7 29667.1 210456.5 Q 32469.6 210144.9 35036.5 209483.7 Q 35659.7 209327.9 36068.2 209113.2 Q 36476.7 208900.4 36944.1 208588.8 Q 37333.6 208395 37527.4 208395 Q 37567.3 208395 38110.7 208472.9 Q 38849.8 208744.6 39978.4 209367.8 Q 41107 209989.1 41730.2 210494.5 Q 42157.7 210846 42157.7 211663 Q 42157.7 212168.4 41924 212518 Q 41768.2 212907.5 41477.5 213842.3 Q 41184.9 214775.2 41107 215048.8 Q 40523.7 217188.2 40056.3 219950.8 Q 39862.5 221001.5 39512.9 221468.9 Q 39161.4 221936.3 38422.3 222208 Q 38188.6 222285.9 38032.8 222285.9 Q 37527.4 222285.9 36925.1 221974.3 Q 36320.9 221662.7 35737.6 221001.5 Q 35465.9 220689.9 34375.3 220106.6 Q 31846.4 220222.5 29822.9 220574 Q 29707 221584.8 29142.7 222208 Q 28578.4 222831.2 27799.4 222831.2 Q 27371.9 222831.2 26826.6 222422.7 Q 26281.3 222014.2 25931.7 221372 Q 25582.1 220729.8 25660 220068.6 Q 25775.9 219367.5 25775.9 218083.1 Q 25775.9 215981.7 25504.2 213490.8 Q 25230.6 211001.8 24881 209989.1  Z M 29629.1 213608.6 Q 29629.1 214347.7 29707 216059.6 L 29745 217344 Q 30835.6 217150.2 32604.5 216954.5 Q 34375.3 216760.7 35737.6 216720.8 Q 36087.2 215048.8 36127.1 213181.1 Q 36127.1 212907.5 36030.2 212810.6 Q 35931.4 212713.7 35659.7 212751.7 L 34181.5 212947.4 Q 31301.1 213297 29629.1 213608.6  Z " fill-rule="nonzero" style="fill:#333333;;fill-opacity:1;"/>
</svg>