<svg version="1.1" x="0" y="0" width="100%" height="100%" viewBox="0 0 179148.8 83865.6" xmlns="http://www.w3.org/2000/svg">
  <path d="M 16978.25 6804.15 L 16978.25 6727.65 L 12185.75 6727.65 L 12185.75 21227.4 L 16978.25 21227.4 L 16978.25 21150.9 Q 15689 20049.9 14829.5 18203.4 Q 13970 16356.9 13937 13977.9 Q 13970 11598.15 14829.5 9751.65 Q 15689 7905.15 16978.25 6804.15  Z M 22538 10491.15 L 22200.5 10552.65 L 18329.75 10552.65 L 18329.75 12395.4 L 21539.75 12395.4 Q 21026.75 14421.9 20067.5 15949.65 Q 19107.5 17477.4 17777 18385.65 Q 18132.5 18605.4 18566 19029.15 Q 18999.5 19452.9 19251.5 19799.4 Q 20879 18575.4 22046.75 16317.9 Q 23213.75 14060.4 23736.5 10936.65 L 22538 10491.15 Z M 29681 9492.15 Q 29147.75 10221.15 28424.75 11024.4 Q 27701.75 11828.4 26962.25 12533.4 Q 26482.25 11577.9 26117 10552.65 L 26117 6804.15 L 24166.25 6804.15 L 24166.25 18800.4 Q 24185.75 19173.15 23813 19153.65 Q 23579 19155.15 23045 19149.9 Q 22511 19145.4 21862.25 19122.9 Q 22079 19560.15 22275.5 20139.15 Q 22471.25 20717.4 22538 21165.9 Q 24404.75 21200.4 25303.25 20751.15 Q 25757 20508.15 25940.75 20054.4 Q 26123.75 19600.65 26117 18816.15 L 26117 14407.65 Q 27012.5 16133.4 28250 17490.9 Q 29488.25 18848.4 31109 19722.15 Q 31354.25 19300.65 31740.5 18817.65 Q 32127.5 18335.4 32476.25 18017.4 Q 31023.5 17375.4 29853.5 16335.15 Q 28683.5 15295.65 27806.75 13962.15 Q 28638.5 13288.65 29571.5 12416.4 Q 30503.75 11544.15 31370 10674.9 L 29681 9492.15 Z M 42444.5 8647.65 Q 42323 8973.9 42125.75 9392.4 Q 41929.25 9810.9 41738 10137.9 L 42737 10491.15 Q 43147.25 9888.15 43719.5 9031.65 L 42444.5 8647.65 Z M 37222.25 9062.4 Q 37435.25 9396.15 37625.75 9778.65 Q 37815.5 10161.15 37913.75 10460.4 L 39050 10014.9 Q 38939.75 9748.65 38731.25 9384.9 Q 38523.5 9021.15 38297.75 8709.15 L 37222.25 9062.4 Z M 35456 17202.9 Q 36416 16527.15 36869 15528.9 L 35686.25 15191.4 L 41953.25 15191.4 L 40924.25 15483.15 Q 41148.5 15838.65 41340.5 16237.65 Q 41533.25 16636.65 41630.75 16957.65 L 43197.5 16434.9 Q 43090.25 16174.65 42911 15841.65 Q 42732.5 15509.4 42521.75 15191.4 L 44963.75 15191.4 L 44042 15559.65 Q 44423.75 15928.65 44831 16375.65 Q 45239 16822.65 45516.5 17202.9 L 41292.5 17202.9 L 41292.5 16527.15 L 39848.75 16527.15 Q 39799.25 16230.15 39680 15872.4 Q 39560.75 15515.4 39419 15206.4 L 37867.25 15498.15 Q 38009 15842.4 38119.25 16229.4 Q 38228.75 16617.15 38267 16926.9 L 39495.5 16650.15 L 39495.5 17202.9 L 35456 17202.9 Z M 36776.75 10491.15 L 36776.75 8555.4 L 39526.25 8555.4 L 39526.25 10491.15 L 36776.75 10491.15 Z M 44119.25 10491.15 L 41277.5 10491.15 L 41277.5 8555.4 L 44119.25 8555.4 L 44119.25 10491.15 Z M 41292.5 19230.9 L 41292.5 18462.9 L 45793.25 18462.9 L 45793.25 17295.15 L 47114 16727.4 Q 46871 16395.15 46472.75 15981.9 Q 46074.5 15569.4 45670.25 15191.4 L 47267.75 15191.4 L 47267.75 13900.65 L 41277.5 13900.65 L 41277.5 13317.15 L 46039.25 13317.15 L 46039.25 12149.4 L 41277.5 12149.4 L 41277.5 11581.65 L 45885.5 11581.65 L 45885.5 7464.9 L 35133.5 7464.9 L 35133.5 11581.65 L 39526.25 11581.65 L 39526.25 12149.4 L 35010.5 12149.4 L 35010.5 13317.15 L 39526.25 13317.15 L 39526.25 13900.65 L 33643.25 13900.65 L 33643.25 15191.4 L 35379.5 15191.4 Q 35096 15690.15 34622.75 16062.9 Q 34149.5 16434.9 33566.75 16635.15 L 34795.25 17556.15 Q 35052.5 17445.15 35287.25 17310.9 L 35287.25 18462.9 L 39495.5 18462.9 L 39495.5 19230.9 L 33536 19230.9 L 33536 20643.9 L 47421.5 20643.9 L 47421.5 19230.9 L 41292.5 19230.9 Z M 57804.5 9077.4 Q 57624.5 9592.65 57374.75 10152.9 L 54241.25 10152.9 Q 54170 9905.4 54055.25 9621.15 Q 53940.5 9336.15 53811.5 9077.4 L 57804.5 9077.4 Z M 62474 10152.9 L 59249 10152.9 Q 59348.75 9981.15 59453 9794.4 Q 59585.75 9552.9 59740.25 9292.65 L 58511 9077.4 L 61660.25 9077.4 L 61660.25 7664.4 L 56883.5 7664.4 Q 56695.25 7107.9 56438 6620.4 L 54656 6942.9 Q 54797.75 7280.4 54917 7664.4 L 49940.75 7664.4 L 49940.75 9077.4 L 53243 9077.4 L 52091 9308.4 Q 52267.25 9696.15 52397.75 10152.9 L 49187.75 10152.9 L 49187.75 11565.9 L 62474 11565.9 L 62474 10152.9 Z M 59003 13916.4 L 52643.75 13916.4 L 52643.75 13255.65 L 59003 13255.65 L 59003 13916.4 Z M 59003 15651.9 L 52643.75 15651.9 L 52643.75 14991.15 L 59003 14991.15 L 59003 15651.9 Z M 60815 12119.4 L 50923.25 12119.4 L 50923.25 16803.9 L 54824.75 16803.9 L 54195.5 17418.15 Q 54863 17730.9 55533.5 18149.4 Q 56204 18568.65 56606.75 18939.15 L 57728 17817.9 Q 57431 17583.15 57002 17316.15 Q 56573 17049.9 56115.5 16803.9 L 60815 16803.9 L 60815 12119.4 Z M 50278.25 20766.9 Q 50878.25 20196.9 51357.5 19440.15 Q 51836.75 18683.4 52183.25 17940.15 L 50662.25 17264.4 Q 50345.75 17970.9 49853.75 18668.4 Q 49361.75 19365.9 48758 19875.9 L 50278.25 20766.9 Z M 55132.25 19522.65 Q 54627.5 19532.4 54466.25 19449.9 Q 54304.25 19367.4 54317.75 19077.15 L 54317.75 17479.65 L 52536.5 17479.65 L 52536.5 19092.15 Q 52505.75 20157.9 53016.5 20578.65 Q 53527.25 20999.4 54947.75 20981.4 L 57420.5 20981.4 Q 58472 21008.4 58941.5 20553.9 Q 59411 20099.4 59540.75 18846.9 Q 59164.25 18772.65 58718.75 18614.4 Q 58273.25 18456.15 57989 18278.4 Q 57946.25 19061.4 57804.5 19303.65 Q 57663.5 19545.9 57251.75 19522.65 L 55132.25 19522.65 Z M 59294.75 17771.4 Q 59852.75 18438.9 60344.75 19201.65 Q 60836.75 19964.4 61061 20551.65 L 62643.5 19845.15 Q 62372 19237.65 61850 18497.4 Q 61328.75 17757.15 60769.25 17126.4 L 59294.75 17771.4 Z M 67697 10107.15 L 69509 10107.15 L 69509 9246.9 L 72780.5 9246.9 L 72780.5 10107.15 L 74609 10107.15 L 74609 9246.9 L 78049.25 9246.9 L 78049.25 7664.4 L 74609 7664.4 L 74609 6819.9 L 72780.5 6819.9 L 72780.5 7664.4 L 69509 7664.4 L 69509 6819.9 L 67697 6819.9 L 67697 7664.4 L 64332.5 7664.4 L 64332.5 9246.9 L 67697 9246.9 L 67697 10107.15 Z M 72365.75 13470.9 L 75683.75 13470.9 L 75683.75 14238.9 L 72365.75 14238.9 L 72365.75 13470.9 Z M 72365.75 11612.4 L 75683.75 11612.4 L 75683.75 12380.4 L 72365.75 12380.4 L 72365.75 11612.4 Z M 70860.5 15405.9 L 77250.5 15405.9 L 77250.5 10444.65 L 70860.5 10444.65 L 70860.5 15405.9 Z M 67512.5 15774.9 Q 69125 14338.65 70461.5 12625.65 L 69002 11765.4 Q 68626.25 12315.15 68203.25 12840.9 L 66605.75 12963.9 Q 67118 12407.4 67601 11802.15 Q 68083.25 11196.9 68480 10583.4 L 66851.75 9845.4 Q 66395.75 10752.9 65843.75 11487.9 Q 65813 11529.9 65783 11571.15 Q 65237 12286.65 64993.25 12533.4 Q 64529 13059.9 64133 13148.4 Q 64280 13516.65 64444.25 13979.4 Q 64608.5 14442.9 64685.75 14730.15 Q 64847.75 14641.65 65294.75 14555.4 Q 65741.75 14469.9 66882.5 14346.15 Q 66461.75 14810.4 66113 15138.9 Q 65763.5 15468.15 65561.75 15621.15 Q 65175.5 15968.4 64872.5 16179.9 Q 64569.5 16391.4 64286.75 16450.65 Q 64432.25 16777.65 64580.75 17239.65 Q 64728.5 17701.65 64793.75 17970.9 Q 64981.25 17853.15 65489.75 17725.65 Q 65884.25 17626.65 66685.25 17476.65 Q 67735.25 17280.9 69908.75 16911.15 Q 69862.25 16629.15 69841.25 16208.4 Q 69821 15788.4 69831.5 15436.65 L 67512.5 15774.9 Z M 71828.75 17187.9 L 72550.25 17187.9 L 72550.25 19476.15 L 71828.75 19476.15 L 71828.75 17187.9 Z M 74363 17187.9 L 74363 19476.15 L 73640.75 19476.15 L 73640.75 17187.9 L 74363 17187.9 Z M 76205.75 17187.9 L 76205.75 19476.15 L 75453.5 19476.15 L 75453.5 17187.9 L 76205.75 17187.9 Z M 77696 19476.15 L 77696 15974.4 L 70415 15974.4 L 70415 19476.15 L 69847.25 19476.15 L 69739.25 18109.65 Q 68229.5 18378.9 66794 18620.4 Q 65359.25 18861.15 64286.75 19015.65 L 64563.5 20720.4 Q 65604.5 20523.15 66852.5 20277.9 Q 68100.5 20032.65 69382.25 19778.4 Q 69407 19773.15 69432.5 19768.65 L 69432.5 20812.65 L 78402.5 20812.65 L 78402.5 19476.15 L 77696 19476.15 Z M 84070.25 21227.4 L 84070.25 6727.65 L 79277.75 6727.65 L 79277.75 6804.15 Q 80567 7905.15 81426.5 9751.65 Q 82286 11598.15 82319 13977.9 Q 82286 16356.9 81426.5 18203.4 Q 80567 20049.9 79277.75 21150.9 L 79277.75 21227.4 L 84070.25 21227.4 Z " fill-rule="nonzero" style="fill:#333333;;fill-opacity:1;"/>
  <path d="M 2859.85 40161.15 Q 3861.5 39918.7 5052.95 39613.85 Q 6244.4 39309 7465.75 38976.2 L 7306.5 37685.3 Q 6624 37828.3 5942.15 37973.25 Q 4984.7 38178 4117.6 38357.4 Q 3251.15 38536.8 2580.35 38657.05 L 2859.85 40161.15 Z M 4337.95 32573.7 Q 4913.2 31764.45 5430.6 30827.8 Q 5948.65 29891.8 6334.75 28952.55 L 4883.3 28260.3 Q 4563.5 29287.95 4125.4 30214.2 Q 3985 30515.8 3850.45 30781.65 Q 3428.6 31602.6 3219.3 31894.45 Q 2829.95 32563.3 2420.45 32693.3 Q 2568 33017 2720.1 33445.35 Q 2872.2 33873.7 2939.8 34117.45 Q 3073.7 34050.5 3432.5 33977.7 Q 3791.3 33905.55 4683.75 33798.3 Q 4349.65 34292.3 4073.4 34646.55 Q 3796.5 35001.45 3632.05 35156.15 Q 3629.45 35158.75 3626.85 35162 Q 3306.4 35520.15 3062.65 35739.85 Q 2818.9 35960.2 2567.35 36021.3 Q 2693.45 36322.25 2829.95 36723.3 Q 2966.45 37124.35 3033.4 37365.5 Q 3192 37261.5 3637.25 37133.45 Q 3961.6 37041.15 4592.1 36902.7 Q 5474.8 36709.65 7319.5 36354.1 Q 7309.1 36099.3 7321.45 35726.85 Q 7333.15 35354.4 7372.8 35049.55 L 5082.85 35422 Q 5767.3 34617.95 6409.5 33708.6 Q 7051.05 32798.6 7586 31854.8 L 6347.75 31068.95 Q 5981.8 31798.25 5575.55 32467.1 L 4337.95 32573.7 Z M 12377.8 39216.05 Q 12162 39212.8 12045 39149.75 Q 11898.75 39043.15 11912.4 38617.4 L 11912.4 37245.9 L 12977.1 37245.9 L 12977.1 37765.25 L 14494.85 37765.25 L 14494.85 32307.2 L 12977.1 32307.2 L 12977.1 35795.1 L 11912.4 35795.1 L 11912.4 31401.75 L 14907.6 31401.75 L 14907.6 29937.95 L 11912.4 29937.95 L 11912.4 28366.9 L 10341.35 28366.9 L 10341.35 29937.95 L 7599 29937.95 L 7599 31401.75 L 10341.35 31401.75 L 10341.35 35795.1 L 9289.65 35795.1 L 9289.65 32320.2 L 7798.55 32320.2 L 7798.55 37245.9 L 10341.35 37245.9 L 10341.35 38603.75 Q 10341.35 39455.25 10460.95 39810.15 Q 10581.2 40165.05 10820.4 40347.7 Q 11049.2 40525.8 11364.45 40603.8 Q 11680.35 40681.8 11978.7 40680.5 L 13137 40680.5 Q 13391.8 40681.15 13654.4 40647.35 Q 13917 40612.9 14121.75 40534.25 Q 14587.8 40380.85 14774.35 39948.6 Q 14875.75 39708.1 14947.25 39312.9 Q 15018.75 38917.7 15040.2 38497.15 Q 14653.45 38384.05 14281.65 38191 Q 13909.85 37997.95 13642.7 37765.25 Q 13631.65 38160.45 13606.3 38460.75 Q 13580.3 38761.05 13549.75 38896.9 Q 13482.8 39153 13336.55 39189.4 Q 13193.55 39212.8 12990.75 39216.05 L 12377.8 39216.05 Z M 23466.8 32732.95 Q 23161.95 32082.3 22621.8 31262 Q 22081.65 30441.7 21496.65 29711.1 L 20138.8 30470.3 Q 20706.25 31206.75 21234.05 32075.8 Q 21761.2 32944.85 22029 33611.75 L 23466.8 32732.95 Z M 19020.8 36673.25 L 19020.8 29258.7 L 17290.5 29258.7 L 17290.5 36900.1 Q 17263.85 37435.05 16937.55 37833.5 Q 16611.25 38231.3 16305.1 38417.2 Q 16528.7 38646 16787.4 39019.75 Q 17046.75 39393.5 17170.25 39682.1 Q 17339.25 39505.95 17766.95 39225.8 Q 18162.8 38966.45 19062.4 38467.25 Q 20040.65 37924.5 21962.7 36913.1 Q 21857.4 36627.1 21736.5 36199.4 Q 21615.6 35771.05 21549.95 35395.35 L 19020.8 36673.25 Z M 28378.85 39682.1 Q 27906.3 38985.95 27126.3 38133.15 Q 26346.3 37279.7 25543.55 36473.7 Q 26164.95 35029.4 26482.15 33167.8 Q 26799.35 31306.2 26901.4 28992.2 L 25210.75 28912.9 Q 25121.7 32120.65 24522.4 34369 Q 24138.9 35765.85 23437.55 36826.65 Q 22326.7 38534.85 20072.5 39455.9 Q 20372.8 39729.55 20738.1 40148.15 Q 21103.4 40566.75 21284.1 40840.4 Q 23533.75 39741.9 24744.7 37925.15 Q 25426.55 38666.8 26022.6 39409.1 Q 26619.3 40151.4 26981.35 40733.8 L 28378.85 39682.1 Z M 33118 31548.65 L 32825.5 31601.95 L 29470.85 31601.95 L 29470.85 33199 L 32252.85 33199 Q 31808.25 34955.3 30976.9 36279.35 Q 30144.9 37603.4 28991.8 38390.55 Q 29299.9 38581 29675.6 38948.25 Q 30051.3 39315.5 30269.7 39615.8 Q 31680.2 38555 32692.25 36598.5 Q 33703.65 34642 34156.7 31934.75 L 33118 31548.65 Z M 39308.6 30682.85 Q 38846.45 31314.65 38219.85 32010.8 Q 37593.25 32707.6 36952.35 33318.6 Q 36536.35 32490.5 36219.8 31601.95 L 36219.8 28353.25 L 34529.15 28353.25 L 34529.15 38750 Q 34546.05 39073.05 34223 39056.15 Q 34020.2 39057.45 33557.4 39052.9 Q 33094.6 39049 32532.35 39029.5 Q 32720.2 39408.45 32890.5 39910.25 Q 33060.15 40411.4 33118 40800.1 Q 34735.85 40830 35514.55 40440.65 Q 35907.8 40230.05 36067.05 39836.8 Q 36225.65 39443.55 36219.8 38763.65 L 36219.8 34942.95 Q 36995.9 36438.6 38068.4 37615.1 Q 39141.55 38791.6 40546.2 39548.85 Q 40758.75 39183.55 41093.5 38764.95 Q 41428.9 38347 41731.15 38071.4 Q 40472.1 37515 39458.1 36613.45 Q 38444.1 35712.55 37684.25 34556.85 Q 38405.1 33973.15 39213.7 33217.2 Q 40021.65 32461.25 40772.4 31707.9 L 39308.6 30682.85 Z M 50370.3 29950.95 Q 50265 30233.7 50094.05 30596.4 Q 49923.75 30959.1 49758 31242.5 L 50623.8 31548.65 Q 50979.35 31026.05 51475.3 30283.75 L 50370.3 29950.95 Z M 45844.35 30310.4 Q 46028.95 30599.65 46194.05 30931.15 Q 46358.5 31262.65 46443.65 31522 L 47428.4 31135.9 Q 47332.85 30905.15 47152.15 30589.9 Q 46972.1 30274.65 46776.45 30004.25 L 45844.35 30310.4 Z M 44313.6 37365.5 Q 45145.6 36779.85 45538.2 35914.7 L 44513.15 35622.2 L 49944.55 35622.2 L 49052.75 35875.05 Q 49247.1 36183.15 49413.5 36528.95 Q 49580.55 36874.75 49665.05 37152.95 L 51022.9 36699.9 Q 50929.95 36474.35 50774.6 36185.75 Q 50619.9 35897.8 50437.25 35622.2 L 52553.65 35622.2 L 51754.8 35941.35 Q 52085.65 36261.15 52438.6 36648.55 Q 52792.2 37035.95 53032.7 37365.5 L 49371.9 37365.5 L 49371.9 36779.85 L 48120.65 36779.85 Q 48077.75 36522.45 47974.4 36212.4 Q 47871.05 35903 47748.2 35635.2 L 46403.35 35888.05 Q 46526.2 36186.4 46621.75 36521.8 Q 46716.65 36857.85 46749.8 37126.3 L 47814.5 36886.45 L 47814.5 37365.5 L 44313.6 37365.5 Z M 45458.25 31548.65 L 45458.25 29871 L 47841.15 29871 L 47841.15 31548.65 L 45458.25 31548.65 Z M 51821.75 31548.65 L 49358.9 31548.65 L 49358.9 29871 L 51821.75 29871 L 51821.75 31548.65 Z M 49371.9 39123.1 L 49371.9 38457.5 L 53272.55 38457.5 L 53272.55 37445.45 L 54417.2 36953.4 Q 54206.6 36665.45 53861.45 36307.3 Q 53516.3 35949.8 53165.95 35622.2 L 54550.45 35622.2 L 54550.45 34503.55 L 49358.9 34503.55 L 49358.9 33997.85 L 53485.75 33997.85 L 53485.75 32985.8 L 49358.9 32985.8 L 49358.9 32493.75 L 53352.5 32493.75 L 53352.5 28925.9 L 44034.1 28925.9 L 44034.1 32493.75 L 47841.15 32493.75 L 47841.15 32985.8 L 43927.5 32985.8 L 43927.5 33997.85 L 47841.15 33997.85 L 47841.15 34503.55 L 42742.55 34503.55 L 42742.55 35622.2 L 44247.3 35622.2 Q 44001.6 36054.45 43591.45 36377.5 Q 43181.3 36699.9 42676.25 36873.45 L 43740.95 37671.65 Q 43963.9 37575.45 44167.35 37459.1 L 44167.35 38457.5 L 47814.5 38457.5 L 47814.5 39123.1 L 42649.6 39123.1 L 42649.6 40347.7 L 54683.7 40347.7 L 54683.7 39123.1 L 49371.9 39123.1 Z M 62471.35 32653 Q 63383.3 31701.4 64135.35 30589.9 Q 64964.1 31641.6 65972.25 32653 L 62471.35 32653 Z M 61725.8 34064.15 L 66491.6 34064.15 L 66491.6 33159.35 Q 66967.4 33581.85 67423.05 33944.55 Q 67521.2 33594.85 67729.2 33145.7 Q 67937.2 32696.55 68155.6 32387.15 Q 67285.25 31835.3 66403.2 31000.7 Q 65521.15 30166.75 64880.9 29325 Q 65033.65 29046.15 65146.75 28766 L 65146.75 28766 L 63735.6 28273.95 Q 63129.8 29586.3 62154.8 30691.3 Q 61179.8 31796.95 60035.15 32520.4 Q 60228.2 32838.25 60451.15 33323.8 Q 60674.1 33809.35 60767.05 34117.45 Q 61256.5 33778.15 61725.8 33358.9 L 61725.8 34064.15 Z M 58251.55 35262.75 Q 58834.6 34447.65 59370.85 33558.45 Q 59907.1 32669.25 60341.3 31774.85 L 58996.45 30976 Q 58674.05 31757.95 58291.2 32480.1 L 57426.05 32560.05 Q 57922.65 31721.55 58374.4 30773.2 Q 58826.15 29824.2 59143.35 28886.25 L 57678.9 28220.65 Q 57429.3 29253.5 57065.3 30196.65 Q 56952.85 30495 56842.35 30760.2 Q 56488.75 31600 56307.4 31894.45 Q 55968.1 32563.3 55589.15 32693.3 Q 55726.3 33017 55876.45 33445.35 Q 56026.6 33873.7 56094.85 34117.45 Q 56216.4 34050.5 56515.4 33986.15 Q 56815.05 33921.8 57506 33824.95 Q 57242.75 34277.35 57021.75 34600.4 Q 56800.75 34922.8 56666.85 35076.2 Q 56393.2 35444.75 56166.35 35658.6 Q 55939.5 35872.45 55695.1 35941.35 Q 55842 36263.75 55988.25 36688.2 Q 56134.5 37113.3 56201.45 37365.5 Q 56354.2 37250.45 56792.95 37095.75 Q 57060.75 37001.5 57531.35 36866.3 Q 58317.2 36639.45 60008.5 36207.85 Q 59987.05 35945.25 59975.35 35570.2 Q 59963.65 35195.8 59981.85 34863 L 58251.55 35262.75 Z M 56121.5 40241.1 Q 57021.1 39877.75 58073.45 39449.4 Q 59125.15 39020.4 60195.05 38577.1 L 59915.55 37245.9 Q 58747.5 37682.05 57647.05 38066.2 Q 56546.6 38450.35 55748.4 38696.7 L 56121.5 40241.1 Z M 64867.25 37405.8 Q 65213.7 37961.55 65559.5 38577.1 L 62830.8 38816.95 Q 63210.4 38183.2 63602.35 37487.05 Q 63920.2 36923.5 64201.65 36447.05 L 67662.9 36447.05 L 67662.9 34996.25 L 60594.15 34996.25 L 60594.15 36447.05 L 62524.65 36447.05 Q 62225 36990.45 61857.75 37607.3 Q 61768.05 37757.45 61682.25 37897.85 Q 61328.65 38477 61153.15 38683.7 Q 60967.9 38879.35 60727.4 38978.15 Q 60486.9 39076.95 60261.35 39123.1 Q 60370.55 39396.1 60514.2 39828.35 Q 60658.5 40261.25 60727.4 40573.9 Q 60913.95 40478.35 61363.75 40391.9 Q 61811.6 40305.45 62914.65 40175.45 Q 64024.2 40044.15 66198.45 39815.35 Q 66448.05 40380.85 66598.2 40826.75 L 67955.4 40201.45 Q 67688.9 39496.2 67176.7 38588.8 Q 66665.15 37681.4 66118.5 36886.45 L 64867.25 37405.8 Z M 81201.1 30856.4 Q 80986.6 30409.2 80590.75 29847.6 Q 80194.25 29286 79789.95 28819.3 L 78764.9 29418.6 Q 79158.8 29924.95 79537.1 30506.7 Q 79915.4 31088.45 80109.75 31535 L 81201.1 30856.4 Z M 75330.3 29871 L 73360.15 29871 Q 73247.7 29514.8 73082.6 29110.5 Q 72917.5 28706.85 72734.85 28340.25 L 71283.4 28646.4 Q 71405.6 28929.8 71525.2 29248.95 Q 71644.15 29567.45 71736.45 29871 L 69246.95 29871 L 69246.95 31255.5 L 75330.3 31255.5 L 75330.3 29871 Z M 70152.4 35875.05 Q 69981.45 36736.95 69696.1 37546.85 Q 69410.75 38357.4 69020.75 38950.2 Q 69256.7 39082.15 69574.55 39309 Q 69893.05 39536.5 70099.1 39708.75 Q 70513.15 39031.45 70859.6 38084.4 Q 71206.05 37138 71430.3 36140.9 L 70152.4 35875.05 Z M 71190.45 33159.35 L 73427.1 33159.35 L 73427.1 34277.35 L 71190.45 34277.35 L 71190.45 33159.35 Z M 74864.9 35501.95 L 74864.9 31934.75 L 69832.6 31934.75 L 69832.6 35501.95 L 71736.45 35501.95 L 71736.45 39229.7 Q 71752.7 39415.6 71549.9 39402.6 Q 71439.4 39402.6 71162.5 39400.65 Q 70884.95 39398.7 70565.15 39388.95 Q 70709.45 39678.85 70834.25 40036.35 Q 70959.05 40393.85 71003.9 40693.5 Q 71541.45 40708.45 71941.2 40665.55 Q 72340.95 40622.65 72628.25 40467.3 Q 72931.8 40302.85 73042.3 40016.2 Q 73153.45 39730.2 73147.6 39256.35 L 73147.6 35501.95 L 74864.9 35501.95 Z M 73347.15 36207.85 Q 73663.05 36786.35 73911.35 37447.4 Q 74159.65 38108.45 74265.6 38617.4 L 75423.9 38071.4 Q 75306.25 37573.5 75035.85 36928.05 Q 74766.1 36282.6 74438.5 35715.15 L 73347.15 36207.85 Z M 79710 39349.3 Q 79580.65 39355.8 79510.45 39283 Q 79444.15 39209.55 79457.15 38856.6 L 79457.15 33811.3 L 78419.1 33811.3 Q 78458.75 33488.9 78499.05 33145.7 L 81414.3 33145.7 L 81414.3 31734.55 L 78605 31734.55 Q 78674.55 30053 78684.3 28446.85 Q 78684.95 28420.2 78684.95 28393.55 L 77207.5 28393.55 Q 77202.3 28859.6 77200.35 29336.7 Q 77202.95 30521 77154.2 31734.55 L 75490.2 31734.55 L 75490.2 33145.7 L 77061.25 33145.7 Q 76905.9 35113.25 76313.75 36848.1 Q 75722.25 38583.6 74398.85 39842 Q 74706.3 40027.9 75004.65 40294.4 Q 75302.35 40560.9 75490.2 40826.75 Q 76529.55 39809.5 77154.2 38507.55 Q 77778.85 37204.95 78099.3 35728.15 L 78099.3 38790.3 Q 78098.65 39470.2 78182.5 39773.75 Q 78267 40076.65 78445.75 40228.1 Q 78621.25 40378.25 78870.2 40455.6 Q 79118.5 40533.6 79364.2 40534.25 L 80189.7 40534.25 Q 80385.35 40535.55 80603.75 40499.15 Q 80822.15 40462.75 80987.9 40374.35 Q 81340.85 40201.45 81494.25 39748.4 Q 81564.45 39512.45 81610.6 39054.85 Q 81656.1 38596.6 81667.15 38111.05 Q 81355.8 38007.05 81016.5 37828.3 Q 80677.2 37649.55 80455.55 37445.45 Q 80456.2 37971.3 80443.85 38357.4 Q 80432.15 38743.5 80402.25 38909.9 Q 80365.85 39272.6 80269 39296 Q 80196.2 39352.55 80042.8 39349.3 L 79710 39349.3 Z M 84502.45 41465.7 Q 85749.8 41082.85 86432.95 40232.65 Q 87116.1 39383.1 87125.2 38231.3 Q 87123.9 37383.05 86760.55 36900.1 Q 86397.2 36416.5 85687.4 36407.4 Q 85142.7 36412.6 84770.25 36726.55 Q 84397.8 37041.15 84382.85 37605.35 Q 84399.1 38177.35 84765.7 38482.2 Q 85131.65 38787.05 85647.1 38790.3 Q 85730.3 38793.55 85794 38776.65 Q 85654.25 39861.5 84076.7 40387.35 L 84502.45 41465.7 Z M 102753.15 30789.45 Q 102224.05 31484.95 101635.15 32040.7 L 98652.95 32040.7 Q 99242.5 31445.3 99771.6 30789.45 L 102753.15 30789.45 Z M 105216 35089.2 L 102793.45 35089.2 L 102793.45 33505.15 L 105216 33505.15 L 105216 35089.2 Z M 98773.2 33505.15 L 101249.05 33505.15 L 101249.05 35089.2 L 98773.2 35089.2 L 98773.2 33505.15 Z M 100450.2 39109.45 Q 99410.2 39125.7 99080 38948.25 Q 99067.65 38941.75 99055.3 38934.6 Q 98743.3 38746.75 98773.2 38164.35 L 98773.2 36593.95 L 105216 36593.95 L 105216 37046.35 L 106773.4 37046.35 L 106773.4 32040.7 L 103525.35 32040.7 Q 103986.85 31566.2 104404.15 31054 Q 104820.8 30541.8 105162.7 30057.55 L 104151.3 29299 L 103845.15 29378.3 L 100783 29378.3 L 101115.8 28806.3 L 99678 28260.3 Q 98985.75 29512.85 97896.35 30588.6 Q 96806.3 31663.7 95604.45 32387.15 Q 95827.4 32683.55 96080.9 33139.2 Q 96333.75 33594.85 96456.6 33891.25 Q 96839.45 33628.65 97241.8 33305.6 L 97241.8 38164.35 Q 97217.75 39467.6 97830.05 39990.2 Q 97926.25 40073.4 98041.3 40142.3 Q 98775.15 40571.3 100476.85 40547.25 L 105029.45 40547.25 Q 106447.1 40565.45 107093.2 40118.9 Q 107308.35 39970.7 107467.6 39760.1 Q 107939.5 39118.55 108091.6 37724.95 Q 107747.1 37659.3 107331.1 37500.7 Q 106914.45 37342.1 106600.5 37165.95 Q 106507.55 38252.75 106256.65 38664.2 Q 106193.6 38763.65 106113.65 38836.45 Q 105786.05 39133.5 104949.5 39109.45 L 100450.2 39109.45 Z M 112804.1 30563.25 Q 112440.75 30107.6 111830.4 29551.85 Q 111220.05 28996.1 110647.4 28539.8 L 109635.35 29511.55 Q 110208.65 29999.7 110798.85 30595.1 Q 111389.05 31190.5 111712.1 31668.25 L 112804.1 30563.25 Z M 115253.3 33371.9 L 115253.3 34490.55 L 119206.6 34490.55 L 119206.6 33371.9 L 117796.1 33371.9 L 117796.1 32467.1 L 118940.75 32467.1 L 118940.75 31362.1 L 117796.1 31362.1 L 117796.1 30470.3 L 116570.85 30470.3 L 116570.85 31362.1 L 115493.15 31362.1 L 115493.15 32467.1 L 116570.85 32467.1 L 116570.85 33371.9 L 115253.3 33371.9 Z M 117782.45 36393.75 L 117782.45 37485.75 L 116491.55 37485.75 L 116491.55 36393.75 L 117782.45 36393.75 Z M 118940.75 38590.75 L 118940.75 35302.4 L 115346.25 35302.4 L 115346.25 39176.4 L 116491.55 39176.4 L 116491.55 38590.75 L 118940.75 38590.75 Z M 120937.55 28832.95 L 113509.35 28832.95 L 113509.35 33997.85 Q 113515.85 34845.45 113462.55 35780.15 Q 113409.25 36714.85 113216.2 37632 Q 113105.7 37418.15 113010.15 37189.35 Q 112914.6 36960.55 112843.75 36766.85 L 112151.5 37352.5 L 112151.5 32440.45 L 109036.7 32440.45 L 109036.7 33958.2 L 110607.1 33958.2 L 110607.1 37791.9 Q 110586.95 38405.5 110319.8 38851.4 Q 110052 39297.95 109782.25 39522.2 Q 109999.35 39697.7 110291.2 39999.95 Q 110583.05 40302.2 110740.35 40547.25 Q 110854.75 40387.35 111194.05 40067.55 Q 111300.65 39967.45 111443 39838.1 Q 111904.5 39418.85 112977 38484.15 Q 112757.3 39252.45 112297.75 39921.95 Q 112556.45 40047.4 112891.85 40307.4 Q 113227.9 40568.05 113416.4 40773.45 Q 114156.75 39671.05 114473.95 38224.8 Q 114642.3 37489.65 114731.35 36738.25 Q 114893.85 35258.85 114880.2 33997.85 L 114880.2 30217.45 L 119539.4 30217.45 L 119539.4 39096.45 Q 119553.05 39359.05 119286.55 39362.3 Q 119242.35 39362.95 119170.2 39363.6 Q 118971.95 39366.2 118644.35 39362.95 Q 118316.75 39359.7 117955.35 39335.65 Q 118119.8 39632.7 118246.55 40044.8 Q 118373.95 40456.9 118408.4 40773.45 Q 119103.25 40778.65 119581 40723.4 Q 120059.4 40668.8 120364.9 40493.95 Q 120697.7 40308.7 120821.2 39978.5 Q 120944.05 39647.65 120937.55 39123.1 L 120937.55 28832.95 Z M 125942.55 29977.6 Q 125550.6 29655.85 124944.15 29278.85 Q 124337.7 28901.85 123786.5 28619.75 L 122854.4 29711.1 Q 123406.9 30034.15 123999.05 30446.9 Q 124591.85 30859.65 124944.15 31202.2 L 125942.55 29977.6 Z M 125436.85 33412.2 Q 125013.7 33079.4 124363.7 32686.8 Q 123713.7 32294.2 123120.9 32001.05 L 122215.45 33119.05 Q 122828.4 33451.85 123466.7 33876.3 Q 124105 34301.4 124478.75 34663.45 L 125436.85 33412.2 Z M 124105.65 40507.6 Q 124561.95 39530 125027.35 38457.5 Q 125493.4 37385 125889.25 36327.45 L 124611.35 35382.35 Q 124141.4 36553.65 123618.15 37675.55 Q 123095.55 38796.8 122654.85 39589.15 L 124105.65 40507.6 Z M 128099.25 37698.3 L 128099.25 37046.35 L 132079.85 37046.35 L 132079.85 37698.3 L 128099.25 37698.3 Z M 132079.85 35355.7 L 132079.85 35968 L 128099.25 35968 L 128099.25 35355.7 L 132079.85 35355.7 Z M 133570.3 34197.4 L 126634.8 34197.4 L 126634.8 40800.1 L 128099.25 40800.1 L 128099.25 38816.95 L 132079.85 38816.95 L 132079.85 39242.7 Q 132092.85 39468.9 131827 39455.9 Q 131786.7 39455.9 131717.15 39456.55 Q 131516.95 39459.15 131178.3 39456.55 Q 130839 39453.3 130482.15 39429.25 Q 130625.8 39730.2 130745.4 40101.35 Q 130864.35 40472.5 130907.9 40773.45 Q 131595.6 40780.6 132102.6 40745.5 Q 132610.25 40709.75 132958 40547.25 Q 133310.95 40392.55 133444.2 40088.35 Q 133577.45 39783.5 133570.3 39269.35 L 133570.3 34197.4 Z M 130841.6 32560.05 L 130841.6 31987.4 L 133703.55 31987.4 L 133703.55 30922.7 L 130841.6 30922.7 L 130841.6 30390.35 L 134063 30390.35 L 134063 29258.7 L 130841.6 29258.7 L 130841.6 28353.25 L 129270.55 28353.25 L 129270.55 29258.7 L 126142.75 29258.7 L 126142.75 30390.35 L 129270.55 30390.35 L 129270.55 30922.7 L 126515.2 30922.7 L 126515.2 31987.4 L 129270.55 31987.4 L 129270.55 32560.05 L 125663.05 32560.05 L 125663.05 33691.7 L 134609 33691.7 L 134609 32560.05 L 130841.6 32560.05 Z M 138802.15 32134.3 Q 138544.1 31450.5 138058.55 30584.7 Q 137573 29719.55 137084.85 28966.2 L 135660.7 29564.85 Q 136137.8 30361.75 136595.4 31260.7 Q 137053 32159.65 137271.4 32826.55 L 138802.15 32134.3 Z M 137125.15 40121.5 Q 137569.75 39071.1 138029.95 37851.7 Q 138490.15 36631.65 138895.1 35382.35 L 137457.95 34716.75 Q 137006.2 36048.6 136479.05 37305.7 Q 135952.55 38562.8 135500.8 39455.9 L 137125.15 40121.5 Z M 146163.4 34450.25 L 145897.55 34530.2 L 139880.5 34530.2 L 139880.5 36007.65 L 144845.85 36007.65 Q 144420.75 36514 143940.4 37019.7 Q 143460.7 37525.4 142995.3 37951.8 L 141637.45 37073 L 140559.1 38018.1 Q 141388.5 38571.9 142334.25 39238.15 Q 142652.75 39463.05 142957.6 39684.7 Q 143863.05 40341.2 144420.1 40826.75 L 145591.4 39721.75 Q 145078.55 39322.65 144286.85 38803.3 Q 145096.1 38029.8 145912.5 37084.7 Q 146728.9 36138.95 147308.7 35195.8 L 146163.4 34450.25 Z M 142010.55 32812.9 Q 142362.2 33216.55 142719.05 33674.8 Q 143075.9 34133.7 143288.45 34476.9 L 144579.35 33678.05 Q 144350.55 33346.55 143989.15 32927.95 Q 143627.1 32508.7 143248.15 32147.3 L 142010.55 32812.9 Z M 142902.35 28313.6 Q 142225.05 29705.25 141028.4 30972.75 Q 139832.4 32239.6 138336.1 33092.4 Q 138623.4 33321.85 138965.3 33703.4 Q 139307.2 34084.95 139494.4 34383.95 Q 140655.95 33661.8 141647.85 32718 Q 142639.1 31774.2 143421.7 30643.2 Q 144172.45 31735.2 145078.55 32694.6 Q 145984.65 33654.65 146895.95 34317 Q 147117.6 33982.9 147456.9 33598.75 Q 147795.55 33213.95 148107.55 32959.8 Q 147035.05 32339.7 145987.25 31375.1 Q 144940.1 30411.15 144206.9 29351.65 Q 144343.4 29115.7 144459.75 28859.6 L 142902.35 28313.6 Z M 159369.45 29085.8 Q 159148.45 29644.15 158805.25 30287 Q 158462.05 30930.5 158131.2 31428.4 L 159355.8 31881.45 Q 159712 31450.5 160137.75 30847.95 Q 160564.15 30245.4 160980.15 29605.15 L 159369.45 29085.8 Z M 160939.85 33531.8 Q 160323 33058.6 159364.25 32508.7 Q 158405.5 31958.15 157438.95 31495.35 Q 157613.8 30838.2 157686.6 30060.8 Q 157759.4 29283.4 157785.4 28366.9 L 156214.35 28366.9 Q 156203.95 29950.95 155961.5 30996.15 Q 155752.2 31865.85 155141.2 32445 Q 154415.15 33140.5 152753.1 33531.8 Q 152985.15 33777.5 153234.1 34147.35 Q 153483.05 34517.85 153605.25 34823.35 Q 154873.4 34485.35 155670.3 33977.7 Q 156466.55 33470.05 156906.6 32773.25 Q 157805.55 33254.25 158632.35 33784.65 Q 159458.5 34315.7 159968.1 34756.4 L 160939.85 33531.8 Z M 154031 38071.4 Q 154415.8 37515 154720 36763.6 Q 155024.2 36012.2 155189.3 35275.75 L 153765.15 34982.6 Q 153590.3 35670.3 153295.85 36337.2 Q 153001.4 37004.75 152646.5 37432.45 L 154031 38071.4 Z M 154203.9 31974.4 Q 154568.55 31468.7 154863 30773.2 Q 155157.45 30077.7 155322.55 29391.95 L 153951.05 29098.8 Q 153776.2 29763.1 153483.7 30396.85 Q 153191.2 31030.6 152846.05 31455.05 L 154203.9 31974.4 Z M 152913 30084.2 Q 152495.05 29731.9 151808 29326.95 Q 151120.95 28922 150503.45 28619.75 L 149531.7 29698.1 Q 150149.2 30041.3 150826.5 30482 Q 151503.8 30922.05 151900.95 31295.8 L 152913 30084.2 Z M 152287.05 33611.75 Q 151839.85 33278.95 151142.4 32886.35 Q 150444.95 32493.75 149837.85 32200.6 L 148852.45 33265.95 Q 149477.75 33608.5 150155.7 34031 Q 150833 34453.5 151249 34796.7 L 152287.05 33611.75 Z M 151368.6 35395.35 Q 150825.85 36556.9 150225.25 37658.65 Q 149625.3 38760.4 149132.6 39522.2 L 150569.75 40560.9 Q 151113.8 39593.05 151639.65 38530.3 Q 152166.15 37468.2 152619.85 36420.4 L 151368.6 35395.35 Z M 159528.7 37884.85 Q 159884.9 37420.75 160300.9 36756.45 Q 160716.9 36092.8 161113.4 35409 L 159475.4 34876.65 Q 159265.45 35474 158930.05 36151.3 Q 158594.65 36828.6 158264.45 37365.5 Q 157848.45 36703.8 157611.85 35861.4 Q 157702.2 34979.35 157732.1 33958.2 L 156161.05 33958.2 Q 156146.1 35570.2 155901.05 36649.2 Q 155665.1 37678.8 154877.3 38334.65 Q 154053.75 39020.4 152247.4 39415.6 Q 152497 39681.45 152744.65 40071.45 Q 152992.3 40461.45 153112.55 40787.1 Q 154733.65 40371.1 155663.8 39725 Q 156593.3 39079.55 157026.2 38164.35 Q 157555.3 39133.5 158413.95 39780.25 Q 159272.6 40427 160580.4 40746.8 Q 160729.25 40421.15 160993.15 40033.1 Q 161257.05 39645.05 161525.5 39388.95 Q 159242.7 38966.45 158317.75 37445.45 L 159528.7 37884.85 Z M 10527.9 56592.15 L 11805.8 56592.15 L 11805.8 57910.35 L 10527.9 57910.35 L 10527.9 56592.15 Z M 11805.8 52651.85 L 10527.9 52651.85 L 10527.9 51414.25 L 11805.8 51414.25 L 11805.8 52651.85 Z M 11805.8 55260.95 L 10527.9 55260.95 L 10527.9 53983.05 L 11805.8 53983.05 L 11805.8 55260.95 Z M 14854.3 57910.35 L 13163.65 57910.35 L 13163.65 56592.15 L 14494.85 56592.15 L 14494.85 55260.95 L 13163.65 55260.95 L 13163.65 53983.05 L 14507.85 53983.05 L 14507.85 52651.85 L 13163.65 52651.85 L 13163.65 51414.25 L 14707.4 51414.25 L 14707.4 49989.45 L 12657.95 49989.45 L 13376.2 49683.3 Q 13282.6 49251.05 13083.7 48716.75 Q 12884.8 48181.8 12631.3 47700.15 L 11473 48179.2 Q 11666.7 48599.1 11835.7 49084.65 Q 12004.7 49569.55 12098.3 49989.45 L 10567.55 49989.45 Q 10997.2 48967.65 11286.45 47926.35 L 9915.6 47566.9 Q 9569.8 48875.35 9012.1 50079.8 Q 8453.75 51283.6 7758.9 52133.15 Q 7787.5 52165.65 7819.35 52203.35 Q 7926.6 52324.9 8051.4 52478.95 L 7586 52478.95 L 7586 49643.65 L 8344.55 49643.65 L 8344.55 48179.2 L 2939.8 48179.2 L 2939.8 49643.65 L 6201.5 49643.65 L 6201.5 52478.95 L 4564.15 52478.95 Q 4664.9 51883.55 4760.45 51267.35 Q 4856 50651.8 4936.6 50096.05 L 3605.4 49989.45 Q 3480.6 50991.1 3296 52094.8 Q 3111.4 53198.5 2926.8 54009.7 L 5016.55 54009.7 Q 4518.65 55138.1 3843.3 56156.65 Q 3168.6 57174.55 2420.45 57843.4 Q 2681.75 58048.15 2983.35 58373.15 Q 3284.3 58697.5 3485.8 58962.05 Q 4263.2 58177.5 4968.45 57048.45 Q 5673.7 55919.4 6201.5 54635.65 L 6201.5 57976.65 Q 6214.5 58243.15 5948.65 58229.5 Q 5786.8 58230.15 5397.45 58228.2 Q 5008.75 58226.25 4537.5 58216.5 Q 4672.7 58539.55 4793.6 58940.6 Q 4914.5 59341 4950.25 59654.3 Q 6364.65 59684.2 7000.35 59374.8 Q 7333.8 59201.25 7462.5 58870.4 Q 7591.85 58539.55 7586 57976.65 L 7586 54009.7 L 8464.15 54009.7 L 8464.15 53078.25 Q 8600.65 53274.55 8677.35 53411.05 Q 8900.3 53144.55 9103.1 52838.4 L 9103.1 60000.1 L 10527.9 60000.1 L 10527.9 59348.15 L 14854.3 59348.15 L 14854.3 57910.35 Z M 17942.45 60665.7 Q 19189.8 60282.85 19872.95 59432.65 Q 20556.1 58583.1 20565.2 57431.3 Q 20563.9 56583.05 20200.55 56100.1 Q 19837.2 55616.5 19127.4 55607.4 Q 18582.7 55612.6 18210.25 55926.55 Q 17837.8 56241.15 17822.85 56805.35 Q 17839.1 57377.35 18205.7 57682.2 Q 18571.65 57987.05 19087.1 57990.3 Q 19170.3 57993.55 19234 57976.65 Q 19094.25 59061.5 17516.7 59587.35 L 17942.45 60665.7 Z M 40533.2 48232.5 L 33743.95 48232.5 L 33743.95 49696.95 L 40533.2 49696.95 L 40533.2 48232.5 Z M 41291.75 56845 Q 40932.3 56120.9 40353.8 55142.65 Q 39775.3 54163.75 39213.7 53248.55 Q 39118.8 53093.2 39028.45 52945 L 37710.9 53543.65 Q 38180.2 54339.25 38669 55234.3 L 35461.25 55487.8 Q 35905.85 54843 36338.1 54113.05 Q 36770.35 53383.1 37125.25 52638.85 L 41398.35 52638.85 L 41398.35 51161.4 L 32852.15 51161.4 L 32852.15 52638.85 L 35181.75 52638.85 Q 34836.6 53485.8 34484.3 54142.95 Q 34132 54800.1 33957.15 55048.4 Q 33577.55 55630.8 33197.95 55753.65 Q 33346.8 56099.45 33510.6 56567.45 Q 33675.05 57035.45 33743.95 57311.05 Q 33963 57209.65 34440.75 57127.75 Q 34691.65 57085.5 35082.95 57036.75 Q 35474.25 56988.65 36056 56926.9 Q 37193.5 56807.95 39391.15 56593.45 L 39401.55 56592.15 Q 39484.75 56758.55 39563.4 56911.3 Q 39751.25 57270.75 39880.6 57563.9 L 41291.75 56845 Z M 32838.5 49776.9 Q 32507 49497.4 32006.5 49134.05 Q 31506.65 48770.05 31005.5 48417.75 Q 30722.1 48217.55 30482.25 48045.95 L 29430.55 49058 Q 30016.2 49495.45 30672.05 50012.85 Q 31327.9 50530.25 31733.5 50907.9 L 32838.5 49776.9 Z M 32332.8 52079.85 L 29164.7 52079.85 L 29164.7 53543.65 L 30775.4 53543.65 L 30775.4 57271.4 Q 30351.6 57484.6 29903.1 57825.2 Q 29454.6 58165.8 29031.45 58588.95 L 30122.8 60133.35 Q 30550.5 59516.5 30978.2 59027.05 Q 31405.9 58536.95 31733.5 58509 Q 32005.85 58541.5 32453.05 58871.05 Q 32703.3 59043.95 32998.4 59214.9 Q 33682.85 59597.75 34554.5 59749.2 Q 35425.5 59900 36659.2 59893.5 Q 37619.9 59891.55 38734 59858.4 Q 39110.35 59847.35 39472.4 59835 Q 40544.9 59796.65 41225.45 59760.9 Q 41245.6 59396.9 41393.15 58890.55 Q 41540.7 58384.2 41690.85 58029.95 Q 40772.4 58158.65 39591.35 58238.6 Q 39192.9 58266.55 38796.4 58287.35 Q 37619.25 58349.1 36725.5 58349.75 Q 35636.1 58362.75 34754.05 58248.35 Q 33871.35 58133.95 33211.6 57737.45 Q 32882.05 57545.05 32638.3 57383.2 Q 32469.95 57273.35 32332.8 57191.45 L 32332.8 52079.85 Z M 45032.5 49976.45 Q 45278.2 50406.75 45488.15 50851.35 Q 45698.75 51296.6 45804.7 51626.8 L 47175.55 51081.45 Q 46985.75 50598.5 46616.55 49976.45 L 48307.2 49976.45 Q 48007.55 50339.15 47668.25 50601.75 Q 47977.65 50764.9 48377.4 51028.15 Q 48776.5 51290.75 49026.1 51494.2 Q 49651.4 50874.75 50237.7 49976.45 L 50756.4 49976.45 Q 50970.9 50332 51147.7 50690.15 Q 51324.5 51048.3 51409 51334.3 L 52779.85 50828.6 Q 52646.6 50452.25 52354.1 49976.45 L 54617.4 49976.45 L 54617.4 48658.25 L 50942.95 48658.25 Q 51129.5 48252.65 51275.75 47846.4 L 49731.35 47447.3 Q 49509.7 48101.2 49171.05 48723.25 Q 48831.75 49345.3 48400.15 49869.85 L 48400.15 48658.25 L 45511.55 48658.25 Q 45678.6 48311.8 45812.5 47960.8 Q 45835.25 47902.95 45858 47846.4 L 44340.25 47447.3 Q 44013.95 48390.45 43490.05 49254.3 Q 42966.15 50117.5 42329.8 50722 Q 42620.35 50892.95 43015.55 51144.5 Q 43410.75 51395.4 43661 51587.15 Q 44257.05 50921.55 44832.95 49976.45 L 45032.5 49976.45 Z M 49771.65 58469.35 Q 49227.6 58481.05 49052.75 58353 Q 48877.9 58224.95 48892.85 57817.4 L 48892.85 57204.45 L 54657.05 56805.35 L 54510.8 55474.15 L 48892.85 55846.6 L 48892.85 55008.1 L 53632 54675.3 L 53498.75 53411.05 L 48892.85 53717.2 L 48892.85 53024.95 Q 50247.45 52933.95 51501.95 52788.35 Q 52756.45 52642.75 53831.55 52452.3 L 53152.95 51134.75 Q 51594.25 51416.2 49516.2 51600.8 Q 48676.4 51676.2 47797.6 51734.7 Q 45623.35 51878.35 43501.75 51919.95 Q 43616.8 52201.4 43719.5 52562.15 Q 43822.2 52923.55 43847.55 53224.5 Q 45514.8 53207.6 47282.15 53131.55 L 47282.15 53810.15 L 43288.55 54076.65 L 43434.8 55381.2 L 47282.15 55114.7 L 47282.15 55953.2 L 42662.6 56273 L 42795.85 57630.85 L 47282.15 57311.05 L 47282.15 57830.4 Q 47257.45 58978.3 47761.2 59419.65 Q 48265.6 59861 49598.75 59840.2 L 52234.5 59840.2 Q 53317.4 59861.65 53771.75 59386.5 Q 54226.1 58910.7 54350.9 57684.15 Q 54005.75 57609.4 53603.4 57452.75 Q 53201.7 57296.1 52926.75 57111.5 Q 52863.05 57938.95 52701.85 58214.55 Q 52540.65 58490.8 52087.6 58469.35 L 49771.65 58469.35 Z M 58743.6 49843.2 Q 58979.55 50262.45 59179.75 50692.1 Q 59380.6 51121.1 59476.15 51440.9 L 60834 50868.25 Q 60677.35 50425.6 60341.3 49843.2 L 61939 49843.2 L 61939 48565.3 L 58996.45 48565.3 Q 59046.5 48453.5 59095.9 48344.95 Q 59205.75 48105.75 59302.6 47873.05 L 57812.15 47473.95 Q 57476.1 48375.5 56938.55 49197.75 Q 56400.35 50019.35 55735.4 50601.75 Q 56024.65 50744.1 56406.2 50991.1 Q 56787.1 51238.75 57026.3 51440.9 Q 57678.9 50791.55 58291.2 49843.2 L 58743.6 49843.2 Z M 56507.6 59960.45 L 58051.35 59960.45 L 58051.35 52904.7 L 56507.6 52904.7 L 56507.6 59960.45 Z M 57186.2 51800.35 Q 57599.6 52184.5 57990.25 52648.6 Q 58380.9 53112.7 58584.35 53477.35 L 59821.95 52612.2 Q 59587.3 52241.7 59173.25 51808.15 Q 58758.55 51375.25 58344.5 51014.5 L 57186.2 51800.35 Z M 60860.65 57311.05 L 60860.65 56592.15 L 63123.3 56592.15 L 63123.3 57311.05 L 60860.65 57311.05 Z M 63123.3 54835.2 L 63123.3 55527.45 L 60860.65 55527.45 L 60860.65 54835.2 L 63123.3 54835.2 Z M 64521.45 53676.9 L 59529.45 53676.9 L 59529.45 58469.35 L 64521.45 58469.35 L 64521.45 53676.9 Z M 67463.35 51520.2 L 60021.5 51520.2 L 60021.5 52918.35 L 65905.95 52918.35 L 65905.95 58296.45 Q 65925.45 58555.8 65625.8 58535.65 Q 65464.6 58546.7 65023.9 58542.8 Q 64582.55 58538.25 64121.7 58509 Q 64266 58800.2 64394.7 59171.35 Q 64523.4 59542.5 64587.75 59853.85 Q 65334.6 59869.45 65882.55 59832.4 Q 66429.85 59795.35 66797.75 59640.65 Q 67170.85 59479.45 67320.35 59168.1 Q 67469.2 58857.4 67463.35 58296.45 L 67463.35 51520.2 Z M 64454.5 48565.3 Q 64557.2 48296.85 64645.6 48036.85 Q 64676.8 47947.15 64707.35 47859.4 L 63216.9 47513.6 Q 62973.15 48354.7 62544.15 49121.05 Q 62115.8 49887.4 61552.9 50428.85 Q 61851.9 50579.65 62233.45 50823.4 Q 62615 51066.5 62843.8 51267.35 Q 63372.9 50681.7 63842.2 49856.2 L 64481.15 49856.2 Q 64758.7 50273.5 64998.55 50695.35 Q 65239.05 51117.2 65346.3 51453.9 L 66704.15 50814.95 Q 66622.25 50621.25 66483.15 50371 Q 66343.4 50120.1 66171.8 49856.2 L 67915.75 49856.2 L 67915.75 48565.3 L 64454.5 48565.3 Z M 69460.15 53331.1 Q 69572.6 53263.5 69879.4 53201.1 Q 70186.2 53138.7 70897.95 53051.6 Q 70614.55 53515.7 70383.8 53860.2 Q 70152.4 54204.7 70019.15 54369.15 Q 69754.6 54720.15 69538.15 54933.35 Q 69321.7 55146.55 69087.05 55207.65 Q 69202.75 55493 69333.4 55863.5 Q 69464.05 56234 69540.1 56499.2 L 69553.1 56565.5 L 69566.75 56552.5 L 69566.75 56565.5 L 69566.75 56552.5 Q 69716.9 56447.85 70179.7 56300.95 Q 70426.05 56224.9 70827.75 56121.55 Q 71599.3 55922 73280.2 55554.1 Q 73259.4 55299.3 73263.95 54924.9 Q 73267.85 54550.5 73306.85 54235.9 L 71483.6 54568.7 Q 72055.6 53775.05 72578.2 52901.45 Q 73100.8 52027.85 73533.7 51134.75 L 72255.8 50389.2 Q 71982.8 51071.05 71629.85 51733.4 L 70738.05 51800.35 Q 71234 50970.3 71677.95 50007.65 Q 72121.9 49045.65 72428.7 48086.25 L 70964.25 47420.65 Q 70731.55 48453.5 70377.95 49396.65 Q 70268.1 49695 70160.85 49960.2 Q 69814.4 50800 69633.05 51094.45 Q 69326.9 51769.8 68940.8 51906.3 Q 69078.6 52239.1 69228.75 52663.55 Q 69378.9 53088.65 69446.5 53331.1 Q 69443.25 53304.45 69460.15 53277.8 L 69460.15 53331.1 Z M 73027.35 56406.25 L 73026.05 56406.25 Q 71891.8 56822.9 70857 57194.7 Q 69822.2 57566.5 69087.05 57803.75 L 69460.15 59361.15 Q 69910.6 59152.5 70409.15 58923.05 Q 71092.95 58609.1 71822.9 58269.15 Q 72552.85 57929.2 73280.2 57577.55 L 73027.35 56406.25 Z M 74664.7 55740.65 Q 74394.3 56441.35 73911.35 57209.65 Q 73428.4 57977.95 72868.1 58549.3 Q 73120.95 58718.3 73433.6 58962.05 Q 73746.25 59205.8 73959.45 59414.45 Q 74584.1 58766.4 75135.95 57893.45 Q 75687.8 57021.15 76102.5 56153.4 L 74664.7 55740.65 Z M 75557.15 53797.15 Q 75628.65 53611.25 75703.4 53424.05 Q 75839.25 53089.3 75969.25 52731.8 L 76835.05 52731.8 L 76835.05 53797.15 L 75557.15 53797.15 Z M 80841.65 55221.3 L 80841.65 53797.15 L 78365.8 53797.15 L 78365.8 51294 L 76461.95 51294 Q 76601.7 50838.35 76741.45 50362.55 L 81028.2 50362.55 L 81028.2 48911.1 L 77141.2 48911.1 Q 77300.45 48298.8 77420.7 47686.5 L 75876.3 47486.95 Q 75772.95 48199.35 75609.8 48911.1 L 73546.7 48911.1 L 73546.7 50362.55 L 75251 50362.55 Q 75127.5 50858.5 74984.5 51294 L 73746.25 51294 L 73746.25 52731.8 L 74532.1 52731.8 L 74452.15 52918.35 Q 74257.15 53419.5 74074.5 53718.5 Q 73891.85 54017.5 73666.3 54089.65 Q 73804.1 54391.9 73945.8 54796.85 Q 74088.15 55201.8 74146 55434.5 Q 74250 55324.65 74606.85 55272.65 Q 74963.05 55220.65 75397.25 55221.3 L 76835.05 55221.3 L 76835.05 58296.45 Q 76844.8 58539.55 76595.2 58522.65 Q 76540.6 58522.65 76445.7 58523.95 Q 76239.65 58526.55 75921.15 58525.25 Q 75602.65 58524.6 75264 58509 Q 75408.95 58830.75 75533.75 59221.4 Q 75658.55 59612.7 75703.4 59933.8 Q 76391.75 59939 76903.3 59892.2 Q 77414.2 59845.4 77753.5 59680.95 Q 78105.8 59508.7 78239.05 59191.5 Q 78372.3 58874.3 78365.8 58323.1 L 78365.8 55221.3 L 80841.65 55221.3 Z M 78805.2 56339.3 Q 79179.6 57074.45 79572.2 57892.15 Q 79964.15 58709.2 80189.7 59294.85 L 81520.9 58615.6 Q 81284.3 58084.55 80902.1 57361.1 Q 80519.25 56637 80147.45 55958.4 Q 80094.15 55860.9 80042.8 55767.3 L 78805.2 56339.3 Z M 85767.35 53890.1 Q 87315 53121.15 88563 52133.15 Q 89844.15 53191.35 91584.2 53890.1 L 85767.35 53890.1 Z M 88802.2 50122.7 L 90346.6 50122.7 L 90346.6 51174.4 L 91996.95 51174.4 L 91996.95 50122.7 L 94593.05 50122.7 L 94593.05 48658.25 L 91996.95 48658.25 L 91996.95 47579.9 L 90346.6 47579.9 L 90346.6 48658.25 L 86805.4 48658.25 L 86805.4 47579.9 L 85168.05 47579.9 L 85168.05 48658.25 L 82558.95 48658.25 L 82558.95 50122.7 L 85168.05 50122.7 L 85168.05 51174.4 L 86805.4 51174.4 L 86805.4 50122.7 L 88483.05 50122.7 Q 87558.75 51137.35 86082.6 51956.35 Q 85743.3 52145.5 85386.45 52317.75 Q 83834.25 53065.9 82186.5 53411.05 Q 82452.35 53743.85 82700.65 54166.35 Q 82948.95 54588.85 83104.95 54941.8 Q 83920.05 54708.45 84755.3 54356.15 L 84755.3 57737.45 Q 84729.95 58904.2 85332.5 59349.45 Q 85362.4 59371.55 85394.25 59392.35 Q 86033.85 59809.65 87617.25 59787.55 L 91092.15 59787.55 Q 92334.95 59809.65 92892 59384.55 Q 92992.75 59307.85 93077.9 59212.3 Q 93547.85 58682.55 93687.6 57391 Q 93322.95 57326 92900.45 57171.3 Q 92478.6 57016.6 92183.5 56832 Q 92108.1 57768.65 91892.3 58074.15 Q 91879.3 58091.7 91865.65 58108.6 Q 91634.25 58388.75 90985.55 58362.75 L 87684.2 58362.75 Q 86887.95 58374.45 86635.75 58246.4 Q 86383.55 58118.35 86406.3 57710.8 L 86406.3 55301.25 L 90373.25 55301.25 Q 90303.05 56269.75 90133.4 56419.25 Q 89980.65 56542.75 89667.35 56525.85 Q 89447 56527.8 89013.45 56517.4 Q 88580.55 56507 88070.3 56459.55 Q 88232.15 56718.9 88339.4 57048.45 Q 88447.3 57378 88469.4 57657.5 Q 89037.5 57677 89532.8 57677 Q 90028.1 57677 90346.6 57657.5 Q 90695.65 57632.15 90977.1 57539.2 Q 91258.55 57446.25 91478.25 57231.1 Q 91712.9 57015.95 91827.3 56356.2 Q 91942.35 55696.45 91996.95 54422.45 Q 92013.85 54256.05 92010.6 54050 Q 92985.6 54406.2 93980.75 54622 Q 94161.45 54284.65 94454.6 53876.45 Q 94748.4 53468.9 95018.8 53210.85 Q 93402.25 52973.6 91950.8 52454.25 Q 90498.7 51934.25 89561.4 51227.7 Q 89717.4 51064.55 89853.9 50881.25 L 88802.2 50122.7 Z M 102367.05 52518.6 Q 102005.65 52223.5 101466.8 51873.15 Q 100928.6 51522.8 100357.25 51187.4 Q 101252.3 50136.35 101808.05 48805.15 L 100756.35 48285.8 L 100490.5 48352.1 L 96110.8 48352.1 L 96110.8 49776.9 L 99545.4 49776.9 Q 98850.55 50724.6 97820.95 51457.15 Q 96792 52190.35 95618.1 52598.55 Q 95867.05 52843.6 96130.3 53207.6 Q 96394.2 53572.25 96563.2 53876.45 Q 98067.3 53251.15 99332.2 52185.8 Q 99912.65 52561.5 100433.95 52931.35 Q 100954.6 53301.85 101275.7 53596.95 L 102367.05 52518.6 Z M 105096.4 50482.15 Q 105112.65 49104.15 105109.4 47566.9 L 103605.3 47566.9 Q 103605.3 49124.3 103605.3 50482.15 L 102181.15 50482.15 L 102181.15 51946.6 L 103578.65 51946.6 Q 103539.65 54066.25 103175.65 55627.55 Q 102812.3 57188.2 101875 58269.8 L 101795.05 56911.95 Q 100732.95 57094.6 99691.65 57257.75 L 99691.65 55487.8 L 101555.2 55487.8 L 101555.2 54063 L 96164.1 54063 L 96164.1 55487.8 L 98160.9 55487.8 L 98160.9 57510.6 Q 97488.15 57601.6 96880.4 57687.4 Q 96272.65 57772.55 95779.3 57843.4 L 95778 57843.4 L 96070.5 59361.15 Q 97286.65 59136.25 98818.7 58865.85 Q 100313.05 58601.3 101834.7 58323.1 Q 101535.05 58645.5 101156.1 58948.4 Q 101430.4 59135.6 101745 59477.5 Q 102059.6 59819.4 102233.8 60106.7 Q 103748.95 58869.1 104349.55 56919.1 Q 104389.85 56796.25 104426.9 56670.8 Q 104983.3 54674.65 105056.1 51946.6 L 106201.4 51946.6 Q 106178.65 54700 106136.4 56079.3 Q 106122.1 56512.2 106103.9 56839.8 Q 106048 57878.5 105921.25 58070.25 Q 105834.8 58206.75 105748.35 58252.9 Q 105661.9 58299.7 105535.8 58296.45 Q 105195.85 58306.2 104537.4 58256.15 Q 104717.45 58578.55 104823.4 58993.25 Q 104928.7 59408.6 104949.5 59760.9 Q 105825.05 59780.4 106360.65 59680.95 Q 106654.45 59628.3 106863.1 59491.15 Q 107072.4 59354 107266.1 59042 Q 107465 58745.6 107552.75 57630.85 Q 107602.15 57013.35 107632.05 56063.05 Q 107684.7 54336.65 107718.5 51174.4 Q 107719.8 51008.65 107725 50758.4 Q 107730.85 50508.15 107732.15 50482.15 L 105096.4 50482.15 Z M 111126.45 60665.7 Q 112373.8 60282.85 113056.95 59432.65 Q 113740.1 58583.1 113749.2 57431.3 Q 113747.9 56583.05 113384.55 56100.1 Q 113021.2 55616.5 112311.4 55607.4 Q 111766.7 55612.6 111394.25 55926.55 Q 111021.8 56241.15 111006.85 56805.35 Q 111023.1 57377.35 111389.7 57682.2 Q 111755.65 57987.05 112271.1 57990.3 Q 112354.3 57993.55 112418 57976.65 Q 112278.25 59061.5 110700.7 59587.35 L 111126.45 60665.7 Z M 134475.75 52705.15 L 129483.75 52705.15 L 129483.75 49976.45 L 133570.3 49976.45 L 133570.3 48405.4 L 123453.7 48405.4 L 123453.7 49976.45 L 127806.75 49976.45 L 127806.75 52705.15 L 122548.25 52705.15 L 122548.25 54276.2 L 127806.75 54276.2 L 127806.75 57923.35 Q 127819.75 58293.2 127394 58282.8 Q 127138.55 58294.5 126476.85 58288 Q 125815.15 58281.5 125050.75 58243.15 Q 125258.75 58600 125448.55 59071.9 Q 125639 59543.8 125716.35 59920.15 Q 126705 59926 127433.65 59866.85 Q 128162.3 59808.35 128631.6 59614 Q 129104.15 59435.9 129297.2 59049.8 Q 129490.25 58664.35 129483.75 57937 L 129483.75 54276.2 L 134475.75 54276.2 L 134475.75 52705.15 Z M 138735.85 57125.15 Q 138175.55 57609.4 137322.75 58033.2 Q 136470.6 58457.65 135580.75 58762.5 Q 135857 58959.45 136202.8 59281.2 Q 136549.25 59603.6 136765.7 59840.2 Q 137647.75 59452.15 138577.25 58887.3 Q 139507.4 58321.8 140199.65 57684.15 L 138735.85 57125.15 Z M 143501 57910.35 Q 144284.9 58326.35 145134.45 58842.45 Q 145210.5 58888.6 145285.25 58935.4 Q 146122.45 59450.85 146629.45 59866.85 L 147854.05 58948.4 Q 147276.2 58522 146411.7 58031.25 Q 146345.4 57993.55 146278.45 57955.85 Q 145406.8 57467.7 144646.3 57098.5 L 143501 57910.35 Z M 147947.65 51573.5 L 142596.2 51573.5 L 142596.2 51054.8 L 146616.45 51054.8 L 146616.45 49923.15 L 142596.2 49923.15 L 142596.2 49417.45 L 147295.05 49417.45 L 147295.05 48272.15 L 142596.2 48272.15 L 142596.2 47540.25 L 140998.5 47540.25 L 140998.5 48272.15 L 136392.6 48272.15 L 136392.6 49417.45 L 140998.5 49417.45 L 140998.5 49923.15 L 137098.5 49923.15 L 137098.5 51054.8 L 140998.5 51054.8 L 140998.5 51573.5 L 135753.65 51573.5 L 135753.65 52772.1 L 139920.15 52772.1 Q 139359.85 53052.9 138897.05 53244.65 Q 138434.25 53435.75 138202.85 53517 Q 137634.1 53736.7 137204.45 53797.15 Q 137309.75 54085.75 137422.85 54457.55 Q 137535.3 54828.7 137590.55 55048.4 Q 137737.45 54981.45 138160.6 54924.25 Q 138306.85 54905.4 138510.3 54885.25 Q 139108.95 54826.1 140519.45 54742.25 Q 139773.25 55032.8 139201.25 55236.25 Q 138629.9 55439.7 138323.1 55540.45 Q 137682.85 55749.1 137219.4 55865.45 Q 136756.6 55981.15 136365.95 56020.15 Q 136453.05 56312 136557.7 56698.75 Q 136661.7 57085.5 136698.75 57298.05 Q 136904.15 57220.7 137374.75 57160.25 Q 137741.35 57112.8 138463.5 57060.15 Q 139403.4 56991.25 141318.3 56885.3 L 141318.3 58336.1 Q 141348.2 58546.05 141038.8 58535.65 Q 140846.4 58545.4 140349.8 58537.6 Q 139853.2 58529.8 139321.5 58509 Q 139489.2 58821 139649.1 59220.1 Q 139809 59618.55 139866.85 59960.45 Q 140594.2 59966.3 141153.2 59927.3 Q 141712.85 59887.65 142130.15 59734.25 Q 142550.7 59569.15 142704.1 59246.75 Q 142857.5 58924.35 142849.05 58389.4 L 142849.05 56792.35 L 145870.9 56632.45 Q 145961.25 56722.8 146047.7 56807.95 Q 146387.65 57136.2 146616.45 57404.65 L 147880.7 56618.8 Q 147443.25 56143 146721.75 55562.55 Q 146719.8 55560.6 146717.2 55558.65 Q 145995.05 54978.2 145338.55 54502.4 L 144153.6 55221.3 Q 144258.9 55301.9 144372.65 55387.7 Q 144543.6 55515.1 144712.6 55647.05 L 140878.9 55806.95 Q 143424.95 54965.2 145790.95 53783.5 L 144699.6 52838.4 Q 143950.8 53254.4 143101.9 53650.25 L 140412.85 53756.85 Q 141235.1 53411.05 141996.9 53024.95 L 141690.75 52772.1 L 147947.65 52772.1 L 147947.65 51573.5 Z M 150636.7 59374.8 Q 151070.9 58375.1 151525.25 57212.9 Q 151979.6 56051.35 152393.65 54861.85 L 150929.2 54129.95 Q 150458.6 55429.95 149936 56637 Q 149413.4 57844.7 148972.7 58695.55 L 150636.7 59374.8 Z M 158876.75 55580.75 L 157332.35 55580.75 L 157332.35 54688.95 L 158876.75 54688.95 L 158876.75 55580.75 Z M 157332.35 52425.65 L 158876.75 52425.65 L 158876.75 53277.8 L 157332.35 53277.8 L 157332.35 52425.65 Z M 157186.1 50042.75 Q 156896.2 50582.25 156586.8 51041.15 L 154324.15 51041.15 Q 154723.25 50571.85 155082.7 50042.75 L 157186.1 50042.75 Z M 161325.95 53277.8 L 160354.2 53277.8 L 160354.2 51041.15 L 158224.15 51041.15 Q 158536.8 50616.7 158821.5 50174.05 Q 159106.85 49732.05 159329.15 49337.5 L 158264.45 48618.6 L 158038.25 48684.9 L 155908.2 48684.9 Q 155968.65 48564 156029.1 48446.35 Q 156147.4 48216.9 156254 47992.65 L 154749.9 47540.25 Q 154301.4 48533.45 153629.95 49457.1 Q 152959.15 50380.75 152180.45 51054.8 Q 151873 50476.3 151431 49762.6 Q 150988.35 49049.55 150558.7 48380.7 Q 150461.85 48229.25 150370.2 48086.25 L 148959.05 48725.2 Q 149442.65 49522.75 149946.4 50417.15 Q 149957.45 50437.3 149969.15 50457.45 Q 150470.3 51350.55 150756.3 51999.9 L 151994.55 51387.6 Q 152276.65 51607.3 152593.2 51876.4 Q 152910.4 52146.15 153112.55 52345.7 Q 153358.9 52126 153605.25 51866.65 L 153605.25 52425.65 L 155788.6 52425.65 L 155788.6 53277.8 L 152393.65 53277.8 L 152393.65 54688.95 L 155788.6 54688.95 L 155788.6 55580.75 L 153126.2 55580.75 L 153126.2 56965.25 L 155788.6 56965.25 L 155788.6 58229.5 Q 155790.55 58366 155728.15 58414.75 Q 155665.75 58462.85 155508.45 58469.35 Q 155319.95 58479.75 154846.75 58477.8 Q 154372.9 58475.85 153844.45 58456.35 Q 154000.45 58787.85 154140.85 59196.7 Q 154281.25 59605.55 154337.15 59946.8 Q 155106.75 59952.65 155683.3 59903.9 Q 156260.5 59854.5 156640.1 59680.95 Q 157041.8 59517.15 157191.3 59178.5 Q 157340.15 58839.85 157332.35 58256.15 L 157332.35 56965.25 L 158876.75 56965.25 L 158876.75 57457.95 L 160354.2 57457.95 L 160354.2 54688.95 L 161325.95 54688.95 L 161325.95 53277.8 Z M 169259.85 54276.2 L 169259.85 51414.25 L 172268.7 51414.25 L 172268.7 54276.2 L 169259.85 54276.2 Z M 164587.65 54276.2 L 164587.65 51414.25 L 167582.85 51414.25 L 167582.85 54276.2 L 164587.65 54276.2 Z M 169259.85 49856.2 L 169259.85 47553.25 L 167582.85 47553.25 L 167582.85 49856.2 L 162989.95 49856.2 L 162989.95 56565.5 L 164587.65 56565.5 L 164587.65 55833.6 L 167582.85 55833.6 L 167582.85 59987.1 L 169259.85 59987.1 L 169259.85 55833.6 L 172268.7 55833.6 L 172268.7 56499.2 L 173932.7 56499.2 L 173932.7 49856.2 L 169259.85 49856.2 Z M 5961.65 69229.75 Q 5621.7 68743.55 5034.75 68167.65 Q 4447.8 67592.4 3858.25 67126.35 L 2660.3 68018.15 Q 3239.45 68525.8 3798.45 69132.9 Q 4357.45 69740.65 4657.1 70228.15 L 5961.65 69229.75 Z M 11259.8 72304.9 L 11259.8 71079.65 Q 11867.55 71673.1 12612.45 72131.35 Q 13358 72590.25 14135.4 72863.9 Q 14303.75 72581.8 14559.85 72254.85 Q 14815.3 71927.9 15053.85 71705.6 Q 14223.8 71500.2 13433.4 71138.15 Q 12643 70776.1 12032 70321.1 L 14760.7 70321.1 L 14760.7 69136.15 L 11259.8 69136.15 L 11259.8 68350.95 Q 12897.15 68201.45 14215.35 67951.85 L 13243.6 66913.15 Q 12169.15 67135.45 10617.6 67278.45 Q 10243.2 67313.55 9855.8 67344.1 Q 8247.7 67467.6 6667.55 67512.45 Q 6772.2 67733.45 6867.1 68035.05 Q 6962 68336 6986.7 68577.15 Q 8341.3 68564.15 9755.7 68470.55 L 9755.7 69136.15 L 6267.8 69136.15 L 6267.8 70321.1 L 8930.2 70321.1 Q 8306.85 70817.05 7489.15 71223.3 Q 6671.45 71628.9 5828.4 71865.5 Q 6066.95 72077.4 6323.05 72394.6 Q 6578.5 72711.8 6746.85 72983.5 Q 6993.2 72903.55 7239.55 72783.95 L 7239.55 73702.4 L 8531.1 73702.4 Q 8408.25 74529.2 7893.45 75098.6 Q 7379.3 75668 6148.2 76005.35 Q 6352.3 76193.2 6549.25 76471.4 Q 6746.2 76748.95 6880.1 77017.4 Q 6657.8 76874.4 6478.4 76751.55 Q 6022.1 76411.6 5669.15 76325.15 L 5669.15 71865.5 L 2686.95 71865.5 L 2686.95 73329.95 L 4151.4 73329.95 L 4151.4 76737.25 Q 3316.15 77206.55 2500.4 77935.85 L 3552.1 79320.35 Q 4098.1 78669.05 4603.8 78200.4 Q 5109.5 77731.1 5495.6 77709 Q 5777.7 77742.15 6208 78073 Q 6447.85 78244.6 6733.85 78414.9 Q 7400.1 78797.75 8243.15 78949.2 Q 9086.2 79100 10261.4 79093.5 Q 11131.75 79092.2 12186.05 79061.65 Q 12509.75 79052.55 12825.65 79041.5 Q 13854.6 79005.1 14534.5 78960.9 Q 14554 78619 14685.95 78141.9 Q 14817.9 77665.45 14947.25 77323.55 Q 14055.45 77449 12901.05 77523.1 Q 12639.75 77540.65 12377.15 77554.3 Q 11220.15 77615.4 10301.7 77616.05 Q 9320.2 77625.8 8505.75 77536.1 Q 7691.95 77446.4 7079.65 77137 Q 8566.85 76628.7 9199.95 75773.95 Q 9833.05 74919.2 9981.9 73702.4 L 10914 73702.4 Q 10797 74248.4 10661.15 74674.15 L 12964.1 74674.15 Q 12913.4 75148.65 12837.35 75401.5 Q 12761.95 75653.7 12670.95 75738.85 Q 12531.2 75878.6 12231.55 75859.1 Q 12062.55 75859.75 11708.95 75845.45 Q 11355.35 75831.8 10927 75792.15 Q 11070 76050.2 11173.35 76368.05 Q 11276.7 76685.9 11300.1 76964.1 Q 11787.6 76992.7 12215.3 76986.85 Q 12643 76981 12910.8 76950.45 Q 13489.95 76937.45 13868.9 76564.35 Q 14096.4 76355.05 14236.8 75765.5 Q 14377.2 75176.6 14454.55 74088.5 Q 14475.35 73933.8 14491.6 73758.95 Q 14507.2 73584.1 14507.85 73569.15 L 12284.85 73569.15 Q 12346.6 73242.2 12414.85 72930.2 Q 12458.4 72727.4 12498.05 72531.1 L 7771.9 72531.1 Q 8305.55 72250.3 8813.85 71896.7 Q 9322.15 71543.75 9755.7 71132.95 L 9755.7 72304.9 L 11259.8 72304.9 Z M 25663.8 73396.25 L 25663.8 76884.15 L 22854.5 76884.15 L 22854.5 72704 L 26901.4 72704 L 26901.4 67871.9 L 25144.45 67871.9 L 25144.45 71173.25 L 22854.5 71173.25 L 22854.5 66753.25 L 21097.55 66753.25 L 21097.55 71173.25 L 18901.2 71173.25 L 18901.2 67871.9 L 17223.55 67871.9 L 17223.55 72704 L 21097.55 72704 L 21097.55 76884.15 L 18301.9 76884.15 L 18301.9 73409.25 L 16518.3 73409.25 L 16518.3 78454.55 L 25663.8 78454.55 L 25663.8 79173.45 L 27447.4 79173.45 L 27447.4 73396.25 L 25663.8 73396.25 Z M 29218 71985.1 L 29218 73702.4 L 41464.65 73702.4 L 41464.65 71985.1 L 29218 71985.1 Z M 52393.75 73981.9 Q 51851.65 75099.9 50969.6 75898.75 Q 50027.75 75070 49465.5 73981.9 L 52393.75 73981.9 Z M 44526.8 73329.95 Q 44543.05 72633.8 44539.8 72038.4 L 44539.8 71678.95 L 45884.65 71678.95 L 45884.65 73329.95 L 44526.8 73329.95 Z M 45884.65 68644.1 L 45884.65 70241.15 L 44539.8 70241.15 L 44539.8 68644.1 L 45884.65 68644.1 Z M 53365.5 72437.5 L 53112.65 72504.45 L 47694.9 72504.45 L 47694.9 73981.9 L 48773.25 73981.9 L 48107.65 74221.75 Q 48793.4 75675.8 49798.3 76750.9 Q 48686.8 77410 47295.8 77709 Q 47312.05 77573.15 47308.8 77416.5 L 47308.8 71372.8 Q 47530.45 71587.3 47779.4 71883.7 Q 48029 72180.1 48160.95 72384.2 Q 49316 71713.4 49740.45 70756.6 Q 49769.05 70697.45 49795.05 70637 Q 50182.45 69671.75 50157.75 68710.4 L 50157.75 68697.4 L 51861.4 68697.4 L 51861.4 70107.9 Q 51838.65 71099.8 52132.45 71552.2 Q 52426.9 72005.25 53312.2 71998.75 L 53991.45 71998.75 Q 54194.9 72000.7 54386 71979.9 Q 54576.45 71959.75 54710.35 71892.15 Q 54679.8 71612 54651.85 71254.5 Q 54623.9 70897 54603.75 70587.6 Q 54476.35 70627.9 54295.65 70653.9 Q 54115.6 70679.9 53977.8 70680.55 L 53459.1 70680.55 Q 53334.3 70682.5 53307.65 70552.5 Q 53280.35 70422.5 53286.2 70134.55 L 53286.2 67232.95 L 48746.6 67232.95 L 48746.6 68657.1 Q 48777.8 69323.35 48511.95 69975.3 Q 48246.1 70626.6 47308.8 71173.25 L 47308.8 67219.3 L 43115.65 67219.3 L 43115.65 72051.4 Q 43128 73331.25 43044.15 74830.8 Q 43014.25 75300.75 42964.2 75767.45 Q 42818.6 77257.25 42383.1 78468.2 Q 42654.8 78578.05 43035.7 78787.35 Q 43416.6 78997.3 43648 79187.1 Q 43994.45 78262.15 44188.8 77115.55 Q 44383.15 75968.3 44459.85 74793.75 L 45884.65 74793.75 L 45884.65 77389.85 Q 45894.4 77616.05 45684.45 77603.05 Q 45567.45 77603.05 45305.5 77601.1 Q 45043.55 77599.15 44726.35 77589.4 Q 44870 77906.6 44981.15 78328.45 Q 45091.65 78750.3 45125.45 79066.85 Q 45702 79072.7 46114.1 79015.5 Q 46526.2 78958.3 46803.1 78774.35 Q 47242.5 78494.85 47282.15 77855.9 Q 47477.15 78135.4 47651.35 78483.15 Q 47826.2 78830.25 47921.1 79120.15 Q 49615 78647.6 50969.6 77775.95 Q 52283.9 78717.8 54057.75 79200.1 Q 54207.9 78864.7 54465.95 78466.25 Q 54723.35 78068.45 54963.2 77802.6 Q 53392.15 77473.05 52181.2 76763.9 Q 53622.25 75330 54284.6 72837.25 L 53365.5 72437.5 Z M 60288 72344.55 L 58863.85 72730.65 L 58863.85 70947.05 Q 59418.3 70326.3 59928.55 69585.95 Q 60438.8 68844.95 60834 68124.75 L 59795.3 67405.85 L 59502.8 67498.8 L 56068.2 67498.8 L 56068.2 68963.25 L 58531.05 68963.25 Q 58259.35 69406.55 57960.35 69815.4 Q 57660.7 70223.6 57359.1 70547.3 L 57359.1 73143.4 Q 56891.75 73251.95 56480.95 73353.35 Q 56050 73459.3 55682.1 73542.5 L 56027.9 75073.25 Q 56644.1 74893.85 57359.1 74674.15 L 57359.1 77323.55 Q 57372.75 77526.35 57146.55 77509.45 Q 57099.1 77509.45 57020.45 77510.75 Q 56854.05 77513.35 56592.1 77512.7 Q 56330.15 77511.4 56027.9 77496.45 Q 56182.6 77839 56309.35 78261.5 Q 56436.1 78684.65 56480.95 79027.2 Q 57087.4 79032.4 57537.2 78975.85 Q 57987 78918.65 58304.2 78734.05 Q 58627.9 78539.7 58748.8 78204.95 Q 58869.7 77870.85 58863.85 77336.55 L 58863.85 74234.75 Q 59662.05 73991.65 60460.9 73729.05 L 60288 72344.55 Z M 66864.05 66660.3 Q 65731.1 67019.1 64152.25 67304.45 Q 64126.9 67309 64101.55 67314.2 Q 62518.15 67597.6 60900.3 67778.3 L 60900.3 70214.5 Q 60915.9 71526.2 60778.75 73159 Q 60688.4 74156.75 60481.05 75166.85 Q 60154.75 76819.8 59369.55 78215.35 Q 59628.9 78321.95 59979.9 78586.5 Q 60331.55 78850.4 60540.85 79066.85 Q 61320.85 77693.4 61701.75 75991.05 Q 62019.6 74592.25 62146.35 73208.4 Q 62295.85 71524.9 62284.8 70214.5 L 62284.8 68950.25 Q 62817.15 68893.7 63349.5 68817 L 63349.5 70214.5 Q 63369.65 71493.05 63253.3 73032.25 Q 63174.65 73972.8 62971.2 74910.75 Q 62653.35 76446.05 61818.75 77709 Q 62039.75 77890.35 62353.05 78223.8 Q 62666.35 78556.6 62817.15 78787.35 Q 62938.7 78682.05 63365.75 78518.25 Q 63400.85 78504.6 63438.55 78490.95 Q 63904.6 78318.05 65093.45 77962.5 Q 65120.1 78126.3 65145.45 78281.65 Q 65198.75 78599.5 65240.35 78880.95 L 66344.7 78548.15 Q 66228.35 77763.6 65972.25 76763.9 Q 65716.15 75764.85 65399.6 74860.7 L 64361.55 75166.85 Q 64597.5 75902 64813.95 76737.25 L 64813.95 76737.25 L 63735.6 77003.75 Q 64327.75 75389.8 64507.8 73737.5 Q 64545.5 73426.15 64572.8 73121.3 Q 64699.55 71499.55 64680.7 70241.15 L 64680.7 68630.45 Q 65146.75 68553.75 65612.8 68457.55 Q 65707.7 71393.6 65991.1 73971.5 Q 66039.85 74390.1 66097.05 74793.75 Q 66429.2 77278.05 67170.2 78987.55 Q 67382.75 78666.45 67707.75 78333 Q 68032.75 78000.2 68314.85 77788.95 Q 67717.5 76484.4 67410.05 74460.3 Q 67283.3 73658.85 67191 72785.25 Q 66968.05 70581.75 66877.7 68204.7 Q 67446.45 68068.2 67955.4 67911.55 L 66864.05 66660.3 Z M 74638.05 74754.1 Q 74676.4 74464.2 74695.9 74154.8 Q 74706.3 74017 74718 73875.3 L 77087.9 73875.3 L 77087.9 72917.2 Q 77227 73088.8 77327.1 73233.1 Q 77370.65 73294.2 77407.05 73342.95 Q 77563.7 73110.25 77700.2 72837.25 Q 77819.8 73590.6 78011.55 74356.3 Q 78203.3 75122 78472.4 75845.45 Q 77852.95 77100.6 76714.8 77935.85 Q 76803.2 77551.05 76861.7 76899.1 Q 76919.55 76247.15 76967.65 75273.45 Q 76977.4 75127.2 76979.35 74948.45 Q 76981.95 74770.35 76981.3 74754.1 L 74638.05 74754.1 Z M 71829.4 70001.95 Q 72232.4 69132.9 72535.3 68244.35 L 72535.3 69376 L 74119.35 69376 L 74119.35 70308.1 L 72721.2 70308.1 L 72721.2 71586 L 74119.35 71586 L 74119.35 72611.05 L 72215.5 72611.05 L 72215.5 73875.3 L 73320.5 73875.3 Q 73267.2 75300.1 72944.15 76393.4 Q 72621.75 77486.05 71829.4 78162.05 L 71829.4 70001.95 Z M 76741.45 71586 L 76741.45 71586 Q 76585.45 71895.4 76408.65 72145 Q 76601.7 72338.05 76835.05 72611.05 L 75557.15 72611.05 L 75557.15 71586 L 76741.45 71586 Z M 79590.4 70440.7 Q 79500.7 72347.8 79151 73875.3 Q 78738.25 72327.65 78565.35 70800.15 Q 78625.15 70620.75 78684.95 70440.7 L 79590.4 70440.7 Z M 81467.6 70440.7 L 81467.6 69109.5 L 79044.4 69109.5 Q 79287.5 68077.95 79470.8 67006.75 L 78059.65 66753.25 Q 77882.2 68083.8 77570.2 69309.7 Q 77258.2 70534.95 76781.75 71506.05 L 76781.75 70308.1 L 75557.15 70308.1 L 75557.15 69376 L 76994.3 69376 L 76994.3 68124.75 L 75557.15 68124.75 L 75557.15 66939.8 L 74119.35 66939.8 L 74119.35 68124.75 L 72574.95 68124.75 Q 72755 67641.8 72894.75 67179.65 L 71430.3 66766.9 Q 71021.45 68234.6 70370.15 69572.3 Q 69718.85 70910 68940.8 71878.5 Q 69149.45 72206.1 69376.3 72724.15 L 69386.7 72747.55 Q 69612.25 73264.95 69713 73582.8 Q 70055.55 73170.05 70378.6 72677.35 L 70378.6 79173.45 L 71829.4 79173.45 L 71829.4 78215.35 Q 72073.8 78403.2 72358.5 78711.3 Q 72643.2 79018.75 72788.15 79226.75 Q 73461.55 78628.75 73867.8 77815.6 Q 74274.05 77003.1 74478.8 75965.7 L 75543.5 75965.7 Q 75495.4 76763.25 75436.9 77146.75 Q 75379.05 77530.25 75290.65 77629.7 Q 75163.9 77775.95 74957.85 77762.3 Q 74738.15 77772.7 74199.3 77722.65 Q 74340.35 77991.1 74432 78334.95 Q 74523.65 78678.8 74545.1 78987.55 Q 74900.65 79005.75 75210.7 78992.1 Q 75521.4 78978.45 75716.4 78947.25 Q 76166.2 78914.1 76475.6 78521.5 Q 76601.7 78371.35 76688.15 78041.8 Q 76879.9 78299.85 77091.15 78659.3 Q 77302.4 79019.4 77394.05 79267.05 Q 78488.65 78451.3 79164.65 77336.55 Q 79780.2 78414.9 80695.4 79173.45 Q 80870.9 78866 81161.45 78488.35 Q 81451.35 78110.05 81667.15 77882.55 Q 80571.9 77083.7 79936.2 75845.45 Q 80360.65 74726.8 80597.25 73372.85 Q 80833.85 72019.55 80948.25 70440.7 L 81467.6 70440.7 Z M 84369.2 76418.1 L 84369.2 73809 L 86486.25 73809 L 86486.25 76418.1 L 84369.2 76418.1 Z M 86486.25 72437.5 L 84369.2 72437.5 L 84369.2 70281.45 L 86486.25 70281.45 L 86486.25 72437.5 Z M 90719.05 68803.35 Q 91018.7 67968.1 91238.4 67112.7 L 89720.65 66766.9 Q 89427.5 67951.85 88967.3 69075.05 Q 88506.45 70197.6 87923.4 71053 L 87923.4 68896.95 L 85860.3 68896.95 Q 86206.75 68014.9 86552.55 66993.1 L 84822.25 66753.25 Q 84779.35 67235.55 84674.05 67810.15 Q 84568.75 68384.75 84436.15 68896.95 L 82931.4 68896.95 L 82931.4 78787.35 L 84369.2 78787.35 L 84369.2 77815.6 L 87923.4 77815.6 L 87923.4 71599 Q 88203.55 71784.25 88490.85 71987.05 Q 88778.8 72189.2 88948.45 72344.55 Q 89584.15 71462.5 90120.4 70241.15 L 92968.7 70241.15 Q 92866.65 73663.4 92712.6 75337.15 Q 92706.1 75405.4 92699.6 75471.05 Q 92541.65 77083.05 92263.45 77363.2 Q 92138 77490.6 92005.4 77541.3 Q 91872.8 77591.35 91677.8 77589.4 Q 91406.75 77592 90875.7 77579.65 Q 90344.65 77567.3 89694 77509.45 Q 89907.85 77853.3 90048.9 78281.65 Q 90189.95 78710 90213.35 79053.85 Q 90812 79075.95 91363.2 79075.3 Q 91914.4 79075.3 92303.1 79027.2 Q 92697.65 78966.75 93002.5 78810.75 Q 93306.7 78655.4 93581 78295.3 Q 93886.5 77926.1 94054.2 76745.7 Q 94161.45 75988.45 94237.5 74779.45 Q 94353.85 72882.1 94446.8 69522.25 Q 94455.9 69355.2 94458.5 69093.25 Q 94460.45 68831.3 94459.8 68803.35 L 90719.05 68803.35 Z M 92249.8 74873.7 Q 91919.6 74268.55 91366.45 73450.85 Q 90813.95 72633.8 90293.3 71918.8 L 89055.05 72624.05 Q 89564 73379.35 90085.3 74226.3 Q 90606.6 75073.9 90905.6 75699.2 L 92249.8 74873.7 Z M 98866.15 70534.3 Q 98608.1 69850.5 98122.55 68984.7 Q 97637 68119.55 97148.85 67366.2 L 95724.7 67964.85 Q 96201.8 68761.75 96659.4 69660.7 Q 97117 70559.65 97335.4 71226.55 L 98866.15 70534.3 Z M 97189.15 78521.5 Q 97633.75 77471.1 98093.95 76251.7 Q 98554.15 75031.65 98959.1 73782.35 L 97521.95 73116.75 Q 97070.2 74448.6 96543.05 75705.7 Q 96016.55 76962.8 95564.8 77855.9 L 97189.15 78521.5 Z M 106227.4 72850.25 L 105961.55 72930.2 L 99944.5 72930.2 L 99944.5 74407.65 L 104909.85 74407.65 Q 104484.75 74914 104004.4 75419.7 Q 103524.7 75925.4 103059.3 76351.8 L 101701.45 75473 L 100623.1 76418.1 Q 101452.5 76971.9 102398.25 77638.15 Q 102716.75 77863.05 103021.6 78084.7 Q 103927.05 78741.2 104484.1 79226.75 L 105655.4 78121.75 Q 105142.55 77722.65 104350.85 77203.3 Q 105160.1 76429.8 105976.5 75484.7 Q 106792.9 74538.95 107372.7 73595.8 L 106227.4 72850.25 Z M 102074.55 71212.9 Q 102426.2 71616.55 102783.05 72074.8 Q 103139.9 72533.7 103352.45 72876.9 L 104643.35 72078.05 Q 104414.55 71746.55 104053.15 71327.95 Q 103691.1 70908.7 103312.15 70547.3 L 102074.55 71212.9 Z M 102966.35 66713.6 Q 102289.05 68105.25 101092.4 69372.75 Q 99896.4 70639.6 98400.1 71492.4 Q 98687.4 71721.85 99029.3 72103.4 Q 99371.2 72484.95 99558.4 72783.95 Q 100719.95 72061.8 101711.85 71118 Q 102703.1 70174.2 103485.7 69043.2 Q 104236.45 70135.2 105142.55 71094.6 Q 106048.65 72054.65 106959.95 72717 Q 107181.6 72382.9 107520.9 71998.75 Q 107859.55 71613.95 108171.55 71359.8 Q 107099.05 70739.7 106051.25 69775.1 Q 105004.1 68811.15 104270.9 67751.65 Q 104407.4 67515.7 104523.75 67259.6 L 102966.35 66713.6 Z M 116930.3 68723.4 Q 116774.3 69169.95 116557.85 69655.5 L 113842.15 69655.5 Q 113780.4 69441 113680.95 69194.65 Q 113581.5 68947.65 113469.7 68723.4 L 116930.3 68723.4 Z M 120977.2 69655.5 L 118182.2 69655.5 Q 118268.65 69506.65 118359 69344.8 Q 118474.05 69135.5 118607.95 68909.95 L 117542.6 68723.4 L 120271.95 68723.4 L 120271.95 67498.8 L 116132.1 67498.8 Q 115968.95 67016.5 115746 66594 L 114201.6 66873.5 Q 114324.45 67166 114427.8 67498.8 L 110115.05 67498.8 L 110115.05 68723.4 L 112977 68723.4 L 111978.6 68923.6 Q 112131.35 69259.65 112244.45 69655.5 L 109462.45 69655.5 L 109462.45 70880.1 L 120977.2 70880.1 L 120977.2 69655.5 Z M 117969 72917.2 L 112457.65 72917.2 L 112457.65 72344.55 L 117969 72344.55 L 117969 72917.2 Z M 117969 74421.3 L 112457.65 74421.3 L 112457.65 73848.65 L 117969 73848.65 L 117969 74421.3 Z M 119539.4 71359.8 L 110966.55 71359.8 L 110966.55 75419.7 L 114347.85 75419.7 L 113802.5 75952.05 Q 114381 76223.1 114962.1 76585.8 Q 115543.2 76949.15 115892.25 77270.25 L 116864 76298.5 Q 116606.6 76095.05 116234.8 75863.65 Q 115863 75632.9 115466.5 75419.7 L 119539.4 75419.7 L 119539.4 71359.8 Z M 110407.55 78854.3 Q 110927.55 78360.3 111342.9 77704.45 Q 111758.25 77048.6 112058.55 76404.45 L 110740.35 75818.8 Q 110466.05 76431.1 110039.65 77035.6 Q 109613.25 77640.1 109090 78082.1 L 110407.55 78854.3 Z M 114614.35 77775.95 Q 114176.9 77784.4 114037.15 77712.9 Q 113896.75 77641.4 113908.45 77389.85 L 113908.45 76005.35 L 112364.7 76005.35 L 112364.7 77402.85 Q 112338.05 78326.5 112780.7 78691.15 Q 113223.35 79055.8 114454.45 79040.2 L 116597.5 79040.2 Q 117508.8 79063.6 117915.7 78669.7 Q 118322.6 78275.8 118435.05 77190.3 Q 118108.75 77125.95 117722.65 76988.8 Q 117336.55 76851.65 117090.2 76697.6 Q 117053.15 77376.2 116930.3 77586.15 Q 116808.1 77796.1 116451.25 77775.95 L 114614.35 77775.95 Z M 118221.85 76258.2 Q 118705.45 76836.7 119131.85 77497.75 Q 119558.25 78158.8 119752.6 78667.75 L 121124.1 78055.45 Q 120888.8 77528.95 120436.4 76887.4 Q 119984.65 76245.85 119499.75 75699.2 L 118221.85 76258.2 Z M 124425.45 74727.45 Q 123523.25 74750.85 122914.85 75360.55 L 122913.55 75361.85 Q 122305.8 75972.2 122281.75 76884.15 Q 122305.8 77795.45 122913.55 78405.8 L 122914.85 78407.1 Q 123523.25 79016.8 124425.45 79040.2 Q 125346.5 79016.8 125952.95 78406.45 Q 126559.4 77796.1 126581.5 76884.15 Q 126559.4 75971.55 125952.95 75361.2 Q 125346.5 74750.85 124425.45 74727.45  Z M 124425.45 78082.1 Q 123932.1 78069.75 123593.45 77732.4 Q 123254.8 77395.7 123240.5 76884.15 Q 123254.8 76372.6 123593.45 76035.25 Q 123932.1 75698.55 124425.45 75686.2 Q 124937 75698.55 125273.7 76035.25 Q 125611.05 76372.6 125623.4 76884.15 Q 125611.05 77395.7 125273.7 77732.4 Q 124937 78069.75 124425.45 78082.1  Z " fill-rule="nonzero" style="fill:#555555;;fill-opacity:1;"/>
</svg>