<svg version="1.1" x="0" y="0" width="100%" height="100%" viewBox="0 0 860108.8 61798.4" xmlns="http://www.w3.org/2000/svg">
  <path d="M 2011 30622.35 Q 1820.45 30622.35 1668.75 30433.65 Q 1518.9 30243.1 1668.75 30091.4 Q 5496.4 26493.15 8432.35 21490.75 Q 11368.3 16490.2 11938.1 11262.1 Q 11938.1 10958.7 12278.5 10958.7 Q 13490.25 10958.7 14853.7 11696.85 Q 16219 12436.85 16672.25 13308.2 Q 16823.95 13572.75 16823.95 13952 Q 16823.95 14936.2 15991.45 16527.2 Q 17051.5 16453.2 18414.95 16793.6 Q 19780.25 17134 20575.75 17701.95 Q 21334.25 18195.9 21711.65 18915.55 Q 22090.9 19635.2 22090.9 20430.7 Q 22090.9 21302.05 21635.8 22116.05 Q 21182.55 22931.9 20387.05 23385.15 Q 20120.65 23536.85 19817.25 23536.85 Q 19249.3 23536.85 19021.75 23083.6 Q 17810 20809.95 15347.65 17740.8 Q 13338.55 21453.75 10496.95 24522.9 L 10535.8 24522.9 Q 12391.35 24332.35 14097.05 24049.3 Q 15802.75 23764.4 16446.55 23461 Q 16938.65 23196.45 17242.05 23196.45 Q 17582.45 23196.45 18037.55 23461 Q 18681.35 23803.25 19515.7 24447.05 Q 20348.2 25090.85 20688.6 25582.95 Q 20803.3 25734.65 20803.3 26001.05 Q 20803.3 26265.6 20575.75 26872.4 Q 20311.2 27440.35 20083.65 28615.1 Q 19931.95 29638.15 19931.95 29714 Q 19817.25 30811.05 19665.55 31551.05 Q 19513.85 32289.2 19249.3 32744.3 Q 18377.95 34222.45 17467.75 34222.45 Q 17014.5 34222.45 16483.55 33767.35 Q 14816.7 32024.65 12998.15 30925.75 Q 12883.45 30849.9 12901.95 30698.2 Q 12922.3 30546.5 12998.15 30546.5 Q 13717.8 30470.65 14267.25 30470.65 Q 14816.7 30470.65 15081.25 30433.65 Q 15384.65 30394.8 15688.05 30243.1 Q 15991.45 30091.4 16067.3 29902.7 Q 16180.15 29486.45 16180.15 27553.2 Q 16180.15 26872.4 16067.3 26700.35 Q 15952.6 26530.15 15384.65 26569 L 12506.05 26985.25 Q 12354.35 27667.9 12354.35 28803.8 L 12354.35 30849.9 L 12354.35 36645.95 Q 12354.35 37972.4 12827.95 38560.7 Q 13301.55 39147.15 14513.3 39298.85 Q 15271.8 39374.7 15726.9 39374.7 Q 17279.05 39374.7 18568.5 39034.3 Q 19401 38767.9 19780.25 37820.7 Q 20159.5 36873.5 20462.9 35169.65 Q 20612.75 34259.45 20727.45 33804.35 Q 20803.3 33578.65 20992 33578.65 Q 21295.4 33578.65 21334.25 34031.9 Q 21559.95 35397.2 21978.05 36229.7 Q 22394.3 37064.05 23606.05 38655.05 Q 24137 39411.7 24137 40170.2 Q 24137 41041.55 23472.85 41761.2 Q 22810.55 42480.85 21750.5 42823.1 Q 20612.75 43200.5 19021.75 43409.55 Q 17430.75 43618.6 15839.75 43618.6 Q 14740.85 43618.6 13754.8 43503.9 Q 11331.3 43239.35 10193.55 42689.9 Q 9057.65 42140.45 8622.9 40814 Q 8186.3 39487.55 8186.3 36721.8 Q 8186.3 36153.85 8262.15 34335.3 Q 8338 31985.8 8338 30622.35 Q 8338 28463.4 8149.3 27364.5 L 8073.45 26833.55 Q 5231.85 29220.05 2086.85 30622.35 L 2011 30622.35 Z M 23833.6 20506.55 Q 23720.75 20203.15 23720.75 19975.6 Q 23720.75 19711.05 23833.6 19520.5 Q 23948.3 19331.8 24175.85 19294.8 Q 24440.4 19255.95 24971.35 19255.95 Q 26070.25 19255.95 26789.9 19596.35 Q 27509.55 19938.6 28342.05 20506.55 Q 28797.15 20961.65 28797.15 21605.45 Q 28797.15 21870 28682.45 22212.25 Q 28606.6 22513.8 28530.75 24180.65 Q 28493.75 25431.25 28493.75 27440.35 Q 28493.75 30470.65 28380.9 32137.5 Q 28229.2 33426.95 27755.6 34277.95 Q 27282 35130.8 26675.2 35130.8 Q 26371.8 35130.8 25955.55 34790.4 Q 23757.75 32896 23909.45 31229.15 Q 24249.85 27061.1 24249.85 24598.75 Q 24249.85 23424 24212.85 22856.05 Q 24212.85 22704.35 24174 22003.2 Q 24137 21302.05 23833.6 20506.55  Z M 26070.25 41344.95 Q 25766.85 41230.25 25766.85 40928.7 Q 25766.85 40777 25918.55 40662.3 Q 26070.25 40549.45 26373.65 40586.45 Q 28268.05 40852.85 29063.55 40738.15 Q 29479.8 40625.3 29783.2 40303.4 Q 30086.6 39981.5 30275.3 39186 Q 30539.85 37744.85 30539.85 29714 Q 30539.85 21605.45 30351.15 16754.75 Q 30314.15 15506 30180.95 14729 Q 30047.75 13952 29783.2 13041.8 Q 29631.5 12625.55 29631.5 12285.15 Q 29631.5 11262.1 31185.5 11450.8 Q 31638.75 11450.8 32661.8 11830.05 Q 33684.85 12209.3 34650.55 12777.25 Q 35618.1 13345.2 35958.5 13989 Q 36147.2 14255.4 36147.2 14747.5 Q 36147.2 15202.6 35882.65 15998.1 Q 35579.25 16945.3 35542.25 17740.8 Q 35503.4 18612.15 35503.4 21113.35 Q 35503.4 27440.35 35845.65 40057.35 Q 35882.65 41875.9 35618.1 42954.45 Q 35351.7 44034.85 34632.05 44869.2 Q 33912.4 45701.7 32397.25 46573.05 Q 31942.15 46876.45 31487.05 46876.45 Q 30615.7 46876.45 29971.9 45209.6 Q 29516.8 44071.85 28419.75 43030.3 Q 27320.85 41988.75 26070.25 41344.95  Z M 56227.1 28348.7 Q 55886.7 28539.25 55583.3 28197 Q 55279.9 27856.6 55394.6 27440.35 Q 57137.3 24143.65 58595.1 19198.6 Q 60054.75 14255.4 60243.45 10995.7 Q 60243.45 10314.9 60963.1 10427.75 Q 62025 10770 63199.75 11469.3 Q 64374.5 12170.45 65055.3 12777.25 Q 65586.25 13308.2 65586.25 13952 Q 65586.25 14519.95 65094.15 15391.3 Q 64374.5 16529.05 63654.85 18120.05 L 62517.1 20279 Q 64714.9 19975.6 67007.05 19389.15 Q 69299.2 18800.85 71156.6 18081.2 Q 71421.15 17968.35 71667.2 17968.35 Q 71913.25 17968.35 71989.1 17968.35 L 72140.8 18005.35 Q 72216.65 18005.35 72253.65 18081.2 L 72405.35 18081.2 Q 73012.15 18460.45 73807.65 19274.45 Q 74603.15 20090.3 74679 20391.85 Q 74869.55 20771.1 74869.55 21074.5 Q 74869.55 21490.75 74603.15 21775.65 Q 74338.6 22060.55 73996.35 22097.55 Q 70510.95 22362.1 66002.5 23348.15 Q 66117.2 23575.7 66117.2 23803.25 Q 66117.2 24067.8 66002.5 24371.2 Q 65889.65 24674.6 65832.3 25224.05 Q 65774.95 25773.5 65737.95 25962.2 L 65699.1 27212.8 Q 67821.05 26833.55 69754.3 26113.9 Q 70018.85 25962.2 70322.25 25962.2 Q 70662.65 25962.2 71117.75 26189.75 Q 71534 26493.15 71952.1 27061.1 Q 72368.35 27629.05 72632.9 28121.15 Q 72747.6 28348.7 72747.6 28615.1 Q 72747.6 29068.35 72444.2 29429.1 Q 72140.8 29789.85 71648.7 29865.7 Q 70929.05 29978.55 69526.75 30167.25 Q 68124.45 30357.8 67101.4 30546.5 Q 66344.75 30661.2 65623.25 29789.85 L 65510.4 34298.3 Q 67216.1 34259.45 68409.35 34013.4 Q 69602.6 33767.35 71193.6 33199.4 Q 71382.3 33160.55 71761.55 33160.55 Q 72216.65 33160.55 72520.05 33312.25 Q 73051 33652.65 73694.8 34524 Q 74338.6 35397.2 74527.3 35774.6 Q 74642 36041 74642 36381.4 Q 74642 36912.35 74320.1 37291.6 Q 73998.2 37669 73655.95 37632 Q 73276.7 37593.15 72520.05 37593.15 Q 69943 37593.15 67745.2 37972.4 Q 67593.5 38011.25 67367.8 38011.25 Q 66646.3 38011.25 65662.1 37441.45 Q 65510.4 37365.6 65473.4 37289.75 L 65397.55 42140.45 Q 65397.55 44299.4 64848.1 45568.5 Q 64298.65 46837.6 63312.6 46837.6 Q 62100.85 46837.6 60546.85 44943.2 Q 60167.6 44451.1 59960.4 43883.15 Q 59751.35 43315.2 59866.05 42860.1 Q 60243.45 41457.8 60509.85 37139.9 Q 60774.4 32820.15 60774.4 28615.1 Q 60774.4 25318.4 60622.7 23461 Q 58349.05 26833.55 56227.1 28348.7  Z M 40996.05 32213.35 Q 44483.3 27856.6 46906.8 23575.7 Q 49332.15 19292.95 50014.8 15050.9 Q 50127.65 14368.25 50127.65 13609.75 Q 50127.65 12965.95 50014.8 12473.85 Q 49975.95 12361 49975.95 12170.45 Q 49975.95 11450.8 50771.45 11450.8 Q 50999 11450.8 51605.8 11602.5 Q 52704.7 11942.9 53934.95 12625.55 Q 55167.05 13308.2 55925.55 14064.85 Q 56114.25 14216.55 56265.95 14632.8 Q 56417.65 15050.9 56417.65 15580 Q 56417.65 16262.65 56151.25 16945.3 Q 55735 17892.5 54787.8 19407.65 L 54332.7 20166.15 Q 52249.6 23536.85 51302.4 24902.15 Q 52704.7 25166.7 53196.8 25431.25 Q 53803.6 25849.35 53651.9 26720.7 Q 53576.05 26985.25 53461.35 28424.55 Q 53309.65 30622.35 53235.65 35547.05 Q 53083.95 41761.2 52893.4 43200.5 Q 52780.55 44375.25 52136.75 45133.75 Q 51491.1 45890.4 50619.75 45890.4 Q 50203.5 45890.4 49863.1 45738.7 Q 48915.9 45361.3 48138.9 44223.55 Q 47361.9 43087.65 47552.45 41988.75 Q 47968.7 39639.25 48251.75 35491.55 Q 48536.65 31342 48499.65 28272.85 Q 45164.1 31797.1 41565.85 33123.55 Q 41451.15 33160.55 41262.45 33160.55 Q 40807.35 33160.55 40807.35 32705.45 Q 40807.35 32440.9 40996.05 32213.35  Z M 102299.5 26985.25 Q 100101.7 26681.85 98832.6 26075.05 Q 97563.5 25470.1 96882.7 24086.3 Q 96200.05 22704.35 96200.05 20203.15 Q 96200.05 19218.95 96312.9 15467.15 Q 96388.75 13800.3 96388.75 13384.05 Q 96388.75 11754.2 95935.5 10958.7 Q 95783.8 10694.15 95783.8 10351.9 Q 95783.8 9783.95 96427.6 9822.8 Q 97639.35 9974.5 98889.95 10466.6 Q 100140.55 10958.7 100899.05 11678.35 Q 101200.6 11905.9 101200.6 12285.15 Q 101200.6 12625.55 100974.9 12965.95 Q 100708.5 13611.6 100538.3 14216.55 Q 100368.1 14823.35 100329.25 15922.25 Q 100216.4 18157.05 100253.4 19446.5 Q 102678.75 17853.65 103322.55 16982.3 Q 103437.25 16793.6 103759.15 16338.5 Q 104081.05 15883.4 104364.1 15354.3 Q 104649 14823.35 104876.55 14103.7 Q 105065.25 13535.75 105407.5 13535.75 Q 105520.35 13535.75 105899.6 13687.45 Q 106543.4 14064.85 107679.3 15012.05 Q 108817.05 15959.25 109081.6 16490.2 Q 109196.3 16717.75 109196.3 16906.45 Q 109196.3 17324.55 108702.35 17701.95 Q 107679.3 18536.3 105311.3 19653.7 Q 102943.3 20771.1 100480.95 21414.9 Q 100708.5 22136.4 101200.6 22571.15 Q 101694.55 23007.75 102527.05 23196.45 Q 103437.25 23424 104421.45 23424 Q 105975.45 23424 107490.6 22817.2 Q 108513.65 22362.1 109309.15 20941.3 Q 110104.65 19520.5 110295.2 17929.5 Q 110295.2 17664.95 110559.75 17664.95 Q 110787.3 17664.95 110824.3 17892.5 Q 111619.8 20885.8 112681.7 22741.35 Q 113136.8 23575.7 113136.8 24371.2 Q 113136.8 25773.5 111734.5 26226.75 Q 110371.05 26644.85 108456.3 26870.55 Q 106543.4 27098.1 104687.85 27098.1 Q 103285.55 27098.1 102299.5 26985.25  Z M 81196.55 25925.2 Q 81157.7 25849.35 81120.7 25734.65 Q 81081.85 25621.8 81081.85 25470.1 Q 81081.85 25052 81916.2 24939.15 Q 83394.35 24750.45 85742 24143.65 Q 88091.5 23536.85 90668.55 22665.5 Q 90705.55 22021.7 90705.55 20506.55 Q 87560.55 21302.05 86576.35 21339.05 L 86197.1 21339.05 Q 85893.7 21339.05 85723.5 21283.55 Q 85553.3 21226.2 85249.9 20998.65 Q 84985.35 20734.1 84493.25 19994.1 Q 83999.3 19255.95 83810.6 18800.85 Q 83773.6 18725 83773.6 18573.3 Q 83773.6 18308.75 84189.85 18271.75 Q 86084.25 18120.05 87486.55 17816.65 Q 88887 17513.25 90668.55 16906.45 Q 90553.85 14519.95 90176.45 13496.9 Q 90061.75 13269.35 90061.75 13080.65 Q 90061.75 12664.4 90592.7 12664.4 Q 93018.05 12664.4 94268.65 14027.85 Q 94684.9 14482.95 94684.9 15202.6 L 94646.05 16035.1 L 94609.05 19294.8 Q 94609.05 22780.2 94873.6 24180.65 Q 94988.3 24902.15 94988.3 25431.25 Q 94988.3 27477.35 93319.6 27477.35 Q 92866.35 27477.35 92220.7 27155.45 Q 91576.9 26833.55 91103.3 26247.1 Q 90629.7 25658.8 90592.7 24902.15 Q 87447.7 27022.25 84530.25 28615.1 Q 84038.15 28916.65 83583.05 28916.65 Q 83090.95 28916.65 82748.7 28500.4 Q 82295.45 28008.3 81821.85 27194.3 Q 81348.25 26378.45 81196.55 25925.2  Z M 89077.55 43959 Q 89190.4 43163.5 89323.6 40227.55 Q 89456.8 37289.75 89456.8 34599.85 Q 89456.8 30054.4 89077.55 29144.2 Q 88850 28840.8 88850 28539.25 Q 88850 28348.7 88962.85 28235.85 Q 89077.55 28121.15 89305.1 28160 Q 90820.25 28235.85 91956.15 28727.95 Q 93510.15 28689.1 95517.4 28424.55 Q 97526.5 28160 98777.1 27932.45 Q 99609.6 27741.9 99970.35 27610.55 Q 100329.25 27477.35 100747.35 27212.8 Q 101048.9 27022.25 101428.15 27022.25 Q 101770.4 27022.25 102110.8 27173.95 Q 103398.4 27780.75 103929.35 28121.15 Q 104460.3 28463.4 104913.55 29031.35 Q 105104.1 29220.05 105104.1 29599.3 Q 105104.1 29902.7 104876.55 30811.05 Q 104573.15 31985.8 104536.15 32896 Q 104460.3 36912.35 104460.3 42064.6 L 104497.3 43391.05 Q 104497.3 44223.55 104327.1 44867.35 Q 104156.9 45513 103625.95 46042.1 Q 101996.1 47671.95 100708.5 47671.95 Q 99837.15 47671.95 99306.2 46761.75 Q 99193.35 46536.05 98510.7 45266.95 Q 97829.9 43996 97071.4 43048.8 Q 96503.45 42405 96503.45 42216.3 Q 96503.45 42101.6 96843.85 42140.45 L 97639.35 42368 L 99156.35 42747.25 L 99306.2 42747.25 Q 99837.15 42747.25 99837.15 41837.05 Q 99837.15 34827.4 99724.3 30470.65 L 93774.7 31229.15 L 93737.7 31493.7 Q 93698.85 31606.55 93623 33160.55 Q 95783.8 32781.3 96238.9 32705.45 Q 96768 32592.6 97223.1 32592.6 Q 97526.5 32592.6 97754.05 32668.45 Q 98246.15 32896 98473.7 33199.4 Q 98701.25 33500.95 99004.65 34146.6 Q 99117.5 34374.15 99117.5 34599.85 Q 99117.5 35358.35 97829.9 35358.35 Q 97147.25 35395.35 95915.15 35510.05 Q 94684.9 35622.9 94381.5 35698.75 L 94153.95 35698.75 Q 93889.4 35698.75 93586 35622.9 Q 93547.15 36342.55 93547.15 37859.55 Q 94949.45 37593.15 96163.05 37328.6 Q 97261.95 37101.05 97639.35 37215.75 Q 98170.3 37365.6 98492.2 37763.35 Q 98814.1 38162.95 99080.5 38806.75 Q 99230.35 39110.15 99230.35 39298.85 Q 99230.35 39602.25 98908.45 39829.8 Q 98586.55 40057.35 97905.75 40057.35 Q 97261.95 40094.35 96200.05 40188.7 Q 95140 40283.05 94457.35 40358.9 L 94192.8 40358.9 Q 93850.55 40358.9 93510.15 40246.05 L 93510.15 43846.15 Q 93547.15 45437.15 93149.4 46117.95 Q 92751.65 46800.6 91767.45 46837.6 Q 91236.5 46837.6 90535.35 46384.35 Q 89834.2 45929.25 89399.45 45246.6 Q 88962.85 44565.8 89077.55 43959  Z M 119537.8 44451.1 Q 119121.55 44451.1 119121.55 44186.55 Q 119121.55 43959 119463.8 43655.6 Q 119804.2 43352.2 120126.1 43048.8 Q 120448 42747.25 120788.4 42480.85 Q 122873.35 40586.45 123744.7 39715.1 Q 124616.05 38843.75 125296.85 37859.55 Q 125600.25 37443.3 125790.8 36684.8 Q 125866.65 36344.4 125979.5 36192.7 Q 126094.2 36041 126395.75 36041 Q 127041.4 36041 127855.4 36571.95 Q 128669.4 37101.05 129276.2 37820.7 Q 129883 38540.35 129883 38995.45 Q 129920 39147.15 129920 39374.7 Q 129920 39753.95 129731.3 39942.65 Q 129540.75 40131.35 129124.5 40358.9 Q 128593.55 40662.3 128480.7 40777 Q 126738 42177.45 124388.5 43182 Q 122039 44186.55 119728.35 44451.1 L 119537.8 44451.1 Z M 118137.35 26038.05 Q 117721.1 25394.25 117721.1 25127.85 Q 117721.1 24863.3 117985.65 24768.95 Q 118250.2 24672.75 118857 24635.75 Q 120675.55 24598.75 124597.55 24295.35 Q 128517.7 23991.95 132874.45 23536.85 Q 132648.75 23272.3 132136.3 22704.35 Q 131625.7 22136.4 131246.45 21642.45 L 131207.6 21642.45 Q 130980.05 22325.1 130487.95 22552.65 Q 130032.85 22704.35 129768.3 22704.35 Q 129200.35 22704.35 128575.05 22419.45 Q 127949.75 22136.4 127570.5 21794.15 Q 126926.7 21150.35 126850.85 20279 Q 126738 18232.9 126604.8 16945.3 Q 126471.6 15657.7 126094.2 14519.95 Q 126018.35 14407.1 125809.3 13952 Q 125600.25 13496.9 125296.85 13269.35 Q 124919.45 12891.95 124919.45 12512.7 Q 124919.45 12018.75 125676.1 11868.9 Q 126510.45 11717.2 127041.4 11717.2 Q 128480.7 11717.2 129503.75 12094.6 Q 133216.7 11641.35 136626.25 10845.85 Q 138028.55 10655.3 138975.75 10239.05 Q 139392 10087.35 139771.25 10087.35 Q 140187.5 10087.35 140870.15 10390.75 Q 141399.25 10694.15 142233.6 11299.1 Q 143067.95 11905.9 143635.9 12398 Q 143939.3 12664.4 143939.3 13117.65 Q 143939.3 13611.6 143635.9 13913.15 Q 143143.8 14558.8 142555.5 16357 Q 141969.05 18157.05 141854.35 19711.05 Q 141778.5 20467.7 141040.35 21131.85 Q 140302.2 21794.15 139240.3 22021.7 Q 138899.9 22136.4 138633.5 22136.4 Q 138293.1 22136.4 138065.55 21927.35 Q 137838 21718.3 137649.3 21189.2 L 137573.45 20998.65 L 134844.7 21226.2 L 135223.95 21377.9 Q 135867.75 21642.45 136228.5 22116.05 Q 136587.4 22589.65 136663.25 23120.6 Q 143332.5 22362.1 146174.1 21718.3 Q 146629.2 21529.6 147236 21529.6 Q 147916.8 21529.6 148599.45 21833 Q 149319.1 22210.4 150057.25 22950.4 Q 150797.25 23688.55 151250.5 24598.75 Q 151365.2 24748.6 151365.2 25015 Q 151365.2 25394.25 150948.95 25621.8 Q 150532.7 25847.5 149583.65 25810.5 Q 148978.7 25771.65 147500.55 25771.65 Q 143523.05 25771.65 137612.3 26245.25 Q 131701.55 26718.85 127267.1 27325.65 Q 128214.3 27325.65 129143 27553.2 Q 130071.7 27780.75 130526.8 28121.15 L 130678.5 28272.85 Q 136171.15 27780.75 138065.55 27401.5 Q 138672.35 27249.8 139051.6 27061.1 Q 139429 26870.55 139808.25 26530.15 Q 140035.8 26417.3 140226.35 26417.3 Q 140376.2 26417.3 140831.3 26493.15 Q 143711.75 27932.45 144355.55 28463.4 Q 144695.95 28803.8 144695.95 29068.35 Q 144695.95 29183.05 144544.25 29486.45 Q 144392.55 29599.3 144128 30091.4 Q 143863.45 30585.35 143711.75 30735.2 Q 143445.35 31305 143293.65 31872.95 Q 143143.8 32440.9 143067.95 32668.45 Q 142953.25 33275.25 142725.7 33994.9 Q 142537 35206.65 140302.2 35661.75 Q 139959.95 35774.6 139695.4 35774.6 Q 139355 35774.6 139145.95 35585.9 Q 138936.9 35397.2 138785.2 34942.1 Q 137913.85 35017.95 136171.15 35093.8 Q 137762.15 35624.75 138065.55 35926.3 Q 138256.1 36078 138256.1 36381.4 Q 138256.1 36645.95 138065.55 37215.75 Q 137952.7 37632 137819.5 38199.95 Q 137686.3 38767.9 137686.3 39374.7 L 137725.15 40397.75 Q 137838 41572.5 137801 42860.1 Q 137762.15 44186.55 137308.9 44943.2 Q 136853.8 45701.7 136134.15 46136.45 Q 135414.5 46573.05 133973.35 47179.85 Q 133520.1 47331.55 133140.85 47331.55 Q 132648.75 47331.55 132288 47007.8 Q 131927.25 46685.9 131511 45966.25 Q 130223.4 43618.6 129124.5 42821.25 Q 128935.8 42671.4 128935.8 42519.7 Q 128935.8 42253.3 129237.35 42253.3 L 131927.25 42216.3 Q 132421.2 42216.3 132685.75 42046.1 Q 132950.3 41875.9 132989.15 41306.1 Q 133065 37859.55 132534.05 35889.3 Q 132458.2 35510.05 132458.2 35434.2 L 131207.6 35585.9 Q 130980.05 36344.4 130450.95 36533.1 Q 130147.55 36608.95 129957 36608.95 Q 129352.05 36608.95 128669.4 36287.05 Q 127988.6 35965.15 127609.35 35585.9 Q 127002.55 34903.25 126889.7 34107.75 Q 126889.7 31569.55 126244.05 29599.3 Q 126168.2 29410.6 125998 29068.35 Q 125827.8 28727.95 125676.1 28387.55 Q 125259.85 28084.15 125259.85 27856.6 Q 125259.85 27704.9 125487.4 27592.05 Q 124956.45 27667.9 124597.55 27741.9 Q 124236.8 27817.75 123972.25 27856.6 Q 122834.5 28045.3 122114.85 28045.3 Q 121282.35 28045.3 120675.55 27856.6 Q 119880.05 27553.2 119178.9 27022.25 Q 118477.75 26493.15 118137.35 26038.05  Z M 130223.4 14292.4 L 130450.95 15467.15 Q 131927.25 15202.6 133784.65 14975.05 L 134768.85 14860.35 Q 134883.55 14823.35 135148.1 14823.35 Q 135679.05 14823.35 136189.65 15145.25 Q 136702.1 15467.15 137460.6 16186.8 Q 137801 16453.2 137801 16793.6 Q 137801 17400.4 136474.55 17552.1 L 132078.95 18005.35 Q 131435.15 18081.2 130904.2 18005.35 L 131131.75 19218.95 Q 134996.4 18725 137725.15 18499.3 Q 137952.7 17552.1 138065.55 17209.85 Q 138141.4 16830.6 138426.3 15694.7 Q 138709.35 14558.8 138709.35 14027.85 Q 138709.35 13572.75 138293.1 13611.6 L 135072.25 14027.85 Q 132345.35 14331.25 131549.85 14482.95 Q 131359.3 14519.95 131094.75 14519.95 Q 130563.8 14519.95 130223.4 14216.55 L 130223.4 14292.4 Z M 130867.2 30698.2 Q 131131.75 31758.25 131283.45 32933 Q 132724.6 32820.15 134352.6 32686.95 Q 135982.45 32555.6 137686.3 32403.9 Q 138141.4 32328.05 139203.3 32252.2 Q 139429 31417.85 139429 30546.5 L 139467.85 30054.4 Q 139467.85 29712.15 139051.6 29751 Q 132572.9 30585.35 130867.2 30698.2  Z M 139732.4 37517.3 Q 139355 37139.9 139355 36949.35 Q 139355 36571.95 140490.9 36608.95 Q 143104.95 36760.65 144714.45 37443.3 Q 146325.8 38124.1 147461.7 39335.85 Q 148257.2 40170.2 148257.2 41230.25 Q 148257.2 42064.6 147728.1 42878.6 Q 147197.15 43692.6 146286.95 44223.55 Q 145757.85 44526.95 145339.75 44526.95 Q 144355.55 44526.95 143597.05 43087.65 Q 142801.55 41230.25 141893.2 39905.65 Q 140983 38579.2 139732.4 37517.3  Z " fill-rule="nonzero" style="fill:#333333;;fill-opacity:1;"/>
</svg>