<svg version="1.1" x="0" y="0" width="100%" height="100%" viewBox="0 0 860160 63436.8" xmlns="http://www.w3.org/2000/svg">
  <path d="M 15910.4 26624 L 15910.4 25772.8 L 15910.4 25772.8 L 17515.2 26622.4 L 29049.6 26622.4 L 29049.6 27606.4 L 17352 27606.4 L 17352 41532.8 Q 17352 41598.4 17171.2 41745.6 Q 16990.4 41894.4 16729.6 41992 Q 16467.2 42089.6 16171.2 42089.6 L 15910.4 42089.6 L 15910.4 26624 Z M 13582.4 15614.4 L 29475.2 15614.4 L 30785.6 14041.6 Q 30785.6 14041.6 31016 14238.4 Q 31244.8 14433.6 31620.8 14729.6 Q 31998.4 15024 32408 15384 Q 32817.6 15745.6 33145.6 16072 Q 33014.4 16596.8 32292.8 16596.8 L 13844.8 16596.8 L 13582.4 15614.4 Z M 15025.6 19251.2 L 28558.4 19251.2 L 29769.6 17710.4 Q 29769.6 17710.4 30163.2 18038.4 Q 30556.8 18366.4 31113.6 18825.6 Q 31670.4 19283.2 32096 19710.4 Q 31964.8 20233.6 31276.8 20233.6 L 15286.4 20233.6 L 15025.6 19251.2 Z M 12697.6 23118.4 L 30131.2 23118.4 L 31376 21512 Q 31376 21512 31620.8 21708.8 Q 31867.2 21905.6 32227.2 22217.6 Q 32588.8 22528 33014.4 22872 Q 33440 23216 33768 23544 Q 33636.8 24068.8 32948.8 24068.8 L 12960 24068.8 L 12697.6 23118.4 Z M 22036.8 12500.8 L 24560 12763.2 Q 24526.4 13091.2 24281.6 13304 Q 24035.2 13516.8 23478.4 13614.4 L 23478.4 23512 L 22036.8 23512 L 22036.8 12500.8 Z M 28656 26624 L 28328 26624 L 29180.8 25542.4 L 31507.2 27278.4 Q 31376 27475.2 30982.4 27638.4 Q 30588.8 27803.2 30097.6 27900.8 L 30097.6 39632 Q 30097.6 40288 29934.4 40795.2 Q 29769.6 41304 29262.4 41614.4 Q 28753.6 41926.4 27640 42057.6 Q 27608 41729.6 27459.2 41435.2 Q 27312 41140.8 27049.6 40944 Q 26788.8 40747.2 26264 40616 Q 25739.2 40484.8 24888 40385.6 L 24888 39828.8 Q 24888 39828.8 25281.6 39862.4 Q 25673.6 39894.4 26230.4 39944 Q 26788.8 39993.6 27280 40025.6 Q 27771.2 40059.2 28000 40059.2 Q 28393.6 40059.2 28524.8 39912 Q 28656 39763.2 28656 39403.2 L 28656 26624 Z M 16958.4 30588.8 L 29081.6 30588.8 L 29081.6 31571.2 L 16958.4 31571.2 L 16958.4 30588.8 Z M 16958.4 34619.2 L 29081.6 34619.2 L 29081.6 35601.6 L 16958.4 35601.6 L 16958.4 34619.2 Z M 8372.8 12403.2 L 10993.6 12697.6 Q 10928 13025.6 10683.2 13270.4 Q 10436.8 13516.8 9814.4 13614.4 L 9814.4 41467.2 Q 9814.4 41598.4 9651.2 41763.2 Q 9486.4 41926.4 9224 42041.6 Q 8963.2 42155.2 8667.2 42155.2 L 8372.8 42155.2 L 8372.8 12403.2 Z M 5620.8 18300.8 L 6243.2 18334.4 Q 6734.4 20824 6356.8 22708.8 Q 5980.8 24592 5424 25444.8 Q 5030.4 25968 4392 26230.4 Q 3752 26492.8 3392 26099.2 Q 3129.6 25739.2 3260.8 25297.6 Q 3392 24854.4 3720 24428.8 Q 4211.2 23904 4636.8 22921.6 Q 5062.4 21937.6 5340.8 20708.8 Q 5620.8 19480 5620.8 18300.8  Z M 10993.6 17022.4 Q 12337.6 17940.8 12993.6 18841.6 Q 13648 19742.4 13795.2 20496 Q 13944 21249.6 13747.2 21742.4 Q 13550.4 22233.6 13140.8 22331.2 Q 12731.2 22430.4 12272 22004.8 Q 12240 20857.6 11699.2 19497.6 Q 11158.4 18137.6 10568 17219.2 L 10993.6 17022.4 Z M 49364.8 22102.4 Q 50412.8 22233.6 51052.8 22528 Q 51691.2 22822.4 52001.6 23184 Q 52313.6 23544 52363.2 23904 Q 52411.2 24265.6 52264 24510.4 Q 52116.8 24756.8 51822.4 24822.4 Q 51528 24888 51134.4 24691.2 Q 50904 24035.2 50299.2 23396.8 Q 49692.8 22758.4 49036.8 22430.4 L 49364.8 22102.4 Z M 55459.2 35798.4 Q 58080 36291.2 59833.6 36929.6 Q 61587.2 37568 62635.2 38240 Q 63683.2 38912 64126.4 39534.4 Q 64568 40156.8 64568 40616 Q 64568 41075.2 64241.6 41272 Q 63913.6 41467.2 63388.8 41272 Q 62798.4 40550.4 61635.2 39665.6 Q 60472 38780.8 58851.2 37912 Q 57228.8 37044.8 55262.4 36356.8 L 55459.2 35798.4 Z M 47268.8 36651.2 Q 47104 36880 46859.2 36945.6 Q 46612.8 37011.2 46088 36848 Q 45171.2 37633.6 43745.6 38486.4 Q 42320 39337.6 40681.6 40075.2 Q 39043.2 40812.8 37371.2 41336 L 37044.8 40878.4 Q 38518.4 40222.4 40075.2 39288 Q 41632 38355.2 42976 37339.2 Q 44318.4 36323.2 45137.6 35406.4 L 47268.8 36651.2 Z M 51854.4 39600 Q 51854.4 40256 51673.6 40779.2 Q 51494.4 41304 50920 41648 Q 50347.2 41992 49168 42123.2 Q 49134.4 41828.8 48987.2 41516.8 Q 48840 41206.4 48545.6 41041.6 Q 48217.6 40812.8 47579.2 40681.6 Q 46940.8 40550.4 45924.8 40452.8 L 45924.8 39928 Q 45924.8 39928 46400 39960 Q 46875.2 39993.6 47545.6 40043.2 Q 48217.6 40091.2 48824 40124.8 Q 49430.4 40156.8 49659.2 40156.8 Q 50118.4 40156.8 50265.6 40025.6 Q 50412.8 39894.4 50412.8 39568 L 50412.8 33112 L 51854.4 33112 L 51854.4 39600 Z M 62995.2 23347.2 Q 62995.2 23347.2 63241.6 23528 Q 63488 23707.2 63864 24019.2 Q 64241.6 24329.6 64667.2 24673.6 Q 65092.8 25017.6 65452.8 25379.2 Q 65321.6 25902.4 64601.6 25902.4 L 37273.6 25902.4 L 36979.2 24920 L 61684.8 24920 L 62995.2 23347.2 Z M 44417.6 34947.2 Q 44417.6 35012.8 44236.8 35128 Q 44057.6 35241.6 43779.2 35340.8 Q 43500.8 35438.4 43204.8 35438.4 L 42976 35438.4 L 42976 28328 L 42976 27508.8 L 42976 27508.8 L 44580.8 28326.4 L 59260.8 28326.4 L 59260.8 29310.4 L 44417.6 29310.4 L 44417.6 34947.2 Z M 57950.4 28328 L 58900.8 27280 L 61161.6 28982.4 Q 60996.8 29179.2 60587.2 29342.4 Q 60179.2 29507.2 59720 29604.8 L 59720 34684.8 Q 59720 34782.4 59507.2 34913.6 Q 59294.4 35044.8 59016 35160 Q 58737.6 35275.2 58475.2 35275.2 L 58278.4 35275.2 L 58278.4 28328 L 57950.4 28328 Z M 58835.2 33112 L 58835.2 34094.4 L 43664 34094.4 L 43664 33112 L 58835.2 33112 Z M 43630.4 22790.4 Q 43630.4 22856 43449.6 22987.2 Q 43270.4 23118.4 43008 23200 Q 42745.6 23281.6 42417.6 23281.6 L 42188.8 23281.6 L 42188.8 14107.2 L 42188.8 13288 L 42188.8 13288 L 43795.2 14105.6 L 60243.2 14105.6 L 60243.2 15089.6 L 43630.4 15089.6 L 43630.4 22790.4 Z M 58737.6 14107.2 L 59720 13025.6 L 61947.2 14761.6 Q 61784 14958.4 61374.4 15121.6 Q 60964.8 15286.4 60505.6 15384 L 60505.6 22496 Q 60505.6 22593.6 60292.8 22724.8 Q 60080 22856 59801.6 22971.2 Q 59523.2 23084.8 59260.8 23084.8 L 59064 23084.8 L 59064 14107.2 L 58737.6 14107.2 Z M 59752 20988.8 L 59752 21971.2 L 42876.8 21971.2 L 42876.8 20988.8 L 59752 20988.8 Z M 59752 17515.2 L 59752 18497.6 L 42876.8 18497.6 L 42876.8 17515.2 L 59752 17515.2 Z M 73843.2 13256 L 73843.2 13190.4 L 75678.4 14075.2 L 75284.8 14075.2 L 75284.8 23904 Q 75284.8 24265.6 75465.6 24494.4 Q 75644.8 24723.2 76316.8 24806.4 Q 76988.8 24888 78430.4 24888 L 86294.4 24888 Q 89177.6 24888 91209.6 24838.4 Q 93241.6 24788.8 93961.6 24756.8 Q 94454.4 24691.2 94649.6 24560 Q 94846.4 24428.8 94977.6 24200 Q 95208 23772.8 95452.8 22774.4 Q 95699.2 21774.4 95961.6 20267.2 L 96387.2 20267.2 L 96452.8 24396.8 Q 97009.6 24526.4 97256 24657.6 Q 97500.8 24788.8 97500.8 25051.2 Q 97500.8 25444.8 97124.8 25657.6 Q 96747.2 25870.4 95600 25985.6 Q 94454.4 26100.8 92241.6 26132.8 Q 90030.4 26164.8 86328 26164.8 L 78528 26164.8 Q 76595.2 26164.8 75579.2 26001.6 Q 74563.2 25838.4 74203.2 25363.2 Q 73843.2 24888 73843.2 23937.6 L 73843.2 14075.2 L 73843.2 13256 Z M 92947.2 14073.6 L 92947.2 15056 L 74662.4 15056 L 74368 14073.6 L 92947.2 14073.6 Z M 91832 14075.2 L 92816 12993.6 L 95043.2 14729.6 Q 94880 14924.8 94470.4 15089.6 Q 94060.8 15252.8 93601.6 15352 L 93601.6 21512 Q 93601.6 21611.2 93388.8 21740.8 Q 93176 21872 92897.6 21987.2 Q 92619.2 22102.4 92356.8 22102.4 L 92160 22102.4 L 92160 14075.2 L 91832 14075.2 Z M 92881.6 19579.2 L 92881.6 20561.6 L 74302.4 20561.6 L 74302.4 19579.2 L 92881.6 19579.2 Z M 96518.4 28524.8 Q 96518.4 28524.8 96780.8 28737.6 Q 97043.2 28950.4 97452.8 29278.4 Q 97862.4 29604.8 98304 29982.4 Q 98745.6 30358.4 99107.2 30720 Q 99008 31243.2 98288 31243.2 L 69518.4 31243.2 L 69222.4 30260.8 L 95108.8 30260.8 L 96518.4 28524.8 Z M 75841.6 31801.6 Q 77643.2 32456 78806.4 33227.2 Q 79969.6 33996.8 80576 34766.4 Q 81182.4 35537.6 81363.2 36208 Q 81542.4 36880 81379.2 37339.2 Q 81216 37798.4 80838.4 37912 Q 80462.4 38027.2 79937.6 37699.2 Q 79675.2 36748.8 78955.2 35700.8 Q 78233.6 34652.8 77299.2 33702.4 Q 76366.4 32752 75481.6 32096 L 75841.6 31801.6 Z M 91668.8 27083.2 Q 91505.6 27771.2 90489.6 27868.8 L 90489.6 39240 Q 90489.6 39960 90276.8 40516.8 Q 90064 41073.6 89358.4 41451.2 Q 88654.4 41827.2 87147.2 41992 Q 87049.6 41632 86852.8 41336 Q 86656 41041.6 86262.4 40844.8 Q 85836.8 40648 84936 40451.2 Q 84033.6 40254.4 82657.6 40123.2 L 82657.6 39600 Q 82657.6 39600 83361.6 39649.6 Q 84067.2 39697.6 85049.6 39763.2 Q 86033.6 39828.8 86884.8 39878.4 Q 87737.6 39928 88064 39928 Q 88654.4 39928 88851.2 39747.2 Q 89048 39566.4 89048 39140.8 L 89048 26755.2 L 91668.8 27083.2 Z M 116964.8 20070.4 Q 116048 24560 113984 28688 Q 111918.4 32817.6 108921.6 36273.6 Q 105923.2 39731.2 102121.6 42286.4 L 101662.4 41795.2 Q 104350.4 39796.8 106659.2 37257.6 Q 108969.6 34718.4 110820.8 31636.8 Q 112672 28556.8 113984 24985.6 Q 115294.4 21414.4 115916.8 17384 L 116964.8 20070.4 Z M 115588.8 16630.4 Q 115523.2 16268.8 115048 15892.8 Q 114572.8 15515.2 113852.8 15123.2 Q 113131.2 14729.6 112280 14368 Q 111427.2 14008 110576 13680 Q 110707.2 13516.8 110886.4 13270.4 Q 111067.2 13025.6 111248 12779.2 Q 111427.2 12534.4 111558.4 12403.2 Q 112803.2 13057.6 113900.8 13729.6 Q 115000 14401.6 115753.6 15139.2 Q 116507.2 15876.8 116670.4 16728 Q 117260.8 20758.4 118571.2 24494.4 Q 119881.6 28230.4 121880 31392 Q 123880 34553.6 126484.8 36979.2 Q 129089.6 39403.2 132203.2 40844.8 L 132072 41304 Q 131547.2 41206.4 130990.4 41451.2 Q 130433.6 41697.6 130236.8 42123.2 Q 127385.6 40550.4 124977.6 38027.2 Q 122568 35504 120684.8 32177.6 Q 118800 28852.8 117505.6 24920 Q 116211.2 20987.2 115588.8 16630.4  Z M 140264 38486.4 Q 139542.4 38486.4 139067.2 37995.2 Q 138592 37504 138592 36880 Q 138592 36160 139067.2 35700.8 Q 139542.4 35241.6 140264 35241.6 Q 141017.6 35241.6 141475.2 35700.8 Q 141934.4 36160 141934.4 36880 Q 141934.4 37504 141475.2 37995.2 Q 141017.6 38486.4 140264 38486.4  Z M 140264 25116.8 Q 139542.4 25116.8 139067.2 24625.6 Q 138592 24134.4 138592 23510.4 Q 138592 22790.4 139067.2 22331.2 Q 139542.4 21872 140264 21872 Q 141017.6 21872 141475.2 22331.2 Q 141934.4 22790.4 141934.4 23510.4 Q 141934.4 24134.4 141475.2 24625.6 Q 141017.6 25116.8 140264 25116.8  Z M 177716.8 34684.8 Q 177619.2 35307.2 176766.4 35438.4 L 176766.4 39403.2 Q 176766.4 39731.2 177044.8 39830.4 Q 177323.2 39928 178633.6 39928 L 183548.8 39928 Q 185352 39928 186596.8 39912 Q 187841.6 39896 188267.2 39862.4 Q 188628.8 39830.4 188760 39764.8 Q 188891.2 39699.2 188988.8 39468.8 Q 189152 39108.8 189366.4 38174.4 Q 189579.2 37241.6 189742.4 36094.4 L 190201.6 36094.4 L 190267.2 39600 Q 190724.8 39731.2 190921.6 39862.4 Q 191118.4 39993.6 191118.4 40222.4 Q 191118.4 40518.4 190856 40731.2 Q 190593.6 40944 189824 41075.2 Q 189054.4 41206.4 187547.2 41254.4 Q 186040 41304 183582.4 41304 L 178568 41304 Q 177192 41304 176488 41156.8 Q 175784 41009.6 175553.6 40649.6 Q 175324.8 40288 175324.8 39633.6 L 175324.8 34356.8 L 177716.8 34684.8 Z M 179814.4 20070.4 Q 179814.4 20070.4 180190.4 20380.8 Q 180568 20692.8 181108.8 21136 Q 181649.6 21577.6 182107.2 22036.8 Q 181976 22560 181256 22560 L 168180.8 22560 L 167920 21577.6 L 178569.6 21577.6 L 179814.4 20070.4 Z M 190201.6 12697.6 Q 190168 13025.6 189889.6 13254.4 Q 189611.2 13484.8 188988.8 13548.8 L 188988.8 24003.2 Q 188988.8 24132.8 188825.6 24264 Q 188660.8 24395.2 188398.4 24494.4 Q 188137.6 24592 187841.6 24592 L 187547.2 24592 L 187547.2 12369.6 L 190201.6 12697.6 Z M 193313.6 16891.2 Q 193313.6 16891.2 193691.2 17187.2 Q 194067.2 17481.6 194576 17907.2 Q 195083.2 18332.8 195476.8 18760 Q 195377.6 19283.2 194689.6 19283.2 L 183451.2 19283.2 L 183188.8 18300.8 L 192166.4 18300.8 L 193313.6 16891.2 Z M 194428.8 20070.4 Q 194428.8 20070.4 194820.8 20380.8 Q 195214.4 20692.8 195755.2 21136 Q 196296 21577.6 196721.6 22036.8 Q 196590.4 22560 195902.4 22560 L 182534.4 22560 L 182272 21577.6 L 193216 21577.6 L 194428.8 20070.4 Z M 193804.8 13614.4 Q 193804.8 13614.4 194198.4 13926.4 Q 194592 14238.4 195132.8 14696 Q 195673.6 15155.2 196132.8 15614.4 Q 196001.6 16137.6 195280 16137.6 L 182795.2 16137.6 L 182534.4 15155.2 L 192560 15155.2 L 193804.8 13614.4 Z M 190921.6 25412.8 L 191905.6 24329.6 L 194132.8 26067.2 Q 193969.6 26264 193560 26427.2 Q 193150.4 26590.4 192691.2 26689.6 L 192691.2 33800 Q 192691.2 33899.2 192478.4 34028.8 Q 192265.6 34160 191987.2 34275.2 Q 191708.8 34390.4 191446.4 34390.4 L 191249.6 34390.4 L 191249.6 25412.8 L 190921.6 25412.8 Z M 177160 12697.6 Q 177126.4 13025.6 176848 13254.4 Q 176569.6 13484.8 175947.2 13548.8 L 175947.2 24166.4 Q 175947.2 24264 175784 24412.8 Q 175619.2 24560 175356.8 24657.6 Q 175096 24756.8 174800 24756.8 L 174505.6 24756.8 L 174505.6 12369.6 L 177160 12697.6 Z M 179092.8 16990.4 Q 179092.8 16990.4 179436.8 17268.8 Q 179780.8 17547.2 180256 17956.8 Q 180731.2 18366.4 181091.2 18760 Q 181059.2 19283.2 180305.6 19283.2 L 169296 19283.2 L 169033.6 18300.8 L 178011.2 18300.8 L 179092.8 16990.4 Z M 179552 13680 Q 179552 13680 179928 13992 Q 180305.6 14304 180846.4 14745.6 Q 181387.2 15187.2 181812.8 15614.4 Q 181681.6 16137.6 180961.6 16137.6 L 168739.2 16137.6 L 168476.8 15155.2 L 178339.2 15155.2 L 179552 13680 Z M 192003.2 32064 L 192003.2 33046.4 L 170475.2 33046.4 L 170180.8 32064 L 192003.2 32064 Z M 191806.4 28721.6 L 191806.4 29704 L 171819.2 29704 L 171523.2 28721.6 L 191806.4 28721.6 Z M 191937.6 25411.2 L 191937.6 26393.6 L 170737.6 26393.6 L 170441.6 25411.2 L 191937.6 25411.2 Z M 171884.8 34881.6 Q 172048 36486.4 171654.4 37699.2 Q 171260.8 38912 170638.4 39699.2 Q 170016 40484.8 169459.2 40878.4 Q 168934.4 41238.4 168361.6 41385.6 Q 167788.8 41532.8 167526.4 41206.4 Q 167329.6 40910.4 167492.8 40566.4 Q 167657.6 40222.4 167984 39960 Q 168705.6 39568 169409.6 38814.4 Q 170115.2 38060.8 170638.4 37044.8 Q 171163.2 36028.8 171260.8 34848 L 171884.8 34881.6 Z M 191905.6 35078.4 Q 193412.8 35732.8 194379.2 36470.4 Q 195347.2 37208 195854.4 37912 Q 196361.6 38617.6 196510.4 39206.4 Q 196657.6 39796.8 196510.4 40190.4 Q 196361.6 40582.4 196035.2 40681.6 Q 195707.2 40779.2 195281.6 40484.8 Q 195116.8 39600 194510.4 38649.6 Q 193904 37699.2 193102.4 36832 Q 192299.2 35963.2 191512 35372.8 L 191905.6 35078.4 Z M 180796.8 34128 Q 182140.8 34619.2 182976 35193.6 Q 183812.8 35766.4 184270.4 36356.8 Q 184729.6 36945.6 184844.8 37436.8 Q 184958.4 37929.6 184844.8 38273.6 Q 184729.6 38617.6 184435.2 38699.2 Q 184139.2 38780.8 183779.2 38518.4 Q 183616 37798.4 183091.2 37027.2 Q 182566.4 36257.6 181862.4 35569.6 Q 181158.4 34881.6 180436.8 34456 L 180796.8 34128 Z M 202817.6 39896 Q 202817.6 39993.6 202670.4 40124.8 Q 202523.2 40256 202276.8 40353.6 Q 202030.4 40452.8 201670.4 40452.8 L 201376 40452.8 L 201376 14960 L 201376 14075.2 L 201376 14075.2 L 202980.8 14958.4 L 209305.6 14958.4 L 209305.6 15942.4 L 202817.6 15942.4 L 202817.6 39896 Z M 209436.8 35734.4 L 209436.8 36716.8 L 202096 36716.8 L 202096 35734.4 L 209436.8 35734.4 Z M 209403.2 21676.8 L 209403.2 22659.2 L 202064 22659.2 L 202064 21676.8 L 209403.2 21676.8 Z M 209337.6 28590.4 L 209337.6 29572.8 L 201998.4 29572.8 L 201998.4 28590.4 L 209337.6 28590.4 Z M 208257.6 14960 L 209240 13844.8 L 211468.8 15614.4 Q 211337.6 15811.2 210928 15974.4 Q 210518.4 16139.2 210027.2 16236.8 L 210027.2 38323.2 Q 210027.2 38420.8 209812.8 38568 Q 209600 38715.2 209321.6 38846.4 Q 209043.2 38977.6 208780.8 38977.6 L 208584 38977.6 L 208584 14960 L 208257.6 14960 Z M 214680 15680 L 215008 15876.8 L 215008 40681.6 L 213630.4 41041.6 L 214123.2 40452.8 Q 214352 41238.4 214008 41697.6 Q 213664 42156.8 213401.6 42288 L 212582.4 40518.4 Q 213238.4 40190.4 213401.6 39977.6 Q 213566.4 39764.8 213566.4 39272 L 213566.4 15680 L 214680 15680 Z M 213564.8 13190.4 L 215401.6 14238.4 L 215008 14238.4 L 215008 16171.2 Q 215008 16171.2 214648 16171.2 Q 214286.4 16171.2 213564.8 16171.2 L 213564.8 14238.4 L 213564.8 13190.4 Z M 226377.6 14236.8 L 226377.6 15220.8 L 214286.4 15220.8 L 214286.4 14236.8 L 226377.6 14236.8 Z M 213107.2 40387.2 Q 213860.8 40156.8 215139.2 39681.6 Q 216416 39206.4 218038.4 38584 Q 219660.8 37961.6 221331.2 37273.6 L 221528 37798.4 Q 220742.4 38192 219513.6 38846.4 Q 218284.8 39502.4 216825.6 40240 Q 215368 40976 213860.8 41697.6 L 213107.2 40387.2 Z M 229688 29932.8 Q 229425.6 30260.8 228835.2 29998.4 Q 228179.2 30491.2 227065.6 31227.2 Q 225952 31964.8 224689.6 32718.4 Q 223428.8 33472 222216 34030.4 L 221953.6 33668.8 Q 222969.6 32948.8 224132.8 31948.8 Q 225296 30948.8 226345.6 29966.4 Q 227393.6 28984 227984 28360 L 229688 29932.8 Z M 219364.8 25969.6 Q 220249.6 29180.8 221790.4 32113.6 Q 223329.6 35046.4 225526.4 37273.6 Q 227721.6 39502.4 230571.2 40681.6 L 230507.2 41041.6 Q 230048 41075.2 229688 41353.6 Q 229326.4 41632 229163.2 42156.8 Q 226411.2 40681.6 224379.2 38339.2 Q 222347.2 35995.2 220955.2 32932.8 Q 219561.6 29868.8 218710.4 26198.4 L 219364.8 25969.6 Z M 225296 14238.4 L 226280 13156.8 L 228507.2 14894.4 Q 228147.2 15286.4 227065.6 15515.2 L 227065.6 27345.6 Q 227065.6 27443.2 226852.8 27590.4 Q 226640 27737.6 226361.6 27852.8 Q 226083.2 27968 225820.8 27968 L 225624 27968 L 225624 14238.4 L 225296 14238.4 Z M 226280 20038.4 L 226280 21020.8 L 214188.8 21020.8 L 214188.8 20038.4 L 226280 20038.4 Z M 226214.4 25870.4 L 226214.4 26852.8 L 214123.2 26852.8 L 214123.2 25870.4 L 226214.4 25870.4 Z M 255083.2 31604.8 Q 257310.4 33209.6 258752 34684.8 Q 260193.6 36160 260996.8 37420.8 Q 261800 38683.2 262094.4 39649.6 Q 262390.4 40616 262291.2 41206.4 Q 262193.6 41795.2 261832 41926.4 Q 261472 42057.6 260947.2 41664 Q 260686.4 40550.4 259998.4 39240 Q 259308.8 37929.6 258392 36601.6 Q 257475.2 35275.2 256491.2 34046.4 Q 255508.8 32817.6 254624 31867.2 L 255083.2 31604.8 Z M 251017.6 32555.2 Q 250888 32784 250560 32947.2 Q 250232 33112 249707.2 33012.8 Q 248102.4 35732.8 246038.4 38190.4 Q 243972.8 40648 241942.4 42254.4 L 241483.2 41860.8 Q 242662.4 40648 243924.8 38977.6 Q 245185.6 37305.6 246398.4 35339.2 Q 247611.2 33374.4 248560 31342.4 L 251017.6 32555.2 Z M 259211.2 27868.8 L 259211.2 28851.2 L 245873.6 28851.2 L 245873.6 27868.8 L 259211.2 27868.8 Z M 245283.2 14499.2 L 247086.4 15352 L 257966.4 15352 L 258785.6 14336 L 260784 15908.8 Q 260620.8 16105.6 260324.8 16236.8 Q 260030.4 16368 259539.2 16433.6 L 259539.2 30195.2 Q 259539.2 30326.4 259145.6 30539.2 Q 258752 30752 258292.8 30752 L 258097.6 30752 L 258097.6 16334.4 L 246692.8 16334.4 L 246692.8 30555.2 Q 246692.8 30686.4 246364.8 30899.2 Q 246036.8 31113.6 245480 31113.6 L 245283.2 31113.6 L 245283.2 15352 L 245283.2 14499.2 Z M 236764.8 38256 Q 237387.2 37764.8 238500.8 36830.4 Q 239616 35897.6 241024 34651.2 Q 242433.6 33406.4 243875.2 32096 L 244268.8 32521.6 Q 243612.8 33243.2 242580.8 34390.4 Q 241548.8 35536 240270.4 36912 Q 238993.6 38289.6 237649.6 39697.6 L 236764.8 38256 Z M 238502.4 22430.4 L 238828.8 22627.2 L 238828.8 38256 L 237584 38715.2 L 238140.8 38092.8 Q 238305.6 38649.6 238174.4 39091.2 Q 238043.2 39534.4 237796.8 39796.8 Q 237550.4 40059.2 237355.2 40156.8 L 236404.8 38059.2 Q 237059.2 37731.2 237224 37536 Q 237387.2 37339.2 237387.2 36913.6 L 237387.2 22430.4 L 238502.4 22430.4 Z M 237419.2 21217.6 L 238240 20299.2 L 239976 21774.4 Q 239844.8 21971.2 239484.8 22152 Q 239124.8 22331.2 238600 22430.4 L 238828.8 22134.4 L 238828.8 23806.4 L 237387.2 23806.4 L 237387.2 21217.6 L 237419.2 21217.6 Z M 234897.6 12534.4 Q 236536 13419.2 237584 14304 Q 238633.6 15187.2 239190.4 15974.4 Q 239747.2 16761.6 239910.4 17400 Q 240075.2 18038.4 239928 18448 Q 239779.2 18857.6 239435.2 18939.2 Q 239091.2 19022.4 238665.6 18726.4 Q 238403.2 17809.6 237699.2 16712 Q 236995.2 15614.4 236126.4 14582.4 Q 235257.6 13548.8 234472 12795.2 L 234897.6 12534.4 Z M 238272 21217.6 L 238272 22200 L 232963.2 22200 L 232668.8 21217.6 L 238272 21217.6 Z M 269008 22331.2 L 269336 22528 L 269336 40222.4 L 269630.4 40222.4 L 268844.8 41172.8 L 266715.2 39731.2 Q 266977.6 39534.4 267452.8 39305.6 Q 267928 39075.2 268320 38977.6 L 267894.4 40091.2 L 267894.4 22331.2 L 269008 22331.2 Z M 270580.8 21020.8 Q 270548.8 21380.8 270236.8 21611.2 Q 269926.4 21840 269336 21937.6 L 269336 23182.4 L 267894.4 23182.4 L 267894.4 21249.6 L 267894.4 20692.8 L 270580.8 21020.8 Z M 287161.6 33734.4 L 287161.6 34716.8 L 273988.8 34716.8 L 273988.8 33734.4 L 287161.6 33734.4 Z M 287161.6 26264 L 287161.6 27246.4 L 273988.8 27246.4 L 273988.8 26264 L 287161.6 26264 Z M 286080 19416 L 287064 18334.4 L 289291.2 20070.4 Q 289128 20267.2 288734.4 20430.4 Q 288340.8 20595.2 287849.6 20692.8 L 287849.6 35504 Q 287849.6 35601.6 287636.8 35732.8 Q 287424 35864 287145.6 35979.2 Q 286867.2 36094.4 286604.8 36094.4 L 286408 36094.4 L 286408 19416 L 286080 19416 Z M 274676.8 36028.8 Q 274676.8 36094.4 274529.6 36224 Q 274382.4 36355.2 274120 36454.4 Q 273857.6 36552 273529.6 36552 L 273267.2 36552 L 273267.2 19416 L 273267.2 18563.2 L 273267.2 18563.2 L 274873.6 19414.4 L 287292.8 19414.4 L 287292.8 20398.4 L 274676.8 20398.4 L 274676.8 36028.8 Z M 294371.2 20955.2 Q 294305.6 21283.2 294043.2 21512 Q 293780.8 21740.8 293158.4 21806.4 L 293158.4 41435.2 Q 293158.4 41566.4 292995.2 41713.6 Q 292830.4 41860.8 292568 41958.4 Q 292307.2 42057.6 292011.2 42057.6 L 291716.8 42057.6 L 291716.8 20627.2 L 294371.2 20955.2 Z M 281264 19907.2 L 281264 34324.8 L 279822.4 34324.8 L 279822.4 19907.2 L 281264 19907.2 Z M 292470.4 39272 L 292470.4 40254.4 L 268648 40254.4 L 268648 39272 L 292470.4 39272 Z M 293060.8 13222.4 Q 293060.8 13222.4 293339.2 13435.2 Q 293617.6 13648 294027.2 13976 Q 294436.8 14304 294896 14696 Q 295353.6 15089.6 295747.2 15449.6 Q 295681.6 15712 295452.8 15843.2 Q 295222.4 15974.4 294894.4 15974.4 L 266027.2 15974.4 L 265732.8 14992 L 291619.2 14992 L 293060.8 13222.4 Z " fill-rule="nonzero" style="fill:#333333;;fill-opacity:1;"/>
</svg>