<svg version="1.1" x="0" y="0" width="100%" height="100%" viewBox="0 0 179148.8 83865.6" xmlns="http://www.w3.org/2000/svg">
  <path d="M 16978.25 6804.15 L 16978.25 6727.65 L 12185.75 6727.65 L 12185.75 21227.4 L 16978.25 21227.4 L 16978.25 21150.9 Q 15689 20049.9 14829.5 18203.4 Q 13970 16356.9 13937 13977.9 Q 13970 11598.15 14829.5 9751.65 Q 15689 7905.15 16978.25 6804.15  Z M 26071.25 18923.4 L 26071.25 15836.4 L 30663.5 15836.4 L 30663.5 14069.4 L 26071.25 14069.4 L 26071.25 11366.4 L 31247 11366.4 L 31247 9584.4 L 26071.25 9584.4 L 26071.25 6819.9 L 24151.25 6819.9 L 24151.25 9584.4 L 21785.75 9584.4 Q 22181 8524.65 22507.25 7419.15 L 20618 7004.4 Q 20218.25 8597.4 19512.5 10053.15 Q 18806.75 11508.15 17899.25 12503.4 Q 18269.75 12705.15 18755.75 13031.4 Q 19241.75 13356.9 19543.25 13593.9 Q 20303 12664.65 20971.25 11366.4 L 24151.25 11366.4 L 24151.25 14069.4 L 19988.75 14069.4 L 19988.75 15836.4 L 24151.25 15836.4 L 24151.25 18923.4 L 18221.75 18923.4 L 18221.75 20720.4 L 32030.75 20720.4 L 32030.75 18923.4 L 26071.25 18923.4 Z M 37898 14883.9 L 37898 17233.65 L 36178.25 17233.65 L 36178.25 14883.9 L 37898 14883.9 Z M 39603.5 13301.4 L 34519.25 13301.4 L 34519.25 20060.4 L 36178.25 20060.4 L 36178.25 18831.15 L 39603.5 18831.15 L 39603.5 13301.4 Z M 46454 13317.15 L 40786.25 13317.15 L 40786.25 21181.65 L 42583.25 21181.65 L 42583.25 14929.65 L 44702.75 14929.65 L 44702.75 17479.65 Q 44722.25 17721.9 44441.75 17709.9 Q 44287.25 17710.65 43894.25 17708.4 Q 43501.25 17705.4 43059.5 17694.9 Q 43205 18063.9 43341.5 18510.9 Q 43478 18957.9 43520 19338.15 Q 44267 19347.15 44827.25 19303.65 Q 45387.5 19260.15 45778.25 19061.4 Q 46183.25 18859.65 46323.5 18487.65 Q 46463 18115.65 46454 17510.4 L 46454 13317.15 Z M 38220.5 10782.9 Q 39484.25 10014.9 40540.25 9108.15 Q 41431.25 10026.15 42552.5 10782.9 L 38220.5 10782.9 Z M 40540.25 6558.9 Q 39545 7827.15 37871 8884.65 Q 37373.75 9198.9 36839.75 9481.65 Q 35042 10431.9 33106.25 10890.15 Q 33422.75 11272.65 33704.75 11756.4 Q 33987.5 12239.4 34166 12656.4 Q 35655.5 12172.65 37099.25 11412.15 L 37099.25 12411.15 L 43673.75 12411.15 L 43673.75 11458.65 Q 45002 12168.9 46469 12579.9 Q 46699.25 12157.65 47058.5 11665.65 Q 47417.75 11174.4 47774.75 10844.4 Q 45951.5 10464.15 44353.25 9713.4 Q 42755 8961.9 41692.25 7971.9 Q 41857.25 7787.4 41999 7602.9 L 40540.25 6558.9 Z M 53058.5 8571.15 Q 52542.5 8202.9 51713 7820.4 Q 50882.75 7437.9 50124.5 7173.15 L 49280 8401.65 Q 50046.5 8712.9 50856.5 9127.65 Q 51665.75 9542.4 52167.5 9922.65 L 53058.5 8571.15 Z M 52690.25 10536.9 Q 51590.75 11099.4 50566.25 11606.4 Q 49541.75 12113.4 48788.75 12456.9 L 49418 14069.4 Q 50280.5 13614.9 51244.25 13090.65 Q 52207.25 12566.4 53150.75 12042.15 L 52690.25 10536.9 Z M 57773.75 16527.15 Q 57251.75 17349.15 56453 17894.4 Q 55170.5 17571.9 53842.25 17295.15 Q 54152.75 16945.65 54440.75 16527.15 L 57773.75 16527.15 Z M 62735 16527.15 L 62735 14929.65 L 55531.25 14929.65 Q 55752.5 14565.9 55931 14220.9 L 55946 14192.4 L 55009.25 13962.15 Q 56933 13136.4 57728 11919.15 Q 58328 12965.4 59325.5 13620.15 Q 60323 14274.9 61844.75 14561.4 Q 62003.75 14188.65 62278.25 13760.4 Q 62552.75 13332.9 62827.25 13040.4 Q 61062.5 12855.9 60003.5 12167.4 Q 58943.75 11478.15 58481 10290.9 Q 58568.75 10011.15 58634 9707.4 L 60308.75 9707.4 Q 60019.25 10362.9 59769.5 10875.15 Q 59754.5 10905.9 59740.25 10936.65 L 61291.25 11550.9 Q 61654.25 10947.15 62028.5 10152.9 Q 62403.5 9359.4 62720 8571.15 L 61352.75 8094.9 L 61061 8187.15 L 56391.5 8187.15 Q 56606.75 7698.9 56775.5 7234.65 L 55085.75 6819.9 Q 54744.5 7848.15 54158.75 8778.15 Q 53573 9708.15 52828.25 10368.15 Q 53148.5 10547.4 53563.25 10861.65 Q 53978.75 11175.9 54241.25 11412.15 Q 54944 10709.4 55577.75 9707.4 L 56822 9707.4 Q 56597.75 10750.65 55838.75 11527.65 Q 55616.75 11744.4 55330.25 11939.4 Q 54338.75 12639.9 52214 13056.15 Q 52487 13341.15 52743.5 13770.15 Q 53000 14199.15 53135 14530.65 Q 53261.75 14496.9 53388.5 14469.15 Q 53515.25 14441.4 53642 14407.65 Q 53480.75 14657.4 53319.5 14929.65 L 48865.25 14929.65 L 48865.25 16527.15 L 52198.25 16527.15 Q 51442.25 17495.4 50754.5 18232.65 Q 52433 18581.4 54041.75 18954.15 Q 51991.25 19468.65 48926.75 19568.4 Q 49149.5 19890.15 49337.75 20321.4 Q 49526 20752.65 49633.25 21165.9 Q 51919.25 21003.15 53678.75 20655.15 Q 55438.25 20307.9 56744.75 19660.65 Q 58063.25 20041.65 59179.25 20405.4 Q 60296 20769.9 61153.25 21104.4 L 62781.5 19676.4 Q 61922.75 19374.15 60836.75 19052.4 Q 59750 18729.9 58511 18416.4 Q 59294.75 17644.65 59847.5 16527.15 L 62735 16527.15 Z M 65777 20628.15 Q 66246.5 19781.4 66581 18658.65 Q 66915.5 17535.15 67143.5 16481.4 L 65515.25 15928.65 Q 65315.75 16960.65 64955 17984.4 Q 64594.25 19008.15 64118 19799.4 L 65777 20628.15 Z M 70400 19215.15 Q 69749.75 19227.15 69543.5 19122.9 Q 69337.25 19019.4 69355.25 18662.4 L 69355.25 16050.9 L 67543.25 16050.9 L 67543.25 18677.4 Q 67511 19901.4 68084.75 20382.9 Q 68657.75 20863.65 70215.5 20843.4 L 73180.25 20843.4 Q 74400.5 20874.15 74940.5 20334.9 Q 74981.75 20293.65 75020 20247.9 Q 75521.75 19652.4 75653 18093.9 Q 75265.25 18009.9 74796.5 17832.9 Q 74328.5 17656.65 74009.75 17433.9 Q 73959.5 18563.4 73773.5 18906.15 Q 73587.5 19249.65 73042.25 19215.15 L 70400 19215.15 Z M 69248 13793.4 Q 69941 14178.9 70646 14680.65 Q 71350.25 15181.65 71767.25 15590.4 L 73457 14576.4 Q 72981.5 14148.15 72247.25 13674.15 Q 71513 13200.15 70829.75 12840.9 L 69248 13793.4 Z M 69708.5 15867.15 Q 70318.25 16479.15 70913 17208.9 Q 71507 17939.4 71828.75 18493.65 L 73334 17556.15 Q 72987.5 16983.15 72358.25 16290.9 Q 71729.75 15599.4 71106.5 15037.65 L 69708.5 15867.15 Z M 74823.5 16281.9 Q 75390.5 17329.65 75862.25 18493.65 Q 76334 19656.9 76544 20520.9 L 78264.5 19921.65 Q 78029 19038.15 77523.5 17904.15 Q 77017.25 16769.4 76436.75 15759.15 L 74823.5 16281.9 Z M 78125.75 10444.65 L 78125.75 8754.9 L 71905.25 8754.9 Q 72082.25 7718.4 72166.25 6635.4 L 70277 6635.4 Q 70196.75 7729.65 70001 8754.9 L 64241 8754.9 L 64241 10444.65 L 69509 10444.65 Q 68989.25 11673.9 67729.25 12647.4 Q 66469.25 13620.15 64071.5 14238.9 Q 64380.5 14556.15 64667 14994.9 Q 64952.75 15433.65 65100.5 15774.9 Q 67856 14985.9 69304.25 13717.65 Q 69373.25 13659.15 69440 13599.9 Q 70838.75 12312.15 71398.25 10690.65 Q 72260 12533.4 73677.5 13756.65 Q 75095 14980.65 77235.5 15590.4 Q 77443.25 15189.15 77784.5 14706.9 Q 78125 14225.4 78449 13916.4 Q 76599.5 13507.65 75315.5 12624.15 Q 74030.75 11740.65 73241.75 10444.65 L 78125.75 10444.65 Z M 84070.25 21227.4 L 84070.25 6727.65 L 79277.75 6727.65 L 79277.75 6804.15 Q 80567 7905.15 81426.5 9751.65 Q 82286 11598.15 82319 13977.9 Q 82286 16356.9 81426.5 18203.4 Q 80567 20049.9 79277.75 21150.9 L 79277.75 21227.4 L 84070.25 21227.4 Z " fill-rule="nonzero" style="fill:#333333;;fill-opacity:1;"/>
  <path d="M 5628.85 31628.6 L 7159.6 31628.6 L 7159.6 30656.2 L 10234.75 30656.2 L 10234.75 31628.6 L 11818.8 31628.6 L 11818.8 30656.2 L 14654.75 30656.2 L 14654.75 29219.05 L 11818.8 29219.05 L 11818.8 28353.25 L 10234.75 28353.25 L 10234.75 29219.05 L 7159.6 29219.05 L 7159.6 28353.25 L 5589.2 28353.25 L 5589.2 29219.05 L 2820.2 29219.05 L 2820.2 30656.2 L 5589.2 30656.2 L 5589.2 31614.95 L 5229.75 31495.35 Q 4757.2 32597.75 4012.95 33575.35 Q 3268.7 34552.95 2407.45 35236.1 Q 2644.7 35524.05 2936.55 35979.7 Q 3228.4 36435.35 3366.2 36713.55 Q 3771.8 36363.85 4178.05 35914.7 L 4178.05 40773.45 L 5721.8 40773.45 L 5721.8 33904.9 Q 6314.6 32963.05 6746.85 32001.05 L 5628.85 31628.6 Z M 9755.7 35741.8 L 9755.7 37059.35 L 8251.6 37059.35 L 8251.6 35741.8 L 9755.7 35741.8 Z M 11206.5 38350.9 L 11206.5 34450.25 L 6787.15 34450.25 L 6787.15 39096.45 L 8251.6 39096.45 L 8251.6 38350.9 L 11206.5 38350.9 Z M 14721.05 32134.3 L 6787.15 32134.3 L 6787.15 33598.75 L 12085.3 33598.75 L 12085.3 38989.85 Q 12087.9 39145.85 12013.8 39204.35 Q 11939.05 39262.85 11752.5 39269.35 Q 11558.15 39270 11012.15 39266.1 Q 10465.5 39262.2 9862.3 39242.7 Q 10037.8 39565.1 10196.4 39970.05 Q 10355 40375 10421.3 40707.15 Q 11257.2 40713.65 11868.85 40670.75 Q 12480.5 40627.2 12897.15 40454.3 Q 13319.65 40301.55 13484.75 39966.8 Q 13649.85 39631.4 13642.7 39029.5 L 13642.7 33598.75 L 14721.05 33598.75 L 14721.05 32134.3 Z M 19060.45 32014.05 L 20671.8 32014.05 L 20671.8 31015.65 L 23440.15 31015.65 L 23440.15 32027.7 L 25077.5 32027.7 L 25077.5 31015.65 L 27913.45 31015.65 L 27913.45 29498.55 L 25077.5 29498.55 L 25077.5 28353.25 L 23440.15 28353.25 L 23440.15 29498.55 L 20671.8 29498.55 L 20671.8 28353.25 L 19060.45 28353.25 L 19060.45 29498.55 L 16118.55 29498.55 L 16118.55 31015.65 L 19060.45 31015.65 L 19060.45 32014.05 Z M 19220.35 32120.65 Q 18655.5 33297.8 17766.3 34350.8 Q 16876.45 35403.15 15852.7 36101.25 Q 16152.35 36318.35 16541.7 36650.5 Q 16931.05 36982 17170.25 37219.25 Q 17619.4 36859.8 18088.7 36380.75 L 18088.7 40787.1 L 19726.05 40787.1 L 19726.05 34410.6 Q 20345.5 33542.2 20804.4 32613.35 L 19220.35 32120.65 Z M 24478.85 39043.15 Q 24062.2 39054.85 23938.05 38924.85 Q 23813.25 38794.85 23826.25 38377.55 L 23826.25 36407.4 Q 24878.6 35917.3 25856.2 35392.1 Q 26833.8 34867.55 27686.6 34317 L 26582.25 33012.45 Q 25403.8 33891.25 23826.25 34770.05 L 23826.25 32346.85 L 22202.55 32346.85 L 22202.55 35608.55 Q 21171 36101.25 20138.8 36514 Q 20306.5 36764.25 20486.55 37099.65 Q 20666.6 37435.05 20764.75 37724.95 Q 21473.25 37445.45 22202.55 37126.3 L 22202.55 38377.55 Q 22179.15 39614.5 22625.05 40098.1 Q 23070.95 40581.7 24265.65 40560.9 L 26262.45 40560.9 Q 27294 40586.25 27736 39963.55 Q 27739.9 39958.35 27743.8 39952.5 Q 28182.55 39323.95 28299.55 37738.6 Q 27942.7 37654.75 27518.9 37475.35 Q 27095.1 37296.6 26808.45 37073 Q 26770.75 38276.8 26639.45 38675.25 Q 26638.8 38677.2 26638.15 38678.5 Q 26505.55 39074.35 26129.2 39043.15 L 24478.85 39043.15 Z M 33504.1 38696.7 L 31307.75 38696.7 L 31307.75 37432.45 L 33504.1 37432.45 L 33504.1 38696.7 Z M 30935.3 31668.25 Q 31714 30985.75 32372.45 30164.15 Q 32807.95 30517.75 33238.25 30905.8 Q 33667.9 31294.5 34023.45 31668.25 L 30935.3 31668.25 Z M 33171.3 32959.8 L 34169.7 32959.8 L 34169.7 31828.15 Q 34436.2 32107.65 34622.75 32346.85 L 35500.9 31122.25 Q 35107 30679.6 34472.6 30127.1 Q 33838.85 29574.6 33144.65 29072.15 Q 33244.75 28912.9 33344.2 28753 L 32026.65 28233.65 Q 31517.7 29092.3 30727.3 29831.35 Q 29936.25 30569.75 29097.75 31068.95 Q 29271.3 31377.7 29482.55 31843.1 Q 29693.15 32308.5 29777 32586.7 Q 30172.85 32310.45 30588.85 31974.4 L 30588.85 32959.8 L 31693.85 32959.8 L 31693.85 33878.25 L 29577.45 33878.25 L 29577.45 35169.15 L 31693.85 35169.15 L 31693.85 36154.55 L 29869.95 36154.55 L 29869.95 40600.55 L 31307.75 40600.55 L 31307.75 39988.25 L 33504.1 39988.25 L 33504.1 40334.05 L 34995.2 40334.05 L 34995.2 36154.55 L 33171.3 36154.55 L 33171.3 35169.15 L 35101.8 35169.15 L 35101.8 33878.25 L 33171.3 33878.25 L 33171.3 32959.8 Z M 40453.25 33079.4 L 40227.05 33132.7 L 39241.65 33132.7 L 39627.75 32799.9 Q 39368.4 32467.1 38949.15 32134.3 Q 39604.35 31564.9 40191.95 30868.1 Q 40779.55 30171.3 41225.45 29471.9 L 40266.7 28779.65 L 39960.55 28859.6 L 35594.5 28859.6 L 35594.5 30257.1 L 38908.85 30257.1 Q 38472.7 30842.75 37977.4 31348.45 Q 37364.45 30905.8 36792.45 30563.25 L 35740.75 31401.75 Q 36319.9 31768.35 36906.85 32222.05 Q 37493.8 32676.4 37963.75 33132.7 L 35261.7 33132.7 L 35261.7 34556.85 L 37417.75 34556.85 L 37417.75 39149.75 Q 37431.4 39349.3 37205.2 39349.3 Q 37060.9 39349.95 36712.5 39346.05 Q 36364.1 39341.5 35980.6 39322.65 Q 36115.8 39653.5 36236.7 40054.55 Q 36356.95 40455.6 36392.7 40787.1 Q 37040.1 40793.6 37517.85 40750.05 Q 37995.6 40707.15 38323.2 40534.25 Q 38674.2 40359.4 38795.75 40033.1 Q 38917.3 39706.8 38908.85 39162.75 L 38908.85 34556.85 L 39761 34556.85 Q 39580.95 35462.3 39401.55 36087.6 L 40665.8 36367.1 Q 40869.9 35760.65 41088.95 34941 Q 41307.35 34122 41491.3 33305.6 L 40453.25 33079.4 Z M 52820.15 36966.4 Q 52525.7 37189.35 52179.25 37422.05 Q 51832.8 37655.4 51488.95 37858.2 Q 51062.55 37462.35 50756.4 36966.4 L 52820.15 36966.4 Z M 48732.95 34716.75 L 50716.75 34716.75 L 50716.75 35635.2 L 48732.95 35635.2 L 48732.95 34716.75 Z M 48732.95 32480.1 L 50716.75 32480.1 L 50716.75 33398.55 L 48732.95 33398.55 L 48732.95 32480.1 Z M 45338.65 30257.1 L 52380.75 30257.1 L 52380.75 31135.9 L 45338.65 31135.9 L 45338.65 30257.1 Z M 53272.55 36966.4 L 54670.05 36966.4 L 54670.05 35635.2 L 52181.2 35635.2 L 52181.2 34716.75 L 54098.05 34716.75 L 54098.05 33398.55 L 52181.2 33398.55 L 52181.2 32480.1 L 53977.8 32480.1 L 53977.8 28925.9 L 43740.95 28925.9 L 43740.95 32866.2 Q 43759.15 34165.55 43619.4 35707.35 Q 43542.7 36466.55 43387.35 37221.85 Q 43090.3 38755.85 42316.8 40014.9 Q 42637.25 40137.75 43052.6 40380.85 Q 43467.3 40623.95 43727.95 40826.75 Q 44496.9 39574.85 44847.25 37979.1 Q 45091.65 36899.45 45199.55 35807.45 Q 45351 34192.2 45338.65 32866.2 L 45338.65 32480.1 L 47282.15 32480.1 L 47282.15 33398.55 L 45618.15 33398.55 L 45618.15 34716.75 L 47282.15 34716.75 L 47282.15 35635.2 L 45338.65 35635.2 L 45338.65 36966.4 L 46443.65 36966.4 L 46443.65 38350.9 Q 46427.4 38857.25 46209 39159.5 Q 45990.6 39461.75 45764.4 39589.15 Q 45923.65 39825.75 46095.9 40198.2 Q 46267.5 40570 46337.05 40867.05 L 46337.05 40853.4 Q 46472.9 40755.25 46875.25 40639.55 Q 47132 40566.75 47603.9 40456.25 Q 48359.2 40280.75 50010.85 39921.95 Q 50012.15 39666.5 50047.9 39294.05 Q 50083.65 38922.25 50144.1 38617.4 L 47908.1 39043.15 L 47908.1 36966.4 L 49265.95 36966.4 Q 49925.05 38434.75 51061.25 39388.95 Q 52197.45 40343.8 53925.15 40773.45 Q 54084.4 40450.4 54344.4 40079.9 Q 54603.75 39709.4 54843.6 39455.9 Q 53505.25 39209.55 52527 38643.4 Q 52950.8 38422.4 53388.9 38161.1 Q 53827.65 37899.8 54231.3 37619 L 53272.55 36966.4 Z M 64920.55 32586.7 L 63682.3 32586.7 L 63682.3 33997.85 L 64920.55 33997.85 L 64920.55 36580.3 L 63336.5 36580.3 L 63336.5 37991.45 L 67955.4 37991.45 L 67955.4 36580.3 L 66358.35 36580.3 L 66358.35 33997.85 L 67729.2 33997.85 L 67729.2 32586.7 L 66358.35 32586.7 L 66358.35 30164.15 Q 67286.55 29921.05 68075.65 29618.15 L 66983.65 28486.5 Q 66260.85 28809.55 65233.2 29082.55 Q 64206.2 29355.55 63163.6 29538.2 Q 63298.15 29780.65 63422.95 30107.6 Q 63547.75 30434.55 63603 30696.5 Q 63652.4 30688.7 63703.1 30680.9 Q 64294.6 30593.8 64920.55 30470.3 L 64920.55 32586.7 Z M 59582.75 35368.7 L 59316.25 33958.2 L 58490.75 34237.7 L 58490.75 32307.2 L 59582.75 32307.2 L 59582.75 30842.75 L 58490.75 30842.75 L 58490.75 28353.25 L 57119.9 28353.25 L 57119.9 30842.75 L 55842 30842.75 L 55842 32307.2 L 57119.9 32307.2 L 57119.9 34676.45 Q 56314.55 34939.7 55708.75 35102.85 L 56081.2 36620.6 Q 56354.85 36530.9 56640.2 36427.55 Q 56876.15 36343.05 57119.9 36261.15 L 57119.9 39123.1 Q 57129.65 39366.2 56920.35 39349.3 Q 56792.95 39349.95 56500.45 39346.05 Q 56208.6 39341.5 55842 39322.65 Q 55986.3 39656.1 56101.35 40056.5 Q 56216.4 40456.9 56241.1 40760.45 Q 56848.2 40764.35 57277.85 40703.9 Q 57707.5 40642.8 57985.05 40467.3 Q 58269.75 40283.35 58382.85 39964.85 Q 58495.3 39646.35 58490.75 39123.1 L 58490.75 35768.45 L 59582.75 35368.7 Z M 62537.65 32732.95 L 62284.8 32759.6 L 61738.8 32759.6 Q 62141.15 32004.95 62517.5 31137.2 Q 62894.5 30270.1 63216.9 29365.3 L 62338.1 28779.65 L 62058.6 28886.25 L 59821.95 28886.25 L 59821.95 30190.8 L 61446.3 30190.8 Q 61143.4 31045.55 60840.5 31692.95 Q 60537.6 32341 60394.6 32586.7 Q 60206.75 32924.7 59958.45 33172.35 Q 59710.8 33420.65 59502.8 33478.5 Q 59664 33715.75 59855.1 34047.9 Q 60046.85 34379.4 60128.1 34597.15 Q 60142.4 34472.35 60351.05 34317 Q 60560.35 34162.3 60793.7 34037.5 L 61952 34037.5 Q 61779.1 35475.3 61406 36593.95 Q 61099.85 35904.95 60873.65 34956.6 L 59768.65 35329.05 Q 60174.9 36989.8 60780.7 38031.1 Q 60131.35 39149.75 59103.05 39708.75 Q 59310.4 39920 59532.7 40231.35 Q 59755 40542.05 59901.9 40813.75 Q 60936.7 40184.55 61632.2 39176.4 Q 62445.35 39969.4 63473 40265.8 Q 64500.65 40562.85 65692.75 40547.25 L 67835.8 40547.25 Q 67891.05 40220.3 68025.6 39808.2 Q 68160.15 39396.75 68314.85 39109.45 Q 67941.75 39125.05 67300.2 39130.9 Q 67010.3 39133.5 66727.55 39134.8 Q 66099.65 39136.75 65799.35 39136.1 Q 64795.75 39152.35 63912.4 38901.45 Q 63028.4 38650.55 62324.45 37938.15 Q 63140.2 36024.55 63336.5 32853.2 L 62537.65 32732.95 Z M 78885.15 34743.4 Q 78541.95 36027.8 77899.75 37032.7 Q 77001.45 36007.65 76502.25 34743.4 L 78885.15 34743.4 Z M 79683.35 33278.95 L 79417.5 33318.6 L 76541.9 33318.6 Q 76555.55 33111.25 76570.5 32902.6 Q 76605.6 32471 76621.85 32027.7 L 81387.65 32027.7 L 81387.65 30563.25 L 80375.6 30563.25 L 80894.95 29897.65 Q 80482.2 29525.2 79811.4 29110.5 Q 79141.25 28695.8 78499.05 28393.55 L 77700.2 29418.6 Q 78148.7 29644.8 78630.35 29950.95 Q 79111.35 30257.1 79510.45 30563.25 L 76675.15 30563.25 Q 76698.55 29465.4 76701.8 28366.9 L 75171.05 28366.9 Q 75174.3 29475.15 75157.4 30563.25 L 73560.35 30563.25 L 73560.35 30816.1 L 72361.75 30816.1 L 72361.75 28353.25 L 70804.35 28353.25 L 70804.35 30816.1 L 69140.35 30816.1 L 69140.35 32280.55 L 70804.35 32280.55 L 70804.35 34716.75 Q 69733.15 34972.85 68940.8 35129.5 L 69380.2 36793.5 L 70804.35 36354.1 L 70804.35 39069.8 Q 70814.75 39325.9 70565.15 39322.65 Q 70422.15 39323.3 70077 39319.4 Q 69732.5 39314.85 69339.9 39296 Q 69475.1 39620.35 69597.95 40026.6 Q 69720.8 40432.85 69766.3 40746.8 Q 70461.8 40752 70957.75 40697.4 Q 71453.7 40642.15 71789.75 40467.3 Q 72113.45 40295.7 72240.2 39966.8 Q 72367.6 39637.25 72361.75 39056.15 L 72361.75 35861.4 Q 73087.8 35638.45 73813.2 35395.35 L 73639.65 34037.5 L 72361.75 34343.65 L 72361.75 32280.55 L 73573.35 32280.55 L 73573.35 32027.7 L 75117.75 32027.7 Q 75053.4 34202.6 74570.45 36064.2 Q 74499.6 36317.7 74417.7 36563.4 Q 73850.25 38365.2 72468.35 39615.8 Q 72777.75 39815.35 73087.8 40122.8 Q 73397.2 40430.25 73587 40720.15 Q 74469.7 39907.65 75046.25 38888.45 Q 75622.15 37868.6 75956.25 36686.9 Q 76402.15 37492.25 76967.65 38178 Q 76086.25 39033.4 74944.2 39468.9 Q 75183.4 39722.4 75435.6 40083.15 Q 75687.15 40443.9 75836.65 40746.8 Q 77077.5 40171.55 78019.35 39256.35 Q 79130.85 40201.45 80601.8 40746.8 Q 80772.75 40421.8 81058.1 40041.55 Q 81343.45 39661.3 81613.85 39415.6 Q 80129.25 38959.95 79004.75 38084.4 Q 80185.8 36344.35 80628.45 33545.45 L 79683.35 33278.95 Z M 84502.45 41465.7 Q 85749.8 41082.85 86432.95 40232.65 Q 87116.1 39383.1 87125.2 38231.3 Q 87123.9 37383.05 86760.55 36900.1 Q 86397.2 36416.5 85687.4 36407.4 Q 85142.7 36412.6 84770.25 36726.55 Q 84397.8 37041.15 84382.85 37605.35 Q 84399.1 38177.35 84765.7 38482.2 Q 85131.65 38787.05 85647.1 38790.3 Q 85730.3 38793.55 85794 38776.65 Q 85654.25 39861.5 84076.7 40387.35 L 84502.45 41465.7 Z M 101076.15 28539.8 L 101076.15 38803.3 Q 101095.65 39166 100676.4 39149.75 Q 100431.35 39160.15 99819.7 39156.25 Q 99207.4 39152.35 98533.35 39123.1 Q 98721.2 39470.85 98901.25 39938.2 Q 99081.3 40406.2 99159.3 40773.45 Q 100123.9 40778 100819.4 40715.6 Q 101515.55 40652.55 101980.95 40467.3 Q 102416.45 40288.55 102606.9 39905.05 Q 102797.35 39521.55 102793.45 38803.3 L 102793.45 28539.8 L 101076.15 28539.8 Z M 104244.25 32014.05 Q 104948.85 33319.9 105542.3 34764.85 Q 105708.05 35169.8 105855.6 35566.95 Q 106384.05 36983.95 106573.85 38071.4 L 108304.15 37392.15 Q 108062.35 36240.35 107464.35 34807.75 Q 107335.65 34496.4 107195.25 34181.15 Q 106547.2 32733.6 105801.65 31428.4 L 104244.25 32014.05 Z M 97588.25 31575.3 Q 97403.65 32751.15 96993.5 34073.25 Q 96881.7 34424.25 96753.65 34766.8 Q 96281.1 36058.35 95577.8 36979.4 Q 95908 37128.9 96355.2 37362.25 Q 96802.4 37596.25 97122.2 37804.9 Q 97861.25 36788.95 98383.85 35367.4 Q 98508 35039.8 98620.45 34704.4 Q 99097.55 33245.8 99398.5 31881.45 L 97588.25 31575.3 Z M 118195.2 36926.75 L 109156.3 36926.75 L 109156.3 38284.6 L 118195.2 38284.6 L 118195.2 36926.75 Z M 112271.1 34463.9 L 112271.1 30829.75 L 118075.6 30829.75 Q 118008 31658.5 117935.85 32067.35 Q 117863.05 32476.85 117755.8 32586.7 Q 117609.55 32732.95 117383.35 32719.95 Q 117060.3 32723.2 116438.25 32666.65 Q 116599.45 32966.3 116700.85 33345.25 Q 116802.25 33724.85 116824.35 34064.15 Q 117228.65 34074.55 117580.95 34062.85 Q 117933.25 34050.5 118168.55 34010.85 Q 118416.2 33976.4 118624.2 33879.55 Q 118832.2 33782.7 119020.7 33558.45 Q 119255.35 33306.9 119380.15 32468.4 Q 119504.95 31630.55 119579.7 29990.6 Q 119590.1 29833.95 119597.9 29641.55 Q 119605.7 29449.15 119606.35 29431.6 L 115506.15 29431.6 Q 115752.5 28966.2 115998.85 28459.85 L 114108.65 28313.6 Q 114018.3 28832.95 113829.15 29431.6 L 110727.35 29431.6 L 110727.35 35861.4 L 119380.15 35861.4 Q 119280.7 37451.3 119139 38229.35 Q 118996.65 39007.4 118807.5 39189.4 Q 118631.35 39369.45 118314.8 39349.3 Q 118095.1 39350.6 117686.25 39342.8 Q 117276.75 39334.35 116797.7 39296 Q 116989.45 39598.25 117108.4 39985 Q 117228 40371.75 117250.1 40693.5 Q 117787.65 40723.4 118255 40715.6 Q 118723 40707.8 119020.7 40666.85 Q 119367.15 40632.4 119641.45 40515.4 Q 119915.1 40399.05 120152.35 40134.5 Q 120463.05 39811.45 120651.55 38669.4 Q 120654.8 38650.55 120658.05 38631.05 Q 120844.6 37472.75 120977.2 35089.2 Q 120987.6 34928 120995.4 34707 Q 121003.85 34485.35 121003.85 34463.9 L 112271.1 34463.9 Z M 116331.65 32627 Q 115862.35 32283.8 115113.55 31882.75 Q 114364.75 31482.35 113695.9 31189.2 L 112843.75 32147.3 Q 113529.5 32490.5 114254.9 32913 Q 114980.3 33335.5 115426.2 33678.05 L 116331.65 32627 Z M 133290.8 28753 L 123413.4 28753 L 123413.4 30164.15 L 131773.7 30164.15 L 131773.7 30803.1 L 124012.7 30803.1 L 124012.7 31894.45 L 131773.7 31894.45 L 131773.7 32520.4 L 123413.4 32520.4 L 123413.4 33917.9 L 133290.8 33917.9 L 133290.8 28753 Z M 132106.5 37898.5 Q 132462.05 37398 132870.25 36745.4 Q 133277.8 36092.15 133663.9 35422 L 132292.4 34636.8 Q 132039.55 35267.3 131656.7 35968 Q 131274.5 36668.7 130921.55 37179.6 L 132106.5 37898.5 Z M 124478.75 34690.1 Q 124266.2 35381.7 123900.9 36038.2 Q 123536.25 36694.05 123053.95 37165.95 L 124385.15 37951.8 Q 124892.8 37408.4 125250.3 36680.4 Q 125608.45 35952.4 125836.6 35209.45 L 124478.75 34690.1 Z M 127713.15 34184.4 Q 127626.7 35485.7 127293.9 36497.1 Q 127087.85 37084.05 126691.35 37573.5 Q 126294.85 38063.6 125629.25 38458.15 Q 124503.45 39138.05 122255.1 39535.85 Q 122495.6 39792.6 122732.85 40186.5 Q 122970.75 40580.4 123080.6 40906.7 Q 125505.75 40406.85 126799.9 39560.55 Q 128094.05 38714.25 128631.6 37525.4 Q 129372.6 38857.25 130631.65 39647 Q 131891.35 40437.4 133890.1 40760.45 Q 134030.5 40404.9 134287.9 39994.75 Q 134545.3 39584.6 134795.55 39309 Q 132428.9 39073.7 131091.2 38155.9 Q 129753.5 37238.75 129204.25 35595.55 Q 129317.35 34919.55 129390.8 34184.4 L 127713.15 34184.4 Z M 141478.2 29378.3 L 136273 29378.3 L 136273 30776.45 L 141478.2 30776.45 L 141478.2 29378.3 Z M 144925.8 31228.85 Q 144949.2 29950.95 144952.45 28593.1 L 143381.4 28593.1 Q 143384.65 29960.7 143368.4 31228.85 L 141877.3 31228.85 L 141877.3 32746.6 L 143315.1 32746.6 Q 143254 34327.4 142990.75 35686.55 Q 142726.85 37045.7 142156.8 38137.7 Q 141965.7 37423.35 141622.5 36493.85 Q 141279.3 35564.35 140918.55 34729.75 L 139654.3 35076.2 Q 139953.95 35851.65 140252.95 36726.55 L 137990.3 37259.55 Q 138321.8 36473.7 138609.1 35610.5 Q 138896.4 34747.3 139108.3 33891.25 L 141717.4 33891.25 L 141717.4 32453.45 L 135846.6 32453.45 L 135846.6 33891.25 L 137484.6 33891.25 Q 137249.95 34977.4 136973.7 35848.4 Q 136696.8 36719.4 136552.5 37046.35 Q 136256.1 37775 135899.9 37925.15 Q 136046.8 38237.8 136193.05 38660.3 Q 136339.3 39082.8 136406.25 39335.65 Q 136588.9 39210.85 137044.55 39049.65 Q 137369.55 38935.25 137979.9 38760.4 Q 138849.6 38511.45 140652.7 38044.75 Q 140752.15 38397.7 140812.6 38670.05 L 142076.85 38284.6 Q 141657.6 38972.95 141078.45 39562.5 Q 141381.35 39766.6 141714.15 40113.05 Q 142046.95 40459.5 142249.75 40773.45 Q 143628.4 39362.3 144195.2 37314.15 Q 144762 35266 144872.5 32746.6 L 146243.35 32746.6 Q 146164.05 35613.1 146053.55 37021.65 Q 146036 37245.25 146017.15 37438.95 Q 145898.2 38657.7 145698 38883.25 Q 145601.15 39019.75 145486.75 39066.55 Q 145372.35 39112.7 145205.3 39109.45 Q 144988.2 39111.4 144596.25 39102.95 Q 144204.3 39094.5 143727.85 39056.15 Q 143928.7 39398.7 144050.25 39823.8 Q 144171.8 40248.25 144193.25 40600.55 Q 144720.4 40622 145190.35 40615.5 Q 145659.65 40609 145977.5 40560.9 Q 146331.1 40499.8 146589.8 40354.2 Q 146848.5 40208.6 147082.5 39868.65 Q 147341.2 39534.55 147486.8 38360 Q 147560.9 37761.35 147616.8 36878.65 Q 147725.35 35134.05 147801.4 31947.75 Q 147802.05 31771.6 147807.9 31513.55 Q 147813.75 31254.85 147814.4 31228.85 L 144925.8 31228.85 Z M 151954.25 28899.25 Q 151564.25 29700.05 150949.35 30428.7 Q 150334.45 31156.7 149624.65 31668.25 Q 149923.65 31843.1 150305.2 32135.6 Q 150686.75 32428.1 150916.2 32653 Q 151629.25 32047.85 152315.65 31171 Q 153001.4 30293.5 153485 29338.65 L 151954.25 28899.25 Z M 152939.65 38443.85 L 155881.55 38443.85 L 155881.55 39136.1 L 152939.65 39136.1 L 152939.65 38443.85 Z M 153711.85 33878.25 Q 154623.8 33531.8 155455.8 33145.7 Q 155741.8 33472 155988.15 33878.25 L 153711.85 33878.25 Z M 155881.55 35741.8 L 152939.65 35741.8 L 152939.65 35076.2 L 155881.55 35076.2 L 155881.55 35741.8 Z M 155881.55 37418.8 L 152939.65 37418.8 L 152939.65 36753.2 L 155881.55 36753.2 L 155881.55 37418.8 Z M 157425.95 38443.85 L 160141 38443.85 L 160141 37418.8 L 157425.95 37418.8 L 157425.95 36753.2 L 160128 36753.2 L 160128 35741.8 L 157425.95 35741.8 L 157425.95 35076.2 L 160713.65 35076.2 L 160713.65 33878.25 L 157665.15 33878.25 Q 157500.7 33602.65 157274.5 33302.35 Q 157047.65 33002.05 156813 32746.6 L 155508.45 33119.05 Q 156432.75 32670.55 157254.35 32137.55 Q 158075.95 31603.9 158730.5 30976 Q 159412.35 31694.9 159795.2 32253.9 L 161192.7 31428.4 Q 160745.5 30832.35 160002.55 30116.05 Q 159971.35 30085.5 159940.15 30055.6 Q 159192 29339.3 158490.65 28753 L 157199.1 29471.9 Q 157941.4 30153.75 158703.85 30936.35 L 157359 30203.8 Q 156736.95 30809.6 155854.9 31335.45 L 155854.9 28500.15 L 154324.15 28500.15 L 154324.15 32107.65 Q 153076.15 32645.2 151676.7 33031.3 Q 150276.6 33416.75 148839.45 33665.05 Q 149061.1 33927 149320.45 34335.85 Q 149579.8 34744.7 149731.25 35035.9 Q 150550.25 34859.75 151368.6 34623.8 L 151368.6 40787.1 L 152939.65 40787.1 L 152939.65 40334.05 L 160833.25 40334.05 L 160833.25 39136.1 L 157425.95 39136.1 L 157425.95 38443.85 Z M 4324.3 49390.8 L 5948.65 49390.8 L 5948.65 51108.1 L 4324.3 51108.1 L 4324.3 49390.8 Z M 7426.1 56805.35 L 6054.6 57164.8 L 6054.6 55340.9 L 7465.75 55340.9 L 7465.75 53970.05 L 6054.6 53970.05 L 6054.6 52439.3 L 7333.15 52439.3 L 7333.15 48059.6 L 3019.75 48059.6 L 3019.75 52439.3 L 4670.75 52439.3 L 4670.75 57510.6 L 4164.4 57643.85 L 4164.4 53557.3 L 2939.8 53557.3 L 2939.8 57950 Q 2627.15 58026.7 2354.15 58083.25 L 2726.6 59574.35 Q 3585.25 59326.7 4605.1 59029.65 Q 5624.95 58733.25 6689 58422.55 Q 7161.55 58285.4 7625.65 58150.2 L 7426.1 56805.35 Z M 14747.7 53756.85 L 14747.7 52292.4 L 12019 52292.4 L 12019 49510.4 Q 13343.05 49243.9 14427.9 48857.8 L 13296.9 47606.55 Q 12275.1 47988.1 10832.1 48287.1 Q 9389.1 48586.75 7918.8 48778.5 Q 8063.1 49050.2 8187.9 49407.05 Q 8312.7 49763.9 8358.2 50056.4 Q 9379.35 49956.3 10460.95 49776.9 L 10460.95 52292.4 L 7851.85 52292.4 L 7851.85 53756.85 L 10421.3 53756.85 Q 10346.55 54898.25 9858.4 56092.95 Q 9690.05 56480.35 9451.5 56857.35 Q 8752.75 58021.5 7186.25 58948.4 Q 7479.4 59172.65 7800.5 59499.6 Q 8120.95 59825.9 8304.9 60080.05 Q 9554.2 59263.65 10306.25 58284.75 Q 11058.95 57305.85 11419.7 56259.35 Q 11844.15 57483.3 12477.9 58442.7 Q 13111.65 59402.1 14015.8 60026.75 Q 14207.55 59701.75 14516.3 59329.95 Q 14825.7 58957.5 15107.15 58722.2 Q 13916.35 58012.4 13190.3 56709.15 Q 12463.6 55405.25 12111.95 53756.85 L 14747.7 53756.85 Z M 17942.45 60665.7 Q 19189.8 60282.85 19872.95 59432.65 Q 20556.1 58583.1 20565.2 57431.3 Q 20563.9 56583.05 20200.55 56100.1 Q 19837.2 55616.5 19127.4 55607.4 Q 18582.7 55612.6 18210.25 55926.55 Q 17837.8 56241.15 17822.85 56805.35 Q 17839.1 57377.35 18205.7 57682.2 Q 18571.65 57987.05 19087.1 57990.3 Q 19170.3 57993.55 19234 57976.65 Q 19094.25 59061.5 17516.7 59587.35 L 17942.45 60665.7 Z M 39122.05 56778.7 Q 38949.15 56153.4 38614.4 55307.75 Q 38279.65 54462.75 37937.1 53717.2 L 36765.8 54129.95 Q 37012.15 54662.3 37218.2 55274.6 L 35780.4 55527.45 Q 36195.75 54752.65 36576 53895.3 Q 36956.25 53037.95 37231.85 52172.8 L 35740.75 51747.05 Q 35499.6 52746.1 35153.8 53647 Q 35074.5 53858.25 34997.15 54050.65 Q 34659.15 54876.8 34489.5 55181 Q 34176.2 55823.85 33823.9 55926.55 Q 33952.6 56239.85 34098.2 56650.65 Q 34244.45 57061.45 34302.95 57284.4 Q 34449.2 57193.4 34880.8 57069.25 Q 35086.2 57011.4 35406.65 56935.35 Q 36095 56770.9 37644.6 56459.55 Q 37787.6 56924.95 37870.8 57271.4 L 39122.05 56778.7 Z M 36339.4 49656.65 Q 36665.7 48798 36912.05 47899.7 L 35367.65 47553.25 Q 35116.75 48602.35 34715.7 49588.4 Q 34314.65 50575.1 33783.6 51373.95 L 33783.6 50029.75 L 32519.35 50029.75 L 32519.35 47553.25 L 30974.95 47553.25 L 30974.95 50029.75 L 29231 50029.75 L 29231 51494.2 L 30882 51494.2 Q 30586.9 52725.3 30092.9 53945.35 Q 30084.45 53964.85 30076.65 53984.35 Q 29580.05 55201.15 28978.15 56006.5 Q 29177.05 56335.4 29390.9 56788.45 Q 29604.75 57242.15 29723.7 57590.55 Q 30074.05 57076.4 30389.3 56364.65 Q 30704.55 55652.9 30974.95 54808.55 L 30974.95 59987.1 L 32519.35 59987.1 L 32519.35 53916.75 Q 32733.2 54352.25 32920.4 54760.45 Q 33106.95 55168.65 33211.6 55474.15 L 34169.7 54382.8 Q 34026.05 54133.2 33660.75 53580.05 Q 33408.55 53197.85 33140.1 52809.15 Q 32751.4 52246.25 32519.35 51959.6 L 32519.35 51494.2 L 33703.65 51494.2 Q 33461.2 51849.75 33197.95 52146.15 Q 33496.95 52322.3 33878.5 52620.65 Q 34260.05 52919 34489.5 53144.55 Q 35121.95 52282.65 35714.1 51121.1 L 39667.4 51121.1 Q 39577.05 54408.8 39430.8 56053.95 Q 39408.7 56309.4 39384.65 56532.35 Q 39228 57962.35 38988.8 58216.5 Q 38815.9 58475.85 38483.1 58456.35 Q 38245.2 58458.3 37825.95 58447.9 Q 37406.05 58437.5 36899.05 58389.4 Q 37110.3 58743.65 37239.65 59179.8 Q 37369 59616.6 37391.1 59960.45 Q 37919.55 59983.2 38404.45 59978.65 Q 38890 59974.1 39228.65 59907.15 Q 39593.3 59854.5 39875.4 59697.2 Q 40158.15 59539.9 40412.95 59188.25 Q 40689.2 58834.65 40850.4 57658.15 Q 40953.75 56901.55 41031.1 55686.7 Q 41150.7 53783.5 41252.1 50402.2 Q 41252.75 50224.75 41258.6 49955 Q 41264.45 49684.6 41265.1 49656.65 L 36339.4 49656.65 Z M 51009.25 58123.55 L 51661.85 57071.85 Q 50690.1 56741.65 49347.2 56448.5 Q 49124.9 56400.4 48899.35 56354.25 Q 47533.05 56076.7 46257.1 55940.2 L 45538.2 56965.25 Q 46824.55 57114.75 48184.35 57409.85 Q 48320.85 57439.1 48456.05 57469.65 Q 49800.9 57773.85 50783.05 58123.55 L 44486.5 58123.55 L 44486.5 54182.6 Q 44660.7 54431.55 44818 54727.3 Q 44974.65 55023.05 45059.15 55260.95 Q 46150.5 55001.6 47242.5 54582.35 L 46749.8 55260.95 Q 47616.9 55452.05 48532.1 55755.6 Q 49446.65 56058.5 50064.15 56339.3 L 50703.1 55367.55 Q 50122 55111.45 49293.9 54855.35 Q 48465.8 54598.6 47654.6 54422.45 Q 47655.25 54422.45 47655.25 54422.45 Q 48197.35 54189.75 48719.95 53916.75 Q 50277.35 54722.1 52034.3 55088.05 Q 52150 54870.3 52342.4 54592.1 Q 52534.8 54314.55 52740.2 54076.65 L 52740.2 58123.55 L 51009.25 58123.55 Z M 47362.1 49483.75 Q 46859.65 50230.6 46117.35 50888.4 Q 45375.05 51545.55 44553.45 52012.9 Q 44788.1 52187.1 45092.3 52464 Q 45397.15 52740.9 45591.5 52945 Q 45997.75 52685 46403.35 52345.7 Q 46826.5 52742.2 47348.45 53117.9 Q 45957.45 53660.65 44486.5 53943.4 L 44486.5 49483.75 L 47362.1 49483.75 Z M 49971.2 51667.1 Q 49401.8 52136.4 48653 52505.6 Q 47934.75 52136.4 47415.4 51667.1 L 49971.2 51667.1 Z M 52740.2 53876.45 Q 51335.55 53620.35 50051.15 53144.55 Q 51442.15 52209.2 52274.15 50974.85 L 51382.35 50442.5 L 51156.15 50495.8 L 48253.9 50495.8 Q 48493.75 50189 48693.3 49882.85 L 47561.65 49483.75 L 52740.2 49483.75 L 52740.2 53876.45 Z M 42969.4 48059.6 L 42969.4 60000.1 L 44486.5 60000.1 L 44486.5 59521.05 L 52740.2 59521.05 L 52740.2 60000.1 L 54337.25 60000.1 L 54337.25 48059.6 L 42969.4 48059.6 Z M 58810.55 56991.9 L 58810.55 52372.35 L 57346.1 52372.35 L 57346.1 57470.95 Q 57333.75 58002 57144.6 58371.2 Q 56955.45 58740.4 56733.8 58921.75 Q 56937.25 59098.55 57177.75 59414.45 Q 57418.9 59731 57532.65 59987.1 L 57532.65 59973.45 Q 57639.25 59808.35 57992.2 59487.9 Q 58199.55 59299.4 58560.3 58999.1 Q 59186.25 58477.15 60540.85 57391 Q 60414.75 57145.95 60266.55 56765.7 Q 60117.7 56385.45 60021.5 56059.8 L 58810.55 56991.9 Z M 66038.55 50362.55 Q 66043.1 52761.05 66011.25 53865.4 Q 66008.65 53934.3 66006.7 53999.3 Q 65970.3 55038 65839 55207.65 Q 65716.15 55427.35 65452.9 55407.85 L 65226.7 55407.85 L 65226.7 51414.25 L 61965 51414.25 Q 62281.55 50918.3 62577.95 50362.55 L 66038.55 50362.55 Z M 63868.85 54395.8 L 62630.6 54395.8 L 62630.6 52678.5 L 63868.85 52678.5 L 63868.85 54395.8 Z M 63536.05 58349.75 Q 62964.05 58362.75 62789.2 58226.25 Q 62613.7 58089.75 62630.6 57643.85 L 62630.6 55660.7 L 64388.2 55660.7 Q 64498.05 55935 64566.3 56221 Q 64633.9 56507.65 64654.05 56752.05 Q 64668.35 56752.7 64682 56752.7 Q 65137 56765.05 65530.25 56761.8 Q 65922.85 56759.2 66212.1 56712.4 Q 66527.35 56659.1 66756.15 56525.85 Q 66984.3 56392.6 67170.2 56100.1 Q 67367.15 55830.35 67438 54785.15 Q 67465.95 54385.4 67482.2 53840.7 Q 67521.2 52404.85 67516.65 49643.65 L 67516.65 48991.05 L 63203.25 48991.05 Q 63273.45 48790.2 63346.9 48596.5 Q 63462.6 48293.6 63562.7 47979.65 L 62218.5 47579.9 Q 61903.9 48619.25 61399.5 49563.7 Q 60895.1 50508.15 60261.35 51227.7 Q 60534.35 50493.85 60754.7 49767.8 Q 60774.2 49704.75 60793.7 49643.65 L 59768.65 49364.15 L 59529.45 49417.45 L 58157.95 49417.45 Q 58338 48642 58477.75 47846.4 L 57052.95 47566.9 Q 56844.95 48998.2 56467.3 50309.25 Q 56089.65 51620.3 55522.2 52532.25 Q 55770.5 52720.1 56106.55 53028.2 Q 56441.95 53335.65 56640.2 53543.65 Q 57325.95 52382.75 57812.15 50722 L 59023.1 50722 Q 58902.2 51136.7 58768.95 51518.9 Q 58635.05 51901.1 58504.4 52185.8 L 59702.35 52571.9 Q 59908.4 52196.2 60074.8 51720.4 Q 60262 52018.1 60444.65 52395.75 Q 60626.65 52773.4 60713.75 53011.3 Q 60933.45 52791.6 61153.15 52532.25 L 61153.15 57657.5 Q 61127.8 58851.55 61613.35 59303.95 Q 61614 59304.6 61615.3 59305.9 Q 62102.15 59756.35 63402.8 59734.25 L 66105.5 59734.25 Q 67179.3 59755.05 67629.75 59250 Q 68079.55 58744.3 68195.25 57457.95 Q 67870.9 57383.2 67486.75 57226.55 Q 67101.95 57069.25 66837.4 56885.3 Q 66791.9 57780.35 66619.65 58076.75 Q 66446.75 58373.15 65972.25 58349.75 L 63536.05 58349.75 Z M 72628.25 49417.45 L 72628.25 49843.2 L 74532.1 49843.2 L 74532.1 50655.05 L 75995.9 50655.05 L 75995.9 49843.2 L 77860.1 49843.2 L 77860.1 50655.05 L 79350.55 50655.05 L 79350.55 49843.2 L 81214.75 49843.2 L 81214.75 48525 L 79350.55 48525 L 79350.55 47553.25 L 77860.1 47553.25 L 77860.1 48525 L 75995.9 48525 L 75995.9 47553.25 L 74532.1 47553.25 L 74532.1 48525 L 72614.6 48525 L 72614.6 49217.25 Q 72236.95 48888.35 71689.65 48518.5 Q 71142.35 48149.3 70644.45 47859.4 L 69672.7 48924.75 Q 70213.5 49268.6 70784.2 49696.95 Q 71355.55 50125.3 71696.15 50469.15 L 72628.25 49417.45 Z M 72055.6 52798.75 Q 71682.5 52476.35 71082.55 52099.35 Q 70481.95 51723 69939.2 51440.9 L 69007.1 52518.6 Q 69550.5 52833.2 70138.75 53247.9 Q 70727 53661.95 71070.85 53996.7 L 72055.6 52798.75 Z M 70671.1 59707.6 Q 71193.7 58739.75 71706.55 57677 Q 72218.75 56614.9 72681.55 55567.1 L 71443.3 54582.35 Q 70920.7 55743.9 70340.25 56845 Q 69759.8 57946.75 69286.6 58709.2 L 70671.1 59707.6 Z M 76502.25 53104.9 Q 76502.25 52708.4 76502.25 52292.4 L 77633.25 52292.4 Q 77637.15 52708.4 77620.25 53104.9 L 76502.25 53104.9 Z M 79683.35 54475.75 L 79683.35 56659.1 Q 79470.8 56303.55 79206.25 55905.1 Q 78941.05 55507.3 78658.3 55141.35 Q 78718.75 54838.45 78738.25 54475.75 L 79683.35 54475.75 Z M 77540.3 54475.75 Q 77447.35 55351.3 77234.15 56086.45 Q 77071 55882.35 76838.3 55645.75 Q 76604.95 55409.15 76342.35 55194.65 Q 76402.15 54855.35 76422.3 54475.75 L 77540.3 54475.75 Z M 74252.6 54475.75 L 75197.7 54475.75 Q 75122.3 55324.65 74899.35 56021.45 Q 74677.05 56718.25 74252.6 57257.75 L 74252.6 54475.75 Z M 81387.65 52292.4 L 81387.65 50974.85 L 72482 50974.85 L 72482 52292.4 L 75264 52292.4 Q 75264 52708.4 75264 53104.9 L 72734.85 53104.9 L 72734.85 59920.15 L 74252.6 59920.15 L 74252.6 57470.95 Q 74493.75 57641.25 74753.1 57866.8 Q 75012.45 58092.35 75144.4 58243.15 Q 75776.2 57504.1 76049.2 56525.85 Q 76335.85 56835.25 76502.25 57084.85 L 77154.2 56379.6 Q 76898.1 57161.55 76382 57764.1 Q 76621.2 57896.7 76944.9 58119.65 Q 77268.6 58342.6 77447.35 58496 Q 78022.6 57756.95 78298.85 56778.7 Q 78655.05 57381.25 78831.85 57843.4 L 79683.35 57151.8 L 79683.35 58722.2 Q 79697 58925 79470.8 58908.75 Q 79359 58919.15 79067.8 58917.2 Q 78776.6 58914.6 78445.75 58895.1 Q 78568.6 59120.65 78673.25 59391.05 Q 78778.55 59661.45 78831.85 59907.15 Q 79430.5 59912.35 79871.85 59887 Q 80313.2 59862.3 80601.8 59747.25 Q 80896.9 59617.25 81011.3 59387.8 Q 81126.35 59158.35 81121.15 58709.2 L 81121.15 53104.9 L 78831.85 53104.9 Q 78840.95 52902.75 78844.85 52698.65 Q 78849.4 52499.1 78858.5 52292.4 L 81387.65 52292.4 Z M 94593.05 55381.2 L 89414.5 55381.2 L 89414.5 53890.1 L 93488.05 53890.1 L 93488.05 52372.35 L 89414.5 52372.35 L 89414.5 51014.5 L 94087.35 51014.5 L 94087.35 49430.45 L 89414.5 49430.45 L 89414.5 47540.25 L 87710.85 47540.25 L 87710.85 49430.45 L 83051.65 49430.45 L 83051.65 51014.5 L 87710.85 51014.5 L 87710.85 52372.35 L 83743.9 52372.35 L 83743.9 53890.1 L 87710.85 53890.1 L 87710.85 55381.2 L 82585.6 55381.2 L 82585.6 56978.25 L 87710.85 56978.25 L 87710.85 59973.45 L 89414.5 59973.45 L 89414.5 56978.25 L 94593.05 56978.25 L 94593.05 55381.2 Z M 102021.25 53996.7 L 102021.25 52731.8 L 102939.7 52731.8 L 102939.7 51427.25 L 102021.25 51427.25 L 102021.25 50282.6 Q 102676.45 49989.45 103312.15 49617 L 103312.15 52292.4 Q 103322.55 53144.55 103232.2 53996.7 L 102021.25 53996.7 Z M 97681.2 54129.95 Q 97698.1 53433.8 97694.85 52838.4 L 97694.85 52478.95 L 98759.55 52478.95 L 98759.55 54129.95 L 97681.2 54129.95 Z M 98759.55 49444.1 L 98759.55 51041.15 L 97694.85 51041.15 L 97694.85 49444.1 L 98759.55 49444.1 Z M 107426 55301.25 L 107426 49031.35 L 105069.75 49031.35 L 105069.75 50309.25 L 106027.85 50309.25 L 106027.85 51453.9 L 105123.05 51453.9 L 105123.05 52731.8 L 106027.85 52731.8 L 106027.85 53996.7 L 104643.35 53996.7 Q 104716.8 53144.55 104710.3 52292.4 L 104710.3 47673.5 L 103312.15 47673.5 L 103312.15 49603.35 L 102407.35 48618.6 Q 102051.8 48871.45 101573.4 49174.35 Q 101095.65 49477.25 100690.05 49670.3 L 100690.05 55301.25 L 102966.35 55301.25 Q 102689.45 56284.7 102018 57158.3 Q 101346.55 58031.9 100131.05 58735.85 Q 100153.8 58516.15 100157.7 58216.5 L 100157.7 48019.3 L 96350 48019.3 L 96350 52838.4 Q 96362.35 54112.4 96272.65 55608.05 Q 96238.85 56094.25 96184.25 56576.55 Q 96028.9 58063.1 95577.8 59268.2 Q 95848.2 59368.95 96215.45 59574.35 Q 96582.7 59779.75 96803.05 59960.45 Q 97148.2 59037.45 97338.65 57901.9 Q 97529.1 56767 97614.9 55593.75 L 98759.55 55593.75 L 98759.55 58189.85 Q 98766.05 58416.05 98573 58403.05 Q 98454.7 58403.05 98188.85 58401.1 Q 97923 58399.15 97614.9 58389.4 Q 97749.45 58697.5 97856.05 59114.8 Q 97963.3 59532.75 97987.35 59840.2 Q 98573 59846.05 98981.2 59788.85 Q 99389.4 59731.65 99665 59547.7 Q 99964.65 59344.9 100064.1 59001.7 Q 100312.4 59200.6 100560.05 59464.5 Q 100808.35 59728.4 100955.9 59946.8 Q 102243.55 59223.35 103006 58317.9 Q 103769.1 57412.45 104137.65 56379.6 Q 104658.3 57506.05 105388.9 58421.25 Q 106119.5 59335.8 107039.9 59933.8 Q 107231.65 59662.75 107530.65 59359.85 Q 107829.65 59056.3 108091.6 58855.45 Q 107076.95 58302.3 106289.15 57372.8 Q 105502 56443.3 105016.45 55301.25 L 107426 55301.25 Z M 111126.45 60665.7 Q 112373.8 60282.85 113056.95 59432.65 Q 113740.1 58583.1 113749.2 57431.3 Q 113747.9 56583.05 113384.55 56100.1 Q 113021.2 55616.5 112311.4 55607.4 Q 111766.7 55612.6 111394.25 55926.55 Q 111021.8 56241.15 111006.85 56805.35 Q 111023.1 57377.35 111389.7 57682.2 Q 111755.65 57987.05 112271.1 57990.3 Q 112354.3 57993.55 112418 57976.65 Q 112278.25 59061.5 110700.7 59587.35 L 111126.45 60665.7 Z M 126328.65 49430.45 Q 125881.45 49046.3 125162.55 48600.4 Q 124443 48153.85 123786.5 47819.75 L 122854.4 48924.75 Q 123511.55 49292 124216.8 49781.45 Q 124217.45 49781.45 124218.1 49782.1 Q 124922.7 50271.55 125330.25 50668.7 L 126328.65 49430.45 Z M 125743 52678.5 Q 125273.7 52307.35 124535.3 51888.1 Q 123796.25 51469.5 123147.55 51147.75 L 122255.1 52279.4 Q 122923.3 52644.05 123646.75 53106.2 Q 124369.55 53568.35 124797.9 53943.4 L 125743 52678.5 Z M 123945.75 59654.3 Q 124469 58644.85 124977.95 57530.75 Q 125486.25 56416.65 125929.55 55327.9 L 124678.3 54382.8 Q 124165.45 55585.3 123585 56740.35 Q 123004.55 57895.4 122521.6 58709.2 L 123945.75 59654.3 Z M 134715.6 55673.7 L 131267.35 55673.7 L 131267.35 54302.85 L 133970.05 54302.85 L 133970.05 52825.4 L 131267.35 52825.4 L 131267.35 51467.55 L 134462.75 51467.55 L 134462.75 49976.45 L 132665.5 49976.45 Q 132926.15 49522.75 133189.4 49014.45 Q 133452.65 48506.15 133703.55 47992.65 L 132146.15 47540.25 Q 131958.3 48115.5 131668.4 48773.3 Q 131378.5 49431.1 131081.45 49976.45 L 129084.65 49976.45 L 129789.9 49683.3 Q 129628.7 49208.15 129295.9 48619.9 Q 128962.45 48032.3 128591.95 47526.6 L 127180.8 48072.6 Q 127485 48512.65 127750.2 49019.65 Q 128014.75 49526.65 128179.2 49976.45 L 126581.5 49976.45 L 126581.5 51467.55 L 129617 51467.55 L 129617 52825.4 L 127034.55 52825.4 L 127034.55 54302.85 L 129617 54302.85 L 129617 55673.7 L 126169.4 55673.7 L 126169.4 57191.45 L 129617 57191.45 L 129617 59987.1 L 131267.35 59987.1 L 131267.35 57191.45 L 134715.6 57191.45 L 134715.6 55673.7 Z M 138855.45 50176 L 138855.45 51587.15 L 147814.4 51587.15 L 147814.4 50176 L 145458.15 50176 Q 145713.6 49821.1 146007.4 49371.95 Q 146301.2 48922.8 146603.45 48448.3 Q 146690.55 48313.1 146776.35 48179.2 L 145178.65 47553.25 Q 144989.5 48080.4 144697.65 48680.35 Q 144405.8 49279.65 144126.95 49736.6 L 145139 50176 L 141504.2 50176 L 142555.9 49603.35 Q 142325.8 49158.75 141960.5 48586.75 Q 141595.2 48014.75 141224.7 47500.6 L 139920.15 48112.9 Q 140241.25 48595.85 140582.5 49154.2 Q 140923.75 49712.55 141145.4 50176 L 138855.45 50176 Z M 139028.35 49523.4 Q 138676.05 49128.85 138081.95 48656.95 Q 137487.2 48184.4 136924.95 47819.75 L 135940.2 48764.85 Q 136501.8 49180.2 137078.35 49688.5 Q 137654.9 50196.15 137976.65 50601.75 L 139028.35 49523.4 Z M 138789.15 52865.05 Q 138407.6 52453.6 137777.1 51994.7 Q 137146.6 51535.8 136525.85 51174.4 L 135580.75 52212.45 Q 136191.75 52598.55 136800.15 53094.5 Q 137409.2 53590.45 137750.45 53996.7 L 138789.15 52865.05 Z M 137444.3 54582.35 Q 137105.65 55734.8 136712.4 56852.15 Q 136318.5 57969.5 135979.85 58762.5 L 137311.05 59467.75 Q 137655.55 58524.6 138000.05 57441.05 Q 138344.55 56357.5 138629.25 55314.25 L 137444.3 54582.35 Z M 140932.2 55634.05 L 141797.35 55634.05 L 141797.35 58056.6 L 140932.2 58056.6 L 140932.2 55634.05 Z M 143767.5 55634.05 L 143767.5 58056.6 L 142875.7 58056.6 L 142875.7 55634.05 L 143767.5 55634.05 Z M 145724.65 55634.05 L 145724.65 58056.6 L 144845.85 58056.6 L 144845.85 55634.05 L 145724.65 55634.05 Z M 147055.85 58056.6 L 147055.85 54609 L 147175.45 54701.95 L 147894.35 53517 Q 147302.2 53107.5 146419.5 52622.6 Q 146273.9 52542 146126.35 52462.7 Q 145230.65 51981.7 144473.4 51626.8 L 143794.15 52665.5 Q 144503.3 53024.3 145291.75 53475.4 Q 146080.2 53927.15 146709.4 54356.15 L 140213.3 54356.15 Q 140897.75 53917.4 141579.6 53405.85 Q 142261.45 52894.3 142756.1 52425.65 L 141637.45 51680.1 Q 141106.4 52166.3 140275.7 52651.2 Q 140248.4 52666.8 140220.45 52683.05 Q 139385.85 53164.7 138629.25 53464.35 Q 138884.7 53710.05 139133 54077.95 Q 139381.95 54446.5 139547.7 54742.25 L 139680.95 54675.3 L 139680.95 58056.6 L 138496 58056.6 L 138496 59441.1 L 148027.6 59441.1 L 148027.6 58056.6 L 147055.85 58056.6 Z M 158211.15 55767.3 L 153564.95 55767.3 L 153564.95 55274.6 L 158211.15 55274.6 L 158211.15 55767.3 Z M 153564.95 58483 L 153564.95 57990.3 L 158211.15 57990.3 L 158211.15 58483 L 153564.95 58483 Z M 158211.15 57111.5 L 153564.95 57111.5 L 153564.95 56632.45 L 158211.15 56632.45 L 158211.15 57111.5 Z M 161006.8 53676.9 L 161006.8 52439.3 L 154669.95 52439.3 Q 154809.7 52159.8 154949.45 51879.65 L 159795.2 51879.65 L 159795.2 50735 L 155442.15 50735 Q 155542.25 50462 155641.7 50189 L 160487.45 50189 L 160487.45 48951.4 L 158197.5 48951.4 Q 158583.6 48482.1 158969.7 47953 L 157225.75 47526.6 Q 157091.85 47851.6 156885.15 48224.05 Q 156677.8 48596.5 156454.2 48951.4 L 153445.35 48951.4 L 153951.05 48764.85 Q 153795.05 48486 153558.45 48134.35 Q 153322.5 47782.7 153085.9 47473.95 L 151541.5 47939.35 Q 151694.25 48172.7 151859.35 48435.3 Q 152024.45 48698.55 152167.45 48951.4 L 149864.5 48951.4 L 149864.5 50189 L 153951.05 50189 Q 153854.85 50462 153738.5 50735 L 150516.45 50735 L 150516.45 51879.65 L 153205.5 51879.65 Q 153059.25 52159.8 152913 52439.3 L 149265.2 52439.3 L 149265.2 53676.9 L 152114.15 53676.9 Q 150732.9 55560.6 148773.15 56685.75 Q 149053.95 56913.9 149425.1 57269.45 Q 149796.25 57625 149997.75 57883.7 Q 151049.45 57188.2 151980.9 56232.7 L 151980.9 59987.1 L 153564.95 59987.1 L 153564.95 59601 L 158211.15 59601 L 158211.15 59973.45 L 159875.15 59973.45 L 159875.15 54156.6 L 153685.2 54156.6 Q 153763.85 54036.35 153837.95 53916.75 Q 153912.05 53797.15 153991.35 53676.9 L 161006.8 53676.9 Z M 170697.65 58429.7 L 170697.65 57803.75 L 173812.45 57803.75 L 173812.45 56911.95 L 170697.65 56911.95 L 170697.65 56486.2 L 172960.95 56486.2 L 172960.95 55687.35 L 170697.65 55687.35 L 170697.65 55274.6 L 173133.85 55274.6 L 173133.85 54422.45 L 170697.65 54422.45 L 170697.65 53823.8 L 169259.85 53823.8 L 169259.85 54422.45 L 166637.75 54422.45 L 166637.75 55274.6 L 169259.85 55274.6 L 169259.85 55687.35 L 166863.95 55687.35 L 166863.95 56486.2 L 169259.85 56486.2 L 169259.85 56911.95 L 166251.65 56911.95 L 166251.65 57803.75 L 169259.85 57803.75 L 169259.85 58429.7 L 170697.65 58429.7 Z M 171137.05 51573.5 Q 170594.3 51999.9 169912.45 52306.05 Q 169070.05 52009.65 168527.95 51573.5 L 171137.05 51573.5 Z M 172348.65 50575.1 L 172108.8 50615.4 L 169459.4 50615.4 Q 169603.7 50423.65 169747.35 50231.9 Q 169783.1 50183.8 169818.85 50136.35 L 168474.65 49869.85 Q 168074.9 50426.25 167368.35 50957.95 Q 166661.15 51489.65 165652.35 51906.3 Q 165872.05 52069.45 166111.9 52344.4 Q 166351.1 52619.35 166490.85 52851.4 Q 167113.55 52545.25 167636.15 52199.45 Q 168035.25 52535.5 168514.3 52811.75 Q 167043.35 53224.5 165413.15 53357.75 Q 165579.55 53570.3 165745.95 53875.15 Q 165912.35 54180 165998.8 54422.45 Q 168145.1 54156.6 169952.1 53491 Q 171712.95 54099.4 173932.7 54289.2 Q 174069.2 54007.1 174285 53680.15 Q 174501.45 53353.2 174717.9 53131.55 Q 172923.9 53051.6 171430.2 52731.8 Q 172541.7 52062.95 173213.8 51014.5 L 172348.65 50575.1 Z M 162683.8 50881.25 Q 163099.8 51429.2 163537.25 52044.75 Q 163975.35 52659.65 164241.2 53117.9 L 165599.05 52345.7 Q 165361.15 51981.7 164984.8 51499.4 Q 164607.8 51016.45 164227.55 50546.5 Q 164088.45 50374.25 163961.7 50215.65 L 162683.8 50881.25 Z M 165333.2 50375.55 L 166903.6 50375.55 L 166903.6 49576.7 L 169952.1 49576.7 L 169952.1 50335.9 L 171523.15 50335.9 L 171523.15 49576.7 L 174358.45 49576.7 L 174358.45 48285.8 L 171523.15 48285.8 L 171523.15 47566.9 L 169952.1 47566.9 L 169952.1 48285.8 L 166903.6 48285.8 L 166903.6 47566.9 L 165333.2 47566.9 L 165333.2 48285.8 L 162523.9 48285.8 L 162523.9 49576.7 L 165333.2 49576.7 L 165333.2 50375.55 Z M 165413.15 53929.75 L 162497.25 53929.75 L 162497.25 55260.95 L 163948.7 55260.95 L 163948.7 57630.85 Q 163066.65 58063.1 162164.45 58855.45 L 163162.85 60040.4 Q 163671.15 59428.1 164166.45 58973.75 Q 164661.75 58518.75 165040.05 58496 Q 165218.8 58500.55 165452.15 58620.15 Q 165685.5 58739.75 165968.9 58917.2 Q 166195.1 59056.95 166451.2 59201.25 Q 167171.4 59556.8 168061.9 59707.6 Q 168952.4 59857.75 170112 59853.85 Q 170919.3 59852.55 171926.8 59829.8 Q 172294.7 59821.35 172651.55 59810.3 Q 173629.8 59781.7 174251.85 59747.25 Q 174288.25 59450.2 174406.55 59058.25 Q 174525.5 58666.3 174651.6 58389.4 Q 173742.25 58492.1 172583.95 58549.3 Q 172421.45 58557.75 172259.6 58564.9 Q 171098.7 58615.6 170151.65 58615.6 Q 169074.6 58622.1 168211.4 58501.2 Q 167348.85 58379.65 166691.05 58056.6 Q 166344.6 57875.25 166087.2 57719.9 Q 165719.3 57490.45 165413.15 57378 L 165413.15 53929.75 Z M 7878.5 71346.15 L 7878.5 72171.65 L 7812.2 72118.35 L 7506.05 72198.3 L 4044.8 72198.3 L 4044.8 71346.15 L 7878.5 71346.15 Z M 9236.35 75752.5 L 9236.35 74421.3 L 6733.85 74647.5 L 6733.85 74421.3 Q 7269.45 74077.45 7786.85 73679 Q 8304.9 73280.55 8730.65 72876.9 L 8078.05 72331.55 L 9250 72331.55 L 9250 70068.25 L 6787.15 70068.25 L 6787.15 69189.45 L 9076.45 69189.45 L 9076.45 67884.9 L 6787.15 67884.9 L 6787.15 66859.85 L 5269.4 66859.85 L 5269.4 67884.9 L 2833.2 67884.9 L 2833.2 69189.45 L 5269.4 69189.45 L 5269.4 70068.25 L 2726.6 70068.25 L 2726.6 72331.55 L 3699 72331.55 L 3699 73382.6 L 6134.55 73382.6 Q 5682.15 73738.8 5229.75 73995.55 L 5229.75 74767.1 Q 4997.7 74786.6 4770.85 74805.45 Q 3549.5 74910.75 2620.65 74967.3 L 2753.25 76377.8 Q 3203.05 76336.2 3713.3 76284.2 Q 4432.2 76210.75 5229.75 76138.6 L 5229.75 77336.55 Q 5249.25 77549.75 4989.9 77523.1 Q 4835.2 77533.5 4440.65 77531.55 Q 4046.75 77528.95 3592.4 77509.45 Q 3758.15 77829.9 3907 78225.1 Q 4055.2 78620.3 4111.1 78960.9 Q 4759.15 78966.1 5254.45 78919.3 Q 5749.75 78871.85 6107.9 78707.4 Q 6479.05 78542.3 6611 78221.85 Q 6742.3 77901.4 6733.85 77376.2 L 6733.85 75992.35 L 9236.35 75752.5 Z M 12032 69735.45 Q 12065.15 68397.75 12058.65 66939.8 L 10581.2 66939.8 Q 10584.45 68417.25 10567.55 69735.45 L 9515.85 69735.45 L 9515.85 71199.9 L 10527.9 71199.9 Q 10468.1 73496.35 9957.2 75203.25 Q 9445.65 76910.8 8118.35 78028.8 Q 8400.45 78232.9 8707.25 78561.15 Q 9014.05 78890.05 9196.7 79173.45 Q 10707.95 77853.95 11305.95 75852.6 Q 11307.9 75845.45 11310.5 75838.95 Q 11905.9 73835 11992.35 71199.9 L 13070.05 71199.9 Q 13008.3 74087.2 12907.55 75503.55 Q 12889.35 75755.1 12869.85 75969.6 Q 12759.35 77171.45 12578 77376.2 Q 12411.6 77629.7 12124.95 77603.05 Q 11928.65 77604.35 11572.45 77597.85 Q 11216.9 77591.35 10780.75 77562.75 Q 10962.75 77885.15 11080.4 78281.65 Q 11197.4 78678.8 11220.15 79000.55 Q 11696.6 79023.3 12128.2 79020.7 Q 12560.45 79018.1 12857.5 78960.9 Q 13192.25 78917.35 13434.7 78774.35 Q 13677.15 78631.35 13882.55 78308.3 Q 14131.5 77992.4 14264.1 76845.15 Q 14334.95 76240.65 14385.65 75333.9 Q 14481.2 73600.35 14548.15 70427.7 Q 14557.25 70253.5 14559.85 70006.5 Q 14561.8 69760.15 14561.15 69735.45 L 12032 69735.45 Z M 17809.2 76418.1 L 17809.2 73809 L 19926.25 73809 L 19926.25 76418.1 L 17809.2 76418.1 Z M 19926.25 72437.5 L 17809.2 72437.5 L 17809.2 70281.45 L 19926.25 70281.45 L 19926.25 72437.5 Z M 24159.05 68803.35 Q 24458.7 67968.1 24678.4 67112.7 L 23160.65 66766.9 Q 22867.5 67951.85 22407.3 69075.05 Q 21946.45 70197.6 21363.4 71053 L 21363.4 68896.95 L 19300.3 68896.95 Q 19646.75 68014.9 19992.55 66993.1 L 18262.25 66753.25 Q 18219.35 67235.55 18114.05 67810.15 Q 18008.75 68384.75 17876.15 68896.95 L 16371.4 68896.95 L 16371.4 78787.35 L 17809.2 78787.35 L 17809.2 77815.6 L 21363.4 77815.6 L 21363.4 71599 Q 21643.55 71784.25 21930.85 71987.05 Q 22218.8 72189.2 22388.45 72344.55 Q 23024.15 71462.5 23560.4 70241.15 L 26408.7 70241.15 Q 26306.65 73663.4 26152.6 75337.15 Q 26146.1 75405.4 26139.6 75471.05 Q 25981.65 77083.05 25703.45 77363.2 Q 25578 77490.6 25445.4 77541.3 Q 25312.8 77591.35 25117.8 77589.4 Q 24846.75 77592 24315.7 77579.65 Q 23784.65 77567.3 23134 77509.45 Q 23347.85 77853.3 23488.9 78281.65 Q 23629.95 78710 23653.35 79053.85 Q 24252 79075.95 24803.2 79075.3 Q 25354.4 79075.3 25743.1 79027.2 Q 26137.65 78966.75 26442.5 78810.75 Q 26746.7 78655.4 27021 78295.3 Q 27326.5 77926.1 27494.2 76745.7 Q 27601.45 75988.45 27677.5 74779.45 Q 27793.85 72882.1 27886.8 69522.25 Q 27895.9 69355.2 27898.5 69093.25 Q 27900.45 68831.3 27899.8 68803.35 L 24159.05 68803.35 Z M 25689.8 74873.7 Q 25359.6 74268.55 24806.45 73450.85 Q 24253.95 72633.8 23733.3 71918.8 L 22495.05 72624.05 Q 23004 73379.35 23525.3 74226.3 Q 24046.6 75073.9 24345.6 75699.2 L 25689.8 74873.7 Z M 36180.15 77256.6 L 36180.15 74581.2 L 40160.1 74581.2 L 40160.1 73049.8 L 36180.15 73049.8 L 36180.15 70707.2 L 40665.8 70707.2 L 40665.8 69162.8 L 36180.15 69162.8 L 36180.15 66766.9 L 34516.15 66766.9 L 34516.15 69162.8 L 32466.05 69162.8 Q 32808.6 68244.35 33091.35 67286.25 L 31454 66926.8 Q 31107.55 68307.4 30495.9 69569.05 Q 29884.25 70830.05 29097.75 71692.6 Q 29418.85 71867.45 29840.05 72150.2 Q 30261.25 72432.3 30522.55 72637.7 Q 31181 71832.35 31760.15 70707.2 L 34516.15 70707.2 L 34516.15 73049.8 L 30908.65 73049.8 L 30908.65 74581.2 L 34516.15 74581.2 L 34516.15 77256.6 L 29377.25 77256.6 L 29377.25 78814 L 41345.05 78814 L 41345.05 77256.6 L 36180.15 77256.6 Z M 46430 73755.7 L 46430 75792.15 L 44939.55 75792.15 L 44939.55 73755.7 L 46430 73755.7 Z M 47908.1 72384.2 L 43501.75 72384.2 L 43501.75 78242 L 44939.55 78242 L 44939.55 77176.65 L 47908.1 77176.65 L 47908.1 72384.2 Z M 53845.2 72397.85 L 48933.15 72397.85 L 48933.15 79213.75 L 50490.55 79213.75 L 50490.55 73795.35 L 52327.45 73795.35 L 52327.45 76005.35 Q 52344.35 76215.3 52101.25 76204.9 Q 51967.35 76205.55 51626.75 76203.6 Q 51286.15 76201 50903.3 76191.9 Q 51029.4 76511.7 51147.7 76899.1 Q 51266 77286.5 51302.4 77616.05 Q 51949.8 77623.85 52435.35 77586.15 Q 52920.9 77548.45 53259.55 77376.2 Q 53610.55 77201.35 53732.1 76878.95 Q 53853 76556.55 53845.2 76032 L 53845.2 72397.85 Z M 46709.5 70201.5 Q 47804.75 69535.9 48719.95 68750.05 Q 49492.15 69545.65 50463.9 70201.5 L 46709.5 70201.5 Z M 48719.95 66540.7 Q 47857.4 67639.85 46406.6 68556.35 Q 45975.65 68828.7 45512.85 69073.75 Q 43954.8 69897.3 42277.15 70294.45 Q 42551.45 70625.95 42795.85 71045.2 Q 43040.9 71463.8 43195.6 71825.2 Q 44486.5 71405.95 45737.75 70746.85 L 45737.75 71612.65 L 51435.65 71612.65 L 51435.65 70787.15 Q 52586.8 71402.7 53858.2 71758.9 Q 54057.75 71392.95 54369.1 70966.55 Q 54680.45 70540.8 54989.85 70254.8 Q 53409.7 69925.25 52024.55 69274.6 Q 50639.4 68623.3 49718.35 67765.3 Q 49861.35 67605.4 49984.2 67445.5 L 48719.95 66540.7 Z M 62085.25 69522.25 L 62085.25 66779.9 L 60394.6 66779.9 L 60394.6 69522.25 L 56321.05 69522.25 L 56321.05 71146.6 L 60327.65 71146.6 Q 60220.4 72556.45 59632.15 74018.3 Q 59319.5 74762.55 58813.8 75473 Q 57850.5 76870.5 55908.3 77962.5 Q 56215.1 78197.8 56577.15 78567.65 Q 56939.2 78938.15 57146.55 79253.4 Q 59205.1 78052.85 60260.7 76511.7 Q 60999.1 75455.45 61389.1 74336.15 Q 61939.65 72703.35 62031.95 71146.6 L 65759.05 71146.6 Q 65601.75 74084.6 65389.85 75529.55 Q 65177.95 76974.5 64880.9 77256.6 Q 64745.7 77383.35 64602.7 77428.2 Q 64460.35 77472.4 64254.95 77469.8 Q 63983.25 77471.75 63454.8 77461.35 Q 62925.7 77450.95 62284.8 77402.85 Q 62517.5 77757.75 62662.45 78212.1 Q 62807.4 78665.8 62830.8 79040.2 Q 63450.25 79071.4 64015.1 79066.85 Q 64580.6 79062.95 64960.2 79014.2 Q 65383.35 78963.5 65704.45 78806.2 Q 66024.9 78648.25 66318.05 78268.65 Q 66669.7 77880.6 66894.6 76648.2 Q 67001.2 76063.2 67090.9 75233.15 Q 67280.05 73472.3 67436.7 70281.45 Q 67456.2 70094.25 67466.6 69821.9 Q 67476.35 69550.2 67476.35 69522.25 L 62085.25 69522.25 Z M 77566.95 74554.55 L 69300.25 74554.55 L 69300.25 76071.65 L 77566.95 76071.65 L 77566.95 74554.55 Z M 72708.2 71692.6 Q 72887.6 70826.8 73067.65 69881.7 L 80402.25 69881.7 L 80402.25 68364.6 L 73347.15 68364.6 Q 73445.3 67831.6 73526.55 67326.55 Q 73543.45 67225.8 73560.35 67126.35 L 71936 66966.45 Q 71737.1 68314.55 71451.75 69801.75 Q 71374.4 70206.7 71293.8 70603.2 Q 70998.05 72058.55 70711.4 73143.4 L 72082.25 73156.4 L 78991.1 73156.4 Q 78813 75046.6 78567.3 76070.35 Q 78320.95 77094.1 77992.7 77336.55 Q 77845.8 77442.5 77673.55 77471.1 Q 77501.3 77500.35 77273.8 77496.45 Q 76914.35 77499.05 76207.8 77484.75 Q 75500.6 77469.8 74691.35 77402.85 Q 74945.5 77755.8 75112.55 78190 Q 75279.6 78624.85 75303.65 78987.55 Q 76045.3 79018.1 76701.8 79023.95 Q 77358.3 79029.8 77780.15 79000.55 Q 78300.8 78959.6 78671.95 78824.4 Q 79043.1 78688.55 79364.2 78348.6 Q 79814 77933.25 80109.1 76666.4 Q 80138.35 76542.25 80166.3 76407.7 Q 80451.65 75038.8 80681.75 72384.2 Q 80712.3 72201.55 80730.5 71958.45 Q 80748.05 71715.35 80748.7 71692.6 L 72708.2 71692.6 Z M 89428.15 77256.6 L 89428.15 74581.2 L 93408.1 74581.2 L 93408.1 73049.8 L 89428.15 73049.8 L 89428.15 70707.2 L 93913.8 70707.2 L 93913.8 69162.8 L 89428.15 69162.8 L 89428.15 66766.9 L 87764.15 66766.9 L 87764.15 69162.8 L 85714.05 69162.8 Q 86056.6 68244.35 86339.35 67286.25 L 84702 66926.8 Q 84355.55 68307.4 83743.9 69569.05 Q 83132.25 70830.05 82345.75 71692.6 Q 82666.85 71867.45 83088.05 72150.2 Q 83509.25 72432.3 83770.55 72637.7 Q 84429 71832.35 85008.15 70707.2 L 87764.15 70707.2 L 87764.15 73049.8 L 84156.65 73049.8 L 84156.65 74581.2 L 87764.15 74581.2 L 87764.15 77256.6 L 82625.25 77256.6 L 82625.25 78814 L 94593.05 78814 L 94593.05 77256.6 L 89428.15 77256.6 Z M 99731.3 68258 Q 99271.75 67965.5 98560 67593.05 Q 98558.05 67592.4 98556.1 67591.1 Q 97845 67219.3 97255.45 66926.8 L 96363.65 68071.45 Q 96508.6 68154 96667.2 68243.7 Q 97243.1 68566.75 97833.95 68915.8 Q 98424.8 69264.85 98786.2 69535.9 L 99731.3 68258 Z M 99092.35 71851.85 Q 98671.8 71599 98030.25 71274.65 Q 97388.7 70950.3 96816.05 70671.45 Q 96697.1 70613.6 96589.85 70560.95 L 95737.7 71732.25 Q 96357.15 72065.7 97065.65 72466.1 Q 97774.8 72866.5 98214.2 73170.05 L 99092.35 71851.85 Z M 97255.45 79040.2 Q 97869.7 78061.3 98473.55 76977.1 Q 99077.4 75892.9 99611.7 74834.05 L 98453.4 73768.7 Q 97837.2 74951.05 97154.05 76070.35 Q 96470.25 77189.65 95924.25 77962.5 L 97255.45 79040.2 Z M 105894.6 77203.3 L 101901 77203.3 L 101901 75246.8 L 105894.6 75246.8 L 105894.6 77203.3 Z M 108064.95 72131.35 L 108064.95 70614.25 L 104683.65 70614.25 L 104683.65 68790.35 Q 106267.7 68487.45 107572.25 68005.15 L 106360.65 66753.25 Q 105288.8 67170.55 103723.6 67478.65 Q 103546.15 67514.4 103365.45 67548.2 Q 101769.05 67842.65 100131.05 68005.15 Q 100276 68289.2 100408.6 68674 Q 100541.2 69058.15 100596.45 69363 Q 101858.1 69249.25 103179.55 69056.2 L 103179.55 70614.25 L 99638.35 70614.25 L 99638.35 72131.35 L 103179.55 72131.35 L 103179.55 73809 L 100463.85 73809 L 100463.85 79187.1 L 101901 79187.1 L 101901 78641.1 L 105894.6 78641.1 L 105894.6 79120.15 L 107399.35 79120.15 L 107399.35 73809 L 104683.65 73809 L 104683.65 72131.35 L 108064.95 72131.35 Z M 109955.15 73236.35 Q 110168.35 72435.55 110309.4 71409.2 Q 110450.45 70383.5 110474.5 69522.25 L 109355.85 69376 Q 109304.5 70215.8 109162.8 71177.8 Q 109021.75 72140.45 108810.5 72850.25 L 109955.15 73236.35 Z M 115013.45 76111.95 L 115013.45 75499.65 L 118994.05 75499.65 L 118994.05 76111.95 L 115013.45 76111.95 Z M 118994.05 73755.7 L 118994.05 74381 L 115013.45 74381 L 115013.45 73755.7 L 118994.05 73755.7 Z M 120485.15 72597.4 L 113549 72597.4 L 113549 79200.1 L 115013.45 79200.1 L 115013.45 77203.3 L 118994.05 77203.3 L 118994.05 77642.7 Q 119007.05 77868.9 118741.2 77855.9 Q 118700.9 77855.9 118631.35 77856.55 Q 118431.8 77859.15 118092.5 77856.55 Q 117753.2 77853.3 117396.35 77829.25 Q 117540.65 78130.2 117659.6 78501.35 Q 117778.55 78872.5 117822.75 79173.45 Q 118509.8 79180.6 119017.45 79145.5 Q 119524.45 79109.75 119872.2 78947.25 Q 120225.15 78792.55 120358.4 78488.35 Q 120491.65 78183.5 120485.15 77669.35 L 120485.15 72597.4 Z M 117755.8 70960.05 L 117755.8 70387.4 L 120617.75 70387.4 L 120617.75 69322.7 L 117755.8 69322.7 L 117755.8 68790.35 L 120977.2 68790.35 L 120977.2 67658.7 L 117755.8 67658.7 L 117755.8 66753.25 L 116185.4 66753.25 L 116185.4 67658.7 L 113069.95 67658.7 L 113069.95 68790.35 L 116185.4 68790.35 L 116185.4 69322.7 L 113429.4 69322.7 L 113429.4 70374.4 Q 113304.6 69991.55 113101.8 69498.85 Q 112899 69006.8 112683.85 68564.15 L 111925.3 68883.3 L 111925.3 66753.25 L 110501.15 66753.25 L 110501.15 79173.45 L 111925.3 79173.45 L 111925.3 69495.6 Q 112087.15 69892.1 112216.5 70278.2 Q 112345.85 70663.65 112418 70960.05 L 113456.05 70454.35 L 113429.4 70387.4 L 116185.4 70387.4 L 116185.4 70960.05 L 112657.2 70960.05 L 112657.2 72091.7 L 121376.95 72091.7 L 121376.95 70960.05 L 117755.8 70960.05 Z M 131067.8 70481 L 131067.8 68564.15 L 131373.95 68564.15 L 131373.95 69482.6 L 133144.55 69482.6 Q 133024.95 70534.3 132825.4 71506.05 Q 132465.95 70796.9 132106.5 70148.2 L 131067.8 70481 Z M 128991.05 74540.9 L 128991.05 73183.05 L 129830.2 73183.05 L 129830.2 74248.4 L 128991.05 74540.9 Z M 129830.2 69642.5 L 128991.05 69642.5 L 128991.05 68564.15 L 129830.2 68564.15 L 129830.2 69642.5 Z M 129830.2 71985.1 L 128991.05 71985.1 L 128991.05 70840.45 L 129830.2 70840.45 L 129830.2 71985.1 Z M 127766.45 74953.65 Q 127340.7 75096.65 126994.25 75179.85 L 127314.05 76484.4 Q 128472.35 76055.4 129830.2 75526.3 L 129830.2 77043.4 L 131067.8 77043.4 L 131067.8 75046.6 L 131733.4 74793.75 L 131494.2 73675.75 L 131067.8 73822 L 131067.8 70640.9 Q 131398.65 71274 131721.7 71970.15 Q 132045.4 72666.3 132345.7 73369.6 Q 131853 74956.9 131121.1 75965.7 Q 131353.8 76141.85 131637.2 76457.75 Q 131919.95 76774.3 132092.85 77030.4 Q 132638.85 76271.85 133064.6 75193.5 Q 133347.35 75961.8 133491 76551.35 L 134728.6 76098.3 Q 134566.75 75524.35 134299.6 74822.35 Q 134032.45 74120.35 133690.55 73356.6 Q 134276.2 71170 134542.05 68443.9 L 133717.2 68191.05 L 133491 68231.35 L 131546.85 68231.35 L 131546.85 67232.95 L 127234.1 67232.95 L 127234.1 68564.15 L 127766.45 68564.15 L 127766.45 74953.65 Z M 126155.75 74674.15 L 127394 74674.15 L 127394 73303.3 L 126155.75 73303.3 L 126155.75 71958.45 L 127407 71958.45 L 127407 70560.95 L 125809.95 70560.95 L 125809.95 69482.6 L 127167.8 69482.6 L 127167.8 68111.1 L 125809.95 68111.1 L 125809.95 66753.25 L 124398.8 66753.25 L 124398.8 68111.1 L 122761.45 68111.1 L 122761.45 69482.6 L 124398.8 69482.6 L 124398.8 70560.95 L 122455.3 70560.95 L 122455.3 71958.45 L 124784.9 71958.45 L 124784.9 75645.9 Q 124448.2 75126.55 124212.25 74368 Q 124232.4 73636.1 124212.25 72903.55 L 122907.7 72823.6 Q 122968.15 74206.8 122816.05 75637.45 Q 122664.6 77068.1 122055.55 78242 Q 122292.15 78367.45 122596.35 78658 Q 122900.55 78947.9 123067.6 79213.75 Q 123713.05 78102.25 123959.4 76790.55 Q 124775.8 78028.15 126074.5 78450 Q 127372.55 78871.2 129297.2 78840.65 L 134196.25 78840.65 Q 134282.05 78463 134451.05 78017.1 Q 134619.4 77571.85 134795.55 77283.25 Q 134233.95 77307.3 133242.05 77315.75 Q 132443.2 77322.9 131602.1 77324.2 Q 130559.5 77325.5 129821.1 77323.55 Q 129507.8 77323.55 129310.85 77323.55 Q 128342.35 77329.4 127553.25 77229.95 Q 126764.8 77131.15 126155.75 76857.5 L 126155.75 74674.15 Z M 137737.45 74727.45 Q 136835.25 74750.85 136226.85 75360.55 L 136225.55 75361.85 Q 135617.8 75972.2 135593.75 76884.15 Q 135617.8 77795.45 136225.55 78405.8 L 136226.85 78407.1 Q 136835.25 79016.8 137737.45 79040.2 Q 138658.5 79016.8 139264.95 78406.45 Q 139871.4 77796.1 139893.5 76884.15 Q 139871.4 75971.55 139264.95 75361.2 Q 138658.5 74750.85 137737.45 74727.45  Z M 137737.45 78082.1 Q 137244.1 78069.75 136905.45 77732.4 Q 136566.8 77395.7 136552.5 76884.15 Q 136566.8 76372.6 136905.45 76035.25 Q 137244.1 75698.55 137737.45 75686.2 Q 138249 75698.55 138585.7 76035.25 Q 138923.05 76372.6 138935.4 76884.15 Q 138923.05 77395.7 138585.7 77732.4 Q 138249 78069.75 137737.45 78082.1  Z " fill-rule="nonzero" style="fill:#555555;;fill-opacity:1;"/>
</svg>