<svg version="1.1" x="0" y="0" width="100%" height="100%" viewBox="0 0 163788.8 42547.2" xmlns="http://www.w3.org/2000/svg">
  <path d="M 14893.65 30919.35 Q 14826 30954 14723.7 30954 Q 14588.4 30954 14520.75 30886.35 Q 14453.1 30818.7 14453.1 30751.05 Q 14453.1 30581.1 14656.05 30445.8 Q 18102.9 27066.6 20502 22471.35 Q 22902.75 17876.1 23544.6 13719.75 Q 23645.25 13110.9 23645.25 12469.05 Q 23645.25 11860.2 23544.6 11421.3 Q 23409.3 10847.1 23948.85 10847.1 Q 24254.1 10847.1 24592.35 10947.75 Q 25537.8 11286 26653.2 11911.35 Q 27768.6 12536.7 28375.8 13145.55 Q 28511.1 13246.2 28662.9 13567.95 Q 28814.7 13888.05 28814.7 14293.95 Q 28814.7 14800.5 28478.1 15374.7 Q 28139.85 15983.55 27801.6 16524.75 Q 27463.35 17064.3 27328.05 17267.25 L 26382.6 19059.15 Q 24996.6 21864.15 24118.8 23215.5 Q 24490.05 23316.15 24760.65 23418.45 Q 25098.9 23619.75 25098.9 24025.65 Q 25098.9 24228.6 25064.25 24363.9 Q 25031.25 24532.2 24963.6 25952.85 Q 24928.95 26594.7 24928.95 28419.6 Q 24928.95 30615.75 24963.6 31798.8 L 24996.6 35313.3 Q 24996.6 37441.8 24895.95 38557.2 Q 24828.3 39637.95 24438.9 40246.8 Q 24051.15 40854 23409.3 40854 Q 23138.7 40854 22835.1 40753.35 Q 22361.55 40550.4 21820.35 39873.9 Q 21279.15 39199.05 20959.05 38370.75 Q 20637.3 37542.45 20739.6 36900.6 Q 21246.15 33285.45 21246.15 28182 L 21246.15 26865.3 Q 18475.8 29703.3 14893.65 30919.35  Z M 25367.85 23519.1 Q 25166.55 23147.85 25537.8 22860.75 Q 25909.05 22573.65 26415.6 22573.65 Q 27768.6 22573.65 31451.4 22032.45 Q 31080.15 21694.2 30859.05 21271.8 Q 30639.6 20849.4 30639.6 20443.5 Q 30639.6 20207.55 30606.6 20106.9 Q 30436.65 20106.9 30167.7 20174.55 Q 29052.3 20375.85 27531 17773.8 Q 27328.05 17402.55 27717.45 17150.1 Q 28105.2 16896 28646.4 16896 Q 29423.55 16896 30336 16760.7 Q 30032.4 14125.65 29761.8 13280.85 Q 29558.85 12772.65 29558.85 12368.4 Q 29558.85 12063.15 29710.65 11927.85 Q 29862.45 11792.55 30303 11792.55 Q 31080.15 11792.55 32160.9 12165.45 Q 33241.65 12536.7 33815.85 13010.25 Q 34188.75 13313.85 34188.75 13888.05 Q 34188.75 14125.65 34154.1 14345.1 Q 34121.1 14564.55 34121.1 14699.85 Q 34053.45 15577.65 34053.45 16219.5 L 35946 15882.9 Q 36114.3 12907.95 36081.3 11860.2 Q 36081.3 11691.9 36013.65 11404.8 Q 35946 11117.7 35946 10914.75 Q 35946 10611.15 36165.45 10457.7 Q 36384.9 10305.9 36926.1 10305.9 Q 38074.5 10305.9 39274.05 11015.4 Q 40473.6 11724.9 40676.55 12436.05 Q 40744.2 12637.35 40744.2 12772.65 Q 40744.2 13077.9 40473.6 13752.75 Q 40440.6 13888.05 40338.3 14158.65 Q 40237.65 14429.25 40203 14597.55 L 40102.35 15104.1 L 40541.25 15003.45 Q 40777.2 14970.45 41150.1 14970.45 Q 41927.25 14970.45 42366.15 15341.7 Q 43210.95 15915.9 43549.2 17437.2 Q 43649.85 17808.45 43446.9 18146.7 Q 43245.6 18484.95 42669.75 18484.95 Q 41014.8 18484.95 39222.9 18686.25 Q 39019.95 19531.05 38648.7 20984.7 Q 41724.3 20511.15 43514.55 20207.55 Q 44055.75 20139.9 44191.05 20139.9 Q 44900.55 20139.9 45407.1 20511.15 Q 46793.1 22167.75 46793.1 23248.5 Q 46793.1 23619.75 46606.65 23822.7 Q 46421.85 24025.65 45913.65 24025.65 Q 45136.5 24025.65 44732.25 23992.65 L 43379.25 23958 Q 42975 23958 41622 24025.65 Q 38242.8 24330.9 33867 25022.25 Q 29491.2 25715.25 27969.9 26053.5 Q 27362.7 26154.15 26686.2 25479.3 Q 26011.35 24802.8 25367.85 23519.1  Z M 28545.75 27946.05 Q 28240.5 27168.9 28240.5 27033.6 Q 28240.5 26763 28511.1 26695.35 Q 28781.7 26627.7 29591.85 26627.7 Q 30606.6 26627.7 31519.05 26931.3 Q 36384.9 26391.75 37262.7 26154.15 Q 37600.95 26088.15 38310.45 25682.25 Q 39019.95 25344 39374.7 25208.7 Q 39731.1 25073.4 39967.05 25175.7 Q 41285.4 25749.9 42636.75 27776.1 Q 42772.05 27946.05 42704.4 28165.5 Q 42636.75 28384.95 42484.95 28723.2 Q 42333.15 29061.45 42230.85 29297.4 Q 42095.55 29838.6 42095.55 31628.85 Q 42095.55 32980.2 42163.2 35481.6 L 42230.85 38049 Q 42230.85 38928.45 42079.05 39350.85 Q 41927.25 39773.25 41217.75 40415.1 Q 40643.55 40989.3 40221.15 41259.9 Q 39798.75 41530.5 39189.9 41530.5 Q 38648.7 41530.5 38293.95 41108.1 Q 37939.2 40685.7 37803.9 40144.5 Q 37432.65 38826.15 37229.7 38387.25 Q 35404.8 38454.9 33073.35 38692.5 L 33073.35 39063.75 Q 33038.7 40076.85 32448 40718.7 Q 31857.3 41360.55 31180.8 41563.5 Q 30606.6 41665.8 30149.55 41208.75 Q 29694.15 40753.35 29372.4 40263.3 Q 29052.3 39773.25 28984.65 39637.95 Q 28781.7 39164.4 28781.7 38387.25 L 28814.7 37509.45 Q 29017.65 34669.8 29017.65 31528.2 Q 29017.65 30445.8 28950 29635.65 Q 28917 28419.6 28545.75 27946.05  Z M 35101.2 35785.2 Q 36587.85 35582.25 36993.75 35582.25 Q 37533.3 35582.25 37838.55 35717.55 L 38175.15 36022.8 Q 38142.15 35075.7 38142.15 33285.45 Q 37972.2 33556.05 37229.7 33656.7 Q 36891.45 33724.35 36368.4 33775.5 Q 35843.7 33825 35574.75 33859.65 Q 34898.25 33892.65 33951.15 34027.95 L 33614.55 34062.6 Q 33444.6 34062.6 33174 33994.95 L 33141 35955.15 L 35101.2 35785.2 Z M 33174 31358.25 Q 34053.45 31257.6 34965.9 31122.3 Q 35168.85 31089.3 35388.3 31054.65 Q 35607.75 31021.65 35878.35 31021.65 Q 36485.55 31021.65 36891.45 31392.9 Q 37871.55 32170.05 38074.5 32744.25 L 38142.15 32846.55 L 38074.5 29803.95 Q 38074.5 29432.7 37888.05 29229.75 Q 37703.25 29026.8 37330.35 29129.1 L 33141 29568 L 33141 29838.6 L 33174 31358.25 Z M 35472.45 21491.25 L 35675.4 19159.8 L 34053.45 19430.4 L 34053.45 19531.05 Q 34086.45 19971.6 34002.3 20596.95 Q 33918.15 21220.65 33749.85 21728.85 L 35472.45 21491.25 Z M 73047.9 41226.9 Q 72676.65 41294.55 72373.05 41124.6 Q 72067.8 40956.3 71729.55 40415.1 Q 70851.75 38996.1 69668.7 37644.75 L 68891.55 36732.3 Q 68620.95 36394.05 68620.95 36225.75 Q 68620.95 35989.8 68891.55 36055.8 Q 70039.95 36258.75 69939.3 36225.75 Q 71020.05 36394.05 71932.5 36394.05 Q 72338.4 36394.05 72490.2 36225.75 Q 72642 36055.8 72777.3 35516.25 Q 73724.4 32034.75 74247.45 28690.2 Q 74772.15 25344 74772.15 22809.6 Q 74772.15 22167.75 74704.5 21154.65 Q 74669.85 20816.4 74485.05 20664.6 Q 74298.6 20512.8 73757.4 20580.45 L 71425.95 20918.7 Q 72473.7 21120 73353.15 21628.2 Q 74230.95 22134.75 74466.9 22506 Q 74534.55 22608.3 74534.55 22776.6 Q 74534.55 22911.9 74349.75 23317.8 Q 74163.3 23722.05 74095.65 24027.3 Q 73014.9 28893.15 70970.55 32237.7 Q 68926.2 35583.9 66560.1 37392.3 Q 64194 39199.05 61829.55 39943.2 L 61761.9 39943.2 Q 61591.95 39943.2 61474.8 39791.4 Q 61356 39637.95 61491.3 39504.3 Q 63687.45 37712.4 65715.3 34687.95 Q 67743.15 31663.5 69043.35 28436.1 Q 70345.2 25208.7 70480.5 22877.25 Q 70513.5 22540.65 70497 22218.9 Q 70480.5 21897.15 70480.5 21763.5 Q 70480.5 21357.6 70548.15 21087 Q 68723.25 21390.6 67675.5 21661.2 Q 67269.6 21796.5 66830.7 21796.5 Q 66256.5 21796.5 65815.95 21492.9 Q 64667.55 22877.25 63349.2 23892 Q 62775 24330.9 62235.45 24330.9 Q 61930.2 24330.9 61745.4 24195.6 Q 61558.95 24060.3 61558.95 23857.35 Q 61558.95 23689.05 61694.25 23519.1 Q 62268.45 22809.6 62944.95 21661.2 L 62842.65 21661.2 Q 61964.85 21763.5 60309.9 22270.05 L 60342.9 26020.5 L 61390.65 25614.6 Q 61796.55 25479.3 62286.6 25276.35 Q 62776.65 25075.05 63350.85 24872.1 Q 63822.75 24736.8 63958.05 24736.8 Q 64128 24736.8 64128 24837.45 Q 64128 24972.75 63654.45 25344 Q 62336.1 26324.1 60377.55 27878.4 Q 60410.55 29805.6 60410.55 33320.1 Q 60410.55 36326.4 60342.9 37273.5 Q 60174.6 41395.2 58856.25 41395.2 Q 58620.3 41395.2 58282.05 41226.9 Q 57402.6 40652.7 56795.4 39656.1 Q 56186.55 38657.85 56287.2 37408.8 Q 56524.8 34704.45 56592.45 30818.7 L 53686.8 32981.85 Q 53010.3 33488.4 52436.1 33488.4 Q 51929.55 33488.4 51556.65 33117.15 Q 50711.85 32407.65 49598.1 30176.85 Q 49462.8 29838.6 49462.8 29602.65 Q 49462.8 29028.45 50510.55 28993.8 Q 52739.7 28858.5 56592.45 27474.15 L 56592.45 23519.1 L 55577.7 23789.7 Q 54902.85 23959.65 54597.6 23959.65 Q 54193.35 23959.65 54023.4 23857.35 Q 53955.75 23824.35 53584.5 23621.4 Q 51388.35 27810.75 48144.45 28723.2 L 48109.8 28723.2 Q 48042.15 28723.2 48025.65 28622.55 Q 48009.15 28521.9 48076.8 28454.25 Q 49428.15 26494.05 50340.6 23637.9 Q 51253.05 20783.4 51253.05 17775.45 L 51218.4 16863 Q 51185.4 16592.4 51185.4 16085.85 Q 51185.4 15544.65 51337.2 15392.85 Q 51489 15241.05 51927.9 15241.05 Q 52672.05 15241.05 53736.3 15612.3 Q 54800.55 15983.55 55341.75 16424.1 Q 55983.6 16828.35 55983.6 17404.2 Q 55983.6 17605.5 55882.95 17876.1 Q 55848.3 18011.4 55612.35 18333.15 Q 55374.75 18653.25 55239.45 19229.1 Q 55171.8 19498.05 54767.55 20783.4 Q 55003.5 20748.75 55544.7 20613.45 Q 56051.25 20512.8 56524.8 20309.85 L 56389.5 14902.8 Q 56287.2 12639 55882.95 11523.6 Q 55848.3 11422.95 55848.3 11220 Q 55848.3 10746.45 56321.85 10781.1 Q 57673.2 10847.1 58720.95 11117.7 Q 59768.7 11388.3 60207.6 11794.2 Q 60578.85 12097.8 60578.85 12739.65 Q 60578.85 12841.95 60511.2 13315.5 L 60410.55 15206.4 Q 60342.9 16559.4 60342.9 17572.5 L 60309.9 18788.55 L 60681.15 18653.25 Q 61153.05 18417.3 61593.6 18417.3 Q 62065.5 18417.3 62336.1 18653.25 Q 62674.35 18856.2 63045.6 19262.1 Q 63416.85 19668 63654.45 20106.9 Q 64464.6 18214.35 64854 16170 Q 65241.75 14125.65 65241.75 12300.75 Q 65241.75 11929.5 65208.75 11574.75 Q 65174.1 11220 65174.1 10914.75 Q 65174.1 10239.9 65883.6 10239.9 Q 66459.45 10239.9 67843.8 10814.1 Q 69229.8 11388.3 70006.95 11962.5 Q 70445.85 12200.1 70445.85 12807.3 Q 70445.85 13145.55 70242.9 13551.45 L 69771 14699.85 L 69094.5 16221.15 Q 68418 17707.8 67810.8 18687.9 Q 70345.2 18316.65 73792.05 17504.85 Q 74028 17471.85 74501.55 17285.4 Q 74975.1 17098.95 75346.35 17098.95 Q 75481.65 17098.95 75752.25 17166.6 Q 76664.7 17539.5 77846.1 18163.2 Q 79029.15 18788.55 79367.4 19296.75 Q 79535.7 19532.7 79535.7 20006.25 Q 79535.7 20445.15 79266.75 21525.9 Q 79232.1 21728.85 79164.45 21999.45 Q 79096.8 22270.05 79063.8 22608.3 Q 78826.2 25581.6 78454.95 28993.8 Q 78049.05 32508.3 77356.05 35262.15 Q 76664.7 38016 75819.9 39266.7 Q 75211.05 40146.15 74620.35 40568.55 Q 74028 40990.95 73047.9 41226.9  Z M 60917.1 33589.05 Q 63080.25 31021.65 64735.2 27810.75 Q 66391.8 24601.5 66728.4 22809.6 Q 66830.7 22270.05 66966 22050.6 Q 67101.3 21829.5 67304.25 21829.5 Q 67505.55 21829.5 67979.1 22067.1 Q 69330.45 22911.9 69703.35 23418.45 Q 69804 23553.75 69804 23756.7 Q 69804 24060.3 69500.4 24905.1 Q 68620.95 27507.15 66931.35 29535 Q 65241.75 31562.85 63535.65 32727.75 Q 61829.55 33894.3 61120.05 33994.95 L 60984.75 33994.95 Q 60781.8 33994.95 60781.8 33859.65 Q 60781.8 33792 60917.1 33589.05  Z M 85180.35 31054.65 Q 83964.3 30074.55 83017.2 28688.55 Q 82814.25 28417.95 82814.25 28249.65 Q 82814.25 28081.35 83051.85 27927.9 Q 83287.8 27776.1 83862 27607.8 Q 86566.35 26830.65 89945.55 25174.05 Q 89978.55 24499.2 89978.55 23213.85 Q 89978.55 21930.15 89945.55 21288.3 Q 88897.8 21591.9 87917.7 21997.8 Q 87208.2 22235.4 86734.65 22235.4 Q 86464.05 22235.4 86193.45 22133.1 Q 85653.9 21964.8 85028.55 21524.25 Q 84403.2 21085.35 83964.3 20478.15 Q 83794.35 20207.55 83794.35 19969.95 Q 83794.35 19463.4 84234.9 19430.4 Q 86566.35 18989.85 89910.9 18044.4 L 89810.25 14326.95 Q 89775.6 13076.25 89269.05 11657.25 Q 89236.05 11521.95 89084.25 11134.2 Q 88930.8 10744.8 88930.8 10508.85 Q 88930.8 10137.6 89472 10137.6 Q 90519.75 10137.6 91635.15 10373.55 Q 92750.55 10609.5 93527.7 10914.75 Q 93966.6 11150.7 93966.6 11624.25 Q 93966.6 11792.55 93931.95 11979 Q 93898.95 12163.8 93898.95 12366.75 Q 93796.65 13921.05 93663 16861.35 L 93831.3 16793.7 Q 94372.5 16557.75 94743.75 16557.75 Q 95047.35 16557.75 95317.95 16726.05 Q 95824.5 17064.3 96349.2 17605.5 Q 96872.25 18145.05 97042.2 18653.25 Q 97175.85 18989.85 96956.4 19125.15 Q 96736.95 19260.45 96095.1 19463.4 Q 95149.65 19701 94608.45 19936.95 Q 94304.85 20072.25 93560.7 20275.2 L 93493.05 23281.5 Q 94575.45 22674.3 96062.1 21761.85 Q 96197.4 21694.2 96298.05 21694.2 Q 96501 21694.2 96636.3 21794.85 Q 96771.6 21897.15 96771.6 22065.45 Q 96771.6 22200.75 96601.65 22436.7 Q 95082 24160.95 93493.05 25647.6 Q 93493.05 29601 93595.35 34062.6 L 93628.35 35244 Q 93663 35582.25 93663 36191.1 Q 93663 37507.8 93121.8 38420.25 Q 92715.9 39131.4 92209.35 39637.95 Q 91702.8 40144.5 91329.9 40312.8 Q 90722.7 40515.75 90417.45 40515.75 Q 89910.9 40515.75 89674.95 40177.5 Q 87883.05 37813.05 85789.2 35649.9 Q 85619.25 35481.6 85619.25 35379.3 Q 85619.25 35143.35 86092.8 35211 Q 87376.5 35481.6 88661.85 35413.95 Q 89066.1 35379.3 89303.7 35008.05 Q 89539.65 34636.8 89607.3 34196.25 Q 89810.25 32506.65 89910.9 28756.2 L 87411.15 30784.05 Q 86769.3 31325.25 86059.8 31325.25 Q 85551.6 31325.25 85180.35 31054.65  Z M 96062.1 24464.55 Q 95994.45 24261.6 95994.45 24160.95 Q 95994.45 23822.7 96398.7 23822.7 Q 99000.75 23822.7 104307.15 22707.3 Q 102246.3 20072.25 101469.15 19295.1 Q 101333.85 19192.8 101333.85 19092.15 Q 101333.85 18922.2 101602.8 18889.2 Q 102955.8 18686.25 103833.6 18686.25 Q 104881.35 18686.25 105625.5 18922.2 Q 106335 17638.5 107077.5 15610.65 Q 105962.1 15948.9 103985.4 16387.8 Q 102008.7 16828.35 100690.35 16996.65 Q 100218.45 17064.3 100048.5 17064.3 Q 99339 17064.3 98883.6 16726.05 Q 98426.55 16387.8 97717.05 15409.35 Q 97616.4 15307.05 97616.4 15036.45 Q 97616.4 14462.25 98223.6 14429.25 Q 100286.1 14158.65 103343.55 13346.85 Q 106402.65 12536.7 107077.5 12130.8 Q 107651.7 11724.9 108024.6 11724.9 Q 108463.5 11724.9 109207.65 12434.4 Q 110017.8 13178.55 110930.25 14462.25 Q 111436.8 15206.4 111436.8 15712.95 Q 111436.8 16422.45 110694.3 16760.7 Q 110085.45 17064.3 108920.55 17857.95 Q 107754 18653.25 106638.6 19498.05 Q 107009.85 19869.3 107145.15 20375.85 Q 107212.8 20714.1 107212.8 20849.4 Q 107212.8 21524.25 106841.55 22167.75 Q 109207.65 21558.9 109408.95 21491.25 Q 109544.25 21423.6 110120.1 21153 Q 110727.3 20849.4 110997.9 20849.4 Q 111098.55 20849.4 111301.5 20917.05 Q 112078.65 21187.65 112974.6 21946.65 Q 113870.55 22707.3 114309.45 23349.15 Q 114715.35 23890.35 114951.3 24329.25 Q 115188.9 24769.8 115188.9 25174.05 Q 115188.9 25782.9 114444.75 25985.85 Q 113566.95 26188.8 112519.2 26611.2 Q 111471.45 27033.6 110524.35 27437.85 L 109173 28013.7 L 109105.35 28046.7 Q 109004.7 28046.7 108937.05 27911.4 Q 108869.4 27776.1 108937.05 27573.15 Q 109544.25 26492.4 109984.8 25276.35 L 109984.8 25241.7 Q 109984.8 25106.4 109899 24989.25 Q 109814.85 24870.45 109714.2 24903.45 Q 109072.35 25106.4 105996.75 25782.9 Q 107077.5 26121.15 107450.4 26492.4 Q 107653.35 26695.35 107653.35 26965.95 Q 107653.35 27168.9 107483.4 27726.6 Q 107315.1 28282.65 107280.45 28823.85 L 107247.45 30310.5 Q 107247.45 31797.15 107382.75 33825 Q 107415.75 34263.9 107450.4 35092.2 Q 107483.4 35920.5 107483.4 36597 Q 107483.4 38522.55 107028 39570.3 Q 106570.95 40618.05 105084.3 41462.85 Q 104713.05 41698.8 104340.15 41698.8 Q 103563 41698.8 103023.45 40415.1 Q 102685.2 39502.65 102092.85 38877.3 Q 101502.15 38251.95 100589.7 37778.4 Q 100353.75 37677.75 100353.75 37474.8 Q 100353.75 37238.85 100624.35 37238.85 L 101401.5 37238.85 Q 101536.8 37238.85 101738.1 37255.35 Q 101941.05 37271.85 102279.3 37238.85 Q 103091.1 37171.2 103361.7 36123.45 Q 103563 35244 103563 33994.95 Q 103563 33724.35 103495.35 31764.15 Q 103495.35 31325.25 103429.35 29432.7 Q 103394.7 28485.6 103275.9 27894.9 Q 103158.75 27304.2 102888.15 26593.05 L 102853.5 26492.4 Q 100454.4 27033.6 99541.95 27337.2 Q 99238.35 27437.85 98967.75 27437.85 Q 98358.9 27437.85 97684.05 26931.3 Q 97243.5 26593.05 96788.1 25883.55 Q 96331.05 25174.05 96062.1 24464.55  Z M 119681.85 27304.2 Q 119478.9 27472.5 119107.65 27472.5 Q 118634.1 27472.5 118162.2 27101.25 Q 117688.65 26730 117418.05 26088.15 Q 117383.4 25985.85 117282.75 25682.25 Q 117182.1 25378.65 117182.1 25073.4 Q 117182.1 24398.55 117856.95 23689.05 Q 118668.75 22641.3 119191.8 21710.7 Q 119716.5 20781.75 120020.1 19498.05 Q 120120.75 19092.15 120426 19092.15 Q 120694.95 19092.15 120830.25 19329.75 Q 121100.85 20139.9 121338.45 21288.3 Q 121574.4 22438.35 121574.4 23147.85 Q 121574.4 24634.5 121000.2 25733.4 Q 120426 26830.65 119681.85 27304.2  Z M 121675.05 11455.95 Q 121642.05 11388.3 121642.05 11218.35 Q 121642.05 10982.4 121861.5 10795.95 Q 122080.95 10611.15 122386.2 10611.15 Q 123669.9 10611.15 124801.8 10949.4 Q 125933.7 11286 126710.85 11894.85 Q 126946.8 12097.8 126946.8 12401.4 Q 126946.8 12571.35 126846.15 12926.1 Q 126743.85 13280.85 126710.85 13584.45 Q 126407.25 14496.9 126372.6 15442.35 Q 126304.95 17199.6 126304.95 18620.25 Q 127521 18552.6 128636.4 19159.8 Q 129819.45 19869.3 129819.45 21120 Q 129819.45 21694.2 129548.85 22167.75 L 129786.45 22167.75 Q 131880.3 22134.75 135766.05 21661.2 L 135766.05 20309.85 L 133401.6 20578.8 Q 133063.35 20646.45 132776.25 20494.65 Q 132489.15 20342.85 132117.9 19936.95 L 131609.7 19227.45 Q 131576.7 19159.8 131576.7 19024.5 Q 131576.7 18620.25 132185.55 18517.95 L 135733.05 17943.75 L 135733.05 16693.05 Q 133469.25 16996.65 132286.2 17267.25 Q 132185.55 17301.9 132015.6 17301.9 Q 131476.05 17301.9 130934.85 16777.2 Q 130393.65 16254.15 130022.4 15577.65 Q 129921.75 15409.35 129921.75 15274.05 Q 129921.75 15071.1 130055.4 14935.8 Q 130190.7 14800.5 130461.3 14767.5 Q 132657.45 14529.9 135665.4 13955.7 L 135665.4 13178.55 Q 135497.1 11353.65 135259.5 10576.5 L 135226.5 10441.2 Q 135226.5 10172.25 135394.8 9951.15 Q 135564.75 9731.7 135969 9731.7 Q 136813.8 9664.05 137945.7 9934.65 Q 139077.6 10205.25 139585.8 10611.15 Q 139922.4 10847.1 139990.05 11101.2 Q 140057.7 11353.65 140057.7 11962.5 Q 140057.7 12571.35 139957.05 13178.55 L 140970.15 13010.25 Q 142153.2 12774.3 142456.8 12774.3 Q 142998 12774.3 143455.05 13010.25 Q 143910.45 13246.2 144080.4 13449.15 Q 144687.6 14023.35 144991.2 14835.15 Q 145093.5 15241.05 144890.55 15528.15 Q 144687.6 15815.25 144214.05 15815.25 Q 143133.3 15815.25 139788.75 16186.5 Q 139754.1 16557.75 139754.1 17267.25 L 141308.4 17031.3 Q 141646.65 16963.65 141781.95 16963.65 Q 142153.2 16963.65 142694.4 17166.6 Q 143167.95 17437.2 143539.2 17976.75 Q 143910.45 18517.95 143910.45 18821.55 Q 143978.1 19262.1 143658 19413.9 Q 143336.25 19565.7 142694.4 19565.7 Q 142491.45 19565.7 140463.6 19768.65 Q 140193 19768.65 139653.45 19836.3 Q 139585.8 20781.75 139585.8 21222.3 Q 142524.45 20849.4 143200.95 20714.1 Q 143504.55 20646.45 144129.9 20511.15 Q 144755.25 20377.5 145194.15 20377.5 Q 146106.6 20377.5 146680.8 20884.05 Q 147189 21390.6 147459.6 21829.5 Q 147728.55 22268.4 147728.55 22741.95 Q 147728.55 23147.85 147476.1 23367.3 Q 147222 23586.75 146918.4 23586.75 Q 146547.15 23553.75 145567.05 23553.75 Q 142829.7 23553.75 138538.05 23908.5 Q 134246.4 24263.25 131947.95 24669.15 Q 131812.65 24702.15 131542.05 24702.15 Q 130832.55 24702.15 130360.65 24330.9 Q 129887.1 23958 129345.9 23180.85 Q 128974.65 22809.6 128974.65 22809.6 Q 128771.7 22944.9 128501.1 23012.55 L 128299.8 23045.55 Q 127690.95 23045.55 127521 22403.7 Q 127217.4 21661.2 126304.95 20309.85 Q 126304.95 21761.85 126372.6 25073.4 Q 126440.25 30209.85 126440.25 32406 Q 126440.25 35075.7 126339.6 36597 Q 126271.95 38557.2 125966.7 39570.3 Q 125663.1 40583.4 125021.25 40583.4 Q 124750.65 40583.4 124379.4 40382.1 Q 123466.95 39840.9 122808.6 38928.45 Q 122148.6 38016 122115.6 36765.3 Q 122115.6 36359.4 122283.9 35616.9 Q 122452.2 34602.15 122452.2 34366.2 Q 122587.5 31798.8 122587.5 27710.1 Q 122587.5 21593.55 122318.55 14767.5 Q 122283.9 13549.8 122183.25 13043.25 Q 122080.95 12536.7 121912.65 12081.3 Q 121742.7 11624.25 121675.05 11455.95  Z M 131205.45 38893.8 Q 131340.75 38218.95 131457.9 35768.7 Q 131576.7 33318.45 131576.7 30954 Q 131576.7 26730 131205.45 25952.85 Q 130967.85 25647.6 130967.85 25411.65 Q 130967.85 25243.35 131103.15 25141.05 Q 131238.45 25040.4 131476.05 25073.4 Q 133030.35 25175.7 134010.45 25546.95 Q 135361.8 25446.3 136899.6 25225.2 Q 138435.75 25005.75 139315.2 24837.45 Q 139957.05 24735.15 140260.65 24618 Q 140565.9 24499.2 141037.8 24263.25 Q 141308.4 24060.3 141613.65 24060.3 Q 141950.25 24060.3 142255.5 24228.6 Q 142524.45 24363.9 143100.3 24651 Q 143674.5 24938.1 144045.75 25208.7 Q 144417 25479.3 144687.6 25817.55 Q 144822.9 25985.85 144822.9 26188.8 Q 144822.9 26357.1 144687.6 26578.2 Q 144552.3 26797.65 144519.3 26865.3 Q 144248.7 27269.55 144181.05 27472.5 Q 144045.75 28520.25 144045.75 30176.85 Q 144045.75 31866.45 144181.05 34636.8 Q 144281.7 36191.1 144281.7 37238.85 Q 144281.7 38251.95 144080.4 38979.6 Q 143877.45 39705.6 143268.6 40347.45 Q 142456.8 41056.95 141882.6 41395.2 Q 141308.4 41733.45 140565.9 41733.45 Q 140193 41733.45 139957.05 41547 Q 139721.1 41360.55 139450.5 40989.3 Q 139280.55 40821 139011.6 40415.1 Q 138538.05 39773.25 138048 39334.35 Q 137557.95 38893.8 136510.2 38522.55 Q 136274.25 38421.9 136274.25 38286.6 Q 136274.25 38116.65 136916.1 38049 Q 137625.6 38049 138300.45 37981.35 Q 138976.95 37915.35 139280.55 37880.7 Q 139721.1 37847.7 139805.25 37509.45 Q 139889.4 37171.2 139889.4 36090.45 L 139889.4 34062.6 Q 139585.8 34298.55 138943.95 34298.55 Q 138402.75 34333.2 137473.8 34400.85 Q 136543.2 34468.5 135969 34536.15 L 135632.4 34569.15 L 135632.4 38928.45 Q 135632.4 40212.15 135226.5 40786.35 Q 134820.6 41360.55 133875.15 41395.2 Q 133366.95 41395.2 132675.6 40989.3 Q 131982.6 40583.4 131525.55 39992.7 Q 131070.15 39402 131205.45 38893.8  Z M 135665.4 32508.3 Q 136104.3 32440.65 137051.4 32237.7 Q 137219.7 32203.05 137878.05 32118.9 Q 138538.05 32034.75 138741 32102.4 Q 139415.85 32305.35 139889.4 33014.85 L 139856.4 30615.75 Q 139585.8 30886.35 138876.3 30886.35 Q 138300.45 30886.35 137219.7 30970.5 Q 136138.95 31054.65 135868.35 31122.3 L 135665.4 31122.3 L 135665.4 32508.3 Z M 136983.75 28823.85 Q 137929.2 28655.55 138470.4 28655.55 Q 138741 28655.55 138808.65 28688.55 Q 139450.5 28926.15 139856.4 29668.65 L 139788.75 27134.25 Q 138538.05 27269.55 135868.35 27642.45 Q 135800.7 27911.4 135800.7 27979.05 Q 135800.7 28013.7 135733.05 29026.8 L 136983.75 28823.85 Z " fill-rule="nonzero" style="fill:#b23636;;fill-opacity:1;"/>
</svg>