<svg version="1.1" x="0" y="0" width="100%" height="100%" viewBox="0 0 860108.8 61798.4" xmlns="http://www.w3.org/2000/svg">
  <path d="M 10156.55 44717.5 Q 9436.9 44717.5 8698.75 43959 Q 7958.75 43202.35 7655.35 42443.85 Q 7239.1 41459.65 7239.1 39981.5 Q 7239.1 39374.7 7277.95 39110.15 Q 7694.2 36723.65 7694.2 28463.4 Q 7694.2 23916.1 7542.5 19786.9 Q 7390.8 15657.7 7202.1 14671.65 Q 7087.4 14103.7 7087.4 13763.3 Q 7087.4 13156.5 7372.3 12928.95 Q 7655.35 12701.4 8301 12777.25 Q 9436.9 12967.8 10857.7 13687.45 Q 12278.5 14407.1 12809.45 15087.9 L 12922.3 15278.45 Q 25729.85 14103.7 27245 13687.45 Q 27737.1 13535.75 28419.75 12853.1 Q 28721.3 12512.7 28987.7 12322.15 Q 29252.25 12133.45 29592.65 12133.45 Q 30238.3 12133.45 31450.05 12682.9 Q 32661.8 13232.35 33760.7 14009.35 Q 34859.6 14786.35 35201.85 15391.3 Q 35314.7 15618.85 35314.7 15846.4 Q 35314.7 16073.95 35087.15 16756.6 Q 34859.6 17172.85 34783.75 17589.1 Q 34406.35 18952.55 34406.35 27401.5 Q 34406.35 30243.1 34480.35 34562.85 L 34519.2 38618.05 Q 34519.2 40473.6 33836.55 41970.25 Q 33155.75 43466.9 32036.5 44301.25 Q 30919.1 45133.75 29631.5 45172.6 Q 29100.55 45172.6 28739.8 44660.15 Q 28380.9 44149.55 27888.8 42935.95 Q 27394.85 41761.2 27091.45 41307.95 Q 24061.15 41383.8 19589.7 41591 Q 15120.1 41800.05 12278.5 42064.6 Q 12013.95 43354.05 11349.8 44034.85 Q 10687.5 44717.5 10156.55 44717.5  Z M 12430.2 19218.95 Q 12467.2 23120.6 12467.2 33047.7 L 12467.2 38275.8 Q 14892.55 38048.25 24249.85 37519.15 L 27130.3 37367.45 Q 27509.55 37328.6 27868.45 37632 Q 28229.2 37935.4 28495.6 38542.2 Q 28760.15 38275.8 28760.15 37935.4 Q 28836 34525.85 28836 31569.55 Q 28836 23991.95 28608.45 18384.6 Q 28608.45 18005.35 28362.4 17892.5 Q 28116.35 17777.8 27698.25 17777.8 Q 26258.95 17777.8 21067.85 18271.75 Q 15878.6 18763.85 12430.2 19218.95  Z M 13793.65 34107.75 Q 13641.95 33615.65 14039.7 33426.95 Q 14437.45 33236.4 15044.25 33275.25 Q 15802.75 33312.25 18720.2 32933 Q 18757.2 31645.4 18757.2 29371.75 L 17166.2 29714 Q 16522.4 29902.7 16009.95 29277.4 Q 15499.35 28652.1 15195.95 27819.6 Q 15120.1 27516.2 15120.1 27440.35 Q 15120.1 26833.55 15839.75 26833.55 Q 16446.55 26833.55 18720.2 26378.45 L 18681.35 25925.2 Q 18453.8 24863.3 18037.55 23991.95 L 16901.65 24295.35 Q 16786.95 24334.2 16559.4 24334.2 Q 15763.9 24334.2 15044.25 23612.7 Q 14324.6 22893.05 14209.9 22060.55 L 14209.9 21870 Q 14209.9 21529.6 14361.6 21359.4 Q 14513.3 21189.2 14968.4 21189.2 Q 16522.4 21189.2 22357.3 19635.2 Q 23113.95 19483.5 23759.6 19294.8 Q 23948.3 19255.95 24251.7 19255.95 Q 24667.95 19255.95 24895.5 19370.65 Q 25123.05 19483.5 25387.6 19711.05 Q 25955.55 20279 26334.8 21605.45 Q 26410.65 21908.85 26410.65 22021.7 Q 26410.65 22628.5 25728 22628.5 Q 24440.4 22628.5 21865.2 23159.45 Q 22318.45 23272.3 22470.15 23387 Q 22736.55 23651.55 22736.55 23879.1 L 22660.7 24371.2 L 22546 25394.25 L 23569.05 25015 Q 23872.45 24902.15 24137 24902.15 Q 24895.5 24902.15 25387.6 25582.95 Q 25879.7 26265.6 26107.25 26985.25 Q 26146.1 27099.95 26146.1 27325.65 Q 26146.1 27667.9 25974.05 27932.45 Q 25803.85 28197 25502.3 28197 Q 24555.1 28197 22470.15 28576.25 Q 22470.15 29410.6 22546 32365.05 Q 23569.05 32213.35 25008.35 31911.8 L 24061.15 30585.35 L 23493.2 29789.85 Q 23152.8 29371.75 23152.8 29183.05 Q 23152.8 28879.65 23909.45 28879.65 Q 24555.1 28879.65 25217.4 28994.35 Q 25879.7 29107.2 26258.95 29295.9 Q 27585.4 29941.55 27585.4 30888.75 Q 27585.4 31569.55 26902.75 32176.35 Q 27167.3 32289.2 27243.15 32440.9 Q 28114.5 33615.65 28266.2 34450 Q 28417.9 35510.05 26486.5 35434.2 Q 24553.25 35397.2 21485.95 35700.6 Q 18416.8 36002.15 16598.25 36344.4 Q 15878.6 36496.1 14968.4 35756.1 Q 14060.05 35017.95 13793.65 34107.75  Z M 47476.6 42974.8 Q 47249.05 43087.65 46945.65 43087.65 Q 46605.25 43087.65 46414.7 42935.95 Q 45883.75 42405 44786.7 40360.75 Q 44596.15 40018.5 44596.15 39715.1 Q 44596.15 39374.7 44805.2 39165.65 Q 45012.4 38958.45 45088.25 38882.6 Q 45391.65 38466.35 45506.35 38162.95 Q 45619.2 37859.55 45658.05 37176.9 Q 45770.9 35585.9 45770.9 34487 Q 45770.9 33084.7 45600.7 31797.1 Q 45430.5 30509.5 44899.55 27780.75 L 44899.55 27553.2 Q 44899.55 26833.55 45543.35 26833.55 Q 46642.25 26833.55 47950.2 27270.15 Q 49256.3 27704.9 49672.55 28272.85 Q 49975.95 28615.1 49975.95 29410.6 Q 49975.95 29751 49900.1 30888.75 L 49863.1 33236.4 Q 49863.1 34298.3 49787.25 38011.25 Q 52401.3 37595 58424.9 37006.7 Q 64450.35 36420.25 66533.45 36420.25 Q 67519.5 36420.25 68200.3 36873.5 Q 68579.55 33691.5 68540.7 29107.2 Q 68540.7 28842.65 68466.7 28008.3 Q 68315 26378.45 68315 26302.6 L 68315 26228.6 Q 68315 25621.8 69338.05 25621.8 Q 70586.8 25621.8 71554.35 26001.05 Q 72520.05 26378.45 73352.55 26909.4 Q 74223.9 27553.2 74223.9 28500.4 Q 74223.9 28727.95 74149.9 29183.05 Q 73655.95 32516.75 73504.25 36836.5 Q 73504.25 37176.9 73428.4 38503.35 Q 73352.55 39829.8 73200.85 40852.85 Q 73012.15 42292.15 71609.85 42974.8 Q 70209.4 43655.6 68655.4 43655.6 Q 68087.45 43655.6 67708.2 42974.8 Q 67328.95 42292.15 67328.95 41420.8 Q 67328.95 41041.55 67480.65 40510.6 Q 66836.85 40473.6 65510.4 40473.6 Q 61910.3 40473.6 57610.9 40928.7 Q 53309.65 41381.95 50242.35 41912.9 Q 49067.6 42064.6 48327.6 42480.85 Q 47589.45 42898.95 47476.6 42974.8  Z M 47400.75 16830.6 Q 47210.2 16377.35 47210.2 16149.8 Q 47210.2 15618.85 47968.7 15543 Q 50242.35 15391.3 57042.95 14310.9 Q 63843.55 13232.35 66344.75 12664.4 Q 66798 12588.55 66873.85 12588.55 Q 67480.65 12588.55 67821.05 13004.8 Q 68352 13535.75 68561.05 13857.65 Q 68768.25 14179.55 69186.35 15126.75 Q 69338.05 15430.15 69338.05 15883.4 Q 69338.05 16338.5 69110.5 16678.9 Q 68882.95 17021.15 68540.7 17021.15 Q 67821.05 17021.15 67441.8 16982.3 L 65889.65 16945.3 Q 63199.75 16945.3 58387.9 17664.95 Q 53576.05 18384.6 50734.45 19370.65 Q 50394.05 19483.5 50051.8 19483.5 Q 49748.4 19483.5 49446.85 19294.8 Q 49028.75 19143.1 48442.3 18460.45 Q 47854 17777.8 47400.75 16830.6  Z M 50355.2 21870 Q 50242.35 21642.45 50242.35 21377.9 Q 50242.35 20771.1 51189.55 20771.1 Q 52741.7 20771.1 54031.15 21302.05 L 54181 21416.75 Q 56682.2 21150.35 59164.9 20676.75 Q 61645.75 20203.15 62744.65 19672.2 Q 63085.05 19520.5 63388.45 19520.5 Q 63653 19520.5 64108.1 19672.2 Q 65737.95 20203.15 67216.1 21529.6 Q 67556.5 21833 67556.5 22173.4 Q 67556.5 22400.95 67441.8 22685.85 Q 67328.95 22968.9 67290.1 23159.45 Q 66988.55 24295.35 66685.15 31645.4 Q 66609.3 33123.55 65850.8 34240.95 Q 65094.15 35358.35 63804.7 35510.05 Q 63351.45 35585.9 63103.55 35397.2 Q 62857.5 35206.65 62611.45 34884.75 Q 62365.4 34562.85 62213.7 34374.15 Q 61873.3 33956.05 61682.75 33806.2 Q 59107.55 33806.2 55394.6 34259.45 Q 55355.75 35282.5 54371.55 35926.3 Q 54144 36002.15 54031.15 36002.15 Q 53576.05 36002.15 53026.6 35661.75 Q 52477.15 35321.35 52249.6 34979.1 Q 51909.2 34562.85 51833.35 34107.75 Q 51757.5 33654.5 51757.5 33293.75 Q 51757.5 32933 51757.5 32859 Q 51757.5 31872.95 51472.6 28955.5 Q 51187.7 26038.05 50771.45 23311.15 Q 50734.45 23120.6 50355.2 21870  Z M 54599.1 26454.3 Q 55698 26378.45 57022.6 26228.6 Q 56985.6 25205.55 56833.9 23499.85 L 54371.55 23879.1 L 54599.1 26454.3 Z M 54826.65 28766.8 Q 54902.5 29675.15 55130.05 31417.85 L 57061.45 31190.3 L 57061.45 28766.8 L 56417.65 28879.65 Q 55925.55 28994.35 55546.3 28994.35 Q 55130.05 28994.35 54826.65 28766.8  Z M 60358.15 28348.7 Q 60358.15 29410.6 60434 30849.9 Q 60887.25 30774.05 61153.65 30774.05 L 61381.2 30774.05 Q 61797.45 30774.05 62252.55 30964.6 Q 62404.25 29031.35 62441.25 28197 Q 61077.8 28272.85 60358.15 28348.7  Z M 60585.7 25621.8 Q 61342.35 25431.25 61682.75 25431.25 Q 62100.85 25431.25 62441.25 25621.8 L 62441.25 23651.55 Q 62441.25 22893.05 61797.45 22893.05 L 60546.85 22968.9 Q 60585.7 23083.6 60585.7 23311.15 Q 60585.7 23688.55 60546.85 23916.1 L 60434 25658.8 L 60585.7 25621.8 Z M 80362.2 44223.55 Q 80095.8 44223.55 79849.75 44092.2 Q 79603.7 43959 79603.7 43770.3 Q 79603.7 43579.75 79907.1 43391.05 Q 84681.95 40094.35 87769.6 35075.3 Q 90857.25 30054.4 92599.95 24559.9 Q 88962.85 25355.4 88091.5 25658.8 Q 87863.95 25734.65 87751.1 25734.65 Q 87333 25734.65 86859.4 25488.6 Q 86385.8 25242.55 86121.25 24902.15 Q 85325.75 24106.65 85174.05 22931.9 Q 85137.05 22513.8 85401.6 22136.4 Q 85666.15 21757.15 86197.1 21226.2 Q 86765.05 20695.25 87201.65 18876.7 Q 87636.4 17058.15 87636.4 15731.7 Q 87675.25 15087.9 87845.45 14823.35 Q 88015.65 14558.8 88546.6 14558.8 Q 89493.8 14558.8 90592.7 15163.75 Q 91691.6 15770.55 92259.55 16945.3 Q 92372.4 17209.85 92372.4 17476.25 Q 92372.4 17816.65 92126.35 18271.75 Q 91880.3 18725 91843.3 18800.85 L 91425.2 19559.35 Q 91047.8 20317.85 90402.15 21340.9 L 93586 20998.65 Q 94342.65 17701.95 94494.35 15618.85 L 94533.2 13345.2 Q 94533.2 11717.2 94266.8 10694.15 Q 94229.8 10579.45 94229.8 10314.9 Q 94229.8 9556.4 95101.15 9671.1 Q 96503.45 9783.95 97733.7 10466.6 Q 98965.8 11147.4 99685.45 12057.6 Q 100101.7 12588.55 100101.7 13041.8 Q 100101.7 13384.05 99874.15 13952 Q 99496.75 14975.05 98775.25 18763.85 Q 98699.4 19067.25 98623.55 19446.5 Q 98549.55 19823.9 98434.85 20317.85 Q 101920.25 19748.05 105028.25 18839.7 Q 105936.6 18536.3 106619.25 18536.3 Q 106959.65 18536.3 107111.35 18649.15 Q 108702.35 19748.05 109270.3 21377.9 Q 109385 21642.45 109385 21945.85 Q 109385 22476.8 109042.75 22780.2 Q 108702.35 23083.6 108058.55 23044.75 Q 107414.75 22968.9 106012.45 22968.9 Q 102527.05 22968.9 97602.35 23688.55 Q 97335.95 24674.6 96655.15 26720.7 Q 99041.65 26530.15 99685.45 26226.75 Q 100101.7 26038.05 100329.25 25904.85 Q 100556.8 25773.5 100669.65 25697.65 Q 100860.2 25545.95 101048.9 25470.1 Q 101239.45 25394.25 101465.15 25394.25 Q 102147.8 25394.25 103133.85 26226.75 Q 105860.75 28576.25 105860.75 29410.6 Q 105823.75 29826.85 105653.55 30187.6 Q 105481.5 30546.5 105104.1 31114.45 L 104534.3 31948.8 Q 102906.3 34942.1 101844.4 36570.1 Q 109385 41951.75 114121 43239.35 Q 114537.25 43352.2 114783.3 43524.25 Q 115029.35 43694.45 115029.35 43883.15 Q 115029.35 44110.7 114688.95 44223.55 Q 113893.45 44602.8 111222.05 45170.75 Q 108550.65 45740.55 107150.2 45853.4 Q 106922.65 45892.25 106428.7 45892.25 Q 104042.2 45892.25 102754.6 44489.95 Q 101124.75 42823.1 99117.5 40321.9 Q 96919.7 42860.1 94153.95 44375.25 Q 91388.2 45892.25 87484.7 46497.2 Q 87296 46536.05 86840.9 46536.05 Q 86121.25 46536.05 85495.95 46402.85 Q 84870.65 46269.65 84870.65 46042.1 Q 84870.65 45853.4 85401.6 45625.85 Q 88394.9 44338.25 91179.15 42103.45 Q 93963.4 39866.8 96161.2 36721.8 Q 94797.75 35054.95 93434.3 33539.8 Q 88622.45 41457.8 80513.9 44223.55 L 80362.2 44223.55 Z M 94684.9 31380.85 Q 95289.85 31569.55 95707.95 31909.95 L 97979.75 33691.5 Q 98738.25 32289.2 99382.05 30585.35 Q 99496.75 30357.8 99496.75 30054.4 Q 99496.75 29865.7 99400.55 29769.5 Q 99306.2 29675.15 99117.5 29714 L 98055.6 29902.7 Q 95632.1 30357.8 95138.15 30394.8 L 94684.9 31380.85 Z M 100669.65 12398 Q 100480.95 12246.3 100480.95 12057.6 Q 100480.95 11678.35 101579.85 11602.5 Q 103398.4 11602.5 104610.15 12094.6 Q 105823.75 12588.55 106695.1 13572.75 Q 107263.05 14255.4 107263.05 15012.05 Q 107263.05 15731.7 106826.45 16471.7 Q 106391.7 17209.85 105672.05 17777.8 Q 105292.8 18081.2 104952.4 18081.2 Q 104345.6 18081.2 103777.65 16982.3 Q 102223.65 13952 100669.65 12398  Z M 129161.5 45892.25 Q 128025.6 44906.2 127342.95 43163.5 Q 127305.95 43050.65 127305.95 42860.1 Q 127305.95 42255.15 128101.45 41912.9 Q 129085.65 41535.5 129313.2 40777 Q 129616.6 39641.1 129768.3 38048.25 Q 129920 36457.25 129920 35548.9 Q 129920 34298.3 129768.3 33199.4 Q 129579.6 33236.4 129237.35 33236.4 Q 128632.4 33236.4 127949.75 32820.15 L 127761.05 32668.45 Q 124804.75 43505.75 117946.8 46611.9 Q 117493.55 46876.45 117075.45 46876.45 Q 116810.9 46876.45 116810.9 46687.75 Q 116810.9 46423.2 117266 45929.25 Q 120107.6 42292.15 121811.45 37328.6 Q 123517.15 32365.05 124197.95 27440.35 Q 124880.6 22513.8 124880.6 18347.6 Q 124880.6 16906.45 124767.75 15713.2 Q 124653.05 14519.95 124312.65 13421.05 Q 124236.8 13117.65 124236.8 12928.95 Q 124236.8 12398 124919.45 12398 Q 126850.85 12398 128745.25 13269.35 Q 130754.35 13041.8 138520.65 11793.05 Q 139922.95 11489.65 140472.4 11167.75 Q 141021.85 10845.85 141134.7 10807 Q 141589.8 10618.3 141778.5 10618.3 Q 141930.2 10618.3 142309.45 10770 Q 142916.25 11071.55 143541.55 11545.15 Q 144165 12018.75 144562.75 12361 Q 144962.35 12701.4 145188.05 12891.95 Q 145909.55 13496.9 145909.55 13989 Q 145909.55 14255.4 145624.65 14634.65 Q 145339.75 15012.05 145188.05 15315.45 Q 144695.95 15998.1 144431.4 16547.55 Q 144165 17097 143824.6 18157.05 Q 144165 18839.7 144165 19483.5 Q 144165 19748.05 143957.8 19938.6 Q 143748.75 20127.3 143445.35 20127.3 Q 142006.05 20127.3 137005.5 20639.75 Q 132003.1 21150.35 129616.6 21605.45 Q 129540.75 22704.35 129313.2 24598.75 Q 131131.75 24371.2 132117.8 24219.5 Q 132078.95 23612.7 131814.4 22437.95 Q 131738.55 22249.25 131738.55 21945.85 Q 131738.55 21302.05 132761.6 21416.75 Q 134731.85 21605.45 135603.2 22437.95 Q 136058.3 22817.2 136058.3 23651.55 Q 136890.8 23536.85 138557.65 23235.3 Q 138520.65 22856.05 138293.1 21681.3 Q 138217.25 21377.9 138217.25 21302.05 Q 138217.25 20543.55 139240.3 20734.1 Q 140452.05 20922.8 141077.35 21168.85 Q 141702.65 21416.75 142081.9 21794.15 Q 142422.3 22212.25 142461.15 22513.8 L 142916.25 22400.95 Q 143104.95 22363.95 143484.2 22363.95 Q 144015.15 22363.95 144316.7 22589.65 Q 145263.9 23385.15 145719 24371.2 Q 145794.85 24522.9 145794.85 24787.45 Q 145794.85 25053.85 145567.3 25166.7 Q 145339.75 25279.55 144734.8 25318.4 Q 143484.2 25394.25 142120.75 25582.95 Q 141930.2 27061.1 141817.35 28576.25 Q 144847.65 28047.15 146174.1 27667.9 Q 146553.35 27592.05 146817.9 27592.05 Q 147424.7 27592.05 147916.8 27856.6 Q 148523.6 28272.85 149034.2 28898.15 Q 149546.65 29523.45 149698.35 30169.1 Q 149887.05 30622.35 149450.45 30907.25 Q 149015.7 31192.15 148105.5 31192.15 Q 145378.6 31268 138368.95 32063.5 Q 139808.25 33882.05 141854.35 35813.45 Q 142498.15 34905.1 142916.25 34013.4 Q 143332.5 33123.55 143369.5 32516.75 Q 143445.35 32063.5 143560.05 31872.95 Q 143672.9 31684.25 143939.3 31684.25 Q 144203.85 31684.25 144392.55 31721.25 Q 145833.7 32024.65 147121.3 33502.8 Q 147310 33767.35 147310 34070.75 Q 147310 34601.7 146817.9 34942.1 L 146098.25 35473.05 Q 144810.65 36533.1 143408.35 37176.9 Q 145302.75 38730.9 146286.95 39337.7 Q 148029.65 40512.45 152046 42292.15 Q 152388.25 42406.85 152388.25 42595.55 Q 152388.25 42860.1 151894.3 43126.5 Q 150834.25 43770.3 149716.85 44168.05 Q 148599.45 44565.8 147273 44945.05 Q 146553.35 45172.6 145946.55 45172.6 Q 144810.65 45172.6 143711.75 44073.7 Q 141550.95 41875.9 139297.65 38788.25 Q 137042.5 35700.6 135299.8 32403.9 L 133595.95 32631.45 Q 134088.05 32896 134088.05 33351.1 Q 134088.05 33578.65 133973.35 33994.9 Q 133860.5 34411.15 133784.65 34638.7 Q 133632.95 35130.8 133481.25 39792.8 Q 136285.85 38542.2 137270.05 38011.25 Q 137497.6 37898.4 137686.3 37898.4 Q 137989.7 37898.4 137989.7 38162.95 Q 137989.7 38351.65 137801 38618.05 L 136702.1 39905.65 Q 132382.35 45020.9 131586.85 46005.1 Q 131207.6 46460.2 130639.65 46460.2 Q 130223.4 46460.2 129807.15 46290 Q 129389.05 46119.8 129161.5 45892.25  Z M 128366 30206.1 Q 128933.95 30169.1 129540.75 30093.25 Q 130147.55 30017.4 130754.35 29978.55 L 132269.5 29826.85 L 132269.5 27212.8 L 131511 27288.65 Q 130828.35 27288.65 130184.55 26796.55 Q 129540.75 26302.6 129161.5 25734.65 Q 128896.95 27971.3 128366 30206.1  Z M 129807.15 18575.15 Q 135072.25 17701.95 139732.4 17248.7 Q 139959.95 15922.25 139884.1 15354.3 Q 139847.1 15202.6 139732.4 15184.1 Q 139619.55 15163.75 139353.15 15163.75 Q 138824.05 15163.75 134200.9 15846.4 L 130260.4 16377.35 L 129881.15 16377.35 Q 129807.15 17589.1 129807.15 18575.15  Z M 138520.65 29070.2 Q 138596.5 26872.4 138596.5 26113.9 L 135754.9 26569 L 135640.2 29410.6 L 138520.65 29070.2 Z M 186637.3 39905.65 Q 185804.8 39905.65 185198 39641.1 Q 184591.2 39374.7 183947.4 38919.6 Q 182091.85 37595 179855.2 34070.75 L 180006.9 41535.5 Q 179969.9 43163.5 179154.05 44377.1 Q 178340.05 45588.85 177355.85 46043.95 Q 177128.3 46119.8 176976.6 46119.8 Q 176408.65 46119.8 175990.55 45550 Q 175613.15 45020.9 174475.4 43788.8 Q 173339.5 42558.55 172277.6 41535.5 Q 171937.2 41232.1 171937.2 41004.55 Q 171937.2 40777 172544 40814 Q 172884.4 40852.85 173585.55 40928.7 Q 174286.7 41004.55 174702.95 41117.4 Q 175119.2 41156.25 175213.55 40965.7 Q 175309.75 40777 175422.6 40133.2 Q 175687.15 38730.9 175763 29447.6 Q 175726 29562.3 175385.6 30622.35 Q 173983.3 34107.75 172468.15 36098.35 Q 170953 38087.1 168148.4 39450.55 L 168148.4 39489.4 Q 168148.4 39792.8 168185.4 40114.7 Q 168224.25 40436.6 168224.25 40740 Q 168224.25 41648.35 167656.3 42747.25 Q 166481.55 44906.2 164966.4 45172.6 Q 164701.85 45209.6 164529.8 45057.9 Q 164359.6 44906.2 164207.9 44678.65 Q 164056.2 44452.95 163980.35 44377.1 Q 163223.7 43163.5 160267.4 40625.3 Q 160078.7 40436.6 160078.7 40360.75 Q 160078.7 40133.2 160683.65 40057.35 Q 161555 40057.35 162844.45 39905.65 Q 163336.55 39866.8 163697.3 39261.85 Q 164056.2 38655.05 164056.2 37898.4 Q 164056.2 34183.6 164170.9 30546.5 L 163867.5 30585.35 Q 163299.55 30585.35 161025.9 30812.9 Q 160230.4 36041 158354.5 39887.15 Q 156478.6 43731.45 153901.55 45550 Q 153448.3 45777.55 153144.9 45777.55 Q 152804.5 45777.55 152804.5 45476 Q 152804.5 45209.6 153069.05 44678.65 Q 155455.55 40664.15 156535.95 34905.1 Q 157616.35 29144.2 157616.35 22893.05 Q 157616.35 20809.95 157501.65 18876.7 Q 157425.8 17248.7 157179.75 16320 Q 156933.7 15391.3 156441.6 14331.25 Q 156365.75 14103.7 156365.75 14027.85 Q 156365.75 13724.45 156572.95 13515.4 Q 156782 13308.2 157085.4 13308.2 Q 158221.3 13308.2 159377.55 13781.8 Q 160533.8 14255.4 161177.6 14936.2 Q 161253.45 15012.05 161253.45 15050.9 Q 161556.85 14975.05 161782.55 14899.2 L 162920.3 14595.8 Q 163715.8 14368.25 164207.9 14198.05 Q 164700 14027.85 164966.4 13876.15 Q 165497.35 13535.75 165874.75 13535.75 Q 166102.3 13535.75 166368.7 13687.45 Q 168072.55 14671.65 169058.6 15883.4 Q 169323.15 16186.8 169323.15 16529.05 Q 169323.15 16869.45 169132.6 17228.35 Q 168943.9 17589.1 168906.9 17664.95 Q 168603.5 18271.75 168564.65 18499.3 Q 168375.95 20543.55 168224.25 26833.55 Q 170270.35 26454.3 172277.6 25507.1 Q 172619.85 25355.4 172921.4 25072.35 Q 173224.8 24787.45 173491.2 24787.45 Q 174210.85 24787.45 175233.9 25734.65 Q 175498.45 26001.05 175801.85 26378.45 Q 175801.85 23879.1 175838.85 22893.05 Q 174096.15 23233.45 172240.6 23840.25 Q 172013.05 23954.95 171748.5 23954.95 Q 171217.55 23954.95 170914.15 23536.85 Q 170422.05 23044.75 169909.6 22079.05 Q 169399 21113.35 169399 20582.4 Q 169399 20242 169966.95 20242 Q 170422.05 20242 170725.45 20279 L 171520.95 20316 Q 171974.2 20316 172656.85 20242 Q 174362.55 20051.45 175763 19635.2 Q 176408.65 19520.5 176976.6 19028.4 Q 177204.15 18839.7 177507.55 18839.7 Q 177847.95 18839.7 178112.5 19028.4 Q 178719.3 19368.8 179572.15 19918.25 Q 180423.15 20467.7 180650.7 20809.95 Q 180841.25 21037.5 180841.25 21339.05 Q 180841.25 21605.45 180650.7 21870 Q 180462 22136.4 180386.15 22249.25 Q 179969.9 22780.2 179894.05 26606 Q 181029.95 25357.25 181806.95 24143.65 Q 182583.95 22931.9 183114.9 21416.75 Q 183492.3 20090.3 184174.95 20242 Q 185425.55 20506.55 186333.9 21568.45 Q 187244.1 22628.5 187395.8 23916.1 Q 187471.65 24674.6 186258.05 25582.95 Q 185235 26380.3 183625.5 27307.15 Q 182016 28235.85 180310.3 28918.5 Q 184439.5 33882.05 186864.85 35473.05 Q 189971 37443.3 190918.2 37783.7 Q 191600.85 38124.1 191600.85 38466.35 Q 191600.85 38655.05 191373.3 38769.75 Q 190274.4 39298.85 188986.8 39602.25 Q 187699.2 39905.65 186637.3 39905.65  Z M 162844.45 27629.05 Q 162996.15 27592.05 163184.85 27553.2 Q 163375.4 27516.2 163639.95 27516.2 Q 163943.35 27516.2 164132.05 27667.9 L 164207.9 27743.75 Q 164283.75 25166.7 164283.75 23991.95 L 163980.35 23991.95 Q 162653.9 24104.8 161518 24143.65 L 161518 24484.05 Q 161518 25621.8 161366.3 27819.6 L 162844.45 27629.05 Z M 161518 21263.2 Q 162085.95 21226.2 162729.75 21074.5 Q 163184.85 20998.65 163451.25 20998.65 Q 163867.5 20998.65 164019.2 21150.35 L 164322.6 21414.9 Q 164359.6 19975.6 164359.6 17324.55 Q 163147.85 17437.4 161555 17853.65 Q 161555 19975.6 161518 21263.2  Z M 168111.4 37443.3 Q 169626.55 34980.95 170477.55 33123.55 Q 171330.4 31268 171672.65 29373.6 L 171709.65 28955.5 Q 171709.65 28652.1 171293.4 28842.65 Q 170610.75 29183.05 170155.65 29316.25 Q 169702.4 29447.6 169095.6 29334.75 Q 168716.35 29258.9 168185.4 28766.8 L 168111.4 37443.3 Z M 174627.1 12170.45 Q 174627.1 12133.45 174551.25 11981.75 Q 174475.4 11830.05 174475.4 11678.35 Q 174475.4 11337.95 175006.35 11299.1 Q 175158.05 11262.1 175537.3 11262.1 Q 176445.65 11262.1 177468.7 11565.5 Q 178491.75 11867.05 179287.25 12361 Q 181105.8 13421.05 181105.8 15050.9 Q 181105.8 15922.25 180556.35 16699.25 Q 180006.9 17474.4 179098.55 17968.35 Q 178946.85 18081.2 178756.3 18081.2 Q 178452.9 18081.2 178188.35 17892.5 Q 177923.8 17701.95 177809.1 17513.25 Q 177280 16754.75 175953.55 14482.95 Q 175801.85 14216.55 175385.6 13439.55 Q 174967.5 12664.4 174627.1 12170.45  Z M 195959.45 42974.8 Q 195656.05 42710.25 195067.75 41666.85 Q 194481.3 40625.3 193989.2 39602.25 Q 193798.65 39149 193798.65 38806.75 Q 193798.65 38466.35 193989.2 38238.8 Q 194177.9 38011.25 194518.3 37974.25 Q 195125.1 37935.4 195598.7 37765.2 Q 196072.3 37595 196754.95 37254.6 Q 198573.5 36344.4 201452.1 34659.05 Q 204332.55 32971.85 206491.5 31532.55 Q 206682.05 31419.7 206794.9 31419.7 Q 206907.75 31419.7 206946.6 31495.55 Q 206983.6 31571.4 206870.75 31721.25 L 204408.4 34942.1 Q 206530.35 33578.65 208878 31305 Q 211227.5 29031.35 213236.6 26607.85 Q 211795.45 25166.7 210280.3 23462.85 Q 207629.25 26304.45 205583.15 27175.8 L 205468.45 27212.8 Q 205316.75 27212.8 205316.75 27024.1 Q 205316.75 26872.4 205507.3 26607.85 Q 207098.3 24447.05 208197.2 21833 Q 209296.1 19218.95 210470.85 15694.7 Q 210583.7 15278.45 210772.4 14710.5 Q 211038.8 13915 211151.65 13062.15 Q 211266.35 12209.3 211303.35 11528.5 Q 211342.2 10921.7 211910.15 10921.7 Q 212137.7 10921.7 212742.65 11073.4 Q 213538.15 11300.95 214505.7 12324 Q 215471.4 13347.05 215698.95 14103.7 Q 215887.65 14482.95 215887.65 14938.05 Q 215887.65 15278.45 215735.95 15618.85 Q 215584.25 15961.1 215243.85 16566.05 Q 214864.6 17135.85 214751.75 17363.4 Q 214561.2 17779.65 214296.65 18120.05 Q 217214.1 17892.5 217857.9 17552.1 Q 218350 17324.55 218843.95 17021.15 Q 218880.95 16984.15 219090 16869.45 Q 219297.2 16756.6 219563.6 16756.6 Q 219979.85 16756.6 220490.45 17115.5 Q 221002.9 17476.25 221230.45 17589.1 Q 222062.95 18158.9 222745.6 18954.4 Q 223428.25 19749.9 223428.25 20205 Q 223428.25 20621.25 223143.35 20961.65 Q 222858.45 21302.05 222329.35 21720.15 Q 221533.85 22400.95 221343.3 22704.35 Q 219979.85 24789.3 218161.3 26759.55 Q 223276.55 30054.4 227746.15 31229.15 Q 228580.5 31456.7 228580.5 31797.1 Q 228580.5 32024.65 228315.95 32252.2 L 227520.45 32934.85 Q 226458.55 33919.05 225681.55 34413 Q 224904.55 34905.1 223996.2 34905.1 Q 223010.15 34905.1 221911.25 34222.45 L 222405.2 34714.55 Q 222745.6 35056.8 222745.6 35548.9 Q 222745.6 35852.3 222481.05 36571.95 Q 221685.55 38769.75 221458 41838.9 Q 221382.15 43126.5 221115.75 43657.45 Q 220851.2 44186.55 219942.85 44793.35 Q 218729.25 45664.7 218161.3 45664.7 Q 217706.2 45664.7 217478.65 45096.75 Q 217326.95 44756.35 217289.95 44243.9 Q 217251.1 43733.3 217251.1 43581.6 Q 216834.85 43618.6 216002.35 43618.6 Q 213841.55 43694.45 212705.65 43885 Q 212666.8 44717.5 212344.9 45266.95 Q 212023 45816.4 211418.05 45816.4 Q 210887.1 45816.4 210280.3 45437.15 Q 209447.8 44945.05 208974.2 44338.25 Q 208500.6 43733.3 208500.6 42671.4 Q 208500.6 37367.45 207779.1 34829.25 Q 206226.95 35548.9 205013.35 35928.15 Q 204597.1 36079.85 204142 36079.85 Q 203764.6 36079.85 203649.9 35928.15 Q 200277.35 40133.2 197587.45 42937.8 Q 197210.05 43354.05 196754.95 43354.05 Q 196262.85 43354.05 195959.45 42974.8  Z M 193950.35 25660.65 Q 193837.5 25470.1 193837.5 25242.55 Q 193837.5 24978 194026.2 24789.3 Q 195428.5 23387 196299.85 21966.2 Q 197171.2 20545.4 197644.8 19407.65 Q 198118.4 18271.75 198762.2 16377.35 Q 199481.85 14407.1 199481.85 12436.85 Q 199481.85 12096.45 199936.95 12096.45 Q 200353.2 12096.45 200923 12361 Q 201679.65 12740.25 202626.85 13441.4 Q 203574.05 14142.55 203877.45 14558.8 Q 204180.85 14975.05 204180.85 15278.45 Q 204180.85 15581.85 203953.3 16016.6 Q 203725.75 16453.2 203385.35 16945.3 Q 202665.7 17892.5 201433.6 19862.75 Q 200201.5 21833 199028.6 23954.95 L 201527.95 23690.4 L 202095.9 22704.35 Q 202778.55 21644.3 203157.8 20772.95 Q 203537.05 19901.6 203953.3 18688 Q 203990.3 18423.45 204332.55 18423.45 Q 204748.8 18423.45 205316.75 18878.55 Q 205999.4 19331.8 206624.7 19957.1 Q 207250 20582.4 207553.4 21113.35 Q 207703.25 21377.9 207703.25 21681.3 Q 207703.25 22476.8 206831.9 23348.15 Q 206756.05 23424 205052.2 25205.55 Q 201831.35 28653.95 200125.65 30169.1 Q 201415.1 29941.55 203612.9 29334.75 Q 206378.65 28615.1 206907.75 28502.25 Q 207553.4 28350.55 207969.65 28350.55 Q 208310.05 28350.55 208310.05 28463.4 Q 208310.05 28615.1 207666.25 29031.35 L 205316.75 30396.65 Q 198989.75 33919.05 198270.1 34525.85 Q 197474.6 35245.5 196830.8 35245.5 Q 196338.7 35245.5 195844.75 34753.4 Q 195580.2 34487 195315.65 33957.9 Q 195049.25 33426.95 194897.55 33047.7 Q 194745.85 32668.45 194670 32479.75 Q 194594.15 32328.05 194594.15 32100.5 Q 194594.15 31571.4 195391.5 31040.45 Q 197095.35 29826.85 199028.6 27327.5 L 197019.5 27932.45 Q 196564.4 28160 196262.85 28160 Q 195959.45 28160 195656.05 27895.45 Q 194633 27136.95 193950.35 25660.65  Z M 210999.95 33010.7 Q 211455.05 33123.55 211719.6 33275.25 Q 215356.7 32934.85 217025.4 32631.45 Q 217441.65 32555.6 217782.05 32403.9 Q 218388.85 32176.35 218692.25 32176.35 Q 218995.65 32176.35 219260.2 32291.05 L 219373.05 32328.05 Q 217478.65 30737.05 215850.65 29183.05 Q 213312.45 31495.55 210999.95 33010.7  Z M 211418.05 22099.4 Q 212023 22363.95 212365.25 22628.5 Q 214409.5 24143.65 214864.6 24485.9 Q 215811.8 23235.3 216531.45 21947.7 Q 216607.3 21833 216607.3 21644.3 Q 216607.3 21453.75 216266.9 21492.6 Q 215508.4 21605.45 214542.7 21644.3 Q 213577 21681.3 213121.9 21644.3 Q 212666.8 21605.45 212250.55 21113.35 Q 211719.6 21796 211418.05 22099.4  Z M 212289.4 36457.25 Q 212250.55 36760.65 212250.55 37443.3 Q 212250.55 38503.35 212402.25 40473.6 Q 213993.25 40436.6 217630.35 39981.5 L 217706.2 38390.5 Q 217706.2 37367.45 217745.05 36760.65 Q 217745.05 36381.4 217630.35 36231.55 Q 217517.5 36079.85 217099.4 36116.85 Q 213160.75 36344.4 212478.1 36420.25 Q 212363.4 36420.25 212289.4 36457.25  Z " fill-rule="nonzero" style="fill:#333333;;fill-opacity:1;"/>
</svg>