<svg version="1.1" x="0" y="0" width="100%" height="100%" viewBox="0 0 328601.6 66457.6" xmlns="http://www.w3.org/2000/svg">
  <path d="M 84117.7 13240.6 L 87816.5 6789.4 L 87400.7 6531.1 L 83544.4 13240.6 L 87400.7 19949.4 L 87816.5 19691.8 L 84117.7 13240.6 Z M 86167.3 13240.6 L 89852.1 6789.4 L 89436.3 6531.1 L 85594 13240.6 L 89436.3 19949.4 L 89852.1 19691.8 L 86167.3 13240.6 Z M 102109.1 6631.2 Q 101105.3 6956.7 99591.9 7290.6 Q 98936.7 7435.5 98241.6 7568.5 Q 96639.3 7875.1 95142 8050.8 L 95184.7 8280.4 Q 97018 8286 98877.9 8163.5 Q 99070.4 8151.6 99260.8 8137.6 Q 101097.6 8005.3 102482.2 7807.2 Q 103066 8032.6 103284.4 7849.9 L 102109.1 6631.2 Z M 101048.6 10688.4 Q 101493.8 10358 101953 9912.8 Q 102412.2 9466.9 102825.9 8997.2 Q 103248.7 9036.4 103370.5 8796.3 L 101951.6 8093.5 Q 101689.1 8774.6 101399.3 9434 Q 101110.2 10093.4 100847.7 10559.6 L 101048.6 10688.4 Z M 98324.2 8337.1 Q 98560.1 8694.8 98768.7 9177.8 Q 98978 9661.5 99041 10115.1 Q 99487.6 10444.1 99817.3 10210.3 Q 100018.9 10069.6 100064.4 9798 Q 100110.6 9525.7 99916.7 9200.2 Q 99630.4 8677.3 98496.4 8265.7 L 98324.2 8337.1 Z M 95657.9 8695.5 Q 95872.8 9050.4 96068.1 9523.6 Q 96264.1 9996.8 96317.3 10458.8 Q 96745.7 10796.9 97082.4 10577.1 Q 97286.8 10446.2 97342.8 10181.6 Q 97398.1 9916.3 97216.8 9590.8 Q 96950.8 9067.2 95830.1 8624.1 L 95657.9 8695.5 Z M 91973.8 6918.2 Q 92444.2 7274.5 92896.4 7794.6 Q 93348.6 8314.7 93550.9 8853.7 Q 94077.3 9126 94375.5 8828.5 Q 94590.4 8615 94547 8251.7 Q 94503.6 7887.7 94089.2 7516.7 Q 93544.6 7008.5 92102.6 6789.4 L 91973.8 6918.2 Z M 90912.6 10157.8 Q 91349.4 10471.4 91756.8 10948.1 Q 92164.2 11425.5 92332.2 11921.1 Q 92856.5 12183.6 93149.1 11888.2 Q 93356.3 11681.7 93321.3 11340.8 Q 93286.3 10999.9 92910.4 10663.2 Q 92405.7 10189.3 91042.1 10029 L 90912.6 10157.8 Z M 94955.8 9254.8 Q 93919.1 11587.9 93376.6 12805.2 Q 92939.1 13787.3 92713.7 14285 Q 92488.3 14782.7 92384 14999 Q 92258.7 15258 92160 15433.7 Q 92050.1 15640.9 91977.3 15692 Q 91904.5 15743.1 91772.9 15734.7 L 91142.2 15734.7 L 91142.2 16035.7 Q 91579.7 16057.4 91844.3 16250.6 Q 92092.8 16434 92141.8 17218.7 Q 92191.5 18003.4 92031.2 19132.5 Q 92138.3 19834.6 92589.8 19849.3 Q 92991.6 19844.4 93229.6 19565.8 Q 93467.6 19287.2 93493.5 18788.1 Q 93512.4 18261 93430.5 17860.6 Q 93347.9 17460.2 93241.5 17134 Q 93095.2 16708.4 93063 16308 Q 93081.2 15745.2 93292.6 15032.6 Q 93401.8 14665.1 93724.5 13697.7 Q 93753.9 13610.9 93784 13520.6 Q 94119.3 12518.2 94508.5 11366 Q 94699.6 10799 94877.4 10272.6 Q 95054.5 9746.2 95199.4 9312.2 L 94955.8 9254.8 Z M 103786.3 16422.8 Q 104090.8 16426.3 104159.4 16193.2 Q 103766.7 15850.2 103360 15525.4 Q 103332.7 15503.7 103306.8 15482.7 Q 102912.7 15168.4 102883.3 15146.7 L 102181.2 16007 L 99456.8 16007 Q 99571.6 15623.4 99643.7 15218.8 Q 100112.7 15207.6 100173.6 14874.4 L 98983.6 14702.9 Q 100940.8 14373.2 102252.6 14128.9 Q 102560.6 14552.4 102697.1 14975.2 Q 103210.2 15244.7 103472 14922 Q 103655.4 14697.3 103587.5 14320.7 Q 103520.3 13944.1 103103.1 13550.7 Q 102539.6 12994.9 101091.3 12710 L 100962.5 12838.8 Q 101539.3 13232.9 102051.7 13842.6 Q 100521.5 13951.1 99152.3 14032.3 Q 97783.1 14114.2 96747.8 14157.6 Q 98273.8 13636.8 99716.5 13006.1 Q 99779.5 12978.8 99842.5 12950.8 Q 101272.6 12320.1 102209.2 11778.3 Q 102447.2 11858.8 102604 11819.6 Q 102760.8 11779.7 102825.9 11677.5 L 101607.2 10803.2 Q 101008.7 11290.4 100002.1 11907.1 Q 99145.3 11949.8 98342.4 11982 Q 97539.5 12014.9 96876.6 12035.9 Q 97553.5 11783.9 98179.3 11496.9 Q 98805.1 11209.2 99256.6 10946.7 Q 99493.2 11004.8 99641.6 10950.2 Q 99790 10895.6 99843.9 10803.2 L 98539.8 10057.7 Q 98159 10442.7 97459 10972.6 Q 97305 11087.4 97143.3 11198.7 Q 96409.7 11714.6 95701.3 11964.5 Q 95604 11987.6 95485.7 12010.7 Q 95367.4 12034.5 95356.9 12035.9 L 95958.9 13240.6 Q 96095.4 13175.5 96231.2 12982.3 Q 97757.9 12695.3 98994.8 12439.1 Q 99106.1 12416 99213.2 12394.3 Q 98298.3 12908.8 97335.1 13358.9 Q 96371.9 13808.3 95500.4 14086.2 Q 95357.6 14128.9 95199.4 14150.6 Q 95040.5 14172.3 95027.2 14172.3 L 95657.9 15448.4 Q 95811.9 15386.8 95944.9 15175.4 Q 97260.2 14982.2 98425 14788.3 Q 98381.6 15408.5 98210.1 16007 L 94267.7 16007 L 94381.8 16422.8 L 98080.6 16422.8 Q 97714.5 17439.2 96738.7 18270.8 Q 95762.2 19101.7 93923.3 19677.1 L 94009.4 19878 Q 96447.5 19354.4 97673.9 18467.5 Q 98900.3 17581.3 99328 16422.8 L 99485.5 16422.8 Q 99765.5 17248.8 100534.1 18151.8 Q 100637 18265.9 100751.1 18377.2 Q 101603 19265.5 103256.4 19849.3 Q 103310.3 19356.5 103555.3 19143 Q 103800.3 18930.2 104230.8 18845.5 L 104259.5 18674 Q 102362.5 18263.1 101301.3 17661.1 Q 100239.4 17059.8 99815.2 16422.8 L 103786.3 16422.8 Z M 116258.9 9856.8 L 116258.9 18028.6 L 112416.6 18028.6 L 112416.6 7520.2 Q 112690.3 7476.1 112805.8 7373.2 Q 112920.6 7270.3 112947.2 7119.1 L 111212.6 6932.2 L 111212.6 18028.6 L 107442.4 18028.6 L 107442.4 10487.5 Q 107951.3 10397.9 107987 10072.4 L 106252.4 9885.5 L 106252.4 17899.8 Q 106098.4 17978.2 105954.9 18080.4 Q 105811.4 18183.3 105721.8 18272.2 L 107098 19046.4 L 107542.5 18444.4 L 116258.9 18444.4 L 116258.9 19834.6 L 116473.8 19834.6 Q 116835.7 19823.4 117133.2 19687.6 Q 117430.7 19552.5 117448.9 19433.5 L 117448.9 10444.8 Q 117722.6 10400.7 117837.4 10297.8 Q 117952.9 10194.9 117978.8 10043.7 L 116258.9 9856.8 Z M 131971.1 8409.2 Q 132293.8 8412.7 132358.2 8179.6 Q 131977.4 7835.9 131563 7492.2 Q 131509.8 7448.1 131459.4 7406.1 Q 131068.1 7083.4 131039.4 7061.7 L 130307.9 7978.7 L 125261.6 7978.7 L 125376.4 8409.2 L 131971.1 8409.2 Z M 123068.5 6659.9 Q 122582 7529.3 121737.1 8574.4 Q 121634.2 8701.1 121527.1 8827.8 Q 120655.6 9870.1 119714.1 10688.4 L 119856.9 10845.9 Q 121091.7 10185.8 122186.5 9315.7 Q 123282 8445.6 124000.2 7677.7 Q 124444.7 7756.8 124544.8 7534.9 L 123068.5 6659.9 Z M 123197.3 9627.9 Q 122696.8 10643.6 121836.5 11893.8 Q 121606.9 12226.3 121360.5 12558.1 Q 120438.6 13806.2 119427.1 14803 L 119584.6 14960.5 Q 120785.1 14186.3 121835.8 13197.2 L 121835.8 19849.3 L 122050.7 19849.3 Q 122397.9 19837.4 122672.3 19714.9 Q 122946.7 19592.4 122982.4 19504.9 L 122982.4 12566.5 Q 123337.3 12491.6 123412.2 12308.2 L 122925 12122 Q 123667 11322.6 124172.4 10631 Q 124435.6 10672.3 124560.9 10627.5 Q 124686.9 10582.7 124745.7 10473.5 L 123197.3 9627.9 Z M 130881.2 11290.4 L 124473.4 11290.4 L 124588.2 11706.2 L 129117.9 11706.2 L 129117.9 18100 Q 129143.1 18419.2 128716.8 18415.7 Q 128483.7 18412.9 127892.2 18377.2 Q 127330.8 18343.6 126829.6 18310.7 Q 126301.8 18275 126265.4 18272.2 L 126265.4 18487.1 Q 126924.8 18572.5 127315.4 18684.5 Q 127706 18796.5 127913.9 18946.3 Q 128294 19211.6 128329.7 19777.2 Q 129549.1 19674.3 129929.9 19249.4 Q 129939 19240.3 129948.1 19230.5 Q 130314.9 18799.3 130279.2 18143.4 L 130279.2 11706.2 L 132573.1 11706.2 Q 132888.8 11709.7 132946.2 11477.3 Q 132579.4 11130.1 132156.6 10788.5 Q 132088 10732.5 132024.3 10680.7 Q 131628.1 10365 131598 10344.7 L 130881.2 11290.4 Z M 139426.1 11706.2 Q 140518.8 10892.8 141375.6 9584.5 L 146809 9584.5 Q 147120.5 9588 147196.1 9355.6 Q 146816 9002.8 146396.7 8657.7 Q 146340 8610.8 146286.8 8566.7 Q 145892 8244 145862.6 8223 L 145145.8 9168.7 L 141633.2 9168.7 Q 142121.1 8358.8 142479.5 7420.1 Q 142945 7412.4 143024.1 7147.8 L 141375.6 6631.2 Q 141042.4 8091.4 140472.6 9382.2 Q 139902.8 10673 139225.2 11562.7 L 139426.1 11706.2 Z M 135555.1 6760.7 Q 135949.2 7186.3 136281 7789 Q 136612.8 8392.4 136673 8968.5 Q 137150.4 9312.2 137471.7 9037.8 Q 137691.5 8851.6 137703.4 8491.8 Q 137716 8131.3 137413.6 7711.3 Q 137001.3 7107.9 135712.6 6659.9 L 135555.1 6760.7 Z M 137891.7 11935.8 L 136572.9 11935.8 Q 136637.3 10853.6 136659 9728 L 139727.1 9728 Q 140020.4 9731.5 140099.5 9498.4 Q 139737.6 9145.6 139328.1 8805.4 Q 139276.3 8761.3 139227.3 8720.7 Q 138838.8 8401.5 138809.4 8380.5 L 138106.6 9312.2 L 133949.3 9312.2 L 134064.1 9728 L 135497.7 9728 Q 135591.5 12448.9 135273.7 14983.6 Q 134955.9 17519 133877.9 19734.5 L 134064.1 19863.3 Q 135309.4 18285.5 135858.2 16381.5 Q 136407 14478.2 136544.2 12351.6 L 138021.2 12351.6 Q 137958.2 15164.2 137788.1 16614.6 Q 137618 18065 137318.4 18329.6 Q 137237.2 18424.1 137137.1 18457 Q 137037.7 18489.2 136859.9 18487.1 Q 136647.1 18485.7 136259.3 18461.9 Q 135871.5 18438.8 135540.4 18415.7 L 135540.4 18645.3 Q 136200.5 18755.9 136472.8 19017.7 Q 136701.7 19264.8 136673 19791.9 Q 137526.3 19810.1 138121.3 19247.3 Q 138553.9 18835.7 138781.4 17362.9 Q 138796.8 17261.4 138811.5 17153.6 Q 139027.8 15593.3 139096.4 12509.1 Q 139540.2 12451.7 139683.7 12265.5 L 138508.4 11290.4 L 137891.7 11935.8 Z M 145705.1 12108 Q 145420.2 12570.7 144909.2 13244.1 Q 144398.9 13916.8 143855.7 14530.7 Q 143307.6 13190.2 142995.4 11634.8 Q 143845.9 11494.8 144613.8 11324.7 Q 145381 11154.6 145920 10960.7 Q 146249.7 11097.2 146407.2 10932 L 145145.8 9971.6 Q 144575.3 10334.2 143698.2 10704.5 Q 142820.4 11074.8 141906.2 11362.5 L 140386.5 10903.3 L 140386.5 17827.7 Q 140399.1 18010.4 140269.6 18150.4 Q 140140.1 18290.4 139712.4 18515.8 L 140386.5 19834.6 Q 140576.2 19745 140744.9 19462.2 Q 141342.7 19110.1 141880.3 18771.3 Q 142417.2 18433.2 142847.7 18153.9 Q 143263.5 17884.4 143540 17712.9 L 143468.6 17512.7 Q 142418.6 17817.2 141475.7 18057.3 L 141475.7 11835.7 Q 142077.7 11770.6 142723.1 11663.5 Q 143032.5 14522.3 143852.2 16539.7 Q 144671.9 18556.4 146292.4 19749.2 Q 146416.3 19297 146679.5 19028.2 Q 146943.4 18759.4 147282.2 18674 L 147296.2 18515.8 Q 146221.7 17990.1 145402 17050 Q 144583 16109.9 144013.2 14874.4 Q 144726.5 14443.2 145375.4 13977 Q 146023.6 13510.8 146435.9 13154.5 Q 146643.8 13223.8 146797.8 13177.6 Q 146952.5 13131.4 147009.2 13039.7 L 145705.1 12108 Z M 152227.7 16150.5 Q 153821.6 16546.7 155068.3 17093.4 Q 156315 17639.4 156930.3 18100 Q 157455.3 18196.6 157599.5 17843.8 Q 157715.7 17549.1 157347.5 17134 Q 156979.3 16719.6 155934.2 16373.1 Q 154714.1 15958 152271.1 15920.9 L 152227.7 16150.5 Z M 153589.9 14243.7 Q 154427.1 14525.1 155046.6 14892.6 Q 155666.1 15260.1 155955.2 15562.5 Q 156416.5 15680.1 156580.3 15356.7 Q 156685.3 15145.3 156544.6 14863.9 Q 156403.9 14582.5 155932.1 14345.9 Q 155257.3 13986.1 153661.3 14014.8 L 153589.9 14243.7 Z M 156485.8 10015 Q 155876.1 11029.3 154922.7 11935.8 Q 153811.8 11286.9 153130.7 10358.7 Q 153253.2 10186.5 153375 10015 L 156485.8 10015 Z M 157245.3 8968.5 L 156557.2 9599.2 L 153632.6 9599.2 Q 153883.9 9179.9 154048.4 8781.6 Q 154453.7 8860.7 154535.6 8638.8 L 153059.3 8036.1 Q 152802.4 9058.1 152247.3 10218.7 Q 151692.2 11380 150951.6 12294.2 L 151081.1 12480.4 Q 151589.3 12099.6 152057.6 11627.8 Q 152525.9 11155.3 152915.8 10645.7 Q 153503.8 11663.5 154349.4 12423 Q 152751.3 13724.3 150679.3 14530.7 L 150808.8 14745.6 Q 153202.8 14082.7 154951.4 12924.9 Q 156356.3 13932.2 158234.4 14487.3 Q 158435.3 13692.1 159109.4 13541.6 L 159123.4 13383.4 Q 157288.7 13082.4 155711.6 12351.6 Q 156954.8 11366 157747.2 10143.8 Q 158009 10135.4 158139.9 10100.4 Q 158270.1 10066.1 158349.2 9971.6 L 157245.3 8968.5 Z M 150364.3 18387 L 150364.3 7950 L 159353 7950 L 159353 18387 L 150364.3 18387 Z M 159826.2 6832.1 L 159209.5 7534.9 L 150479.1 7534.9 L 149245.7 6960.9 L 149245.7 19849.3 L 149446.6 19849.3 Q 149823.9 19834.6 150088.5 19680.6 Q 150352.4 19526.6 150364.3 19404.8 L 150364.3 18816.8 L 159353 18816.8 L 159353 19763.2 L 159525.2 19763.2 Q 159847.9 19747.8 160157.3 19600.1 Q 160466.7 19452.4 160499.6 19362.1 L 160499.6 8165.6 Q 160947.6 8068.3 161116.3 7864.6 L 159826.2 6832.1 Z M 165015.3 19949.4 L 168871.6 13240.6 L 165015.3 6531.1 L 164599.5 6789.4 L 168298.3 13240.6 L 164599.5 19691.8 L 165015.3 19949.4 Z M 162979.7 19949.4 L 166822 13240.6 L 162979.7 6531.1 L 162563.9 6789.4 L 166248.7 13240.6 L 162563.9 19691.8 L 162979.7 19949.4 Z M 184864.6 10989.4 L 180965.6 10989.4 L 181094.4 11419.9 L 184864.6 11419.9 L 184864.6 15405 Q 183459 15886.6 182284.4 16252.7 Q 181109.8 16618.8 180521.1 16767.2 L 181223.2 18272.2 Q 181466.8 18182.6 181538.9 17899.8 Q 183642.4 16630.7 184864.6 15792.1 L 184864.6 19805.9 L 185065.5 19805.9 Q 185414.8 19796.1 185690.6 19664.5 Q 185967.1 19533.6 185983.2 19404.8 L 185983.2 7663.7 Q 186266.7 7619.6 186375.2 7516.7 Q 186484.4 7413.8 186499.1 7261.9 L 184864.6 7090.4 L 184864.6 10989.4 Z M 193380.1 16007 L 193208.6 16007 Q 193054.6 16687.4 192909 17264.9 Q 192763.4 17843.1 192663.3 18028.6 Q 192570.2 18207.8 192348.3 18214.8 Q 192043.8 18240 191158.3 18243.5 L 189910.9 18243.5 Q 189493.7 18245.6 189366.3 18137.8 Q 189238.9 18030 189251.5 17785 L 189251.5 13111.1 Q 190440.8 12523.8 191482.4 11817.5 Q 192524 11111.2 193208.6 10502.2 Q 193602.7 10642.2 193781.9 10416.1 L 192319.6 9412.3 Q 191758.2 10165.5 190952.5 11068.5 Q 190146.1 11971.5 189251.5 12767.4 L 189251.5 7677.7 Q 189731.7 7574.1 189738.7 7276.6 L 188090.2 7090.4 L 188090.2 18042.6 Q 188074.1 18762.2 188423.4 19046.4 Q 188773.4 19330.6 189682 19318.7 L 191100.9 19318.7 Q 192744.5 19325 193344.4 19164.7 Q 193945 19004.4 193910.7 18601.9 Q 193916.3 18443 193814.1 18324 Q 193711.9 18205.7 193437.5 18100 L 193380.1 16007 Z M 200390.6 6732 Q 200779.8 7070.1 201080.8 7593.7 Q 201381.1 8117.3 201437.1 8638.8 Q 201955.8 8980.4 202318.4 8722.8 Q 202601.9 8525.4 202629.2 8140.4 Q 202655.8 7755.4 202287.6 7358.5 Q 201835.4 6851 200519.4 6631.2 L 200390.6 6732 Z M 206211.1 9355.6 Q 206088.6 9778.4 205917.1 10243.9 Q 205746.3 10710.1 205580.4 11046.8 L 205737.9 11161.6 Q 206216.7 10856.4 206727 10416.1 Q 207238 9976.5 207587.3 9584.5 Q 207999.6 9577.5 208131.9 9441 L 206885.2 8223 L 206182.4 8939.8 L 196978.8 8939.8 Q 196928.4 8573.7 196792.6 8165.6 L 196548.3 8179.6 Q 196581.2 8836.9 196256.4 9357 Q 195931.6 9877.1 195501.8 10115.1 Q 195214.8 10269.8 195069.9 10518.3 Q 194925.7 10766.8 195014.6 11061.5 Q 195184.7 11382.8 195548.7 11430.4 Q 195912.7 11478 196233.3 11261.7 Q 196587.5 11036.3 196815.7 10561 Q 197043.9 10085.7 197021.5 9355.6 L 206211.1 9355.6 Z M 207415.1 12939.6 Q 207737.8 12943.1 207802.2 12710 Q 207410.2 12347.4 206982.5 12005.1 Q 206927.2 11960.3 206874.7 11918.3 Q 206470.8 11597.7 206440.7 11577.4 L 205695.2 12523.8 L 202096.5 12523.8 L 202096.5 10344.7 Q 202584.4 10251.6 202598.4 9942.9 L 200949.9 9770.7 L 200949.9 12523.8 L 195373 12523.8 L 195501.8 12939.6 L 200304.5 12939.6 Q 199543.6 14767.3 198154.1 16378 Q 196764.6 17988.7 194842.4 19117.8 L 194985.9 19333.4 Q 198967.5 17548.4 200949.9 14387.2 L 200949.9 19834.6 L 201164.8 19834.6 Q 201495.9 19824.1 201786.4 19695.3 Q 202077.6 19565.8 202096.5 19447.5 L 202096.5 12982.3 Q 202893.8 15069.7 204176.9 16652.4 Q 205460.7 18234.4 207085.4 19161.2 Q 207219.8 18760.8 207494.2 18515.8 Q 207768.6 18271.5 208117.9 18214.8 L 208146.6 18057.3 Q 206538.7 17425.9 205063.1 16175.7 Q 204900 16037.1 204741.1 15892.9 Q 203303.3 14588.1 202397.5 12939.6 L 207415.1 12939.6 Z M 214677.7 14544.7 Q 215139.7 14532.1 215440.7 14231.1 Q 215741.7 13930.8 215752.9 13498.2 Q 215741.7 13034.8 215440.7 12727.5 Q 215139.7 12420.2 214677.7 12409 Q 214225.5 12420.2 213926.6 12727.5 Q 213627.7 13034.8 213616.5 13498.2 Q 213627.7 13930.8 213926.6 14231.1 Q 214225.5 14532.1 214677.7 14544.7  Z M 225001.5 8810.3 L 225001.5 10402.1 L 225187.7 10402.1 Q 225556.6 10395.1 225831 10299.9 Q 226106.1 10204 226119.4 10100.4 L 226119.4 8810.3 L 229445.8 8810.3 L 229445.8 10344.7 L 229632 10344.7 Q 230048.5 10334.9 230309.6 10231.3 Q 230570 10128.4 230578.4 10043.7 L 230578.4 8810.3 L 233975.5 8810.3 Q 234284.2 8813.8 234333.9 8581.4 Q 233991.6 8246.8 233577.2 7905.2 Q 233501.6 7841.5 233430.9 7783.4 Q 233045.2 7469.8 233015.1 7448.8 L 232284.3 8394.5 L 230578.4 8394.5 L 230578.4 7176.5 Q 230852.1 7133.1 230965.5 7036.5 Q 231078.2 6939.9 231094.3 6789.4 L 229445.8 6631.2 L 229445.8 8394.5 L 226119.4 8394.5 L 226119.4 7176.5 Q 226393.8 7133.1 226506.5 7036.5 Q 226619.9 6939.9 226636 6789.4 L 225001.5 6631.2 L 225001.5 8394.5 L 221331.4 8394.5 L 221431.5 8810.3 L 225001.5 8810.3 Z M 222377.9 10301.3 Q 222848.3 10594.6 223292.1 11062.9 Q 223735.2 11531.2 223926.3 12007.2 Q 224452.7 12227 224715.9 11909.2 Q 224897.2 11691.5 224838.4 11359 Q 224779.6 11025.8 224392.5 10714.3 Q 223862.6 10265.6 222492.7 10172.5 L 222377.9 10301.3 Z M 221202.6 12495.1 Q 221671.6 12777.9 222089.5 13244.1 Q 222507.4 13709.6 222664.9 14186.3 Q 223180.1 14441.1 223455.2 14139.4 Q 223651.2 13928 223605.7 13587.8 Q 223559.5 13247.6 223178 12924.2 Q 222668.4 12470.6 221331.4 12365.6 L 221202.6 12495.1 Z M 225933.2 11190.3 Q 224701.2 13149.6 224081 14135.2 Q 223628.8 14853.4 223388.7 15232.8 Q 223148.6 15612.9 223034.5 15790 Q 222885.4 16022.4 222779.7 16179.2 Q 222648.8 16375.2 222569.7 16417.2 Q 222490.6 16459.9 222349.2 16451.5 L 221661.1 16451.5 L 221661.1 16738.5 Q 222087.4 16756 222363.9 16924.7 Q 222611 17071 222664.9 17671.6 Q 222718.8 18272.9 222578.8 19247.3 Q 222693.6 19838.8 223109.4 19849.3 Q 223532.2 19843.7 223772.3 19602.2 Q 224012.4 19360 224026.4 18946.3 Q 224039.7 18521.4 223962.7 18204.3 Q 223885.7 17887.2 223788.4 17633.1 Q 223649.1 17290.1 223625.3 16967.4 Q 223628.1 16727.3 223709.3 16444.5 Q 223790.5 16161 223911.6 15878.2 Q 224015.2 15618.5 224341.4 14955.6 Q 224667.6 14292.7 225078.5 13473 Q 225383.7 12864.7 225669.3 12289.3 Q 225954.9 11713.9 226162.8 11276.4 L 225933.2 11190.3 Z M 233846.7 16494.9 L 233660.5 16494.9 Q 233498.8 17115.1 233360.9 17561 Q 233223.7 18006.9 233115.9 18186.1 Q 232989.9 18365.3 232714.1 18372.3 Q 232502 18394 232026 18405.2 Q 231550 18415.7 230908.1 18415.7 L 228929.2 18415.7 Q 228395.8 18418.5 228225 18317 Q 228054.9 18215.5 228069.6 17971.2 L 228069.6 11562.7 L 231524.1 11562.7 L 231524.1 14616.8 Q 231556.3 14892.6 231223.1 14889.1 Q 230985.8 14886.3 230486.7 14854.8 Q 230220.7 14838.7 229979.2 14822.6 Q 229524.9 14791.8 229488.5 14788.3 L 229488.5 15017.9 Q 229967.3 15063.4 230252.2 15168.4 Q 230537.1 15273.4 230693.2 15405 Q 230969 15684.3 231008.2 16221.9 Q 232070.8 16111.3 232380.9 15731.2 Q 232691 15351.1 232656.7 14745.6 L 232656.7 11778.3 Q 233108.2 11670.5 233258.7 11477.3 L 231925.9 10502.2 L 231395.3 11147.6 L 228255.8 11147.6 L 226922.3 10602.3 L 226922.3 18214.8 Q 226899.9 18961 227302.4 19220 Q 227704.9 19479.7 228800.4 19462.2 L 230836 19476.2 Q 232738.6 19481.1 233514.9 19358.6 Q 233745.9 19322.2 233907.6 19272.5 Q 234441.7 19102.4 234406 18730.7 Q 234411.6 18571.8 234296.8 18454.9 Q 234181.3 18338.7 233875.4 18243.5 L 233846.7 16494.9 Z M 240813.8 6674.6 Q 241158.9 6967.2 241424.9 7416.6 Q 241691.6 7865.3 241746.2 8308.4 Q 242259.3 8631.8 242617 8384.7 Q 242887.2 8202.7 242919.4 7860.4 Q 242952.3 7518.8 242622.6 7177.2 Q 242205.4 6723.6 240943.3 6573.8 L 240813.8 6674.6 Z M 246992.7 8953.8 Q 246960.5 9240.8 246908.7 9538.3 Q 246856.9 9835.8 246792.5 10057.7 L 246663 9957.6 L 245917.5 10903.3 L 244627.4 10903.3 L 244627.4 9814.1 Q 245158 9721 245172 9412.3 L 243580.9 9254.8 L 243580.9 10903.3 L 240556.2 10903.3 L 240556.2 9785.4 Q 240831.3 9721.7 240950.3 9620.2 Q 241069.3 9519.4 241086.8 9369.6 L 239495 9226.1 L 239495 10903.3 L 236370.2 10903.3 L 236499 11319.1 L 239495 11319.1 L 239495 12480.4 L 239695.9 12480.4 Q 240013 12472.7 240276.2 12381.7 Q 240540.1 12290.7 240556.2 12208.1 L 240556.2 11319.1 L 243580.9 11319.1 L 243580.9 12523.8 L 243767.1 12523.8 Q 244084.2 12516.8 244348.1 12432.1 Q 244611.3 12347.4 244627.4 12265.5 L 244627.4 11319.1 L 247609.4 11319.1 Q 247942.6 11322.6 247996.5 11090.2 Q 247738.2 10845.9 247437.2 10593.2 Q 247136.2 10341.2 246921.3 10172.5 L 246964 10201.2 Q 247287.4 9988.4 247639.5 9706.3 Q 247992.3 9424.2 248240.1 9168.7 Q 248623.7 9165.2 248770.7 9011.2 L 247566 7849.9 L 246906.6 8538 L 237445.4 8538 Q 237402 8101.2 237229.8 7620.3 L 237000.9 7620.3 Q 237019.8 8184.5 236773.4 8678 Q 236526.3 9171.5 236169.3 9412.3 Q 235904 9546 235778.7 9772.8 Q 235653.4 9999.6 235753.5 10272.6 Q 235901.2 10570.1 236226.7 10598.8 Q 236551.5 10627.5 236828.7 10430.8 Q 237082.1 10236.2 237255 9864.5 Q 237427.9 9492.1 237445.4 8953.8 L 246992.7 8953.8 Z M 245244.1 17082.2 Q 245661.3 17069.6 245928.7 16960.4 Q 246195.4 16851.2 246204.5 16795.9 L 246204.5 13326 Q 246613.3 13258.1 246720.4 13082.4 L 245559.1 12194.1 L 245000.5 12838.8 L 239251.4 12838.8 L 237990 12322.9 L 237990 17197 L 238176.2 17197 Q 238600.4 17185.1 238844.7 17073.1 Q 239089 16961.8 239093.9 16896 L 239093.9 13211.9 L 245043.2 13211.9 L 245043.2 17082.2 L 245244.1 17082.2 Z M 247910.4 16824.6 L 247724.2 16824.6 Q 247603.8 17358 247485.5 17752.8 Q 247367.9 18146.9 247279.7 18315.6 Q 247197.1 18487.1 246964 18487.1 Q 246817 18498.3 246435.5 18506.7 Q 246054 18515.8 245530.4 18515.8 L 243925.3 18515.8 Q 243519.3 18518.6 243407.3 18461.9 Q 243294.6 18405.9 243308.6 18258.2 L 243308.6 15834.8 Q 243706.2 15759.9 243738.4 15491.1 L 242348.2 15347.6 Q 242443.4 14896.8 242482.6 14450.9 Q 242493.8 14348 242505.7 14243.7 Q 242939.7 14161.1 242964.2 13885.3 L 241315.7 13741.8 Q 241319.2 14763.1 241077 15725.6 Q 240909 16338.1 240496.7 16917.7 Q 240085.1 17497.3 239317.2 18037.7 Q 238131.4 18888.2 235710.8 19619.7 L 235839.6 19863.3 Q 238498.2 19247.3 239874.4 18466.8 Q 240771.8 17968.4 241287 17423.8 Q 242068.2 16571.9 242276.1 15663.3 L 242276.1 18487.1 Q 242253 19056.2 242552.6 19264.8 Q 242851.5 19474.1 243753.1 19462.2 L 245459 19462.2 Q 247126.4 19465 247750.8 19330.6 Q 247846.7 19310.3 247925.8 19287.2 Q 248434 19131.1 248397.6 18802.8 Q 248402.5 18653.7 248304.5 18548 Q 248207.2 18442.3 247953.1 18358.3 L 247910.4 16824.6 Z M 78844.1 34943.2 L 78844.1 31129.6 L 82743.1 31129.6 L 82743.1 34943.2 L 78844.1 34943.2 Z M 73754.4 34943.2 L 73754.4 31129.6 L 77654.1 31129.6 L 77654.1 34943.2 L 73754.4 34943.2 Z M 83231 30054.4 L 82599.6 30713.8 L 78844.1 30713.8 L 78844.1 28262.4 Q 79117.8 28217.6 79232.6 28108.4 Q 79348.1 27999.2 79374 27846.6 L 77654.1 27660.4 L 77654.1 30713.8 L 73869.2 30713.8 L 72579.1 30154.5 L 72579.1 36735.2 L 72765.3 36735.2 Q 73146.8 36720.5 73442.9 36577 Q 73738.3 36434.2 73754.4 36333.4 L 73754.4 35359 L 77654.1 35359 L 77654.1 40892.5 L 77883.7 40892.5 Q 78235.1 40878.5 78530.5 40722.4 Q 78825.2 40565.6 78844.1 40434 L 78844.1 35359 L 82743.1 35359 L 82743.1 36548.3 L 82944 36548.3 Q 83268.8 36536.4 83590.8 36413.9 Q 83912.8 36292.1 83947.8 36204.6 L 83947.8 31359.2 Q 84399.3 31251.4 84549.8 31058.2 L 83231 30054.4 Z M 95014.8 37365.9 L 93065.3 37365.9 L 93065.3 34169 L 95817.7 34169 Q 96125.7 34172.5 96176.1 33939.4 Q 95830.3 33602 95455.1 33287.7 Q 95441.1 33276.5 95427.8 33265.3 Q 95058.9 32957.3 95029.5 32935.6 L 94398.8 33753.2 L 93065.3 33753.2 L 93065.3 31158.3 L 96190.8 31158.3 Q 96495.3 31161.8 96563.2 30928.7 Q 96213.9 30589.2 95819.1 30272.1 Q 95786.9 30246.2 95756.1 30221 Q 95375.3 29916.5 95344.5 29896.9 L 94685.1 30728.5 L 88807.2 30728.5 L 88922 31158.3 L 91975.4 31158.3 L 91975.4 33753.2 L 89366.5 33753.2 L 89481.3 34169 L 91975.4 34169 L 91975.4 37365.9 L 88549.6 37365.9 L 88664.4 37781.7 L 96520.5 37781.7 Q 96825 37785.2 96892.9 37552.1 Q 96520.5 37216.1 96134.8 36886.4 Q 96113.1 36867.5 96092.1 36849.3 Q 95716.9 36528.7 95688.9 36505.6 L 95014.8 37365.9 Z M 93767.4 34627.5 Q 94116 34976.8 94418.4 35478.7 Q 94720.8 35981.3 94799.9 36448.2 Q 95243.7 36754.1 95525.1 36493.7 Q 95689.6 36341.8 95695.9 36068.1 Q 95702.2 35795.1 95476.1 35473.1 Q 95127.5 34937.6 93925.6 34527.4 L 93767.4 34627.5 Z M 87932.9 39415.5 L 87932.9 28993.2 L 97280 28993.2 L 97280 39415.5 L 87932.9 39415.5 Z M 97738.5 27875.3 L 97136.5 28578.1 L 88047.7 28578.1 L 86815 28004.1 L 86815 40877.8 L 87015.2 40877.8 Q 87402.3 40865.2 87662 40714.7 Q 87922.4 40564.9 87932.9 40434 L 87932.9 39831.3 L 97280 39831.3 L 97280 40806.4 L 97452.2 40806.4 Q 97784.7 40791 98089.9 40641.2 Q 98395.8 40492.1 98426.6 40390.6 L 98426.6 29194.1 Q 98878.8 29094 99029.3 28907.8 L 97738.5 27875.3 Z M 111343.7 30900 L 111343.7 39071.8 L 107501.4 39071.8 L 107501.4 28563.4 Q 107775.1 28519.3 107890.6 28416.4 Q 108005.4 28313.5 108032 28162.3 L 106297.4 27975.4 L 106297.4 39071.8 L 102527.2 39071.8 L 102527.2 31530.7 Q 103036.1 31441.1 103071.8 31115.6 L 101337.2 30928.7 L 101337.2 38943 Q 101183.2 39021.4 101039.7 39123.6 Q 100896.2 39226.5 100806.6 39315.4 L 102182.8 40089.6 L 102627.3 39487.6 L 111343.7 39487.6 L 111343.7 40877.8 L 111558.6 40877.8 Q 111920.5 40866.6 112218 40730.8 Q 112515.5 40595.7 112533.7 40476.7 L 112533.7 31488 Q 112807.4 31443.9 112922.2 31341 Q 113037.7 31238.1 113063.6 31086.9 L 111343.7 30900 Z M 119085 31100.9 L 118411.6 31789 L 114827.6 31789 L 114941.7 32190.8 L 118483 32190.8 Q 118101.5 34244.6 117128.5 36145.1 Q 116154.8 38046.3 114525.9 39401.5 L 114684.1 39573.7 Q 116743.5 38352.2 117899.9 36582.6 Q 118050.4 36360 118189 36131.8 Q 119248.8 34317.4 119701.7 32348.3 Q 119934.1 32328.7 120061.5 32285.3 Q 120189.6 32241.9 120260.3 32147.4 L 119085 31100.9 Z M 126066.8 30255.3 Q 125607.6 30993.1 124871.2 31948.6 Q 124135.5 32904.1 123343.1 33738.5 Q 122357.5 31982.9 121866.1 29452.4 L 121866.1 28262.4 Q 122128.6 28219.7 122235.7 28122.4 Q 122342.1 28025.8 122368 27875.3 L 120690.8 27689.1 L 120690.8 39186.6 Q 120712.5 39516.3 120346.4 39501.6 Q 120124.5 39498.8 119583.4 39463.8 Q 119175.3 39437.2 118807.8 39411.3 Q 118318.5 39375.6 118282.1 39372.8 L 118282.1 39602.4 Q 118854 39677.3 119178.1 39786.5 Q 119502.9 39896.4 119687 40046.9 Q 120013.2 40336.7 120060.1 40906.5 Q 121210.9 40791 121553.2 40400.4 Q 121570.7 40381.5 121587.5 40363.3 Q 121902.5 39959.4 121866.1 39286.7 L 121866.1 30484.2 Q 122443.6 33572.6 123535.6 35549.4 Q 123822.6 36081.4 124141.1 36554.6 Q 125352.1 38307.4 126955.8 39487.6 Q 127099.3 39073.9 127380 38808.6 Q 127661.4 38542.6 128031 38483.8 L 128073.7 38340.3 Q 126802.5 37673.2 125620.2 36621.8 Q 124437.9 35570.4 123500.6 34010.8 Q 124518.4 33380.1 125450.1 32652.8 Q 126381.8 31925.5 127013.2 31315.8 Q 127254.7 31368.3 127378.6 31331.9 Q 127501.8 31295.5 127571.8 31187 L 126066.8 30255.3 Z M 140187.9 39530.3 L 131055.7 39530.3 L 131055.7 31860.4 Q 131564.6 31778.5 131600.3 31459.3 L 129937.1 31273.1 L 129937.1 39401.5 Q 129607.4 39570.2 129407.2 39759.9 L 130726 40519.4 L 131170.5 39946.1 L 140187.9 39946.1 L 140187.9 40849.1 L 140402.8 40849.1 Q 140722 40837.9 140997.8 40711.2 Q 141273.6 40584.5 141291.8 40476.7 L 141291.8 31803.7 Q 141555 31760.3 141667.7 31663.7 Q 141780.4 31567.1 141807.7 31416.6 L 140187.9 31244.4 L 140187.9 39530.3 Z M 136116 37208.4 L 136116 34255.1 L 137793.2 34255.1 L 137793.2 37208.4 L 136116 37208.4 Z M 133435.7 34255.1 L 135126.9 34255.1 L 135126.9 37208.4 L 133435.7 37208.4 L 133435.7 34255.1 Z M 135126.9 31187 L 135126.9 33839.3 L 133435.7 33839.3 L 133435.7 31187 L 135126.9 31187 Z M 137793.2 31187 L 137793.2 33839.3 L 136116 33839.3 L 136116 31187 L 137793.2 31187 Z M 137951.4 38240.2 Q 138229.3 38229 138505.1 38112.8 Q 138780.2 37997.3 138811.7 37910.5 L 138811.7 31359.2 Q 139255.5 31258.4 139399 31072.2 L 138209 30140.5 L 137650.4 30757.2 L 133521.1 30757.2 L 132417.2 30255.3 L 132417.2 38455.1 L 132589.4 38455.1 Q 132924.7 38443.2 133173.9 38320.7 Q 133423.1 38198.9 133435.7 38111.4 L 133435.7 37623.5 L 137793.2 37623.5 L 137793.2 38240.2 L 137951.4 38240.2 Z M 140044.4 28879.1 L 129005.4 28879.1 L 129134.9 29308.9 L 141965.2 29308.9 Q 142277.4 29312.4 142352.3 29079.3 Q 141940 28708.3 141480.8 28355.5 Q 141395.4 28289.7 141317 28229.5 Q 140892.1 27908.9 140861.3 27890 L 140044.4 28879.1 Z M 146051.1 34025.5 L 146051.1 30685.1 L 149420.2 30685.1 L 149420.2 33824.6 L 149420.2 34025.5 L 146051.1 34025.5 Z M 154007.3 30685.1 L 154007.3 34025.5 L 150595.5 34025.5 L 150595.5 33824.6 L 150595.5 30685.1 L 154007.3 30685.1 Z M 154007.3 34455.3 L 154007.3 35501.8 L 154194.2 35501.8 Q 154516.2 35489.2 154819.3 35360.4 Q 155122.4 35231.6 155154.6 35143.4 L 155154.6 30900 Q 155613.1 30792.9 155770.6 30599 L 154466.5 29609.9 L 153864.5 30284 L 150595.5 30284 L 150595.5 28305.1 Q 150848.9 28261 150959.5 28160.2 Q 151070.1 28059.4 151097.4 27918 L 149420.2 27731.8 L 149420.2 30284 L 146151.2 30284 L 144904.5 29738.7 L 144904.5 35631.3 L 145076 35631.3 Q 145447.7 35618.7 145741 35487.8 Q 146034.3 35356.9 146051.1 35258.2 L 146051.1 34455.3 L 149405.5 34455.3 Q 149315.9 36165.4 148559.9 37466 Q 147355.9 36602.2 146667.8 35286.9 L 146452.2 35444.4 Q 147097.6 36985.8 148172.8 38010.6 Q 147481.9 38870.2 146312.9 39530.3 Q 145143.2 40191.1 143398.8 40662.9 L 143470.9 40906.5 Q 145386.8 40540.4 146707 39962.2 Q 148026.5 39384 148846.9 38598.6 Q 150106.2 39555.5 151798.1 40093.1 Q 153490 40630.7 155599.1 40877.8 Q 155795.8 40000 156573.5 39788.6 L 156588.2 39631.1 Q 154460.9 39521.2 152634.6 39134.8 Q 150809 38747.7 149391.5 37981.9 Q 150495.4 36519.6 150566.8 34455.3 L 154007.3 34455.3 Z M 168601.6 39717.2 L 164487 39717.2 L 164487 33509.6 L 169418.5 33509.6 Q 169741.2 33513.1 169805.6 33280 Q 169410.1 32921.6 168958.6 32559.7 Q 168861.3 32480.6 168772.4 32409.9 Q 168358.7 32082.3 168329.3 32061.3 L 167512.4 33107.8 L 164487 33107.8 L 164487 28419.9 Q 164750.9 28376.5 164863.6 28271.5 Q 164976.3 28165.8 165003.6 28004.1 L 163254.3 27817.9 L 163254.3 39717.2 L 157692.1 39717.2 L 157820.9 40147 L 170537.1 40147 Q 170848.6 40150.5 170924.2 39917.4 Q 170518.2 39549.9 170059.7 39185.9 Q 169959.6 39105.4 169868.6 39034 Q 169448.6 38705 169418.5 38684.7 L 168601.6 39717.2 Z M 173762.7 38469.8 L 173762.7 34684.9 L 176543.8 34684.9 L 176543.8 38469.8 L 173762.7 38469.8 Z M 176543.8 30699.8 L 176543.8 34269.1 L 173762.7 34269.1 L 173762.7 30699.8 L 176543.8 30699.8 Z M 176988.3 29609.9 L 176400.3 30284 L 174723.1 30284 Q 175019.2 29832.5 175323.7 29335.5 Q 175627.5 28839.2 175869.7 28419.9 Q 176325.4 28412.9 176415 28104.9 L 174680.4 27703.1 Q 174579.6 28294.6 174448.7 29004.4 Q 174318.5 29714.2 174207.2 30284 L 173834.1 30284 L 172687.5 29753.4 L 172687.5 40434 L 172888.4 40434 Q 173244 40420.7 173497.4 40281.4 Q 173750.8 40142.1 173762.7 40032.2 L 173762.7 38885.6 L 176543.8 38885.6 L 176543.8 39989.5 L 176701.3 39989.5 Q 177012.1 39975.5 177306.8 39840.4 Q 177602.2 39706 177633 39616.4 L 177633 30914.7 Q 178081 30796.4 178249.7 30613.7 L 176988.3 29609.9 Z M 183998.8 29538.5 L 183324.7 30269.3 L 180428.8 30269.3 Q 180841.1 29416.7 181188.3 28477.3 Q 181636.3 28455.6 181718.9 28176.3 L 180027.7 27703.1 Q 179680.5 29374.7 179091.8 30919.6 Q 178503.1 32465.2 177833.9 33567 L 178034.8 33695.8 Q 179274.5 32502.3 180213.9 30685.1 L 183468.2 30685.1 Q 183410.8 34380.4 183224.6 36602.2 Q 183037.7 38824.7 182636.6 39229.3 Q 182545.6 39345.5 182430.8 39388.9 Q 182315.3 39432.3 182106 39430.2 Q 181807.1 39426.7 181206.5 39378.4 Q 180605.9 39329.4 180070.4 39272.7 L 180056.4 39516.3 Q 180538.7 39603.1 180930.7 39727.7 Q 181322 39852.3 181504 40003.5 Q 181819.7 40282.8 181791 40863.8 Q 182944.6 40882 183583 40147 Q 184089.1 39530.3 184319.4 37228 Q 184549 34925.7 184614.8 30857.3 Q 185084.5 30799.9 185231.5 30613.7 L 183998.8 29538.5 Z M 179081.3 33308.7 Q 179618.9 33901.6 180080.9 34711.5 Q 180543.6 35522.1 180672.4 36276 Q 181196.7 36651.9 181530.6 36343.2 Q 181778.4 36115 181754.6 35645.3 Q 181731.5 35176.3 181298.2 34607.2 Q 180744.5 33854.7 179224.8 33208.6 L 179081.3 33308.7 Z M 199079.6 29395 Q 199410 29398.5 199481.4 29165.4 Q 199054.4 28795.8 198588.9 28430.4 Q 198491.6 28353.4 198403.4 28284.8 Q 197977.1 27953.7 197947.7 27932.7 L 197116.1 28965.2 L 186450.2 28965.2 L 186579 29395 L 192829.3 29395 Q 192125.8 31367.6 190743.3 33360.5 Q 190242.1 34082.9 189675.1 34776.6 Q 188110.6 36690.4 186234.6 38154.1 L 186392.8 38326.3 Q 188162.4 37272.8 189677.2 35874.9 Q 191192 34477 192370.8 32864.2 L 192370.8 40906.5 L 192585.7 40906.5 Q 192927.3 40895.3 193219.9 40781.2 Q 193513.2 40667.8 193532.1 40591.5 L 193532.1 32133.4 Q 193915.7 32061.3 193976.6 31860.4 L 193216.4 31574.1 Q 193908 30505.9 194363.7 29395 L 199079.6 29395 Z M 194176.8 33107.8 Q 195108.5 33751.8 196143.8 34641.5 Q 196659.7 35088.1 197128.7 35555.7 Q 198072.3 36487.4 198549.7 37337.2 Q 199182.5 37615.8 199408.6 37192.3 Q 199593.4 36840.2 199277 36182.9 Q 198960.6 35525.6 197951.2 34741.6 Q 196762.6 33805.7 194306.3 32964.3 L 194176.8 33107.8 Z M 204212 31445.3 L 206319.7 31445.3 Q 206624.2 31448.8 206692.1 31215.7 Q 206347 30867.8 205955.7 30532.5 Q 205915.8 30498.2 205878 30466 Q 205503.5 30147.5 205474.1 30125.8 L 204800 31029.5 L 204212 31029.5 L 204212 28191 Q 204495.5 28148.3 204606.8 28048.9 Q 204717.4 27950.2 204742.6 27789.2 L 203122.8 27603 L 203122.8 31029.5 L 200685.4 31029.5 L 200800.2 31445.3 L 202907.9 31445.3 Q 202598.5 33120.4 202025.9 34710.1 Q 201453.3 36299.8 200585.3 37566.8 L 200786.2 37753 Q 202244.3 36283.7 203122.8 34383.9 L 203122.8 40906.5 L 203352.4 40906.5 Q 203669.5 40895.3 203932.7 40759.5 Q 204195.9 40624.4 204212 40505.4 L 204212 33093.8 Q 204601.2 33590.1 204934.4 34194.2 Q 205267.6 34797.6 205388 35359 Q 205887.1 35697.8 206197.9 35409.4 Q 206400.2 35221.1 206391.1 34858.5 Q 206382 34496.6 206060.7 34054.9 Q 205604.3 33395.5 204212 32821.5 L 204212 31445.3 Z M 213702.6 29452.4 Q 214000.1 29455.9 214061 29222.8 Q 213697.7 28877.7 213277.7 28526.3 Q 213202.8 28463.3 213134.2 28405.9 Q 212742.9 28083.2 212713.5 28061.5 L 211968 29036.6 L 205861.2 29036.6 L 205975.3 29452.4 L 208341.3 29452.4 Q 208167 30175.5 207853.4 31169.5 Q 207816.3 31287.1 207777.8 31405.4 Q 207456.5 32404.3 207151.3 33208.6 Q 206785.2 33347.9 206549.3 33509.6 L 207709.9 34383.9 L 208211.8 33824.6 L 211996.7 33824.6 Q 211844.8 35806.3 211580.2 37270.7 Q 211541.7 37477.2 211501.8 37667.6 Q 211222.5 39021.4 210850.1 39358.8 Q 210726.9 39473.6 210588.3 39510.7 Q 210449 39547.8 210218.7 39545 Q 209942.2 39540.8 209268.1 39484.1 Q 209252.7 39482.7 209236.6 39481.3 Q 208558.3 39423.9 207928.3 39365.1 Q 207805.8 39353.9 207695.9 39344.1 L 207681.2 39587.7 Q 208227.2 39666.1 208724.2 39801.2 Q 209221.9 39935.6 209445.2 40089.6 Q 209792.4 40340.2 209774.9 40849.1 Q 211011.1 40863.8 211667 40275.8 Q 212247.3 39738.2 212614.8 38071.5 Q 212983 36405.5 213143.3 33996.8 Q 213594.8 33946.4 213746 33767.2 L 212527.3 32735.4 L 211867.9 33408.8 L 208240.5 33408.8 Q 208541.5 32552 208894.3 31496.4 L 208955.9 31311.6 Q 209306.6 30258.1 209545.3 29452.4 L 213702.6 29452.4 Z M 226146.5 36591.7 L 222218.1 36591.7 L 222218.1 33709.8 L 226791.2 33709.8 Q 227103.4 33714 227178.3 33480.9 Q 226783.5 33132.3 226353 32778.8 Q 226283 32721.4 226218.6 32668.2 Q 225816.8 32341.3 225788.1 32319.6 L 225042.6 33294 L 222218.1 33294 L 222218.1 30642.4 L 227407.9 30642.4 Q 227719.4 30642.4 227795 30426.8 Q 227393.2 30052.3 226952.2 29683.4 Q 226872.4 29615.5 226798.2 29553.9 Q 226390.8 29215.8 226361.4 29194.1 L 225573.2 30226.6 L 222218.1 30226.6 L 222218.1 28262.4 Q 222482 28217.6 222592.6 28108.4 Q 222703.2 27999.2 222720 27846.6 L 220999.4 27660.4 L 220999.4 30226.6 L 215680.8 30226.6 L 215810.3 30642.4 L 220999.4 30642.4 L 220999.4 33294 L 216397.6 33294 L 216512.4 33709.8 L 220999.4 33709.8 L 220999.4 36591.7 L 215064.8 36591.7 L 215179.6 37007.5 L 220999.4 37007.5 L 220999.4 40892.5 L 221243.7 40892.5 Q 221605.6 40878.5 221903.1 40722.4 Q 222200.6 40565.6 222218.1 40434 L 222218.1 37007.5 L 228053.3 37007.5 Q 228383 37011 228454.4 36777.9 Q 228047.7 36399.2 227593.4 36026.1 Q 227496.8 35946.3 227409.3 35874.9 Q 226992.8 35537.5 226963.4 35516.5 L 226146.5 36591.7 Z M 236167 33982.8 L 236167 32090 L 238016.4 32090 Q 238031.1 33068.6 237744.1 33982.8 L 236167 33982.8 Z M 238016.4 29824.8 L 238016.4 31660.2 L 236167 31660.2 L 236167 29824.8 L 238016.4 29824.8 Z M 240883.6 29824.8 L 240883.6 31660.2 L 239062.9 31660.2 L 239062.9 29824.8 L 240883.6 29824.8 Z M 238776.6 33982.8 Q 239069.9 33036.4 239062.9 32090 L 240883.6 32090 L 240883.6 33982.8 L 238776.6 33982.8 Z M 235177.9 36964.1 Q 236626.2 36465 237437.5 35811.9 Q 238248.8 35159.5 238589.7 34412.6 L 240883.6 34412.6 L 240883.6 35000.6 L 241055.8 35000.6 Q 241355.4 34989.4 241641.7 34882.3 Q 241928 34774.5 241958.8 34699.6 L 241958.8 30011.7 Q 242403.3 29917.9 242546.8 29738.7 L 241314.1 28807 L 240740.1 29409 L 238088.5 29409 Q 238339.8 29156.3 238588.3 28882.6 Q 238836.8 28608.2 239034.2 28377.2 Q 239510.9 28366 239578.8 28032.8 L 237786.8 27689.1 Q 237730.1 28079 237638.4 28549.4 Q 237546.7 29019.8 237457.1 29409 L 236253.1 29409 L 235091.8 28907.8 L 235091.8 35244.2 L 235264 35244.2 Q 235611.9 35231.6 235882.1 35100.7 Q 236152.3 34969.8 236167 34871.1 L 236167 34412.6 L 237571.9 34412.6 Q 237269.5 35060.1 236663.3 35660 Q 236057.1 36259.2 235034.4 36777.9 L 235177.9 36964.1 Z M 231450.4 38068 L 231450.4 33552.3 L 233127.6 33552.3 L 233127.6 38068 L 231450.4 38068 Z M 233529.4 32534.5 L 232998.8 33122.5 L 231622.6 33122.5 L 231364.3 33021.7 Q 232031.4 31355.7 232354.1 29495.1 L 234561.2 29495.1 Q 234880.4 29498.6 234919.6 29266.2 Q 234552.1 28919 234144 28594.9 Q 234104.1 28562.7 234066.3 28533.3 Q 233674.3 28225.3 233644.2 28205 L 232956.1 29079.3 L 229386.1 29079.3 L 229500.9 29495.1 L 231206.8 29495.1 Q 230949.9 31263.3 230461.3 33034.3 Q 229973.4 34805.3 229242.6 36262 L 229458.2 36405.5 Q 230002.8 35699.2 230461.3 34885.8 L 230461.3 40118.3 L 230633.5 40118.3 Q 231004.5 40104.3 231225 39980.4 Q 231445.5 39856.5 231450.4 39788.6 L 231450.4 38483.8 L 233127.6 38483.8 L 233127.6 39415.5 L 233285.8 39415.5 Q 233563.7 39404.3 233839.5 39299.3 Q 234114.6 39194.3 234146.1 39129.2 L 234146.1 33724.5 Q 234572.4 33620.2 234719.4 33452.2 L 233529.4 32534.5 Z M 240711.4 37122.3 L 239808.4 37122.3 L 239808.4 35387.7 Q 240313.8 35301.6 240324.3 35000.6 L 238719.2 34828.4 L 238719.2 37122.3 L 234274.9 37122.3 L 234389.7 37538.1 L 238719.2 37538.1 L 238719.2 40892.5 L 238919.4 40892.5 Q 239238.6 40882.7 239514.4 40779.8 Q 239790.9 40676.2 239808.4 40591.5 L 239808.4 37538.1 L 242360.6 37538.1 Q 242693.8 37541.6 242747.7 37308.5 Q 242377.4 36945.9 241966.5 36591.7 Q 241911.2 36544.1 241860.1 36500 Q 241471.6 36168.9 241442.9 36147.2 L 240711.4 37122.3 Z M 244367.5 42655.8 Q 245533 42065.7 246005.5 41145.2 Q 246477.3 40224.7 246460.5 39344.1 Q 246454.9 38700.1 246150.4 38317.2 Q 245845.9 37934.3 245313.2 37925.2 Q 244837.2 37937.1 244575.4 38218.5 Q 244313.6 38499.9 244310.1 38899.6 Q 244338.8 39473.6 244767.9 39749.4 Q 245197 40025.2 245677.2 40172.2 Q 245681.4 40174.3 245686.3 40175.7 Q 245647.1 40662.9 245304.8 41227.8 Q 244961.8 41792.7 244137.9 42268.7 L 244367.5 42655.8 Z M 70687 54178.1 L 73081 54178.1 L 73081 56112.9 L 70687 56112.9 L 70687 54178.1 Z M 75460.3 49532.9 L 75460.3 51439.7 L 67331.9 51439.7 L 67331.9 49532.9 L 75460.3 49532.9 Z M 75546.4 56715.6 Q 75199.2 57087.3 74668.6 57613 Q 74138 58138.7 73596.9 58607.7 Q 72546.9 57794.3 71948.4 56528.7 L 77338.4 56528.7 Q 77654.1 56532.2 77711.5 56299.8 Q 77341.2 55937.9 76925.4 55590.7 Q 76868 55542.4 76814.8 55497.6 Q 76422.1 55173.5 76392.7 55152.5 L 75675.9 56112.9 L 74170.2 56112.9 L 74170.2 54178.1 L 76478.8 54178.1 Q 76793.8 54181.6 76851.2 53948.5 Q 76481.6 53597.8 76082.6 53266 Q 76049.7 53238.7 76018.2 53212.1 Q 75633.2 52894.3 75603.8 52873.3 L 74915.7 53762.3 L 74170.2 53762.3 L 74170.2 52658.4 Q 74618.2 52557.6 74614.7 52285.3 L 73081 52141.8 L 73081 53762.3 L 70687 53762.3 L 70687 52629.7 Q 71113.3 52528.9 71130.8 52256.6 L 69583.1 52127.8 L 69583.1 53762.3 L 67475.4 53762.3 L 67590.2 54178.1 L 69583.1 54178.1 L 69583.1 56112.9 L 67103 56112.9 Q 67248.6 55174.2 67292.7 54278.2 Q 67336.8 53382.2 67331.9 52572.3 L 67331.9 51855.5 L 75460.3 51855.5 L 75460.3 52400.1 L 75647.2 52400.1 Q 75939.1 52389.6 76242.2 52281.8 Q 76544.6 52174 76578.9 52099.1 L 76578.9 49747.8 Q 77026.9 49629.5 77195.6 49446.8 L 75904.8 48486.4 L 75317.5 49117.1 L 67532.8 49117.1 L 66170.6 48586.5 L 66170.6 52586.3 Q 66201.4 54614.9 65940.3 56688.3 Q 65886.4 57065.6 65815.7 57440.1 Q 65460.8 59495.3 64378.6 61317.4 L 64594.2 61446.2 Q 65668 60359.1 66244.1 59073.2 Q 66820.9 57788 67045.6 56442.6 L 67074.3 56528.7 L 68880.3 56528.7 L 68880.3 59654.2 Q 68890.1 59806.1 68787.2 59928.6 Q 68684.3 60050.4 68349.7 60256.2 L 69167.3 61532.3 Q 69324.8 61442.7 69439.6 61245.3 Q 70388.1 60687.4 71170.7 60198.8 Q 71952.6 59710.9 72406.9 59410.6 L 72349.5 59209.7 Q 71069.9 59647.2 69984.2 59955.2 L 69984.2 56528.7 L 71647.4 56528.7 Q 72267.6 58548.9 73562.6 59717.2 Q 74858.3 60884.8 76865.2 61474.9 Q 77109.5 60632.8 77826.3 60457.1 L 77855 60284.9 Q 76701.4 60095.2 75706 59743.8 Q 74711.3 59392.4 73912.6 58837.3 Q 74579.7 58562.2 75211.8 58259.8 Q 75843.9 57958.1 76306.6 57704.7 Q 76729.4 57840.5 76851.2 57632.6 L 75546.4 56715.6 Z M 85782.5 49676.4 L 90069.3 49676.4 L 90069.3 56858.4 L 90255.5 56858.4 Q 90652.4 56844.4 90914.9 56720.5 Q 91177.4 56596.6 91187.2 56528.7 L 91187.2 49805.2 Q 91635.2 49730.3 91760.5 49547.6 L 90585.2 48629.9 L 90011.9 49289.3 L 85940 49289.3 L 84707.3 48787.4 L 84707.3 57030.6 L 84893.5 57030.6 Q 85306.5 57018 85542.4 56898.3 Q 85778.3 56777.9 85782.5 56700.9 L 85782.5 49676.4 Z M 84134 57274.2 Q 82951 57639.6 81854.8 57962.3 L 81854.8 54178.1 L 83703.5 54178.1 Q 84001 54181.6 84061.9 53948.5 Q 83749.7 53608.3 83405.3 53275.1 Q 83393.4 53263.9 83382.2 53252.7 Q 83043.4 52925.8 83015.4 52902 L 82413.4 53762.3 L 81854.8 53762.3 L 81854.8 50034.8 L 83919.1 50034.8 Q 84230.6 50038.3 84306.2 49805.2 Q 83938.7 49455.2 83540.4 49118.5 Q 83504.7 49088.4 83470.4 49059 Q 83087.5 48737.7 83058.8 48716 L 82356 49619 L 78729.3 49619 L 78844.1 50034.8 L 80736.2 50034.8 L 80736.2 53762.3 L 78915.5 53762.3 L 79030.3 54178.1 L 80736.2 54178.1 L 80736.2 58278 Q 80063.5 58471.9 79525.2 58609.1 Q 78986.2 58747 78657.2 58822.6 L 79346 60184.8 Q 79589.6 60095.2 79661 59811.7 Q 82678.7 58331.9 84191.4 57475.1 L 84134 57274.2 Z M 91760.5 58134.5 L 91574.3 58134.5 Q 91453.2 58757.5 91337.7 59286.7 Q 91222.2 59815.9 91144.5 59997.9 Q 91083.6 60188.3 90914.9 60184.8 Q 90852.6 60184.8 90734.3 60189 Q 90518.7 60196.7 90154.7 60198.8 L 89323.8 60198.8 Q 89083.7 60200.9 89013.7 60147 Q 88943 60092.4 88950.7 59955.2 L 88950.7 56170.3 Q 89352.5 56098.9 89366.5 55811.9 L 88147.8 55683.1 Q 88315.8 54740.2 88366.9 53685.3 Q 88417.3 52629.7 88430.6 51453 Q 88432.7 51339.6 88434.8 51224.8 Q 88687.5 51191.2 88798.8 51090.4 Q 88909.4 50989.6 88936.7 50837.7 L 87316.2 50679.5 Q 87315.5 50998 87315.5 51306.7 Q 87350.5 53382.9 87167.8 55088.1 Q 87035.5 56200.4 86658.9 57167.8 Q 86281.6 58135.2 85539.6 58967.5 Q 84421 60243.6 82083.7 61231.3 L 82227.2 61474.9 Q 84818.6 60609 86121.3 59430.2 Q 86204.6 59356.7 86283.7 59282.5 Q 87520.6 58084.1 87932.9 56572.1 L 87932.9 60227.5 Q 87914.7 60747.6 88146.4 60963.9 Q 88378.1 61180.2 89079.5 61173.9 L 90098 61173.9 Q 91308.3 61173.2 91747.9 61005.2 Q 92187.5 60837.9 92162.3 60514.5 Q 92167.9 60365.4 92095.8 60259.7 Q 92023.7 60154 91803.9 60070 L 91760.5 58134.5 Z M 104476.7 48730 L 103673.8 49475.5 L 94183.2 49475.5 L 94312.7 49877.3 L 103458.9 49877.3 Q 102859.7 50487 102026.7 51210.1 Q 101194.4 51933.2 100348.1 52543.6 L 99200.8 52428.8 L 99200.8 59754.3 Q 99222.5 60091.7 98813.7 60084 Q 98575.7 60081.2 97974.4 60046.9 Q 97385.7 60012.6 96862.1 59978.3 Q 96327.3 59943.3 96290.9 59941.2 L 96290.9 60156.1 Q 96960.8 60240.8 97353.5 60352.8 Q 97746.2 60464.8 97954.1 60614.6 Q 98164.1 60763.7 98262.1 60966 Q 98359.4 61168.3 98397.9 61446.2 Q 99640.4 61332.1 100033.1 60954.1 Q 100069.5 60921.9 100101.7 60887.6 Q 100441.9 60486.5 100405.5 59826.4 L 100405.5 52973.4 Q 100853.5 52905.5 100892.7 52601 L 100806.6 52586.3 Q 101977 52031.2 103114.5 51344.5 Q 104252.7 50657.8 105122.1 50048.8 Q 105594.6 50045.3 105766.8 49891.3 L 104476.7 48730 Z M 116949.3 48013.2 Q 115847.5 48517.9 115407.9 49328.5 Q 114967.6 50139.8 114985.1 50880.4 Q 114990.7 51518.1 115273.5 51856.9 Q 115556.3 52196.4 116045.6 52199.2 Q 116482.4 52191.5 116741.4 51950 Q 117000.4 51709.2 117006 51324.9 Q 116993.4 50786.6 116639.2 50511.5 Q 116284.3 50236.4 115744.6 50106.2 Q 115780.3 49714.9 116117.7 49242.4 Q 116454.4 48770.6 117178.2 48400.3 L 116949.3 48013.2 Z M 119974 48013.2 Q 118872.9 48517.9 118432.6 49328.5 Q 117993 50139.8 118009.8 50880.4 Q 118015.4 51518.1 118298.2 51856.9 Q 118581 52196.4 119071 52199.2 Q 119516.2 52191.5 119771.7 51950 Q 120026.5 51709.2 120031.4 51324.9 Q 120018.1 50786.6 119663.9 50511.5 Q 119309.7 50236.4 118770 50106.2 Q 118814.8 49714.9 119149.4 49242.4 Q 119484.7 48770.6 120217.6 48400.3 L 119974 48013.2 Z M 122740.4 50837.7 Q 122757.2 51626.6 122524.1 52367.9 Q 122290.3 53109.2 121995.6 53490 Q 121786.3 53687.4 121722.6 53914.2 Q 121659.6 54141.7 121794.7 54349.6 Q 121994.2 54557.5 122298 54475.6 Q 122602.5 54393 122812.5 54106 Q 123098.1 53698.6 123196.1 52855.1 Q 123293.4 52012.3 122998.7 50851.7 L 122740.4 50837.7 Z M 123844.3 48242.8 L 123844.3 61474.9 L 124059.9 61474.9 Q 124386.8 61464.4 124652.8 61334.9 Q 124918.8 61206.1 124934.2 61087.8 L 124934.2 48830.8 Q 125197.4 48786.7 125310.8 48683.8 Q 125423.5 48580.2 125450.1 48429 L 123844.3 48242.8 Z M 125091.7 50493.3 Q 125349.3 50918.9 125546.7 51500.6 Q 125744.8 52082.3 125765.8 52615 Q 126168.3 52966.4 126468.6 52703.2 Q 126631.7 52559.7 126672.3 52285.3 Q 126712.9 52010.9 126567.3 51659.5 Q 126333.5 51037.2 125277.9 50407.2 L 125091.7 50493.3 Z M 128432.1 57977 L 128432.1 56672.2 L 132646.8 56672.2 L 132646.8 57977 L 128432.1 57977 Z M 132646.8 54995 L 132646.8 56256.4 L 128432.1 56256.4 L 128432.1 54995 L 132646.8 54995 Z M 132503.3 54565.2 L 128518.2 54565.2 L 127314.2 54034.6 L 127314.2 61446.2 L 127500.4 61446.2 Q 127869.3 61432.9 128143.7 61295.7 Q 128418.1 61158.5 128432.1 61059.1 L 128432.1 58392.8 L 132646.8 58392.8 L 132646.8 59826.4 Q 132675.5 60120.4 132360.5 60112.7 Q 132163.1 60109.9 131727.7 60080.5 Q 131565.3 60070 131414.1 60059.5 Q 131006 60030.1 130969.6 60026.6 L 130969.6 60242.2 Q 131382.6 60305.9 131618.5 60405.3 Q 131853.7 60504 131987.4 60643.3 Q 132205.8 60905.1 132231 61446.2 Q 133220.8 61348.2 133509.2 60978.6 Q 133796.9 60609 133765.4 59983.9 L 133765.4 55195.9 Q 134223.9 55095.1 134381.4 54908.9 L 133048.6 53905.1 L 132503.3 54565.2 Z M 133277.5 53088.2 L 130983.6 53088.2 L 130983.6 51812.1 L 134195.2 51812.1 Q 134506.7 51815.6 134582.3 51583.2 Q 134208.5 51238.8 133810.9 50918.9 Q 133788.5 50900 133766.1 50881.8 Q 133379 50571.7 133349.6 50550.7 L 132690.2 51396.3 L 130983.6 51396.3 L 130983.6 50207 L 134639.7 50207 Q 134937.2 50210.5 134998.1 49977.4 Q 134635.5 49652.6 134230.9 49325 Q 134181.9 49285.1 134135.7 49248 Q 133751.4 48937.9 133722 48916.2 L 133033.9 49791.2 L 130983.6 49791.2 L 130983.6 48844.8 Q 131446.3 48755.2 131456.8 48472.4 L 129865.7 48314.2 L 129865.7 49791.2 L 126381.8 49791.2 L 126496.6 50207 L 129865.7 50207 L 129865.7 51396.3 L 127013.2 51396.3 L 127127.3 51812.1 L 129865.7 51812.1 L 129865.7 53088.2 L 126023.4 53088.2 L 126138.2 53518 L 134854.6 53518 Q 135166.8 53522.2 135241.7 53289.1 Q 134863 52939.1 134456.3 52608 Q 134420.6 52579.3 134386.3 52551.3 Q 133995.7 52234.9 133965.6 52213.9 L 133277.5 53088.2 Z M 145922.3 49475.5 L 145922.3 50565.4 L 139786.1 50565.4 L 139786.1 49475.5 L 145922.3 49475.5 Z M 139786.1 52099.1 L 139786.1 50981.2 L 145922.3 50981.2 L 145922.3 52099.1 L 139786.1 52099.1 Z M 139786.1 52514.9 L 145922.3 52514.9 L 145922.3 53059.5 L 146093.8 53059.5 Q 146407.4 53047.6 146721 52934.2 Q 147034.6 52820.1 147068.9 52744.5 L 147068.9 49690.4 Q 147498.7 49583.3 147670.9 49389.4 L 146366.8 48415 L 145778.8 49059.7 L 139872.2 49059.7 L 138653.5 48543.8 L 138653.5 53231.7 L 138825.7 53231.7 Q 139186.9 53221.2 139478.1 53102.9 Q 139769.3 52984.6 139786.1 52887.3 L 139786.1 52514.9 Z M 140144.5 55683.1 L 145535.2 55683.1 L 145535.2 57317.6 L 140144.5 57317.6 L 140144.5 55683.1 Z M 145535.2 57733.4 L 145535.2 58234.6 L 145721.4 58234.6 Q 146025.2 58225.5 146343 58121.9 Q 146660.8 58018.3 146696.5 57933.6 L 146696.5 55898 Q 147136.8 55790.9 147298.5 55597 L 145979.7 54621.9 L 145391.7 55267.3 L 140230.6 55267.3 L 138997.9 54751.4 L 138997.9 58349.4 L 139170.1 58349.4 Q 139467.6 58342.4 139700 58249.3 Q 139202.3 58950 138325.9 59693.4 Q 137448.8 60437.5 136489.1 60944.3 L 136617.9 61130.5 Q 137814.2 60812.7 138897.1 60252.7 Q 139980.7 59692.7 140660.4 59094.9 Q 140893.5 59146.7 141010.4 59104 Q 141127.3 59061.3 141177 58951.4 L 139757.4 58234.6 Q 140122.8 58109.3 140144.5 58005.7 L 140144.5 57733.4 L 142223.5 57733.4 L 142223.5 59955.2 Q 142252.2 60205.8 141936.5 60198.8 Q 141730 60196 141259.6 60168.7 Q 141028.6 60156.1 140816.5 60142.8 Q 140381.8 60115.5 140345.4 60112.7 L 140345.4 60327.6 Q 140812.3 60382.9 141078.3 60483.7 Q 141343.6 60584.5 141478 60714.7 Q 141732.1 60969.5 141750.3 61460.2 Q 142773.7 61361.5 143087.3 60985.6 Q 143400.9 60609.7 143370.1 59983.9 L 143370.1 57733.4 L 145535.2 57733.4 Z M 144502.7 58707.8 Q 145686.4 59256.6 146509.6 59910.4 Q 147333.5 60564.2 147656.9 61059.1 Q 148187.5 61280.3 148458.4 60954.1 Q 148688.7 60674.8 148502.5 60200.9 Q 148316.3 59726.3 147511.3 59263.6 Q 146593.6 58725.3 144574.8 58492.9 L 144502.7 58707.8 Z M 147226.4 53833.7 L 143112.5 53833.7 Q 143465.3 53669.9 143448.5 53289.1 Q 143431.7 53080.5 143226.6 52896.4 Q 142887.8 52559 141807.7 52586.3 L 141692.9 52715.8 Q 141972.2 52885.2 142221.4 53176.4 Q 142471.3 53466.9 142567.2 53776.3 Q 142631.6 53815.5 142696.7 53833.7 L 136403 53833.7 L 136531.8 54263.5 L 148846.9 54263.5 Q 149158.4 54267.7 149234 54034.6 Q 148856 53678.3 148439.5 53351.4 Q 148398.2 53319.2 148359 53288.4 Q 147960 52979 147929.2 52959.4 L 147226.4 53833.7 Z M 155369.5 48342.9 Q 155852.5 48758 156297.7 49369.8 Q 156742.9 49981.6 156903.2 50579.4 Q 157445.7 50883.2 157767 50577.3 Q 158009.2 50348.4 157974.9 49936.1 Q 157940.6 49523.8 157504.5 49091.2 Q 156952.9 48523.5 155498.3 48228.1 L 155369.5 48342.9 Z M 163311.7 51282.2 Q 163644.9 51285.7 163698.8 51052.6 Q 163320.8 50670.4 162893.8 50284.7 Q 162807.7 50206.3 162729.3 50135.6 Q 162336.6 49784.9 162307.9 49762.5 L 161548.4 50851.7 L 150667.6 50851.7 L 150781.7 51282.2 L 163311.7 51282.2 Z M 158580.4 51884.2 Q 159416.9 52458.2 160266 53287 Q 160441.7 53459.9 160607.6 53637.7 Q 161412.6 54488.9 161792 55296 Q 162399.6 55575.3 162664.2 55187.5 Q 162876.3 54874.6 162674 54308.3 Q 162471 53742.7 161689.8 53107.1 Q 160750.4 52327.3 158695.2 51740.7 L 158580.4 51884.2 Z M 151226.2 55754.5 Q 152584.2 55162.3 153676.2 54285.2 Q 154767.5 53408.1 155426.9 52514.9 Q 155669.8 52556.2 155788.8 52511.4 Q 155907.8 52466.6 155957.5 52357.4 L 154365.7 51568.5 Q 153919.8 52576.5 153053.9 53669.9 Q 153049 53676.2 153044.1 53681.8 Q 152176.1 54775.2 151097.4 55568.3 L 151226.2 55754.5 Z M 159183.1 53948.5 Q 158480.3 55858.8 157046.7 57446.4 Q 155394.7 56120.6 154537.9 54192.1 L 154308.3 54349.6 Q 155072 56511.2 156502.1 58005.7 Q 154243.9 60181.3 150480.7 61260 L 150566.8 61474.9 Q 152651.4 61103.9 154303.4 60389.2 Q 155954.7 59673.8 157190.2 58679.1 Q 158321.4 59664.7 159729.1 60351.4 Q 161137.5 61038.1 162795.8 61474.9 Q 163060.4 60596.4 163885 60471.1 L 163913.7 60299.6 Q 162228.1 59999.3 160698.6 59444.2 Q 159169.1 58889.1 157892.3 58063.1 Q 159408.5 56614.8 160214.9 54822.8 Q 160478.8 54864.8 160611.1 54817.2 Q 160743.4 54770.3 160802.9 54650.6 L 159183.1 53948.5 Z M 170508.4 49404.1 L 165017.6 49404.1 L 165132.4 49819.9 L 171942 49819.9 Q 172236 49823.4 172314.4 49590.3 Q 171945.5 49250.1 171564 48935.1 L 171545.8 48919.7 Q 171168.5 48608.2 171139.1 48586.5 L 170508.4 49404.1 Z M 167024.5 52916 L 167024.5 51353.6 L 170006.5 51353.6 L 170006.5 52916 L 167024.5 52916 Z M 170178.7 53848.4 Q 170446.8 53837.2 170719.8 53730.1 Q 170992.8 53622.3 171024.3 53546.7 L 171024.3 51497.1 Q 171414.9 51411 171568.9 51238.8 L 170407.6 50378.5 L 169877.7 50923.8 L 167096.6 50923.8 L 166021.4 50464.6 L 166021.4 53905.1 L 166164.2 53905.1 Q 166482 53895.3 166745.2 53794.5 Q 167008.4 53693 167024.5 53618.8 L 167024.5 53346.5 L 170006.5 53346.5 L 170006.5 53848.4 L 170178.7 53848.4 Z M 171024.3 53848.4 L 170522.4 54435.7 L 166522.6 54435.7 L 165347.3 53933.8 L 165347.3 61446.2 L 165519.5 61446.2 Q 165899.6 61433.6 166115.9 61313.2 Q 166332.2 61193.5 166336.4 61116.5 L 166336.4 54866.2 L 170665.9 54866.2 L 170665.9 57375 Q 170421.6 57126.5 170180.1 56927 Q 169938.6 56726.8 169920.4 56715.6 L 169504.6 57245.5 L 169017.4 57245.5 Q 169312.8 56850 169567.6 56451.7 Q 169822.4 56053.4 169977.8 55754.5 Q 170192.7 55779.7 170311 55697.1 Q 170429.3 55615.2 170451 55510.9 L 169261 55081.1 Q 169189.6 55490.6 169030 56098.9 Q 168869.7 56707.2 168701.7 57245.5 L 166422.5 57245.5 L 166537.3 57661.3 L 168028.3 57661.3 L 168028.3 60614.6 L 168171.8 60614.6 Q 168520.4 60604.1 168723.4 60506.8 Q 168927.1 60410.2 168931.3 60356.3 L 168931.3 57661.3 L 170379.6 57661.3 Q 170576.3 57664.8 170665.9 57561.2 L 170665.9 60026.6 Q 170684.1 60295.4 170422.3 60284.9 Q 170232.6 60280.7 169877.7 60251.3 Q 169846.9 60249.2 169816.8 60246.4 Q 169469.6 60217 169433.2 60213.5 L 169433.2 60442.4 Q 170010 60546.7 170178.7 60758.1 Q 170375.4 60998.2 170379.6 61431.5 Q 171190.9 61346.1 171421.9 61021.3 Q 171653.6 60696.5 171626.3 60127.4 L 171626.3 55052.4 Q 171854.5 55015.3 172015.5 54930.6 Q 172176.5 54845.2 172243 54765.4 L 171024.3 53848.4 Z M 166924.4 55253.3 Q 167127.4 55587.9 167284.2 56043.6 Q 167441.7 56498.6 167440.3 56930.5 Q 167794.5 57240.6 168063.3 56998.4 Q 168323 56763.2 168177.4 56250.8 Q 168029 55724.4 167110.6 55167.2 L 166924.4 55253.3 Z M 175468.6 55668.4 L 175468.6 51740.7 L 176629.9 51740.7 L 176629.9 55668.4 L 175468.6 55668.4 Z M 173360.9 51740.7 L 174536.9 51740.7 L 174536.9 55668.4 L 173360.9 55668.4 L 173360.9 51740.7 Z M 176773.4 56858.4 Q 177050.6 56845.8 177319.4 56726.1 Q 177588.9 56605.7 177619 56528.7 L 177619 51898.2 Q 178027.8 51794.6 178178.3 51625.9 L 177031 50736.9 L 176486.4 51310.9 L 175526 51310.9 L 175526 48902.2 Q 176020.2 48826.6 176041.9 48515.1 L 174479.5 48357.6 L 174479.5 51310.9 L 173433 51310.9 L 172400.5 50851.7 L 172400.5 57145.4 L 172558 57145.4 Q 172871.6 57134.2 173110.3 57018 Q 173348.3 56901.8 173360.9 56815.7 L 173360.9 56084.2 L 174479.5 56084.2 L 174479.5 59654.2 Q 173687.1 59730.5 173047.3 59788.6 Q 172408.2 59846 172013.4 59869.1 L 172530 61302.7 Q 172780.6 61263.5 172902.4 60987.7 Q 175414.7 60256.2 176873.5 59740.3 Q 177059.7 60474.6 177074.4 61145.2 Q 177537.1 61569.4 177852.1 61203.3 Q 178039.7 60981.4 178063.5 60539.7 Q 178086.6 60097.3 177864 59506.5 Q 177525.9 58553.8 176300.2 57460.4 L 176114 57532.5 Q 176482.9 58345.9 176787.4 59395.9 L 175511.3 59539.4 L 175511.3 56084.2 L 176629.9 56084.2 L 176629.9 56858.4 L 176773.4 56858.4 Z M 182980.3 52199.2 Q 184077.2 51707.1 184517.5 50896.5 L 184525.9 50882.5 Q 184961.3 50071.2 184944.5 49332 Q 184938.9 48695 184656.1 48355.5 Q 184373.3 48016.7 183884 48013.2 Q 183447.2 48021.6 183188.2 48269.4 Q 182929.2 48517.2 182923.6 48902.2 Q 182936.2 49430 183290.4 49703 Q 183645.3 49976 184185 50106.2 Q 184149.3 50497.5 183811.9 50972.1 Q 183475.2 51446 182751.4 51826.8 L 182980.3 52199.2 Z M 179955.6 52199.2 Q 181051.8 51707.1 181492.8 50896.5 L 181501.2 50882.5 Q 181936.6 50071.2 181919.8 49332 Q 181914.2 48695 181631.4 48355.5 Q 181348.6 48016.7 180858.6 48013.2 Q 180413.4 48021.6 180157.9 48269.4 Q 179903.1 48517.2 179898.2 48902.2 Q 179911.5 49430 180265.7 49703 Q 180619.9 49976 181159.6 50106.2 Q 181114.8 50497.5 180780.2 50972.1 Q 180444.9 51446 179712 51826.8 L 179955.6 52199.2 Z M 195266.7 59052.2 L 195266.7 55267.3 L 198047.8 55267.3 L 198047.8 59052.2 L 195266.7 59052.2 Z M 198047.8 51282.2 L 198047.8 54851.5 L 195266.7 54851.5 L 195266.7 51282.2 L 198047.8 51282.2 Z M 198492.3 50192.3 L 197904.3 50866.4 L 196227.1 50866.4 Q 196523.2 50414.9 196827.7 49917.9 Q 197131.5 49421.6 197373.7 49002.3 Q 197829.4 48995.3 197919 48687.3 L 196184.4 48285.5 Q 196083.6 48877 195952.7 49586.8 Q 195822.5 50296.6 195711.2 50866.4 L 195338.1 50866.4 L 194191.5 50335.8 L 194191.5 61016.4 L 194392.4 61016.4 Q 194748 61003.1 195001.4 60863.8 Q 195254.8 60724.5 195266.7 60614.6 L 195266.7 59468 L 198047.8 59468 L 198047.8 60571.9 L 198205.3 60571.9 Q 198516.1 60557.9 198810.8 60422.8 Q 199106.2 60288.4 199137 60198.8 L 199137 51497.1 Q 199585 51378.8 199753.7 51196.1 L 198492.3 50192.3 Z M 205502.8 50120.9 L 204828.7 50851.7 L 201932.8 50851.7 Q 202345.1 49999.1 202692.3 49059.7 Q 203140.3 49038 203222.9 48758.7 L 201531.7 48285.5 Q 201184.5 49957.1 200595.8 51502 Q 200007.1 53047.6 199337.9 54149.4 L 199538.8 54278.2 Q 200778.5 53084.7 201717.9 51267.5 L 204972.2 51267.5 Q 204914.8 54962.8 204728.6 57184.6 Q 204541.7 59407.1 204140.6 59811.7 Q 204049.6 59927.9 203934.8 59971.3 Q 203819.3 60014.7 203610 60012.6 Q 203311.1 60009.1 202710.5 59960.8 Q 202109.9 59911.8 201574.4 59855.1 L 201560.4 60098.7 Q 202042.7 60185.5 202434.7 60310.1 Q 202826 60434.7 203008 60585.9 Q 203323.7 60865.2 203295 61446.2 Q 204448.6 61464.4 205087 60729.4 Q 205593.1 60112.7 205823.4 57810.4 Q 206053 55508.1 206118.8 51439.7 Q 206588.5 51382.3 206735.5 51196.1 L 205502.8 50120.9 Z M 200585.3 53891.1 Q 201122.9 54484 201584.9 55293.9 Q 202047.6 56104.5 202176.4 56858.4 Q 202700.7 57234.3 203034.6 56925.6 Q 203282.4 56697.4 203258.6 56227.7 Q 203235.5 55758.7 202802.2 55189.6 Q 202248.5 54437.1 200728.8 53791 L 200585.3 53891.1 Z M 217645 49504.2 L 217645 50679.5 L 211394.7 50679.5 L 211394.7 49504.2 L 217645 49504.2 Z M 211394.7 52328.7 L 211394.7 51095.3 L 217645 51095.3 L 217645 52328.7 L 211394.7 52328.7 Z M 211394.7 52744.5 L 217645 52744.5 L 217645 53289.1 L 217831.2 53289.1 Q 218135 53277.9 218445.8 53170.8 Q 218757.3 53063 218791.6 52988.1 L 218791.6 49719.1 Q 219239.6 49608.5 219408.3 49432.8 L 218103.5 48443.7 L 217501.5 49088.4 L 211480.8 49088.4 L 210262.1 48572.5 L 210262.1 53432.6 L 210419.6 53432.6 Q 210791.3 53420.7 211084.6 53296.1 Q 211377.9 53171.5 211394.7 53074.2 L 211394.7 52744.5 Z M 210634.5 57690 L 213085.9 57690 L 213085.9 58894 Q 211763.6 59087.9 210634.5 59238.4 L 210634.5 57690 Z M 213085.9 54249.5 L 213085.9 55539.6 L 210634.5 55539.6 L 210634.5 54249.5 L 213085.9 54249.5 Z M 210634.5 55970.1 L 213085.9 55970.1 L 213085.9 57274.2 L 210634.5 57274.2 L 210634.5 55970.1 Z M 215523.3 58550.3 L 214175.8 58751.2 L 214175.8 54249.5 L 220684.4 54249.5 Q 221003.6 54253 221085.5 54019.9 Q 220697 53659.4 220272.1 53307.3 Q 220210.5 53255.5 220152.4 53207.9 Q 219753.4 52880.3 219724 52858.6 L 218978.5 53833.7 L 207868.1 53833.7 L 207996.9 54249.5 L 209559.3 54249.5 L 209559.3 59381.9 Q 209434.7 59396.6 209315.7 59411.3 Q 208405 59525.4 207868.1 59568.1 L 208384 60901.6 Q 208634.6 60851.2 208756.4 60585.9 Q 211074.8 60007 212803.1 59555.5 Q 212946.6 59518.4 213085.9 59482 L 213085.9 61488.9 L 213272.8 61488.9 Q 213685.1 61476.3 213923.1 61358 Q 214161.1 61240.4 214175.8 61173.9 L 214175.8 59181 Q 214303.2 59144.6 214426.4 59108.9 Q 215022.8 58936.7 215552 58793.9 L 215523.3 58550.3 Z M 218576.7 55869.3 Q 218189.6 57220.3 217415.4 58378.1 Q 216304.5 57414.2 215752.9 55869.3 L 218576.7 55869.3 Z M 219207.4 54794.1 L 218534 55439.5 L 214505.5 55439.5 L 214634.3 55869.3 L 215465.9 55869.3 Q 215913.9 57823 216899.5 59066.2 Q 215853 60327.6 214247.2 61159.2 L 214376.7 61360.1 Q 216200.9 60697.2 217401.4 59625.5 Q 218490.6 60711.2 220182.5 61346.1 Q 220440.8 60489.3 221171.6 60342.3 L 221200.3 60184.8 Q 219426.5 59779.5 218103.5 58922.7 Q 219232.6 57611.6 219781.4 55998.8 Q 220024.3 55980.6 220152.4 55941.4 Q 220279.8 55901.5 220340 55797.9 L 219207.4 54794.1 Z M 227321.8 58851.3 L 227321.8 57174.1 L 230332.5 57174.1 L 230332.5 58851.3 L 227321.8 58851.3 Z M 231421.7 57331.6 Q 231812.3 57245.5 231967 57074 L 230762.3 56185 L 230203.7 56758.3 L 227393.2 56758.3 L 226246.6 56256.4 L 226246.6 60156.1 L 226404.1 60156.1 Q 226743.6 60143.5 227024.3 60021.7 Q 227305 59899.2 227321.8 59811.7 L 227321.8 59281.1 L 230332.5 59281.1 L 230332.5 59955.2 L 230504.7 59955.2 Q 230805 59942.6 231097.6 59822.9 Q 231390.2 59702.5 231421.7 59625.5 L 231421.7 57331.6 Z M 233257.1 55209.9 L 224569.4 55209.9 L 223322 54665.3 L 223322 61460.2 L 223508.2 61460.2 Q 223868.7 61446.9 224153.6 61309.7 Q 224438.5 61173.2 224454.6 61073.1 L 224454.6 55625.7 L 233400.6 55625.7 L 233400.6 59912.5 Q 233425.1 60205.8 233084.9 60198.8 Q 232852.5 60196 232366 60169.4 Q 232124.5 60156.1 231904 60142.8 Q 231458.1 60115.5 231421.7 60112.7 L 231421.7 60313.6 Q 231900.5 60378.7 232174.9 60482.3 Q 232448.6 60585.2 232583 60714.7 Q 232851.8 60973 232884 61488.9 Q 233957.1 61381.8 234269.3 61016.4 Q 234581.5 60650.3 234547.2 60026.6 L 234547.2 55840.6 Q 234998.7 55730 235149.2 55554.3 L 233816.4 54565.2 L 233257.1 55209.9 Z M 226562.3 53618.8 L 226562.3 51955.6 L 231178.1 51955.6 L 231178.1 53618.8 L 226562.3 53618.8 Z M 231364.3 54607.9 Q 231668.1 54598.1 231979.6 54496.6 Q 232290.4 54395.8 232325.4 54320.9 L 232325.4 52170.5 Q 232776.9 52063.4 232927.4 51869.5 L 231622.6 50895.1 L 231034.6 51539.8 L 226633.7 51539.8 L 225429.7 51009.2 L 225429.7 54722.7 L 225601.2 54722.7 Q 225953.3 54710.1 226248.7 54589.7 Q 226543.4 54470 226562.3 54393 L 226562.3 54034.6 L 231178.1 54034.6 L 231178.1 54607.9 L 231364.3 54607.9 Z M 233027.5 50006.1 L 229443.5 50006.1 Q 229768.3 49731.7 229621.3 49237.5 Q 229531.7 48977.1 229239.8 48732.1 Q 228723.2 48267.3 227336.5 48128 L 227207 48256.8 Q 227666.9 48562.7 228089 49045.7 Q 228511.1 49528.7 228669.3 50006.1 L 222390.3 50006.1 L 222505.1 50421.9 L 234948.3 50421.9 Q 235264 50425.4 235321.4 50192.3 Q 234909.8 49829.7 234456.2 49474.1 Q 234371.5 49407.6 234293.8 49347.4 Q 233874.5 49023.3 233844.4 49002.3 L 233027.5 50006.1 Z M 240840.9 52959.4 L 249413.8 52959.4 Q 249736.5 52962.9 249800.9 52729.8 Q 249428.5 52388.2 249027.4 52069 Q 248999.4 52046.6 248972.1 52025.6 Q 248583.6 51718.3 248553.5 51698 L 247894.1 52543.6 L 246159.5 52543.6 Q 246541 52195 246901.5 51840.8 Q 247261.3 51487.3 247535.7 51181.4 Q 247980.2 51224.8 248080.3 50966.5 L 246531.9 50378.5 Q 246377.2 50867.8 246160.9 51455.8 Q 245944.6 52043.8 245715 52543.6 L 240726.1 52543.6 L 240840.9 52959.4 Z M 242317.2 50594.1 Q 242642 50898.6 242912.2 51362.7 Q 243183.1 51826.1 243248.9 52271.3 Q 243717.9 52593.3 244041.3 52350.4 Q 244256.2 52191.5 244282.8 51893.3 Q 244310.1 51594.4 244051.8 51264.7 Q 243691.3 50774.7 242489.4 50493.3 L 242317.2 50594.1 Z M 241242 50292.4 L 249069.4 50292.4 Q 249363.4 50296.6 249442.5 50063.5 Q 249075 49714.9 248671.1 49384.5 Q 248634 49353 248597.6 49323.6 Q 248210.5 49009.3 248180.4 48988.3 L 247507 49862.6 L 245471.4 49862.6 Q 245821.4 49637.2 245743 49177.3 Q 245705.2 49012.1 245577.1 48844.8 Q 245260 48380.7 244109.2 48128 L 243965.7 48214.1 Q 244223.3 48506.7 244431.9 48934.4 Q 244640.5 49362.1 244682.5 49762.5 Q 244720.3 49797.5 244759.5 49822.7 Q 244791.7 49843.7 244812 49862.6 L 241127.2 49862.6 L 241242 50292.4 Z M 241270.7 56185 Q 240983 56301.2 240694.6 56416.7 Q 239961.7 56709.3 239292.5 56987.9 L 239292.5 52242.6 L 240998.4 52242.6 Q 241302.9 52246.1 241370.8 52013 Q 241074 51670.7 240720.5 51334.7 Q 240693.2 51308.8 240667.3 51283.6 Q 240324.3 50960.2 240295.6 50937.8 L 239708.3 51826.8 L 239292.5 51826.8 L 239292.5 48916.2 Q 239576.7 48882.6 239692.2 48781.8 Q 239807 48681 239823.1 48529.1 L 238188.6 48357.6 L 238188.6 51826.8 L 236540.1 51826.8 L 236654.9 52242.6 L 238188.6 52242.6 L 238188.6 57432.4 Q 237987.7 57508 237801.5 57579.4 Q 236976.2 57898.6 236525.4 58048.4 L 237385.7 59381.9 Q 237579.6 59277.6 237644 58980.1 Q 240127.6 57317.6 241342.8 56342.5 L 241270.7 56185 Z M 242675.6 55783.2 L 247363.5 55783.2 L 247363.5 56887.1 L 242675.6 56887.1 L 242675.6 55783.2 Z M 247363.5 54292.2 L 247363.5 55367.4 L 242675.6 55367.4 L 242675.6 54292.2 L 247363.5 54292.2 Z M 249341.7 58421.5 L 249170.2 58421.5 Q 249124 58601.4 249080.6 58774.3 Q 248981.2 59179.6 248895.8 59484.8 Q 248810.4 59790 248739.7 59912.5 Q 248678.8 60066.5 248510.8 60070 L 247765.3 60070 L 246962.4 60070 Q 246732.8 60072.1 246664.9 60028.7 Q 246596.3 59985.3 246604 59869.1 L 246604 57460.4 L 246604 57302.9 L 247363.5 57302.9 L 247363.5 57833.5 L 247535.7 57833.5 Q 247826.2 57823 248116 57715.2 Q 248406.5 57607.4 248438.7 57532.5 L 248438.7 54450.4 Q 248840.5 54357.3 248983.3 54178.1 L 247779.3 53289.1 L 247234.7 53862.4 L 242761.7 53862.4 L 241571.7 53375.2 L 241571.7 57962.3 L 241743.9 57962.3 Q 242093.9 57951.8 242376.7 57833.5 Q 242658.8 57715.2 242675.6 57618.6 L 242675.6 57302.9 L 243378.4 57302.9 Q 243339.2 58120.5 242918.5 58912.9 Q 242667.9 59357.4 242190.5 59785.1 Q 241365.2 60548.1 239478.7 61231.3 L 239636.2 61460.2 Q 241833.5 60875 242887 60119 Q 243603.1 59615.7 243971.3 59057.8 Q 244501.9 58218.5 244611.1 57302.9 L 245528.8 57302.9 L 245528.8 60084 Q 245507.8 60603.4 245731.1 60813.4 Q 245954.4 61023.4 246675.4 61016.4 L 247693.2 61016.4 Q 248914 61017.1 249349.4 60870.8 Q 249784.8 60724.5 249757.5 60413.7 Q 249762.4 60265.3 249684 60159.6 Q 249605.6 60053.9 249385.1 59969.2 L 249341.7 58421.5 Z M 254015.6 51769.4 L 256925.5 51769.4 L 256925.5 53604.1 L 254015.6 53604.1 L 254015.6 51769.4 Z M 256925.5 49475.5 L 256925.5 51353.6 L 254015.6 51353.6 L 254015.6 49475.5 L 256925.5 49475.5 Z M 261040.1 49475.5 L 261040.1 51353.6 L 258058.1 51353.6 L 258058.1 49475.5 L 261040.1 49475.5 Z M 258058.1 53604.1 L 258058.1 51769.4 L 261040.1 51769.4 L 261040.1 53604.1 L 258058.1 53604.1 Z M 257126.4 54034.6 L 261040.1 54034.6 L 261040.1 54708 L 261226.3 54708 Q 261539.2 54696.8 261846.5 54581.3 Q 262153.8 54465.1 262186.7 54378.3 L 262186.7 49690.4 Q 262649.4 49583.3 262789.4 49389.4 L 261498.6 48386.3 L 260896.6 49059.7 L 254115.7 49059.7 L 252883 48515.1 L 252883 54880.2 L 253069.2 54880.2 Q 253429.7 54866.2 253714.6 54731.8 Q 253999.5 54596.7 254015.6 54507.8 L 254015.6 54034.6 L 256739.3 54034.6 Q 255977 54939 254539.2 55778.3 Q 254285.8 55926.7 254018.4 56068.8 Q 252500.1 56874.5 250761.3 57375 L 250804 57603.9 Q 251872.9 57408.6 252883 57107.6 Q 253892.4 56807.3 254789.8 56428.6 L 254789.8 57977 Q 254824.8 58852.7 254305.4 59651.4 Q 254175.2 59836.9 254000.9 60014.7 Q 253290.4 60777.7 251506.8 61317.4 L 251621.6 61517.6 Q 253698.5 61091.3 254632.3 60401.8 Q 255146.1 60037.1 255423.3 59624.8 Q 255916.8 58847.1 255907.7 58005.7 L 255907.7 56873.1 Q 256149.9 56838.8 256250 56742.2 Q 256350.1 56645.6 256366.9 56514.7 L 254947.3 56357.2 Q 256656.7 55611.7 257657 54822.8 Q 258177.8 55338 258895.3 55762.2 Q 259612.1 56185.7 260466.8 56528.7 L 259004.5 56371.2 L 259004.5 61488.9 L 259219.4 61488.9 Q 259558.9 61477.7 259839.6 61362.2 Q 260119.6 61246 260137.1 61159.2 L 260137.1 56901.8 Q 260570.4 56808.7 260595.6 56586.1 Q 261910.9 57069.8 263420.1 57360.3 Q 263471.9 57039 263674.2 56754.8 Q 263877.2 56470.6 264251.7 56342.5 L 264265.7 56112.9 Q 262395.3 56023.3 260704.8 55654.4 Q 259015 55285.5 257885.9 54679.3 Q 258203 54649.2 258339.5 54586.2 Q 258476 54523.9 258502.6 54407 L 257126.4 54034.6 Z " fill-rule="nonzero" style="fill:#333333;;fill-opacity:1;"/>
</svg>