<svg version="1.1" x="0" y="0" width="100%" height="100%" viewBox="0 0 179148.8 83865.6" xmlns="http://www.w3.org/2000/svg">
  <path d="M 16978.25 6804.15 L 16978.25 6727.65 L 12185.75 6727.65 L 12185.75 21227.4 L 16978.25 21227.4 L 16978.25 21150.9 Q 15689 20049.9 14829.5 18203.4 Q 13970 16356.9 13937 13977.9 Q 13970 11598.15 14829.5 9751.65 Q 15689 7905.15 16978.25 6804.15  Z M 31247 8279.4 Q 30893 7977.9 30348.5 7605.15 Q 29804.75 7232.4 29312 6942.9 L 28252.25 7910.4 Q 28733.75 8233.65 29273.75 8632.65 Q 29813 9030.9 30156.5 9354.15 L 31247 8279.4 Z M 22922 10552.65 L 22630.25 10598.4 L 21171.5 10598.4 Q 21193.25 10503.15 21215.75 10408.65 Q 21356.75 9824.4 21478.25 9216.15 L 24227.75 9216.15 L 24227.75 7557.15 L 18038 7557.15 L 18038 9216.15 L 19742.75 9216.15 Q 19447.25 10865.4 18944 12282.15 Q 18440.75 13698.9 17684.75 14715.15 Q 17957 14993.4 18300.5 15432.9 Q 18644.75 15872.4 18836.75 16173.9 Q 19988.75 14568.9 20726 12226.65 L 22154 12226.65 Q 21927.5 13608.9 21539.75 14760.9 Q 21148.25 14481.15 20796.5 14253.9 Q 20687.75 14182.65 20587.25 14115.9 L 19635.5 15313.65 Q 19939.25 15534.9 20273 15788.4 Q 20606 16041.15 20909.75 16296.9 Q 19800.5 18535.65 17884.25 19645.65 Q 18179 19860.9 18536.75 20246.4 Q 18895.25 20631.9 19097.75 20951.4 Q 21042.5 19736.4 22284.5 17228.4 Q 23527.25 14720.4 23951 10844.4 L 22922 10552.65 Z M 30617.75 14407.65 Q 29938.25 15471.15 28913 16327.65 Q 28709 15467.4 28529 14423.4 L 32092.25 13762.65 L 31815.5 12165.15 L 28298 12810.15 Q 28210.25 12114.9 28145 11397.15 L 31692.5 10828.65 L 31400.75 9216.15 L 28037 9738.15 Q 27968 8236.65 27991.25 6758.4 L 26178.5 6758.4 Q 26178.5 8379.15 26270.75 9999.15 L 24151.25 10321.65 L 24458 11965.65 L 26378 11658.15 Q 26443.25 12422.4 26531.75 13117.65 L 23828.75 13624.65 L 24120.5 15252.15 L 26762 14760.9 Q 27015.5 16251.15 27361.25 17464.65 Q 25399.25 18658.65 23091.5 19323.15 Q 23411 19645.65 23711 20058.15 Q 24011 20470.65 24182 20828.4 Q 26216.75 20140.65 27975.5 19061.4 Q 28423.25 20003.4 29009 20526.9 Q 29594 21050.4 30341 21058.65 Q 31234.25 21085.65 31677.5 20568.9 Q 32120.75 20052.15 32322.5 18662.4 Q 32022.5 18519.15 31667.75 18255.15 Q 31313 17991.15 31047.5 17664.15 Q 30992.75 18572.4 30875 18939.15 Q 30756.5 19305.9 30540.5 19292.4 Q 30262.25 19287.15 29984 18956.4 Q 29705.75 18625.65 29450 18032.4 Q 31055 16769.4 32153.75 15114.15 L 30617.75 14407.65 Z M 46730 7725.9 L 43766 7725.9 Q 43672.25 7467.9 43564.25 7192.65 Q 43456.25 6916.65 43351.25 6681.9 L 41630.75 7004.4 Q 41649.5 7056.9 41669.75 7112.4 Q 41774 7408.65 41891.75 7725.9 L 38850.5 7725.9 L 38850.5 9200.4 L 46730 9200.4 L 46730 7725.9 Z M 47129.75 10521.9 L 45224.75 10521.9 Q 45367.25 10258.65 45506.75 9970.65 Q 45613.25 9752.4 45731.75 9522.9 L 44072.75 9216.15 Q 43990.25 9509.4 43873.25 9851.4 Q 43756.25 10193.4 43627.25 10521.9 L 41891.75 10521.9 Q 41819 10224.15 41688.5 9868.65 Q 41558 9513.9 41415.5 9216.15 L 39941 9507.9 Q 40145 9991.65 40279.25 10521.9 L 38420.75 10521.9 L 38420.75 12027.15 L 47129.75 12027.15 L 47129.75 10521.9 Z M 38113.25 15789.9 L 36700.25 16296.9 L 36700.25 12180.15 L 38006 12180.15 L 38006 10444.65 L 36700.25 10444.65 L 36700.25 7004.4 L 34918.25 7004.4 L 34918.25 10444.65 L 33428.75 10444.65 L 33428.75 12180.15 L 34918.25 12180.15 L 34918.25 16911.15 Q 33920 17253.15 33152 17479.65 L 33751.25 19353.9 Q 34805 18943.65 36034.25 18447.15 Q 37263.5 17951.4 38466.5 17448.9 L 38113.25 15789.9 Z M 40694 15390.9 L 44626.25 15390.9 L 44626.25 16035.9 L 40694 16035.9 L 40694 15390.9 Z M 40694 13685.4 L 44626.25 13685.4 L 44626.25 14331.15 L 40694 14331.15 L 40694 13685.4 Z M 45132.5 19522.65 Q 44948.75 19526.4 44856.5 19461.15 Q 44779.25 19380.15 44795 19092.15 L 44795 17187.9 L 46376.75 17187.9 L 46376.75 12549.15 L 39019.25 12549.15 L 39019.25 17187.9 L 40294.25 17187.9 Q 40181 18145.65 39613.25 18756.9 Q 39536.75 18834.15 39449.75 18907.65 Q 38792 19480.65 37160.75 19799.4 Q 37436.75 20049.15 37704.5 20457.9 Q 37971.5 20865.9 38098.25 21196.65 Q 40036.25 20705.4 40877 19841.4 Q 41034.5 19685.4 41165.75 19515.9 Q 41858 18577.65 41999 17187.9 L 43105.25 17187.9 L 43105.25 19046.4 Q 43104.5 19731.9 43211 20060.4 Q 43316.75 20388.15 43535 20567.4 Q 43752.5 20751.15 44072.75 20843.4 Q 44393.75 20935.65 44702.75 20935.65 L 45686 20935.65 Q 45915.5 20935.65 46184.75 20901.15 Q 46454.75 20866.65 46637.75 20797.65 Q 47075.75 20616.9 47283.5 20229.15 Q 47374.25 20020.65 47427.5 19622.4 Q 47480.75 19224.15 47513.75 18785.4 Q 47172.5 18664.65 46769 18460.65 Q 46364.75 18256.65 46115.75 18032.4 Q 46097 18885.15 46054.25 19184.4 Q 45985.25 19453.65 45869.75 19491.9 Q 45743 19530.15 45547.25 19522.65 L 45132.5 19522.65 Z M 50877.5 9400.65 L 60646.25 9400.65 L 60646.25 10997.4 L 62428.25 10997.4 L 62428.25 7848.9 L 56914.25 7848.9 Q 56756.75 7242.15 56483.75 6727.65 L 54625.25 7050.15 Q 54767 7415.4 54886.25 7848.9 L 49187.75 7848.9 L 49187.75 10997.4 L 50877.5 10997.4 L 50877.5 9400.65 Z M 53165.75 13824.15 Q 53921.75 13615.65 54464 13344.15 Q 55006.25 13072.65 55393.25 12748.65 Q 56235.5 12969.9 57106.25 13245.9 Q 57977 13521.9 58726.25 13824.15 L 53165.75 13824.15 Z M 55469.75 18385.65 L 52229 18385.65 L 52229 17403.15 L 55469.75 17403.15 L 55469.75 18385.65 Z M 62612.75 13824.15 L 60155 13824.15 L 60723.5 13040.4 Q 59956.25 12675.15 58814.75 12301.65 Q 57673.25 11927.4 56514.5 11643.15 L 60569.75 11643.15 L 60569.75 10229.4 L 56637.5 10229.4 Q 56659.25 10080.15 56675.75 9930.15 Q 56692.25 9780.15 56714 9630.9 L 55009.25 9630.9 Q 54994.25 9730.65 54982.25 9830.4 Q 54959.75 10029.9 54917 10229.4 L 50984.75 10229.4 L 50984.75 11643.15 L 54257 11643.15 Q 53811.5 12111.9 52914.5 12416.4 Q 52017.5 12721.65 50477.75 12902.4 Q 50631.5 13079.4 50796.5 13323.15 Q 50962.25 13566.15 51092.75 13824.15 L 49003.25 13824.15 L 49003.25 15421.65 L 58865 15421.65 L 58865 19261.65 Q 58868.75 19395.9 58803.5 19449.9 Q 58738.25 19503.15 58557.5 19522.65 Q 58397.75 19523.4 58022 19520.4 Q 57646.25 19518.15 57175.25 19506.9 L 57175.25 16066.65 L 50539.25 16066.65 L 50539.25 20490.15 L 52229 20490.15 L 52229 19722.15 L 56806.25 19722.15 Q 56948.75 20064.15 57067.25 20440.65 Q 57186.5 20816.4 57236.75 21135.15 Q 58100.75 21141.9 58757 21096.9 Q 59414 21051.9 59863.25 20874.15 Q 60337.25 20687.4 60512 20321.4 Q 60686.75 19955.4 60677 19307.4 L 60677 15421.65 L 62612.75 15421.65 L 62612.75 13824.15 Z M 65116.25 14284.65 Q 65362.25 13360.65 65525 12176.4 Q 65687.75 10992.9 65715.5 9999.15 L 64424.75 9830.4 Q 64365.5 10799.4 64202 11909.4 Q 64039.25 13020.15 63795.5 13839.15 L 65116.25 14284.65 Z M 70952.75 17602.65 L 70952.75 16896.15 L 75545.75 16896.15 L 75545.75 17602.65 L 70952.75 17602.65 Z M 75545.75 14883.9 L 75545.75 15605.4 L 70952.75 15605.4 L 70952.75 14883.9 L 75545.75 14883.9 Z M 77266.25 13547.4 L 69263 13547.4 L 69263 21165.9 L 70952.75 21165.9 L 70952.75 18861.9 L 75545.75 18861.9 L 75545.75 19368.9 Q 75560.75 19629.9 75254 19614.9 Q 75207.5 19614.9 75127.25 19615.65 Q 74897 19618.65 74505.5 19615.65 Q 74114 19611.9 73702.25 19584.15 Q 73868.75 19931.4 74006 20359.65 Q 74143.25 20787.9 74194.25 21135.15 Q 74987 21143.4 75572.75 21102.9 Q 76157.75 21061.65 76559 20874.15 Q 76966.25 20695.65 77120 20344.65 Q 77273.75 19992.9 77266.25 19399.65 L 77266.25 13547.4 Z M 74117 11658.15 L 74117 10997.4 L 77419.25 10997.4 L 77419.25 9768.9 L 74117 9768.9 L 74117 9154.65 L 77834 9154.65 L 77834 7848.9 L 74117 7848.9 L 74117 6804.15 L 72305 6804.15 L 72305 7848.9 L 68710.25 7848.9 L 68710.25 9154.65 L 72305 9154.65 L 72305 9768.9 L 69125 9768.9 L 69125 10982.4 Q 68981 10540.65 68747 9972.15 Q 68513 9404.4 68264.75 8893.65 L 67389.5 9261.9 L 67389.5 6804.15 L 65746.25 6804.15 L 65746.25 21135.15 L 67389.5 21135.15 L 67389.5 9968.4 Q 67576.25 10425.9 67725.5 10871.4 Q 67874.75 11316.15 67958 11658.15 L 69155.75 11074.65 L 69125 10997.4 L 72305 10997.4 L 72305 11658.15 L 68234 11658.15 L 68234 12963.9 L 78295.25 12963.9 L 78295.25 11658.15 L 74117 11658.15 Z M 84070.25 21227.4 L 84070.25 6727.65 L 79277.75 6727.65 L 79277.75 6804.15 Q 80567 7905.15 81426.5 9751.65 Q 82286 11598.15 82319 13977.9 Q 82286 16356.9 81426.5 18203.4 Q 80567 20049.9 79277.75 21150.9 L 79277.75 21227.4 L 84070.25 21227.4 Z " fill-rule="nonzero" style="fill:#333333;;fill-opacity:1;"/>
  <path d="M 11939.05 29365.3 L 11659.55 29431.6 L 8850.25 29431.6 Q 9229.85 29072.15 9569.15 28712.7 L 7865.5 28313.6 Q 7192.1 29105.95 6024.7 29887.9 Q 4857.95 30669.85 3245.95 31282.15 Q 3518.3 31467.4 3825.1 31798.25 Q 4131.9 32128.45 4324.3 32413.8 Q 5914.85 31701.4 7146.6 30829.75 L 10460.95 30829.75 Q 9559.4 31707.9 8278.25 32387.15 Q 7955.2 32114.8 7612.65 31859.35 Q 7269.45 31604.55 6947.05 31401.75 L 5762.1 32134.3 Q 6308.1 32523.65 6853.45 33012.45 Q 4983.4 33728.1 2913.15 34024.5 Q 3128.95 34301.4 3329.15 34703.1 Q 3530 35105.45 3645.7 35422 Q 5994.8 34995.6 8121.6 34068.7 Q 9134.95 33618.25 10028.7 33035.85 Q 11906.55 31833.35 12977.1 29990.6 L 11939.05 29365.3 Z M 13642.7 34264.35 L 13350.2 34343.65 L 10967.3 34343.65 Q 11376.15 33925.7 11746 33490.2 Q 11762.25 33471.35 11779.15 33451.85 L 10061.85 33052.75 Q 9305.25 34035.55 7915.55 34941 Q 6525.2 35847.1 4470.55 36500.35 Q 4732.5 36726.55 5011.35 37082.75 Q 5290.85 37438.95 5442.3 37724.95 Q 7705.6 36883.2 9289.65 35741.8 L 12311.5 35741.8 Q 11446.35 36836.4 10101.5 37552.05 Q 9786.25 37279.7 9435.9 37014.5 Q 9086.2 36749.95 8770.3 36527 L 7465.75 37286.2 Q 7739.4 37487.7 8038.4 37726.9 Q 8337.4 37966.1 8611.05 38217.65 Q 7336.4 38672.65 5860.25 38924.85 Q 4384.1 39177.7 2779.9 39283 Q 2974.9 39599.55 3149.75 40033.1 Q 3324.6 40467.3 3418.85 40813.75 Q 6325 40564.8 8782 39779.6 Q 10345.25 39268.05 11626.4 38442.55 Q 13643.35 37165.95 14734.05 34889.65 L 13642.7 34264.35 Z M 26062.9 38670.05 L 18022.4 38670.05 L 18022.4 32573.7 L 16385.05 32573.7 L 16385.05 40161.15 L 26062.9 40161.15 L 26062.9 40760.45 L 27660.6 40760.45 L 27660.6 32506.75 L 26062.9 32506.75 L 26062.9 38670.05 Z M 23813.25 34104.45 L 22654.95 34104.45 L 22654.95 32985.8 L 23813.25 32985.8 L 23813.25 34104.45 Z M 23813.25 36447.05 L 22654.95 36447.05 L 22654.95 35302.4 L 23813.25 35302.4 L 23813.25 36447.05 Z M 20138.8 35302.4 L 21297.1 35302.4 L 21297.1 36447.05 L 20138.8 36447.05 L 20138.8 35302.4 Z M 20138.8 32985.8 L 21297.1 32985.8 L 21297.1 34104.45 L 20138.8 34104.45 L 20138.8 32985.8 Z M 18847.9 31694.9 L 18847.9 37738.6 L 25184.1 37738.6 L 25184.1 31694.9 L 18847.9 31694.9 Z M 16225.15 29152.1 L 16225.15 30616.55 L 27833.5 30616.55 L 27833.5 29152.1 L 16225.15 29152.1 Z M 34369.25 30310.4 L 39627.75 30310.4 L 39627.75 31601.95 L 41092.2 31601.95 L 41092.2 28966.2 L 32985.4 28966.2 L 32985.4 31681.25 L 34369.25 31681.25 L 34369.25 30310.4 Z M 37324.8 31508.35 Q 38009.9 32163.55 38687.2 32939.65 L 38718.4 32976.05 Q 39391.8 33751.5 39761 34357.3 L 40972.6 33518.8 Q 40557.25 32898.05 39847.45 32147.3 Q 39137.65 31397.2 38442.8 30776.45 L 37324.8 31508.35 Z M 35168.1 30883.05 Q 34765.1 31581.8 34124.85 32211 Q 33484.6 32839.55 32772.2 33278.95 Q 33027.65 33494.75 33348.1 33813.25 Q 33667.9 34131.1 33863.55 34357.3 Q 34628.6 33812.6 35357.9 33011.15 Q 36087.85 32209.7 36592.9 31335.45 L 35168.1 30883.05 Z M 32625.95 29684.45 Q 32209.95 29403 31572.3 29064.35 Q 30934.65 28725.05 30389.3 28473.5 L 29604.1 29684.45 Q 30159.85 29976.95 30785.15 30352 Q 31411.1 30727.05 31786.8 31029.3 L 32625.95 29684.45 Z M 32159.9 33451.85 Q 31723.1 33119.05 31051.65 32738.15 Q 30380.2 32357.25 29803.65 32094 L 29071.1 33265.95 Q 29676.25 33589 30336 34007.6 Q 30995.75 34426.2 31400.7 34770.05 L 32159.9 33451.85 Z M 31441 35355.7 Q 30909.3 36518.55 30332.75 37632 Q 29756.2 38745.45 29284.3 39509.2 L 30482.25 40627.2 Q 30987.3 39648.3 31498.85 38571.9 Q 32011.05 37496.15 32466.05 36447.05 L 31441 35355.7 Z M 41105.2 36194.2 L 41105.2 34783.05 L 37803.85 34783.05 L 37803.85 33465.5 L 36206.8 33465.5 L 36206.8 34783.05 L 32945.1 34783.05 L 32945.1 36194.2 L 35367.65 36194.2 Q 34771.6 37092.5 33940.25 37823.1 Q 33108.9 38554.35 32133.25 39002.85 Q 32403 39235.55 32692.25 39572.25 Q 32981.5 39908.95 33171.3 40201.45 Q 34055.3 39705.5 34828.8 38958 Q 35602.3 38210.5 36206.8 37286.2 L 36206.8 40666.85 L 37803.85 40666.85 L 37803.85 37325.85 Q 38349.85 38183.2 39025.2 38908.6 Q 39701.2 39633.35 40426.6 40121.5 Q 40636.55 39808.85 40944 39464.35 Q 41251.45 39119.2 41531.6 38896.9 Q 40711.95 38445.8 39957.3 37735.35 Q 39202.65 37024.9 38643 36194.2 L 41105.2 36194.2 Z M 53206.25 31282.15 Q 53007.35 32138.85 52681.7 33106.05 Q 52356.05 34072.6 52007.65 34809.7 L 53338.85 35182.8 Q 53684 34476.25 54056.45 33535.05 Q 54428.9 32594.5 54763.65 31628.6 L 53206.25 31282.15 Z M 48985.8 35275.75 Q 49392.7 34517.2 49587.05 33507.1 Q 49781.4 32496.35 49798.3 31468.7 L 48426.8 31295.8 Q 48387.15 32232.45 48187.6 33177.55 Q 47987.4 34122 47628.6 34729.75 L 48985.8 35275.75 Z M 47867.8 35595.55 Q 47718.3 35405.75 47319.85 34963.75 Q 47059.85 34675.15 46790.75 34385.25 Q 46379.3 33941.3 46177.15 33745 L 46177.15 33572.1 L 47828.15 33572.1 L 47828.15 32120.65 L 46177.15 32120.65 L 46177.15 30190.8 Q 47119 29984.1 47921.1 29698.1 L 46922.7 28433.2 Q 46069.25 28775.75 44896 29060.45 Q 43722.75 29345.8 42530 29538.2 Q 42654.8 29800.15 42777.65 30138.8 Q 42900.5 30478.1 42955.75 30749.8 Q 43770.85 30652.95 44646.4 30496.95 L 44646.4 32120.65 L 42543 32120.65 L 42543 33572.1 L 44313.6 33572.1 Q 43924.9 34563.35 43373.7 35527.3 Q 42822.5 36490.6 42223.85 37152.95 Q 42433.8 37488.35 42661.3 37938.15 Q 42888.8 38388.6 43009.05 38763.65 Q 43459.5 38215.7 43872.9 37460.4 Q 44285.65 36705.75 44646.4 35848.4 L 44646.4 40800.1 L 46177.15 40800.1 L 46177.15 35448.65 Q 46431.3 35836.7 46649.7 36222.8 Q 46868.75 36608.25 47002.65 36886.45 L 47867.8 35595.55 Z M 50463.9 28393.55 Q 50463.25 28760.8 50462.6 29117 Q 50493.8 31728.7 50322.85 33785.3 Q 50161.65 35657.95 49512.95 37072.35 Q 48805.75 38625.85 47122.25 39628.8 Q 47401.1 39842.65 47685.15 40181.3 Q 47968.55 40519.95 48147.3 40813.75 Q 49336.15 40064.3 50071.3 39067.85 Q 50805.8 38071.4 51195.8 36833.15 Q 51618.3 38123.4 52300.8 39109.45 Q 52983.3 40095.5 54004.45 40746.8 Q 54175.4 40442.6 54458.8 40088.35 Q 54742.2 39733.45 55002.85 39509.2 Q 53602.75 38728.55 52846.8 37199.1 Q 52090.2 35670.3 51768.45 33651.4 Q 51939.4 31455.7 51925.1 28832.3 Q 51926.4 28614.55 51928.35 28393.55 L 50463.9 28393.55 Z M 67289.8 29631.8 Q 66983 29370.5 66511.1 29047.45 Q 66039.85 28724.4 65612.8 28473.5 L 64694.35 29312 Q 65111.65 29592.15 65579.65 29937.95 Q 66047 30283.1 66344.7 30563.25 L 67289.8 29631.8 Z M 60074.8 31601.95 L 59821.95 31641.6 L 58557.7 31641.6 Q 58576.55 31559.05 58596.05 31477.15 Q 58718.25 30970.8 58823.55 30443.65 L 61206.45 30443.65 L 61206.45 29005.85 L 55842 29005.85 L 55842 30443.65 L 57319.45 30443.65 Q 57063.35 31873 56627.2 33100.85 Q 56191.05 34328.7 55535.85 35209.45 Q 55771.8 35450.6 56069.5 35831.5 Q 56367.85 36212.4 56534.25 36473.7 Q 57532.65 35082.7 58171.6 33052.75 L 59409.2 33052.75 Q 59212.9 34250.7 58876.85 35249.1 Q 58537.55 35006.65 58232.7 34809.7 Q 58138.45 34747.95 58051.35 34690.1 L 57226.5 35728.15 Q 57489.75 35919.9 57779 36139.6 Q 58067.6 36358.65 58330.85 36580.3 Q 57369.5 38520.55 55708.75 39482.55 Q 55964.2 39669.1 56274.25 40003.2 Q 56584.95 40337.3 56760.45 40614.2 Q 58445.9 39561.2 59522.3 37387.6 Q 60599.35 35214 60966.6 31854.8 L 60074.8 31601.95 Z M 66744.45 34942.95 Q 66155.55 35864.65 65267 36606.95 Q 65090.2 35861.4 64934.2 34956.6 L 68022.35 34383.95 L 67782.5 32999.45 L 64734 33558.45 Q 64657.95 32955.9 64601.4 32333.85 L 67675.9 31841.15 L 67423.05 30443.65 L 64507.8 30896.05 Q 64448 29594.75 64468.15 28313.6 L 62897.1 28313.6 Q 62897.1 29718.25 62977.05 31122.25 L 61140.15 31401.75 L 61406 32826.55 L 63070 32560.05 Q 63126.55 33222.4 63203.25 33824.95 L 60860.65 34264.35 L 61113.5 35674.85 L 63402.8 35249.1 Q 63622.5 36540.65 63922.15 37592.35 Q 62221.75 38627.15 60221.7 39203.05 Q 60498.6 39482.55 60758.6 39840.05 Q 61018.6 40197.55 61166.8 40507.6 Q 62930.25 39911.55 64454.5 38976.2 Q 64842.55 39792.6 65350.2 40246.3 Q 65857.2 40700 66504.6 40707.15 Q 67278.75 40730.55 67662.9 40282.7 Q 68047.05 39834.85 68221.9 38630.4 Q 67961.9 38506.25 67654.45 38277.45 Q 67347 38048.65 67116.9 37765.25 Q 67069.45 38552.4 66967.4 38870.25 Q 66864.7 39188.1 66677.5 39176.4 Q 66436.35 39171.85 66195.2 38885.2 Q 65954.05 38598.55 65732.4 38084.4 Q 67123.4 36989.8 68075.65 35555.25 L 66744.45 34942.95 Z M 72188.85 31628.6 L 73719.6 31628.6 L 73719.6 30656.2 L 76794.75 30656.2 L 76794.75 31628.6 L 78378.8 31628.6 L 78378.8 30656.2 L 81214.75 30656.2 L 81214.75 29219.05 L 78378.8 29219.05 L 78378.8 28353.25 L 76794.75 28353.25 L 76794.75 29219.05 L 73719.6 29219.05 L 73719.6 28353.25 L 72149.2 28353.25 L 72149.2 29219.05 L 69380.2 29219.05 L 69380.2 30656.2 L 72149.2 30656.2 L 72149.2 31614.95 L 71789.75 31495.35 Q 71317.2 32597.75 70572.95 33575.35 Q 69828.7 34552.95 68967.45 35236.1 Q 69204.7 35524.05 69496.55 35979.7 Q 69788.4 36435.35 69926.2 36713.55 Q 70331.8 36363.85 70738.05 35914.7 L 70738.05 40773.45 L 72281.8 40773.45 L 72281.8 33904.9 Q 72874.6 32963.05 73306.85 32001.05 L 72188.85 31628.6 Z M 76315.7 35741.8 L 76315.7 37059.35 L 74811.6 37059.35 L 74811.6 35741.8 L 76315.7 35741.8 Z M 77766.5 38350.9 L 77766.5 34450.25 L 73347.15 34450.25 L 73347.15 39096.45 L 74811.6 39096.45 L 74811.6 38350.9 L 77766.5 38350.9 Z M 81281.05 32134.3 L 73347.15 32134.3 L 73347.15 33598.75 L 78645.3 33598.75 L 78645.3 38989.85 Q 78647.9 39145.85 78573.8 39204.35 Q 78499.05 39262.85 78312.5 39269.35 Q 78118.15 39270 77572.15 39266.1 Q 77025.5 39262.2 76422.3 39242.7 Q 76597.8 39565.1 76756.4 39970.05 Q 76915 40375 76981.3 40707.15 Q 77817.2 40713.65 78428.85 40670.75 Q 79040.5 40627.2 79457.15 40454.3 Q 79879.65 40301.55 80044.75 39966.8 Q 80209.85 39631.4 80202.7 39029.5 L 80202.7 33598.75 L 81281.05 33598.75 L 81281.05 32134.3 Z M 86219.75 31082.6 L 84861.9 31082.6 L 84861.9 34690.1 Q 84887.9 35640.4 84672.1 36713.55 Q 84522.6 37396.7 84166.4 38042.8 Q 83628.2 39058.75 82332.75 39775.05 Q 82584.95 39977.85 82861.85 40272.95 Q 83138.75 40567.4 83290.85 40800.1 Q 84753.35 39864.75 85390.35 38612.2 Q 85741.35 37949.85 85923.35 37253.7 Q 86245.75 35938.1 86219.75 34703.1 L 86219.75 31082.6 Z M 85780.35 38044.75 Q 86185.95 38644.7 86603.9 39317.45 Q 87022.5 39990.2 87257.8 40480.95 L 88403.1 39721.75 Q 88137.25 39243.35 87699.15 38601.8 Q 87261.05 37960.9 86845.7 37392.15 L 85780.35 38044.75 Z M 92516.3 32134.3 Q 92236.8 34643.3 91478.25 36313.8 Q 90619.6 34809.7 90160.05 32985.8 Q 90356.35 32580.2 90532.5 32134.95 Q 90532.5 32134.3 90533.15 32134.3 L 92516.3 32134.3 Z M 94593.05 32134.3 L 94593.05 30736.15 L 91012.2 30736.15 Q 91315.1 29781.3 91517.9 28806.3 L 90120.4 28486.5 Q 89820.1 29973.7 89324.8 31315.3 Q 88829.5 32657.55 88150.25 33625.4 L 88150.25 28979.2 L 82971.7 28979.2 L 82971.7 37152.95 L 84222.95 37152.95 L 84222.95 30390.35 L 86832.05 30390.35 L 86832.05 37099.65 L 88150.25 37099.65 L 88150.25 33917.9 Q 88369.95 34212.35 88597.45 34556.85 Q 88824.95 34901.35 88935.45 35115.85 Q 89114.85 34889.65 89294.9 34623.8 L 89294.9 34623.8 Q 89853.9 36310.55 90692.4 37658.65 Q 89770.7 38936.55 88389.45 39615.8 Q 88622.8 39802.35 88895.8 40136.45 Q 89168.15 40470.55 89321.55 40746.8 Q 90602.7 40054.55 91544.55 38843.6 Q 92529.95 40031.8 93874.15 40760.45 Q 94043.8 40467.95 94314.85 40133.2 Q 94586.55 39797.8 94845.9 39575.5 Q 93381.45 38867 92356.4 37578.7 Q 93458.15 35485.7 93861.15 32134.3 L 94593.05 32134.3 Z M 98946.1 35941.35 L 97627.9 35941.35 L 97627.9 31148.9 L 98946.1 31148.9 L 98946.1 35941.35 Z M 108131.25 32693.3 L 105002.8 32693.3 L 105002.8 28593.1 L 103352.45 28593.1 L 103352.45 32693.3 L 100463.85 32693.3 L 100463.85 29684.45 L 96150.45 29684.45 L 96150.45 38430.85 L 97627.9 38430.85 L 97627.9 37405.8 L 100463.85 37405.8 L 100463.85 34264.35 L 103352.45 34264.35 L 103352.45 40787.1 L 105002.8 40787.1 L 105002.8 34264.35 L 108131.25 34264.35 L 108131.25 32693.3 Z M 111126.45 41465.7 Q 112373.8 41082.85 113056.95 40232.65 Q 113740.1 39383.1 113749.2 38231.3 Q 113747.9 37383.05 113384.55 36900.1 Q 113021.2 36416.5 112311.4 36407.4 Q 111766.7 36412.6 111394.25 36726.55 Q 111021.8 37041.15 111006.85 37605.35 Q 111023.1 38177.35 111389.7 38482.2 Q 111755.65 38787.05 112271.1 38790.3 Q 112354.3 38793.55 112418 38776.65 Q 112278.25 39861.5 110700.7 40387.35 L 111126.45 41465.7 Z M 130242.3 30323.4 Q 130086.3 30769.95 129869.85 31255.5 L 127154.15 31255.5 Q 127092.4 31041 126992.95 30794.65 Q 126893.5 30547.65 126781.7 30323.4 L 130242.3 30323.4 Z M 134289.2 31255.5 L 131494.2 31255.5 Q 131580.65 31106.65 131671 30944.8 Q 131786.05 30735.5 131919.95 30509.95 L 130854.6 30323.4 L 133583.95 30323.4 L 133583.95 29098.8 L 129444.1 29098.8 Q 129280.95 28616.5 129058 28194 L 127513.6 28473.5 Q 127636.45 28766 127739.8 29098.8 L 123427.05 29098.8 L 123427.05 30323.4 L 126289 30323.4 L 125290.6 30523.6 Q 125443.35 30859.65 125556.45 31255.5 L 122774.45 31255.5 L 122774.45 32480.1 L 134289.2 32480.1 L 134289.2 31255.5 Z M 131281 34517.2 L 125769.65 34517.2 L 125769.65 33944.55 L 131281 33944.55 L 131281 34517.2 Z M 131281 36021.3 L 125769.65 36021.3 L 125769.65 35448.65 L 131281 35448.65 L 131281 36021.3 Z M 132851.4 32959.8 L 124278.55 32959.8 L 124278.55 37019.7 L 127659.85 37019.7 L 127114.5 37552.05 Q 127693 37823.1 128274.1 38185.8 Q 128855.2 38549.15 129204.25 38870.25 L 130176 37898.5 Q 129918.6 37695.05 129546.8 37463.65 Q 129175 37232.9 128778.5 37019.7 L 132851.4 37019.7 L 132851.4 32959.8 Z M 123719.55 40454.3 Q 124239.55 39960.3 124654.9 39304.45 Q 125070.25 38648.6 125370.55 38004.45 L 124052.35 37418.8 Q 123778.05 38031.1 123351.65 38635.6 Q 122925.25 39240.1 122402 39682.1 L 123719.55 40454.3 Z M 127926.35 39375.95 Q 127488.9 39384.4 127349.15 39312.9 Q 127208.75 39241.4 127220.45 38989.85 L 127220.45 37605.35 L 125676.7 37605.35 L 125676.7 39002.85 Q 125650.05 39926.5 126092.7 40291.15 Q 126535.35 40655.8 127766.45 40640.2 L 129909.5 40640.2 Q 130820.8 40663.6 131227.7 40269.7 Q 131634.6 39875.8 131747.05 38790.3 Q 131420.75 38725.95 131034.65 38588.8 Q 130648.55 38451.65 130402.2 38297.6 Q 130365.15 38976.2 130242.3 39186.15 Q 130120.1 39396.1 129763.25 39375.95 L 127926.35 39375.95 Z M 131533.85 37858.2 Q 132017.45 38436.7 132443.85 39097.75 Q 132870.25 39758.8 133064.6 40267.75 L 134436.1 39655.45 Q 134200.8 39128.95 133748.4 38487.4 Q 133296.65 37845.85 132811.75 37299.2 L 131533.85 37858.2 Z M 147268.4 29152.1 L 144699.6 29152.1 Q 144618.35 28928.5 144524.75 28689.95 Q 144431.15 28450.75 144340.15 28247.3 L 142849.05 28526.8 Q 142865.3 28572.3 142882.85 28620.4 Q 142973.2 28877.15 143075.25 29152.1 L 140439.5 29152.1 L 140439.5 30430 L 147268.4 30430 L 147268.4 29152.1 Z M 147614.85 31575.3 L 145963.85 31575.3 Q 146087.35 31347.15 146208.25 31097.55 Q 146300.55 30908.4 146403.25 30709.5 L 144965.45 30443.65 Q 144893.95 30697.8 144792.55 30994.2 Q 144691.15 31290.6 144579.35 31575.3 L 143075.25 31575.3 Q 143012.2 31317.25 142899.1 31009.15 Q 142786 30701.7 142662.5 30443.65 L 141384.6 30696.5 Q 141561.4 31115.75 141677.75 31575.3 L 140067.05 31575.3 L 140067.05 32879.85 L 147614.85 32879.85 L 147614.85 31575.3 Z M 139800.55 36140.9 L 138575.95 36580.3 L 138575.95 33012.45 L 139707.6 33012.45 L 139707.6 31508.35 L 138575.95 31508.35 L 138575.95 28526.8 L 137031.55 28526.8 L 137031.55 31508.35 L 135740.65 31508.35 L 135740.65 33012.45 L 137031.55 33012.45 L 137031.55 37112.65 Q 136166.4 37409.05 135500.8 37605.35 L 136020.15 39229.7 Q 136933.4 38874.15 137998.75 38443.85 Q 139064.1 38014.2 140106.7 37578.7 L 139800.55 36140.9 Z M 142037.2 35795.1 L 145445.15 35795.1 L 145445.15 36354.1 L 142037.2 36354.1 L 142037.2 35795.1 Z M 142037.2 34317 L 145445.15 34317 L 145445.15 34876.65 L 142037.2 34876.65 L 142037.2 34317 Z M 145883.9 39375.95 Q 145724.65 39379.2 145644.7 39322.65 Q 145577.75 39252.45 145591.4 39002.85 L 145591.4 37352.5 L 146962.25 37352.5 L 146962.25 33332.25 L 140585.75 33332.25 L 140585.75 37352.5 L 141690.75 37352.5 Q 141592.6 38182.55 141100.55 38712.3 Q 141034.25 38779.25 140958.85 38842.95 Q 140388.8 39339.55 138975.05 39615.8 Q 139214.25 39832.25 139446.3 40186.5 Q 139677.7 40540.1 139787.55 40826.75 Q 141467.15 40401 142195.8 39652.2 Q 142332.3 39517 142446.05 39370.1 Q 143046 38556.95 143168.2 37352.5 L 144126.95 37352.5 L 144126.95 38963.2 Q 144126.3 39557.3 144218.6 39842 Q 144310.25 40126.05 144499.4 40281.4 Q 144687.9 40440.65 144965.45 40520.6 Q 145243.65 40600.55 145511.45 40600.55 L 146363.6 40600.55 Q 146562.5 40600.55 146795.85 40570.65 Q 147029.85 40540.75 147188.45 40480.95 Q 147568.05 40324.3 147748.1 39988.25 Q 147826.75 39807.55 147872.9 39462.4 Q 147919.05 39117.25 147947.65 38737 Q 147651.9 38632.35 147302.2 38455.55 Q 146951.85 38278.75 146736.05 38084.4 Q 146719.8 38823.45 146682.75 39082.8 Q 146622.95 39316.15 146522.85 39349.3 Q 146413 39382.45 146243.35 39375.95 L 145883.9 39375.95 Z M 152007.55 31375.1 L 153564.95 31375.1 L 153564.95 30589.9 L 156680.4 30589.9 L 156680.4 31415.4 L 158264.45 31415.4 L 158264.45 30589.9 L 161073.1 30589.9 L 161073.1 29205.4 L 158264.45 29205.4 L 158264.45 28353.25 L 156680.4 28353.25 L 156680.4 29205.4 L 153564.95 29205.4 L 153564.95 28353.25 L 152007.55 28353.25 L 152007.55 29205.4 L 149198.9 29205.4 L 149198.9 30589.9 L 152007.55 30589.9 L 152007.55 31375.1 Z M 160966.5 33345.25 L 160966.5 31987.4 L 156200.7 31987.4 Q 156087.6 31683.2 155924.45 31358.85 Q 155761.95 31034.5 155588.4 30749.8 L 154110.95 31122.25 Q 154320.9 31514.85 154510.05 31987.4 L 149332.15 31987.4 L 149332.15 33345.25 L 150809.6 33345.25 L 150809.6 35661.85 L 160101.35 35661.85 L 160101.35 34317 L 152446.95 34317 L 152446.95 33345.25 L 160966.5 33345.25 Z M 151195.7 37032.7 Q 151224.3 37536.45 150920.75 38179.95 Q 150807.65 38395.75 150628.25 38611.55 Q 150131 39253.75 148839.45 39748.4 Q 149115.05 39944.05 149445.25 40264.5 Q 149775.45 40584.95 149971.1 40840.4 Q 151407.6 40248.25 152023.8 39422.1 Q 152331.9 39030.8 152501.55 38629.1 Q 152832.4 37782.8 152806.4 37086 L 152806.4 36074.6 L 151195.7 36074.6 L 151195.7 37032.7 Z M 154270.85 40614.2 L 155854.9 40614.2 L 155854.9 36140.9 L 154270.85 36140.9 L 154270.85 40614.2 Z M 159116.6 39283 Q 158940.45 39291.45 158880 39218 Q 158819.55 39143.9 158823.45 38883.25 L 158823.45 36127.9 L 157292.7 36127.9 L 157292.7 38896.9 Q 157269.95 39851.1 157592.35 40239.8 Q 157914.1 40627.85 158850.1 40614.2 L 159914.8 40614.2 Q 160623.3 40635.65 160956.75 40198.2 Q 161290.2 39760.1 161379.25 38603.75 Q 161063.35 38529 160687 38374.3 Q 160311.3 38219.6 160074.7 38044.75 Q 160048.7 38820.85 159978.5 39063.3 Q 159907.65 39305.1 159741.9 39283 L 159116.6 39283 Z M 165080.35 39442.25 Q 166457.05 39606.7 167915.65 39923.9 Q 168348.55 40018.15 168765.85 40119.55 Q 170172.45 40462.75 171150.05 40826.75 L 171829.3 39548.85 Q 170769.8 39197.2 169310.55 38869.6 Q 169002.45 38800.7 168686.55 38736.35 Q 167192.2 38428.9 165772.6 38284.6 L 165080.35 39442.25 Z M 166704.05 37352.5 Q 167502.9 37532.55 168351.8 37819.85 Q 169200.05 38107.8 169739.55 38377.55 L 170431.8 37299.2 Q 169861.1 37023.6 168998.55 36775.3 Q 168136.65 36527 167356.65 36380.75 L 166704.05 37352.5 Z M 167422.95 34211.05 L 169512.7 34211.05 L 169512.7 34809.7 L 167422.95 34809.7 L 167422.95 34211.05 Z M 167422.95 32533.4 L 169512.7 32533.4 L 169512.7 33145.7 L 167422.95 33145.7 L 167422.95 32533.4 Z M 164267.85 31428.4 L 164267.85 30536.6 L 172561.2 30536.6 L 172561.2 31428.4 L 171123.4 31428.4 L 171123.4 30776.45 L 169512.7 30776.45 L 169512.7 31428.4 L 167422.95 31428.4 L 167422.95 30776.45 L 165838.9 30776.45 L 165838.9 31428.4 L 164267.85 31428.4 Z M 174345.45 36047.95 L 174345.45 34809.7 L 171123.4 34809.7 L 171123.4 34211.05 L 172787.4 34211.05 L 172787.4 33145.7 L 171123.4 33145.7 L 171123.4 32533.4 L 172987.6 32533.4 L 172987.6 31921.1 L 174185.55 31921.1 L 174185.55 29232.05 L 169499.7 29232.05 Q 169259.85 28676.3 168980.35 28180.35 L 167356.65 28606.75 Q 167496.4 28899.25 167636.15 29232.05 L 162724.1 29232.05 L 162724.1 31921.1 L 163935.05 31921.1 L 163935.05 32533.4 L 165838.9 32533.4 L 165838.9 33145.7 L 164108.6 33145.7 L 164108.6 34211.05 L 165838.9 34211.05 L 165838.9 34809.7 L 162603.85 34809.7 L 162603.85 36047.95 L 165306.55 36047.95 Q 164675.4 36634.25 163847.3 37117.85 Q 163018.55 37601.45 162137.8 37898.5 Q 162408.2 38133.15 162703.95 38487.4 Q 162999.05 38841.65 163189.5 39136.1 Q 164353.65 38655.1 165393 37846.5 Q 166432.35 37038.55 167156.45 36047.95 L 169725.9 36047.95 Q 170491.6 36979.4 171516.65 37762 Q 172541.7 38543.95 173626.55 39016.5 Q 173817.65 38711 174118.6 38350.9 Q 174420.2 37990.8 174691.25 37765.25 Q 173861.85 37479.25 173057.15 37031.4 Q 172252.45 36583.55 171603.1 36047.95 L 174345.45 36047.95 Z M 5349.35 51067.8 Q 5091.95 50426.25 4622 49610.5 Q 4152.7 48794.1 3685.35 48072.6 L 2514.05 48764.85 Q 2971 49509.75 3420.8 50359.3 Q 3870.6 51208.2 4098.1 51853 L 5349.35 51067.8 Z M 3938.2 54169.6 Q 3570.3 55441 3154.3 56632.45 Q 2738.95 57823.9 2380.8 58655.9 L 3738.65 59281.2 Q 4091.6 58289.95 4454.3 57136.2 Q 4817 55983.1 5149.8 54822.2 L 3938.2 54169.6 Z M 10554.55 52945 L 12165.25 52945 L 12165.25 53570.3 L 10554.55 53570.3 L 10554.55 52945 Z M 10554.55 51294 L 12165.25 51294 L 12165.25 51879.65 L 10554.55 51879.65 L 10554.55 51294 Z M 11073.25 56445.9 Q 10744.35 56998.4 10154.8 57391 Q 9430.05 57177.15 8721.55 57017.9 L 8611.05 56991.9 Q 8720.9 56850.85 8844.4 56700.7 Q 8948.4 56574.6 9049.8 56445.9 L 11073.25 56445.9 Z M 13696 54688.95 L 13696 53051.6 L 14814 53051.6 L 14814 51840 L 13696 51840 L 13696 50176 L 10554.55 50176 L 10554.55 49617 L 14561.15 49617 L 14561.15 48392.4 L 10554.55 48392.4 L 10554.55 47553.25 L 9023.8 47553.25 L 9023.8 48392.4 L 5389 48392.4 L 5389 49617 L 9023.8 49617 L 9023.8 50176 L 6241.15 50176 L 6241.15 51294 L 9023.8 51294 L 9023.8 51879.65 L 5109.5 51879.65 L 5109.5 52945 L 9023.8 52945 L 9023.8 53570.3 L 6187.85 53570.3 L 6187.85 54688.95 L 8584.4 54688.95 Q 8534.35 54766.95 8483.65 54847.55 Q 8354.3 55056.85 8211.3 55260.95 L 5402.65 55260.95 L 5402.65 56445.9 L 7292.85 56445.9 Q 6777.4 57075.1 6281.45 57563.9 Q 7352.65 57800.5 8504.45 58136.55 Q 6980.2 58562.3 5016.55 58709.2 Q 5206.35 58958.15 5405.9 59329.95 Q 5605.45 59701.1 5695.8 59960.45 Q 7039.35 59804.45 8228.2 59504.15 Q 9417.05 59203.85 10381 58709.2 Q 11296.2 59030.95 12071.65 59348.15 Q 12847.1 59664.7 13402.85 59946.8 L 14587.8 58962.05 Q 14012.55 58681.9 13265.05 58404.35 Q 12517.55 58126.8 11672.55 57857.05 Q 12355.05 57261 12777.55 56445.9 L 14774.35 56445.9 L 14774.35 55260.95 L 9915.6 55260.95 Q 10115.15 54965.2 10275.05 54688.95 L 13696 54688.95 Z M 27833.5 48964.4 L 24558.8 48964.4 Q 24424.9 48617.95 24245.5 48233.8 Q 24066.75 47850.3 23893.2 47513.6 L 22322.15 47939.35 Q 22545.1 48422.3 22747.9 48964.4 L 19247 48964.4 L 19247 50455.5 L 27833.5 50455.5 L 27833.5 48964.4 Z M 18901.2 51546.85 Q 18653.55 50811.05 18173.85 49849.7 Q 17694.15 48889 17196.9 48032.95 L 15839.05 48764.85 Q 16324.6 49661.85 16769.85 50660.9 L 16772.45 50666.1 Q 17217.05 51665.15 17423.1 52412.65 L 18901.2 51546.85 Z M 17609.65 53916.75 Q 17167 55240.15 16644.4 56501.15 Q 16121.8 57761.5 15679.8 58655.9 L 17290.5 59281.2 Q 17742.25 58240.55 18188.8 57025.05 Q 18635.35 55809.55 19047.45 54568.7 L 17609.65 53916.75 Z M 20285.7 55634.05 Q 19947.05 56379.6 19481.65 57125.15 Q 19016.25 57870.05 18528.1 58416.05 Q 18815.4 58600 19177.45 58878.85 Q 19538.85 59157.7 19766.35 59361.15 Q 20268.15 58730 20804.4 57843.4 Q 21341.3 56957.45 21763.15 56086.45 L 20285.7 55634.05 Z M 21496.65 52518.6 L 25423.95 52518.6 L 25423.95 53823.8 L 21496.65 53823.8 L 21496.65 52518.6 Z M 27047.65 55141.35 L 27047.65 51201.05 L 19979.55 51201.05 L 19979.55 55141.35 L 22708.25 55141.35 L 22708.25 58309.45 Q 22728.4 58525.9 22428.75 58522.65 Q 22265.6 58533.7 21813.2 58529.15 Q 21360.15 58525.25 20898 58496 Q 21064.4 58816.45 21220.4 59211.65 Q 21377.05 59606.85 21443.35 59946.8 Q 22160.3 59953.95 22710.2 59918.85 Q 23259.45 59883.1 23667 59720.6 Q 24087.55 59558.75 24240.95 59239.6 Q 24394.35 58920.45 24385.25 58349.75 L 24385.25 55141.35 L 27047.65 55141.35 Z M 25104.15 56139.75 Q 25518.2 56872.95 25926.4 57700.4 Q 26334.6 58528.5 26568.6 59161.6 L 28006.4 58509 Q 27754.85 57908.4 27335.6 57118 Q 26917 56327.6 26475.65 55607.4 L 25104.15 56139.75 Z M 31254.45 60665.7 Q 32501.8 60282.85 33184.95 59432.65 Q 33868.1 58583.1 33877.2 57431.3 Q 33875.9 56583.05 33512.55 56100.1 Q 33149.2 55616.5 32439.4 55607.4 Q 31894.7 55612.6 31522.25 55926.55 Q 31149.8 56241.15 31134.85 56805.35 Q 31151.1 57377.35 31517.7 57682.2 Q 31883.65 57987.05 32399.1 57990.3 Q 32482.3 57993.55 32546 57976.65 Q 32406.25 59061.5 30828.7 59587.35 L 31254.45 60665.7 Z M 50090.8 51932.95 Q 49785.95 51282.3 49245.8 50462 Q 48705.65 49641.7 48120.65 48911.1 L 46762.8 49670.3 Q 47330.25 50406.75 47858.05 51275.8 Q 48385.2 52144.85 48653 52811.75 L 50090.8 51932.95 Z M 45644.8 55873.25 L 45644.8 48458.7 L 43914.5 48458.7 L 43914.5 56100.1 Q 43887.85 56635.05 43561.55 57033.5 Q 43235.25 57431.3 42929.1 57617.2 Q 43152.7 57846 43411.4 58219.75 Q 43670.75 58593.5 43794.25 58882.1 Q 43963.25 58705.95 44390.95 58425.8 Q 44786.8 58166.45 45686.4 57667.25 Q 46664.65 57124.5 48586.7 56113.1 Q 48481.4 55827.1 48360.5 55399.4 Q 48239.6 54971.05 48173.95 54595.35 L 45644.8 55873.25 Z M 55002.85 58882.1 Q 54530.3 58185.95 53750.3 57333.15 Q 52970.3 56479.7 52167.55 55673.7 Q 52788.95 54229.4 53106.15 52367.8 Q 53423.35 50506.2 53525.4 48192.2 L 51834.75 48112.9 Q 51745.7 51320.65 51146.4 53569 Q 50762.9 54965.85 50061.55 56026.65 Q 48950.7 57734.85 46696.5 58655.9 Q 46996.8 58929.55 47362.1 59348.15 Q 47727.4 59766.75 47908.1 60040.4 Q 50157.75 58941.9 51368.7 57125.15 Q 52050.55 57866.8 52646.6 58609.1 Q 53243.3 59351.4 53605.35 59933.8 L 55002.85 58882.1 Z M 67289.8 48831.8 Q 66983 48570.5 66511.1 48247.45 Q 66039.85 47924.4 65612.8 47673.5 L 64694.35 48512 Q 65111.65 48792.15 65579.65 49137.95 Q 66047 49483.1 66344.7 49763.25 L 67289.8 48831.8 Z M 60074.8 50801.95 L 59821.95 50841.6 L 58557.7 50841.6 Q 58576.55 50759.05 58596.05 50677.15 Q 58718.25 50170.8 58823.55 49643.65 L 61206.45 49643.65 L 61206.45 48205.85 L 55842 48205.85 L 55842 49643.65 L 57319.45 49643.65 Q 57063.35 51073 56627.2 52300.85 Q 56191.05 53528.7 55535.85 54409.45 Q 55771.8 54650.6 56069.5 55031.5 Q 56367.85 55412.4 56534.25 55673.7 Q 57532.65 54282.7 58171.6 52252.75 L 59409.2 52252.75 Q 59212.9 53450.7 58876.85 54449.1 Q 58537.55 54206.65 58232.7 54009.7 Q 58138.45 53947.95 58051.35 53890.1 L 57226.5 54928.15 Q 57489.75 55119.9 57779 55339.6 Q 58067.6 55558.65 58330.85 55780.3 Q 57369.5 57720.55 55708.75 58682.55 Q 55964.2 58869.1 56274.25 59203.2 Q 56584.95 59537.3 56760.45 59814.2 Q 58445.9 58761.2 59522.3 56587.6 Q 60599.35 54414 60966.6 51054.8 L 60074.8 50801.95 Z M 66744.45 54142.95 Q 66155.55 55064.65 65267 55806.95 Q 65090.2 55061.4 64934.2 54156.6 L 68022.35 53583.95 L 67782.5 52199.45 L 64734 52758.45 Q 64657.95 52155.9 64601.4 51533.85 L 67675.9 51041.15 L 67423.05 49643.65 L 64507.8 50096.05 Q 64448 48794.75 64468.15 47513.6 L 62897.1 47513.6 Q 62897.1 48918.25 62977.05 50322.25 L 61140.15 50601.75 L 61406 52026.55 L 63070 51760.05 Q 63126.55 52422.4 63203.25 53024.95 L 60860.65 53464.35 L 61113.5 54874.85 L 63402.8 54449.1 Q 63622.5 55740.65 63922.15 56792.35 Q 62221.75 57827.15 60221.7 58403.05 Q 60498.6 58682.55 60758.6 59040.05 Q 61018.6 59397.55 61166.8 59707.6 Q 62930.25 59111.55 64454.5 58176.2 Q 64842.55 58992.6 65350.2 59446.3 Q 65857.2 59900 66504.6 59907.15 Q 67278.75 59930.55 67662.9 59482.7 Q 68047.05 59034.85 68221.9 57830.4 Q 67961.9 57706.25 67654.45 57477.45 Q 67347 57248.65 67116.9 56965.25 Q 67069.45 57752.4 66967.4 58070.25 Q 66864.7 58388.1 66677.5 58376.4 Q 66436.35 58371.85 66195.2 58085.2 Q 65954.05 57798.55 65732.4 57284.4 Q 67123.4 56189.8 68075.65 54755.25 L 66744.45 54142.95 Z M 72907.75 50282.6 L 71549.9 50282.6 L 71549.9 53890.1 Q 71575.9 54840.4 71360.1 55913.55 Q 71210.6 56596.7 70854.4 57242.8 Q 70316.2 58258.75 69020.75 58975.05 Q 69272.95 59177.85 69549.85 59472.95 Q 69826.75 59767.4 69978.85 60000.1 Q 71441.35 59064.75 72078.35 57812.2 Q 72429.35 57149.85 72611.35 56453.7 Q 72933.75 55138.1 72907.75 53903.1 L 72907.75 50282.6 Z M 72468.35 57244.75 Q 72873.95 57844.7 73291.9 58517.45 Q 73710.5 59190.2 73945.8 59680.95 L 75091.1 58921.75 Q 74825.25 58443.35 74387.15 57801.8 Q 73949.05 57160.9 73533.7 56592.15 L 72468.35 57244.75 Z M 79204.3 51334.3 Q 78924.8 53843.3 78166.25 55513.8 Q 77307.6 54009.7 76848.05 52185.8 Q 77044.35 51780.2 77220.5 51334.95 Q 77220.5 51334.3 77221.15 51334.3 L 79204.3 51334.3 Z M 81281.05 51334.3 L 81281.05 49936.15 L 77700.2 49936.15 Q 78003.1 48981.3 78205.9 48006.3 L 76808.4 47686.5 Q 76508.1 49173.7 76012.8 50515.3 Q 75517.5 51857.55 74838.25 52825.4 L 74838.25 48179.2 L 69659.7 48179.2 L 69659.7 56352.95 L 70910.95 56352.95 L 70910.95 49590.35 L 73520.05 49590.35 L 73520.05 56299.65 L 74838.25 56299.65 L 74838.25 53117.9 Q 75057.95 53412.35 75285.45 53756.85 Q 75512.95 54101.35 75623.45 54315.85 Q 75802.85 54089.65 75982.9 53823.8 L 75982.9 53823.8 Q 76541.9 55510.55 77380.4 56858.65 Q 76458.7 58136.55 75077.45 58815.8 Q 75310.8 59002.35 75583.8 59336.45 Q 75856.15 59670.55 76009.55 59946.8 Q 77290.7 59254.55 78232.55 58043.6 Q 79217.95 59231.8 80562.15 59960.45 Q 80731.8 59667.95 81002.85 59333.2 Q 81274.55 58997.8 81533.9 58775.5 Q 80069.45 58067 79044.4 56778.7 Q 80146.15 54685.7 80549.15 51334.3 L 81281.05 51334.3 Z M 92702.85 49936.15 L 92396.7 50016.1 L 89268.25 50016.1 L 90080.1 49550.05 Q 89856.5 49143.8 89474.3 48605.6 Q 89092.1 48067.4 88720.3 47570.15 Q 88652.7 47479.8 88589 47394 L 87164.85 48152.55 Q 87463.2 48582.2 87788.85 49079.45 Q 88114.5 49576.7 88362.8 50016.1 L 83171.25 50016.1 L 83171.25 51573.5 L 91198.75 51573.5 Q 90186.7 52854 88768.4 54142.3 Q 88542.85 54347.05 88310.15 54547.25 Q 86852.85 55809.55 85314.3 56739.05 L 85235 56739.05 Q 84672.75 56750.75 83948.65 57219.4 Q 83223.9 57688.7 82492.65 58469.35 L 83637.3 59960.45 Q 84053.95 59292.25 84466.05 58769 Q 84877.5 58245.75 85194.7 58216.5 Q 85465.75 58249.65 85898 58596.75 Q 86168.4 58801.5 86499.25 59001.7 Q 87165.5 59414.45 88028.7 59577.6 Q 88891.9 59740.75 90106.75 59734.25 Q 90969.95 59732.3 92011.9 59697.85 Q 92374.6 59686.15 92725.6 59672.5 Q 93731.8 59631.55 94366.85 59587.35 Q 94397.4 59243.5 94543 58747.55 Q 94688.6 58250.95 94819.25 57896.7 Q 93926.15 58025.4 92760.05 58109.9 Q 92524.75 58127.45 92288.8 58141.75 Q 91116.2 58214.55 90160.05 58216.5 Q 89111.6 58226.25 88275.05 58106.65 Q 87438.5 57987.05 86819.05 57617.2 Q 88631.9 56421.2 90339.45 54843 Q 90752.2 54460.8 91146.75 54065.6 Q 92781.5 52433.45 93927.45 50748.65 L 92702.85 49936.15 Z M 98866.15 50402.2 L 104803.25 50402.2 L 104803.25 50974.85 L 98866.15 50974.85 L 98866.15 50402.2 Z M 98866.15 48937.75 L 104803.25 48937.75 L 104803.25 49483.75 L 98866.15 49483.75 L 98866.15 48937.75 Z M 107718.5 52505.6 L 102713.5 52505.6 Q 102566.6 52222.85 102380.7 51959.6 L 106387.3 51959.6 L 106387.3 47966 L 97348.4 47966 L 97348.4 51959.6 L 101408.95 51959.6 L 100796.65 52146.15 Q 100919.5 52306.05 101022.85 52505.6 L 95977.55 52505.6 L 95977.55 53756.85 L 107718.5 53756.85 L 107718.5 52505.6 Z M 98826.5 57271.4 Q 98265.55 57705.6 97404.95 58080 Q 96545 58454.4 95644.75 58709.2 Q 95920.35 58915.25 96259 59241.55 Q 96597 59567.85 96803.05 59814.2 Q 97696.15 59465.8 98639.95 58950.35 Q 99583.1 58434.9 100277.3 57857.05 L 98826.5 57271.4 Z M 99185.95 55314.25 L 104590.05 55314.25 L 104590.05 56059.8 L 99185.95 56059.8 L 99185.95 55314.25 Z M 106187.75 57138.15 L 106187.75 54235.9 L 97668.2 54235.9 L 97668.2 57138.15 L 101115.8 57138.15 L 101115.8 58562.3 Q 101129.45 58762.5 100862.95 58762.5 Q 100711.5 58772.9 100290.3 58770.3 Q 99869.75 58768.35 99438.8 58748.85 Q 99581.15 59015.35 99698.15 59339.7 Q 99815.8 59663.4 99878.2 59960.45 Q 100575 59965.65 101104.1 59939 Q 101633.85 59911.7 102021.25 59787.55 Q 102404.1 59664.7 102555.55 59398.2 Q 102706.35 59131.05 102699.85 58629.25 L 102699.85 57138.15 L 106187.75 57138.15 Z M 103272.5 58163.2 Q 104122.05 58500.55 105039.85 58938.65 Q 105126.3 58980.25 105211.45 59021.85 Q 106116.25 59461.25 106680.45 59827.2 L 107785.45 58855.45 Q 107160.8 58479.75 106231.3 58068.95 Q 106151.35 58033.2 106070.75 57998.1 Q 105132.15 57591.2 104297.55 57311.05 L 103272.5 58163.2 Z M 117955.35 49750.25 Q 117546.5 50342.4 117116.85 50814.95 L 114774.25 50814.95 Q 115313.1 50302.75 115732.35 49750.25 L 117955.35 49750.25 Z M 113935.1 51986.25 L 119193.6 51986.25 L 119193.6 52678.5 L 114228.25 52678.5 L 114228.25 53783.5 L 119193.6 53783.5 L 119193.6 54502.4 L 113908.45 54502.4 L 113908.45 55673.7 L 116544.2 55673.7 L 115905.25 56206.05 Q 116405.75 56622.05 116940.7 57110.2 Q 117475.65 57597.7 117796.1 57963.65 L 118780.85 57071.85 Q 118508.5 56774.8 118073.65 56403 Q 117638.8 56030.55 117196.8 55673.7 L 120671.05 55673.7 L 120671.05 50814.95 L 118714.55 50814.95 Q 119057.75 50411.3 119376.9 49984.9 Q 119695.4 49558.5 119939.15 49164.6 L 118994.05 48551.65 L 118780.85 48604.95 L 116544.2 48604.95 Q 116669.65 48408.65 116786 48210.4 Q 116872.45 48063.5 116956.95 47926.35 L 115506.15 47659.85 Q 115164.9 48302.05 114596.15 49004.7 Q 114027.4 49706.7 113256.5 50309.25 Q 113575.65 50515.3 113935.1 50881.25 L 113935.1 51986.25 Z M 112724.15 48059.6 L 112497.95 48125.9 L 109529.4 48125.9 L 109529.4 59987.1 L 110900.25 59987.1 L 110900.25 49537.05 L 112018.25 49537.05 Q 111944.15 49836.05 111864.2 50163 Q 111721.85 50749.95 111569.1 51344.7 Q 111416.35 51939.45 111259.7 52439.3 Q 111806.35 53112.7 111998.75 53708.75 Q 112190.5 54304.8 112178.15 54768.9 Q 112184.65 55337.65 111951.95 55527.45 Q 111805.7 55637.3 111578.85 55647.05 Q 111363.05 55650.3 111006.85 55634.05 Q 111175.85 55926.55 111259.7 56300.95 Q 111343.55 56676 111352.65 56978.25 Q 111835.6 56995.15 112217.8 56951.6 Q 112660.45 56885.3 112963.35 56659.1 Q 113582.8 56236.6 113562.65 54954.8 Q 113578.25 54384.75 113381.3 53712 Q 113184.35 53039.25 112590.9 52279.4 Q 112854.8 51536.45 113138.2 50636.2 Q 113421.6 49735.95 113675.1 48899.4 Q 113712.8 48776.55 113749.2 48658.25 L 112724.15 48059.6 Z M 113775.85 59574.35 Q 114096.95 59007.55 114347.85 58297.75 Q 114599.4 57588.6 114760.6 56951.6 L 113562.65 56445.9 Q 113407.3 57061.45 113146.65 57707.55 Q 112886 58353 112590.9 58828.8 L 113775.85 59574.35 Z M 121443.25 58935.4 Q 121263.85 58378.35 120923.9 57678.95 Q 120584.6 56979.55 120205 56352.95 L 118994.05 56792.35 Q 119347 57417.65 119659.65 58123.55 Q 119357.4 58060.5 119040.2 57935.05 Q 118723.65 57810.25 118541 57657.5 Q 118511.1 58199.6 118423.35 58362.75 Q 118335.6 58525.9 118075.6 58509 L 116797.7 58509 Q 116468.15 58516.15 116368.05 58442.7 Q 116268.6 58369.25 116278.35 58136.55 L 116278.35 56565.5 L 114893.85 56565.5 L 114893.85 58163.2 Q 114869.15 59069.3 115223.4 59441.1 Q 115577.65 59812.9 116611.15 59800.55 L 118234.85 59800.55 Q 118934.9 59818.75 119289.8 59509.35 Q 119645.35 59200.6 119766.25 58349.75 Q 120028.85 58985.45 120152.35 59441.1 L 121443.25 58935.4 Z M 128086.25 56259.35 L 128086.25 55580.75 L 129364.15 55580.75 L 129364.15 56259.35 L 128086.25 56259.35 Z M 129364.15 53756.85 L 129364.15 54462.75 L 128086.25 54462.75 L 128086.25 53756.85 L 129364.15 53756.85 Z M 130668.7 52571.9 L 126728.4 52571.9 L 126728.4 59933.8 L 128086.25 59933.8 L 128086.25 57391 L 129364.15 57391 L 129364.15 58389.4 Q 129373.9 58559.05 129204.25 58549.3 Q 129106.75 58549.95 128886.4 58547.35 Q 128666.05 58545.4 128419.05 58535.65 Q 128550.35 58818.4 128642 59183.05 Q 128733 59548.35 128764.85 59840.2 Q 129242.6 59845.4 129600.1 59800.55 Q 129958.25 59755.7 130215.65 59601 Q 130488.65 59433.95 130582.25 59141.45 Q 130675.2 58849.6 130668.7 58403.05 L 130668.7 52571.9 Z M 132971.65 58416.05 Q 132987.9 58615.6 132745.45 58615.6 Q 132592.7 58616.25 132226.1 58614.3 Q 131858.85 58612.35 131427.25 58602.6 Q 131560.5 58893.15 131663.85 59248.05 Q 131766.55 59603.6 131800.35 59893.5 Q 132438.65 59898.7 132909.9 59853.85 Q 133381.15 59809 133690.55 59654.3 Q 134012.95 59500.25 134128 59211.65 Q 134243.05 58923.05 134235.9 58429.7 L 134235.9 52412.65 L 132971.65 52412.65 L 132971.65 58416.05 Z M 132332.7 52918.35 L 131108.1 52918.35 L 131108.1 57777.1 L 132332.7 57777.1 L 132332.7 52918.35 Z M 128432.05 50695.35 Q 129540.3 50042.75 130469.15 49190.6 Q 131414.25 50072.65 132478.95 50695.35 L 128432.05 50695.35 Z M 124824.55 55567.1 L 123932.75 55567.1 L 123932.75 49696.95 L 124824.55 49696.95 L 124824.55 55567.1 Z M 130348.9 47447.3 Q 129601.4 48354.05 128437.25 49089.2 Q 127272.45 49824.35 126036.15 50282.6 L 126036.15 48445.7 L 122721.15 48445.7 L 122721.15 57963.65 L 123932.75 57963.65 L 123932.75 56832 L 126036.15 56832 L 126036.15 50455.5 Q 126281.2 50701.2 126503.5 50981.35 Q 126725.8 51261.5 126861 51507.2 Q 127340.7 51304.4 127819.75 51041.15 L 127819.75 51919.95 L 133237.5 51919.95 L 133237.5 51121.1 Q 133683.4 51344.05 134129.95 51546.85 Q 134269.05 51219.9 134531 50888.4 Q 134792.3 50556.25 135061.4 50309.25 Q 134020.75 49958.25 133084.75 49485.7 Q 132148.75 49012.5 131347.3 48312.45 Q 131467.55 48175.95 131587.15 48019.3 L 130348.9 47447.3 Z M 137670.5 50042.75 L 145977.5 50042.75 L 145977.5 51613.8 L 147601.2 51613.8 L 147601.2 48604.95 L 142862.05 48604.95 Q 142759.35 48311.8 142605.95 48003.05 Q 142453.2 47694.3 142290.05 47420.65 L 140612.4 47899.7 Q 140782.05 48212.35 140932.2 48604.95 L 136113.1 48604.95 L 136113.1 51613.8 L 137670.5 51613.8 L 137670.5 50042.75 Z M 145458.15 52319.05 Q 144967.4 52815 144305.05 53340.85 Q 143642.05 53866.7 142942 54342.5 Q 142546.15 53467.6 141770.7 52731.8 Q 142210.1 52445.8 142569.55 52119.5 L 145524.45 52119.5 L 145524.45 50775.3 L 138083.25 50775.3 L 138083.25 52119.5 L 140373.2 52119.5 Q 139460.6 52610.25 138351.05 52981.4 Q 137241.5 53352.55 136100.1 53583.95 Q 136302.25 53833.55 136538.85 54202.75 Q 136776.1 54572.6 136898.3 54822.2 Q 137842.75 54573.25 138783.95 54228.1 Q 139725.15 53882.3 140599.4 53424.05 Q 140795.7 53643.75 140971.85 53862.8 Q 140971.85 53862.8 140971.85 53863.45 Q 140188.6 54375.65 139019.9 54857.95 Q 138665.65 55004.2 138298.4 55139.4 Q 137088.1 55584 135993.5 55820.6 Q 136209.95 56081.25 136425.75 56422.5 Q 136642.2 56763.75 136778.7 57045.2 Q 137933.75 56687.05 139212.95 56113.75 Q 139244.8 56100.1 139276 56085.8 Q 140553.9 55509.25 141571.15 54874.85 Q 141690.75 55138.1 141770.7 55381.2 Q 140911.4 56096.85 139586.7 56747.5 Q 139084.25 56995.15 138551.25 57216.15 Q 137146.6 57799.2 135793.95 58096.9 Q 136029.9 58379 136256.1 58745.6 Q 136482.3 59112.2 136618.8 59414.45 Q 137974.7 59003 139402.75 58326.35 Q 140830.8 57649.7 141996.9 56858.65 Q 141994.3 57342.25 141889 57690.65 Q 141783.7 58039.05 141610.8 58202.85 Q 141473.65 58406.3 141301.4 58467.4 Q 141129.15 58529.15 140891.9 58522.65 Q 140412.85 58529.15 139693.95 58456.35 Q 139892.85 58796.95 139996.85 59208.4 Q 140100.85 59619.2 140120.35 59960.45 Q 140729.4 59987.1 141198.05 59973.45 Q 141707.65 59970.85 142075.55 59835.65 Q 142442.8 59700.45 142782.75 59348.15 Q 143302.1 58900.3 143489.95 57893.45 Q 143677.15 56886.6 143408.05 55660.7 Q 143462 55628.2 143517.9 55595.7 Q 143672.6 55508.6 143820.8 55407.85 Q 144305.7 56774.15 145116.9 57798.55 Q 145928.75 58823.6 147122.15 59401.45 Q 147302.85 59094.65 147597.95 58720.9 Q 147893.7 58346.5 148173.85 58109.9 Q 147023.35 57636.7 146236.85 56718.9 Q 145451 55801.1 145059.05 54609 Q 145957.35 53999.95 146776.35 53370.75 L 145458.15 52319.05 Z M 155801.6 54222.9 L 157039.85 54222.9 L 156227.35 54635.65 Q 156463.95 54901.5 156710.3 55209.6 Q 156956.65 55517.7 157132.8 55793.95 L 155801.6 55793.95 L 155801.6 54222.9 Z M 157625.5 55793.95 L 158317.75 55407.85 Q 158149.4 55158.9 157873.15 54835.2 Q 157597.55 54511.5 157319.35 54222.9 L 158051.25 54222.9 L 158051.25 52891.7 L 155801.6 52891.7 L 155801.6 51640.45 L 158344.4 51640.45 L 158344.4 50255.95 L 151808 50255.95 L 151808 51640.45 L 154337.15 51640.45 L 154337.15 52891.7 L 152140.8 52891.7 L 152140.8 54222.9 L 154337.15 54222.9 L 154337.15 55793.95 L 151661.75 55793.95 L 151661.75 57084.85 L 158556.95 57084.85 L 158556.95 55793.95 L 157625.5 55793.95 Z M 151142.4 57857.05 L 151142.4 49523.4 L 159023 49523.4 L 159023 57857.05 L 151142.4 57857.05 Z M 149531.7 48072.6 L 149531.7 59987.1 L 151142.4 59987.1 L 151142.4 59321.5 L 159023 59321.5 L 159023 59987.1 L 160713.65 59987.1 L 160713.65 48072.6 L 149531.7 48072.6 Z M 166490.85 49058 Q 166026.1 48697.9 165306.55 48320.9 Q 164587 47943.25 163922.05 47673.5 L 163043.25 48831.8 Q 163729 49143.8 164434.25 49560.45 Q 165140.15 49977.1 165545.75 50348.9 L 166490.85 49058 Z M 165572.4 52811.75 Q 165147.3 52471.15 164467.4 52098.05 Q 163788.15 51724.95 163162.85 51453.9 L 162297.7 52612.2 Q 162931.45 52916.4 163597.7 53331.1 Q 164263.3 53745.15 164667.6 54089.65 L 165572.4 52811.75 Z M 164148.25 59760.9 Q 164692.95 58791.75 165235.05 57715.35 Q 165777.15 56639.6 166251.65 55580.75 L 165027.05 54582.35 Q 164483 55762.75 163868.75 56878.8 Q 163254.5 57994.2 162750.75 58775.5 L 164148.25 59760.9 Z M 169739.55 47460.3 Q 169180.55 48721.95 168080.1 50012.85 Q 166979.65 51304.4 165333.2 52345.7 Q 165604.9 52553.7 165903.9 52913.15 Q 166202.9 53273.25 166384.9 53570.3 Q 166813.9 53267.4 167223.4 52945 L 167223.4 57643.85 Q 167198.05 58822.3 167694 59281.2 Q 168190.6 59740.75 169512.7 59720.6 L 172042.5 59720.6 Q 173137.75 59744.65 173603.15 59196.7 Q 173636.95 59157.7 173668.15 59114.8 Q 174101.05 58517.45 174212.2 57045.2 Q 173876.15 56969.15 173469.9 56798.85 Q 173063.65 56627.9 172787.4 56432.9 Q 172734.1 57568.45 172571.6 57943.5 Q 172565.1 57958.45 172557.95 57973.4 Q 172387.65 58326.35 171922.25 58296.45 L 169672.6 58296.45 Q 169129.2 58308.15 168960.2 58180.1 Q 168791.85 58051.4 168807.45 57643.85 L 168807.45 56392.6 Q 169887.1 56003.9 171077.25 55472.2 Q 172266.75 54941.15 173306.75 54382.8 L 172281.7 53024.95 Q 171575.8 53500.1 170654.75 53978.5 Q 169733.7 54456.25 168807.45 54861.85 L 168807.45 52545.25 L 167716.1 52545.25 Q 169196.8 51274.5 170218.6 49803.55 Q 170977.15 50892.95 171895.6 51833.5 Q 172814.05 52773.4 173772.8 53424.05 Q 173975.6 53117.25 174290.2 52753.25 Q 174605.45 52389.25 174877.8 52172.8 Q 173809.2 51542.95 172792.6 50558.85 Q 171776.65 49574.75 171057.1 48485.35 Q 171259.9 48142.8 171443.2 47780.1 L 169739.55 47460.3 Z M 12777.55 73928.6 Q 12344 74347.2 11746 74800.9 Q 11147.35 75253.95 10554.55 75632.9 Q 9832.4 74884.1 9369.6 73915.6 L 14760.7 73915.6 L 14760.7 72477.8 L 9422.9 72477.8 L 9422.9 69509.25 L 14308.3 69509.25 L 14308.3 68057.8 L 9422.9 68057.8 L 9422.9 66753.25 L 7851.85 66753.25 L 7851.85 68057.8 L 3099.7 68057.8 L 3099.7 69509.25 L 7851.85 69509.25 L 7851.85 72477.8 L 2686.95 72477.8 L 2686.95 73915.6 L 4683.75 73915.6 L 4683.75 76817.2 Q 4668.15 77223.45 4445.85 77459.4 Q 4223.55 77696 3978.5 77802.6 Q 4165.7 78071.7 4337.95 78483.15 Q 4510.2 78894.6 4577.15 79213.75 Q 4749.4 79104.55 5203.75 78978.45 Q 5546.3 78882.9 6219.7 78732.1 Q 7127.75 78529.3 8997.15 78135.4 Q 8996.5 77846.15 9028.35 77404.8 Q 9060.2 76963.45 9129.75 76604.65 L 6334.75 77163.65 L 6334.75 73915.6 L 7812.2 73915.6 Q 8631.85 75989.75 10115.15 77280 Q 11598.45 78570.25 13975.5 79107.15 Q 14135.4 78772.4 14405.15 78379.8 Q 14674.25 77987.85 14934.25 77722.65 Q 12943.95 77366.45 11592.6 76471.4 Q 12188.65 76126.9 12812.65 75702.45 Q 13436 75278 14002.15 74834.05 L 12777.55 73928.6 Z M 4018.15 70081.25 Q 4412.7 70650 4796.85 71292.85 Q 5181 71936.35 5376 72424.5 L 6853.45 71798.55 Q 6629.2 71292.2 6222.95 70670.8 Q 5816.7 70049.4 5402.65 69522.25 L 4018.15 70081.25 Z M 11499.65 72437.5 Q 11915 71997.45 12393.4 71384.5 Q 12871.15 70771.55 13336.55 70121.55 L 11738.85 69535.9 Q 11477.55 70104 11078.45 70757.25 Q 10679.35 71410.5 10288.05 71918.8 L 11499.65 72437.5 Z M 25637.15 74847.05 L 25637.15 77110.35 L 21190.5 77110.35 L 21190.5 74847.05 L 25637.15 74847.05 Z M 19579.8 79187.1 L 21190.5 79187.1 L 21190.5 78587.8 L 25637.15 78587.8 L 25637.15 79146.8 L 27314.15 79146.8 L 27314.15 73382.6 L 19579.8 73382.6 L 19579.8 79187.1 Z M 18887.55 70401.05 L 18887.55 69203.1 Q 21106 69075.05 23323.8 68805.3 Q 25542.25 68535.55 27380.45 68098.1 L 26089.55 66806.55 Q 24710.9 67143.9 22777.8 67390.25 Q 22062.15 67482.55 21308.15 67560.55 Q 19271.05 67769.85 17237.2 67871.9 L 17237.2 71519.05 Q 17256.7 72744.3 17100.7 74185.35 Q 17018.15 74873.7 16853.05 75555.55 Q 16528.05 76982.3 15679.8 78135.4 Q 15971.65 78304.4 16368.15 78635.9 Q 16765.3 78967.4 16997.35 79226.75 Q 17869.65 78054.15 18283.05 76530.55 Q 18524.2 75672.55 18655.5 74795.05 Q 18877.8 73238.95 18887.55 71918.8 L 28205.95 71918.8 L 28205.95 70401.05 L 18887.55 70401.05 Z M 31121.2 76418.1 L 31121.2 73809 L 33238.25 73809 L 33238.25 76418.1 L 31121.2 76418.1 Z M 33238.25 72437.5 L 31121.2 72437.5 L 31121.2 70281.45 L 33238.25 70281.45 L 33238.25 72437.5 Z M 37471.05 68803.35 Q 37770.7 67968.1 37990.4 67112.7 L 36472.65 66766.9 Q 36179.5 67951.85 35719.3 69075.05 Q 35258.45 70197.6 34675.4 71053 L 34675.4 68896.95 L 32612.3 68896.95 Q 32958.75 68014.9 33304.55 66993.1 L 31574.25 66753.25 Q 31531.35 67235.55 31426.05 67810.15 Q 31320.75 68384.75 31188.15 68896.95 L 29683.4 68896.95 L 29683.4 78787.35 L 31121.2 78787.35 L 31121.2 77815.6 L 34675.4 77815.6 L 34675.4 71599 Q 34955.55 71784.25 35242.85 71987.05 Q 35530.8 72189.2 35700.45 72344.55 Q 36336.15 71462.5 36872.4 70241.15 L 39720.7 70241.15 Q 39618.65 73663.4 39464.6 75337.15 Q 39458.1 75405.4 39451.6 75471.05 Q 39293.65 77083.05 39015.45 77363.2 Q 38890 77490.6 38757.4 77541.3 Q 38624.8 77591.35 38429.8 77589.4 Q 38158.75 77592 37627.7 77579.65 Q 37096.65 77567.3 36446 77509.45 Q 36659.85 77853.3 36800.9 78281.65 Q 36941.95 78710 36965.35 79053.85 Q 37564 79075.95 38115.2 79075.3 Q 38666.4 79075.3 39055.1 79027.2 Q 39449.65 78966.75 39754.5 78810.75 Q 40058.7 78655.4 40333 78295.3 Q 40638.5 77926.1 40806.2 76745.7 Q 40913.45 75988.45 40989.5 74779.45 Q 41105.85 72882.1 41198.8 69522.25 Q 41207.9 69355.2 41210.5 69093.25 Q 41212.45 68831.3 41211.8 68803.35 L 37471.05 68803.35 Z M 39001.8 74873.7 Q 38671.6 74268.55 38118.45 73450.85 Q 37565.95 72633.8 37045.3 71918.8 L 35807.05 72624.05 Q 36316 73379.35 36837.3 74226.3 Q 37358.6 75073.9 37657.6 75699.2 L 39001.8 74873.7 Z M 52553.65 70507.65 L 52553.65 75313.1 Q 52004.4 74636.45 51143.15 73785.6 Q 51059.95 73702.4 50974.8 73619.2 Q 50100.55 72764.45 49265.95 72011.75 Q 49418.7 71239.55 49451.85 70507.65 L 52553.65 70507.65 Z M 44779.65 70507.65 L 47814.5 70507.65 Q 47802.8 71533.35 47421.25 72623.4 Q 47245.1 73092.7 46951.3 73545.1 Q 46300 74598.75 44779.65 75419.7 L 44779.65 70507.65 Z M 54124.7 68963.25 L 49465.5 68963.25 L 49465.5 66753.25 L 47828.15 66753.25 L 47828.15 68963.25 L 43195.6 68963.25 L 43195.6 79213.75 L 44779.65 79213.75 L 44779.65 75459.35 Q 45080.6 75695.3 45391.95 76035.25 Q 45703.3 76375.85 45884.65 76631.3 Q 46966.9 75985.2 47665 75200 Q 48363.1 74414.8 48746.6 73569.15 Q 49490.85 74312.1 50162.3 75050.5 Q 50834.4 75788.25 51249.1 76351.8 L 52553.65 75339.75 L 52553.65 77336.55 Q 52556.9 77512.7 52482.15 77580.95 Q 52407.4 77649.85 52220.85 77656.35 Q 52161.7 77656.35 52061.6 77657 Q 51773 77659.6 51288.1 77656.35 Q 50803.2 77653.75 50291 77629.7 Q 50466.5 77956 50615.35 78399.95 Q 50763.55 78843.9 50809.7 79200.1 Q 51697.6 79206.6 52340.45 79155.25 Q 52983.95 79103.9 53392.15 78920.6 Q 53804.9 78737.95 53968.05 78373.3 Q 54131.2 78008.65 54124.7 77376.2 L 54124.7 68963.25 Z M 59688.7 68044.8 Q 60534.35 68617.45 61443.7 69325.3 Q 61683.55 69512.5 61912.35 69699.7 Q 62780.75 70404.95 63283.2 70960.05 L 64454.5 69721.8 Q 63896.8 69160.2 62997.85 68494.6 Q 62762.55 68319.1 62519.45 68144.9 Q 61588.65 67484.5 60767.05 66966.45 L 59688.7 68044.8 Z M 65093.45 71506.05 Q 65584.2 72613.65 66002.15 73879.85 Q 66071.7 74090.45 66136.7 74299.75 Q 66528 75554.9 66677.5 76524.7 L 68288.2 75859.1 Q 68069.15 74804.15 67609.6 73476.85 Q 67604.4 73462.55 67599.85 73448.25 Q 67138.35 72120.3 66571.55 70906.75 L 65093.45 71506.05 Z M 56840.4 71333.15 Q 56706.5 72685.8 56437.4 74056.65 Q 56168.95 75427.5 55815.35 76511.05 L 57412.4 77150 Q 57725.7 76077.5 57959.05 74700.15 Q 57998.7 74468.1 58036.4 74234.75 Q 58254.8 72845.05 58384.15 71625.65 L 56840.4 71333.15 Z M 59236.3 70547.3 L 59236.3 76724.25 Q 59212.25 77963.15 59692.6 78457.8 Q 60172.3 78953.1 61446.3 78934.25 L 63669.3 78934.25 Q 64774.95 78957.65 65251.4 78331.7 Q 65329.4 78230.3 65396.35 78108.1 Q 65800 77354.75 65905.95 75619.25 Q 65558.85 75534.1 65135.05 75351.45 Q 64711.25 75168.8 64414.85 74953.65 Q 64362.85 76375.85 64214 76906.9 Q 64191.25 76987.5 64163.95 77053.8 Q 63988.45 77487.35 63536.05 77456.15 L 61632.2 77456.15 Q 61166.8 77469.15 61019.9 77324.85 Q 60873.65 77180.55 60887.3 76724.25 L 60887.3 70547.3 L 59236.3 70547.3 Z M 77580.6 73090.1 L 81094.5 73090.1 L 81094.5 71745.25 L 77580.6 71745.25 L 77580.6 71000.35 L 80522.5 71000.35 L 80522.5 69682.15 L 77580.6 69682.15 L 77580.6 68909.95 L 80987.9 68909.95 L 80987.9 67578.75 L 77580.6 67578.75 L 77580.6 66594 L 75956.25 66594 L 75956.25 74022.2 L 77580.6 74022.2 L 77580.6 73090.1 Z M 77287.45 75939.05 Q 77026.15 75576.35 76629.65 75109.65 Q 76233.8 74642.3 75830.15 74182.75 Q 75613.7 73935.1 75423.9 73715.4 L 74172.65 74421.3 Q 74652.35 74981.6 75159.35 75624.45 Q 75666.35 76267.3 75956.25 76737.25 L 77287.45 75939.05 Z M 73027.35 73995.55 L 74651.7 73995.55 L 74651.7 66620.65 L 73027.35 66620.65 L 73027.35 67605.4 L 69579.75 67605.4 L 69579.75 68950.25 L 73027.35 68950.25 L 73027.35 69669.15 L 69926.2 69669.15 L 69926.2 70986.7 L 73027.35 70986.7 L 73027.35 71812.2 L 69460.15 71812.2 L 69460.15 73143.4 L 73027.35 73143.4 L 73027.35 73995.55 Z M 70658.1 78454.55 Q 71009.75 77747.35 71359.45 76862.05 Q 71708.5 75977.4 71993.2 75205.85 L 72002.3 75179.85 L 70591.8 74607.85 Q 70334.4 75395.65 69962.6 76236.75 Q 69590.8 77077.2 69193.65 77735.65 L 70658.1 78454.55 Z M 74691.35 77469.8 Q 74157.7 77479.55 73991.3 77389.85 Q 73824.25 77300.15 73839.85 76990.75 L 73839.85 74514.25 L 72268.8 74514.25 L 72268.8 77017.4 Q 72240.2 78068.45 72721.2 78483.15 Q 73202.2 78897.85 74532.1 78880.95 L 76954.65 78880.95 Q 77990.75 78906.3 78440.55 78450 Q 78890.35 77993.7 79017.75 76750.9 Q 78671.95 76677.45 78265.7 76526 Q 77860.1 76375.2 77593.6 76191.9 Q 77548.1 76996.6 77397.3 77244.9 Q 77246.5 77493.2 76821.4 77469.8 L 74691.35 77469.8 Z M 78125.95 74780.75 Q 78592 75617.95 79090.55 76558.5 Q 79138 76648.2 79184.15 76736.6 Q 79674.25 77669.35 79949.85 78334.95 L 81480.6 77762.3 Q 81214.1 77189.65 80781.85 76431.75 Q 80349.6 75673.2 79903.05 74921.8 Q 79710.65 74597.45 79537.1 74301.7 L 78125.95 74780.75 Z M 94393.5 68164.4 L 91118.8 68164.4 Q 90984.9 67817.95 90805.5 67433.8 Q 90626.75 67050.3 90453.2 66713.6 L 88882.15 67139.35 Q 89105.1 67622.3 89307.9 68164.4 L 85807 68164.4 L 85807 69655.5 L 94393.5 69655.5 L 94393.5 68164.4 Z M 85461.2 70746.85 Q 85213.55 70011.05 84733.85 69049.7 Q 84254.15 68089 83756.9 67232.95 L 82399.05 67964.85 Q 82884.6 68861.85 83329.85 69860.9 L 83332.45 69866.1 Q 83777.05 70865.15 83983.1 71612.65 L 85461.2 70746.85 Z M 84169.65 73116.75 Q 83727 74440.15 83204.4 75701.15 Q 82681.8 76961.5 82239.8 77855.9 L 83850.5 78481.2 Q 84302.25 77440.55 84748.8 76225.05 Q 85195.35 75009.55 85607.45 73768.7 L 84169.65 73116.75 Z M 86845.7 74834.05 Q 86507.05 75579.6 86041.65 76325.15 Q 85576.25 77070.05 85088.1 77616.05 Q 85375.4 77800 85737.45 78078.85 Q 86098.85 78357.7 86326.35 78561.15 Q 86828.15 77930 87364.4 77043.4 Q 87901.3 76157.45 88323.15 75286.45 L 86845.7 74834.05 Z M 88056.65 71718.6 L 91983.95 71718.6 L 91983.95 73023.8 L 88056.65 73023.8 L 88056.65 71718.6 Z M 93607.65 74341.35 L 93607.65 70401.05 L 86539.55 70401.05 L 86539.55 74341.35 L 89268.25 74341.35 L 89268.25 77509.45 Q 89288.4 77725.9 88988.75 77722.65 Q 88825.6 77733.7 88373.2 77729.15 Q 87920.15 77725.25 87458 77696 Q 87624.4 78016.45 87780.4 78411.65 Q 87937.05 78806.85 88003.35 79146.8 Q 88720.3 79153.95 89270.2 79118.85 Q 89819.45 79083.1 90227 78920.6 Q 90647.55 78758.75 90800.95 78439.6 Q 90954.35 78120.45 90945.25 77549.75 L 90945.25 74341.35 L 93607.65 74341.35 Z M 91664.15 75339.75 Q 92078.2 76072.95 92486.4 76900.4 Q 92894.6 77728.5 93128.6 78361.6 L 94566.4 77709 Q 94314.85 77108.4 93895.6 76318 Q 93477 75527.6 93035.65 74807.4 L 91664.15 75339.75 Z M 97801.45 74727.45 Q 96899.25 74750.85 96290.85 75360.55 L 96289.55 75361.85 Q 95681.8 75972.2 95657.75 76884.15 Q 95681.8 77795.45 96289.55 78405.8 L 96290.85 78407.1 Q 96899.25 79016.8 97801.45 79040.2 Q 98722.5 79016.8 99328.95 78406.45 Q 99935.4 77796.1 99957.5 76884.15 Q 99935.4 75971.55 99328.95 75361.2 Q 98722.5 74750.85 97801.45 74727.45  Z M 97801.45 78082.1 Q 97308.1 78069.75 96969.45 77732.4 Q 96630.8 77395.7 96616.5 76884.15 Q 96630.8 76372.6 96969.45 76035.25 Q 97308.1 75698.55 97801.45 75686.2 Q 98313 75698.55 98649.7 76035.25 Q 98987.05 76372.6 98999.4 76884.15 Q 98987.05 77395.7 98649.7 77732.4 Q 98313 78069.75 97801.45 78082.1  Z " fill-rule="nonzero" style="fill:#555555;;fill-opacity:1;"/>
</svg>