<svg version="1.1" x="0" y="0" width="100%" height="100%" viewBox="0 0 419840 40652.8" xmlns="http://www.w3.org/2000/svg">
  <path d="M 2048 28058 L 9728 28058 L 9728 7578 L 2048 7578 L 2048 28058 Z M 46756 17777 Q 47237 17782 47350 17449 Q 46681 16884 45935 16301 Q 45682 16103 45464 15934 Q 44812 15431 44769 15401 L 43336 17183 L 39035 17183 L 39035 13066 L 44892 13066 Q 45363 13066 45466 12759 Q 44780 12168 44038 11598 Q 43831 11438 43649 11299 Q 42990 10801 42947 10772 L 41533 12493 L 39035 12493 L 39035 9093 Q 39441 9030 39606 8883 Q 39770 8736 39793 8520 L 36577 8212 L 36577 12493 L 33628 12493 Q 34202 11510 34652 10342 Q 35359 10337 35451 9933 L 32154 8991 Q 31801 11200 31091 13194 Q 30381 15188 29491 16630 L 29737 16794 Q 31795 15437 33300 13066 L 36577 13066 L 36577 17183 L 28426 17183 L 28611 17777 L 35185 17777 Q 34138 20107 32323 22310 Q 30508 24514 28140 26092 L 28324 26337 Q 30940 25241 33019 23703 Q 35098 22165 36577 20255 L 36577 27423 L 37048 27423 Q 37777 27394 38387 27092 Q 38997 26791 39035 26563 L 39035 17818 Q 40975 23613 45650 26030 Q 45889 25165 46400 24622 Q 46911 24079 47596 23921 L 47657 23675 Q 45275 23012 43101 21532 Q 43013 21471 42926 21409 Q 40773 19900 39444 17777 L 46756 17777 Z M 61440 15094 L 52183 15094 Q 53793 14335 55022 13427 Q 56252 12519 57139 11530 L 60314 11530 Q 61169 12856 62362 13906 L 61440 15094 Z M 60600 17859 L 55501 17859 L 55501 15688 L 60600 15688 L 60600 17859 Z M 55501 23634 L 55501 21320 L 60600 21320 L 60600 23409 L 55501 23634 Z M 60600 20726 L 55501 20726 L 55501 18432 L 60600 18432 L 60600 20726 Z M 68055 13640 Q 66329 13589 64492 13144 Q 64263 13086 64037 13021 Q 62230 12519 61010 11530 L 67052 11530 Q 67538 11535 67625 11203 Q 66995 10640 66260 10071 Q 66012 9877 65795 9712 Q 65149 9224 65106 9196 L 63734 10936 L 57651 10936 Q 58240 10199 58675 9462 Q 59351 9549 59474 9114 L 56463 8090 Q 55921 9452 54886 10936 L 49091 10936 L 49254 11530 L 54456 11530 Q 53462 12816 52045 14006 Q 50628 15196 48742 16159 L 48865 16364 Q 50248 15949 51446 15442 L 51507 15688 L 53125 15688 L 53125 23736 L 49050 23921 L 49213 24453 L 60600 23962 L 60600 27423 L 61051 27423 Q 61964 27398 62469 27182 Q 62975 26966 62996 26849 L 62996 23859 L 67133 23675 Q 67558 23639 67645 23327 Q 67152 22796 66593 22258 Q 66507 22176 66428 22099 Q 65903 21599 65864 21565 L 64635 23224 L 62996 23306 L 62996 15688 L 63898 15688 Q 64358 15693 64451 15360 L 64287 15217 Q 65265 15744 66335 16056 Q 66401 15370 66836 14856 Q 67272 14342 68014 13947 L 68055 13640 Z M 80220 17818 L 85565 8479 L 84972 8110 L 79401 17818 L 84972 27525 L 85565 27156 L 80220 17818 Z M 83128 17818 L 88474 8479 L 87880 8110 L 82309 17818 L 87880 27525 L 88474 27156 L 83128 17818 Z M 95744 13394 Q 96455 13353 96940 13189 Q 97424 13025 97444 12861 L 97444 11305 L 101089 11305 L 101089 13292 L 101478 13292 Q 102301 13276 102871 13107 Q 103441 12938 103465 12800 L 103465 11305 L 108360 11305 Q 108836 11310 108913 10977 Q 108344 10432 107691 9874 Q 107523 9729 107373 9601 Q 106783 9104 106742 9073 L 105492 10732 L 103465 10732 L 103465 9032 Q 103857 8984 104015 8840 Q 104173 8696 104182 8479 L 101089 8212 L 101089 10732 L 97444 10732 L 97444 9032 Q 97836 8984 97994 8840 Q 98152 8696 98161 8479 L 95109 8212 L 95109 10732 L 89764 10732 L 89907 11305 L 95109 11305 L 95109 13087 L 93983 12575 Q 93142 14806 91953 16799 Q 90763 18792 89539 20132 L 89764 20337 Q 91085 19599 92344 18555 L 92344 27423 L 92774 27423 Q 93464 27400 94011 27177 Q 94558 26954 94618 26808 L 94618 17142 Q 95165 17050 95252 16773 L 94474 16466 Q 95340 15452 96113 14254 Q 96809 14331 96952 13947 L 95744 13394 Z M 98509 21422 L 98509 17900 L 100393 17900 L 100393 21422 L 98509 21422 Z M 102502 18186 Q 103096 18033 103260 17818 L 101192 16241 L 100209 17306 L 98611 17306 L 96440 16425 L 96440 23941 L 96748 23941 Q 97422 23916 97951 23672 Q 98479 23428 98509 23265 L 98509 22016 L 100393 22016 L 100393 23409 L 100762 23409 Q 101312 23388 101878 23199 Q 102444 23009 102502 22897 L 102502 18186 Z M 105431 14438 L 96174 14438 L 96338 15032 L 104387 15032 L 104387 24494 Q 104433 24873 103956 24883 Q 103646 24879 102934 24836 Q 102519 24812 102141 24787 Q 101489 24744 101437 24740 L 101437 25006 Q 102191 25132 102600 25334 Q 103008 25536 103240 25784 Q 103639 26327 103670 27423 Q 105528 27266 106142 26581 Q 106215 26508 106276 26429 Q 106793 25694 106742 24576 L 106742 15032 L 108442 15032 Q 108913 15037 109015 14705 Q 108408 14150 107724 13589 Q 107541 13438 107377 13305 Q 106763 12810 106721 12780 L 105431 14438 Z M 116265 13681 Q 116928 13626 117376 13471 Q 117824 13316 117842 13169 L 117842 11407 L 121610 11407 L 121610 13619 L 121999 13619 Q 122822 13589 123392 13402 Q 123962 13214 123986 13046 L 123986 11407 L 128819 11407 Q 129306 11412 129393 11080 Q 128830 10541 128169 9980 Q 127982 9820 127815 9680 Q 127222 9186 127181 9155 L 125911 10834 L 123986 10834 L 123986 9011 Q 124391 8949 124547 8814 Q 124702 8679 124723 8479 L 121610 8192 L 121610 10834 L 117842 10834 L 117842 9011 Q 118234 8949 118392 8814 Q 118550 8679 118559 8479 L 115507 8192 L 115507 10834 L 110244 10834 L 110387 11407 L 115507 11407 L 115507 13332 L 115200 13189 Q 114263 15709 112865 17841 Q 111468 19972 109978 21340 L 110162 21545 Q 112179 20608 113951 19087 L 113951 27402 L 114401 27402 Q 115094 27380 115668 27167 Q 116243 26953 116306 26808 L 116306 17981 Q 116854 17874 116941 17613 L 115814 17183 Q 116664 16174 117391 14950 Q 118124 15017 118272 14623 L 116265 13681 Z M 128410 21463 L 128164 21463 Q 127871 22493 127629 23258 Q 127386 24022 127201 24330 Q 127007 24643 126628 24617 Q 126136 24653 125030 24658 L 123105 24658 Q 122595 24662 122414 24535 Q 122234 24408 122245 24105 L 122245 20132 Q 123652 19593 125036 18862 Q 126419 18131 127672 17224 Q 128358 17469 128614 17162 L 126300 14991 Q 124426 16916 122245 18473 L 122245 14520 Q 122921 14413 122921 13967 L 119890 13681 L 119890 20029 Q 118758 20710 117719 21176 L 117821 21422 Q 118810 21238 119890 20931 L 119890 24658 Q 119859 25908 120445 26371 Q 121032 26833 122614 26808 L 124805 26808 Q 127413 26817 128397 26496 Q 129380 26175 129331 25416 Q 129341 25098 129155 24873 Q 128968 24648 128471 24453 L 128410 21463 Z M 143872 13435 L 143606 13558 Q 144824 15412 145824 17655 Q 145900 17830 145974 18006 Q 146937 20261 147210 22426 Q 148294 23317 149034 22818 Q 149774 22318 149769 20905 Q 149763 20691 149734 20462 Q 149578 18949 148213 17073 Q 146847 15197 143872 13435  Z M 134554 13025 Q 134249 14951 133543 17305 Q 133243 18292 132871 19276 Q 131999 21624 130744 23511 L 130949 23695 Q 133094 22004 134539 19791 Q 134845 19335 135123 18872 Q 136434 16627 137175 14602 Q 137567 14601 137743 14500 Q 137920 14399 137974 14213 L 134554 13025 Z M 139244 8479 L 139244 24187 Q 139279 24607 138732 24596 Q 138393 24593 137565 24551 Q 136835 24515 136185 24478 Q 135445 24436 135393 24433 L 135393 24719 Q 136328 24872 136832 25093 Q 137336 25315 137626 25620 Q 137941 25895 138084 26335 Q 138227 26774 138281 27402 Q 140324 27207 141041 26567 Q 141193 26439 141309 26294 Q 141835 25565 141783 24392 L 141783 9380 Q 142500 9262 142541 8806 L 139244 8479 Z M 162263 22528 L 151511 22528 L 151654 23122 L 165151 23122 Q 165637 23127 165724 22794 Q 165130 22263 164463 21709 Q 164288 21564 164133 21435 Q 163533 20942 163492 20910 L 162263 22528 Z M 167956 17490 L 166687 18698 L 156631 18698 L 156631 11264 L 164516 11264 Q 164296 15345 163676 15892 Q 163560 15983 163420 16020 Q 163281 16058 163041 16056 Q 162707 16055 161997 16015 Q 161286 15976 160707 15913 L 160707 16179 Q 161946 16425 162447 16916 Q 162672 17158 162747 17472 Q 162822 17786 162816 18227 Q 163658 18236 164303 18117 Q 164949 17999 165437 17654 Q 166130 17161 166461 15754 Q 166793 14348 166932 11674 Q 167526 11551 167752 11305 L 165560 9503 L 164332 10691 L 159334 10691 Q 159773 10329 160220 9940 Q 160667 9552 161014 9236 Q 161715 9231 161833 8704 L 158208 8069 Q 158183 8383 158157 8750 Q 158122 9243 158080 9751 Q 158038 10259 157983 10691 L 156938 10691 L 154214 9626 L 154214 18452 Q 153846 18744 153600 19067 L 156037 20480 L 156774 19292 L 166892 19292 Q 166804 21604 166625 23055 Q 166446 24507 166113 24822 Q 165914 25021 165437 25006 Q 165035 25003 164066 24948 Q 163974 24942 163879 24936 Q 162888 24877 162017 24801 L 162017 25068 Q 162816 25208 163476 25428 Q 164137 25649 164475 25928 Q 165074 26435 165028 27402 Q 166075 27407 166753 27246 Q 167432 27085 167895 26706 Q 168602 26131 168922 24399 Q 169241 22668 169349 19681 Q 169948 19574 170148 19313 L 167956 17490 Z M 157921 12268 Q 158515 12838 159096 13642 Q 159678 14447 159949 15278 Q 160884 15740 161506 15333 Q 162073 14964 162079 14269 Q 162084 13575 161242 12945 Q 160331 12254 158065 12124 L 157921 12268 Z M 179261 19108 Q 180347 19590 181110 20191 Q 181873 20792 182190 21258 Q 182957 21500 183353 21027 Q 183674 20645 183526 20101 Q 183379 19557 182569 19150 Q 181602 18647 179364 18821 L 179261 19108 Z M 177644 22057 Q 179670 22640 181243 23427 Q 182816 24213 183583 24842 Q 184456 25003 184818 24453 Q 185165 23922 184696 23191 Q 184227 22460 182610 21985 Q 180940 21492 177684 21770 L 177644 22057 Z M 175370 25211 L 175370 10322 L 178401 10322 Q 178123 11708 177484 13373 L 177424 13527 Q 176770 15190 175862 16486 L 176026 16732 Q 177469 15703 178606 14336 Q 179302 15677 180306 16650 Q 178258 18458 175534 19558 L 175677 19825 Q 178944 19067 181350 17572 Q 183117 18872 185405 19620 Q 185769 18048 187023 17674 L 187023 17428 Q 184899 17152 182927 16445 Q 184484 15181 185487 13578 Q 185849 13553 186038 13494 Q 186227 13434 186327 13271 L 184361 11551 L 183132 12677 L 179855 12677 Q 180198 12129 180449 11612 Q 181007 11694 181105 11407 L 178504 10322 L 187064 10322 L 187064 25211 L 175370 25211 Z M 183071 13271 Q 182380 14592 181289 15729 Q 179866 15022 178934 13947 Q 179205 13609 179445 13271 Q 179446 13271 179446 13271 L 183071 13271 Z M 188027 8438 L 186860 9728 L 175555 9728 L 172995 8663 L 172995 27402 L 173404 27402 Q 174199 27375 174771 27067 Q 175343 26759 175370 26501 L 175370 25784 L 187064 25784 L 187064 27300 L 187453 27300 Q 188153 27269 188785 26982 L 188795 26978 Q 189424 26690 189481 26522 L 189481 10711 Q 190126 10573 190341 10281 L 188027 8438 Z M 195604 27525 L 201175 17818 L 195604 8110 L 195011 8479 L 200356 17818 L 195011 27156 L 195604 27525 Z M 192696 27525 L 198267 17818 L 192696 8110 L 192102 8479 L 197448 17818 L 192102 27156 L 192696 27525 Z " fill-rule="nonzero" style="fill:#333333;;fill-opacity:1;"/>
</svg>