<svg version="1.1" x="0" y="0" width="100%" height="100%" viewBox="0 0 179148.8 83865.6" xmlns="http://www.w3.org/2000/svg">
  <path d="M 16978.25 6804.15 L 16978.25 6727.65 L 12185.75 6727.65 L 12185.75 21227.4 L 16978.25 21227.4 L 16978.25 21150.9 Q 15689 20049.9 14829.5 18203.4 Q 13970 16356.9 13937 13977.9 Q 13970 11598.15 14829.5 9751.65 Q 15689 7905.15 16978.25 6804.15  Z M 23168 13255.65 L 21524.75 13701.15 L 21524.75 11643.15 Q 22164.5 10926.9 22753.25 10072.65 Q 23342 9217.65 23798 8386.65 L 22599.5 7557.15 L 22262 7664.4 L 18299 7664.4 L 18299 9354.15 L 21140.75 9354.15 Q 20827.25 9865.65 20482.25 10337.4 Q 20136.5 10808.4 19788.5 11181.9 L 19788.5 14177.4 Q 19249.25 14302.65 18775.25 14419.65 Q 18278 14541.9 17853.5 14637.9 L 18252.5 16404.15 Q 18963.5 16197.15 19788.5 15943.65 L 19788.5 19000.65 Q 19804.25 19234.65 19543.25 19215.15 Q 19488.5 19215.15 19397.75 19216.65 Q 19205.75 19219.65 18903.5 19218.9 Q 18601.25 19217.4 18252.5 19200.15 Q 18431 19595.4 18577.25 20082.9 Q 18723.5 20571.15 18775.25 20966.4 Q 19475 20972.4 19994 20907.15 Q 20513 20841.15 20879 20628.15 Q 21252.5 20403.9 21392 20017.65 Q 21531.5 19632.15 21524.75 19015.65 L 21524.75 15436.65 Q 22445.75 15156.15 23367.5 14853.15 L 23168 13255.65 Z M 30755.75 6696.9 Q 29448.5 7110.9 27626.75 7440.15 Q 27597.5 7445.4 27568.25 7451.4 Q 25741.25 7778.4 23874.5 7986.9 L 23874.5 10797.9 Q 23892.5 12311.4 23734.25 14195.4 Q 23630 15346.65 23390.75 16512.15 Q 23014.25 18419.4 22108.25 20029.65 Q 22407.5 20152.65 22812.5 20457.9 Q 23218.25 20762.4 23459.75 21012.15 Q 24359.75 19427.4 24799.25 17463.15 Q 25166 15849.15 25312.25 14252.4 Q 25484.75 12309.9 25472 10797.9 L 25472 9339.15 Q 26086.25 9273.9 26700.5 9185.4 L 26700.5 10797.9 Q 26723.75 12273.15 26589.5 14049.15 Q 26498.75 15134.4 26264 16216.65 Q 25897.25 17988.15 24934.25 19445.4 Q 25189.25 19654.65 25550.75 20039.4 Q 25912.25 20423.4 26086.25 20689.65 Q 26226.5 20568.15 26719.25 20379.15 Q 26759.75 20363.4 26803.25 20347.65 Q 27341 20148.15 28712.75 19737.9 Q 28743.5 19926.9 28772.75 20106.15 Q 28834.25 20472.9 28882.25 20797.65 L 30156.5 20413.65 Q 30022.25 19508.4 29726.75 18354.9 Q 29431.25 17202.15 29066 16158.9 L 27868.25 16512.15 Q 28140.5 17360.4 28390.25 18324.15 L 28390.25 18324.15 L 27146 18631.65 Q 27829.25 16769.4 28037 14862.9 Q 28080.5 14503.65 28112 14151.9 Q 28258.25 12280.65 28236.5 10828.65 L 28236.5 8970.15 Q 28774.25 8881.65 29312 8770.65 Q 29421.5 12158.4 29748.5 15132.9 Q 29804.75 15615.9 29870.75 16081.65 Q 30254 18948.15 31109 20920.65 Q 31354.25 20550.15 31729.25 20165.4 Q 32104.25 19781.4 32429.75 19537.65 Q 31740.5 18032.4 31385.75 15696.9 Q 31239.5 14772.15 31133 13764.15 Q 30875.75 11221.65 30771.5 8478.9 Q 31427.75 8321.4 32015 8140.65 L 30755.75 6696.9 Z M 41738 10383.15 L 43366.25 10383.15 L 43366.25 9354.15 L 46745.75 9354.15 L 46745.75 7879.65 L 43366.25 7879.65 L 43366.25 6819.9 L 41738 6819.9 L 41738 7879.65 L 38343.5 7879.65 L 38343.5 9354.15 L 41738 9354.15 L 41738 10383.15 Z M 34519.25 14008.65 Q 34741.25 13050.15 34874 11850.15 Q 35007.5 10650.15 35010.5 9645.9 L 33674 9492.15 Q 33638 10461.9 33495.5 11581.65 Q 33353 12700.65 33121.25 13532.4 L 34519.25 14008.65 Z M 37898 11259.15 L 37898 12241.65 L 39372.5 12241.65 L 39372.5 13255.65 L 40970 13255.65 L 40970 12241.65 L 44226.5 12241.65 L 44226.5 13240.65 L 45809 13240.65 L 45809 12241.65 L 47375 12241.65 L 47375 10797.9 L 45809 10797.9 L 45809 9968.4 L 44226.5 9968.4 L 44226.5 10797.9 L 40970 10797.9 L 40970 9984.15 L 39372.5 9984.15 L 39372.5 10797.9 L 38558.75 10797.9 Q 38426 10382.4 38215.25 9857.4 Q 38004.5 9332.4 37790.75 8847.15 L 36761.75 9292.65 L 36761.75 6804.15 L 35179.25 6804.15 L 35179.25 21150.9 L 36761.75 21150.9 L 36761.75 9891.9 Q 36927.5 10337.4 37076.75 10769.4 Q 37225.25 11200.65 37299.5 11520.15 L 37898 11259.15 Z M 46515.5 18339.9 L 46515.5 13547.4 L 38405 13547.4 L 38405 18416.4 L 40049 18416.4 L 40049 15021.9 L 44795 15021.9 L 44795 18339.9 L 46515.5 18339.9 Z M 43228.25 15789.9 L 41554.25 15789.9 L 41554.25 17080.65 Q 41591.75 17559.9 41238.5 18120.9 Q 40962.5 18534.9 40250 18936.15 Q 39311 19478.4 37191.5 19890.9 Q 37490.75 20145.9 37793 20496.15 Q 38094.5 20845.65 38267 21135.15 Q 40615.25 20557.65 41697.5 19791.9 Q 42452.75 19272.15 42791 18717.15 Q 43265.75 17901.15 43228.25 17126.4 L 43228.25 15789.9 Z M 42905.75 19230.9 Q 43528.25 19500.15 44447 19952.4 Q 44866.25 20158.65 45283.25 20370.9 Q 46196.75 20837.4 46791.5 21181.65 L 47606 19829.4 Q 47249.75 19647.9 46451 19321.65 Q 45755 19036.65 45035 18759.9 Q 44210 18443.4 43766 18293.4 L 42905.75 19230.9 Z M 60569.75 9553.65 L 60216.5 9645.9 L 56606.75 9645.9 L 57543.5 9108.15 Q 57285.5 8639.4 56844.5 8018.4 Q 56403.5 7397.4 55974.5 6823.65 Q 55896.5 6719.4 55823 6620.4 L 54179.75 7495.65 Q 54524 7991.4 54899.75 8565.15 Q 55275.5 9138.9 55562 9645.9 L 49571.75 9645.9 L 49571.75 11442.9 L 58834.25 11442.9 Q 57666.5 12920.4 56030 14406.9 Q 55769.75 14643.15 55501.25 14874.15 Q 53819.75 16330.65 52044.5 17403.15 L 51953 17403.15 Q 51304.25 17416.65 50468.75 17957.4 Q 49632.5 18498.9 48788.75 19399.65 L 50109.5 21120.15 Q 50590.25 20349.15 51065.75 19745.4 Q 51540.5 19141.65 51906.5 19107.9 Q 52219.25 19146.15 52718 19546.65 Q 53030 19782.9 53411.75 20013.9 Q 54180.5 20490.15 55176.5 20678.4 Q 56172.5 20866.65 57574.25 20859.15 Q 58570.25 20856.9 59772.5 20817.15 Q 60191 20803.65 60596 20787.9 Q 61757 20740.65 62489.75 20689.65 Q 62525 20292.9 62693 19720.65 Q 62861 19147.65 63011.75 18738.9 Q 61981.25 18887.4 60635.75 18984.9 Q 60364.25 19005.15 60092 19021.65 Q 58739 19105.65 57635.75 19107.9 Q 56426 19119.15 55460.75 18981.15 Q 54495.5 18843.15 53780.75 18416.4 Q 55872.5 17036.4 57842.75 15215.4 Q 58319 14774.4 58774.25 14318.4 Q 60660.5 12435.15 61982.75 10491.15 L 60569.75 9553.65 Z M 67343 11796.15 L 70231.25 11796.15 L 70231.25 13148.4 L 67343 13148.4 L 67343 11796.15 Z M 67343 9031.65 L 70231.25 9031.65 L 70231.25 10321.65 L 67343 10321.65 L 67343 9031.65 Z M 74808.5 10321.65 L 71997.5 10321.65 L 71997.5 9031.65 L 74808.5 9031.65 L 74808.5 10321.65 Z M 74808.5 13148.4 L 71997.5 13148.4 L 71997.5 11796.15 L 74808.5 11796.15 L 74808.5 13148.4 Z M 69355.25 15728.4 Q 70212.5 16187.4 71043.5 16797.9 Q 71873.75 17409.15 72350.75 17925.15 L 73656.5 16680.9 Q 73162.25 16184.4 72385.25 15659.4 Q 71609 15134.4 70814.75 14730.15 L 76620.5 14730.15 L 76620.5 7449.9 L 65623.25 7449.9 L 65623.25 14730.15 L 70430.75 14730.15 L 69355.25 15728.4 Z M 65730.5 20274.9 Q 66281.75 19490.4 66683 18449.4 Q 67084.25 17408.4 67358.75 16404.15 L 65699.75 15805.65 Q 65453.75 16768.65 65037.5 17713.65 Q 64621.25 18659.4 64087.25 19368.9 L 65730.5 20274.9 Z M 70584.5 19215.15 Q 70023.5 19225.65 69843.5 19127.4 Q 69662.75 19028.4 69677.75 18693.15 L 69677.75 16189.65 L 67835 16189.65 L 67835 18708.15 Q 67803.5 19912.65 68342 20401.65 Q 68880.5 20891.4 70369.25 20874.15 L 72919.25 20874.15 Q 74080.25 20906.4 74597 20340.15 Q 74610.5 20325.15 74624 20309.4 Q 75127.25 19722.9 75254 18140.4 Q 74863.25 18053.4 74386.25 17865.9 Q 73908.5 17677.65 73610 17464.65 Q 73556 18571.65 73389.5 18909.9 Q 73223 19248.15 72765.5 19215.15 L 70584.5 19215.15 Z M 74654.75 16389.15 Q 75291.5 17316.15 75804.5 18349.65 Q 76318.25 19383.15 76529 20183.4 L 78310.25 19430.4 Q 78062.75 18600.15 77504 17600.4 Q 76945.25 16600.65 76283 15713.4 L 74654.75 16389.15 Z M 84070.25 21227.4 L 84070.25 6727.65 L 79277.75 6727.65 L 79277.75 6804.15 Q 80567 7905.15 81426.5 9751.65 Q 82286 11598.15 82319 13977.9 Q 82286 16356.9 81426.5 18203.4 Q 80567 20049.9 79277.75 21150.9 L 79277.75 21227.4 L 84070.25 21227.4 Z " fill-rule="nonzero" style="fill:#333333;;fill-opacity:1;"/>
  <path d="M 6134.55 29977.6 Q 5742.6 29655.85 5136.15 29278.85 Q 4529.7 28901.85 3978.5 28619.75 L 3046.4 29711.1 Q 3598.9 30034.15 4191.05 30446.9 Q 4783.85 30859.65 5136.15 31202.2 L 6134.55 29977.6 Z M 5628.85 33412.2 Q 5205.7 33079.4 4555.7 32686.8 Q 3905.7 32294.2 3312.9 32001.05 L 2407.45 33119.05 Q 3020.4 33451.85 3658.7 33876.3 Q 4297 34301.4 4670.75 34663.45 L 5628.85 33412.2 Z M 4297.65 40507.6 Q 4753.95 39530 5219.35 38457.5 Q 5685.4 37385 6081.25 36327.45 L 4803.35 35382.35 Q 4333.4 36553.65 3810.15 37675.55 Q 3287.55 38796.8 2846.85 39589.15 L 4297.65 40507.6 Z M 8291.25 37698.3 L 8291.25 37046.35 L 12271.85 37046.35 L 12271.85 37698.3 L 8291.25 37698.3 Z M 12271.85 35355.7 L 12271.85 35968 L 8291.25 35968 L 8291.25 35355.7 L 12271.85 35355.7 Z M 13762.3 34197.4 L 6826.8 34197.4 L 6826.8 40800.1 L 8291.25 40800.1 L 8291.25 38816.95 L 12271.85 38816.95 L 12271.85 39242.7 Q 12284.85 39468.9 12019 39455.9 Q 11978.7 39455.9 11909.15 39456.55 Q 11708.95 39459.15 11370.3 39456.55 Q 11031 39453.3 10674.15 39429.25 Q 10817.8 39730.2 10937.4 40101.35 Q 11056.35 40472.5 11099.9 40773.45 Q 11787.6 40780.6 12294.6 40745.5 Q 12802.25 40709.75 13150 40547.25 Q 13502.95 40392.55 13636.2 40088.35 Q 13769.45 39783.5 13762.3 39269.35 L 13762.3 34197.4 Z M 11033.6 32560.05 L 11033.6 31987.4 L 13895.55 31987.4 L 13895.55 30922.7 L 11033.6 30922.7 L 11033.6 30390.35 L 14255 30390.35 L 14255 29258.7 L 11033.6 29258.7 L 11033.6 28353.25 L 9462.55 28353.25 L 9462.55 29258.7 L 6334.75 29258.7 L 6334.75 30390.35 L 9462.55 30390.35 L 9462.55 30922.7 L 6707.2 30922.7 L 6707.2 31987.4 L 9462.55 31987.4 L 9462.55 32560.05 L 5855.05 32560.05 L 5855.05 33691.7 L 14801 33691.7 L 14801 32560.05 L 11033.6 32560.05 Z M 18994.15 32134.3 Q 18736.1 31450.5 18250.55 30584.7 Q 17765 29719.55 17276.85 28966.2 L 15852.7 29564.85 Q 16329.8 30361.75 16787.4 31260.7 Q 17245 32159.65 17463.4 32826.55 L 18994.15 32134.3 Z M 17317.15 40121.5 Q 17761.75 39071.1 18221.95 37851.7 Q 18682.15 36631.65 19087.1 35382.35 L 17649.95 34716.75 Q 17198.2 36048.6 16671.05 37305.7 Q 16144.55 38562.8 15692.8 39455.9 L 17317.15 40121.5 Z M 26355.4 34450.25 L 26089.55 34530.2 L 20072.5 34530.2 L 20072.5 36007.65 L 25037.85 36007.65 Q 24612.75 36514 24132.4 37019.7 Q 23652.7 37525.4 23187.3 37951.8 L 21829.45 37073 L 20751.1 38018.1 Q 21580.5 38571.9 22526.25 39238.15 Q 22844.75 39463.05 23149.6 39684.7 Q 24055.05 40341.2 24612.1 40826.75 L 25783.4 39721.75 Q 25270.55 39322.65 24478.85 38803.3 Q 25288.1 38029.8 26104.5 37084.7 Q 26920.9 36138.95 27500.7 35195.8 L 26355.4 34450.25 Z M 22202.55 32812.9 Q 22554.2 33216.55 22911.05 33674.8 Q 23267.9 34133.7 23480.45 34476.9 L 24771.35 33678.05 Q 24542.55 33346.55 24181.15 32927.95 Q 23819.1 32508.7 23440.15 32147.3 L 22202.55 32812.9 Z M 23094.35 28313.6 Q 22417.05 29705.25 21220.4 30972.75 Q 20024.4 32239.6 18528.1 33092.4 Q 18815.4 33321.85 19157.3 33703.4 Q 19499.2 34084.95 19686.4 34383.95 Q 20847.95 33661.8 21839.85 32718 Q 22831.1 31774.2 23613.7 30643.2 Q 24364.45 31735.2 25270.55 32694.6 Q 26176.65 33654.65 27087.95 34317 Q 27309.6 33982.9 27648.9 33598.75 Q 27987.55 33213.95 28299.55 32959.8 Q 27227.05 32339.7 26179.25 31375.1 Q 25132.1 30411.15 24398.9 29351.65 Q 24535.4 29115.7 24651.75 28859.6 L 23094.35 28313.6 Z M 33664 33944.55 L 32239.85 34330.65 L 32239.85 32547.05 Q 32794.3 31926.3 33304.55 31185.95 Q 33814.8 30444.95 34210 29724.75 L 33171.3 29005.85 L 32878.8 29098.8 L 29444.2 29098.8 L 29444.2 30563.25 L 31907.05 30563.25 Q 31635.35 31006.55 31336.35 31415.4 Q 31036.7 31823.6 30735.1 32147.3 L 30735.1 34743.4 Q 30267.75 34851.95 29856.95 34953.35 Q 29426 35059.3 29058.1 35142.5 L 29403.9 36673.25 Q 30020.1 36493.85 30735.1 36274.15 L 30735.1 38923.55 Q 30748.75 39126.35 30522.55 39109.45 Q 30475.1 39109.45 30396.45 39110.75 Q 30230.05 39113.35 29968.1 39112.7 Q 29706.15 39111.4 29403.9 39096.45 Q 29558.6 39439 29685.35 39861.5 Q 29812.1 40284.65 29856.95 40627.2 Q 30463.4 40632.4 30913.2 40575.85 Q 31363 40518.65 31680.2 40334.05 Q 32003.9 40139.7 32124.8 39804.95 Q 32245.7 39470.85 32239.85 38936.55 L 32239.85 35834.75 Q 33038.05 35591.65 33836.9 35329.05 L 33664 33944.55 Z M 40240.05 28260.3 Q 39107.1 28619.1 37528.25 28904.45 Q 37502.9 28909 37477.55 28914.2 Q 35894.15 29197.6 34276.3 29378.3 L 34276.3 31814.5 Q 34291.9 33126.2 34154.75 34759 Q 34064.4 35756.75 33857.05 36766.85 Q 33530.75 38419.8 32745.55 39815.35 Q 33004.9 39921.95 33355.9 40186.5 Q 33707.55 40450.4 33916.85 40666.85 Q 34696.85 39293.4 35077.75 37591.05 Q 35395.6 36192.25 35522.35 34808.4 Q 35671.85 33124.9 35660.8 31814.5 L 35660.8 30550.25 Q 36193.15 30493.7 36725.5 30417 L 36725.5 31814.5 Q 36745.65 33093.05 36629.3 34632.25 Q 36550.65 35572.8 36347.2 36510.75 Q 36029.35 38046.05 35194.75 39309 Q 35415.75 39490.35 35729.05 39823.8 Q 36042.35 40156.6 36193.15 40387.35 Q 36314.7 40282.05 36741.75 40118.25 Q 36776.85 40104.6 36814.55 40090.95 Q 37280.6 39918.05 38469.45 39562.5 Q 38496.1 39726.3 38521.45 39881.65 Q 38574.75 40199.5 38616.35 40480.95 L 39720.7 40148.15 Q 39604.35 39363.6 39348.25 38363.9 Q 39092.15 37364.85 38775.6 36460.7 L 37737.55 36766.85 Q 37973.5 37502 38189.95 38337.25 L 38189.95 38337.25 L 37111.6 38603.75 Q 37703.75 36989.8 37883.8 35337.5 Q 37921.5 35026.15 37948.8 34721.3 Q 38075.55 33099.55 38056.7 31841.15 L 38056.7 30230.45 Q 38522.75 30153.75 38988.8 30057.55 Q 39083.7 32993.6 39367.1 35571.5 Q 39415.85 35990.1 39473.05 36393.75 Q 39805.2 38878.05 40546.2 40587.55 Q 40758.75 40266.45 41083.75 39933 Q 41408.75 39600.2 41690.85 39388.95 Q 41093.5 38084.4 40786.05 36060.3 Q 40659.3 35258.85 40567 34385.25 Q 40344.05 32181.75 40253.7 29804.7 Q 40822.45 29668.2 41331.4 29511.55 L 40240.05 28260.3 Z M 44420.2 30922.7 L 52793.5 30922.7 L 52793.5 31787.85 L 54404.2 31787.85 L 54404.2 29498.55 L 49811.3 29498.55 Q 49559.75 28979.2 49273.1 28481.3 Q 49221.1 28387.7 49172.35 28300.6 L 47535 28712.7 Q 47728.05 29065.65 47921.1 29498.55 L 42875.8 29498.55 L 42875.8 31947.75 L 44420.2 31947.75 L 44420.2 30922.7 Z M 43461.45 36220.85 Q 43291.8 36959.9 43002.55 37648.9 Q 42712.65 38337.25 42303.8 38856.6 Q 42560.55 39021.05 42892.7 39287.55 Q 43224.2 39554.05 43421.8 39748.4 Q 43866.4 39153 44238.85 38295.65 Q 44611.3 37438.3 44845.95 36514 L 43461.45 36220.85 Z M 49052.75 35821.75 L 49052.75 34437.25 L 46576.9 34437.25 L 46576.9 33518.8 L 48613.35 33518.8 L 48613.35 32187.6 L 46576.9 32187.6 L 46576.9 31442.05 L 45098.8 31442.05 L 45098.8 34437.25 L 42609.95 34437.25 L 42609.95 35821.75 L 45272.35 35821.75 L 45272.35 39242.7 Q 45288.6 39442.25 45045.5 39442.25 Q 44901.85 39442.9 44543.05 39440.95 Q 44184.9 39439 43781.25 39429.25 Q 43924.25 39727.6 44037.35 40091.6 Q 44150.45 40454.95 44194 40773.45 Q 44831 40779.95 45308.75 40739 Q 45786.5 40697.4 46123.85 40534.25 Q 46465.75 40379.55 46584.7 40083.15 Q 46704.3 39786.75 46696.5 39283 L 46696.5 35821.75 L 49052.75 35821.75 Z M 49318.6 38284.6 Q 49168.45 37828.3 48851.25 37252.4 Q 48534.05 36677.15 48173.95 36181.2 L 47002.65 36726.55 Q 47332.85 37262.8 47628.6 37856.9 Q 47923.7 38450.35 48054.35 38896.9 L 49318.6 38284.6 Z M 52633.6 33558.45 Q 52291.05 35082.7 51608.55 36287.8 Q 50993 35022.9 50636.8 33558.45 L 52633.6 33558.45 Z M 53352.5 32134.3 L 53099.65 32187.6 L 49079.4 32187.6 L 49079.4 33558.45 L 49997.85 33558.45 L 49305.6 33704.7 Q 49804.8 35894.55 50703.1 37605.35 Q 49591.6 38909.9 48001.05 39535.85 Q 48238.3 39769.85 48480.1 40126.05 Q 48722.55 40482.9 48879.85 40787.1 Q 50420.35 40077.95 51542.25 38870.25 Q 52487.35 40094.85 53871.85 40840.4 Q 54034.35 40525.8 54329.45 40161.15 Q 54623.9 39797.15 54896.9 39562.5 Q 53459.1 38889.75 52500.35 37658.65 Q 53821.8 35658.6 54284.6 32400.15 L 53352.5 32134.3 Z M 57745.2 38018.1 L 57745.2 35409 L 59862.25 35409 L 59862.25 38018.1 L 57745.2 38018.1 Z M 59862.25 34037.5 L 57745.2 34037.5 L 57745.2 31881.45 L 59862.25 31881.45 L 59862.25 34037.5 Z M 64095.05 30403.35 Q 64394.7 29568.1 64614.4 28712.7 L 63096.65 28366.9 Q 62803.5 29551.85 62343.3 30675.05 Q 61882.45 31797.6 61299.4 32653 L 61299.4 30496.95 L 59236.3 30496.95 Q 59582.75 29614.9 59928.55 28593.1 L 58198.25 28353.25 Q 58155.35 28835.55 58050.05 29410.15 Q 57944.75 29984.75 57812.15 30496.95 L 56307.4 30496.95 L 56307.4 40387.35 L 57745.2 40387.35 L 57745.2 39415.6 L 61299.4 39415.6 L 61299.4 33199 Q 61579.55 33384.25 61866.85 33587.05 Q 62154.8 33789.2 62324.45 33944.55 Q 62960.15 33062.5 63496.4 31841.15 L 66344.7 31841.15 Q 66242.65 35263.4 66088.6 36937.15 Q 66082.1 37005.4 66075.6 37071.05 Q 65917.65 38683.05 65639.45 38963.2 Q 65514 39090.6 65381.4 39141.3 Q 65248.8 39191.35 65053.8 39189.4 Q 64782.75 39192 64251.7 39179.65 Q 63720.65 39167.3 63070 39109.45 Q 63283.85 39453.3 63424.9 39881.65 Q 63565.95 40310 63589.35 40653.85 Q 64188 40675.95 64739.2 40675.3 Q 65290.4 40675.3 65679.1 40627.2 Q 66073.65 40566.75 66378.5 40410.75 Q 66682.7 40255.4 66957 39895.3 Q 67262.5 39526.1 67430.2 38345.7 Q 67537.45 37588.45 67613.5 36379.45 Q 67729.85 34482.1 67822.8 31122.25 Q 67831.9 30955.2 67834.5 30693.25 Q 67836.45 30431.3 67835.8 30403.35 L 64095.05 30403.35 Z M 65625.8 36473.7 Q 65295.6 35868.55 64742.45 35050.85 Q 64189.95 34233.8 63669.3 33518.8 L 62431.05 34224.05 Q 62940 34979.35 63461.3 35826.3 Q 63982.6 36673.9 64281.6 37299.2 L 65625.8 36473.7 Z M 71656.5 30776.45 Q 71902.2 31206.75 72112.15 31651.35 Q 72322.75 32096.6 72428.7 32426.8 L 73799.55 31881.45 Q 73609.75 31398.5 73240.55 30776.45 L 74931.2 30776.45 Q 74631.55 31139.15 74292.25 31401.75 Q 74601.65 31564.9 75001.4 31828.15 Q 75400.5 32090.75 75650.1 32294.2 Q 76275.4 31674.75 76861.7 30776.45 L 77380.4 30776.45 Q 77594.9 31132 77771.7 31490.15 Q 77948.5 31848.3 78033 32134.3 L 79403.85 31628.6 Q 79270.6 31252.25 78978.1 30776.45 L 81241.4 30776.45 L 81241.4 29458.25 L 77566.95 29458.25 Q 77753.5 29052.65 77899.75 28646.4 L 76355.35 28247.3 Q 76133.7 28901.2 75795.05 29523.25 Q 75455.75 30145.3 75024.15 30669.85 L 75024.15 29458.25 L 72135.55 29458.25 Q 72302.6 29111.8 72436.5 28760.8 Q 72459.25 28702.95 72482 28646.4 L 70964.25 28247.3 Q 70637.95 29190.45 70114.05 30054.3 Q 69590.15 30917.5 68953.8 31522 Q 69244.35 31692.95 69639.55 31944.5 Q 70034.75 32195.4 70285 32387.15 Q 70881.05 31721.55 71456.95 30776.45 L 71656.5 30776.45 Z M 76395.65 39269.35 Q 75851.6 39281.05 75676.75 39153 Q 75501.9 39024.95 75516.85 38617.4 L 75516.85 38004.45 L 81281.05 37605.35 L 81134.8 36274.15 L 75516.85 36646.6 L 75516.85 35808.1 L 80256 35475.3 L 80122.75 34211.05 L 75516.85 34517.2 L 75516.85 33824.95 Q 76871.45 33733.95 78125.95 33588.35 Q 79380.45 33442.75 80455.55 33252.3 L 79776.95 31934.75 Q 78218.25 32216.2 76140.2 32400.8 Q 75300.4 32476.2 74421.6 32534.7 Q 72247.35 32678.35 70125.75 32719.95 Q 70240.8 33001.4 70343.5 33362.15 Q 70446.2 33723.55 70471.55 34024.5 Q 72138.8 34007.6 73906.15 33931.55 L 73906.15 34610.15 L 69912.55 34876.65 L 70058.8 36181.2 L 73906.15 35914.7 L 73906.15 36753.2 L 69286.6 37073 L 69419.85 38430.85 L 73906.15 38111.05 L 73906.15 38630.4 Q 73881.45 39778.3 74385.2 40219.65 Q 74889.6 40661 76222.75 40640.2 L 78858.5 40640.2 Q 79941.4 40661.65 80395.75 40186.5 Q 80850.1 39710.7 80974.9 38484.15 Q 80629.75 38409.4 80227.4 38252.75 Q 79825.7 38096.1 79550.75 37911.5 Q 79487.05 38738.95 79325.85 39014.55 Q 79164.65 39290.8 78711.6 39269.35 L 76395.65 39269.35 Z M 90306.3 29950.95 Q 90201 30233.7 90030.05 30596.4 Q 89859.75 30959.1 89694 31242.5 L 90559.8 31548.65 Q 90915.35 31026.05 91411.3 30283.75 L 90306.3 29950.95 Z M 85780.35 30310.4 Q 85964.95 30599.65 86130.05 30931.15 Q 86294.5 31262.65 86379.65 31522 L 87364.4 31135.9 Q 87268.85 30905.15 87088.15 30589.9 Q 86908.1 30274.65 86712.45 30004.25 L 85780.35 30310.4 Z M 84249.6 37365.5 Q 85081.6 36779.85 85474.2 35914.7 L 84449.15 35622.2 L 89880.55 35622.2 L 88988.75 35875.05 Q 89183.1 36183.15 89349.5 36528.95 Q 89516.55 36874.75 89601.05 37152.95 L 90958.9 36699.9 Q 90865.95 36474.35 90710.6 36185.75 Q 90555.9 35897.8 90373.25 35622.2 L 92489.65 35622.2 L 91690.8 35941.35 Q 92021.65 36261.15 92374.6 36648.55 Q 92728.2 37035.95 92968.7 37365.5 L 89307.9 37365.5 L 89307.9 36779.85 L 88056.65 36779.85 Q 88013.75 36522.45 87910.4 36212.4 Q 87807.05 35903 87684.2 35635.2 L 86339.35 35888.05 Q 86462.2 36186.4 86557.75 36521.8 Q 86652.65 36857.85 86685.8 37126.3 L 87750.5 36886.45 L 87750.5 37365.5 L 84249.6 37365.5 Z M 85394.25 31548.65 L 85394.25 29871 L 87777.15 29871 L 87777.15 31548.65 L 85394.25 31548.65 Z M 91757.75 31548.65 L 89294.9 31548.65 L 89294.9 29871 L 91757.75 29871 L 91757.75 31548.65 Z M 89307.9 39123.1 L 89307.9 38457.5 L 93208.55 38457.5 L 93208.55 37445.45 L 94353.2 36953.4 Q 94142.6 36665.45 93797.45 36307.3 Q 93452.3 35949.8 93101.95 35622.2 L 94486.45 35622.2 L 94486.45 34503.55 L 89294.9 34503.55 L 89294.9 33997.85 L 93421.75 33997.85 L 93421.75 32985.8 L 89294.9 32985.8 L 89294.9 32493.75 L 93288.5 32493.75 L 93288.5 28925.9 L 83970.1 28925.9 L 83970.1 32493.75 L 87777.15 32493.75 L 87777.15 32985.8 L 83863.5 32985.8 L 83863.5 33997.85 L 87777.15 33997.85 L 87777.15 34503.55 L 82678.55 34503.55 L 82678.55 35622.2 L 84183.3 35622.2 Q 83937.6 36054.45 83527.45 36377.5 Q 83117.3 36699.9 82612.25 36873.45 L 83676.95 37671.65 Q 83899.9 37575.45 84103.35 37459.1 L 84103.35 38457.5 L 87750.5 38457.5 L 87750.5 39123.1 L 82585.6 39123.1 L 82585.6 40347.7 L 94619.7 40347.7 L 94619.7 39123.1 L 89307.9 39123.1 Z M 102699.85 35076.2 L 102699.85 32214.25 L 105708.7 32214.25 L 105708.7 35076.2 L 102699.85 35076.2 Z M 98027.65 35076.2 L 98027.65 32214.25 L 101022.85 32214.25 L 101022.85 35076.2 L 98027.65 35076.2 Z M 102699.85 30656.2 L 102699.85 28353.25 L 101022.85 28353.25 L 101022.85 30656.2 L 96429.95 30656.2 L 96429.95 37365.5 L 98027.65 37365.5 L 98027.65 36633.6 L 101022.85 36633.6 L 101022.85 40787.1 L 102699.85 40787.1 L 102699.85 36633.6 L 105708.7 36633.6 L 105708.7 37299.2 L 107372.7 37299.2 L 107372.7 30656.2 L 102699.85 30656.2 Z M 111126.45 41465.7 Q 112373.8 41082.85 113056.95 40232.65 Q 113740.1 39383.1 113749.2 38231.3 Q 113747.9 37383.05 113384.55 36900.1 Q 113021.2 36416.5 112311.4 36407.4 Q 111766.7 36412.6 111394.25 36726.55 Q 111021.8 37041.15 111006.85 37605.35 Q 111023.1 38177.35 111389.7 38482.2 Q 111755.65 38787.05 112271.1 38790.3 Q 112354.3 38793.55 112418 38776.65 Q 112278.25 39861.5 110700.7 40387.35 L 111126.45 41465.7 Z M 125263.95 30776.45 L 125263.95 33119.05 L 124145.95 33119.05 L 124145.95 30776.45 L 125263.95 30776.45 Z M 124145.95 36993.05 L 124145.95 34530.2 L 125263.95 34530.2 L 125263.95 36993.05 L 124145.95 36993.05 Z M 126634.8 29325 L 122774.45 29325 L 122774.45 39455.9 L 124145.95 39455.9 L 124145.95 38430.85 L 126634.8 38430.85 L 126634.8 29325 Z M 132425.65 35968 L 132425.65 36846.8 L 129124.3 36846.8 L 129124.3 35968 L 132425.65 35968 Z M 129124.3 38950.2 L 129124.3 38018.1 L 132425.65 38018.1 L 132425.65 38950.2 L 129124.3 38950.2 Z M 127673.5 40773.45 L 129124.3 40773.45 L 129124.3 40254.75 L 132425.65 40254.75 L 132425.65 40760.45 L 133943.4 40760.45 L 133943.4 34690.1 L 127673.5 34690.1 L 127673.5 40773.45 Z M 132026.55 31082.6 Q 131944.65 31450.5 131825.05 31876.25 Q 131705.45 32302 131573.5 32679.65 L 129936.15 32679.65 L 130029.75 32653 Q 129956.95 32330.6 129821.75 31897.7 Q 129686.55 31465.45 129523.4 31082.6 L 132026.55 31082.6 Z M 133037.95 32679.65 Q 133253.75 32203.2 133503.35 31659.8 Q 133583.95 31483 133663.9 31308.8 L 132412.65 31082.6 L 134302.85 31082.6 L 134302.85 29711.1 L 131720.4 29711.1 Q 131616.4 29376.35 131457.15 29005.85 Q 131298.55 28635.35 131134.75 28300.6 L 129683.3 28699.7 Q 129896.5 29175.5 130069.4 29711.1 L 127300.4 29711.1 L 127300.4 31082.6 L 129177.6 31082.6 L 128152.55 31348.45 Q 128273.45 31655.25 128377.45 32009.5 Q 128480.8 32363.1 128551.65 32679.65 L 126940.95 32679.65 L 126940.95 34051.15 L 134688.95 34051.15 L 134688.95 32679.65 L 133037.95 32679.65 Z M 144593 38896.9 L 138895.1 38896.9 L 138895.1 37459.1 L 144593 37459.1 L 144593 38896.9 Z M 144819.2 33278.95 L 144566.35 33358.9 L 142343.35 33358.9 L 143261.8 32693.3 Q 142975.8 32361.8 142509.75 31971.15 Q 142043.7 31579.85 141597.8 31269.15 L 140453.15 32054.35 Q 140840.55 32350.75 141228.6 32696.55 Q 141616 33043 141903.95 33358.9 L 137670.5 33358.9 L 137670.5 34743.4 L 143354.75 34743.4 Q 142870.5 35345.3 142361.55 35938.1 Q 142292 36020 142223.1 36101.25 L 137298.05 36101.25 L 137298.05 40787.1 L 138895.1 40787.1 L 138895.1 40254.75 L 144593 40254.75 L 144593 40760.45 L 146270 40760.45 L 146270 36101.25 L 144180.25 36101.25 Q 144661.25 35538.35 145120.15 34957.9 Q 145579.05 34377.45 145990.5 33824.95 L 144819.2 33278.95 Z M 141677.75 28260.3 Q 140711.85 29558.35 139140.8 30520.35 Q 138988.05 30615.9 138831.4 30707.55 Q 137221.35 31633.15 135447.5 32160.95 Q 135766 32480.1 136061.75 32869.45 Q 136357.5 33258.8 136525.85 33598.75 Q 138024.1 33040.4 139399.5 32235.7 Q 140775.55 31431 141903.95 30363.7 Q 142946.55 31430.35 144301.8 32237 Q 145656.4 33044.3 147148.8 33492.15 Q 147330.15 33154.8 147631.1 32753.1 Q 147932.7 32351.4 148213.5 32094 Q 146619.05 31722.85 145187.1 31014.35 Q 143754.5 30305.85 142809.4 29404.95 Q 142985.55 29192.4 143142.2 28979.2 L 141677.75 28260.3 Z M 158211.15 36567.3 L 153564.95 36567.3 L 153564.95 36074.6 L 158211.15 36074.6 L 158211.15 36567.3 Z M 153564.95 39283 L 153564.95 38790.3 L 158211.15 38790.3 L 158211.15 39283 L 153564.95 39283 Z M 158211.15 37911.5 L 153564.95 37911.5 L 153564.95 37432.45 L 158211.15 37432.45 L 158211.15 37911.5 Z M 161006.8 34476.9 L 161006.8 33239.3 L 154669.95 33239.3 Q 154809.7 32959.8 154949.45 32679.65 L 159795.2 32679.65 L 159795.2 31535 L 155442.15 31535 Q 155542.25 31262 155641.7 30989 L 160487.45 30989 L 160487.45 29751.4 L 158197.5 29751.4 Q 158583.6 29282.1 158969.7 28753 L 157225.75 28326.6 Q 157091.85 28651.6 156885.15 29024.05 Q 156677.8 29396.5 156454.2 29751.4 L 153445.35 29751.4 L 153951.05 29564.85 Q 153795.05 29286 153558.45 28934.35 Q 153322.5 28582.7 153085.9 28273.95 L 151541.5 28739.35 Q 151694.25 28972.7 151859.35 29235.3 Q 152024.45 29498.55 152167.45 29751.4 L 149864.5 29751.4 L 149864.5 30989 L 153951.05 30989 Q 153854.85 31262 153738.5 31535 L 150516.45 31535 L 150516.45 32679.65 L 153205.5 32679.65 Q 153059.25 32959.8 152913 33239.3 L 149265.2 33239.3 L 149265.2 34476.9 L 152114.15 34476.9 Q 150732.9 36360.6 148773.15 37485.75 Q 149053.95 37713.9 149425.1 38069.45 Q 149796.25 38425 149997.75 38683.7 Q 151049.45 37988.2 151980.9 37032.7 L 151980.9 40787.1 L 153564.95 40787.1 L 153564.95 40401 L 158211.15 40401 L 158211.15 40773.45 L 159875.15 40773.45 L 159875.15 34956.6 L 153685.2 34956.6 Q 153763.85 34836.35 153837.95 34716.75 Q 153912.05 34597.15 153991.35 34476.9 L 161006.8 34476.9 Z M 174491.7 32653 L 174491.7 31109.25 L 168647.55 31109.25 L 169952.1 30696.5 Q 169812.35 30189.5 169523.1 29540.15 Q 169233.2 28890.8 168914.05 28313.6 L 167236.4 28819.3 Q 167512.65 29365.95 167749.25 29989.3 Q 167985.2 30612.65 168102.2 31109.25 L 162430.95 31109.25 L 162430.95 32653 L 164161.25 32653 L 164161.25 40161.15 L 173559.6 40161.15 L 173559.6 38523.8 L 165865.55 38523.8 L 165865.55 32653 L 174491.7 32653 Z M 9369.6 54222.9 L 10607.85 54222.9 L 9795.35 54635.65 Q 10031.95 54901.5 10278.3 55209.6 Q 10524.65 55517.7 10700.8 55793.95 L 9369.6 55793.95 L 9369.6 54222.9 Z M 11193.5 55793.95 L 11885.75 55407.85 Q 11717.4 55158.9 11441.15 54835.2 Q 11165.55 54511.5 10887.35 54222.9 L 11619.25 54222.9 L 11619.25 52891.7 L 9369.6 52891.7 L 9369.6 51640.45 L 11912.4 51640.45 L 11912.4 50255.95 L 5376 50255.95 L 5376 51640.45 L 7905.15 51640.45 L 7905.15 52891.7 L 5708.8 52891.7 L 5708.8 54222.9 L 7905.15 54222.9 L 7905.15 55793.95 L 5229.75 55793.95 L 5229.75 57084.85 L 12124.95 57084.85 L 12124.95 55793.95 L 11193.5 55793.95 Z M 4710.4 57857.05 L 4710.4 49523.4 L 12591 49523.4 L 12591 57857.05 L 4710.4 57857.05 Z M 3099.7 48072.6 L 3099.7 59987.1 L 4710.4 59987.1 L 4710.4 59321.5 L 12591 59321.5 L 12591 59987.1 L 14281.65 59987.1 L 14281.65 48072.6 L 3099.7 48072.6 Z M 26142.85 49936.15 L 25836.7 50016.1 L 22708.25 50016.1 L 23520.1 49550.05 Q 23296.5 49143.8 22914.3 48605.6 Q 22532.1 48067.4 22160.3 47570.15 Q 22092.7 47479.8 22029 47394 L 20604.85 48152.55 Q 20903.2 48582.2 21228.85 49079.45 Q 21554.5 49576.7 21802.8 50016.1 L 16611.25 50016.1 L 16611.25 51573.5 L 24638.75 51573.5 Q 23626.7 52854 22208.4 54142.3 Q 21982.85 54347.05 21750.15 54547.25 Q 20292.85 55809.55 18754.3 56739.05 L 18675 56739.05 Q 18112.75 56750.75 17388.65 57219.4 Q 16663.9 57688.7 15932.65 58469.35 L 17077.3 59960.45 Q 17493.95 59292.25 17906.05 58769 Q 18317.5 58245.75 18634.7 58216.5 Q 18905.75 58249.65 19338 58596.75 Q 19608.4 58801.5 19939.25 59001.7 Q 20605.5 59414.45 21468.7 59577.6 Q 22331.9 59740.75 23546.75 59734.25 Q 24409.95 59732.3 25451.9 59697.85 Q 25814.6 59686.15 26165.6 59672.5 Q 27171.8 59631.55 27806.85 59587.35 Q 27837.4 59243.5 27983 58747.55 Q 28128.6 58250.95 28259.25 57896.7 Q 27366.15 58025.4 26200.05 58109.9 Q 25964.75 58127.45 25728.8 58141.75 Q 24556.2 58214.55 23600.05 58216.5 Q 22551.6 58226.25 21715.05 58106.65 Q 20878.5 57987.05 20259.05 57617.2 Q 22071.9 56421.2 23779.45 54843 Q 24192.2 54460.8 24586.75 54065.6 Q 26221.5 52433.45 27367.45 50748.65 L 26142.85 49936.15 Z M 37670.6 56765.7 L 37670.6 56046.8 L 39401.55 56046.8 L 39401.55 56765.7 L 37670.6 56765.7 Z M 34516.15 56765.7 L 34516.15 56046.8 L 36219.8 56046.8 L 36219.8 56765.7 L 34516.15 56765.7 Z M 36219.8 54276.2 L 36219.8 54954.8 L 34516.15 54954.8 L 34516.15 54276.2 L 36219.8 54276.2 Z M 39401.55 54954.8 L 37670.6 54954.8 L 37670.6 54276.2 L 39401.55 54276.2 L 39401.55 54954.8 Z M 40879 53131.55 L 38695.65 53131.55 Q 38695.65 53130.9 38695.65 53130.9 Q 38482.45 53011.3 38230.25 52891.7 Q 38894.55 52518.6 39526.35 52106.5 Q 40158.15 51693.75 40692.45 51281 L 39800.65 50469.15 L 39467.85 50548.45 L 33491.1 50548.45 L 33491.1 51640.45 L 38083.35 51640.45 Q 37547.75 52026.55 36992 52332.7 Q 36933.5 52308.65 36874.35 52284.6 Q 36028.7 51931 35261.7 51653.45 L 34382.9 52492.6 Q 35155.1 52761.7 35966.95 53131.55 L 33064.7 53131.55 L 33064.7 59960.45 L 34516.15 59960.45 L 34516.15 57857.05 L 36219.8 57857.05 L 36219.8 59800.55 L 37670.6 59800.55 L 37670.6 57857.05 L 39401.55 57857.05 L 39401.55 58629.25 Q 39417.8 58838.55 39175.35 58828.8 Q 39051.85 58829.45 38739.2 58826.85 Q 38426.55 58824.9 38083.35 58815.8 Q 38208.15 59062.15 38323.2 59366.35 Q 38438.25 59670.55 38483.1 59946.8 Q 39090.85 59952 39544.55 59916.9 Q 39998.25 59881.8 40307 59747.25 Q 40630.7 59606.2 40757.45 59352.7 Q 40884.2 59099.85 40879 58629.25 L 40879 53131.55 Z M 37258.5 48698.55 Q 37114.2 48392.4 36906.85 48054.4 Q 36700.15 47716.4 36486.3 47420.65 L 34955.55 47819.75 Q 35221.4 48218.85 35447.6 48698.55 L 31028.25 48698.55 L 31028.25 51893.3 Q 30883.95 51414.25 30657.1 50873.45 Q 30430.25 50332 30176.1 49843.2 L 29017.8 50428.85 Q 29307.05 51057.4 29550.8 51750.3 Q 29794.55 52443.2 29883.6 52971.65 L 31028.25 52359.35 L 31028.25 52918.35 Q 31031.5 53407.8 31014.6 53956.4 Q 30421.15 54268.4 29886.85 54525.8 Q 29352.55 54782.55 28938.5 54954.8 L 29390.9 56419.25 Q 30112.4 55997.4 30853.4 55554.75 Q 30854.05 55554.75 30855.35 55554.1 Q 30704.55 56460.2 30359.4 57311.05 Q 30014.25 58162.55 29364.25 58868.45 Q 29623.6 59029 29963.55 59356.6 Q 30302.85 59683.55 30482.25 59933.8 Q 31454.65 58870.4 31895.35 57450.8 Q 32187.2 56542.1 32322.4 55608.05 Q 32521.95 54147.5 32505.7 52918.35 L 32505.7 50056.4 L 41411.35 50056.4 L 41411.35 48698.55 L 37258.5 48698.55 Z M 50942.95 55354.55 L 42676.25 55354.55 L 42676.25 56871.65 L 50942.95 56871.65 L 50942.95 55354.55 Z M 46084.2 52492.6 Q 46263.6 51626.8 46443.65 50681.7 L 53778.25 50681.7 L 53778.25 49164.6 L 46723.15 49164.6 Q 46821.3 48631.6 46902.55 48126.55 Q 46919.45 48025.8 46936.35 47926.35 L 45312 47766.45 Q 45113.1 49114.55 44827.75 50601.75 Q 44750.4 51006.7 44669.8 51403.2 Q 44374.05 52858.55 44087.4 53943.4 L 45458.25 53956.4 L 52367.1 53956.4 Q 52189 55846.6 51943.3 56870.35 Q 51696.95 57894.1 51368.7 58136.55 Q 51221.8 58242.5 51049.55 58271.1 Q 50877.3 58300.35 50649.8 58296.45 Q 50290.35 58299.05 49583.8 58284.75 Q 48876.6 58269.8 48067.35 58202.85 Q 48321.5 58555.8 48488.55 58990 Q 48655.6 59424.85 48679.65 59787.55 Q 49421.3 59818.1 50077.8 59823.95 Q 50734.3 59829.8 51156.15 59800.55 Q 51676.8 59759.6 52047.95 59624.4 Q 52419.1 59488.55 52740.2 59148.6 Q 53190 58733.25 53485.1 57466.4 Q 53514.35 57342.25 53542.3 57207.7 Q 53827.65 55838.8 54057.75 53184.2 Q 54088.3 53001.55 54106.5 52758.45 Q 54124.05 52515.35 54124.7 52492.6 L 46084.2 52492.6 Z M 62817.15 52678.5 L 62817.15 51294 Q 63243.55 50692.1 63589.35 50069.4 L 67729.2 50069.4 L 67729.2 48445.7 L 56187.8 48445.7 L 56187.8 50069.4 L 61499.6 50069.4 Q 60555.8 51626.8 59075.1 53024.95 Q 57594.4 54422.45 55762.05 55301.25 Q 56033.75 55586.6 56342.5 55994.8 Q 56651.9 56403 56853.4 56739.05 Q 58052.65 56113.75 59114.75 55275.9 Q 60176.85 54438.7 61086.85 53464.35 L 61086.85 59960.45 L 62817.15 59960.45 L 62817.15 53064.6 Q 63780.45 53803 64787.95 54658.4 Q 65087.6 54914.5 65371 55166.7 Q 66325.85 56011.7 66890.7 56672.1 L 68235.55 55461.15 Q 67618.7 54799.45 66630.7 53998.65 Q 66199.1 53647 65744.75 53296 Q 64704.75 52498.45 63802.55 51853 L 62817.15 52678.5 Z M 77566.95 55354.55 L 69300.25 55354.55 L 69300.25 56871.65 L 77566.95 56871.65 L 77566.95 55354.55 Z M 72708.2 52492.6 Q 72887.6 51626.8 73067.65 50681.7 L 80402.25 50681.7 L 80402.25 49164.6 L 73347.15 49164.6 Q 73445.3 48631.6 73526.55 48126.55 Q 73543.45 48025.8 73560.35 47926.35 L 71936 47766.45 Q 71737.1 49114.55 71451.75 50601.75 Q 71374.4 51006.7 71293.8 51403.2 Q 70998.05 52858.55 70711.4 53943.4 L 72082.25 53956.4 L 78991.1 53956.4 Q 78813 55846.6 78567.3 56870.35 Q 78320.95 57894.1 77992.7 58136.55 Q 77845.8 58242.5 77673.55 58271.1 Q 77501.3 58300.35 77273.8 58296.45 Q 76914.35 58299.05 76207.8 58284.75 Q 75500.6 58269.8 74691.35 58202.85 Q 74945.5 58555.8 75112.55 58990 Q 75279.6 59424.85 75303.65 59787.55 Q 76045.3 59818.1 76701.8 59823.95 Q 77358.3 59829.8 77780.15 59800.55 Q 78300.8 59759.6 78671.95 59624.4 Q 79043.1 59488.55 79364.2 59148.6 Q 79814 58733.25 80109.1 57466.4 Q 80138.35 57342.25 80166.3 57207.7 Q 80451.65 55838.8 80681.75 53184.2 Q 80712.3 53001.55 80730.5 52758.45 Q 80748.05 52515.35 80748.7 52492.6 L 72708.2 52492.6 Z M 91198.75 52279.4 L 91198.75 54781.9 L 89361.2 54781.9 L 89361.2 52279.4 L 91198.75 52279.4 Z M 92862.75 56232.7 L 92862.75 52279.4 L 94619.7 52279.4 L 94619.7 50748.65 L 92862.75 50748.65 L 92862.75 47780.1 L 91198.75 47780.1 L 91198.75 50748.65 L 89361.2 50748.65 L 89361.2 47659.85 L 87790.8 47659.85 L 87790.8 50748.65 L 85979.9 50748.65 L 85979.9 47939.35 L 84329.55 47939.35 L 84329.55 50748.65 L 82532.3 50748.65 L 82532.3 52279.4 L 84329.55 52279.4 L 84329.55 59268.2 L 94273.25 59268.2 L 94273.25 57737.45 L 85979.9 57737.45 L 85979.9 52279.4 L 87790.8 52279.4 L 87790.8 56232.7 L 92862.75 56232.7 Z M 108011.65 50775.3 Q 107581.35 50233.2 106932.65 49540.3 Q 106283.95 48846.75 105641.75 48185.7 Q 105373.3 47907.5 105136.05 47659.85 L 103911.45 48472.35 Q 104560.8 49173.7 105282.95 49992.05 Q 105426.6 50156.5 105566.35 50319 Q 106266.4 51126.95 106680.45 51720.4 L 108011.65 50775.3 Z M 101674.8 47686.5 Q 101191.2 48592.6 100495.05 49453.85 Q 99799.55 50315.1 99065.7 50921.55 Q 99363.4 51114.6 99741.7 51405.8 Q 100119.35 51696.35 100357.25 51919.95 Q 101065.75 51219.25 101824.95 50229.3 Q 102583.5 49239.35 103152.9 48218.85 L 101674.8 47686.5 Z M 100942.9 54861.85 Q 102383.95 53780.25 103445.4 52199.45 Q 104003.1 53023.65 104620.6 53675.6 Q 105237.45 54327.55 105934.9 54861.85 L 100942.9 54861.85 Z M 101728.1 58083.25 L 101728.1 56259.35 L 105016.45 56259.35 L 105016.45 58083.25 L 101728.1 58083.25 Z M 102966.35 49896.5 Q 102322.85 51411.65 101205.5 52550.45 Q 100088.15 53689.25 98666.6 54356.15 L 98666.6 50868.25 Q 99408.9 49490.25 99930.85 48072.6 L 98440.4 47606.55 Q 97937.95 49046.3 97155.35 50355.4 Q 96373.4 51665.15 95471.85 52585.55 Q 95695.45 52904.7 95954.15 53403.9 Q 96212.85 53903.1 96337 54222.9 Q 96739.35 53783.5 97162.5 53224.5 L 97162.5 59987.1 L 98666.6 59987.1 L 98666.6 54502.4 Q 98950.65 54779.3 99197 55111.45 Q 99444 55443.6 99598.05 55740.65 Q 99911.35 55563.85 100224 55367.55 L 100224 60000.1 L 101728.1 60000.1 L 101728.1 59481.4 L 105016.45 59481.4 L 105016.45 59907.15 L 106586.85 59907.15 L 106586.85 55327.9 Q 106757.8 55437.75 106933.3 55547.6 Q 107108.8 55657.45 107279.1 55767.3 Q 107438.35 55408.5 107721.75 55045.15 Q 108005.8 54681.15 108304.15 54422.45 Q 107050.3 53827.7 106033.05 52978.15 Q 105015.8 52128.6 104190.95 50854.6 Q 104307.3 50631.65 104404.15 50389.2 L 102966.35 49896.5 Z M 116451.25 54276.2 L 116451.25 56113.1 L 113961.75 56113.1 L 113961.75 54276.2 L 116451.25 54276.2 Z M 117915.7 57417.65 L 117915.7 52971.65 L 112497.95 52971.65 L 112497.95 58296.45 L 113961.75 58296.45 L 113961.75 57417.65 L 117915.7 57417.65 Z M 118515 50615.4 L 111872 50615.4 L 111872 51946.6 L 118515 51946.6 L 118515 50615.4 Z M 120857.6 48179.2 L 109569.05 48179.2 L 109569.05 59987.1 L 111113.45 59987.1 L 111113.45 49683.3 L 119300.2 49683.3 L 119300.2 58150.2 Q 119309.95 58452.45 118980.4 58456.35 Q 118791.9 58466.75 118308.3 58462.85 Q 117824.7 58458.3 117276.75 58429.7 Q 117462 58757.3 117614.75 59205.15 Q 117766.85 59652.35 117822.75 60000.1 Q 118647.6 60005.95 119225.45 59946.8 Q 119803.3 59887.65 120179 59693.95 Q 120553.4 59500.9 120708.1 59138.2 Q 120862.8 58775.5 120857.6 58163.2 L 120857.6 48179.2 Z M 129017.7 52066.2 Q 129620.25 51344.05 130202.65 50562.1 L 132172.8 50562.1 L 131267.35 51108.1 Q 131590.4 51477.3 131932.95 51906.3 L 129017.7 52066.2 Z M 134662.3 53197.85 Q 134324.3 52638.85 133756.85 51919.95 Q 133189.4 51201.05 132612.2 50562.1 L 134436.1 50562.1 L 134436.1 49150.95 L 131294 49150.95 Q 131180.25 48773.95 131001.5 48343.65 Q 130822.75 47914 130628.4 47526.6 L 129164.6 47873.05 Q 129433.7 48482.1 129643.65 49150.95 L 126182.4 49150.95 L 126182.4 50562.1 L 128445.7 50562.1 Q 128107.05 50993.05 127802.85 51353.8 Q 127499.3 51715.2 127340.7 51866.65 Q 127119.05 52062.95 126819.4 52159.8 Q 126520.4 52256 126289 52292.4 Q 126385.2 52567.35 126493.75 53011.3 Q 126602.3 53455.9 126648.45 53770.5 Q 126857.1 53678.2 127323.8 53609.3 Q 127601.35 53568.35 128062.85 53524.15 Q 128523.7 53479.3 129241.95 53423.4 Q 130488 53326.55 132851.4 53158.2 Q 133194.6 53643.75 133397.4 54009.7 L 134662.3 53197.85 Z M 126155.75 49150.95 Q 125731.3 48770.7 125049.45 48375.5 Q 124367.6 47980.3 123733.2 47700.15 L 122854.4 48857.8 Q 123497.9 49180.85 124164.15 49613.75 Q 124829.75 50046 125223.65 50428.85 L 126155.75 49150.95 Z M 125650.05 52651.85 Q 125213.25 52309.95 124501.5 51943.35 Q 123790.4 51576.1 123133.9 51334.3 L 122308.4 52532.25 Q 122972.7 52815.65 123664.95 53216.05 Q 124356.55 53616.45 124771.25 53970.05 L 125650.05 52651.85 Z M 125064.4 54568.7 Q 124449.5 55751.05 123769.6 56870.35 Q 123089.7 57989.65 122534.6 58762.5 L 123879.45 59827.2 Q 124483.95 58847.65 125085.85 57765.4 Q 125687.75 56683.8 126222.05 55634.05 L 125064.4 54568.7 Z M 127127.5 55301.25 Q 127157.4 56107.9 126894.8 56995.15 Q 126852.55 57121.9 126799.25 57248 Q 126463.85 58131.35 125423.85 58882.1 Q 125708.55 59064.75 126030.95 59359.85 Q 126353.35 59654.3 126528.2 59907.15 Q 127671.55 59055 128090.8 58005.25 Q 128226 57691.95 128313.75 57374.1 Q 128579.6 56310.05 128551.65 55354.55 L 128551.65 54089.65 L 127127.5 54089.65 L 127127.5 55301.25 Z M 129364.15 59401.45 L 130748.65 59401.45 L 130748.65 54076.65 L 129364.15 54076.65 L 129364.15 59401.45 Z M 133224.5 58496 Q 133138.05 58492.75 133091.25 58429.7 Q 133041.2 58362.75 133051.6 58056.6 L 133051.6 54089.65 L 131587.15 54089.65 L 131587.15 58016.95 Q 131585.2 58668.25 131663.85 58965.3 Q 131741.85 59262.35 131919.95 59414.45 Q 132084.4 59584.1 132319.05 59666 Q 132553.7 59747.9 132798.75 59747.25 L 133491 59747.25 Q 133676.25 59746.6 133876.45 59699.15 Q 134077.3 59651.05 134222.9 59560.7 Q 134515.4 59378.05 134648.65 58975.05 Q 134718.2 58757.95 134760.45 58316.6 Q 134802.05 57874.6 134822.2 57417.65 Q 134542.05 57323.4 134244.35 57164.8 Q 133947.3 57006.2 133756.85 56832 Q 133740.6 57760.2 133703.55 58109.9 Q 133667.15 58392.65 133610.6 58456.35 Q 133543.65 58496 133437.7 58496 L 133224.5 58496 Z M 144552.7 55820.6 L 144552.7 57923.35 L 139281.2 57923.35 L 139281.2 55820.6 L 144552.7 55820.6 Z M 137657.5 59973.45 L 139281.2 59973.45 L 139281.2 59387.8 L 144552.7 59387.8 L 144552.7 59920.15 L 146243.35 59920.15 L 146243.35 54422.45 L 137657.5 54422.45 L 137657.5 59973.45 Z M 139747.25 51827 Q 140925.7 50974.85 141943.6 49923.15 Q 143122.05 51064.55 144260.2 51827 L 139747.25 51827 Z M 141943.6 47486.95 Q 140897.1 48996.9 139268.2 50151.3 Q 139157.05 50231.25 139044.6 50309.25 Q 137389.7 51437 135580.75 52146.15 Q 135917.45 52456.2 136229.45 52851.4 Q 136541.45 53246.6 136739.05 53596.95 Q 137640.6 53171.2 138522.65 52625.2 L 138522.65 53277.8 L 145178.65 53277.8 L 145178.65 52412.65 Q 146127 52945 147095.5 53397.4 Q 147265.15 53018.45 147566.75 52627.15 Q 147868.35 52235.85 148186.85 51946.6 Q 146838.1 51470.8 145516.65 50725.25 Q 144194.55 49979.7 142915.35 48805.15 Q 143135.05 48521.75 143354.75 48218.85 L 141943.6 47486.95 Z M 160447.8 48218.85 L 153685.2 48218.85 L 153685.2 49723.6 L 160447.8 49723.6 L 160447.8 48218.85 Z M 152966.3 49058 Q 152605.55 48827.25 152051.75 48534.1 Q 151497.95 48240.95 150953.25 47964.7 Q 150688.05 47829.5 150463.8 47713.15 L 149571.35 48857.8 Q 150190.15 49202.95 150898 49622.85 L 150900.6 49624.15 Q 151608.45 50044.05 152047.85 50348.9 L 152966.3 49058 Z M 152340.35 52651.85 Q 151875.6 52373 151159.95 52014.85 L 151124.85 51997.95 Q 150407.9 51639.8 149824.2 51360.95 L 148972.7 52532.25 Q 149000.65 52547.85 149029.9 52563.45 Q 149646.75 52894.95 150338.35 53284.95 Q 151029.95 53674.3 151448.55 53970.05 L 152340.35 52651.85 Z M 150782.95 59840.2 Q 151377.7 58861.3 151979.6 57777.1 Q 152581.5 56692.9 153126.2 55634.05 L 151954.25 54568.7 Q 151339.35 55750.4 150661.4 56871.65 Q 149984.1 57993.55 149438.75 58775.5 L 150782.95 59840.2 Z M 161312.95 52731.8 L 161312.95 51227.7 L 152846.05 51227.7 L 152846.05 52731.8 L 154563.35 52731.8 Q 154400.85 53565.75 154205.85 54399.05 Q 154010.85 55233 153817.8 55886.9 L 158809.8 55886.9 Q 158711.65 56890.5 158573.85 57443 Q 158435.4 57994.85 158237.8 58150.2 Q 158001.2 58306.2 157545.55 58282.8 Q 157162.05 58285.4 156413.9 58264.6 Q 155665.75 58244.45 154842.85 58176.2 Q 155098.3 58507.7 155270.55 58918.5 Q 155443.45 59329.95 155468.8 59680.95 Q 156240.35 59711.5 156924.8 59717.35 Q 157609.25 59723.2 158051.25 59693.95 Q 158556.3 59680.95 158936.55 59557.45 Q 159316.8 59434.6 159622.3 59121.95 Q 159965.5 58795 160164.4 57842.1 Q 160363.3 56889.2 160487.45 55034.75 Q 160508.25 54854.05 160523.85 54629.15 Q 160540.1 54403.6 160540.75 54382.8 L 155814.6 54382.8 Q 155997.9 53567.05 156161.05 52731.8 L 161312.95 52731.8 Z M 164241.2 57218.1 L 164241.2 54609 L 166358.25 54609 L 166358.25 57218.1 L 164241.2 57218.1 Z M 166358.25 53237.5 L 164241.2 53237.5 L 164241.2 51081.45 L 166358.25 51081.45 L 166358.25 53237.5 Z M 170591.05 49603.35 Q 170890.7 48768.1 171110.4 47912.7 L 169592.65 47566.9 Q 169299.5 48751.85 168839.3 49875.05 Q 168378.45 50997.6 167795.4 51853 L 167795.4 49696.95 L 165732.3 49696.95 Q 166078.75 48814.9 166424.55 47793.1 L 164694.25 47553.25 Q 164651.35 48035.55 164546.05 48610.15 Q 164440.75 49184.75 164308.15 49696.95 L 162803.4 49696.95 L 162803.4 59587.35 L 164241.2 59587.35 L 164241.2 58615.6 L 167795.4 58615.6 L 167795.4 52399 Q 168075.55 52584.25 168362.85 52787.05 Q 168650.8 52989.2 168820.45 53144.55 Q 169456.15 52262.5 169992.4 51041.15 L 172840.7 51041.15 Q 172738.65 54463.4 172584.6 56137.15 Q 172578.1 56205.4 172571.6 56271.05 Q 172413.65 57883.05 172135.45 58163.2 Q 172010 58290.6 171877.4 58341.3 Q 171744.8 58391.35 171549.8 58389.4 Q 171278.75 58392 170747.7 58379.65 Q 170216.65 58367.3 169566 58309.45 Q 169779.85 58653.3 169920.9 59081.65 Q 170061.95 59510 170085.35 59853.85 Q 170684 59875.95 171235.2 59875.3 Q 171786.4 59875.3 172175.1 59827.2 Q 172569.65 59766.75 172874.5 59610.75 Q 173178.7 59455.4 173453 59095.3 Q 173758.5 58726.1 173926.2 57545.7 Q 174033.45 56788.45 174109.5 55579.45 Q 174225.85 53682.1 174318.8 50322.25 Q 174327.9 50155.2 174330.5 49893.25 Q 174332.45 49631.3 174331.8 49603.35 L 170591.05 49603.35 Z M 172121.8 55673.7 Q 171791.6 55068.55 171238.45 54250.85 Q 170685.95 53433.8 170165.3 52718.8 L 168927.05 53424.05 Q 169436 54179.35 169957.3 55026.3 Q 170478.6 55873.9 170777.6 56499.2 L 172121.8 55673.7 Z M 5082.85 66793.55 Q 4631.75 68261.9 3923.25 69605.45 Q 3214.75 70949 2393.8 71918.8 Q 2607 72235.35 2867 72733.25 Q 2871.55 72742.35 2876.75 72751.45 Q 3135.45 73248.7 3259.6 73556.15 Q 3625.55 73110.25 3991.5 72584.4 L 3991.5 79173.45 L 5509.25 79173.45 L 5509.25 69922 Q 6141.7 68583.65 6573.95 67245.95 L 5082.85 66793.55 Z M 12950.45 68577.15 L 12950.45 69682.15 L 8131.35 69682.15 L 8131.35 68577.15 L 12950.45 68577.15 Z M 14427.9 70986.7 L 14427.9 67272.6 L 6667.55 67272.6 L 6667.55 71506.05 Q 6681.2 72808.65 6583.7 74349.8 Q 6540.15 74958.2 6459.55 75562.7 Q 6270.4 77095.4 5735.45 78348.6 Q 6006.5 78474.05 6379.6 78734.05 Q 6752.7 78994.7 6973.7 79200.1 Q 7529.45 77938.45 7782.95 76345.95 Q 7942.2 75379.4 8020.2 74407 Q 8140.45 72806.05 8131.35 71506.05 L 8131.35 70986.7 L 14427.9 70986.7 Z M 13229.95 75446.35 L 13229.95 77496.45 L 12111.95 77496.45 L 12111.95 74860.7 L 14361.6 74860.7 L 14361.6 71785.55 L 13070.05 71785.55 L 13070.05 73622.45 L 12111.95 73622.45 L 12111.95 71346.15 L 10807.4 71346.15 L 10807.4 73622.45 L 9928.6 73622.45 L 9928.6 71812.2 L 8691 71812.2 L 8691 74860.7 L 10807.4 74860.7 L 10807.4 77496.45 L 9755.7 77496.45 L 9755.7 75432.7 L 8504.45 75432.7 L 8504.45 78734.05 L 13229.95 78734.05 L 13229.95 79133.8 L 14507.85 79133.8 L 14507.85 75446.35 L 13229.95 75446.35 Z M 17463.4 73435.9 Q 17543.35 72647.45 17623.3 71798.55 L 20405.3 71798.55 L 20405.3 67432.5 L 16078.9 67432.5 L 16078.9 68870.3 L 18940.85 68870.3 L 18940.85 70361.4 L 16345.4 70361.4 Q 16271.3 71492.4 16130.25 72713.75 Q 15989.2 73935.1 15826.05 74847.05 L 16678.2 74847.05 L 16678.2 74860.7 L 18834.25 74860.7 Q 18755.6 76163.3 18639.9 76799 Q 18523.55 77435.35 18355.2 77589.4 Q 18198.55 77752.55 17902.8 77735.65 Q 17714.3 77737.6 17358.75 77729.15 Q 17002.55 77720.7 16584.6 77683 Q 16775.7 77993.7 16889.45 78386.3 Q 17002.55 78779.55 17024 79120.15 Q 17519.95 79150.05 17945.7 79142.25 Q 18372.1 79133.8 18648.35 79093.5 Q 18975.3 79059.05 19226.85 78944 Q 19479.05 78828.95 19686.4 78574.8 Q 19970.45 78273.2 20137.5 77225.4 Q 20303.9 76176.95 20418.3 74048.2 Q 20438.45 73887.65 20448.2 73672.5 Q 20458.6 73456.7 20458.6 73435.9 L 17463.4 73435.9 Z M 25011.2 77137 L 25011.2 75805.8 L 26714.85 75805.8 L 25623.5 76218.55 Q 25866.6 76614.4 26089.55 77070.05 L 25011.2 77137 Z M 22428.75 74540.9 L 22428.75 73209.7 L 23520.1 73209.7 L 23520.1 74540.9 L 22428.75 74540.9 Z M 26129.2 73209.7 L 26129.2 74540.9 L 25011.2 74540.9 L 25011.2 73209.7 L 26129.2 73209.7 Z M 22761.55 68737.05 L 25676.8 68737.05 L 25676.8 69762.1 L 22761.55 69762.1 L 22761.55 68737.05 Z M 28352.2 78760.7 Q 28179.95 78129.55 27795.15 77323.55 Q 27410.35 76516.9 26968.35 75805.8 L 27567 75805.8 L 27567 71931.8 L 25011.2 71931.8 L 25011.2 71053 L 27180.9 71053 L 27180.9 67445.5 L 21337.4 67445.5 L 21337.4 71053 L 23520.1 71053 L 23520.1 71931.8 L 21057.25 71931.8 L 21057.25 75805.8 L 23520.1 75805.8 L 23520.1 77216.95 Q 21772.9 77319.65 20485.25 77363.2 L 20671.8 78907.6 Q 21920.45 78825.7 23492.15 78706.1 Q 25063.2 78586.5 26701.85 78454.55 Q 26894.9 78957 26968.35 79320.35 L 28352.2 78760.7 Z M 34702.05 74754.1 Q 34740.4 74464.2 34759.9 74154.8 Q 34770.3 74017 34782 73875.3 L 37151.9 73875.3 L 37151.9 72917.2 Q 37291 73088.8 37391.1 73233.1 Q 37434.65 73294.2 37471.05 73342.95 Q 37627.7 73110.25 37764.2 72837.25 Q 37883.8 73590.6 38075.55 74356.3 Q 38267.3 75122 38536.4 75845.45 Q 37916.95 77100.6 36778.8 77935.85 Q 36867.2 77551.05 36925.7 76899.1 Q 36983.55 76247.15 37031.65 75273.45 Q 37041.4 75127.2 37043.35 74948.45 Q 37045.95 74770.35 37045.3 74754.1 L 34702.05 74754.1 Z M 31893.4 70001.95 Q 32296.4 69132.9 32599.3 68244.35 L 32599.3 69376 L 34183.35 69376 L 34183.35 70308.1 L 32785.2 70308.1 L 32785.2 71586 L 34183.35 71586 L 34183.35 72611.05 L 32279.5 72611.05 L 32279.5 73875.3 L 33384.5 73875.3 Q 33331.2 75300.1 33008.15 76393.4 Q 32685.75 77486.05 31893.4 78162.05 L 31893.4 70001.95 Z M 36805.45 71586 L 36805.45 71586 Q 36649.45 71895.4 36472.65 72145 Q 36665.7 72338.05 36899.05 72611.05 L 35621.15 72611.05 L 35621.15 71586 L 36805.45 71586 Z M 39654.4 70440.7 Q 39564.7 72347.8 39215 73875.3 Q 38802.25 72327.65 38629.35 70800.15 Q 38689.15 70620.75 38748.95 70440.7 L 39654.4 70440.7 Z M 41531.6 70440.7 L 41531.6 69109.5 L 39108.4 69109.5 Q 39351.5 68077.95 39534.8 67006.75 L 38123.65 66753.25 Q 37946.2 68083.8 37634.2 69309.7 Q 37322.2 70534.95 36845.75 71506.05 L 36845.75 70308.1 L 35621.15 70308.1 L 35621.15 69376 L 37058.3 69376 L 37058.3 68124.75 L 35621.15 68124.75 L 35621.15 66939.8 L 34183.35 66939.8 L 34183.35 68124.75 L 32638.95 68124.75 Q 32819 67641.8 32958.75 67179.65 L 31494.3 66766.9 Q 31085.45 68234.6 30434.15 69572.3 Q 29782.85 70910 29004.8 71878.5 Q 29213.45 72206.1 29440.3 72724.15 L 29450.7 72747.55 Q 29676.25 73264.95 29777 73582.8 Q 30119.55 73170.05 30442.6 72677.35 L 30442.6 79173.45 L 31893.4 79173.45 L 31893.4 78215.35 Q 32137.8 78403.2 32422.5 78711.3 Q 32707.2 79018.75 32852.15 79226.75 Q 33525.55 78628.75 33931.8 77815.6 Q 34338.05 77003.1 34542.8 75965.7 L 35607.5 75965.7 Q 35559.4 76763.25 35500.9 77146.75 Q 35443.05 77530.25 35354.65 77629.7 Q 35227.9 77775.95 35021.85 77762.3 Q 34802.15 77772.7 34263.3 77722.65 Q 34404.35 77991.1 34496 78334.95 Q 34587.65 78678.8 34609.1 78987.55 Q 34964.65 79005.75 35274.7 78992.1 Q 35585.4 78978.45 35780.4 78947.25 Q 36230.2 78914.1 36539.6 78521.5 Q 36665.7 78371.35 36752.15 78041.8 Q 36943.9 78299.85 37155.15 78659.3 Q 37366.4 79019.4 37458.05 79267.05 Q 38552.65 78451.3 39228.65 77336.55 Q 39844.2 78414.9 40759.4 79173.45 Q 40934.9 78866 41225.45 78488.35 Q 41515.35 78110.05 41731.15 77882.55 Q 40635.9 77083.7 40000.2 75845.45 Q 40424.65 74726.8 40661.25 73372.85 Q 40897.85 72019.55 41012.25 70440.7 L 41531.6 70440.7 Z M 46017.25 76045 L 46017.25 75432.7 L 51156.15 75432.7 L 51156.15 76045 L 46017.25 76045 Z M 51156.15 73729.05 L 51156.15 74341.35 L 46017.25 74341.35 L 46017.25 73729.05 L 51156.15 73729.05 Z M 52686.9 72544.1 L 44513.15 72544.1 L 44513.15 79187.1 L 46017.25 79187.1 L 46017.25 77163.65 L 51156.15 77163.65 L 51156.15 77709 Q 51172.4 77948.85 50889.65 77948.85 Q 50719.35 77949.5 50272.15 77945.6 Q 49824.95 77941.7 49345.25 77922.2 Q 49490.2 78191.3 49616.95 78534.5 Q 49743.7 78878.35 49798.3 79187.1 Q 50545.8 79192.3 51099.6 79155.25 Q 51652.75 79118.2 52021.3 78973.9 Q 52403.5 78821.8 52548.45 78533.2 Q 52694.05 78243.95 52686.9 77722.65 L 52686.9 72544.1 Z M 46244.1 69988.3 L 48187.6 69988.3 L 48187.6 70680.55 L 46244.1 70680.55 L 46244.1 69988.3 Z M 50850 68470.55 L 50850 70680.55 L 49558.45 70680.55 L 49558.45 69016.55 L 46244.1 69016.55 L 46244.1 68470.55 L 50850 68470.55 Z M 52447.05 70680.55 L 52447.05 67272.6 L 44726.35 67272.6 L 44726.35 70680.55 L 42902.45 70680.55 L 42902.45 73502.85 L 44313.6 73502.85 L 44313.6 72025.4 L 52900.1 72025.4 L 52900.1 73502.85 L 54390.55 73502.85 L 54390.55 70680.55 L 52447.05 70680.55 Z M 57865.45 74727.45 Q 56963.25 74750.85 56354.85 75360.55 L 56353.55 75361.85 Q 55745.8 75972.2 55721.75 76884.15 Q 55745.8 77795.45 56353.55 78405.8 L 56354.85 78407.1 Q 56963.25 79016.8 57865.45 79040.2 Q 58786.5 79016.8 59392.95 78406.45 Q 59999.4 77796.1 60021.5 76884.15 Q 59999.4 75971.55 59392.95 75361.2 Q 58786.5 74750.85 57865.45 74727.45  Z M 57865.45 78082.1 Q 57372.1 78069.75 57033.45 77732.4 Q 56694.8 77395.7 56680.5 76884.15 Q 56694.8 76372.6 57033.45 76035.25 Q 57372.1 75698.55 57865.45 75686.2 Q 58377 75698.55 58713.7 76035.25 Q 59051.05 76372.6 59063.4 76884.15 Q 59051.05 77395.7 58713.7 77732.4 Q 58377 78069.75 57865.45 78082.1  Z " fill-rule="nonzero" style="fill:#555555;;fill-opacity:1;"/>
</svg>