<svg version="1.1" x="0" y="0" width="100%" height="100%" viewBox="0 0 860057.6 61798.4" xmlns="http://www.w3.org/2000/svg">
  <path d="M 30123.6 44945.05 Q 29516.8 45057.9 28985.85 45057.9 Q 27735.25 45057.9 26845.4 44547.3 Q 25955.55 44034.85 24741.95 43050.65 Q 23038.1 41685.35 19401 38068.6 Q 15763.9 34450 12807.6 31305 Q 11557 36684.8 9133.5 40246.05 Q 6708.15 43807.3 2654.8 44982.05 L 2503.1 45020.9 Q 2236.7 45020.9 2123.85 44811.85 Q 2009.15 44602.8 2160.85 44414.1 Q 6177.2 40209.05 7882.9 33521.3 Q 9586.75 26833.55 9586.75 19975.6 Q 9586.75 17777.8 9398.05 15694.7 Q 9398.05 15543 9340.7 15372.8 Q 9285.2 15202.6 9285.2 15050.9 Q 9246.35 14936.2 9209.35 14766 Q 9170.5 14595.8 9170.5 14407.1 Q 9170.5 13800.3 9890.15 13800.3 Q 10837.35 13800.3 12126.8 14236.9 Q 13414.4 14671.65 14172.9 15202.6 Q 15460.5 14899.2 16653.75 14519.95 Q 17847 14140.7 18302.1 13876.15 Q 18490.8 13763.3 18794.2 13763.3 Q 19210.45 13763.3 19438 13876.15 Q 20120.65 14216.55 21010.5 14936.2 Q 21900.35 15657.7 22431.3 16225.65 Q 22734.7 16529.05 22734.7 16869.45 Q 22734.7 17097 22470.15 17513.25 Q 21332.4 19635.2 20424.05 22968.9 Q 21408.25 23348.15 21826.35 24978 Q 21863.35 25129.7 21863.35 25470.1 Q 21863.35 26302.6 21180.7 26302.6 Q 20499.9 26265.6 18244.75 26474.65 Q 15991.45 26681.85 13603.1 27061.1 Q 13527.25 27667.9 13451.4 27971.3 Q 13869.5 28197 15120.1 29107.2 Q 18150.4 31608.4 20688.6 33426.95 Q 21824.5 31985.8 22658.85 30546.5 Q 23493.2 29107.2 23567.2 28235.85 Q 23718.9 27477.35 24288.7 27477.35 Q 24514.4 27477.35 24856.65 27592.05 Q 25008.35 27629.05 26144.25 27875.1 Q 27282 28123 27698.25 28615.1 Q 28190.35 29031.35 28190.35 29486.45 Q 28190.35 29675.15 28077.5 29865.7 Q 27507.7 31001.6 25992.55 32346.55 Q 24477.4 33691.5 22583 34714.55 Q 26712.2 37404.45 30217.95 38692.05 Q 33721.85 39981.5 38345 40814 Q 39064.65 41004.55 39064.65 41420.8 Q 39064.65 41875.9 38269.15 42255.15 Q 35009.45 44073.7 30123.6 44945.05  Z M 16217.15 23387 Q 16938.65 19711.05 16938.65 18651 Q 16938.65 18384.6 16748.1 18384.6 Q 16104.3 18347.6 14550.3 18612.15 L 14361.6 19975.6 Q 14248.75 21833 14021.2 23688.55 L 16217.15 23387 Z M 23113.95 15543 Q 23075.1 15506 23075.1 15391.3 Q 23075.1 15202.6 23341.5 15012.05 Q 23606.05 14823.35 23946.45 14747.5 Q 24477.4 14710.5 25272.9 14862.2 Q 26068.4 15012.05 26712.2 15315.45 Q 28266.2 14975.05 29762.85 14595.8 Q 31259.5 14216.55 31562.9 14064.85 Q 31866.3 13952 32055 13952 Q 32282.55 13952 32622.95 14064.85 Q 33266.75 14216.55 34176.95 14766 Q 35085.3 15315.45 35616.25 15770.55 Q 35880.8 15998.1 35880.8 16225.65 Q 35880.8 16377.35 35655.1 16906.45 Q 35275.85 17552.1 34593.2 21453.75 Q 34593.2 21340.9 34252.8 23311.15 Q 34138.1 24143.65 33760.7 24635.75 Q 33381.45 25129.7 32510.1 25582.95 Q 31827.45 25925.2 31220.65 25925.2 Q 30349.3 25925.2 29933.05 25242.55 Q 29744.35 24826.3 29705.5 24711.6 Q 28454.9 24826.3 27282 24978 Q 27356 25734.65 26978.6 26152.75 Q 26599.35 26569 25840.85 26569 Q 25500.45 26569 24969.5 26454.3 Q 23454.35 25582.95 23454.35 24484.05 L 23493.2 23499.85 Q 23606.05 20658.25 23606.05 19711.05 Q 23606.05 16377.35 23113.95 15543  Z M 29896.05 22363.95 L 30388.15 17324.55 Q 30388.15 17209.85 30312.3 17134 Q 30236.45 17058.15 30084.75 17097 L 27470.7 17627.95 Q 27243.15 19899.75 27243.15 22704.35 L 29896.05 22363.95 Z M 29516.8 28463.4 Q 29440.95 28311.7 29440.95 28235.85 Q 29440.95 27895.45 30425.15 28008.3 Q 32622.95 28576.25 33912.4 29144.2 Q 35200 29714 36032.5 31001.6 Q 36563.45 31835.95 36563.45 32631.45 Q 36563.45 33502.8 35956.65 34240.95 Q 35351.7 34979.1 34365.65 35358.35 Q 34025.25 35510.05 33570.15 35510.05 Q 32698.8 35510.05 32319.55 34753.4 Q 31487.05 32516.75 30785.9 30831.4 Q 30084.75 29144.2 29516.8 28463.4  Z M 67027.4 44186.55 Q 64487.35 44338.25 62935.2 42671.4 Q 62025 41609.5 60755.9 39565.25 Q 59486.8 37519.15 57440.7 34070.75 Q 55130.05 30169.1 54144 28652.1 Q 53918.3 28387.55 53766.6 28160 Q 53614.9 27932.45 53500.2 27780.75 Q 52895.25 32403.9 51644.65 35719.1 Q 50394.05 39034.3 47931.7 41344.95 Q 45469.35 43655.6 41414.15 44717.5 L 40959.05 44793.35 Q 40581.65 44793.35 40409.6 44623.15 Q 40239.4 44451.1 40429.95 44338.25 Q 43648.95 41761.2 45658.05 37935.4 Q 47665.3 34107.75 48518.15 29997.05 Q 49371 25886.35 49371 22060.55 Q 49371 18575.15 48727.2 16262.65 Q 48575.5 15809.4 48575.5 15657.7 Q 48575.5 15239.6 49446.85 15239.6 Q 50318.2 15239.6 51417.1 15524.5 Q 52516 15809.4 53348.5 16262.65 Q 56341.8 15961.1 59089.05 15354.3 Q 61836.3 14747.5 62707.65 14179.55 Q 62935.2 14066.7 63351.45 14066.7 Q 63579 14066.7 63882.4 14140.7 Q 64677.9 14482.95 66022.85 15278.45 Q 67367.8 16073.95 67822.9 16566.05 Q 68163.3 16908.3 68163.3 17285.7 Q 68163.3 17589.1 67935.75 17892.5 Q 67404.8 18763.85 67179.1 19370.65 Q 66117.2 21492.6 65549.25 23272.3 Q 65889.65 23688.55 66098.7 24219.5 Q 66307.75 24750.45 66307.75 25205.55 Q 66307.75 26265.6 65360.55 26304.45 Q 64714.9 26265.6 62195.2 26417.3 Q 59677.35 26569 56948.6 26796.55 Q 61229.5 31721.25 64146.95 34431.5 Q 67064.4 37139.9 69754.3 38636.55 Q 72444.2 40133.2 76233 41344.95 Q 76800.95 41572.5 76800.95 41912.9 Q 76800.95 42406.85 75853.75 42784.25 Q 74377.45 43391.05 72064.95 43694.45 Q 69754.3 43997.85 67027.4 44186.55  Z M 53955.3 23727.4 Q 56721.05 23311.15 60698.55 22968.9 Q 61153.65 20354.85 61344.2 19028.4 Q 61381.2 18915.55 61323.85 18839.7 Q 61268.35 18763.85 61192.5 18763.85 Q 59866.05 18802.7 57932.8 19067.25 Q 56001.4 19331.8 54562.1 19598.2 Q 54447.4 19598.2 54371.55 19635.2 L 54219.85 20771.1 Q 54182.85 20998.65 54144 21244.7 Q 54107 21492.6 54107 21718.3 L 53955.3 23727.4 Z M 85780.85 30244.95 Q 85590.3 30281.95 85174.05 30281.95 Q 84226.85 30281.95 83658.9 29865.7 Q 83090.95 29447.6 82502.65 28748.3 Q 81916.2 28047.15 81536.95 27327.5 Q 81385.25 27061.1 81385.25 26833.55 Q 81385.25 26493.15 81651.65 26284.1 Q 81916.2 26076.9 82332.45 26076.9 Q 87068.45 25925.2 94609.05 25242.55 L 94494.35 22173.4 Q 94457.35 20697.1 93963.4 19255.95 Q 89227.4 20393.7 86765.05 20697.1 L 86424.65 20697.1 Q 85553.3 20697.1 85553.3 20354.85 Q 85553.3 20014.45 86272.95 19749.9 Q 89606.65 18612.15 93698.85 16149.8 Q 97791.05 13687.45 99761.3 11641.35 Q 100669.65 10731.15 101391.15 10731.15 Q 101692.7 10731.15 101959.1 10845.85 Q 103095 11374.95 103720.3 11887.4 Q 104345.6 12398 104989.4 13345.2 Q 105481.5 14142.55 105481.5 14519.95 Q 105481.5 15089.75 104895.05 15467.15 Q 104308.6 15846.4 102451.2 16680.75 Q 101276.45 17209.85 98055.6 18120.05 Q 98775.25 18347.6 99211.85 18575.15 Q 99648.45 18802.7 99874.15 19143.1 Q 100368.1 19711.05 100368.1 20430.7 Q 100368.1 20998.65 100177.55 21529.6 Q 99950 22212.25 99761.3 24711.6 Q 105216.95 24067.8 107794 23348.15 Q 108626.5 23083.6 109194.45 23083.6 Q 109688.4 23083.6 109915.95 23272.3 Q 111695.65 24410.05 112567 25962.2 Q 113022.1 26606 113022.1 27175.8 Q 113022.1 27592.05 112718.7 27932.45 Q 112415.3 28235.85 111355.25 28235.85 Q 111014.85 28235.85 110104.65 28160 Q 108550.65 27971.3 105784.9 27971.3 Q 102639.9 27971.3 99609.6 28235.85 Q 99533.75 31721.25 99533.75 33730.35 Q 99533.75 39413.55 99761.3 41648.35 Q 99874.15 43126.5 99552.25 44432.6 Q 99230.35 45740.55 98643.9 46517.55 Q 98055.6 47294.55 97411.8 47294.55 Q 96843.85 47294.55 95991 46421.35 Q 95138.15 45550 94494.35 44338.25 Q 93850.55 43126.5 93850.55 42179.3 Q 93850.55 41761.2 93926.4 41572.5 Q 94760.75 38769.75 94760.75 32100.5 Q 94760.75 29865.7 94721.9 28727.95 Q 90137.6 29297.75 85780.85 30244.95  Z M 122834.5 44982.05 Q 122077.85 45096.75 121395.2 44641.65 Q 120903.1 44338.25 120314.8 43600.1 Q 119728.35 42860.1 119349.1 42255.15 Q 119045.7 41763.05 119045.7 41420.8 Q 119045.7 41193.25 119273.25 41117.4 Q 119500.8 41041.55 119992.9 41080.4 Q 122379.4 41193.25 131814.4 40473.6 Q 131851.4 40018.5 131851.4 38845.6 L 131890.25 37215.75 Q 131359.3 37252.75 129616.6 37556.15 Q 127646.35 37898.4 127191.25 37898.4 Q 126471.6 37898.4 125942.5 37443.3 Q 125563.25 37102.9 125071.15 36325.9 Q 124577.2 35548.9 124349.65 35056.8 Q 124273.8 34942.1 124273.8 34753.4 Q 124273.8 34562.85 124445.85 34487 Q 124616.05 34411.15 124995.3 34374.15 Q 128669.4 34185.45 131927.25 33767.35 L 131927.25 30281.95 Q 130904.2 30357.8 129427.9 30585.35 Q 129237.35 31343.85 128784.1 31741.6 Q 128329 32139.35 127873.9 32252.2 Q 127267.1 32291.05 126491.95 31797.1 Q 125714.95 31305 125202.5 30528 Q 124691.9 29752.85 124767.75 28918.5 Q 124804.75 27479.2 124634.55 24315.7 Q 124464.35 21152.2 124066.6 18234.75 Q 123668.85 15317.3 123062.05 14255.4 Q 122986.2 13952 122986.2 13876.15 Q 122986.2 13496.9 123252.6 13289.7 Q 123517.15 13080.65 123933.4 13156.5 Q 125411.55 13156.5 126225.55 13402.55 Q 127039.55 13648.6 127836.9 14255.4 L 127986.75 14444.1 Q 129881.15 14255.4 136171.15 13347.05 Q 137308.9 13195.35 137895.35 12947.45 Q 138481.8 12701.4 138899.9 12436.85 Q 139316.15 12172.3 139467.85 12096.45 Q 140035.8 11793.05 140527.9 11793.05 Q 140755.45 11793.05 141134.7 11868.9 Q 143332.5 12473.85 145263.9 13990.85 Q 146286.95 14862.2 146286.95 15506 Q 146286.95 15770.55 146155.6 16036.95 Q 146022.4 16301.5 145870.7 16566.05 Q 145567.3 16984.15 145339.75 17552.1 Q 144960.5 18878.55 144316.7 24143.65 Q 144089.15 25962.2 144052.15 26152.75 Q 143672.9 28008.3 143123.45 29240.4 Q 142574 30472.5 141702.65 30849.9 Q 141589.8 30888.75 141399.25 30888.75 Q 140603.75 30888.75 139771.25 29865.7 L 138672.35 29904.55 Q 137989.7 29904.55 136474.55 29978.55 L 136474.55 33086.55 Q 138748.2 32668.45 139959.95 32366.9 Q 141021.85 32215.2 141097.7 32215.2 Q 141399.25 32215.2 141854.35 32442.75 Q 142422.3 32783.15 143086.45 33654.5 Q 143748.75 34525.85 143787.6 35321.35 Q 143863.45 36079.85 143560.05 36229.7 Q 143256.65 36381.4 142044.9 36381.4 L 141286.4 36381.4 Q 137952.7 36533.1 136435.7 36684.8 Q 136435.7 38997.3 136398.7 40094.35 Q 144013.3 39413.55 146249.95 39071.3 Q 146401.65 39034.3 146666.2 39034.3 Q 147273 39034.3 147916.8 39641.1 Q 148523.6 40246.05 148845.5 40682.65 Q 149167.4 41117.4 149470.8 41875.9 Q 149696.5 42406.85 149696.5 42786.1 Q 149696.5 43278.2 149319.1 43618.6 Q 148976.85 43846.15 148560.6 43846.15 L 147500.55 43770.3 Q 146211.1 43657.45 143217.8 43657.45 Q 137876.85 43657.45 131777.4 43997.85 Q 125676.1 44338.25 122834.5 44982.05  Z M 128708.25 21037.5 Q 129464.9 21037.5 131927.25 20772.95 L 131890.25 18763.85 Q 131890.25 17892.5 131662.7 17135.85 L 130108.7 17324.55 Q 129807.15 17361.55 129352.05 17361.55 Q 128745.25 17361.55 128404.85 17021.15 L 128708.25 21037.5 Z M 129276.2 27175.8 L 131966.1 26911.25 Q 131966.1 24485.9 131927.25 23311.15 L 130450.95 23538.7 Q 130071.7 23575.7 129635.1 23387 Q 129200.35 23196.45 129085.65 22968.9 L 128859.95 22667.35 L 129276.2 27175.8 Z M 136511.55 26456.15 Q 138330.1 26304.45 139203.3 26265.6 Q 139543.7 23803.25 139808.25 20828.45 Q 140074.65 17855.5 139998.8 16908.3 Q 139998.8 16604.9 139922.95 16471.7 Q 139847.1 16338.5 139543.7 16338.5 Q 139088.6 16338.5 137081.35 16529.05 Q 137042.5 16680.75 136966.65 16869.45 Q 136890.8 17060 136814.95 17324.55 Q 136702.1 17627.95 136587.4 19294.8 Q 136587.4 19711.05 136550.4 20014.45 L 136663.25 19977.45 Q 137042.5 19901.6 137534.6 19901.6 Q 137989.7 19901.6 138256.1 20051.45 Q 138936.9 20658.25 139277.3 21265.05 Q 139392 21529.6 139392 21871.85 Q 139392 22819.05 138141.4 22819.05 L 136550.4 22893.05 Q 136511.55 23916.1 136511.55 26456.15  Z M 161138.75 42935.95 Q 160306.25 42708.4 159490.4 42027.6 Q 158676.4 41344.95 158221.3 40416.25 Q 157768.05 39487.55 157880.9 38540.35 Q 158069.6 35206.65 158069.6 30394.8 Q 158069.6 23916.1 157540.5 22288.1 Q 157425.8 22060.55 157425.8 21833 Q 157425.8 21605.45 157596 21472.25 Q 157768.05 21340.9 158032.6 21377.9 Q 159623.6 21566.6 160419.1 21908.85 Q 161442.15 20166.15 161915.75 18025.7 Q 162389.35 15883.4 162504.05 13876.15 Q 162541.05 13117.65 162692.75 12795.75 Q 162844.45 12473.85 163260.7 12473.85 Q 163527.1 12473.85 163904.5 12588.55 Q 164966.4 12891.95 165950.6 13515.4 Q 166936.65 14140.7 167465.75 14975.05 Q 167732.15 15354.3 167732.15 15883.4 Q 167732.15 16604.9 167238.2 17209.85 Q 167012.5 17437.4 166821.95 17683.45 Q 166633.25 17929.5 166442.7 18157.05 Q 165382.65 19446.5 164359.6 20506.55 Q 163336.55 21566.6 161821.4 22704.35 L 161973.1 22817.2 Q 163375.4 22628.5 165495.5 21984.7 Q 166026.45 21833 166387.2 21586.95 Q 166746.1 21340.9 166992.15 21113.35 Q 167238.2 20885.8 167314.05 20809.95 Q 167769.15 20506.55 168185.4 20506.55 Q 168488.8 20506.55 168716.35 20619.4 Q 169550.7 20961.65 170231.5 21396.4 Q 170914.15 21833 171824.35 22628.5 Q 172277.6 23159.45 172277.6 23612.7 Q 172277.6 23803.25 172164.75 24106.65 Q 171900.2 25090.85 171824.35 25621.8 Q 173376.5 22741.35 174493.9 18821.2 Q 175611.3 14899.2 175611.3 12853.1 Q 175611.3 12398 175574.3 12246.3 L 175574.3 12094.6 Q 175574.3 11754.2 175783.35 11602.5 Q 175990.55 11450.8 176369.8 11526.65 Q 177696.25 11793.05 178680.45 12151.95 Q 179666.5 12512.7 180499 13117.65 Q 181105.8 13611.6 181105.8 14331.25 Q 181105.8 14671.65 180954.1 15012.05 Q 180574.85 15883.4 180195.6 17058.15 L 179742.35 18232.9 Q 178908 20582.4 178036.65 22060.55 Q 179551.8 21794.15 180917.1 21472.25 Q 182280.55 21150.35 182811.5 20961.65 Q 182963.2 20922.8 183455.3 20715.6 Q 183947.4 20506.55 184363.65 20506.55 Q 184667.05 20506.55 184894.6 20619.4 Q 185841.8 21037.5 186940.7 21833 Q 188039.6 22628.5 188455.85 23272.3 Q 188796.25 23727.4 188796.25 24182.5 Q 188796.25 24635.75 188513.2 25279.55 Q 188228.3 25925.2 188152.45 26152.75 Q 187963.75 26720.7 187736.2 28217.35 Q 187508.65 29714 187356.95 31266.15 Q 187319.95 31645.4 187262.6 32157.85 Q 187205.25 32668.45 187129.4 33312.25 Q 186485.6 40209.05 186030.5 41800.05 Q 185159.15 44678.65 182053 45816.4 Q 181825.45 45892.25 181749.6 45892.25 Q 181218.65 45892.25 180386.15 44830.35 Q 179590.65 43731.45 178264.2 42556.7 Q 177429.85 41800.05 176786.05 41156.25 Q 176482.65 40928.7 176482.65 40738.15 Q 176482.65 40586.45 176634.35 40510.6 Q 176786.05 40434.75 177013.6 40434.75 Q 178719.3 40434.75 180006.9 40360.75 Q 181142.8 40284.9 181257.5 39563.4 Q 182356.4 32479.75 182659.8 26796.55 Q 182659.8 26226.75 182280.55 25810.5 Q 181901.3 25394.25 180917.1 25545.95 Q 178528.75 25925.2 177431.7 25962.2 Q 176332.8 26001.05 176105.25 26001.05 Q 175461.45 26001.05 175043.35 25697.65 Q 173642.9 26872.4 171596.8 28008.3 L 171596.8 29562.3 Q 171596.8 34222.45 171709.65 37707.85 Q 171748.5 39223 171426.6 39942.65 Q 171102.85 40662.3 170079.8 41457.8 Q 169095.6 42329.15 168412.95 42329.15 Q 167693.3 42329.15 167389.9 41496.65 Q 167125.35 41004.55 167012.5 40625.3 Q 166821.95 40057.35 166594.4 39715.1 Q 166366.85 39374.7 165874.75 38995.45 Q 164019.2 39186 162692.75 39602.25 Q 162692.75 43239.35 161138.75 42935.95  Z M 162504.05 35737.6 Q 164132.05 35434.2 167164.2 35130.8 Q 167238.2 33084.7 167238.2 31797.1 Q 166897.8 32024.65 166291 32024.65 Q 165495.5 32024.65 164435.45 32119 Q 163375.4 32213.35 162768.6 32328.05 L 162465.2 32403.9 L 162504.05 35737.6 Z M 164207.9 28955.5 Q 164435.45 28879.65 164796.2 28803.8 Q 165155.1 28727.95 165495.5 28727.95 Q 165950.6 28727.95 166141.15 28879.65 Q 166557.4 29107.2 166784.95 29371.75 Q 167012.5 29638.15 167238.2 30091.4 Q 167238.2 26681.85 167201.2 25962.2 Q 167201.2 25394.25 166594.4 25394.25 Q 166291 25394.25 165079.25 25658.8 Q 163336.55 25962.2 163184.85 25962.2 Q 162844.45 26001.05 162616.9 25962.2 L 162504.05 29371.75 L 164207.9 28955.5 Z M 173148.95 28955.5 Q 172921.4 28727.95 172921.4 28539.25 Q 172921.4 28047.15 173944.45 28121.15 Q 175309.75 28197 176427.15 28576.25 Q 177544.55 28955.5 178871 29599.3 Q 179931.05 30167.25 180443.5 30925.75 Q 180954.1 31684.25 180954.1 32516.75 Q 180954.1 33351.1 180425 34146.6 Q 179894.05 34942.1 178983.85 35473.05 Q 178832.15 35585.9 178567.6 35585.9 Q 178264.2 35585.9 177979.3 35434.2 Q 177696.25 35282.5 177620.4 35169.65 Q 177544.55 35054.95 175953.55 32783.15 Q 174210.85 30015.55 173148.95 28955.5  Z M 212441.1 40777 Q 212213.55 40852.85 212098.85 40852.85 Q 211569.75 40852.85 211303.35 40473.6 Q 210356.15 39261.85 209788.2 38427.5 Q 209220.25 37595 208765.15 36457.25 L 208765.15 36305.55 Q 208765.15 35965.15 209068.55 35926.3 Q 209408.95 35889.3 210052.75 35889.3 Q 211834.3 35889.3 212970.2 36551.6 Q 214107.95 37215.75 213993.25 38314.65 Q 213917.4 39223 213540 39792.8 Q 213160.75 40360.75 212441.1 40777  Z M 194253.75 24067.8 Q 193989.2 23688.55 193989.2 23462.85 Q 193989.2 23235.3 194253.75 23159.45 Q 194520.15 23083.6 195049.25 23044.75 Q 198345.95 22931.9 205468.45 22060.55 Q 204256.7 20242 203233.65 19218.95 Q 203157.8 19067.25 203157.8 19028.4 Q 203157.8 18876.7 203291 18745.35 Q 203422.35 18612.15 203612.9 18575.15 Q 204293.7 18499.3 204711.8 18499.3 Q 206075.25 18499.3 207079.8 18952.55 Q 208082.5 19407.65 208273.05 20469.55 Q 208310.05 20582.4 208310.05 20809.95 Q 208310.05 21340.9 208008.5 21757.15 L 211190.5 21340.9 Q 211871.3 20393.7 212383.75 19161.6 Q 212894.35 17929.5 213121.9 16982.3 Q 209712.35 17361.55 206700.55 17835.15 Q 203688.75 18308.75 202286.45 18763.85 Q 202021.9 18839.7 201490.95 18839.7 Q 200279.2 18839.7 199483.7 17968.35 Q 198460.65 16756.6 198460.65 16301.5 Q 198460.65 15883.4 199065.6 15846.4 Q 200467.9 15770.55 203157.8 15467.15 Q 205847.7 15163.75 208652.3 14747.5 Q 208045.5 13839.15 206415.65 11868.9 L 205544.3 10807 Q 205544.3 10770 205488.8 10655.3 Q 205431.45 10542.45 205431.45 10427.75 Q 205431.45 10087.35 205962.4 10050.35 Q 206263.95 10011.5 207022.45 10011.5 Q 209484.8 10011.5 210659.55 10655.3 Q 211606.75 11073.4 212080.35 11717.2 Q 212553.95 12361 212553.95 13041.8 Q 212553.95 13535.75 212289.4 14140.7 Q 215963.5 13459.9 217517.5 13004.8 Q 217820.9 12891.95 218237.15 12891.95 Q 218880.95 12891.95 219299.05 13156.5 Q 219904 13496.9 220396.1 13970.5 Q 220890.05 14444.1 221117.6 14634.65 Q 221458 14899.2 221458 15506 Q 221458 15922.25 221193.45 16186.8 Q 220890.05 16414.35 220568.15 16471.7 Q 220246.25 16529.05 219487.75 16529.05 Q 218843.95 16529.05 216266.9 16680.75 Q 216607.3 16945.3 217138.25 17476.25 Q 217365.8 17627.95 217365.8 18044.2 Q 217365.8 18460.45 216986.55 18802.7 Q 216797.85 18991.4 216115.2 19616.7 Q 215434.4 20242 214411.35 20924.65 Q 221078.75 19938.6 222556.9 19598.2 Q 223087.85 19522.35 223276.55 19522.35 Q 223996.2 19522.35 224527.15 19938.6 Q 225207.95 20430.7 225511.35 20772.95 Q 225814.75 21113.35 226345.7 21945.85 Q 226534.4 22325.1 226534.4 22628.5 Q 226534.4 23083.6 226269.85 23387 Q 226005.3 23688.55 225550.2 23688.55 Q 225058.1 23688.55 223920.35 23612.7 Q 222897.3 23499.85 221609.7 23499.85 Q 218276 23499.85 210185.95 24389.7 Q 202097.75 25281.4 198308.95 26152.75 Q 197550.45 26302.6 197361.75 26302.6 Q 197134.2 26302.6 196906.65 26189.75 Q 196754.95 26113.9 196224 25810.5 Q 195694.9 25507.1 195145.45 25072.35 Q 194596 24635.75 194253.75 24067.8  Z M 195428.5 41004.55 Q 196603.25 39829.8 197417.25 39071.3 Q 198233.1 38314.65 199256.15 37670.85 Q 199672.4 37328.6 199899.95 37328.6 Q 200240.35 37328.6 200240.35 37859.55 Q 200316.2 39186 199936.95 41041.55 Q 199557.7 42898.95 198952.75 44414.1 Q 198725.2 44867.35 198364.45 45133.75 Q 198005.55 45398.3 197322.9 45474.15 Q 196791.95 45474.15 196187 45057.9 Q 195580.2 44641.65 195182.45 43977.5 Q 194784.7 43315.2 194784.7 42595.55 Q 194784.7 41685.35 195428.5 41004.55  Z M 201074.7 26606 Q 200960 26417.3 200960 26265.6 Q 200960 25621.8 202399.3 25621.8 Q 203801.6 25621.8 204976.35 26113.9 Q 207022.45 25962.2 210015.75 25564.45 Q 213009.05 25166.7 214448.35 24902.15 Q 214712.9 24826.3 215243.85 24598.75 Q 215586.1 24447.05 215983.85 24313.85 Q 216381.6 24182.5 216722 24182.5 Q 216873.7 24182.5 217177.1 24258.35 Q 219032.65 24750.45 220131.55 26038.05 Q 220246.25 26189.75 220246.25 26417.3 Q 220246.25 26606 220131.55 26927.9 Q 220018.7 27249.8 219942.85 27477.35 Q 219752.3 28160 219582.1 30054.4 Q 219411.9 31948.8 219374.9 33312.25 Q 219374.9 34335.3 218351.85 35282.5 Q 217328.8 36229.7 216229.9 36229.7 Q 215319.7 36229.7 214827.6 34866.25 Q 212857.35 34942.1 210052.75 35112.3 Q 207250 35282.5 206075.25 35434.2 Q 205659 36116.85 205015.2 36268.55 Q 204900.5 36305.55 204672.95 36305.55 Q 204105 36305.55 203518.55 35870.8 Q 202930.25 35434.2 202551 34903.25 Q 202097.75 34298.3 202097.75 33199.4 Q 202097.75 29523.45 201679.65 28235.85 Q 201452.1 27173.95 201074.7 26606  Z M 201490.95 37519.15 Q 201378.1 37215.75 201378.1 37064.05 Q 201378.1 36875.35 201603.8 36836.5 Q 202741.55 36647.8 203537.05 36647.8 Q 204445.4 36647.8 205203.9 36836.5 Q 205847.7 37064.05 206226.95 37820.7 Q 206378.65 38162.95 206813.4 39241.5 Q 207250 40321.9 208102.85 41117.4 Q 208955.7 41912.9 210395 42405 Q 211266.35 42708.4 212668.65 42708.4 Q 213577 42708.4 214448.35 42595.55 Q 215319.7 42480.85 215811.8 42292.15 Q 216154.05 42140.45 216154.05 41572.5 L 216191.05 40246.05 Q 216191.05 39110.15 216039.35 37896.55 L 216039.35 37746.7 Q 216039.35 37404.45 216266.9 37404.45 Q 216457.45 37404.45 216607.3 37670.85 Q 219108.5 40549.45 221154.6 41951.75 Q 222216.5 42632.55 222216.5 43466.9 Q 222216.5 44223.55 221306.3 44943.2 Q 220131.55 45890.4 217933.75 46439.85 Q 215735.95 46989.3 213425.3 46989.3 Q 211834.3 46989.3 210622.55 46724.75 Q 207817.95 46193.8 206169.6 45039.4 Q 204521.25 43883.15 203746.1 42556.7 Q 202969.1 41232.1 202249.45 39337.7 Q 201870.2 38314.65 201490.95 37519.15  Z M 205962.4 29599.3 L 206643.2 29486.45 L 212365.25 28766.8 Q 212592.8 28727.95 212875.85 28690.95 Q 213160.75 28652.1 213501.15 28652.1 Q 213993.25 28652.1 214296.65 28955.5 Q 214712.9 29183.05 215206.85 29941.55 Q 215243.85 29031.35 215243.85 27856.6 Q 215243.85 27629.05 215073.65 27516.2 Q 214903.45 27401.5 214563.05 27440.35 L 213009.05 27592.05 Q 207098.3 28121.15 205886.55 28348.7 L 205886.55 28842.65 L 205962.4 29599.3 Z M 206302.8 32783.15 L 207211.15 32707.3 Q 212174.7 32328.05 213425.3 32213.35 L 215092.15 32061.65 Q 215168 31229.15 215168 30698.2 Q 214940.45 30888.75 214372.5 30925.75 Q 213691.7 30964.6 211342.2 31190.3 Q 208992.7 31417.85 207780.95 31569.55 Q 207514.55 31608.4 207325.85 31645.4 Q 207135.3 31684.25 206985.45 31684.25 Q 206682.05 31684.25 206302.8 31305 L 206114.1 31077.45 L 206302.8 32783.15 Z M 219147.35 36988.2 Q 218919.8 36799.5 218919.8 36608.95 Q 218919.8 36344.4 219411.9 36192.7 Q 220510.8 35889.3 221570.85 35889.3 Q 222860.3 35889.3 223996.2 36305.55 Q 225019.25 36684.8 225587.2 37537.65 Q 226155.15 38390.5 226155.15 39337.7 Q 226155.15 40057.35 225833.25 40701.15 Q 225511.35 41344.95 224867.55 41763.05 Q 224412.45 42103.45 223959.2 42103.45 Q 223163.7 42103.45 222593.9 41232.1 L 222140.65 40549.45 Q 221230.45 39223 220605.15 38409 Q 219979.85 37595 219147.35 36988.2  Z M 246841.85 25281.4 Q 246462.6 25357.25 246236.9 25357.25 Q 245554.25 25357.25 244986.3 25015 Q 244342.5 24522.9 243981.75 24182.5 Q 243621 23840.25 243128.9 23083.6 Q 243016.05 22856.05 243016.05 22667.35 Q 243016.05 22400.95 243204.75 22230.75 Q 243395.3 22060.55 243659.85 22060.55 Q 245667.1 22021.7 248395.85 21757.15 Q 247713.2 20809.95 246804.85 19711.05 Q 246804.85 19674.05 246747.5 19559.35 Q 246690.15 19446.5 246729 19331.8 L 246425.6 19370.65 Q 245818.8 19370.65 245365.55 19028.4 Q 244834.6 18612.15 244549.7 18308.75 Q 244266.65 18005.35 243848.55 17285.7 Q 243772.7 17172.85 243772.7 16908.3 Q 243772.7 16680.75 243905.9 16529.05 Q 244039.1 16377.35 244266.65 16377.35 Q 247864.9 16262.65 251616.7 15543 Q 250934.05 14862.2 249722.3 13421.05 Q 248584.55 12057.6 248092.45 11565.5 Q 247979.6 11413.8 247979.6 11225.1 Q 247979.6 10882.85 248432.85 10731.15 Q 249267.2 10542.45 250138.55 10542.45 Q 251540.85 10542.45 252297.5 10921.7 Q 253359.4 11337.95 253890.35 12000.25 Q 254419.45 12664.4 254419.45 13459.9 Q 254419.45 14292.4 253890.35 15050.9 Q 255708.9 14634.65 256768.95 14292.4 Q 257451.6 14142.55 257753.15 14142.55 Q 258095.4 14142.55 258247.1 14216.55 Q 259534.7 14975.05 260178.5 16301.5 Q 260369.05 16680.75 260369.05 17021.15 Q 260369.05 17361.55 260102.65 17589.1 Q 259686.4 17931.35 258474.65 17816.65 L 257488.6 17779.65 Q 257753.15 17968.35 258056.55 18384.6 Q 258208.25 18575.15 258208.25 18839.7 Q 258208.25 19180.1 257925.2 19483.5 Q 257640.3 19786.9 256996.5 20317.85 L 256920.65 20354.85 L 258852.05 19899.75 Q 259610.55 19674.05 260026.8 19674.05 Q 260369.05 19674.05 260633.6 19825.75 Q 262528 20734.1 263058.95 22060.55 Q 263323.5 22515.65 263323.5 22893.05 Q 263323.5 23311.15 262983.1 23538.7 Q 262603.85 23879.1 261693.65 23879.1 Q 261012.85 23879.1 260670.6 23840.25 L 259307.15 23803.25 Q 258132.4 23803.25 257299.9 23879.1 Q 253017.15 24106.65 246841.85 25281.4  Z M 230286.2 35813.45 Q 230171.5 35473.05 230171.5 35130.8 Q 230171.5 34638.7 230399.05 34316.8 Q 230626.6 33994.9 231042.85 34031.9 Q 231233.4 34070.75 231534.95 34070.75 Q 232104.75 34070.75 232709.7 33880.2 Q 233316.5 33691.5 233468.2 33654.5 L 235969.4 32668.45 Q 235514.3 31911.8 235627.15 30964.6 Q 235854.7 29297.75 235930.55 27932.45 L 235059.2 28160 Q 234491.25 28274.7 234224.85 28274.7 Q 233960.3 28274.7 233714.25 28178.5 Q 233468.2 28084.15 233164.8 27932.45 Q 232217.6 27327.5 231649.65 26076.9 Q 231610.8 26001.05 231610.8 25886.35 Q 231610.8 25621.8 232141.75 25508.95 Q 233960.3 24939.15 236043.4 24258.35 L 236043.4 22591.5 Q 236043.4 21037.5 235969.4 18005.35 Q 235854.7 14938.05 235438.45 13459.9 Q 235362.6 13080.65 235362.6 12967.8 Q 235362.6 12361 235893.55 12361 Q 237257 12512.7 238374.4 12871.6 Q 239491.8 13232.35 240022.75 13687.45 Q 240402 14292.4 240402 15126.75 Q 240402 15581.85 240363.15 15885.25 Q 240287.3 16301.5 240287.3 18308.75 Q 240250.3 18688 240250.3 19522.35 Q 240211.45 20469.55 240211.45 22817.2 Q 240553.7 22704.35 240894.1 22704.35 Q 241726.6 22704.35 242144.7 23120.6 Q 242864.35 23727.4 243696.85 24939.15 Q 243811.55 25166.7 243811.55 25318.4 Q 243811.55 25697.65 243091.9 25925.2 Q 242144.7 26152.75 240250.3 26681.85 L 240250.3 27971.3 Q 240250.3 29410.6 240174.45 30925.75 L 240174.45 30964.6 Q 242181.7 30093.25 244342.5 29031.35 Q 244494.2 28955.5 244568.2 28955.5 Q 244795.75 28955.5 244853.1 29125.7 Q 244910.45 29297.75 244758.75 29486.45 Q 241386.2 32555.6 238999.7 34657.2 Q 236613.2 36760.65 233771.6 39184.15 Q 233353.5 39487.55 232937.25 39487.55 Q 232406.3 39487.55 232065.9 39071.3 Q 231610.8 38579.2 231005.85 37328.6 Q 230399.05 36078 230286.2 35813.45  Z M 239530.65 45513 Q 241689.6 44071.85 244209.3 41381.95 Q 246729 38692.05 247221.1 37025.2 Q 247335.8 36570.1 247335.8 36192.7 Q 246917.7 36041 246558.8 35774.6 Q 246198.05 35510.05 245970.5 35245.5 Q 245478.4 34562.85 245478.4 33654.5 Q 245591.25 31608.4 245591.25 30585.35 Q 245591.25 28994.35 245402.55 28160 Q 245365.55 27895.45 245213.85 27516.2 Q 245062.15 27136.95 244871.6 26909.4 Q 244607.05 26569 244607.05 26228.6 Q 244607.05 25886.35 244853.1 25734.65 Q 245099.15 25582.95 245705.95 25582.95 Q 246425.6 25582.95 247163.75 25716.15 Q 247903.75 25849.35 248357 26113.9 Q 252943.15 25658.8 254458.3 25166.7 Q 255063.25 25015 255385.15 24844.8 Q 255708.9 24674.6 256010.45 24371.2 Q 256313.85 24067.8 256693.1 24067.8 Q 256805.95 24067.8 257109.35 24143.65 Q 257677.3 24371.2 258624.5 25053.85 Q 259571.7 25734.65 259989.8 26152.75 Q 260217.35 26380.3 260217.35 26833.55 Q 260217.35 27288.65 259989.8 27592.05 Q 259571.7 28198.85 259346 31797.1 L 259231.3 33312.25 Q 259155.45 34031.9 258530.15 34677.55 Q 257904.85 35321.35 256996.5 35510.05 Q 256465.55 35698.75 256201 35548.9 L 256086.3 36797.65 Q 256010.45 38655.05 256201 40055.5 Q 256504.4 41685.35 259118.45 41685.35 Q 260330.2 41685.35 261656.65 41420.8 Q 263058.95 41154.4 263475.2 38087.1 Q 263626.9 37328.6 263891.45 37328.6 Q 264082 37328.6 264270.7 37669 Q 264307.7 37783.7 264498.25 38579.2 Q 264725.8 39526.4 264953.35 40151.7 Q 265179.05 40777 265710 41572.5 Q 266089.25 42101.6 266089.25 42708.4 Q 266089.25 43466.9 265463.95 44129.2 Q 264838.65 44791.5 263891.45 45094.9 Q 262489.15 45550 259534.7 45550 Q 257109.35 45550 255784.75 45209.6 Q 254040.2 44791.5 253150.35 43579.75 Q 252260.5 42368 252260.5 39905.65 Q 252260.5 38995.45 252412.2 37556.15 Q 252525.05 36570.1 252525.05 35813.45 Q 252525.05 34827.4 252488.05 34374.15 Q 251389.15 34487 250062.7 34714.55 Q 250897.05 35206.65 251237.45 35624.75 Q 251465 35965.15 251465 36192.7 Q 251465 36457.25 251237.45 36873.5 Q 251124.6 37101.05 250821.2 37783.7 Q 250517.8 38464.5 250177.4 39071.3 Q 248736.25 41951.75 245894.65 43768.45 Q 243053.05 45587 240098.6 46080.95 Q 239983.9 46117.95 239795.2 46117.95 Q 239264.25 46117.95 239264.25 45853.4 Q 239264.25 45701.7 239530.65 45513  Z M 248584.55 18915.55 Q 249380.05 18991.4 249835.15 19180.1 Q 250669.5 19522.35 251048.75 20108.8 Q 251426.15 20697.1 251350.3 21377.9 L 253019 21150.35 Q 254154.9 18915.55 254306.6 17968.35 Q 251768.4 18271.75 248584.55 18915.55  Z M 249039.65 28311.7 L 249078.5 29334.75 Q 249683.45 29221.9 251653.7 28918.5 L 252639.75 28766.8 Q 252752.6 28727.95 252943.15 28727.95 Q 253359.4 28727.95 253718.3 28974 Q 254079.05 29221.9 254761.7 29826.85 Q 255026.25 30169.1 255026.25 30394.8 Q 255026.25 30925.75 254003.2 31116.3 L 250554.8 31456.7 Q 250366.1 31493.7 250025.7 31493.7 Q 249531.75 31493.7 249230.2 31342 L 249267.2 32592.6 Q 252676.75 32137.5 255707.05 31835.95 Q 255745.9 30774.05 255745.9 27856.6 Q 255745.9 27440.35 255405.5 27516.2 L 253927.35 27743.75 L 250403.1 28311.7 Q 250025.7 28387.55 249911 28387.55 Q 249531.75 28387.55 249039.65 27971.3 L 249039.65 28311.7 Z M 305152 27743.75 L 305152 31532.55 L 267264 31532.55 L 267264 27743.75 L 305152 27743.75 L 343040 27743.75 L 343040 31532.55 L 305152 31532.55 L 305152 27743.75 Z M 349557.55 41648.35 Q 349102.45 41344.95 348686.2 40795.5 Q 348268.1 40246.05 347663.15 39223 Q 347359.75 38692.05 347359.75 38388.65 Q 347359.75 38162.95 347491.1 38011.25 Q 347624.3 37859.55 347794.5 37726.35 Q 347964.7 37593.15 348003.55 37556.15 Q 348419.8 37176.9 348590 36816.15 Q 348760.2 36457.25 348799.05 35661.75 Q 348836.05 34942.1 348836.05 33463.95 Q 348836.05 29334.75 348155.25 25621.8 Q 348116.4 25470.1 348116.4 25166.7 Q 348116.4 24674.6 348362.45 24484.05 Q 348610.35 24295.35 349102.45 24295.35 Q 350541.75 24295.35 351792.35 24635.75 Q 353042.95 24976.15 353799.6 25697.65 Q 354254.7 26113.9 354254.7 26720.7 Q 354254.7 26985.25 354217.7 27212.8 Q 354178.85 27440.35 354141.85 27592.05 Q 353838.45 30130.25 353838.45 32820.15 Q 353838.45 34638.7 353951.3 36797.65 L 357891.8 36457.25 L 359294.1 36342.55 Q 359294.1 34070.75 359331.1 32933 L 359369.95 29902.7 Q 359445.8 24447.05 359445.8 21984.7 Q 359445.8 19938.6 359369.95 18725 Q 359142.4 15504.15 358422.75 14407.1 Q 358043.5 13724.45 358043.5 13421.05 Q 358043.5 13080.65 358365.4 12928.95 Q 358687.3 12777.25 359406.95 12777.25 Q 361491.9 12777.25 363386.3 13572.75 Q 365280.7 14368.25 365508.25 15467.15 Q 365545.25 15580 365545.25 15770.55 Q 365545.25 15998.1 365393.55 16451.35 Q 365356.55 16603.05 365204.85 17115.5 Q 365053.15 17626.1 365053.15 18460.45 Q 365014.3 20734.1 364901.45 25980.7 Q 364788.6 31229.15 364636.9 36002.15 L 369598.6 35737.6 L 370092.55 35737.6 Q 370508.8 31682.4 370508.8 28008.3 Q 370508.8 26909.4 370471.8 26493.15 Q 370395.95 25355.4 370092.55 24104.8 Q 369977.85 23879.1 369977.85 23688.55 Q 369977.85 23044.75 371531.85 23044.75 Q 372743.6 23044.75 374033.05 23461 Q 375320.65 23879.1 376192 24371.2 Q 376798.8 24674.6 376798.8 25242.55 Q 376798.8 25355.4 376722.95 25810.5 Q 376684.1 25999.2 376532.4 26587.5 Q 376380.7 27173.95 376286.35 27856.6 Q 376192 28539.25 376192 29410.6 Q 376079.15 31721.25 375888.6 35415.7 Q 375699.9 39110.15 375624.05 39790.95 Q 375320.65 41230.25 374752.7 42007.25 Q 374184.75 42784.25 373426.25 42784.25 Q 372630.75 42784.25 371568.85 42216.3 Q 370508.8 41648.35 369826.15 41004.55 Q 369561.6 40625.3 369467.25 40379.25 Q 369372.9 40131.35 369448.75 39829.8 Q 368803.1 39790.95 367554.35 39790.95 Q 362968.2 39790.95 357664.25 40510.6 Q 353838.45 40965.7 352624.85 41174.75 Q 351413.1 41381.95 350845.15 41609.5 Q 350465.9 41837.05 350086.65 41837.05 Q 349746.25 41837.05 349557.55 41648.35  Z M 399076.5 45513 Q 398508.55 45853.4 397977.6 45853.4 Q 396878.7 45853.4 395970.35 44147.7 Q 395439.4 43011.8 394510.7 42216.3 Q 393582 41420.8 392142.7 40852.85 Q 391763.45 40701.15 391763.45 40434.75 Q 391763.45 40321.9 391878.15 40227.55 Q 391991 40133.2 392181.55 40133.2 L 393620.85 40133.2 Q 394264.65 40133.2 394756.75 40094.35 Q 395476.4 39981.5 395988.85 39733.6 Q 396499.45 39487.55 396727 38730.9 Q 396954.55 37820.7 397124.75 34107.75 Q 397294.95 30394.8 397294.95 26226.75 L 397294.95 25090.85 Q 397143.25 25394.25 396651.15 26171.25 Q 396159.05 26946.4 395818.65 27856.6 Q 394188.8 32176.35 392901.2 34544.35 Q 391611.75 36912.35 389415.8 38655.05 Q 387218 40397.75 383505.05 41381.95 Q 382746.55 41572.5 382330.3 41572.5 Q 381875.2 41572.5 381875.2 41344.95 Q 381875.2 41117.4 382482 40510.6 Q 384224.7 39563.4 386024.75 37195.4 Q 387822.95 34827.4 389264.1 31909.95 Q 390703.4 28992.5 391386.05 26378.45 Q 391460.05 26150.9 391158.5 26150.9 Q 390703.4 26150.9 390020.75 26530.15 L 389339.95 26872.4 Q 388694.3 27249.8 388220.7 27440.35 Q 387747.1 27629.05 387218 27629.05 Q 386687.05 27629.05 386270.8 27440.35 Q 385323.6 27022.25 384470.75 26171.25 Q 383617.9 25318.4 383390.35 24750.45 Q 383314.5 24522.9 383314.5 24408.2 Q 383314.5 23954.95 384376.4 23879.1 Q 385171.9 23840.25 387804.45 23196.45 Q 390437 22552.65 391839.3 22173.4 Q 392597.8 21945.85 393278.6 21566.6 Q 393354.45 21529.6 393639.35 21396.4 Q 393924.25 21263.2 394151.8 21263.2 Q 394605.05 21263.2 395666.95 22249.25 Q 396423.6 22893.05 396386.6 22856.05 Q 397067.4 23424 397257.95 23688.55 Q 397182.1 18725 396878.7 16301.5 Q 396765.85 15278.45 396556.8 14614.3 Q 396347.75 13952 396101.7 13402.55 Q 395855.65 12853.1 395779.8 12625.55 Q 395591.1 12170.45 395591.1 11942.9 Q 395591.1 11450.8 396083.2 11262.1 Q 396575.3 11071.55 397522.5 11071.55 Q 398318 11071.55 400081.05 11696.85 Q 401842.25 12322.15 402449.05 12814.25 Q 402826.45 13156.5 402826.45 13611.6 Q 402826.45 13837.3 402600.75 14671.65 Q 402297.35 15618.85 402258.5 16338.5 Q 402145.65 19444.65 402069.8 24750.45 L 402145.65 24787.45 Q 403888.35 22552.65 404987.25 20695.25 Q 406086.15 18839.7 406350.7 17740.8 Q 406539.4 16869.45 406672.6 16603.05 Q 406805.8 16338.5 407222.05 16338.5 Q 407525.45 16338.5 407904.7 16453.2 Q 410215.35 17058.15 412337.3 19483.5 Q 412564.85 19711.05 412564.85 20127.3 Q 412564.85 20771.1 411806.35 21490.75 Q 410404.05 22552.65 408433.8 23670.05 Q 406465.4 24787.45 403357.4 26265.6 Q 404835.55 27969.45 407392.25 30376.3 Q 409950.8 32781.3 411806.35 34031.9 Q 413815.45 35282.5 414969.85 35907.8 Q 416126.1 36533.1 417300.85 36912.35 Q 418360.9 37215.75 418360.9 37707.85 Q 418360.9 38087.1 417680.1 38427.5 Q 414686.8 39715.1 412148.6 39942.65 Q 410783.3 40018.5 410479.9 40018.5 Q 409571.55 40018.5 409003.6 39772.45 Q 408433.8 39526.4 407601.3 38692.05 Q 406502.4 37669 405175.95 35719.1 Q 403849.5 33767.35 401993.95 30661.2 Q 401993.95 35813.45 402106.8 38655.05 Q 402145.65 40586.45 401955.1 41703.85 Q 401766.4 42823.1 401122.6 43749.95 Q 400478.8 44678.65 399076.5 45513  Z M 426356.6 42974.8 Q 426129.05 43087.65 425825.65 43087.65 Q 425485.25 43087.65 425294.7 42935.95 Q 424763.75 42405 423666.7 40360.75 Q 423476.15 40018.5 423476.15 39715.1 Q 423476.15 39374.7 423685.2 39165.65 Q 423892.4 38958.45 423968.25 38882.6 Q 424271.65 38466.35 424386.35 38162.95 Q 424499.2 37859.55 424538.05 37176.9 Q 424650.9 35585.9 424650.9 34487 Q 424650.9 33084.7 424480.7 31797.1 Q 424310.5 30509.5 423779.55 27780.75 L 423779.55 27553.2 Q 423779.55 26833.55 424423.35 26833.55 Q 425522.25 26833.55 426830.2 27270.15 Q 428136.3 27704.9 428552.55 28272.85 Q 428855.95 28615.1 428855.95 29410.6 Q 428855.95 29751 428780.1 30888.75 L 428743.1 33236.4 Q 428743.1 34298.3 428667.25 38011.25 Q 431281.3 37595 437304.9 37006.7 Q 443330.35 36420.25 445413.45 36420.25 Q 446399.5 36420.25 447080.3 36873.5 Q 447459.55 33691.5 447420.7 29107.2 Q 447420.7 28842.65 447346.7 28008.3 Q 447195 26378.45 447195 26302.6 L 447195 26228.6 Q 447195 25621.8 448218.05 25621.8 Q 449466.8 25621.8 450434.35 26001.05 Q 451400.05 26378.45 452232.55 26909.4 Q 453103.9 27553.2 453103.9 28500.4 Q 453103.9 28727.95 453029.9 29183.05 Q 452535.95 32516.75 452384.25 36836.5 Q 452384.25 37176.9 452308.4 38503.35 Q 452232.55 39829.8 452080.85 40852.85 Q 451892.15 42292.15 450489.85 42974.8 Q 449089.4 43655.6 447535.4 43655.6 Q 446967.45 43655.6 446588.2 42974.8 Q 446208.95 42292.15 446208.95 41420.8 Q 446208.95 41041.55 446360.65 40510.6 Q 445716.85 40473.6 444390.4 40473.6 Q 440790.3 40473.6 436490.9 40928.7 Q 432189.65 41381.95 429122.35 41912.9 Q 427947.6 42064.6 427207.6 42480.85 Q 426469.45 42898.95 426356.6 42974.8  Z M 426280.75 16830.6 Q 426090.2 16377.35 426090.2 16149.8 Q 426090.2 15618.85 426848.7 15543 Q 429122.35 15391.3 435922.95 14310.9 Q 442723.55 13232.35 445224.75 12664.4 Q 445678 12588.55 445753.85 12588.55 Q 446360.65 12588.55 446701.05 13004.8 Q 447232 13535.75 447441.05 13857.65 Q 447648.25 14179.55 448066.35 15126.75 Q 448218.05 15430.15 448218.05 15883.4 Q 448218.05 16338.5 447990.5 16678.9 Q 447762.95 17021.15 447420.7 17021.15 Q 446701.05 17021.15 446321.8 16982.3 L 444769.65 16945.3 Q 442079.75 16945.3 437267.9 17664.95 Q 432456.05 18384.6 429614.45 19370.65 Q 429274.05 19483.5 428931.8 19483.5 Q 428628.4 19483.5 428326.85 19294.8 Q 427908.75 19143.1 427322.3 18460.45 Q 426734 17777.8 426280.75 16830.6  Z M 429235.2 21870 Q 429122.35 21642.45 429122.35 21377.9 Q 429122.35 20771.1 430069.55 20771.1 Q 431621.7 20771.1 432911.15 21302.05 L 433061 21416.75 Q 435562.2 21150.35 438044.9 20676.75 Q 440525.75 20203.15 441624.65 19672.2 Q 441965.05 19520.5 442268.45 19520.5 Q 442533 19520.5 442988.1 19672.2 Q 444617.95 20203.15 446096.1 21529.6 Q 446436.5 21833 446436.5 22173.4 Q 446436.5 22400.95 446321.8 22685.85 Q 446208.95 22968.9 446170.1 23159.45 Q 445868.55 24295.35 445565.15 31645.4 Q 445489.3 33123.55 444730.8 34240.95 Q 443974.15 35358.35 442684.7 35510.05 Q 442231.45 35585.9 441983.55 35397.2 Q 441737.5 35206.65 441491.45 34884.75 Q 441245.4 34562.85 441093.7 34374.15 Q 440753.3 33956.05 440562.75 33806.2 Q 437987.55 33806.2 434274.6 34259.45 Q 434235.75 35282.5 433251.55 35926.3 Q 433024 36002.15 432911.15 36002.15 Q 432456.05 36002.15 431906.6 35661.75 Q 431357.15 35321.35 431129.6 34979.1 Q 430789.2 34562.85 430713.35 34107.75 Q 430637.5 33654.5 430637.5 33293.75 Q 430637.5 32933 430637.5 32859 Q 430637.5 31872.95 430352.6 28955.5 Q 430067.7 26038.05 429651.45 23311.15 Q 429614.45 23120.6 429235.2 21870  Z M 433479.1 26454.3 Q 434578 26378.45 435902.6 26228.6 Q 435865.6 25205.55 435713.9 23499.85 L 433251.55 23879.1 L 433479.1 26454.3 Z M 433706.65 28766.8 Q 433782.5 29675.15 434010.05 31417.85 L 435941.45 31190.3 L 435941.45 28766.8 L 435297.65 28879.65 Q 434805.55 28994.35 434426.3 28994.35 Q 434010.05 28994.35 433706.65 28766.8  Z M 439238.15 28348.7 Q 439238.15 29410.6 439314 30849.9 Q 439767.25 30774.05 440033.65 30774.05 L 440261.2 30774.05 Q 440677.45 30774.05 441132.55 30964.6 Q 441284.25 29031.35 441321.25 28197 Q 439957.8 28272.85 439238.15 28348.7  Z M 439465.7 25621.8 Q 440222.35 25431.25 440562.75 25431.25 Q 440980.85 25431.25 441321.25 25621.8 L 441321.25 23651.55 Q 441321.25 22893.05 440677.45 22893.05 L 439426.85 22968.9 Q 439465.7 23083.6 439465.7 23311.15 Q 439465.7 23688.55 439426.85 23916.1 L 439314 25658.8 L 439465.7 25621.8 Z M 464242.75 42935.95 Q 463410.25 42708.4 462594.4 42027.6 Q 461780.4 41344.95 461325.3 40416.25 Q 460872.05 39487.55 460984.9 38540.35 Q 461173.6 35206.65 461173.6 30394.8 Q 461173.6 23916.1 460644.5 22288.1 Q 460529.8 22060.55 460529.8 21833 Q 460529.8 21605.45 460700 21472.25 Q 460872.05 21340.9 461136.6 21377.9 Q 462727.6 21566.6 463523.1 21908.85 Q 464546.15 20166.15 465019.75 18025.7 Q 465493.35 15883.4 465608.05 13876.15 Q 465645.05 13117.65 465796.75 12795.75 Q 465948.45 12473.85 466364.7 12473.85 Q 466631.1 12473.85 467008.5 12588.55 Q 468070.4 12891.95 469054.6 13515.4 Q 470040.65 14140.7 470569.75 14975.05 Q 470836.15 15354.3 470836.15 15883.4 Q 470836.15 16604.9 470342.2 17209.85 Q 470116.5 17437.4 469925.95 17683.45 Q 469737.25 17929.5 469546.7 18157.05 Q 468486.65 19446.5 467463.6 20506.55 Q 466440.55 21566.6 464925.4 22704.35 L 465077.1 22817.2 Q 466479.4 22628.5 468599.5 21984.7 Q 469130.45 21833 469491.2 21586.95 Q 469850.1 21340.9 470096.15 21113.35 Q 470342.2 20885.8 470418.05 20809.95 Q 470873.15 20506.55 471289.4 20506.55 Q 471592.8 20506.55 471820.35 20619.4 Q 472654.7 20961.65 473335.5 21396.4 Q 474018.15 21833 474928.35 22628.5 Q 475381.6 23159.45 475381.6 23612.7 Q 475381.6 23803.25 475268.75 24106.65 Q 475004.2 25090.85 474928.35 25621.8 Q 476480.5 22741.35 477597.9 18821.2 Q 478715.3 14899.2 478715.3 12853.1 Q 478715.3 12398 478678.3 12246.3 L 478678.3 12094.6 Q 478678.3 11754.2 478887.35 11602.5 Q 479094.55 11450.8 479473.8 11526.65 Q 480800.25 11793.05 481784.45 12151.95 Q 482770.5 12512.7 483603 13117.65 Q 484209.8 13611.6 484209.8 14331.25 Q 484209.8 14671.65 484058.1 15012.05 Q 483678.85 15883.4 483299.6 17058.15 L 482846.35 18232.9 Q 482012 20582.4 481140.65 22060.55 Q 482655.8 21794.15 484021.1 21472.25 Q 485384.55 21150.35 485915.5 20961.65 Q 486067.2 20922.8 486559.3 20715.6 Q 487051.4 20506.55 487467.65 20506.55 Q 487771.05 20506.55 487998.6 20619.4 Q 488945.8 21037.5 490044.7 21833 Q 491143.6 22628.5 491559.85 23272.3 Q 491900.25 23727.4 491900.25 24182.5 Q 491900.25 24635.75 491617.2 25279.55 Q 491332.3 25925.2 491256.45 26152.75 Q 491067.75 26720.7 490840.2 28217.35 Q 490612.65 29714 490460.95 31266.15 Q 490423.95 31645.4 490366.6 32157.85 Q 490309.25 32668.45 490233.4 33312.25 Q 489589.6 40209.05 489134.5 41800.05 Q 488263.15 44678.65 485157 45816.4 Q 484929.45 45892.25 484853.6 45892.25 Q 484322.65 45892.25 483490.15 44830.35 Q 482694.65 43731.45 481368.2 42556.7 Q 480533.85 41800.05 479890.05 41156.25 Q 479586.65 40928.7 479586.65 40738.15 Q 479586.65 40586.45 479738.35 40510.6 Q 479890.05 40434.75 480117.6 40434.75 Q 481823.3 40434.75 483110.9 40360.75 Q 484246.8 40284.9 484361.5 39563.4 Q 485460.4 32479.75 485763.8 26796.55 Q 485763.8 26226.75 485384.55 25810.5 Q 485005.3 25394.25 484021.1 25545.95 Q 481632.75 25925.2 480535.7 25962.2 Q 479436.8 26001.05 479209.25 26001.05 Q 478565.45 26001.05 478147.35 25697.65 Q 476746.9 26872.4 474700.8 28008.3 L 474700.8 29562.3 Q 474700.8 34222.45 474813.65 37707.85 Q 474852.5 39223 474530.6 39942.65 Q 474206.85 40662.3 473183.8 41457.8 Q 472199.6 42329.15 471516.95 42329.15 Q 470797.3 42329.15 470493.9 41496.65 Q 470229.35 41004.55 470116.5 40625.3 Q 469925.95 40057.35 469698.4 39715.1 Q 469470.85 39374.7 468978.75 38995.45 Q 467123.2 39186 465796.75 39602.25 Q 465796.75 43239.35 464242.75 42935.95  Z M 465608.05 35737.6 Q 467236.05 35434.2 470268.2 35130.8 Q 470342.2 33084.7 470342.2 31797.1 Q 470001.8 32024.65 469395 32024.65 Q 468599.5 32024.65 467539.45 32119 Q 466479.4 32213.35 465872.6 32328.05 L 465569.2 32403.9 L 465608.05 35737.6 Z M 467311.9 28955.5 Q 467539.45 28879.65 467900.2 28803.8 Q 468259.1 28727.95 468599.5 28727.95 Q 469054.6 28727.95 469245.15 28879.65 Q 469661.4 29107.2 469888.95 29371.75 Q 470116.5 29638.15 470342.2 30091.4 Q 470342.2 26681.85 470305.2 25962.2 Q 470305.2 25394.25 469698.4 25394.25 Q 469395 25394.25 468183.25 25658.8 Q 466440.55 25962.2 466288.85 25962.2 Q 465948.45 26001.05 465720.9 25962.2 L 465608.05 29371.75 L 467311.9 28955.5 Z M 476252.95 28955.5 Q 476025.4 28727.95 476025.4 28539.25 Q 476025.4 28047.15 477048.45 28121.15 Q 478413.75 28197 479531.15 28576.25 Q 480648.55 28955.5 481975 29599.3 Q 483035.05 30167.25 483547.5 30925.75 Q 484058.1 31684.25 484058.1 32516.75 Q 484058.1 33351.1 483529 34146.6 Q 482998.05 34942.1 482087.85 35473.05 Q 481936.15 35585.9 481671.6 35585.9 Q 481368.2 35585.9 481083.3 35434.2 Q 480800.25 35282.5 480724.4 35169.65 Q 480648.55 35054.95 479057.55 32783.15 Q 477314.85 30015.55 476252.95 28955.5  Z M 513269.6 20809.95 Q 513269.6 19635.2 513573 18499.3 Q 513876.4 17361.55 514444.35 16490.2 Q 515202.85 15354.3 516055.7 14899.2 Q 516906.7 14444.1 517704.05 14444.1 Q 518120.3 14444.1 518575.4 14634.65 Q 519028.65 14823.35 519028.65 15126.75 Q 519028.65 15241.45 518952.8 15241.45 Q 517778.05 15391.3 517076.9 16358.85 Q 516375.75 17324.55 516490.45 18271.75 Q 517398.8 18460.45 517911.25 19104.25 Q 518421.85 19749.9 518421.85 20848.8 Q 518421.85 22741.35 517134.25 23348.15 Q 516451.6 23651.55 515920.65 23651.55 Q 515467.4 23651.55 515012.3 23462.85 Q 513269.6 22856.05 513269.6 20809.95  Z M 506298.8 20809.95 Q 506298.8 19635.2 506602.2 18499.3 Q 506905.6 17361.55 507473.55 16490.2 Q 508230.2 15354.3 509083.05 14899.2 Q 509935.9 14444.1 510731.4 14444.1 Q 511147.65 14444.1 511602.75 14634.65 Q 512057.85 14823.35 512057.85 15126.75 Q 512057.85 15241.45 511982 15241.45 Q 510807.25 15391.3 510106.1 16358.85 Q 509404.95 17324.55 509519.65 18271.75 Q 510428 18460.45 510940.45 19104.25 Q 511451.05 19749.9 511451.05 20848.8 Q 511451.05 22741.35 510163.45 23348.15 Q 509480.8 23651.55 508949.85 23651.55 Q 508496.6 23651.55 508041.5 23462.85 Q 506298.8 22856.05 506298.8 20809.95  Z M 527516.45 30357.8 Q 527288.9 30546.5 526872.65 30546.5 Q 526341.7 30546.5 525812.6 30130.25 Q 525281.65 29714 524978.25 28994.35 Q 524939.4 28879.65 524826.55 28539.25 Q 524713.7 28198.85 524713.7 27856.6 Q 524713.7 27099.95 525470.35 26304.45 Q 526380.55 25129.7 526967 24086.3 Q 527555.3 23044.75 527895.7 21605.45 Q 528008.55 21150.35 528350.8 21150.35 Q 528652.35 21150.35 528804.05 21416.75 Q 529107.45 22325.1 529373.85 23612.7 Q 529638.4 24902.15 529638.4 25697.65 Q 529638.4 27364.5 528994.6 28596.6 Q 528350.8 29826.85 527516.45 30357.8  Z M 529751.25 12588.55 Q 529714.25 12512.7 529714.25 12322.15 Q 529714.25 12057.6 529960.3 11848.55 Q 530206.35 11641.35 530548.6 11641.35 Q 531987.9 11641.35 533257 12020.6 Q 534526.1 12398 535397.45 13080.65 Q 535662 13308.2 535662 13648.6 Q 535662 13839.15 535549.15 14236.9 Q 535434.45 14634.65 535397.45 14975.05 Q 535057.05 15998.1 535018.2 17058.15 Q 534942.35 19028.4 534942.35 20621.25 Q 536305.8 20545.4 537556.4 21226.2 Q 538882.85 22021.7 538882.85 23424 Q 538882.85 24067.8 538579.45 24598.75 L 538845.85 24598.75 Q 541193.5 24561.75 545550.25 24030.8 L 545550.25 22515.65 L 542899.2 22817.2 Q 542519.95 22893.05 542198.05 22722.85 Q 541876.15 22552.65 541459.9 22097.55 L 540890.1 21302.05 Q 540853.1 21226.2 540853.1 21074.5 Q 540853.1 20621.25 541535.75 20506.55 L 545513.25 19862.75 L 545513.25 18460.45 Q 542975.05 18800.85 541648.6 19104.25 Q 541535.75 19143.1 541345.2 19143.1 Q 540740.25 19143.1 540133.45 18554.8 Q 539526.65 17968.35 539110.4 17209.85 Q 538997.55 17021.15 538997.55 16869.45 Q 538997.55 16641.9 539147.4 16490.2 Q 539299.1 16338.5 539602.5 16301.5 Q 542064.85 16035.1 545437.4 15391.3 L 545437.4 14519.95 Q 545248.7 12473.85 544982.3 11602.5 L 544945.3 11450.8 Q 544945.3 11149.25 545134 10901.35 Q 545324.55 10655.3 545777.8 10655.3 Q 546725 10579.45 547994.1 10882.85 Q 549263.2 11186.25 549833 11641.35 Q 550210.4 11905.9 550286.25 12190.8 Q 550362.1 12473.85 550362.1 13156.5 Q 550362.1 13839.15 550249.25 14519.95 L 551385.15 14331.25 Q 552711.6 14066.7 553052 14066.7 Q 553658.8 14066.7 554171.25 14331.25 Q 554681.85 14595.8 554872.4 14823.35 Q 555553.2 15467.15 555893.6 16377.35 Q 556008.3 16832.45 555780.75 17154.35 Q 555553.2 17476.25 555022.25 17476.25 Q 553810.5 17476.25 550060.55 17892.5 Q 550021.7 18308.75 550021.7 19104.25 L 551764.4 18839.7 Q 552143.65 18763.85 552295.35 18763.85 Q 552711.6 18763.85 553318.4 18991.4 Q 553849.35 19294.8 554265.6 19899.75 Q 554681.85 20506.55 554681.85 20846.95 Q 554757.7 21340.9 554398.8 21511.1 Q 554038.05 21681.3 553318.4 21681.3 Q 553090.85 21681.3 550817.2 21908.85 Q 550513.8 21908.85 549908.85 21984.7 Q 549833 23044.75 549833 23538.7 Q 553127.85 23120.6 553886.35 22968.9 Q 554226.75 22893.05 554927.9 22741.35 Q 555629.05 22591.5 556121.15 22591.5 Q 557144.2 22591.5 557788 23159.45 Q 558357.8 23727.4 558661.2 24219.5 Q 558962.75 24711.6 558962.75 25242.55 Q 558962.75 25697.65 558679.7 25943.7 Q 558394.8 26189.75 558054.4 26189.75 Q 557638.15 26152.75 556539.25 26152.75 Q 553470.1 26152.75 548658.25 26550.5 Q 543846.4 26948.25 541269.35 27403.35 Q 541117.65 27440.35 540814.25 27440.35 Q 540018.75 27440.35 539489.65 27024.1 Q 538958.7 26606 538351.9 25734.65 Q 537935.65 25318.4 537935.65 25318.4 Q 537708.1 25470.1 537404.7 25545.95 L 537179 25582.95 Q 536496.35 25582.95 536305.8 24863.3 Q 535965.4 24030.8 534942.35 22515.65 Q 534942.35 24143.65 535018.2 27856.6 Q 535094.05 33615.65 535094.05 36078 Q 535094.05 39071.3 534981.2 40777 Q 534905.35 42974.8 534563.1 44110.7 Q 534222.7 45246.6 533503.05 45246.6 Q 533199.65 45246.6 532783.4 45020.9 Q 531760.35 44414.1 531022.2 43391.05 Q 530282.2 42368 530245.2 40965.7 Q 530245.2 40510.6 530433.9 39678.1 Q 530622.6 38540.35 530622.6 38275.8 Q 530774.3 35397.2 530774.3 30812.9 Q 530774.3 23954.95 530472.75 16301.5 Q 530433.9 14936.2 530321.05 14368.25 Q 530206.35 13800.3 530017.65 13289.7 Q 529827.1 12777.25 529751.25 12588.55  Z M 540436.85 43352.2 Q 540588.55 42595.55 540719.9 39848.3 Q 540853.1 37101.05 540853.1 34450 Q 540853.1 29714 540436.85 28842.65 Q 540170.45 28500.4 540170.45 28235.85 Q 540170.45 28047.15 540322.15 27932.45 Q 540473.85 27819.6 540740.25 27856.6 Q 542482.95 27971.3 543581.85 28387.55 Q 545097 28274.7 546821.2 28026.8 Q 548543.55 27780.75 549529.6 27592.05 Q 550249.25 27477.35 550589.65 27346 Q 550931.9 27212.8 551461 26948.25 Q 551764.4 26720.7 552106.65 26720.7 Q 552484.05 26720.7 552826.3 26909.4 Q 553127.85 27061.1 553773.5 27383 Q 554417.3 27704.9 554833.55 28008.3 Q 555249.8 28311.7 555553.2 28690.95 Q 555704.9 28879.65 555704.9 29107.2 Q 555704.9 29295.9 555553.2 29543.8 Q 555401.5 29789.85 555364.5 29865.7 Q 555061.1 30318.95 554985.25 30546.5 Q 554833.55 31721.25 554833.55 33578.65 Q 554833.55 35473.05 554985.25 38579.2 Q 555098.1 40321.9 555098.1 41496.65 Q 555098.1 42632.55 554872.4 43448.4 Q 554644.85 44262.4 553962.2 44982.05 Q 553052 45777.55 552408.2 46156.8 Q 551764.4 46536.05 550931.9 46536.05 Q 550513.8 46536.05 550249.25 46327 Q 549984.7 46117.95 549681.3 45701.7 Q 549490.75 45513 549189.2 45057.9 Q 548658.25 44338.25 548108.8 43846.15 Q 547559.35 43352.2 546384.6 42935.95 Q 546120.05 42823.1 546120.05 42671.4 Q 546120.05 42480.85 546839.7 42405 Q 547635.2 42405 548391.85 42329.15 Q 549150.35 42255.15 549490.75 42216.3 Q 549984.7 42179.3 550079.05 41800.05 Q 550173.4 41420.8 550173.4 40209.05 L 550173.4 37935.4 Q 549833 38199.95 549113.35 38199.95 Q 548506.55 38238.8 547465 38314.65 Q 546421.6 38390.5 545777.8 38466.35 L 545400.4 38503.35 L 545400.4 43391.05 Q 545400.4 44830.35 544945.3 45474.15 Q 544490.2 46117.95 543430.15 46156.8 Q 542860.35 46156.8 542085.2 45701.7 Q 541308.2 45246.6 540795.75 44584.3 Q 540285.15 43922 540436.85 43352.2  Z M 545437.4 36192.7 Q 545929.5 36116.85 546991.4 35889.3 Q 547180.1 35850.45 547918.25 35756.1 Q 548658.25 35661.75 548885.8 35737.6 Q 549642.45 35965.15 550173.4 36760.65 L 550136.4 34070.75 Q 549833 34374.15 549037.5 34374.15 Q 548391.85 34374.15 547180.1 34468.5 Q 545968.35 34562.85 545664.95 34638.7 L 545437.4 34638.7 L 545437.4 36192.7 Z M 546915.55 32061.65 Q 547975.6 31872.95 548582.4 31872.95 Q 548885.8 31872.95 548961.65 31909.95 Q 549681.3 32176.35 550136.4 33008.85 L 550060.55 30167.25 Q 548658.25 30318.95 545664.95 30737.05 Q 545589.1 31038.6 545589.1 31114.45 Q 545589.1 31153.3 545513.25 32289.2 L 546915.55 32061.65 Z M 564721.8 44451.1 Q 564305.55 44451.1 564305.55 44186.55 Q 564305.55 43959 564647.8 43655.6 Q 564988.2 43352.2 565310.1 43048.8 Q 565632 42747.25 565972.4 42480.85 Q 568057.35 40586.45 568928.7 39715.1 Q 569800.05 38843.75 570480.85 37859.55 Q 570784.25 37443.3 570974.8 36684.8 Q 571050.65 36344.4 571163.5 36192.7 Q 571278.2 36041 571579.75 36041 Q 572225.4 36041 573039.4 36571.95 Q 573853.4 37101.05 574460.2 37820.7 Q 575067 38540.35 575067 38995.45 Q 575104 39147.15 575104 39374.7 Q 575104 39753.95 574915.3 39942.65 Q 574724.75 40131.35 574308.5 40358.9 Q 573777.55 40662.3 573664.7 40777 Q 571922 42177.45 569572.5 43182 Q 567223 44186.55 564912.35 44451.1 L 564721.8 44451.1 Z M 563321.35 26038.05 Q 562905.1 25394.25 562905.1 25127.85 Q 562905.1 24863.3 563169.65 24768.95 Q 563434.2 24672.75 564041 24635.75 Q 565859.55 24598.75 569781.55 24295.35 Q 573701.7 23991.95 578058.45 23536.85 Q 577832.75 23272.3 577320.3 22704.35 Q 576809.7 22136.4 576430.45 21642.45 L 576391.6 21642.45 Q 576164.05 22325.1 575671.95 22552.65 Q 575216.85 22704.35 574952.3 22704.35 Q 574384.35 22704.35 573759.05 22419.45 Q 573133.75 22136.4 572754.5 21794.15 Q 572110.7 21150.35 572034.85 20279 Q 571922 18232.9 571788.8 16945.3 Q 571655.6 15657.7 571278.2 14519.95 Q 571202.35 14407.1 570993.3 13952 Q 570784.25 13496.9 570480.85 13269.35 Q 570103.45 12891.95 570103.45 12512.7 Q 570103.45 12018.75 570860.1 11868.9 Q 571694.45 11717.2 572225.4 11717.2 Q 573664.7 11717.2 574687.75 12094.6 Q 578400.7 11641.35 581810.25 10845.85 Q 583212.55 10655.3 584159.75 10239.05 Q 584576 10087.35 584955.25 10087.35 Q 585371.5 10087.35 586054.15 10390.75 Q 586583.25 10694.15 587417.6 11299.1 Q 588251.95 11905.9 588819.9 12398 Q 589123.3 12664.4 589123.3 13117.65 Q 589123.3 13611.6 588819.9 13913.15 Q 588327.8 14558.8 587739.5 16357 Q 587153.05 18157.05 587038.35 19711.05 Q 586962.5 20467.7 586224.35 21131.85 Q 585486.2 21794.15 584424.3 22021.7 Q 584083.9 22136.4 583817.5 22136.4 Q 583477.1 22136.4 583249.55 21927.35 Q 583022 21718.3 582833.3 21189.2 L 582757.45 20998.65 L 580028.7 21226.2 L 580407.95 21377.9 Q 581051.75 21642.45 581412.5 22116.05 Q 581771.4 22589.65 581847.25 23120.6 Q 588516.5 22362.1 591358.1 21718.3 Q 591813.2 21529.6 592420 21529.6 Q 593100.8 21529.6 593783.45 21833 Q 594503.1 22210.4 595241.25 22950.4 Q 595981.25 23688.55 596434.5 24598.75 Q 596549.2 24748.6 596549.2 25015 Q 596549.2 25394.25 596132.95 25621.8 Q 595716.7 25847.5 594767.65 25810.5 Q 594162.7 25771.65 592684.55 25771.65 Q 588707.05 25771.65 582796.3 26245.25 Q 576885.55 26718.85 572451.1 27325.65 Q 573398.3 27325.65 574327 27553.2 Q 575255.7 27780.75 575710.8 28121.15 L 575862.5 28272.85 Q 581355.15 27780.75 583249.55 27401.5 Q 583856.35 27249.8 584235.6 27061.1 Q 584613 26870.55 584992.25 26530.15 Q 585219.8 26417.3 585410.35 26417.3 Q 585560.2 26417.3 586015.3 26493.15 Q 588895.75 27932.45 589539.55 28463.4 Q 589879.95 28803.8 589879.95 29068.35 Q 589879.95 29183.05 589728.25 29486.45 Q 589576.55 29599.3 589312 30091.4 Q 589047.45 30585.35 588895.75 30735.2 Q 588629.35 31305 588477.65 31872.95 Q 588327.8 32440.9 588251.95 32668.45 Q 588137.25 33275.25 587909.7 33994.9 Q 587721 35206.65 585486.2 35661.75 Q 585143.95 35774.6 584879.4 35774.6 Q 584539 35774.6 584329.95 35585.9 Q 584120.9 35397.2 583969.2 34942.1 Q 583097.85 35017.95 581355.15 35093.8 Q 582946.15 35624.75 583249.55 35926.3 Q 583440.1 36078 583440.1 36381.4 Q 583440.1 36645.95 583249.55 37215.75 Q 583136.7 37632 583003.5 38199.95 Q 582870.3 38767.9 582870.3 39374.7 L 582909.15 40397.75 Q 583022 41572.5 582985 42860.1 Q 582946.15 44186.55 582492.9 44943.2 Q 582037.8 45701.7 581318.15 46136.45 Q 580598.5 46573.05 579157.35 47179.85 Q 578704.1 47331.55 578324.85 47331.55 Q 577832.75 47331.55 577472 47007.8 Q 577111.25 46685.9 576695 45966.25 Q 575407.4 43618.6 574308.5 42821.25 Q 574119.8 42671.4 574119.8 42519.7 Q 574119.8 42253.3 574421.35 42253.3 L 577111.25 42216.3 Q 577605.2 42216.3 577869.75 42046.1 Q 578134.3 41875.9 578173.15 41306.1 Q 578249 37859.55 577718.05 35889.3 Q 577642.2 35510.05 577642.2 35434.2 L 576391.6 35585.9 Q 576164.05 36344.4 575634.95 36533.1 Q 575331.55 36608.95 575141 36608.95 Q 574536.05 36608.95 573853.4 36287.05 Q 573172.6 35965.15 572793.35 35585.9 Q 572186.55 34903.25 572073.7 34107.75 Q 572073.7 31569.55 571428.05 29599.3 Q 571352.2 29410.6 571182 29068.35 Q 571011.8 28727.95 570860.1 28387.55 Q 570443.85 28084.15 570443.85 27856.6 Q 570443.85 27704.9 570671.4 27592.05 Q 570140.45 27667.9 569781.55 27741.9 Q 569420.8 27817.75 569156.25 27856.6 Q 568018.5 28045.3 567298.85 28045.3 Q 566466.35 28045.3 565859.55 27856.6 Q 565064.05 27553.2 564362.9 27022.25 Q 563661.75 26493.15 563321.35 26038.05  Z M 575407.4 14292.4 L 575634.95 15467.15 Q 577111.25 15202.6 578968.65 14975.05 L 579952.85 14860.35 Q 580067.55 14823.35 580332.1 14823.35 Q 580863.05 14823.35 581373.65 15145.25 Q 581886.1 15467.15 582644.6 16186.8 Q 582985 16453.2 582985 16793.6 Q 582985 17400.4 581658.55 17552.1 L 577262.95 18005.35 Q 576619.15 18081.2 576088.2 18005.35 L 576315.75 19218.95 Q 580180.4 18725 582909.15 18499.3 Q 583136.7 17552.1 583249.55 17209.85 Q 583325.4 16830.6 583610.3 15694.7 Q 583893.35 14558.8 583893.35 14027.85 Q 583893.35 13572.75 583477.1 13611.6 L 580256.25 14027.85 Q 577529.35 14331.25 576733.85 14482.95 Q 576543.3 14519.95 576278.75 14519.95 Q 575747.8 14519.95 575407.4 14216.55 L 575407.4 14292.4 Z M 576051.2 30698.2 Q 576315.75 31758.25 576467.45 32933 Q 577908.6 32820.15 579536.6 32686.95 Q 581166.45 32555.6 582870.3 32403.9 Q 583325.4 32328.05 584387.3 32252.2 Q 584613 31417.85 584613 30546.5 L 584651.85 30054.4 Q 584651.85 29712.15 584235.6 29751 Q 577756.9 30585.35 576051.2 30698.2  Z M 584916.4 37517.3 Q 584539 37139.9 584539 36949.35 Q 584539 36571.95 585674.9 36608.95 Q 588288.95 36760.65 589898.45 37443.3 Q 591509.8 38124.1 592645.7 39335.85 Q 593441.2 40170.2 593441.2 41230.25 Q 593441.2 42064.6 592912.1 42878.6 Q 592381.15 43692.6 591470.95 44223.55 Q 590941.85 44526.95 590523.75 44526.95 Q 589539.55 44526.95 588781.05 43087.65 Q 587985.55 41230.25 587077.2 39905.65 Q 586167 38579.2 584916.4 37517.3  Z M 604239.65 46119.8 Q 603407.15 46119.8 602894.7 46062.45 Q 602384.1 46005.1 602269.4 45892.25 Q 602156.55 45777.55 602459.95 45701.7 Q 607081.25 44149.55 610302.1 41591 Q 613522.95 39034.3 615569.05 36002.15 L 612536.9 32137.5 Q 611856.1 31266.15 611589.7 31001.6 Q 608256 33615.65 605414.4 33502.8 Q 605262.7 33502.8 605168.35 33388.1 Q 605074 33275.25 605074 33123.55 Q 605074 32933 605225.7 32820.15 Q 606324.6 32100.5 607991.45 30263.45 Q 609658.3 28424.55 610984.75 26417.3 Q 612309.35 24408.2 612575.75 23196.45 Q 610074.55 23575.7 608938.65 23840.25 Q 608331.85 23954.95 607839.75 23954.95 Q 607308.8 23954.95 606853.7 23764.4 Q 606398.6 23575.7 605906.5 23083.6 Q 605301.55 22513.8 604883.45 21890.35 Q 604467.2 21265.05 604467.2 20846.95 Q 604467.2 20317.85 605074 20279 Q 611665.55 19598.2 617481.95 18725 Q 623298.35 17853.65 626328.65 16906.45 Q 626859.6 16756.6 627351.7 16756.6 Q 627919.65 16756.6 628335.9 16982.3 Q 628905.7 17324.55 629605 18214.4 Q 630306.15 19104.25 630572.55 19786.9 Q 630648.4 20014.45 630648.4 20127.3 Q 630648.4 20695.25 630060.1 21056 Q 629473.65 21416.75 628450.6 21416.75 Q 627048.3 21416.75 623544.4 21775.65 Q 620038.65 22136.4 616364.55 22628.5 Q 616856.65 22968.9 617235.9 23348.15 Q 617840.85 23954.95 617840.85 24447.05 Q 617840.85 24826.3 617576.3 25185.2 Q 617311.75 25545.95 616932.5 25904.85 Q 616553.25 26265.6 616401.55 26417.3 L 613939.2 28918.5 Q 614355.45 29070.2 614658.85 29353.25 Q 614962.25 29638.15 615265.65 29978.55 Q 615569.05 30318.95 615720.75 30470.65 Q 616629.1 31493.7 617539.3 32403.9 L 617691 32061.65 Q 618183.1 30849.9 618505 29353.25 Q 618826.9 27856.6 618751.05 27099.95 Q 618712.2 26909.4 618712.2 26606 Q 618712.2 25925.2 619282 25925.2 Q 619546.55 25925.2 619925.8 26038.05 Q 621289.25 26606 622351.15 27194.3 Q 623411.2 27780.75 623751.6 28160 Q 624547.1 28994.35 624547.1 29675.15 Q 624547.1 30091.4 624282.55 30509.5 Q 623942.15 31038.6 623638.75 31721.25 Q 623562.9 31872.95 623468.55 32043.15 Q 623374.2 32213.35 623259.5 32440.9 Q 623031.95 32859 622464 33861.7 Q 621896.05 34866.25 621328.1 35737.6 Q 621252.25 35813.45 621252.25 35889.3 Q 624169.7 38351.65 626707.9 39790.95 L 628335.9 40662.3 Q 629586.5 41344.95 630818.6 41970.25 Q 632048.85 42595.55 632846.2 42860.1 L 633982.1 43278.2 Q 634361.35 43428.05 634568.55 43618.6 Q 634777.6 43807.3 634777.6 43997.85 Q 634777.6 44451.1 633982.1 44678.65 Q 628791 46080.95 627540.4 46269.65 Q 627124.15 46345.5 626480.35 46345.5 Q 625721.85 46345.5 625116.9 46099.45 Q 624510.1 45853.4 623827.45 45246.6 Q 622160.6 43807.3 618562.35 39639.25 Q 615644.9 43163.5 612348.2 44584.3 Q 609051.5 46005.1 604239.65 46119.8  Z M 613939.2 12322.15 Q 613787.5 12170.45 613674.65 11963.25 Q 613559.95 11754.2 613559.95 11565.5 Q 613559.95 11073.4 614355.45 10958.7 Q 614999.25 10845.85 615644.9 10845.85 Q 617539.3 10845.85 618788.05 11678.35 Q 620758.3 12967.8 620758.3 14595.8 Q 620758.3 15506 620171.85 16301.5 Q 619585.4 17097 618599.35 17664.95 Q 618334.8 17777.8 618031.4 17777.8 Q 617728 17777.8 617463.45 17646.45 Q 617197.05 17513.25 617121.2 17361.55 Q 616817.8 16906.45 616610.6 16508.7 Q 616401.55 16110.95 616212.85 15846.4 Q 614886.4 13269.35 613939.2 12322.15  Z M 620682.45 22589.65 Q 621365.1 22476.8 622199.45 22476.8 Q 624434.25 22476.8 626896.6 23424 Q 628223.05 23954.95 629037.05 24978 Q 629852.9 26001.05 629852.9 27099.95 Q 629852.9 28727.95 628110.2 29714 Q 627767.95 29941.55 627427.55 29941.55 Q 626783.75 29941.55 626064.1 29107.2 L 625116.9 28047.15 Q 623714.6 26417.3 622956.1 25697.65 Q 622199.45 24978 620834.15 24067.8 Q 620114.5 23536.85 620114.5 23083.6 Q 620114.5 22741.35 620682.45 22589.65  Z M 658949.7 43922 Q 658193.05 43239.35 657680.6 42027.6 Q 657170 40814 657094.15 40662.3 Q 657018.3 40360.75 657018.3 40284.9 Q 657018.3 39790.95 658002.5 39678.1 Q 659328.95 39563.4 662361.1 39071.3 Q 662398.1 37291.6 662398.1 33275.25 Q 661943 33312.25 661299.2 33463.95 L 661299.2 33728.5 Q 661299.2 34675.7 660919.95 35415.7 Q 660542.55 36153.85 659972.75 36192.7 Q 659632.35 36192.7 658818.35 35567.4 Q 658002.5 34942.1 657737.95 34525.85 Q 657549.25 34222.45 657549.25 33767.35 Q 657549.25 33351.1 657662.1 32896 Q 657700.95 32744.3 657737.95 32516.75 Q 657776.8 32289.2 657776.8 31985.8 Q 657625.1 24334.2 657245.85 22173.4 Q 657170 21794.15 656714.9 20051.45 Q 656676.05 19975.6 656676.05 19786.9 Q 656676.05 19255.95 657434.55 19294.8 Q 657889.65 19294.8 658970.05 19692.55 Q 660048.6 20090.3 660503.7 20430.7 Q 660882.95 20621.25 660995.8 21340.9 L 662285.25 21113.35 L 662170.55 17021.15 Q 662170.55 14216.55 661639.6 12549.7 Q 661563.75 12170.45 661563.75 12057.6 Q 661563.75 11526.65 662018.85 11526.65 Q 663458.15 11526.65 664462.7 11868.9 Q 665467.25 12209.3 665998.2 12816.1 Q 666414.45 13156.5 666414.45 14103.7 Q 666414.45 14595.8 666375.6 14862.2 L 666299.75 15770.55 L 666186.9 17361.55 L 666072.2 20242 L 666754.85 20014.45 Q 667665.05 19674.05 668081.3 19180.1 Q 668233 19028.4 668497.55 19028.4 Q 668876.8 19028.4 669256.05 19255.95 Q 669635.3 19407.65 670467.8 20051.45 Q 671302.15 20695.25 671529.7 21074.5 Q 671833.1 21492.6 671833.1 22060.55 Q 671833.1 22476.8 671681.4 22893.05 Q 671302.15 23727.4 671074.6 25658.8 Q 670847.05 27592.05 670619.5 30281.95 L 670506.65 31797.1 Q 670430.8 32631.45 670051.55 33275.25 Q 669672.3 33919.05 669141.35 34222.45 Q 668763.95 34411.15 668573.4 34411.15 Q 668233 34411.15 667816.75 33880.2 Q 667589.2 33654.5 667304.3 33312.25 Q 667021.25 32971.85 666679 32631.45 Q 666223.9 32707.3 666035.2 32707.3 L 666035.2 38351.65 L 667437.5 38087.1 L 666869.55 35965.15 L 666830.7 35737.6 Q 666830.7 35169.65 667550.35 35321.35 Q 668308.85 35510.05 669596.45 36496.1 Q 670885.9 37480.3 671681.4 38655.05 Q 672325.2 39602.25 672325.2 40549.45 Q 672325.2 41080.4 672097.65 41648.35 Q 671833.1 42595.55 671131.95 43276.35 Q 670430.8 43959 669559.45 43959 Q 668725.1 43959 668421.7 42823.1 Q 668270 41609.5 667892.6 39905.65 Q 666375.6 40965.7 664860.45 41837.05 Q 663345.3 42708.4 661071.65 43883.15 Q 660124.45 44299.4 659708.2 44299.4 Q 659328.95 44299.4 658949.7 43922  Z M 639097.35 26796.55 Q 639097.35 26341.45 639474.75 26304.45 Q 639665.3 26265.6 640157.4 26265.6 Q 641104.6 26265.6 642051.8 26474.65 Q 642999 26681.85 643302.4 27061.1 Q 646144 26833.55 651599.65 25886.35 Q 652432.15 25697.65 652829.9 25545.95 Q 653227.65 25394.25 653569.9 25129.7 Q 653834.45 24863.3 654213.7 24863.3 Q 654517.1 24863.3 654781.65 25015 Q 655503.15 25394.25 656259.8 26019.55 Q 657018.3 26644.85 657245.85 27099.95 Q 657321.7 27288.65 657321.7 27553.2 Q 657321.7 27856.6 657131.15 28311.7 Q 656903.6 28994.35 656864.75 29638.15 Q 656639.05 36229.7 656639.05 39337.7 Q 656639.05 40018.5 656657.55 40321.9 Q 656676.05 40625.3 656676.05 40701.15 Q 656676.05 41383.8 656411.5 42255.15 Q 656145.1 43126.5 655653 43846.15 Q 655160.9 44565.8 654629.95 44945.05 Q 654099 45322.45 653303.5 45474.15 L 653151.8 45474.15 Q 652887.25 45474.15 652717.05 45303.95 Q 652546.85 45133.75 652319.3 44830.35 Q 652167.6 44602.8 651882.7 44053.35 Q 651599.65 43503.9 651163.05 42974.8 Q 650728.3 42443.85 650084.5 41951.75 Q 649742.25 41761.2 649742.25 41609.5 Q 649742.25 41457.8 650121.5 41457.8 L 651978.9 41307.95 Q 652356.3 41269.1 652565.35 41098.9 Q 652774.4 40928.7 652774.4 40701.15 Q 653000.1 36571.95 653000.1 32783.15 L 653000.1 28766.8 Q 652204.6 28803.8 650386.05 28955.5 Q 651484.95 29295.9 652054.75 29902.7 Q 652206.45 30091.4 652206.45 30394.8 Q 652206.45 30737.05 651940.05 31134.8 Q 651675.5 31532.55 651220.4 32024.65 Q 650500.75 32857.15 649401.85 33691.5 Q 649629.4 33654.5 650576.6 33388.1 Q 650880 33312.25 651107.55 33312.25 Q 651560.8 33312.25 651751.35 33578.65 Q 652282.3 34335.3 652565.35 34866.25 Q 652850.25 35397.2 652850.25 35889.3 Q 652850.25 36305.55 652565.35 36399.9 Q 652282.3 36496.1 651560.8 36496.1 Q 650084.5 36496.1 649287.15 36533.1 L 649287.15 36721.8 Q 649250.15 37328.6 649250.15 38351.65 L 649250.15 40018.5 Q 649250.15 41457.8 649041.1 42083.1 Q 648833.9 42708.4 648265.95 42708.4 Q 648038.4 42708.4 647696.15 42595.55 Q 647015.35 42292.15 646597.25 41837.05 Q 646181 41381.95 646219.85 40586.45 Q 646295.7 39715.1 646295.7 38540.35 Q 646295.7 37556.15 646256.85 36873.5 Q 645576.05 36949.35 644969.25 37101.05 Q 644362.45 37252.75 644173.75 37252.75 Q 643642.8 37252.75 643339.4 36721.8 L 643263.55 36608.95 Q 643454.1 39715.1 643454.1 41232.1 Q 643454.1 42974.8 643093.35 43788.8 Q 642734.45 44602.8 641824.25 44982.05 Q 641256.3 45209.6 640536.65 44375.25 Q 639817 43542.75 639400.75 42292.15 Q 639286.05 41912.9 639286.05 41533.65 Q 639286.05 41232.1 639361.9 40701.15 Q 639741.15 38616.2 639741.15 35434.2 Q 639741.15 33351.1 639589.45 30470.65 Q 639513.6 27932.45 639097.35 26985.25 L 639097.35 26796.55 Z M 640421.95 14407.1 Q 642810.3 14179.55 646390.05 13535.75 Q 649969.8 12891.95 652319.3 12170.45 Q 652963.1 11981.75 653266.5 11981.75 Q 653682.75 11981.75 654176.7 12322.15 Q 655540.15 13384.05 655880.55 14558.8 Q 655956.4 14860.35 655956.4 14936.2 Q 655956.4 15694.7 654592.95 15733.55 Q 652091.75 15807.55 649022.6 16207.15 Q 645955.3 16604.9 643605.8 17172.85 Q 642810.3 17400.4 642392.2 17400.4 Q 642051.8 17400.4 641766.9 17248.7 Q 641483.85 17097 641104.6 16717.75 Q 640612.5 16225.65 640290.6 15713.2 Q 639968.7 15202.6 639968.7 14862.2 Q 639968.7 14444.1 640421.95 14407.1  Z M 641785.4 18384.6 Q 641785.4 18195.9 641957.45 18025.7 Q 642127.65 17855.5 642316.35 17892.5 Q 643302.4 17855.5 644590 18347.6 Q 646029.3 18157.05 647544.45 17835.15 Q 649061.45 17513.25 649590.55 17248.7 Q 650312.05 16832.45 650728.3 16680.75 Q 650880 16604.9 651220.4 16604.9 Q 651636.65 16604.9 651903.05 16717.75 Q 652091.75 16793.6 652698.55 17078.5 Q 653305.35 17361.55 653797.45 17664.95 Q 654289.55 17968.35 654592.95 18308.75 Q 654744.65 18499.3 654744.65 18802.7 Q 654744.65 19143.1 654517.1 19749.9 Q 654062 20697.1 653891.8 21359.4 Q 653721.6 22021.7 653494.05 23462.85 Q 653114.8 24635.75 652926.1 24902.15 Q 652698.55 25166.7 652376.65 25318.4 Q 652054.75 25470.1 651712.5 25470.1 Q 651372.1 25470.1 651220.4 25394.25 Q 650841.15 25281.4 650273.2 24863.3 Q 650121.5 24787.45 649969.8 24693.1 Q 649818.1 24598.75 649590.55 24485.9 Q 646824.8 24826.3 646144 24939.15 Q 646105.15 25507.1 645309.65 25830.85 Q 644514.15 26152.75 644022.05 26152.75 Q 643491.1 26152.75 643169.2 25621.8 Q 642847.3 25090.85 642695.6 23803.25 Q 642543.9 21945.85 642392.2 20658.25 Q 642240.5 19370.65 641824.25 18536.3 L 641785.4 18384.6 Z M 643226.55 34638.7 Q 645877.6 34374.15 647128.2 34146.6 Q 648870.9 31493.7 648870.9 30130.25 Q 648870.9 29486.45 648530.5 29107.2 Q 645576.05 29334.75 644286.6 29599.3 Q 644173.75 29638.15 643909.2 29638.15 Q 643529.95 29638.15 643263.55 29486.45 L 643226.55 30433.65 L 643189.55 32783.15 L 643226.55 34638.7 Z M 643718.65 30433.65 Q 643491.1 30206.1 643491.1 30054.4 Q 643491.1 29865.7 643833.35 29826.85 Q 644438.3 29751 645233.8 29960.05 Q 646031.15 30167.25 646523.25 30509.5 Q 647583.3 31190.3 647583.3 32100.5 Q 647583.3 32592.6 647242.9 33084.7 Q 646902.5 33578.65 646295.7 33956.05 Q 646256.85 33994.9 646105.15 33994.9 Q 645992.3 33994.9 645840.6 33880.2 Q 645688.9 33767.35 645651.9 33654.5 Q 644514.15 31456.7 643718.65 30433.65  Z M 645992.3 22552.65 L 646976.5 22400.95 L 649932.8 21945.85 Q 650045.65 21150.35 650045.65 20203.15 Q 650045.65 19938.6 649666.4 19938.6 Q 649174.3 19938.6 648567.5 20051.45 Q 647962.55 20166.15 647772 20203.15 Q 646787.8 20430.7 646332.7 20469.55 Q 646144 20506.55 645877.6 20506.55 L 645992.3 22552.65 Z M 661034.65 24334.2 Q 661034.65 26304.45 661186.35 30318.95 L 662398.1 30167.25 L 662361.1 24067.8 L 661034.65 24334.2 Z M 667171.1 29562.3 Q 667285.8 28084.15 667361.65 26398.8 Q 667437.5 24711.6 667437.5 23688.55 Q 667437.5 23499.85 667380.15 23405.5 Q 667322.8 23311.15 667134.1 23311.15 Q 666945.4 23311.15 666035.2 23462.85 Q 665998.2 25394.25 665998.2 29714 L 667171.1 29562.3 Z M 684296.55 17285.7 Q 684296.55 18460.45 683993.15 19598.2 Q 683689.75 20734.1 683121.8 21605.45 Q 682365.15 22741.35 681512.3 23196.45 Q 680659.45 23651.55 679863.95 23651.55 Q 679447.7 23651.55 678992.6 23462.85 Q 678537.5 23272.3 678537.5 22968.9 Q 678537.5 22856.05 678613.35 22856.05 Q 679788.1 22704.35 680489.25 21738.65 Q 681190.4 20772.95 681075.7 19825.75 Q 680167.35 19635.2 679654.9 18991.4 Q 679144.3 18347.6 679144.3 17248.7 Q 679144.3 15354.3 680431.9 14747.5 Q 681114.55 14444.1 681645.5 14444.1 Q 682098.75 14444.1 682553.85 14634.65 Q 684296.55 15241.45 684296.55 17285.7  Z M 685508.3 22968.9 Q 685508.3 22856.05 685584.15 22856.05 Q 686758.9 22704.35 687460.05 21738.65 Q 688161.2 20772.95 688046.5 19825.75 Q 687138.15 19635.2 686625.7 18991.4 Q 686115.1 18347.6 686115.1 17248.7 Q 686115.1 15354.3 687402.7 14747.5 Q 688085.35 14444.1 688616.3 14444.1 Q 689069.55 14444.1 689524.65 14634.65 Q 691267.35 15241.45 691267.35 17285.7 Q 691267.35 18460.45 690963.95 19598.2 Q 690660.55 20734.1 690092.6 21605.45 Q 689335.95 22741.35 688483.1 23196.45 Q 687630.25 23651.55 686834.75 23651.55 Q 686418.5 23651.55 685963.4 23462.85 Q 685508.3 23272.3 685508.3 22968.9  Z " fill-rule="nonzero" style="fill:#333333;;fill-opacity:1;"/>
</svg>