<svg version="1.1" x="0" y="0" width="100%" height="100%" viewBox="0 0 860057.6 63027.2" xmlns="http://www.w3.org/2000/svg">
  <path d="M 362166.5 44519.5 Q 361892.9 44519.5 361892.9 44401.7 Q 361892.9 44285.8 362126.6 44090.1 Q 364579.5 42068.5 366756.9 39188.1 Q 368936.2 36309.6 370298.5 33702.8 L 368197.1 34052.4 Q 367885.5 34130.3 367691.7 34130.3 Q 367186.3 34130.3 366641 33740.8 L 366173.6 33313.3 Q 364501.6 36543.3 364150.1 37320.4 Q 363295.1 39032.3 362438.2 40647.3 Q 361583.2 42262.3 360804.2 43428.9 Q 360414.7 44052.1 359753.5 44052.1 Q 359403.9 44052.1 359052.4 43818.4 Q 358509 43506.8 357671.1 42786.7 Q 356835.1 42068.5 356251.8 41445.3 Q 355824.3 40939.9 355824.3 40666.3 Q 355824.3 40316.7 356407.6 39967.1 Q 357146.7 39615.6 357515.3 39129.2 Q 357885.8 38642.8 358041.6 37865.7 Q 358547 35686.4 358839.6 32671.1 Q 359130.3 29655.8 359130.3 27592.4 Q 359130.3 27360.6 359092.3 27282.7 Q 359052.4 27204.8 358896.6 27242.8 Q 358391.2 27360.6 357982.7 27514.5 Q 357574.2 27670.3 356875 28021.8 Q 356367.7 28293.5 355862.3 28293.5 Q 355472.8 28293.5 355161.2 28137.7 Q 354695.7 27866 354131.4 27282.7 Q 353567.1 26697.5 353255.5 26152.2 Q 353021.8 25802.6 353021.8 25568.9 Q 353021.8 25101.5 353567.1 25063.5 Q 355434.8 24751.9 357224.6 24050.8 Q 359014.4 23351.6 359869.4 22728.4 Q 360258.9 22338.9 360766.2 22338.9 Q 361075.9 22338.9 361349.5 22456.7 Q 362749.8 23078 364072.2 24518.2 Q 364617.5 25063.5 364617.5 25453 Q 364617.5 25764.6 364228 26230.1 Q 363644.7 27202.9 363411 28449.3 Q 363255.2 29304.3 363042.4 31308.8 Q 362827.7 33313.3 362671.9 34947.3 Q 362633.9 35141.1 362730.8 35200 Q 362827.7 35258.9 362943.6 35141.1 Q 363255.2 34869.4 364423.7 33936.5 Q 365318.6 33313.3 365786 32807.9 Q 364851.2 31561.5 364851.2 31056.1 Q 364851.2 30666.6 365221.7 30491.8 Q 365590.3 30317 366057.7 30394.9 Q 367691.7 30510.8 373139 29811.6 L 373139 27788.1 Q 372399.9 27866 371271.3 28099.7 Q 370843.8 29032.6 369793.1 29032.6 Q 369014.1 29032.6 368119.2 28137.7 Q 367224.3 27242.8 367108.4 26192.1 Q 366952.6 25103.4 366758.8 22884.2 Q 366407.3 19578.2 366173.6 17708.6 Q 365939.9 15840.9 365590.3 14868.1 Q 365512.4 14558.4 365512.4 14440.6 Q 365512.4 13857.3 366369.3 13857.3 Q 367769.6 13857.3 368527.7 14032.1 Q 369287.7 14206.9 369871 14752.2 Q 369909 14792.1 369986.9 14830.1 Q 370064.8 14868.1 370104.7 14946 Q 371077.5 14830.1 374968.7 14168.9 L 377225.9 13819.3 Q 378198.7 13663.5 378685.1 13429.8 Q 379171.5 13196.1 379462.2 12981.4 Q 379754.8 12768.6 379948.6 12650.8 Q 380454 12339.2 380961.3 12339.2 Q 381155.1 12339.2 381466.7 12417.1 Q 382361.6 12650.8 383140.6 13078.3 Q 383917.7 13507.7 384812.6 14206.9 Q 385707.5 14946 385707.5 15569.2 Q 385707.5 15802.9 385395.9 16426.1 Q 385124.2 16813.7 384930.4 17436.9 Q 384540.9 18721.3 383957.6 20978.5 Q 383372.4 23235.7 383296.4 23819 Q 383100.7 24907.7 382984.8 25297.2 Q 383334.4 25920.4 383334.4 26347.9 Q 383334.4 26697.5 383041.8 26931.2 Q 382751.1 27164.9 382361.6 27164.9 Q 379948.6 27242.8 377225.9 27398.6 L 377225.9 27866 L 377225.9 29188.4 Q 380378 28643.1 382283.7 28137.7 Q 382517.4 28099.7 382963.9 28000.9 Q 383412.3 27904 383684 27904 Q 384113.4 27904 384423.1 28099.7 Q 385202.1 28683 385669.5 29228.3 Q 386136.9 29771.7 386524.5 30588.7 Q 386720.2 30978.2 386720.2 31445.6 Q 386720.2 32652.1 384734.7 32652.1 L 383957.6 32612.2 Q 382205.8 32496.3 381504.7 32496.3 Q 380999.3 32496.3 379599 32574.2 Q 379287.4 32574.2 379131.6 32612.2 Q 382127.9 35998 385164.1 38215.3 Q 386214.8 39032.3 387808.9 39752.4 Q 389404.9 40472.5 390493.6 40822.1 Q 390961 40939.9 390961 41133.7 Q 390961 41407.3 390377.7 41639.1 Q 387615.1 42845.6 385941.2 43235.1 Q 384812.6 43546.7 384229.3 43546.7 Q 383490.2 43546.7 382711.2 42885.5 Q 380222.2 40550.4 377225.9 35804.2 L 377263.9 44052.1 Q 377263.9 45336.5 376933.3 46290.3 Q 376602.7 47242.2 376116.3 47768.5 Q 375629.9 48292.9 375124.5 48292.9 Q 375046.6 48292.9 374812.9 48215 Q 374267.6 48021.2 373644.4 47204.2 Q 373023.1 46387.2 372671.6 45296.6 Q 372595.6 44986.9 372692.5 44479.6 Q 372789.4 43974.2 372789.4 43858.3 Q 372945.2 43157.2 372945.2 42963.4 Q 373101 39771.4 373101 36930.9 Q 370959.7 39577.6 367866.5 41834.8 Q 364773.3 44090.1 362322.3 44519.5 L 362166.5 44519.5 Z M 358586.9 14013.1 Q 358547 13935.2 358547 13779.4 Q 358547 13545.7 358721.8 13351.9 Q 358898.5 13156.2 359208.2 13196.1 Q 365122.9 13663.5 365122.9 16969.5 Q 365122.9 18176 364539.6 18955 Q 363956.3 19732.1 362943.6 20239.4 Q 362711.8 20355.3 362438.2 20355.3 Q 361777 20355.3 361505.3 19849.9 Q 360688.3 18721.3 360006.2 17321 Q 359326 15918.8 358586.9 14013.1  Z M 370610.1 17436.9 Q 370610.1 18527.5 370726 20043.7 Q 371193.4 20005.7 373023.1 19772 Q 372827.4 18487.6 372517.7 17592.7 L 372050.3 17670.6 Q 371505 17748.5 371389.1 17748.5 Q 370921.7 17748.5 370610.1 17436.9  Z M 370881.8 21951.3 Q 371037.6 23896.9 371193.4 24674 L 373101 24402.3 L 373101 22612.5 L 372555.7 22728.4 Q 372128.2 22806.3 371719.7 22612.5 Q 371311.2 22416.8 371037.6 22107.1 Q 371037.6 22107.1 370881.8 21951.3  Z M 376057.4 17047.4 Q 377419.7 17436.9 377303.8 18371.7 L 377263.9 18915.1 L 377459.6 18837.2 Q 377691.4 18721.3 378042.9 18721.3 Q 378548.3 18721.3 378820 18993 Q 379481.2 19732.1 379714.9 20121.6 Q 379948.6 18060.1 379948.6 16931.5 Q 379948.6 16737.7 379792.8 16678.8 Q 379637 16619.9 379171.5 16619.9 Q 378782 16619.9 376057.4 17047.4  Z M 379287.4 23779.1 Q 379521.1 22262.9 379521.1 21951.3 Q 379327.3 22107.1 378820 22107.1 L 377070.1 22107.1 L 376992.2 23972.9 L 379287.4 23779.1 Z M 399949.9 47282.1 Q 399094.9 47475.9 398219 46736.8 Q 397343.1 45997.7 396837.7 45102.8 Q 396410.2 44441.6 396410.2 44130 Q 396410.2 43934.3 396604 43837.4 Q 396797.8 43740.5 397265.2 43700.6 Q 400301.4 43622.7 408083.8 43117.3 Q 408159.8 41251.5 408159.8 40005.1 Q 406447.9 40238.8 405786.7 40394.6 Q 405087.5 40590.3 404580.2 40590.3 Q 403569.4 40590.3 402868.3 39773.3 Q 402362.9 39228 401973.4 38604.8 Q 401583.9 37983.5 401583.9 37594 Q 401583.9 37126.6 402169.1 37086.7 Q 405281.3 36932.8 408237.7 36581.3 Q 408237.7 34130.3 408005.9 33662.9 L 408005.9 33585 L 407966 33624.9 Q 408043.9 34168.3 407479.6 34460.9 Q 406915.3 34751.6 406138.2 34751.6 Q 405864.6 34751.6 405553 34673.7 Q 404698 34479.9 404308.5 33896.6 Q 403919 33313.3 403685.3 31833.2 Q 403685.3 31172 403335.7 28935.7 Q 402986.1 26697.5 402752.4 26152.2 Q 402674.5 25996.4 402674.5 25880.5 Q 402674.5 25686.7 402809.4 25530.9 Q 402946.2 25375.1 403179.9 25375.1 Q 403763.2 25335.2 404561.2 25491 Q 405359.2 25646.8 406020.4 25918.5 Q 407616.4 25724.7 409795.7 25394.1 Q 411975 25063.5 412636.2 24869.7 Q 413802.8 24168.6 414152.4 24050.8 Q 414464 23934.9 414737.6 23934.9 Q 415047.3 23934.9 415320.9 24050.8 Q 416020.1 24324.4 416973.9 24985.6 Q 417927.7 25646.8 418395.1 26192.1 Q 418550.9 26385.9 418473 26678.5 Q 418395.1 26969.2 418220.3 27339.7 Q 418043.6 27710.2 417965.7 27981.9 Q 417733.9 28643.1 416915 31523.5 Q 416605.3 32845.9 415904.2 33566 Q 415203.1 34286.1 414230.3 34286.1 Q 413491.2 34286.1 412636.2 32961.8 Q 412636.2 32961.8 412615.3 32942.8 Q 412596.3 32923.8 412596.3 32923.8 Q 411623.5 33001.7 410650.7 33157.5 Q 412128.9 33429.2 412596.3 33778.8 Q 413219.5 34286.1 413063.7 35103.1 Q 413063.7 35103.1 412985.8 35880.2 Q 413880.7 35726.3 415670.5 35296.9 Q 416371.6 35141.1 416605.3 35141.1 Q 417110.7 35141.1 417616.1 35374.8 Q 418043.6 35608.5 418530 36465.4 Q 419016.4 37320.4 419134.2 37981.6 Q 419172.2 38137.4 419172.2 38371.1 Q 419172.2 38916.4 418685.8 39091.2 Q 418199.4 39266 416992.9 39343.9 Q 415554.6 39305.9 412869.9 39499.7 L 412869.9 42767.7 Q 419483.8 42222.4 421391.4 41717 Q 421779 41639.1 422012.7 41639.1 Q 422947.5 41639.1 423608.7 42184.4 Q 424192 42689.8 424543.5 43039.4 Q 424893.1 43390.9 425282.6 44052.1 Q 425554.3 44673.4 425554.3 45062.9 Q 425554.3 45530.3 425204.7 45724.1 Q 424737.3 46191.5 423998.2 46191.5 Q 423842.4 46191.5 423219.2 46113.6 Q 422130.5 45997.7 419757.4 45997.7 Q 415009.3 45997.7 408414.4 46406.2 Q 401817.6 46814.7 399949.9 47282.1  Z M 396136.6 26152.2 Q 397071.4 24518.2 397713.6 23117.9 Q 398355.8 21717.6 398355.8 20511.1 Q 398355.8 20121.6 398315.9 19965.8 L 398315.9 19849.9 Q 398315.9 19498.4 398783.3 19498.4 L 399250.7 19576.3 Q 400183.6 19732.1 401040.5 20355.3 Q 401118.4 20433.2 401428.1 20685.9 Q 401739.7 20938.6 401857.5 21210.3 Q 405359.2 21016.5 408199.7 20704.9 Q 408237.7 18176 407966 15160.7 Q 407694.3 12145.4 407304.8 11172.6 Q 407226.9 11016.8 407226.9 10938.9 Q 407226.9 10549.4 407888.1 10471.5 Q 409132.6 10393.6 410612.7 10821.1 Q 412090.9 11250.5 412480.4 11871.8 Q 412714.1 12145.4 412811 12436.1 Q 412907.9 12728.7 412830 13196.1 Q 412752.1 13583.7 412636.2 15217.7 Q 412518.4 16853.6 412558.3 19304.6 Q 413724.9 17592.7 414638.8 15666.1 Q 415554.6 13739.5 415592.6 12261.3 Q 415632.5 11833.8 415923.2 11638.1 Q 416215.8 11444.3 416605.3 11522.2 Q 419601.6 12067.5 420652.3 13505.8 Q 420768.2 13661.6 420768.2 13895.3 Q 420768.2 14440.6 420203.9 15101.8 Q 419639.6 15763 418744.7 16580 Q 416137.9 18915.1 414581.8 20005.7 Q 416449.5 19810 420107 19264.7 Q 420418.6 19226.7 421060.8 19032.9 Q 421703 18837.2 422208.4 18837.2 Q 422675.8 18837.2 422985.5 18993 Q 423802.5 19420.5 424737.3 20159.6 Q 425670.2 20900.6 426255.4 21521.9 Q 426605 21873.4 426876.7 22359.8 Q 427150.3 22846.2 427150.3 23311.7 Q 427150.3 24128.7 426059.7 24402.3 Q 425516.3 24558.1 424347.8 24791.8 Q 424036.2 24869.7 422616.9 25219.3 Q 421195.7 25568.9 419679.5 26152.2 Q 419367.9 26230.1 419290 26230.1 Q 419016.4 26230.1 418919.5 26074.3 Q 418822.6 25918.5 418978.4 25764.6 Q 419212.1 25453 419561.7 24810.8 Q 419911.3 24168.6 420107 23857 L 420768.2 22612.5 L 420806.2 22534.6 Q 420806.2 22456.7 420709.3 22397.8 Q 420612.4 22338.9 420534.5 22338.9 L 415982.1 22846.2 Q 406020.4 23896.9 402790.4 24284.5 Q 402556.7 24324.4 402091.2 24324.4 Q 401739.7 24324.4 401583.9 24284.5 Q 401234.3 26152.2 400728.9 27436.6 Q 400377.4 28097.8 400008.8 28371.4 Q 399638.3 28643.1 399055 28527.2 Q 398509.7 28409.4 397576.8 27962.9 Q 396642 27514.5 396292.4 27087 Q 396020.7 26659.5 396020.7 26541.7 Q 396020.7 26385.9 396136.6 26152.2  Z M 400922.7 15529.3 Q 400884.7 15451.4 400844.8 15373.5 Q 400806.8 15295.6 400806.8 15219.6 Q 400806.8 14946 401428.1 14790.2 Q 401973.4 14712.3 402323 14712.3 Q 403996.9 14712.3 405281.3 15529.3 Q 406138.2 16036.6 406584.7 16754.8 Q 407033.1 17474.9 407033.1 18253.9 Q 407033.1 18993 406643.6 19635.2 Q 406254.1 20277.4 405592.9 20589 Q 405475.1 20666.9 405203.4 20666.9 Q 404813.9 20666.9 404367.4 20393.3 Q 403919 20121.6 403685.3 19694.1 Q 403295.8 18993 401895.5 16931.5 Q 400884.7 15491.3 400922.7 15529.3  Z M 407304.8 28605.1 Q 407498.6 30005.4 407616.4 31016.2 Q 409911.6 30510.8 412480.4 30161.2 Q 412714.1 29070.6 412752.1 27864.1 Q 412752.1 27748.2 412362.6 27748.2 L 407304.8 28605.1 Z M 449406.9 46309.3 Q 448783.7 46620.9 448238.4 46620.9 Q 446722.2 46620.9 445943.2 44559.4 Q 445475.8 43313 444639.8 42262.3 Q 443803.8 41211.6 442831 40512.4 Q 442441.5 40160.9 442441.5 39967.1 Q 442441.5 39655.5 442869 39733.4 Q 443102.7 39733.4 443686 39849.3 Q 445631.6 40122.9 446448.6 40160.9 L 446644.3 40160.9 Q 446838.1 40160.9 446974.9 40026 Q 447109.8 39889.2 447187.7 39421.8 Q 447539.2 37981.6 447539.2 28565.2 Q 447539.2 22572.6 447383.4 17514.8 Q 447305.5 16386.2 447208.6 15453.3 Q 447109.8 14518.5 446878 13779.4 Q 446760.2 13351.9 446760.2 13078.3 Q 446760.2 12145.4 447733 12145.4 Q 448627.9 12145.4 450242.9 12943.4 Q 451857.9 13739.5 452986.5 14868.1 Q 453336.1 15179.7 453336.1 15569.2 Q 453336.1 15725 453180.3 16426.1 Q 452908.6 17321 452868.7 17982.2 Q 452830.7 19188.7 452830.7 23117.9 L 452868.7 33195.5 Q 452908.6 35882.1 452908.6 40005.1 Q 452752.8 42613.8 452032.7 43955.2 Q 451312.6 45298.5 449406.9 46309.3  Z M 434113.8 34869.4 Q 433920 34324.1 433920 33547 Q 433920 32612.2 434328.5 31658.4 Q 434737 30706.5 435554 29927.5 Q 437032.2 28565.2 438044.9 27339.7 Q 439055.7 26114.2 439990.5 24130.6 Q 440146.3 23857 440437 23663.2 Q 440729.6 23467.5 441041.2 23467.5 Q 441624.5 23467.5 441780.3 24090.7 Q 442014 25181.3 442014 27242.8 Q 442014 28760.9 441818.3 30199.2 Q 441428.8 33195.5 440222.3 35006.2 Q 439017.7 36815 437537.6 37398.3 Q 437188 37516.1 436798.5 37516.1 Q 435943.5 37516.1 435204.4 36834 Q 434463.4 36153.8 434113.8 34869.4  Z M 454814.3 24480.2 Q 454582.5 24168.6 454582.5 24012.8 Q 454582.5 23701.2 455243.7 23701.2 Q 455515.4 23701.2 455982.8 23779.1 Q 458240 24246.5 460204.6 25491 Q 462169.2 26737.4 463531.5 28137.7 Q 464893.8 29538 465555 30666.6 Q 466256.1 31951 466256.1 33117.6 Q 466256.1 34402 465399.2 35336.8 Q 464542.3 36269.7 463026.1 36581.3 Q 462714.5 36659.2 462558.7 36659.2 Q 461701.8 36659.2 460924.7 35939.1 Q 460145.7 35219 459834.1 34168.3 Q 458745.4 31289.8 457305.2 28508.2 Q 455865 25724.7 454814.3 24480.2  Z M 473688.9 34402 Q 473377.3 34130.3 473124.6 33624.9 Q 472871.9 33117.6 472716.1 32709.1 Q 472560.3 32300.6 472442.5 32028.9 Q 472364.6 31717.3 472463.4 31386.7 Q 472560.3 31056.1 473181.6 30588.7 Q 474895.4 29422.1 476956.9 26737.4 Q 475634.5 27125 474895.4 27398.6 Q 474388.1 27592.4 474116.4 27592.4 Q 473844.7 27592.4 473455.2 27320.7 Q 472598.3 26697.5 471703.4 24985.6 Q 471587.5 24636 471587.5 24518.2 Q 471587.5 24246.5 471781.3 24090.7 Q 473726.9 21639.7 474817.5 19616.2 Q 475906.2 17592.7 476685.2 15375.4 Q 477424.3 13274 477424.3 11288.5 Q 477424.3 10900.9 477929.7 10900.9 Q 478357.2 10900.9 478940.5 11172.6 Q 479719.5 11562.1 480732.2 12301.2 Q 481743 13040.3 481976.7 13429.8 Q 482288.3 13779.4 482288.3 14246.8 Q 482288.3 14792.1 481509.3 15918.8 Q 480808.2 16853.6 479525.7 18915.1 Q 478241.3 20978.5 476956.9 23235.7 Q 477889.8 23157.8 478397.1 23079.9 L 479563.7 22962.1 L 480186.9 21911.4 Q 480886.1 20744.8 481315.5 19830.9 Q 481743 18915.1 482092.6 17748.5 Q 482170.5 17436.9 482482.1 17436.9 Q 482831.7 17436.9 483532.8 17904.3 Q 484271.9 18449.6 484895.1 19091.8 Q 485518.3 19732.1 485828 20277.4 Q 485983.8 20589 485983.8 20744.8 Q 487891.4 20628.9 490925.7 20317.3 Q 490925.7 16891.6 490769.9 13973.2 Q 490769.9 13467.8 490595.1 12747.7 Q 490420.3 12027.6 490148.6 11717.9 Q 489952.9 11444.3 489952.9 11210.6 Q 489952.9 10900.9 490226.5 10646.3 Q 490498.2 10393.6 490847.8 10393.6 Q 492016.3 10433.5 493279.8 10900.9 Q 494545.2 11366.4 495421.1 11970.6 Q 496297 12572.9 496335 12962.4 Q 496335 13429.8 496141.2 14091 Q 495867.6 15063.8 495751.7 16074.6 Q 495751.7 16114.5 495673.8 17942.3 L 495595.9 19732.1 Q 499291.4 19110.8 501314.9 18487.6 Q 501470.7 18449.6 501801.3 18331.8 Q 502133.8 18215.9 502365.6 18215.9 Q 502599.3 18215.9 502833 18331.8 Q 504155.4 19304.6 504896.4 20822.7 Q 505168.1 21406 505168.1 21833.5 Q 505168.1 22690.4 503845.7 22690.4 Q 503378.3 22690.4 503106.6 22650.5 Q 502677.2 22612.5 501704.4 22612.5 Q 499253.4 22612.5 495478.1 23002 L 495400.2 26737.4 Q 497114 26347.9 498474.4 25920.4 Q 498592.2 25880.5 498882.9 25802.6 Q 499175.5 25724.7 499369.3 25724.7 Q 499680.9 25724.7 499876.6 25920.4 Q 501043.2 26931.2 501548.6 28527.2 Q 501666.4 28914.8 501666.4 29226.4 Q 501666.4 30277.1 499914.6 30121.3 Q 499059.6 30043.4 498514.3 30043.4 Q 495246.3 30043.4 488630.5 31405.7 L 488396.8 31445.6 Q 487813.5 31445.6 487346.1 30938.3 Q 486956.6 30588.7 486665.9 30161.2 Q 486373.3 29731.8 485983.8 28798.9 Q 485905.9 28683 485905.9 28409.4 Q 485905.9 28137.7 486061.7 27942 Q 486217.5 27748.2 486413.2 27748.2 Q 488630.5 27748.2 490847.8 27476.5 Q 490925.7 24829.8 490925.7 23585.3 Q 488980.1 23896.9 487735.6 24168.6 Q 487617.8 24208.5 487386 24208.5 Q 486684.9 24208.5 486257.4 23819 Q 485556.3 23313.6 485088.9 22612.5 Q 484739.3 22884.2 484038.2 23663.2 Q 483339 24440.3 482831.7 24947.6 Q 479719.5 28293.5 478123.5 29693.8 Q 480380.7 29304.3 483844.4 28487.3 Q 484583.5 28331.5 485011 28331.5 Q 485322.6 28331.5 485322.6 28449.3 Q 485322.6 28605.1 484623.4 29032.6 Q 483065.4 29927.5 479875.3 31833.2 Q 476685.2 33740.8 476217.8 34168.3 Q 475283 34947.3 474739.6 34947.3 Q 474194.3 34947.3 473688.9 34402  Z M 471353.8 39150.1 Q 471236 38838.5 471236 38564.9 Q 471236 38137.4 471450.7 37846.7 Q 471665.4 37554.1 472092.9 37554.1 Q 473377.3 37554.1 474583.8 37126.6 Q 477773.9 36036 479835.4 35258.9 Q 481898.8 34479.9 483960.3 33507.1 Q 484156 33391.2 484311.8 33391.2 Q 484467.6 33391.2 484505.6 33488.1 Q 484545.5 33585 484389.7 33740.8 Q 481705 36815 479622.6 38798.6 Q 477540.2 40784.1 474621.8 43079.3 Q 474232.3 43428.9 473804.8 43428.9 Q 473299.4 43428.9 472949.8 42923.5 Q 472520.4 42496 471977 40958.9 Q 471431.7 39421.8 471353.8 39150.1  Z M 485322.6 33195.5 Q 485284.6 33117.6 485284.6 32961.8 Q 485284.6 32574.2 485712.1 32574.2 Q 487112.4 32574.2 488182.1 32768 Q 489253.7 32961.8 489759.1 33273.4 Q 489992.8 33469.1 490108.7 33662.9 Q 492911.2 33351.3 495478.1 32690.1 Q 496101.3 32534.3 496509.8 32319.6 Q 496918.3 32106.8 497385.7 31795.2 Q 497775.2 31601.4 497969 31601.4 Q 498008.9 31601.4 498552.3 31679.3 Q 499291.4 31951 500420 32574.2 Q 501548.6 33195.5 502171.8 33700.9 Q 502599.3 34052.4 502599.3 34869.4 Q 502599.3 35374.8 502365.6 35724.4 Q 502209.8 36113.9 501919.1 37048.7 Q 501626.5 37981.6 501548.6 38255.2 Q 500965.3 40394.6 500497.9 43157.2 Q 500304.1 44207.9 499954.5 44675.3 Q 499603 45142.7 498863.9 45414.4 Q 498630.2 45492.3 498474.4 45492.3 Q 497969 45492.3 497366.7 45180.7 Q 496762.5 44869.1 496179.2 44207.9 Q 495907.5 43896.3 494816.9 43313 Q 492288 43428.9 490264.5 43780.4 Q 490148.6 44791.2 489584.3 45414.4 Q 489020 46037.6 488241 46037.6 Q 487813.5 46037.6 487268.2 45629.1 Q 486722.9 45220.6 486373.3 44578.4 Q 486023.7 43936.2 486101.6 43275 Q 486217.5 42573.9 486217.5 41289.5 Q 486217.5 39188.1 485945.8 36697.2 Q 485672.2 34208.2 485322.6 33195.5  Z M 490070.7 36815 Q 490070.7 37554.1 490148.6 39266 L 490186.6 40550.4 Q 491277.2 40356.6 493046.1 40160.9 Q 494816.9 39967.1 496179.2 39927.2 Q 496528.8 38255.2 496568.7 36387.5 Q 496568.7 36113.9 496471.8 36017 Q 496373 35920.1 496101.3 35958.1 L 494623.1 36153.8 Q 491742.7 36503.4 490070.7 36815  Z " fill-rule="nonzero" style="fill:#333333;;fill-opacity:1;"/>
</svg>