<svg version="1.1" x="0" y="0" width="100%" height="100%" viewBox="0 0 388710.4 83148.8" xmlns="http://www.w3.org/2000/svg">
  <path d="M 8075.3 12517.7 Q 8672 12468.2 9075.2 12328.7 Q 9478.4 12189.2 9494.6 12056.9 L 9494.6 10471.1 L 12885.8 10471.1 L 12885.8 12461.9 L 13235.9 12461.9 Q 13976.6 12434.9 14489.6 12266.6 Q 15002.6 12097.4 15024.2 11946.2 L 15024.2 10471.1 L 19373.9 10471.1 Q 19812.2 10475.6 19890.5 10176.8 Q 19383.8 9691.7 18788.9 9186.8 Q 18620.6 9042.8 18470.3 8916.8 Q 17936.6 8472.2 17899.7 8444.3 L 16756.7 9955.4 L 15024.2 9955.4 L 15024.2 8314.7 Q 15388.7 8258.9 15529.1 8137.4 Q 15668.6 8015.9 15687.5 7835.9 L 12885.8 7577.6 L 12885.8 9955.4 L 9494.6 9955.4 L 9494.6 8314.7 Q 9847.4 8258.9 9989.6 8137.4 Q 10131.8 8015.9 10139.9 7835.9 L 7393.1 7577.6 L 7393.1 9955.4 L 2656.4 9955.4 L 2785.1 10471.1 L 7393.1 10471.1 L 7393.1 12203.6 L 7116.8 12074.9 Q 6273.5 14342.9 5015.3 16261.7 Q 3758 18179.6 2417 19410.8 L 2582.6 19595.3 Q 4397.9 18752 5992.7 17383.1 L 5992.7 24866.6 L 6397.7 24866.6 Q 7021.4 24846.8 7538 24655.1 Q 8055.5 24462.5 8112.2 24332 L 8112.2 16387.7 Q 8605.4 16291.4 8683.7 16056.5 L 7669.4 15669.5 Q 8434.4 14761.4 9088.7 13659.8 Q 9748.4 13720.1 9881.6 13365.5 L 8075.3 12517.7 Z M 19005.8 19521.5 L 18784.4 19521.5 Q 18520.7 20448.5 18302.9 21137 Q 18084.2 21824.6 17917.7 22101.8 Q 17743.1 22383.5 17402 22360.1 Q 16959.2 22392.5 15963.8 22397 L 14231.3 22397 Q 13772.3 22400.6 13609.4 22286.3 Q 13447.4 22172 13457.3 21899.3 L 13457.3 18323.6 Q 14723.6 17838.5 15969.2 17180.6 Q 17213.9 16522.7 18341.6 15706.4 Q 18959 15926.9 19189.4 15650.6 L 17106.8 13696.7 Q 15420.2 15429.2 13457.3 16830.5 L 13457.3 13272.8 Q 14065.7 13176.5 14065.7 12775.1 L 11337.8 12517.7 L 11337.8 18230.9 Q 10319 18843.8 9383.9 19263.2 L 9475.7 19484.6 Q 10365.8 19319 11337.8 19042.7 L 11337.8 22397 Q 11309.9 23522 11837.3 23938.7 Q 12365.6 24354.5 13789.4 24332 L 15761.3 24332 Q 18108.5 24340.1 18994.1 24051.2 Q 19878.8 23762.3 19834.7 23079.2 Q 19843.7 22793 19676.3 22590.5 Q 19508 22388 19060.7 22212.5 L 19005.8 19521.5 Z M 31041.5 20480 L 21364.7 20480 L 21493.4 21014.6 L 33640.7 21014.6 Q 34078.1 21019.1 34156.4 20719.4 Q 33621.8 20241.5 33021.5 19742.9 Q 32864 19612.4 32724.5 19496.3 Q 32184.5 19052.6 32147.6 19023.8 L 31041.5 20480 Z M 36165.2 15945.8 L 35023.1 17033 L 25972.7 17033 L 25972.7 10342.4 L 33069.2 10342.4 Q 32871.2 14015.3 32313.2 14507.6 Q 32208.8 14589.5 32082.8 14622.8 Q 31957.7 14657 31741.7 14655.2 Q 31441.1 14654.3 30802.1 14618.3 Q 30162.2 14583.2 29641.1 14526.5 L 29641.1 14765.9 Q 30756.2 14987.3 31207.1 15429.2 Q 31409.6 15647 31477.1 15929.6 Q 31544.6 16212.2 31539.2 16609.1 Q 32297 16617.2 32877.5 16510.1 Q 33458.9 16403.9 33898.1 16093.4 Q 34521.8 15649.7 34819.7 14383.4 Q 35118.5 13118 35243.6 10711.4 Q 35778.2 10600.7 35981.6 10379.3 L 34008.8 8757.5 L 32903.6 9826.7 L 28405.4 9826.7 Q 28800.5 9500.9 29202.8 9150.8 Q 29605.1 8801.6 29917.4 8517.2 Q 30548.3 8512.7 30654.5 8038.4 L 27392 7466.9 Q 27369.5 7749.5 27346.1 8079.8 Q 27314.6 8523.5 27276.8 8980.7 Q 27239 9437.9 27189.5 9826.7 L 26249 9826.7 L 23797.4 8868.2 L 23797.4 16811.6 Q 23466.2 17074.4 23244.8 17365.1 L 25438.1 18636.8 L 26101.4 17567.6 L 35207.6 17567.6 Q 35128.4 19648.4 34967.3 20954.3 Q 34806.2 22261.1 34506.5 22544.6 Q 34327.4 22723.7 33898.1 22710.2 Q 33536.3 22707.5 32664.2 22658 Q 32581.4 22652.6 32495.9 22647.2 Q 31604 22594.1 30820.1 22525.7 L 30820.1 22766 Q 31539.2 22892 32133.2 23090 Q 32728.1 23288.9 33032.3 23540 Q 33571.4 23996.3 33530 24866.6 Q 34472.3 24871.1 35082.5 24726.2 Q 35693.6 24581.3 36110.3 24240.2 Q 36746.6 23722.7 37034.6 22163.9 Q 37321.7 20606 37418.9 17917.7 Q 37958 17821.4 38138 17586.5 L 36165.2 15945.8 Z M 27133.7 11246 Q 27668.3 11759 28191.2 12482.6 Q 28715 13207.1 28958.9 13955 Q 29800.4 14370.8 30360.2 14004.5 Q 30870.5 13672.4 30875.9 13046.9 Q 30880.4 12422.3 30122.6 11855.3 Q 29302.7 11233.4 27263.3 11116.4 L 27133.7 11246 Z M 53528.9 22986.5 L 42709.1 22986.5 L 42709.1 13033.4 Q 43354.4 12918.2 43391.3 12498.8 L 40626.5 12222.5 L 40626.5 22747.1 Q 40207.1 23018.9 39925.4 23318.6 L 42137.6 24479.6 L 42819.8 23521.1 L 53528.9 23521.1 L 53528.9 24848.6 L 53933.9 24848.6 Q 54546.8 24826.1 55063.4 24603.8 Q 55579.1 24381.5 55611.5 24221.3 L 55611.5 12904.7 Q 55949.9 12848.9 56084 12727.4 Q 56218.1 12605.9 56237.9 12425 L 53528.9 12167.6 L 53528.9 22986.5 Z M 49012.7 20129.9 L 49012.7 16185.2 L 50377.1 16185.2 L 50377.1 20129.9 L 49012.7 20129.9 Z M 45842 16185.2 L 47243.3 16185.2 L 47243.3 20129.9 L 45842 20129.9 L 45842 16185.2 Z M 47243.3 12111.8 L 47243.3 15650.6 L 45842 15650.6 L 45842 12111.8 L 47243.3 12111.8 Z M 50377.1 12111.8 L 50377.1 15650.6 L 49012.7 15650.6 L 49012.7 12111.8 L 50377.1 12111.8 Z M 50690.3 21475.4 Q 51196.1 21455.6 51694.7 21263 Q 52193.3 21071.3 52257.2 20940.8 L 52257.2 12388.1 Q 52763.9 12254.9 52938.5 12038 L 51095.3 10618.7 L 50192.6 11596.1 L 45934.7 11596.1 L 43980.8 10766.3 L 43980.8 21770.6 L 44276 21770.6 Q 44893.4 21748.1 45356 21525.8 Q 45818.6 21303.5 45842 21143.3 L 45842 20664.5 L 50377.1 20664.5 L 50377.1 21475.4 L 50690.3 21475.4 Z M 53288.6 9255.2 L 39464.6 9255.2 L 39612.2 9770.9 L 56422.4 9770.9 Q 56832.8 9775.4 56938.1 9475.7 Q 56324.3 8968.1 55642.1 8448.8 Q 55412.6 8274.2 55213.7 8123.9 Q 54617.9 7677.5 54579.2 7651.4 L 53288.6 9255.2 Z M 65048.9 18010.4 Q 65699.6 17991.5 66122.6 17560.4 Q 66544.7 17130.2 66560 16517.3 Q 66544.7 15863.9 66122.6 15424.7 Q 65699.6 14986.4 65048.9 14968.4 Q 64384.7 14986.4 63959 15424.7 Q 63533.3 15863.9 63518.9 16517.3 Q 63533.3 17130.2 63959 17560.4 Q 64384.7 17991.5 65048.9 18010.4  Z M 76777.4 7577.6 Q 76214.9 10222.7 75237.5 12675.2 Q 75189.8 12794 75143 12911.9 Q 74152.1 15342.8 73036.1 17069.9 L 73256.6 17217.5 Q 74386.1 16328.3 75377 15189.8 L 75377 24848.6 L 75782 24848.6 Q 76445.3 24824.3 76970.9 24599.3 Q 77496.5 24375.2 77551.4 24240.2 L 77551.4 13346.6 Q 78058.1 13231.4 78122.9 12978.5 L 77201.3 12646.4 Q 78238.1 10927.4 79026.5 8849.3 Q 79634 8849.3 79744.7 8462.3 L 76777.4 7577.6 Z M 82122.5 23060.3 L 82122.5 20147.9 L 86656.7 20147.9 L 86656.7 23060.3 L 82122.5 23060.3 Z M 86656.7 16959.2 L 86656.7 19613.3 L 82122.5 19613.3 L 82122.5 16959.2 L 86656.7 16959.2 Z M 86473.1 16424.6 L 82233.2 16424.6 L 79966.1 15539.9 L 79966.1 24811.7 L 80298.2 24811.7 Q 81004.7 24788.3 81549.2 24544.4 Q 82093.7 24299.6 82122.5 24111.5 L 82122.5 23576.9 L 86656.7 23576.9 L 86656.7 24627.2 L 87006.8 24627.2 Q 87581 24606.5 88158.8 24413 L 88187.6 24404 Q 88758.2 24208.7 88814 24092.6 L 88814 17309.3 Q 89390 17171.6 89551.1 16922.3 L 87486.5 15337.4 L 86473.1 16424.6 Z M 83099.9 11227.1 L 85237.4 11227.1 L 85237.4 14157.5 L 83099.9 14157.5 L 83099.9 11227.1 Z M 87836.6 14157.5 L 87338.9 14157.5 L 87338.9 11227.1 L 89827.4 11227.1 Q 90232.4 11231.6 90306.2 10931.9 Q 89856.2 10452.2 89311.7 9945.5 Q 89174 9815.9 89049.8 9700.7 Q 88554.8 9248 88518.8 9218.3 L 87523.4 10711.4 L 87338.9 10711.4 L 87338.9 8407.4 Q 87663.8 8351.6 87795.2 8229.2 Q 87926.6 8107.7 87947.3 7927.7 L 85237.4 7688.3 L 85237.4 10711.4 L 83099.9 10711.4 L 83099.9 8407.4 Q 83411.3 8351.6 83540 8229.2 Q 83667.8 8107.7 83689.4 7927.7 L 80998.4 7688.3 L 80998.4 10711.4 L 78878.9 10711.4 L 79026.5 11227.1 L 80998.4 11227.1 L 80998.4 14157.5 L 78233.6 14157.5 L 78381.2 14692.1 L 90196.4 14692.1 Q 90587.9 14696.6 90675.2 14397.8 Q 90200 13902.8 89647.4 13385.3 Q 89510.6 13255.7 89387.3 13140.5 Q 88886 12677 88850 12646.4 L 87836.6 14157.5 Z M 93735.2 12020 Q 94094.3 10946.3 94343.6 9789.8 Q 94619.9 9757.4 94785.5 9642.2 L 94785.5 12020 L 93735.2 12020 Z M 107282 9992.3 L 106139.9 11190.2 L 101218.7 11190.2 Q 101812.7 10094 102269 8775.5 Q 102890.9 8771 102988.1 8407.4 L 100204.4 7577.6 Q 99854.3 9849.2 99061.4 11816.6 Q 98623.1 11338.7 98246 10952.6 Q 97869.8 10567.4 97845.5 10544.9 L 96905 12020 L 96813.2 12020 L 96813.2 8370.5 Q 97177.7 8313.8 97317.2 8181.5 Q 97457.6 8049.2 97476.5 7853.9 L 94785.5 7577.6 L 94785.5 9292.1 L 92481.5 8868.2 Q 92451.8 10609.7 92242.1 12337.7 Q 92032.4 14065.7 91670.6 15448.1 L 91946.9 15576.8 Q 92928.8 14328.5 93550.7 12554.6 L 94785.5 12554.6 L 94785.5 16811.6 Q 93754.1 17076.2 92951.3 17263.4 Q 92148.5 17451.5 91670.6 17549.6 L 92592.2 19982.3 Q 92918.9 19858.1 93053 19484.6 Q 93253.7 19375.7 93450.8 19268.6 Q 94155.5 18890.6 94785.5 18526.1 L 94785.5 24866.6 L 95191.4 24866.6 Q 95800.7 24846.8 96292.1 24640.7 Q 96784.4 24434.6 96813.2 24277.1 L 96813.2 17346.2 Q 98282.9 16461.5 99227.9 15854 L 99172.1 15632.6 Q 99171.2 15632.6 99169.4 15633.5 Q 97977.8 15969.2 96813.2 16277.9 L 96813.2 12554.6 L 98748.2 12554.6 Q 98108.3 14000.9 97328.9 15061.1 L 97532.3 15226.7 Q 99522.2 13959.5 100904.6 11724.8 L 101495 11724.8 Q 101085.5 13901 100050.5 16015.1 Q 99015.5 18129.2 97458.5 19779.8 L 97624.1 19982.3 Q 99813.8 18491.9 101294.3 16350.8 Q 102774.8 14210.6 103485.8 11724.8 L 103964.6 11724.8 Q 103594.7 15056.6 102170 18125.6 Q 100745.3 21194.6 98066 23503.1 L 98213.6 23687.6 Q 101634.5 21748.1 103499.3 18813.2 Q 103670.3 18550.4 103830.5 18282.2 Q 105573.8 15277.1 106176.8 11724.8 L 106342.4 11724.8 Q 106180.4 16165.4 105831.2 18833 Q 105482 21499.7 104905.1 22028 Q 104733.2 22178.3 104565.8 22242.2 Q 104398.4 22306.1 104130.2 22305.2 Q 103765.7 22301.6 103057.4 22251.2 Q 102349.1 22200.8 101639.9 22143.2 Q 101488.7 22131.5 101347.4 22120.7 L 101347.4 22378.1 Q 102031.4 22518.5 102549.8 22730.9 Q 103068.2 22943.3 103338.2 23207.9 Q 103784.6 23673.2 103762.1 24719 Q 104679.2 24722.6 105347 24484.1 Q 106014.8 24245.6 106544.9 23723.6 Q 107376.5 22910 107807.6 20084 Q 108238.7 17258 108407 12074.9 Q 109037.9 11955.2 109254.8 11724.8 L 107282 9992.3 Z M 123705.2 9273.2 Q 123378.5 9766.4 122938.4 10301 Q 122497.4 10835.6 122046.5 11300.9 Q 120996.2 10683.5 118894.7 10563.8 L 118747.1 10711.4 Q 119665.1 11286.5 120523.7 12169.4 Q 121382.3 13052.3 121788.2 13973.9 Q 122636.9 14319.5 123080.6 13858.7 Q 123360.5 13574.3 123369.5 13117.1 Q 123396.5 12389.9 122544.2 11651 Q 123562.1 11254.1 124541.3 10736.6 Q 125521.4 10218.2 126193.7 9697.1 Q 126493.4 9673.7 126668 9626 Q 126843.5 9578.3 126949.7 9457.7 L 124995.8 7595.6 L 123815.9 8738.6 L 116995.7 8738.6 L 117162.2 9273.2 L 123705.2 9273.2 Z M 125714 13107.2 L 124589.9 14268.2 L 116627.6 14268.2 L 116793.2 14784.8 L 117493.4 14784.8 Q 116152.4 15171.8 114839.3 15503 L 114839.3 12461.9 L 117401.6 12461.9 Q 117793.1 12466.4 117880.4 12167.6 Q 117442.1 11670.8 116919.2 11144.3 Q 116792.3 11016.5 116678 10902.2 Q 116201.9 10428.8 116166.8 10397.3 L 115189.4 11927.3 L 114839.3 11927.3 L 114839.3 8370.5 Q 115498.1 8255.3 115521.5 7835.9 L 112756.7 7577.6 L 112756.7 11927.3 L 110194.4 11927.3 L 110342 12461.9 L 112756.7 12461.9 L 112756.7 16056.5 Q 111810.8 16293.2 111079.1 16464.2 Q 110348.3 16635.2 109900.1 16719.8 L 110765.9 19226.3 Q 111102.5 19093.1 111245.6 18710.6 Q 112042.1 18300.2 112756.7 17917.7 L 112756.7 22231.4 Q 112780.1 22544.6 112387.7 22525.7 Q 112130.3 22523 111539.9 22493.3 Q 111265.4 22479.8 111011.6 22466.3 Q 110462.6 22436.6 110415.8 22433.9 L 110415.8 22692.2 Q 111013.4 22789.4 111341.9 22964 Q 111670.4 23137.7 111854 23373.5 Q 112162.7 23857.7 112222.1 24866.6 Q 113838.5 24709.1 114352.4 24129.5 Q 114396.5 24084.5 114435.2 24035.9 Q 114886.1 23422.1 114839.3 22360.1 L 114839.3 16775.6 Q 116781.5 15642.5 117989.3 14889.2 Q 117999.2 14882.9 118010 14876.6 L 117991.1 14784.8 L 120572.3 14784.8 L 120572.3 22138.7 Q 120609.2 22479.8 120148.4 22488.8 Q 119863.1 22485.2 119164.7 22440.2 Q 118632.8 22406 118153.1 22371.8 Q 117522.2 22326.8 117475.4 22323.2 L 117475.4 22581.5 Q 118262 22704.8 118682.3 22887.5 Q 119103.5 23070.2 119336.6 23318.6 Q 119783.9 23834.3 119816.3 24903.5 Q 121549.7 24749.6 122141 24102.5 Q 122222.9 24020.6 122291.3 23931.5 Q 122773.7 23231.3 122728.7 22194.5 L 122728.7 14784.8 L 124700.6 14784.8 Q 124513.4 15566.9 124232.6 16450.7 Q 123952.7 17333.6 123668.3 18047.3 L 123834.8 18176 Q 124687.1 17584.7 125539.4 16780.1 Q 126391.7 15974.6 126967.7 15245.6 Q 127515.8 15208.7 127704.8 15005.3 L 125714 13107.2 Z M 129695.6 10913.9 Q 129746 11914.7 129467.9 12853.4 Q 129189.8 13793 128810.9 14268.2 Q 128513 14552.6 128414.9 14900 Q 128316.8 15246.5 128515.7 15558.8 Q 128792.9 15910.7 129246.5 15837.8 Q 129700.1 15764 129990.8 15356.3 Q 130385 14764.1 130447.1 13618.4 Q 130509.2 12473.6 129990.8 10913.9 L 129695.6 10913.9 Z M 130967.3 7595.6 L 130967.3 24885.5 L 131373.2 24885.5 Q 131982.5 24865.7 132474.8 24659.6 Q 132966.2 24453.5 132995 24295.1 L 132995 8388.5 Q 133346.9 8331.8 133495.4 8199.5 Q 133643 8067.2 133677.2 7872.8 L 130967.3 7595.6 Z M 132995 10637.6 Q 133283.9 11195.6 133499.9 11943.5 Q 133715.9 12692.3 133714.1 13402.4 Q 134289.2 13919 134764.4 13629.2 Q 135080.3 13441.1 135179.3 13017.2 Q 135278.3 12594.2 135022.7 12056.9 Q 134669.9 11263.1 133216.4 10544.9 L 132995 10637.6 Z M 137787.5 20093 L 137787.5 18452.3 L 142211 18452.3 L 142211 20093 L 137787.5 20093 Z M 142211 16350.8 L 142211 17917.7 L 137787.5 17917.7 L 137787.5 16350.8 L 142211 16350.8 Z M 142026.5 15854 L 137879.3 15854 L 135686 14950.4 L 135686 24848.6 L 135999.2 24848.6 Q 136703.9 24825.2 137232.2 24581.3 Q 137760.5 24336.5 137787.5 24148.4 L 137787.5 20627.6 L 142211 20627.6 L 142211 22175.6 Q 142243.4 22530.2 141860.9 22525.7 Q 141596.3 22523 141028.4 22491.5 Q 140813.3 22479.8 140613.5 22468.1 Q 140082.5 22437.5 140035.7 22433.9 L 140035.7 22673.3 Q 140605.4 22783.1 140909.6 22954.1 Q 141212.9 23126 141381.2 23373.5 Q 141708.8 23844.2 141732.2 24866.6 Q 143329.7 24720.8 143833.7 24155.6 Q 143880.5 24107 143921.9 24055.7 Q 144359.3 23454.5 144312.5 22433.9 L 144312.5 16719.8 Q 144884 16558.7 145067.6 16314.8 L 142967 14747.9 L 142026.5 15854 Z M 143003.9 14028.8 L 140865.5 14028.8 L 140865.5 12333.2 L 144736.4 12333.2 Q 145146.8 12337.7 145252.1 12038 Q 144736.4 11581.7 144169.4 11120.9 Q 144065.9 11036.3 143971.4 10959.8 Q 143446.7 10535.9 143408.9 10508 L 142395.5 11798.6 L 140865.5 11798.6 L 140865.5 10287.5 L 145271 10287.5 Q 145680.5 10292 145786.7 9992.3 Q 145254.8 9507.2 144662.6 9023 Q 144530.3 8913.2 144410.6 8815.1 Q 143870.6 8379.5 143832.8 8351.6 L 142745.6 9752.9 L 140865.5 9752.9 L 140865.5 8407.4 Q 141190.4 8351.6 141321.8 8229.2 Q 141453.2 8107.7 141473.9 7927.7 L 138782.9 7688.3 L 138782.9 9752.9 L 134635.7 9752.9 L 134783.3 10287.5 L 138782.9 10287.5 L 138782.9 11798.6 L 135390.8 11798.6 L 135538.4 12333.2 L 138782.9 12333.2 L 138782.9 14028.8 L 134138 14028.8 L 134285.6 14544.5 L 145528.4 14544.5 Q 145929.8 14549.9 146026.1 14250.2 Q 145493.3 13775.9 144907.4 13293.5 Q 144779.6 13187.3 144663.5 13092.8 Q 144128.9 12656.3 144091.1 12628.4 L 143003.9 14028.8 Z " fill-rule="nonzero" style="fill:#333333;;fill-opacity:1;"/>
  <path d="M 10738 38451.2 Q 11273.5 39339.5 11744.6 40413.3 Q 12216.4 41487.1 12386.5 42537.1 Q 13068.3 43057.9 13555.5 42768.8 Q 14023.1 42493 14042 41759.4 Q 14061.6 41025.8 13369.3 40122.8 Q 12652.5 39184.1 10880.8 38379.8 L 10738 38451.2 Z M 13690.6 44615.4 Q 12617.5 45201.3 11587.1 45746.6 Q 10556.7 46291.9 9676.8 46737.1 L 9676.8 38981.8 Q 10200.4 38892.2 10207.4 38566 L 7942.2 38351.1 L 7942.2 46909.3 Q 7956.2 47164.1 7811.3 47330.7 Q 7666.4 47496.6 7196.7 47740.9 L 8300.6 49719.1 Q 8583.4 49572.1 8802.5 49145.8 Q 10528 47794.8 11791.5 46647.5 Q 13055 45500.9 13791.4 44773.6 L 13690.6 44615.4 Z M 16185.4 38121.5 Q 16184 40590.4 15940.4 42588.2 Q 15743.7 44112.8 15190.7 45421.8 Q 14637.7 46731.5 13542.9 47873.9 Q 12119.8 49370.5 9389.8 50679.5 L 9504.6 50909.1 Q 12055.4 50167.8 13654.9 49197.6 Q 15254.4 48228.1 16128 47024.1 Q 16764.3 47790.6 17258.5 48699.9 Q 17752.7 49608.5 17948.7 50493.3 Q 18651.5 50951.8 19124 50627 Q 19567.8 50323.9 19568.5 49616.9 Q 19569.9 48910.6 18897.2 48087.4 Q 18188.1 47212.4 16457.7 46536.9 Q 17389.4 44980.8 17676.4 43051.6 Q 17962.7 41121.7 18034.8 38780.9 Q 18554.2 38694.8 18579.4 38351.1 L 16185.4 38121.5 Z M 24758.3 41218.3 Q 25222.4 41179.8 25536 41071.3 Q 25849.6 40962.8 25862.2 40859.9 L 25862.2 39626.5 L 28499.8 39626.5 L 28499.8 41174.9 L 28772.1 41174.9 Q 29348.2 41153.9 29747.2 41023 Q 30146.2 40891.4 30163 40773.8 L 30163 39626.5 L 33546.1 39626.5 Q 33887 39630 33947.9 39397.6 Q 33553.8 39020.3 33091.1 38627.6 Q 32960.2 38515.6 32843.3 38417.6 Q 32428.2 38071.8 32399.5 38050.1 L 31510.5 39225.4 L 30163 39225.4 L 30163 37949.3 Q 30446.5 37905.9 30555.7 37811.4 Q 30664.2 37716.9 30678.9 37576.9 L 28499.8 37376 L 28499.8 39225.4 L 25862.2 39225.4 L 25862.2 37949.3 Q 26136.6 37905.9 26247.2 37811.4 Q 26357.8 37716.9 26364.1 37576.9 L 24227.7 37376 L 24227.7 39225.4 L 20543.6 39225.4 L 20643.7 39626.5 L 24227.7 39626.5 L 24227.7 40974 L 24012.8 40873.9 Q 23356.9 42637.9 22378.3 44130.3 Q 21400.4 45622 20357.4 46579.6 L 20486.2 46723.1 Q 21898.1 46067.2 23138.5 45002.5 L 23138.5 50823 L 23453.5 50823 Q 23938.6 50807.6 24340.4 50658.5 Q 24742.9 50508.7 24787 50407.2 L 24787 44228.3 Q 25170.6 44153.4 25231.5 43970.7 L 24442.6 43669.7 Q 25037.6 42963.4 25546.5 42106.6 Q 26059.6 42153.5 26163.2 41877.7 L 24758.3 41218.3 Z M 33259.8 46665.7 L 33087.6 46665.7 Q 32882.5 47386.7 32713.1 47922.2 Q 32543 48457 32413.5 48672.6 Q 32277.7 48891.7 32012.4 48873.5 Q 31668 48898.7 30893.8 48902.2 L 29546.3 48902.2 Q 29189.3 48905 29062.6 48816.1 Q 28936.6 48727.2 28944.3 48515.1 L 28944.3 45734 Q 29929.2 45356.7 30898 44845 Q 31866.1 44333.3 32743.2 43698.4 Q 33223.4 43869.9 33402.6 43655 L 31782.8 42135.3 Q 30471 43482.8 28944.3 44572.7 L 28944.3 41805.6 Q 29417.5 41730.7 29417.5 41418.5 L 27295.8 41218.3 L 27295.8 45661.9 Q 26503.4 46138.6 25776.1 46464.8 L 25847.5 46637 Q 26539.8 46508.2 27295.8 46293.3 L 27295.8 48902.2 Q 27274.1 49777.2 27684.3 50101.3 Q 28095.2 50424.7 29202.6 50407.2 L 30736.3 50407.2 Q 32561.9 50413.5 33250.7 50188.8 Q 33938.8 49964.1 33904.5 49432.8 Q 33911.5 49210.2 33781.3 49052.7 Q 33650.4 48895.2 33302.5 48758.7 L 33259.8 46665.7 Z M 42620.9 47411.2 L 35094.5 47411.2 L 35194.6 47827 L 44642.5 47827 Q 44982.7 47830.5 45043.6 47597.4 Q 44627.8 47225.7 44160.9 46837.9 Q 44038.4 46736.4 43929.9 46646.1 Q 43509.9 46301 43481.2 46278.6 L 42620.9 47411.2 Z M 46606 43884.6 L 45717.7 44730.2 L 38678.5 44730.2 L 38678.5 39526.4 L 44198 39526.4 Q 44044 42383.1 43610 42766 Q 43528.8 42829.7 43430.8 42855.6 Q 43333.5 42882.2 43165.5 42880.8 Q 42931.7 42880.1 42434.7 42852.1 Q 41937 42824.8 41531.7 42780.7 L 41531.7 42966.9 Q 42399 43139.1 42749.7 43482.8 Q 42907.2 43652.2 42959.7 43872 Q 43012.2 44091.8 43008 44400.5 Q 43597.4 44406.8 44048.9 44323.5 Q 44501.1 44240.9 44842.7 43999.4 Q 45327.8 43654.3 45559.5 42669.4 Q 45791.9 41685.2 45889.2 39813.4 Q 46305 39727.3 46463.2 39555.1 L 44928.8 38293.7 L 44069.2 39125.3 L 40570.6 39125.3 Q 40877.9 38871.9 41190.8 38599.6 Q 41503.7 38328 41746.6 38106.8 Q 42237.3 38103.3 42319.9 37734.4 L 39782.4 37289.9 Q 39764.9 37509.7 39746.7 37766.6 Q 39722.2 38111.7 39692.8 38467.3 Q 39663.4 38822.9 39624.9 39125.3 L 38893.4 39125.3 L 36986.6 38379.8 L 36986.6 44558 Q 36729 44762.4 36556.8 44988.5 L 38262.7 45977.6 L 38778.6 45146 L 45861.2 45146 Q 45799.6 46764.4 45674.3 47780.1 Q 45549 48796.5 45315.9 49017 Q 45176.6 49156.3 44842.7 49145.8 Q 44561.3 49143.7 43883 49105.2 Q 43818.6 49101 43752.1 49096.8 Q 43058.4 49055.5 42448.7 49002.3 L 42448.7 49189.2 Q 43008 49287.2 43470 49441.2 Q 43932.7 49595.9 44169.3 49791.2 Q 44588.6 50146.1 44556.4 50823 Q 45289.3 50826.5 45763.9 50713.8 Q 46239.2 50601.1 46563.3 50335.8 Q 47058.2 49933.3 47282.2 48720.9 Q 47505.5 47509.2 47581.1 45418.3 Q 48000.4 45343.4 48140.4 45160.7 L 46606 43884.6 Z M 39581.5 40229.2 Q 39997.3 40628.2 40404 41191 Q 40811.4 41754.5 41001.1 42336.2 Q 41655.6 42659.6 42091 42374.7 Q 42487.9 42116.4 42492.1 41629.9 Q 42495.6 41144.1 41906.2 40703.1 Q 41268.5 40219.4 39682.3 40128.4 L 39581.5 40229.2 Z M 52397.8 44415.2 L 52397.8 40873.9 L 54978.7 40873.9 L 54978.7 44415.2 L 52397.8 44415.2 Z M 59379.6 40873.9 L 59379.6 44415.2 L 56698.6 44415.2 L 56698.6 40873.9 L 59379.6 40873.9 Z M 58576.7 46522.2 Q 59239.6 47296.4 59795.4 48285.5 Q 59692.5 48291.1 59590.3 48296.7 Q 58095.8 48380 56698.6 48443.7 L 56698.6 44816.3 L 59379.6 44816.3 L 59379.6 45748 L 59651.9 45748 Q 60117.4 45730.5 60571 45559.7 Q 60584.3 45554.8 60596.9 45549.9 Q 61043.5 45377.7 61085.5 45274.8 L 61085.5 41146.2 Q 61504.8 41039.1 61644.8 40845.2 L 60010.3 39612.5 L 59236.1 40472.8 L 56698.6 40472.8 L 56698.6 38164.2 Q 56982.1 38119.4 57093.4 38010.2 Q 57204 37901 57229.2 37748.4 L 54978.7 37533.5 L 54978.7 40472.8 L 52512.6 40472.8 L 50706.6 39756 L 50706.6 45991.6 L 50950.2 45991.6 Q 51501.8 45974.8 51937.2 45791.4 Q 52373.3 45607.3 52397.8 45461.7 L 52397.8 44816.3 L 54978.7 44816.3 L 54978.7 48529.1 Q 53245.5 48604.7 51901.5 48647.4 Q 50558.2 48690.8 49760.2 48701.3 L 50376.9 50608.1 Q 50627.5 50557.7 50792.7 50292.4 Q 53834.2 49822 56098.7 49423.7 Q 58363.2 49025.4 59996.3 48672.6 Q 60440.8 49565.1 60583.6 50435.9 Q 61254.2 50915.4 61720.4 50613.7 Q 62183.8 50314.1 62162.8 49568.6 Q 62141.8 48823.1 61356.4 47956.5 Q 60566.8 47085.7 58720.2 46422.1 L 58576.7 46522.2 Z M 71450.4 39583.8 Q 71207.5 40072.4 70875.7 40640.8 Q 70543.2 41209.9 70203.7 41676.8 L 67421.9 41676.8 L 66719.8 41418.5 Q 67587.1 40533.7 68282.2 39583.8 L 71450.4 39583.8 Z M 73514.7 42077.9 L 73514.7 44501.3 L 71178.1 44501.3 L 71178.1 42077.9 L 73514.7 42077.9 Z M 71178.1 47353.8 L 71178.1 44916.4 L 73514.7 44916.4 L 73514.7 47353.8 L 71178.1 47353.8 Z M 67235.7 44916.4 L 69543.6 44916.4 L 69543.6 47353.8 L 67235.7 47353.8 L 67235.7 44916.4 Z M 67235.7 42077.9 L 69543.6 42077.9 L 69543.6 44501.3 L 67235.7 44501.3 L 67235.7 42077.9 Z M 65544.5 48902.2 L 65845.5 48902.2 Q 66496.5 48882.6 66863.3 48699.9 Q 67229.4 48516.5 67235.7 48400.3 L 67235.7 47755.6 L 73514.7 47755.6 L 73514.7 48557.8 L 73787.7 48557.8 Q 74249.7 48542.4 74701.2 48384.2 Q 75152.7 48226 75206.6 48114 L 75206.6 42364.9 Q 75644.1 42239.6 75779.9 42049.2 L 74160.1 40802.5 L 73371.9 41676.8 L 70704.9 41676.8 Q 71435.7 41275.7 72137.1 40775.2 Q 72837.8 40274.7 73385.9 39842.1 Q 73830.4 39816.9 73973.9 39641.2 L 72382.8 38265 L 71479.1 39182 L 68569.2 39182 Q 68938.1 38648.6 69242.6 38135.5 Q 69526.1 38168.4 69647.9 38123.6 Q 69769.7 38078.1 69816.6 37949.3 L 67465.3 37362 Q 67003.3 38723.5 66203.2 40173.2 Q 65918.3 40688.4 65606.1 41179.1 Q 64729 42563 63766.5 43497.5 L 63895.3 43626.3 Q 64741.6 43146.1 65544.5 42493.7 L 65544.5 48902.2 Z M 73916.5 49848.6 L 63695.1 49848.6 L 63795.2 50249.7 L 76410.6 50249.7 Q 76736.8 50253.2 76826.4 50020.1 Q 76358.1 49614.8 75822.6 49192.7 Q 75616.8 49030.3 75441.1 48893.1 Q 74978.4 48536.1 74948.3 48515.1 L 73916.5 49848.6 Z M 79421.3 38006.7 Q 79865.8 38568.8 80224.2 39305.9 Q 80582.6 40043 80682.7 40787.8 Q 81316.2 41249.8 81801.3 41010.4 Q 82273.8 40778 82336.8 40187.9 Q 82400.5 39597.8 81789.4 38958 Q 81164.3 38302.1 79550.8 37920.6 L 79421.3 38006.7 Z M 84783.3 43526.2 Q 85182.3 44194 85455.3 45006 Q 85727.6 45818.7 85729 46637 Q 86352.7 47171.1 86871.4 46962.5 Q 87376.8 46759.5 87494.4 46142.8 Q 87612 45525.4 87059.7 44786.9 Q 86494.8 44030.2 84926.8 43454.8 L 84783.3 43526.2 Z M 89600 40558.9 L 88653.6 41519.3 L 85113 41519.3 Q 85262.1 40003.1 85297.1 38519.1 Q 85305.5 38298.6 85313.2 38078.8 Q 85801.1 37996.2 85815.1 37677 L 83421.1 37433.4 Q 83456.8 39476 83277.6 41519.3 L 78303.4 41519.3 L 78432.2 41935.1 L 83234.9 41935.1 Q 83025.6 43928.7 82114.2 45853.7 Q 81847.5 46395.5 81503.1 46928.2 Q 80315.2 48820.3 77872.9 50550.7 L 78031.1 50765.6 Q 80863.3 49430.7 82370.4 47798.3 Q 83381.2 46721.7 83963.6 45557.6 Q 84823.9 43795 85055.6 41935.1 L 88797.1 41935.1 Q 88716.6 44853.4 88517.8 46656.6 Q 88319 48459.8 87936.8 48830.8 Q 87824.1 48926.7 87700.2 48972.2 Q 87577 49017 87378.2 49017 Q 87063.2 49013.5 86391.2 48965.2 Q 86384.9 48965.2 86379.3 48964.5 Q 85705.9 48915.5 85113 48858.8 L 85098.3 49059.7 Q 85664.6 49157 86103.5 49315.9 Q 86543.1 49474.8 86775.5 49690.4 Q 87152.1 50045.3 87119.9 50765.6 Q 87877.3 50772.6 88413.5 50631.2 Q 88950.4 50490.5 89341.7 50120.9 Q 89941.6 49551.1 90211.1 47645.7 Q 90480.6 45740.3 90575.1 42236.1 Q 91051.8 42167.5 91205.8 41949.1 L 89600 40558.9 Z M 102330.2 37935.3 Q 102767.7 38272.7 103205.2 38778.8 Q 103642 39285.6 103864.6 39784.7 Q 104493.9 40026.9 104847.4 39701.4 Q 105142.1 39433.3 105095.2 39008.4 Q 105048.3 38584.2 104527.5 38232.1 Q 103917.8 37807.9 102445 37834.5 L 102330.2 37935.3 Z M 99821.4 47038.8 Q 98814.8 47135.4 97830.6 47216.6 Q 97524.7 47242.5 97226.5 47267.7 L 97226.5 46006.3 L 99520.4 46006.3 Q 99824.9 46009.8 99893.5 45776.7 Q 99502.9 45415.5 99076.6 45067.6 Q 99017.8 45020 98963.2 44975.2 Q 98560.7 44651.1 98531.3 44630.1 L 97785.8 45590.5 L 97226.5 45590.5 L 97226.5 44601.4 Q 97490.4 44557.3 97603.1 44454.4 Q 97715.8 44351.5 97743.1 44199.6 L 95965.1 44013.4 L 95965.1 45590.5 L 94646.3 45590.5 Q 94682.7 45521.2 94721.2 45448.4 Q 95131.4 44686.8 95564 43798.5 L 99348.2 43798.5 Q 99645.7 43802 99706.6 43568.9 Q 99319.5 43221.7 98884.1 42884.3 Q 98816.9 42831.8 98753.9 42782.8 Q 98346.5 42471.3 98316.4 42451 L 97570.9 43382.7 L 95778.9 43382.7 Q 95997.3 42931.2 96151.3 42565.8 Q 96427.8 42593.8 96572.7 42517.5 Q 96717.6 42440.5 96768 42307.5 L 94904.6 41719.5 Q 94794 42026.8 94605 42460.1 Q 94416.7 42893.4 94187.8 43382.7 L 92467.2 43382.7 L 92582 43798.5 L 93986.9 43798.5 Q 93589.3 44637.1 93212.7 45303.5 Q 92854.3 45440 92624.7 45619.2 L 93958.2 46594.3 L 94531.5 46006.3 L 95750.2 46006.3 L 95750.2 47397.2 Q 94635.1 47482.6 93769.9 47536.5 Q 92904.7 47590.4 92381.1 47612.1 L 93083.9 49446.8 Q 93356.2 49396.4 93499.7 49131.8 Q 94246.6 48933 94919.3 48744 Q 95348.4 48624.3 95750.2 48515.1 L 95750.2 50780.3 L 96022.5 50780.3 Q 96586.7 50764.9 96904.5 50626.3 Q 97221.6 50487 97226.5 50407.2 L 97226.5 48085.3 Q 98810.6 47597.4 99836.1 47239 L 99821.4 47038.8 Z M 105570.5 46866.6 L 105412.3 46851.9 Q 105233.1 47320.9 105013.3 47814.4 Q 104792.8 48307.9 104624.1 48615.2 Q 104531.7 48797.2 104434.4 48812.6 Q 104336.4 48828 104179.6 48687.3 Q 103380.2 48124.5 102860.8 47239 Q 103599.3 46320.6 104133.4 45332.2 Q 104666.8 44344.5 105039.9 43340 Q 105314.3 43360.3 105446.6 43300.1 Q 105578.9 43240.6 105627.9 43110.4 L 103491.5 42192.7 Q 103129.6 44028.1 102230.1 45820.1 Q 101674.3 44031.6 101570.7 41705.5 L 105340.9 41705.5 Q 105660.1 41709 105742 41475.9 Q 105327.6 41087.4 104857.2 40690.5 Q 104729.8 40582 104616.4 40487.5 Q 104194.3 40136.1 104165.6 40114.4 L 103305.3 41289.7 L 101556 41289.7 Q 101506.3 39779.1 101542 38160.7 Q 101542 38155.8 101542 38150.2 Q 101805.2 38113.8 101917.9 38005.3 Q 102031.3 37896.1 102057.9 37763.1 L 99979.6 37504.8 Q 99968.4 39483.7 100065 41289.7 L 96796.7 41289.7 L 96796.7 39741.3 L 99176.7 39741.3 Q 99470 39744.8 99549.1 39512.4 Q 99201.2 39142.1 98798 38782.3 Q 98738.5 38727.7 98682.5 38678 Q 98302.4 38344.1 98273 38322.4 L 97570.9 39325.5 L 96796.7 39325.5 L 96796.7 38092.8 Q 97080.9 38038.9 97196.4 37933.2 Q 97311.2 37828.2 97327.3 37677 L 95263 37504.8 L 95263 39325.5 L 92883 39325.5 L 92997.8 39741.3 L 95263 39741.3 L 95263 41289.7 L 92252.3 41289.7 L 92367.1 41705.5 L 100093.7 41705.5 Q 100195.9 43363.1 100472.4 44794.6 Q 100748.2 46226.8 101269.7 47411.2 Q 100637.6 48298.1 99839.6 49077.9 Q 99040.9 49857 98044.1 50464.6 L 98158.9 50636.8 Q 100359 49766 101785.6 48400.3 Q 102445 49443.3 103405.4 50163.6 Q 103912.9 50546.5 104515.6 50745.3 Q 104590.5 50767.7 104664 50783.1 Q 105260.4 50933.6 105656.6 50508 Q 105800.8 50342.8 105724.5 50040.4 Q 105648.2 49738 105298.2 49217.2 L 105570.5 46866.6 Z M 109498.2 41304.4 Q 110236.7 39960.4 110803 38379.8 Q 111304.9 38368.6 111376.3 38078.8 L 109011 37376 Q 108630.2 39410.9 107950.5 41330.3 Q 107909.2 41447.9 107867.2 41564.1 Q 107174.9 43463.2 106387.4 44831 L 106559.6 44945.1 Q 107359 44278.7 108050.6 43440.1 L 108050.6 50837.7 L 108365.6 50837.7 Q 108872.4 50818.8 109276.3 50642.4 Q 109680.2 50465.3 109713.1 50349.8 L 109713.1 41834.3 Q 110104.4 41755.9 110172.3 41548 L 109498.2 41304.4 Z M 119389.9 40960 Q 119702.1 40963.5 119777 40730.4 Q 119376.6 40337 118908.3 39930.3 Q 118769.7 39809.2 118647.2 39704.2 Q 118229.3 39347.9 118200.6 39325.5 L 117340.3 40544.2 L 115677.1 40544.2 L 115677.1 38050.1 Q 115962 38006 116076.8 37901 Q 116191.6 37796 116207.7 37634.3 L 113999.9 37418.7 L 113999.9 40544.2 L 110301.1 40544.2 L 110415.9 40960 L 113197 40960 Q 112765.1 42927 111924.4 44821.9 Q 111084.4 46716.1 109856.6 48156.7 L 110014.8 48314.2 Q 112620.2 46403.9 113999.9 43612.3 L 113999.9 47511.3 L 111863.5 47511.3 L 111964.3 47913.1 L 113999.9 47913.1 L 113999.9 50895.1 L 114315.6 50895.1 Q 114823.8 50874.1 115238.2 50665.5 Q 115652.6 50456.9 115677.1 50307.1 L 115677.1 47913.1 L 117684 47913.1 Q 117996.2 47916.6 118071.1 47683.5 Q 117714.1 47302.7 117299.7 46912.8 Q 117212.9 46830.2 117133.8 46756 Q 116751.6 46402.5 116723.6 46378.7 L 115964.1 47511.3 L 115677.1 47511.3 L 115677.1 40960 L 115705.8 40960 Q 116118.8 43361 116861.5 45181.7 Q 117604.9 47002.4 118759.2 48199.4 Q 118958.7 47606.5 119327.6 47250.2 Q 119696.5 46893.2 120164.1 46794.5 L 120221.5 46651.7 Q 118890.1 45836.2 117765.2 44354.3 Q 116639.6 42872.4 115964.1 40960 L 119389.9 40960 Z M 121397.5 52744.5 Q 122669.4 52141.1 123221 51138.7 Q 123243.4 51100.9 123264.4 51063.1 Q 123791.5 50053 123776.8 49059.7 Q 123764.2 48312.8 123397.4 47907.5 Q 123029.9 47502.2 122458 47497.3 Q 121892.4 47512.7 121569 47853.6 Q 121245.6 48194.5 121239.3 48672.6 Q 121273.6 49336.9 121747.5 49668.7 Q 121804.9 49713.5 121865.8 49754.1 Q 122367 50053.7 122845.1 50192.3 Q 122783.5 50701.2 122404.1 51274.5 Q 122025.4 51848.5 121167.9 52314 L 121397.5 52744.5 Z M 148449 43669.7 Q 148764.7 43622.8 148822.1 43382.7 Q 148341.2 43046 147812 42705.1 Q 147663.6 42609.2 147532.7 42525.2 Q 147061.6 42225.6 147030.1 42207.4 L 146298.6 43554.9 L 144306.4 43841.2 L 144306.4 40042.3 L 144306.4 39712.6 Q 145904.5 39350.7 147072.8 38967.1 Q 147746.9 39164.5 147990.5 38909.7 L 146141.1 37418.7 Q 145334.7 37982.2 144060 38638.1 Q 143608.5 38869.8 143130.4 39096.6 Q 141781.5 39737.8 140492.8 40200.5 L 140550.2 40372 Q 140236.6 40049.3 139997.9 39814.8 Q 139759.9 39580.3 139747.3 39569.1 L 138987.8 40759.1 L 138815.6 40759.1 L 138815.6 37978 Q 139328 37906.6 139346.2 37576.9 L 137238.5 37376 L 137238.5 40759.1 L 135231.6 40759.1 L 135346.4 41174.9 L 137238.5 41174.9 L 137238.5 43898.6 Q 135740.5 44289.2 135016.7 44443.9 L 135690.1 46393.4 Q 135962.4 46289.1 136063.2 45991.6 Q 136180.8 45927.2 136294.9 45863.5 Q 136787 45591.2 137238.5 45346.9 L 137238.5 48773.4 Q 137256.7 49017 136951.5 49002.3 Q 136750.6 49000.2 136293.5 48977.1 Q 136086.3 48966.6 135893.8 48956.1 Q 135468.2 48933 135432.5 48930.9 L 135432.5 49131.8 Q 135886.8 49206.7 136140.2 49335.5 Q 136392.9 49465 136536.4 49647.7 Q 136797.5 50027.8 136822.7 50794.3 Q 138058.9 50672.5 138448.1 50229.4 Q 138481 50194.4 138511.1 50158 Q 138852 49689 138815.6 48873.5 L 138815.6 44415.2 Q 140191.8 43583.6 141008.7 43010.3 L 140966 42852.1 Q 140215.6 43075.4 139466.6 43284.7 Q 139137.6 43377.1 138815.6 43468.8 L 138815.6 41174.9 L 140693.7 41174.9 Q 141016.4 41178.4 141080.8 40946 Q 140854.7 40677.2 140564.2 40386.7 Q 141582 40253.7 142643.2 40057 L 142643.2 44070.8 L 140077 44429.2 L 140220.5 44831 L 142643.2 44486.6 L 142643.2 48802.1 Q 142623.6 49698.8 143023.3 50040.4 Q 143423 50381.3 144477.9 50364.5 L 145797.4 50364.5 Q 147504.7 50366.6 148137.5 50118.8 Q 148770.3 49871 148736 49346.7 Q 148743 49101.7 148621.2 48927.4 Q 148499.4 48752.4 148162.7 48615.2 L 148105.3 46422.1 L 147961.8 46422.1 Q 147913.5 46588 147865.9 46750.4 Q 147690.2 47364.3 147541.8 47836.8 Q 147393.4 48309.3 147288.4 48500.4 Q 147155.4 48716 146915.3 48716 Q 146801.9 48716 146620.6 48720.9 Q 146347.6 48728.6 145968.9 48730 L 144865 48730 Q 144538.8 48733.5 144419.1 48642.5 Q 144299.4 48551.5 144306.4 48328.9 L 144306.4 44257 L 148449 43669.7 Z M 151116 40831.2 Q 151395.3 39996.1 151589.2 39096.6 Q 151804.1 39071.4 151932.9 38981.8 L 151932.9 40831.2 L 151116 40831.2 Z M 161652.4 39254.1 L 160764.1 40185.8 L 156936.5 40185.8 Q 157398.5 39333.2 157753.4 38307.7 Q 158237.1 38304.2 158312.7 38021.4 L 156147.6 37376 Q 155875.3 39142.8 155258.6 40673 Q 154917.7 40301.3 154624.4 40001 Q 154331.8 39701.4 154312.9 39683.9 L 153581.4 40831.2 L 153510 40831.2 L 153510 37992.7 Q 153793.5 37948.6 153902 37845.7 Q 154011.2 37742.8 154025.9 37590.9 L 151932.9 37376 L 151932.9 38709.5 L 150140.9 38379.8 Q 150117.8 39734.3 149954.7 41078.3 Q 149791.6 42422.3 149510.2 43497.5 L 149725.1 43597.6 Q 150488.8 42626.7 150972.5 41247 L 151932.9 41247 L 151932.9 44558 Q 151130.7 44763.8 150506.3 44909.4 Q 149881.9 45055.7 149510.2 45132 L 150227 47024.1 Q 150481.1 46927.5 150585.4 46637 Q 150741.5 46552.3 150894.8 46469 Q 151442.9 46175 151932.9 45891.5 L 151932.9 50823 L 152248.6 50823 Q 152722.5 50807.6 153104.7 50647.3 Q 153487.6 50487 153510 50364.5 L 153510 44973.8 Q 154653.1 44285.7 155388.1 43813.2 L 155344.7 43641 Q 155344 43641 155342.6 43641.7 Q 154415.8 43902.8 153510 44142.9 L 153510 41247 L 155015 41247 Q 154517.3 42371.9 153911.1 43196.5 L 154069.3 43325.3 Q 155617 42339.7 156692.2 40601.6 L 157151.4 40601.6 Q 156832.9 42294.2 156027.9 43938.5 Q 155222.9 45582.8 154011.9 46866.6 L 154140.7 47024.1 Q 155843.8 45864.9 156995.3 44199.6 Q 158146.8 42535 158699.8 40601.6 L 159072.2 40601.6 Q 158784.5 43193 157676.4 45580 Q 156568.3 47967 154484.4 49762.5 L 154599.2 49906 Q 157259.9 48397.5 158710.3 46114.8 Q 158843.3 45910.4 158967.9 45701.8 Q 160323.8 43364.5 160792.8 40601.6 L 160921.6 40601.6 Q 160795.6 44055.4 160524 46130.2 Q 160252.4 48204.3 159803.7 48615.2 Q 159670 48732.1 159539.8 48781.8 Q 159409.6 48831.5 159201 48830.8 Q 158917.5 48828 158366.6 48788.8 Q 157815.7 48749.6 157264.1 48704.8 Q 157146.5 48695.7 157036.6 48687.3 L 157036.6 48887.5 Q 157568.6 48996.7 157971.8 49161.9 Q 158375 49327.1 158585 49532.9 Q 158932.2 49894.8 158914.7 50708.2 Q 159628 50711 160147.4 50525.5 Q 160666.8 50340 161079.1 49934 Q 161725.9 49301.2 162061.2 47103.2 Q 162396.5 44905.2 162527.4 40873.9 Q 163018.1 40780.8 163186.8 40601.6 L 161652.4 39254.1 Z M 168949.9 37462.1 Q 169306.2 37840.1 169598.8 38390.3 Q 169890.7 38940.5 169967.7 39512.4 Q 170594.2 39900.9 171061.8 39657.3 Q 171506.3 39426.3 171571.4 38930 Q 171636.5 38433 171093.3 37973.8 Q 170526.3 37490.8 169036 37390 L 168949.9 37462.1 Z M 174799.1 42350.9 Q 175128.8 42354.4 175200.2 42121.3 Q 174756.4 41753.8 174276.2 41389.1 Q 174171.2 41309.3 174076 41237.2 Q 173639.2 40908.9 173609.1 40888.6 L 172748.8 41949.1 L 166240.2 41949.1 L 166355 42350.9 L 174799.1 42350.9 Z M 174870.5 44443.9 Q 175182 44447.4 175257.6 44214.3 Q 174822.2 43847.5 174344.1 43487.7 Q 174241.2 43409.3 174147.4 43339.3 Q 173711.3 43015.9 173680.5 42995.6 L 172806.2 44028.1 L 166254.9 44028.1 L 166369 44443.9 L 174870.5 44443.9 Z M 168003.5 49432.8 L 168003.5 46536.9 L 173121.2 46536.9 L 173121.2 49432.8 L 168003.5 49432.8 Z M 172978.4 46135.1 L 168103.6 46135.1 L 166311.6 45433 L 166311.6 50809 L 166555.9 50809 Q 167097.7 50789.4 167538 50595.5 Q 167977.6 50401.6 168003.5 50264.4 L 168003.5 49848.6 L 173121.2 49848.6 L 173121.2 50679.5 L 173422.9 50679.5 Q 173859 50665.5 174323.8 50528.3 Q 174358.1 50518.5 174391.7 50508.7 Q 174841.1 50369.4 174885.2 50292.4 L 174885.2 46851.9 Q 175354.2 46730.1 175501.2 46522.2 L 173781.3 45246.8 L 172978.4 46135.1 Z M 174669.6 39870.8 L 163888.9 39870.8 L 164003.7 40285.9 L 176892.1 40285.9 Q 177218.3 40290.1 177307.9 40057 Q 176859.9 39664.3 176357.3 39268.1 Q 176208.2 39149.8 176077.3 39046.9 Q 175631.4 38701.1 175602 38680.8 L 174669.6 39870.8 Z M 178598 40587.6 L 184031.4 40587.6 L 184031.4 43325.3 L 179443.6 43325.3 L 179558.4 43741.1 L 190195.6 43741.1 Q 190518.3 43744.6 190582.7 43511.5 Q 190148.7 43113.9 189648.9 42708.6 Q 189488.6 42577 189347.9 42464.3 Q 188906.2 42113.6 188876.8 42092.6 L 187945.1 43325.3 L 185751.3 43325.3 L 185751.3 40587.6 L 191084.6 40587.6 Q 191414.3 40591.1 191485.7 40358 Q 191046.1 39963.2 190555.4 39560.7 Q 190414 39443.8 190288.7 39341.6 Q 189851.9 38988.8 189823.2 38967.1 L 188890.8 40185.8 L 185751.3 40185.8 L 185751.3 38050.1 Q 186057.2 37996.2 186183.2 37888.4 Q 186309.2 37781.3 186325.3 37619.6 L 184031.4 37418.7 L 184031.4 40185.8 L 178469.2 40185.8 L 178598 40587.6 Z M 184346.4 44386.5 Q 184770.6 44969.6 185091.9 45730.5 Q 185413.9 46490.7 185450.3 47267.7 Q 186035.5 47729 186492.6 47484.7 Q 186909.1 47264.9 186977 46708.4 Q 187045.6 46152.6 186535.3 45508.6 Q 185983.7 44803.7 184461.2 44300.4 L 184346.4 44386.5 Z M 180189.1 45360.9 Q 180198.2 46204.4 179820.2 46859.6 Q 179442.2 47514.1 178956.4 47798.3 Q 178626 47973.3 178472.7 48269.4 Q 178319.4 48565.5 178440.5 48944.9 Q 178621.8 49320.8 179034.8 49376.8 Q 179448.5 49432.8 179845.4 49174.5 Q 180424.3 48795.1 180672.8 47834.7 Q 180677 47816.5 180680.5 47797.6 Q 180918.5 46827.4 180390 45360.9 L 180189.1 45360.9 Z M 188475.7 46809.2 L 188317.5 46809.2 Q 187852 48214.1 187600.7 48629.9 Q 187521.6 48746.1 187434.1 48797.9 Q 187346.6 48850.4 187170.9 48858.8 Q 186979.8 48870 186601.1 48879.1 Q 186221.7 48887.5 185751.3 48887.5 L 184002.7 48887.5 Q 183595.3 48890.3 183470 48823.1 Q 183345.4 48755.9 183357.3 48586.5 L 183357.3 45260.8 Q 183794.8 45171.2 183801.8 44888.4 L 181666.1 44716.2 L 181666.1 48930.9 Q 181638.8 49782.8 182074.2 50083.1 Q 182509.6 50383.4 183730.4 50364.5 L 185579.8 50364.5 Q 187523 50370.8 188301.4 50182.5 Q 188433 50151 188540.8 50113.2 Q 189170.8 49885.7 189135.1 49375.4 Q 189143.5 49152.8 189013.3 48995.3 Q 188882.4 48837.8 188504.4 48701.3 L 188475.7 46809.2 Z M 188447 45218.1 Q 188992.3 45912.5 189457.1 46803.6 Q 189922.6 47694.7 190080.8 48572.5 Q 190720.6 49028.9 191173.5 48745.4 Q 191604.7 48477.3 191613.1 47830.5 Q 191622.2 47184.4 190962.1 46448.7 Q 190274 45676.6 188575.8 45132 L 188447 45218.1 Z M 193077.5 52744.5 Q 194349.4 52141.1 194901 51138.7 Q 194923.4 51100.9 194944.4 51063.1 Q 195471.5 50053 195456.8 49059.7 Q 195444.2 48312.8 195077.4 47907.5 Q 194709.9 47502.2 194138 47497.3 Q 193572.4 47512.7 193249 47853.6 Q 192925.6 48194.5 192919.3 48672.6 Q 192953.6 49336.9 193427.5 49668.7 Q 193484.9 49713.5 193545.8 49754.1 Q 194047 50053.7 194525.1 50192.3 Q 194463.5 50701.2 194084.1 51274.5 Q 193705.4 51848.5 192847.9 52314 L 193077.5 52744.5 Z M 206983 39669.9 Q 207361 40319.5 207622.8 41133.6 Q 207885.3 41947.7 207886 42738 Q 208445.3 43233.6 208896.1 42994.9 Q 209286 42790.5 209372.1 42246.6 Q 209458.2 41702.7 209034.7 41025.8 Q 208557.3 40246 207126.5 39583.8 L 206983 39669.9 Z M 209520.5 37418.7 L 209520.5 44530 Q 208722.5 45062 207992.4 45474.3 Q 207261.6 45885.9 206754.1 46106.4 L 207872 48041.9 Q 207991.7 47962.1 208060.3 47823.5 Q 208128.9 47684.2 208130.3 47540 Q 208954.2 46447.3 209520.5 45504.4 L 209520.5 50809 L 209836.2 50809 Q 210324.8 50790.8 210741.3 50592 Q 211157.1 50393.2 211183.7 50235.7 L 211183.7 38050.1 Q 211466.5 38005.3 211577.8 37895.4 Q 211689.1 37786.2 211714.3 37634.3 L 209520.5 37418.7 Z M 211570.8 44773.6 Q 214464.6 44107.9 216380.5 42834.6 Q 218296.4 41561.3 219469.6 39798.7 Q 220000.2 39766.5 220143.7 39583.8 L 218566.6 38293.7 L 217735 39096.6 L 215011.3 39096.6 Q 215070.8 39022.4 215128.9 38949.6 Q 215498.5 38502.3 215799.5 38064.1 Q 216073.2 38073.9 216188.7 38013.7 Q 216303.5 37954.2 216330.1 37834.5 L 214022.2 37390 Q 213670.1 38481.3 213038.7 39646.8 Q 212968.7 39774.2 212897.3 39900.2 Q 212245.6 41048.9 211527.4 41834.3 L 211656.9 41963.8 Q 212513 41490.6 213305.4 40802.5 Q 213514 41074.8 213653.3 41389.8 Q 213791.9 41705.5 213807.3 42021.2 Q 214362.4 42381 214774 42152.8 Q 215061 42000.9 215158.3 41699.9 Q 215255.6 41399.6 215068.7 41077.6 Q 214816.7 40611.4 213778.6 40400.7 Q 214237.1 39967.4 214652.9 39512.4 L 217634.9 39512.4 Q 215642 42812.9 211456 44586.7 L 211570.8 44773.6 Z M 212760.8 45705.3 Q 213206 46161.7 213579.8 46803.6 Q 213952.9 47445.5 214064.9 48085.3 Q 214659.9 48462.6 215072.9 48192.4 Q 215431.3 47960 215450.2 47474.2 Q 215469.8 46987.7 214963.7 46480.2 Q 214393.9 45896.4 212889.6 45605.2 L 212760.8 45705.3 Z M 218337 44931.1 L 218251.6 44931.1 L 218251.6 43411.4 Q 218710.1 43332.3 218738.8 43039 L 216631.1 42838.1 L 216631.1 44931.1 L 211570.8 44931.1 L 211685.6 45346.9 L 216631.1 45346.9 L 216631.1 48844.8 Q 216659.8 49120.6 216301.4 49117.1 Q 216089.3 49114.3 215545.4 49080 Q 215114.2 49052.7 214723.6 49025.4 Q 214230.1 48991.1 214194.4 48988.3 L 214194.4 49189.2 Q 214806.2 49284.4 215133.1 49418.1 Q 215460 49551.8 215642 49733.8 Q 215982.9 50109.7 216043.8 50851.7 Q 217375.2 50731.3 217816.9 50298.7 Q 217875.7 50245.5 217924.7 50187.4 Q 218287.3 49715.6 218251.6 48916.2 L 218251.6 45346.9 L 220014.9 45346.9 Q 220312.4 45350.4 220373.3 45117.3 Q 220062.5 44725.3 219667 44310.9 Q 219564.1 44202.4 219471 44105.8 Q 219109.8 43736.2 219082.5 43712.4 L 218337 44931.1 Z M 225462.3 37576.9 Q 226131.5 38089.3 226774.1 38848.8 Q 227416.7 39609 227741.5 40400.7 Q 228452 40729 228883.9 40389.5 Q 229315.1 40050.7 229229 39409.5 Q 229227.6 39399 229225.5 39389.2 Q 229128.9 38745.9 228272.8 38172.6 Q 227416.7 37599.3 225562.4 37462.1 L 225462.3 37576.9 Z M 231784.7 49747.8 L 228831.4 49747.8 L 228831.4 45418.3 L 233117.5 45418.3 Q 233429.7 45421.8 233504.6 45189.4 Q 233050.3 44790.4 232539.3 44389.3 Q 232378.3 44261.9 232236.9 44152.7 Q 231785.4 43804.8 231756 43784.5 L 230780.9 45002.5 L 228831.4 45002.5 L 228831.4 41332.4 L 233648.1 41332.4 Q 233984.8 41336.6 234063.9 41103.5 Q 233596.3 40708 233073.4 40299.9 Q 232897 40161.3 232743.7 40042.3 Q 232287.3 39690.9 232257.2 39669.9 L 231254.1 40931.3 L 222194 40931.3 L 222308.1 41332.4 L 226982 41332.4 L 226982 45002.5 L 222796 45002.5 L 222910.8 45418.3 L 226982 45418.3 L 226982 49747.8 L 221232.9 49747.8 L 221347.7 50149.6 L 234250.1 50149.6 Q 234586.8 50153.1 234665.9 49920 Q 234183.6 49518.2 233649.5 49100.3 Q 233458.4 48950.5 233294.6 48823.1 Q 232831.9 48464.7 232802.5 48443.7 L 231784.7 49747.8 Z M 239970.5 38265 L 239167.6 39154 L 235540.2 39154 L 235669.7 39569.1 L 239282.4 39569.1 Q 239117.2 41235.8 238737.1 42924.2 Q 237755.7 41842 236214.3 40716.4 L 236013.4 40816.5 Q 236569.2 41660.7 237157.2 42633.7 Q 237744.5 43606.7 238278.6 44644.1 Q 237809.6 46135.1 237122.9 47465.1 Q 236436.2 48794.4 235482.8 49877.3 L 235655 50020.1 Q 236770.1 49221.4 237594 48260.3 Q 238418.6 47299.9 238995.4 46221.2 Q 239425.2 47221.5 239640.8 48156.7 Q 240369.5 48711.8 240765 48240.7 Q 241081.4 47862 240981.3 46977.9 Q 240867.9 45888.7 239841 44314.4 Q 240611.7 42077.9 240887.5 39842.1 Q 241129.7 39813.4 241253.6 39763 Q 241376.8 39712.6 241446.8 39597.8 L 239970.5 38265 Z M 248672.2 47138.9 L 248500 47138.9 Q 248346.7 47753.5 248210.2 48228.1 Q 248073 48703.4 247984.1 48887.5 Q 247924.6 48992.5 247878.4 49027.5 Q 247832.2 49062.5 247740.5 49059.7 L 247195.9 49059.7 L 246607.9 49059.7 Q 246430.1 49062.5 246373.4 49017 Q 246316 48970.8 246320.9 48844.8 L 246320.9 45776.7 Q 246425.2 45759.2 246507.8 45719.3 L 246507.8 45991.6 L 246794.1 45991.6 Q 247404.5 45974.8 247762.2 45823.6 Q 248119.2 45672.4 248127.6 45590.5 L 248127.6 39024.5 Q 248370.5 38991.6 248500 38920.9 Q 248630.2 38850.2 248700.9 38752.2 L 247224.6 37605.6 L 246450.4 38493.9 L 243167.4 38493.9 L 241475.5 37849.2 L 241475.5 46149.8 L 241747.8 46149.8 Q 242344.2 46135.1 242674.6 45991.6 Q 243004.3 45848.8 243009.2 45748 L 243009.2 38895.7 L 246507.8 38895.7 L 246507.8 45389.6 L 245231.7 45274.8 Q 245384.3 44380.2 245427.7 43363.1 Q 245471.1 42346.7 245480.2 41189.6 Q 245484.4 40838.2 245490 40472.8 Q 245962.5 40383.2 246005.9 40057 L 243984.3 39870.8 Q 243985 40358 243987.1 40821.4 Q 244031.9 43018 243860.4 44728.1 Q 243736.5 45832 243376.7 46763.7 Q 243017.6 47694.7 242308.5 48477.3 Q 241227.7 49686.9 238952.7 50608.1 L 239066.8 50851.7 Q 241687.6 50123 243034.4 49068.8 Q 244381.2 48014.6 244873.3 46608.3 L 244873.3 49217.2 Q 244848.8 49906 245098.7 50183.2 Q 245349.3 50460.4 246163.4 50450.6 L 247052.4 50450.6 Q 248189.2 50448.5 248666.6 50221 Q 249144.7 49993.5 249130.7 49561.6 Q 249138.4 49360 249057.2 49217.2 Q 248976.7 49075.1 248715.6 48959.6 L 248672.2 47138.9 Z M 250765.2 39970.9 Q 250804.4 40749.3 250588.1 41479.4 Q 250371.8 42210.2 250077.1 42579.8 Q 249845.4 42801 249769.1 43071.2 Q 249692.8 43340.7 249847.5 43583.6 Q 250063.1 43857.3 250415.9 43800.6 Q 250768.7 43743.2 250994.8 43426.1 Q 251301.4 42965.5 251349.7 42074.4 Q 251398 41184 250994.8 39970.9 L 250765.2 39970.9 Z M 251754.3 37390 L 251754.3 50837.7 L 252070 50837.7 Q 252543.9 50822.3 252926.8 50662 Q 253309 50501.7 253331.4 50378.5 L 253331.4 38006.7 Q 253605.1 37962.6 253720.6 37859.7 Q 253835.4 37756.8 253862 37605.6 L 251754.3 37390 Z M 253331.4 39756 Q 253556.1 40190 253724.1 40771.7 Q 253892.1 41354.1 253890.7 41906.4 Q 254338 42308.2 254707.6 42082.8 Q 254953.3 41936.5 255030.3 41606.8 Q 255107.3 41277.8 254908.5 40859.9 Q 254634.1 40242.5 253503.6 39683.9 L 253331.4 39756 Z M 257058.9 47110.2 L 257058.9 45834.1 L 260499.4 45834.1 L 260499.4 47110.2 L 257058.9 47110.2 Z M 260499.4 44199.6 L 260499.4 45418.3 L 257058.9 45418.3 L 257058.9 44199.6 L 260499.4 44199.6 Z M 260355.9 43813.2 L 257130.3 43813.2 L 255424.4 43110.4 L 255424.4 50809 L 255668 50809 Q 256216.1 50790.8 256627 50601.1 Q 257037.9 50410.7 257058.9 50264.4 L 257058.9 47526 L 260499.4 47526 L 260499.4 48730 Q 260524.6 49005.8 260227.1 49002.3 Q 260021.3 49000.2 259579.6 48975.7 Q 259412.3 48966.6 259256.9 48957.5 Q 258843.9 48933.7 258807.5 48930.9 L 258807.5 49117.1 Q 259250.6 49202.5 259487.2 49335.5 Q 259723.1 49469.2 259854 49661.7 Q 260108.8 50027.8 260127 50823 Q 261369.5 50709.6 261761.5 50270 Q 261797.9 50232.2 261830.1 50192.3 Q 262170.3 49724.7 262133.9 48930.9 L 262133.9 44486.6 Q 262578.4 44361.3 262721.2 44171.6 L 261087.4 42952.9 L 260355.9 43813.2 Z M 261116.1 42393.6 L 259452.9 42393.6 L 259452.9 41074.8 L 262463.6 41074.8 Q 262782.8 41078.3 262864.7 40845.2 Q 262463.6 40490.3 262022.6 40131.9 Q 261942.1 40066.1 261868.6 40006.6 Q 261460.5 39676.9 261431.1 39655.2 L 260642.9 40659 L 259452.9 40659 L 259452.9 39483.7 L 262879.4 39483.7 Q 263197.9 39487.2 263280.5 39254.1 Q 262866.8 38876.8 262406.2 38500.2 Q 262303.3 38414.8 262210.2 38338.5 Q 261790.2 37999.7 261760.8 37978 L 260915.2 39067.9 L 259452.9 39067.9 L 259452.9 38021.4 Q 259705.6 37978 259807.8 37882.8 Q 259910 37788.3 259926.1 37648.3 L 257833.1 37462.1 L 257833.1 39067.9 L 254607.5 39067.9 L 254722.3 39483.7 L 257833.1 39483.7 L 257833.1 40659 L 255194.8 40659 L 255309.6 41074.8 L 257833.1 41074.8 L 257833.1 42393.6 L 254220.4 42393.6 L 254335.2 42794.7 L 263079.6 42794.7 Q 263391.8 42798.9 263466.7 42565.8 Q 263052.3 42196.9 262596.6 41821.7 Q 262497.2 41739.1 262406.9 41665.6 Q 261991.1 41326.1 261961.7 41304.4 L 261116.1 42393.6 Z M 273688.8 37504.8 Q 273912.8 37772.2 274102.5 38166.3 Q 274292.2 38560.4 274333.5 38967.1 Q 274829.8 39329 275244.2 39141.4 Q 275570.4 38997.9 275661.4 38678.7 Q 275753.1 38359.5 275447.9 38025.6 Q 275078.3 37602.1 273817.6 37433.4 L 273688.8 37504.8 Z M 266105 46464.8 Q 266070.7 47208.9 265671 47778.7 Q 265271.3 48347.8 264786.2 48586.5 Q 264464.9 48749.6 264307.4 49020.5 Q 264149.9 49290.7 264269.6 49647.7 Q 264418 49992.8 264796.7 50063.5 Q 265175.4 50134.2 265560.4 49920 Q 266153.3 49602.2 266445.2 48719.5 Q 266737.1 47836.8 266319.9 46464.8 L 266105 46464.8 Z M 270190.9 42838.1 L 270190.9 44472.6 L 268800 44472.6 L 268800 42838.1 L 270190.9 42838.1 Z M 268800 44888.4 L 270190.9 44888.4 L 270190.9 45447 L 270448.5 45447 Q 270834.9 45434.4 271237.4 45303.5 Q 271639.2 45173.3 271681.2 45074.6 L 271681.2 43039 Q 272061.3 42952.9 272183.1 42780.7 L 270735.5 41719.5 L 270061.4 42436.3 L 268871.4 42436.3 L 267337.7 41834.3 L 267337.7 45748 L 267552.6 45748 Q 268025.8 45731.2 268402.4 45568.8 Q 268778.3 45407.1 268800 45303.5 L 268800 44888.4 Z M 269875.2 45862.8 Q 270356.1 46320.6 270780.3 46979.3 Q 271204.5 47638 271351.5 48300.2 Q 271947.2 48655.1 272346.2 48369.5 Q 272691.3 48124.5 272688.5 47633.1 Q 272686.4 47142.4 272153.7 46634.2 Q 271551.7 46049 270004 45762.7 L 269875.2 45862.8 Z M 274333.5 47210.3 L 274176 47210.3 Q 273728 48436 273473.2 48802.1 Q 273403.2 48896.6 273314.3 48937.9 Q 273224.7 48979.2 273058.1 48988.3 Q 272876.1 49008.6 272495.3 49013.5 Q 272114.5 49017.7 271653.2 49017 L 269903.9 49017 Q 269507.7 49019.8 269391.5 48963.1 Q 269274.6 48906.4 269287.2 48758.7 L 269287.2 46694.4 Q 269714.2 46630 269731.7 46350 L 267596 46163.8 L 267596 49017 Q 267567.3 49816.4 267988 50099.2 Q 268408.7 50382 269616.9 50364.5 L 271466.3 50364.5 Q 273380.8 50374.3 274152.9 50226.6 Q 274302 50197.9 274420.3 50161.5 Q 275027.9 49972.5 274992.9 49490.2 Q 275002 49277.4 274871.1 49124.1 Q 274740.2 48970.8 274362.2 48844.8 L 274333.5 47210.3 Z M 274089.9 46579.6 Q 274765.4 47190.7 275312.1 48048.9 Q 275858.8 48907.8 276039.4 49776.5 Q 276683.4 50183.9 277113.2 49877.3 Q 277529.7 49579.8 277494.7 48928.8 Q 277459.7 48277.8 276726.1 47591.1 Q 275972.9 46884.1 274218.7 46479.5 L 274089.9 46579.6 Z M 277501.7 43210.5 L 277344.2 43167.8 Q 277186 43578.7 276987.9 43984.7 Q 276789.1 44390.7 276642.1 44630.1 Q 276476.9 44916.4 276182.9 44687.5 Q 275516.5 44253.5 275021.6 43669.7 Q 275932.3 42623.2 276584.7 41103.5 Q 277071.9 41121 277172 40859.9 L 275107.7 40099.7 Q 274817.2 41418.5 274247.4 42522.4 Q 273577.5 41228.8 273359.1 39698.6 L 277344.2 39698.6 Q 277656.4 39702.1 277731.3 39469 Q 277368 39102.9 276952.9 38735.4 Q 276880.8 38670.3 276813.6 38610.8 Q 276427.2 38272.7 276397.8 38250.3 L 275652.3 39282.8 L 273301.7 39282.8 Q 273237.3 38608.7 273215.6 37935.3 Q 273688.8 37827.5 273688.8 37548.2 L 271581.1 37376 Q 271602.8 38339.9 271709.9 39282.8 L 267208.9 39282.8 L 265402.2 38637.4 L 265402.2 41433.2 Q 265430.2 42829 265238.4 44337.5 Q 265234.2 44368.3 265229.3 44399.1 Q 265029.8 45906.9 264269.6 47239 L 264399.1 47368.5 Q 265714.4 46432.6 266260.4 45220.9 Q 266621.6 44450.2 266772.8 43667.6 Q 266991.9 42436.3 266965.3 41418.5 L 266965.3 39698.6 L 271767.3 39698.6 Q 271878.6 40451.1 272054.3 41160.9 Q 271628 40786.4 271201.7 40453.2 Q 271175.8 40432.9 271151.3 40413.3 Q 270736.9 40091.3 270706.8 40071 L 269932.6 41060.1 L 267036.7 41060.1 L 267151.5 41475.9 L 271767.3 41475.9 Q 272003.9 41475.9 272111.7 41347.1 Q 272509.3 42794.7 273315.7 44028.1 Q 272495.3 45117.3 271523.7 45820.1 L 271667.2 45977.6 Q 272867.7 45529.6 273875 44758.9 Q 274516.2 45533.1 275394.7 46135.1 Q 275880.5 46480.2 276496.5 46637 Q 276586.8 46657.3 276675 46668.5 Q 277284 46770.7 277659.9 46336 Q 277796.4 46160.3 277724.3 45877.5 Q 277651.5 45594 277272.8 45117.3 L 277501.7 43210.5 Z M 283824.1 38608.7 L 278777.8 38608.7 L 278892.6 39024.5 L 285673.5 39024.5 Q 285985 39028 286060.6 38795.6 Q 285662.3 38442.8 285219.2 38081.6 Q 285130.3 38008.8 285049.1 37943 Q 284641.7 37612.6 284612.3 37590.9 L 283824.1 38608.7 Z M 281129.1 42164 L 281129.1 40558.9 L 283408.3 40558.9 L 283408.3 42164 L 281129.1 42164 Z M 283651.9 43053 Q 284015.9 43041.1 284400.9 42918.6 Q 284786.6 42796.1 284827.9 42709.3 L 284827.9 40773.8 Q 285203.8 40669.5 285343.8 40501.5 L 283924.2 39440.3 L 283264.8 40157.1 L 281186.5 40157.1 L 279724.2 39569.1 L 279724.2 43167.8 L 279910.4 43167.8 Q 280372.4 43153.1 280739.9 43001.2 Q 281108.1 42849.3 281129.1 42738 L 281129.1 42565.8 L 283408.3 42565.8 L 283408.3 43053 L 283651.9 43053 Z M 280742 44443.9 Q 280910 44779.2 281024.8 45241.2 Q 281139.6 45703.2 281114.4 46135.1 Q 281495.2 46491.4 281827 46284.9 Q 282011.1 46171.5 282083.9 45936.3 Q 282156.7 45701.1 282046.8 45400.1 Q 281879.5 44874.4 280914.2 44371.8 L 280742 44443.9 Z M 283064.6 46493.5 L 282706.2 46493.5 Q 283002.3 46098.7 283263.4 45706.7 Q 283524.5 45314.7 283680.6 45017.2 Q 284042.5 45010.2 284125.1 44831 L 284125.1 46407.4 Q 283899.7 46196.7 283716.3 46047.6 Q 283533.6 45898.5 283523.1 45891.5 L 283064.6 46493.5 Z M 280426.3 44142.9 L 284125.1 44142.9 L 284125.1 44730.2 L 282763.6 44285.7 Q 282716 44696.6 282607.5 45319.6 Q 282498.3 45943.3 282376.5 46493.5 L 280426.3 46493.5 L 280426.3 44142.9 Z M 283981.6 43741.1 L 280627.2 43741.1 L 279050.1 43124.4 L 279050.1 50794.3 L 279293.7 50794.3 Q 279834.8 50776.8 280128.8 50617.2 Q 280422.8 50456.9 280426.3 50364.5 L 280426.3 46895.3 L 281616.3 46895.3 L 281616.3 49934 L 281831.2 49934 Q 282299.5 49922.8 282571.8 49819.9 Q 282843.4 49716.3 282849 49661.7 L 282849 46895.3 L 284025 46895.3 Q 284074.7 46898.8 284125.1 46880.6 L 284125.1 49103.1 Q 284146.8 49335.5 283910.2 49332 Q 283717 49329.2 283413.9 49311 Q 283110.8 49292.1 283078.6 49289.3 L 283078.6 49490.2 Q 283373.3 49553.9 283523.1 49653.3 Q 283672.9 49752 283752.7 49891.3 Q 283935.4 50185.3 283924.2 50780.3 Q 284924.5 50683.7 285215 50294.5 Q 285504.8 49905.3 285472.6 49217.2 L 285472.6 44386.5 Q 285699.4 44349.4 285856.2 44264.7 Q 286013 44179.3 286089.3 44099.5 L 284612.3 42995.6 L 283981.6 43741.1 Z M 289415 44959.8 L 289415 40917.3 L 290217.9 40917.3 L 290217.9 44959.8 L 289415 44959.8 Z M 287408.1 40917.3 L 288167.6 40917.3 L 288167.6 44959.8 L 287408.1 44959.8 L 287408.1 40917.3 Z M 290447.5 46121.1 Q 290809.4 46107.8 291181.8 45979.7 Q 291554.9 45850.9 291594.1 45762.7 L 291594.1 41117.5 Q 291981.2 41031.4 292110 40859.9 L 290748.5 39813.4 L 290089.1 40515.5 L 289529.8 40515.5 L 289529.8 38106.8 Q 290038.7 38010.2 290031.7 37720.4 L 288067.5 37548.2 L 288067.5 40515.5 L 287479.5 40515.5 L 286089.3 39942.2 L 286089.3 46450.8 L 286290.2 46450.8 Q 286727 46434.7 287058.8 46277.2 Q 287390.6 46119 287408.1 46006.3 L 287408.1 45375.6 L 288067.5 45375.6 L 288067.5 48557.8 Q 287298.2 48600.5 286684.3 48624.3 Q 286070.4 48648.1 285687.5 48658.6 L 286361.6 50622.8 Q 286619.9 50575.9 286791.4 50292.4 Q 289153.2 49461.5 290504.9 48887.5 Q 290651.9 49629.5 290648.4 50349.8 Q 291194.4 50862.9 291617.2 50568.9 Q 291939.2 50347.7 292016.9 49801.7 Q 292095.3 49255.7 291782.4 48527.7 Q 291390.4 47582.7 290074.4 46608.3 L 289902.9 46680.4 Q 290192.7 47450.4 290418.8 48415 L 289515.8 48472.4 L 289515.8 45375.6 L 290217.9 45375.6 L 290217.9 46135.1 L 290447.5 46121.1 Z M 292956.3 50823 Q 295557.5 49530.8 297389.4 47626.1 Q 299222 45721.4 300167 43612.3 Q 300780.2 45859.3 301823.2 47730.4 Q 302866.2 49600.8 304467.8 50837.7 Q 304661.7 50143.3 305186.7 49635.1 Q 305711 49126.9 306560.8 49002.3 L 306618.2 48802.1 Q 304106.6 47582 302553.3 45349.7 Q 302360.8 45079.5 302181.6 44796.7 Q 300737.5 42469.2 300109.6 39597.8 Q 299917.1 39026.6 299164.6 38426 L 299108.6 38379.8 Q 298342.1 37780.6 297443.3 37304.6 Q 297282.3 37549.6 297034.5 38011.6 Q 296787.4 38473.6 296620.8 38795.6 Q 296591.4 38852.3 296569 38895.7 Q 296696.4 38920.9 296831.5 38946.8 Q 297601.5 39088.2 298321.1 39270.9 Q 299041.4 39453.6 299292.7 39698.6 Q 298656.4 42724 297240.3 45335 Q 296873.5 46011.9 296463.3 46644 Q 294879.9 49084.9 292798.8 50636.8 L 292956.3 50823 Z M 311133.9 49274.6 L 311133.9 46508.2 L 316954.4 46508.2 L 316954.4 49274.6 L 311133.9 49274.6 Z M 316954.4 43397.4 L 316954.4 46106.4 L 311133.9 46106.4 L 311133.9 43397.4 L 316954.4 43397.4 Z M 316954.4 40372 L 316954.4 42981.6 L 311133.9 42981.6 L 311133.9 40372 L 316954.4 40372 Z M 317671.2 38995.8 L 316811.6 39956.2 L 313155.5 39956.2 Q 313667.2 39516.6 314130.6 39028 Q 314594 38540.1 314933.5 38121.5 Q 315424.2 38085.8 315463.4 37791.8 L 312897.2 37376 Q 312853.1 37952.8 312762.8 38650 Q 312673.2 39347.9 312553.5 39956.2 L 311263.4 39956.2 L 309385.3 39196.7 L 309385.3 50794.3 L 309671.6 50794.3 Q 310261.7 50775.4 310688 50559.8 Q 311114.3 50344.2 311133.9 50163.6 L 311133.9 49676.4 L 316954.4 49676.4 L 316954.4 50751.6 L 317241.4 50751.6 Q 317751 50731.3 318217.2 50538.1 Q 318224.9 50534.6 318233.3 50531.1 Q 318695.3 50337.2 318746.4 50221 L 318746.4 40673 Q 319216.1 40569.4 319363.1 40358 L 317671.2 38995.8 Z M 324051 47167.6 Q 323936.9 47950.2 323420.3 48488.5 Q 322903 49026.1 322316.4 49217.2 Q 321982.5 49381 321801.9 49660.3 Q 321621.3 49939.6 321728.4 50307.1 Q 321878.9 50705.4 322289.1 50799.9 Q 322700 50894.4 323119.3 50679.5 Q 323757 50386.2 324157.4 49551.1 Q 324184 49490.9 324208.5 49427.2 Q 324574.6 48554.3 324237.2 47181.6 L 324051 47167.6 Z M 325929.1 47382.5 Q 326097.1 48020.2 326169.2 48800 Q 326240.6 49579.8 326130 50335.8 Q 326617.2 50873.4 327084.8 50675.3 Q 327451.6 50522.7 327609.8 50056.5 Q 327768 49589.6 327542.6 48951.9 Q 327272.4 48147.6 326101.3 47325.1 L 325929.1 47382.5 Z M 328566.7 47296.4 Q 328948.2 47936.9 329266 48746.1 Q 329583.1 49556 329641.9 50335.8 Q 330214.5 50793.6 330653.4 50534.6 Q 331029.3 50316.2 331091.6 49780 Q 331154.6 49243.8 330706.6 48594.2 Q 330196.3 47838.2 328724.2 47225 L 328566.7 47296.4 Z M 331305.1 47282.4 Q 331922.5 47947.4 332534.3 48835.7 Q 333146.1 49724 333440.8 50594.1 Q 334095.3 50965.8 334497.8 50634.7 Q 334859.7 50338.6 334793.9 49726.8 Q 334728.1 49114.3 334025.3 48438.1 Q 333256 47688.4 331448.6 47181.6 L 331305.1 47282.4 Z M 334602.1 41590.7 Q 334921.3 41594.2 335003.9 41361.1 Q 334720.4 41107 334390.7 40824.9 Q 334061 40542.8 333809.7 40330.7 Q 333722.2 40256.5 333656.4 40200.5 Q 333975.6 39859.6 333784.5 39356.3 Q 333713.1 39196.7 333564 39043.4 Q 333137 38556.9 331807 38336.4 L 331677.5 38422.5 Q 331968 38756.4 332194.1 39235.9 Q 332419.5 39715.4 332451.7 40200.5 Q 332853.5 40486.8 333211.9 40429.4 L 332637.9 41189.6 L 331219 41189.6 Q 331334.5 40022.7 331352 38693.4 Q 331356.9 38510 331362.5 38322.4 Q 331831.5 38246.8 331849.7 37935.3 L 329799.4 37748.4 Q 329799.4 37961.2 329800.1 38169.1 Q 329824.6 39803.6 329714 41189.6 L 328179.6 41189.6 Q 328387.5 40633.8 328552.7 40057 Q 328805.4 40027.6 328937.7 39980 Q 329070 39931.7 329140 39827.4 L 327663.7 38522.6 L 326818.1 39382.9 L 325269.7 39382.9 Q 325523.8 38845.3 325756.9 38265 Q 326247.6 38282.5 326330.2 37978 L 324194.5 37333.3 Q 323822.8 39170.8 323099.7 40764.7 Q 322375.9 42357.9 321498.8 43454.8 L 321671 43583.6 Q 322380.8 43124.4 323004.5 42537.1 Q 323314.6 42858.4 323570.8 43293.1 Q 323827 43727.8 323922.2 44156.9 Q 324450 44467.7 324813.3 44209.4 Q 325075.8 44026.7 325113.6 43692.8 Q 325151.4 43358.9 324852.5 43013.8 Q 324460.5 42537.1 323219.4 42336.2 Q 323803.9 41734.2 324323.3 41002.7 Q 324587.9 41275.7 324803.5 41599.8 Q 325019.8 41923.9 325111.5 42250.1 Q 325658.2 42515.4 325997 42236.8 Q 326218.2 42059.7 326249.7 41772 Q 326281.2 41483.6 326045.3 41195.9 Q 325708.6 40754.9 324581.6 40615.6 Q 324835.7 40221.5 325068.8 39784.7 L 325068.8 39784.7 L 326889.5 39784.7 Q 326379.9 42146.5 325066.7 44175.1 Q 323754.2 46203.7 321556.2 47554.7 L 321685.7 47726.9 Q 324275 46716.1 325810.8 45059.9 Q 327346.6 43404.4 328108.2 41361.1 L 328179.6 41590.7 L 329670.6 41590.7 Q 329505.4 43140.5 328696.9 44397.7 Q 328584.9 44565 328457.5 44727.4 Q 327531.4 45948.9 325469.9 46924 L 325613.4 47138.9 Q 328064.1 46352.1 329271.6 45278.3 Q 329707 44900.3 330025.5 44487.3 Q 330899.1 43312 331118.9 41849 Q 331335.9 43860.1 331900.8 45092.1 Q 331930.2 45155.1 331960.3 45217.4 Q 332547.6 46420.7 333656.4 47267.7 Q 334064.5 45959.4 335118 45705.3 L 335132.7 45547.8 Q 333770.5 45080.9 332763.9 44176.5 Q 331756.6 43272.1 331319.1 41590.7 L 334602.1 41590.7 Z M 337484 40831.2 Q 337763.3 39996.1 337957.2 39096.6 Q 338172.1 39071.4 338300.9 38981.8 L 338300.9 40831.2 L 337484 40831.2 Z M 348020.4 39254.1 L 347132.1 40185.8 L 343304.5 40185.8 Q 343766.5 39333.2 344121.4 38307.7 Q 344605.1 38304.2 344680.7 38021.4 L 342515.6 37376 Q 342243.3 39142.8 341626.6 40673 Q 341285.7 40301.3 340992.4 40001 Q 340699.8 39701.4 340680.9 39683.9 L 339949.4 40831.2 L 339878 40831.2 L 339878 37992.7 Q 340161.5 37948.6 340270 37845.7 Q 340379.2 37742.8 340393.9 37590.9 L 338300.9 37376 L 338300.9 38709.5 L 336508.9 38379.8 Q 336485.8 39734.3 336322.7 41078.3 Q 336159.6 42422.3 335878.2 43497.5 L 336093.1 43597.6 Q 336856.8 42626.7 337340.5 41247 L 338300.9 41247 L 338300.9 44558 Q 337498.7 44763.8 336874.3 44909.4 Q 336249.9 45055.7 335878.2 45132 L 336595 47024.1 Q 336849.1 46927.5 336953.4 46637 Q 337109.5 46552.3 337262.8 46469 Q 337810.9 46175 338300.9 45891.5 L 338300.9 50823 L 338616.6 50823 Q 339090.5 50807.6 339472.7 50647.3 Q 339855.6 50487 339878 50364.5 L 339878 44973.8 Q 341021.1 44285.7 341756.1 43813.2 L 341712.7 43641 Q 341712 43641 341710.6 43641.7 Q 340783.8 43902.8 339878 44142.9 L 339878 41247 L 341383 41247 Q 340885.3 42371.9 340279.1 43196.5 L 340437.3 43325.3 Q 341985 42339.7 343060.2 40601.6 L 343519.4 40601.6 Q 343200.9 42294.2 342395.9 43938.5 Q 341590.9 45582.8 340379.9 46866.6 L 340508.7 47024.1 Q 342211.8 45864.9 343363.3 44199.6 Q 344514.8 42535 345067.8 40601.6 L 345440.2 40601.6 Q 345152.5 43193 344044.4 45580 Q 342936.3 47967 340852.4 49762.5 L 340967.2 49906 Q 343627.9 48397.5 345078.3 46114.8 Q 345211.3 45910.4 345335.9 45701.8 Q 346691.8 43364.5 347160.8 40601.6 L 347289.6 40601.6 Q 347163.6 44055.4 346892 46130.2 Q 346620.4 48204.3 346171.7 48615.2 Q 346038 48732.1 345907.8 48781.8 Q 345777.6 48831.5 345569 48830.8 Q 345285.5 48828 344734.6 48788.8 Q 344183.7 48749.6 343632.1 48704.8 Q 343514.5 48695.7 343404.6 48687.3 L 343404.6 48887.5 Q 343936.6 48996.7 344339.8 49161.9 Q 344743 49327.1 344953 49532.9 Q 345300.2 49894.8 345282.7 50708.2 Q 345996 50711 346515.4 50525.5 Q 347034.8 50340 347447.1 49934 Q 348093.9 49301.2 348429.2 47103.2 Q 348764.5 44905.2 348895.4 40873.9 Q 349386.1 40780.8 349554.8 40601.6 L 348020.4 39254.1 Z M 360278.1 43210.5 L 360278.1 43340 Q 359811.2 43771.9 359145.5 44278.7 Q 358479.8 44786.2 357798 45218.1 Q 357270.9 44243 356292.3 43440.1 Q 356439.3 43336.5 356565.3 43210.5 L 360278.1 43210.5 Z M 353798.2 42809.4 L 353798.2 41046.1 L 356321 41046.1 Q 355823.3 41970.8 355131.7 42809.4 L 353798.2 42809.4 Z M 357812 39311.5 Q 357594.3 39641.2 357319.2 39992.6 Q 357044.8 40343.3 356751.5 40630.3 L 353999.1 40630.3 L 353453.8 40429.4 Q 354207 39881.3 354830 39311.5 L 357812 39311.5 Z M 360278.1 41046.1 L 360278.1 42809.4 L 356980.4 42809.4 Q 357758.8 42003 358299.9 41046.1 L 360278.1 41046.1 Z M 361095 43683.7 Q 361428.9 43592 361673.9 43481.4 Q 361918.9 43370.8 361941.3 43311.3 L 361941.3 41289.7 Q 362342.4 41189.6 362485.9 41002.7 L 360880.1 39827.4 L 360134.6 40630.3 L 357324.8 40630.3 Q 357944.3 40397.9 358534.4 40096.2 Q 359124.5 39794.5 359604 39497.7 Q 360012.8 39497.7 360163.3 39325.5 L 358744.4 38064.1 L 357912.8 38895.7 L 355274.5 38895.7 Q 355647.6 38508.6 355977.3 38121.5 Q 356316.1 38110.3 356471.5 38037.5 Q 356627.6 37964 356665.4 37834.5 L 354328.8 37376 Q 353824.1 38370 352866.5 39527.1 Q 352667.7 39765.8 352454.2 40001 Q 351428.7 41144.1 350214.2 41992.5 L 350343 42135.3 Q 351274.7 41784.6 352163.7 41261 L 352163.7 43956 L 352464.7 43956 Q 353094 43936.4 353443.3 43755.8 Q 353792.6 43574.5 353798.2 43468.8 L 353798.2 43210.5 L 354758.6 43210.5 Q 353178 44852 350716.1 45848.8 L 350816.2 46049 Q 354041.8 45253.8 356063.4 43641 Q 356210.4 43881.1 356335.7 44142.9 Q 355425 45118.7 354015.2 46022.4 Q 353770.2 46179.9 353516.1 46331.1 Q 352056.6 47199.8 350543.9 47740.9 L 350630 47941.8 Q 352293.9 47605.1 353930.5 46986.3 Q 355567.8 46367.5 356822.9 45633.2 L 356851.6 45820.1 Q 355831 47016.4 354229.4 48020.2 Q 354022.2 48151.1 353808 48276.4 Q 352159.5 49240.3 350371.7 49791.2 L 350443.8 50006.1 Q 352228.8 49705.8 353925.6 49099.6 Q 355621.7 48492.7 356966.4 47698.2 Q 356895 48687.3 356565.3 49074.4 Q 356428.8 49231.9 356163.5 49217.2 Q 355861.8 49215.1 355283.6 49183.6 Q 354705.4 49151.4 354242.7 49117.1 L 354256.7 49274.6 Q 354670.4 49383.8 354968.6 49516.8 Q 355266.1 49649.8 355389.3 49791.2 Q 355705 50102.7 355719 50823 Q 357253.4 50855.2 357840.7 50264.4 Q 358416.1 49624.6 358519 48429 Q 358531.6 48272.9 358533.7 48111.2 Q 358563.1 46871.5 357970.2 45547.8 Q 358216.6 45501.6 358482.6 45435.8 Q 358614.9 45404.3 358744.4 45375.6 Q 359227.4 47066.1 360143.7 48151.1 Q 361060 49236.8 362413.8 49948.7 Q 362754.7 48741.2 363718.6 48500.4 L 363733.3 48342.9 Q 362274.5 47989.4 361018 47264.2 Q 359761.5 46539.7 359045.4 45303.5 Q 359740.5 45118.7 360381.7 44915 Q 361023.6 44711.3 361525.5 44515.3 Q 361757.9 44588.1 361885.3 44558 Q 362013.4 44528.6 362084.1 44429.2 L 361095 43683.7 Z M 368979.8 37490.8 Q 369479.6 38052.9 369894 38800.5 Q 370307.7 39548.1 370442.1 40314.6 Q 371098.7 40746.5 371573.3 40479.8 Q 372040.2 40217.3 372071 39606.9 Q 372101.8 38996.5 371438.2 38366.5 Q 370765.5 37726 369109.3 37404.7 L 368979.8 37490.8 Z M 368005.4 47368.5 Q 370628.3 46436.1 372738.1 44956.3 Q 374847.2 43475.8 376191.2 41662.8 Q 376455.1 41653 376595.8 41603.3 Q 376736.5 41553.6 376807.2 41447.2 L 375258.8 39999.6 L 374212.3 40946 L 365295.7 40946 L 365424.5 41347.1 L 374155.6 41347.1 Q 373175.6 42861.2 371602.7 44297.6 Q 371333.9 44544 371053.9 44783.4 Q 369413.8 46181.3 367603.6 47210.3 L 367488.8 47210.3 Q 367321.5 47220.1 366902.9 47425.2 Q 366483.6 47630.3 365945.3 47919.4 Q 365562.4 48123.8 365176.7 48322.6 Q 364790.3 48521.4 364450.1 48672.6 L 365740.2 50694.2 Q 365936.9 50582.9 365897.7 50364.5 Q 366125.9 49940.3 366394 49499.3 Q 366661.4 49058.3 366902.9 48674.7 Q 367166.1 48256.8 367317.3 47999.2 Q 367578.4 47540 367861.9 47984.5 Q 368543 49102.4 369438.3 49683.4 Q 369779.9 49900.4 370190.1 50052.3 Q 371272.3 50458.3 373151.8 50450.6 L 376778.5 50450.6 Q 376843.6 49832.5 377164.2 49353.7 Q 377484.1 48875.6 378054.6 48730 L 378054.6 48572.5 Q 376935.3 48636.2 375930.8 48662.1 Q 374927 48688 373797.2 48687.3 Q 371524.3 48702 370178.9 48432.5 Q 368833.5 48163 368076.8 47425.2 L 368005.4 47368.5 Z M 10090.3 71104.4 L 10090.3 67276.8 L 13315.9 67276.8 L 13315.9 71104.4 L 10090.3 71104.4 Z M 5101.4 71104.4 L 5101.4 67276.8 L 8298.3 67276.8 L 8298.3 71104.4 L 5101.4 71104.4 Z M 13990 65972 L 13187.1 66861 L 10090.3 66861 L 10090.3 64352.2 Q 10375.2 64307.4 10490 64198.2 Q 10605.5 64089 10620.9 63936.4 L 8298.3 63721.5 L 8298.3 66861 L 5230.9 66861 L 3324.1 66115.5 L 3324.1 72939.8 L 3581.7 72939.8 Q 4156.4 72919.5 4615.6 72717.2 Q 5074.8 72514.9 5101.4 72365.8 L 5101.4 71520.2 L 8298.3 71520.2 L 8298.3 77154.5 L 8628 77154.5 Q 9171.2 77133.5 9617.1 76915.8 Q 10063.7 76698.8 10090.3 76537.8 L 10090.3 71520.2 L 13315.9 71520.2 L 13315.9 72724.2 L 13616.9 72724.2 Q 14076.8 72710.2 14548.6 72561.1 Q 14578 72552.7 14606 72543.6 Q 15064.5 72392.4 15107.9 72294.4 L 15107.9 67577.8 Q 15552.4 67463 15695.9 67262.8 L 13990 65972 Z M 17359.1 79061.3 Q 18631 78457.9 19182.6 77455.5 Q 19205 77417.7 19226 77379.9 Q 19753.1 76369.8 19738.4 75376.5 Q 19725.8 74629.6 19359 74224.3 Q 18991.5 73819 18419.6 73814.1 Q 17854 73829.5 17530.6 74170.4 Q 17207.2 74511.3 17200.9 74989.4 Q 17235.2 75653.7 17709.1 75985.5 Q 17766.5 76030.3 17827.4 76070.9 Q 18328.6 76370.5 18806.7 76509.1 Q 18745.1 77018 18365.7 77591.3 Q 17987 78165.3 17129.5 78630.8 L 17359.1 79061.3 Z M 41730.3 69413.2 L 38819.7 69413.2 L 38819.7 65570.9 L 43206.6 65570.9 Q 43518.8 65574.4 43593.7 65341.3 Q 43137.3 64948.6 42615.1 64542.6 Q 42431.7 64399.1 42272.8 64276.6 Q 41817.1 63928.7 41787.7 63907.7 L 40783.9 65155.1 L 32339.8 65155.1 L 32454.6 65570.9 L 37042.4 65570.9 L 37042.4 69413.2 L 31178.5 69413.2 L 31308 69828.3 L 37042.4 69828.3 L 37042.4 74874.6 Q 37063.4 75183.3 36698 75190.3 Q 36453 75187.5 35870.6 75154.6 Q 35365.2 75125.9 34915.8 75097.2 Q 34397.8 75063.6 34361.4 75061.5 L 34361.4 75247.7 Q 35036.2 75354.8 35393.2 75507.4 Q 35750.9 75660 35952.5 75864.4 Q 36343.1 76276 36368.3 77139.8 Q 37790.7 77024.3 38295.4 76529.4 Q 38401.8 76433.5 38482.3 76325 Q 38855.4 75767.1 38819.7 74946.7 L 38819.7 69828.3 L 44195.7 69828.3 Q 44532.4 69832.5 44611.5 69599.4 Q 44137.6 69197.6 43606.3 68784.6 Q 43417.3 68636.9 43254.2 68511.6 Q 42792.2 68158.1 42762.1 68137.1 L 41730.3 69413.2 Z M 45571.9 69828.3 L 45701.4 70287.5 L 58546.4 70287.5 Q 58918.8 70291 58990.9 70057.9 Q 58498.8 69595.9 57929.7 69089.1 Q 57627.3 68819.6 57380.2 68601.2 Q 56911.2 68188.9 56883.2 68165.8 L 55693.2 69828.3 L 45571.9 69828.3 Z M 64079.9 67535.1 Q 64544 67496.6 64857.6 67388.1 Q 65171.2 67279.6 65183.8 67176.7 L 65183.8 65943.3 L 67821.4 65943.3 L 67821.4 67491.7 L 68093.7 67491.7 Q 68669.8 67470.7 69068.8 67339.8 Q 69467.8 67208.2 69484.6 67090.6 L 69484.6 65943.3 L 72867.7 65943.3 Q 73208.6 65946.8 73269.5 65714.4 Q 72875.4 65337.1 72412.7 64944.4 Q 72281.8 64832.4 72164.9 64734.4 Q 71749.8 64388.6 71721.1 64366.9 L 70832.1 65542.2 L 69484.6 65542.2 L 69484.6 64266.1 Q 69768.1 64222.7 69877.3 64128.2 Q 69985.8 64033.7 70000.5 63893.7 L 67821.4 63692.8 L 67821.4 65542.2 L 65183.8 65542.2 L 65183.8 64266.1 Q 65458.2 64222.7 65568.8 64128.2 Q 65679.4 64033.7 65685.7 63893.7 L 63549.3 63692.8 L 63549.3 65542.2 L 59865.2 65542.2 L 59965.3 65943.3 L 63549.3 65943.3 L 63549.3 67290.8 L 63334.4 67190.7 Q 62678.5 68954.7 61699.9 70447.1 Q 60722 71938.8 59679 72896.4 L 59807.8 73039.9 Q 61219.7 72384 62460.1 71319.3 L 62460.1 77139.8 L 62775.1 77139.8 Q 63260.2 77124.4 63662 76975.3 Q 64064.5 76825.5 64108.6 76724 L 64108.6 70545.1 Q 64492.2 70470.2 64553.1 70287.5 L 63764.2 69986.5 Q 64359.2 69280.2 64868.1 68423.4 Q 65381.2 68470.3 65484.8 68194.5 L 64079.9 67535.1 Z M 72581.4 72982.5 L 72409.2 72982.5 Q 72204.1 73703.5 72034.7 74239 Q 71864.6 74773.8 71735.1 74989.4 Q 71599.3 75208.5 71334 75190.3 Q 70989.6 75215.5 70215.4 75219 L 68867.9 75219 Q 68510.9 75221.8 68384.2 75132.9 Q 68258.2 75044 68265.9 74831.9 L 68265.9 72050.8 Q 69250.8 71673.5 70219.6 71161.8 Q 71187.7 70650.1 72064.8 70015.2 Q 72545 70186.7 72724.2 69971.8 L 71104.4 68452.1 Q 69792.6 69799.6 68265.9 70889.5 L 68265.9 68122.4 Q 68739.1 68047.5 68739.1 67735.3 L 66617.4 67535.1 L 66617.4 71978.7 Q 65825 72455.4 65097.7 72781.6 L 65169.1 72953.8 Q 65861.4 72825 66617.4 72610.1 L 66617.4 75219 Q 66595.7 76094 67005.9 76418.1 Q 67416.8 76741.5 68524.2 76724 L 70057.9 76724 Q 71883.5 76730.3 72572.3 76505.6 Q 73260.4 76280.9 73226.1 75749.6 Q 73233.1 75527 73102.9 75369.5 Q 72972 75212 72624.1 75075.5 L 72581.4 72982.5 Z M 74243.9 69828.3 L 74373.4 70287.5 L 87218.4 70287.5 Q 87590.8 70291 87662.9 70057.9 Q 87170.8 69595.9 86601.7 69089.1 Q 86299.3 68819.6 86052.2 68601.2 Q 85583.2 68188.9 85555.2 68165.8 L 84365.2 69828.3 L 74243.9 69828.3 Z M 96278.5 73728 L 88752.1 73728 L 88852.2 74143.8 L 98300.1 74143.8 Q 98640.3 74147.3 98701.2 73914.2 Q 98285.4 73542.5 97818.5 73154.7 Q 97696 73053.2 97587.5 72962.9 Q 97167.5 72617.8 97138.8 72595.4 L 96278.5 73728 Z M 100263.6 70201.4 L 99375.3 71047 L 92336.1 71047 L 92336.1 65843.2 L 97855.6 65843.2 Q 97701.6 68699.9 97267.6 69082.8 Q 97186.4 69146.5 97088.4 69172.4 Q 96991.1 69199 96823.1 69197.6 Q 96589.3 69196.9 96092.3 69168.9 Q 95594.6 69141.6 95189.3 69097.5 L 95189.3 69283.7 Q 96056.6 69455.9 96407.3 69799.6 Q 96564.8 69969 96617.3 70188.8 Q 96669.8 70408.6 96665.6 70717.3 Q 97255 70723.6 97706.5 70640.3 Q 98158.7 70557.7 98500.3 70316.2 Q 98985.4 69971.1 99217.1 68986.2 Q 99449.5 68002 99546.8 66130.2 Q 99962.6 66044.1 100120.8 65871.9 L 98586.4 64610.5 L 97726.8 65442.1 L 94228.2 65442.1 Q 94535.5 65188.7 94848.4 64916.4 Q 95161.3 64644.8 95404.2 64423.6 Q 95894.9 64420.1 95977.5 64051.2 L 93440 63606.7 Q 93422.5 63826.5 93404.3 64083.4 Q 93379.8 64428.5 93350.4 64784.1 Q 93321 65139.7 93282.5 65442.1 L 92551 65442.1 L 90644.2 64696.6 L 90644.2 70874.8 Q 90386.6 71079.2 90214.4 71305.3 L 91920.3 72294.4 L 92436.2 71462.8 L 99518.8 71462.8 Q 99457.2 73081.2 99331.9 74096.9 Q 99206.6 75113.3 98973.5 75333.8 Q 98834.2 75473.1 98500.3 75462.6 Q 98218.9 75460.5 97540.6 75422 Q 97476.2 75417.8 97409.7 75413.6 Q 96716 75372.3 96106.3 75319.1 L 96106.3 75506 Q 96665.6 75604 97127.6 75758 Q 97590.3 75912.7 97826.9 76108 Q 98246.2 76462.9 98214 77139.8 Q 98946.9 77143.3 99421.5 77030.6 Q 99896.8 76917.9 100220.9 76652.6 Q 100715.8 76250.1 100939.8 75037.7 Q 101163.1 73826 101238.7 71735.1 Q 101658 71660.2 101798 71477.5 L 100263.6 70201.4 Z M 93239.1 66546 Q 93654.9 66945 94061.6 67507.8 Q 94469 68071.3 94658.7 68653 Q 95313.2 68976.4 95748.6 68691.5 Q 96145.5 68433.2 96149.7 67946.7 Q 96153.2 67460.9 95563.8 67019.9 Q 94926.1 66536.2 93339.9 66445.2 L 93239.1 66546 Z M 103804.9 77154.5 L 104091.9 77154.5 Q 104608.5 77136.3 105012.4 76946.6 Q 105417 76756.2 105439.4 76609.2 L 105439.4 66172.9 Q 105764.2 66119 105890.9 66002.8 Q 106016.9 65886.6 106041.4 65714.4 L 103804.9 65498.8 L 103804.9 77154.5 Z M 104908.8 63735.5 Q 105410 64247.2 105871.3 64959.8 Q 106331.9 65672.4 106543.3 66387.8 Q 107185.2 66750.4 107608.7 66450.1 Q 107997.2 66176.4 107981.8 65622.7 Q 107967.1 65069.7 107341.3 64510.4 Q 106667.2 63901.4 105023.6 63621.4 L 104908.8 63735.5 Z M 108291.9 73097.3 L 108291.9 70688.6 L 110743.3 70688.6 L 110743.3 73097.3 L 108291.9 73097.3 Z M 110743.3 68036.3 L 110743.3 70287.5 L 108291.9 70287.5 L 108291.9 68036.3 L 110743.3 68036.3 Z M 112306.4 68179.8 Q 112628.4 68104.9 112736.2 67964.9 L 111331.3 66875.7 L 110629.2 67621.2 L 108349.3 67621.2 L 106743.5 67004.5 L 106743.5 74803.2 L 107016.5 74803.2 Q 107613.6 74785 107949.6 74617 Q 108286.3 74448.3 108291.9 74344.7 L 108291.9 73513.1 L 110743.3 73513.1 L 110743.3 74502.2 L 111015.6 74502.2 Q 111472.7 74480.5 111875.9 74276.1 Q 112279.1 74072.4 112306.4 73942.9 L 112306.4 68179.8 Z M 114298.6 64093.9 L 113553.1 64968.9 L 108335.3 64968.9 L 108464.1 65370 L 113696.6 65370 L 113696.6 74960.7 Q 113728.8 75269.4 113352.9 75276.4 Q 113144.3 75273.6 112617.9 75242.1 Q 112236.4 75219 111889.9 75195.9 Q 111410.4 75164.4 111374 75161.6 L 111374 75362.5 Q 111954.3 75458.4 112268.6 75600.5 Q 112582.9 75742.6 112764.9 75935.8 Q 113091.1 76301.2 113138 77097.1 Q 114456.1 76968.3 114894.3 76539.9 Q 114969.2 76472 115028.7 76396.4 Q 115367.5 75919.7 115331.1 75132.9 L 115331.1 65642.3 Q 115782.6 65535.2 115933.1 65341.3 L 114298.6 64093.9 Z M 128377 65885.9 Q 128354.6 66214.9 128316.1 66572.6 Q 128277.6 66930.3 128233.5 67248.1 Q 127829.6 66926.1 127516.7 66697.9 Q 127203.8 66469.7 127187 66459.9 L 126341.4 67463 L 124434.6 67463 Q 124520.7 67029.7 124563.4 66574 Q 124997.4 66502.6 125021.9 66215.6 L 122871.5 66044.1 Q 122871.5 66807.1 122742.7 67463 L 119474.4 67463 L 119589.2 67878.8 L 122627.9 67878.8 Q 122378.7 68606.1 121463.8 69203.2 Q 121433 69222.8 121401.5 69242.4 Q 120457.9 69836 118399.2 70330.2 L 118499.3 70516.4 Q 120823.3 70183.9 122061.6 69730.3 Q 123299.9 69276 123817.9 68696.4 Q 124790.9 69013.5 125430.7 69404.1 Q 126070.5 69794 126441.5 70186.7 Q 126945.5 70556.3 127449.5 70421.9 Q 127952.8 70286.8 128089.3 69885 Q 128122.9 69765.3 128097.7 69634.4 Q 128043.8 69196.9 127140.8 68802.8 Q 126237.8 68409.4 124118.9 68294.6 Q 124240.7 68097.9 124319.8 67878.8 L 124319.8 67878.8 L 128319.6 67878.8 Q 128652.8 67882.3 128706.7 67649.2 L 128477.1 67449 Q 128896.4 67192.8 129317.8 66859.6 Q 129739.2 66525.7 130039.5 66215.6 Q 130441.3 66205.1 130584.8 66044.1 L 129093.8 64624.5 L 128247.5 65484.8 L 124434.6 65484.8 Q 124884 65239.8 124926 64758.2 Q 124960.3 64327 124468.2 63982.6 Q 123928.5 63598.3 122513.1 63664.1 L 122427.7 63750.2 Q 122771.4 64020.4 123040.2 64464.9 Q 123309 64910.1 123373.4 65384.7 Q 123442 65431.6 123516.2 65463.8 Q 123539.3 65474.3 123559.6 65484.8 L 119344.9 65484.8 Q 119273.5 65104.7 119116 64681.9 L 118915.1 64681.9 Q 118915.8 65230 118591 65661.9 Q 118266.2 66094.5 117868.6 66287.7 Q 117535.4 66450.8 117361.1 66732.2 Q 117186.8 67013.6 117295.3 67391.6 Q 117457 67789.2 117852.5 67885.8 Q 118248 67983.1 118614.1 67778.7 Q 118979.5 67561 119205.6 67079.4 Q 119431 66598.5 119388.3 65885.9 L 128377 65885.9 Z M 120994.1 74272.6 L 120994.1 72710.2 L 123201.2 72710.2 L 123201.2 74272.6 L 120994.1 74272.6 Z M 124835.7 72896.4 Q 125201.1 72818 125308.9 72652.8 L 123803.9 71534.9 L 123072.4 72294.4 L 121065.5 72294.4 L 119388.3 71635 L 119388.3 75763.6 L 119617.2 75763.6 Q 120136.6 75745.4 120553.1 75568.3 Q 120969.6 75391.2 120994.1 75276.4 L 120994.1 74674.4 L 123201.2 74674.4 L 123201.2 75362.5 L 123488.2 75362.5 Q 123918 75347.1 124353.4 75189.6 Q 124355.5 75188.2 124357.6 75187.5 Q 124792.3 75030 124835.7 74918 L 124835.7 72896.4 Z M 128147.4 70789.4 L 117324 70789.4 L 117438.8 71190.5 L 126426.8 71190.5 L 126426.8 75333.8 Q 126452 75591.4 126111.8 75591.4 Q 125886.4 75589.3 125353.7 75561.3 Q 124977.1 75541.7 124637.6 75522.1 Q 124155.3 75494.1 124118.9 75491.3 L 124118.9 75692.2 Q 124709.7 75778.3 125024 75905 Q 125338.3 76032.4 125509.8 76194.1 Q 125832.5 76502.1 125853.5 77197.2 Q 127199.6 77093.6 127649 76675 Q 127705 76626.7 127752.6 76574.2 Q 128126.4 76120.6 128090 75376.5 L 128090 71190.5 L 130226.4 71190.5 Q 130544.9 71194 130627.5 70960.9 Q 130201.9 70580.8 129727.3 70190.2 Q 129602.7 70087.3 129491.4 69996.3 Q 129065.1 69649.8 129036.4 69628.1 L 128147.4 70789.4 Z M 144762.6 69986.5 Q 145078.3 69939.6 145135.7 69699.5 Q 144654.8 69362.8 144125.6 69021.9 Q 143977.2 68926 143846.3 68842 Q 143375.2 68542.4 143343.7 68524.2 L 142612.2 69871.7 L 140620 70158 L 140620 66359.1 L 140620 66029.4 Q 142218.1 65667.5 143386.4 65283.9 Q 144060.5 65481.3 144304.1 65226.5 L 142454.7 63735.5 Q 141648.3 64299 140373.6 64954.9 Q 139922.1 65186.6 139444 65413.4 Q 138095.1 66054.6 136806.4 66517.3 L 136863.8 66688.8 Q 136550.2 66366.1 136311.5 66131.6 Q 136073.5 65897.1 136060.9 65885.9 L 135301.4 67075.9 L 135129.2 67075.9 L 135129.2 64294.8 Q 135641.6 64223.4 135659.8 63893.7 L 133552.1 63692.8 L 133552.1 67075.9 L 131545.2 67075.9 L 131660 67491.7 L 133552.1 67491.7 L 133552.1 70215.4 Q 132054.1 70606 131330.3 70760.7 L 132003.7 72710.2 Q 132276 72605.9 132376.8 72308.4 Q 132494.4 72244 132608.5 72180.3 Q 133100.6 71908 133552.1 71663.7 L 133552.1 75090.2 Q 133570.3 75333.8 133265.1 75319.1 Q 133064.2 75317 132607.1 75293.9 Q 132399.9 75283.4 132207.4 75272.9 Q 131781.8 75249.8 131746.1 75247.7 L 131746.1 75448.6 Q 132200.4 75523.5 132453.8 75652.3 Q 132706.5 75781.8 132850 75964.5 Q 133111.1 76344.6 133136.3 77111.1 Q 134372.5 76989.3 134761.7 76546.2 Q 134794.6 76511.2 134824.7 76474.8 Q 135165.6 76005.8 135129.2 75190.3 L 135129.2 70732 Q 136505.4 69900.4 137322.3 69327.1 L 137279.6 69168.9 Q 136529.2 69392.2 135780.2 69601.5 Q 135451.2 69693.9 135129.2 69785.6 L 135129.2 67491.7 L 137007.3 67491.7 Q 137330 67495.2 137394.4 67262.8 Q 137168.3 66994 136877.8 66703.5 Q 137895.6 66570.5 138956.8 66373.8 L 138956.8 70387.6 L 136390.6 70746 L 136534.1 71147.8 L 138956.8 70803.4 L 138956.8 75118.9 Q 138937.2 76015.6 139336.9 76357.2 Q 139736.6 76698.1 140791.5 76681.3 L 142111 76681.3 Q 143818.3 76683.4 144451.1 76435.6 Q 145083.9 76187.8 145049.6 75663.5 Q 145056.6 75418.5 144934.8 75244.2 Q 144813 75069.2 144476.3 74932 L 144418.9 72738.9 L 144275.4 72738.9 Q 144227.1 72904.8 144179.5 73067.2 Q 144003.8 73681.1 143855.4 74153.6 Q 143707 74626.1 143602 74817.2 Q 143469 75032.8 143228.9 75032.8 Q 143115.5 75032.8 142934.2 75037.7 Q 142661.2 75045.4 142282.5 75046.8 L 141178.6 75046.8 Q 140852.4 75050.3 140732.7 74959.3 Q 140613 74868.3 140620 74645.7 L 140620 70573.8 L 144762.6 69986.5 Z M 151600.9 67979.6 L 151600.9 77183.2 L 151930.6 77183.2 Q 152485.7 77165.7 152947 76984.4 Q 153407.6 76802.4 153436.3 76666.6 L 153436.3 68610.3 Q 153720.5 68565.5 153836 68455.6 Q 153950.8 68346.4 153966.9 68194.5 L 151600.9 67979.6 Z M 152819.6 64896.8 Q 153597.3 66863.8 154925.2 68394.7 Q 156253.8 69926.3 158095.5 70903.5 Q 158229.9 70384.1 158534.4 69929.1 Q 158838.9 69474.1 159371.6 69255 L 159399.6 69040.1 Q 157378.7 68392.6 155722.5 67276.8 Q 154067 66161 153034.5 64739.3 Q 153392.9 64698 153547.6 64614 Q 153701.6 64530 153737.3 64380.9 L 151185.1 63678.8 Q 150679 65300.7 149569.5 67003.8 Q 149167.7 67618.4 148701.5 68207.8 Q 147419.1 69840.9 145795.1 71018.3 L 145881.2 71176.5 Q 147883.9 70347 149475.7 68985.5 Q 150160.3 68408 150744.8 67785 Q 152107.7 66318.5 152819.6 64896.8  Z M 165334.9 63922.4 Q 165334.2 64117 165334.2 64311.6 Q 165365.7 66341.6 165181.6 68350.6 Q 165050 69637.9 164683.9 70893 Q 164317.1 72148.1 163602.4 73353.5 Q 162509.7 75235.1 160217.2 76939.6 L 160374.7 77139.8 Q 163079.5 75818.2 164492.1 74183.7 Q 165839.6 72629.7 166387 70902.8 Q 166958.9 69087.7 167055.5 67205.4 Q 167250.1 70155.9 168057.9 72411.3 Q 168333.7 73151.2 168706.8 73811.3 Q 169810.7 75825.9 172101.8 77068.4 Q 172391.6 75648.8 173692.9 75391.2 L 173721.6 75219 Q 170940.5 74190.7 169511.8 72432.3 Q 168625.6 71354.3 168117.4 69971.8 Q 167307.5 67714.3 167170.3 64553.1 Q 167445.4 64519.5 167564.4 64416.6 Q 167683.4 64313.7 167700.2 64151.3 L 165334.9 63922.4 Z M 176674.9 74617 L 176674.9 70846.8 L 178854 70846.8 L 178854 74617 L 176674.9 74617 Z M 178854 66875.7 L 178854 70431 L 176674.9 70431 L 176674.9 66875.7 L 178854 66875.7 Z M 179470 65599.6 L 178710.5 66459.9 L 177463.1 66459.9 Q 177816.6 66026.6 178191.1 65535.2 Q 178565.6 65043.1 178854 64653.2 Q 179352.4 64664.4 179442 64309.5 L 177119.4 63750.2 Q 177062.7 64372.5 176979.4 65110.3 Q 176896.1 65848.1 176818.4 66459.9 L 176732.3 66459.9 L 175126.5 65785.8 L 175126.5 76623.9 L 175384.8 76623.9 Q 175916.8 76607.1 176287.8 76421.6 Q 176658.8 76235.4 176674.9 76079.3 L 176674.9 75018.1 L 178854 75018.1 L 178854 76150.7 L 179097.6 76150.7 Q 179546.3 76131.8 179968.4 75957.5 Q 180390.5 75782.5 180431.1 75677.5 L 180431.1 67133.3 Q 180871.4 67036.7 181033.1 66832.3 L 179470 65599.6 Z M 186495.2 65484.8 L 185591.5 66416.5 L 183312.3 66416.5 Q 183756.8 65603.1 184115.2 64681.9 Q 184598.9 64678.4 184674.5 64395.6 L 182409.3 63735.5 Q 182117.4 65412.7 181597.3 67005.9 Q 181077.2 68599.8 180473.8 69728.2 L 180660 69843 Q 182043.9 68671.2 183082.7 66832.3 L 185749.7 66832.3 Q 185685.3 70509.4 185523.6 72597.5 Q 185362.6 74685.6 184975.5 75061.5 Q 184796.3 75251.2 184444.9 75247.7 Q 184136.9 75244.9 183538.4 75204.3 Q 182939.9 75164.4 182394.6 75118.9 L 182380.6 75319.1 Q 182912.6 75417.8 183306.7 75580.9 Q 183701.5 75744 183900.3 75949.8 Q 184240.5 76301.2 184215.3 77125.8 Q 184918.8 77128.6 185423.5 76943.1 Q 185927.5 76757.6 186308.3 76351.6 Q 186844.5 75797.9 187074.8 73891.8 Q 187112.6 73587.3 187145.5 73243.6 Q 187340.8 71088.3 187398.2 67104.6 Q 187874.9 67033.2 188028.9 66832.3 L 186495.2 65484.8 Z M 181577.7 69427.2 Q 182023.6 70034.8 182375 70825.1 Q 182727.1 71615.4 182796.4 72394.5 Q 183408.2 72861.4 183880 72617.1 Q 184321.7 72390.3 184384 71808.6 Q 184446.3 71227.6 183882.1 70558.4 Q 183285 69844.4 181692.5 69341.1 L 181577.7 69427.2 Z M 197648.3 65140.4 L 197648.3 68409.4 L 193519.7 68409.4 L 193519.7 65140.4 L 197648.3 65140.4 Z M 193519.7 68810.5 L 197648.3 68810.5 L 197648.3 69971.8 L 197935.3 69971.8 Q 198393.8 69954.3 198840.4 69788.4 L 198854.4 69782.8 Q 199297.5 69616.2 199340.2 69513.3 L 199340.2 65413.4 Q 199795.2 65305.6 199927.5 65112.4 L 198293.7 63865 L 197504.8 64725.3 L 193605.8 64725.3 L 191827.8 64022.5 L 191827.8 70101.3 L 192086.1 70101.3 Q 192636.3 70082.4 193066.1 69894.8 Q 193495.9 69707.2 193519.7 69570.7 L 193519.7 68810.5 Z M 191197.1 75161.6 L 191197.1 71391.4 L 193290.1 71391.4 L 193290.1 75161.6 L 191197.1 75161.6 Z M 193146.6 70975.6 L 191269.2 70975.6 L 189606 70316.2 L 189606 77025 L 189849.6 77025 Q 190366.9 77006.8 190770.8 76819.2 Q 191174.7 76631.6 191197.1 76495.1 L 191197.1 75577.4 L 193290.1 75577.4 L 193290.1 76767.4 L 193562.4 76767.4 Q 194000.6 76748.5 194431.1 76575.6 Q 194435.3 76573.5 194439.5 76572.1 Q 194867.9 76398.5 194909.9 76294.2 L 194909.9 71649 Q 195347.4 71548.9 195483.9 71362.7 L 193892.1 70158 L 193146.6 70975.6 Z M 197791.8 75161.6 L 197791.8 71391.4 L 199999.6 71391.4 L 199999.6 75161.6 L 197791.8 75161.6 Z M 200630.3 70144 L 199856.1 70975.6 L 197863.2 70975.6 L 196200.7 70316.2 L 196200.7 77039.7 L 196444.3 77039.7 Q 196970.7 77021.5 197370.4 76833.2 Q 197770.8 76645.6 197791.8 76509.1 L 197791.8 75577.4 L 199999.6 75577.4 L 199999.6 76838.8 L 200271.9 76838.8 Q 200711.5 76824.1 201155.3 76675 Q 201158.8 76674.3 201163 76672.9 Q 201604 76523.8 201648.1 76423 L 201648.1 71663.7 Q 202082.1 71545.4 202236.1 71362.7 L 200630.3 70144 Z M 206765.8 67606.5 L 208730 67606.5 Q 209034.5 67610 209103.1 67376.9 Q 208765 67015.7 208361.1 66636.3 Q 208277.1 66556.5 208199.4 66484.4 Q 207826.3 66138.6 207798.3 66115.5 L 207052.8 67205.4 L 206765.8 67205.4 L 206765.8 64266.1 Q 207059.8 64223.4 207171.1 64124.7 Q 207282.4 64026 207296.4 63865 L 205218.1 63664.1 L 205218.1 67205.4 L 203210.5 67205.4 L 203325.3 67606.5 L 205017.2 67606.5 Q 204784.1 69251.5 204303.9 70832.1 Q 203823.7 72412.7 203053 73670.6 L 203239.2 73828.1 Q 204400.5 72724.2 205218.1 71362.7 L 205218.1 77168.5 L 205533.1 77168.5 Q 205986.7 77151.7 206364.7 76967.6 Q 206742.7 76784.2 206765.8 76637.9 L 206765.8 69040.1 Q 207008.7 69467.8 207181.6 69973.9 Q 207354.5 70479.3 207382.5 70960.9 Q 207892.8 71383.7 208297.4 71167.4 Q 208603.3 71006.4 208676.1 70622.8 Q 208749.6 70238.5 208443.7 69772.3 Q 208059.4 69161.2 206765.8 68681.7 L 206765.8 67606.5 Z M 213590.1 71835.9 L 211095.3 71835.9 L 209877.3 71376.7 Q 211346.6 70732 212471.5 69871.7 Q 213199.5 70581.5 214206.8 71119.1 L 213590.1 71835.9 Z M 210923.8 75720.9 L 210923.8 72251.7 L 213647.5 72251.7 L 213647.5 75720.9 L 210923.8 75720.9 Z M 213733.6 65986.7 Q 213213.5 67262.8 212328.7 68366 Q 211396.3 67699.6 210765.6 66818.3 Q 211063.1 66413 211339.6 65986.7 L 213733.6 65986.7 Z M 214621.9 64725.3 L 213704.9 65584.9 L 211568.5 65584.9 Q 211805.1 65173.3 211999 64739.3 Q 212471.5 64742.8 212557.6 64467 L 210450.6 63750.2 Q 210102.7 65286 209486 66647.5 Q 208870 68009 208156.7 68954 L 208342.9 69082.8 Q 209536.4 68326.8 210536.7 67119.3 Q 211042.1 68179.8 211740.7 69068.8 Q 210045.3 70853.8 207554.7 71950 L 207654.8 72136.9 Q 208562 71896.8 209360.7 71591.6 L 209360.7 77125.8 L 209633 77125.8 Q 210240.6 77111.8 210579.4 76976.7 Q 210918.2 76842.3 210923.8 76752.7 L 210923.8 76122 L 213647.5 76122 L 213647.5 76982.3 L 213933.8 76982.3 Q 214565.2 76966.9 214927.1 76829.7 Q 215289 76693.2 215296 76623.9 L 215296 72365.8 Q 215737 72262.2 215855.3 72093.5 L 215152.5 71563.6 Q 215453.5 71688.9 215754.5 71792.5 Q 215865.8 70634.7 216858.4 70272.8 L 216887.1 70115.3 Q 214887.2 69760.4 213446.6 69040.1 Q 214694 67789.2 215468.2 66259 Q 215731.4 66240.8 215865.8 66192.5 Q 216000.2 66144.9 216070.2 66029.4 L 214621.9 64725.3 Z M 224327.4 72280.4 L 217618.6 72280.4 L 217733.4 72695.5 L 226578.6 72695.5 Q 226908.3 72699.7 226979.7 72466.6 Q 226533.1 72074.6 226032.6 71674.2 Q 225880 71551.7 225747 71446 Q 225303.2 71097.4 225273.8 71075.7 L 224327.4 72280.4 Z M 227897.4 66431.2 L 222019.5 66431.2 Q 222198.7 65258.7 222291.8 64452.3 Q 222556.4 64457.2 222684.5 64357.8 Q 222811.9 64257.7 222851.1 64122.6 L 220643.3 63678.8 Q 220599.2 64369 220451.5 65502.3 Q 220345.8 66314.3 220212.1 67163.4 Q 220026.6 68347.1 219840.4 69226.3 L 219840.4 69226.3 Q 219542.9 69398.5 219353.2 69570.7 L 220959 70502.4 L 221575 69742.9 L 227797.3 69742.9 Q 227611.8 71901.7 227291.9 73340.9 Q 226972 74780.1 226549.9 75132.9 Q 226426 75238.6 226291.6 75279.9 Q 226157.2 75321.2 225947.9 75319.1 Q 225635.7 75315.6 224937.8 75265.2 Q 224869.2 75260.3 224799.2 75255.4 Q 224086.6 75202.2 223467.8 75147.6 L 223453.1 75333.8 Q 224033.4 75443 224498.2 75616.6 Q 224962.3 75790.9 225187.7 76007.2 Q 225389.3 76194.1 225469.1 76498.6 Q 225549.6 76803.1 225546.1 77183.2 Q 226301.4 77186 226827.8 77032.7 Q 227354.2 76879.4 227753.9 76537.8 Q 228449.7 75988.3 228884.4 74328.6 Q 229319.8 72668.2 229531.9 70043.9 Q 230004.4 69978.8 230176.6 69785.6 L 228599.5 68438.1 L 227667.8 69341.1 L 221546.3 69341.1 Q 221632.4 68869.3 221725.5 68307.2 Q 221817.9 67745.1 221913.8 67149.4 Q 221937.6 66998.2 221962.1 66847 L 230234 66847 Q 230570.7 66850.5 230649.8 66617.4 Q 230185.7 66219.1 229666.3 65822.2 Q 229503.2 65696.9 229361.1 65589.8 Q 228902.6 65246.8 228872.5 65226.5 L 227897.4 66431.2 Z M 232742.8 66287.7 Q 232782 67066.1 232565.7 67796.2 Q 232349.4 68527 232054.7 68896.6 Q 231823 69117.8 231746.7 69388 Q 231670.4 69657.5 231825.1 69900.4 Q 232040.7 70174.1 232393.5 70117.4 Q 232746.3 70060 232972.4 69742.9 Q 233279 69282.3 233327.3 68391.2 Q 233375.6 67500.8 232972.4 66287.7 L 232742.8 66287.7 Z M 233731.9 63706.8 L 233731.9 77154.5 L 234047.6 77154.5 Q 234521.5 77139.1 234904.4 76978.8 Q 235286.6 76818.5 235309 76695.3 L 235309 64323.5 Q 235582.7 64279.4 235698.2 64176.5 Q 235813 64073.6 235839.6 63922.4 L 233731.9 63706.8 Z M 235309 66072.8 Q 235533.7 66506.8 235701.7 67088.5 Q 235869.7 67670.9 235868.3 68223.2 Q 236315.6 68625 236685.2 68399.6 Q 236930.9 68253.3 237007.9 67923.6 Q 237084.9 67594.6 236886.1 67176.7 Q 236611.7 66559.3 235481.2 66000.7 L 235309 66072.8 Z M 239036.5 73427 L 239036.5 72150.9 L 242477 72150.9 L 242477 73427 L 239036.5 73427 Z M 242477 70516.4 L 242477 71735.1 L 239036.5 71735.1 L 239036.5 70516.4 L 242477 70516.4 Z M 242333.5 70130 L 239107.9 70130 L 237402 69427.2 L 237402 77125.8 L 237645.6 77125.8 Q 238193.7 77107.6 238604.6 76917.9 Q 239015.5 76727.5 239036.5 76581.2 L 239036.5 73842.8 L 242477 73842.8 L 242477 75046.8 Q 242502.2 75322.6 242204.7 75319.1 Q 241998.9 75317 241557.2 75292.5 Q 241389.9 75283.4 241234.5 75274.3 Q 240821.5 75250.5 240785.1 75247.7 L 240785.1 75433.9 Q 241228.2 75519.3 241464.8 75652.3 Q 241700.7 75786 241831.6 75978.5 Q 242086.4 76344.6 242104.6 77139.8 Q 243347.1 77026.4 243739.1 76586.8 Q 243775.5 76549 243807.7 76509.1 Q 244147.9 76041.5 244111.5 75247.7 L 244111.5 70803.4 Q 244556 70678.1 244698.8 70488.4 L 243065 69269.7 L 242333.5 70130 Z M 243093.7 68710.4 L 241430.5 68710.4 L 241430.5 67391.6 L 244441.2 67391.6 Q 244760.4 67395.1 244842.3 67162 Q 244441.2 66807.1 244000.2 66448.7 Q 243919.7 66382.9 243846.2 66323.4 Q 243438.1 65993.7 243408.7 65972 L 242620.5 66975.8 L 241430.5 66975.8 L 241430.5 65800.5 L 244857 65800.5 Q 245175.5 65804 245258.1 65570.9 Q 244844.4 65193.6 244383.8 64817 Q 244280.9 64731.6 244187.8 64655.3 Q 243767.8 64316.5 243738.4 64294.8 L 242892.8 65384.7 L 241430.5 65384.7 L 241430.5 64338.2 Q 241683.2 64294.8 241785.4 64199.6 Q 241887.6 64105.1 241903.7 63965.1 L 239810.7 63778.9 L 239810.7 65384.7 L 236585.1 65384.7 L 236699.9 65800.5 L 239810.7 65800.5 L 239810.7 66975.8 L 237172.4 66975.8 L 237287.2 67391.6 L 239810.7 67391.6 L 239810.7 68710.4 L 236198 68710.4 L 236312.8 69111.5 L 245057.2 69111.5 Q 245369.4 69115.7 245444.3 68882.6 Q 245029.9 68513.7 244574.2 68138.5 Q 244474.8 68055.9 244384.5 67982.4 Q 243968.7 67642.9 243939.3 67621.2 L 243093.7 68710.4 Z M 247193.6 66473.9 Q 247241.9 67252.3 247021.4 67983.1 Q 246800.9 68713.2 246505.5 69082.8 Q 246239.5 69314.5 246149.2 69609.9 Q 246058.2 69906 246233.2 70201.4 Q 246462.1 70510.8 246854.8 70479.3 Q 247247.5 70447.1 247509.3 70101.3 Q 247846.7 69617.6 247867.7 68679.6 Q 247888 67742.3 247408.5 66473.9 L 247193.6 66473.9 Z M 248240.1 63721.5 L 248240.1 77154.5 L 248569.8 77154.5 Q 249055.6 77138.4 249453.2 76971.8 Q 249850.8 76805.2 249874.6 76681.3 L 249874.6 64338.2 Q 250156.7 64294.1 250261.7 64191.2 Q 250366 64087.6 250390.5 63936.4 L 248240.1 63721.5 Z M 250003.4 66230.3 Q 250272.9 66803.6 250473.1 67519 Q 250672.6 68234.4 250662.8 68925.3 Q 251188.5 69399.9 251635.1 69182.2 Q 251998.4 69007.9 252105.5 68543.8 Q 252211.9 68079.7 251878.7 67495.9 Q 251485.3 66784.7 250160.9 66172.9 L 250003.4 66230.3 Z M 259250.4 65470.8 Q 259587.1 65474.3 259666.2 65241.2 Q 259224.5 64863.2 258737.3 64469.8 Q 258600.8 64359.9 258480.4 64262.6 Q 258046.4 63915.4 258017 63893.7 L 257114 65069 L 250849 65069 L 250963.8 65470.8 L 254375.6 65470.8 Q 253842.2 67269.8 252921 69178 Q 252644.5 69746.4 252340.7 70300.1 Q 251328.5 72158.6 250103.5 73584.5 L 250261.7 73728 Q 252419.1 72122.2 253974.5 70000.5 L 253974.5 77154.5 L 254218.1 77139.8 Q 254944 77123 255282.8 76960.6 Q 255621.6 76798.9 255637.7 76695.3 L 255637.7 68696.4 Q 256099.7 68620.8 256153.6 68394.7 L 255135.8 68179.8 Q 255852.6 66879.2 256311.1 65470.8 L 259250.4 65470.8 Z M 256167.6 68940 Q 256783.6 69831.1 257338 70923.8 Q 257892.4 72016.5 258089.1 73068.6 Q 258753.4 73559.3 259201.4 73246.4 Q 259615.8 72957.3 259594.1 72240.5 Q 259572.4 71523.7 258875.9 70638.9 Q 258131.1 69687.6 256325.8 68853.9 L 256167.6 68940 Z M 262719.6 77068.4 Q 263579.9 77046 264149.7 76469.9 Q 264719.5 75893.8 264741.2 75032.8 Q 264719.5 74172.5 264149.7 73602.7 Q 263579.9 73032.9 262719.6 73011.2 Q 261858.6 73032.9 261282.5 73602.7 Q 260706.4 74172.5 260684 75032.8 Q 260706.4 75893.8 261282.5 76469.9 Q 261858.6 77046 262719.6 77068.4  Z M 262719.6 73527.1 Q 263359.4 73543.2 263783.6 73968.1 Q 264208.5 74393 264224.6 75032.8 Q 264208.5 75673.3 263783.6 76104.5 Q 263359.4 76535 262719.6 76552.5 Q 262069.3 76535 261642.3 76104.5 Q 261215.3 75673.3 261199.9 75032.8 Q 261215.3 74393 261642.3 73968.1 Q 262069.3 73543.2 262719.6 73527.1  Z " fill-rule="nonzero" style="fill:#525252;;fill-opacity:1;"/>
</svg>