<svg version="1.1" x="0" y="0" width="100%" height="100%" viewBox="0 0 178995.2 83865.6" xmlns="http://www.w3.org/2000/svg">
  <path d="M 16978.25 6804.15 L 16978.25 6727.65 L 12185.75 6727.65 L 12185.75 21227.4 L 16978.25 21227.4 L 16978.25 21150.9 Q 15689 20049.9 14829.5 18203.4 Q 13970 16356.9 13937 13977.9 Q 13970 11598.15 14829.5 9751.65 Q 15689 7905.15 16978.25 6804.15  Z M 20449.25 9953.4 L 29681 9953.4 L 29681 11750.4 L 31601 11750.4 L 31601 8248.65 L 26424.5 8248.65 Q 26247.5 7839.9 26015 7416.9 Q 25783.25 6993.9 25548.5 6620.4 L 23720.75 7188.15 Q 24005 7672.65 24243.5 8248.65 L 18621.5 8248.65 L 18621.5 11750.4 L 20449.25 11750.4 L 20449.25 9953.4 Z M 24335 11857.65 Q 23954 11443.65 23314.25 11015.4 Q 22673.75 10586.4 22061.75 10275.9 L 21002 11458.65 Q 21612.5 11818.65 22225.25 12288.15 Q 22838 12757.65 23183 13163.4 L 24335 11857.65 Z M 19435.25 13746.9 Q 20069 14096.4 20705 14551.65 Q 21341 15006.9 21708.5 15390.9 L 22799 14039.4 Q 22406.75 13657.65 21755 13238.4 Q 21103.25 12819.15 20480 12518.4 L 19435.25 13746.9 Z M 31784.75 17126.4 L 31784.75 15590.4 L 26225 15590.4 Q 26504.75 14519.4 26614.25 13275.15 Q 26724.5 12030.9 26762 10613.4 L 24827 10613.4 Q 24825.5 10650.9 24824.75 10687.65 Q 24792.5 12149.4 24689.75 13374.9 Q 24587 14600.4 24258.5 15590.4 L 18483.5 15590.4 L 18483.5 17126.4 L 23444.75 17126.4 Q 22800.5 17943.15 21629.75 18546.9 Q 20459 19151.4 18605.75 19553.4 Q 18917 19869.9 19205 20313.9 Q 19493 20757.15 19619.75 21120.15 Q 22129.25 20508.9 23567 19509.15 Q 25005.5 18509.4 25671.5 17126.4 L 31784.75 17126.4 Z M 25548.5 18769.65 Q 27040.25 19232.4 28407.5 19847.4 Q 29775.5 20461.65 30679.25 21073.65 L 31800.5 19614.9 Q 30833 19056.9 29379.5 18459.15 Q 27925.25 17860.65 26393.75 17418.15 L 25548.5 18769.65 Z M 36961.25 10091.4 L 43811.75 10091.4 L 43811.75 10752.15 L 36961.25 10752.15 L 36961.25 10091.4 Z M 36961.25 8401.65 L 43811.75 8401.65 L 43811.75 9031.65 L 36961.25 9031.65 L 36961.25 8401.65 Z M 47175.5 12518.4 L 41400.5 12518.4 Q 41231 12192.15 41016.5 11888.4 L 45639.5 11888.4 L 45639.5 7280.4 L 35210 7280.4 L 35210 11888.4 L 39895.25 11888.4 L 39188.75 12103.65 Q 39330.5 12288.15 39449.75 12518.4 L 33628.25 12518.4 L 33628.25 13962.15 L 47175.5 13962.15 L 47175.5 12518.4 Z M 36915.5 18017.4 Q 36268.25 18518.4 35275.25 18950.4 Q 34283 19382.4 33244.25 19676.4 Q 33562.25 19914.15 33953 20290.65 Q 34343 20667.15 34580.75 20951.4 Q 35611.25 20549.4 36700.25 19954.65 Q 37788.5 19359.9 38589.5 18693.15 L 36915.5 18017.4 Z M 37330.25 15759.15 L 43565.75 15759.15 L 43565.75 16619.4 L 37330.25 16619.4 L 37330.25 15759.15 Z M 45409.25 17863.65 L 45409.25 14514.9 L 35579 14514.9 L 35579 17863.65 L 39557 17863.65 L 39557 19506.9 Q 39572.75 19737.9 39265.25 19737.9 Q 39090.5 19749.9 38604.5 19746.9 Q 38119.25 19744.65 37622 19722.15 Q 37786.25 20029.65 37921.25 20403.9 Q 38057 20777.4 38129 21120.15 Q 38933 21126.15 39543.5 21095.4 Q 40154.75 21063.9 40601.75 20920.65 Q 41043.5 20778.9 41218.25 20471.4 Q 41392.25 20163.15 41384.75 19584.15 L 41384.75 17863.65 L 45409.25 17863.65 Z M 42045.5 19046.4 Q 43025.75 19435.65 44084.75 19941.15 Q 44184.5 19989.15 44282.75 20037.15 Q 45326.75 20544.15 45977.75 20966.4 L 47252.75 19845.15 Q 46532 19411.65 45459.5 18937.65 Q 45367.25 18896.4 45274.25 18855.9 Q 44191.25 18386.4 43228.25 18063.15 L 42045.5 19046.4 Z M 56791.25 18923.4 L 56791.25 15836.4 L 61383.5 15836.4 L 61383.5 14069.4 L 56791.25 14069.4 L 56791.25 11366.4 L 61967 11366.4 L 61967 9584.4 L 56791.25 9584.4 L 56791.25 6819.9 L 54871.25 6819.9 L 54871.25 9584.4 L 52505.75 9584.4 Q 52901 8524.65 53227.25 7419.15 L 51338 7004.4 Q 50938.25 8597.4 50232.5 10053.15 Q 49526.75 11508.15 48619.25 12503.4 Q 48989.75 12705.15 49475.75 13031.4 Q 49961.75 13356.9 50263.25 13593.9 Q 51023 12664.65 51691.25 11366.4 L 54871.25 11366.4 L 54871.25 14069.4 L 50708.75 14069.4 L 50708.75 15836.4 L 54871.25 15836.4 L 54871.25 18923.4 L 48941.75 18923.4 L 48941.75 20720.4 L 62750.75 20720.4 L 62750.75 18923.4 L 56791.25 18923.4 Z M 74117 11105.4 L 74117 8893.65 L 74470.25 8893.65 L 74470.25 9953.4 L 76513.25 9953.4 Q 76375.25 11166.9 76145 12288.15 Q 75730.25 11469.9 75315.5 10721.4 L 74117 11105.4 Z M 71720.75 15789.9 L 71720.75 14223.15 L 72689 14223.15 L 72689 15452.4 L 71720.75 15789.9 Z M 72689 10137.9 L 71720.75 10137.9 L 71720.75 8893.65 L 72689 8893.65 L 72689 10137.9 Z M 72689 12840.9 L 71720.75 12840.9 L 71720.75 11520.15 L 72689 11520.15 L 72689 12840.9 Z M 70307.75 16266.15 Q 69816.5 16431.15 69416.75 16527.15 L 69785.75 18032.4 Q 71122.25 17537.4 72689 16926.9 L 72689 18677.4 L 74117 18677.4 L 74117 16373.4 L 74885 16081.65 L 74609 14791.65 L 74117 14960.4 L 74117 11289.9 Q 74498.75 12020.4 74871.5 12823.65 Q 75245 13626.9 75591.5 14438.4 Q 75023 16269.9 74178.5 17433.9 Q 74447 17637.15 74774 18001.65 Q 75100.25 18366.9 75299.75 18662.4 Q 75929.75 17787.15 76421 16542.9 Q 76747.25 17429.4 76913 18109.65 L 78341 17586.9 Q 78154.25 16924.65 77846 16114.65 Q 77537.75 15304.65 77143.25 14423.4 Q 77819 11900.4 78125.75 8754.9 L 77174 8463.15 L 76913 8509.65 L 74669.75 8509.65 L 74669.75 7357.65 L 69693.5 7357.65 L 69693.5 8893.65 L 70307.75 8893.65 L 70307.75 16266.15 Z M 68449.25 15943.65 L 69878 15943.65 L 69878 14361.9 L 68449.25 14361.9 L 68449.25 12810.15 L 69893 12810.15 L 69893 11197.65 L 68050.25 11197.65 L 68050.25 9953.4 L 69617 9953.4 L 69617 8370.9 L 68050.25 8370.9 L 68050.25 6804.15 L 66422 6804.15 L 66422 8370.9 L 64532.75 8370.9 L 64532.75 9953.4 L 66422 9953.4 L 66422 11197.65 L 64179.5 11197.65 L 64179.5 12810.15 L 66867.5 12810.15 L 66867.5 17064.9 Q 66479 16465.65 66206.75 15590.4 Q 66230 14745.9 66206.75 13900.65 L 64701.5 13808.4 Q 64771.25 15404.4 64595.75 17055.15 Q 64421 18705.9 63718.25 20060.4 Q 63991.25 20205.15 64342.25 20540.4 Q 64693.25 20874.9 64886 21181.65 Q 65630.75 19899.15 65915 18385.65 Q 66857 19813.65 68355.5 20300.4 Q 69853.25 20786.4 72074 20751.15 L 77726.75 20751.15 Q 77825.75 20315.4 78020.75 19800.9 Q 78215 19287.15 78418.25 18954.15 Q 77770.25 18981.9 76625.75 18991.65 Q 75704 18999.9 74733.5 19001.4 Q 73530.5 19002.9 72678.5 19000.65 Q 72317 19000.65 72089.75 19000.65 Q 70972.25 19007.4 70061.75 18892.65 Q 69152 18778.65 68449.25 18462.9 L 68449.25 15943.65 Z M 84070.25 21227.4 L 84070.25 6727.65 L 79277.75 6727.65 L 79277.75 6804.15 Q 80567 7905.15 81426.5 9751.65 Q 82286 11598.15 82319 13977.9 Q 82286 16356.9 81426.5 18203.4 Q 80567 20049.9 79277.75 21150.9 L 79277.75 21227.4 L 84070.25 21227.4 Z " fill-rule="nonzero" style="fill:#333333;;fill-opacity:1;"/>
  <path d="M 6547.3 34010.85 L 5402.65 34304 L 5402.65 32333.85 L 6600.6 32333.85 L 6600.6 30869.4 L 5402.65 30869.4 L 5402.65 28366.9 L 3951.85 28366.9 L 3951.85 30869.4 L 2580.35 30869.4 L 2580.35 32333.85 L 3951.85 32333.85 L 3951.85 34703.1 Q 3677.55 34770.05 3423.4 34833.1 Q 2841 34977.4 2367.8 35089.2 L 2713.6 36606.95 L 3951.85 36261.15 L 3951.85 38923.55 Q 3964.85 39166 3738.65 39149.75 Q 3609.95 39159.5 3305.75 39159.5 Q 3002.2 39159.5 2633.65 39149.75 Q 2777.95 39474.75 2894.95 39884.9 Q 3011.95 40295.05 3046.4 40600.55 Q 3674.3 40614.85 4128 40552.45 Q 4581.7 40489.4 4870.3 40294.4 Q 5174.5 40120.85 5290.85 39800.4 Q 5407.85 39479.3 5402.65 38936.55 L 5402.65 35834.75 Q 5647.7 35761.95 5890.15 35687.2 Q 6315.9 35552.65 6746.85 35435.65 L 6547.3 34010.85 Z M 10061.85 34796.7 L 10061.85 36060.95 L 8717 36060.95 L 8717 34796.7 L 10061.85 34796.7 Z M 12884.15 36060.95 L 11486 36060.95 L 11486 34796.7 L 12884.15 34796.7 L 12884.15 36060.95 Z M 11486 38710.35 L 11486 37405.8 L 12884.15 37405.8 L 12884.15 38710.35 L 11486 38710.35 Z M 8717 37405.8 L 10061.85 37405.8 L 10061.85 38710.35 L 8717 38710.35 L 8717 37405.8 Z M 7292.85 40720.15 L 8717 40720.15 L 8717 40081.2 L 12884.15 40081.2 L 12884.15 40653.85 L 14388.25 40653.85 L 14388.25 33412.2 L 7292.85 33412.2 L 7292.85 40720.15 Z M 13243.6 30084.2 L 13243.6 28353.25 L 11699.2 28353.25 L 11699.2 30084.2 L 9888.95 30084.2 L 9888.95 28353.25 L 8371.2 28353.25 L 8371.2 30084.2 L 6840.45 30084.2 L 6840.45 31508.35 L 8371.2 31508.35 L 8371.2 32999.45 L 9888.95 32999.45 L 9888.95 31508.35 L 11699.2 31508.35 L 11699.2 32999.45 L 13243.6 32999.45 L 13243.6 31508.35 L 14801 31508.35 L 14801 30084.2 L 13243.6 30084.2 Z M 22535.35 32653 Q 23447.3 31701.4 24199.35 30589.9 Q 25028.1 31641.6 26036.25 32653 L 22535.35 32653 Z M 21789.8 34064.15 L 26555.6 34064.15 L 26555.6 33159.35 Q 27031.4 33581.85 27487.05 33944.55 Q 27585.2 33594.85 27793.2 33145.7 Q 28001.2 32696.55 28219.6 32387.15 Q 27349.25 31835.3 26467.2 31000.7 Q 25585.15 30166.75 24944.9 29325 Q 25097.65 29046.15 25210.75 28766 L 25210.75 28766 L 23799.6 28273.95 Q 23193.8 29586.3 22218.8 30691.3 Q 21243.8 31796.95 20099.15 32520.4 Q 20292.2 32838.25 20515.15 33323.8 Q 20738.1 33809.35 20831.05 34117.45 Q 21320.5 33778.15 21789.8 33358.9 L 21789.8 34064.15 Z M 18315.55 35262.75 Q 18898.6 34447.65 19434.85 33558.45 Q 19971.1 32669.25 20405.3 31774.85 L 19060.45 30976 Q 18738.05 31757.95 18355.2 32480.1 L 17490.05 32560.05 Q 17986.65 31721.55 18438.4 30773.2 Q 18890.15 29824.2 19207.35 28886.25 L 17742.9 28220.65 Q 17493.3 29253.5 17129.3 30196.65 Q 17016.85 30495 16906.35 30760.2 Q 16552.75 31600 16371.4 31894.45 Q 16032.1 32563.3 15653.15 32693.3 Q 15790.3 33017 15940.45 33445.35 Q 16090.6 33873.7 16158.85 34117.45 Q 16280.4 34050.5 16579.4 33986.15 Q 16879.05 33921.8 17570 33824.95 Q 17306.75 34277.35 17085.75 34600.4 Q 16864.75 34922.8 16730.85 35076.2 Q 16457.2 35444.75 16230.35 35658.6 Q 16003.5 35872.45 15759.1 35941.35 Q 15906 36263.75 16052.25 36688.2 Q 16198.5 37113.3 16265.45 37365.5 Q 16418.2 37250.45 16856.95 37095.75 Q 17124.75 37001.5 17595.35 36866.3 Q 18381.2 36639.45 20072.5 36207.85 Q 20051.05 35945.25 20039.35 35570.2 Q 20027.65 35195.8 20045.85 34863 L 18315.55 35262.75 Z M 16185.5 40241.1 Q 17085.1 39877.75 18137.45 39449.4 Q 19189.15 39020.4 20259.05 38577.1 L 19979.55 37245.9 Q 18811.5 37682.05 17711.05 38066.2 Q 16610.6 38450.35 15812.4 38696.7 L 16185.5 40241.1 Z M 24931.25 37405.8 Q 25277.7 37961.55 25623.5 38577.1 L 22894.8 38816.95 Q 23274.4 38183.2 23666.35 37487.05 Q 23984.2 36923.5 24265.65 36447.05 L 27726.9 36447.05 L 27726.9 34996.25 L 20658.15 34996.25 L 20658.15 36447.05 L 22588.65 36447.05 Q 22289 36990.45 21921.75 37607.3 Q 21832.05 37757.45 21746.25 37897.85 Q 21392.65 38477 21217.15 38683.7 Q 21031.9 38879.35 20791.4 38978.15 Q 20550.9 39076.95 20325.35 39123.1 Q 20434.55 39396.1 20578.2 39828.35 Q 20722.5 40261.25 20791.4 40573.9 Q 20977.95 40478.35 21427.75 40391.9 Q 21875.6 40305.45 22978.65 40175.45 Q 24088.2 40044.15 26262.45 39815.35 Q 26512.05 40380.85 26662.2 40826.75 L 28019.4 40201.45 Q 27752.9 39496.2 27240.7 38588.8 Q 26729.15 37681.4 26182.5 36886.45 L 24931.25 37405.8 Z M 35487.9 31068.95 Q 35870.75 32606.85 36552.6 33784.65 Q 35673.8 34350.8 34675.4 34756.4 Q 34774.2 34443.1 34830.75 33882.8 Q 34886.65 33322.5 34915.25 32440.45 Q 34925.65 32296.8 34933.45 32135.6 Q 34941.25 31975.05 34941.9 31961.4 L 31827.1 31961.4 Q 31860.25 31548.65 31853.75 31175.55 L 31853.75 31068.95 L 35487.9 31068.95 Z M 33424.15 33186 Q 33395.55 33689.1 33351.35 33947.8 Q 33307.15 34206.5 33238.25 34291 Q 33101.75 34430.75 32905.45 34410.6 Q 32595.4 34423.6 31946.7 34357.3 Q 32087.1 34606.25 32172.9 34929.95 Q 32258.7 35253 32279.5 35542.25 Q 32704.6 35552 33066.65 35542.25 Q 33428.7 35531.85 33664 35501.95 Q 34166.45 35478.55 34489.5 35115.85 Q 34566.2 35029.4 34622.75 34903.3 Q 34863.25 35145.75 35126.5 35459.05 Q 35389.75 35771.7 35541.2 35994.65 Q 36492.8 35542.25 37364.45 34929.95 Q 37854.55 35443.45 38411.6 35730.1 Q 38968.65 36016.75 39588.1 36021.3 Q 40423.35 36060.95 40847.8 35603.35 Q 41271.6 35146.4 41438 33837.95 Q 41128.6 33733.95 40789.3 33545.45 Q 40450 33356.3 40200.4 33132.7 Q 40145.8 33882.8 40028.8 34205.85 Q 39911.8 34528.9 39667.4 34530.2 Q 39122.05 34517.2 38576.05 33944.55 Q 39641.4 32949.4 40346.65 31654.6 L 38922.5 31242.5 Q 38469.45 32067.35 37777.2 32773.25 Q 37378.1 32021.2 37098.6 31068.95 L 41131.85 31068.95 L 41131.85 29711.1 L 39428.2 29711.1 L 39867.6 29418.6 Q 39607.6 29148.2 39209.8 28831 Q 38812.65 28513.8 38403.15 28273.95 L 37337.8 28912.9 Q 37582.2 29066.3 37840.9 29276.9 Q 38099.6 29488.15 38323.2 29711.1 L 36805.45 29711.1 Q 36709.25 29059.15 36672.2 28366.9 L 35088.15 28366.9 Q 35125.2 29059.15 35221.4 29711.1 L 30269.7 29711.1 L 30269.7 31162.55 Q 30290.5 32064.75 30103.95 33156.1 Q 30079.25 33284.15 30049.35 33411.55 Q 29820.55 34504.85 29097.75 35435.65 Q 29391.55 35582.55 29800.4 35875.05 Q 30208.6 36166.9 30442.6 36393.75 Q 30967.15 35714.5 31269.4 34879.9 Q 31571.65 34045.3 31706.85 33186 L 33424.15 33186 Z M 32345.8 37379.15 L 33370.85 37379.15 L 33370.85 39123.1 L 32345.8 39123.1 L 32345.8 37379.15 Z M 35860.35 37379.15 L 35860.35 39123.1 L 34822.3 39123.1 L 34822.3 37379.15 L 35860.35 37379.15 Z M 38362.85 37379.15 L 38362.85 39123.1 L 37311.8 39123.1 L 37311.8 37379.15 L 38362.85 37379.15 Z M 39907.25 36154.55 L 30868.35 36154.55 L 30868.35 39123.1 L 29284.3 39123.1 L 29284.3 40534.25 L 41384.7 40534.25 L 41384.7 39123.1 L 39907.25 39123.1 L 39907.25 36154.55 Z M 50330.65 37338.85 Q 49648.15 37891.35 48706.3 38284.6 Q 47748.2 37891.35 47068.95 37338.85 L 50330.65 37338.85 Z M 45644.8 34357.3 L 51608.55 34357.3 L 51608.55 34889.65 L 45644.8 34889.65 L 45644.8 34357.3 Z M 45644.8 32946.15 L 51608.55 32946.15 L 51608.55 33478.5 L 45644.8 33478.5 L 45644.8 32946.15 Z M 45644.8 31548.65 L 51608.55 31548.65 L 51608.55 32067.35 L 45644.8 32067.35 L 45644.8 31548.65 Z M 51741.8 36207.85 L 51462.3 36274.15 L 47681.25 36274.15 Q 47917.85 36038.2 48134.3 35781.45 L 53206.25 35781.45 L 53206.25 30669.85 L 49186 30669.85 Q 49288.7 30430 49371.9 30150.5 L 54337.25 30150.5 L 54337.25 28872.6 L 42955.75 28872.6 L 42955.75 30150.5 L 47654.6 30150.5 Q 47654.6 30150.5 47654.6 30151.15 Q 47618.2 30410.5 47561.65 30669.85 L 44127.05 30669.85 L 44127.05 35781.45 L 46244.1 35781.45 Q 45052.65 36863.05 42503.35 37565.7 Q 42735.4 37749 43002.55 38068.15 Q 43269.7 38386.65 43421.8 38670.05 Q 44656.15 38250.8 45631.8 37751.6 Q 46233.7 38371.05 46976 38870.25 Q 45920.4 39138.05 44747.8 39296 Q 43575.2 39453.95 42370.1 39522.2 Q 42544.95 39783.5 42708.1 40134.5 Q 42870.6 40485.5 42955.75 40787.1 Q 44451.4 40651.25 45887.9 40390.6 Q 47323.75 40130.6 48600.35 39695.1 Q 50903.3 40580.4 54084.4 40787.1 Q 54243 40451.7 54490.65 40051.3 Q 54738.3 39651.55 54976.2 39375.95 Q 52463.95 39279.1 50490.55 38843.6 Q 51867.9 38061 52726.55 36820.15 L 51741.8 36207.85 Z M 58876.85 31628.6 L 60407.6 31628.6 L 60407.6 30656.2 L 63482.75 30656.2 L 63482.75 31628.6 L 65066.8 31628.6 L 65066.8 30656.2 L 67902.75 30656.2 L 67902.75 29219.05 L 65066.8 29219.05 L 65066.8 28353.25 L 63482.75 28353.25 L 63482.75 29219.05 L 60407.6 29219.05 L 60407.6 28353.25 L 58837.2 28353.25 L 58837.2 29219.05 L 56068.2 29219.05 L 56068.2 30656.2 L 58837.2 30656.2 L 58837.2 31614.95 L 58477.75 31495.35 Q 58005.2 32597.75 57260.95 33575.35 Q 56516.7 34552.95 55655.45 35236.1 Q 55892.7 35524.05 56184.55 35979.7 Q 56476.4 36435.35 56614.2 36713.55 Q 57019.8 36363.85 57426.05 35914.7 L 57426.05 40773.45 L 58969.8 40773.45 L 58969.8 33904.9 Q 59562.6 32963.05 59994.85 32001.05 L 58876.85 31628.6 Z M 63003.7 35741.8 L 63003.7 37059.35 L 61499.6 37059.35 L 61499.6 35741.8 L 63003.7 35741.8 Z M 64454.5 38350.9 L 64454.5 34450.25 L 60035.15 34450.25 L 60035.15 39096.45 L 61499.6 39096.45 L 61499.6 38350.9 L 64454.5 38350.9 Z M 67969.05 32134.3 L 60035.15 32134.3 L 60035.15 33598.75 L 65333.3 33598.75 L 65333.3 38989.85 Q 65335.9 39145.85 65261.8 39204.35 Q 65187.05 39262.85 65000.5 39269.35 Q 64806.15 39270 64260.15 39266.1 Q 63713.5 39262.2 63110.3 39242.7 Q 63285.8 39565.1 63444.4 39970.05 Q 63603 40375 63669.3 40707.15 Q 64505.2 40713.65 65116.85 40670.75 Q 65728.5 40627.2 66145.15 40454.3 Q 66567.65 40301.55 66732.75 39966.8 Q 66897.85 39631.4 66890.7 39029.5 L 66890.7 33598.75 L 67969.05 33598.75 L 67969.05 32134.3 Z M 78325.5 32746.6 L 79270.6 32746.6 L 79270.6 33358.9 L 78325.5 33358.9 L 78325.5 32746.6 Z M 78325.5 35022.9 L 78325.5 34423.6 L 79270.6 34423.6 L 79270.6 35022.9 L 78325.5 35022.9 Z M 79297.25 39136.1 L 76369 39136.1 L 76369 37977.8 L 79297.25 37977.8 L 79297.25 39136.1 Z M 74877.9 33358.9 L 74877.9 30883.05 L 81400.65 30883.05 L 81400.65 29551.85 L 78392.45 29551.85 Q 78268.95 29234.65 78096.05 28872.6 Q 77923.15 28510.55 77739.85 28194 L 76209.1 28566.45 Q 76438.55 29029.25 76648.5 29551.85 L 73507.05 29551.85 L 73507.05 33837.95 Q 73511.6 34572.45 73468.7 35392.1 Q 73425.8 36211.75 73280.2 37046.35 L 73041 35941.35 Q 72461.85 36207.85 71882.7 36434.05 L 71882.7 33012.45 L 73227.55 33012.45 L 73227.55 31508.35 L 71882.7 31508.35 L 71882.7 28539.8 L 70431.9 28539.8 L 70431.9 31508.35 L 69100.7 31508.35 L 69100.7 33012.45 L 70431.9 33012.45 L 70431.9 37046.35 Q 69612.9 37379.15 68994.1 37592.35 L 69486.8 39229.7 Q 70326.6 38844.9 71288.6 38382.75 Q 72250.6 37920.6 73200.9 37445.45 Q 72951.3 38850.1 72202.5 39974.6 Q 72470.95 40096.8 72824.55 40326.25 Q 73178.15 40555.05 73386.8 40746.8 Q 74138.2 39604.1 74463.2 38132.5 Q 74563.95 37702.2 74636.1 37264.1 Q 74865.55 35767.15 74877.9 34423.6 L 76941 34423.6 L 76941 35022.9 L 75210.7 35022.9 L 75210.7 36101.25 L 76941 36101.25 L 76941 36726.55 L 74997.5 36726.55 L 74997.5 40800.1 L 76369 40800.1 L 76369 40387.35 L 79297.25 40387.35 L 79297.25 40787.1 L 80722.05 40787.1 L 80722.05 36726.55 L 78325.5 36726.55 L 78325.5 36101.25 L 80601.8 36101.25 L 80601.8 34543.85 L 81307.7 34543.85 L 81307.7 33239.3 L 80601.8 33239.3 L 80601.8 31668.25 L 78325.5 31668.25 L 78325.5 31109.25 L 76941 31109.25 L 76941 31668.25 L 75251 31668.25 L 75251 32746.6 L 76941 32746.6 L 76941 33358.9 L 74877.9 33358.9 Z M 88735.9 31068.95 Q 89118.75 32606.85 89800.6 33784.65 Q 88921.8 34350.8 87923.4 34756.4 Q 88022.2 34443.1 88078.75 33882.8 Q 88134.65 33322.5 88163.25 32440.45 Q 88173.65 32296.8 88181.45 32135.6 Q 88189.25 31975.05 88189.9 31961.4 L 85075.1 31961.4 Q 85108.25 31548.65 85101.75 31175.55 L 85101.75 31068.95 L 88735.9 31068.95 Z M 86672.15 33186 Q 86643.55 33689.1 86599.35 33947.8 Q 86555.15 34206.5 86486.25 34291 Q 86349.75 34430.75 86153.45 34410.6 Q 85843.4 34423.6 85194.7 34357.3 Q 85335.1 34606.25 85420.9 34929.95 Q 85506.7 35253 85527.5 35542.25 Q 85952.6 35552 86314.65 35542.25 Q 86676.7 35531.85 86912 35501.95 Q 87414.45 35478.55 87737.5 35115.85 Q 87814.2 35029.4 87870.75 34903.3 Q 88111.25 35145.75 88374.5 35459.05 Q 88637.75 35771.7 88789.2 35994.65 Q 89740.8 35542.25 90612.45 34929.95 Q 91102.55 35443.45 91659.6 35730.1 Q 92216.65 36016.75 92836.1 36021.3 Q 93671.35 36060.95 94095.8 35603.35 Q 94519.6 35146.4 94686 33837.95 Q 94376.6 33733.95 94037.3 33545.45 Q 93698 33356.3 93448.4 33132.7 Q 93393.8 33882.8 93276.8 34205.85 Q 93159.8 34528.9 92915.4 34530.2 Q 92370.05 34517.2 91824.05 33944.55 Q 92889.4 32949.4 93594.65 31654.6 L 92170.5 31242.5 Q 91717.45 32067.35 91025.2 32773.25 Q 90626.1 32021.2 90346.6 31068.95 L 94379.85 31068.95 L 94379.85 29711.1 L 92676.2 29711.1 L 93115.6 29418.6 Q 92855.6 29148.2 92457.8 28831 Q 92060.65 28513.8 91651.15 28273.95 L 90585.8 28912.9 Q 90830.2 29066.3 91088.9 29276.9 Q 91347.6 29488.15 91571.2 29711.1 L 90053.45 29711.1 Q 89957.25 29059.15 89920.2 28366.9 L 88336.15 28366.9 Q 88373.2 29059.15 88469.4 29711.1 L 83517.7 29711.1 L 83517.7 31162.55 Q 83538.5 32064.75 83351.95 33156.1 Q 83327.25 33284.15 83297.35 33411.55 Q 83068.55 34504.85 82345.75 35435.65 Q 82639.55 35582.55 83048.4 35875.05 Q 83456.6 36166.9 83690.6 36393.75 Q 84215.15 35714.5 84517.4 34879.9 Q 84819.65 34045.3 84954.85 33186 L 86672.15 33186 Z M 85593.8 37379.15 L 86618.85 37379.15 L 86618.85 39123.1 L 85593.8 39123.1 L 85593.8 37379.15 Z M 89108.35 37379.15 L 89108.35 39123.1 L 88070.3 39123.1 L 88070.3 37379.15 L 89108.35 37379.15 Z M 91610.85 37379.15 L 91610.85 39123.1 L 90559.8 39123.1 L 90559.8 37379.15 L 91610.85 37379.15 Z M 93155.25 36154.55 L 84116.35 36154.55 L 84116.35 39123.1 L 82532.3 39123.1 L 82532.3 40534.25 L 94632.7 40534.25 L 94632.7 39123.1 L 93155.25 39123.1 L 93155.25 36154.55 Z M 100503.5 33864.6 L 100503.5 33478.5 L 100503.5 30616.55 L 103552 30616.55 L 103552 33864.6 L 100503.5 33864.6 Z M 107944.7 33864.6 L 105216 33864.6 L 105216 30616.55 L 107545.6 30616.55 L 107545.6 29125.45 L 96310.35 29125.45 L 96310.35 30616.55 L 98879.8 30616.55 L 98879.8 33465.5 L 98879.8 33864.6 L 95870.95 33864.6 L 95870.95 35382.35 L 98746.55 35382.35 Q 98580.15 36570.55 97923 37668.4 Q 97265.2 38766.9 95831.3 39655.45 Q 96147.85 39870.6 96519.65 40213.15 Q 96892.1 40555.05 97109.2 40840.4 Q 98744.6 39780.9 99473.9 38427.6 Q 99539.55 38311.25 99600.65 38193.6 Q 100267.55 36824.7 100410.55 35382.35 L 103552 35382.35 L 103552 40800.1 L 105216 40800.1 L 105216 35382.35 L 107944.7 35382.35 L 107944.7 33864.6 Z M 119326.85 30736.15 L 119020.7 30816.1 L 115892.25 30816.1 L 116704.1 30350.05 Q 116480.5 29943.8 116098.3 29405.6 Q 115716.1 28867.4 115344.3 28370.15 Q 115276.7 28279.8 115213 28194 L 113788.85 28952.55 Q 114087.2 29382.2 114412.85 29879.45 Q 114738.5 30376.7 114986.8 30816.1 L 109795.25 30816.1 L 109795.25 32373.5 L 117822.75 32373.5 Q 116810.7 33654 115392.4 34942.3 Q 115166.85 35147.05 114934.15 35347.25 Q 113476.85 36609.55 111938.3 37539.05 L 111859 37539.05 Q 111296.75 37550.75 110572.65 38019.4 Q 109847.9 38488.7 109116.65 39269.35 L 110261.3 40760.45 Q 110677.95 40092.25 111090.05 39569 Q 111501.5 39045.75 111818.7 39016.5 Q 112089.75 39049.65 112522 39396.75 Q 112792.4 39601.5 113123.25 39801.7 Q 113789.5 40214.45 114652.7 40377.6 Q 115515.9 40540.75 116730.75 40534.25 Q 117593.95 40532.3 118635.9 40497.85 Q 118998.6 40486.15 119349.6 40472.5 Q 120355.8 40431.55 120990.85 40387.35 Q 121021.4 40043.5 121167 39547.55 Q 121312.6 39050.95 121443.25 38696.7 Q 120550.15 38825.4 119384.05 38909.9 Q 119148.75 38927.45 118912.8 38941.75 Q 117740.2 39014.55 116784.05 39016.5 Q 115735.6 39026.25 114899.05 38906.65 Q 114062.5 38787.05 113443.05 38417.2 Q 115255.9 37221.2 116963.45 35643 Q 117376.2 35260.8 117770.75 34865.6 Q 119405.5 33233.45 120551.45 31548.65 L 119326.85 30736.15 Z M 125490.15 31202.2 L 131427.25 31202.2 L 131427.25 31774.85 L 125490.15 31774.85 L 125490.15 31202.2 Z M 125490.15 29737.75 L 131427.25 29737.75 L 131427.25 30283.75 L 125490.15 30283.75 L 125490.15 29737.75 Z M 134342.5 33305.6 L 129337.5 33305.6 Q 129190.6 33022.85 129004.7 32759.6 L 133011.3 32759.6 L 133011.3 28766 L 123972.4 28766 L 123972.4 32759.6 L 128032.95 32759.6 L 127420.65 32946.15 Q 127543.5 33106.05 127646.85 33305.6 L 122601.55 33305.6 L 122601.55 34556.85 L 134342.5 34556.85 L 134342.5 33305.6 Z M 125450.5 38071.4 Q 124889.55 38505.6 124028.95 38880 Q 123169 39254.4 122268.75 39509.2 Q 122544.35 39715.25 122883 40041.55 Q 123221 40367.85 123427.05 40614.2 Q 124320.15 40265.8 125263.95 39750.35 Q 126207.1 39234.9 126901.3 38657.05 L 125450.5 38071.4 Z M 125809.95 36114.25 L 131214.05 36114.25 L 131214.05 36859.8 L 125809.95 36859.8 L 125809.95 36114.25 Z M 132811.75 37938.15 L 132811.75 35035.9 L 124292.2 35035.9 L 124292.2 37938.15 L 127739.8 37938.15 L 127739.8 39362.3 Q 127753.45 39562.5 127486.95 39562.5 Q 127335.5 39572.9 126914.3 39570.3 Q 126493.75 39568.35 126062.8 39548.85 Q 126205.15 39815.35 126322.15 40139.7 Q 126439.8 40463.4 126502.2 40760.45 Q 127199 40765.65 127728.1 40739 Q 128257.85 40711.7 128645.25 40587.55 Q 129028.1 40464.7 129179.55 40198.2 Q 129330.35 39931.05 129323.85 39429.25 L 129323.85 37938.15 L 132811.75 37938.15 Z M 129896.5 38963.2 Q 130746.05 39300.55 131663.85 39738.65 Q 131750.3 39780.25 131835.45 39821.85 Q 132740.25 40261.25 133304.45 40627.2 L 134409.45 39655.45 Q 133784.8 39279.75 132855.3 38868.95 Q 132775.35 38833.2 132694.75 38798.1 Q 131756.15 38391.2 130921.55 38111.05 L 129896.5 38963.2 Z M 137750.45 41465.7 Q 138997.8 41082.85 139680.95 40232.65 Q 140364.1 39383.1 140373.2 38231.3 Q 140371.9 37383.05 140008.55 36900.1 Q 139645.2 36416.5 138935.4 36407.4 Q 138390.7 36412.6 138018.25 36726.55 Q 137645.8 37041.15 137630.85 37605.35 Q 137647.1 38177.35 138013.7 38482.2 Q 138379.65 38787.05 138895.1 38790.3 Q 138978.3 38793.55 139042 38776.65 Q 138902.25 39861.5 137324.7 40387.35 L 137750.45 41465.7 Z M 152180.45 32014.05 L 153791.8 32014.05 L 153791.8 31015.65 L 156560.15 31015.65 L 156560.15 32027.7 L 158197.5 32027.7 L 158197.5 31015.65 L 161033.45 31015.65 L 161033.45 29498.55 L 158197.5 29498.55 L 158197.5 28353.25 L 156560.15 28353.25 L 156560.15 29498.55 L 153791.8 29498.55 L 153791.8 28353.25 L 152180.45 28353.25 L 152180.45 29498.55 L 149238.55 29498.55 L 149238.55 31015.65 L 152180.45 31015.65 L 152180.45 32014.05 Z M 152340.35 32120.65 Q 151775.5 33297.8 150886.3 34350.8 Q 149996.45 35403.15 148972.7 36101.25 Q 149272.35 36318.35 149661.7 36650.5 Q 150051.05 36982 150290.25 37219.25 Q 150739.4 36859.8 151208.7 36380.75 L 151208.7 40787.1 L 152846.05 40787.1 L 152846.05 34410.6 Q 153465.5 33542.2 153924.4 32613.35 L 152340.35 32120.65 Z M 157598.85 39043.15 Q 157182.2 39054.85 157058.05 38924.85 Q 156933.25 38794.85 156946.25 38377.55 L 156946.25 36407.4 Q 157998.6 35917.3 158976.2 35392.1 Q 159953.8 34867.55 160806.6 34317 L 159702.25 33012.45 Q 158523.8 33891.25 156946.25 34770.05 L 156946.25 32346.85 L 155322.55 32346.85 L 155322.55 35608.55 Q 154291 36101.25 153258.8 36514 Q 153426.5 36764.25 153606.55 37099.65 Q 153786.6 37435.05 153884.75 37724.95 Q 154593.25 37445.45 155322.55 37126.3 L 155322.55 38377.55 Q 155299.15 39614.5 155745.05 40098.1 Q 156190.95 40581.7 157385.65 40560.9 L 159382.45 40560.9 Q 160414 40586.25 160856 39963.55 Q 160859.9 39958.35 160863.8 39952.5 Q 161302.55 39323.95 161419.55 37738.6 Q 161062.7 37654.75 160638.9 37475.35 Q 160215.1 37296.6 159928.45 37073 Q 159890.75 38276.8 159759.45 38675.25 Q 159758.8 38677.2 159758.15 38678.5 Q 159625.55 39074.35 159249.2 39043.15 L 157598.85 39043.15 Z M 165506.1 35941.35 L 164187.9 35941.35 L 164187.9 31148.9 L 165506.1 31148.9 L 165506.1 35941.35 Z M 174691.25 32693.3 L 171562.8 32693.3 L 171562.8 28593.1 L 169912.45 28593.1 L 169912.45 32693.3 L 167023.85 32693.3 L 167023.85 29684.45 L 162710.45 29684.45 L 162710.45 38430.85 L 164187.9 38430.85 L 164187.9 37405.8 L 167023.85 37405.8 L 167023.85 34264.35 L 169912.45 34264.35 L 169912.45 40787.1 L 171562.8 40787.1 L 171562.8 34264.35 L 174691.25 34264.35 L 174691.25 32693.3 Z M 5695.8 57470.95 Q 5145.9 57846 4319.1 58178.15 Q 3492.95 58510.3 2633.65 58735.85 Q 2898.85 58941.25 3229.7 59251.3 Q 3559.9 59562 3765.3 59787.55 Q 4617.45 59480.75 5519 59016.65 Q 6421.2 58553.2 7093.3 58016.95 L 5695.8 57470.95 Z M 5349.35 51866.65 L 5096.5 52172.8 Q 5383.8 52296.95 5673.7 52473.75 Q 5963.6 52650.55 6161.2 52825.4 L 4577.15 52825.4 Q 4636.95 52365.85 4697.4 51866.65 L 5349.35 51866.65 Z M 5575.55 50268.95 L 5242.75 50655.05 Q 5468.95 50757.75 5717.25 50894.9 Q 5965.55 51032.05 6161.2 51174.4 L 4776.7 51174.4 L 4856.65 50268.95 L 5575.55 50268.95 Z M 6440.7 51174.4 L 6733.85 50788.3 Q 6587.6 50656.35 6349.7 50518.55 Q 6111.15 50381.4 5855.05 50268.95 L 7226.55 50268.95 Q 7206.4 50711.6 7146.6 51174.4 L 6440.7 51174.4 Z M 6321.1 52825.4 L 6680.55 52386 Q 6380.9 52116.25 5881.7 51866.65 L 7079.65 51866.65 Q 7019.85 52375.6 6960.05 52825.4 L 6321.1 52825.4 Z M 12591 56924.95 Q 12613.75 56944.45 12635.85 56963.95 Q 13083.05 57337.05 13363.2 57657.5 L 14468.2 56819 Q 13980.7 56333.45 13191.6 55785.5 Q 12402.5 55237.55 11645.9 54822.2 L 10620.85 55554.1 Q 10732 55620.4 10847.05 55687.35 Q 11044 55801.75 11246.8 55926.55 L 8224.95 56100.1 Q 9892.2 55494.3 11459.35 54688.95 L 10581.2 53703.55 Q 10008.55 54042.85 9396.25 54342.5 L 7439.1 54436.1 Q 7998.75 54196.25 8517.45 53916.75 L 8171.65 53623.6 L 8850.25 53623.6 L 8850.25 52825.4 L 8171.65 52825.4 Q 8228.2 52422.4 8264.6 51959.6 L 9263 51959.6 L 9263 51081.45 L 8358.2 51081.45 Q 8380.95 50767.5 8406.3 50457.45 Q 8450.5 49936.15 8477.8 49457.1 L 4311.3 49457.1 Q 4470.55 49273.8 4630.45 49071 L 8943.85 49071 L 8943.85 48112.9 L 5242.75 48112.9 Q 5283.05 48031.65 5322.7 47945.85 Q 5363 47860.7 5402.65 47780.1 L 4164.4 47486.95 Q 3888.8 48110.95 3420.8 48655 Q 2952.8 49199.05 2367.8 49603.35 Q 2612.85 49723.6 2933.3 49923.15 Q 3253.75 50122.7 3459.15 50282.6 Q 3476.05 50268.3 3493.6 50254 Q 3596.3 50168.2 3699 50083.05 Q 3695.1 50122.05 3691.85 50162.35 Q 3658.05 50605 3605.4 51081.45 L 2580.35 51081.45 L 2580.35 51959.6 L 3498.8 51959.6 Q 3388.95 52921.6 3259.6 53623.6 L 6746.85 53623.6 Q 6265.85 53885.55 5857 54064.95 Q 5448.15 54244.35 5256.4 54315.85 Q 4746.8 54515.4 4377.6 54555.7 Q 4472.5 54813.1 4577.15 55153.05 Q 4681.8 55493 4737.05 55700.35 Q 4867.7 55634.7 5275.9 55576.2 Q 5303.85 55572.3 5333.75 55568.4 Q 5773.15 55509.9 6920.4 55434.5 Q 5953.85 55793.3 5404.6 55966.85 Q 5314.25 55996.1 5242.75 56020.15 Q 4691.55 56198.9 4282.7 56302.9 Q 3873.85 56406.9 3512.45 56445.9 Q 3608.65 56716.95 3715.25 57088.1 Q 3821.85 57459.25 3858.25 57670.5 Q 4064.95 57584.05 4540.1 57517.1 Q 4868.35 57470.95 5463.75 57418.95 Q 6340.6 57342.25 8158 57218.1 L 8158 58483 Q 8181.4 58682.55 7905.15 58682.55 Q 7746.55 58692.95 7322.75 58691 Q 6899.6 58688.4 6440.7 58668.9 Q 6596.05 58947.75 6748.8 59301.35 Q 6901.55 59654.95 6986.7 59973.45 Q 7645.15 59978.65 8166.45 59943.55 Q 8687.75 59908.45 9076.45 59773.9 Q 9468.4 59623.1 9615.95 59339.7 Q 9762.85 59056.3 9755.7 58535.65 L 9755.7 57111.5 L 12591 56924.95 Z M 10355 58176.2 Q 11142.8 58501.85 11993 58921.1 Q 12038.5 58943.85 12084 58965.95 Q 12926.4 59385.85 13443.15 59720.6 L 14667.75 58882.1 Q 14065.85 58525.25 13187.05 58126.15 Q 13161.7 58115.1 13136.35 58103.4 Q 12255.6 57705.6 11486 57417.65 L 10355 58176.2 Z M 10940.65 49537.05 L 12551.35 49537.05 Q 12264.7 50309.25 11779.15 50921.55 Q 11250.05 50325.5 10900.35 49630 L 10940.65 49537.05 Z M 14681.4 49537.05 L 14681.4 48432.05 L 11432.7 48432.05 Q 11552.95 48129.15 11632.9 47806.75 L 10314.7 47553.25 Q 10092.4 48409.95 9666 49129.5 Q 9238.95 49848.4 8637.7 50335.9 Q 8871.7 50520.5 9158.35 50805.2 Q 9445 51089.25 9609.45 51294 Q 9905.2 51034.65 10181.45 50695.35 Q 10490.85 51274.5 10900.35 51773.7 Q 10065.1 52392.5 8930.2 52772.1 Q 9122.6 52967.75 9357.9 53275.85 Q 9593.2 53584.6 9715.4 53810.15 Q 10870.45 53361 11765.5 52651.85 Q 12780.8 53530.65 14175.05 53970.05 Q 14322.6 53687.3 14563.1 53362.3 Q 14802.95 53037.95 15040.2 52825.4 Q 13696 52472.45 12710.6 51760.05 Q 13479.55 50818.2 13909.2 49537.05 L 14681.4 49537.05 Z M 18887.55 51174.4 L 20444.95 51174.4 L 20444.95 50016.1 L 23520.1 50016.1 L 23520.1 51121.1 L 25104.15 51121.1 L 25104.15 50016.1 L 27926.45 50016.1 L 27926.45 48565.3 L 25104.15 48565.3 L 25104.15 47566.9 L 23520.1 47566.9 L 23520.1 48565.3 L 20444.95 48565.3 L 20444.95 47566.9 L 18887.55 47566.9 L 18887.55 48565.3 L 16145.2 48565.3 L 16145.2 50016.1 L 18887.55 50016.1 L 18887.55 51174.4 Z M 25583.85 53810.15 Q 25011.2 54951.55 24119.4 55833.6 Q 23759.95 54921.65 23520.1 53810.15 L 25583.85 53810.15 Z M 25676.8 53810.15 L 28033.05 53810.15 L 28033.05 52359.35 L 26741.5 52359.35 L 27407.1 51733.4 Q 27120.45 51470.8 26658.3 51136.05 Q 26196.8 50801.3 25769.75 50548.45 L 24798 51400.6 Q 25105.45 51613.8 25445.4 51864.7 Q 25785.35 52115.6 26062.9 52359.35 L 23267.25 52359.35 Q 23167.8 51580.65 23147.65 50761.65 L 21563.6 50761.65 Q 21603.25 51570.25 21683.2 52359.35 L 17170.25 52359.35 L 17170.25 54302.85 Q 17193 55274.6 16992.15 56424.45 Q 16939.5 56689 16865.4 56952.9 Q 16572.25 58100.8 15719.45 59055 Q 16011.3 59201.9 16408.45 59485.95 Q 16804.95 59770 17037 59987.1 Q 17923.6 58978.95 18294.75 57685.45 Q 18436.45 57219.4 18526.15 56747.5 Q 18757.55 55438.4 18741.3 54329.5 L 18741.3 53810.15 L 21909.4 53810.15 Q 22229.2 55510.55 22827.85 56871.65 Q 21091.05 58033.2 18834.25 58615.6 Q 19078.65 58876.9 19365.3 59279.9 Q 19651.95 59682.9 19806 59973.45 Q 21836.6 59318.25 23546.75 58202.85 Q 24097.95 59020.55 24778.5 59485.95 Q 25459.05 59951.35 26249.45 59960.45 Q 27101.6 59992.3 27552.05 59519.75 Q 27589.1 59478.8 27624.2 59433.3 Q 28048.65 58903.55 28219.6 57457.95 Q 27899.8 57352.65 27550.75 57149.85 Q 27201.05 56947.05 26941.7 56712.4 Q 26885.15 57650.35 26748.65 58051.4 Q 26612.15 58453.1 26355.4 58442.7 Q 25946.55 58438.15 25557.2 58121.6 Q 25167.85 57805.05 24798 57231.1 Q 26219.55 56009.75 27100.95 54289.2 L 25676.8 53810.15 Z M 31254.45 60665.7 Q 32501.8 60282.85 33184.95 59432.65 Q 33868.1 58583.1 33877.2 57431.3 Q 33875.9 56583.05 33512.55 56100.1 Q 33149.2 55616.5 32439.4 55607.4 Q 31894.7 55612.6 31522.25 55926.55 Q 31149.8 56241.15 31134.85 56805.35 Q 31151.1 57377.35 31517.7 57682.2 Q 31883.65 57987.05 32399.1 57990.3 Q 32482.3 57993.55 32546 57976.65 Q 32406.25 59061.5 30828.7 59587.35 L 31254.45 60665.7 Z M 49492.15 58056.6 L 49492.15 55381.2 L 53472.1 55381.2 L 53472.1 53849.8 L 49492.15 53849.8 L 49492.15 51507.2 L 53977.8 51507.2 L 53977.8 49962.8 L 49492.15 49962.8 L 49492.15 47566.9 L 47828.15 47566.9 L 47828.15 49962.8 L 45778.05 49962.8 Q 46120.6 49044.35 46403.35 48086.25 L 44766 47726.8 Q 44419.55 49107.4 43807.9 50369.05 Q 43196.25 51630.05 42409.75 52492.6 Q 42730.85 52667.45 43152.05 52950.2 Q 43573.25 53232.3 43834.55 53437.7 Q 44493 52632.35 45072.15 51507.2 L 47828.15 51507.2 L 47828.15 53849.8 L 44220.65 53849.8 L 44220.65 55381.2 L 47828.15 55381.2 L 47828.15 58056.6 L 42689.25 58056.6 L 42689.25 59614 L 54657.05 59614 L 54657.05 58056.6 L 49492.15 58056.6 Z M 61299.4 54795.55 Q 61127.15 54579.75 60702.7 54069.5 Q 60438.8 53753.6 60156.7 53424.05 Q 59703 52891.7 59409.2 52585.55 L 59409.2 51773.7 L 61140.15 51773.7 L 61140.15 50282.6 L 59409.2 50282.6 L 59409.2 47553.25 L 57892.1 47553.25 L 57892.1 50282.6 L 55934.95 50282.6 L 55934.95 51773.7 L 57691.9 51773.7 Q 57364.3 53000.9 56817 54201.45 Q 56269.7 55401.35 55602.15 56219.7 Q 55801.05 56532.35 56014.9 56945.1 Q 56228.75 57357.85 56347.7 57710.8 Q 56787.1 57143.35 57174.5 56356.2 Q 57561.9 55569.05 57892.1 54662.3 L 57892.1 59973.45 L 59409.2 59973.45 L 59409.2 54436.1 Q 59694.55 54882.65 59955.2 55314.25 Q 60215.85 55746.5 60380.95 56073.45 L 61299.4 54795.55 Z M 66744.45 58389.4 Q 66641.1 58389.4 66598.2 58309.45 Q 66557.9 58236.65 66557.9 57723.8 L 66557.9 48312.45 L 61792.1 48312.45 L 61792.1 52598.55 Q 61816.15 53835.5 61617.9 55224.55 Q 61516.5 55866.75 61319.55 56495.95 Q 60919.15 57857.05 59875.25 58948.4 Q 60155.4 59115.45 60522.65 59419.65 Q 60889.9 59723.85 61099.85 59960.45 Q 62157.4 58856.75 62642.3 57392.95 Q 62976.4 56413.4 63126.55 55403.95 Q 63340.4 53894.65 63322.85 52612.2 L 63322.85 49816.55 L 64986.85 49816.55 L 64986.85 57764.1 Q 64986.2 58598.7 65072 58956.85 Q 65157.8 59315 65346.3 59481.4 Q 65521.8 59660.8 65772.7 59750.5 Q 66022.95 59840.2 66278.4 59840.2 L 67010.3 59840.2 Q 67234.55 59841.5 67452.95 59785.6 Q 67672 59729.7 67835.8 59601 Q 68148.45 59374.8 68262.2 58789.15 Q 68322 58474.55 68360.35 57890.2 Q 68398.05 57306.5 68408.45 56752.05 Q 68112.7 56650 67812.4 56482.3 Q 67512.1 56315.25 67276.8 56113.1 Q 67275.5 56709.15 67261.85 57162.85 Q 67248.2 57617.2 67237.15 57843.4 Q 67237.15 57844.05 67237.15 57844.05 Q 67210.5 58226.25 67143.55 58309.45 Q 67077.25 58389.4 66970.65 58389.4 L 66744.45 58389.4 Z M 72202.5 56392.6 L 73267.2 56392.6 L 73267.2 58282.8 L 72202.5 58282.8 L 72202.5 56392.6 Z M 72495 55075.05 Q 73528.5 54663.6 74202.55 54172.85 Q 74876.6 53682.1 75251 53131.55 Q 76185.7 54442.6 77780.15 55075.05 L 72495 55075.05 Z M 72482 49909.5 L 74385.2 49909.5 L 74385.2 50735 Q 74392.35 51097.7 74318.9 51440.9 L 72482 51440.9 L 72482 49909.5 Z M 77953.05 49909.5 L 77953.05 51440.9 L 75889.95 51440.9 Q 75929.6 51100.95 75929.6 50761.65 L 75929.6 49909.5 L 77953.05 49909.5 Z M 78192.9 58282.8 L 77127.55 58282.8 L 77127.55 56392.6 L 78192.9 56392.6 L 78192.9 58282.8 Z M 75730.05 58282.8 L 74651.7 58282.8 L 74651.7 56392.6 L 75730.05 56392.6 L 75730.05 58282.8 Z M 79750.3 55607.4 Q 80149.4 55687.35 80588.8 55727 Q 80747.4 55381.2 81011.3 54973 Q 81275.2 54565.45 81533.9 54289.2 Q 78252.7 54139.7 76808.4 52772.1 L 81081.5 52772.1 L 81081.5 51440.9 L 79563.75 51440.9 L 79563.75 48604.95 L 75929.6 48604.95 L 75929.6 47566.9 L 74385.2 47566.9 L 74385.2 48604.95 L 70950.6 48604.95 L 70950.6 51440.9 L 69393.2 51440.9 L 69393.2 52772.1 L 73587 52772.1 Q 73051.4 53314.2 71954.2 53768.55 Q 70857 54223.55 69033.75 54555.7 Q 69285.3 54812.45 69546.6 55176.45 Q 69807.9 55540.45 69939.2 55806.95 Q 70358.45 55723.75 70738.05 55620.4 L 70738.05 58282.8 L 69180.65 58282.8 L 69180.65 59640.65 L 81334.35 59640.65 L 81334.35 58282.8 L 79750.3 58282.8 L 79750.3 55607.4 Z M 94486.45 49430.45 Q 94296 49058 93950.85 48585.45 Q 93605.7 48112.9 93235.2 47700.15 L 92090.55 48339.1 Q 92450 48763.55 92777.6 49257.55 Q 93105.2 49751.55 93274.85 50136.35 L 94486.45 49430.45 Z M 83823.85 60040.4 Q 84243.1 59463.85 84680.55 58702.05 Q 85118 57940.9 85447.55 57204.45 L 83956.45 56819 Q 83615.85 57526.2 83173.2 58231.45 Q 82729.9 58936.7 82319.1 59414.45 L 83823.85 60040.4 Z M 86273.05 57337.7 Q 86384.85 57977.95 86454.4 58680.6 Q 86523.95 59383.25 86525.9 59893.5 L 88083.3 59667.3 Q 88069 59159 87970.2 58477.8 Q 87871.4 57796.6 87737.5 57177.8 L 86273.05 57337.7 Z M 94486.45 51653.45 L 94486.45 50163 L 92023.6 50163 L 92023.6 47739.8 L 90519.5 47739.8 L 90519.5 50163 L 88908.8 50163 Q 89068.7 49596.85 89188.3 48991.05 L 88203.55 48618.6 L 87923.4 48658.25 L 86312.7 48658.25 Q 86512.9 48218.85 86672.15 47819.75 L 85168.05 47433.65 Q 84801.45 48596.5 84070.2 49808.1 Q 84022.1 49886.75 83972.7 49964.1 Q 83221.3 51165.3 82226.15 51999.9 Q 82479 52191.65 82781.9 52480.9 Q 83084.8 52769.5 83277.85 53011.3 Q 83987 52395.75 84594.1 51600.15 Q 85201.2 50805.2 85700.4 49909.5 L 87404.7 49909.5 Q 87254.55 50505.55 87045.25 51041.15 Q 86751.45 50858.5 86442.7 50693.4 Q 86133.95 50528.3 85860.3 50415.85 L 85168.05 51294 Q 85502.8 51467.55 85857.05 51680.1 Q 86211.3 51893.3 86525.9 52106.5 Q 86279.55 52532.25 85993.55 52918.35 Q 85690 52696.05 85361.1 52478.95 Q 85032.2 52261.85 84728.65 52079.85 L 83877.15 52891.7 Q 84191.1 53094.5 84527.8 53339.55 Q 84863.85 53584.6 85168.05 53836.8 Q 84063.05 54865.1 82598.6 55434.5 Q 82874.2 55643.8 83196.6 56005.2 Q 83519 56366.6 83703.6 56645.45 Q 85422.2 55905.1 86715.7 54445.85 Q 88009.2 52986.6 88748.9 50708.35 L 88748.9 51653.45 L 90439.55 51653.45 Q 90303.7 52729.85 89601.7 53795.2 L 89560.1 53855 Q 88836.65 54917.75 87164.85 55806.95 Q 87446.3 56034.45 87757 56334.75 Q 88068.35 56634.4 88269.85 56911.95 Q 89480.8 56267.8 90234.8 55485.85 Q 90989.45 54703.9 91371.65 53849.8 Q 91777.25 54781.9 92353.15 55513.8 Q 92929.05 56246.35 93714.25 56739.05 Q 93895.6 56406.25 94188.75 56033.15 Q 94481.9 55660.7 94752.95 55407.85 Q 93739.6 54876.15 93083.75 53899.85 Q 92427.9 52924.2 92063.9 51653.45 L 94486.45 51653.45 Z M 88962.1 57311.05 Q 89198.7 57940.9 89393.05 58635.75 Q 89587.4 59330.6 89654.35 59840.2 L 91225.4 59534.05 Q 91128.55 59023.8 90912.1 58341.3 Q 90695.65 57658.8 90439.55 57058.2 L 88962.1 57311.05 Z M 91677.8 57284.4 Q 92142.55 57947.4 92584.55 58705.95 Q 93026.55 59463.85 93261.85 60026.75 L 94752.95 59348.15 Q 94487.1 58778.1 94019.1 58053.35 Q 93551.1 57328.6 93075.3 56698.75 L 91677.8 57284.4 Z M 97814.45 60665.7 Q 99061.8 60282.85 99744.95 59432.65 Q 100428.1 58583.1 100437.2 57431.3 Q 100435.9 56583.05 100072.55 56100.1 Q 99709.2 55616.5 98999.4 55607.4 Q 98454.7 55612.6 98082.25 55926.55 Q 97709.8 56241.15 97694.85 56805.35 Q 97711.1 57377.35 98077.7 57682.2 Q 98443.65 57987.05 98959.1 57990.3 Q 99042.3 57993.55 99106 57976.65 Q 98966.25 59061.5 97388.7 59587.35 L 97814.45 60665.7 Z M 118208.2 49789.9 L 112111.85 49789.9 L 112111.85 49124.3 L 118208.2 49124.3 L 118208.2 49789.9 Z M 118208.2 51507.2 L 112111.85 51507.2 L 112111.85 50828.6 L 118208.2 50828.6 L 118208.2 51507.2 Z M 119819.55 48006.3 L 110580.45 48006.3 L 110580.45 52625.2 L 119819.55 52625.2 L 119819.55 48006.3 Z M 116145.1 56978.25 L 120245.3 56978.25 L 120245.3 55607.4 L 116145.1 55607.4 L 116145.1 54609 L 121083.8 54609 L 121083.8 53210.85 L 109342.85 53210.85 L 109342.85 54609 L 114534.4 54609 L 114534.4 57990.3 Q 113894.15 57796.6 113411.2 57397.5 Q 112928.25 56999.05 112617.55 56326.3 Q 112780.7 55750.4 112923.7 55114.7 L 111339.65 54874.85 Q 111110.85 56219.05 110495.95 57246.05 Q 109880.4 58273.7 108863.8 58908.75 Q 109153.05 59098.55 109512.5 59435.9 Q 109871.95 59773.25 110061.75 60013.75 Q 111212.9 59214.9 111925.3 57896.7 Q 112756 59027.7 114033.25 59414.45 Q 115311.15 59801.2 117130.5 59773.9 L 120923.9 59773.9 Q 120990.2 59416.4 121140.35 58986.75 Q 121291.15 58557.1 121456.9 58269.8 Q 120940.15 58289.95 120065.9 58298.4 Q 119250.8 58306.2 118466.25 58308.15 Q 117624.5 58310.1 117209.8 58309.45 Q 116667.7 58309.45 116145.1 58269.8 L 116145.1 56978.25 Z M 127100.85 49071 L 126835 49124.3 L 122747.8 49124.3 L 122747.8 50642.05 L 126422.25 50642.05 Q 126159 52222.85 125716.35 53623.6 Q 124751.1 52718.8 123826.15 51932.95 L 122734.8 52945 Q 123317.85 53456.55 123915.85 54033.1 Q 124514.5 54609.65 125077.4 55221.3 Q 124546.35 56343.85 123847.6 57219.4 Q 123149.5 58095.6 122308.4 58668.9 Q 122599.6 58903.55 122910.95 59269.5 Q 123222.3 59636.1 123413.4 59960.45 Q 125133.95 58662.4 126235.7 56565.5 Q 127001.4 57524.25 127447.3 58323.1 L 128671.9 57138.15 Q 128386.55 56635.05 127944.55 56066.3 Q 127502.55 55498.2 126967.6 54915.15 Q 127829.5 52538.75 128152.55 49364.15 L 127100.85 49071 Z M 128232.5 53690.55 Q 128683.6 54392.55 129062.55 55184.9 Q 129441.5 55976.6 129603.35 56579.15 L 130974.85 55886.9 Q 130801.3 55277.2 130390.5 54512.15 Q 129980.35 53747.75 129497.4 53078.25 L 128232.5 53690.55 Z M 134688.95 50508.8 L 133264.15 50508.8 L 133264.15 47540.25 L 131693.75 47540.25 L 131693.75 50508.8 L 128339.1 50508.8 L 128339.1 52026.55 L 131693.75 52026.55 L 131693.75 58003.3 Q 131713.25 58319.85 131373.95 58296.45 Q 131320.65 58296.45 131232.9 58297.1 Q 130990.45 58299.7 130579.65 58297.1 Q 130168.85 58293.85 129696.95 58269.8 Q 129862.05 58646.8 130003.1 59126.5 Q 130143.5 59606.2 130189 59973.45 Q 131017.75 59978 131617.05 59905.2 Q 132216.35 59832.4 132585.55 59627.65 Q 132959.95 59435.9 133114.65 59055 Q 133269.35 58674.1 133264.15 58003.3 L 133264.15 52026.55 L 134688.95 52026.55 L 134688.95 50508.8 Z M 142356.35 49510.4 L 145737.65 49510.4 L 145737.65 55207.65 L 147308.7 55207.65 L 147308.7 48152.55 L 140865.25 48152.55 L 140865.25 55207.65 L 142356.35 55207.65 L 142356.35 49510.4 Z M 140412.85 55926.55 Q 140033.9 56026.65 139659.5 56126.75 Q 139286.4 56226.2 138908.75 56326.3 L 138908.75 53583.95 L 140147 53583.95 L 140147 52133.15 L 138908.75 52133.15 L 138908.75 49789.9 L 140426.5 49789.9 L 140426.5 48312.45 L 135753.65 48312.45 L 135753.65 49789.9 L 137378 49789.9 L 137378 52133.15 L 135953.2 52133.15 L 135953.2 53583.95 L 137378 53583.95 L 137378 56712.4 Q 136319.8 56981.5 135500.8 57151.8 L 135820.6 58668.9 Q 136849.55 58379 138091.7 58044.25 Q 139349.45 57704.95 140612.4 57351.35 L 140412.85 55926.55 Z M 145684.35 58575.95 Q 145467.9 58579.85 145381.45 58471.3 Q 145295 58362.75 145298.25 58096.9 L 145298.25 55168 L 144433.1 55168 Q 144789.3 53713.95 144765.9 52478.95 L 144765.9 50335.9 L 143301.45 50335.9 L 143301.45 52439.3 Q 143331.35 53548.2 143042.1 54781.9 Q 142798.35 55780.95 142131.45 56744.9 Q 141320.9 57935.05 139547.7 58895.1 Q 139792.75 59084.9 140085.25 59424.2 Q 140377.75 59764.15 140532.45 60013.75 Q 141773.3 59346.85 142579.3 58496 Q 143385.95 57645.15 143847.45 56698.75 L 143847.45 58269.8 Q 143839.65 59103.1 144198.45 59419.65 Q 144557.25 59736.2 145378.2 59720.6 L 146349.95 59720.6 Q 147261.9 59742.05 147605.1 59237.65 Q 147660.35 59159 147706.5 59064.75 Q 147991.2 58458.95 148067.25 57031.55 Q 147789.05 56959.4 147453 56810.55 Q 147117.6 56661.05 146829 56459.55 Q 146806.9 57727.05 146709.4 58166.45 Q 146611.9 58605.85 146349.95 58575.95 L 145684.35 58575.95 Z M 151115.75 50282.6 L 159116.6 50282.6 L 159116.6 51840 L 160780.6 51840 L 160780.6 48805.15 L 156294.3 48805.15 Q 156140.9 48450.9 155939.4 48084.3 Q 155738.55 47717.7 155535.1 47394 L 153951.05 47886.05 Q 154197.4 48305.95 154404.1 48805.15 L 149531.7 48805.15 L 149531.7 51840 L 151115.75 51840 L 151115.75 50282.6 Z M 154483.4 51932.95 Q 154153.2 51574.15 153598.75 51203 Q 153043.65 50831.2 152513.25 50562.1 L 151594.8 51587.15 Q 152123.9 51899.15 152654.95 52306.05 Q 153186 52712.95 153485 53064.6 L 154483.4 51932.95 Z M 150236.95 53570.3 Q 150786.2 53873.2 151337.4 54267.75 Q 151888.6 54662.3 152207.1 54995.1 L 153152.2 53823.8 Q 152812.25 53492.95 152247.4 53129.6 Q 151682.55 52766.25 151142.4 52505.6 L 150236.95 53570.3 Z M 160939.85 56499.2 L 160939.85 55168 L 156121.4 55168 Q 156363.85 54239.8 156458.75 53161.45 Q 156554.3 52083.1 156586.8 50854.6 L 154909.8 50854.6 Q 154908.5 50887.1 154907.85 50918.95 Q 154879.9 52185.8 154790.85 53247.9 Q 154701.8 54310 154417.1 55168 L 149412.1 55168 L 149412.1 56499.2 L 153711.85 56499.2 Q 153153.5 57207.05 152138.85 57730.3 Q 151124.2 58254.2 149518.05 58602.6 Q 149787.8 58876.9 150037.4 59261.7 Q 150287 59645.85 150396.85 59960.45 Q 152571.75 59430.7 153817.8 58564.25 Q 155064.5 57697.8 155641.7 56499.2 L 160939.85 56499.2 Z M 155535.1 57923.35 Q 156827.95 58324.4 158012.9 58857.4 Q 159198.5 59389.75 159981.75 59920.15 L 160953.5 58655.9 Q 160115 58172.3 158855.3 57654.25 Q 157594.95 57135.55 156267.65 56752.05 L 155535.1 57923.35 Z M 169300.15 58056.6 L 169300.15 55381.2 L 173280.1 55381.2 L 173280.1 53849.8 L 169300.15 53849.8 L 169300.15 51507.2 L 173785.8 51507.2 L 173785.8 49962.8 L 169300.15 49962.8 L 169300.15 47566.9 L 167636.15 47566.9 L 167636.15 49962.8 L 165586.05 49962.8 Q 165928.6 49044.35 166211.35 48086.25 L 164574 47726.8 Q 164227.55 49107.4 163615.9 50369.05 Q 163004.25 51630.05 162217.75 52492.6 Q 162538.85 52667.45 162960.05 52950.2 Q 163381.25 53232.3 163642.55 53437.7 Q 164301 52632.35 164880.15 51507.2 L 167636.15 51507.2 L 167636.15 53849.8 L 164028.65 53849.8 L 164028.65 55381.2 L 167636.15 55381.2 L 167636.15 58056.6 L 162497.25 58056.6 L 162497.25 59614 L 174465.05 59614 L 174465.05 58056.6 L 169300.15 58056.6 Z M 6547.3 68258 Q 6087.75 67965.5 5376 67593.05 Q 5374.05 67592.4 5372.1 67591.1 Q 4661 67219.3 4071.45 66926.8 L 3179.65 68071.45 Q 3324.6 68154 3483.2 68243.7 Q 4059.1 68566.75 4649.95 68915.8 Q 5240.8 69264.85 5602.2 69535.9 L 6547.3 68258 Z M 5908.35 71851.85 Q 5487.8 71599 4846.25 71274.65 Q 4204.7 70950.3 3632.05 70671.45 Q 3513.1 70613.6 3405.85 70560.95 L 2553.7 71732.25 Q 3173.15 72065.7 3881.65 72466.1 Q 4590.8 72866.5 5030.2 73170.05 L 5908.35 71851.85 Z M 4071.45 79040.2 Q 4685.7 78061.3 5289.55 76977.1 Q 5893.4 75892.9 6427.7 74834.05 L 5269.4 73768.7 Q 4653.2 74951.05 3970.05 76070.35 Q 3286.25 77189.65 2740.25 77962.5 L 4071.45 79040.2 Z M 12710.6 77203.3 L 8717 77203.3 L 8717 75246.8 L 12710.6 75246.8 L 12710.6 77203.3 Z M 14880.95 72131.35 L 14880.95 70614.25 L 11499.65 70614.25 L 11499.65 68790.35 Q 13083.7 68487.45 14388.25 68005.15 L 13176.65 66753.25 Q 12104.8 67170.55 10539.6 67478.65 Q 10362.15 67514.4 10181.45 67548.2 Q 8585.05 67842.65 6947.05 68005.15 Q 7092 68289.2 7224.6 68674 Q 7357.2 69058.15 7412.45 69363 Q 8674.1 69249.25 9995.55 69056.2 L 9995.55 70614.25 L 6454.35 70614.25 L 6454.35 72131.35 L 9995.55 72131.35 L 9995.55 73809 L 7279.85 73809 L 7279.85 79187.1 L 8717 79187.1 L 8717 78641.1 L 12710.6 78641.1 L 12710.6 79120.15 L 14215.35 79120.15 L 14215.35 73809 L 11499.65 73809 L 11499.65 72131.35 L 14880.95 72131.35 Z M 24318.95 74554.55 L 16052.25 74554.55 L 16052.25 76071.65 L 24318.95 76071.65 L 24318.95 74554.55 Z M 19460.2 71692.6 Q 19639.6 70826.8 19819.65 69881.7 L 27154.25 69881.7 L 27154.25 68364.6 L 20099.15 68364.6 Q 20197.3 67831.6 20278.55 67326.55 Q 20295.45 67225.8 20312.35 67126.35 L 18688 66966.45 Q 18489.1 68314.55 18203.75 69801.75 Q 18126.4 70206.7 18045.8 70603.2 Q 17750.05 72058.55 17463.4 73143.4 L 18834.25 73156.4 L 25743.1 73156.4 Q 25565 75046.6 25319.3 76070.35 Q 25072.95 77094.1 24744.7 77336.55 Q 24597.8 77442.5 24425.55 77471.1 Q 24253.3 77500.35 24025.8 77496.45 Q 23666.35 77499.05 22959.8 77484.75 Q 22252.6 77469.8 21443.35 77402.85 Q 21697.5 77755.8 21864.55 78190 Q 22031.6 78624.85 22055.65 78987.55 Q 22797.3 79018.1 23453.8 79023.95 Q 24110.3 79029.8 24532.15 79000.55 Q 25052.8 78959.6 25423.95 78824.4 Q 25795.1 78688.55 26116.2 78348.6 Q 26566 77933.25 26861.1 76666.4 Q 26890.35 76542.25 26918.3 76407.7 Q 27203.65 75038.8 27433.75 72384.2 Q 27464.3 72201.55 27482.5 71958.45 Q 27500.05 71715.35 27500.7 71692.6 L 19460.2 71692.6 Z M 32213.2 77043.4 L 32213.2 75659.55 L 38536.4 75659.55 L 38536.4 77043.4 L 32213.2 77043.4 Z M 38536.4 72823.6 L 38536.4 74195.1 L 32213.2 74195.1 L 32213.2 72823.6 L 38536.4 72823.6 Z M 38536.4 69988.3 L 38536.4 71359.8 L 32213.2 71359.8 L 32213.2 69988.3 L 38536.4 69988.3 Z M 35660.8 68470.55 Q 35983.85 67745.15 36286.75 66939.8 L 34369.25 66726.6 Q 34317.25 67131.55 34219.75 67583.95 Q 34122.25 68036.35 34009.8 68470.55 L 30602.5 68470.55 L 30602.5 79173.45 L 32213.2 79173.45 L 32213.2 78507.85 L 38536.4 78507.85 L 38536.4 79160.45 L 40227.05 79160.45 L 40227.05 68470.55 L 35660.8 68470.55 Z M 54550.45 68630.45 Q 54360 68258 54014.85 67785.45 Q 53669.7 67312.9 53299.2 66900.15 L 52154.55 67539.1 Q 52514 67963.55 52841.6 68457.55 Q 53169.2 68951.55 53338.85 69336.35 L 54550.45 68630.45 Z M 43887.85 79240.4 Q 44307.1 78663.85 44744.55 77902.05 Q 45182 77140.9 45511.55 76404.45 L 44020.45 76019 Q 43679.85 76726.2 43237.2 77431.45 Q 42793.9 78136.7 42383.1 78614.45 L 43887.85 79240.4 Z M 46337.05 76537.7 Q 46448.85 77177.95 46518.4 77880.6 Q 46587.95 78583.25 46589.9 79093.5 L 48147.3 78867.3 Q 48133 78359 48034.2 77677.8 Q 47935.4 76996.6 47801.5 76377.8 L 46337.05 76537.7 Z M 54550.45 70853.45 L 54550.45 69363 L 52087.6 69363 L 52087.6 66939.8 L 50583.5 66939.8 L 50583.5 69363 L 48972.8 69363 Q 49132.7 68796.85 49252.3 68191.05 L 48267.55 67818.6 L 47987.4 67858.25 L 46376.7 67858.25 Q 46576.9 67418.85 46736.15 67019.75 L 45232.05 66633.65 Q 44865.45 67796.5 44134.2 69008.1 Q 44086.1 69086.75 44036.7 69164.1 Q 43285.3 70365.3 42290.15 71199.9 Q 42543 71391.65 42845.9 71680.9 Q 43148.8 71969.5 43341.85 72211.3 Q 44051 71595.75 44658.1 70800.15 Q 45265.2 70005.2 45764.4 69109.5 L 47468.7 69109.5 Q 47318.55 69705.55 47109.25 70241.15 Q 46815.45 70058.5 46506.7 69893.4 Q 46197.95 69728.3 45924.3 69615.85 L 45232.05 70494 Q 45566.8 70667.55 45921.05 70880.1 Q 46275.3 71093.3 46589.9 71306.5 Q 46343.55 71732.25 46057.55 72118.35 Q 45754 71896.05 45425.1 71678.95 Q 45096.2 71461.85 44792.65 71279.85 L 43941.15 72091.7 Q 44255.1 72294.5 44591.8 72539.55 Q 44927.85 72784.6 45232.05 73036.8 Q 44127.05 74065.1 42662.6 74634.5 Q 42938.2 74843.8 43260.6 75205.2 Q 43583 75566.6 43767.6 75845.45 Q 45486.2 75105.1 46779.7 73645.85 Q 48073.2 72186.6 48812.9 69908.35 L 48812.9 70853.45 L 50503.55 70853.45 Q 50367.7 71929.85 49665.7 72995.2 L 49624.1 73055 Q 48900.65 74117.75 47228.85 75006.95 Q 47510.3 75234.45 47821 75534.75 Q 48132.35 75834.4 48333.85 76111.95 Q 49544.8 75467.8 50298.8 74685.85 Q 51053.45 73903.9 51435.65 73049.8 Q 51841.25 73981.9 52417.15 74713.8 Q 52993.05 75446.35 53778.25 75939.05 Q 53959.6 75606.25 54252.75 75233.15 Q 54545.9 74860.7 54816.95 74607.85 Q 53803.6 74076.15 53147.75 73099.85 Q 52491.9 72124.2 52127.9 70853.45 L 54550.45 70853.45 Z M 49026.1 76511.05 Q 49262.7 77140.9 49457.05 77835.75 Q 49651.4 78530.6 49718.35 79040.2 L 51289.4 78734.05 Q 51192.55 78223.8 50976.1 77541.3 Q 50759.65 76858.8 50503.55 76258.2 L 49026.1 76511.05 Z M 51741.8 76484.4 Q 52206.55 77147.4 52648.55 77905.95 Q 53090.55 78663.85 53325.85 79226.75 L 54816.95 78548.15 Q 54551.1 77978.1 54083.1 77253.35 Q 53615.1 76528.6 53139.3 75898.75 L 51741.8 76484.4 Z M 66078.85 69136.15 L 65772.7 69216.1 L 62644.25 69216.1 L 63456.1 68750.05 Q 63232.5 68343.8 62850.3 67805.6 Q 62468.1 67267.4 62096.3 66770.15 Q 62028.7 66679.8 61965 66594 L 60540.85 67352.55 Q 60839.2 67782.2 61164.85 68279.45 Q 61490.5 68776.7 61738.8 69216.1 L 56547.25 69216.1 L 56547.25 70773.5 L 64574.75 70773.5 Q 63562.7 72054 62144.4 73342.3 Q 61918.85 73547.05 61686.15 73747.25 Q 60228.85 75009.55 58690.3 75939.05 L 58611 75939.05 Q 58048.75 75950.75 57324.65 76419.4 Q 56599.9 76888.7 55868.65 77669.35 L 57013.3 79160.45 Q 57429.95 78492.25 57842.05 77969 Q 58253.5 77445.75 58570.7 77416.5 Q 58841.75 77449.65 59274 77796.75 Q 59544.4 78001.5 59875.25 78201.7 Q 60541.5 78614.45 61404.7 78777.6 Q 62267.9 78940.75 63482.75 78934.25 Q 64345.95 78932.3 65387.9 78897.85 Q 65750.6 78886.15 66101.6 78872.5 Q 67107.8 78831.55 67742.85 78787.35 Q 67773.4 78443.5 67919 77947.55 Q 68064.6 77450.95 68195.25 77096.7 Q 67302.15 77225.4 66136.05 77309.9 Q 65900.75 77327.45 65664.8 77341.75 Q 64492.2 77414.55 63536.05 77416.5 Q 62487.6 77426.25 61651.05 77306.65 Q 60814.5 77187.05 60195.05 76817.2 Q 62007.9 75621.2 63715.45 74043 Q 64128.2 73660.8 64522.75 73265.6 Q 66157.5 71633.45 67303.45 69948.65 L 66078.85 69136.15 Z M 81067.85 75978.7 L 81067.85 74554.55 L 75783.35 74554.55 Q 75846.4 74218.5 75889.95 73862.3 L 81361 73862.3 L 81361 72490.8 L 76062.85 72490.8 L 76062.85 71785.55 L 80136.4 71785.55 L 80136.4 70454.35 L 76062.85 70454.35 L 76062.85 69775.1 L 80668.75 69775.1 L 80668.75 68377.6 L 78219.55 68377.6 Q 78665.45 67791.95 79111.35 67086.05 L 77407.05 66647.3 Q 77239.35 67047.05 76979.35 67512.45 Q 76719.35 67977.2 76461.95 68377.6 L 73533.7 68377.6 L 73919.8 68204.7 Q 73782 67853.7 73510.3 67430.55 Q 73237.95 67007.4 72921.4 66647.3 L 71510.25 67206.3 Q 71712.4 67468.9 71907.4 67771.8 Q 72103.05 68074.7 72255.8 68377.6 L 69872.9 68377.6 L 69872.9 69775.1 L 74425.5 69775.1 L 74425.5 70454.35 L 70485.2 70454.35 L 70485.2 71785.55 L 74425.5 71785.55 L 74425.5 72490.8 L 69313.25 72490.8 L 69313.25 73862.3 L 74212.3 73862.3 Q 74169.4 74228.25 74105.7 74554.55 L 69713 74554.55 L 69713 75978.7 L 73533.7 75978.7 Q 73067.65 76616.35 72012.7 77053.8 Q 70957.75 77491.25 69033.75 77749.3 Q 69274.25 78016.45 69501.75 78426.6 Q 69729.25 78836.1 69819.6 79173.45 Q 72262.3 78767.2 73526.55 78043.75 Q 74791.45 77320.3 75277 76245.2 Q 76069.35 77523.1 77360.9 78231.6 Q 78651.8 78940.75 80642.1 79200.1 Q 80790.95 78843.25 81054.85 78421.4 Q 81318.75 77999.55 81587.2 77722.65 Q 78272.2 77489.95 76874.7 75978.7 L 81067.85 75978.7 Z M 84369.2 76418.1 L 84369.2 73809 L 86486.25 73809 L 86486.25 76418.1 L 84369.2 76418.1 Z M 86486.25 72437.5 L 84369.2 72437.5 L 84369.2 70281.45 L 86486.25 70281.45 L 86486.25 72437.5 Z M 90719.05 68803.35 Q 91018.7 67968.1 91238.4 67112.7 L 89720.65 66766.9 Q 89427.5 67951.85 88967.3 69075.05 Q 88506.45 70197.6 87923.4 71053 L 87923.4 68896.95 L 85860.3 68896.95 Q 86206.75 68014.9 86552.55 66993.1 L 84822.25 66753.25 Q 84779.35 67235.55 84674.05 67810.15 Q 84568.75 68384.75 84436.15 68896.95 L 82931.4 68896.95 L 82931.4 78787.35 L 84369.2 78787.35 L 84369.2 77815.6 L 87923.4 77815.6 L 87923.4 71599 Q 88203.55 71784.25 88490.85 71987.05 Q 88778.8 72189.2 88948.45 72344.55 Q 89584.15 71462.5 90120.4 70241.15 L 92968.7 70241.15 Q 92866.65 73663.4 92712.6 75337.15 Q 92706.1 75405.4 92699.6 75471.05 Q 92541.65 77083.05 92263.45 77363.2 Q 92138 77490.6 92005.4 77541.3 Q 91872.8 77591.35 91677.8 77589.4 Q 91406.75 77592 90875.7 77579.65 Q 90344.65 77567.3 89694 77509.45 Q 89907.85 77853.3 90048.9 78281.65 Q 90189.95 78710 90213.35 79053.85 Q 90812 79075.95 91363.2 79075.3 Q 91914.4 79075.3 92303.1 79027.2 Q 92697.65 78966.75 93002.5 78810.75 Q 93306.7 78655.4 93581 78295.3 Q 93886.5 77926.1 94054.2 76745.7 Q 94161.45 75988.45 94237.5 74779.45 Q 94353.85 72882.1 94446.8 69522.25 Q 94455.9 69355.2 94458.5 69093.25 Q 94460.45 68831.3 94459.8 68803.35 L 90719.05 68803.35 Z M 92249.8 74873.7 Q 91919.6 74268.55 91366.45 73450.85 Q 90813.95 72633.8 90293.3 71918.8 L 89055.05 72624.05 Q 89564 73379.35 90085.3 74226.3 Q 90606.6 75073.9 90905.6 75699.2 L 92249.8 74873.7 Z M 100463.85 68909.95 L 100184.35 68976.9 L 99198.95 68976.9 L 100010.8 68484.2 Q 99810.6 68080.55 99453.75 67582 Q 99096.25 67084.1 98706.25 66660.3 L 97442 67339.55 Q 97746.85 67715.9 98037.4 68148.15 Q 98327.95 68579.75 98533.35 68976.9 L 96084.15 68976.9 L 96084.15 70401.05 L 99318.55 70401.05 Q 98653.6 71515.8 97686.4 72452.45 Q 96719.2 73389.75 95644.75 73955.25 Q 95794.25 74225 95965.85 74722.25 Q 96137.45 75219.5 96217.4 75579.6 Q 97148.85 75027.1 98040.65 74195.1 L 98040.65 79187.1 L 99598.05 79187.1 L 99598.05 74035.2 Q 99941.25 74451.85 100242.2 74863.95 Q 100543.15 75275.4 100756.35 75592.6 L 101741.75 74261.4 Q 101525.95 74035.85 101040.4 73542.5 Q 100862.3 73361.8 100673.15 73172 Q 100158.35 72654.6 99757.95 72278.25 Q 100710.2 70980.2 101302.35 69522.25 L 100463.85 68909.95 Z M 104590.05 77416.5 Q 104221.5 77432.1 104107.75 77263.1 Q 103994 77094.75 104004.4 76551.35 L 104004.4 66900.15 L 102420.35 66900.15 L 102420.35 76537.7 Q 102400.2 77835.1 102821.4 78348.6 Q 103242.6 78861.45 104350.85 78840.65 L 106161.1 78840.65 Q 107204.35 78859.5 107620.35 78117.2 Q 108037 77374.25 108131.25 75645.9 Q 107797.8 75569.85 107399.35 75381.35 Q 107000.9 75192.85 106707.1 74967.3 Q 106659.65 76404.45 106527.05 76925.75 Q 106395.1 77447.05 106027.85 77416.5 L 104590.05 77416.5 Z M 111752.4 68537.5 L 111752.4 69176.45 L 110514.15 69176.45 Q 110730.6 68856.65 110886.6 68537.5 L 111752.4 68537.5 Z M 112590.9 70201.5 L 112590.9 70614.25 Q 112577.9 71046.5 112403.05 71261 Q 112227.55 71476.15 112044.9 71559.35 Q 112171 71711.45 112301 71968.2 Q 112431.65 72225.6 112497.95 72437.5 Q 112605.85 72348.45 113020.55 72234.7 Q 113136.9 72202.85 113291.6 72165.15 Q 113851.25 72028.65 115213 71745.25 Q 115213 71543.75 115235.1 71254.5 Q 115257.2 70965.25 115306.6 70733.85 L 113881.8 70986.7 L 113881.8 70201.5 L 114960.15 70201.5 L 114960.15 69176.45 L 113190.2 69176.45 L 113190.2 68537.5 L 114707.3 68537.5 L 114707.3 67525.45 L 113190.2 67525.45 L 113190.2 66753.25 L 111752.4 66753.25 L 111752.4 67525.45 L 111286.35 67525.45 Q 111366.3 67269.35 111446.25 66993.1 L 110195 66793.55 Q 110076.05 67241.4 109860.25 67726.95 Q 109644.45 68212.5 109316.2 68630.45 Q 109541.75 68713 109801.75 68858.6 Q 110062.4 69003.55 110287.95 69176.45 L 109236.25 69176.45 L 109236.25 70201.5 L 110660.4 70201.5 Q 110546.65 70728.65 110178.1 71106.3 Q 109809.55 71484.6 108996.4 71732.25 Q 109205.7 71903.2 109419.55 72176.2 Q 109633.4 72449.85 109741.95 72691 Q 110831.35 72285.4 111326 71675.7 Q 111821.3 71066 111951.95 70201.5 L 112590.9 70201.5 Z M 119579.7 76724.25 L 119579.7 72584.4 L 110873.6 72584.4 L 110873.6 76817.2 L 112471.3 76817.2 L 112471.3 73915.6 L 117902.05 73915.6 L 117902.05 76724.25 L 119579.7 76724.25 Z M 115918.9 74447.95 L 114347.85 74447.95 L 114347.85 75246.8 Q 114381.65 75839.6 113974.75 76355.7 Q 113649.1 76754.15 112845.05 77092.15 Q 111819.35 77530.25 109635.35 77842.25 Q 109892.1 78102.25 110187.85 78499.4 Q 110484.25 78897.2 110620.75 79187.1 Q 113095.3 78785.4 114280.9 78057.4 Q 114934.15 77667.4 115299.45 77205.25 Q 115951.4 76343.35 115918.9 75313.1 L 115918.9 74447.95 Z M 115493.15 77402.85 Q 116504.55 77716.8 117624.5 78154.9 Q 117976.15 78292.7 118312.85 78433.1 Q 119387.3 78879.65 120072.4 79253.4 L 120884.25 77922.2 Q 120166.65 77556.9 119090.25 77152.6 Q 118712.6 77010.9 118321.95 76874.4 Q 117210.45 76487.65 116264.7 76231.55 L 115493.15 77402.85 Z M 117595.9 68550.5 L 117595.9 69176.45 L 116291.35 69176.45 Q 116498.05 68873.55 116664.45 68550.5 L 117595.9 68550.5 Z M 119792.9 71199.9 Q 119666.8 71207.7 119627.8 71158.3 Q 119589.45 71108.9 119592.7 70906.75 L 119592.7 70201.5 L 121137.1 70201.5 L 121137.1 69176.45 L 119047.35 69176.45 L 119047.35 68550.5 L 120738 68550.5 L 120738 67539.1 L 119047.35 67539.1 L 119047.35 66753.25 L 117595.9 66753.25 L 117595.9 67539.1 L 117090.2 67539.1 Q 117139.6 67400 117183.8 67266.1 Q 117227.35 67132.2 117276.75 66993.1 L 116052.15 66793.55 Q 115923.45 67241.4 115687.5 67728.9 Q 115451.55 68216.4 115093.4 68644.1 Q 115319.6 68727.3 115577.65 68870.3 Q 115836.35 69013.3 116052.15 69176.45 L 115306.6 69176.45 L 115306.6 70201.5 L 116624.15 70201.5 Q 116537.05 70686.4 116225.05 71016.6 Q 115913.05 71346.8 115226.65 71572.35 Q 115434 71736.15 115636.15 72015 Q 115838.3 72293.85 115945.55 72517.45 Q 116913.4 72150.85 117326.8 71578.85 Q 117740.2 71007.5 117849.4 70201.5 L 118328.45 70201.5 L 118328.45 70920.4 Q 118310.25 71657.5 118561.15 71953.25 Q 118812.7 72249 119553.05 72237.95 L 120351.9 72237.95 Q 120866.05 72250.95 121130.6 71976.65 Q 121395.15 71703 121469.9 70986.7 Q 121215.75 70932.1 120908.95 70815.1 Q 120602.8 70698.75 120418.2 70573.95 Q 120400.65 70971.1 120348.65 71091.35 Q 120296 71211.6 120179 71199.9 L 119792.9 71199.9 Z M 124425.45 74727.45 Q 123523.25 74750.85 122914.85 75360.55 L 122913.55 75361.85 Q 122305.8 75972.2 122281.75 76884.15 Q 122305.8 77795.45 122913.55 78405.8 L 122914.85 78407.1 Q 123523.25 79016.8 124425.45 79040.2 Q 125346.5 79016.8 125952.95 78406.45 Q 126559.4 77796.1 126581.5 76884.15 Q 126559.4 75971.55 125952.95 75361.2 Q 125346.5 74750.85 124425.45 74727.45  Z M 124425.45 78082.1 Q 123932.1 78069.75 123593.45 77732.4 Q 123254.8 77395.7 123240.5 76884.15 Q 123254.8 76372.6 123593.45 76035.25 Q 123932.1 75698.55 124425.45 75686.2 Q 124937 75698.55 125273.7 76035.25 Q 125611.05 76372.6 125623.4 76884.15 Q 125611.05 77395.7 125273.7 77732.4 Q 124937 78069.75 124425.45 78082.1  Z " fill-rule="nonzero" style="fill:#555555;;fill-opacity:1;"/>
</svg>