<svg version="1.1" x="0" y="0" width="100%" height="100%" viewBox="0 0 860057.6 61798.4" xmlns="http://www.w3.org/2000/svg">
  <path d="M 3602 42027.6 Q 3374.45 42027.6 3374.45 41875.9 Q 3374.45 41685.35 3714.85 41344.95 Q 7882.9 37404.45 10894.7 31438.2 Q 13906.5 25470.1 16672.25 18005.35 Q 16975.65 17134 17184.7 16035.1 Q 17391.9 14936.2 17391.9 14064.85 Q 17391.9 13572.75 17354.9 13384.05 Q 17316.05 13232.35 17316.05 13004.8 Q 17316.05 12549.7 17658.3 12549.7 L 18037.55 12625.55 Q 20196.5 13193.5 21617.3 14368.25 Q 23038.1 15543 23038.1 16830.6 Q 23038.1 17589.1 22052.05 19483.5 L 21635.8 20317.85 Q 20461.05 23272.3 19780.25 24863.3 Q 22583 28008.3 24780.8 30187.6 Q 26978.6 32365.05 29516.8 34031.9 Q 33002.2 36344.4 35066.8 37537.65 Q 37131.4 38730.9 39216.35 39374.7 Q 39860.15 39563.4 39860.15 39829.8 Q 39860.15 40057.35 39329.2 40397.75 Q 37852.9 41156.25 35503.4 41931.4 Q 33153.9 42708.4 31790.45 43011.8 Q 31183.65 43202.35 30464 43202.35 Q 29744.35 43202.35 29176.4 42878.6 Q 28606.6 42556.7 28038.65 41837.05 L 27470.7 41156.25 Q 23720.75 36797.65 21598.8 33463.95 Q 19704.4 30509.5 18074.55 28500.4 Q 15120.1 34450 11880.75 37556.15 Q 8641.4 40662.3 3942.4 41951.75 L 3602 42027.6 Z M 69867.15 43202.35 Q 69754.3 43391.05 69166 44280.9 Q 68579.55 45170.75 67802.55 45834.9 Q 67025.55 46497.2 66191.2 46724.75 Q 66002.5 46800.6 65623.25 46800.6 Q 64903.6 46800.6 64222.8 46327 Q 63540.15 45853.4 63275.6 45133.75 Q 62441.25 42632.55 59940.05 40360.75 Q 59751.35 40170.2 59751.35 40094.35 Q 59751.35 40018.5 59884.55 39963 Q 60015.9 39905.65 60206.45 39942.65 Q 61190.65 40057.35 62365.4 40133.2 Q 63540.15 40209.05 64411.5 40209.05 Q 64676.05 40209.05 64827.75 40133.2 Q 64979.45 40057.35 65094.15 39829.8 Q 65774.95 38692.05 66342.9 34999.45 Q 66912.7 31305 66912.7 28235.85 Q 66912.7 27704.9 66779.5 27534.7 Q 66646.3 27364.5 66191.2 27401.5 Q 62896.35 27592.05 59978.9 28045.3 Q 57061.45 28500.4 55962.55 29183.05 Q 55242.9 29751 54787.8 29751 Q 54560.25 29751 54332.7 29638.15 Q 53688.9 29295.9 52382.8 28178.5 Q 51074.85 27061.1 50734.45 26530.15 Q 50619.75 26302.6 50619.75 26150.9 Q 50619.75 25962.2 50789.95 25658.8 Q 50962 25355.4 51036 25166.7 Q 51833.35 23272.3 52495.65 19729.55 Q 53157.95 16186.8 53157.95 14103.7 Q 53157.95 13761.45 53063.6 13041.8 Q 52969.25 12322.15 52780.55 11791.2 Q 52477.15 11110.4 52477.15 10844 Q 52477.15 10351.9 53424.35 10351.9 Q 54900.65 10351.9 56624.85 10919.85 Q 58349.05 11489.65 58804.15 11905.9 Q 59031.7 12133.45 59031.7 12512.7 Q 59031.7 12777.25 58917 13004.8 Q 58424.9 14255.4 57969.8 16717.75 Q 62252.55 16527.2 68200.3 14975.05 Q 68540.7 14860.35 68768.25 14860.35 Q 69032.8 14860.35 69526.75 15087.9 Q 70170.55 15430.15 70927.2 16320 Q 71685.7 17209.85 71874.4 17664.95 Q 72064.95 18044.2 72064.95 18421.6 Q 72064.95 18800.85 71837.4 19009.9 Q 71609.85 19218.95 71269.45 19218.95 Q 68995.8 19180.1 66230.05 19465 Q 63464.3 19748.05 60887.25 20279 Q 60735.55 20316 60358.15 20316 Q 59410.95 20316 58613.6 19938.6 Q 58008.65 19711.05 57516.55 19143.1 Q 57022.6 22286.25 56909.75 24408.2 Q 56909.75 24522.9 56946.75 24578.4 Q 56985.6 24635.75 57098.45 24635.75 Q 60698.55 24219.5 63956.4 23594.2 Q 67214.25 22968.9 67708.2 22513.8 Q 68011.6 22210.4 68352 22210.4 Q 68616.55 22210.4 68882.95 22362.1 Q 70625.65 23044.75 73200.85 25355.4 Q 73731.8 25849.35 73731.8 26417.3 Q 73731.8 26985.25 73276.7 27553.2 Q 72708.75 28424.55 72632.9 31266.15 Q 72520.05 35206.65 71780.05 38257.3 Q 71041.9 41307.95 69867.15 43202.35  Z M 43081 33767.35 Q 42966.3 33463.95 42966.3 33236.4 Q 42966.3 32707.3 43534.25 32783.15 Q 44444.45 32896 45732.05 32896 Q 49028.75 32896 53688.9 32309.55 Q 58349.05 31721.25 61418.2 30962.75 Q 61873.3 30849.9 62213.7 30849.9 Q 62668.8 30849.9 62972.2 31077.45 Q 63540.15 31532.55 64126.6 32498.25 Q 64714.9 33463.95 64979.45 34298.3 Q 65055.3 34601.7 65055.3 34790.4 Q 65055.3 35245.5 64770.4 35510.05 Q 64487.35 35774.6 63995.25 35737.6 Q 62933.35 35624.75 61682.75 35624.75 Q 58312.05 35624.75 54144 36268.55 Q 49975.95 36912.35 46603.4 37744.85 Q 46451.7 37783.7 46111.3 37783.7 Q 45543.35 37783.7 45051.25 37404.45 Q 44672 37101.05 44274.25 36362.9 Q 43876.5 35624.75 43554.6 34866.25 Q 43232.7 34107.75 43081 33767.35  Z M 90590.85 46080.95 Q 90365.15 46156.8 90213.45 46156.8 Q 89493.8 46156.8 88696.45 45474.15 Q 87900.95 44791.5 87560.55 44110.7 Q 87181.3 43239.35 87181.3 41988.75 Q 87181.3 41533.65 87257.15 41078.55 Q 87636.4 38919.6 87636.4 32252.2 Q 87636.4 28160 87484.7 24389.7 Q 87333 20619.4 87144.3 19711.05 Q 87068.45 19104.25 87068.45 18915.55 Q 87068.45 17929.5 87900.95 17929.5 Q 88659.45 17929.5 89910.05 18384.6 Q 91160.65 18839.7 92032 19444.65 L 92827.5 19407.65 Q 93432.45 17513.25 93981.9 15278.45 Q 94531.35 13041.8 94683.05 11602.5 Q 94721.9 11413.8 94758.9 11016.05 Q 94797.75 10616.45 94967.95 10409.25 Q 95138.15 10200.2 95554.4 10200.2 Q 96843.85 10200.2 98396 10977.2 Q 99950 11754.2 100442.1 12625.55 Q 100821.35 13232.35 100821.35 13685.6 Q 100821.35 14027.85 100612.3 14368.25 Q 100405.1 14708.65 99950 15163.75 Q 97563.5 17474.4 95177 19180.1 Q 99154.5 18725 100177.55 18460.45 Q 100632.65 18384.6 101237.6 17777.8 Q 101883.25 17134 102375.35 17134 Q 103019.15 17134 104306.75 17816.65 Q 105596.2 18497.45 106619.25 19350.3 Q 107642.3 20203.15 107642.3 20771.1 Q 107642.3 20998.65 107433.25 21472.25 Q 107224.2 21945.85 107148.35 22249.25 Q 106770.95 23651.55 106770.95 31909.95 L 106807.95 37252.75 Q 106844.95 38503.35 106844.95 40397.75 Q 106844.95 42101.6 106221.5 43446.55 Q 105596.2 44791.5 104591.65 45531.5 Q 103587.1 46269.65 102451.2 46269.65 Q 101920.25 46269.65 101579.85 45814.55 Q 101237.6 45361.3 100821.35 44262.4 Q 100745.5 44071.85 100460.6 43522.4 Q 100177.55 42972.95 99837.15 42519.7 Q 96085.35 42556.7 92296.55 43048.8 Q 92183.7 44262.4 91652.75 45057.9 Q 91121.8 45853.4 90590.85 46080.95  Z M 92335.4 23007.75 Q 92335.4 24978 92372.4 26113.9 L 97297.1 25205.55 L 97752.2 25166.7 Q 98471.85 25166.7 98926.95 25431.25 Q 99609.6 25621.8 100196.05 26171.25 Q 100784.35 26720.7 100897.2 27173.95 Q 101124.75 28690.95 99267.35 28727.95 Q 98814.1 28727.95 96862.35 28937 Q 94910.6 29144.2 93926.4 29295.9 Q 93016.2 29410.6 92372.4 28992.5 L 92372.4 32024.65 Q 95630.25 31684.25 97752.2 31266.15 Q 98510.7 31190.3 98738.25 31190.3 Q 99002.8 31190.3 99382.05 31266.15 Q 100025.85 31493.7 100460.6 32043.15 Q 100897.2 32592.6 100973.05 33084.7 Q 101010.05 33199.4 101010.05 33426.95 Q 101010.05 34070.75 100612.3 34544.35 Q 100214.55 35017.95 99343.2 35017.95 Q 97979.75 35054.95 95460.05 35206.65 Q 92940.35 35358.35 93774.7 35358.35 Q 93055.05 35358.35 92372.4 34751.55 L 92372.4 39260 Q 97563.5 38692.05 100177.55 38540.35 Q 100784.35 38540.35 101276.45 39487.55 Q 101389.3 35737.6 101389.3 29902.7 Q 101389.3 24826.3 101276.45 22817.2 Q 101276.45 22476.8 101067.4 22306.6 Q 100860.2 22136.4 100556.8 22136.4 Q 99494.9 22097.55 97014.05 22382.45 Q 94531.35 22665.5 92335.4 23007.75  Z M 122797.5 46687.75 Q 122569.95 46763.6 122455.25 46763.6 Q 121774.45 46763.6 120921.6 46042.1 Q 120068.75 45322.45 119689.5 44451.1 Q 119386.1 43846.15 119386.1 43428.05 Q 119386.1 42708.4 120181.6 42027.6 Q 122834.5 39829.8 124388.5 37707.85 Q 124691.9 37367.45 124917.6 37367.45 Q 125145.15 37367.45 125296.85 37537.65 Q 125448.55 37707.85 125524.4 37972.4 Q 125639.1 38351.65 125639.1 39034.3 Q 125639.1 40321.9 125259.85 42007.25 Q 124880.6 43694.45 124218.3 45039.4 Q 123554.15 46384.35 122797.5 46687.75  Z M 118098.5 29902.7 Q 119613.65 28387.55 121489.55 25242.55 Q 123365.45 22097.55 124671.55 18800.85 Q 125979.5 15506 125979.5 13459.9 Q 125979.5 12170.45 126092.35 11717.2 Q 126207.05 11262.1 126812 11413.8 Q 127570.5 11489.65 128669.4 12039.1 Q 129768.3 12588.55 130449.1 13535.75 Q 130828.35 14064.85 130828.35 14671.65 Q 130828.35 15126.75 130658.15 15561.5 Q 130487.95 15998.1 130299.25 16338.5 Q 130108.7 16678.9 130032.85 16793.6 L 129124.5 18497.45 Q 130071.7 18232.9 131359.3 17777.8 Q 131623.85 17701.95 132097.45 17476.25 Q 132571.05 17248.7 132989.15 17248.7 Q 133329.55 17248.7 133594.1 17400.4 Q 134580.15 18044.2 135205.45 18517.8 Q 135830.75 18991.4 136171.15 19596.35 Q 136435.7 19975.6 136435.7 20242 Q 136435.7 20543.55 136056.45 21037.5 Q 135716.05 21490.75 135564.35 21757.15 L 134617.15 23612.7 L 136247 23272.3 L 137155.35 23083.6 Q 137534.6 21189.2 137743.65 19520.5 Q 137950.85 17853.65 137950.85 16982.3 Q 137913.85 15354.3 137819.5 14407.1 Q 137725.15 13459.9 137307.05 12473.85 Q 137118.35 12057.6 137458.75 11811.55 Q 137801 11565.5 138557.65 11602.5 Q 140794.3 11867.05 142385.3 13269.35 Q 142688.7 13687.45 142688.7 14179.55 Q 142688.7 14482.95 142592.5 14899.2 Q 142498.15 15315.45 142461.15 15581.85 L 142309.45 16414.35 Q 141930.2 18497.45 141702.65 20279 Q 141665.65 20734.1 141399.25 22212.25 Q 143332.5 21794.15 144771.8 21453.75 Q 145112.2 21339.05 145491.45 21339.05 Q 146438.65 21339.05 146893.75 21870 Q 147461.7 22476.8 148050 23233.45 Q 148636.45 23991.95 148636.45 24295.35 Q 148636.45 24635.75 148408.9 24863.3 Q 148181.35 25090.85 147765.1 25090.85 Q 145831.85 25090.85 141967.2 25582.95 Q 143332.5 27704.9 145302.75 29978.55 Q 147461.7 32440.9 148654.95 33445.45 Q 149848.2 34450 151478.05 35245.5 Q 152084.85 35585.9 152084.85 35813.45 Q 152084.85 36002.15 151553.9 36192.7 Q 148144.35 37176.9 146514.5 37176.9 Q 145263.9 37176.9 144449.9 36324.05 Q 143635.9 35473.05 142537 33691.5 Q 141550.95 32100.5 140415.05 29751 L 139845.25 28652.1 Q 137155.35 35965.15 130715.5 37404.45 L 130563.8 37404.45 Q 130032.85 37404.45 130032.85 37139.9 Q 130032.85 36912.35 130412.1 36684.8 Q 132382.35 35169.65 133860.5 32479.75 Q 135336.8 29789.85 136322.85 26454.3 L 135679.05 26530.15 Q 135375.65 26530.15 135166.6 26435.8 Q 134959.4 26341.45 134541.3 26075.05 Q 134163.9 25810.5 133784.65 25318.4 Q 132230.65 28424.55 130582.3 30849.9 Q 128933.95 33275.25 126301.4 35397.2 Q 123668.85 37517.3 120029.9 38655.05 Q 119728.35 38730.9 119537.8 38730.9 Q 119045.7 38730.9 119045.7 38464.5 Q 119045.7 38199.95 119613.65 37783.7 Q 122645.8 35661.75 125639.1 31645.4 Q 125296.85 31380.85 125184 31190.3 Q 125448.55 31532.55 123894.55 29789.85 Q 122986.2 28879.65 122379.4 28160 L 122266.55 28045.3 Q 120523.85 29714 118666.45 30546.5 Q 118363.05 30698.2 117946.8 30698.2 Q 117643.4 30698.2 117643.4 30509.5 Q 117643.4 30357.8 118098.5 29902.7  Z M 123099.05 27212.8 Q 123781.7 27022.25 124501.35 27022.25 Q 125600.25 27022.25 126434.6 27592.05 Q 126812 27856.6 127039.55 28330.2 Q 127267.1 28803.8 127305.95 29371.75 Q 128517.7 27440.35 128782.25 26948.25 Q 128441.85 26833.55 128138.45 26530.15 L 126887.85 25318.4 Q 125903.65 24332.35 125639.1 24106.65 Q 124273.8 26001.05 123099.05 27212.8  Z M 126586.3 22704.35 Q 127115.4 22628.5 127381.8 22628.5 Q 128138.45 22628.5 128933.95 22968.9 Q 129352.05 23159.45 129635.1 23594.2 Q 129920 24030.8 129995.85 24598.75 Q 130676.65 23159.45 131246.45 21414.9 Q 131359.3 21113.35 131359.3 20998.65 Q 131359.3 20885.8 131246.45 20885.8 L 130867.2 20961.65 Q 129276.2 21490.75 128480.7 21490.75 Q 128214.3 21490.75 128138.45 21453.75 Q 127949.75 21377.9 127607.5 21113.35 Q 127154.25 21908.85 126586.3 22704.35  Z M 128062.6 38958.45 Q 127986.75 38655.05 127986.75 38503.35 Q 127986.75 38087.1 128593.55 38162.95 Q 129692.45 38199.95 131018.9 38901.1 Q 132343.5 39602.25 132989.15 40549.45 Q 133518.25 41457.8 133518.25 42329.15 Q 133518.25 43352.2 132817.1 44186.55 Q 132117.8 45019.05 130904.2 45664.7 Q 130752.5 45777.55 130600.8 45777.55 Q 130375.1 45777.55 130184.55 45588.85 Q 129995.85 45398.3 129920 45170.75 Q 129540.75 44186.55 129009.8 42064.6 Q 128933.95 41761.2 128650.9 40738.15 Q 128366 39715.1 128062.6 38958.45  Z M 134693 38843.75 Q 134541.3 38464.5 134541.3 38314.65 Q 134541.3 37783.7 135336.8 37783.7 Q 136132.3 37783.7 137440.25 38351.65 Q 138748.2 38919.6 139353.15 39526.4 Q 140452.05 40473.6 140452.05 41724.2 Q 140452.05 42708.4 139808.25 43637.1 Q 139164.45 44565.8 138102.55 45094.9 Q 137876.85 45170.75 137762.15 45170.75 Q 137307.05 45170.75 137194.2 44678.65 Q 136132.3 41572.5 134693 38843.75  Z M 141438.1 37859.55 Q 141323.4 37517.3 141323.4 37404.45 Q 141323.4 37025.2 141854.35 37025.2 Q 142194.75 37025.2 142461.15 37101.05 Q 143787.6 37328.6 145358.25 38087.1 Q 146930.75 38843.75 147840.95 39563.4 Q 148827 40397.75 148827 41800.05 Q 148827 42935.95 148201.7 44034.85 Q 147576.4 45133.75 146553.35 45701.7 Q 146174.1 45966.25 145870.7 45966.25 Q 145112.2 45966.25 144658.95 44717.5 Q 142877.4 40397.75 141438.1 37859.55  Z M 142801.55 16262.65 Q 142801.55 16225.65 142744.2 16129.45 Q 142688.7 16035.1 142688.7 15922.25 Q 142688.7 15618.85 143066.1 15543 Q 143635.9 15430.15 144431.4 15430.15 Q 145567.3 15430.15 146098.25 15694.7 Q 146969.6 16110.95 147404.35 16717.75 Q 147840.95 17324.55 147840.95 18005.35 Q 147840.95 18612.15 147537.55 19218.95 Q 147234.15 19823.9 146703.2 20242 Q 146551.5 20391.85 146362.8 20391.85 Q 146174.1 20391.85 146022.4 20297.5 Q 145870.7 20203.15 145794.85 20090.3 Q 144808.8 18839.7 144392.55 18271.75 Q 143066.1 16566.05 142801.55 16262.65  Z M 161138.75 42935.95 Q 160306.25 42708.4 159490.4 42027.6 Q 158676.4 41344.95 158221.3 40416.25 Q 157768.05 39487.55 157880.9 38540.35 Q 158069.6 35206.65 158069.6 30394.8 Q 158069.6 23916.1 157540.5 22288.1 Q 157425.8 22060.55 157425.8 21833 Q 157425.8 21605.45 157596 21472.25 Q 157768.05 21340.9 158032.6 21377.9 Q 159623.6 21566.6 160419.1 21908.85 Q 161442.15 20166.15 161915.75 18025.7 Q 162389.35 15883.4 162504.05 13876.15 Q 162541.05 13117.65 162692.75 12795.75 Q 162844.45 12473.85 163260.7 12473.85 Q 163527.1 12473.85 163904.5 12588.55 Q 164966.4 12891.95 165950.6 13515.4 Q 166936.65 14140.7 167465.75 14975.05 Q 167732.15 15354.3 167732.15 15883.4 Q 167732.15 16604.9 167238.2 17209.85 Q 167012.5 17437.4 166821.95 17683.45 Q 166633.25 17929.5 166442.7 18157.05 Q 165382.65 19446.5 164359.6 20506.55 Q 163336.55 21566.6 161821.4 22704.35 L 161973.1 22817.2 Q 163375.4 22628.5 165495.5 21984.7 Q 166026.45 21833 166387.2 21586.95 Q 166746.1 21340.9 166992.15 21113.35 Q 167238.2 20885.8 167314.05 20809.95 Q 167769.15 20506.55 168185.4 20506.55 Q 168488.8 20506.55 168716.35 20619.4 Q 169550.7 20961.65 170231.5 21396.4 Q 170914.15 21833 171824.35 22628.5 Q 172277.6 23159.45 172277.6 23612.7 Q 172277.6 23803.25 172164.75 24106.65 Q 171900.2 25090.85 171824.35 25621.8 Q 173376.5 22741.35 174493.9 18821.2 Q 175611.3 14899.2 175611.3 12853.1 Q 175611.3 12398 175574.3 12246.3 L 175574.3 12094.6 Q 175574.3 11754.2 175783.35 11602.5 Q 175990.55 11450.8 176369.8 11526.65 Q 177696.25 11793.05 178680.45 12151.95 Q 179666.5 12512.7 180499 13117.65 Q 181105.8 13611.6 181105.8 14331.25 Q 181105.8 14671.65 180954.1 15012.05 Q 180574.85 15883.4 180195.6 17058.15 L 179742.35 18232.9 Q 178908 20582.4 178036.65 22060.55 Q 179551.8 21794.15 180917.1 21472.25 Q 182280.55 21150.35 182811.5 20961.65 Q 182963.2 20922.8 183455.3 20715.6 Q 183947.4 20506.55 184363.65 20506.55 Q 184667.05 20506.55 184894.6 20619.4 Q 185841.8 21037.5 186940.7 21833 Q 188039.6 22628.5 188455.85 23272.3 Q 188796.25 23727.4 188796.25 24182.5 Q 188796.25 24635.75 188513.2 25279.55 Q 188228.3 25925.2 188152.45 26152.75 Q 187963.75 26720.7 187736.2 28217.35 Q 187508.65 29714 187356.95 31266.15 Q 187319.95 31645.4 187262.6 32157.85 Q 187205.25 32668.45 187129.4 33312.25 Q 186485.6 40209.05 186030.5 41800.05 Q 185159.15 44678.65 182053 45816.4 Q 181825.45 45892.25 181749.6 45892.25 Q 181218.65 45892.25 180386.15 44830.35 Q 179590.65 43731.45 178264.2 42556.7 Q 177429.85 41800.05 176786.05 41156.25 Q 176482.65 40928.7 176482.65 40738.15 Q 176482.65 40586.45 176634.35 40510.6 Q 176786.05 40434.75 177013.6 40434.75 Q 178719.3 40434.75 180006.9 40360.75 Q 181142.8 40284.9 181257.5 39563.4 Q 182356.4 32479.75 182659.8 26796.55 Q 182659.8 26226.75 182280.55 25810.5 Q 181901.3 25394.25 180917.1 25545.95 Q 178528.75 25925.2 177431.7 25962.2 Q 176332.8 26001.05 176105.25 26001.05 Q 175461.45 26001.05 175043.35 25697.65 Q 173642.9 26872.4 171596.8 28008.3 L 171596.8 29562.3 Q 171596.8 34222.45 171709.65 37707.85 Q 171748.5 39223 171426.6 39942.65 Q 171102.85 40662.3 170079.8 41457.8 Q 169095.6 42329.15 168412.95 42329.15 Q 167693.3 42329.15 167389.9 41496.65 Q 167125.35 41004.55 167012.5 40625.3 Q 166821.95 40057.35 166594.4 39715.1 Q 166366.85 39374.7 165874.75 38995.45 Q 164019.2 39186 162692.75 39602.25 Q 162692.75 43239.35 161138.75 42935.95  Z M 162504.05 35737.6 Q 164132.05 35434.2 167164.2 35130.8 Q 167238.2 33084.7 167238.2 31797.1 Q 166897.8 32024.65 166291 32024.65 Q 165495.5 32024.65 164435.45 32119 Q 163375.4 32213.35 162768.6 32328.05 L 162465.2 32403.9 L 162504.05 35737.6 Z M 164207.9 28955.5 Q 164435.45 28879.65 164796.2 28803.8 Q 165155.1 28727.95 165495.5 28727.95 Q 165950.6 28727.95 166141.15 28879.65 Q 166557.4 29107.2 166784.95 29371.75 Q 167012.5 29638.15 167238.2 30091.4 Q 167238.2 26681.85 167201.2 25962.2 Q 167201.2 25394.25 166594.4 25394.25 Q 166291 25394.25 165079.25 25658.8 Q 163336.55 25962.2 163184.85 25962.2 Q 162844.45 26001.05 162616.9 25962.2 L 162504.05 29371.75 L 164207.9 28955.5 Z M 173148.95 28955.5 Q 172921.4 28727.95 172921.4 28539.25 Q 172921.4 28047.15 173944.45 28121.15 Q 175309.75 28197 176427.15 28576.25 Q 177544.55 28955.5 178871 29599.3 Q 179931.05 30167.25 180443.5 30925.75 Q 180954.1 31684.25 180954.1 32516.75 Q 180954.1 33351.1 180425 34146.6 Q 179894.05 34942.1 178983.85 35473.05 Q 178832.15 35585.9 178567.6 35585.9 Q 178264.2 35585.9 177979.3 35434.2 Q 177696.25 35282.5 177620.4 35169.65 Q 177544.55 35054.95 175953.55 32783.15 Q 174210.85 30015.55 173148.95 28955.5  Z M 192246.5 42027.6 Q 192094.8 42103.45 192018.95 42103.45 Q 191791.4 42103.45 191791.4 41800.05 Q 191791.4 41572.5 191904.25 41459.65 Q 194708.85 39526.4 196830.8 36912.35 Q 198952.75 34298.3 200392.05 31342 Q 197171.2 27629.05 196111.15 26796.55 Q 195807.75 26532 195807.75 26341.45 Q 195807.75 26113.9 196148.15 26113.9 Q 196375.7 26113.9 196527.4 26152.75 Q 198573.5 26493.15 201794.35 27971.3 Q 202475.15 25810.5 202741.55 23840.25 L 202778.55 23690.4 Q 202702.7 23235.3 202286.45 23387 Q 201527.95 23575.7 199481.85 24334.2 L 198194.25 24787.45 Q 197398.75 25015 197019.5 25015 Q 196603.25 25015 196224 24787.45 Q 195768.9 24522.9 195069.6 23745.9 Q 194368.45 22968.9 193989.2 22249.25 Q 193913.35 22021.7 193913.35 21984.7 Q 193913.35 21492.6 194520.15 21492.6 Q 195920.6 21492.6 199180.3 20752.6 Q 202438.15 20014.45 203953.3 19370.65 Q 205052.2 18915.55 205392.6 18915.55 Q 206188.1 18915.55 207116.8 19825.75 Q 208045.5 20734.1 208537.6 21833 Q 208613.45 22060.55 208613.45 22136.4 Q 208613.45 22515.65 208310.05 22913.4 Q 208006.65 23311.15 207969.65 23387 Q 207514.55 23991.95 207401.7 24295.35 L 206983.6 25584.8 Q 206151.1 28311.7 205431.45 30017.4 Q 208158.35 31835.95 208953.85 33578.65 Q 209371.95 34450 209371.95 35358.35 Q 209371.95 36457.25 208783.65 37328.6 Q 208197.2 38199.95 207325.85 38618.05 Q 207059.45 38769.75 206757.9 38769.75 Q 206378.65 38769.75 206056.75 38503.35 Q 205734.85 38238.8 205544.3 37822.55 Q 204521.25 36381.4 202969.1 34487 Q 201339.25 36608.95 198782.55 38446 Q 196224 40284.9 192246.5 42027.6  Z M 207969.65 24295.35 Q 207893.8 24143.65 207893.8 23879.1 Q 207893.8 23614.55 208045.5 23424 Q 208197.2 23235.3 208461.75 23235.3 Q 211947.15 23235.3 217517.5 21796 L 217402.8 15846.4 Q 217365.8 14595.8 217232.6 13800.3 Q 217101.25 13004.8 216834.85 12096.45 Q 216646.15 11602.5 216646.15 11376.8 Q 216646.15 10466.6 218161.3 10466.6 Q 218843.95 10466.6 220340.6 10997.55 Q 221837.25 11526.65 222329.35 12020.6 Q 222632.75 12324 222632.75 12928.95 Q 222632.75 13195.35 222556.9 13668.95 Q 222481.05 14142.55 222442.2 14407.1 Q 222214.65 15543 222177.65 16186.8 Q 222101.8 18232.9 222101.8 20469.55 Q 222101.8 20469.55 223237.7 20090.3 Q 223389.4 20051.45 223768.65 19938.6 Q 224147.9 19825.75 224451.3 19825.75 Q 224715.85 19825.75 224980.4 19938.6 Q 225814.75 20354.85 226610.25 21207.7 Q 227405.75 22060.55 227785 22856.05 Q 227860.85 23083.6 227860.85 23272.3 Q 227860.85 23764.4 227500.1 24164 Q 227141.2 24561.75 226345.7 24561.75 Q 224943.4 24561.75 222253.5 24826.3 L 222138.8 24826.3 Q 222214.65 31456.7 222290.5 34146.6 L 222366.35 40170.2 Q 222366.35 41875.9 222159.15 42935.95 Q 221950.1 43997.85 221324.8 44869.2 Q 220699.5 45740.55 219373.05 46536.05 Q 218843.95 46839.45 218501.7 46839.45 Q 217630.35 46839.45 216986.55 45096.75 Q 216531.45 43922 215793.3 43126.5 Q 215055.15 42331 213956.25 41687.2 Q 213652.85 41535.5 213652.85 41307.95 Q 213652.85 41004.55 213993.25 41004.55 L 215205 41041.55 Q 215319.7 41041.55 216002.35 40965.7 Q 216455.6 40928.7 216797.85 40664.15 Q 217138.25 40397.75 217326.95 39602.25 Q 217593.35 38351.65 217593.35 29373.6 L 217593.35 25545.95 Q 213993.25 26113.9 211342.2 26796.55 Q 211038.8 26872.4 210772.4 26872.4 Q 210167.45 26872.4 209788.2 26493.15 Q 209636.5 26341.45 209181.4 25906.7 Q 208726.3 25470.1 207969.65 24295.35  Z M 209447.8 29183.05 Q 209181.4 28918.5 209181.4 28766.8 Q 209181.4 28463.4 210015.75 28463.4 Q 211075.8 28463.4 212250.55 28785.3 Q 213425.3 29107.2 214220.8 29638.15 Q 215926.5 30774.05 215926.5 32176.35 Q 215926.5 33047.7 215301.2 33785.85 Q 214675.9 34525.85 213652.85 34942.1 Q 213577 34980.95 213386.45 34980.95 Q 213121.9 34980.95 212837 34808.9 Q 212553.95 34638.7 212439.25 34450 Q 211910.15 33691.5 211075.8 32024.65 Q 210962.95 31760.1 210489.35 30849.9 Q 210015.75 29941.55 209447.8 29183.05  Z M 247145.25 28918.5 Q 246653.15 29031.35 246161.05 29031.35 Q 244758.75 29031.35 243811.55 27932.45 Q 242485.1 26606 242485.1 25734.65 Q 242485.1 24978 243432.3 24939.15 Q 246161.05 24939.15 252071.8 23879.1 L 252071.8 22515.65 Q 252032.95 21568.45 251957.1 20924.65 Q 251881.25 20279 251653.7 19446.5 L 251653.7 19407.65 Q 248016.6 20506.55 245742.95 20393.7 Q 245478.4 20354.85 245308.2 20205 Q 245138 20053.3 245138 19862.75 Q 245138 19559.35 245554.25 19407.65 Q 248432.85 17779.65 251577.85 15430.15 Q 254722.85 13080.65 255708.9 11868.9 Q 256010.45 11452.65 256408.2 11319.45 Q 256807.8 11186.25 257109.35 11300.95 Q 258095.4 11793.05 258778.05 12512.7 Q 259458.85 13232.35 259799.25 13933.5 Q 260141.5 14634.65 260141.5 15013.9 Q 260141.5 15809.4 259194.3 16453.2 Q 257451.6 17363.4 254722.85 18384.6 Q 255897.6 18726.85 256656.1 19294.8 Q 257224.05 19749.9 257224.05 20582.4 Q 257224.05 21037.5 257109.35 21605.45 Q 256957.65 22021.7 256920.65 22893.05 Q 260217.35 22136.4 261732.5 21605.45 Q 262148.75 21492.6 262489.15 21492.6 Q 263171.8 21492.6 263626.9 21947.7 Q 264233.7 22476.8 264744.3 23196.45 Q 265256.75 23916.1 265482.45 24598.75 Q 265558.3 24902.15 265558.3 24978 Q 265558.3 26001.05 263626.9 26001.05 Q 261732.5 26001.05 256541.4 26909.4 Q 256352.7 29902.7 256238 31985.8 L 257488.6 31721.25 Q 257792 31684.25 258056.55 31532.55 Q 258171.25 31532.55 258208.25 31493.7 Q 258890.9 31190.3 259307.15 31190.3 Q 259573.55 31190.3 259838.1 31305 Q 260670.6 31608.4 261599.3 32233.7 Q 262528 32859 263058.95 33463.95 Q 263399.35 33806.2 263399.35 34411.15 Q 263399.35 34942.1 263171.8 35397.2 Q 262907.25 36192.7 262661.2 38142.6 Q 262415.15 40094.35 262224.6 41800.05 Q 262187.6 42632.55 261504.95 43372.55 Q 260822.3 44110.7 259875.1 44565.8 Q 258927.9 45020.9 258171.25 45020.9 Q 257261.05 45020.9 257033.5 44338.25 Q 256920.65 43883.15 256844.8 43466.9 L 256768.95 43163.5 Q 253320.55 43278.2 250972.9 43846.15 Q 250934.05 44830.35 250478.95 45513 Q 250025.7 46193.8 249304.2 46193.8 Q 248660.4 46193.8 248016.6 45740.55 Q 246462.6 44717.5 246462.6 43202.35 Q 246462.6 40510.6 246255.4 37328.6 Q 246046.35 34146.6 245478.4 32971.85 Q 245365.55 32668.45 245365.55 32479.75 Q 245365.55 31911.8 246009.35 31684.25 Q 246198.05 31645.4 246538.45 31645.4 Q 247485.65 31645.4 248566.05 32024.65 Q 249646.45 32403.9 250251.4 32896 L 251844.25 32668.45 Q 251920.1 31190.3 251995.95 27780.75 Q 249115.5 28348.7 247145.25 28918.5  Z M 229831.1 27667.9 Q 229603.55 27249.8 229603.55 26948.25 Q 229603.55 26302.6 230362.05 26265.6 Q 232217.6 25962.2 234339.55 25148.2 Q 236461.5 24334.2 237257 23764.4 Q 237749.1 23387 238317.05 23387 Q 238696.3 23387 238999.7 23538.7 Q 240250.3 23916.1 241804.3 25545.95 Q 242372.25 26076.9 242372.25 26606 Q 242372.25 27061.1 241993 27477.35 Q 241462.05 28272.85 241158.65 29523.45 Q 240818.25 31532.55 240477.85 35813.45 Q 242864.35 34222.45 244190.8 32896 Q 244379.5 32707.3 244607.05 32707.3 Q 244795.75 32707.3 244910.45 32838.65 Q 245023.3 32971.85 245023.3 33160.55 Q 245023.3 33351.1 244947.45 33463.95 L 243963.25 35321.35 Q 243735.7 35774.6 243659.85 36002.15 Q 242105.85 38919.6 241121.65 40567.95 Q 240135.6 42216.3 238544.6 44110.7 Q 238317.05 44451.1 237958.15 44641.65 Q 237597.4 44830.35 237218.15 44830.35 Q 236840.75 44830.35 236461.5 44641.65 Q 235854.7 44262.4 234983.35 43542.75 Q 234112 42823.1 233581.05 42255.15 Q 233127.8 41800.05 233127.8 41269.1 Q 233127.8 40586.45 233808.6 40284.9 Q 234491.25 39981.5 234831.65 39544.9 Q 235173.9 39110.15 235362.6 38390.5 Q 235778.85 36229.7 236082.25 33426.95 Q 236385.65 30622.35 236461.5 28690.95 L 236461.5 28539.25 Q 235135.05 28918.5 233808.6 29523.45 Q 233203.65 29826.85 232672.7 29826.85 Q 232217.6 29826.85 231914.2 29638.15 Q 231422.1 29410.6 230835.65 28822.3 Q 230247.35 28235.85 229831.1 27667.9  Z M 235551.3 14331.25 Q 235551.3 13648.6 236158.1 13648.6 Q 236498.5 13611.6 237144.15 13611.6 Q 239795.2 13611.6 241291.85 14634.65 Q 242788.5 15657.7 242523.95 17931.35 Q 242068.85 20279 240326.15 21152.2 Q 240098.6 21265.05 239758.2 21265.05 Q 239038.55 21265.05 238583.45 20697.1 Q 237068.3 18423.45 235590.15 14634.65 L 235551.3 14331.25 Z M 250745.35 40170.2 Q 253019 39942.65 256238 39526.4 Q 256693.1 39489.4 257033.5 39450.55 Q 257375.75 39413.55 257640.3 39374.7 Q 257904.85 36988.2 257943.7 35737.6 L 257943.7 35585.9 Q 257943.7 35358.35 257849.35 35282.5 Q 257755 35206.65 257527.45 35245.5 Q 256428.55 35434.2 254136.4 35907.8 Q 251844.25 36381.4 251048.75 36608.95 L 250593.65 36647.8 L 250745.35 40170.2 Z " fill-rule="nonzero" style="fill:#333333;;fill-opacity:1;"/>
</svg>