<svg version="1.1" x="0" y="0" width="100%" height="100%" viewBox="0 0 388710.4 75776" xmlns="http://www.w3.org/2000/svg">
  <path d="M 9236.3 7872.8 Q 9235.4 8123 9235.4 8373.2 Q 9275.9 10983.2 9039.2 13566.2 Q 8870 15221.3 8399.3 16835 Q 7927.7 18448.7 7008.8 19998.5 Q 5603.9 22417.7 2656.4 24609.2 L 2858.9 24866.6 Q 6336.5 23167.4 8152.7 21065.9 Q 9885.2 19067.9 10589 16847.6 Q 11324.3 14513.9 11448.5 12093.8 Q 11698.7 15887.3 12737.3 18787.1 Q 13091.9 19738.4 13571.6 20587.1 Q 14990.9 23177.3 17936.6 24774.8 Q 18309.2 22949.6 19982.3 22618.4 L 20019.2 22397 Q 16443.5 21074.9 14606.6 18814.1 Q 13467.2 17428.1 12813.8 15650.6 Q 11772.5 12748.1 11596.1 8683.7 Q 11949.8 8640.5 12102.8 8508.2 Q 12255.8 8375.9 12277.4 8167.1 L 9236.3 7872.8 Z M 23079.2 12020 Q 23438.3 10946.3 23687.6 9789.8 Q 23963.9 9757.4 24129.5 9642.2 L 24129.5 12020 L 23079.2 12020 Z M 36626 9992.3 L 35483.9 11190.2 L 30562.7 11190.2 Q 31156.7 10094 31613 8775.5 Q 32234.9 8771 32332.1 8407.4 L 29548.4 7577.6 Q 29198.3 9849.2 28405.4 11816.6 Q 27967.1 11338.7 27590 10952.6 Q 27213.8 10567.4 27189.5 10544.9 L 26249 12020 L 26157.2 12020 L 26157.2 8370.5 Q 26521.7 8313.8 26661.2 8181.5 Q 26801.6 8049.2 26820.5 7853.9 L 24129.5 7577.6 L 24129.5 9292.1 L 21825.5 8868.2 Q 21795.8 10609.7 21586.1 12337.7 Q 21376.4 14065.7 21014.6 15448.1 L 21290.9 15576.8 Q 22272.8 14328.5 22894.7 12554.6 L 24129.5 12554.6 L 24129.5 16811.6 Q 23098.1 17076.2 22295.3 17263.4 Q 21492.5 17451.5 21014.6 17549.6 L 21936.2 19982.3 Q 22262.9 19858.1 22397 19484.6 Q 22597.7 19375.7 22794.8 19268.6 Q 23499.5 18890.6 24129.5 18526.1 L 24129.5 24866.6 L 24535.4 24866.6 Q 25144.7 24846.8 25636.1 24640.7 Q 26128.4 24434.6 26157.2 24277.1 L 26157.2 17346.2 Q 27626.9 16461.5 28571.9 15854 L 28516.1 15632.6 Q 28515.2 15632.6 28513.4 15633.5 Q 27321.8 15969.2 26157.2 16277.9 L 26157.2 12554.6 L 28092.2 12554.6 Q 27452.3 14000.9 26672.9 15061.1 L 26876.3 15226.7 Q 28866.2 13959.5 30248.6 11724.8 L 30839 11724.8 Q 30429.5 13901 29394.5 16015.1 Q 28359.5 18129.2 26802.5 19779.8 L 26968.1 19982.3 Q 29157.8 18491.9 30638.3 16350.8 Q 32118.8 14210.6 32829.8 11724.8 L 33308.6 11724.8 Q 32938.7 15056.6 31514 18125.6 Q 30089.3 21194.6 27410 23503.1 L 27557.6 23687.6 Q 30978.5 21748.1 32843.3 18813.2 Q 33014.3 18550.4 33174.5 18282.2 Q 34917.8 15277.1 35520.8 11724.8 L 35686.4 11724.8 Q 35524.4 16165.4 35175.2 18833 Q 34826 21499.7 34249.1 22028 Q 34077.2 22178.3 33909.8 22242.2 Q 33742.4 22306.1 33474.2 22305.2 Q 33109.7 22301.6 32401.4 22251.2 Q 31693.1 22200.8 30983.9 22143.2 Q 30832.7 22131.5 30691.4 22120.7 L 30691.4 22378.1 Q 31375.4 22518.5 31893.8 22730.9 Q 32412.2 22943.3 32682.2 23207.9 Q 33128.6 23673.2 33106.1 24719 Q 34023.2 24722.6 34691 24484.1 Q 35358.8 24245.6 35888.9 23723.6 Q 36720.5 22910 37151.6 20084 Q 37582.7 17258 37751 12074.9 Q 38381.9 11955.2 38598.8 11724.8 L 36626 9992.3 Z M 53528.9 22986.5 L 42709.1 22986.5 L 42709.1 13033.4 Q 43354.4 12918.2 43391.3 12498.8 L 40626.5 12222.5 L 40626.5 22747.1 Q 40207.1 23018.9 39925.4 23318.6 L 42137.6 24479.6 L 42819.8 23521.1 L 53528.9 23521.1 L 53528.9 24848.6 L 53933.9 24848.6 Q 54546.8 24826.1 55063.4 24603.8 Q 55579.1 24381.5 55611.5 24221.3 L 55611.5 12904.7 Q 55949.9 12848.9 56084 12727.4 Q 56218.1 12605.9 56237.9 12425 L 53528.9 12167.6 L 53528.9 22986.5 Z M 49012.7 20129.9 L 49012.7 16185.2 L 50377.1 16185.2 L 50377.1 20129.9 L 49012.7 20129.9 Z M 45842 16185.2 L 47243.3 16185.2 L 47243.3 20129.9 L 45842 20129.9 L 45842 16185.2 Z M 47243.3 12111.8 L 47243.3 15650.6 L 45842 15650.6 L 45842 12111.8 L 47243.3 12111.8 Z M 50377.1 12111.8 L 50377.1 15650.6 L 49012.7 15650.6 L 49012.7 12111.8 L 50377.1 12111.8 Z M 50690.3 21475.4 Q 51196.1 21455.6 51694.7 21263 Q 52193.3 21071.3 52257.2 20940.8 L 52257.2 12388.1 Q 52763.9 12254.9 52938.5 12038 L 51095.3 10618.7 L 50192.6 11596.1 L 45934.7 11596.1 L 43980.8 10766.3 L 43980.8 21770.6 L 44276 21770.6 Q 44893.4 21748.1 45356 21525.8 Q 45818.6 21303.5 45842 21143.3 L 45842 20664.5 L 50377.1 20664.5 L 50377.1 21475.4 L 50690.3 21475.4 Z M 53288.6 9255.2 L 39464.6 9255.2 L 39612.2 9770.9 L 56422.4 9770.9 Q 56832.8 9775.4 56938.1 9475.7 Q 56324.3 8968.1 55642.1 8448.8 Q 55412.6 8274.2 55213.7 8123.9 Q 54617.9 7677.5 54579.2 7651.4 L 53288.6 9255.2 Z M 65048.9 18010.4 Q 65699.6 17991.5 66122.6 17560.4 Q 66544.7 17130.2 66560 16517.3 Q 66544.7 15863.9 66122.6 15424.7 Q 65699.6 14986.4 65048.9 14968.4 Q 64384.7 14986.4 63959 15424.7 Q 63533.3 15863.9 63518.9 16517.3 Q 63533.3 17130.2 63959 17560.4 Q 64384.7 17991.5 65048.9 18010.4  Z M 79137.2 8960 Q 79825.7 10102.1 80431.4 11482.7 Q 81038 12863.3 81256.7 14213.3 Q 82133.3 14882.9 82759.7 14511.2 Q 83360.9 14156.6 83385.2 13213.4 Q 83410.4 12270.2 82520.3 11109.2 Q 81598.7 9902.3 79320.8 8868.2 L 79137.2 8960 Z M 82933.4 16885.4 Q 81553.7 17638.7 80228.9 18339.8 Q 78904.1 19040.9 77772.8 19613.3 L 77772.8 9642.2 Q 78446 9527 78455 9107.6 L 75542.6 8831.3 L 75542.6 19834.7 Q 75560.6 20162.3 75374.3 20376.5 Q 75188 20589.8 74584.1 20903.9 L 76003.4 23447.3 Q 76367 23258.3 76648.7 22710.2 Q 78867.2 20973.2 80491.7 19498.1 Q 82116.2 18023.9 83063 17088.8 L 82933.4 16885.4 Z M 86141 8536.1 Q 86139.2 11710.4 85826 14279 Q 85573.1 16239.2 84862.1 17922.2 Q 84151.1 19606.1 82743.5 21074.9 Q 80913.8 22999.1 77403.8 24682.1 L 77551.4 24977.3 Q 80831 24024.2 82887.5 22776.8 Q 84944 21530.3 86067.2 19982.3 Q 86885.3 20967.8 87520.7 22136.9 Q 88156.1 23305.1 88408.1 24442.7 Q 89311.7 25032.2 89919.2 24614.6 Q 90489.8 24224.9 90490.7 23315.9 Q 90492.5 22407.8 89627.6 21349.4 Q 88715.9 20224.4 86491.1 19355.9 Q 87689 17355.2 88058 14874.8 Q 88426.1 12393.5 88518.8 9383.9 Q 89186.6 9273.2 89219 8831.3 L 86141 8536.1 Z M 101826.2 13568 Q 103568.6 12873.2 105197.6 11856.2 Q 106825.7 10839.2 108167.6 9549.5 Q 108477.2 9607.1 108639.2 9570.2 Q 108801.2 9534.2 108904.7 9383.9 L 106360.4 7817 Q 105406.4 9470.3 104234.6 10868 Q 103061.9 12264.8 101679.5 13309.7 L 101826.2 13568 Z M 101108 18728.6 Q 103145.6 18026.6 104942 16920.5 Q 106737.5 15813.5 108222.5 14268.2 Q 108546.5 14336.6 108711.2 14287.1 Q 108875.9 14237.6 108978.5 14083.7 L 106324.4 12554.6 Q 104218.4 16341.8 100978.4 18471.2 L 101108 18728.6 Z M 95983.4 14950.4 L 95983.4 14876.6 L 95983.4 9770.9 L 97956.2 9770.9 L 97956.2 14950.4 L 95983.4 14950.4 Z M 102601.1 15485 Q 102978.2 15489.5 103079.9 15189.8 Q 102593.9 14686.7 102026.9 14167.4 Q 101880.2 14031.5 101748.8 13911.8 Q 101236.7 13450.1 101199.8 13420.4 L 100130.6 14950.4 L 100056.8 14950.4 L 100056.8 9770.9 L 102158.3 9770.9 Q 102573.2 9775.4 102656 9475.7 Q 102123.2 9000.5 101518.4 8503.7 Q 101354.6 8368.7 101208.8 8249 Q 100666.1 7808.9 100628.3 7780.1 L 99522.2 9255.2 L 92039.6 9255.2 L 92186.3 9770.9 L 93900.8 9770.9 L 93900.8 14895.5 L 93900.8 14950.4 L 91651.7 14950.4 L 91799.3 15485 L 93900.8 15485 Q 93927.8 17869.1 93513.8 20207.3 Q 93491.3 20320.7 93467 20434.1 Q 93017.9 22763.3 91614.8 24755.9 L 91799.3 24903.5 Q 93894.5 23449.1 94789.1 21591.5 Q 95330.9 20507 95590.1 19360.4 Q 96002.3 17398.4 95983.4 15485 L 97956.2 15485 L 97956.2 24682.1 L 98324.3 24682.1 Q 99145.1 24657.8 99591.5 24436.4 Q 100038.8 24214.1 100056.8 24092.6 L 100056.8 15485 L 102601.1 15485 Z M 106526.9 17291.3 Q 105370.4 19858.1 103771.1 21623 Q 102171.8 23387.9 100075.7 24572.3 L 100186.4 24829.7 Q 102792.8 24033.2 104868.2 22611.2 Q 106942.7 21189.2 108554.6 18913.1 Q 109176.5 19000.4 109328.6 18673.7 L 106526.9 17291.3 Z M 114010.4 12812 Q 115056.2 11042.6 115853.6 8886.2 Q 116498 8862.8 116590.7 8536.1 L 113456.9 7614.5 Q 112941.2 10224.5 112025.9 12680.6 Q 111957.5 12866 111887.3 13048.7 Q 110953.1 15473.3 109918.1 17217.5 L 110120.6 17365.1 Q 111171.8 16530.8 112111.4 15448.1 L 112111.4 24903.5 L 112517.3 24903.5 Q 113182.4 24879.2 113712.5 24643.4 Q 114243.5 24407.6 114286.7 24258.2 L 114286.7 13457.3 Q 114806.9 13365.5 114858.2 13107.2 L 114010.4 12812 Z M 124424.3 14452.7 L 120442.7 14452.7 Q 120890 12904.7 121253.6 11411.6 L 126138.8 11411.6 Q 126562.7 11416.1 126654.5 11116.4 Q 126125.3 10623.2 125530.4 10130 Q 125388.2 10012.1 125260.4 9906.8 Q 124720.4 9466.7 124682.6 9438.8 L 123594.5 10877 L 121383.2 10877 Q 121718.9 9627.8 121930.4 8693.6 Q 121942.1 8641.4 121954.7 8591 Q 122321 8600 122491.1 8487.5 Q 122661.2 8375 122709.8 8204 L 119908.1 7559.6 Q 119810 8162.6 119624.6 9017.6 Q 119440.1 9872.6 119189.9 10877 L 115650.2 10877 L 115797.8 11411.6 L 119060.3 11411.6 Q 118673.3 12946.1 118231.4 14452.7 L 114581.9 14452.7 L 114728.6 14987.3 L 118083.8 14987.3 Q 117686.9 16337.3 117346.7 17328.2 Q 116927.3 17535.2 116645.6 17770.1 L 118710.2 19060.7 L 119540 18102.2 L 123207.5 18102.2 Q 122925.8 18806.9 122553.2 19623.2 Q 122181.5 20438.6 121788.2 21199.1 Q 120106.1 20498 117069.5 20351.3 L 116940.8 20553.8 Q 118359.2 21110.9 119881.1 22046 Q 120430.1 22385.3 120946.7 22752.5 Q 122379.5 23764.1 123226.4 24811.7 Q 124180.4 24998.9 124495.4 24392.3 Q 124737.5 23923.4 124417.1 23227.7 Q 124020.2 22334.9 122470.4 21512.3 Q 123401.9 20819.3 124288.4 20053.4 Q 125174.9 19288.4 125787.8 18636.8 Q 126087.5 18611.6 126264.8 18555.8 Q 126443 18500 126562.7 18378.5 L 124442.3 16350.8 L 123170.6 17567.6 L 119558 17567.6 Q 119899.1 16430 120295.1 14987.3 L 127133.3 14987.3 Q 127567.1 14991.8 127667.9 14692.1 Q 127115.3 14196.2 126494.3 13682.3 Q 126315.2 13532.9 126156.8 13403.3 Q 125604.2 12951.5 125567.3 12922.7 L 124424.3 14452.7 Z M 130414.7 7669.4 Q 130787.3 8206.7 131094.2 8909.6 Q 131401.1 9611.6 131483.9 10342.4 Q 132213.8 10890.5 132816.8 10634 Q 133355 10408.1 133485.5 9837.5 Q 133616 9267.8 133050.8 8646.8 Q 132429.8 7952.9 130580.3 7577.6 L 130414.7 7669.4 Z M 141491.9 18378.5 L 141491.9 15300.5 L 143188.4 15300.5 L 143188.4 18378.5 L 141491.9 18378.5 Z M 137768.6 18378.5 L 137768.6 15300.5 L 139465.1 15300.5 L 139465.1 18378.5 L 137768.6 18378.5 Z M 139465.1 11946.2 L 139465.1 14784.8 L 137768.6 14784.8 L 137768.6 11946.2 L 139465.1 11946.2 Z M 143188.4 11946.2 L 143188.4 14784.8 L 141491.9 14784.8 L 141491.9 11946.2 L 143188.4 11946.2 Z M 143962.4 10360.4 L 143003.9 11429.6 L 141491.9 11429.6 L 141491.9 8351.6 Q 141856.4 8294.9 141999.5 8162.6 Q 142141.7 8030.3 142174.1 7835.9 L 139465.1 7559.6 L 139465.1 11429.6 L 137898.2 11429.6 L 135759.8 10563.8 L 135759.8 12167.6 L 134008.4 10453.1 L 132847.4 11559.2 L 128608.4 11559.2 L 128774 12093.8 L 132921.2 12093.8 Q 132345.2 13919.9 131185.1 15854 Q 131133.8 15938.6 131081.6 16023.2 Q 129900.8 17951 128405.9 19466.6 L 128589.5 19632.2 Q 129976.4 18797.9 131225.6 17660.3 L 131225.6 24829.7 L 131575.7 24829.7 Q 132346.1 24803.6 132794.3 24562.4 Q 133243.4 24322.1 133253.3 24184.4 L 133253.3 16295.9 Q 133551.2 16772 133789.7 17295.8 Q 134029.1 17819.6 134119.1 18323.6 Q 134777.9 18779.9 135263 18473.9 Q 135603.2 18264.2 135669.8 17830.4 Q 135736.4 17396.6 135376.4 16889 Q 134894.9 16172.6 133253.3 15650.6 L 133253.3 15466.1 Q 134372.9 13996.4 135077.6 12554.6 Q 135557.3 12526.7 135759.8 12388.1 L 135759.8 20314.4 L 136073 20314.4 Q 136735.4 20291.9 137239.4 20058.8 Q 137742.5 19824.8 137768.6 19650.2 L 137768.6 18913.1 L 139465.1 18913.1 L 139465.1 24922.4 L 139852.1 24922.4 Q 140450.6 24897.2 140955.5 24636.2 Q 141460.4 24376.1 141491.9 24184.4 L 141491.9 18913.1 L 143188.4 18913.1 L 143188.4 20166.8 L 143519.6 20166.8 Q 144069.5 20142.5 144597.8 19917.5 Q 145127 19693.4 145178.3 19558.4 L 145178.3 12277.4 Q 145758.8 12148.7 145953.2 11909.3 L 143962.4 10360.4 Z " fill-rule="nonzero" style="fill:#333333;;fill-opacity:1;"/>
  <path d="M 3338.1 41367.3 Q 3571.2 41260.2 3739.9 40980.2 Q 4841 40612 5786 40259.9 Q 6731.7 39907.8 7466.7 39604 Q 7581.5 40031 7610.2 40435.6 Q 8182.1 40876.6 8630.1 40640 Q 9022.1 40435.6 9095.6 39935.8 Q 9169.8 39436 8719.7 38863.4 Q 8216.4 38211.7 6764.6 37769.3 L 6635.8 37855.4 Q 7015.2 38418.2 7309.2 39130.8 Q 6425.1 39230.9 5616.6 39312.1 Q 4807.4 39393.3 4152.2 39456.3 Q 4050.7 39466.1 3954.8 39475.2 Q 4568.7 39013.9 5153.2 38470 Q 5738.4 37925.4 6147.9 37410.9 Q 6563.7 37389.2 6635.8 37152.6 L 5216.2 36665.4 L 9287.4 36665.4 Q 9610.1 36668.9 9674.5 36435.8 Q 9258.7 36048 8782 35660.2 Q 8655.3 35556.6 8541.9 35465.6 Q 8113.5 35123.3 8083.4 35103 L 7194.4 36249.6 L 2664.7 36249.6 L 2778.8 36665.4 L 4542.8 36665.4 Q 4344 37294.7 3968.8 38047.9 Q 3894.6 38194.9 3817.6 38337 Q 3425.6 39066.4 3051.8 39432.5 Q 2939.8 39487.1 2787.9 39523.5 Q 2636 39559.9 2621.3 39561.3 L 3338.1 41367.3 Z M 9560.4 45008.7 Q 8008.5 45252.3 6607.1 45496.6 L 6607.1 43331.5 L 8957.7 43331.5 Q 9269.9 43335 9344.8 43101.9 Q 8927.6 42730.9 8454.4 42352.9 Q 8333.3 42255.6 8224.1 42169.5 Q 7797.8 41832.8 7768.4 41811.8 L 6936.8 42930.4 L 6607.1 42930.4 L 6607.1 41424.7 Q 6869.6 41381.3 6965.5 41286.8 Q 7061.4 41192.3 7065.6 41052.3 L 4957.9 40880.1 L 4957.9 42930.4 L 2764.8 42930.4 L 2879.6 43331.5 L 4957.9 43331.5 L 4957.9 45768.9 Q 3381.5 46009 2578.6 46098.6 L 3395.5 48048.1 Q 3660.8 47965.5 3797.3 47689.7 Q 5830.1 46894.5 7244.8 46268.7 Q 8659.5 45642.9 9574.4 45180.9 L 9560.4 45008.7 Z M 12914.8 38557.5 Q 12739.1 40941 11897 43045.2 Q 10961.1 41489.1 10477.4 39503.9 Q 10757.4 39041.2 10994 38557.5 L 12914.8 38557.5 Z M 15695.9 38557.5 Q 16025.6 38561 16097 38328.6 Q 15675.6 37942.9 15194.7 37547.4 Q 15057.5 37434 14935.7 37335.3 Q 14506.6 36988.1 14477.2 36966.4 L 13616.9 38156.4 L 11180.2 38156.4 Q 11674.4 37020.3 12040.5 35690.3 Q 12534.7 35647.6 12599.1 35346.6 L 10219.8 34816 Q 10027.3 36736.8 9558.3 38540 Q 9089.3 40342.5 8456.5 41683 L 8628 41797.8 Q 9527.5 40980.2 10233.8 39905 Q 10588.7 42256.3 11352.4 44177.1 Q 10742.7 45310.4 9811 46311.4 Q 8879.3 47313.1 7581.5 48134.2 L 7682.3 48291.7 Q 9074.6 47742.2 10131.6 47017.7 Q 11188.6 46293.2 11968.4 45410.5 Q 12940 47141.6 14578 48291.7 Q 14879 47152.1 16083 46915.5 L 16125.7 46772 Q 14122.3 45836.8 12828.7 44320.6 Q 13637.9 43069.7 14097.1 41616.5 Q 14557 40164 14764.2 38557.5 L 15695.9 38557.5 Z M 28010.3 37597.1 L 27064.6 38543.5 L 23738.2 38543.5 Q 23806.1 37473.9 23819.4 36354.6 Q 23827.1 35917.1 23839 35475.4 Q 24344.4 35414.5 24354.9 35074.3 L 21974.9 34858.7 Q 21974.9 35180 21975.6 35497.1 Q 21991 37073.5 21932.2 38543.5 L 17530.6 38543.5 L 17660.1 38944.6 L 21917.5 38944.6 Q 21826.5 41032.7 21199.3 42898.2 Q 20857 43874 20277.4 44788.2 Q 19196.6 46536.8 16914.6 48062.8 L 17058.1 48263 Q 19792.3 47083.5 21209.1 45555.4 Q 22429.9 44248.5 22978.7 42728.8 Q 23609.4 40952.9 23724.2 38944.6 L 27207.4 38944.6 Q 27115.7 41893 26898 43763.4 Q 26679.6 45633.8 26275.7 46012.5 Q 26086 46230.9 25702.4 46213.4 Q 25374.8 46210.6 24648.2 46163.7 Q 24604.1 46160.9 24559.3 46158.1 Q 23822.2 46110.5 23150.9 46055.2 L 23136.2 46242.1 Q 23759.2 46352 24247.1 46531.9 Q 24735.7 46712.5 24971.6 46930.2 Q 25394.4 47331.3 25344 48162.9 Q 26160.9 48164.3 26698.5 47983.7 Q 27236.1 47802.4 27623.2 47417.4 Q 28247.6 46815.4 28544.4 44772.1 Q 28841.2 42729.5 28928 39245.6 Q 29422.9 39174.2 29573.4 38973.3 L 28010.3 37597.1 Z M 41730.3 40536.4 L 38819.7 40536.4 L 38819.7 36694.1 L 43206.6 36694.1 Q 43518.8 36697.6 43593.7 36464.5 Q 43137.3 36071.8 42615.1 35665.8 Q 42431.7 35522.3 42272.8 35399.8 Q 41817.1 35051.9 41787.7 35030.9 L 40783.9 36278.3 L 32339.8 36278.3 L 32454.6 36694.1 L 37042.4 36694.1 L 37042.4 40536.4 L 31178.5 40536.4 L 31308 40951.5 L 37042.4 40951.5 L 37042.4 45997.8 Q 37063.4 46306.5 36698 46313.5 Q 36453 46310.7 35870.6 46277.8 Q 35365.2 46249.1 34915.8 46220.4 Q 34397.8 46186.8 34361.4 46184.7 L 34361.4 46370.9 Q 35036.2 46478 35393.2 46630.6 Q 35750.9 46783.2 35952.5 46987.6 Q 36343.1 47399.2 36368.3 48263 Q 37790.7 48147.5 38295.4 47652.6 Q 38401.8 47556.7 38482.3 47448.2 Q 38855.4 46890.3 38819.7 46069.9 L 38819.7 40951.5 L 44195.7 40951.5 Q 44532.4 40955.7 44611.5 40722.6 Q 44137.6 40320.8 43606.3 39907.8 Q 43417.3 39760.1 43254.2 39634.8 Q 42792.2 39281.3 42762.1 39260.3 L 41730.3 40536.4 Z M 45686.7 35948.6 Q 45855.4 36609.4 45948.5 37401.8 Q 46041.6 38194.2 45973.7 38930.6 Q 46435.7 39418.5 46844.5 39167.2 Q 47114.7 39003.4 47224.6 38600.9 Q 47333.8 38197.7 47173.5 37643.3 Q 46955.1 36821.5 45872.9 35905.2 L 45686.7 35948.6 Z M 53184.4 44621.6 L 53184.4 43302.8 L 56367.3 43302.8 L 56367.3 44621.6 L 53184.4 44621.6 Z M 56367.3 41611.6 L 56367.3 42887 L 53184.4 42887 L 53184.4 41611.6 L 56367.3 41611.6 Z M 56223.8 41209.8 L 53256.5 41209.8 L 51693.4 40564.4 L 51693.4 48263 L 51923 48263 Q 52415.8 48246.9 52790.3 48071.2 Q 53164.8 47896.2 53184.4 47761.1 L 53184.4 45023.4 L 56367.3 45023.4 L 56367.3 46327.5 Q 56381.3 46585.8 56095 46585.8 Q 55868.2 46583 55423 46558.5 Q 55269.7 46550.1 55126.9 46541.7 Q 54711.8 46517.2 54675.4 46514.4 L 54675.4 46714.6 Q 55119.9 46781.8 55360 46909.9 Q 55600.1 47038.7 55721.9 47202.5 Q 55958.5 47549.7 55980.2 48263 Q 57201.7 48159.4 57583.2 47743.6 Q 57618.9 47707.9 57650.4 47670.8 Q 57980.1 47229.1 57944.4 46485.7 L 57944.4 41883.9 Q 58399.4 41772.6 58531.7 41596.9 L 56954.6 40392.9 L 56223.8 41209.8 Z M 56940.6 39661.4 L 55449.6 39661.4 L 55449.6 38371.3 L 58245.4 38371.3 Q 58556.9 38374.8 58632.5 38141.7 Q 58256.6 37813.4 57837.3 37471.1 Q 57768.7 37415.1 57705.7 37364 Q 57313.7 37045.5 57284.3 37023.8 L 56553.5 37984.2 L 55449.6 37984.2 L 55449.6 36866.3 L 58445.6 36866.3 Q 58757.8 36869.8 58832.7 36636.7 Q 58444.9 36273.4 58014.4 35897.5 Q 57929.7 35823.3 57852.7 35756.1 Q 57456.5 35412.4 57427.8 35389.3 L 56639.6 36450.5 L 55449.6 36450.5 L 55449.6 35504.1 Q 55724.7 35460 55843.7 35357.1 Q 55962.7 35254.2 55980.2 35103 L 53872.5 34916.1 L 53872.5 36450.5 L 51693.4 36450.5 L 51708.1 36407.1 L 49887.4 35762.4 Q 49755.1 36666.1 49587.8 37588 Q 49421.2 38510.6 49256.7 39188.2 L 49471.6 39289 Q 49936.4 38752.1 50364.1 38070.3 Q 50791.1 37388.5 51148.8 36679.4 Q 51256.6 36679.4 51321 36679.4 L 51378.4 36866.3 L 53872.5 36866.3 L 53872.5 37984.2 L 51335 37984.2 L 51449.8 38371.3 L 53872.5 38371.3 L 53872.5 39661.4 L 50905.2 39661.4 L 50919.2 39704.8 Q 50607.7 39437.4 50381.6 39245.6 Q 50156.2 39053.8 50145 39045.4 L 49370.8 40077.2 L 49127.2 40077.2 L 49127.2 35432.7 Q 49400.9 35399.1 49507.3 35298.3 Q 49613.7 35197.5 49629.1 35045.6 L 47536.1 34830 L 47536.1 40077.2 L 45485.8 40077.2 L 45600.6 40479 L 47249.1 40479 Q 46969.8 41910.5 46475.6 43321 Q 45980.7 44730.8 45270.9 45840.3 L 45428.4 45997.8 Q 46654.8 44959 47536.1 43618.5 L 47536.1 48291.7 L 47851.8 48291.7 Q 48335.5 48277 48720.5 48114.6 Q 49105.5 47951.5 49127.2 47818.5 L 49127.2 41554.2 Q 49371.5 42055.4 49559.1 42621.7 Q 49746.7 43188 49786.6 43733.3 Q 50311.6 44170.1 50729.5 43938.4 Q 51052.9 43762.7 51129.2 43333.6 Q 51205.5 42904.5 50875.8 42369 Q 50469.1 41683.7 49127.2 41095 L 49127.2 40479 L 51120.1 40479 Q 51431.6 40482.5 51507.2 40249.4 L 51306.3 40063.2 L 58746.6 40063.2 Q 59062.3 40066.7 59119.7 39833.6 Q 58726.3 39467.5 58291.6 39104.9 Q 58216.7 39041.9 58147.4 38984.5 Q 57744.2 38651.3 57714.8 38629.6 L 56940.6 39661.4 Z M 67864.8 34816 Q 68163.7 35292 68355.5 35932.5 Q 68547.3 36572.3 68524.2 37210 Q 69094 37711.9 69599.4 37536.2 Q 70079.6 37369.6 70224.5 36858.6 Q 70369.4 36347.6 69907.4 35760.3 Q 69426.5 35143.6 67979.6 34744.6 L 67864.8 34816 Z M 60166.2 35518.8 Q 60632.4 36049.4 61010.4 36760.6 Q 61387.7 37471.1 61499.7 38185.1 Q 62123.4 38614.9 62581.2 38358.7 Q 63013.1 38117.9 63051.6 37555.8 Q 63089.4 36993.7 62495.8 36398.7 Q 61873.5 35769.4 60281 35432.7 L 60166.2 35518.8 Z M 64079.9 36507.9 Q 62995.6 39072 62409.7 40453.8 Q 61891.7 41676 61634.1 42275.9 Q 61375.8 42875.8 61260.3 43125.7 Q 61132.2 43402.9 61026.5 43603.8 Q 60906.8 43820.1 60827.7 43867.7 Q 60747.9 43914.6 60596 43904.8 L 59936.6 43904.8 L 59936.6 44177.1 Q 60384.6 44205.8 60682.1 44406.7 Q 60932 44597.1 60974 45408.4 Q 61016.7 46219.7 60825.6 47302.6 Q 60920.1 47695.3 61146.2 47859.8 Q 61372.3 48024.3 61628.5 48019.4 Q 62182.9 48010.3 62508.4 47689.7 Q 62833.9 47369.1 62861.2 46844.1 Q 62872.4 46317.7 62767.4 45946 Q 62662.4 45575 62529.4 45280.3 Q 62327.1 44868.7 62287.9 44421.4 Q 62290.7 44126 62352.3 43750.8 Q 62413.9 43375.6 62502.8 42973.1 Q 62608.5 42537 62899 41479.3 Q 63063.5 40878.7 63258.8 40181.5 Q 63454.8 39483.6 63657.1 38770.3 Q 64012.7 37518 64294.8 36550.6 L 64079.9 36507.9 Z M 66330.4 44048.3 L 68251.9 44048.3 L 68251.9 46714.6 L 66330.4 46714.6 L 66330.4 44048.3 Z M 68251.9 38185.1 L 68251.9 40693.9 L 66330.4 40693.9 L 66330.4 38185.1 L 68251.9 38185.1 Z M 68251.9 43647.2 L 66330.4 43647.2 L 66330.4 41109.7 L 68251.9 41109.7 L 68251.9 43647.2 Z M 70975.6 46714.6 L 69843 46714.6 L 69843 44048.3 L 72538 44048.3 Q 72850.2 44051.8 72925.1 43818.7 Q 72535.9 43443.5 72094.9 43048 Q 71987.1 42950.7 71889.8 42863.9 Q 71490.8 42509 71462.8 42485.9 L 70631.2 43647.2 L 69843 43647.2 L 69843 41109.7 L 72538 41109.7 Q 72850.2 41113.2 72925.1 40880.1 Q 72535.9 40504.9 72094.9 40109.4 Q 71987.1 40012.1 71889.8 39925.3 Q 71490.8 39570.4 71462.8 39546.6 L 70631.2 40693.9 L 69843 40693.9 L 69843 38185.1 L 72867.7 38185.1 Q 73179.9 38188.6 73254.8 37955.5 Q 72840.4 37567 72370 37170.1 Q 72242.6 37061.6 72129.2 36966.4 Q 71707.1 36615.7 71677.7 36594 L 70818.1 37769.3 L 66531.3 37769.3 L 66517.3 37769.3 Q 67036.7 36697.6 67362.9 35776.4 Q 67626.1 35763.1 67740.9 35679.8 Q 67856.4 35596.5 67893.5 35475.4 L 65584.9 34830 Q 65362.3 36171.2 64865.3 37829.5 Q 64647.6 38544.9 64380.9 39261.7 Q 63772.6 40920.7 62933.3 42271 L 63076.1 42385.1 Q 63993.8 41618.6 64739.3 40636.5 L 64739.3 48291.7 L 65026.3 48291.7 Q 65643.7 48272.8 65984.6 48098.5 Q 66325.5 47923.5 66330.4 47818.5 L 66330.4 47116.4 L 73082.6 47116.4 Q 73405.3 47119.9 73469.7 46886.8 Q 73061.6 46503.9 72587 46101.4 Q 72442.8 45978.2 72315.4 45871.1 Q 71893.3 45518.3 71864.6 45496.6 L 70975.6 46714.6 Z M 78960.5 38614.9 Q 79258 38618.4 79318.9 38386 Q 79035.4 38015.7 78674.9 37604.8 Q 78591.6 37508.9 78515.3 37422.8 Q 78183.5 37049.7 78157.6 37023.8 L 77455.5 38213.8 L 77369.4 38213.8 L 77369.4 35404 Q 77881.8 35328.4 77900 35016.9 L 75835.7 34802 L 75835.7 38213.8 L 74186.5 38213.8 L 74301.3 38614.9 L 75835.7 38614.9 L 75835.7 41410.7 Q 75217.6 41573.8 74736.7 41693.5 Q 74256.5 41813.9 73971.6 41869.2 L 74573.6 43804.7 Q 74845.9 43689.9 74946.7 43403.6 Q 75412.2 43123.6 75835.7 42844.3 L 75835.7 46298.8 Q 75853.2 46550.1 75548.7 46543.1 Q 75360.4 46539.6 74929.9 46510.9 Q 74766.8 46499.7 74614.2 46489.2 Q 74208.9 46459.8 74172.5 46457 L 74172.5 46657.2 Q 74596 46732.8 74834 46861.6 Q 75071.3 46991.1 75204.3 47173.8 Q 75440.9 47539.2 75462.6 48291.7 Q 76664.5 48167.1 77032 47715.6 Q 77045.3 47700.9 77057.9 47685.5 Q 77405.8 47222.1 77369.4 46399.6 L 77369.4 41826.5 Q 78271.7 41216.1 78874.4 40770.2 Q 78918.5 40738.7 78960.5 40707.9 L 78917.8 40564.4 Q 78428.5 40701.6 77938.5 40845.1 Q 77649.4 40929.1 77369.4 41008.9 L 77369.4 38614.9 L 78960.5 38614.9 Z M 85354.3 39718.8 L 85354.3 41611.6 L 83763.2 41611.6 L 83763.2 39718.8 L 85354.3 39718.8 Z M 83763.2 43890.8 L 83763.2 41998 L 85354.3 41998 L 85354.3 43890.8 L 83763.2 43890.8 Z M 80609 43890.8 L 80609 41998 L 82186.1 41998 L 82186.1 43890.8 L 80609 43890.8 Z M 82186.1 39718.8 L 82186.1 41611.6 L 80609 41611.6 L 80609 39718.8 L 82186.1 39718.8 Z M 87361.2 37912.8 Q 87680.4 37916.3 87763 37683.2 Q 87532 37475.3 87268.1 37256.9 Q 87004.9 37037.8 86773.9 36851.6 Q 87079.8 36522.6 86889.4 36037.5 Q 86766.9 35755.4 86399.4 35529.3 Q 85805.8 35135.9 84379.9 35203.1 L 84279.1 35317.9 Q 84703.3 35619.6 85142.9 36066.9 Q 85583.2 36514.2 85856.2 36966.4 L 85440.4 37497 L 83763.2 37497 L 83763.2 35418 Q 84143.3 35346.6 84135.6 35103 L 82186.1 34916.1 L 82186.1 37497 L 78831.7 37497 L 78946.5 37912.8 L 82186.1 37912.8 L 82186.1 39303 L 80695.1 39303 L 79046.6 38629.6 L 79046.6 48249 L 79276.2 48249 Q 79811 48231.5 80200.9 48039 Q 80590.8 47847.2 80609 47689.7 L 80609 44306.6 L 82186.1 44306.6 L 82186.1 48119.5 L 82515.8 48119.5 Q 82942.1 48099.9 83338.3 47899.7 Q 83735.2 47698.8 83763.2 47560.9 L 83763.2 44306.6 L 85354.3 44306.6 L 85354.3 46227.4 Q 85372.5 46467.5 85110.7 46471 Q 84913.3 46468.2 84545.1 46445.1 Q 84501 46442.3 84459 46439.5 Q 84100.6 46417.1 84064.2 46413.6 L 84064.2 46614.5 Q 84413.5 46690.1 84603.9 46818.9 Q 84794.3 46947.7 84895.8 47130.4 Q 85075 47507 85082 48291.7 Q 86260.1 48188.1 86616.4 47742.9 Q 86638.1 47718.4 86657.7 47693.2 Q 86982.5 47229.1 86946.1 46413.6 L 86946.1 40019.8 Q 87429.8 39905 87590.8 39704.8 L 85956.3 38428.7 L 85196.8 39303 L 83763.2 39303 L 83763.2 37912.8 L 87361.2 37912.8 Z M 91992.4 41797.8 Q 92855.5 41234.3 93475 40793.3 Q 93717.2 40623.2 93927.2 40479 L 93884.5 40320.8 Q 92927.6 40626 91992.4 40908.8 L 91992.4 38614.9 L 93683.6 38614.9 Q 93999.3 38618.4 94056.7 38386 Q 93723.5 38006.6 93337.8 37619.5 Q 93272 37553 93211.1 37491.4 Q 92850.6 37133.7 92823.3 37109.9 L 92121.2 38199.1 L 91992.4 38199.1 L 91992.4 35432.7 Q 92504.8 35360.6 92522.3 35030.9 L 90400.6 34830 L 90400.6 38199.1 L 88522.5 38199.1 L 88623.3 38614.9 L 90400.6 38614.9 L 90400.6 41367.3 Q 89718.8 41551.4 89194.5 41686.5 Q 88670.9 41821.6 88365 41897.9 L 88981.7 43790 Q 89254 43686.4 89354.1 43388.9 Q 89692.9 43204.1 90004.4 43017.2 Q 90206.7 42897.5 90400.6 42786.9 L 90400.6 46055.2 Q 90432.8 46295.3 90099.6 46298.8 Q 89892.4 46296.7 89424.1 46269.4 Q 89199.4 46256.1 88992.2 46243.5 Q 88558.9 46215.5 88522.5 46213.4 L 88522.5 46442.3 Q 88988.7 46527 89250.5 46664.9 Q 89511.6 46802.8 89655.1 47015.6 Q 89920.4 47399.2 89970.8 48234.3 Q 91218.9 48109.7 91614.4 47639.3 Q 91655 47595.2 91689.3 47549 Q 92028.1 47046.4 91992.4 46213.4 L 91992.4 41797.8 Z M 95820 36393.1 L 99203.1 36393.1 L 99203.1 39690.1 L 95820 39690.1 L 95820 36393.1 Z M 98357.5 43174 L 101138.6 43174 Q 101461.3 43177.5 101525.7 42944.4 Q 101120.4 42565.7 100652.8 42176.5 Q 100525.4 42070.1 100412.7 41977 Q 99992 41632.6 99962.6 41611.6 L 99103 42758.2 L 98357.5 42758.2 L 98357.5 40091.9 L 99203.1 40091.9 L 99203.1 40808.7 L 99504.1 40808.7 Q 100134.1 40792.6 100489.7 40658.2 Q 100845.3 40523.8 100851.6 40464.3 L 100851.6 36493.2 Q 101303.1 36428.8 101410.9 36235.6 L 99933.9 35103 L 99160.4 35977.3 L 95991.5 35977.3 L 94256.9 35317.9 L 94256.9 40980.2 L 94529.2 40980.2 Q 95146.6 40965.5 95481.2 40826.2 Q 95815.8 40687.6 95820 40607.8 L 95820 40091.9 L 96737 40091.9 L 96737 45811.6 Q 95776.6 45360.1 95203.3 44263.2 Q 95522.5 43277.6 95647.8 42271 Q 96146.2 42242.3 96192.4 41912.6 L 94042 41596.9 Q 94049 43100.5 93682.2 44701.4 Q 93603.1 45026.2 93502.3 45346.1 Q 93033.3 46918.3 91949 48119.5 L 92077.8 48263 Q 93220.2 47577.7 93938.4 46661.4 Q 94655.9 45744.4 95045.8 44693.7 Q 95600.2 46543.1 96709 47255.7 Q 96769.2 47296.3 96831.5 47334.1 Q 97973.2 47997 99805.1 47962 L 101353.5 47962 Q 101352.8 47390.8 101529.2 46979.9 Q 101705.6 46569.7 102070.3 46471 L 102070.3 46298.8 Q 101595.7 46309.3 100948.2 46311.4 Q 100301.4 46314.2 99891.2 46313.5 Q 99049.1 46310 98357.5 46242.1 L 98357.5 43174 Z M 107990.9 35045.6 Q 107990.2 35240.2 107990.2 35434.8 Q 108021.7 37464.8 107837.6 39473.8 Q 107706 40761.1 107339.9 42016.2 Q 106973.1 43271.3 106258.4 44476.7 Q 105165.7 46358.3 102873.2 48062.8 L 103030.7 48263 Q 105735.5 46941.4 107148.1 45306.9 Q 108495.6 43752.9 109043 42026 Q 109614.9 40210.9 109711.5 38328.6 Q 109906.1 41279.1 110713.9 43534.5 Q 110989.7 44274.4 111362.8 44934.5 Q 112466.7 46949.1 114757.8 48191.6 Q 115047.6 46772 116348.9 46514.4 L 116377.6 46342.2 Q 113596.5 45313.9 112167.8 43555.5 Q 111281.6 42477.5 110773.4 41095 Q 109963.5 38837.5 109826.3 35676.3 Q 110101.4 35642.7 110220.4 35539.8 Q 110339.4 35436.9 110356.2 35274.5 L 107990.9 35045.6 Z M 118757.6 38271.2 Q 119036.9 37436.1 119230.8 36536.6 Q 119445.7 36511.4 119574.5 36421.8 L 119574.5 38271.2 L 118757.6 38271.2 Z M 129294 36694.1 L 128405.7 37625.8 L 124578.1 37625.8 Q 125040.1 36773.2 125395 35747.7 Q 125878.7 35744.2 125954.3 35461.4 L 123789.2 34816 Q 123516.9 36582.8 122900.2 38113 Q 122559.3 37741.3 122266 37441 Q 121973.4 37141.4 121954.5 37123.9 L 121223 38271.2 L 121151.6 38271.2 L 121151.6 35432.7 Q 121435.1 35388.6 121543.6 35285.7 Q 121652.8 35182.8 121667.5 35030.9 L 119574.5 34816 L 119574.5 36149.5 L 117782.5 35819.8 Q 117759.4 37174.3 117596.3 38518.3 Q 117433.2 39862.3 117151.8 40937.5 L 117366.7 41037.6 Q 118130.4 40066.7 118614.1 38687 L 119574.5 38687 L 119574.5 41998 Q 118772.3 42203.8 118147.9 42349.4 Q 117523.5 42495.7 117151.8 42572 L 117868.6 44464.1 Q 118122.7 44367.5 118227 44077 Q 118383.1 43992.3 118536.4 43909 Q 119084.5 43615 119574.5 43331.5 L 119574.5 48263 L 119890.2 48263 Q 120364.1 48247.6 120746.3 48087.3 Q 121129.2 47927 121151.6 47804.5 L 121151.6 42413.8 Q 122294.7 41725.7 123029.7 41253.2 L 122986.3 41081 Q 122985.6 41081 122984.2 41081.7 Q 122057.4 41342.8 121151.6 41582.9 L 121151.6 38687 L 122656.6 38687 Q 122158.9 39811.9 121552.7 40636.5 L 121710.9 40765.3 Q 123258.6 39779.7 124333.8 38041.6 L 124793 38041.6 Q 124474.5 39734.2 123669.5 41378.5 Q 122864.5 43022.8 121653.5 44306.6 L 121782.3 44464.1 Q 123485.4 43304.9 124636.9 41639.6 Q 125788.4 39975 126341.4 38041.6 L 126713.8 38041.6 Q 126426.1 40633 125318 43020 Q 124209.9 45407 122126 47202.5 L 122240.8 47346 Q 124901.5 45837.5 126351.9 43554.8 Q 126484.9 43350.4 126609.5 43141.8 Q 127965.4 40804.5 128434.4 38041.6 L 128563.2 38041.6 Q 128437.2 41495.4 128165.6 43570.2 Q 127894 45644.3 127445.3 46055.2 Q 127311.6 46172.1 127181.4 46221.8 Q 127051.2 46271.5 126842.6 46270.8 Q 126559.1 46268 126008.2 46228.8 Q 125457.3 46189.6 124905.7 46144.8 Q 124788.1 46135.7 124678.2 46127.3 L 124678.2 46327.5 Q 125210.2 46436.7 125613.4 46601.9 Q 126016.6 46767.1 126226.6 46972.9 Q 126573.8 47334.8 126556.3 48148.2 Q 127269.6 48151 127789 47965.5 Q 128308.4 47780 128720.7 47374 Q 129367.5 46741.2 129702.8 44543.2 Q 130038.1 42345.2 130169 38313.9 Q 130659.7 38220.8 130828.4 38041.6 L 129294 36694.1 Z M 133666.9 45740.2 L 133666.9 41970 L 135846 41970 L 135846 45740.2 L 133666.9 45740.2 Z M 135846 37998.9 L 135846 41554.2 L 133666.9 41554.2 L 133666.9 37998.9 L 135846 37998.9 Z M 136462 36722.8 L 135702.5 37583.1 L 134455.1 37583.1 Q 134808.6 37149.8 135183.1 36658.4 Q 135557.6 36166.3 135846 35776.4 Q 136344.4 35787.6 136434 35432.7 L 134111.4 34873.4 Q 134054.7 35495.7 133971.4 36233.5 Q 133888.1 36971.3 133810.4 37583.1 L 133724.3 37583.1 L 132118.5 36909 L 132118.5 47747.1 L 132376.8 47747.1 Q 132908.8 47730.3 133279.8 47544.8 Q 133650.8 47358.6 133666.9 47202.5 L 133666.9 46141.3 L 135846 46141.3 L 135846 47273.9 L 136089.6 47273.9 Q 136538.3 47255 136960.4 47080.7 Q 137382.5 46905.7 137423.1 46800.7 L 137423.1 38256.5 Q 137863.4 38159.9 138025.1 37955.5 L 136462 36722.8 Z M 143487.2 36608 L 142583.5 37539.7 L 140304.3 37539.7 Q 140748.8 36726.3 141107.2 35805.1 Q 141590.9 35801.6 141666.5 35518.8 L 139401.3 34858.7 Q 139109.4 36535.9 138589.3 38129.1 Q 138069.2 39723 137465.8 40851.4 L 137652 40966.2 Q 139035.9 39794.4 140074.7 37955.5 L 142741.7 37955.5 Q 142677.3 41632.6 142515.6 43720.7 Q 142354.6 45808.8 141967.5 46184.7 Q 141788.3 46374.4 141436.9 46370.9 Q 141128.9 46368.1 140530.4 46327.5 Q 139931.9 46287.6 139386.6 46242.1 L 139372.6 46442.3 Q 139904.6 46541 140298.7 46704.1 Q 140693.5 46867.2 140892.3 47073 Q 141232.5 47424.4 141207.3 48249 Q 141910.8 48251.8 142415.5 48066.3 Q 142919.5 47880.8 143300.3 47474.8 Q 143836.5 46921.1 144066.8 45015 Q 144104.6 44710.5 144137.5 44366.8 Q 144332.8 42211.5 144390.2 38227.8 Q 144866.9 38156.4 145020.9 37955.5 L 143487.2 36608 Z M 138569.7 40550.4 Q 139015.6 41158 139367 41948.3 Q 139719.1 42738.6 139788.4 43517.7 Q 140400.2 43984.6 140872 43740.3 Q 141313.7 43513.5 141376 42931.8 Q 141438.3 42350.8 140874.1 41681.6 Q 140277 40967.6 138684.5 40464.3 L 138569.7 40550.4 Z M 153722.6 39475.2 Q 155077.8 38934.8 156344.8 38143.8 Q 157611.1 37352.8 158654.8 36349.7 Q 158895.6 36394.5 159021.6 36365.8 Q 159147.6 36337.8 159228.1 36220.9 L 157249.2 35002.2 Q 156507.2 36288.1 155595.8 37375.2 Q 154683.7 38461.6 153608.5 39274.3 L 153722.6 39475.2 Z M 153164 43489 Q 154748.8 42943 156146 42082.7 Q 157542.5 41221.7 158697.5 40019.8 Q 158949.5 40073 159077.6 40034.5 Q 159205.7 39996 159285.5 39876.3 L 157221.2 38687 Q 155583.2 41632.6 153063.2 43288.8 L 153164 43489 Z M 149178.2 40550.4 L 149178.2 40493 L 149178.2 36521.9 L 150712.6 36521.9 L 150712.6 40550.4 L 149178.2 40550.4 Z M 154325.3 40966.2 Q 154618.6 40969.7 154697.7 40736.6 Q 154319.7 40345.3 153878.7 39941.4 Q 153764.6 39835.7 153662.4 39742.6 Q 153264.1 39383.5 153235.4 39360.4 L 152403.8 40550.4 L 152346.4 40550.4 L 152346.4 36521.9 L 153980.9 36521.9 Q 154303.6 36525.4 154368 36292.3 Q 153953.6 35922.7 153483.2 35536.3 Q 153355.8 35431.3 153242.4 35338.2 Q 152820.3 34995.9 152790.9 34973.5 L 151930.6 36120.8 L 146110.8 36120.8 L 146224.9 36521.9 L 147558.4 36521.9 L 147558.4 40507.7 L 147558.4 40550.4 L 145809.1 40550.4 L 145923.9 40966.2 L 147558.4 40966.2 Q 147579.4 42820.5 147257.4 44639.1 Q 147239.9 44727.3 147221 44815.5 Q 146871.7 46627.1 145780.4 48176.9 L 145923.9 48291.7 Q 147553.5 47160.5 148249.3 45715.7 Q 148670.7 44872.2 148872.3 43980.4 Q 149192.9 42454.4 149178.2 40966.2 L 150712.6 40966.2 L 150712.6 48119.5 L 150998.9 48119.5 Q 151637.3 48100.6 151984.5 47928.4 Q 152332.4 47755.5 152346.4 47661 L 152346.4 40966.2 L 154325.3 40966.2 Z M 157378.7 42371.1 Q 156479.2 44367.5 155235.3 45740.2 Q 153991.4 47112.9 152361.1 48034.1 L 152447.2 48234.3 Q 154474.4 47614.8 156088.6 46508.8 Q 157702.1 45402.8 158955.8 43632.5 Q 159439.5 43700.4 159557.8 43446.3 L 157378.7 42371.1 Z M 166983.4 43403.6 L 160274.6 43403.6 L 160389.4 43818.7 L 169234.6 43818.7 Q 169564.3 43822.9 169635.7 43589.8 Q 169189.1 43197.8 168688.6 42797.4 Q 168536 42674.9 168403 42569.2 Q 167959.2 42220.6 167929.8 42198.9 L 166983.4 43403.6 Z M 170553.4 37554.4 L 164675.5 37554.4 Q 164854.7 36381.9 164947.8 35575.5 Q 165212.4 35580.4 165340.5 35481 Q 165467.9 35380.9 165507.1 35245.8 L 163299.3 34802 Q 163255.2 35492.2 163107.5 36625.5 Q 163001.8 37437.5 162868.1 38286.6 Q 162682.6 39470.3 162496.4 40349.5 L 162496.4 40349.5 Q 162198.9 40521.7 162009.2 40693.9 L 163615 41625.6 L 164231 40866.1 L 170453.3 40866.1 Q 170267.8 43024.9 169947.9 44464.1 Q 169628 45903.3 169205.9 46256.1 Q 169082 46361.8 168947.6 46403.1 Q 168813.2 46444.4 168603.9 46442.3 Q 168291.7 46438.8 167593.8 46388.4 Q 167525.2 46383.5 167455.2 46378.6 Q 166742.6 46325.4 166123.8 46270.8 L 166109.1 46457 Q 166689.4 46566.2 167154.2 46739.8 Q 167618.3 46914.1 167843.7 47130.4 Q 168045.3 47317.3 168125.1 47621.8 Q 168205.6 47926.3 168202.1 48306.4 Q 168957.4 48309.2 169483.8 48155.9 Q 170010.2 48002.6 170409.9 47661 Q 171105.7 47111.5 171540.4 45451.8 Q 171975.8 43791.4 172187.9 41167.1 Q 172660.4 41102 172832.6 40908.8 L 171255.5 39561.3 L 170323.8 40464.3 L 164202.3 40464.3 Q 164288.4 39992.5 164381.5 39430.4 Q 164473.9 38868.3 164569.8 38272.6 Q 164593.6 38121.4 164618.1 37970.2 L 172890 37970.2 Q 173226.7 37973.7 173305.8 37740.6 Q 172841.7 37342.3 172322.3 36945.4 Q 172159.2 36820.1 172017.1 36713 Q 171558.6 36370 171528.5 36349.7 L 170553.4 37554.4 Z M 175958.1 34887.4 Q 176247.9 35305.3 176486.6 35852 Q 176725.3 36398 176789.7 36966.4 Q 177357.4 37392.7 177826.4 37193.2 Q 178245 37017.5 178346.5 36573.7 Q 178448 36130.6 178008.4 35647.6 Q 177525.4 35107.9 176086.9 34816 L 175958.1 34887.4 Z M 184573.7 43216.7 L 184573.7 40822.7 L 185893.2 40822.7 L 185893.2 43216.7 L 184573.7 43216.7 Z M 181677.8 43216.7 L 181677.8 40822.7 L 182997.3 40822.7 L 182997.3 43216.7 L 181677.8 43216.7 Z M 182997.3 38213.8 L 182997.3 40421.6 L 181677.8 40421.6 L 181677.8 38213.8 L 182997.3 38213.8 Z M 185893.2 38213.8 L 185893.2 40421.6 L 184573.7 40421.6 L 184573.7 38213.8 L 185893.2 38213.8 Z M 186495.2 36980.4 L 185749.7 37812 L 184573.7 37812 L 184573.7 35418 Q 184857.2 35373.9 184968.5 35271 Q 185079.1 35168.1 185104.3 35016.9 L 182997.3 34802 L 182997.3 37812 L 181778.6 37812 L 180115.4 37138.6 L 180115.4 38386 L 178753.2 37052.5 L 177850.2 37912.8 L 174553.2 37912.8 L 174682 38328.6 L 177907.6 38328.6 Q 177459.6 39748.9 176557.3 41253.2 Q 176517.4 41319 176476.8 41384.8 Q 175558.4 42884.2 174395.7 44063 L 174538.5 44191.8 Q 175617.2 43542.9 176588.8 42658.1 L 176588.8 48234.3 L 176861.1 48234.3 Q 177460.3 48214 177808.9 48026.4 Q 178158.2 47839.5 178165.9 47732.4 L 178165.9 41596.9 Q 178397.6 41967.2 178583.1 42374.6 Q 178769.3 42782 178839.3 43174 Q 179351.7 43528.9 179729 43290.9 Q 179993.6 43127.8 180045.4 42790.4 Q 180097.2 42453 179817.2 42058.2 Q 179442.7 41501 178165.9 41095 L 178165.9 40951.5 Q 179036.7 39808.4 179584.8 38687 Q 179957.9 38665.3 180115.4 38557.5 L 180115.4 44722.4 L 180359 44722.4 Q 180874.2 44704.9 181266.2 44523.6 Q 181657.5 44341.6 181677.8 44205.8 L 181677.8 43632.5 L 182997.3 43632.5 L 182997.3 48306.4 L 183298.3 48306.4 Q 183763.8 48286.8 184156.5 48083.8 Q 184549.2 47881.5 184573.7 47732.4 L 184573.7 43632.5 L 185893.2 43632.5 L 185893.2 44607.6 L 186150.8 44607.6 Q 186578.5 44588.7 186989.4 44413.7 Q 187401 44239.4 187440.9 44134.4 L 187440.9 38471.4 Q 187892.4 38371.3 188043.6 38185.1 L 186495.2 36980.4 Z M 189391.1 50184.5 Q 190663 49581.1 191214.6 48578.7 Q 191237 48540.9 191258 48503.1 Q 191785.1 47493 191770.4 46499.7 Q 191757.8 45752.8 191391 45347.5 Q 191023.5 44942.2 190451.6 44937.3 Q 189886 44952.7 189562.6 45293.6 Q 189239.2 45634.5 189232.9 46112.6 Q 189267.2 46776.9 189741.1 47108.7 Q 189798.5 47153.5 189859.4 47194.1 Q 190360.6 47493.7 190838.7 47632.3 Q 190777.1 48141.2 190397.7 48714.5 Q 190019 49288.5 189161.5 49754 L 189391.1 50184.5 Z M 203712.4 35188.4 Q 204171.6 35830.3 204607 36654.9 Q 205041.7 37478.8 205232.1 38271.2 Q 205870.5 38689.1 206310.1 38402.1 Q 206704.9 38146.6 206712.6 37570.5 Q 206719.6 36993.7 206128.1 36342.7 Q 205478.5 35618.2 203827.2 35117 L 203712.4 35188.4 Z M 210923.8 39059.4 L 210923.8 40679.2 L 209475.5 40679.2 L 209475.5 39059.4 L 210923.8 39059.4 Z M 213919.8 39059.4 L 213919.8 40679.2 L 212400.1 40679.2 L 212400.1 39059.4 L 213919.8 39059.4 Z M 212400.1 42700.8 L 212400.1 41081 L 213919.8 41081 L 213919.8 42700.8 L 212400.1 42700.8 Z M 209475.5 42700.8 L 209475.5 41081 L 210923.8 41081 L 210923.8 42700.8 L 209475.5 42700.8 Z M 209475.5 43116.6 L 210923.8 43116.6 L 210923.8 45725.5 L 211196.1 45725.5 Q 211758.9 45711.5 212072.5 45587.6 Q 212385.4 45463.7 212400.1 45395.8 L 212400.1 43116.6 L 213919.8 43116.6 L 213919.8 44364 Q 213952 44621.6 213704.9 44621.6 Q 213511 44618.1 213200.9 44592.9 Q 212891.5 44568.4 212858.6 44564.2 L 212858.6 44765.1 Q 213175 44821.1 213335.3 44938.7 Q 213495.6 45057 213575.4 45209.6 Q 213730.1 45496.6 213733.6 46170 Q 214869 46065 215200.8 45655.5 Q 215533.3 45246.7 215496.9 44506.8 L 215496.9 39331.7 Q 215941.4 39220.4 216084.2 39045.4 L 214507.8 37826.7 L 213776.3 38658.3 L 212687.1 38658.3 Q 213011.9 38486.1 213075.6 38173.9 Q 213140 37862.4 212787.2 37539.7 Q 213424.9 37309.4 214054.2 37030.8 Q 214683.5 36752.2 215138.5 36479.2 Q 215370.2 36470.8 215501.8 36435.8 Q 215634.1 36400.8 215725.8 36307 L 214220.8 34887.4 L 213317.8 35747.7 L 207626.1 35747.7 L 207755.6 36163.5 L 213188.3 36163.5 Q 212801.2 36701.1 212285.3 37238.7 Q 211838 37031.5 211074.3 36885.9 Q 210309.9 36740.3 209174.5 36694.1 L 209117.1 36880.3 Q 210028.5 37221.2 210611.6 37645.4 Q 211194.7 38069.6 211482.4 38486.1 Q 211593.7 38593.2 211726 38658.3 L 209547.6 38658.3 L 207898.4 37984.2 L 207898.4 45940.4 Q 207103.2 45625.4 206522.2 45008.7 L 206522.2 40579.1 Q 207106.7 40464.3 207239 40263.4 L 205561.8 38901.9 L 204773.6 39948.4 L 203139.1 39948.4 L 203225.2 40349.5 L 205002.5 40349.5 L 205002.5 45267 Q 204651.1 45494.5 204264.7 45756.3 Q 203631.9 46189.6 203096.4 46514.4 L 204243 48234.3 Q 204436.2 48102 204371.8 47904.6 Q 204576.2 47525.9 204819.8 47115.7 Q 205064.1 46706.2 205295.1 46328.9 Q 205608.7 45818.6 205791.4 45496.6 Q 206020.3 45098.3 206293.3 45496.6 Q 207054.2 46692.2 208097.9 47281.6 Q 208328.2 47409 208583 47511.9 Q 209741.5 47985.1 211698 47976.7 L 215583 47976.7 Q 215647.4 47451 215926.7 47068.1 Q 216206 46685.2 216700.9 46557.1 L 216700.9 46384.9 Q 215515.8 46447.9 214451.8 46467.5 Q 213387.8 46487.1 212213.9 46485.7 Q 210898.6 46499 209916.5 46399.6 Q 208934.4 46300.2 208199.4 46055.2 Q 208702.7 46018.8 209079.3 45845.9 Q 209456.6 45672.3 209475.5 45539.3 L 209475.5 43116.6 Z M 221976.8 38357.3 L 226850.9 38357.3 L 226850.9 43904.8 Q 226872.6 44198.8 226506.5 44191.8 Q 226286.7 44189 225738.6 44158.2 Q 225306 44134.4 224916.8 44110.6 Q 224421.2 44079.8 224384.8 44077 L 224384.8 44277.9 Q 224986.1 44373.8 225313 44506.8 Q 225640.6 44640.5 225833.1 44822.5 Q 226184.5 45187.9 226234.2 45940.4 Q 227582.4 45830.5 228034.6 45402.1 Q 228105.3 45340.5 228162 45271.9 Q 228521.8 44798 228485.4 44005.6 L 228485.4 38357.3 L 230664.5 38357.3 Q 230976 38360.8 231051.6 38127.7 Q 230707.9 37702.8 230292.1 37256.9 Q 230169.6 37125.3 230061.1 37010.5 Q 229687.3 36618.5 229660.7 36594 L 228843.8 37941.5 L 228485.4 37941.5 L 228485.4 35475.4 Q 228979.6 35411 229001.3 35088.3 L 226850.9 34887.4 L 226850.9 37941.5 L 221862 37941.5 L 221976.8 38357.3 Z M 222736.3 39389.1 Q 223278.8 40094.7 223557.4 40943.1 Q 223836 41790.8 223926.3 42442.5 Q 224430.3 42954.2 224891.6 42749.1 Q 225353.6 42543.3 225457.9 41923.8 Q 225458.6 41919.6 225458.6 41915.4 Q 225560.1 41293.8 224986.8 40561.6 Q 224413.5 39829.4 222851.1 39289 L 222736.3 39389.1 Z M 218205.9 35188.4 Q 218698 35828.9 219152.3 36649.3 Q 219606.6 37469.7 219797.7 38271.2 Q 220442.4 38685.6 220886.9 38397.2 Q 221292.9 38135.4 221297.1 37546.7 Q 221302 36958.7 220682.5 36301.4 Q 220013.3 35583.9 218335.4 35103 L 218205.9 35188.4 Z M 221073.1 40521.7 Q 221380.4 40467.1 221554 40385.2 Q 221726.9 40304 221818.6 40206 L 220084 38829.8 L 219267.1 39876.3 L 217503.8 39876.3 L 217589.9 40292.1 L 219496.7 40292.1 L 219496.7 45123.5 Q 219132 45346.8 218723.9 45605.8 Q 217990.3 46075.5 217375 46428.3 L 218521.6 48205.6 Q 218729.5 48069.8 218679.1 47847.2 Q 218935.3 47431.4 219244.7 46972.9 Q 219553.4 46514.4 219836.2 46106.3 Q 220150.5 45652.7 220327.6 45381.8 Q 220455 45184.4 220573.3 45171.8 Q 220692.3 45159.9 220829.5 45381.8 Q 221585.5 46590.7 222599.1 47201.8 Q 222837.1 47341.8 223102.4 47454.5 Q 224234.3 47940.3 226148.1 47933.3 L 229919 47933.3 Q 229972.2 47386.6 230243.1 46992.5 Q 230514 46599.1 231008.2 46471 L 231008.2 46298.8 Q 229874.2 46361.8 228836.1 46381.4 Q 227798.7 46401 226664.7 46399.6 Q 224548.6 46417.1 223273.2 46116.8 Q 223190.6 46097.2 223111.5 46075.5 Q 221875.3 45748.6 221073.1 44879.9 L 221073.1 40521.7 Z M 237087 35819.8 L 236226.7 36722.8 L 232083.4 36722.8 L 232212.2 37123.9 L 236341.5 37123.9 Q 236108.4 38944.6 235552.6 40765.3 Q 234423.5 39597 232886.3 38471.4 L 232714.1 38586.2 Q 233404.3 39359.7 233997.2 40288.6 Q 234590.8 41218.2 235065.4 42184.9 Q 234487.2 43709.5 233669.6 45064.7 Q 232852 46419.9 231768.4 47503.5 L 231939.9 47647 Q 233183.1 46856.7 234128.1 45872.5 Q 235073.1 44889 235767.5 43776 Q 236130.1 44697.2 236298.1 45424.5 Q 236685.2 46325.4 237209.5 46377.9 Q 237484.6 46412.9 237710 46240 Q 237936.1 46067.1 238049.5 45718.5 Q 238279.1 45070.3 237832.5 43990.9 Q 237373.3 43023.5 236656.5 42055.4 Q 237159.1 40933.3 237495.1 39762.2 Q 237831.1 38591.1 238032.7 37424.9 Q 238286.1 37396.2 238418.4 37346.5 Q 238550 37296.1 238620.7 37181.3 L 237087 35819.8 Z M 243237.2 38442.7 L 243237.2 35518.8 Q 243731.4 35436.2 243753.1 35117 L 241559.3 34902.1 L 241559.3 38442.7 L 237889.2 38442.7 L 238004 38844.5 L 241559.3 38844.5 L 241559.3 46083.9 Q 241584.5 46377.9 241200.9 46370.9 Q 240968.5 46368.1 240402.2 46338 Q 239931.1 46313.5 239509 46288.3 Q 239000.8 46258.9 238964.4 46256.1 L 238964.4 46442.3 Q 239577.6 46557.8 239922 46702 Q 240265.7 46846.9 240470.1 47059 Q 240846 47427.9 240899.9 48249 Q 242280.3 48121.6 242753.5 47685.5 Q 242848 47604.3 242920.1 47512.6 Q 243272.9 47019.1 243237.2 46213.4 L 243237.2 38844.5 L 245029.2 38844.5 Q 245351.2 38848 245415.6 38614.9 Q 245081 38227.1 244667.3 37807.1 Q 244547.6 37684.6 244439.8 37577.5 Q 244066.7 37205.8 244039.4 37181.3 L 243237.2 38442.7 Z M 238133.5 40249.4 Q 238685.1 40933.3 238968.6 41770.5 Q 239251.4 42608.4 239351.5 43260.1 Q 239835.9 43757.1 240285.3 43547.1 Q 240733.3 43338.5 240832 42723.9 Q 240930.7 42110 240365.1 41389 Q 239798.8 40665.9 238247.6 40134.6 L 238133.5 40249.4 Z M 247638.1 34887.4 Q 247927.9 35305.3 248166.6 35852 Q 248405.3 36398 248469.7 36966.4 Q 249037.4 37392.7 249506.4 37193.2 Q 249925 37017.5 250026.5 36573.7 Q 250128 36130.6 249688.4 35647.6 Q 249205.4 35107.9 247766.9 34816 L 247638.1 34887.4 Z M 256253.7 43216.7 L 256253.7 40822.7 L 257573.2 40822.7 L 257573.2 43216.7 L 256253.7 43216.7 Z M 253357.8 43216.7 L 253357.8 40822.7 L 254677.3 40822.7 L 254677.3 43216.7 L 253357.8 43216.7 Z M 254677.3 38213.8 L 254677.3 40421.6 L 253357.8 40421.6 L 253357.8 38213.8 L 254677.3 38213.8 Z M 257573.2 38213.8 L 257573.2 40421.6 L 256253.7 40421.6 L 256253.7 38213.8 L 257573.2 38213.8 Z M 258175.2 36980.4 L 257429.7 37812 L 256253.7 37812 L 256253.7 35418 Q 256537.2 35373.9 256648.5 35271 Q 256759.1 35168.1 256784.3 35016.9 L 254677.3 34802 L 254677.3 37812 L 253458.6 37812 L 251795.4 37138.6 L 251795.4 38386 L 250433.2 37052.5 L 249530.2 37912.8 L 246233.2 37912.8 L 246362 38328.6 L 249587.6 38328.6 Q 249139.6 39748.9 248237.3 41253.2 Q 248197.4 41319 248156.8 41384.8 Q 247238.4 42884.2 246075.7 44063 L 246218.5 44191.8 Q 247297.2 43542.9 248268.8 42658.1 L 248268.8 48234.3 L 248541.1 48234.3 Q 249140.3 48214 249488.9 48026.4 Q 249838.2 47839.5 249845.9 47732.4 L 249845.9 41596.9 Q 250077.6 41967.2 250263.1 42374.6 Q 250449.3 42782 250519.3 43174 Q 251031.7 43528.9 251409 43290.9 Q 251673.6 43127.8 251725.4 42790.4 Q 251777.2 42453 251497.2 42058.2 Q 251122.7 41501 249845.9 41095 L 249845.9 40951.5 Q 250716.7 39808.4 251264.8 38687 Q 251637.9 38665.3 251795.4 38557.5 L 251795.4 44722.4 L 252039 44722.4 Q 252554.2 44704.9 252946.2 44523.6 Q 253337.5 44341.6 253357.8 44205.8 L 253357.8 43632.5 L 254677.3 43632.5 L 254677.3 48306.4 L 254978.3 48306.4 Q 255443.8 48286.8 255836.5 48083.8 Q 256229.2 47881.5 256253.7 47732.4 L 256253.7 43632.5 L 257573.2 43632.5 L 257573.2 44607.6 L 257830.8 44607.6 Q 258258.5 44588.7 258669.4 44413.7 Q 259081 44239.4 259120.9 44134.4 L 259120.9 38471.4 Q 259572.4 38371.3 259723.6 38185.1 L 258175.2 36980.4 Z M 262562.1 43260.1 Q 262529.9 44056.7 262130.2 44653.8 Q 261729.8 45251.6 261213.9 45510.6 Q 260891.9 45685.6 260728.8 45971.2 Q 260565 46256.8 260684 46614.5 Q 260844.3 47000.9 261246.8 47069.5 Q 261648.6 47138.8 262045.5 46901.5 Q 262661.5 46559.2 262947.1 45624 Q 262947.1 45623.3 262947.1 45623.3 Q 263232 44687.4 262762.3 43260.1 L 262562.1 43260.1 Z M 270733.2 44578.9 L 270575.7 44578.9 Q 270138.2 45826.3 269872.9 46213.4 Q 269813.4 46318.4 269725.9 46361.8 Q 269639.1 46405.2 269471.8 46413.6 Q 269280 46424.1 268905.5 46426.2 Q 268531 46428.3 268080.9 46428.3 L 266346.3 46428.3 Q 265960.6 46431.1 265846.5 46374.4 Q 265732.4 46317.7 265744.3 46170 L 265744.3 43575.1 Q 266160.1 43503.7 266188.8 43216.7 L 264052.4 43045.2 L 264052.4 46485.7 Q 264025.8 47306.1 264450.7 47600.1 Q 264875.6 47894.1 266074 47875.9 L 267894.7 47875.9 Q 269814.8 47883.6 270582.7 47709.3 Q 270716.4 47678.5 270824.9 47642.1 Q 271443 47428.6 271407.3 46930.2 Q 271416.4 46697.8 271285.5 46546.6 Q 271154.6 46394.7 270776.6 46270.8 L 270733.2 44578.9 Z M 266475.8 42572 Q 266888.8 43082.3 267229.7 43766.9 Q 267570.6 44452.2 267651.1 45123.5 Q 268237 45544.9 268671 45293.6 Q 269054.6 45074.5 269100.8 44568.4 Q 269147 44061.6 268652.1 43502.3 Q 268102.6 42870.9 266604.6 42485.9 L 266475.8 42572 Z M 270733.2 43388.9 Q 271330.3 44009.1 271776.2 44863.8 Q 272222.8 45717.8 272324.3 46585.8 Q 272957.8 47037.3 273416.3 46759.4 Q 273861.5 46490.6 273880.4 45845.9 Q 273898.6 45200.5 273234.3 44489.3 Q 272553.2 43757.8 270876.7 43288.8 L 270733.2 43388.9 Z M 273514.3 37711.9 Q 273844 37715.4 273916.1 37482.3 Q 273487 37100.1 273009.6 36718.6 Q 272891.3 36623.4 272785.6 36538.7 Q 272354.4 36199.2 272324.3 36178.2 L 271464.7 37296.1 L 267679.8 37296.1 Q 267952.1 36432.3 268095.6 35504.1 Q 268565.3 35485.9 268626.2 35145.7 L 266274.9 34787.3 Q 266202.8 36063.4 265873.1 37296.1 L 260841.5 37296.1 L 260956.3 37711.9 L 265744.3 37711.9 Q 265252.9 39240.7 264011.8 40552.5 Q 262770 41863.6 260483.1 42800.9 L 260583.2 42959.1 Q 262520.8 42493.6 263855.7 41786.6 Q 265190.6 41079.6 266031.3 40163.3 Q 266482.1 40570.7 266860.8 41082.4 Q 267239.5 41594.8 267421.5 42098.8 Q 268050.8 42390.7 268426 42072.9 Q 268722.1 41827.2 268715.8 41399.5 Q 268708.8 40972.5 268276.9 40552.5 Q 267744.2 40017 266332.3 39819.6 Q 267098.8 38851.5 267522.3 37711.9 L 267966.8 37711.9 Q 268598.9 39610.3 269792.4 40858.4 Q 270986.6 42106.5 272640 42887 Q 272973.2 41661.3 273973.5 41424.7 L 273987.5 41267.2 Q 272331.3 40884.3 270831.2 40080 Q 270689.1 40001.6 270551.2 39918.3 Q 269088.9 39069.2 268253.1 37711.9 L 273514.3 37711.9 Z M 274905.2 44621.6 Q 275755.7 45323.7 276186.2 45999.9 Q 276616.7 46675.4 276865.9 47254.3 Q 276925.4 47382.4 276983.5 47503.5 Q 277299.2 48169.9 277915.9 48148.2 Q 278340.1 48143.3 278584.4 47890.6 Q 278828 47637.9 278832.9 47202.5 Q 278865.1 46754.5 278531.9 46242.1 Q 278145.5 45634.5 277304.8 45166.9 Q 276463.4 44698.6 275034 44435.4 L 274905.2 44621.6 Z M 295161.8 36995.1 Q 295491.5 36998.6 295563.6 36765.5 Q 295145 36383.3 294676 35996.2 Q 294558.4 35898.9 294453.4 35812.8 Q 294029.9 35468.4 294000.5 35446.7 L 293140.2 36579.3 L 289743.1 36579.3 L 289857.2 36995.1 L 295161.8 36995.1 Z M 293283.7 41984 Q 293481.1 42504.8 293645.6 43104 Q 293810.8 43703.2 293900.4 44320.6 Q 292835.7 44450.8 291900.5 44551.6 Q 290965.3 44652.4 290287.7 44707.7 Q 291081.5 43980.4 291882.3 42992 Q 291907.5 42960.5 291932.7 42929.7 Q 292730 41938.5 293269.7 41052.3 Q 293674.3 41023.6 293756.9 40780 L 291735.3 40134.6 L 295950 40134.6 Q 296262.2 40138.1 296337.1 39905 Q 295917.1 39522.1 295446.7 39139.9 Q 295332.6 39046.1 295230.4 38962.8 Q 294804.1 38621.9 294774.7 38600.9 L 293914.4 39718.8 L 289140.4 39718.8 L 289255.2 40134.6 L 291491.7 40134.6 Q 291332.1 40910.2 290970.9 41902.1 Q 290754.6 42495 290505.4 43043.8 Q 290090.3 43964.3 289699.7 44435.4 Q 289582.1 44513.1 289386.1 44566.3 Q 289190.8 44619.5 289169.1 44621.6 L 290072.8 46772 Q 290298.2 46678.9 290459.9 46413.6 Q 292559.9 45593.2 293971.8 44922.6 Q 293993.5 45309.7 293971.8 45696.8 Q 294540.9 46254.7 295012 46001.3 Q 295413.1 45787.8 295525.8 45183 Q 295638.5 44577.5 295261.9 43776 Q 294832.8 42840.8 293455.9 41926.6 L 293283.7 41984 Z M 301298 37468.3 L 300423 38357.3 L 298817.2 38357.3 Q 298827.7 37645.4 298831.9 36902.7 Q 298836.8 36186.6 298845.9 35446.7 Q 299337.3 35357.1 299376.5 35030.9 L 297154.7 34830 Q 297154.7 35466.3 297157.5 36077.4 Q 297165.9 37263.9 297154.7 38357.3 L 295247.9 38357.3 L 295376.7 38772.4 L 297154.7 38772.4 Q 297146.3 41193 296710.9 43178.2 Q 296511.4 44032.2 296175.4 44814.8 Q 295424.3 46632.7 293628.1 48105.5 L 293771.6 48306.4 Q 296039.6 47150 297114.8 45589 Q 297955.5 44385 298316.7 42938.1 Q 298769.6 41061.4 298803.2 38772.4 L 300581.2 38772.4 Q 300502.8 42273.1 300333.4 44091.7 Q 300164 45909.6 299807 46227.4 Q 299714.6 46322.6 299606.1 46361.8 Q 299497.6 46401 299319.1 46399.6 Q 299072.7 46398.2 298640.1 46372.3 Q 298207.5 46347.1 297842.8 46313.5 L 297828.1 46514.4 Q 298642.2 46697.1 298960.7 47073 Q 299197.3 47395.7 299175.6 48191.6 Q 300315.9 48205.6 301025 47488.8 Q 301487 47064.6 301725.7 45773.8 Q 301842.6 45145.9 301923.1 44249.2 Q 302086.9 42395.6 302157.6 39045.4 Q 302616.8 38962.8 302774.3 38772.4 L 301298 37468.3 Z M 306759.4 39030.7 Q 307687.6 37590.1 308422.6 35848.5 Q 308892.3 35855.5 308995.9 35561.5 L 306716.7 34802 Q 306186.1 36883.8 305344 38806 Q 305263.5 38990.1 305181.6 39171.4 Q 304321.3 41057.9 303391 42371.1 L 303562.5 42499.9 Q 304551.6 41769.1 305411.9 40780 L 305411.9 48277.7 L 305727.6 48277.7 Q 306243.5 48258.8 306652.3 48082.4 Q 307060.4 47905.3 307103.8 47789.8 L 307103.8 39604 Q 307497.9 39514.4 307548.3 39317.7 L 306759.4 39030.7 Z M 316709.2 38285.2 Q 317027.7 38288.7 317110.3 38055.6 Q 316665.8 37674.1 316167.4 37273 Q 316010.6 37147 315873.4 37037.1 Q 315433.1 36687.1 315404.4 36665.4 L 314458 37898.1 L 311088.9 37898.1 Q 311662.9 36966.4 312150.1 35905.2 Q 312637.3 35930.4 312738.1 35632.9 L 310429.5 34816 Q 309938.1 36706 309161.1 38461.6 Q 309125.4 38543.5 309089 38624.7 Q 308304.3 40364.9 307476.2 41582.9 L 307634.4 41697 Q 309443.9 40399.9 310845.3 38285.2 L 311189.7 38285.2 L 311189.7 48263 L 311504.7 48263 Q 312176.7 48244.8 312547.7 48078.9 Q 312918.7 47912.3 312924.3 47818.5 L 312924.3 44464.1 L 316422.2 44464.1 Q 316758.9 44467.6 316838 44234.5 Q 316384.4 43843.2 315882.5 43434.4 Q 315725.7 43305.6 315587.8 43194.3 Q 315146.8 42837.3 315117.4 42815.6 L 314157 44063 L 312924.3 44063 L 312924.3 41353.3 L 316149.9 41353.3 Q 316468.4 41356.8 316551 41123.7 Q 316115.6 40742.2 315636.8 40350.9 Q 315513.6 40250.1 315403.7 40160.5 Q 314974.6 39812.6 314945.2 39790.9 L 314070.9 40937.5 L 312924.3 40937.5 L 312924.3 38285.2 L 316709.2 38285.2 Z M 324679.4 43403.6 L 317970.6 43403.6 L 318085.4 43818.7 L 326930.6 43818.7 Q 327260.3 43822.9 327331.7 43589.8 Q 326885.1 43197.8 326384.6 42797.4 Q 326232 42674.9 326099 42569.2 Q 325655.2 42220.6 325625.8 42198.9 L 324679.4 43403.6 Z M 328249.4 37554.4 L 322371.5 37554.4 Q 322550.7 36381.9 322643.8 35575.5 Q 322908.4 35580.4 323036.5 35481 Q 323163.9 35380.9 323203.1 35245.8 L 320995.3 34802 Q 320951.2 35492.2 320803.5 36625.5 Q 320697.8 37437.5 320564.1 38286.6 Q 320378.6 39470.3 320192.4 40349.5 L 320192.4 40349.5 Q 319894.9 40521.7 319705.2 40693.9 L 321311 41625.6 L 321927 40866.1 L 328149.3 40866.1 Q 327963.8 43024.9 327643.9 44464.1 Q 327324 45903.3 326901.9 46256.1 Q 326778 46361.8 326643.6 46403.1 Q 326509.2 46444.4 326299.9 46442.3 Q 325987.7 46438.8 325289.8 46388.4 Q 325221.2 46383.5 325151.2 46378.6 Q 324438.6 46325.4 323819.8 46270.8 L 323805.1 46457 Q 324385.4 46566.2 324850.2 46739.8 Q 325314.3 46914.1 325539.7 47130.4 Q 325741.3 47317.3 325821.1 47621.8 Q 325901.6 47926.3 325898.1 48306.4 Q 326653.4 48309.2 327179.8 48155.9 Q 327706.2 48002.6 328105.9 47661 Q 328801.7 47111.5 329236.4 45451.8 Q 329671.8 43791.4 329883.9 41167.1 Q 330356.4 41102 330528.6 40908.8 L 328951.5 39561.3 L 328019.8 40464.3 L 321898.3 40464.3 Q 321984.4 39992.5 322077.5 39430.4 Q 322169.9 38868.3 322265.8 38272.6 Q 322289.6 38121.4 322314.1 37970.2 L 330586 37970.2 Q 330922.7 37973.7 331001.8 37740.6 Q 330537.7 37342.3 330018.3 36945.4 Q 329855.2 36820.1 329713.1 36713 Q 329254.6 36370 329224.5 36349.7 L 328249.4 37554.4 Z M 333180.9 47833.2 Q 333431.5 47740.1 333554 47431.4 Q 334947 46612.4 335936.8 45946 Q 336927.3 45279.6 337567.8 44793.8 L 337524.4 44650.3 Q 336044.6 45048.6 334704.1 45366.4 Q 334515.8 45411.2 334335.9 45453.2 Q 333050 45751.4 332392.7 45869 L 333180.9 47833.2 Z M 342126.9 46327.5 L 342126.9 41468.1 L 343503.1 41468.1 L 343503.1 46327.5 L 342126.9 46327.5 Z M 339331.1 41468.1 L 340707.3 41468.1 L 340707.3 46327.5 L 339331.1 46327.5 L 339331.1 41468.1 Z M 340707.3 36665.4 L 340707.3 41052.3 L 339331.1 41052.3 L 339331.1 36665.4 L 340707.3 36665.4 Z M 343503.1 36665.4 L 343503.1 41052.3 L 342126.9 41052.3 L 342126.9 36665.4 L 343503.1 36665.4 Z M 344248.6 35317.9 L 343431 36263.6 L 339517.3 36263.6 L 337797.4 35604.2 L 337797.4 38557.5 L 335990.7 37525.7 Q 335747.1 38185.1 335288.6 39016.7 Q 334209.2 39106.3 333367.1 39130.8 Q 334139.9 38495.2 334901.5 37652.4 Q 335663.1 36810.3 336176.9 36034.7 Q 336600.4 36013 336678.8 35776.4 L 334629.2 35016.9 Q 334458.4 35707.1 334068.5 36623.4 Q 333843.8 37149.1 333584.8 37639.8 Q 333136.1 38497.3 332707.7 38930.6 Q 332597.1 38997.8 332451.5 39048.9 Q 332305.9 39100 332291.9 39102.8 L 332994.7 40866.1 Q 333148.7 40801 333281 40650.5 Q 334083.9 40281.6 334758 39933.7 Q 334266.6 40721.9 333743.7 41394.6 Q 333220.1 42066.6 332751.1 42457.2 Q 332626.5 42544.7 332453.6 42600.7 Q 332280.7 42656 332263.2 42658.1 L 332980 44435.4 Q 333152.2 44374.5 333281 44205.8 Q 334648.1 43668.2 335716.3 43164.9 Q 336785.2 42661.6 337410.3 42328.4 L 337381.6 42156.2 Q 336313.4 42317.9 335299.1 42444.6 Q 334284.8 42571.3 333496.6 42658.1 Q 334520.7 41872.7 335506.3 40872.4 Q 335629.5 40747.8 335749.9 40622.5 Q 336710.3 39618.7 337309.5 38772.4 Q 337660.9 38822.8 337797.4 38658.3 L 337797.4 48220.3 L 338083.7 48220.3 Q 338669.6 48202.8 338997.9 48041.1 Q 339325.5 47878.7 339331.1 47775.8 L 339331.1 46729.3 L 343503.1 46729.3 L 343503.1 48005.4 L 343775.4 48005.4 Q 344376 47986.5 344737.2 47811.5 Q 345099.1 47637.2 345108.2 47532.2 L 345108.2 36837.6 Q 345603.1 36740.3 345753.6 36536.6 L 344248.6 35317.9 Z M 356505.6 39862.3 L 347545.6 39862.3 L 347674.4 40263.4 L 351559.4 40263.4 L 351559.4 48277.7 L 351903.8 48277.7 Q 352608.7 48260.2 352998.6 48099.9 Q 353389.2 47940.3 353394.8 47847.2 L 353394.8 40263.4 L 356649.1 40263.4 Q 356609.9 42109.3 356514.7 43106.1 Q 356418.8 44102.2 356218.6 44291.9 Q 356096.8 44431.9 355802.8 44421.4 Q 355571.8 44420 355095.1 44394.1 Q 354619.1 44368.9 354226.4 44335.3 L 354226.4 44521.5 Q 355086 44693.7 355430.4 45080.8 Q 355702.7 45439.2 355674 46227.4 Q 356282.3 46227.4 356715.6 46098.6 Q 357148.2 45969.1 357466 45711.5 Q 357954.6 45351 358149.2 44182.7 Q 358152.7 44163.1 358155.5 44142.8 Q 358346.6 42958.4 358397.7 40550.4 Q 358835.2 40486 358971.7 40292.1 L 357408.6 39002 L 356505.6 39862.3 Z M 357538.1 36837.6 L 356376.8 36837.6 L 356376.8 35245.8 Q 356640.7 35212.2 356749.2 35111.4 Q 356857.7 35010.6 356864 34858.7 L 354684.9 34672.5 L 354684.9 36837.6 L 351817.7 36837.6 L 351817.7 35245.8 Q 352092.1 35212.2 352204.8 35111.4 Q 352317.5 35010.6 352333.6 34858.7 L 350169.2 34672.5 L 350169.2 36837.6 L 346556.5 36837.6 L 346656.6 37238.7 L 350169.2 37238.7 L 350169.2 39360.4 L 350441.5 39360.4 Q 350960.2 39351.3 351376.7 39215.5 Q 351793.2 39079.7 351817.7 38930.6 L 351817.7 37238.7 L 354684.9 37238.7 L 354684.9 39289 L 354957.2 39289 Q 355525.6 39277.1 355941.4 39130.8 Q 356356.5 38985.2 356376.8 38844.5 L 356376.8 37238.7 L 359688.5 37238.7 Q 360010.5 37242.2 360075.6 37009.1 Q 359694.8 36627.6 359218.1 36216.7 Q 359043.1 36064.8 358889.8 35935.3 Q 358470.5 35583.2 358441.1 35561.5 L 357538.1 36837.6 Z M 363042.9 45740.2 L 363042.9 41970 L 365222 41970 L 365222 45740.2 L 363042.9 45740.2 Z M 365222 37998.9 L 365222 41554.2 L 363042.9 41554.2 L 363042.9 37998.9 L 365222 37998.9 Z M 365838 36722.8 L 365078.5 37583.1 L 363831.1 37583.1 Q 364184.6 37149.8 364559.1 36658.4 Q 364933.6 36166.3 365222 35776.4 Q 365720.4 35787.6 365810 35432.7 L 363487.4 34873.4 Q 363430.7 35495.7 363347.4 36233.5 Q 363264.1 36971.3 363186.4 37583.1 L 363100.3 37583.1 L 361494.5 36909 L 361494.5 47747.1 L 361752.8 47747.1 Q 362284.8 47730.3 362655.8 47544.8 Q 363026.8 47358.6 363042.9 47202.5 L 363042.9 46141.3 L 365222 46141.3 L 365222 47273.9 L 365465.6 47273.9 Q 365914.3 47255 366336.4 47080.7 Q 366758.5 46905.7 366799.1 46800.7 L 366799.1 38256.5 Q 367239.4 38159.9 367401.1 37955.5 L 365838 36722.8 Z M 372863.2 36608 L 371959.5 37539.7 L 369680.3 37539.7 Q 370124.8 36726.3 370483.2 35805.1 Q 370966.9 35801.6 371042.5 35518.8 L 368777.3 34858.7 Q 368485.4 36535.9 367965.3 38129.1 Q 367445.2 39723 366841.8 40851.4 L 367028 40966.2 Q 368411.9 39794.4 369450.7 37955.5 L 372117.7 37955.5 Q 372053.3 41632.6 371891.6 43720.7 Q 371730.6 45808.8 371343.5 46184.7 Q 371164.3 46374.4 370812.9 46370.9 Q 370504.9 46368.1 369906.4 46327.5 Q 369307.9 46287.6 368762.6 46242.1 L 368748.6 46442.3 Q 369280.6 46541 369674.7 46704.1 Q 370069.5 46867.2 370268.3 47073 Q 370608.5 47424.4 370583.3 48249 Q 371286.8 48251.8 371791.5 48066.3 Q 372295.5 47880.8 372676.3 47474.8 Q 373212.5 46921.1 373442.8 45015 Q 373480.6 44710.5 373513.5 44366.8 Q 373708.8 42211.5 373766.2 38227.8 Q 374242.9 38156.4 374396.9 37955.5 L 372863.2 36608 Z M 367945.7 40550.4 Q 368391.6 41158 368743 41948.3 Q 369095.1 42738.6 369164.4 43517.7 Q 369776.2 43984.6 370248 43740.3 Q 370689.7 43513.5 370752 42931.8 Q 370814.3 42350.8 370250.1 41681.6 Q 369653 40967.6 368060.5 40464.3 L 367945.7 40550.4 Z M 2521.2 70893.4 Q 4066.1 70370.5 5394 69621.5 Q 6721.2 68872.5 7868.5 67854 Q 8277.3 68444.1 8630.1 69119.6 Q 8982.9 69795.1 9144.6 70448.9 Q 9779.5 70880.1 10226.8 70604.3 Q 10592.2 70382.4 10644 69877.7 Q 10695.8 69373 10266.7 68771.7 Q 9757.1 68040.2 8284.3 67467.6 Q 9370 66402.9 10305.2 65015.5 Q 10568.4 65049.1 10704.9 65010.6 Q 10842.1 64971.4 10921.9 64844 L 8900.3 63797.5 Q 7735.5 66250.3 6108.7 67910 Q 4481.2 69569.7 2435.1 70678.5 L 2521.2 70893.4 Z M 12527.7 59625.5 Q 12802.8 59581.4 12921.8 59478.5 Q 13040.8 59375.6 13058.3 59224.4 L 11008 59023.5 L 11008 59897.8 Q 10599.9 59517 10149.1 59142.5 Q 10058.1 59066.2 9975.5 58997.6 Q 9561.1 58657.4 9531.7 58636.4 L 8685.4 59769 L 7079.6 59769 Q 7564 59562.5 7645.9 59045.2 Q 7714.5 58588.8 7251.1 58135.9 Q 6736.6 57623.5 5287.6 57432.4 L 5158.8 57517.8 Q 5491.3 57916.1 5743.3 58462.8 Q 5994.6 59008.8 6047.8 59568.1 Q 6227 59700.4 6406.2 59769 L 2506.5 59769 L 2621.3 60170.1 L 5130.1 60170.1 Q 4964.2 60749 4656.9 61459.5 Q 4603.7 61579.9 4548.4 61696.1 Q 4227.1 62385.6 3882.7 62707.6 Q 3729.4 62786 3422.8 62845.5 Q 3115.5 62905 3080.5 62908.5 L 3639.1 64628.4 Q 3879.2 64567.5 4098.3 64313.4 Q 5463.3 63965.5 6549.7 63639.3 Q 4940.4 66130.6 2578.6 67653.8 L 2693.4 67854 Q 4763.3 66991.6 6390.1 65626.6 Q 8016.9 64261.6 9258.7 62291.8 Q 9724.9 62367.4 9846.7 62119.6 L 7882.5 61159.2 Q 7456.2 62105.6 6965.5 62965.9 Q 5456.3 62983.4 4355.9 62979.9 Q 4994.3 62600.5 5641.1 62100 Q 6287.2 61599.5 6764.6 61145.2 Q 7187.4 61162.7 7266.5 60944.3 L 5431.1 60170.1 L 10663.6 60170.1 Q 10900.2 60173.6 11008 60026.6 L 11008 67539 L 11280.3 67539 Q 11744.4 67524.3 12124.5 67372.4 Q 12504.6 67220.5 12527.7 67109.2 L 12527.7 59625.5 Z M 13717.7 57618.6 L 13717.7 68815.1 Q 13742.9 69101.4 13402 69087.4 Q 13189.9 69084.6 12676.1 69055.9 Q 12337.3 69037 12029.3 69018.1 Q 11560.3 68989.4 11523.9 68986.6 L 11523.9 69187.5 Q 12073.4 69282.7 12370.2 69418.5 Q 12666.3 69554.3 12828.7 69746.8 Q 13006.5 69939.3 13084.9 70234 Q 13163.3 70528.7 13201.1 70936.8 Q 14514.3 70808 14949 70374 Q 15020.4 70307.5 15077.1 70234 Q 15416.6 69751.7 15380.2 68943.9 L 15380.2 58234.6 Q 15896.8 58152.7 15896.8 57833.5 L 13717.7 57618.6 Z M 27752.7 69431.1 L 19337.3 69431.1 L 19337.3 61689.8 Q 19839.2 61600.2 19867.9 61274 L 17717.5 61059.1 L 17717.5 69244.9 Q 17391.3 69456.3 17172.2 69689.4 L 18892.8 70592.4 L 19423.4 69846.9 L 27752.7 69846.9 L 27752.7 70879.4 L 28067.7 70879.4 Q 28544.4 70861.9 28946.2 70689 Q 29347.3 70516.1 29372.5 70391.5 L 29372.5 61589.7 Q 29635.7 61546.3 29740 61451.8 Q 29844.3 61357.3 29859.7 61216.6 L 27752.7 61016.4 L 27752.7 69431.1 Z M 24240.1 67209.3 L 24240.1 64141.2 L 25301.3 64141.2 L 25301.3 67209.3 L 24240.1 67209.3 Z M 21774 64141.2 L 22863.9 64141.2 L 22863.9 67209.3 L 21774 67209.3 L 21774 64141.2 Z M 22863.9 60973 L 22863.9 63725.4 L 21774 63725.4 L 21774 60973 L 22863.9 60973 Z M 25301.3 60973 L 25301.3 63725.4 L 24240.1 63725.4 L 24240.1 60973 L 25301.3 60973 Z M 25544.9 68255.8 Q 25938.3 68240.4 26326.1 68090.6 Q 26713.9 67941.5 26763.6 67840 L 26763.6 61187.9 Q 27157.7 61084.3 27293.5 60915.6 L 25859.9 59811.7 L 25157.8 60571.9 L 21846.1 60571.9 L 20326.4 59926.5 L 20326.4 68485.4 L 20556 68485.4 Q 21036.2 68467.9 21396 68295 Q 21755.8 68122.1 21774 67997.5 L 21774 67625.1 L 25301.3 67625.1 L 25301.3 68255.8 L 25544.9 68255.8 Z M 27565.8 58751.2 L 16813.8 58751.2 L 16928.6 59152.3 L 30003.2 59152.3 Q 30322.4 59155.8 30404.3 58922.7 Q 29926.9 58527.9 29396.3 58124 Q 29217.8 57988.2 29063.1 57871.3 Q 28599.7 57524.1 28569.6 57503.8 L 27565.8 58751.2 Z M 31695.1 72814.9 Q 32967 72211.5 33518.6 71209.1 Q 33541 71171.3 33562 71133.5 Q 34089.1 70123.4 34074.4 69130.1 Q 34061.8 68383.2 33695 67977.9 Q 33327.5 67572.6 32755.6 67567.7 Q 32190 67583.1 31866.6 67924 Q 31543.2 68264.9 31536.9 68743 Q 31571.2 69407.3 32045.1 69739.1 Q 32102.5 69783.9 32163.4 69824.5 Q 32664.6 70124.1 33142.7 70262.7 Q 33081.1 70771.6 32701.7 71344.9 Q 32323 71918.9 31465.5 72384.4 L 31695.1 72814.9 Z M 56051.6 69775.5 L 53098.3 69775.5 L 53098.3 65474.7 L 57341.7 65474.7 Q 57653.9 65478.2 57728.8 65245.1 Q 57264.7 64853.1 56735.5 64447.8 Q 56547.2 64302.2 56384.1 64179 Q 55924.2 63832.5 55894.1 63811.5 L 54890.3 65058.9 L 53098.3 65058.9 L 53098.3 61388.8 L 57728.8 61388.8 Q 58083.7 61392.3 58159.3 61159.2 Q 57674.9 60758.8 57147.8 60361.2 Q 56987.5 60239.4 56847.5 60134.4 Q 56382.7 59789.3 56352.6 59769 L 55363.5 60987.7 L 53098.3 60987.7 L 53098.3 58163.2 Q 53381.8 58119.8 53492.4 58014.8 Q 53603.7 57909.1 53628.9 57747.4 L 51248.9 57517.8 L 51248.9 60987.7 L 48941 60987.7 Q 49468.1 60063 49887.4 58966.1 Q 50381.6 58944.4 50446 58665.1 L 48038 57948.3 Q 47645.3 59924.4 46930.6 61720.6 Q 46215.2 63516.1 45371.7 64771.9 L 45529.2 64901.4 Q 47378.6 63607.1 48711.4 61388.8 L 51248.9 61388.8 L 51248.9 65058.9 L 47192.4 65058.9 L 47306.5 65474.7 L 51248.9 65474.7 L 51248.9 69775.5 L 45500.5 69775.5 L 45615.3 70191.3 L 58546.4 70191.3 Q 58883.1 70194.8 58962.2 69961.7 Q 58482.7 69562.7 57947.2 69142 Q 57747 68984.5 57575.5 68850.8 Q 57113.5 68492.4 57084.1 68470.7 L 56051.6 69775.5 Z M 65785.8 59625.5 Q 66115.5 59629 66187.6 59395.9 Q 65769 59013.7 65300 58626.6 Q 65182.4 58529.3 65077.4 58443.2 Q 64653.9 58098.8 64624.5 58077.1 L 63764.2 59209.7 L 60367.1 59209.7 L 60481.2 59625.5 L 65785.8 59625.5 Z M 63907.7 64614.4 Q 64105.1 65135.2 64269.6 65734.4 Q 64434.8 66333.6 64524.4 66951 Q 63459.7 67081.2 62524.5 67182 Q 61589.3 67282.8 60911.7 67338.1 Q 61705.5 66610.8 62506.3 65622.4 Q 62531.5 65590.9 62556.7 65560.1 Q 63354 64568.9 63893.7 63682.7 Q 64298.3 63654 64380.9 63410.4 L 62359.3 62765 L 66574 62765 Q 66886.2 62768.5 66961.1 62535.4 Q 66541.1 62152.5 66070.7 61770.3 Q 65956.6 61676.5 65854.4 61593.2 Q 65428.1 61252.3 65398.7 61231.3 L 64538.4 62349.2 L 59764.4 62349.2 L 59879.2 62765 L 62115.7 62765 Q 61956.1 63540.6 61594.9 64532.5 Q 61378.6 65125.4 61129.4 65674.2 Q 60714.3 66594.7 60323.7 67065.8 Q 60206.1 67143.5 60010.1 67196.7 Q 59814.8 67249.9 59793.1 67252 L 60696.8 69402.4 Q 60922.2 69309.3 61083.9 69044 Q 63183.9 68223.6 64595.8 67553 Q 64617.5 67940.1 64595.8 68327.2 Q 65164.9 68885.1 65636 68631.7 Q 66037.1 68418.2 66149.8 67813.4 Q 66262.5 67207.9 65885.9 66406.4 Q 65456.8 65471.2 64079.9 64557 L 63907.7 64614.4 Z M 71922 60098.7 L 71047 60987.7 L 69441.2 60987.7 Q 69451.7 60275.8 69455.9 59533.1 Q 69460.8 58817 69469.9 58077.1 Q 69961.3 57987.5 70000.5 57661.3 L 67778.7 57460.4 Q 67778.7 58096.7 67781.5 58707.8 Q 67789.9 59894.3 67778.7 60987.7 L 65871.9 60987.7 L 66000.7 61402.8 L 67778.7 61402.8 Q 67770.3 63823.4 67334.9 65808.6 Q 67135.4 66662.6 66799.4 67445.2 Q 66048.3 69263.1 64252.1 70735.9 L 64395.6 70936.8 Q 66663.6 69780.4 67738.8 68219.4 Q 68579.5 67015.4 68940.7 65568.5 Q 69393.6 63691.8 69427.2 61402.8 L 71205.2 61402.8 Q 71126.8 64903.5 70957.4 66722.1 Q 70788 68540 70431 68857.8 Q 70338.6 68953 70230.1 68992.2 Q 70121.6 69031.4 69943.1 69030 Q 69696.7 69028.6 69264.1 69002.7 Q 68831.5 68977.5 68466.8 68943.9 L 68452.1 69144.8 Q 69266.2 69327.5 69584.7 69703.4 Q 69821.3 70026.1 69799.6 70822 Q 70939.9 70836 71649 70119.2 Q 72111 69695 72349.7 68404.2 Q 72466.6 67776.3 72547.1 66879.6 Q 72710.9 65026 72781.6 61675.8 Q 73240.8 61593.2 73398.3 61402.8 L 71922 60098.7 Z M 83805.9 69273.6 L 83805.9 66521.2 L 85369 66521.2 L 85369 69273.6 L 83805.9 69273.6 Z M 80824.6 66521.2 L 82286.9 66521.2 L 82286.9 69273.6 L 80824.6 69273.6 L 80824.6 66521.2 Z M 82286.9 63467.8 L 82286.9 66105.4 L 80824.6 66105.4 L 80824.6 63467.8 L 82286.9 63467.8 Z M 85369 63467.8 L 85369 66105.4 L 83805.9 66105.4 L 83805.9 63467.8 L 85369 63467.8 Z M 85225.5 63066 L 80910 63066 L 79261.5 62392.6 L 79261.5 70735.9 L 79491.1 70735.9 Q 80016.8 70718.4 80410.2 70537.1 Q 80804.3 70355.8 80824.6 70220 L 80824.6 69674.7 L 85369 69674.7 L 85369 70621.1 L 85641.3 70621.1 Q 86069.7 70605 86486.9 70448.9 Q 86904.8 70293.5 86946.1 70191.3 L 86946.1 63725.4 Q 87365.4 63614.8 87504.7 63439.1 L 85985 62234.4 L 85225.5 63066 Z M 85698.7 59869.1 L 85383 59869.1 L 85383 58149.2 Q 85645.5 58115.6 85743.5 58023.2 Q 85841.5 57930.8 85856.2 57790.8 L 83820.6 57618.6 L 83820.6 59869.1 L 82300.9 59869.1 L 82300.9 58105.8 Q 82522.8 58071.5 82607.5 57986.1 Q 82692.2 57900 82688 57790.8 L 80752.5 57618.6 L 80752.5 59869.1 L 78989.2 59869.1 L 79075.3 60184.8 Q 78819.8 59919.5 78636.4 59740.3 Q 78453 59561.1 78444.6 59554.1 L 77713.1 60672 L 77570.3 60672 L 77570.3 58048.4 Q 78082.7 57955.3 78100.2 57647.3 L 75993.2 57432.4 L 75993.2 60672 L 74157.8 60672 L 74272.6 61087.8 L 75993.2 61087.8 L 75993.2 63911.6 Q 75354.1 64096.4 74851.5 64229.4 Q 74349.6 64362.4 74043.7 64428.2 L 74717.1 66392.4 Q 74989.4 66281.1 75090.2 65976.6 Q 75400.3 65777.8 75691.5 65585.3 Q 75844.8 65485.2 75993.2 65388.6 L 75993.2 68872.5 Q 76010.7 69133.6 75706.2 69116.1 Q 75520 69113.3 75081.8 69089.5 Q 74902.6 69080.4 74734.6 69070.6 Q 74323.7 69046.8 74287.3 69044 L 74287.3 69244.9 Q 74731.8 69320.5 74971.9 69449.3 Q 75212 69578.1 75333.8 69760.8 Q 75580.9 70151.4 75591.4 70908.1 Q 76822.7 70794.7 77207.7 70344.6 Q 77237.8 70313.1 77263.7 70280.2 Q 77606.7 69807 77570.3 68986.6 L 77570.3 64327.4 Q 78562.9 63614.8 79190.1 63138.1 L 79132.7 62979.9 Q 78501.3 63187.1 77864.3 63378.2 Q 77716.6 63423 77570.3 63467.8 L 77570.3 61087.8 L 79333.6 61087.8 Q 79645.1 61091.3 79720.7 60858.2 Q 79472.9 60585.9 79161.4 60270.9 L 80752.5 60270.9 L 80752.5 62464 L 81010.8 62464 Q 81477 62450 81876 62295.3 Q 82275.7 62141.3 82300.9 62019.5 L 82300.9 60270.9 L 83820.6 60270.9 L 83820.6 62421.3 L 84078.9 62421.3 Q 84555.6 62405.9 84956.7 62254 Q 85357.8 62102.8 85383 61990.8 L 85383 60270.9 L 87433.3 60270.9 Q 87756 60274.4 87820.4 60041.3 Q 87469.7 59656.3 87056 59247.5 Q 86953.8 59146 86862.1 59055.7 Q 86485.5 58688.9 86458.2 58665.1 L 85698.7 59869.1 Z M 89210.6 67023.1 Q 89426.2 66937 89597.7 66678.7 Q 90804.5 66140.4 91760.7 65648.3 Q 92717.6 65156.2 93267.8 64844 L 93253.8 64671.8 Q 92328.4 64802 91449.2 64914 Q 90570 65025.3 89870 65101.6 Q 90896.9 64317.6 91902.8 63336.2 Q 92026.7 63215.1 92147.8 63093.3 Q 93128.5 62109.1 93741 61274 Q 94178.5 61313.2 94271.6 61073.1 L 92350.8 60012.6 Q 92110 60675.5 91634 61488.9 Q 90425.8 61575 89497.6 61618.4 Q 90271.8 60992.6 91046 60163.1 Q 91820.2 59333.6 92336.1 58579 Q 92751.9 58575.5 92823.3 58335.4 L 90730.3 57517.8 Q 90560.2 58201 90173.8 59110.3 Q 89952.6 59628.3 89697.1 60112.7 Q 89251.9 60963.2 88823.5 61388.8 Q 88711.5 61465.1 88553.3 61512.7 Q 88395.1 61559.6 88379.7 61561 L 89125.2 63381.7 Q 89279.2 63320.8 89411.5 63152.1 Q 90332.7 62765 91103.4 62377.9 Q 90579.8 63199 90026.1 63899.7 Q 89473.1 64599.7 88981.7 65001.5 Q 88854.3 65079.2 88662.5 65132.4 Q 88470.7 65185.6 88451.1 65187.7 L 89210.6 67023.1 Z M 93554.8 67151.9 Q 92077.8 67546 90737.3 67870.8 Q 90581.9 67908.6 90432.1 67944.3 Q 89135.7 68254.4 88451.1 68384.6 L 89282.7 70348.8 Q 89555 70245.2 89655.1 69947.7 Q 91029.2 69125.9 92008.5 68447.6 Q 92987.1 67768.6 93597.5 67280.7 L 93554.8 67151.9 Z M 98443.6 66893.6 Q 98715.9 67306.6 98998.7 67791.7 Q 99282.2 68276.8 99532.8 68786.4 Q 98056.5 68862.7 96762.2 68920.8 Q 95468.6 68978.2 94529.2 69001.3 Q 95431.5 68479.1 96296.7 67821.8 Q 97161.2 67165.2 97740.8 66578.6 Q 98160.1 66592.6 98256.7 66392.4 L 96622.9 65546.1 L 101181.3 65546.1 Q 101500.5 65549.6 101583.1 65317.2 Q 101121.1 64920.3 100617.1 64526.9 Q 100478.5 64417.7 100356 64321.8 Q 99906.6 63976 99877.2 63955 L 98930.8 65130.3 L 93210.4 65130.3 L 93325.2 65546.1 L 96149.7 65546.1 Q 95834 66235.6 95264.2 67060.2 Q 95049.3 67368.2 94819.7 67657.3 Q 94208.6 68431.5 93640.9 68815.1 Q 93526.8 68880.9 93356 68925.7 Q 93185.2 68970.5 93167.7 68972.6 L 93855.8 70793.3 Q 94028 70749.9 94156.8 70578.4 Q 95864.8 70196.2 97280.2 69827.3 Q 98695.6 69458.4 99705 69173.5 Q 100020 69890.3 100163.5 70563.7 Q 100804.7 71023.6 101240.8 70724 Q 101629.3 70458 101622.3 69821.7 Q 101614.6 69186.1 100994.4 68413.3 Q 100309.8 67550.2 98586.4 66822.2 L 98443.6 66893.6 Z M 97612 62822.4 L 94644 62822.4 L 94758.8 63223.5 L 99518.8 63223.5 Q 99840.8 63227.7 99905.2 62994.6 Q 99483.8 62630.6 99026 62275 Q 98943.4 62209.9 98867.1 62151.1 Q 98444.3 61825.6 98414.9 61804.6 L 97612 62822.4 Z M 96436 57346.3 Q 95810.2 59353.2 94735.7 60992.6 Q 93661.2 62632 92422.2 63682.7 L 92565.7 63840.2 Q 94172.9 63098.2 95500.8 61862 Q 96828.7 60625.1 97812.2 58765.2 Q 98337.9 60185.5 99183.5 61460.2 Q 100028.4 62735.6 101081.2 63596.6 Q 101231.7 62675.4 102113 62163 L 102156.4 61976.8 Q 100983.9 61443.4 99853.4 60538.3 Q 99848.5 60534.1 99842.9 60529.9 Q 98713.8 59622.7 98056.5 58435.5 Q 98486.3 58453.7 98572.4 58191.9 L 96436 57346.3 Z M 112119.5 65789.7 L 110170 65789.7 L 110170 62191.7 L 112119.5 62191.7 L 112119.5 65789.7 Z M 114041 61789.9 L 113811.4 61789.9 L 113811.4 58364.1 Q 114105.4 58320 114216.7 58217.1 Q 114327.3 58114.2 114342 57962.3 L 112119.5 57747.4 L 112119.5 61789.9 L 110170 61789.9 L 110170 58149.2 Q 110453.5 58104.4 110564.1 57994.5 Q 110675.4 57885.3 110700.6 57733.4 L 108506.8 57532.5 L 108506.8 61789.9 L 106643.4 61789.9 L 106643.4 58450.2 Q 107148.8 58356.4 107159.3 58048.4 L 104951.5 57818.8 L 104951.5 61789.9 L 102815.8 61789.9 L 102944.6 62191.7 L 104951.5 62191.7 L 104951.5 69244.9 Q 104682.7 69449.3 104521.7 69674.7 L 106227.6 70664.5 L 106743.5 69818.2 L 115646.8 69818.2 Q 115983.5 69821.7 116061.9 69589.3 Q 115625.1 69177.7 115119.7 68752.1 Q 114939.8 68599.5 114783.7 68470 Q 114342.7 68105.3 114313.3 68083.6 L 113338.2 69402.4 L 106643.4 69402.4 L 106643.4 62191.7 L 108506.8 62191.7 L 108506.8 67625.1 L 108808.5 67625.1 Q 109316.7 67608.3 109731.1 67433.3 Q 110145.5 67258.3 110170 67123.2 L 110170 66191.5 L 112119.5 66191.5 L 112119.5 67280.7 L 112435.2 67280.7 Q 112944.8 67263.9 113365.5 67091 Q 113786.2 66918.1 113811.4 66793.5 L 113811.4 62191.7 L 116090.6 62191.7 Q 116413.3 62195.2 116477.7 61962.1 Q 116073.8 61573.6 115611.8 61171.8 Q 115485.1 61061.2 115373.1 60963.9 Q 114958 60608.3 114930 60585.9 L 114041 61789.9 Z M 118140.9 70908.1 L 118427.9 70908.1 Q 118944.5 70889.9 119348.4 70700.2 Q 119753 70509.8 119775.4 70362.8 L 119775.4 59926.5 Q 120100.2 59872.6 120226.9 59756.4 Q 120352.9 59640.2 120377.4 59468 L 118140.9 59252.4 L 118140.9 70908.1 Z M 119244.8 57489.1 Q 119746 58000.8 120207.3 58713.4 Q 120667.9 59426 120879.3 60141.4 Q 121521.2 60504 121944.7 60203.7 Q 122333.2 59930 122317.8 59376.3 Q 122303.1 58823.3 121677.3 58264 Q 121003.2 57655 119359.6 57375 L 119244.8 57489.1 Z M 122627.9 66850.9 L 122627.9 64442.2 L 125079.3 64442.2 L 125079.3 66850.9 L 122627.9 66850.9 Z M 125079.3 61789.9 L 125079.3 64041.1 L 122627.9 64041.1 L 122627.9 61789.9 L 125079.3 61789.9 Z M 126642.4 61933.4 Q 126964.4 61858.5 127072.2 61718.5 L 125667.3 60629.3 L 124965.2 61374.8 L 122685.3 61374.8 L 121079.5 60758.1 L 121079.5 68556.8 L 121352.5 68556.8 Q 121949.6 68538.6 122285.6 68370.6 Q 122622.3 68201.9 122627.9 68098.3 L 122627.9 67266.7 L 125079.3 67266.7 L 125079.3 68255.8 L 125351.6 68255.8 Q 125808.7 68234.1 126211.9 68029.7 Q 126615.1 67826 126642.4 67696.5 L 126642.4 61933.4 Z M 128634.6 57847.5 L 127889.1 58722.5 L 122671.3 58722.5 L 122800.1 59123.6 L 128032.6 59123.6 L 128032.6 68714.3 Q 128064.8 69023 127688.9 69030 Q 127480.3 69027.2 126953.9 68995.7 Q 126572.4 68972.6 126225.9 68949.5 Q 125746.4 68918 125710 68915.2 L 125710 69116.1 Q 126290.3 69212 126604.6 69354.1 Q 126918.9 69496.2 127100.9 69689.4 Q 127427.1 70054.8 127474 70850.7 Q 128792.1 70721.9 129230.3 70293.5 Q 129305.2 70225.6 129364.7 70150 Q 129703.5 69673.3 129667.1 68886.5 L 129667.1 59395.9 Q 130118.6 59288.8 130269.1 59094.9 L 128634.6 57847.5 Z M 141107.2 62191.7 L 141107.2 65317.2 L 135430.2 65317.2 L 135430.2 62191.7 L 141107.2 62191.7 Z M 135430.2 69144.8 L 135430.2 65718.3 L 141107.2 65718.3 L 141107.2 69144.8 L 135430.2 69144.8 Z M 141866.7 58822.6 L 131846.2 58822.6 L 131961 59238.4 L 136992.6 59238.4 Q 136959 59877.5 136892.5 60562.8 Q 136826 61247.4 136749 61789.9 L 135545 61789.9 L 133709.6 61044.4 L 133709.6 70822 L 133981.9 70822 Q 134562.2 70803.1 134985.7 70595.9 Q 135409.2 70389.4 135430.2 70220 L 135430.2 69560.6 L 141107.2 69560.6 L 141107.2 70749.9 L 141394.2 70749.9 Q 141869.5 70731.7 142324.5 70554.6 Q 142338.5 70549.7 142351.8 70544.1 Q 142799.8 70366.3 142841.8 70262.7 L 142841.8 62478 Q 143286.3 62370.9 143429.8 62177 L 141781.3 60886.9 L 140963.7 61789.9 L 137293.6 61789.9 Q 137770.3 61274.7 138227.4 60605.5 Q 138685.2 59937 139085.6 59238.4 L 144261.4 59238.4 Q 144598.1 59241.9 144677.2 59008.8 Q 144207.5 58612.6 143683.2 58208.7 Q 143510.3 58074.3 143359.1 57958.8 Q 142900.6 57610.2 142870.5 57589.9 L 141866.7 58822.6 Z M 147874.1 65890.5 Q 147841.9 66687.1 147442.2 67284.2 Q 147041.8 67882 146525.9 68141 Q 146203.9 68316 146040.8 68601.6 Q 145877 68887.2 145996 69244.9 Q 146156.3 69631.3 146558.8 69699.9 Q 146960.6 69769.2 147357.5 69531.9 Q 147973.5 69189.6 148259.1 68254.4 Q 148259.1 68253.7 148259.1 68253.7 Q 148544 67317.8 148074.3 65890.5 L 147874.1 65890.5 Z M 156045.2 67209.3 L 155887.7 67209.3 Q 155450.2 68456.7 155184.9 68843.8 Q 155125.4 68948.8 155037.9 68992.2 Q 154951.1 69035.6 154783.8 69044 Q 154592 69054.5 154217.5 69056.6 Q 153843 69058.7 153392.9 69058.7 L 151658.3 69058.7 Q 151272.6 69061.5 151158.5 69004.8 Q 151044.4 68948.1 151056.3 68800.4 L 151056.3 66205.5 Q 151472.1 66134.1 151500.8 65847.1 L 149364.4 65675.6 L 149364.4 69116.1 Q 149337.8 69936.5 149762.7 70230.5 Q 150187.6 70524.5 151386 70506.3 L 153206.7 70506.3 Q 155126.8 70514 155894.7 70339.7 Q 156028.4 70308.9 156136.9 70272.5 Q 156755 70059 156719.3 69560.6 Q 156728.4 69328.2 156597.5 69177 Q 156466.6 69025.1 156088.6 68901.2 L 156045.2 67209.3 Z M 151787.8 65202.4 Q 152200.8 65712.7 152541.7 66397.3 Q 152882.6 67082.6 152963.1 67753.9 Q 153549 68175.3 153983 67924 Q 154366.6 67704.9 154412.8 67198.8 Q 154459 66692 153964.1 66132.7 Q 153414.6 65501.3 151916.6 65116.3 L 151787.8 65202.4 Z M 156045.2 66019.3 Q 156642.3 66639.5 157088.2 67494.2 Q 157534.8 68348.2 157636.3 69216.2 Q 158269.8 69667.7 158728.3 69389.8 Q 159173.5 69121 159192.4 68476.3 Q 159210.6 67830.9 158546.3 67119.7 Q 157865.2 66388.2 156188.7 65919.2 L 156045.2 66019.3 Z M 158826.3 60342.3 Q 159156 60345.8 159228.1 60112.7 Q 158799 59730.5 158321.6 59349 Q 158203.3 59253.8 158097.6 59169.1 Q 157666.4 58829.6 157636.3 58808.6 L 156776.7 59926.5 L 152991.8 59926.5 Q 153264.1 59062.7 153407.6 58134.5 Q 153877.3 58116.3 153938.2 57776.1 L 151586.9 57417.7 Q 151514.8 58693.8 151185.1 59926.5 L 146153.5 59926.5 L 146268.3 60342.3 L 151056.3 60342.3 Q 150564.9 61871.1 149323.8 63182.9 Q 148082 64494 145795.1 65431.3 L 145895.2 65589.5 Q 147832.8 65124 149167.7 64417 Q 150502.6 63710 151343.3 62793.7 Q 151794.1 63201.1 152172.8 63712.8 Q 152551.5 64225.2 152733.5 64729.2 Q 153362.8 65021.1 153738 64703.3 Q 154034.1 64457.6 154027.8 64029.9 Q 154020.8 63602.9 153588.9 63182.9 Q 153056.2 62647.4 151644.3 62450 Q 152410.8 61481.9 152834.3 60342.3 L 153278.8 60342.3 Q 153910.9 62240.7 155104.4 63488.8 Q 156298.6 64736.9 157952 65517.4 Q 158285.2 64291.7 159285.5 64055.1 L 159299.5 63897.6 Q 157643.3 63514.7 156143.2 62710.4 Q 156001.1 62632 155863.2 62548.7 Q 154400.9 61699.6 153565.1 60342.3 L 158826.3 60342.3 Z M 160719.1 72814.9 Q 161991 72211.5 162542.6 71209.1 Q 162565 71171.3 162586 71133.5 Q 163113.1 70123.4 163098.4 69130.1 Q 163085.8 68383.2 162719 67977.9 Q 162351.5 67572.6 161779.6 67567.7 Q 161214 67583.1 160890.6 67924 Q 160567.2 68264.9 160560.9 68743 Q 160595.2 69407.3 161069.1 69739.1 Q 161126.5 69783.9 161187.4 69824.5 Q 161688.6 70124.1 162166.7 70262.7 Q 162105.1 70771.6 161725.7 71344.9 Q 161347 71918.9 160489.5 72384.4 L 160719.1 72814.9 Z M 179599.5 63496.5 L 179599.5 65417.3 L 177706.7 65417.3 Q 177853.7 64435.2 177893.6 63496.5 L 179599.5 63496.5 Z M 185233.1 58822.6 L 185233.1 60700.7 L 177922.3 60700.7 L 177922.3 58822.6 L 185233.1 58822.6 Z M 183011.3 63496.5 L 183011.3 65417.3 L 181190.6 65417.3 L 181190.6 63496.5 L 183011.3 63496.5 Z M 185376.6 65833.1 Q 185106.4 66202.7 184672.4 66720 Q 184238.4 67237.3 183785.5 67725.2 Q 182767.7 67004.9 182179.7 65833.1 L 187627.8 65833.1 Q 187946.3 65836.6 188028.9 65603.5 Q 187606.1 65215 187132.9 64813.2 Q 187004.1 64702.6 186889.3 64605.3 Q 186466.5 64249.7 186437.8 64227.3 L 185548.8 65417.3 L 184588.4 65417.3 L 184588.4 63496.5 L 186882.3 63496.5 Q 187215.5 63500 187269.4 63266.9 Q 186880.9 62895.9 186441.3 62524.2 Q 186351.7 62447.9 186269.1 62378.6 Q 185864.5 62041.2 185835.8 62019.5 L 185032.9 63080.7 L 184588.4 63080.7 L 184588.4 61933.4 Q 185011.2 61843.8 185004.2 61603.7 L 183011.3 61417.5 L 183011.3 63080.7 L 181190.6 63080.7 L 181190.6 61890.7 Q 181411.8 61856.4 181500.7 61768.9 Q 181589.6 61680.7 181606.4 61561 L 179599.5 61374.8 L 179599.5 63080.7 L 177907.6 63080.7 Q 177925.8 62582.3 177922.3 62105.6 L 177922.3 61116.5 L 185233.1 61116.5 L 185233.1 61661.1 L 185520.1 61661.1 Q 185934.5 61647.8 186376.2 61518.3 Q 186389.5 61514.1 186402.1 61510.6 Q 186837.5 61379.7 186882.3 61302.7 L 186882.3 59094.9 Q 187326.8 58987.8 187469.6 58793.9 L 185849.8 57589.9 L 185090.3 58406.8 L 178179.9 58406.8 L 176216.4 57718.7 L 176216.4 62119.6 Q 176245.8 64092.9 176002.2 66121.5 Q 175940.6 66574.4 175855.2 67021.7 Q 175501 69027.9 174438.4 70778.6 L 174581.9 70879.4 Q 175941.3 69821.7 176649.7 68517.6 Q 177358.8 67212.8 177621.3 65833.1 L 178911.4 65833.1 L 178911.4 68499.4 Q 178921.9 68695.4 178803.6 68845.2 Q 178685.3 68995.7 178309.4 69202.2 L 179283.8 71008.2 Q 179442 70918.6 179599.5 70721.2 Q 180531.2 70097.5 181262.7 69537.5 Q 181994.9 68977.5 182449.2 68608.6 Q 182510.8 68558.2 182566.8 68514.1 L 182524.1 68355.9 Q 181459.4 68660.4 180502.5 68901.2 L 180502.5 65833.1 L 181907.4 65833.1 Q 182477.9 67958.3 183665.1 69119.6 Q 183688.9 69142.7 183712 69165.8 Q 184911.8 70312.4 186781.5 70936.8 Q 187093.7 69685.9 188115 69402.4 L 188129 69230.9 Q 187038.4 69083.9 186052.1 68794.8 Q 185066.5 68506.4 184244 68026.2 Q 184877.5 67818.3 185485.8 67599.9 Q 186094.8 67381.5 186566.6 67194.6 Q 187011.1 67305.9 187111.2 67094.5 L 185376.6 65833.1 Z M 196172 58966.1 L 199898.8 58966.1 L 199898.8 66220.2 L 200171.8 66220.2 Q 200792 66203.4 201151.8 66050.1 Q 201511.6 65896.1 201519.3 65804.4 L 201519.3 59109.6 Q 201984.8 59016.5 202106.6 58837.3 L 200630.3 57676 L 199842.1 58579 L 196329.5 58579 L 194623.6 57919.6 L 194623.6 66392.4 L 194895.9 66392.4 Q 195502.8 66377 195834.6 66227.2 Q 196167.1 66077.4 196172 65976.6 L 196172 58966.1 Z M 194221.8 66477.8 L 193920.8 66564.6 Q 193023.4 66825.7 192157.5 67051.8 L 192157.5 63453.1 L 193849.4 63453.1 Q 194153.9 63456.6 194221.8 63223.5 Q 193914.5 62867.2 193558.9 62493.4 Q 193512 62443.7 193467.9 62396.8 Q 193129.8 62044.7 193103.9 62019.5 L 192473.2 63052 L 192157.5 63052 L 192157.5 59309.8 L 194035.6 59309.8 Q 194347.8 59314 194422.7 59080.9 Q 194019.5 58702.9 193572.9 58314.4 Q 193472.1 58226.9 193381.8 58148.5 Q 192974.4 57798.5 192946.4 57776.1 L 192100.1 58894 L 188745.7 58894 L 188860.5 59309.8 L 190523.7 59309.8 L 190523.7 63052 L 188917.9 63052 L 189032.7 63453.1 L 190523.7 63453.1 L 190523.7 67495.6 Q 189272.8 67829.5 188645.6 67968.8 L 189519.9 69861.6 Q 189795.7 69750.3 189878.3 69445.8 Q 192942.9 67625.1 194265.2 66621.3 L 194221.8 66477.8 Z M 201935.1 67151.9 L 201762.9 67151.9 Q 201599.1 67790.3 201459.8 68297.1 Q 201320.5 68803.9 201232.3 69001.3 Q 201149.7 69191 200960 69187.5 L 200343.3 69187.5 L 199655.2 69187.5 Q 199446.6 69189.6 199382.9 69137.1 Q 199319.2 69085.3 199325.5 68957.9 L 199325.5 65388.6 Q 199716.1 65313 199741.3 65044.2 L 198551.3 64915.4 Q 198683.6 64103.4 198729.1 63192 Q 198773.9 62280.6 198792.1 61273.3 Q 198799.8 60914.2 198809.6 60543.2 Q 199275.8 60467.6 199311.5 60156.1 L 197203.8 59955.2 Q 197203.1 60387.1 197203.8 60801.5 Q 197241.6 62904.3 197063.8 64596.9 Q 196934.3 65698 196563.3 66647.2 Q 196192.3 67597.1 195461.5 68412.6 Q 194356.9 69664.9 192042.7 70649.8 L 192172.2 70879.4 Q 194618.7 70170.3 195976.7 69198 Q 197334 68226.4 197920.6 66979.7 L 197920.6 69345 Q 197898.2 70033.1 198162.8 70304 Q 198427.4 70574.9 199254.1 70563.7 L 200200.5 70563.7 Q 201438.8 70562.3 201933 70334.8 Q 202427.2 70106.6 202407.6 69674.7 Q 202414.6 69473.1 202327.1 69331 Q 202239.6 69188.2 201977.8 69072.7 L 201935.1 67151.9 Z M 208342.9 57676 Q 208342.2 57870.6 208342.2 58065.2 Q 208373.7 60095.2 208189.6 62104.2 Q 208058 63391.5 207691.9 64646.6 Q 207325.1 65901.7 206610.4 67107.1 Q 205517.7 68988.7 203225.2 70693.2 L 203382.7 70893.4 Q 206087.5 69571.8 207500.1 67937.3 Q 208847.6 66383.3 209395 64656.4 Q 209966.9 62841.3 210063.5 60959 Q 210258.1 63909.5 211065.9 66164.9 Q 211341.7 66904.8 211714.8 67564.9 Q 212818.7 69579.5 215109.8 70822 Q 215399.6 69402.4 216700.9 69144.8 L 216729.6 68972.6 Q 213948.5 67944.3 212519.8 66185.9 Q 211633.6 65107.9 211125.4 63725.4 Q 210315.5 61467.9 210178.3 58306.7 Q 210453.4 58273.1 210572.4 58170.2 Q 210691.4 58067.3 210708.2 57904.9 L 208342.9 57676 Z M 218478.9 60284.9 Q 218516 61040.9 218287.1 61745.1 Q 218058.2 62450 217762.1 62808.4 Q 217506.6 63028.2 217415.6 63304.7 Q 217325.3 63581.2 217489.1 63854.9 Q 217715.9 64141.9 218087.6 64112.5 Q 218460 64083.1 218707.8 63768.8 Q 219034.7 63298.4 219078.8 62403.1 Q 219123.6 61507.8 218707.8 60284.9 L 218478.9 60284.9 Z M 219424.6 57460.4 L 219424.6 70908.1 L 219754.3 70908.1 Q 220240.8 70892 220637.7 70725.4 Q 221035.3 70558.8 221059.1 70434.9 L 221059.1 58077.1 Q 221341.9 58033 221453.2 57930.1 Q 221564.5 57827.2 221589.7 57676 L 219424.6 57460.4 Z M 228714.3 70019.1 L 227238 70019.1 L 227238 65660.9 L 230176.6 65660.9 Q 230495.8 65664.4 230578.4 65431.3 Q 230179.4 65039.3 229726.5 64638.9 Q 229613.1 64538.1 229510.9 64448.5 Q 229101.4 64092.2 229072.7 64069.8 L 228227.1 65245.1 L 227238 65245.1 L 227238 61747.2 L 230506.3 61747.2 Q 230818.5 61750.7 230893.4 61517.6 Q 230476.2 61126.3 230007.9 60732.2 Q 229888.9 60631.4 229782.5 60542.5 Q 229360.4 60191.8 229331 60170.1 L 228470.7 61331.4 L 227238 61331.4 L 227238 58163.2 Q 227490 58120.5 227585.2 58023.2 Q 227681.1 57926.6 227696.5 57776.1 L 225560.8 57575.2 L 225560.8 61331.4 L 224169.9 61331.4 Q 224553.5 60378 224829.3 59295.8 Q 225295.5 59277.6 225373.9 58980.1 L 223266.9 58421.5 Q 223138.1 60048.3 222793.7 61589.7 Q 222850.4 61201.2 222512.3 60732.9 Q 222174.2 60264.6 221274 59855.1 L 221101.8 59941.2 Q 221315.3 60341.6 221474.9 60886.9 Q 221634.5 61432.9 221632.4 61962.1 Q 221980.3 62283.4 222306.5 62193.1 Q 222632.7 62103.5 222765 61747.2 Q 222417.1 63302.6 221919.4 64470.9 L 222105.6 64585.7 Q 223245.2 63456.6 223997.7 61747.2 L 225560.8 61747.2 L 225560.8 65245.1 L 222865.1 65245.1 L 222979.9 65660.9 L 225560.8 65660.9 L 225560.8 70019.1 L 221876 70019.1 L 221990.8 70434.9 L 230850.7 70434.9 Q 231180.4 70438.4 231251.8 70205.3 Q 230833.2 69803.5 230350.2 69395.4 Q 230204.6 69271.5 230075.8 69163.7 Q 229646.7 68807.4 229618 68786.4 L 228714.3 70019.1 Z M 234018.9 68370.6 L 234018.9 64600.4 L 236198 64600.4 L 236198 68370.6 L 234018.9 68370.6 Z M 236198 60629.3 L 236198 64184.6 L 234018.9 64184.6 L 234018.9 60629.3 L 236198 60629.3 Z M 236814 59353.2 L 236054.5 60213.5 L 234807.1 60213.5 Q 235160.6 59780.2 235535.1 59288.8 Q 235909.6 58796.7 236198 58406.8 Q 236696.4 58418 236786 58063.1 L 234463.4 57503.8 Q 234406.7 58126.1 234323.4 58863.9 Q 234240.1 59601.7 234162.4 60213.5 L 234076.3 60213.5 L 232470.5 59539.4 L 232470.5 70377.5 L 232728.8 70377.5 Q 233260.8 70360.7 233631.8 70175.2 Q 234002.8 69989 234018.9 69832.9 L 234018.9 68771.7 L 236198 68771.7 L 236198 69904.3 L 236441.6 69904.3 Q 236890.3 69885.4 237312.4 69711.1 Q 237734.5 69536.1 237775.1 69431.1 L 237775.1 60886.9 Q 238215.4 60790.3 238377.1 60585.9 L 236814 59353.2 Z M 243839.2 59238.4 L 242935.5 60170.1 L 240656.3 60170.1 Q 241100.8 59356.7 241459.2 58435.5 Q 241942.9 58432 242018.5 58149.2 L 239753.3 57489.1 Q 239461.4 59166.3 238941.3 60759.5 Q 238421.2 62353.4 237817.8 63481.8 L 238004 63596.6 Q 239387.9 62424.8 240426.7 60585.9 L 243093.7 60585.9 Q 243029.3 64263 242867.6 66351.1 Q 242706.6 68439.2 242319.5 68815.1 Q 242140.3 69004.8 241788.9 69001.3 Q 241480.9 68998.5 240882.4 68957.9 Q 240283.9 68918 239738.6 68872.5 L 239724.6 69072.7 Q 240256.6 69171.4 240650.7 69334.5 Q 241045.5 69497.6 241244.3 69703.4 Q 241584.5 70054.8 241559.3 70879.4 Q 242262.8 70882.2 242767.5 70696.7 Q 243271.5 70511.2 243652.3 70105.2 Q 244188.5 69551.5 244418.8 67645.4 Q 244456.6 67340.9 244489.5 66997.2 Q 244684.8 64841.9 244742.2 60858.2 Q 245218.9 60786.8 245372.9 60585.9 L 243839.2 59238.4 Z M 238921.7 63180.8 Q 239367.6 63788.4 239719 64578.7 Q 240071.1 65369 240140.4 66148.1 Q 240752.2 66615 241224 66370.7 Q 241665.7 66143.9 241728 65562.2 Q 241790.3 64981.2 241226.1 64312 Q 240629 63598 239036.5 63094.7 L 238921.7 63180.8 Z M 256985.2 66377.7 L 253788.3 66377.7 L 253788.3 63581.9 L 258217.9 63581.9 Q 258537.1 63586.1 258619.7 63353 Q 258193.4 62952.6 257705.5 62541 Q 257552.2 62411.5 257417.8 62298.8 Q 256985.2 61941.1 256956.5 61919.4 L 256024.8 63166.8 L 253788.3 63166.8 L 253788.3 60528.5 L 258748.5 60528.5 Q 259088.7 60532 259149.6 60299.6 Q 258723.3 59897.8 258226.3 59470.1 Q 258047.1 59315.4 257891.7 59183.1 Q 257458.4 58816.3 257429.7 58793.9 L 256454.6 60127.4 L 253788.3 60127.4 L 253788.3 58091.8 Q 254071.8 58047 254180.3 57937.1 Q 254289.5 57827.9 254304.2 57676 L 251981.6 57460.4 L 251981.6 60127.4 L 246950 60127.4 L 247064.8 60528.5 L 251981.6 60528.5 L 251981.6 63166.8 L 247623.4 63166.8 L 247738.2 63581.9 L 251981.6 63581.9 L 251981.6 66377.7 L 246275.9 66377.7 L 246390.7 66778.8 L 251981.6 66778.8 L 251981.6 70908.1 L 252326 70908.1 Q 252869.2 70885.7 253315.1 70662.4 Q 253761 70439.1 253788.3 70277.4 L 253788.3 66778.8 L 259407.9 66778.8 Q 259744.6 66783 259823.7 66549.9 Q 259376.4 66136.2 258859.1 65693.8 Q 258653.3 65517.4 258477.6 65369.7 Q 258031.7 64995.2 258003 64972.8 L 256985.2 66377.7 Z M 268095.6 69517.2 L 268095.6 68012.2 L 270647.1 68012.2 L 270647.1 69517.2 L 268095.6 69517.2 Z M 263923.6 68012.2 L 266447.1 68012.2 L 266447.1 69517.2 L 263923.6 69517.2 L 263923.6 68012.2 Z M 266447.1 66134.1 L 266447.1 67610.4 L 263923.6 67610.4 L 263923.6 66134.1 L 266447.1 66134.1 Z M 270647.1 66134.1 L 270647.1 67610.4 L 268095.6 67610.4 L 268095.6 66134.1 L 270647.1 66134.1 Z M 270503.6 65732.3 L 264052.4 65732.3 L 262260.4 65015.5 L 262260.4 70908.1 L 262504.7 70908.1 Q 263044.4 70890.6 263472.1 70709.3 Q 263899.8 70527.3 263923.6 70391.5 L 263923.6 69919 L 270647.1 69919 L 270647.1 70793.3 L 270919.4 70793.3 Q 271342.9 70777.9 271786 70636.5 Q 271801.4 70631.6 271816.8 70627.4 Q 272252.2 70484.6 272295.6 70406.2 L 272295.6 66420.4 Q 272751.3 66295.1 272883.6 66105.4 L 271263.8 64872.7 L 270503.6 65732.3 Z M 265127.6 64098.5 L 265127.6 62636.2 L 269457.1 62636.2 L 269457.1 64098.5 L 265127.6 64098.5 Z M 269744.1 65030.2 Q 270156.4 65016.9 270602.3 64886.7 Q 270620.5 64881.1 270638.7 64876.2 Q 271076.2 64743.9 271120.3 64657.1 L 271120.3 62865.1 Q 271507.4 62754.5 271636.2 62578.8 L 270059.8 61417.5 L 269314.3 62220.4 L 269457.1 62220.4 L 269457.1 62234.4 L 265213.7 62234.4 L 263493.8 61561 L 263493.8 65245.1 L 263708.7 65245.1 Q 264239.3 65228.3 264671.2 65055.4 Q 265102.4 64882.5 265127.6 64757.9 L 265127.6 64514.3 L 269457.1 64514.3 L 269457.1 65030.2 L 269744.1 65030.2 Z M 269199.5 60700.7 L 263049.3 60700.7 L 263164.1 61116.5 L 271091.6 61116.5 Q 271407.3 61120 271464.7 60886.9 Q 271049.6 60541.1 270598.1 60200.2 Q 270522.5 60142.1 270451.8 60088.9 Q 270032.5 59774.6 270002.4 59754.3 L 269199.5 60700.7 Z M 272453.8 58349.4 L 271607.5 59224.4 L 267794.6 59224.4 Q 268251.7 58979.4 268295.8 58497.8 Q 268332.2 58065.9 267838 57722.2 Q 267296.2 57337.2 265873.1 57403.7 L 265787.7 57489.1 Q 266131.4 57759.3 266400.2 58204.5 Q 266669 58649 266733.4 59123.6 Q 266802 59171.2 266876.2 59202.7 Q 266899.3 59213.9 266919.6 59224.4 L 262704.9 59224.4 Q 262633.5 58844.3 262476 58421.5 L 262275.1 58421.5 Q 262277.2 58980.8 261955.9 59430.2 Q 261635.3 59879.6 261228.6 60084 Q 260895.4 60238 260721.1 60523.6 Q 260546.8 60808.5 260655.3 61187.9 Q 260818.4 61596.7 261218.1 61693.3 Q 261617.1 61789.9 261974.1 61575 Q 262350 61356.6 262578.2 60858.2 Q 262805.7 60360.5 262762.3 59625.5 L 271751 59625.5 Q 271718.1 60025.2 271668.4 60467.6 Q 271619.4 60910 271564.8 61245.3 L 271693.6 61346.1 Q 272137.4 61074.5 272607.8 60688.1 Q 273078.2 60301.7 273414.2 59955.2 Q 273797.8 59944.7 273944.8 59783 L 272453.8 58349.4 Z M 281671.4 66034 L 274962.6 66034 L 275077.4 66449.1 L 283922.6 66449.1 Q 284252.3 66453.3 284323.7 66220.2 Q 283877.1 65828.2 283376.6 65427.8 Q 283224 65305.3 283091 65199.6 Q 282647.2 64851 282617.8 64829.3 L 281671.4 66034 Z M 285241.4 60184.8 L 279363.5 60184.8 Q 279542.7 59012.3 279635.8 58205.9 Q 279900.4 58210.8 280028.5 58111.4 Q 280155.9 58011.3 280195.1 57876.2 L 277987.3 57432.4 Q 277943.2 58122.6 277795.5 59255.9 Q 277689.8 60067.9 277556.1 60917 Q 277370.6 62100.7 277184.4 62979.9 L 277184.4 62979.9 Q 276886.9 63152.1 276697.2 63324.3 L 278303 64256 L 278919 63496.5 L 285141.3 63496.5 Q 284955.8 65655.3 284635.9 67094.5 Q 284316 68533.7 283893.9 68886.5 Q 283770 68992.2 283635.6 69033.5 Q 283501.2 69074.8 283291.9 69072.7 Q 282979.7 69069.2 282281.8 69018.8 Q 282213.2 69013.9 282143.2 69009 Q 281430.6 68955.8 280811.8 68901.2 L 280797.1 69087.4 Q 281377.4 69196.6 281842.2 69370.2 Q 282306.3 69544.5 282531.7 69760.8 Q 282733.3 69947.7 282813.1 70252.2 Q 282893.6 70556.7 282890.1 70936.8 Q 283645.4 70939.6 284171.8 70786.3 Q 284698.2 70633 285097.9 70291.4 Q 285793.7 69741.9 286228.4 68082.2 Q 286663.8 66421.8 286875.9 63797.5 Q 287348.4 63732.4 287520.6 63539.2 L 285943.5 62191.7 L 285011.8 63094.7 L 278890.3 63094.7 Q 278976.4 62622.9 279069.5 62060.8 Q 279161.9 61498.7 279257.8 60903 Q 279281.6 60751.8 279306.1 60600.6 L 287578 60600.6 Q 287914.7 60604.1 287993.8 60371 Q 287529.7 59972.7 287010.3 59575.8 Q 286847.2 59450.5 286705.1 59343.4 Q 286246.6 59000.4 286216.5 58980.1 L 285241.4 60184.8 Z M 289427.4 70950.8 Q 290928.2 70714.9 292316.3 70271.8 Q 293704.4 69828.7 294645.9 69302.3 Q 295312.3 69438.8 295506.2 69187.5 L 293570.7 67940.1 Q 292968 68605.8 291909.6 69346.4 Q 291767.5 69445.8 291619.8 69543.8 Q 290525.7 70273.9 289370 70778.6 L 289427.4 70950.8 Z M 297140 68456.7 Q 298439.2 68911 299298.1 69466.8 Q 300156.3 70023.3 300595.2 70521 Q 301099.2 70899.7 301611.6 70768.1 Q 302123.3 70635.8 302268.9 70217.2 Q 302336.1 69995.3 302206.6 69739.1 Q 301991.7 69257.5 300829.7 68834.7 Q 299667.7 68411.9 297183.4 68269.8 L 297140 68456.7 Z M 293484.6 66191.5 L 298387.4 66191.5 L 298387.4 67452.9 L 293484.6 67452.9 L 293484.6 66191.5 Z M 298387.4 61331.4 L 298387.4 62578.8 L 293484.6 62578.8 L 293484.6 61331.4 L 298387.4 61331.4 Z M 298387.4 64585.7 L 298387.4 65775.7 L 293484.6 65775.7 L 293484.6 64585.7 L 298387.4 64585.7 Z M 298387.4 64184.6 L 293484.6 64184.6 L 293484.6 62994.6 L 298387.4 62994.6 L 298387.4 64184.6 Z M 300150.7 67295.4 L 300150.7 61517.6 Q 300677.8 61421 300796.1 61216.6 L 298989.4 59983.9 L 298229.9 60930.3 L 296451.9 60930.3 L 296652.8 59596.8 L 301670.4 59596.8 Q 302010.6 59600.3 302071.5 59367.2 Q 301626.3 58986.4 301121.6 58594.4 Q 300964.8 58472.6 300827.6 58366.9 Q 300381.7 58026 300351.6 58005.7 L 299391.2 59195.7 L 296710.2 59195.7 Q 296818 58560.8 296882.4 58034.4 Q 297344.4 57958.8 297398.3 57603.9 L 295147.8 57389 Q 295144.3 57508 295141.5 57632.6 Q 295124.7 58385.1 295090.4 59195.7 L 289843.2 59195.7 L 289972 59596.8 L 295075.7 59596.8 Q 295065.9 59773.2 295056.1 59940.5 Q 295022.5 60485.8 295004.3 60930.3 L 293613.4 60930.3 L 291792.7 60242.2 L 291792.7 67452.9 L 289356 67452.9 L 289484.8 67868.7 L 302301.1 67868.7 Q 302620.3 67872.2 302702.9 67639.1 Q 302260.5 67232.4 301759.3 66814.5 Q 301595.5 66677.3 301452 66559.7 Q 301011.7 66198.5 300982.3 66176.8 L 300150.7 67295.4 Z M 308895.8 57561.2 Q 309311.6 57928 309574.8 58469.8 Q 309838 59011.6 309856.2 59582.8 Q 310503.7 60014.7 311012.6 59792.8 Q 311521.5 59571.6 311631.4 59045.9 Q 311636.3 59017.9 311639.1 58989.9 Q 311718.9 58457.9 311123.2 57991.7 Q 310527.5 57525.5 308995.9 57475.1 L 308895.8 57561.2 Z M 314028.2 65961.9 L 311361.2 65961.9 Q 311644.7 65016.2 311727.3 63911.6 Q 311809.9 62807.7 311827.4 61553.3 Q 311830.9 61407.7 311834.4 61260 Q 312318.8 61166.9 312351 60858.2 L 309999.7 60643.3 Q 309999.7 60886.2 310000.4 61122.8 Q 310015.8 62526.3 309949.3 63733.8 Q 309882.8 64941.3 309569.2 65961.9 L 303949.6 65961.9 L 304064.4 66363.7 L 309426.4 66363.7 Q 308934.3 67702.1 307565.8 68771.7 Q 306198 69842 303533.8 70707.2 L 303605.9 70922.1 Q 306625 70299.8 308300.8 69411.5 Q 309976.6 68523.2 310716.5 67352.8 Q 312202.6 68187.9 313242.8 69108.4 Q 314283.7 70029.6 314716.3 70693.2 Q 315364.5 70999.8 315775.4 70673.6 Q 316187 70346.7 316040 69683.8 Q 316014.1 69587.9 315971.4 69488.5 Q 315713.8 68800.4 314530.1 68117.2 Q 313346.4 67434 310917.4 67051.8 Q 310967.8 66937 311021 66822.2 Q 311128.8 66592.6 311218.4 66363.7 L 316350.8 66363.7 Q 316687.5 66367.2 316765.9 66134.1 Q 316322.1 65732.3 315814.6 65304.6 Q 315631.2 65149.9 315473 65017.6 Q 315031.3 64650.8 315002.6 64628.4 L 314028.2 65961.9 Z M 305498 63223.5 Q 305967 63647 306396.1 64242 Q 306824.5 64836.3 307003.7 65431.3 Q 307647.7 65782.7 308081 65502 Q 308490.5 65238.8 308489.1 64720.1 Q 308487 64201.4 307859.1 63731.7 Q 307199 63234 305598.8 63138.1 L 305498 63223.5 Z M 306587.9 60959 Q 307002.3 61339.1 307390.8 61888.6 Q 307778.6 62438.8 307935.4 62979.9 Q 308558.4 63308.2 308974.2 63031 Q 309343.1 62788.1 309350.8 62327.5 Q 309358.5 61867.6 308820.9 61442.7 Q 308224.5 60961.8 306702 60858.2 L 306587.9 60959 Z M 315433.1 58980.1 L 314544.1 59883.8 L 305785 59883.8 Q 305709.4 59475 305526.7 59023.5 L 305354.5 59023.5 Q 305352.4 59549.2 305008.7 59973.4 Q 304665 60396.9 304265.3 60600.6 Q 303878.2 60773.5 303673.8 61091.3 Q 303469.4 61409.1 303577.2 61862 Q 303746.6 62336.6 304210 62469.6 Q 304672.7 62602.6 305068.2 62377.9 Q 305476.3 62147.6 305704.5 61610.7 Q 305932 61074.5 305856.4 60284.9 L 314658.9 60284.9 Q 314603.6 60738.5 314514 61234.8 Q 314423.7 61731.1 314314.5 62119.6 L 314444 62205.7 Q 314965.5 61901.9 315517.1 61465.8 Q 316068.7 61029.7 316450.9 60629.3 Q 316672.8 60620.9 316800.2 60585.9 Q 316927.6 60550.9 317010.2 60457.1 L 315433.1 58980.1 Z M 320063.6 70822 Q 320923.9 70799.6 321493.7 70223.5 Q 322063.5 69647.4 322085.2 68786.4 Q 322063.5 67926.1 321493.7 67356.3 Q 320923.9 66786.5 320063.6 66764.8 Q 319202.6 66786.5 318626.5 67356.3 Q 318050.4 67926.1 318028 68786.4 Q 318050.4 69647.4 318626.5 70223.5 Q 319202.6 70799.6 320063.6 70822  Z M 320063.6 67280.7 Q 320703.4 67296.8 321127.6 67721.7 Q 321552.5 68146.6 321568.6 68786.4 Q 321552.5 69426.9 321127.6 69858.1 Q 320703.4 70288.6 320063.6 70306.1 Q 319413.3 70288.6 318986.3 69858.1 Q 318559.3 69426.9 318543.9 68786.4 Q 318559.3 68146.6 318986.3 67721.7 Q 319413.3 67296.8 320063.6 67280.7  Z " fill-rule="nonzero" style="fill:#525252;;fill-opacity:1;"/>
</svg>