<svg version="1.1" x="0" y="0" width="100%" height="100%" viewBox="0 0 419840 40652.8" xmlns="http://www.w3.org/2000/svg">
  <path d="M 2048 28058 L 9728 28058 L 9728 7578 L 2048 7578 L 2048 28058 Z M 35840 8315 Q 36362 8730 36780 9375 Q 37197 10020 37335 10711 Q 38215 11193 38841 10826 Q 39422 10489 39488 9848 Q 39554 9207 38822 8681 Q 38041 8111 36004 8172 L 35840 8315 Z M 33280 21279 Q 33329 22729 32685 24103 Q 32439 24588 32055 25046 Q 31020 26345 28488 27300 L 28611 27525 Q 31879 26875 33432 25745 Q 34501 24986 35008 24092 Q 35731 22761 35717 21320 L 35717 19026 Q 36063 18977 36206 18836 Q 36349 18696 36372 18493 L 33280 18207 L 33280 21279 Z M 40264 27423 L 40694 27423 Q 41437 27402 42051 27185 Q 42664 26968 42701 26808 L 42701 19108 Q 43047 19045 43190 18913 Q 43332 18781 43356 18596 L 40264 18309 L 40264 27423 Z M 40653 11633 Q 39834 13384 38154 14705 Q 36812 14171 35720 13414 Q 34627 12658 33853 11633 L 40653 11633 Z M 46469 11633 Q 46950 11638 47063 11305 Q 46362 10737 45595 10171 Q 45350 9990 45137 9835 Q 44465 9347 44421 9318 L 42947 11039 L 28774 11039 L 28959 11633 L 33362 11633 Q 34632 14157 36762 15667 Q 35095 16664 32937 17395 Q 30779 18127 28221 18616 L 28303 18883 Q 31169 18596 33646 18030 Q 36124 17464 38113 16548 Q 39731 17432 41687 17987 Q 43643 18541 45875 18842 Q 46188 17101 47698 16650 L 47718 16404 Q 45729 16331 43820 16084 Q 41910 15838 40182 15380 Q 42435 13891 43643 11633 L 46469 11633 Z M 53453 24822 L 53453 19149 L 63324 19149 L 63324 24822 L 53453 24822 Z M 63324 13046 L 63324 18555 L 53453 18555 L 53453 13046 L 63324 13046 Z M 64348 11059 L 63078 12493 L 56545 12493 Q 57364 11768 58114 10945 Q 58864 10123 59439 9445 Q 59467 9412 59494 9380 Q 60175 9364 60273 8950 L 56689 8090 Q 56560 9091 56343 10291 Q 56126 11492 55890 12493 L 53658 12493 L 50893 11387 L 50893 27341 L 51323 27341 Q 52182 27312 52803 26995 Q 53423 26678 53453 26419 L 53453 25416 L 63324 25416 L 63324 27238 L 63713 27238 Q 64473 27205 65139 26889 Q 65170 26875 65200 26861 Q 65850 26541 65905 26358 L 65905 13578 Q 66632 13384 66867 13066 L 64348 11059 Z M 84029 17879 L 84029 24801 L 76145 24801 L 76145 17879 L 84029 17879 Z M 84275 10424 L 69489 10424 L 69652 11018 L 75633 11018 Q 75022 13717 73515 16479 Q 73233 16993 72925 17498 Q 71276 20207 69038 22303 L 69222 22487 Q 71752 21018 73728 18964 L 73728 27402 L 74179 27402 Q 75108 27374 75622 27116 Q 76137 26857 76145 26706 L 76145 25395 L 84029 25395 L 84029 27279 L 84419 27279 Q 85070 27256 85726 27030 Q 85745 27023 85763 27017 Q 86410 26789 86487 26644 L 86487 18350 Q 87148 18161 87409 17879 L 84972 15974 L 83804 17306 L 76390 17306 L 75469 16937 Q 76531 15548 77335 14047 Q 78140 12546 78664 11018 L 87859 11018 Q 88356 11023 88453 10691 Q 87769 10120 87003 9519 Q 86717 9294 86473 9104 Q 85812 8591 85770 8561 L 84275 10424 Z M 100700 17818 L 106045 8479 L 105452 8110 L 99881 17818 L 105452 27525 L 106045 27156 L 100700 17818 Z M 103608 17818 L 108954 8479 L 108360 8110 L 102789 17818 L 108360 27525 L 108954 27156 L 103608 17818 Z M 116224 13394 Q 116935 13353 117420 13189 Q 117904 13025 117924 12861 L 117924 11305 L 121569 11305 L 121569 13292 L 121958 13292 Q 122781 13276 123351 13107 Q 123921 12938 123945 12800 L 123945 11305 L 128840 11305 Q 129316 11310 129393 10977 Q 128824 10432 128171 9874 Q 128003 9729 127853 9601 Q 127263 9104 127222 9073 L 125972 10732 L 123945 10732 L 123945 9032 Q 124337 8984 124495 8840 Q 124653 8696 124662 8479 L 121569 8212 L 121569 10732 L 117924 10732 L 117924 9032 Q 118316 8984 118474 8840 Q 118632 8696 118641 8479 L 115589 8212 L 115589 10732 L 110244 10732 L 110387 11305 L 115589 11305 L 115589 13087 L 114463 12575 Q 113622 14806 112433 16799 Q 111243 18792 110019 20132 L 110244 20337 Q 111565 19599 112824 18555 L 112824 27423 L 113254 27423 Q 113944 27400 114491 27177 Q 115038 26954 115098 26808 L 115098 17142 Q 115645 17050 115732 16773 L 114954 16466 Q 115820 15452 116593 14254 Q 117289 14331 117432 13947 L 116224 13394 Z M 118989 21422 L 118989 17900 L 120873 17900 L 120873 21422 L 118989 21422 Z M 122982 18186 Q 123576 18033 123740 17818 L 121672 16241 L 120689 17306 L 119091 17306 L 116920 16425 L 116920 23941 L 117228 23941 Q 117902 23916 118431 23672 Q 118959 23428 118989 23265 L 118989 22016 L 120873 22016 L 120873 23409 L 121242 23409 Q 121792 23388 122358 23199 Q 122924 23009 122982 22897 L 122982 18186 Z M 125911 14438 L 116654 14438 L 116818 15032 L 124867 15032 L 124867 24494 Q 124913 24873 124436 24883 Q 124126 24879 123414 24836 Q 122999 24812 122621 24787 Q 121969 24744 121917 24740 L 121917 25006 Q 122671 25132 123080 25334 Q 123488 25536 123720 25784 Q 124119 26327 124150 27423 Q 126008 27266 126622 26581 Q 126695 26508 126756 26429 Q 127273 25694 127222 24576 L 127222 15032 L 128922 15032 Q 129393 15037 129495 14705 Q 128888 14150 128204 13589 Q 128021 13438 127857 13305 Q 127243 12810 127201 12780 L 125911 14438 Z M 136745 13681 Q 137408 13626 137856 13471 Q 138304 13316 138322 13169 L 138322 11407 L 142090 11407 L 142090 13619 L 142479 13619 Q 143302 13589 143872 13402 Q 144442 13214 144466 13046 L 144466 11407 L 149299 11407 Q 149786 11412 149873 11080 Q 149310 10541 148649 9980 Q 148462 9820 148295 9680 Q 147702 9186 147661 9155 L 146391 10834 L 144466 10834 L 144466 9011 Q 144871 8949 145027 8814 Q 145182 8679 145203 8479 L 142090 8192 L 142090 10834 L 138322 10834 L 138322 9011 Q 138714 8949 138872 8814 Q 139030 8679 139039 8479 L 135987 8192 L 135987 10834 L 130724 10834 L 130867 11407 L 135987 11407 L 135987 13332 L 135680 13189 Q 134743 15709 133345 17841 Q 131948 19972 130458 21340 L 130642 21545 Q 132659 20608 134431 19087 L 134431 27402 L 134881 27402 Q 135574 27380 136148 27167 Q 136723 26953 136786 26808 L 136786 17981 Q 137334 17874 137421 17613 L 136294 17183 Q 137144 16174 137871 14950 Q 138604 15017 138752 14623 L 136745 13681 Z M 148890 21463 L 148644 21463 Q 148351 22493 148109 23258 Q 147866 24022 147681 24330 Q 147487 24643 147108 24617 Q 146616 24653 145510 24658 L 143585 24658 Q 143075 24662 142894 24535 Q 142714 24408 142725 24105 L 142725 20132 Q 144132 19593 145516 18862 Q 146899 18131 148152 17224 Q 148838 17469 149094 17162 L 146780 14991 Q 144906 16916 142725 18473 L 142725 14520 Q 143401 14413 143401 13967 L 140370 13681 L 140370 20029 Q 139238 20710 138199 21176 L 138301 21422 Q 139290 21238 140370 20931 L 140370 24658 Q 140339 25908 140925 26371 Q 141512 26833 143094 26808 L 145285 26808 Q 147893 26817 148877 26496 Q 149860 26175 149811 25416 Q 149821 25098 149635 24873 Q 149448 24648 148951 24453 L 148890 21463 Z M 164352 13435 L 164086 13558 Q 165304 15412 166304 17655 Q 166380 17830 166454 18006 Q 167417 20261 167690 22426 Q 168774 23317 169514 22818 Q 170254 22318 170249 20905 Q 170243 20691 170214 20462 Q 170058 18949 168693 17073 Q 167327 15197 164352 13435  Z M 155034 13025 Q 154729 14951 154023 17305 Q 153723 18292 153351 19276 Q 152479 21624 151224 23511 L 151429 23695 Q 153574 22004 155019 19791 Q 155325 19335 155603 18872 Q 156914 16627 157655 14602 Q 158047 14601 158223 14500 Q 158400 14399 158454 14213 L 155034 13025 Z M 159724 8479 L 159724 24187 Q 159759 24607 159212 24596 Q 158873 24593 158045 24551 Q 157315 24515 156665 24478 Q 155925 24436 155873 24433 L 155873 24719 Q 156808 24872 157312 25093 Q 157816 25315 158106 25620 Q 158421 25895 158564 26335 Q 158707 26774 158761 27402 Q 160804 27207 161521 26567 Q 161673 26439 161789 26294 Q 162315 25565 162263 24392 L 162263 9380 Q 162980 9262 163021 8806 L 159724 8479 Z M 182743 22528 L 171991 22528 L 172134 23122 L 185631 23122 Q 186117 23127 186204 22794 Q 185610 22263 184943 21709 Q 184768 21564 184613 21435 Q 184013 20942 183972 20910 L 182743 22528 Z M 188436 17490 L 187167 18698 L 177111 18698 L 177111 11264 L 184996 11264 Q 184776 15345 184156 15892 Q 184040 15983 183900 16020 Q 183761 16058 183521 16056 Q 183187 16055 182477 16015 Q 181766 15976 181187 15913 L 181187 16179 Q 182426 16425 182927 16916 Q 183152 17158 183227 17472 Q 183302 17786 183296 18227 Q 184138 18236 184783 18117 Q 185429 17999 185917 17654 Q 186610 17161 186941 15754 Q 187273 14348 187412 11674 Q 188006 11551 188232 11305 L 186040 9503 L 184812 10691 L 179814 10691 Q 180253 10329 180700 9940 Q 181147 9552 181494 9236 Q 182195 9231 182313 8704 L 178688 8069 Q 178663 8383 178637 8750 Q 178602 9243 178560 9751 Q 178518 10259 178463 10691 L 177418 10691 L 174694 9626 L 174694 18452 Q 174326 18744 174080 19067 L 176517 20480 L 177254 19292 L 187372 19292 Q 187284 21604 187105 23055 Q 186926 24507 186593 24822 Q 186394 25021 185917 25006 Q 185515 25003 184546 24948 Q 184454 24942 184359 24936 Q 183368 24877 182497 24801 L 182497 25068 Q 183296 25208 183956 25428 Q 184617 25649 184955 25928 Q 185554 26435 185508 27402 Q 186555 27407 187233 27246 Q 187912 27085 188375 26706 Q 189082 26131 189402 24399 Q 189721 22668 189829 19681 Q 190428 19574 190628 19313 L 188436 17490 Z M 178401 12268 Q 178995 12838 179576 13642 Q 180158 14447 180429 15278 Q 181364 15740 181986 15333 Q 182553 14964 182559 14269 Q 182564 13575 181722 12945 Q 180811 12254 178545 12124 L 178401 12268 Z M 199741 19108 Q 200827 19590 201590 20191 Q 202353 20792 202670 21258 Q 203437 21500 203833 21027 Q 204154 20645 204006 20101 Q 203859 19557 203049 19150 Q 202082 18647 199844 18821 L 199741 19108 Z M 198124 22057 Q 200150 22640 201723 23427 Q 203296 24213 204063 24842 Q 204936 25003 205298 24453 Q 205645 23922 205176 23191 Q 204707 22460 203090 21985 Q 201420 21492 198164 21770 L 198124 22057 Z M 195850 25211 L 195850 10322 L 198881 10322 Q 198603 11708 197964 13373 L 197904 13527 Q 197250 15190 196342 16486 L 196506 16732 Q 197949 15703 199086 14336 Q 199782 15677 200786 16650 Q 198738 18458 196014 19558 L 196157 19825 Q 199424 19067 201830 17572 Q 203597 18872 205885 19620 Q 206249 18048 207503 17674 L 207503 17428 Q 205379 17152 203407 16445 Q 204964 15181 205967 13578 Q 206329 13553 206518 13494 Q 206707 13434 206807 13271 L 204841 11551 L 203612 12677 L 200335 12677 Q 200678 12129 200929 11612 Q 201487 11694 201585 11407 L 198984 10322 L 207544 10322 L 207544 25211 L 195850 25211 Z M 203551 13271 Q 202860 14592 201769 15729 Q 200346 15022 199414 13947 Q 199685 13609 199925 13271 Q 199926 13271 199926 13271 L 203551 13271 Z M 208507 8438 L 207340 9728 L 196035 9728 L 193475 8663 L 193475 27402 L 193884 27402 Q 194679 27375 195251 27067 Q 195823 26759 195850 26501 L 195850 25784 L 207544 25784 L 207544 27300 L 207933 27300 Q 208633 27269 209265 26982 L 209275 26978 Q 209904 26690 209961 26522 L 209961 10711 Q 210606 10573 210821 10281 L 208507 8438 Z M 216084 27525 L 221655 17818 L 216084 8110 L 215491 8479 L 220836 17818 L 215491 27156 L 216084 27525 Z M 213176 27525 L 218747 17818 L 213176 8110 L 212582 8479 L 217928 17818 L 212582 27156 L 213176 27525 Z " fill-rule="nonzero" style="fill:#333333;;fill-opacity:1;"/>
</svg>